G04 PROTEUS GERBER X2 FILE*
%TF.GenerationSoftware,Labcenter,Proteus,8.7-SP3-Build25561*%
%TF.CreationDate,2021-06-13T19:25:45+00:00*%
%TF.FileFunction,Paste,Bot*%
%TF.FilePolarity,Positive*%
%TF.Part,Single*%
%TF.SameCoordinates,{9c7b3d0d-a21c-4509-bc3d-39c11cb24c33}*%
%FSLAX45Y45*%
%MOMM*%
G01*
%AMPPAD127*
4,1,4,
0.628620,-0.449010,
0.449010,-0.628620,
-0.628620,0.449010,
-0.449010,0.628620,
0.628620,-0.449010,
0*%
%TA.AperFunction,Material*%
%ADD137PPAD127*%
%AMPPAD128*
4,1,4,
0.449010,0.628620,
0.628620,0.449010,
-0.449010,-0.628620,
-0.628620,-0.449010,
0.449010,0.628620,
0*%
%ADD138PPAD128*%
%AMPPAD129*
4,1,4,
0.422070,0.637600,
0.637600,0.422070,
-0.422070,-0.637600,
-0.637600,-0.422070,
0.422070,0.637600,
0*%
%ADD139PPAD129*%
%AMPPAD130*
4,1,4,
0.637600,-0.422070,
0.422070,-0.637600,
-0.637600,0.422070,
-0.422070,0.637600,
0.637600,-0.422070,
0*%
%ADD140PPAD130*%
%TA.AperFunction,Material*%
%ADD141R,0.635000X0.508000*%
%TA.AperFunction,Material*%
%ADD129R,1.803400X1.143000*%
%TA.AperFunction,Material*%
%ADD119R,6.985000X6.985000*%
%ADD120R,1.524000X2.540000*%
%TA.AperFunction,Material*%
%ADD123R,1.143000X1.803400*%
%AMPPAD101*
4,1,36,
0.901700,-0.025400,
0.901700,0.025400,
0.898160,0.061750,
0.887980,0.095370,
0.871810,0.125600,
0.850300,0.151800,
0.824110,0.173310,
0.793870,0.189480,
0.760250,0.199660,
0.723900,0.203200,
-0.723900,0.203200,
-0.760250,0.199660,
-0.793870,0.189480,
-0.824110,0.173310,
-0.850300,0.151800,
-0.871810,0.125600,
-0.887980,0.095370,
-0.898160,0.061750,
-0.901700,0.025400,
-0.901700,-0.025400,
-0.898160,-0.061750,
-0.887980,-0.095370,
-0.871810,-0.125600,
-0.850300,-0.151800,
-0.824110,-0.173310,
-0.793870,-0.189480,
-0.760250,-0.199660,
-0.723900,-0.203200,
0.723900,-0.203200,
0.760250,-0.199660,
0.793870,-0.189480,
0.824110,-0.173310,
0.850300,-0.151800,
0.871810,-0.125600,
0.887980,-0.095370,
0.898160,-0.061750,
0.901700,-0.025400,
0*%
%TA.AperFunction,Material*%
%ADD111PPAD101*%
%TA.AperFunction,Material*%
%ADD142R,2.743200X0.990600*%
%ADD143R,6.146800X5.562600*%
%TA.AperFunction,Material*%
%ADD144R,5.588000X2.032000*%
%TA.AperFunction,Profile*%
%ADD46C,0.203200*%
%TD.AperFunction*%
D137*
X+5589396Y-5904103D03*
X+5554040Y-5939459D03*
X+5518685Y-5974814D03*
X+5483330Y-6010169D03*
X+5447974Y-6045525D03*
X+5412619Y-6080880D03*
X+5377264Y-6116235D03*
X+5341908Y-6151591D03*
X+5306553Y-6186946D03*
X+5271198Y-6222301D03*
X+5235842Y-6257657D03*
X+5200487Y-6293012D03*
X+5165132Y-6328367D03*
X+5129776Y-6363723D03*
X+5094421Y-6399078D03*
X+5059066Y-6434434D03*
X+5023710Y-6469789D03*
X+4988355Y-6505144D03*
X+4953000Y-6540500D03*
X+4917644Y-6575855D03*
X+4882289Y-6611210D03*
X+4846934Y-6646566D03*
X+4811578Y-6681921D03*
X+4776223Y-6717276D03*
X+4740868Y-6752632D03*
X+4705512Y-6787987D03*
X+4670157Y-6823342D03*
X+4634802Y-6858698D03*
X+4599446Y-6894053D03*
X+4564091Y-6929408D03*
X+4528736Y-6964764D03*
X+4493380Y-7000119D03*
X+4458025Y-7035474D03*
X+4422670Y-7070830D03*
X+4387314Y-7106185D03*
X+4351959Y-7141540D03*
D138*
X+4076187Y-7141540D03*
X+4040832Y-7106185D03*
X+4005477Y-7070830D03*
X+3970121Y-7035474D03*
X+3934766Y-7000119D03*
D139*
X+3899411Y-6964764D03*
D138*
X+3864055Y-6929408D03*
X+3828700Y-6894053D03*
X+3793345Y-6858698D03*
X+3757989Y-6823342D03*
X+3722634Y-6787987D03*
X+3687279Y-6752632D03*
X+3651923Y-6717276D03*
X+3616568Y-6681921D03*
X+3581213Y-6646566D03*
X+3545857Y-6611210D03*
X+3510502Y-6575855D03*
X+3475147Y-6540500D03*
X+3439791Y-6505144D03*
X+3404436Y-6469789D03*
X+3369081Y-6434434D03*
X+3333725Y-6399078D03*
X+3298370Y-6363723D03*
X+3263015Y-6328367D03*
X+3227659Y-6293012D03*
X+3192304Y-6257657D03*
X+3156948Y-6222301D03*
X+3121593Y-6186946D03*
X+3086238Y-6151591D03*
X+3050882Y-6116235D03*
X+3015527Y-6080880D03*
X+2980172Y-6045525D03*
X+2944816Y-6010169D03*
X+2909461Y-5974814D03*
X+2874106Y-5939459D03*
X+2838750Y-5904103D03*
D137*
X+2838750Y-5628332D03*
X+2874106Y-5592976D03*
X+2909461Y-5557621D03*
X+2944816Y-5522266D03*
X+2980172Y-5486910D03*
X+3015527Y-5451555D03*
X+3050882Y-5416200D03*
X+3086238Y-5380844D03*
X+3121593Y-5345489D03*
X+3156948Y-5310134D03*
X+3192304Y-5274778D03*
X+3227659Y-5239423D03*
X+3263015Y-5204068D03*
X+3298370Y-5168712D03*
X+3333725Y-5133357D03*
X+3369081Y-5098002D03*
X+3404436Y-5062646D03*
X+3439791Y-5027291D03*
X+3475147Y-4991936D03*
X+3510502Y-4956580D03*
X+3545857Y-4921225D03*
X+3581213Y-4885870D03*
X+3616568Y-4850514D03*
X+3651923Y-4815159D03*
X+3687279Y-4779804D03*
X+3722634Y-4744448D03*
X+3757989Y-4709093D03*
X+3793345Y-4673738D03*
X+3828700Y-4638382D03*
X+3864055Y-4603027D03*
X+3899411Y-4567672D03*
X+3934766Y-4532316D03*
X+3970121Y-4496961D03*
D140*
X+4005477Y-4461606D03*
D137*
X+4040832Y-4426250D03*
X+4076187Y-4390895D03*
D138*
X+4351959Y-4390895D03*
X+4387314Y-4426250D03*
X+4422670Y-4461606D03*
X+4458025Y-4496961D03*
X+4493380Y-4532316D03*
X+4528736Y-4567672D03*
X+4564091Y-4603027D03*
X+4599446Y-4638382D03*
X+4634802Y-4673738D03*
X+4670157Y-4709093D03*
X+4705512Y-4744448D03*
X+4740868Y-4779804D03*
X+4776223Y-4815159D03*
X+4811578Y-4850514D03*
X+4846934Y-4885870D03*
X+4882289Y-4921225D03*
X+4917644Y-4956580D03*
X+4953000Y-4991936D03*
X+4988355Y-5027291D03*
X+5023710Y-5062646D03*
X+5059066Y-5098002D03*
X+5094421Y-5133357D03*
X+5129776Y-5168712D03*
X+5165132Y-5204068D03*
X+5200487Y-5239423D03*
X+5235842Y-5274778D03*
X+5271198Y-5310134D03*
X+5306553Y-5345489D03*
X+5341908Y-5380844D03*
X+5377264Y-5416200D03*
X+5412619Y-5451555D03*
X+5447974Y-5486910D03*
X+5483330Y-5522266D03*
X+5518685Y-5557621D03*
X+5554040Y-5592976D03*
X+5589396Y-5628332D03*
D141*
X+913740Y-5905500D03*
X+913740Y-5811520D03*
X+913740Y-5715000D03*
X+1152500Y-5715000D03*
X+1152500Y-5905500D03*
X+1793240Y-5715000D03*
X+1793240Y-5621020D03*
X+1793240Y-5524500D03*
X+2032000Y-5524500D03*
X+2032000Y-5715000D03*
X+913740Y-6858000D03*
X+913740Y-6764020D03*
X+913740Y-6667500D03*
X+1152500Y-6667500D03*
X+1152500Y-6858000D03*
D129*
X+5143500Y-698500D03*
X+5143500Y-998500D03*
X+5143500Y-190500D03*
X+5143500Y-480500D03*
X+4889500Y-190500D03*
X+4889500Y-490500D03*
X+4889500Y-698500D03*
X+4889500Y-988500D03*
D119*
X-546100Y-4071620D03*
D120*
X-317500Y-4762500D03*
X-774700Y-4762500D03*
D119*
X+292100Y-4071620D03*
D120*
X+520700Y-4762500D03*
X+63500Y-4762500D03*
D123*
X-462000Y-5080000D03*
X-762000Y-5080000D03*
D129*
X+825500Y-4762500D03*
X+825500Y-4462500D03*
X+4889500Y-1206500D03*
X+4889500Y-1506500D03*
X+5143500Y-1714500D03*
X+5143500Y-2014500D03*
X+4889500Y-1714500D03*
X+4889500Y-2004500D03*
X+5143500Y-1206500D03*
X+5143500Y-1496500D03*
D111*
X+6259000Y-3273402D03*
X+6259000Y-3338402D03*
X+6259000Y-3403402D03*
X+6259000Y-3468402D03*
X+5829000Y-3468402D03*
X+5829000Y-3403402D03*
X+5829000Y-3338402D03*
X+5829000Y-3273402D03*
X+7486107Y-3273033D03*
X+7486107Y-3338033D03*
X+7486107Y-3403033D03*
X+7486107Y-3468033D03*
X+7056107Y-3468033D03*
X+7056107Y-3403033D03*
X+7056107Y-3338033D03*
X+7056107Y-3273033D03*
X+8735869Y-3274533D03*
X+8735869Y-3339533D03*
X+8735869Y-3404533D03*
X+8735869Y-3469533D03*
X+8305869Y-3469533D03*
X+8305869Y-3404533D03*
X+8305869Y-3339533D03*
X+8305869Y-3274533D03*
D123*
X+6195500Y-2957402D03*
X+5895500Y-2957402D03*
X+7422607Y-2957033D03*
X+7122607Y-2957033D03*
X+8672369Y-2958533D03*
X+8372369Y-2958533D03*
X+6432000Y-3719402D03*
X+6132000Y-3719402D03*
X+7676607Y-3719033D03*
X+7376607Y-3719033D03*
X+8908869Y-3719033D03*
X+8608869Y-3719033D03*
X+6432000Y-3973402D03*
X+6132000Y-3973402D03*
X+5824500Y-4227402D03*
X+5524500Y-4227402D03*
X+5524500Y-3719402D03*
X+5814500Y-3719402D03*
X+6422000Y-4227402D03*
X+6132000Y-4227402D03*
X+5814500Y-3973402D03*
X+5524500Y-3973402D03*
X+6787607Y-3719033D03*
X+7077607Y-3719033D03*
X+7676607Y-3973033D03*
X+7386607Y-3973033D03*
X+7077607Y-3973033D03*
X+6787607Y-3973033D03*
X+8019869Y-3719033D03*
X+8309869Y-3719033D03*
X+8908869Y-3973033D03*
X+8618869Y-3973033D03*
X+8309869Y-3973033D03*
X+8019869Y-3973033D03*
X+7087607Y-4227033D03*
X+6787607Y-4227033D03*
X+7676607Y-4227033D03*
X+7376607Y-4227033D03*
X+8319869Y-4227033D03*
X+8019869Y-4227033D03*
X+8908869Y-4227033D03*
X+8608869Y-4227033D03*
D129*
X+7112000Y-698500D03*
X+7112000Y-988500D03*
X+7366000Y-218000D03*
X+7366000Y-508000D03*
X+7112000Y-1714500D03*
X+7112000Y-2004500D03*
X+7366000Y-1206500D03*
X+7366000Y-1496500D03*
X+7112000Y-208000D03*
X+7112000Y-508000D03*
X+7366000Y-698500D03*
X+7366000Y-998500D03*
X+7112000Y-1206500D03*
X+7112000Y-1506500D03*
X+7366000Y-1714500D03*
X+7366000Y-2014500D03*
X+9080500Y-190500D03*
X+9080500Y-490500D03*
X+9334500Y-698500D03*
X+9334500Y-998500D03*
X+9334500Y-1206500D03*
X+9334500Y-1506500D03*
X+9080500Y-1714500D03*
X+9080500Y-2014500D03*
X+9080500Y-698500D03*
X+9080500Y-988500D03*
X+9334500Y-190500D03*
X+9334500Y-480500D03*
X+9334500Y-1714500D03*
X+9334500Y-2004500D03*
X+9080500Y-1206500D03*
X+9080500Y-1496500D03*
D142*
X+6667500Y-5778500D03*
X+6667500Y-5322500D03*
D143*
X+7337500Y-5550500D03*
D144*
X+6680200Y-7239000D03*
X+5715000Y-7239000D03*
D129*
X+7112000Y-7002500D03*
X+7112000Y-7302500D03*
X+5270500Y-7002500D03*
X+5270500Y-7302500D03*
D123*
X+1152500Y-6413500D03*
X+862500Y-6413500D03*
X+1152500Y-6159500D03*
X+862500Y-6159500D03*
X+2004500Y-5905500D03*
X+1714500Y-5905500D03*
X+1152500Y-7112000D03*
X+862500Y-7112000D03*
D129*
X+9500Y-6032500D03*
X+9500Y-5742500D03*
X+6731000Y-6576500D03*
X+6731000Y-6286500D03*
D123*
X+6187000Y-6794500D03*
X+6477000Y-6794500D03*
X+1397000Y-6667500D03*
X+1687000Y-6667500D03*
D129*
X+6477000Y-6286500D03*
X+6477000Y-6586500D03*
X+6159500Y-6286500D03*
X+6159500Y-6586500D03*
X+5651500Y-6286500D03*
X+5651500Y-6586500D03*
X+5905500Y-6286500D03*
X+5905500Y-6586500D03*
D123*
X+1697000Y-6413500D03*
X+1397000Y-6413500D03*
X+1697000Y-6159500D03*
X+1397000Y-6159500D03*
X+1697000Y-4254500D03*
X+1397000Y-4254500D03*
D129*
X+5016500Y-7139500D03*
X+5016500Y-7429500D03*
X+6223000Y-6032500D03*
X+6223000Y-5742500D03*
D123*
X+1905000Y-4508500D03*
X+2195000Y-4508500D03*
X+1905000Y-4254500D03*
X+2195000Y-4254500D03*
X+1397000Y-4508500D03*
X+1687000Y-4508500D03*
X+1560000Y-4762500D03*
X+1270000Y-4762500D03*
D46*
X-1079500Y-7620000D02*
X+9715500Y-7620000D01*
X+9715500Y+2349500D01*
X-1079500Y+2349500D01*
X-1079500Y-7620000D01*
M02*
