M48
METRIC,TZ
T01C0.3810
T02C2.0320
T03C3.0000
T04C1.5240
T05C1.0000
T06C4.0000
T07C1.1430
%
T01
X+32131Y-14977
X+32131Y-13081
X+32131Y-11457
X+41275Y-6178
X+43307Y-6178
X+33147Y-2658
X+35179Y-2658
X+37211Y-2658
X+39243Y-2658
X+41275Y-2658
X+32131Y-898
X+34163Y-898
X+36195Y-898
X+38227Y-898
X+40259Y-898
X+44323Y-898
X+40132Y+10523
X+39116Y+12283
X+41148Y+12283
X+38100Y+14043
X+40132Y+14043
X+39116Y+15802
X+38100Y+17562
X+39370Y+19050
X+85979Y+12283
X+88011Y+12283
X+85979Y+15802
X+87249Y+18669
X+63640Y+10523
X+62624Y+12283
X+64656Y+12283
X+61608Y+14043
X+63640Y+14043
X+62624Y+15802
X+61608Y+17562
X+62865Y+19050
X+77470Y-34290
X+64286Y-33635
X+32004Y-16764
X+41275Y-7938
X+43815Y-7938
X-1341Y-51054
X+14722Y-5352
X+13452Y-3152
X+15992Y-3152
X+14722Y-952
X+13452Y+1247
X+17145Y-635
X+12065Y+9525
X+15875Y+11430
X+83058Y+12575
X+90678Y+12575
X+85090Y+19431
X+85598Y+21374
X+88138Y+21374
X+41910Y-39370
X+75191Y-45199
X+78740Y-45085
X+38117Y-40099
X+38100Y-43180
X+44450Y-25400
X+67564Y-21844
X+5080Y-9586
X+7620Y-9586
X+3810Y-7386
X+6350Y-7386
X+0Y-5187
X+5080Y-5187
X+7620Y-5187
X+3810Y-2987
X+6350Y-2987
X+0Y-787
X+5080Y-787
X+7620Y-787
X-3810Y+1412
X-1270Y+1412
X+3810Y+1412
X+6350Y+1412
X-5080Y+3612
X-2540Y+3612
X+0Y+3612
X+5080Y+3612
X+7620Y+3612
X+3810Y+5812
X+6350Y+5812
X+2540Y+8012
X+5080Y+8012
X+7620Y+8012
X+53840Y-45356
X+42832Y-42830
X+48260Y-32678
X+26670Y-24765
X+75438Y-8128
X+81278Y-29939
X+81182Y-28537
X+52494Y-8042
X+66962Y-30358
X+52578Y-17145
X+59055Y-24892
X+66988Y-31808
X+76647Y-16769
X+80010Y-24984
X+63500Y-22784
X+78740Y-22784
X+81280Y-22784
X+83820Y-22784
X+85090Y-20585
X+87630Y-20585
X+12182Y-14151
X+19802Y-952
X+39243Y-8239
X+34163Y-6479
X+38227Y-6479
X+79248Y-16089
X+78359Y-14549
X+77470Y-13009
X+79248Y-13009
X+78359Y-11469
X+80137Y-8390
X+85471Y-8390
X+87249Y-8390
X+89027Y-8390
X+86360Y-6850
X+88138Y-6850
X+89916Y-6850
X+80137Y-5310
X+81026Y-3771
X+82804Y-3771
X+84582Y-3771
X+78359Y-2231
X+80137Y-2231
X+81915Y-2231
X+83693Y-2231
X+85471Y-2231
X+87249Y-2231
X+77470Y-691
X+79248Y-691
X+81026Y-691
X+82804Y-691
X+84582Y-691
X+86360Y-691
X+88138Y-691
X+56388Y-16089
X+55499Y-14549
X+54610Y-13009
X+56388Y-13009
X+55499Y-11469
X+57277Y-8390
X+66167Y-8390
X+65278Y-6850
X+67056Y-6850
X+57277Y-5310
X+66167Y-5310
X+58166Y-3771
X+59944Y-3771
X+55499Y-2231
X+57277Y-2231
X+59055Y-2231
X+60833Y-2231
X+62611Y-2231
X+64389Y-2231
X+54610Y-691
X+56388Y-691
X+58166Y-691
X+59944Y-691
X+61722Y-691
X+63500Y-691
X+70104Y-24130
X+35560Y-21684
X+37338Y-21684
X+62230Y-21684
X+80010Y-21684
X+8001Y-7826
X+0Y-3207
X+8001Y+1412
X+88265Y+16383
X+91059Y+14605
X+88026Y-61775
X+80645Y-45085
X+80010Y-48260
X+62865Y-45847
X+66040Y-45847
X+61532Y-48269
X+67787Y-45716
X+19558Y-33341
X+21590Y-33341
X+15494Y-29822
X+17526Y-29822
X+14478Y-28062
X+16510Y-28062
X+18542Y-28062
X+7366Y-26302
X+9398Y-26302
X+11430Y-26302
X+13462Y-26302
X+15494Y-26302
X+6350Y-24543
X+8382Y-24543
X+10414Y-24543
X+12446Y-24543
X+14478Y-24543
X+30734Y-24543
X+7366Y-22783
X+9398Y-22783
X+11430Y-22783
X+13462Y-22783
X+15494Y-22783
X+6350Y-21023
X+8382Y-21023
X+10414Y-21023
X+12446Y-21023
X+14478Y-21023
X+70104Y-21590
X+7366Y-19263
X+6350Y-17504
X+8382Y-17504
X+5334Y-15744
X+7366Y-15744
X+4318Y-13984
X+6350Y-13984
X+8382Y-13984
X+254Y-6945
X+3302Y-5185
X+8382Y-3425
X-6604Y+2540
X-762Y+5373
X-762Y+8893
X-8890Y+12412
X-8890Y+15932
X-8890Y+19451
X+1270Y+19451
X+3302Y+19451
X+5334Y+19451
X+7366Y+19451
X+9398Y+19451
X+13462Y+19451
X+15494Y+19451
X-7874Y+21211
X-8890Y+22971
X-6858Y+22971
X-7874Y+24731
X-5842Y+24731
X+2286Y+24731
X+4318Y+24731
X+6350Y+24731
X+8382Y+24731
X+10414Y+24731
X+12446Y+24731
X+14478Y+24731
X-6985Y-12573
X-9271Y-10541
X-8890Y-16029
X-7874Y-14270
X-3810Y-14270
X-8890Y-12510
X-7874Y-10750
X-8890Y-8990
X-8890Y-5471
X-4826Y-5471
X-5842Y-3711
X-3810Y-3711
X+16383Y-15910
X+15367Y-14151
X+14351Y-12391
X+16383Y-12391
X+13335Y-10631
X+15367Y-10631
X+14351Y-8871
X+13335Y-7112
X+15367Y-7112
X+13335Y+3447
X+14351Y+12246
X+31458Y-53331
X+48958Y-49466
X+39448Y-35326
X+54314Y-29718
X+28575Y-7620
X+29210Y-10160
X+35763Y-26431
X+48189Y-29253
X+58420Y-31623
X+33020Y-52070
X+47523Y-47650
X+12065Y-16350
X+2286Y+12906
X+4064Y+12906
X+5842Y+12906
X+7620Y+12906
X+9398Y+12906
X+88011Y-22783
X+33782Y-21243
X-5334Y+314
X-8890Y+3394
X-5334Y+18792
X+68831Y-32301
X+68326Y-9017
X+52491Y-14533
X+13843Y-16350
X+18923Y-16350
X+17653Y-14151
X+20193Y-14151
X+18923Y-11951
X+17653Y-9751
X+20193Y-9751
X+18923Y-7552
X+17653Y-5352
X+20193Y-5352
X+18923Y-3152
X+26543Y-3152
X+22733Y-952
X+16383Y+1247
X+18923Y+1247
X+15113Y+3447
X+17653Y+3447
X+22733Y+3447
X+25273Y+3447
X+15113Y+7846
X+17653Y+7846
X+20193Y+7846
X+22733Y+7846
X+25273Y+7846
X+13843Y+10046
X+18923Y+10046
X-1067Y-62433
X-9093Y-54846
X-9093Y-52306
X-9093Y-47226
X+23266Y+25603
X+25806Y+25603
X+33426Y+25603
X+35966Y+25603
X+38506Y+25603
X+41046Y+25603
X+43586Y+25603
X+46126Y+25603
X+48666Y+25603
X+51206Y+25603
X+53746Y+25603
X+56286Y+25603
X+58826Y+25603
X+61366Y+25603
X+63906Y+25603
X+66446Y+25603
X+68986Y+25603
X+71526Y+25603
X+74066Y+25603
X+76606Y+25603
X+79146Y+25603
X+81686Y+25603
X+84226Y+25603
X+86766Y+25603
X+89306Y+25603
X+95453Y+18218
X+95453Y+15678
X+95453Y+13138
X+95453Y-27502
X+95453Y-30042
X+95453Y-32582
X+95453Y-35122
X+95453Y-37662
X+95453Y-40202
X+95453Y-42742
X+95453Y-45282
X+95453Y-47822
X+95453Y-50362
X+95453Y-52902
X+95453Y-55442
X+54305Y-59903
X+32715Y-57703
X+35255Y-57703
X+31445Y-55504
X+33985Y-55504
X+36525Y-55504
X+91135Y-44505
X+93675Y-44505
X+8585Y-42305
X+11125Y-42305
X+92405Y-42305
X+9855Y-40106
X+93675Y-40106
X+92405Y-37906
X+93675Y-35706
X+92405Y-33507
X+93675Y-31307
X+22555Y+12687
X+25095Y+12687
X+27635Y+12687
X+30175Y+12687
X+32715Y+12687
X+47955Y+12687
X+50495Y+12687
X+53035Y+12687
X+55575Y+12687
X+58115Y+12687
X+73355Y+12687
X+75895Y+12687
X+23825Y+14887
X+26365Y+14887
X+28905Y+14887
X+31445Y+14887
X+33985Y+14887
X+49225Y+14887
X+51765Y+14887
X+54305Y+14887
X+56845Y+14887
X+72085Y+14887
X+74625Y+14887
X+77165Y+14887
X+22555Y+17086
X+25095Y+17086
X+27635Y+17086
X+30175Y+17086
X+32715Y+17086
X+47955Y+17086
X+50495Y+17086
X+53035Y+17086
X+55575Y+17086
X+58115Y+17086
X+73355Y+17086
X+75895Y+17086
X+23825Y+19286
X+26365Y+19286
X+33985Y+19286
X+49225Y+19286
X+51765Y+19286
X+54305Y+19286
X+56845Y+19286
X+72085Y+19286
X+74625Y+19286
X+77165Y+19286
X+22555Y+21486
X+47955Y+21486
X+50495Y+21486
X+53035Y+21486
X+55575Y+21486
X+58115Y+21486
X+73355Y+21486
X+75895Y+21486
X+23825Y+23686
X+49225Y+23686
X+51765Y+23686
X+54305Y+23686
X+56845Y+23686
X+72085Y+23686
X+74625Y+23686
X+77165Y+23686
X+52494Y-14542
X+75456Y-14546
X+6350Y-34001
X+6350Y-29602
X+20320Y-27402
X+19050Y-25202
X+17780Y-23003
X+25400Y-23003
X+27940Y-23003
X+16510Y-20803
X+19050Y-20803
X-8890Y+9993
X+2540Y+20991
X+12700Y+20991
X+0Y+25391
X+17780Y+25391
X+48492Y+1360
X+48559Y+10154
X+93301Y-397
X+95123Y+10160
X+72127Y+1484
X+72009Y+10287
X+26025Y-56210
T02
X+43180Y+17145
X+66675Y+17145
X+82550Y+16510
X-4699Y-9906
X+11465Y+6258
T03
X-6023Y+7185
T04
X-5715Y-17272
X-1778Y+14732
X-1778Y+22232
X+17399Y+14605
X+17399Y+22105
T05
X+92456Y-51815
X+92456Y-49815
X+92456Y-47815
X+83565Y-59055
X+81565Y-59055
X+79565Y-59055
X+77565Y-59055
X+75565Y-59055
X+73565Y-59055
X+41245Y-59055
X+43245Y-59055
X+45245Y-59055
X+47245Y-59055
X+49245Y-59055
X+51245Y-59055
X+56865Y-59055
X+58865Y-59055
X+60865Y-59055
X+62865Y-59055
X+64865Y-59055
X+66865Y-59055
X+57120Y-52705
X+59120Y-52705
X+61120Y-52705
X+63120Y-52705
X+65120Y-52705
X+67120Y-52705
X+17230Y-60864
X+15230Y-60864
X+13230Y-60864
T06
X+92837Y+22987
X+29845Y+22987
X+92710Y-59690
X-6350Y-59690
T07
X+15875Y-38862
X+15875Y-33862
X+762Y-19558
X+4262Y-19558
X+762Y-27940
X+4262Y-27940
X+564Y-52578
X+4064Y-52578
X+1199Y-36703
X+4699Y-36703
M30
