G04 PROTEUS RS274X GERBER FILE*
%FSLAX45Y45*%
%MOMM*%
G01*
%ADD38C,0.203200*%
%ADD48C,0.200000*%
%ADD51C,0.250000*%
%ADD52C,0.100000*%
%ADD11C,0.508000*%
D38*
X-1079500Y-6413500D02*
X+9715500Y-6413500D01*
X+9715500Y+2730500D01*
X-1079500Y+2730500D01*
X-1079500Y-6413500D01*
D48*
X+2503000Y-811000D02*
X+2503000Y-921000D01*
X+2323000Y-811000D02*
X+2323000Y-921000D01*
X+2503000Y-313000D02*
X+2503000Y-413000D01*
X+2323000Y-313000D02*
X+2323000Y-413000D01*
X+2757000Y-821000D02*
X+2757000Y-921000D01*
X+2577000Y-821000D02*
X+2577000Y-921000D01*
D38*
X-235700Y-4597400D02*
X-235700Y-4673600D01*
X-870700Y-4673600D01*
X-870700Y-4597400D01*
X-515100Y-4673600D02*
X-515100Y-4724400D01*
X-591300Y-4724400D01*
X-591300Y-4673600D01*
X-286500Y-4673600D02*
X-286500Y-4749800D01*
X-350000Y-4749800D01*
X-350000Y-4673600D01*
X-819900Y-4673600D02*
X-819900Y-4749800D01*
X-756400Y-4749800D01*
X-756400Y-4673600D02*
X-756400Y-4749800D01*
X+602500Y-4597400D02*
X+602500Y-4673600D01*
X-32500Y-4673600D01*
X-32500Y-4597400D01*
X+323100Y-4673600D02*
X+323100Y-4724400D01*
X+246900Y-4724400D01*
X+246900Y-4673600D01*
X+551700Y-4673600D02*
X+551700Y-4749800D01*
X+488200Y-4749800D01*
X+488200Y-4673600D01*
X+18300Y-4673600D02*
X+18300Y-4749800D01*
X+81800Y-4749800D01*
X+81800Y-4673600D02*
X+81800Y-4749800D01*
D48*
X+78000Y-1550500D02*
X-32000Y-1550500D01*
X+78000Y-1370500D02*
X-32000Y-1370500D01*
X+78000Y-1042500D02*
X-32000Y-1042500D01*
X+78000Y-862500D02*
X-32000Y-862500D01*
X+78000Y-1296500D02*
X-32000Y-1296500D01*
X+78000Y-1116500D02*
X-32000Y-1116500D01*
X+984000Y-1053000D02*
X+1094000Y-1053000D01*
X+984000Y-1233000D02*
X+1094000Y-1233000D01*
X-564100Y-5322400D02*
X-674100Y-5322400D01*
X-564100Y-5142400D02*
X-674100Y-5142400D01*
X+728400Y-4819900D02*
X+728400Y-4709900D01*
X+908400Y-4819900D02*
X+908400Y-4709900D01*
X+2503000Y-1809500D02*
X+2503000Y-1919500D01*
X+2323000Y-1809500D02*
X+2323000Y-1919500D01*
X+2757000Y-1809500D02*
X+2757000Y-1909500D01*
X+2577000Y-1809500D02*
X+2577000Y-1909500D01*
X+2503000Y-1301500D02*
X+2503000Y-1401500D01*
X+2323000Y-1301500D02*
X+2323000Y-1401500D01*
D51*
X+6316500Y-3195902D02*
X+6316457Y-3194863D01*
X+6316105Y-3192784D01*
X+6315368Y-3190705D01*
X+6314164Y-3188626D01*
X+6312323Y-3186576D01*
X+6310244Y-3185073D01*
X+6308165Y-3184116D01*
X+6306086Y-3183577D01*
X+6304007Y-3183402D01*
X+6304000Y-3183402D01*
X+6291500Y-3195902D02*
X+6291543Y-3194863D01*
X+6291895Y-3192784D01*
X+6292632Y-3190705D01*
X+6293836Y-3188626D01*
X+6295677Y-3186576D01*
X+6297756Y-3185073D01*
X+6299835Y-3184116D01*
X+6301914Y-3183577D01*
X+6303993Y-3183402D01*
X+6304000Y-3183402D01*
X+6291500Y-3195902D02*
X+6291543Y-3196941D01*
X+6291895Y-3199020D01*
X+6292632Y-3201099D01*
X+6293836Y-3203178D01*
X+6295677Y-3205228D01*
X+6297756Y-3206731D01*
X+6299835Y-3207688D01*
X+6301914Y-3208227D01*
X+6303993Y-3208402D01*
X+6304000Y-3208402D01*
X+6316500Y-3195902D02*
X+6316457Y-3196941D01*
X+6316105Y-3199020D01*
X+6315368Y-3201099D01*
X+6314164Y-3203178D01*
X+6312323Y-3205228D01*
X+6310244Y-3206731D01*
X+6308165Y-3207688D01*
X+6306086Y-3208227D01*
X+6304007Y-3208402D01*
X+6304000Y-3208402D01*
D48*
X+6154000Y-3525902D02*
X+5934000Y-3525902D01*
X+5934000Y-3215902D01*
X+6154000Y-3215902D01*
X+6154000Y-3525902D01*
D52*
X+6154000Y-3225902D02*
X+6144000Y-3215902D01*
X+6154000Y-3235902D02*
X+6134000Y-3215902D01*
X+6154000Y-3245902D02*
X+6124000Y-3215902D01*
X+6154000Y-3255902D02*
X+6114000Y-3215902D01*
X+6154000Y-3265902D02*
X+6104000Y-3215902D01*
X+6154000Y-3275902D02*
X+6094000Y-3215902D01*
X+6154000Y-3285902D02*
X+6084000Y-3215902D01*
X+6154000Y-3295902D02*
X+6074000Y-3215902D01*
X+6154000Y-3305902D02*
X+6064000Y-3215902D01*
D51*
X+7543607Y-3195533D02*
X+7543564Y-3194494D01*
X+7543212Y-3192415D01*
X+7542475Y-3190336D01*
X+7541271Y-3188257D01*
X+7539430Y-3186207D01*
X+7537351Y-3184704D01*
X+7535272Y-3183747D01*
X+7533193Y-3183208D01*
X+7531114Y-3183033D01*
X+7531107Y-3183033D01*
X+7518607Y-3195533D02*
X+7518650Y-3194494D01*
X+7519002Y-3192415D01*
X+7519739Y-3190336D01*
X+7520943Y-3188257D01*
X+7522784Y-3186207D01*
X+7524863Y-3184704D01*
X+7526942Y-3183747D01*
X+7529021Y-3183208D01*
X+7531100Y-3183033D01*
X+7531107Y-3183033D01*
X+7518607Y-3195533D02*
X+7518650Y-3196572D01*
X+7519002Y-3198651D01*
X+7519739Y-3200730D01*
X+7520943Y-3202809D01*
X+7522784Y-3204859D01*
X+7524863Y-3206362D01*
X+7526942Y-3207319D01*
X+7529021Y-3207858D01*
X+7531100Y-3208033D01*
X+7531107Y-3208033D01*
X+7543607Y-3195533D02*
X+7543564Y-3196572D01*
X+7543212Y-3198651D01*
X+7542475Y-3200730D01*
X+7541271Y-3202809D01*
X+7539430Y-3204859D01*
X+7537351Y-3206362D01*
X+7535272Y-3207319D01*
X+7533193Y-3207858D01*
X+7531114Y-3208033D01*
X+7531107Y-3208033D01*
D48*
X+7381107Y-3525533D02*
X+7161107Y-3525533D01*
X+7161107Y-3215533D01*
X+7381107Y-3215533D01*
X+7381107Y-3525533D01*
D52*
X+7381107Y-3225533D02*
X+7371107Y-3215533D01*
X+7381107Y-3235533D02*
X+7361107Y-3215533D01*
X+7381107Y-3245533D02*
X+7351107Y-3215533D01*
X+7381107Y-3255533D02*
X+7341107Y-3215533D01*
X+7381107Y-3265533D02*
X+7331107Y-3215533D01*
X+7381107Y-3275533D02*
X+7321107Y-3215533D01*
X+7381107Y-3285533D02*
X+7311107Y-3215533D01*
X+7381107Y-3295533D02*
X+7301107Y-3215533D01*
X+7381107Y-3305533D02*
X+7291107Y-3215533D01*
D51*
X+8793369Y-3197033D02*
X+8793326Y-3195994D01*
X+8792974Y-3193915D01*
X+8792237Y-3191836D01*
X+8791033Y-3189757D01*
X+8789192Y-3187707D01*
X+8787113Y-3186204D01*
X+8785034Y-3185247D01*
X+8782955Y-3184708D01*
X+8780876Y-3184533D01*
X+8780869Y-3184533D01*
X+8768369Y-3197033D02*
X+8768412Y-3195994D01*
X+8768764Y-3193915D01*
X+8769501Y-3191836D01*
X+8770705Y-3189757D01*
X+8772546Y-3187707D01*
X+8774625Y-3186204D01*
X+8776704Y-3185247D01*
X+8778783Y-3184708D01*
X+8780862Y-3184533D01*
X+8780869Y-3184533D01*
X+8768369Y-3197033D02*
X+8768412Y-3198072D01*
X+8768764Y-3200151D01*
X+8769501Y-3202230D01*
X+8770705Y-3204309D01*
X+8772546Y-3206359D01*
X+8774625Y-3207862D01*
X+8776704Y-3208819D01*
X+8778783Y-3209358D01*
X+8780862Y-3209533D01*
X+8780869Y-3209533D01*
X+8793369Y-3197033D02*
X+8793326Y-3198072D01*
X+8792974Y-3200151D01*
X+8792237Y-3202230D01*
X+8791033Y-3204309D01*
X+8789192Y-3206359D01*
X+8787113Y-3207862D01*
X+8785034Y-3208819D01*
X+8782955Y-3209358D01*
X+8780876Y-3209533D01*
X+8780869Y-3209533D01*
D48*
X+8630869Y-3527033D02*
X+8410869Y-3527033D01*
X+8410869Y-3217033D01*
X+8630869Y-3217033D01*
X+8630869Y-3527033D01*
D52*
X+8630869Y-3227033D02*
X+8620869Y-3217033D01*
X+8630869Y-3237033D02*
X+8610869Y-3217033D01*
X+8630869Y-3247033D02*
X+8600869Y-3217033D01*
X+8630869Y-3257033D02*
X+8590869Y-3217033D01*
X+8630869Y-3267033D02*
X+8580869Y-3217033D01*
X+8630869Y-3277033D02*
X+8570869Y-3217033D01*
X+8630869Y-3287033D02*
X+8560869Y-3217033D01*
X+8630869Y-3297033D02*
X+8550869Y-3217033D01*
X+8630869Y-3307033D02*
X+8540869Y-3217033D01*
D48*
X+6100500Y-3047402D02*
X+5990500Y-3047402D01*
X+6100500Y-2867402D02*
X+5990500Y-2867402D01*
X+7327607Y-3047033D02*
X+7217607Y-3047033D01*
X+7327607Y-2867033D02*
X+7217607Y-2867033D01*
X+8577369Y-3048533D02*
X+8467369Y-3048533D01*
X+8577369Y-2868533D02*
X+8467369Y-2868533D01*
X+6337000Y-3809402D02*
X+6227000Y-3809402D01*
X+6337000Y-3629402D02*
X+6227000Y-3629402D01*
X+7581607Y-3809033D02*
X+7471607Y-3809033D01*
X+7581607Y-3629033D02*
X+7471607Y-3629033D01*
X+8813869Y-3809033D02*
X+8703869Y-3809033D01*
X+8813869Y-3629033D02*
X+8703869Y-3629033D01*
X+6337000Y-4063402D02*
X+6227000Y-4063402D01*
X+6337000Y-3883402D02*
X+6227000Y-3883402D01*
X+5729500Y-4317402D02*
X+5619500Y-4317402D01*
X+5729500Y-4137402D02*
X+5619500Y-4137402D01*
X+5619500Y-3629402D02*
X+5719500Y-3629402D01*
X+5619500Y-3809402D02*
X+5719500Y-3809402D01*
X+6327000Y-4317402D02*
X+6227000Y-4317402D01*
X+6327000Y-4137402D02*
X+6227000Y-4137402D01*
X+6882607Y-3629033D02*
X+6982607Y-3629033D01*
X+6882607Y-3809033D02*
X+6982607Y-3809033D01*
X+7581607Y-4063033D02*
X+7481607Y-4063033D01*
X+7581607Y-3883033D02*
X+7481607Y-3883033D01*
X+8114869Y-3629033D02*
X+8214869Y-3629033D01*
X+8114869Y-3809033D02*
X+8214869Y-3809033D01*
X+8813869Y-4063033D02*
X+8713869Y-4063033D01*
X+8813869Y-3883033D02*
X+8713869Y-3883033D01*
X+6992607Y-4317033D02*
X+6882607Y-4317033D01*
X+6992607Y-4137033D02*
X+6882607Y-4137033D01*
X+7581607Y-4317033D02*
X+7471607Y-4317033D01*
X+7581607Y-4137033D02*
X+7471607Y-4137033D01*
X+8224869Y-4317033D02*
X+8114869Y-4317033D01*
X+8224869Y-4137033D02*
X+8114869Y-4137033D01*
X+8813869Y-4317033D02*
X+8703869Y-4317033D01*
X+8813869Y-4137033D02*
X+8703869Y-4137033D01*
X+7063000Y-6249500D02*
X+6953000Y-6249500D01*
X+7063000Y-6069500D02*
X+6953000Y-6069500D01*
X+2401400Y-5073400D02*
X+2401400Y-5183400D01*
X+2221400Y-5073400D02*
X+2221400Y-5183400D01*
X-672000Y-31500D02*
X-672000Y-141500D01*
X-852000Y-31500D02*
X-852000Y-141500D01*
D38*
X+756920Y-6156960D02*
X+909320Y-6156960D01*
X+759460Y-6009640D02*
X+909320Y-6009640D01*
D11*
X+9093200Y-5181500D02*
X+9093069Y-5178342D01*
X+9092003Y-5172024D01*
X+9089772Y-5165706D01*
X+9086127Y-5159388D01*
X+9080552Y-5153149D01*
X+9074234Y-5148553D01*
X+9067916Y-5145620D01*
X+9061598Y-5143958D01*
X+9055280Y-5143400D01*
X+9055100Y-5143400D01*
X+9017000Y-5181500D02*
X+9017131Y-5178342D01*
X+9018197Y-5172024D01*
X+9020428Y-5165706D01*
X+9024073Y-5159388D01*
X+9029648Y-5153149D01*
X+9035966Y-5148553D01*
X+9042284Y-5145620D01*
X+9048602Y-5143958D01*
X+9054920Y-5143400D01*
X+9055100Y-5143400D01*
X+9017000Y-5181500D02*
X+9017131Y-5184658D01*
X+9018197Y-5190976D01*
X+9020428Y-5197294D01*
X+9024073Y-5203612D01*
X+9029648Y-5209851D01*
X+9035966Y-5214447D01*
X+9042284Y-5217380D01*
X+9048602Y-5219042D01*
X+9054920Y-5219600D01*
X+9055100Y-5219600D01*
X+9093200Y-5181500D02*
X+9093069Y-5184658D01*
X+9092003Y-5190976D01*
X+9089772Y-5197294D01*
X+9086127Y-5203612D01*
X+9080552Y-5209851D01*
X+9074234Y-5214447D01*
X+9067916Y-5217380D01*
X+9061598Y-5219042D01*
X+9055280Y-5219600D01*
X+9055100Y-5219600D01*
D48*
X+8294200Y-5367600D02*
X+8294200Y-5467600D01*
X+8114200Y-5367600D02*
X+8114200Y-5467600D01*
X+7298000Y-5142400D02*
X+7398000Y-5142400D01*
X+7298000Y-5322400D02*
X+7398000Y-5322400D01*
X+7821100Y-5354900D02*
X+7821100Y-5454900D01*
X+7641100Y-5354900D02*
X+7641100Y-5454900D01*
X+8738416Y-4703216D02*
X+8838416Y-4703216D01*
X+8738416Y-4883216D02*
X+8838416Y-4883216D01*
X+372800Y-6173300D02*
X+272800Y-6173300D01*
X+372800Y-5993300D02*
X+272800Y-5993300D01*
X+2000000Y-4418500D02*
X+2100000Y-4418500D01*
X+2000000Y-4598500D02*
X+2100000Y-4598500D01*
X+2000000Y-4164500D02*
X+2100000Y-4164500D01*
X+2000000Y-4344500D02*
X+2100000Y-4344500D01*
X+1967400Y-5173400D02*
X+1967400Y-5073400D01*
X+2147400Y-5173400D02*
X+2147400Y-5073400D01*
X+1614000Y-4781300D02*
X+1614000Y-4881300D01*
X+1434000Y-4781300D02*
X+1434000Y-4881300D01*
D11*
X+8394600Y-5715000D02*
X+8394469Y-5711842D01*
X+8393403Y-5705524D01*
X+8391172Y-5699206D01*
X+8387527Y-5692888D01*
X+8381952Y-5686649D01*
X+8375634Y-5682053D01*
X+8369316Y-5679120D01*
X+8362998Y-5677458D01*
X+8356680Y-5676900D01*
X+8356500Y-5676900D01*
X+8318400Y-5715000D02*
X+8318531Y-5711842D01*
X+8319597Y-5705524D01*
X+8321828Y-5699206D01*
X+8325473Y-5692888D01*
X+8331048Y-5686649D01*
X+8337366Y-5682053D01*
X+8343684Y-5679120D01*
X+8350002Y-5677458D01*
X+8356320Y-5676900D01*
X+8356500Y-5676900D01*
X+8318400Y-5715000D02*
X+8318531Y-5718158D01*
X+8319597Y-5724476D01*
X+8321828Y-5730794D01*
X+8325473Y-5737112D01*
X+8331048Y-5743351D01*
X+8337366Y-5747947D01*
X+8343684Y-5750880D01*
X+8350002Y-5752542D01*
X+8356320Y-5753100D01*
X+8356500Y-5753100D01*
X+8394600Y-5715000D02*
X+8394469Y-5718158D01*
X+8393403Y-5724476D01*
X+8391172Y-5730794D01*
X+8387527Y-5737112D01*
X+8381952Y-5743351D01*
X+8375634Y-5747947D01*
X+8369316Y-5750880D01*
X+8362998Y-5752542D01*
X+8356680Y-5753100D01*
X+8356500Y-5753100D01*
X+4162600Y-6096000D02*
X+4162469Y-6092842D01*
X+4161403Y-6086524D01*
X+4159172Y-6080206D01*
X+4155527Y-6073888D01*
X+4149952Y-6067649D01*
X+4143634Y-6063053D01*
X+4137316Y-6060120D01*
X+4130998Y-6058458D01*
X+4124680Y-6057900D01*
X+4124500Y-6057900D01*
X+4086400Y-6096000D02*
X+4086531Y-6092842D01*
X+4087597Y-6086524D01*
X+4089828Y-6080206D01*
X+4093473Y-6073888D01*
X+4099048Y-6067649D01*
X+4105366Y-6063053D01*
X+4111684Y-6060120D01*
X+4118002Y-6058458D01*
X+4124320Y-6057900D01*
X+4124500Y-6057900D01*
X+4086400Y-6096000D02*
X+4086531Y-6099158D01*
X+4087597Y-6105476D01*
X+4089828Y-6111794D01*
X+4093473Y-6118112D01*
X+4099048Y-6124351D01*
X+4105366Y-6128947D01*
X+4111684Y-6131880D01*
X+4118002Y-6133542D01*
X+4124320Y-6134100D01*
X+4124500Y-6134100D01*
X+4162600Y-6096000D02*
X+4162469Y-6099158D01*
X+4161403Y-6105476D01*
X+4159172Y-6111794D01*
X+4155527Y-6118112D01*
X+4149952Y-6124351D01*
X+4143634Y-6128947D01*
X+4137316Y-6131880D01*
X+4130998Y-6133542D01*
X+4124680Y-6134100D01*
X+4124500Y-6134100D01*
X+5724600Y-6096000D02*
X+5724469Y-6092842D01*
X+5723403Y-6086524D01*
X+5721172Y-6080206D01*
X+5717527Y-6073888D01*
X+5711952Y-6067649D01*
X+5705634Y-6063053D01*
X+5699316Y-6060120D01*
X+5692998Y-6058458D01*
X+5686680Y-6057900D01*
X+5686500Y-6057900D01*
X+5648400Y-6096000D02*
X+5648531Y-6092842D01*
X+5649597Y-6086524D01*
X+5651828Y-6080206D01*
X+5655473Y-6073888D01*
X+5661048Y-6067649D01*
X+5667366Y-6063053D01*
X+5673684Y-6060120D01*
X+5680002Y-6058458D01*
X+5686320Y-6057900D01*
X+5686500Y-6057900D01*
X+5648400Y-6096000D02*
X+5648531Y-6099158D01*
X+5649597Y-6105476D01*
X+5651828Y-6111794D01*
X+5655473Y-6118112D01*
X+5661048Y-6124351D01*
X+5667366Y-6128947D01*
X+5673684Y-6131880D01*
X+5680002Y-6133542D01*
X+5686320Y-6134100D01*
X+5686500Y-6134100D01*
X+5724600Y-6096000D02*
X+5724469Y-6099158D01*
X+5723403Y-6105476D01*
X+5721172Y-6111794D01*
X+5717527Y-6118112D01*
X+5711952Y-6124351D01*
X+5705634Y-6128947D01*
X+5699316Y-6131880D01*
X+5692998Y-6133542D01*
X+5686680Y-6134100D01*
X+5686500Y-6134100D01*
X+5750100Y-5461000D02*
X+5749969Y-5457842D01*
X+5748903Y-5451524D01*
X+5746672Y-5445206D01*
X+5743027Y-5438888D01*
X+5737452Y-5432649D01*
X+5731134Y-5428053D01*
X+5724816Y-5425120D01*
X+5718498Y-5423458D01*
X+5712180Y-5422900D01*
X+5712000Y-5422900D01*
X+5673900Y-5461000D02*
X+5674031Y-5457842D01*
X+5675097Y-5451524D01*
X+5677328Y-5445206D01*
X+5680973Y-5438888D01*
X+5686548Y-5432649D01*
X+5692866Y-5428053D01*
X+5699184Y-5425120D01*
X+5705502Y-5423458D01*
X+5711820Y-5422900D01*
X+5712000Y-5422900D01*
X+5673900Y-5461000D02*
X+5674031Y-5464158D01*
X+5675097Y-5470476D01*
X+5677328Y-5476794D01*
X+5680973Y-5483112D01*
X+5686548Y-5489351D01*
X+5692866Y-5493947D01*
X+5699184Y-5496880D01*
X+5705502Y-5498542D01*
X+5711820Y-5499100D01*
X+5712000Y-5499100D01*
X+5750100Y-5461000D02*
X+5749969Y-5464158D01*
X+5748903Y-5470476D01*
X+5746672Y-5476794D01*
X+5743027Y-5483112D01*
X+5737452Y-5489351D01*
X+5731134Y-5493947D01*
X+5724816Y-5496880D01*
X+5718498Y-5498542D01*
X+5712180Y-5499100D01*
X+5712000Y-5499100D01*
X+1761085Y-6276892D02*
X+1760954Y-6273734D01*
X+1759888Y-6267416D01*
X+1757657Y-6261098D01*
X+1754012Y-6254780D01*
X+1748437Y-6248541D01*
X+1742119Y-6243945D01*
X+1735801Y-6241012D01*
X+1729483Y-6239350D01*
X+1723165Y-6238792D01*
X+1722985Y-6238792D01*
X+1684885Y-6276892D02*
X+1685016Y-6273734D01*
X+1686082Y-6267416D01*
X+1688313Y-6261098D01*
X+1691958Y-6254780D01*
X+1697533Y-6248541D01*
X+1703851Y-6243945D01*
X+1710169Y-6241012D01*
X+1716487Y-6239350D01*
X+1722805Y-6238792D01*
X+1722985Y-6238792D01*
X+1684885Y-6276892D02*
X+1685016Y-6280050D01*
X+1686082Y-6286368D01*
X+1688313Y-6292686D01*
X+1691958Y-6299004D01*
X+1697533Y-6305243D01*
X+1703851Y-6309839D01*
X+1710169Y-6312772D01*
X+1716487Y-6314434D01*
X+1722805Y-6314992D01*
X+1722985Y-6314992D01*
X+1761085Y-6276892D02*
X+1760954Y-6280050D01*
X+1759888Y-6286368D01*
X+1757657Y-6292686D01*
X+1754012Y-6299004D01*
X+1748437Y-6305243D01*
X+1742119Y-6309839D01*
X+1735801Y-6312772D01*
X+1729483Y-6314434D01*
X+1723165Y-6314992D01*
X+1722985Y-6314992D01*
D48*
X+4139500Y-2089000D02*
X+4169500Y-2089000D01*
X+4139500Y-2229000D02*
X+4169500Y-2229000D01*
D38*
X+4503750Y-2392670D02*
X+4503750Y-2301230D01*
X+4424375Y-2301230D01*
X+4408500Y-2316470D01*
X+4408500Y-2331710D01*
X+4424375Y-2346950D01*
X+4503750Y-2346950D01*
X+4424375Y-2346950D02*
X+4408500Y-2362190D01*
X+4408500Y-2392670D01*
X+4376750Y-2301230D02*
X+4281500Y-2301230D01*
X+4329125Y-2301230D02*
X+4329125Y-2392670D01*
X+4249750Y-2407910D02*
X+4154500Y-2407910D01*
X+4122750Y-2392670D02*
X+4122750Y-2301230D01*
X+4027500Y-2392670D01*
X+4027500Y-2301230D01*
X+3995750Y-2301230D02*
X+3900500Y-2301230D01*
X+3948125Y-2301230D02*
X+3948125Y-2392670D01*
X+3773500Y-2377430D02*
X+3789375Y-2392670D01*
X+3837000Y-2392670D01*
X+3868750Y-2362190D01*
X+3868750Y-2331710D01*
X+3837000Y-2301230D01*
X+3789375Y-2301230D01*
X+3773500Y-2316470D01*
D51*
X+1263900Y-3817200D02*
X+1263857Y-3816161D01*
X+1263505Y-3814082D01*
X+1262768Y-3812003D01*
X+1261564Y-3809924D01*
X+1259723Y-3807874D01*
X+1257644Y-3806371D01*
X+1255565Y-3805414D01*
X+1253486Y-3804875D01*
X+1251407Y-3804700D01*
X+1251400Y-3804700D01*
X+1238900Y-3817200D02*
X+1238943Y-3816161D01*
X+1239295Y-3814082D01*
X+1240032Y-3812003D01*
X+1241236Y-3809924D01*
X+1243077Y-3807874D01*
X+1245156Y-3806371D01*
X+1247235Y-3805414D01*
X+1249314Y-3804875D01*
X+1251393Y-3804700D01*
X+1251400Y-3804700D01*
X+1238900Y-3817200D02*
X+1238943Y-3818239D01*
X+1239295Y-3820318D01*
X+1240032Y-3822397D01*
X+1241236Y-3824476D01*
X+1243077Y-3826526D01*
X+1245156Y-3828029D01*
X+1247235Y-3828986D01*
X+1249314Y-3829525D01*
X+1251393Y-3829700D01*
X+1251400Y-3829700D01*
X+1263900Y-3817200D02*
X+1263857Y-3818239D01*
X+1263505Y-3820318D01*
X+1262768Y-3822397D01*
X+1261564Y-3824476D01*
X+1259723Y-3826526D01*
X+1257644Y-3828029D01*
X+1255565Y-3828986D01*
X+1253486Y-3829525D01*
X+1251407Y-3829700D01*
X+1251400Y-3829700D01*
D48*
X+1233900Y-3752200D02*
X+1351400Y-3752200D01*
X+1351400Y-2942200D01*
X+1233900Y-2942200D01*
X+848900Y-3752200D02*
X+731400Y-3752200D01*
X+731400Y-2942200D01*
X+848900Y-2942200D01*
X+5550709Y-2739804D02*
X+5529496Y-2718591D01*
X+5649704Y-2640809D02*
X+5628491Y-2619596D01*
X+5706998Y-2592893D02*
X+5685785Y-2571680D01*
X+5805993Y-2493898D02*
X+5784780Y-2472685D01*
X+7092800Y-2632800D02*
X+7092800Y-2602800D01*
X+7232800Y-2632800D02*
X+7232800Y-2602800D01*
X+7308700Y-2629600D02*
X+7308700Y-2599600D01*
X+7448700Y-2629600D02*
X+7448700Y-2599600D01*
X+8952800Y-2647800D02*
X+8982800Y-2647800D01*
X+8952800Y-2787800D02*
X+8982800Y-2787800D01*
X+8949600Y-2876400D02*
X+8979600Y-2876400D01*
X+8949600Y-3016400D02*
X+8979600Y-3016400D01*
D51*
X-831400Y-2584900D02*
X-831443Y-2583861D01*
X-831795Y-2581782D01*
X-832532Y-2579703D01*
X-833736Y-2577624D01*
X-835577Y-2575574D01*
X-837656Y-2574071D01*
X-839735Y-2573114D01*
X-841814Y-2572575D01*
X-843893Y-2572400D01*
X-843900Y-2572400D01*
X-856400Y-2584900D02*
X-856357Y-2583861D01*
X-856005Y-2581782D01*
X-855268Y-2579703D01*
X-854064Y-2577624D01*
X-852223Y-2575574D01*
X-850144Y-2574071D01*
X-848065Y-2573114D01*
X-845986Y-2572575D01*
X-843907Y-2572400D01*
X-843900Y-2572400D01*
X-856400Y-2584900D02*
X-856357Y-2585939D01*
X-856005Y-2588018D01*
X-855268Y-2590097D01*
X-854064Y-2592176D01*
X-852223Y-2594226D01*
X-850144Y-2595729D01*
X-848065Y-2596686D01*
X-845986Y-2597225D01*
X-843907Y-2597400D01*
X-843900Y-2597400D01*
X-831400Y-2584900D02*
X-831443Y-2585939D01*
X-831795Y-2588018D01*
X-832532Y-2590097D01*
X-833736Y-2592176D01*
X-835577Y-2594226D01*
X-837656Y-2595729D01*
X-839735Y-2596686D01*
X-841814Y-2597225D01*
X-843893Y-2597400D01*
X-843900Y-2597400D01*
D48*
X-778900Y-2567400D02*
X-778900Y-2684900D01*
X+31100Y-2684900D01*
X+31100Y-2567400D01*
X-778900Y-2182400D02*
X-778900Y-2064900D01*
X+31100Y-2064900D01*
X+31100Y-2182400D01*
D38*
X-504650Y-2725380D02*
X-504650Y-2816820D01*
X-441150Y-2816820D01*
X-409400Y-2786340D01*
X-409400Y-2755860D01*
X-441150Y-2725380D01*
X-504650Y-2725380D01*
X-361775Y-2801580D02*
X-345900Y-2816820D01*
X-298275Y-2816820D01*
X-282400Y-2801580D01*
X-282400Y-2786340D01*
X-298275Y-2771100D01*
X-282400Y-2755860D01*
X-282400Y-2740620D01*
X-298275Y-2725380D01*
X-345900Y-2725380D01*
X-361775Y-2740620D01*
X-330025Y-2771100D02*
X-298275Y-2771100D01*
D51*
X-831400Y-3448500D02*
X-831443Y-3447461D01*
X-831795Y-3445382D01*
X-832532Y-3443303D01*
X-833736Y-3441224D01*
X-835577Y-3439174D01*
X-837656Y-3437671D01*
X-839735Y-3436714D01*
X-841814Y-3436175D01*
X-843893Y-3436000D01*
X-843900Y-3436000D01*
X-856400Y-3448500D02*
X-856357Y-3447461D01*
X-856005Y-3445382D01*
X-855268Y-3443303D01*
X-854064Y-3441224D01*
X-852223Y-3439174D01*
X-850144Y-3437671D01*
X-848065Y-3436714D01*
X-845986Y-3436175D01*
X-843907Y-3436000D01*
X-843900Y-3436000D01*
X-856400Y-3448500D02*
X-856357Y-3449539D01*
X-856005Y-3451618D01*
X-855268Y-3453697D01*
X-854064Y-3455776D01*
X-852223Y-3457826D01*
X-850144Y-3459329D01*
X-848065Y-3460286D01*
X-845986Y-3460825D01*
X-843907Y-3461000D01*
X-843900Y-3461000D01*
X-831400Y-3448500D02*
X-831443Y-3449539D01*
X-831795Y-3451618D01*
X-832532Y-3453697D01*
X-833736Y-3455776D01*
X-835577Y-3457826D01*
X-837656Y-3459329D01*
X-839735Y-3460286D01*
X-841814Y-3460825D01*
X-843893Y-3461000D01*
X-843900Y-3461000D01*
D48*
X-778900Y-3431000D02*
X-778900Y-3548500D01*
X+31100Y-3548500D01*
X+31100Y-3431000D01*
X-778900Y-3046000D02*
X-778900Y-2928500D01*
X+31100Y-2928500D01*
X+31100Y-3046000D01*
D38*
X-504650Y-3588980D02*
X-504650Y-3680420D01*
X-441150Y-3680420D01*
X-409400Y-3649940D01*
X-409400Y-3619460D01*
X-441150Y-3588980D01*
X-504650Y-3588980D01*
X-282400Y-3619460D02*
X-377650Y-3619460D01*
X-314150Y-3680420D01*
X-314150Y-3588980D01*
D48*
X+4672500Y-423600D02*
X+4672500Y-323600D01*
X+4852500Y-423600D02*
X+4852500Y-323600D01*
X+4951900Y-425700D02*
X+4951900Y-325700D01*
X+5131900Y-425700D02*
X+5131900Y-325700D01*
X+7022000Y-385500D02*
X+7022000Y-285500D01*
X+7202000Y-385500D02*
X+7202000Y-285500D01*
X+7263300Y-385500D02*
X+7263300Y-285500D01*
X+7443300Y-385500D02*
X+7443300Y-285500D01*
X+9130200Y-436300D02*
X+9130200Y-336300D01*
X+9310200Y-436300D02*
X+9310200Y-336300D01*
X+9384200Y-436300D02*
X+9384200Y-336300D01*
X+9564200Y-436300D02*
X+9564200Y-336300D01*
D38*
X+2636520Y-6156960D02*
X+2788920Y-6156960D01*
X+2639060Y-6009640D02*
X+2788920Y-6009640D01*
D48*
X+2241800Y-6173300D02*
X+2141800Y-6173300D01*
X+2241800Y-5993300D02*
X+2141800Y-5993300D01*
D38*
X+759460Y-5864860D02*
X+911860Y-5864860D01*
X+762000Y-5717540D02*
X+911860Y-5717540D01*
D48*
X+75100Y-5696200D02*
X+75100Y-5596200D01*
X+255100Y-5696200D02*
X+255100Y-5596200D01*
M02*
