G04 PROTEUS RS274X GERBER FILE*
%FSLAX45Y45*%
%MOMM*%
G01*
%ADD38C,0.203200*%
%ADD95C,0.050000*%
%ADD107C,0.095000*%
%ADD102C,0.093000*%
%ADD93C,0.389040*%
%ADD99C,0.118750*%
%ADD123C,0.208330*%
%ADD108C,0.141000*%
%ADD96C,0.116250*%
%ADD124C,0.100580*%
%ADD125C,0.050710*%
%ADD126C,0.325000*%
%ADD127C,0.088750*%
D38*
X-1079500Y-6413500D02*
X+9715500Y-6413500D01*
X+9715500Y+2730500D01*
X-1079500Y+2730500D01*
X-1079500Y-6413500D01*
D95*
X+2528000Y-631000D02*
X+2528000Y-1101000D01*
X+2298000Y-1101000D01*
X+2298000Y-631000D01*
X+2528000Y-631000D01*
X+2363000Y-866000D02*
X+2463000Y-866000D01*
X+2413000Y-916000D02*
X+2413000Y-816000D01*
D107*
X+2432000Y-771000D02*
X+2441500Y-761500D01*
X+2441500Y-733000D01*
X+2422500Y-714000D01*
X+2403500Y-714000D01*
X+2384500Y-733000D01*
X+2384500Y-761500D01*
X+2394000Y-771000D01*
X+2422500Y-847000D02*
X+2422500Y-790000D01*
X+2384500Y-828000D01*
X+2441500Y-828000D01*
X+2432000Y-866000D02*
X+2394000Y-866000D01*
X+2384500Y-875500D01*
X+2384500Y-913500D01*
X+2394000Y-923000D01*
X+2432000Y-923000D01*
X+2441500Y-913500D01*
X+2441500Y-875500D01*
X+2432000Y-866000D01*
X+2441500Y-866000D02*
X+2384500Y-923000D01*
X+2422500Y-999000D02*
X+2422500Y-942000D01*
X+2384500Y-980000D01*
X+2441500Y-980000D01*
D95*
X+2528000Y-133000D02*
X+2528000Y-593000D01*
X+2298000Y-593000D01*
X+2298000Y-133000D01*
X+2528000Y-133000D01*
X+2363000Y-363000D02*
X+2463000Y-363000D01*
X+2413000Y-413000D02*
X+2413000Y-313000D01*
D102*
X+2440900Y-214200D02*
X+2385100Y-214200D01*
X+2385100Y-260700D01*
X+2394400Y-270000D01*
X+2403700Y-270000D01*
X+2413000Y-260700D01*
X+2413000Y-214200D01*
X+2413000Y-260700D02*
X+2422300Y-270000D01*
X+2440900Y-270000D01*
X+2422300Y-344400D02*
X+2422300Y-288600D01*
X+2385100Y-325800D01*
X+2440900Y-325800D01*
X+2431600Y-363000D02*
X+2394400Y-363000D01*
X+2385100Y-372300D01*
X+2385100Y-409500D01*
X+2394400Y-418800D01*
X+2431600Y-418800D01*
X+2440900Y-409500D01*
X+2440900Y-372300D01*
X+2431600Y-363000D01*
X+2440900Y-363000D02*
X+2385100Y-418800D01*
X+2422300Y-493200D02*
X+2422300Y-437400D01*
X+2385100Y-474600D01*
X+2440900Y-474600D01*
D95*
X+2782000Y-641000D02*
X+2782000Y-1101000D01*
X+2552000Y-1101000D01*
X+2552000Y-641000D01*
X+2782000Y-641000D01*
X+2617000Y-871000D02*
X+2717000Y-871000D01*
X+2667000Y-921000D02*
X+2667000Y-821000D01*
D102*
X+2694900Y-722200D02*
X+2639100Y-722200D01*
X+2639100Y-768700D01*
X+2648400Y-778000D01*
X+2657700Y-778000D01*
X+2667000Y-768700D01*
X+2667000Y-722200D01*
X+2667000Y-768700D02*
X+2676300Y-778000D01*
X+2694900Y-778000D01*
X+2676300Y-852400D02*
X+2676300Y-796600D01*
X+2639100Y-833800D01*
X+2694900Y-833800D01*
X+2685600Y-871000D02*
X+2648400Y-871000D01*
X+2639100Y-880300D01*
X+2639100Y-917500D01*
X+2648400Y-926800D01*
X+2685600Y-926800D01*
X+2694900Y-917500D01*
X+2694900Y-880300D01*
X+2685600Y-871000D01*
X+2694900Y-871000D02*
X+2639100Y-926800D01*
X+2648400Y-954700D02*
X+2639100Y-964000D01*
X+2639100Y-991900D01*
X+2648400Y-1001200D01*
X+2657700Y-1001200D01*
X+2667000Y-991900D01*
X+2676300Y-1001200D01*
X+2685600Y-1001200D01*
X+2694900Y-991900D01*
X+2694900Y-964000D01*
X+2685600Y-954700D01*
X+2667000Y-973300D02*
X+2667000Y-991900D01*
D38*
X-902450Y-5041900D02*
X-203950Y-5041900D01*
X-203950Y-3874770D01*
X-902450Y-3874770D01*
X-902450Y-5041900D01*
D93*
X-669913Y-4147101D02*
X-475391Y-4147101D01*
X-436487Y-4186005D01*
X-436487Y-4341622D01*
X-475391Y-4380526D01*
X-669913Y-4380526D01*
X-669913Y-4691760D02*
X-669913Y-4497239D01*
X-592104Y-4497239D01*
X-592104Y-4652856D01*
X-553200Y-4691760D01*
X-475391Y-4691760D01*
X-436487Y-4652856D01*
X-436487Y-4536143D01*
X-475391Y-4497239D01*
D38*
X-64250Y-5041900D02*
X+634250Y-5041900D01*
X+634250Y-3874770D01*
X-64250Y-3874770D01*
X-64250Y-5041900D01*
D93*
X+401713Y-4769569D02*
X+207191Y-4769569D01*
X+168287Y-4730665D01*
X+168287Y-4575048D01*
X+207191Y-4536144D01*
X+401713Y-4536144D01*
X+401713Y-4419431D02*
X+401713Y-4224910D01*
X+362809Y-4224910D01*
X+168287Y-4419431D01*
D95*
X+258000Y-1575500D02*
X-212000Y-1575500D01*
X-212000Y-1345500D01*
X+258000Y-1345500D01*
X+258000Y-1575500D01*
X+23000Y-1410500D02*
X+23000Y-1510500D01*
X-27000Y-1460500D02*
X+73000Y-1460500D01*
D99*
X-48250Y-1436750D02*
X-60125Y-1424875D01*
X-95750Y-1424875D01*
X-119500Y-1448625D01*
X-119500Y-1472375D01*
X-95750Y-1496125D01*
X-60125Y-1496125D01*
X-48250Y-1484250D01*
X+46750Y-1448625D02*
X-24500Y-1448625D01*
X+23000Y-1496125D01*
X+23000Y-1424875D01*
X+70500Y-1436750D02*
X+70500Y-1484250D01*
X+82375Y-1496125D01*
X+129875Y-1496125D01*
X+141750Y-1484250D01*
X+141750Y-1436750D01*
X+129875Y-1424875D01*
X+82375Y-1424875D01*
X+70500Y-1436750D01*
X+70500Y-1424875D02*
X+141750Y-1496125D01*
D95*
X+258000Y-1067500D02*
X-212000Y-1067500D01*
X-212000Y-837500D01*
X+258000Y-837500D01*
X+258000Y-1067500D01*
X+23000Y-902500D02*
X+23000Y-1002500D01*
X-27000Y-952500D02*
X+73000Y-952500D01*
D99*
X-48250Y-928750D02*
X-60125Y-916875D01*
X-95750Y-916875D01*
X-119500Y-940625D01*
X-119500Y-964375D01*
X-95750Y-988125D01*
X-60125Y-988125D01*
X-48250Y-976250D01*
X+46750Y-940625D02*
X-24500Y-940625D01*
X+23000Y-988125D01*
X+23000Y-916875D01*
X+94250Y-964375D02*
X+118000Y-988125D01*
X+118000Y-916875D01*
D95*
X+258000Y-1321500D02*
X-212000Y-1321500D01*
X-212000Y-1091500D01*
X+258000Y-1091500D01*
X+258000Y-1321500D01*
X+23000Y-1156500D02*
X+23000Y-1256500D01*
X-27000Y-1206500D02*
X+73000Y-1206500D01*
D99*
X-48250Y-1182750D02*
X-60125Y-1170875D01*
X-95750Y-1170875D01*
X-119500Y-1194625D01*
X-119500Y-1218375D01*
X-95750Y-1242125D01*
X-60125Y-1242125D01*
X-48250Y-1230250D01*
X+46750Y-1194625D02*
X-24500Y-1194625D01*
X+23000Y-1242125D01*
X+23000Y-1170875D01*
X+82375Y-1230250D02*
X+94250Y-1242125D01*
X+129875Y-1242125D01*
X+141750Y-1230250D01*
X+141750Y-1218375D01*
X+129875Y-1206500D01*
X+94250Y-1206500D01*
X+82375Y-1194625D01*
X+82375Y-1170875D01*
X+141750Y-1170875D01*
D95*
X+804000Y-1028000D02*
X+1274000Y-1028000D01*
X+1274000Y-1258000D01*
X+804000Y-1258000D01*
X+804000Y-1028000D01*
X+1039000Y-1193000D02*
X+1039000Y-1093000D01*
X+1089000Y-1143000D02*
X+989000Y-1143000D01*
D99*
X+967750Y-1119250D02*
X+955875Y-1107375D01*
X+920250Y-1107375D01*
X+896500Y-1131125D01*
X+896500Y-1154875D01*
X+920250Y-1178625D01*
X+955875Y-1178625D01*
X+967750Y-1166750D01*
X+1062750Y-1131125D02*
X+991500Y-1131125D01*
X+1039000Y-1178625D01*
X+1039000Y-1107375D01*
X+1110250Y-1143000D02*
X+1098375Y-1154875D01*
X+1098375Y-1166750D01*
X+1110250Y-1178625D01*
X+1145875Y-1178625D01*
X+1157750Y-1166750D01*
X+1157750Y-1154875D01*
X+1145875Y-1143000D01*
X+1110250Y-1143000D01*
X+1098375Y-1131125D01*
X+1098375Y-1119250D01*
X+1110250Y-1107375D01*
X+1145875Y-1107375D01*
X+1157750Y-1119250D01*
X+1157750Y-1131125D01*
X+1145875Y-1143000D01*
D95*
X-384100Y-5347400D02*
X-854100Y-5347400D01*
X-854100Y-5117400D01*
X-384100Y-5117400D01*
X-384100Y-5347400D01*
X-619100Y-5182400D02*
X-619100Y-5282400D01*
X-669100Y-5232400D02*
X-569100Y-5232400D01*
D99*
X-547850Y-5256150D02*
X-535975Y-5268025D01*
X-500350Y-5268025D01*
X-476600Y-5244275D01*
X-476600Y-5220525D01*
X-500350Y-5196775D01*
X-535975Y-5196775D01*
X-547850Y-5208650D01*
X-571600Y-5268025D02*
X-571600Y-5220525D01*
X-595350Y-5196775D01*
X-619100Y-5196775D01*
X-642850Y-5220525D01*
X-642850Y-5268025D01*
X-571600Y-5244275D02*
X-642850Y-5244275D01*
X-678475Y-5208650D02*
X-690350Y-5196775D01*
X-725975Y-5196775D01*
X-737850Y-5208650D01*
X-737850Y-5220525D01*
X-725975Y-5232400D01*
X-690350Y-5232400D01*
X-678475Y-5244275D01*
X-678475Y-5268025D01*
X-737850Y-5268025D01*
D95*
X+703400Y-4999900D02*
X+703400Y-4529900D01*
X+933400Y-4529900D01*
X+933400Y-4999900D01*
X+703400Y-4999900D01*
X+868400Y-4764900D02*
X+768400Y-4764900D01*
X+818400Y-4714900D02*
X+818400Y-4814900D01*
D99*
X+842150Y-4693650D02*
X+854025Y-4681775D01*
X+854025Y-4646150D01*
X+830275Y-4622400D01*
X+806525Y-4622400D01*
X+782775Y-4646150D01*
X+782775Y-4681775D01*
X+794650Y-4693650D01*
X+854025Y-4717400D02*
X+806525Y-4717400D01*
X+782775Y-4741150D01*
X+782775Y-4764900D01*
X+806525Y-4788650D01*
X+854025Y-4788650D01*
X+830275Y-4717400D02*
X+830275Y-4788650D01*
X+782775Y-4824275D02*
X+782775Y-4883650D01*
X+794650Y-4883650D01*
X+854025Y-4824275D01*
D95*
X+2528000Y-1629500D02*
X+2528000Y-2099500D01*
X+2298000Y-2099500D01*
X+2298000Y-1629500D01*
X+2528000Y-1629500D01*
X+2363000Y-1864500D02*
X+2463000Y-1864500D01*
X+2413000Y-1914500D02*
X+2413000Y-1814500D01*
D107*
X+2394000Y-1959500D02*
X+2384500Y-1969000D01*
X+2384500Y-1997500D01*
X+2403500Y-2016500D01*
X+2422500Y-2016500D01*
X+2441500Y-1997500D01*
X+2441500Y-1969000D01*
X+2432000Y-1959500D01*
X+2403500Y-1883500D02*
X+2403500Y-1940500D01*
X+2441500Y-1902500D01*
X+2384500Y-1902500D01*
X+2394000Y-1864500D02*
X+2432000Y-1864500D01*
X+2441500Y-1855000D01*
X+2441500Y-1817000D01*
X+2432000Y-1807500D01*
X+2394000Y-1807500D01*
X+2384500Y-1817000D01*
X+2384500Y-1855000D01*
X+2394000Y-1864500D01*
X+2384500Y-1864500D02*
X+2441500Y-1807500D01*
X+2432000Y-1731500D02*
X+2441500Y-1741000D01*
X+2441500Y-1769500D01*
X+2432000Y-1779000D01*
X+2394000Y-1779000D01*
X+2384500Y-1769500D01*
X+2384500Y-1741000D01*
X+2394000Y-1731500D01*
X+2403500Y-1731500D01*
X+2413000Y-1741000D01*
X+2413000Y-1779000D01*
D95*
X+2782000Y-1629500D02*
X+2782000Y-2089500D01*
X+2552000Y-2089500D01*
X+2552000Y-1629500D01*
X+2782000Y-1629500D01*
X+2617000Y-1859500D02*
X+2717000Y-1859500D01*
X+2667000Y-1909500D02*
X+2667000Y-1809500D01*
D102*
X+2639100Y-2008300D02*
X+2694900Y-2008300D01*
X+2694900Y-1961800D01*
X+2685600Y-1952500D01*
X+2676300Y-1952500D01*
X+2667000Y-1961800D01*
X+2667000Y-2008300D01*
X+2667000Y-1961800D02*
X+2657700Y-1952500D01*
X+2639100Y-1952500D01*
X+2657700Y-1878100D02*
X+2657700Y-1933900D01*
X+2694900Y-1896700D01*
X+2639100Y-1896700D01*
X+2648400Y-1859500D02*
X+2685600Y-1859500D01*
X+2694900Y-1850200D01*
X+2694900Y-1813000D01*
X+2685600Y-1803700D01*
X+2648400Y-1803700D01*
X+2639100Y-1813000D01*
X+2639100Y-1850200D01*
X+2648400Y-1859500D01*
X+2639100Y-1859500D02*
X+2694900Y-1803700D01*
X+2694900Y-1775800D02*
X+2694900Y-1729300D01*
X+2685600Y-1729300D01*
X+2639100Y-1775800D01*
D95*
X+2528000Y-1121500D02*
X+2528000Y-1581500D01*
X+2298000Y-1581500D01*
X+2298000Y-1121500D01*
X+2528000Y-1121500D01*
X+2363000Y-1351500D02*
X+2463000Y-1351500D01*
X+2413000Y-1401500D02*
X+2413000Y-1301500D01*
D102*
X+2385100Y-1500300D02*
X+2440900Y-1500300D01*
X+2440900Y-1453800D01*
X+2431600Y-1444500D01*
X+2422300Y-1444500D01*
X+2413000Y-1453800D01*
X+2413000Y-1500300D01*
X+2413000Y-1453800D02*
X+2403700Y-1444500D01*
X+2385100Y-1444500D01*
X+2403700Y-1370100D02*
X+2403700Y-1425900D01*
X+2440900Y-1388700D01*
X+2385100Y-1388700D01*
X+2394400Y-1351500D02*
X+2431600Y-1351500D01*
X+2440900Y-1342200D01*
X+2440900Y-1305000D01*
X+2431600Y-1295700D01*
X+2394400Y-1295700D01*
X+2385100Y-1305000D01*
X+2385100Y-1342200D01*
X+2394400Y-1351500D01*
X+2385100Y-1351500D02*
X+2440900Y-1295700D01*
X+2413000Y-1258500D02*
X+2422300Y-1267800D01*
X+2431600Y-1267800D01*
X+2440900Y-1258500D01*
X+2440900Y-1230600D01*
X+2431600Y-1221300D01*
X+2422300Y-1221300D01*
X+2413000Y-1230600D01*
X+2413000Y-1258500D01*
X+2403700Y-1267800D01*
X+2394400Y-1267800D01*
X+2385100Y-1258500D01*
X+2385100Y-1230600D01*
X+2394400Y-1221300D01*
X+2403700Y-1221300D01*
X+2413000Y-1230600D01*
D95*
X+6354000Y-3550902D02*
X+5734000Y-3550902D01*
X+5734000Y-3190902D01*
X+6354000Y-3190902D01*
X+6354000Y-3550902D01*
X+6044000Y-3320902D02*
X+6044000Y-3420902D01*
X+5994000Y-3370902D02*
X+6094000Y-3370902D01*
D123*
X+6210666Y-3308402D02*
X+6210666Y-3412569D01*
X+6189833Y-3433402D01*
X+6106500Y-3433402D01*
X+6085667Y-3412569D01*
X+6085667Y-3308402D01*
X+6002334Y-3350069D02*
X+5960667Y-3308402D01*
X+5960667Y-3433402D01*
D95*
X+7581107Y-3550533D02*
X+6961107Y-3550533D01*
X+6961107Y-3190533D01*
X+7581107Y-3190533D01*
X+7581107Y-3550533D01*
X+7271107Y-3320533D02*
X+7271107Y-3420533D01*
X+7221107Y-3370533D02*
X+7321107Y-3370533D01*
D123*
X+7437773Y-3308033D02*
X+7437773Y-3412200D01*
X+7416940Y-3433033D01*
X+7333607Y-3433033D01*
X+7312774Y-3412200D01*
X+7312774Y-3308033D01*
X+7250274Y-3328866D02*
X+7229441Y-3308033D01*
X+7166941Y-3308033D01*
X+7146108Y-3328866D01*
X+7146108Y-3349700D01*
X+7166941Y-3370533D01*
X+7229441Y-3370533D01*
X+7250274Y-3391366D01*
X+7250274Y-3433033D01*
X+7146108Y-3433033D01*
D95*
X+8830869Y-3552033D02*
X+8210869Y-3552033D01*
X+8210869Y-3192033D01*
X+8830869Y-3192033D01*
X+8830869Y-3552033D01*
X+8520869Y-3322033D02*
X+8520869Y-3422033D01*
X+8470869Y-3372033D02*
X+8570869Y-3372033D01*
D123*
X+8687535Y-3309533D02*
X+8687535Y-3413700D01*
X+8666702Y-3434533D01*
X+8583369Y-3434533D01*
X+8562536Y-3413700D01*
X+8562536Y-3309533D01*
X+8500036Y-3330366D02*
X+8479203Y-3309533D01*
X+8416703Y-3309533D01*
X+8395870Y-3330366D01*
X+8395870Y-3351200D01*
X+8416703Y-3372033D01*
X+8395870Y-3392866D01*
X+8395870Y-3413700D01*
X+8416703Y-3434533D01*
X+8479203Y-3434533D01*
X+8500036Y-3413700D01*
X+8458370Y-3372033D02*
X+8416703Y-3372033D01*
D95*
X+6280500Y-3072402D02*
X+5810500Y-3072402D01*
X+5810500Y-2842402D01*
X+6280500Y-2842402D01*
X+6280500Y-3072402D01*
X+6045500Y-2907402D02*
X+6045500Y-3007402D01*
X+5995500Y-2957402D02*
X+6095500Y-2957402D01*
D108*
X+6073700Y-2985602D02*
X+6087800Y-2999702D01*
X+6130100Y-2999702D01*
X+6158300Y-2971502D01*
X+6158300Y-2943302D01*
X+6130100Y-2915102D01*
X+6087800Y-2915102D01*
X+6073700Y-2929202D01*
X+6031400Y-2929202D02*
X+6017300Y-2915102D01*
X+5975000Y-2915102D01*
X+5960900Y-2929202D01*
X+5960900Y-2943302D01*
X+5975000Y-2957402D01*
X+5960900Y-2971502D01*
X+5960900Y-2985602D01*
X+5975000Y-2999702D01*
X+6017300Y-2999702D01*
X+6031400Y-2985602D01*
X+6003200Y-2957402D02*
X+5975000Y-2957402D01*
D95*
X+7507607Y-3072033D02*
X+7037607Y-3072033D01*
X+7037607Y-2842033D01*
X+7507607Y-2842033D01*
X+7507607Y-3072033D01*
X+7272607Y-2907033D02*
X+7272607Y-3007033D01*
X+7222607Y-2957033D02*
X+7322607Y-2957033D01*
D108*
X+7300807Y-2985233D02*
X+7314907Y-2999333D01*
X+7357207Y-2999333D01*
X+7385407Y-2971133D01*
X+7385407Y-2942933D01*
X+7357207Y-2914733D01*
X+7314907Y-2914733D01*
X+7300807Y-2928833D01*
X+7244407Y-2957033D02*
X+7258507Y-2942933D01*
X+7258507Y-2928833D01*
X+7244407Y-2914733D01*
X+7202107Y-2914733D01*
X+7188007Y-2928833D01*
X+7188007Y-2942933D01*
X+7202107Y-2957033D01*
X+7244407Y-2957033D01*
X+7258507Y-2971133D01*
X+7258507Y-2985233D01*
X+7244407Y-2999333D01*
X+7202107Y-2999333D01*
X+7188007Y-2985233D01*
X+7188007Y-2971133D01*
X+7202107Y-2957033D01*
D95*
X+8757369Y-3073533D02*
X+8287369Y-3073533D01*
X+8287369Y-2843533D01*
X+8757369Y-2843533D01*
X+8757369Y-3073533D01*
X+8522369Y-2908533D02*
X+8522369Y-3008533D01*
X+8472369Y-2958533D02*
X+8572369Y-2958533D01*
D99*
X+8593619Y-2982283D02*
X+8605494Y-2994158D01*
X+8641119Y-2994158D01*
X+8664869Y-2970408D01*
X+8664869Y-2946658D01*
X+8641119Y-2922908D01*
X+8605494Y-2922908D01*
X+8593619Y-2934783D01*
X+8546119Y-2946658D02*
X+8522369Y-2922908D01*
X+8522369Y-2994158D01*
X+8403619Y-2922908D02*
X+8462994Y-2922908D01*
X+8462994Y-2946658D01*
X+8415494Y-2946658D01*
X+8403619Y-2958533D01*
X+8403619Y-2982283D01*
X+8415494Y-2994158D01*
X+8451119Y-2994158D01*
X+8462994Y-2982283D01*
D95*
X+6517000Y-3834402D02*
X+6047000Y-3834402D01*
X+6047000Y-3604402D01*
X+6517000Y-3604402D01*
X+6517000Y-3834402D01*
X+6282000Y-3669402D02*
X+6282000Y-3769402D01*
X+6232000Y-3719402D02*
X+6332000Y-3719402D01*
D99*
X+6353250Y-3743152D02*
X+6365125Y-3755027D01*
X+6400750Y-3755027D01*
X+6424500Y-3731277D01*
X+6424500Y-3707527D01*
X+6400750Y-3683777D01*
X+6365125Y-3683777D01*
X+6353250Y-3695652D01*
X+6305750Y-3707527D02*
X+6282000Y-3683777D01*
X+6282000Y-3755027D01*
X+6163250Y-3731277D02*
X+6234500Y-3731277D01*
X+6187000Y-3683777D01*
X+6187000Y-3755027D01*
D95*
X+7761607Y-3834033D02*
X+7291607Y-3834033D01*
X+7291607Y-3604033D01*
X+7761607Y-3604033D01*
X+7761607Y-3834033D01*
X+7526607Y-3669033D02*
X+7526607Y-3769033D01*
X+7476607Y-3719033D02*
X+7576607Y-3719033D01*
D108*
X+7554807Y-3747233D02*
X+7568907Y-3761333D01*
X+7611207Y-3761333D01*
X+7639407Y-3733133D01*
X+7639407Y-3704933D01*
X+7611207Y-3676733D01*
X+7568907Y-3676733D01*
X+7554807Y-3690833D01*
X+7442007Y-3676733D02*
X+7512507Y-3676733D01*
X+7512507Y-3704933D01*
X+7456107Y-3704933D01*
X+7442007Y-3719033D01*
X+7442007Y-3747233D01*
X+7456107Y-3761333D01*
X+7498407Y-3761333D01*
X+7512507Y-3747233D01*
D95*
X+8993869Y-3834033D02*
X+8523869Y-3834033D01*
X+8523869Y-3604033D01*
X+8993869Y-3604033D01*
X+8993869Y-3834033D01*
X+8758869Y-3669033D02*
X+8758869Y-3769033D01*
X+8708869Y-3719033D02*
X+8808869Y-3719033D01*
D99*
X+8830119Y-3742783D02*
X+8841994Y-3754658D01*
X+8877619Y-3754658D01*
X+8901369Y-3730908D01*
X+8901369Y-3707158D01*
X+8877619Y-3683408D01*
X+8841994Y-3683408D01*
X+8830119Y-3695283D01*
X+8782619Y-3707158D02*
X+8758869Y-3683408D01*
X+8758869Y-3754658D01*
X+8711369Y-3742783D02*
X+8711369Y-3695283D01*
X+8699494Y-3683408D01*
X+8651994Y-3683408D01*
X+8640119Y-3695283D01*
X+8640119Y-3742783D01*
X+8651994Y-3754658D01*
X+8699494Y-3754658D01*
X+8711369Y-3742783D01*
X+8711369Y-3754658D02*
X+8640119Y-3683408D01*
D95*
X+6517000Y-4088402D02*
X+6047000Y-4088402D01*
X+6047000Y-3858402D01*
X+6517000Y-3858402D01*
X+6517000Y-4088402D01*
X+6282000Y-3923402D02*
X+6282000Y-4023402D01*
X+6232000Y-3973402D02*
X+6332000Y-3973402D01*
D108*
X+6310200Y-4001602D02*
X+6324300Y-4015702D01*
X+6366600Y-4015702D01*
X+6394800Y-3987502D01*
X+6394800Y-3959302D01*
X+6366600Y-3931102D01*
X+6324300Y-3931102D01*
X+6310200Y-3945202D01*
X+6253800Y-3959302D02*
X+6225600Y-3931102D01*
X+6225600Y-4015702D01*
D95*
X+5909500Y-4342402D02*
X+5439500Y-4342402D01*
X+5439500Y-4112402D01*
X+5909500Y-4112402D01*
X+5909500Y-4342402D01*
X+5674500Y-4177402D02*
X+5674500Y-4277402D01*
X+5624500Y-4227402D02*
X+5724500Y-4227402D01*
D99*
X+5745750Y-4251152D02*
X+5757625Y-4263027D01*
X+5793250Y-4263027D01*
X+5817000Y-4239277D01*
X+5817000Y-4215527D01*
X+5793250Y-4191777D01*
X+5757625Y-4191777D01*
X+5745750Y-4203652D01*
X+5698250Y-4215527D02*
X+5674500Y-4191777D01*
X+5674500Y-4263027D01*
X+5615125Y-4203652D02*
X+5603250Y-4191777D01*
X+5567625Y-4191777D01*
X+5555750Y-4203652D01*
X+5555750Y-4215527D01*
X+5567625Y-4227402D01*
X+5555750Y-4239277D01*
X+5555750Y-4251152D01*
X+5567625Y-4263027D01*
X+5603250Y-4263027D01*
X+5615125Y-4251152D01*
X+5591375Y-4227402D02*
X+5567625Y-4227402D01*
D95*
X+5439500Y-3604402D02*
X+5899500Y-3604402D01*
X+5899500Y-3834402D01*
X+5439500Y-3834402D01*
X+5439500Y-3604402D01*
X+5669500Y-3769402D02*
X+5669500Y-3669402D01*
X+5719500Y-3719402D02*
X+5619500Y-3719402D01*
D96*
X+5809000Y-3754277D02*
X+5809000Y-3684527D01*
X+5750875Y-3684527D01*
X+5739250Y-3696152D01*
X+5739250Y-3707777D01*
X+5750875Y-3719402D01*
X+5809000Y-3719402D01*
X+5750875Y-3719402D02*
X+5739250Y-3731027D01*
X+5739250Y-3754277D01*
X+5692750Y-3707777D02*
X+5669500Y-3684527D01*
X+5669500Y-3754277D01*
X+5611375Y-3684527D02*
X+5553250Y-3684527D01*
X+5553250Y-3696152D01*
X+5611375Y-3754277D01*
D95*
X+6507000Y-4342402D02*
X+6047000Y-4342402D01*
X+6047000Y-4112402D01*
X+6507000Y-4112402D01*
X+6507000Y-4342402D01*
X+6277000Y-4177402D02*
X+6277000Y-4277402D01*
X+6227000Y-4227402D02*
X+6327000Y-4227402D01*
D96*
X+6416500Y-4262277D02*
X+6416500Y-4192527D01*
X+6358375Y-4192527D01*
X+6346750Y-4204152D01*
X+6346750Y-4215777D01*
X+6358375Y-4227402D01*
X+6416500Y-4227402D01*
X+6358375Y-4227402D02*
X+6346750Y-4239027D01*
X+6346750Y-4262277D01*
X+6300250Y-4215777D02*
X+6277000Y-4192527D01*
X+6277000Y-4262277D01*
X+6207250Y-4227402D02*
X+6218875Y-4215777D01*
X+6218875Y-4204152D01*
X+6207250Y-4192527D01*
X+6172375Y-4192527D01*
X+6160750Y-4204152D01*
X+6160750Y-4215777D01*
X+6172375Y-4227402D01*
X+6207250Y-4227402D01*
X+6218875Y-4239027D01*
X+6218875Y-4250652D01*
X+6207250Y-4262277D01*
X+6172375Y-4262277D01*
X+6160750Y-4250652D01*
X+6160750Y-4239027D01*
X+6172375Y-4227402D01*
D95*
X+6702607Y-3604033D02*
X+7162607Y-3604033D01*
X+7162607Y-3834033D01*
X+6702607Y-3834033D01*
X+6702607Y-3604033D01*
X+6932607Y-3769033D02*
X+6932607Y-3669033D01*
X+6982607Y-3719033D02*
X+6882607Y-3719033D01*
D108*
X+7045407Y-3761333D02*
X+7045407Y-3676733D01*
X+6974907Y-3676733D01*
X+6960807Y-3690833D01*
X+6960807Y-3704933D01*
X+6974907Y-3719033D01*
X+7045407Y-3719033D01*
X+6974907Y-3719033D02*
X+6960807Y-3733133D01*
X+6960807Y-3761333D01*
X+6904407Y-3704933D02*
X+6876207Y-3676733D01*
X+6876207Y-3761333D01*
D95*
X+7761607Y-4088033D02*
X+7301607Y-4088033D01*
X+7301607Y-3858033D01*
X+7761607Y-3858033D01*
X+7761607Y-4088033D01*
X+7531607Y-3923033D02*
X+7531607Y-4023033D01*
X+7481607Y-3973033D02*
X+7581607Y-3973033D01*
D108*
X+7644407Y-4015333D02*
X+7644407Y-3930733D01*
X+7573907Y-3930733D01*
X+7559807Y-3944833D01*
X+7559807Y-3958933D01*
X+7573907Y-3973033D01*
X+7644407Y-3973033D01*
X+7573907Y-3973033D02*
X+7559807Y-3987133D01*
X+7559807Y-4015333D01*
X+7517507Y-3944833D02*
X+7503407Y-3930733D01*
X+7461107Y-3930733D01*
X+7447007Y-3944833D01*
X+7447007Y-3958933D01*
X+7461107Y-3973033D01*
X+7503407Y-3973033D01*
X+7517507Y-3987133D01*
X+7517507Y-4015333D01*
X+7447007Y-4015333D01*
D95*
X+7934869Y-3604033D02*
X+8394869Y-3604033D01*
X+8394869Y-3834033D01*
X+7934869Y-3834033D01*
X+7934869Y-3604033D01*
X+8164869Y-3769033D02*
X+8164869Y-3669033D01*
X+8214869Y-3719033D02*
X+8114869Y-3719033D01*
D108*
X+8277669Y-3761333D02*
X+8277669Y-3676733D01*
X+8207169Y-3676733D01*
X+8193069Y-3690833D01*
X+8193069Y-3704933D01*
X+8207169Y-3719033D01*
X+8277669Y-3719033D01*
X+8207169Y-3719033D02*
X+8193069Y-3733133D01*
X+8193069Y-3761333D01*
X+8150769Y-3690833D02*
X+8136669Y-3676733D01*
X+8094369Y-3676733D01*
X+8080269Y-3690833D01*
X+8080269Y-3704933D01*
X+8094369Y-3719033D01*
X+8080269Y-3733133D01*
X+8080269Y-3747233D01*
X+8094369Y-3761333D01*
X+8136669Y-3761333D01*
X+8150769Y-3747233D01*
X+8122569Y-3719033D02*
X+8094369Y-3719033D01*
D95*
X+8993869Y-4088033D02*
X+8533869Y-4088033D01*
X+8533869Y-3858033D01*
X+8993869Y-3858033D01*
X+8993869Y-4088033D01*
X+8763869Y-3923033D02*
X+8763869Y-4023033D01*
X+8713869Y-3973033D02*
X+8813869Y-3973033D01*
D108*
X+8876669Y-4015333D02*
X+8876669Y-3930733D01*
X+8806169Y-3930733D01*
X+8792069Y-3944833D01*
X+8792069Y-3958933D01*
X+8806169Y-3973033D01*
X+8876669Y-3973033D01*
X+8806169Y-3973033D02*
X+8792069Y-3987133D01*
X+8792069Y-4015333D01*
X+8679269Y-3987133D02*
X+8763869Y-3987133D01*
X+8707469Y-3930733D01*
X+8707469Y-4015333D01*
D95*
X+7172607Y-4342033D02*
X+6702607Y-4342033D01*
X+6702607Y-4112033D01*
X+7172607Y-4112033D01*
X+7172607Y-4342033D01*
X+6937607Y-4177033D02*
X+6937607Y-4277033D01*
X+6887607Y-4227033D02*
X+6987607Y-4227033D01*
D108*
X+6965807Y-4255233D02*
X+6979907Y-4269333D01*
X+7022207Y-4269333D01*
X+7050407Y-4241133D01*
X+7050407Y-4212933D01*
X+7022207Y-4184733D01*
X+6979907Y-4184733D01*
X+6965807Y-4198833D01*
X+6853007Y-4241133D02*
X+6937607Y-4241133D01*
X+6881207Y-4184733D01*
X+6881207Y-4269333D01*
D95*
X+7761607Y-4342033D02*
X+7291607Y-4342033D01*
X+7291607Y-4112033D01*
X+7761607Y-4112033D01*
X+7761607Y-4342033D01*
X+7526607Y-4177033D02*
X+7526607Y-4277033D01*
X+7476607Y-4227033D02*
X+7576607Y-4227033D01*
D108*
X+7554807Y-4255233D02*
X+7568907Y-4269333D01*
X+7611207Y-4269333D01*
X+7639407Y-4241133D01*
X+7639407Y-4212933D01*
X+7611207Y-4184733D01*
X+7568907Y-4184733D01*
X+7554807Y-4198833D01*
X+7442007Y-4198833D02*
X+7456107Y-4184733D01*
X+7498407Y-4184733D01*
X+7512507Y-4198833D01*
X+7512507Y-4255233D01*
X+7498407Y-4269333D01*
X+7456107Y-4269333D01*
X+7442007Y-4255233D01*
X+7442007Y-4241133D01*
X+7456107Y-4227033D01*
X+7512507Y-4227033D01*
D95*
X+8404869Y-4342033D02*
X+7934869Y-4342033D01*
X+7934869Y-4112033D01*
X+8404869Y-4112033D01*
X+8404869Y-4342033D01*
X+8169869Y-4177033D02*
X+8169869Y-4277033D01*
X+8119869Y-4227033D02*
X+8219869Y-4227033D01*
D108*
X+8198069Y-4255233D02*
X+8212169Y-4269333D01*
X+8254469Y-4269333D01*
X+8282669Y-4241133D01*
X+8282669Y-4212933D01*
X+8254469Y-4184733D01*
X+8212169Y-4184733D01*
X+8198069Y-4198833D01*
X+8085269Y-4212933D02*
X+8099369Y-4227033D01*
X+8141669Y-4227033D01*
X+8155769Y-4212933D01*
X+8155769Y-4198833D01*
X+8141669Y-4184733D01*
X+8099369Y-4184733D01*
X+8085269Y-4198833D01*
X+8085269Y-4255233D01*
X+8099369Y-4269333D01*
X+8141669Y-4269333D01*
D95*
X+8993869Y-4342033D02*
X+8523869Y-4342033D01*
X+8523869Y-4112033D01*
X+8993869Y-4112033D01*
X+8993869Y-4342033D01*
X+8758869Y-4177033D02*
X+8758869Y-4277033D01*
X+8708869Y-4227033D02*
X+8808869Y-4227033D01*
D99*
X+8830119Y-4250783D02*
X+8841994Y-4262658D01*
X+8877619Y-4262658D01*
X+8901369Y-4238908D01*
X+8901369Y-4215158D01*
X+8877619Y-4191408D01*
X+8841994Y-4191408D01*
X+8830119Y-4203283D01*
X+8782619Y-4215158D02*
X+8758869Y-4191408D01*
X+8758869Y-4262658D01*
X+8687619Y-4215158D02*
X+8663869Y-4191408D01*
X+8663869Y-4262658D01*
D95*
X+7243000Y-6274500D02*
X+6773000Y-6274500D01*
X+6773000Y-6044500D01*
X+7243000Y-6044500D01*
X+7243000Y-6274500D01*
X+7008000Y-6109500D02*
X+7008000Y-6209500D01*
X+6958000Y-6159500D02*
X+7058000Y-6159500D01*
D99*
X+7079250Y-6183250D02*
X+7091125Y-6195125D01*
X+7126750Y-6195125D01*
X+7150500Y-6171375D01*
X+7150500Y-6147625D01*
X+7126750Y-6123875D01*
X+7091125Y-6123875D01*
X+7079250Y-6135750D01*
X+7043625Y-6135750D02*
X+7031750Y-6123875D01*
X+6996125Y-6123875D01*
X+6984250Y-6135750D01*
X+6984250Y-6147625D01*
X+6996125Y-6159500D01*
X+6984250Y-6171375D01*
X+6984250Y-6183250D01*
X+6996125Y-6195125D01*
X+7031750Y-6195125D01*
X+7043625Y-6183250D01*
X+7019875Y-6159500D02*
X+6996125Y-6159500D01*
X+6889250Y-6135750D02*
X+6901125Y-6123875D01*
X+6936750Y-6123875D01*
X+6948625Y-6135750D01*
X+6948625Y-6183250D01*
X+6936750Y-6195125D01*
X+6901125Y-6195125D01*
X+6889250Y-6183250D01*
X+6889250Y-6171375D01*
X+6901125Y-6159500D01*
X+6948625Y-6159500D01*
D95*
X+2426400Y-4893400D02*
X+2426400Y-5363400D01*
X+2196400Y-5363400D01*
X+2196400Y-4893400D01*
X+2426400Y-4893400D01*
X+2261400Y-5128400D02*
X+2361400Y-5128400D01*
X+2311400Y-5178400D02*
X+2311400Y-5078400D01*
D99*
X+2335150Y-5057150D02*
X+2347025Y-5045275D01*
X+2347025Y-5009650D01*
X+2323275Y-4985900D01*
X+2299525Y-4985900D01*
X+2275775Y-5009650D01*
X+2275775Y-5045275D01*
X+2287650Y-5057150D01*
X+2287650Y-5092775D02*
X+2275775Y-5104650D01*
X+2275775Y-5140275D01*
X+2287650Y-5152150D01*
X+2299525Y-5152150D01*
X+2311400Y-5140275D01*
X+2323275Y-5152150D01*
X+2335150Y-5152150D01*
X+2347025Y-5140275D01*
X+2347025Y-5104650D01*
X+2335150Y-5092775D01*
X+2311400Y-5116525D02*
X+2311400Y-5140275D01*
X+2275775Y-5187775D02*
X+2275775Y-5247150D01*
X+2287650Y-5247150D01*
X+2347025Y-5187775D01*
D95*
X-647000Y+148500D02*
X-647000Y-321500D01*
X-877000Y-321500D01*
X-877000Y+148500D01*
X-647000Y+148500D01*
X-812000Y-86500D02*
X-712000Y-86500D01*
X-762000Y-136500D02*
X-762000Y-36500D01*
D107*
X-743000Y+8500D02*
X-733500Y+18000D01*
X-733500Y+46500D01*
X-752500Y+65500D01*
X-771500Y+65500D01*
X-790500Y+46500D01*
X-790500Y+18000D01*
X-781000Y+8500D01*
X-771500Y-29500D02*
X-790500Y-48500D01*
X-733500Y-48500D01*
X-743000Y-86500D02*
X-781000Y-86500D01*
X-790500Y-96000D01*
X-790500Y-134000D01*
X-781000Y-143500D01*
X-743000Y-143500D01*
X-733500Y-134000D01*
X-733500Y-96000D01*
X-743000Y-86500D01*
X-733500Y-86500D02*
X-790500Y-143500D01*
X-752500Y-219500D02*
X-752500Y-162500D01*
X-790500Y-200500D01*
X-733500Y-200500D01*
D38*
X+622300Y-6167120D02*
X+1038860Y-6167120D01*
X+1038860Y-5999480D01*
X+622300Y-5999480D01*
X+622300Y-6167120D01*
D124*
X+750113Y-6053124D02*
X+750113Y-6113475D01*
X+790346Y-6113475D01*
X+810463Y-6093358D01*
X+810463Y-6073241D01*
X+790346Y-6053124D01*
X+750113Y-6053124D01*
X+840638Y-6103416D02*
X+850696Y-6113475D01*
X+880871Y-6113475D01*
X+890930Y-6103416D01*
X+890930Y-6093358D01*
X+880871Y-6083300D01*
X+850696Y-6083300D01*
X+840638Y-6073241D01*
X+840638Y-6053124D01*
X+890930Y-6053124D01*
D95*
X+8319200Y-5187600D02*
X+8319200Y-5647600D01*
X+8089200Y-5647600D01*
X+8089200Y-5187600D01*
X+8319200Y-5187600D01*
X+8154200Y-5417600D02*
X+8254200Y-5417600D01*
X+8204200Y-5467600D02*
X+8204200Y-5367600D01*
D96*
X+8169325Y-5557100D02*
X+8239075Y-5557100D01*
X+8239075Y-5498975D01*
X+8227450Y-5487350D01*
X+8215825Y-5487350D01*
X+8204200Y-5498975D01*
X+8204200Y-5557100D01*
X+8204200Y-5498975D02*
X+8192575Y-5487350D01*
X+8169325Y-5487350D01*
X+8227450Y-5452475D02*
X+8239075Y-5440850D01*
X+8239075Y-5405975D01*
X+8227450Y-5394350D01*
X+8215825Y-5394350D01*
X+8204200Y-5405975D01*
X+8192575Y-5394350D01*
X+8180950Y-5394350D01*
X+8169325Y-5405975D01*
X+8169325Y-5440850D01*
X+8180950Y-5452475D01*
X+8204200Y-5429225D02*
X+8204200Y-5405975D01*
X+8215825Y-5347850D02*
X+8239075Y-5324600D01*
X+8169325Y-5324600D01*
D95*
X+7118000Y-5117400D02*
X+7578000Y-5117400D01*
X+7578000Y-5347400D01*
X+7118000Y-5347400D01*
X+7118000Y-5117400D01*
X+7348000Y-5282400D02*
X+7348000Y-5182400D01*
X+7398000Y-5232400D02*
X+7298000Y-5232400D01*
D96*
X+7487500Y-5267275D02*
X+7487500Y-5197525D01*
X+7429375Y-5197525D01*
X+7417750Y-5209150D01*
X+7417750Y-5220775D01*
X+7429375Y-5232400D01*
X+7487500Y-5232400D01*
X+7429375Y-5232400D02*
X+7417750Y-5244025D01*
X+7417750Y-5267275D01*
X+7382875Y-5209150D02*
X+7371250Y-5197525D01*
X+7336375Y-5197525D01*
X+7324750Y-5209150D01*
X+7324750Y-5220775D01*
X+7336375Y-5232400D01*
X+7324750Y-5244025D01*
X+7324750Y-5255650D01*
X+7336375Y-5267275D01*
X+7371250Y-5267275D01*
X+7382875Y-5255650D01*
X+7359625Y-5232400D02*
X+7336375Y-5232400D01*
X+7231750Y-5244025D02*
X+7301500Y-5244025D01*
X+7255000Y-5197525D01*
X+7255000Y-5267275D01*
D95*
X+7846100Y-5174900D02*
X+7846100Y-5634900D01*
X+7616100Y-5634900D01*
X+7616100Y-5174900D01*
X+7846100Y-5174900D01*
X+7681100Y-5404900D02*
X+7781100Y-5404900D01*
X+7731100Y-5454900D02*
X+7731100Y-5354900D01*
D96*
X+7765975Y-5265400D02*
X+7696225Y-5265400D01*
X+7696225Y-5323525D01*
X+7707850Y-5335150D01*
X+7719475Y-5335150D01*
X+7731100Y-5323525D01*
X+7731100Y-5265400D01*
X+7731100Y-5323525D02*
X+7742725Y-5335150D01*
X+7765975Y-5335150D01*
X+7707850Y-5370025D02*
X+7696225Y-5381650D01*
X+7696225Y-5416525D01*
X+7707850Y-5428150D01*
X+7719475Y-5428150D01*
X+7731100Y-5416525D01*
X+7742725Y-5428150D01*
X+7754350Y-5428150D01*
X+7765975Y-5416525D01*
X+7765975Y-5381650D01*
X+7754350Y-5370025D01*
X+7731100Y-5393275D02*
X+7731100Y-5416525D01*
X+7696225Y-5521150D02*
X+7696225Y-5463025D01*
X+7719475Y-5463025D01*
X+7719475Y-5509525D01*
X+7731100Y-5521150D01*
X+7754350Y-5521150D01*
X+7765975Y-5509525D01*
X+7765975Y-5474650D01*
X+7754350Y-5463025D01*
D95*
X+8558416Y-4678216D02*
X+9018416Y-4678216D01*
X+9018416Y-4908216D01*
X+8558416Y-4908216D01*
X+8558416Y-4678216D01*
X+8788416Y-4843216D02*
X+8788416Y-4743216D01*
X+8838416Y-4793216D02*
X+8738416Y-4793216D01*
D96*
X+8927916Y-4828091D02*
X+8927916Y-4758341D01*
X+8869791Y-4758341D01*
X+8858166Y-4769966D01*
X+8858166Y-4781591D01*
X+8869791Y-4793216D01*
X+8927916Y-4793216D01*
X+8869791Y-4793216D02*
X+8858166Y-4804841D01*
X+8858166Y-4828091D01*
X+8765166Y-4804841D02*
X+8834916Y-4804841D01*
X+8788416Y-4758341D01*
X+8788416Y-4828091D01*
X+8730291Y-4769966D02*
X+8718666Y-4758341D01*
X+8683791Y-4758341D01*
X+8672166Y-4769966D01*
X+8672166Y-4781591D01*
X+8683791Y-4793216D01*
X+8672166Y-4804841D01*
X+8672166Y-4816466D01*
X+8683791Y-4828091D01*
X+8718666Y-4828091D01*
X+8730291Y-4816466D01*
X+8707041Y-4793216D02*
X+8683791Y-4793216D01*
D95*
X+552800Y-6198300D02*
X+92800Y-6198300D01*
X+92800Y-5968300D01*
X+552800Y-5968300D01*
X+552800Y-6198300D01*
X+322800Y-6033300D02*
X+322800Y-6133300D01*
X+272800Y-6083300D02*
X+372800Y-6083300D01*
D96*
X+183300Y-6048425D02*
X+183300Y-6118175D01*
X+241425Y-6118175D01*
X+253050Y-6106550D01*
X+253050Y-6094925D01*
X+241425Y-6083300D01*
X+183300Y-6083300D01*
X+241425Y-6083300D02*
X+253050Y-6071675D01*
X+253050Y-6048425D01*
X+346050Y-6071675D02*
X+276300Y-6071675D01*
X+322800Y-6118175D01*
X+322800Y-6048425D01*
X+439050Y-6071675D02*
X+369300Y-6071675D01*
X+415800Y-6118175D01*
X+415800Y-6048425D01*
D95*
X+1820000Y-4393500D02*
X+2280000Y-4393500D01*
X+2280000Y-4623500D01*
X+1820000Y-4623500D01*
X+1820000Y-4393500D01*
X+2050000Y-4558500D02*
X+2050000Y-4458500D01*
X+2100000Y-4508500D02*
X+2000000Y-4508500D01*
D96*
X+2189500Y-4543375D02*
X+2189500Y-4473625D01*
X+2131375Y-4473625D01*
X+2119750Y-4485250D01*
X+2119750Y-4496875D01*
X+2131375Y-4508500D01*
X+2189500Y-4508500D01*
X+2131375Y-4508500D02*
X+2119750Y-4520125D01*
X+2119750Y-4543375D01*
X+2026750Y-4520125D02*
X+2096500Y-4520125D01*
X+2050000Y-4473625D01*
X+2050000Y-4543375D01*
X+1991875Y-4473625D02*
X+1933750Y-4473625D01*
X+1933750Y-4485250D01*
X+1991875Y-4543375D01*
D95*
X+1820000Y-4139500D02*
X+2280000Y-4139500D01*
X+2280000Y-4369500D01*
X+1820000Y-4369500D01*
X+1820000Y-4139500D01*
X+2050000Y-4304500D02*
X+2050000Y-4204500D01*
X+2100000Y-4254500D02*
X+2000000Y-4254500D01*
D96*
X+2189500Y-4289375D02*
X+2189500Y-4219625D01*
X+2131375Y-4219625D01*
X+2119750Y-4231250D01*
X+2119750Y-4242875D01*
X+2131375Y-4254500D01*
X+2189500Y-4254500D01*
X+2131375Y-4254500D02*
X+2119750Y-4266125D01*
X+2119750Y-4289375D01*
X+2026750Y-4266125D02*
X+2096500Y-4266125D01*
X+2050000Y-4219625D01*
X+2050000Y-4289375D01*
X+1980250Y-4254500D02*
X+1991875Y-4242875D01*
X+1991875Y-4231250D01*
X+1980250Y-4219625D01*
X+1945375Y-4219625D01*
X+1933750Y-4231250D01*
X+1933750Y-4242875D01*
X+1945375Y-4254500D01*
X+1980250Y-4254500D01*
X+1991875Y-4266125D01*
X+1991875Y-4277750D01*
X+1980250Y-4289375D01*
X+1945375Y-4289375D01*
X+1933750Y-4277750D01*
X+1933750Y-4266125D01*
X+1945375Y-4254500D01*
D95*
X+1942400Y-5353400D02*
X+1942400Y-4893400D01*
X+2172400Y-4893400D01*
X+2172400Y-5353400D01*
X+1942400Y-5353400D01*
X+2107400Y-5123400D02*
X+2007400Y-5123400D01*
X+2057400Y-5073400D02*
X+2057400Y-5173400D01*
D96*
X+2092275Y-4983900D02*
X+2022525Y-4983900D01*
X+2022525Y-5042025D01*
X+2034150Y-5053650D01*
X+2045775Y-5053650D01*
X+2057400Y-5042025D01*
X+2057400Y-4983900D01*
X+2057400Y-5042025D02*
X+2069025Y-5053650D01*
X+2092275Y-5053650D01*
X+2069025Y-5146650D02*
X+2069025Y-5076900D01*
X+2022525Y-5123400D01*
X+2092275Y-5123400D01*
X+2045775Y-5239650D02*
X+2057400Y-5228025D01*
X+2057400Y-5193150D01*
X+2045775Y-5181525D01*
X+2034150Y-5181525D01*
X+2022525Y-5193150D01*
X+2022525Y-5228025D01*
X+2034150Y-5239650D01*
X+2080650Y-5239650D01*
X+2092275Y-5228025D01*
X+2092275Y-5193150D01*
D95*
X+1639000Y-4601300D02*
X+1639000Y-5061300D01*
X+1409000Y-5061300D01*
X+1409000Y-4601300D01*
X+1639000Y-4601300D01*
X+1474000Y-4831300D02*
X+1574000Y-4831300D01*
X+1524000Y-4881300D02*
X+1524000Y-4781300D01*
D96*
X+1558875Y-4691800D02*
X+1489125Y-4691800D01*
X+1489125Y-4749925D01*
X+1500750Y-4761550D01*
X+1512375Y-4761550D01*
X+1524000Y-4749925D01*
X+1524000Y-4691800D01*
X+1524000Y-4749925D02*
X+1535625Y-4761550D01*
X+1558875Y-4761550D01*
X+1489125Y-4854550D02*
X+1489125Y-4796425D01*
X+1512375Y-4796425D01*
X+1512375Y-4842925D01*
X+1524000Y-4854550D01*
X+1547250Y-4854550D01*
X+1558875Y-4842925D01*
X+1558875Y-4808050D01*
X+1547250Y-4796425D01*
X+1547250Y-4877800D02*
X+1500750Y-4877800D01*
X+1489125Y-4889425D01*
X+1489125Y-4935925D01*
X+1500750Y-4947550D01*
X+1547250Y-4947550D01*
X+1558875Y-4935925D01*
X+1558875Y-4889425D01*
X+1547250Y-4877800D01*
X+1558875Y-4877800D02*
X+1489125Y-4947550D01*
D95*
X+3979500Y-2059000D02*
X+4329500Y-2059000D01*
X+4329500Y-2259000D01*
X+3979500Y-2259000D01*
X+3979500Y-2059000D01*
X+4154500Y-2209000D02*
X+4154500Y-2109000D01*
X+4204500Y-2159000D02*
X+4104500Y-2159000D01*
D125*
X+4276213Y-2174215D02*
X+4276213Y-2143786D01*
X+4250857Y-2143786D01*
X+4245785Y-2148858D01*
X+4245785Y-2153929D01*
X+4250857Y-2159000D01*
X+4276213Y-2159000D01*
X+4250857Y-2159000D02*
X+4245785Y-2164072D01*
X+4245785Y-2174215D01*
X+4235642Y-2143786D02*
X+4205214Y-2143786D01*
X+4220428Y-2143786D02*
X+4220428Y-2174215D01*
X+4195071Y-2179286D02*
X+4164643Y-2179286D01*
X+4154500Y-2174215D02*
X+4154500Y-2143786D01*
X+4124072Y-2174215D01*
X+4124072Y-2143786D01*
X+4113929Y-2143786D02*
X+4083501Y-2143786D01*
X+4098715Y-2143786D02*
X+4098715Y-2174215D01*
X+4042930Y-2169143D02*
X+4048002Y-2174215D01*
X+4063216Y-2174215D01*
X+4073358Y-2164072D01*
X+4073358Y-2153929D01*
X+4063216Y-2143786D01*
X+4048002Y-2143786D01*
X+4042930Y-2148858D01*
D95*
X+701400Y-3832200D02*
X+701400Y-2862200D01*
X+1381400Y-2862200D01*
X+1381400Y-3832200D01*
X+701400Y-3832200D01*
X+1091400Y-3347200D02*
X+991400Y-3347200D01*
X+1041400Y-3297200D02*
X+1041400Y-3397200D01*
D126*
X+1138900Y-3087200D02*
X+943900Y-3087200D01*
X+943900Y-3217200D01*
X+1008900Y-3282200D01*
X+1073900Y-3282200D01*
X+1138900Y-3217200D01*
X+1138900Y-3087200D01*
X+943900Y-3542200D02*
X+943900Y-3379700D01*
X+1008900Y-3379700D01*
X+1008900Y-3509700D01*
X+1041400Y-3542200D01*
X+1106400Y-3542200D01*
X+1138900Y-3509700D01*
X+1138900Y-3412200D01*
X+1106400Y-3379700D01*
D95*
X+5642633Y-2874155D02*
X+5395146Y-2626667D01*
X+5536567Y-2485246D01*
X+5784055Y-2732733D01*
X+5642633Y-2874155D01*
X+5624956Y-2644345D02*
X+5554245Y-2715056D01*
X+5554245Y-2644345D02*
X+5624956Y-2715056D01*
D127*
X+5646080Y-2773834D02*
X+5683734Y-2736180D01*
X+5652356Y-2704803D01*
X+5639805Y-2704803D01*
X+5633529Y-2711078D01*
X+5633529Y-2723629D01*
X+5664907Y-2755007D01*
X+5633529Y-2723629D02*
X+5620978Y-2723629D01*
X+5608427Y-2736180D01*
X+5595875Y-2723629D02*
X+5633529Y-2685975D01*
X+5595875Y-2648322D01*
X+5614702Y-2704802D02*
X+5589600Y-2679700D01*
X+5558222Y-2635771D02*
X+5558222Y-2610669D01*
X+5520569Y-2648323D01*
D95*
X+5798922Y-2727244D02*
X+5551435Y-2479756D01*
X+5692856Y-2338335D01*
X+5940344Y-2585822D01*
X+5798922Y-2727244D01*
X+5781245Y-2497434D02*
X+5710534Y-2568145D01*
X+5710534Y-2497434D02*
X+5781245Y-2568145D01*
D127*
X+5802369Y-2626923D02*
X+5840023Y-2589269D01*
X+5808645Y-2557892D01*
X+5796094Y-2557892D01*
X+5789818Y-2564167D01*
X+5789818Y-2576718D01*
X+5821196Y-2608096D01*
X+5789818Y-2576718D02*
X+5777267Y-2576718D01*
X+5764716Y-2589269D01*
X+5752164Y-2576718D02*
X+5789818Y-2539064D01*
X+5752164Y-2501411D01*
X+5770991Y-2557891D02*
X+5745889Y-2532789D01*
X+5727062Y-2488860D02*
X+5727062Y-2476309D01*
X+5708236Y-2457483D01*
X+5695685Y-2457483D01*
X+5689409Y-2463758D01*
X+5689409Y-2476309D01*
X+5708236Y-2495136D01*
X+5708236Y-2507687D01*
X+5695685Y-2520238D01*
X+5664307Y-2488860D01*
D95*
X+7062800Y-2792800D02*
X+7062800Y-2442800D01*
X+7262800Y-2442800D01*
X+7262800Y-2792800D01*
X+7062800Y-2792800D01*
X+7212800Y-2617800D02*
X+7112800Y-2617800D01*
X+7162800Y-2567800D02*
X+7162800Y-2667800D01*
D127*
X+7189425Y-2511300D02*
X+7136175Y-2511300D01*
X+7136175Y-2555675D01*
X+7145050Y-2564550D01*
X+7153925Y-2564550D01*
X+7162800Y-2555675D01*
X+7162800Y-2511300D01*
X+7162800Y-2555675D02*
X+7171675Y-2564550D01*
X+7189425Y-2564550D01*
X+7189425Y-2582300D02*
X+7136175Y-2582300D01*
X+7136175Y-2635550D01*
X+7162800Y-2582300D02*
X+7162800Y-2617800D01*
X+7145050Y-2662175D02*
X+7136175Y-2671050D01*
X+7136175Y-2697675D01*
X+7145050Y-2706550D01*
X+7153925Y-2706550D01*
X+7162800Y-2697675D01*
X+7171675Y-2706550D01*
X+7180550Y-2706550D01*
X+7189425Y-2697675D01*
X+7189425Y-2671050D01*
X+7180550Y-2662175D01*
X+7162800Y-2679925D02*
X+7162800Y-2697675D01*
D95*
X+7278700Y-2789600D02*
X+7278700Y-2439600D01*
X+7478700Y-2439600D01*
X+7478700Y-2789600D01*
X+7278700Y-2789600D01*
X+7428700Y-2614600D02*
X+7328700Y-2614600D01*
X+7378700Y-2564600D02*
X+7378700Y-2664600D01*
D127*
X+7352075Y-2721100D02*
X+7405325Y-2721100D01*
X+7405325Y-2676725D01*
X+7396450Y-2667850D01*
X+7387575Y-2667850D01*
X+7378700Y-2676725D01*
X+7378700Y-2721100D01*
X+7378700Y-2676725D02*
X+7369825Y-2667850D01*
X+7352075Y-2667850D01*
X+7352075Y-2650100D02*
X+7405325Y-2650100D01*
X+7405325Y-2596850D01*
X+7378700Y-2650100D02*
X+7378700Y-2614600D01*
X+7369825Y-2525850D02*
X+7369825Y-2579100D01*
X+7405325Y-2543600D01*
X+7352075Y-2543600D01*
D95*
X+8792800Y-2617800D02*
X+9142800Y-2617800D01*
X+9142800Y-2817800D01*
X+8792800Y-2817800D01*
X+8792800Y-2617800D01*
X+8967800Y-2767800D02*
X+8967800Y-2667800D01*
X+9017800Y-2717800D02*
X+8917800Y-2717800D01*
D127*
X+9074300Y-2744425D02*
X+9074300Y-2691175D01*
X+9029925Y-2691175D01*
X+9021050Y-2700050D01*
X+9021050Y-2708925D01*
X+9029925Y-2717800D01*
X+9074300Y-2717800D01*
X+9029925Y-2717800D02*
X+9021050Y-2726675D01*
X+9021050Y-2744425D01*
X+9003300Y-2744425D02*
X+9003300Y-2691175D01*
X+8950050Y-2691175D01*
X+9003300Y-2717800D02*
X+8967800Y-2717800D01*
X+8879050Y-2691175D02*
X+8923425Y-2691175D01*
X+8923425Y-2708925D01*
X+8887925Y-2708925D01*
X+8879050Y-2717800D01*
X+8879050Y-2735550D01*
X+8887925Y-2744425D01*
X+8914550Y-2744425D01*
X+8923425Y-2735550D01*
D95*
X+8789600Y-2846400D02*
X+9139600Y-2846400D01*
X+9139600Y-3046400D01*
X+8789600Y-3046400D01*
X+8789600Y-2846400D01*
X+8964600Y-2996400D02*
X+8964600Y-2896400D01*
X+9014600Y-2946400D02*
X+8914600Y-2946400D01*
D127*
X+9071100Y-2973025D02*
X+9071100Y-2919775D01*
X+9026725Y-2919775D01*
X+9017850Y-2928650D01*
X+9017850Y-2937525D01*
X+9026725Y-2946400D01*
X+9071100Y-2946400D01*
X+9026725Y-2946400D02*
X+9017850Y-2955275D01*
X+9017850Y-2973025D01*
X+9000100Y-2973025D02*
X+9000100Y-2919775D01*
X+8946850Y-2919775D01*
X+9000100Y-2946400D02*
X+8964600Y-2946400D01*
X+8875850Y-2928650D02*
X+8884725Y-2919775D01*
X+8911350Y-2919775D01*
X+8920225Y-2928650D01*
X+8920225Y-2964150D01*
X+8911350Y-2973025D01*
X+8884725Y-2973025D01*
X+8875850Y-2964150D01*
X+8875850Y-2955275D01*
X+8884725Y-2946400D01*
X+8920225Y-2946400D01*
D95*
X-858900Y-2034900D02*
X+111100Y-2034900D01*
X+111100Y-2714900D01*
X-858900Y-2714900D01*
X-858900Y-2034900D01*
X-373900Y-2424900D02*
X-373900Y-2324900D01*
X-323900Y-2374900D02*
X-423900Y-2374900D01*
D126*
X-633900Y-2277400D02*
X-633900Y-2472400D01*
X-503900Y-2472400D01*
X-438900Y-2407400D01*
X-438900Y-2342400D01*
X-503900Y-2277400D01*
X-633900Y-2277400D01*
X-341400Y-2439900D02*
X-308900Y-2472400D01*
X-211400Y-2472400D01*
X-178900Y-2439900D01*
X-178900Y-2407400D01*
X-211400Y-2374900D01*
X-178900Y-2342400D01*
X-178900Y-2309900D01*
X-211400Y-2277400D01*
X-308900Y-2277400D01*
X-341400Y-2309900D01*
X-276400Y-2374900D02*
X-211400Y-2374900D01*
D95*
X-858900Y-2898500D02*
X+111100Y-2898500D01*
X+111100Y-3578500D01*
X-858900Y-3578500D01*
X-858900Y-2898500D01*
X-373900Y-3288500D02*
X-373900Y-3188500D01*
X-323900Y-3238500D02*
X-423900Y-3238500D01*
D126*
X-633900Y-3141000D02*
X-633900Y-3336000D01*
X-503900Y-3336000D01*
X-438900Y-3271000D01*
X-438900Y-3206000D01*
X-503900Y-3141000D01*
X-633900Y-3141000D01*
X-178900Y-3206000D02*
X-373900Y-3206000D01*
X-243900Y-3336000D01*
X-243900Y-3141000D01*
D95*
X+4647500Y-603600D02*
X+4647500Y-143600D01*
X+4877500Y-143600D01*
X+4877500Y-603600D01*
X+4647500Y-603600D01*
X+4812500Y-373600D02*
X+4712500Y-373600D01*
X+4762500Y-323600D02*
X+4762500Y-423600D01*
D108*
X+4804800Y-260800D02*
X+4720200Y-260800D01*
X+4720200Y-331300D01*
X+4734300Y-345400D01*
X+4748400Y-345400D01*
X+4762500Y-331300D01*
X+4762500Y-260800D01*
X+4762500Y-331300D02*
X+4776600Y-345400D01*
X+4804800Y-345400D01*
X+4762500Y-401800D02*
X+4748400Y-387700D01*
X+4734300Y-387700D01*
X+4720200Y-401800D01*
X+4720200Y-444100D01*
X+4734300Y-458200D01*
X+4748400Y-458200D01*
X+4762500Y-444100D01*
X+4762500Y-401800D01*
X+4776600Y-387700D01*
X+4790700Y-387700D01*
X+4804800Y-401800D01*
X+4804800Y-444100D01*
X+4790700Y-458200D01*
X+4776600Y-458200D01*
X+4762500Y-444100D01*
D95*
X+4926900Y-605700D02*
X+4926900Y-145700D01*
X+5156900Y-145700D01*
X+5156900Y-605700D01*
X+4926900Y-605700D01*
X+5091900Y-375700D02*
X+4991900Y-375700D01*
X+5041900Y-325700D02*
X+5041900Y-425700D01*
D108*
X+5084200Y-262900D02*
X+4999600Y-262900D01*
X+4999600Y-333400D01*
X+5013700Y-347500D01*
X+5027800Y-347500D01*
X+5041900Y-333400D01*
X+5041900Y-262900D01*
X+5041900Y-333400D02*
X+5056000Y-347500D01*
X+5084200Y-347500D01*
X+5027800Y-460300D02*
X+5041900Y-446200D01*
X+5041900Y-403900D01*
X+5027800Y-389800D01*
X+5013700Y-389800D01*
X+4999600Y-403900D01*
X+4999600Y-446200D01*
X+5013700Y-460300D01*
X+5070100Y-460300D01*
X+5084200Y-446200D01*
X+5084200Y-403900D01*
D95*
X+6997000Y-565500D02*
X+6997000Y-105500D01*
X+7227000Y-105500D01*
X+7227000Y-565500D01*
X+6997000Y-565500D01*
X+7162000Y-335500D02*
X+7062000Y-335500D01*
X+7112000Y-285500D02*
X+7112000Y-385500D01*
D96*
X+7146875Y-196000D02*
X+7077125Y-196000D01*
X+7077125Y-254125D01*
X+7088750Y-265750D01*
X+7100375Y-265750D01*
X+7112000Y-254125D01*
X+7112000Y-196000D01*
X+7112000Y-254125D02*
X+7123625Y-265750D01*
X+7146875Y-265750D01*
X+7100375Y-312250D02*
X+7077125Y-335500D01*
X+7146875Y-335500D01*
X+7088750Y-393625D02*
X+7077125Y-405250D01*
X+7077125Y-440125D01*
X+7088750Y-451750D01*
X+7100375Y-451750D01*
X+7112000Y-440125D01*
X+7123625Y-451750D01*
X+7135250Y-451750D01*
X+7146875Y-440125D01*
X+7146875Y-405250D01*
X+7135250Y-393625D01*
X+7112000Y-416875D02*
X+7112000Y-440125D01*
D95*
X+7238300Y-565500D02*
X+7238300Y-105500D01*
X+7468300Y-105500D01*
X+7468300Y-565500D01*
X+7238300Y-565500D01*
X+7403300Y-335500D02*
X+7303300Y-335500D01*
X+7353300Y-285500D02*
X+7353300Y-385500D01*
D96*
X+7388175Y-196000D02*
X+7318425Y-196000D01*
X+7318425Y-254125D01*
X+7330050Y-265750D01*
X+7341675Y-265750D01*
X+7353300Y-254125D01*
X+7353300Y-196000D01*
X+7353300Y-254125D02*
X+7364925Y-265750D01*
X+7388175Y-265750D01*
X+7341675Y-312250D02*
X+7318425Y-335500D01*
X+7388175Y-335500D01*
X+7364925Y-451750D02*
X+7364925Y-382000D01*
X+7318425Y-428500D01*
X+7388175Y-428500D01*
D95*
X+9105200Y-616300D02*
X+9105200Y-156300D01*
X+9335200Y-156300D01*
X+9335200Y-616300D01*
X+9105200Y-616300D01*
X+9270200Y-386300D02*
X+9170200Y-386300D01*
X+9220200Y-336300D02*
X+9220200Y-436300D01*
D96*
X+9255075Y-246800D02*
X+9185325Y-246800D01*
X+9185325Y-304925D01*
X+9196950Y-316550D01*
X+9208575Y-316550D01*
X+9220200Y-304925D01*
X+9220200Y-246800D01*
X+9220200Y-304925D02*
X+9231825Y-316550D01*
X+9255075Y-316550D01*
X+9208575Y-363050D02*
X+9185325Y-386300D01*
X+9255075Y-386300D01*
X+9185325Y-502550D02*
X+9185325Y-444425D01*
X+9208575Y-444425D01*
X+9208575Y-490925D01*
X+9220200Y-502550D01*
X+9243450Y-502550D01*
X+9255075Y-490925D01*
X+9255075Y-456050D01*
X+9243450Y-444425D01*
D95*
X+9359200Y-616300D02*
X+9359200Y-156300D01*
X+9589200Y-156300D01*
X+9589200Y-616300D01*
X+9359200Y-616300D01*
X+9524200Y-386300D02*
X+9424200Y-386300D01*
X+9474200Y-336300D02*
X+9474200Y-436300D01*
D96*
X+9509075Y-246800D02*
X+9439325Y-246800D01*
X+9439325Y-304925D01*
X+9450950Y-316550D01*
X+9462575Y-316550D01*
X+9474200Y-304925D01*
X+9474200Y-246800D01*
X+9474200Y-304925D02*
X+9485825Y-316550D01*
X+9509075Y-316550D01*
X+9462575Y-363050D02*
X+9439325Y-386300D01*
X+9509075Y-386300D01*
X+9450950Y-502550D02*
X+9439325Y-490925D01*
X+9439325Y-456050D01*
X+9450950Y-444425D01*
X+9497450Y-444425D01*
X+9509075Y-456050D01*
X+9509075Y-490925D01*
X+9497450Y-502550D01*
X+9485825Y-502550D01*
X+9474200Y-490925D01*
X+9474200Y-444425D01*
D38*
X+2501900Y-6167120D02*
X+2918460Y-6167120D01*
X+2918460Y-5999480D01*
X+2501900Y-5999480D01*
X+2501900Y-6167120D01*
D124*
X+2830880Y-6113476D02*
X+2830880Y-6053125D01*
X+2790647Y-6053125D01*
X+2770530Y-6073242D01*
X+2770530Y-6093359D01*
X+2790647Y-6113476D01*
X+2830880Y-6113476D01*
X+2730297Y-6073242D02*
X+2710180Y-6053125D01*
X+2710180Y-6113476D01*
X+2609596Y-6053125D02*
X+2659888Y-6053125D01*
X+2659888Y-6073242D01*
X+2619655Y-6073242D01*
X+2609596Y-6083300D01*
X+2609596Y-6103417D01*
X+2619655Y-6113476D01*
X+2649830Y-6113476D01*
X+2659888Y-6103417D01*
D95*
X+2421800Y-6198300D02*
X+1961800Y-6198300D01*
X+1961800Y-5968300D01*
X+2421800Y-5968300D01*
X+2421800Y-6198300D01*
X+2191800Y-6033300D02*
X+2191800Y-6133300D01*
X+2141800Y-6083300D02*
X+2241800Y-6083300D01*
D96*
X+2331300Y-6118175D02*
X+2331300Y-6048425D01*
X+2273175Y-6048425D01*
X+2261550Y-6060050D01*
X+2261550Y-6071675D01*
X+2273175Y-6083300D01*
X+2331300Y-6083300D01*
X+2273175Y-6083300D02*
X+2261550Y-6094925D01*
X+2261550Y-6118175D01*
X+2215050Y-6071675D02*
X+2191800Y-6048425D01*
X+2191800Y-6118175D01*
X+2075550Y-6071675D02*
X+2087175Y-6083300D01*
X+2122050Y-6083300D01*
X+2133675Y-6071675D01*
X+2133675Y-6060050D01*
X+2122050Y-6048425D01*
X+2087175Y-6048425D01*
X+2075550Y-6060050D01*
X+2075550Y-6106550D01*
X+2087175Y-6118175D01*
X+2122050Y-6118175D01*
D38*
X+624840Y-5875020D02*
X+1041400Y-5875020D01*
X+1041400Y-5707380D01*
X+624840Y-5707380D01*
X+624840Y-5875020D01*
D124*
X+953820Y-5821376D02*
X+953820Y-5761025D01*
X+913587Y-5761025D01*
X+893470Y-5781142D01*
X+893470Y-5801259D01*
X+913587Y-5821376D01*
X+953820Y-5821376D01*
X+853237Y-5781142D02*
X+833120Y-5761025D01*
X+833120Y-5821376D01*
X+732536Y-5771084D02*
X+742595Y-5761025D01*
X+772770Y-5761025D01*
X+782828Y-5771084D01*
X+782828Y-5811317D01*
X+772770Y-5821376D01*
X+742595Y-5821376D01*
X+732536Y-5811317D01*
X+732536Y-5801259D01*
X+742595Y-5791200D01*
X+782828Y-5791200D01*
D95*
X+50100Y-5876200D02*
X+50100Y-5416200D01*
X+280100Y-5416200D01*
X+280100Y-5876200D01*
X+50100Y-5876200D01*
X+215100Y-5646200D02*
X+115100Y-5646200D01*
X+165100Y-5596200D02*
X+165100Y-5696200D01*
D96*
X+199975Y-5506700D02*
X+130225Y-5506700D01*
X+130225Y-5564825D01*
X+141850Y-5576450D01*
X+153475Y-5576450D01*
X+165100Y-5564825D01*
X+165100Y-5506700D01*
X+165100Y-5564825D02*
X+176725Y-5576450D01*
X+199975Y-5576450D01*
X+141850Y-5611325D02*
X+130225Y-5622950D01*
X+130225Y-5657825D01*
X+141850Y-5669450D01*
X+153475Y-5669450D01*
X+165100Y-5657825D01*
X+165100Y-5622950D01*
X+176725Y-5611325D01*
X+199975Y-5611325D01*
X+199975Y-5669450D01*
X+188350Y-5692700D02*
X+141850Y-5692700D01*
X+130225Y-5704325D01*
X+130225Y-5750825D01*
X+141850Y-5762450D01*
X+188350Y-5762450D01*
X+199975Y-5750825D01*
X+199975Y-5704325D01*
X+188350Y-5692700D01*
X+199975Y-5692700D02*
X+130225Y-5762450D01*
M02*
