G04 PROTEUS RS274X GERBER FILE*
%FSLAX45Y45*%
%MOMM*%
G01*
%ADD45C,1.016000*%
%ADD46C,2.286000*%
%ADD47C,1.778000*%
%ADD48C,7.874000*%
%ADD49C,5.334000*%
%AMPPAD049*
4,1,4,
0.571500,0.901700,
-0.571500,0.901700,
-0.571500,-0.901700,
0.571500,-0.901700,
0.571500,0.901700,
0*%
%ADD55PPAD049*%
%AMPPAD050*
4,1,4,
-0.901700,0.571500,
-0.901700,-0.571500,
0.901700,-0.571500,
0.901700,0.571500,
-0.901700,0.571500,
0*%
%ADD56PPAD050*%
%AMPPAD051*
4,1,36,
-2.413000,0.825500,
-2.413000,-0.825500,
-2.410470,-0.851470,
-2.403200,-0.875480,
-2.391650,-0.897080,
-2.376290,-0.915790,
-2.357570,-0.931150,
-2.335980,-0.942700,
-2.311970,-0.949970,
-2.286000,-0.952500,
2.286000,-0.952500,
2.311970,-0.949970,
2.335980,-0.942700,
2.357570,-0.931150,
2.376290,-0.915790,
2.391650,-0.897080,
2.403200,-0.875480,
2.410470,-0.851470,
2.413000,-0.825500,
2.413000,0.825500,
2.410470,0.851470,
2.403200,0.875480,
2.391650,0.897080,
2.376290,0.915790,
2.357570,0.931150,
2.335980,0.942700,
2.311970,0.949970,
2.286000,0.952500,
-2.286000,0.952500,
-2.311970,0.949970,
-2.335980,0.942700,
-2.357570,0.931150,
-2.376290,0.915790,
-2.391650,0.897080,
-2.403200,0.875480,
-2.410470,0.851470,
-2.413000,0.825500,
0*%
%ADD57PPAD051*%
%AMPPAD052*
4,1,36,
-0.952500,0.825500,
-0.952500,-0.825500,
-0.949970,-0.851470,
-0.942700,-0.875480,
-0.931150,-0.897080,
-0.915790,-0.915790,
-0.897070,-0.931150,
-0.875480,-0.942700,
-0.851470,-0.949970,
-0.825500,-0.952500,
0.825500,-0.952500,
0.851470,-0.949970,
0.875480,-0.942700,
0.897070,-0.931150,
0.915790,-0.915790,
0.931150,-0.897080,
0.942700,-0.875480,
0.949970,-0.851470,
0.952500,-0.825500,
0.952500,0.825500,
0.949970,0.851470,
0.942700,0.875480,
0.931150,0.897080,
0.915790,0.915790,
0.897070,0.931150,
0.875480,0.942700,
0.851470,0.949970,
0.825500,0.952500,
-0.825500,0.952500,
-0.851470,0.949970,
-0.875480,0.942700,
-0.897070,0.931150,
-0.915790,0.915790,
-0.931150,0.897080,
-0.942700,0.875480,
-0.949970,0.851470,
-0.952500,0.825500,
0*%
%ADD58PPAD052*%
%AMPPAD053*
4,1,36,
-0.317500,-1.143000,
0.317500,-1.143000,
0.343470,-1.140470,
0.367480,-1.133200,
0.389080,-1.121650,
0.407790,-1.106290,
0.423150,-1.087570,
0.434700,-1.065980,
0.441970,-1.041970,
0.444500,-1.016000,
0.444500,1.016000,
0.441970,1.041970,
0.434700,1.065980,
0.423150,1.087570,
0.407790,1.106290,
0.389080,1.121650,
0.367480,1.133200,
0.343470,1.140470,
0.317500,1.143000,
-0.317500,1.143000,
-0.343470,1.140470,
-0.367480,1.133200,
-0.389080,1.121650,
-0.407790,1.106290,
-0.423150,1.087570,
-0.434700,1.065980,
-0.441970,1.041970,
-0.444500,1.016000,
-0.444500,-1.016000,
-0.441970,-1.041970,
-0.434700,-1.065980,
-0.423150,-1.087570,
-0.407790,-1.106290,
-0.389080,-1.121650,
-0.367480,-1.133200,
-0.343470,-1.140470,
-0.317500,-1.143000,
0*%
%ADD59PPAD053*%
%AMPPAD054*
4,1,36,
-0.571500,0.317500,
-0.571500,-0.317500,
-0.568970,-0.343470,
-0.561700,-0.367480,
-0.550150,-0.389080,
-0.534790,-0.407790,
-0.516070,-0.423150,
-0.494480,-0.434700,
-0.470470,-0.441970,
-0.444500,-0.444500,
0.444500,-0.444500,
0.470470,-0.441970,
0.494480,-0.434700,
0.516070,-0.423150,
0.534790,-0.407790,
0.550150,-0.389080,
0.561700,-0.367480,
0.568970,-0.343470,
0.571500,-0.317500,
0.571500,0.317500,
0.568970,0.343470,
0.561700,0.367480,
0.550150,0.389080,
0.534790,0.407790,
0.516070,0.423150,
0.494480,0.434700,
0.470470,0.441970,
0.444500,0.444500,
-0.444500,0.444500,
-0.470470,0.441970,
-0.494480,0.434700,
-0.516070,0.423150,
-0.534790,0.407790,
-0.550150,0.389080,
-0.561700,0.367480,
-0.568970,0.343470,
-0.571500,0.317500,
0*%
%ADD60PPAD054*%
%AMPPAD055*
4,1,4,
0.723900,0.190500,
0.723900,-0.190500,
-0.723900,-0.190500,
-0.723900,0.190500,
0.723900,0.190500,
0*%
%ADD61PPAD055*%
%AMPPAD044*
4,1,8,
-0.509800,1.397000,
0.509800,1.397000,
0.889000,1.017800,
0.889000,-1.017800,
0.509800,-1.397000,
-0.509800,-1.397000,
-0.889000,-1.017800,
-0.889000,1.017800,
-0.509800,1.397000,
0*%
%ADD50PPAD044*%
%AMPPAD045*
4,1,36,
1.016000,-1.143000,
-1.016000,-1.143000,
-1.041970,-1.140470,
-1.065980,-1.133200,
-1.087580,-1.121650,
-1.106290,-1.106290,
-1.121650,-1.087570,
-1.133200,-1.065980,
-1.140470,-1.041970,
-1.143000,-1.016000,
-1.143000,1.016000,
-1.140470,1.041970,
-1.133200,1.065980,
-1.121650,1.087570,
-1.106290,1.106290,
-1.087580,1.121650,
-1.065980,1.133200,
-1.041970,1.140470,
-1.016000,1.143000,
1.016000,1.143000,
1.041970,1.140470,
1.065980,1.133200,
1.087580,1.121650,
1.106290,1.106290,
1.121650,1.087570,
1.133200,1.065980,
1.140470,1.041970,
1.143000,1.016000,
1.143000,-1.016000,
1.140470,-1.041970,
1.133200,-1.065980,
1.121650,-1.087570,
1.106290,-1.106290,
1.087580,-1.121650,
1.065980,-1.133200,
1.041970,-1.140470,
1.016000,-1.143000,
0*%
%ADD51PPAD045*%
%AMPPAD046*
4,1,8,
-1.397000,-0.509800,
-1.397000,0.509800,
-1.017800,0.889000,
1.017800,0.889000,
1.397000,0.509800,
1.397000,-0.509800,
1.017800,-0.889000,
-1.017800,-0.889000,
-1.397000,-0.509800,
0*%
%ADD52PPAD046*%
%AMPPAD056*
4,1,36,
-0.444500,-0.635000,
0.444500,-0.635000,
0.470470,-0.632470,
0.494480,-0.625200,
0.516080,-0.613650,
0.534790,-0.598290,
0.550150,-0.579570,
0.561700,-0.557980,
0.568970,-0.533970,
0.571500,-0.508000,
0.571500,0.508000,
0.568970,0.533970,
0.561700,0.557980,
0.550150,0.579570,
0.534790,0.598290,
0.516080,0.613650,
0.494480,0.625200,
0.470470,0.632470,
0.444500,0.635000,
-0.444500,0.635000,
-0.470470,0.632470,
-0.494480,0.625200,
-0.516080,0.613650,
-0.534790,0.598290,
-0.550150,0.579570,
-0.561700,0.557980,
-0.568970,0.533970,
-0.571500,0.508000,
-0.571500,-0.508000,
-0.568970,-0.533970,
-0.561700,-0.557980,
-0.550150,-0.579570,
-0.534790,-0.598290,
-0.516080,-0.613650,
-0.494480,-0.625200,
-0.470470,-0.632470,
-0.444500,-0.635000,
0*%
%ADD62PPAD056*%
%AMPPAD057*
4,1,36,
-0.635000,0.444500,
-0.635000,-0.444500,
-0.632470,-0.470470,
-0.625200,-0.494480,
-0.613650,-0.516080,
-0.598290,-0.534790,
-0.579570,-0.550150,
-0.557980,-0.561700,
-0.533970,-0.568970,
-0.508000,-0.571500,
0.508000,-0.571500,
0.533970,-0.568970,
0.557980,-0.561700,
0.579570,-0.550150,
0.598290,-0.534790,
0.613650,-0.516080,
0.625200,-0.494480,
0.632470,-0.470470,
0.635000,-0.444500,
0.635000,0.444500,
0.632470,0.470470,
0.625200,0.494480,
0.613650,0.516080,
0.598290,0.534790,
0.579570,0.550150,
0.557980,0.561700,
0.533970,0.568970,
0.508000,0.571500,
-0.508000,0.571500,
-0.533970,0.568970,
-0.557980,0.561700,
-0.579570,0.550150,
-0.598290,0.534790,
-0.613650,0.516080,
-0.625200,0.494480,
-0.632470,0.470470,
-0.635000,0.444500,
0*%
%ADD63PPAD057*%
%ADD53C,6.604000*%
%AMPPAD058*
4,1,36,
-1.143000,0.762000,
-1.143000,-0.762000,
-1.140470,-0.787970,
-1.133200,-0.811980,
-1.121650,-0.833580,
-1.106290,-0.852290,
-1.087570,-0.867650,
-1.065980,-0.879200,
-1.041970,-0.886470,
-1.016000,-0.889000,
1.016000,-0.889000,
1.041970,-0.886470,
1.065980,-0.879200,
1.087570,-0.867650,
1.106290,-0.852290,
1.121650,-0.833580,
1.133200,-0.811980,
1.140470,-0.787970,
1.143000,-0.762000,
1.143000,0.762000,
1.140470,0.787970,
1.133200,0.811980,
1.121650,0.833580,
1.106290,0.852290,
1.087570,0.867650,
1.065980,0.879200,
1.041970,0.886470,
1.016000,0.889000,
-1.016000,0.889000,
-1.041970,0.886470,
-1.065980,0.879200,
-1.087570,0.867650,
-1.106290,0.852290,
-1.121650,0.833580,
-1.133200,0.811980,
-1.140470,0.787970,
-1.143000,0.762000,
0*%
%ADD64PPAD058*%
%AMPPAD059*
4,1,36,
-1.016000,-2.032000,
1.016000,-2.032000,
1.041970,-2.029470,
1.065980,-2.022200,
1.087580,-2.010650,
1.106290,-1.995290,
1.121650,-1.976570,
1.133200,-1.954980,
1.140470,-1.930970,
1.143000,-1.905000,
1.143000,1.905000,
1.140470,1.930970,
1.133200,1.954980,
1.121650,1.976570,
1.106290,1.995290,
1.087580,2.010650,
1.065980,2.022200,
1.041970,2.029470,
1.016000,2.032000,
-1.016000,2.032000,
-1.041970,2.029470,
-1.065980,2.022200,
-1.087580,2.010650,
-1.106290,1.995290,
-1.121650,1.976570,
-1.133200,1.954980,
-1.140470,1.930970,
-1.143000,1.905000,
-1.143000,-1.905000,
-1.140470,-1.930970,
-1.133200,-1.954980,
-1.121650,-1.976570,
-1.106290,-1.995290,
-1.087580,-2.010650,
-1.065980,-2.022200,
-1.041970,-2.029470,
-1.016000,-2.032000,
0*%
%ADD65PPAD059*%
%AMPPAD048*
4,1,36,
-0.952500,1.079500,
0.952500,1.079500,
0.978470,1.076970,
1.002480,1.069700,
1.024080,1.058150,
1.042790,1.042790,
1.058150,1.024070,
1.069700,1.002480,
1.076970,0.978470,
1.079500,0.952500,
1.079500,-0.952500,
1.076970,-0.978470,
1.069700,-1.002480,
1.058150,-1.024070,
1.042790,-1.042790,
1.024080,-1.058150,
1.002480,-1.069700,
0.978470,-1.076970,
0.952500,-1.079500,
-0.952500,-1.079500,
-0.978470,-1.076970,
-1.002480,-1.069700,
-1.024080,-1.058150,
-1.042790,-1.042790,
-1.058150,-1.024070,
-1.069700,-1.002480,
-1.076970,-0.978470,
-1.079500,-0.952500,
-1.079500,0.952500,
-1.076970,0.978470,
-1.069700,1.002480,
-1.058150,1.024070,
-1.042790,1.042790,
-1.024080,1.058150,
-1.002480,1.069700,
-0.978470,1.076970,
-0.952500,1.079500,
0*%
%ADD54PPAD048*%
%ADD20C,0.203200*%
D45*
X+3810000Y+4445000D03*
X+4051457Y+4702773D03*
D46*
X+2032000Y+4699000D03*
X+2032000Y+4445000D03*
X+3810000Y+4699000D03*
X+4055230Y+4699000D03*
X+4051618Y+4443502D03*
X+3811498Y+4443502D03*
X+5588000Y+4699000D03*
X+5842000Y+4699000D03*
X+5588000Y+4445000D03*
X+6976920Y+4688387D03*
X+5842000Y+4445000D03*
X+9398000Y+4445000D03*
D45*
X+7612422Y+7784235D03*
X+7678581Y+4692661D03*
D47*
X+7293866Y+4688290D03*
X+7674210Y+4688290D03*
X+6184414Y+7494764D03*
X+4405826Y+7492558D03*
X+4261775Y+7489618D03*
X+2540000Y+7493000D03*
X+7610593Y+7782406D03*
X+7610593Y+6613406D03*
X+7112000Y+6604000D03*
X+6477000Y+6604000D03*
X+6985000Y+2286000D03*
X+6880957Y+1895663D03*
X+6477000Y+2159000D03*
X+6548604Y+1222517D03*
X+7309328Y+3699668D03*
X+7304701Y+3326249D03*
X+6254136Y+3362786D03*
X+7117647Y+3364262D03*
D48*
X+7747000Y+8000999D03*
X+9398000Y+8001000D03*
X+8509001Y+8000999D03*
X+8509000Y+5715000D03*
D49*
X+8128000Y+1905000D03*
X+8878001Y+1905000D03*
X+8128000Y+3683000D03*
X+8878000Y+3683000D03*
D55*
X+9017000Y+7493000D03*
X+8717000Y+7493000D03*
X+9017000Y+7239000D03*
X+8717000Y+7239000D03*
D56*
X+6477000Y+8382000D03*
X+6477000Y+8092000D03*
D55*
X+8636000Y+3302000D03*
X+8336000Y+3302000D03*
X+8636000Y+2286000D03*
X+8336000Y+2286000D03*
X+6985000Y+2921000D03*
X+7285000Y+2921000D03*
X+6731000Y+4318000D03*
X+6431000Y+4318000D03*
X+6985000Y+4318000D03*
X+7285000Y+4318000D03*
X+6985000Y+3175000D03*
X+6685000Y+3175000D03*
D57*
X+3048000Y+6985000D03*
X+3048000Y+6096000D03*
D58*
X+2667000Y+6096000D03*
X+2667000Y+6985000D03*
D57*
X+4826000Y+6985000D03*
X+4826000Y+6096000D03*
D58*
X+4445000Y+6096000D03*
X+4445000Y+6985000D03*
D57*
X+1270000Y+6985000D03*
X+1270000Y+6096000D03*
D58*
X+889000Y+6096000D03*
X+889000Y+6985000D03*
D55*
X+2332000Y+3556000D03*
X+2032000Y+3556000D03*
D59*
X+2032000Y+1651000D03*
X+1905000Y+1651000D03*
X+1778000Y+1651000D03*
X+1651000Y+1651000D03*
X+1651000Y+2171700D03*
X+1778000Y+2171700D03*
X+1905000Y+2171700D03*
X+2032000Y+2171700D03*
D56*
X+2286000Y+1570000D03*
X+2286000Y+1270000D03*
D60*
X+2286000Y+1797050D03*
X+2286000Y+2032000D03*
D56*
X+2032000Y+2703000D03*
X+2032000Y+2413000D03*
X+1524000Y+2703000D03*
X+1524000Y+2413000D03*
D61*
X+1746000Y+7047000D03*
X+1746000Y+7112000D03*
X+1746000Y+7177000D03*
X+1746000Y+7242000D03*
X+2176000Y+7242000D03*
X+2176000Y+7177000D03*
X+2176000Y+7112000D03*
X+2176000Y+7047000D03*
D55*
X+1876000Y+7750000D03*
X+2176000Y+7750000D03*
X+1859000Y+6731000D03*
X+2159000Y+6731000D03*
D56*
X+1922000Y+8258000D03*
X+1922000Y+8558000D03*
D55*
X+2003000Y+7496000D03*
X+2303000Y+7496000D03*
D56*
X+2176000Y+8548000D03*
X+2176000Y+8258000D03*
D55*
X+1886000Y+8004000D03*
X+2176000Y+8004000D03*
D59*
X+3810000Y+1651000D03*
X+3683000Y+1651000D03*
X+3556000Y+1651000D03*
X+3429000Y+1651000D03*
X+3429000Y+2171700D03*
X+3556000Y+2171700D03*
X+3683000Y+2171700D03*
X+3810000Y+2171700D03*
D56*
X+3810000Y+2703000D03*
X+3810000Y+2413000D03*
X+3302000Y+2703000D03*
X+3302000Y+2413000D03*
X+4064000Y+1561707D03*
X+4064000Y+1261707D03*
D60*
X+4064000Y+1797050D03*
X+4064000Y+2032000D03*
X+5842000Y+1797050D03*
X+5842000Y+2032000D03*
D59*
X+5588000Y+1651000D03*
X+5461000Y+1651000D03*
X+5334000Y+1651000D03*
X+5207000Y+1651000D03*
X+5207000Y+2171700D03*
X+5334000Y+2171700D03*
X+5461000Y+2171700D03*
X+5588000Y+2171700D03*
D56*
X+5842000Y+1570000D03*
X+5842000Y+1270000D03*
X+5588000Y+2703000D03*
X+5588000Y+2413000D03*
X+5080000Y+2703000D03*
X+5080000Y+2413000D03*
D61*
X+3507000Y+7044000D03*
X+3507000Y+7109000D03*
X+3507000Y+7174000D03*
X+3507000Y+7239000D03*
X+3937000Y+7239000D03*
X+3937000Y+7174000D03*
X+3937000Y+7109000D03*
X+3937000Y+7044000D03*
X+5458000Y+7044000D03*
X+5458000Y+7109000D03*
X+5458000Y+7174000D03*
X+5458000Y+7239000D03*
X+5888000Y+7239000D03*
X+5888000Y+7174000D03*
X+5888000Y+7109000D03*
X+5888000Y+7044000D03*
D56*
X+3683000Y+8255000D03*
X+3683000Y+8555000D03*
D55*
X+3764000Y+7493000D03*
X+4064000Y+7493000D03*
X+3637000Y+8001000D03*
X+3937000Y+8001000D03*
X+3637000Y+6731000D03*
X+3937000Y+6731000D03*
D56*
X+3937000Y+8545000D03*
X+3937000Y+8255000D03*
D55*
X+3647000Y+7747000D03*
X+3937000Y+7747000D03*
D56*
X+5634000Y+8255000D03*
X+5634000Y+8555000D03*
D55*
X+5715000Y+7493000D03*
X+6015000Y+7493000D03*
X+5588000Y+7747000D03*
X+5888000Y+7747000D03*
X+5588000Y+6731000D03*
X+5888000Y+6731000D03*
D56*
X+5888000Y+8555000D03*
X+5888000Y+8265000D03*
D55*
X+5598000Y+8001000D03*
X+5888000Y+8001000D03*
D48*
X+1270000Y+8128000D03*
X+4826000Y+8128000D03*
D56*
X+5588000Y+1397000D03*
X+5588000Y+1107000D03*
X+5207000Y+1397000D03*
X+5207000Y+1107000D03*
X+3810000Y+1397000D03*
X+3810000Y+1107000D03*
X+3429000Y+1397000D03*
X+3429000Y+1107000D03*
X+2032000Y+1397000D03*
X+2032000Y+1107000D03*
X+1651000Y+1397000D03*
X+1651000Y+1107000D03*
D50*
X+3156000Y+635000D03*
X+3356000Y+635000D03*
X+3556000Y+635000D03*
X+3756000Y+635000D03*
X+3956000Y+635000D03*
X+4156000Y+635000D03*
X+3337000Y+9017000D03*
X+3537000Y+9017000D03*
X+3737000Y+9017000D03*
X+3937000Y+9017000D03*
X+4137000Y+9017000D03*
X+4337000Y+9017000D03*
X+7150000Y+889000D03*
X+6950000Y+889000D03*
X+6750000Y+889000D03*
X+6550000Y+889000D03*
X+6350000Y+889000D03*
X+6150000Y+889000D03*
D51*
X+2286000Y+5207000D03*
X+2032000Y+5207000D03*
X+1778000Y+5207000D03*
X+1524000Y+3937000D03*
X+1778000Y+3937000D03*
X+2032000Y+3937000D03*
X+4064000Y+5207000D03*
X+3810000Y+5207000D03*
X+3556000Y+5207000D03*
X+3302000Y+3937000D03*
X+3556000Y+3937000D03*
X+3810000Y+3937000D03*
X+5842000Y+5207000D03*
X+5588000Y+5207000D03*
X+5334000Y+5207000D03*
X+5080000Y+3937000D03*
X+5334000Y+3937000D03*
X+5588000Y+3937000D03*
D48*
X+3048000Y+8128000D03*
D51*
X+7239000Y+2667000D03*
X+6985000Y+2667000D03*
X+6731000Y+2667000D03*
D52*
X+6223000Y+2108056D03*
X+6223000Y+2308056D03*
X+2667000Y+2159000D03*
X+2667000Y+2359000D03*
X+4445000Y+2159000D03*
X+4445000Y+2359000D03*
D55*
X+2032000Y+5588000D03*
X+2332000Y+5588000D03*
X+1778000Y+3556000D03*
X+1478000Y+3556000D03*
D56*
X+2286000Y+5751000D03*
X+2286000Y+6041000D03*
D55*
X+1615000Y+3302000D03*
X+1905000Y+3302000D03*
D56*
X+1778000Y+6051000D03*
X+1778000Y+5751000D03*
X+2032000Y+5751000D03*
X+2032000Y+6041000D03*
D55*
X+1778000Y+3048000D03*
X+2068000Y+3048000D03*
X+3393000Y+3302000D03*
X+3683000Y+3302000D03*
X+3810000Y+5588000D03*
X+4110000Y+5588000D03*
D56*
X+3556226Y+6050774D03*
X+3556226Y+5750774D03*
D55*
X+3550255Y+3556000D03*
X+3250255Y+3556000D03*
X+4110000Y+3556000D03*
X+3810000Y+3556000D03*
D56*
X+4064226Y+5750774D03*
X+4064226Y+6040774D03*
X+3810226Y+5750774D03*
X+3810226Y+6040774D03*
D55*
X+3550255Y+3048000D03*
X+3840255Y+3048000D03*
X+5588000Y+5588000D03*
X+5888000Y+5588000D03*
D56*
X+5334000Y+6051000D03*
X+5334000Y+5751000D03*
D55*
X+5334000Y+3556000D03*
X+5034000Y+3556000D03*
X+5888000Y+3556000D03*
X+5588000Y+3556000D03*
D56*
X+5842000Y+5751000D03*
X+5842000Y+6041000D03*
X+5588000Y+5751000D03*
X+5588000Y+6041000D03*
D55*
X+5171000Y+3302000D03*
X+5461000Y+3302000D03*
X+5334000Y+3048000D03*
X+5624000Y+3048000D03*
D62*
X+6764020Y+1587500D03*
X+6858000Y+1397000D03*
X+6670040Y+1397000D03*
D60*
X+7112000Y+1758950D03*
X+7112000Y+1524000D03*
X+7620000Y+1162050D03*
X+7620000Y+1397000D03*
D56*
X+8255000Y+635000D03*
X+8255000Y+935000D03*
D60*
X+8382000Y+1143000D03*
X+8382000Y+1377950D03*
D56*
X+8001000Y+635000D03*
X+8001000Y+925000D03*
X+8509000Y+635000D03*
X+8509000Y+925000D03*
D62*
X+8001000Y+1143000D03*
X+7907020Y+1333500D03*
X+8094980Y+1333500D03*
D56*
X+7493000Y+508000D03*
X+7493000Y+808000D03*
D60*
X+7493000Y+2032000D03*
X+7493000Y+2266950D03*
D63*
X+7302535Y+2032000D03*
X+7112035Y+1938020D03*
X+7112035Y+2125980D03*
D56*
X+7366000Y+1270000D03*
X+7366000Y+1560000D03*
X+7747000Y+508000D03*
X+7747000Y+798000D03*
D53*
X+9398000Y+762000D03*
X+1016000Y+762000D03*
D62*
X+6477000Y+8636000D03*
X+6383020Y+8826500D03*
X+6570980Y+8826500D03*
D55*
X+7112000Y+6350000D03*
X+6822000Y+6350000D03*
D56*
X+5969000Y+8890000D03*
X+5969000Y+9180000D03*
D51*
X+7239000Y+6985000D03*
X+6985000Y+6985000D03*
X+6731000Y+6985000D03*
X+7239000Y+5207000D03*
X+6985000Y+5207000D03*
X+6731000Y+5207000D03*
D64*
X+7106920Y+4018856D03*
D65*
X+6477000Y+3787716D03*
D64*
X+7106920Y+3787716D03*
X+7106920Y+3556576D03*
D53*
X+1016000Y+9017000D03*
X+9398000Y+9017000D03*
D54*
X+1143000Y+1905000D03*
X+1143000Y+1655000D03*
X+6350000Y+2794000D03*
X+6100000Y+2794000D03*
D20*
X+552000Y+254000D02*
X+9906000Y+254000D01*
X+9906000Y+9525000D01*
X+552000Y+9525000D01*
X+552000Y+254000D01*
M02*
