G04 PROTEUS RS274X GERBER FILE*
%FSLAX45Y45*%
%MOMM*%
G01*
%ADD21C,0.508000*%
%ADD11C,0.762000*%
%ADD10C,2.032000*%
%ADD22C,0.381000*%
%ADD23C,0.304800*%
%ADD24C,5.080000*%
%ADD25C,7.620000*%
%ADD26C,1.778000*%
%ADD27C,1.270000*%
%ADD28C,1.524000*%
%ADD12C,0.762000*%
%ADD13C,2.032000*%
%ADD14C,1.524000*%
%ADD29C,0.254000*%
%ADD15C,7.620000*%
%ADD16C,5.080000*%
%ADD72R,1.143000X1.803400*%
%ADD73R,1.803400X1.143000*%
%ADD30R,4.572000X1.651000*%
%ADD31R,1.651000X1.651000*%
%ADD32R,0.635000X2.032000*%
%ADD33R,0.889000X0.635000*%
%ADD34R,1.447800X0.381000*%
%AMDIL007*
4,1,8,
-0.762000,0.965200,-0.457200,1.270000,0.457200,1.270000,0.762000,0.965200,0.762000,-0.965200,
0.457200,-1.270000,-0.457200,-1.270000,-0.762000,-0.965200,-0.762000,0.965200,
0*%
%ADD17DIL007*%
%ADD18R,2.032000X2.032000*%
%AMDIL009*
4,1,8,
-1.270000,0.457200,-0.965200,0.762000,0.965200,0.762000,1.270000,0.457200,1.270000,-0.457200,
0.965200,-0.762000,-0.965200,-0.762000,-1.270000,-0.457200,-1.270000,0.457200,
0*%
%ADD19DIL009*%
%ADD35R,0.889000X1.016000*%
%ADD36R,1.016000X0.889000*%
%ADD70C,6.350000*%
%ADD37R,2.032000X1.524000*%
%ADD38R,2.032000X3.810000*%
%ADD71R,1.905000X1.905000*%
%ADD20C,0.203200*%
G36*
X+9845041Y+314959D02*
X+612959Y+314959D01*
X+612959Y+9464041D01*
X+9845041Y+9464041D01*
X+9845041Y+314959D01*
G37*
%LPC*%
G36*
X+8047597Y+8420098D02*
X+8682597Y+8420098D01*
X+8928100Y+8174595D01*
X+8928100Y+7827403D01*
X+8793199Y+7692502D01*
X+8793199Y+7621269D01*
X+8812249Y+7621269D01*
X+8812249Y+7110731D01*
X+8621751Y+7110731D01*
X+8621751Y+7581900D01*
X+7971118Y+7581900D01*
X+8371608Y+7181410D01*
X+8371608Y+7171730D01*
X+8801099Y+6742239D01*
X+8801099Y+6015596D01*
X+8928099Y+5888596D01*
X+8928099Y+5541404D01*
X+8801099Y+5414404D01*
X+8801099Y+4070009D01*
X+8420099Y+3689009D01*
X+8420099Y+3430269D01*
X+8431249Y+3430269D01*
X+8431249Y+3173731D01*
X+8420099Y+3173731D01*
X+8420099Y+2414269D01*
X+8431249Y+2414269D01*
X+8431249Y+2157731D01*
X+8420099Y+2157731D01*
X+8420099Y+1784009D01*
X+8248991Y+1612901D01*
X+8007009Y+1612901D01*
X+7835901Y+1784009D01*
X+7835901Y+6701067D01*
X+7437667Y+7099301D01*
X+7378699Y+7099301D01*
X+7378699Y+6845301D01*
X+7340599Y+6845301D01*
X+7340599Y+6561916D01*
X+7315199Y+6536516D01*
X+7315199Y+5346699D01*
X+7378699Y+5346699D01*
X+7378699Y+5067301D01*
X+7124699Y+5067301D01*
X+7124699Y+4828086D01*
X+7351634Y+4828086D01*
X+7416801Y+4762919D01*
X+7416801Y+6428330D01*
X+7391401Y+6453730D01*
X+7391401Y+6537896D01*
X+7496294Y+6642789D01*
X+7496294Y+6660750D01*
X+7508994Y+6673450D01*
X+7508994Y+6776125D01*
X+7568624Y+6835755D01*
X+7652790Y+6835755D01*
X+7712306Y+6776239D01*
X+7712306Y+6692073D01*
X+7712192Y+6691959D01*
X+7712192Y+6673450D01*
X+7724892Y+6660750D01*
X+7724892Y+6566062D01*
X+7657937Y+6499107D01*
X+7639976Y+6499107D01*
X+7569199Y+6428330D01*
X+7569199Y+5040322D01*
X+7623666Y+5094789D01*
X+7739396Y+5094789D01*
X+7823320Y+5010865D01*
X+7823320Y+4260135D01*
X+7759820Y+4196635D01*
X+7759820Y+1828721D01*
X+8166142Y+1422399D01*
X+8177529Y+1422399D01*
X+8177529Y+1409699D01*
X+8299451Y+1409699D01*
X+8299451Y+1447799D01*
X+8344089Y+1447799D01*
X+8350438Y+1454148D01*
X+8413562Y+1454148D01*
X+8419911Y+1447799D01*
X+8464549Y+1447799D01*
X+8464549Y+1308101D01*
X+8419911Y+1308101D01*
X+8369111Y+1257301D01*
X+8177529Y+1257301D01*
X+8177529Y+1244601D01*
X+8012431Y+1244601D01*
X+8012431Y+1360590D01*
X+7989569Y+1383452D01*
X+7989569Y+1244601D01*
X+7925881Y+1244601D01*
X+7767131Y+1085851D01*
X+7588437Y+1085851D01*
X+7582087Y+1092201D01*
X+7537451Y+1092201D01*
X+7537451Y+1231899D01*
X+7582087Y+1231899D01*
X+7588437Y+1238249D01*
X+7704009Y+1238249D01*
X+7824471Y+1358711D01*
X+7824471Y+1422399D01*
X+7950622Y+1422399D01*
X+7607422Y+1765599D01*
X+7607422Y+4196635D01*
X+7569199Y+4234858D01*
X+7569199Y+3097439D01*
X+7380249Y+2908489D01*
X+7380249Y+2792731D01*
X+7378699Y+2792731D01*
X+7378699Y+2527301D01*
X+6807199Y+2527301D01*
X+6807199Y+2202179D01*
X+7023136Y+2202179D01*
X+7023136Y+2208529D01*
X+7086824Y+2208529D01*
X+7221444Y+2343149D01*
X+7524563Y+2343149D01*
X+7530913Y+2336799D01*
X+7575549Y+2336799D01*
X+7575549Y+2197101D01*
X+7530913Y+2197101D01*
X+7524563Y+2190751D01*
X+7284566Y+2190751D01*
X+7200934Y+2107119D01*
X+7200934Y+2043431D01*
X+7023136Y+2043431D01*
X+7023136Y+2049781D01*
X+6762561Y+2049781D01*
X+6525754Y+1812974D01*
X+6525754Y+1812972D01*
X+6481118Y+1768336D01*
X+5924549Y+1768336D01*
X+5924549Y+1727201D01*
X+5879911Y+1727201D01*
X+5873562Y+1720852D01*
X+5810438Y+1720852D01*
X+5804089Y+1727201D01*
X+5759451Y+1727201D01*
X+5759451Y+1768336D01*
X+5657849Y+1768336D01*
X+5657849Y+1727199D01*
X+5792561Y+1727199D01*
X+5854511Y+1665249D01*
X+5970269Y+1665249D01*
X+5970269Y+1474751D01*
X+5716269Y+1474751D01*
X+5716269Y+1365249D01*
X+5970269Y+1365249D01*
X+5970269Y+1174751D01*
X+5716269Y+1174751D01*
X+5716269Y+1011751D01*
X+5664199Y+1011751D01*
X+5664199Y+984439D01*
X+5492561Y+812801D01*
X+4349561Y+812801D01*
X+4270299Y+733539D01*
X+4270299Y+469901D01*
X+3041701Y+469901D01*
X+3041701Y+800099D01*
X+3042002Y+800099D01*
X+3029300Y+812801D01*
X+1746439Y+812801D01*
X+1574801Y+984439D01*
X+1574801Y+1011751D01*
X+1522731Y+1011751D01*
X+1522731Y+1202249D01*
X+1779269Y+1202249D01*
X+1779269Y+1011751D01*
X+1763009Y+1011751D01*
X+1809561Y+965199D01*
X+3092422Y+965199D01*
X+3232199Y+825422D01*
X+3232199Y+800099D01*
X+3279801Y+800099D01*
X+3279801Y+803439D01*
X+3052439Y+1030801D01*
X+2160269Y+1030801D01*
X+2160269Y+1011751D01*
X+1903731Y+1011751D01*
X+1903731Y+1202249D01*
X+2157731Y+1202249D01*
X+2157731Y+1301751D01*
X+1903731Y+1301751D01*
X+1903731Y+1333501D01*
X+1878699Y+1333501D01*
X+1841501Y+1370699D01*
X+1841501Y+1511301D01*
X+1841499Y+1511301D01*
X+1841499Y+1370699D01*
X+1804301Y+1333501D01*
X+1779269Y+1333501D01*
X+1779269Y+1301751D01*
X+1522731Y+1301751D01*
X+1522731Y+1492249D01*
X+1714501Y+1492249D01*
X+1714501Y+1511301D01*
X+1581151Y+1511301D01*
X+1581151Y+1787390D01*
X+1276349Y+1787390D01*
X+1276349Y+1521651D01*
X+1009651Y+1521651D01*
X+1009651Y+2038349D01*
X+1276349Y+2038349D01*
X+1276349Y+1939788D01*
X+3841561Y+1939788D01*
X+3860611Y+1920738D01*
X+5798306Y+1920738D01*
X+5798310Y+1920734D01*
X+6417994Y+1920734D01*
X+6654801Y+2157541D01*
X+6654801Y+2527301D01*
X+6591301Y+2527301D01*
X+6591301Y+2806699D01*
X+6654801Y+2806699D01*
X+6654801Y+3046731D01*
X+6589751Y+3046731D01*
X+6589751Y+3303269D01*
X+6780249Y+3303269D01*
X+6780249Y+3187511D01*
X+6807199Y+3160561D01*
X+6807199Y+2806699D01*
X+6889751Y+2806699D01*
X+6889751Y+3303269D01*
X+7080249Y+3303269D01*
X+7080249Y+2806699D01*
X+7162801Y+2806699D01*
X+7162801Y+2952563D01*
X+7189751Y+2979513D01*
X+7189751Y+3049269D01*
X+7305509Y+3049269D01*
X+7416801Y+3160561D01*
X+7416801Y+3480377D01*
X+7246619Y+3480377D01*
X+7246619Y+3442277D01*
X+6967221Y+3442277D01*
X+6967221Y+3670875D01*
X+7246619Y+3670875D01*
X+7246619Y+3632775D01*
X+7416801Y+3632775D01*
X+7416801Y+4241801D01*
X+7380249Y+4241801D01*
X+7380249Y+4189731D01*
X+7189751Y+4189731D01*
X+7189751Y+4446269D01*
X+7380249Y+4446269D01*
X+7380249Y+4394199D01*
X+7416801Y+4394199D01*
X+7416801Y+4613661D01*
X+7351731Y+4548591D01*
X+7236001Y+4548591D01*
X+7235904Y+4548688D01*
X+6919055Y+4548688D01*
X+6837221Y+4630522D01*
X+6837221Y+4746252D01*
X+6845301Y+4754332D01*
X+6845301Y+5067301D01*
X+6591301Y+5067301D01*
X+6591301Y+7124699D01*
X+6845301Y+7124699D01*
X+6845301Y+7550865D01*
X+6927135Y+7632699D01*
X+7395606Y+7632699D01*
X+7193323Y+7834982D01*
X+7193323Y+8182174D01*
X+7438826Y+8427677D01*
X+8040018Y+8427677D01*
X+8047597Y+8420098D01*
G37*
G36*
X+9224404Y+8420099D02*
X+9571596Y+8420099D01*
X+9817099Y+8174596D01*
X+9817099Y+7827404D01*
X+9571596Y+7581901D01*
X+9224404Y+7581901D01*
X+8978901Y+7827404D01*
X+8978901Y+8174596D01*
X+9224404Y+8420099D01*
G37*
G36*
X+8731249Y+2171338D02*
X+8757010Y+2197099D01*
X+8998992Y+2197099D01*
X+9170100Y+2025991D01*
X+9170100Y+1784009D01*
X+8998992Y+1612901D01*
X+8757010Y+1612901D01*
X+8585902Y+1784009D01*
X+8585902Y+2025991D01*
X+8717642Y+2157731D01*
X+8540751Y+2157731D01*
X+8540751Y+2414269D01*
X+8731249Y+2414269D01*
X+8731249Y+2171338D01*
G37*
G36*
X+9170099Y+3803991D02*
X+9170099Y+3562009D01*
X+8998991Y+3390901D01*
X+8757009Y+3390901D01*
X+8731249Y+3416661D01*
X+8731249Y+3173731D01*
X+8540751Y+3173731D01*
X+8540751Y+3430269D01*
X+8717641Y+3430269D01*
X+8585901Y+3562009D01*
X+8585901Y+3803991D01*
X+8757009Y+3975099D01*
X+8998991Y+3975099D01*
X+9170099Y+3803991D01*
G37*
G36*
X+9112249Y+7364731D02*
X+9112249Y+7110731D01*
X+8921751Y+7110731D01*
X+8921751Y+7621269D01*
X+9112249Y+7621269D01*
X+9112249Y+7364731D01*
G37*
G36*
X+6559549Y+8547101D02*
X+6553199Y+8547101D01*
X+6553199Y+8477249D01*
X+6605269Y+8477249D01*
X+6605269Y+8286751D01*
X+6348731Y+8286751D01*
X+6348731Y+8477249D01*
X+6400801Y+8477249D01*
X+6400801Y+8547101D01*
X+6394451Y+8547101D01*
X+6394451Y+8724899D01*
X+6559549Y+8724899D01*
X+6559549Y+8547101D01*
G37*
G36*
X+6605269Y+7996751D02*
X+6553199Y+7996751D01*
X+6553199Y+7905561D01*
X+6689557Y+7769203D01*
X+6689557Y+7267275D01*
X+6553199Y+7130917D01*
X+6553199Y+6798484D01*
X+6578599Y+6773084D01*
X+6578599Y+6664044D01*
X+6591299Y+6651344D01*
X+6591299Y+6556656D01*
X+6578599Y+6543956D01*
X+6578599Y+6434916D01*
X+6519084Y+6375401D01*
X+6434916Y+6375401D01*
X+6375401Y+6434916D01*
X+6375401Y+6543956D01*
X+6362701Y+6556656D01*
X+6362701Y+6651344D01*
X+6375401Y+6664044D01*
X+6375401Y+6773084D01*
X+6400801Y+6798484D01*
X+6400801Y+7194039D01*
X+6537159Y+7330397D01*
X+6537159Y+7706081D01*
X+6400801Y+7842439D01*
X+6400801Y+7996751D01*
X+6348731Y+7996751D01*
X+6348731Y+8187249D01*
X+6605269Y+8187249D01*
X+6605269Y+7996751D01*
G37*
G36*
X+6635751Y+4446269D02*
X+6826249Y+4446269D01*
X+6826249Y+4189731D01*
X+6635751Y+4189731D01*
X+6635751Y+4446269D01*
G37*
G36*
X+6016269Y+8169751D02*
X+5964199Y+8169751D01*
X+5964199Y+8129269D01*
X+5983249Y+8129269D01*
X+5983249Y+7621269D01*
X+6110249Y+7621269D01*
X+6110249Y+7594599D01*
X+6122606Y+7594599D01*
X+6137070Y+7609063D01*
X+6231758Y+7609063D01*
X+6298713Y+7542108D01*
X+6298713Y+7447420D01*
X+6231758Y+7380465D01*
X+6172199Y+7380465D01*
X+6172199Y+7123437D01*
X+6127563Y+7078801D01*
X+6127561Y+7078801D01*
X+6126199Y+7077439D01*
X+6126199Y+5365561D01*
X+6295061Y+5196699D01*
X+6295063Y+5196699D01*
X+6339699Y+5152063D01*
X+6339699Y+4805858D01*
X+6507199Y+4638358D01*
X+6507199Y+4446269D01*
X+6526249Y+4446269D01*
X+6526249Y+4189731D01*
X+6507199Y+4189731D01*
X+6507199Y+4016315D01*
X+6616699Y+4016315D01*
X+6616699Y+3863915D01*
X+6967221Y+3863915D01*
X+6967221Y+3902015D01*
X+7246619Y+3902015D01*
X+7246619Y+3673417D01*
X+6967221Y+3673417D01*
X+6967221Y+3711517D01*
X+6616699Y+3711517D01*
X+6616699Y+3559117D01*
X+6553199Y+3559117D01*
X+6553199Y+2453574D01*
X+6578599Y+2428174D01*
X+6578599Y+2219044D01*
X+6591299Y+2206344D01*
X+6591299Y+2111656D01*
X+6524344Y+2044701D01*
X+6429656Y+2044701D01*
X+6388099Y+2086258D01*
X+6388099Y+1993757D01*
X+6057901Y+1993757D01*
X+6057901Y+2082801D01*
X+5924549Y+2082801D01*
X+5924549Y+1962151D01*
X+5879913Y+1962151D01*
X+5873563Y+1955801D01*
X+5810437Y+1955801D01*
X+5804087Y+1962151D01*
X+5759451Y+1962151D01*
X+5759451Y+2082801D01*
X+5657849Y+2082801D01*
X+5657849Y+2032001D01*
X+5137151Y+2032001D01*
X+5137151Y+2311399D01*
X+5143501Y+2311399D01*
X+5143501Y+2317751D01*
X+4951731Y+2317751D01*
X+4951731Y+2508249D01*
X+5208269Y+2508249D01*
X+5208269Y+2476499D01*
X+5233301Y+2476499D01*
X+5257801Y+2451999D01*
X+5257801Y+2919731D01*
X+5238751Y+2919731D01*
X+5238751Y+3173731D01*
X+5156199Y+3173731D01*
X+5156199Y+2798249D01*
X+5208269Y+2798249D01*
X+5208269Y+2607751D01*
X+4951731Y+2607751D01*
X+4951731Y+2798249D01*
X+5003801Y+2798249D01*
X+5003801Y+3427731D01*
X+4938751Y+3427731D01*
X+4938751Y+3684269D01*
X+5003801Y+3684269D01*
X+5003801Y+3797301D01*
X+4940301Y+3797301D01*
X+4940301Y+4076699D01*
X+5194301Y+4076699D01*
X+5194301Y+4178301D01*
X+5022135Y+4178301D01*
X+4554756Y+4645680D01*
X+4554756Y+5975351D01*
X+4324351Y+5975351D01*
X+4324351Y+6216649D01*
X+4368801Y+6216649D01*
X+4368801Y+6423898D01*
X+4413437Y+6468534D01*
X+4413439Y+6468534D01*
X+4448763Y+6503858D01*
X+4448763Y+6503860D01*
X+4493399Y+6548496D01*
X+5753994Y+6548496D01*
X+5803430Y+6597932D01*
X+5803430Y+6602731D01*
X+5792751Y+6602731D01*
X+5792751Y+6728687D01*
X+5687597Y+6833841D01*
X+5687597Y+7050314D01*
X+5738432Y+7101149D01*
X+5777511Y+7101149D01*
X+5777511Y+7296149D01*
X+5830851Y+7296149D01*
X+5830851Y+7618731D01*
X+5810249Y+7618731D01*
X+5810249Y+7364731D01*
X+5619751Y+7364731D01*
X+5619751Y+7618731D01*
X+5492751Y+7618731D01*
X+5492751Y+7875269D01*
X+5502751Y+7875269D01*
X+5502751Y+8129269D01*
X+5693249Y+8129269D01*
X+5693249Y+7872731D01*
X+5683249Y+7872731D01*
X+5683249Y+7621269D01*
X+5792751Y+7621269D01*
X+5792751Y+8129269D01*
X+5811801Y+8129269D01*
X+5811801Y+8169751D01*
X+5762269Y+8169751D01*
X+5762269Y+8159751D01*
X+5505731Y+8159751D01*
X+5505731Y+8350249D01*
X+5759731Y+8350249D01*
X+5759731Y+8360249D01*
X+6016269Y+8360249D01*
X+6016269Y+8169751D01*
G37*
G36*
X+7080249Y+4189731D02*
X+6889751Y+4189731D01*
X+6889751Y+4446269D01*
X+7080249Y+4446269D01*
X+7080249Y+4189731D01*
G37*
G36*
X+3467099Y+8301596D02*
X+3467099Y+7954404D01*
X+3314699Y+7802004D01*
X+3314699Y+6864351D01*
X+3251915Y+6864351D01*
X+3232865Y+6845301D01*
X+2974094Y+6845301D01*
X+2941786Y+6812993D01*
X+2817796Y+6864351D01*
X+2743199Y+6864351D01*
X+2743199Y+6802496D01*
X+3541751Y+6802496D01*
X+3541751Y+6859269D01*
X+3577313Y+6859269D01*
X+3577313Y+6984210D01*
X+3574672Y+6986851D01*
X+3396511Y+6986851D01*
X+3396511Y+7296149D01*
X+3617489Y+7296149D01*
X+3617489Y+7101149D01*
X+3622014Y+7101149D01*
X+3691609Y+7031554D01*
X+3691609Y+6859269D01*
X+3732249Y+6859269D01*
X+3732249Y+6602731D01*
X+3541751Y+6602731D01*
X+3541751Y+6650098D01*
X+2679338Y+6650098D01*
X+2590801Y+6738635D01*
X+2590801Y+6864351D01*
X+2546351Y+6864351D01*
X+2546351Y+7105649D01*
X+2769308Y+7105649D01*
X+2769308Y+7813997D01*
X+2628901Y+7954404D01*
X+2628901Y+8301596D01*
X+2874404Y+8547099D01*
X+3221596Y+8547099D01*
X+3467099Y+8301596D01*
G37*
G36*
X+4065269Y+8159751D02*
X+4013199Y+8159751D01*
X+4013199Y+8129269D01*
X+4032249Y+8129269D01*
X+4032249Y+7621269D01*
X+4159249Y+7621269D01*
X+4159249Y+7594599D01*
X+4205113Y+7594599D01*
X+4214431Y+7603917D01*
X+4309119Y+7603917D01*
X+4318437Y+7594599D01*
X+4346224Y+7594599D01*
X+4358482Y+7606857D01*
X+4453170Y+7606857D01*
X+4520125Y+7539902D01*
X+4520125Y+7445214D01*
X+4453170Y+7378259D01*
X+4358482Y+7378259D01*
X+4345340Y+7391401D01*
X+4325201Y+7391401D01*
X+4309119Y+7375319D01*
X+4214431Y+7375319D01*
X+4198349Y+7391401D01*
X+4159249Y+7391401D01*
X+4159249Y+7364731D01*
X+4143928Y+7364731D01*
X+4143928Y+7134934D01*
X+4155132Y+7123730D01*
X+4125906Y+7053172D01*
X+4047489Y+7053172D01*
X+4047489Y+6986851D01*
X+3888406Y+6986851D01*
X+3879526Y+6977971D01*
X+3879526Y+6859269D01*
X+4032249Y+6859269D01*
X+4032249Y+6602731D01*
X+3991248Y+6602731D01*
X+3991248Y+6494042D01*
X+3946612Y+6449406D01*
X+3946610Y+6449406D01*
X+3919125Y+6421921D01*
X+3919125Y+6421919D01*
X+3874489Y+6377283D01*
X+2783227Y+6377283D01*
X+2743199Y+6337255D01*
X+2743199Y+6216649D01*
X+2844085Y+6216649D01*
X+2863135Y+6235699D01*
X+3220282Y+6235699D01*
X+3239332Y+6216649D01*
X+3314699Y+6216649D01*
X+3314699Y+5727699D01*
X+3427957Y+5727699D01*
X+3427957Y+5846023D01*
X+3480027Y+5846023D01*
X+3480027Y+5848684D01*
X+3586868Y+5955525D01*
X+3427957Y+5955525D01*
X+3427957Y+6146023D01*
X+3684495Y+6146023D01*
X+3684495Y+6136023D01*
X+4192495Y+6136023D01*
X+4192495Y+5945525D01*
X+4140651Y+5945525D01*
X+4140651Y+5909350D01*
X+4077324Y+5846023D01*
X+4192495Y+5846023D01*
X+4192495Y+5716269D01*
X+4205249Y+5716269D01*
X+4205249Y+5459731D01*
X+4140425Y+5459731D01*
X+4140425Y+5346699D01*
X+4203699Y+5346699D01*
X+4203699Y+5175061D01*
X+4394199Y+4984561D01*
X+4394199Y+3143439D01*
X+3938269Y+2687509D01*
X+3938269Y+2616199D01*
X+4349561Y+2616199D01*
X+4492461Y+2473299D01*
X+4610099Y+2473299D01*
X+4610099Y+2044701D01*
X+4279901Y+2044701D01*
X+4279901Y+2095501D01*
X+4146549Y+2095501D01*
X+4146549Y+1962151D01*
X+4101913Y+1962151D01*
X+4095563Y+1955801D01*
X+4032437Y+1955801D01*
X+4026087Y+1962151D01*
X+3981451Y+1962151D01*
X+3981451Y+2095501D01*
X+3879849Y+2095501D01*
X+3879849Y+2032001D01*
X+3359151Y+2032001D01*
X+3359151Y+2311399D01*
X+3365501Y+2311399D01*
X+3365501Y+2317751D01*
X+3173731Y+2317751D01*
X+3173731Y+2508249D01*
X+3430269Y+2508249D01*
X+3430269Y+2476499D01*
X+3455301Y+2476499D01*
X+3474056Y+2457744D01*
X+3474056Y+2919731D01*
X+3455006Y+2919731D01*
X+3455006Y+3173731D01*
X+3378199Y+3173731D01*
X+3378199Y+2798249D01*
X+3430269Y+2798249D01*
X+3430269Y+2607751D01*
X+3173731Y+2607751D01*
X+3173731Y+2798249D01*
X+3225801Y+2798249D01*
X+3225801Y+3427731D01*
X+3155006Y+3427731D01*
X+3155006Y+3684269D01*
X+3225801Y+3684269D01*
X+3225801Y+3797301D01*
X+3162301Y+3797301D01*
X+3162301Y+4076699D01*
X+3416301Y+4076699D01*
X+3416301Y+4178301D01*
X+3244135Y+4178301D01*
X+2781301Y+4641135D01*
X+2781301Y+5975351D01*
X+2546351Y+5975351D01*
X+2546351Y+6216649D01*
X+2590801Y+6216649D01*
X+2590801Y+6400379D01*
X+2635437Y+6445015D01*
X+2635439Y+6445015D01*
X+2675467Y+6485043D01*
X+2675467Y+6485045D01*
X+2720103Y+6529681D01*
X+3811365Y+6529681D01*
X+3838850Y+6557166D01*
X+3838850Y+6704428D01*
X+3765228Y+6778050D01*
X+3765228Y+7025313D01*
X+3826511Y+7086596D01*
X+3826511Y+7296149D01*
X+3879851Y+7296149D01*
X+3879851Y+7618731D01*
X+3859249Y+7618731D01*
X+3859249Y+7364731D01*
X+3668751Y+7364731D01*
X+3668751Y+7618731D01*
X+3551751Y+7618731D01*
X+3551751Y+7872731D01*
X+3541751Y+7872731D01*
X+3541751Y+8129269D01*
X+3732249Y+8129269D01*
X+3732249Y+7875269D01*
X+3742249Y+7875269D01*
X+3742249Y+7621269D01*
X+3841751Y+7621269D01*
X+3841751Y+8129269D01*
X+3860801Y+8129269D01*
X+3860801Y+8159751D01*
X+3554731Y+8159751D01*
X+3554731Y+8350249D01*
X+4065269Y+8350249D01*
X+4065269Y+8159751D01*
G37*
G36*
X+5245099Y+8301596D02*
X+5245099Y+7954404D01*
X+5092699Y+7802004D01*
X+5092699Y+6864351D01*
X+5029915Y+6864351D01*
X+5010865Y+6845301D01*
X+4641135Y+6845301D01*
X+4622085Y+6864351D01*
X+4535433Y+6864351D01*
X+4592585Y+6807199D01*
X+5492751Y+6807199D01*
X+5492751Y+6859269D01*
X+5535950Y+6859269D01*
X+5535950Y+6983798D01*
X+5532897Y+6986851D01*
X+5347511Y+6986851D01*
X+5347511Y+7296149D01*
X+5568489Y+7296149D01*
X+5568489Y+7101149D01*
X+5580239Y+7101149D01*
X+5650248Y+7031140D01*
X+5650248Y+6859269D01*
X+5683249Y+6859269D01*
X+5683249Y+6602731D01*
X+5492751Y+6602731D01*
X+5492751Y+6654801D01*
X+4529461Y+6654801D01*
X+4484825Y+6699437D01*
X+4484825Y+6699439D01*
X+4413439Y+6770825D01*
X+4413437Y+6770825D01*
X+4368801Y+6815461D01*
X+4368801Y+6864351D01*
X+4324351Y+6864351D01*
X+4324351Y+7105649D01*
X+4559301Y+7105649D01*
X+4559301Y+7802004D01*
X+4406901Y+7954404D01*
X+4406901Y+8301596D01*
X+4652404Y+8547099D01*
X+4999596Y+8547099D01*
X+5245099Y+8301596D01*
G37*
G36*
X+1689099Y+8301596D02*
X+1689099Y+7954404D01*
X+1536699Y+7802004D01*
X+1536699Y+6864351D01*
X+1473915Y+6864351D01*
X+1454865Y+6845301D01*
X+1085135Y+6845301D01*
X+1066085Y+6864351D01*
X+965199Y+6864351D01*
X+965199Y+6820574D01*
X+978574Y+6807199D01*
X+1763751Y+6807199D01*
X+1763751Y+6859269D01*
X+1798720Y+6859269D01*
X+1798720Y+6968985D01*
X+1777854Y+6989851D01*
X+1635511Y+6989851D01*
X+1635511Y+7299149D01*
X+1856489Y+7299149D01*
X+1856489Y+7072857D01*
X+1858674Y+7070671D01*
X+1879541Y+7049805D01*
X+1913018Y+7016328D01*
X+1913018Y+6859269D01*
X+1954249Y+6859269D01*
X+1954249Y+6602731D01*
X+1763751Y+6602731D01*
X+1763751Y+6654801D01*
X+915450Y+6654801D01*
X+870814Y+6699437D01*
X+870814Y+6699439D01*
X+812801Y+6757452D01*
X+812801Y+6864351D01*
X+768351Y+6864351D01*
X+768351Y+7105649D01*
X+1003301Y+7105649D01*
X+1003301Y+7802004D01*
X+850901Y+7954404D01*
X+850901Y+8301596D01*
X+1096404Y+8547099D01*
X+1443596Y+8547099D01*
X+1689099Y+8301596D01*
G37*
G36*
X+2304269Y+8162751D02*
X+2252199Y+8162751D01*
X+2252199Y+8132269D01*
X+2271249Y+8132269D01*
X+2271249Y+7624269D01*
X+2398249Y+7624269D01*
X+2398249Y+7597599D01*
X+2482956Y+7597599D01*
X+2492656Y+7607299D01*
X+2587344Y+7607299D01*
X+2654299Y+7540344D01*
X+2654299Y+7445656D01*
X+2587344Y+7378701D01*
X+2492656Y+7378701D01*
X+2476956Y+7394401D01*
X+2405767Y+7394401D01*
X+2405767Y+7092879D01*
X+2367739Y+7054851D01*
X+2286489Y+7054851D01*
X+2286489Y+6989851D01*
X+2101812Y+6989851D01*
X+2091477Y+6979516D01*
X+2091477Y+6859269D01*
X+2254249Y+6859269D01*
X+2254249Y+6602731D01*
X+2235199Y+6602731D01*
X+2235199Y+6468955D01*
X+2190563Y+6424319D01*
X+2190561Y+6424319D01*
X+2172484Y+6406242D01*
X+2172484Y+6406240D01*
X+2127848Y+6361604D01*
X+1055401Y+6361604D01*
X+965199Y+6271402D01*
X+965199Y+6216649D01*
X+1066085Y+6216649D01*
X+1085135Y+6235699D01*
X+1484512Y+6235699D01*
X+1503562Y+6216649D01*
X+1536699Y+6216649D01*
X+1536699Y+6183512D01*
X+1567060Y+6153151D01*
X+1567060Y+5727699D01*
X+1649731Y+5727699D01*
X+1649731Y+5846249D01*
X+1701801Y+5846249D01*
X+1701801Y+5853160D01*
X+1804392Y+5955751D01*
X+1649731Y+5955751D01*
X+1649731Y+6146249D01*
X+1906269Y+6146249D01*
X+1906269Y+6136249D01*
X+2414269Y+6136249D01*
X+2414269Y+5945751D01*
X+2353871Y+5945751D01*
X+2353871Y+5892243D01*
X+2307877Y+5846249D01*
X+2414269Y+5846249D01*
X+2414269Y+5716269D01*
X+2427249Y+5716269D01*
X+2427249Y+5459731D01*
X+2362199Y+5459731D01*
X+2362199Y+5346699D01*
X+2425699Y+5346699D01*
X+2425699Y+5175061D01*
X+2569858Y+5030902D01*
X+2569858Y+2971082D01*
X+2225577Y+2626801D01*
X+2160269Y+2626801D01*
X+2160269Y+2622956D01*
X+2510804Y+2622956D01*
X+2660461Y+2473299D01*
X+2832099Y+2473299D01*
X+2832099Y+2044701D01*
X+2501901Y+2044701D01*
X+2501901Y+2082801D01*
X+2368549Y+2082801D01*
X+2368549Y+1962151D01*
X+2323913Y+1962151D01*
X+2317563Y+1955801D01*
X+2254437Y+1955801D01*
X+2248087Y+1962151D01*
X+2203451Y+1962151D01*
X+2203451Y+2082801D01*
X+2101849Y+2082801D01*
X+2101849Y+2032001D01*
X+1581151Y+2032001D01*
X+1581151Y+2311399D01*
X+1587501Y+2311399D01*
X+1587501Y+2317751D01*
X+1395731Y+2317751D01*
X+1395731Y+2508249D01*
X+1652269Y+2508249D01*
X+1652269Y+2476499D01*
X+1677301Y+2476499D01*
X+1701801Y+2451999D01*
X+1701801Y+2919731D01*
X+1682751Y+2919731D01*
X+1682751Y+3173731D01*
X+1600199Y+3173731D01*
X+1600199Y+2798249D01*
X+1652269Y+2798249D01*
X+1652269Y+2607751D01*
X+1395731Y+2607751D01*
X+1395731Y+2798249D01*
X+1447801Y+2798249D01*
X+1447801Y+3427731D01*
X+1382751Y+3427731D01*
X+1382751Y+3684269D01*
X+1447801Y+3684269D01*
X+1447801Y+3797301D01*
X+1384301Y+3797301D01*
X+1384301Y+4076699D01*
X+1638301Y+4076699D01*
X+1638301Y+4178301D01*
X+1466135Y+4178301D01*
X+1003301Y+4641135D01*
X+1003301Y+5975351D01*
X+768351Y+5975351D01*
X+768351Y+6216649D01*
X+812801Y+6216649D01*
X+812801Y+6334526D01*
X+857437Y+6379162D01*
X+857439Y+6379162D01*
X+947641Y+6469364D01*
X+947641Y+6469366D01*
X+992277Y+6514002D01*
X+2064724Y+6514002D01*
X+2082801Y+6532079D01*
X+2082801Y+6602731D01*
X+2063751Y+6602731D01*
X+2063751Y+6673851D01*
X+2039024Y+6673851D01*
X+1977179Y+6735696D01*
X+1977179Y+7026858D01*
X+2054470Y+7104149D01*
X+2065511Y+7104149D01*
X+2065511Y+7299149D01*
X+2122661Y+7299149D01*
X+2122661Y+7621731D01*
X+2098249Y+7621731D01*
X+2098249Y+7367731D01*
X+1907751Y+7367731D01*
X+1907751Y+7621731D01*
X+1780751Y+7621731D01*
X+1780751Y+7878269D01*
X+1790751Y+7878269D01*
X+1790751Y+8132269D01*
X+1981249Y+8132269D01*
X+1981249Y+7875731D01*
X+1971249Y+7875731D01*
X+1971249Y+7624269D01*
X+2080751Y+7624269D01*
X+2080751Y+8132269D01*
X+2099801Y+8132269D01*
X+2099801Y+8162751D01*
X+1793731Y+8162751D01*
X+1793731Y+8353249D01*
X+2304269Y+8353249D01*
X+2304269Y+8162751D01*
G37*
G36*
X+5981511Y+9275249D02*
X+6097269Y+9275249D01*
X+6097269Y+9084751D01*
X+5840731Y+9084751D01*
X+5840731Y+9194801D01*
X+3613199Y+9194801D01*
X+3613199Y+9182099D01*
X+4451299Y+9182099D01*
X+4451299Y+8867831D01*
X+5428929Y+8867831D01*
X+5646511Y+8650249D01*
X+6016269Y+8650249D01*
X+6016269Y+8459751D01*
X+5505731Y+8459751D01*
X+5505731Y+8575509D01*
X+5365807Y+8715433D01*
X+4138012Y+8715433D01*
X+4060801Y+8792644D01*
X+4060801Y+8851901D01*
X+4013199Y+8851901D01*
X+4013199Y+8640249D01*
X+4065269Y+8640249D01*
X+4065269Y+8449751D01*
X+3808731Y+8449751D01*
X+3808731Y+8459751D01*
X+3554731Y+8459751D01*
X+3554731Y+8650249D01*
X+3811269Y+8650249D01*
X+3811269Y+8640249D01*
X+3860801Y+8640249D01*
X+3860801Y+8851901D01*
X+3813198Y+8851901D01*
X+3813198Y+8829226D01*
X+3708116Y+8724144D01*
X+2459904Y+8724144D01*
X+2304269Y+8568509D01*
X+2304269Y+8452751D01*
X+2047731Y+8452751D01*
X+2047731Y+8462751D01*
X+1793731Y+8462751D01*
X+1793731Y+8653249D01*
X+2050269Y+8653249D01*
X+2050269Y+8643249D01*
X+2163489Y+8643249D01*
X+2396782Y+8876542D01*
X+3222701Y+8876542D01*
X+3222701Y+9182099D01*
X+3460801Y+9182099D01*
X+3460801Y+9283561D01*
X+3524439Y+9347199D01*
X+5909561Y+9347199D01*
X+5981511Y+9275249D01*
G37*
G36*
X+7391434Y+2108199D02*
X+7524563Y+2108199D01*
X+7530913Y+2101849D01*
X+7575549Y+2101849D01*
X+7575549Y+1962151D01*
X+7530913Y+1962151D01*
X+7524563Y+1955801D01*
X+7442199Y+1955801D01*
X+7442199Y+1655249D01*
X+7494269Y+1655249D01*
X+7494269Y+1473199D01*
X+7651563Y+1473199D01*
X+7657913Y+1466849D01*
X+7702549Y+1466849D01*
X+7702549Y+1327151D01*
X+7657913Y+1327151D01*
X+7651563Y+1320801D01*
X+7494269Y+1320801D01*
X+7494269Y+1174751D01*
X+7442199Y+1174751D01*
X+7442199Y+903249D01*
X+7621269Y+903249D01*
X+7621269Y+893249D01*
X+7872731Y+893249D01*
X+7872731Y+1020249D01*
X+7924801Y+1020249D01*
X+7924801Y+1054101D01*
X+7918451Y+1054101D01*
X+7918451Y+1231899D01*
X+8083549Y+1231899D01*
X+8083549Y+1219199D01*
X+8413563Y+1219199D01*
X+8419913Y+1212849D01*
X+8464549Y+1212849D01*
X+8464549Y+1073151D01*
X+8419913Y+1073151D01*
X+8413563Y+1066801D01*
X+8083549Y+1066801D01*
X+8083549Y+1054101D01*
X+8077199Y+1054101D01*
X+8077199Y+1020249D01*
X+8126731Y+1020249D01*
X+8126731Y+1030249D01*
X+8383269Y+1030249D01*
X+8383269Y+1020249D01*
X+8637269Y+1020249D01*
X+8637269Y+829751D01*
X+8380731Y+829751D01*
X+8380731Y+839751D01*
X+8331199Y+839751D01*
X+8331199Y+831684D01*
X+8229764Y+730249D01*
X+8637269Y+730249D01*
X+8637269Y+539751D01*
X+7875269Y+539751D01*
X+7875269Y+412751D01*
X+7364731Y+412751D01*
X+7364731Y+558801D01*
X+6953439Y+558801D01*
X+6873801Y+638439D01*
X+6873801Y+723901D01*
X+6035701Y+723901D01*
X+6035701Y+1054099D01*
X+6448401Y+1054099D01*
X+6448401Y+1161077D01*
X+6434305Y+1175173D01*
X+6434305Y+1269861D01*
X+6501260Y+1336816D01*
X+6587491Y+1336816D01*
X+6587491Y+1485899D01*
X+6752589Y+1485899D01*
X+6752589Y+1308101D01*
X+6624663Y+1308101D01*
X+6662903Y+1269861D01*
X+6662903Y+1175173D01*
X+6651599Y+1163869D01*
X+6651599Y+1054099D01*
X+6673801Y+1054099D01*
X+6673801Y+1203909D01*
X+6777993Y+1308101D01*
X+6775451Y+1308101D01*
X+6775451Y+1485899D01*
X+6940549Y+1485899D01*
X+6940549Y+1308101D01*
X+6934199Y+1308101D01*
X+6934199Y+1248787D01*
X+6826199Y+1140787D01*
X+6826199Y+1054099D01*
X+7264299Y+1054099D01*
X+7264299Y+884199D01*
X+7289801Y+884199D01*
X+7289801Y+1174751D01*
X+7237731Y+1174751D01*
X+7237731Y+1320801D01*
X+7207439Y+1320801D01*
X+7074089Y+1454151D01*
X+7029451Y+1454151D01*
X+7029451Y+1498789D01*
X+7016939Y+1511301D01*
X+6846569Y+1511301D01*
X+6846569Y+1498601D01*
X+6681471Y+1498601D01*
X+6681471Y+1676399D01*
X+6846569Y+1676399D01*
X+6846569Y+1663699D01*
X+7080061Y+1663699D01*
X+7149911Y+1593849D01*
X+7194549Y+1593849D01*
X+7194549Y+1549211D01*
X+7237731Y+1506029D01*
X+7237731Y+1655249D01*
X+7289801Y+1655249D01*
X+7289801Y+1949451D01*
X+7213636Y+1949451D01*
X+7213636Y+2114549D01*
X+7391434Y+2114549D01*
X+7391434Y+2108199D01*
G37*
G36*
X+7200934Y+1855471D02*
X+7188222Y+1855471D01*
X+7188215Y+1828799D01*
X+7194549Y+1828799D01*
X+7194549Y+1689101D01*
X+7149913Y+1689101D01*
X+7143563Y+1682751D01*
X+7080437Y+1682751D01*
X+7074087Y+1689101D01*
X+7029451Y+1689101D01*
X+7029451Y+1828799D01*
X+7035810Y+1828799D01*
X+7035817Y+1855471D01*
X+7023136Y+1855471D01*
X+7023136Y+2020569D01*
X+7200934Y+2020569D01*
X+7200934Y+1855471D01*
G37*
G36*
X+9042401Y+614706D02*
X+9042401Y+909294D01*
X+9250706Y+1117599D01*
X+9545294Y+1117599D01*
X+9753599Y+909294D01*
X+9753599Y+614706D01*
X+9545294Y+406401D01*
X+9250706Y+406401D01*
X+9042401Y+614706D01*
G37*
G36*
X+660401Y+614706D02*
X+660401Y+909294D01*
X+868706Y+1117599D01*
X+1163294Y+1117599D01*
X+1371599Y+909294D01*
X+1371599Y+614706D01*
X+1163294Y+406401D01*
X+868706Y+406401D01*
X+660401Y+614706D01*
G37*
G36*
X+6097269Y+8902699D02*
X+6300471Y+8902699D01*
X+6300471Y+8915399D01*
X+6465569Y+8915399D01*
X+6465569Y+8737601D01*
X+6300471Y+8737601D01*
X+6300471Y+8750301D01*
X+6000939Y+8750301D01*
X+5956489Y+8794751D01*
X+5840731Y+8794751D01*
X+5840731Y+8985249D01*
X+6097269Y+8985249D01*
X+6097269Y+8902699D01*
G37*
G36*
X+6488431Y+8915399D02*
X+6653529Y+8915399D01*
X+6653529Y+8737601D01*
X+6488431Y+8737601D01*
X+6488431Y+8915399D01*
G37*
G36*
X+6967221Y+3904557D02*
X+6967221Y+4133155D01*
X+7246619Y+4133155D01*
X+7246619Y+3904557D01*
X+6967221Y+3904557D01*
G37*
G36*
X+660401Y+8869706D02*
X+660401Y+9164294D01*
X+868706Y+9372599D01*
X+1163294Y+9372599D01*
X+1371599Y+9164294D01*
X+1371599Y+8869706D01*
X+1163294Y+8661401D01*
X+868706Y+8661401D01*
X+660401Y+8869706D01*
G37*
G36*
X+9042401Y+8869706D02*
X+9042401Y+9164294D01*
X+9250706Y+9372599D01*
X+9545294Y+9372599D01*
X+9753599Y+9164294D01*
X+9753599Y+8869706D01*
X+9545294Y+8661401D01*
X+9250706Y+8661401D01*
X+9042401Y+8869706D01*
G37*
G36*
X+9359900Y+4429218D02*
X+9359900Y+4460782D01*
X+9382218Y+4483100D01*
X+9413782Y+4483100D01*
X+9436100Y+4460782D01*
X+9436100Y+4429218D01*
X+9413782Y+4406900D01*
X+9382218Y+4406900D01*
X+9359900Y+4429218D01*
G37*
G36*
X+6946900Y+2270218D02*
X+6946900Y+2301782D01*
X+6969218Y+2324100D01*
X+7000782Y+2324100D01*
X+7023100Y+2301782D01*
X+7023100Y+2270218D01*
X+7000782Y+2247900D01*
X+6969218Y+2247900D01*
X+6946900Y+2270218D01*
G37*
G36*
X+6842857Y+1879881D02*
X+6842857Y+1911445D01*
X+6865175Y+1933763D01*
X+6896739Y+1933763D01*
X+6919057Y+1911445D01*
X+6919057Y+1879881D01*
X+6896739Y+1857563D01*
X+6865175Y+1857563D01*
X+6842857Y+1879881D01*
G37*
G36*
X+7271228Y+3683886D02*
X+7271228Y+3715450D01*
X+7293546Y+3737768D01*
X+7325110Y+3737768D01*
X+7347428Y+3715450D01*
X+7347428Y+3683886D01*
X+7325110Y+3661568D01*
X+7293546Y+3661568D01*
X+7271228Y+3683886D01*
G37*
G36*
X+7266601Y+3310467D02*
X+7266601Y+3342031D01*
X+7288919Y+3364349D01*
X+7320483Y+3364349D01*
X+7342801Y+3342031D01*
X+7342801Y+3310467D01*
X+7320483Y+3288149D01*
X+7288919Y+3288149D01*
X+7266601Y+3310467D01*
G37*
G36*
X+7079547Y+3348480D02*
X+7079547Y+3380044D01*
X+7101865Y+3402362D01*
X+7133429Y+3402362D01*
X+7155747Y+3380044D01*
X+7155747Y+3348480D01*
X+7133429Y+3326162D01*
X+7101865Y+3326162D01*
X+7079547Y+3348480D01*
G37*
%LPD*%
G36*
X+5137151Y+1511301D02*
X+5270501Y+1511301D01*
X+5270501Y+1492249D01*
X+5078731Y+1492249D01*
X+5078731Y+1301751D01*
X+5335269Y+1301751D01*
X+5335269Y+1333501D01*
X+5360301Y+1333501D01*
X+5397499Y+1370699D01*
X+5397499Y+1511301D01*
X+5397501Y+1511301D01*
X+5397501Y+1370699D01*
X+5434699Y+1333501D01*
X+5459731Y+1333501D01*
X+5459731Y+1301751D01*
X+5713731Y+1301751D01*
X+5713731Y+1202249D01*
X+5459731Y+1202249D01*
X+5459731Y+1011751D01*
X+5475991Y+1011751D01*
X+5429439Y+965199D01*
X+4286439Y+965199D01*
X+4121339Y+800099D01*
X+4069760Y+800099D01*
X+4300462Y+1030801D01*
X+5078731Y+1030801D01*
X+5078731Y+1011751D01*
X+5335269Y+1011751D01*
X+5335269Y+1202249D01*
X+5078731Y+1202249D01*
X+5078731Y+1183199D01*
X+4237340Y+1183199D01*
X+3879801Y+825660D01*
X+3879801Y+800099D01*
X+3832199Y+800099D01*
X+3832199Y+878643D01*
X+3886199Y+932643D01*
X+3886199Y+1011751D01*
X+3938269Y+1011751D01*
X+3938269Y+1166458D01*
X+4192269Y+1166458D01*
X+4192269Y+1356956D01*
X+3938269Y+1356956D01*
X+3938269Y+1466458D01*
X+4192269Y+1466458D01*
X+4192269Y+1656956D01*
X+4058551Y+1656956D01*
X+4001008Y+1714499D01*
X+3879849Y+1714499D01*
X+3879849Y+1768340D01*
X+3981451Y+1768340D01*
X+3981451Y+1727201D01*
X+4146549Y+1727201D01*
X+4146549Y+1768340D01*
X+5137151Y+1768340D01*
X+5137151Y+1511301D01*
G37*
G36*
X+3359151Y+1511301D02*
X+3492501Y+1511301D01*
X+3492501Y+1492249D01*
X+3300731Y+1492249D01*
X+3300731Y+1301751D01*
X+3557269Y+1301751D01*
X+3557269Y+1333501D01*
X+3582301Y+1333501D01*
X+3619499Y+1370699D01*
X+3619499Y+1511301D01*
X+3619501Y+1511301D01*
X+3619501Y+1370699D01*
X+3656699Y+1333501D01*
X+3681731Y+1333501D01*
X+3681731Y+1301751D01*
X+3935731Y+1301751D01*
X+3935731Y+1202249D01*
X+3681731Y+1202249D01*
X+3681731Y+1011751D01*
X+3733801Y+1011751D01*
X+3733801Y+995765D01*
X+3679801Y+941765D01*
X+3679801Y+800099D01*
X+3632199Y+800099D01*
X+3632199Y+890751D01*
X+3511199Y+1011751D01*
X+3557269Y+1011751D01*
X+3557269Y+1202249D01*
X+3300731Y+1202249D01*
X+3300731Y+1011751D01*
X+3352801Y+1011751D01*
X+3352801Y+954629D01*
X+3479801Y+827629D01*
X+3479801Y+800099D01*
X+3432199Y+800099D01*
X+3432199Y+866561D01*
X+3115561Y+1183199D01*
X+2414269Y+1183199D01*
X+2414269Y+1365249D01*
X+2160269Y+1365249D01*
X+2160269Y+1474751D01*
X+2414269Y+1474751D01*
X+2414269Y+1665249D01*
X+2280551Y+1665249D01*
X+2231302Y+1714498D01*
X+2108199Y+1714498D01*
X+2108199Y+1787390D01*
X+2203451Y+1787390D01*
X+2203451Y+1727201D01*
X+2368549Y+1727201D01*
X+2368549Y+1787390D01*
X+3359151Y+1787390D01*
X+3359151Y+1511301D01*
G37*
G36*
X+6019801Y+4921439D02*
X+6019801Y+3283274D01*
X+5780667Y+3044140D01*
X+5780667Y+2810697D01*
X+5749170Y+2779199D01*
X+5716269Y+2779199D01*
X+5716269Y+2798249D01*
X+5459731Y+2798249D01*
X+5459731Y+2616199D01*
X+5410199Y+2616199D01*
X+5410199Y+2919731D01*
X+5429249Y+2919731D01*
X+5429249Y+3173731D01*
X+5528751Y+3173731D01*
X+5528751Y+2919731D01*
X+5719249Y+2919731D01*
X+5719249Y+3035489D01*
X+5964199Y+3280439D01*
X+5964199Y+3427731D01*
X+5983249Y+3427731D01*
X+5983249Y+3684269D01*
X+5792751Y+3684269D01*
X+5792751Y+3427731D01*
X+5811801Y+3427731D01*
X+5811801Y+3343561D01*
X+5644509Y+3176269D01*
X+5556249Y+3176269D01*
X+5556249Y+3427731D01*
X+5683249Y+3427731D01*
X+5683249Y+3684269D01*
X+5492751Y+3684269D01*
X+5492751Y+3430269D01*
X+5429249Y+3430269D01*
X+5429249Y+3684269D01*
X+5410199Y+3684269D01*
X+5410199Y+3797301D01*
X+5727699Y+3797301D01*
X+5727699Y+4076699D01*
X+5473699Y+4076699D01*
X+5473699Y+4615737D01*
X+5530135Y+4559301D01*
X+5899865Y+4559301D01*
X+5981699Y+4641135D01*
X+5981699Y+4883865D01*
X+5899865Y+4965699D01*
X+5727699Y+4965699D01*
X+5727699Y+5067301D01*
X+5873939Y+5067301D01*
X+6019801Y+4921439D01*
G37*
%LPC*%
G36*
X+5549900Y+4429218D02*
X+5549900Y+4460782D01*
X+5572218Y+4483100D01*
X+5603782Y+4483100D01*
X+5626100Y+4460782D01*
X+5626100Y+4429218D01*
X+5603782Y+4406900D01*
X+5572218Y+4406900D01*
X+5549900Y+4429218D01*
G37*
G36*
X+5803900Y+4429218D02*
X+5803900Y+4460782D01*
X+5826218Y+4483100D01*
X+5857782Y+4483100D01*
X+5880100Y+4460782D01*
X+5880100Y+4429218D01*
X+5857782Y+4406900D01*
X+5826218Y+4406900D01*
X+5803900Y+4429218D01*
G37*
%LPD*%
G36*
X+6187301Y+5088939D02*
X+6187301Y+4742734D01*
X+6231937Y+4698098D01*
X+6231939Y+4698098D01*
X+6354801Y+4575236D01*
X+6354801Y+4446269D01*
X+6335751Y+4446269D01*
X+6335751Y+4189731D01*
X+6354801Y+4189731D01*
X+6354801Y+4016315D01*
X+6337301Y+4016315D01*
X+6337301Y+3559117D01*
X+6400801Y+3559117D01*
X+6400801Y+2927349D01*
X+5966651Y+2927349D01*
X+5966651Y+2660651D01*
X+6400801Y+2660651D01*
X+6400801Y+2453574D01*
X+6375401Y+2428174D01*
X+6375401Y+2422355D01*
X+6302255Y+2422355D01*
X+6302255Y+2445002D01*
X+6257619Y+2489638D01*
X+6257617Y+2489638D01*
X+6175694Y+2571561D01*
X+6175694Y+2571563D01*
X+6131058Y+2616199D01*
X+5716269Y+2616199D01*
X+5716269Y+2626801D01*
X+5812295Y+2626801D01*
X+5933065Y+2747571D01*
X+5933065Y+2981018D01*
X+6120773Y+3168726D01*
X+6127563Y+3168726D01*
X+6172199Y+3213362D01*
X+6172199Y+4984561D01*
X+5981699Y+5175061D01*
X+5981699Y+5294541D01*
X+6187301Y+5088939D01*
G37*
%LPC*%
G36*
X+6216036Y+3347004D02*
X+6216036Y+3378568D01*
X+6238354Y+3400886D01*
X+6269918Y+3400886D01*
X+6292236Y+3378568D01*
X+6292236Y+3347004D01*
X+6269918Y+3324686D01*
X+6238354Y+3324686D01*
X+6216036Y+3347004D01*
G37*
%LPD*%
G36*
X+4241801Y+4921439D02*
X+4241801Y+3206561D01*
X+3833489Y+2798249D01*
X+3681731Y+2798249D01*
X+3681731Y+2616199D01*
X+3626454Y+2616199D01*
X+3626454Y+2919731D01*
X+3645504Y+2919731D01*
X+3645504Y+3173731D01*
X+3745006Y+3173731D01*
X+3745006Y+2919731D01*
X+3935504Y+2919731D01*
X+3935504Y+3035489D01*
X+4186199Y+3286184D01*
X+4186199Y+3427731D01*
X+4205249Y+3427731D01*
X+4205249Y+3684269D01*
X+4014751Y+3684269D01*
X+4014751Y+3427731D01*
X+4033801Y+3427731D01*
X+4033801Y+3349306D01*
X+3860764Y+3176269D01*
X+3778249Y+3176269D01*
X+3778249Y+3427731D01*
X+3905249Y+3427731D01*
X+3905249Y+3684269D01*
X+3714751Y+3684269D01*
X+3714751Y+3430269D01*
X+3645504Y+3430269D01*
X+3645504Y+3684269D01*
X+3626454Y+3684269D01*
X+3626454Y+3797301D01*
X+3949699Y+3797301D01*
X+3949699Y+4076699D01*
X+3695699Y+4076699D01*
X+3695699Y+4615737D01*
X+3752135Y+4559301D01*
X+3867865Y+4559301D01*
X+3871638Y+4563074D01*
X+3993592Y+4563074D01*
X+3997365Y+4559301D01*
X+4113095Y+4559301D01*
X+4194929Y+4641135D01*
X+4194929Y+4648681D01*
X+4203699Y+4657451D01*
X+4203699Y+4883865D01*
X+4121865Y+4965699D01*
X+3949699Y+4965699D01*
X+3949699Y+5067301D01*
X+4095939Y+5067301D01*
X+4241801Y+4921439D01*
G37*
%LPC*%
G36*
X+3849598Y+4459284D02*
X+3849598Y+4427720D01*
X+3827280Y+4405402D01*
X+3795716Y+4405402D01*
X+3773398Y+4427720D01*
X+3773398Y+4459284D01*
X+3795716Y+4481602D01*
X+3827280Y+4481602D01*
X+3849598Y+4459284D01*
G37*
G36*
X+4013518Y+4427720D02*
X+4013518Y+4459284D01*
X+4035836Y+4481602D01*
X+4067400Y+4481602D01*
X+4089718Y+4459284D01*
X+4089718Y+4427720D01*
X+4067400Y+4405402D01*
X+4035836Y+4405402D01*
X+4013518Y+4427720D01*
G37*
%LPD*%
G36*
X+2417460Y+4967780D02*
X+2417460Y+3684269D01*
X+2236751Y+3684269D01*
X+2236751Y+3427731D01*
X+2255801Y+3427731D01*
X+2255801Y+3343561D01*
X+2088509Y+3176269D01*
X+2000249Y+3176269D01*
X+2000249Y+3427731D01*
X+2127249Y+3427731D01*
X+2127249Y+3684269D01*
X+1936751Y+3684269D01*
X+1936751Y+3430269D01*
X+1873249Y+3430269D01*
X+1873249Y+3684269D01*
X+1854199Y+3684269D01*
X+1854199Y+3797301D01*
X+2171699Y+3797301D01*
X+2171699Y+4076699D01*
X+1917699Y+4076699D01*
X+1917699Y+4615737D01*
X+1974135Y+4559301D01*
X+2216865Y+4559301D01*
X+2298699Y+4641135D01*
X+2298699Y+4883865D01*
X+2216865Y+4965699D01*
X+2171699Y+4965699D01*
X+2171699Y+5067301D01*
X+2317939Y+5067301D01*
X+2417460Y+4967780D01*
G37*
%LPC*%
G36*
X+1993900Y+4429218D02*
X+1993900Y+4460782D01*
X+2016218Y+4483100D01*
X+2047782Y+4483100D01*
X+2070100Y+4460782D01*
X+2070100Y+4429218D01*
X+2047782Y+4406900D01*
X+2016218Y+4406900D01*
X+1993900Y+4429218D01*
G37*
%LPD*%
G36*
X+2417460Y+3034204D02*
X+2162455Y+2779199D01*
X+2160269Y+2779199D01*
X+2160269Y+2798249D01*
X+1903731Y+2798249D01*
X+1903731Y+2622956D01*
X+1854199Y+2622956D01*
X+1854199Y+2919731D01*
X+1873249Y+2919731D01*
X+1873249Y+3173731D01*
X+1972751Y+3173731D01*
X+1972751Y+2919731D01*
X+2163249Y+2919731D01*
X+2163249Y+3035489D01*
X+2408199Y+3280439D01*
X+2408199Y+3427731D01*
X+2417460Y+3427731D01*
X+2417460Y+3034204D01*
G37*
D21*
X+1778000Y+1651000D02*
X+1778000Y+1397000D01*
X+1651000Y+1397000D01*
X+1905000Y+1651000D02*
X+1905000Y+1397000D01*
X+2032000Y+1397000D01*
X+1905000Y+2171700D02*
X+1905000Y+2413000D01*
X+2032000Y+2413000D01*
X+1651000Y+2171700D02*
X+1651000Y+2413000D01*
X+1524000Y+2413000D01*
X+3429000Y+2171700D02*
X+3429000Y+2413000D01*
X+3302000Y+2413000D01*
X+3683000Y+2171700D02*
X+3683000Y+2413000D01*
X+3810000Y+2413000D01*
X+3556000Y+1651000D02*
X+3556000Y+1397000D01*
X+3429000Y+1397000D01*
X+3683000Y+1651000D02*
X+3683000Y+1397000D01*
X+3810000Y+1397000D01*
X+5334000Y+1651000D02*
X+5334000Y+1397000D01*
X+5207000Y+1397000D01*
X+5461000Y+1651000D02*
X+5461000Y+1397000D01*
X+5588000Y+1397000D01*
X+5207000Y+2171700D02*
X+5207000Y+2413000D01*
X+5080000Y+2413000D01*
X+5461000Y+2171700D02*
X+5461000Y+2413000D01*
X+5588000Y+2413000D01*
X+5207000Y+1651000D02*
X+5120360Y+1651000D01*
X+4993360Y+1524000D01*
X+4993360Y+1283656D01*
X+4979704Y+1270000D01*
D11*
X+5842000Y+1270000D01*
D21*
X+3810000Y+1651000D02*
X+3810000Y+1844539D01*
X+4064000Y+1561707D02*
X+3974707Y+1651000D01*
X+3810000Y+1651000D01*
X+2286000Y+1797050D02*
X+2286000Y+1863589D01*
X+2032000Y+1651000D02*
X+2205000Y+1651000D01*
X+2286000Y+1570000D01*
X+4064000Y+1797050D02*
X+4064000Y+1844539D01*
D11*
X+4064000Y+1261707D02*
X+3930726Y+1261707D01*
X+3922433Y+1270000D01*
X+3175000Y+1270000D02*
X+3922433Y+1270000D01*
X+5584359Y+1844535D02*
X+5766747Y+1844535D01*
D21*
X+5584359Y+1844535D02*
X+5584359Y+1654641D01*
X+5588000Y+1651000D01*
D11*
X+5761000Y+1651000D01*
X+5842000Y+1570000D01*
X+4064000Y+2032000D02*
X+4064000Y+2165429D01*
X+4057729Y+2171700D01*
X+3810000Y+2171700D02*
X+4057729Y+2171700D01*
X+5842000Y+2159000D02*
X+5600700Y+2159000D01*
X+5588000Y+2171700D01*
X+2286000Y+2032000D02*
X+2286000Y+2159000D01*
X+2044700Y+2159000D01*
X+2032000Y+2171700D01*
X+1778000Y+2171700D02*
X+1778000Y+2498063D01*
D10*
X+1778000Y+4318000D02*
X+1778000Y+4485195D01*
D11*
X+2032000Y+6041000D02*
X+1788000Y+6041000D01*
X+1778000Y+6051000D01*
X+1778000Y+5751000D02*
X+1778000Y+5821599D01*
X+1854969Y+5898568D01*
X+2252436Y+5898568D01*
X+2277672Y+5923804D01*
X+2277672Y+6032672D01*
X+2286000Y+6041000D01*
D10*
X+5334000Y+5080000D02*
X+5334000Y+5207000D01*
D11*
X+3683000Y+1844539D02*
X+3810000Y+1844539D01*
X+4064000Y+1844539D01*
X+3556226Y+5750774D02*
X+3556226Y+5817123D01*
X+3618505Y+5879402D01*
X+3641118Y+5902015D01*
X+3869067Y+5902015D01*
X+4025556Y+5902015D01*
X+4064452Y+5940911D01*
X+4064452Y+6040548D01*
X+4064226Y+6040774D01*
X+3810226Y+6040774D02*
X+3566226Y+6040774D01*
X+3556226Y+6050774D01*
D10*
X+3556000Y+4318000D02*
X+3556000Y+4445000D01*
D11*
X+3556000Y+2525734D02*
X+3550255Y+2519989D01*
X+3570266Y+2540000D02*
X+3556000Y+2525734D01*
X+3550255Y+2519989D02*
X+3550255Y+2177445D01*
X+3556000Y+2171700D01*
D10*
X+5334000Y+4318000D02*
X+5334000Y+4432320D01*
D11*
X+5334000Y+6051000D02*
X+5578000Y+6051000D01*
X+5588000Y+6041000D01*
X+5080000Y+1844539D02*
X+5203355Y+1844539D01*
X+5584355Y+1844539D01*
X+5584359Y+1844535D01*
X+5090907Y+3429000D02*
X+5080000Y+3439907D01*
X+4064000Y+1844539D02*
X+5080000Y+1844539D01*
X+2286000Y+1270000D02*
X+3175000Y+1270000D01*
X+2286000Y+1863589D02*
X+3810000Y+1863589D01*
X+3810000Y+1844539D01*
D10*
X+5334000Y+4432320D02*
X+5334000Y+4810095D01*
D11*
X+2667000Y+2159000D02*
X+2286000Y+2159000D01*
X+1778000Y+2498063D02*
X+1826694Y+2546757D01*
X+2479243Y+2546757D01*
X+2667000Y+2359000D01*
X+4057729Y+2171700D02*
X+4432300Y+2171700D01*
X+4445000Y+2159000D01*
X+4445000Y+2359000D02*
X+4445000Y+2413000D01*
X+4318000Y+2540000D01*
X+3570266Y+2540000D01*
D22*
X+1855869Y+6734131D02*
X+1859000Y+6731000D01*
X+1855869Y+6734131D01*
D23*
X+2176000Y+7177000D02*
X+2176000Y+7112000D01*
D11*
X+3556000Y+635000D02*
X+3556000Y+859190D01*
X+3517894Y+897296D01*
X+3429000Y+986190D01*
X+3429000Y+1107000D01*
X+3756000Y+635000D02*
X+3756000Y+910204D01*
X+3799984Y+954188D01*
X+3810000Y+964204D01*
X+3810000Y+1107000D01*
X+3956000Y+635000D02*
X+3956000Y+794099D01*
X+4185820Y+1023919D01*
X+4268901Y+1107000D01*
X+5207000Y+1107000D01*
X+4156000Y+635000D02*
X+4156000Y+727000D01*
X+4318000Y+889000D01*
X+5461000Y+889000D01*
X+5588000Y+1016000D01*
X+5588000Y+1107000D01*
X+2032000Y+1107000D02*
X+3084000Y+1107000D01*
X+3302000Y+889000D01*
X+3356000Y+835000D01*
X+3356000Y+635000D01*
X+1651000Y+1107000D02*
X+1651000Y+1016000D01*
X+1778000Y+889000D01*
X+3060861Y+889000D01*
X+3156000Y+793861D01*
X+3156000Y+635000D01*
D10*
X+5334000Y+4810095D02*
X+5334000Y+4953000D01*
X+5334000Y+5080000D01*
X+1778000Y+4826000D02*
X+1778000Y+4953000D01*
X+1778000Y+5080000D01*
D11*
X+1778000Y+2879063D02*
X+1778000Y+2498063D01*
X+5080000Y+2703000D02*
X+5080000Y+3418093D01*
X+5090907Y+3429000D01*
X+5334000Y+2518008D02*
X+5334000Y+2899008D01*
X+5171000Y+3302000D02*
X+5090907Y+3302000D01*
X+5090907Y+3429000D01*
X+5334000Y+5751000D02*
X+5334000Y+5557456D01*
X+5588000Y+5588000D02*
X+5588000Y+5751000D01*
X+5588000Y+5588000D02*
X+5588000Y+5207000D01*
X+5888000Y+5588000D02*
X+5842000Y+5588000D01*
X+5842000Y+5751000D02*
X+5842000Y+5588000D01*
X+5842000Y+5207000D01*
X+5334000Y+5751000D02*
X+5334000Y+5807566D01*
X+5420501Y+5894067D01*
X+5799691Y+5894067D01*
X+5841633Y+5936009D01*
X+5841633Y+6040633D01*
X+5842000Y+6041000D01*
X+5034000Y+3556000D02*
X+5080000Y+3556000D01*
X+5080000Y+3439907D01*
X+5334000Y+3048000D02*
X+5334000Y+3556000D01*
X+5334000Y+2899008D02*
X+5334000Y+3048000D01*
X+5624000Y+3048000D02*
X+5888000Y+3312000D01*
X+5888000Y+3556000D01*
X+5588000Y+3556000D02*
X+5588000Y+3429000D01*
X+5461000Y+3302000D01*
D10*
X+5334000Y+3937000D02*
X+5334000Y+4318000D01*
D11*
X+5080000Y+3937000D02*
X+5080000Y+3556000D01*
X+5334000Y+3556000D02*
X+5334000Y+3937000D01*
D10*
X+3556000Y+3937000D02*
X+3556000Y+4318000D01*
D11*
X+3302000Y+3683000D02*
X+3302000Y+3937000D01*
X+3550255Y+3556000D02*
X+3550255Y+3931255D01*
X+3556000Y+3937000D01*
X+3302000Y+3305831D02*
X+3302000Y+3420288D01*
X+3302000Y+2703000D02*
X+3302000Y+3305831D01*
D10*
X+1778000Y+5080000D02*
X+1778000Y+5207000D01*
D11*
X+1524000Y+3314821D02*
X+1524000Y+3441821D01*
X+1524000Y+2703000D02*
X+1524000Y+3314821D01*
D10*
X+1778000Y+3937000D02*
X+1778000Y+4318000D01*
D11*
X+1524000Y+3647000D02*
X+1524000Y+3937000D01*
X+1778000Y+3937000D02*
X+1778000Y+3556000D01*
X+1778000Y+3048000D01*
X+1778000Y+2879063D01*
X+2032000Y+3937000D02*
X+2032000Y+3556000D01*
X+1478000Y+3556000D02*
X+1524000Y+3556000D01*
X+1524000Y+3441821D02*
X+1524000Y+3556000D01*
X+1524000Y+3647000D01*
X+1615000Y+3302000D02*
X+1536821Y+3302000D01*
X+1524000Y+3314821D01*
X+1905000Y+3302000D02*
X+2032000Y+3429000D01*
X+2032000Y+3556000D01*
X+2068000Y+3048000D02*
X+2332000Y+3312000D01*
X+2332000Y+3556000D01*
X+2032000Y+2703000D02*
X+2194016Y+2703000D01*
X+2493659Y+3002643D01*
X+2493659Y+4999341D01*
X+2286000Y+5207000D01*
X+2332000Y+5588000D02*
X+2286000Y+5588000D01*
X+2286000Y+5207000D02*
X+2286000Y+5588000D01*
X+2286000Y+5751000D01*
X+2032000Y+5588000D02*
X+2032000Y+5751000D01*
X+2032000Y+5588000D02*
X+2032000Y+5207000D01*
X+3556000Y+4812239D02*
X+3556000Y+4953000D01*
X+3810000Y+5588000D02*
X+3810000Y+5750548D01*
X+3810226Y+5750774D01*
X+3810000Y+5588000D02*
X+3810000Y+5207000D01*
X+4064226Y+5496774D02*
X+4064226Y+5207226D01*
X+4064000Y+5207000D01*
X+4110000Y+5588000D02*
X+4064226Y+5588000D01*
X+4064226Y+5750774D02*
X+4064226Y+5588000D01*
X+4064226Y+5496774D01*
X+4110000Y+3556000D02*
X+4110000Y+3317745D01*
X+3840255Y+3048000D01*
X+3393000Y+3302000D02*
X+3305831Y+3302000D01*
X+3302000Y+3305831D01*
X+3250255Y+3556000D02*
X+3302000Y+3556000D01*
X+3302000Y+3420288D02*
X+3302000Y+3556000D01*
X+3302000Y+3683000D01*
X+3810000Y+2703000D02*
X+3846000Y+2703000D01*
X+4318000Y+3175000D01*
X+4318000Y+4953000D01*
X+4064000Y+5207000D01*
X+3550255Y+3048000D02*
X+3550255Y+2807981D01*
X+3550255Y+2519989D02*
X+3550255Y+2807981D01*
X+3550255Y+3048000D02*
X+3550255Y+3556000D01*
X+6096000Y+4318000D02*
X+6096000Y+4572000D01*
X+6096000Y+4953000D01*
X+5842000Y+5207000D01*
X+3813773Y+4702773D02*
X+3810000Y+4699000D01*
X+5842000Y+2111112D02*
X+5842000Y+2159000D01*
X+5842000Y+2162056D01*
X+5842000Y+2032000D02*
X+5842000Y+2111112D01*
X+5334000Y+2518008D02*
X+5334000Y+2464008D01*
X+5842000Y+2159000D02*
X+6172056Y+2159000D01*
X+6223000Y+2108056D01*
X+5334000Y+2171700D02*
X+5334000Y+2464008D01*
X+5361000Y+2491008D01*
X+5409992Y+2540000D01*
X+6099495Y+2540000D01*
X+6226056Y+2413439D01*
X+6226056Y+2308056D01*
X+6229112Y+2305000D01*
X+6223000Y+2308056D01*
X+5334000Y+2464008D02*
X+5361000Y+2491008D01*
X+5409992Y+2540000D01*
D22*
X+5715000Y+7493000D02*
X+5655167Y+7493000D01*
D23*
X+3699405Y+7428405D02*
X+3764000Y+7493000D01*
D22*
X+6063196Y+7444804D02*
X+6015000Y+7493000D01*
D24*
X+9398000Y+4699000D02*
X+9398000Y+4548755D01*
X+8878000Y+3556000D02*
X+8878001Y+3556000D01*
X+9107522Y+2134521D02*
X+8878001Y+1905000D01*
D11*
X+8878000Y+3683000D02*
X+8878001Y+3556000D01*
D24*
X+8878000Y+3556000D02*
X+8878001Y+3682999D01*
D10*
X+4826000Y+6985000D02*
X+4826000Y+8128000D01*
X+4953000Y+8001000D01*
X+4953000Y+7112000D01*
X+4953000Y+6985000D01*
X+4699000Y+6985000D02*
X+4826000Y+6985000D01*
X+4953000Y+6985000D01*
X+4699000Y+6985000D02*
X+4699000Y+8001000D01*
X+4826000Y+8128000D01*
X+5080000Y+5207000D02*
X+5080000Y+4953000D01*
X+5080000Y+4318000D01*
X+5207000Y+5207000D02*
X+5207000Y+4953000D01*
X+5207000Y+4331840D01*
X+5193160Y+4318000D01*
X+5080000Y+4953000D02*
X+5207000Y+4953000D01*
X+5334000Y+4953000D01*
X+5334000Y+5207000D02*
X+5207000Y+5207000D01*
X+5080000Y+5207000D01*
X+5080000Y+4318000D02*
X+5193160Y+4318000D01*
X+5334000Y+4318000D01*
X+4953000Y+5207000D02*
X+4953000Y+5080000D01*
X+4953000Y+4445000D01*
X+4826000Y+5207000D02*
X+4953000Y+5080000D01*
X+5080000Y+4953000D01*
X+5080000Y+5207000D02*
X+4953000Y+5207000D01*
X+4826000Y+5207000D01*
X+4953000Y+4445000D02*
X+5080000Y+4318000D01*
X+4826000Y+6096000D02*
X+4826000Y+5588000D01*
X+5334000Y+5557456D02*
X+5334000Y+5461000D01*
X+4826000Y+5461000D02*
X+5334000Y+5461000D01*
X+4826000Y+5588000D02*
X+4826000Y+5461000D01*
X+4826000Y+5334000D02*
X+5313066Y+5334000D01*
X+5334000Y+5354934D01*
X+5334000Y+5461000D02*
X+5334000Y+5354934D01*
X+5334000Y+5207000D01*
X+4826000Y+5461000D02*
X+4826000Y+5334000D01*
X+4826000Y+5207000D01*
X+4826000Y+4572000D01*
X+4953000Y+4445000D01*
X+4694455Y+6098059D02*
X+4950941Y+6098059D01*
X+4953000Y+6096000D01*
X+4953000Y+5672229D01*
X+5067773Y+5557456D01*
X+5334000Y+5557456D02*
X+5067773Y+5557456D01*
X+4856544Y+5557456D01*
X+4826000Y+5588000D01*
X+4826000Y+6096000D02*
X+4696514Y+6096000D01*
X+4694455Y+6098059D01*
X+4694455Y+4703545D01*
X+4826000Y+4572000D01*
X+3048000Y+6985000D02*
X+3175000Y+6985000D01*
X+3175000Y+8001000D01*
X+3048000Y+8128000D01*
X+3048000Y+6985000D02*
X+2916229Y+6985000D01*
X+2909007Y+6977778D01*
X+2909007Y+7989007D01*
X+3048000Y+8128000D01*
X+3048000Y+6985000D01*
X+3048000Y+6096000D02*
X+2921000Y+6096000D01*
X+3047767Y+5637107D02*
X+3047767Y+6095767D01*
X+3048000Y+6096000D01*
D11*
X+3556226Y+5750774D02*
X+3556226Y+5588000D01*
D10*
X+3047767Y+5461000D02*
X+3556000Y+5461000D01*
X+3556000Y+5587774D01*
X+3556226Y+5588000D01*
X+3047767Y+5461000D02*
X+3047767Y+5637107D01*
X+3556000Y+5207000D02*
X+3060479Y+5207000D01*
X+3047767Y+5219712D01*
X+3047767Y+5334000D02*
X+3556000Y+5334000D01*
X+3556000Y+5207000D02*
X+3556000Y+5334000D01*
X+3556000Y+5461000D01*
X+3047767Y+5219712D02*
X+3047767Y+5334000D01*
X+3047767Y+5461000D01*
X+3556226Y+5334000D02*
X+3556226Y+5207226D01*
D11*
X+3556226Y+5588000D02*
X+3556226Y+5334000D01*
X+3556226Y+5207226D02*
X+3556000Y+5207000D01*
D10*
X+3556226Y+5080000D02*
X+3556000Y+5080000D01*
X+3187479Y+5080000D01*
X+2932619Y+5080000D01*
X+2921000Y+5091619D01*
D11*
X+3556000Y+4953000D02*
X+3556000Y+5080000D01*
X+3556000Y+5207000D01*
D10*
X+2921000Y+6096000D02*
X+2921000Y+5091619D01*
X+3187479Y+5080000D02*
X+3060479Y+5207000D01*
X+3556226Y+5207226D02*
X+3556226Y+5080000D01*
X+3556226Y+4812465D01*
X+3556000Y+4812239D01*
X+2921000Y+4953000D02*
X+3314479Y+4953000D01*
X+3453026Y+4953000D01*
X+2921000Y+5091619D02*
X+2921000Y+4953000D01*
X+3556000Y+4953000D02*
X+3453026Y+4953000D01*
X+3314479Y+4953000D02*
X+3187479Y+5080000D01*
X+2921000Y+4826000D02*
X+3542239Y+4826000D01*
X+3556000Y+4812239D01*
X+2921000Y+4953000D02*
X+2921000Y+4826000D01*
X+3556000Y+4699000D02*
X+3048000Y+4699000D01*
X+2984500Y+4635500D01*
X+3556000Y+4699000D02*
X+3556000Y+4812239D01*
X+2921000Y+4826000D02*
X+2921000Y+4699000D01*
X+2984500Y+4635500D01*
X+3048000Y+4572000D02*
X+3544135Y+4572000D01*
X+3556000Y+4560135D01*
X+3556000Y+4445000D02*
X+3556000Y+4560135D01*
X+3556000Y+4699000D01*
X+2984500Y+4635500D02*
X+3048000Y+4572000D01*
X+3556000Y+4445000D02*
X+3175000Y+4445000D01*
X+3048000Y+4572000D02*
X+3175000Y+4445000D01*
X+3302000Y+4318000D01*
X+3556000Y+4318000D01*
X+3556226Y+5588000D02*
X+3175000Y+5588000D01*
X+3096874Y+5588000D01*
X+3047767Y+5637107D01*
X+3048000Y+6096000D02*
X+3162417Y+6096000D01*
X+3162523Y+6095894D01*
X+3162523Y+5981477D01*
X+3162523Y+5801711D01*
X+3175000Y+5789234D01*
X+3048000Y+6096000D02*
X+3162523Y+5981477D01*
X+3175000Y+5969000D01*
X+3175000Y+5789234D01*
X+3175000Y+5588000D01*
X+5588000Y+4699000D02*
X+5715000Y+4699000D01*
X+5722491Y+4445000D02*
X+5724407Y+4446916D01*
X+3810000Y+4445000D02*
X+3810000Y+3937000D01*
X+3810000Y+4445000D02*
X+3811498Y+4443502D01*
X+3937000Y+4443502D02*
X+3937000Y+3937000D01*
X+3811498Y+4443502D02*
X+3937000Y+4443502D01*
X+4051618Y+4443502D01*
X+3810000Y+4706546D02*
X+3813773Y+4702773D01*
X+4051457Y+4702773D01*
X+3810000Y+4826000D02*
X+4064000Y+4826000D01*
X+4064000Y+4715316D01*
X+4051457Y+4702773D01*
X+3810000Y+5207000D02*
X+3810000Y+4826000D01*
X+3810000Y+4706546D01*
X+5588000Y+5207000D02*
X+5588000Y+4826000D01*
X+5588000Y+4699000D01*
X+2032000Y+3937000D02*
X+2032000Y+4445000D01*
X+2032000Y+4699000D02*
X+2159000Y+4699000D01*
X+2159000Y+4826000D01*
X+2032000Y+4826000D01*
X+2032000Y+4699000D02*
X+2032000Y+4826000D01*
X+2032000Y+5207000D01*
X+2032000Y+4445000D02*
X+2159000Y+4445000D01*
X+2159000Y+3937000D01*
X+2032000Y+3937000D01*
X+1270000Y+5334000D02*
X+1270000Y+5207000D01*
D11*
X+1778000Y+5751000D02*
X+1778000Y+5588000D01*
X+1778000Y+5475967D01*
D10*
X+1270000Y+5334000D02*
X+1270000Y+5637032D01*
X+1270000Y+6096000D01*
X+1426647Y+6096000D01*
X+1427361Y+6095286D01*
X+1427361Y+5588000D01*
X+1427361Y+5049639D02*
X+1460500Y+5016500D01*
X+1427361Y+5049639D02*
X+1270000Y+5207000D01*
X+1778000Y+5588000D02*
X+1427361Y+5588000D01*
X+1319032Y+5588000D01*
X+1270000Y+5637032D01*
X+1270000Y+6096000D02*
X+1143000Y+6096000D01*
X+1270000Y+4826000D02*
X+1778000Y+4826000D01*
X+1270000Y+4826000D02*
X+1270000Y+4699000D01*
X+1270000Y+4953000D02*
X+1524000Y+4953000D01*
X+1699747Y+4953000D01*
X+1778000Y+4953000D02*
X+1699747Y+4953000D01*
X+1524000Y+4953000D02*
X+1460500Y+5016500D01*
X+1270000Y+5207000D02*
X+1270000Y+4953000D01*
X+1270000Y+4826000D01*
X+1427361Y+5049639D02*
X+1747639Y+5049639D01*
X+1778000Y+5080000D01*
X+1427361Y+5334000D02*
X+1778000Y+5334000D01*
X+1778000Y+5207000D02*
X+1778000Y+5334000D01*
D11*
X+1778000Y+5475967D02*
X+1778000Y+5334000D01*
X+1778000Y+5207000D01*
D10*
X+1427361Y+5207000D02*
X+1778000Y+5207000D01*
X+1427361Y+5334000D02*
X+1427361Y+5207000D01*
X+1427361Y+5049639D01*
X+1427361Y+5461000D02*
X+1763033Y+5461000D01*
X+1778000Y+5475967D01*
X+1778000Y+5334000D02*
X+1778000Y+5475967D01*
X+1778000Y+5588000D01*
X+1427361Y+5588000D02*
X+1427361Y+5461000D01*
X+1427361Y+5334000D01*
X+1143000Y+4953000D02*
X+1143000Y+4826000D01*
X+1143000Y+4699000D01*
X+1270000Y+4572000D01*
X+1143000Y+6096000D02*
X+1143000Y+4953000D01*
X+1143000Y+4826000D02*
X+1270000Y+4699000D01*
X+1270000Y+4572000D01*
X+1524000Y+4318000D02*
X+1778000Y+4318000D01*
X+1270000Y+4699000D02*
X+1778000Y+4699000D01*
X+1778000Y+4826000D01*
X+1270000Y+4572000D02*
X+1778000Y+4572000D01*
X+1778000Y+4485195D02*
X+1778000Y+4572000D01*
X+1778000Y+4699000D01*
X+1397000Y+4445000D02*
X+1737805Y+4445000D01*
X+1778000Y+4485195D01*
X+1270000Y+4572000D02*
X+1397000Y+4445000D01*
X+1524000Y+4318000D01*
X+5588000Y+4826000D02*
X+5842000Y+4826000D01*
X+5842000Y+4699000D01*
X+5715000Y+4699000D01*
X+5724407Y+4446916D02*
X+5840084Y+4446916D01*
X+5842000Y+4445000D01*
D11*
X+5584355Y+1844539D02*
X+5766743Y+1844539D01*
X+5766747Y+1844535D01*
X+9017000Y+7493000D02*
X+9017000Y+7239000D01*
D10*
X+1270000Y+6985000D02*
X+1270000Y+8128000D01*
X+1270000Y+6985000D02*
X+1397000Y+6985000D01*
X+1397000Y+8001000D01*
X+1270000Y+8128000D01*
X+1270000Y+6985000D02*
X+1143000Y+6985000D01*
X+1143000Y+8001000D01*
X+1270000Y+8128000D01*
D22*
X+2348618Y+7206157D02*
X+2348618Y+7450382D01*
D23*
X+2303000Y+7496000D01*
D22*
X+2176000Y+7177000D02*
X+2189461Y+7177000D01*
X+2254461Y+7177000D01*
X+1746000Y+7112000D02*
X+1922680Y+7112000D01*
X+1929362Y+7118682D01*
X+1929362Y+7422362D02*
X+2003000Y+7496000D01*
X+1746000Y+7047000D02*
X+1801525Y+7047000D01*
X+1855869Y+6992656D01*
X+1855869Y+6734131D01*
X+1855869Y+6731000D01*
D23*
X+1859000Y+6731000D02*
X+1855869Y+6731000D01*
D22*
X+2176000Y+7047000D02*
X+2078141Y+7047000D01*
X+2034328Y+7003187D01*
X+2034328Y+6759367D01*
X+2061156Y+6732539D01*
X+2062695Y+6731000D01*
X+2159000Y+6731000D01*
X+1929362Y+7422362D02*
X+1929362Y+7569638D01*
D23*
X+1876000Y+7750000D02*
X+1876000Y+7623000D01*
D11*
X+2176000Y+7750000D02*
X+2176000Y+8004000D01*
X+2176000Y+8258000D01*
X+2003000Y+7496000D02*
X+1929362Y+7569638D01*
X+1886000Y+7613000D01*
X+1886000Y+7760000D01*
X+1886000Y+8004000D01*
D23*
X+1886000Y+7760000D02*
X+1876000Y+7750000D01*
D22*
X+1886000Y+7613000D02*
X+1876000Y+7623000D01*
D11*
X+889000Y+6985000D02*
X+889000Y+6789013D01*
X+910951Y+6767062D01*
X+947013Y+6731000D01*
X+1855869Y+6731000D01*
D23*
X+910951Y+6767062D02*
X+910951Y+6963049D01*
X+889000Y+6985000D01*
D11*
X+2159000Y+6731000D02*
X+2159000Y+6500518D01*
X+2140186Y+6481704D01*
X+2096285Y+6437803D01*
X+1023840Y+6437803D01*
X+889000Y+6302963D01*
X+889000Y+6096000D01*
X+2667000Y+6096000D02*
X+2667000Y+6368816D01*
X+2751666Y+6453482D01*
X+3842926Y+6453482D01*
X+3915049Y+6525605D01*
X+3915049Y+6709049D01*
X+3937000Y+6731000D01*
X+2667000Y+6985000D02*
X+2667000Y+6770198D01*
X+2710901Y+6726297D01*
X+3632297Y+6726297D01*
X+3637000Y+6731000D01*
X+3764000Y+7493000D02*
X+3699405Y+7557595D01*
X+3647000Y+7610000D01*
X+3647000Y+7747000D01*
X+3637000Y+7757000D01*
X+3637000Y+8001000D01*
X+3683000Y+8047000D01*
X+3683000Y+8255000D01*
X+3683000Y+8396473D01*
X+3574453Y+8396473D01*
X+3573609Y+8397317D01*
X+3469887Y+8501039D01*
X+3318463Y+8652463D01*
X+2683463Y+8652463D01*
X+2425905Y+8394905D01*
X+2314465Y+8394905D01*
X+2234904Y+8394905D01*
X+2008120Y+8394905D01*
X+1922000Y+8308785D01*
X+1922000Y+8258000D01*
X+1886000Y+8222000D01*
D23*
X+3699405Y+7428405D02*
X+3699405Y+7557595D01*
X+3699405Y+7694595D01*
X+3647000Y+7747000D01*
X+3683000Y+8396473D02*
X+3682156Y+8397317D01*
D11*
X+1886000Y+8004000D02*
X+1886000Y+8222000D01*
X+1922000Y+8558000D02*
X+2166000Y+8558000D01*
X+2176000Y+8548000D01*
X+3573609Y+8397317D02*
X+3682156Y+8397317D01*
X+4123579Y+8397317D01*
X+4359971Y+8633709D01*
X+4386504Y+8660242D01*
X+5064320Y+8660242D02*
X+5151158Y+8573404D01*
D23*
X+4123579Y+8397317D02*
X+4133228Y+8387668D01*
X+4359971Y+8614411D01*
X+4359971Y+8633709D01*
X+4359971Y+8660242D01*
X+4386504Y+8660242D01*
X+4465025Y+8660242D01*
D11*
X+5310771Y+8413791D02*
X+5211281Y+8513281D01*
X+5151158Y+8573404D02*
X+5211281Y+8513281D01*
D23*
X+5151158Y+8573404D02*
X+5211281Y+8513281D01*
D11*
X+4064000Y+7493000D02*
X+4071572Y+7500572D01*
X+4098711Y+7500572D01*
D23*
X+4121150Y+7505467D02*
X+4098711Y+7500572D01*
X+4064000Y+7493000D01*
X+4121150Y+7505467D02*
X+4076467Y+7505467D01*
X+4071572Y+7500572D01*
D11*
X+4445000Y+6096000D02*
X+4445000Y+6392335D01*
X+4524962Y+6472297D01*
X+5785555Y+6472297D01*
X+5879629Y+6566371D01*
X+5879629Y+6722629D01*
X+5888000Y+6731000D01*
X+5588000Y+6731000D02*
X+4561024Y+6731000D01*
X+4445000Y+6847024D01*
X+4445000Y+6985000D01*
X+5888000Y+8265000D02*
X+5888000Y+8001000D01*
X+5888000Y+7747000D01*
X+5715000Y+7493000D02*
X+5655167Y+7552833D01*
X+5588000Y+7620000D01*
X+5588000Y+7666000D01*
X+5588000Y+7747000D01*
D22*
X+5655167Y+7493000D02*
X+5655167Y+7552833D01*
D11*
X+5588000Y+7747000D02*
X+5588000Y+7991000D01*
X+5598000Y+8001000D01*
X+5588000Y+8413791D02*
X+5310771Y+8413791D01*
X+5598000Y+8197850D02*
X+5598000Y+8403791D01*
X+5588000Y+8413791D01*
X+5598000Y+8001000D02*
X+5598000Y+8197850D01*
X+5634000Y+8255000D01*
X+3937000Y+8255000D02*
X+3937000Y+8001000D01*
X+3937000Y+7747000D01*
D21*
X+3429000Y+1651000D02*
X+3302000Y+1651000D01*
X+3175000Y+1524000D01*
X+3175000Y+1270000D01*
X+3683000Y+3302000D02*
X+3810000Y+3429000D01*
X+3810000Y+3556000D01*
X+3810000Y+3937000D01*
D11*
X+5588000Y+3556000D02*
X+5588000Y+3810000D01*
X+5588000Y+3937000D01*
D10*
X+5724407Y+4446916D02*
X+5724407Y+4445000D01*
D11*
X+5840084Y+4445000D02*
X+5840084Y+4189084D01*
X+5724407Y+4073407D01*
X+5588000Y+3937000D01*
D10*
X+5724407Y+4445000D02*
X+5724407Y+4073407D01*
X+5724407Y+3946407D01*
X+5715000Y+3937000D01*
D11*
X+5588000Y+3937000D02*
X+5588000Y+4318000D01*
X+5588000Y+4445000D01*
X+8939388Y+3556000D02*
X+8939388Y+3621612D01*
X+8886679Y+3674321D01*
X+8878001Y+3682999D01*
X+8878000Y+3683000D01*
D24*
X+8886679Y+3674321D02*
X+8878000Y+3683000D01*
X+8878001Y+3556000D02*
X+8939388Y+3556000D01*
D11*
X+9398000Y+3289456D02*
X+9144000Y+3543456D01*
X+6240711Y+889000D02*
X+6350000Y+889000D01*
X+6223000Y+889000D02*
X+6223000Y+906711D01*
X+6223000Y+1071276D01*
X+6223000Y+906711D02*
X+6240711Y+889000D01*
X+6150000Y+889000D02*
X+6223000Y+889000D01*
X+6240711Y+889000D01*
X+7747000Y+798000D02*
X+7503000Y+798000D01*
X+7493000Y+808000D01*
X+7747000Y+508000D02*
X+7493000Y+508000D01*
X+6350000Y+508000D01*
X+6223000Y+635000D01*
X+6223000Y+889000D01*
X+7493000Y+808000D02*
X+7366000Y+808000D01*
X+7231000Y+808000D01*
X+7150000Y+889000D01*
X+5842000Y+1270000D02*
X+6096000Y+1270000D01*
X+4261775Y+7489618D02*
X+4067382Y+7489618D01*
D22*
X+5458000Y+7044000D02*
X+5556568Y+7044000D01*
X+5593099Y+7007469D01*
X+5593099Y+6736099D01*
X+5588000Y+6731000D01*
X+5888000Y+7044000D02*
X+5762103Y+7044000D01*
X+5744746Y+7026643D01*
X+5744746Y+6857512D01*
X+5830850Y+6771408D01*
X+5888000Y+6731000D01*
X+4067382Y+7489618D02*
X+4064000Y+7493000D01*
X+4086779Y+7214738D02*
X+4086779Y+7470221D01*
X+4067382Y+7489618D01*
X+3507000Y+7044000D02*
X+3598343Y+7044000D01*
X+3634461Y+7007882D01*
X+3634461Y+6733539D01*
X+3637000Y+6731000D01*
X+3937000Y+7044000D02*
X+3864735Y+7044000D01*
X+3822377Y+7001642D01*
X+3822377Y+6801721D01*
X+3879850Y+6744248D01*
X+3937000Y+6731000D01*
X+5888000Y+7239000D02*
X+5888000Y+7747000D01*
X+3937000Y+7239000D02*
X+3937000Y+7747000D01*
D23*
X+2176000Y+7242000D02*
X+2176000Y+7750000D01*
D11*
X+7366000Y+1270000D02*
X+7366000Y+808000D01*
X+7302535Y+2032000D02*
X+7366000Y+2031965D01*
X+7366000Y+1560000D01*
X+7112035Y+1938020D02*
X+7112000Y+1758950D01*
X+7112035Y+2125980D02*
X+7253005Y+2266950D01*
X+7493000Y+2266950D01*
X+7493000Y+2032000D02*
X+7366035Y+2032000D01*
X+7366000Y+2031965D01*
X+7112000Y+1524000D02*
X+7048500Y+1587500D01*
X+6764020Y+1587500D01*
X+8001000Y+635000D02*
X+6985000Y+635000D01*
X+6950000Y+670000D01*
X+6950000Y+889000D01*
X+6750000Y+889000D02*
X+6750000Y+1172348D01*
X+6789326Y+1211674D01*
X+6858000Y+1280348D01*
X+6858000Y+1397000D01*
X+6223000Y+1143000D02*
X+6223000Y+1071276D01*
X+7112000Y+1524000D02*
X+7239000Y+1397000D01*
X+7620000Y+1397000D01*
X+7620000Y+1162050D02*
X+7735570Y+1162050D01*
X+7907020Y+1333500D01*
X+8001000Y+1143000D02*
X+8001000Y+925000D01*
X+8094980Y+1333500D02*
X+8337550Y+1333500D01*
X+8382000Y+1377950D01*
X+8001000Y+1143000D02*
X+8382000Y+1143000D01*
X+8255000Y+635000D02*
X+8255000Y+486105D01*
X+8233486Y+464591D01*
X+7747000Y+508000D02*
X+7790409Y+464591D01*
X+7951264Y+464591D01*
X+8233486Y+464591D01*
X+8001000Y+635000D02*
X+8001000Y+696569D01*
X+8074024Y+769593D01*
X+8161348Y+769593D01*
X+8187925Y+796170D01*
X+8255000Y+863245D01*
X+8255000Y+935000D01*
X+8499000Y+935000D01*
X+8509000Y+925000D01*
X+6096000Y+1270000D02*
X+6223000Y+1270000D01*
X+6223000Y+1143000D01*
X+8233486Y+464591D02*
X+8461287Y+464591D01*
X+8500520Y+503824D01*
X+8500520Y+626520D01*
X+8509000Y+635000D01*
X+6985000Y+2667000D02*
X+6985000Y+2921000D01*
X+6985000Y+3175000D01*
X+7285000Y+2921000D02*
X+7239000Y+2921000D01*
X+7239000Y+2667000D01*
X+6685000Y+3175000D02*
X+6731000Y+3129000D01*
X+6731000Y+2667000D01*
X+6477000Y+3787716D02*
X+6477000Y+3914716D01*
X+6063196Y+7478809D02*
X+6015000Y+7493000D01*
X+6063196Y+7444804D02*
X+6063196Y+7478809D01*
X+6063196Y+7493000D01*
D22*
X+5888000Y+7174000D02*
X+6093728Y+7174000D01*
X+6096000Y+7171728D01*
D11*
X+6096000Y+7469150D01*
X+6063196Y+7478809D01*
D24*
X+9398000Y+3289456D02*
X+9398000Y+2424999D01*
X+9107522Y+2134521D01*
X+9144000Y+3543456D02*
X+9144000Y+2928246D01*
X+9107522Y+2891768D01*
X+9107522Y+2134521D01*
D11*
X+8878001Y+1905000D02*
X+8878000Y+1905001D01*
X+8500520Y+503824D02*
X+8878001Y+881305D01*
X+8878001Y+1905000D01*
D24*
X+9398000Y+3913755D02*
X+9158566Y+3674321D01*
X+9144000Y+3674321D01*
X+9013135Y+3674321D01*
X+8886679Y+3674321D01*
D11*
X+9144000Y+3543456D02*
X+9013135Y+3674321D01*
D24*
X+9398000Y+3913755D02*
X+9398000Y+3289456D01*
X+9144000Y+3674321D02*
X+9144000Y+3543456D01*
D11*
X+8636000Y+3302000D02*
X+8878001Y+3302000D01*
D24*
X+8878001Y+2413000D02*
X+8878001Y+3302000D01*
X+8878001Y+3556000D01*
D11*
X+8336000Y+3302000D02*
X+8128000Y+3302000D01*
D24*
X+8128000Y+3683000D02*
X+8128000Y+3302000D01*
D11*
X+8636000Y+2286000D02*
X+8878001Y+2286000D01*
D24*
X+8878001Y+1905000D02*
X+8878001Y+2286000D01*
X+8878001Y+2413000D01*
D11*
X+8336000Y+2286000D02*
X+8128000Y+2286000D01*
D24*
X+8128000Y+3302000D02*
X+8128000Y+2286000D01*
X+8128000Y+1905000D01*
D11*
X+6350000Y+1397000D02*
X+6223000Y+1270000D01*
X+5766747Y+1844535D02*
X+5794515Y+1844535D01*
X+5842000Y+1797050D01*
X+7112035Y+2125980D02*
X+6741346Y+2125980D01*
X+6731000Y+2136326D01*
X+6731000Y+2667000D02*
X+6731000Y+2136326D01*
X+4386504Y+8660242D02*
X+4465025Y+8660242D01*
X+4687941Y+8660242D01*
X+5064320Y+8660242D01*
D23*
X+4465025Y+8660242D02*
X+4687941Y+8660242D01*
X+5064320Y+8660242D01*
D24*
X+8128000Y+4318000D02*
X+8128000Y+4826000D01*
D10*
X+6985000Y+5207000D02*
X+6985000Y+4696467D01*
X+6976920Y+4688387D01*
D24*
X+8128000Y+4826000D02*
X+8128000Y+5334000D01*
X+8509000Y+5715000D01*
D10*
X+7882624Y+7247624D02*
X+8128000Y+7002248D01*
X+8128000Y+7002247D01*
D11*
X+8128000Y+7002248D01*
X+7882624Y+7247624D01*
D24*
X+8509000Y+5842000D02*
X+8509000Y+5715000D01*
X+8128000Y+7002248D02*
X+8509000Y+6621248D01*
X+8509000Y+5842000D01*
X+8509000Y+5715000D02*
X+8509000Y+4191000D01*
X+8128000Y+3810000D01*
X+8128000Y+3683000D01*
X+8128000Y+4318000D02*
X+8128000Y+3810000D01*
D10*
X+8128000Y+7002247D02*
X+7781012Y+7349235D01*
X+7761715Y+7368532D02*
X+7781012Y+7349235D01*
X+7882624Y+7247624D01*
D11*
X+7112000Y+6350000D02*
X+7239000Y+6350000D01*
X+7239000Y+5207000D02*
X+7239000Y+6350000D01*
X+6822000Y+6350000D02*
X+6731000Y+6350000D01*
D10*
X+6731000Y+6985000D02*
X+6731000Y+6350000D01*
X+6731000Y+5207000D01*
D24*
X+9398000Y+4548755D02*
X+9398000Y+4445000D01*
D11*
X+5842000Y+4445000D02*
X+5842000Y+3937000D01*
X+5715000Y+3937000D01*
X+5588000Y+3937000D01*
D24*
X+9398000Y+4445000D02*
X+9398000Y+4185642D01*
X+8886679Y+3674321D01*
X+9398000Y+4185642D02*
X+9398000Y+3913755D01*
D11*
X+6477000Y+3914716D02*
X+6477000Y+3937000D01*
X+6477000Y+3914716D02*
X+6477000Y+3787716D01*
D22*
X+5888000Y+7109000D02*
X+6050000Y+7109000D01*
D11*
X+6477000Y+3937000D02*
X+6431000Y+3937000D01*
X+6431000Y+4318000D01*
X+7106920Y+3787716D02*
X+6477000Y+3787716D01*
X+6477000Y+3638432D01*
X+6477000Y+3556000D01*
X+6985000Y+4318000D02*
X+6731000Y+4318000D01*
X+6985000Y+4318000D02*
X+6985000Y+4140776D01*
X+7106920Y+4018856D01*
X+7239000Y+6350000D02*
X+7239000Y+6604000D01*
X+3927000Y+8555000D02*
X+3937000Y+8545000D01*
D25*
X+8128001Y+8000999D02*
X+8509001Y+8000999D01*
D11*
X+8128000Y+6606532D02*
X+8238276Y+6496256D01*
X+8238276Y+6480659D01*
D24*
X+8128000Y+5334000D02*
X+8128000Y+6606532D01*
X+8128000Y+7002247D01*
D10*
X+7385297Y+7349235D02*
X+6985000Y+7349235D01*
X+7004297Y+7368532D01*
X+7366000Y+7368532D01*
X+7761715Y+7368532D01*
D11*
X+7385297Y+7349235D02*
X+7620000Y+7349235D01*
D26*
X+8062397Y+6906838D01*
X+8062496Y+6906838D01*
D10*
X+7781012Y+7349235D02*
X+7620000Y+7349235D01*
D11*
X+6263500Y+5120500D02*
X+6050000Y+5334000D01*
X+6050000Y+7109000D01*
X+3683000Y+8555000D02*
X+3854000Y+8555000D01*
X+3927000Y+8555000D02*
X+3854000Y+8555000D01*
X+4137000Y+9017000D02*
X+4137000Y+8824205D01*
X+4169573Y+8791632D01*
X+5397368Y+8791632D01*
X+5634000Y+8555000D01*
X+3937000Y+9017000D02*
X+3937000Y+8565000D01*
X+3927000Y+8555000D01*
X+3737000Y+9017000D02*
X+3737000Y+8860788D01*
X+3676555Y+8800343D01*
X+2428343Y+8800343D01*
X+2176000Y+8548000D01*
X+3537000Y+9017000D02*
X+3537000Y+9252000D01*
X+3556000Y+9271000D01*
X+5878000Y+9271000D01*
X+5969000Y+9180000D01*
X+8717000Y+7493000D02*
X+8717000Y+7366000D01*
X+8717000Y+7239000D01*
X+5969000Y+8890000D02*
X+6032500Y+8826500D01*
X+6383020Y+8826500D01*
X+6477000Y+8636000D02*
X+6477000Y+8382000D01*
X+7106920Y+3556576D02*
X+7492424Y+3556576D01*
X+7493000Y+3556000D01*
X+7285000Y+2921000D02*
X+7493000Y+3129000D01*
X+7493000Y+3556000D01*
X+6411916Y+5080000D02*
X+6411916Y+5271302D01*
X+6411916Y+7565054D02*
X+6289985Y+7686985D01*
X+6169543Y+7807427D01*
X+6169543Y+8255000D01*
X+7612422Y+7784235D02*
X+7612422Y+8008578D01*
X+7493000Y+3556000D02*
X+7493000Y+4318000D01*
X+7285000Y+4318000D01*
X+6411916Y+7366000D02*
X+6411916Y+7565054D01*
X+6411916Y+7366000D02*
X+6272245Y+7226329D01*
X+6272245Y+7141375D01*
X+6272245Y+6616671D01*
X+6272245Y+6350000D02*
X+6272245Y+6235671D01*
X+6272245Y+5473671D01*
X+6411916Y+5334000D01*
X+6272245Y+6616671D02*
X+6272245Y+6350000D01*
X+6411916Y+5271302D02*
X+6411916Y+5334000D01*
X+7678581Y+4692661D02*
X+7683621Y+4692661D01*
X+5634000Y+8555000D02*
X+5888000Y+8555000D01*
X+6169543Y+8255000D02*
X+6169543Y+8303609D01*
X+6059361Y+8413791D01*
X+5588000Y+8413791D01*
D22*
X+2254461Y+7177000D02*
X+2319461Y+7177000D01*
X+2348618Y+7177000D01*
X+2348618Y+7206157D02*
X+2348618Y+7177000D01*
X+2348618Y+7116550D01*
X+2344584Y+7112516D01*
X+2176000Y+7112000D02*
X+2344068Y+7112000D01*
X+2344584Y+7112516D01*
X+4086779Y+7214738D02*
X+4086779Y+7111263D01*
X+4087721Y+7110321D01*
X+3938321Y+7110321D01*
X+3937000Y+7109000D01*
X+3937000Y+7174000D02*
X+4046041Y+7174000D01*
X+4086779Y+7214738D01*
D11*
X+6050000Y+7109000D02*
X+6096000Y+7155000D01*
X+6096000Y+7171728D01*
D22*
X+3507000Y+7174000D02*
X+3751684Y+7174000D01*
X+3764000Y+7186316D01*
X+3507000Y+7109000D02*
X+3686684Y+7109000D01*
X+3690489Y+7112805D01*
X+3751684Y+7174000D01*
X+3764000Y+7186316D02*
X+3764000Y+7493000D01*
X+1746000Y+7177000D02*
X+1918879Y+7177000D01*
X+1929362Y+7187483D01*
X+1929362Y+7118682D02*
X+1929362Y+7187483D01*
X+1929362Y+7422362D01*
X+5458000Y+7174000D02*
X+5673840Y+7174000D01*
X+5715000Y+7215160D01*
X+5458000Y+7109000D02*
X+5608840Y+7109000D01*
X+5624663Y+7124823D01*
X+5673840Y+7174000D01*
X+5715000Y+7215160D02*
X+5715000Y+7493000D01*
D11*
X+7866422Y+8000999D02*
X+7866422Y+7881577D01*
D24*
X+7747000Y+8000999D02*
X+7866422Y+7881577D01*
D25*
X+8128001Y+8000999D02*
X+7866422Y+8000999D01*
X+7747000Y+8000999D01*
X+7612422Y+8008578D02*
X+7866422Y+8008578D01*
X+7747000Y+8008578D02*
X+7747000Y+8000999D01*
D11*
X+7747000Y+8008578D02*
X+7866422Y+8008578D01*
X+7866422Y+8000999D01*
X+8717000Y+7493000D02*
X+8717000Y+7793000D01*
X+8509001Y+8000999D01*
X+9017000Y+7493000D02*
X+9398000Y+7493000D01*
D24*
X+9398000Y+8001000D02*
X+9398000Y+7493000D01*
X+9398000Y+4699000D01*
D11*
X+6477000Y+9017000D02*
X+4337000Y+9017000D01*
D10*
X+6985000Y+7239000D02*
X+7495532Y+7239000D01*
X+7589138Y+7239000D01*
X+7635685Y+7192453D01*
X+6985000Y+6985000D02*
X+6985000Y+7239000D01*
X+6985000Y+7349235D01*
X+7385297Y+7349235D02*
X+7495532Y+7239000D01*
X+8128000Y+6606532D01*
X+7366000Y+7368532D02*
X+7385297Y+7349235D01*
X+7241532Y+7493000D02*
X+7862454Y+7493000D01*
X+7986922Y+7368532D01*
X+7761715Y+7368532D02*
X+7986922Y+7368532D01*
X+8231909Y+7123545D01*
X+6985000Y+7349235D02*
X+6985000Y+7493000D01*
X+7241532Y+7493000D01*
X+7366000Y+7368532D01*
D11*
X+7683621Y+4318000D02*
X+7683621Y+1797160D01*
X+7856289Y+1624492D01*
X+8094980Y+1385801D01*
X+8094980Y+1333500D01*
D10*
X+7683621Y+4318000D02*
X+7683621Y+4692661D01*
X+7683621Y+4953000D01*
X+7681531Y+4955090D01*
X+6976920Y+4688387D02*
X+7293769Y+4688387D01*
X+7293866Y+4688290D01*
X+5842000Y+4445000D02*
X+5840084Y+4445000D01*
X+5820223Y+4445000D01*
X+5724407Y+4445000D01*
X+5722491Y+4445000D01*
X+5588000Y+4445000D01*
X+3810000Y+3937000D02*
X+3937000Y+3937000D01*
X+4064000Y+3937000D01*
X+4064000Y+4431120D01*
X+4051618Y+4443502D01*
D11*
X+6570980Y+8983980D02*
X+6537960Y+9017000D01*
X+6477000Y+9017000D01*
X+6570980Y+8826500D02*
X+6570980Y+8983980D01*
X+6604000Y+8255000D02*
X+6653359Y+8255000D01*
X+6731000Y+8332641D01*
X+6169543Y+8255000D02*
X+6604000Y+8255000D01*
X+6731000Y+8332641D02*
X+6731000Y+8666480D01*
X+6570980Y+8826500D01*
X+6350000Y+1844535D02*
X+6449555Y+1844535D01*
X+6731000Y+2125980D01*
X+6731000Y+2136326D02*
X+6731000Y+2125980D01*
X+6350000Y+1844535D02*
X+5794515Y+1844535D01*
X+6477000Y+1397000D02*
X+6477000Y+1618068D01*
X+6493466Y+1634534D01*
X+6670040Y+1397000D02*
X+6477000Y+1397000D01*
X+6350000Y+1397000D01*
X+6589782Y+1730850D02*
X+6493466Y+1634534D01*
X+6731000Y+4318000D02*
X+6731000Y+4376802D01*
X+6731000Y+4572000D01*
X+6411916Y+4891084D01*
X+6411916Y+4928710D01*
X+6411916Y+5080000D01*
X+6431000Y+4318000D02*
X+6431000Y+4606797D01*
X+6263500Y+4774297D01*
X+6263500Y+5120500D02*
X+6263500Y+4774297D01*
D27*
X+2303000Y+7496000D02*
X+2537000Y+7496000D01*
X+2540000Y+7493000D01*
X+4064000Y+7493000D02*
X+4405384Y+7493000D01*
D11*
X+4405826Y+7492558D01*
D27*
X+6015000Y+7493000D02*
X+6063196Y+7493000D01*
X+6072150Y+7493000D01*
X+6182650Y+7493000D01*
X+6184414Y+7494764D01*
X+6477000Y+6731000D02*
X+6477000Y+6604000D01*
D11*
X+6477000Y+6731000D02*
X+6477000Y+7162478D01*
X+6613358Y+7298836D01*
X+6613358Y+7737642D01*
X+6477000Y+7874000D01*
X+6477000Y+8092000D01*
D27*
X+7112000Y+6604000D02*
X+7239000Y+6604000D01*
X+7239000Y+6985000D01*
X+6477000Y+6604000D02*
X+6477000Y+6477000D01*
X+7610593Y+6613406D02*
X+7610593Y+6734042D01*
X+7610707Y+6734156D01*
X+7610593Y+6613406D02*
X+7493000Y+6495813D01*
D11*
X+7493000Y+4318000D02*
X+7493000Y+6495813D01*
D27*
X+7153452Y+3175000D02*
X+6985000Y+3175000D01*
X+7309328Y+3699668D02*
X+7301136Y+3707860D01*
X+7301136Y+3941105D01*
X+7223385Y+4018856D01*
X+7106920Y+4018856D01*
D11*
X+7301136Y+3707860D02*
X+7301136Y+3704733D01*
X+7306201Y+3699668D01*
X+7309328Y+3699668D01*
D27*
X+6880957Y+1895663D02*
X+6754595Y+1895663D01*
D11*
X+6589782Y+1730850D02*
X+6754595Y+1895663D01*
D27*
X+6985000Y+2286000D02*
X+6985000Y+2667000D01*
X+6477000Y+2159000D02*
X+6477000Y+2386090D01*
X+6548604Y+1222517D02*
X+6550000Y+1221121D01*
X+6550000Y+889000D01*
D11*
X+2286000Y+1863589D02*
X+2219461Y+1863589D01*
X+2032000Y+1651000D02*
X+2032000Y+1863589D01*
X+2219461Y+1863589D02*
X+2032000Y+1863589D01*
X+1184411Y+1863589D01*
X+1143000Y+1905000D01*
X+1397000Y+1397000D02*
X+1397000Y+1524000D01*
X+1397000Y+1655000D01*
X+1143000Y+1655000D02*
X+1397000Y+1655000D01*
X+1647000Y+1655000D01*
X+1651000Y+1651000D01*
X+1524000Y+1270000D02*
X+1397000Y+1397000D01*
X+2286000Y+1270000D02*
X+1524000Y+1270000D01*
X+6477000Y+3556000D02*
X+6477000Y+3059108D01*
X+3922433Y+1270000D02*
X+4841771Y+1270000D01*
X+4979704Y+1270000D01*
X+6350000Y+2794000D02*
X+6462600Y+2794000D01*
X+6477000Y+2808400D01*
X+6477000Y+3059108D02*
X+6477000Y+2808400D01*
X+6477000Y+2386090D01*
X+7117647Y+3364262D02*
X+7200635Y+3281274D01*
X+7259726Y+3281274D01*
D27*
X+7304701Y+3326249D02*
X+7259726Y+3281274D01*
X+7153452Y+3175000D01*
D11*
X+7117647Y+3307647D02*
X+7117647Y+3364262D01*
X+6988856Y+3366199D02*
X+7082528Y+3272528D01*
X+7117647Y+3237408D01*
X+7117647Y+3210805D01*
X+6985000Y+3175000D02*
X+6985000Y+3362343D01*
X+6988856Y+3366199D01*
X+7115710Y+3366199D01*
X+7117647Y+3364262D01*
X+6985000Y+3175000D02*
X+7082528Y+3272528D01*
X+7117647Y+3307647D01*
X+7117647Y+3237408D01*
X+7117647Y+3210805D02*
X+7153452Y+3175000D01*
X+7117647Y+3364262D02*
X+7266688Y+3364262D01*
X+7356533Y+3364262D01*
X+7359433Y+3361362D01*
X+7324320Y+3326249D01*
X+7304701Y+3326249D01*
X+7266688Y+3364262D02*
X+7304701Y+3326249D01*
X+5856866Y+2779134D02*
X+5856866Y+3012579D01*
X+5946646Y+3102359D01*
X+6089212Y+3244925D01*
X+6096000Y+3244925D01*
X+5588000Y+2703000D02*
X+5780733Y+2703000D01*
X+5856866Y+2779134D01*
X+6096000Y+3244925D02*
X+6096000Y+3429000D01*
X+6096000Y+4318000D01*
X+6100000Y+2794000D02*
X+6100000Y+3013265D01*
X+6260649Y+3173914D01*
D28*
X+6260649Y+3356273D02*
X+6254136Y+3362786D01*
X+6260649Y+3173914D02*
X+6260649Y+3356273D01*
X+6260649Y+3480318D01*
X+6258068Y+3482899D01*
D12*
X+3810000Y+4445000D03*
X+4051457Y+4702773D03*
D13*
X+2032000Y+4699000D03*
X+2032000Y+4445000D03*
X+3810000Y+4699000D03*
X+4055230Y+4699000D03*
X+4051618Y+4443502D03*
X+3811498Y+4443502D03*
X+5588000Y+4699000D03*
X+5842000Y+4699000D03*
X+5588000Y+4445000D03*
X+6976920Y+4688387D03*
X+5842000Y+4445000D03*
X+9398000Y+4445000D03*
D12*
X+7612422Y+7784235D03*
X+7678581Y+4692661D03*
D14*
X+7293866Y+4688290D03*
X+7674210Y+4688290D03*
X+6184414Y+7494764D03*
X+4405826Y+7492558D03*
X+4261775Y+7489618D03*
X+2540000Y+7493000D03*
X+7610593Y+7782406D03*
X+7610593Y+6613406D03*
X+7112000Y+6604000D03*
X+6477000Y+6604000D03*
X+6985000Y+2286000D03*
X+6880957Y+1895663D03*
X+6477000Y+2159000D03*
X+6548604Y+1222517D03*
X+7309328Y+3699668D03*
X+7304701Y+3326249D03*
X+6254136Y+3362786D03*
X+7117647Y+3364262D03*
D29*
X+9845041Y+314959D02*
X+612959Y+314959D01*
X+612959Y+9464041D01*
X+9845041Y+9464041D01*
X+9845041Y+314959D01*
X+8047597Y+8420098D02*
X+8682597Y+8420098D01*
X+8928100Y+8174595D01*
X+8928100Y+7827403D01*
X+8793199Y+7692502D01*
X+8793199Y+7621269D01*
X+8812249Y+7621269D01*
X+8812249Y+7110731D01*
X+8621751Y+7110731D01*
X+8621751Y+7581900D01*
X+7971118Y+7581900D01*
X+8371608Y+7181410D01*
X+8371608Y+7171730D01*
X+8801099Y+6742239D01*
X+8801099Y+6015596D01*
X+8928099Y+5888596D01*
X+8928099Y+5541404D01*
X+8801099Y+5414404D01*
X+8801099Y+4070009D01*
X+8420099Y+3689009D01*
X+8420099Y+3430269D01*
X+8431249Y+3430269D01*
X+8431249Y+3173731D01*
X+8420099Y+3173731D01*
X+8420099Y+2414269D01*
X+8431249Y+2414269D01*
X+8431249Y+2157731D01*
X+8420099Y+2157731D01*
X+8420099Y+1784009D01*
X+8248991Y+1612901D01*
X+8007009Y+1612901D01*
X+7835901Y+1784009D01*
X+7835901Y+6701067D01*
X+7437667Y+7099301D01*
X+7378699Y+7099301D01*
X+7378699Y+6845301D01*
X+7340599Y+6845301D01*
X+7340599Y+6561916D01*
X+7315199Y+6536516D01*
X+7315199Y+5346699D01*
X+7378699Y+5346699D01*
X+7378699Y+5067301D01*
X+7124699Y+5067301D01*
X+7124699Y+4828086D01*
X+7351634Y+4828086D01*
X+7416801Y+4762919D01*
X+7416801Y+6428330D01*
X+7391401Y+6453730D01*
X+7391401Y+6537896D01*
X+7496294Y+6642789D01*
X+7496294Y+6660750D01*
X+7508994Y+6673450D01*
X+7508994Y+6776125D01*
X+7568624Y+6835755D01*
X+7652790Y+6835755D01*
X+7712306Y+6776239D01*
X+7712306Y+6692073D01*
X+7712192Y+6691959D01*
X+7712192Y+6673450D01*
X+7724892Y+6660750D01*
X+7724892Y+6566062D01*
X+7657937Y+6499107D01*
X+7639976Y+6499107D01*
X+7569199Y+6428330D01*
X+7569199Y+5040322D01*
X+7623666Y+5094789D01*
X+7739396Y+5094789D01*
X+7823320Y+5010865D01*
X+7823320Y+4260135D01*
X+7759820Y+4196635D01*
X+7759820Y+1828721D01*
X+8166142Y+1422399D01*
X+8177529Y+1422399D01*
X+8177529Y+1409699D01*
X+8299451Y+1409699D01*
X+8299451Y+1447799D01*
X+8344089Y+1447799D01*
X+8350438Y+1454148D01*
X+8413562Y+1454148D01*
X+8419911Y+1447799D01*
X+8464549Y+1447799D01*
X+8464549Y+1308101D01*
X+8419911Y+1308101D01*
X+8369111Y+1257301D01*
X+8177529Y+1257301D01*
X+8177529Y+1244601D01*
X+8012431Y+1244601D01*
X+8012431Y+1360590D01*
X+7989569Y+1383452D01*
X+7989569Y+1244601D01*
X+7925881Y+1244601D01*
X+7767131Y+1085851D01*
X+7588437Y+1085851D01*
X+7582087Y+1092201D01*
X+7537451Y+1092201D01*
X+7537451Y+1231899D01*
X+7582087Y+1231899D01*
X+7588437Y+1238249D01*
X+7704009Y+1238249D01*
X+7824471Y+1358711D01*
X+7824471Y+1422399D01*
X+7950622Y+1422399D01*
X+7607422Y+1765599D01*
X+7607422Y+4196635D01*
X+7569199Y+4234858D01*
X+7569199Y+3097439D01*
X+7380249Y+2908489D01*
X+7380249Y+2792731D01*
X+7378699Y+2792731D01*
X+7378699Y+2527301D01*
X+6807199Y+2527301D01*
X+6807199Y+2202179D01*
X+7023136Y+2202179D01*
X+7023136Y+2208529D01*
X+7086824Y+2208529D01*
X+7221444Y+2343149D01*
X+7524563Y+2343149D01*
X+7530913Y+2336799D01*
X+7575549Y+2336799D01*
X+7575549Y+2197101D01*
X+7530913Y+2197101D01*
X+7524563Y+2190751D01*
X+7284566Y+2190751D01*
X+7200934Y+2107119D01*
X+7200934Y+2043431D01*
X+7023136Y+2043431D01*
X+7023136Y+2049781D01*
X+6762561Y+2049781D01*
X+6525754Y+1812974D01*
X+6525754Y+1812972D01*
X+6481118Y+1768336D01*
X+5924549Y+1768336D01*
X+5924549Y+1727201D01*
X+5879911Y+1727201D01*
X+5873562Y+1720852D01*
X+5810438Y+1720852D01*
X+5804089Y+1727201D01*
X+5759451Y+1727201D01*
X+5759451Y+1768336D01*
X+5657849Y+1768336D01*
X+5657849Y+1727199D01*
X+5792561Y+1727199D01*
X+5854511Y+1665249D01*
X+5970269Y+1665249D01*
X+5970269Y+1474751D01*
X+5716269Y+1474751D01*
X+5716269Y+1365249D01*
X+5970269Y+1365249D01*
X+5970269Y+1174751D01*
X+5716269Y+1174751D01*
X+5716269Y+1011751D01*
X+5664199Y+1011751D01*
X+5664199Y+984439D01*
X+5492561Y+812801D01*
X+4349561Y+812801D01*
X+4270299Y+733539D01*
X+4270299Y+469901D01*
X+3041701Y+469901D01*
X+3041701Y+800099D01*
X+3042002Y+800099D01*
X+3029300Y+812801D01*
X+1746439Y+812801D01*
X+1574801Y+984439D01*
X+1574801Y+1011751D01*
X+1522731Y+1011751D01*
X+1522731Y+1202249D01*
X+1779269Y+1202249D01*
X+1779269Y+1011751D01*
X+1763009Y+1011751D01*
X+1809561Y+965199D01*
X+3092422Y+965199D01*
X+3232199Y+825422D01*
X+3232199Y+800099D01*
X+3279801Y+800099D01*
X+3279801Y+803439D01*
X+3052439Y+1030801D01*
X+2160269Y+1030801D01*
X+2160269Y+1011751D01*
X+1903731Y+1011751D01*
X+1903731Y+1202249D01*
X+2157731Y+1202249D01*
X+2157731Y+1301751D01*
X+1903731Y+1301751D01*
X+1903731Y+1333501D01*
X+1878699Y+1333501D01*
X+1841501Y+1370699D01*
X+1841501Y+1511301D01*
X+1841499Y+1511301D01*
X+1841499Y+1370699D01*
X+1804301Y+1333501D01*
X+1779269Y+1333501D01*
X+1779269Y+1301751D01*
X+1522731Y+1301751D01*
X+1522731Y+1492249D01*
X+1714501Y+1492249D01*
X+1714501Y+1511301D01*
X+1581151Y+1511301D01*
X+1581151Y+1787390D01*
X+1276349Y+1787390D01*
X+1276349Y+1521651D01*
X+1009651Y+1521651D01*
X+1009651Y+2038349D01*
X+1276349Y+2038349D01*
X+1276349Y+1939788D01*
X+3841561Y+1939788D01*
X+3860611Y+1920738D01*
X+5798306Y+1920738D01*
X+5798310Y+1920734D01*
X+6417994Y+1920734D01*
X+6654801Y+2157541D01*
X+6654801Y+2527301D01*
X+6591301Y+2527301D01*
X+6591301Y+2806699D01*
X+6654801Y+2806699D01*
X+6654801Y+3046731D01*
X+6589751Y+3046731D01*
X+6589751Y+3303269D01*
X+6780249Y+3303269D01*
X+6780249Y+3187511D01*
X+6807199Y+3160561D01*
X+6807199Y+2806699D01*
X+6889751Y+2806699D01*
X+6889751Y+3303269D01*
X+7080249Y+3303269D01*
X+7080249Y+2806699D01*
X+7162801Y+2806699D01*
X+7162801Y+2952563D01*
X+7189751Y+2979513D01*
X+7189751Y+3049269D01*
X+7305509Y+3049269D01*
X+7416801Y+3160561D01*
X+7416801Y+3480377D01*
X+7246619Y+3480377D01*
X+7246619Y+3442277D01*
X+6967221Y+3442277D01*
X+6967221Y+3670875D01*
X+7246619Y+3670875D01*
X+7246619Y+3632775D01*
X+7416801Y+3632775D01*
X+7416801Y+4241801D01*
X+7380249Y+4241801D01*
X+7380249Y+4189731D01*
X+7189751Y+4189731D01*
X+7189751Y+4446269D01*
X+7380249Y+4446269D01*
X+7380249Y+4394199D01*
X+7416801Y+4394199D01*
X+7416801Y+4613661D01*
X+7351731Y+4548591D01*
X+7236001Y+4548591D01*
X+7235904Y+4548688D01*
X+6919055Y+4548688D01*
X+6837221Y+4630522D01*
X+6837221Y+4746252D01*
X+6845301Y+4754332D01*
X+6845301Y+5067301D01*
X+6591301Y+5067301D01*
X+6591301Y+7124699D01*
X+6845301Y+7124699D01*
X+6845301Y+7550865D01*
X+6927135Y+7632699D01*
X+7395606Y+7632699D01*
X+7193323Y+7834982D01*
X+7193323Y+8182174D01*
X+7438826Y+8427677D01*
X+8040018Y+8427677D01*
X+8047597Y+8420098D01*
X+9224404Y+8420099D02*
X+9571596Y+8420099D01*
X+9817099Y+8174596D01*
X+9817099Y+7827404D01*
X+9571596Y+7581901D01*
X+9224404Y+7581901D01*
X+8978901Y+7827404D01*
X+8978901Y+8174596D01*
X+9224404Y+8420099D01*
X+8731249Y+2171338D02*
X+8757010Y+2197099D01*
X+8998992Y+2197099D01*
X+9170100Y+2025991D01*
X+9170100Y+1784009D01*
X+8998992Y+1612901D01*
X+8757010Y+1612901D01*
X+8585902Y+1784009D01*
X+8585902Y+2025991D01*
X+8717642Y+2157731D01*
X+8540751Y+2157731D01*
X+8540751Y+2414269D01*
X+8731249Y+2414269D01*
X+8731249Y+2171338D01*
X+9170099Y+3803991D02*
X+9170099Y+3562009D01*
X+8998991Y+3390901D01*
X+8757009Y+3390901D01*
X+8731249Y+3416661D01*
X+8731249Y+3173731D01*
X+8540751Y+3173731D01*
X+8540751Y+3430269D01*
X+8717641Y+3430269D01*
X+8585901Y+3562009D01*
X+8585901Y+3803991D01*
X+8757009Y+3975099D01*
X+8998991Y+3975099D01*
X+9170099Y+3803991D01*
X+9112249Y+7364731D02*
X+9112249Y+7110731D01*
X+8921751Y+7110731D01*
X+8921751Y+7621269D01*
X+9112249Y+7621269D01*
X+9112249Y+7364731D01*
X+6559549Y+8547101D02*
X+6553199Y+8547101D01*
X+6553199Y+8477249D01*
X+6605269Y+8477249D01*
X+6605269Y+8286751D01*
X+6348731Y+8286751D01*
X+6348731Y+8477249D01*
X+6400801Y+8477249D01*
X+6400801Y+8547101D01*
X+6394451Y+8547101D01*
X+6394451Y+8724899D01*
X+6559549Y+8724899D01*
X+6559549Y+8547101D01*
X+6605269Y+7996751D02*
X+6553199Y+7996751D01*
X+6553199Y+7905561D01*
X+6689557Y+7769203D01*
X+6689557Y+7267275D01*
X+6553199Y+7130917D01*
X+6553199Y+6798484D01*
X+6578599Y+6773084D01*
X+6578599Y+6664044D01*
X+6591299Y+6651344D01*
X+6591299Y+6556656D01*
X+6578599Y+6543956D01*
X+6578599Y+6434916D01*
X+6519084Y+6375401D01*
X+6434916Y+6375401D01*
X+6375401Y+6434916D01*
X+6375401Y+6543956D01*
X+6362701Y+6556656D01*
X+6362701Y+6651344D01*
X+6375401Y+6664044D01*
X+6375401Y+6773084D01*
X+6400801Y+6798484D01*
X+6400801Y+7194039D01*
X+6537159Y+7330397D01*
X+6537159Y+7706081D01*
X+6400801Y+7842439D01*
X+6400801Y+7996751D01*
X+6348731Y+7996751D01*
X+6348731Y+8187249D01*
X+6605269Y+8187249D01*
X+6605269Y+7996751D01*
X+6635751Y+4446269D02*
X+6826249Y+4446269D01*
X+6826249Y+4189731D01*
X+6635751Y+4189731D01*
X+6635751Y+4446269D01*
X+6016269Y+8169751D02*
X+5964199Y+8169751D01*
X+5964199Y+8129269D01*
X+5983249Y+8129269D01*
X+5983249Y+7621269D01*
X+6110249Y+7621269D01*
X+6110249Y+7594599D01*
X+6122606Y+7594599D01*
X+6137070Y+7609063D01*
X+6231758Y+7609063D01*
X+6298713Y+7542108D01*
X+6298713Y+7447420D01*
X+6231758Y+7380465D01*
X+6172199Y+7380465D01*
X+6172199Y+7123437D01*
X+6127563Y+7078801D01*
X+6127561Y+7078801D01*
X+6126199Y+7077439D01*
X+6126199Y+5365561D01*
X+6295061Y+5196699D01*
X+6295063Y+5196699D01*
X+6339699Y+5152063D01*
X+6339699Y+4805858D01*
X+6507199Y+4638358D01*
X+6507199Y+4446269D01*
X+6526249Y+4446269D01*
X+6526249Y+4189731D01*
X+6507199Y+4189731D01*
X+6507199Y+4016315D01*
X+6616699Y+4016315D01*
X+6616699Y+3863915D01*
X+6967221Y+3863915D01*
X+6967221Y+3902015D01*
X+7246619Y+3902015D01*
X+7246619Y+3673417D01*
X+6967221Y+3673417D01*
X+6967221Y+3711517D01*
X+6616699Y+3711517D01*
X+6616699Y+3559117D01*
X+6553199Y+3559117D01*
X+6553199Y+2453574D01*
X+6578599Y+2428174D01*
X+6578599Y+2219044D01*
X+6591299Y+2206344D01*
X+6591299Y+2111656D01*
X+6524344Y+2044701D01*
X+6429656Y+2044701D01*
X+6388099Y+2086258D01*
X+6388099Y+1993757D01*
X+6057901Y+1993757D01*
X+6057901Y+2082801D01*
X+5924549Y+2082801D01*
X+5924549Y+1962151D01*
X+5879913Y+1962151D01*
X+5873563Y+1955801D01*
X+5810437Y+1955801D01*
X+5804087Y+1962151D01*
X+5759451Y+1962151D01*
X+5759451Y+2082801D01*
X+5657849Y+2082801D01*
X+5657849Y+2032001D01*
X+5137151Y+2032001D01*
X+5137151Y+2311399D01*
X+5143501Y+2311399D01*
X+5143501Y+2317751D01*
X+4951731Y+2317751D01*
X+4951731Y+2508249D01*
X+5208269Y+2508249D01*
X+5208269Y+2476499D01*
X+5233301Y+2476499D01*
X+5257801Y+2451999D01*
X+5257801Y+2919731D01*
X+5238751Y+2919731D01*
X+5238751Y+3173731D01*
X+5156199Y+3173731D01*
X+5156199Y+2798249D01*
X+5208269Y+2798249D01*
X+5208269Y+2607751D01*
X+4951731Y+2607751D01*
X+4951731Y+2798249D01*
X+5003801Y+2798249D01*
X+5003801Y+3427731D01*
X+4938751Y+3427731D01*
X+4938751Y+3684269D01*
X+5003801Y+3684269D01*
X+5003801Y+3797301D01*
X+4940301Y+3797301D01*
X+4940301Y+4076699D01*
X+5194301Y+4076699D01*
X+5194301Y+4178301D01*
X+5022135Y+4178301D01*
X+4554756Y+4645680D01*
X+4554756Y+5975351D01*
X+4324351Y+5975351D01*
X+4324351Y+6216649D01*
X+4368801Y+6216649D01*
X+4368801Y+6423898D01*
X+4413437Y+6468534D01*
X+4413439Y+6468534D01*
X+4448763Y+6503858D01*
X+4448763Y+6503860D01*
X+4493399Y+6548496D01*
X+5753994Y+6548496D01*
X+5803430Y+6597932D01*
X+5803430Y+6602731D01*
X+5792751Y+6602731D01*
X+5792751Y+6728687D01*
X+5687597Y+6833841D01*
X+5687597Y+7050314D01*
X+5738432Y+7101149D01*
X+5777511Y+7101149D01*
X+5777511Y+7296149D01*
X+5830851Y+7296149D01*
X+5830851Y+7618731D01*
X+5810249Y+7618731D01*
X+5810249Y+7364731D01*
X+5619751Y+7364731D01*
X+5619751Y+7618731D01*
X+5492751Y+7618731D01*
X+5492751Y+7875269D01*
X+5502751Y+7875269D01*
X+5502751Y+8129269D01*
X+5693249Y+8129269D01*
X+5693249Y+7872731D01*
X+5683249Y+7872731D01*
X+5683249Y+7621269D01*
X+5792751Y+7621269D01*
X+5792751Y+8129269D01*
X+5811801Y+8129269D01*
X+5811801Y+8169751D01*
X+5762269Y+8169751D01*
X+5762269Y+8159751D01*
X+5505731Y+8159751D01*
X+5505731Y+8350249D01*
X+5759731Y+8350249D01*
X+5759731Y+8360249D01*
X+6016269Y+8360249D01*
X+6016269Y+8169751D01*
X+7080249Y+4189731D02*
X+6889751Y+4189731D01*
X+6889751Y+4446269D01*
X+7080249Y+4446269D01*
X+7080249Y+4189731D01*
X+3467099Y+8301596D02*
X+3467099Y+7954404D01*
X+3314699Y+7802004D01*
X+3314699Y+6864351D01*
X+3251915Y+6864351D01*
X+3232865Y+6845301D01*
X+2974094Y+6845301D01*
X+2941786Y+6812993D01*
X+2817796Y+6864351D01*
X+2743199Y+6864351D01*
X+2743199Y+6802496D01*
X+3541751Y+6802496D01*
X+3541751Y+6859269D01*
X+3577313Y+6859269D01*
X+3577313Y+6984210D01*
X+3574672Y+6986851D01*
X+3396511Y+6986851D01*
X+3396511Y+7296149D01*
X+3617489Y+7296149D01*
X+3617489Y+7101149D01*
X+3622014Y+7101149D01*
X+3691609Y+7031554D01*
X+3691609Y+6859269D01*
X+3732249Y+6859269D01*
X+3732249Y+6602731D01*
X+3541751Y+6602731D01*
X+3541751Y+6650098D01*
X+2679338Y+6650098D01*
X+2590801Y+6738635D01*
X+2590801Y+6864351D01*
X+2546351Y+6864351D01*
X+2546351Y+7105649D01*
X+2769308Y+7105649D01*
X+2769308Y+7813997D01*
X+2628901Y+7954404D01*
X+2628901Y+8301596D01*
X+2874404Y+8547099D01*
X+3221596Y+8547099D01*
X+3467099Y+8301596D01*
X+4065269Y+8159751D02*
X+4013199Y+8159751D01*
X+4013199Y+8129269D01*
X+4032249Y+8129269D01*
X+4032249Y+7621269D01*
X+4159249Y+7621269D01*
X+4159249Y+7594599D01*
X+4205113Y+7594599D01*
X+4214431Y+7603917D01*
X+4309119Y+7603917D01*
X+4318437Y+7594599D01*
X+4346224Y+7594599D01*
X+4358482Y+7606857D01*
X+4453170Y+7606857D01*
X+4520125Y+7539902D01*
X+4520125Y+7445214D01*
X+4453170Y+7378259D01*
X+4358482Y+7378259D01*
X+4345340Y+7391401D01*
X+4325201Y+7391401D01*
X+4309119Y+7375319D01*
X+4214431Y+7375319D01*
X+4198349Y+7391401D01*
X+4159249Y+7391401D01*
X+4159249Y+7364731D01*
X+4143928Y+7364731D01*
X+4143928Y+7134934D01*
X+4155132Y+7123730D01*
X+4125906Y+7053172D01*
X+4047489Y+7053172D01*
X+4047489Y+6986851D01*
X+3888406Y+6986851D01*
X+3879526Y+6977971D01*
X+3879526Y+6859269D01*
X+4032249Y+6859269D01*
X+4032249Y+6602731D01*
X+3991248Y+6602731D01*
X+3991248Y+6494042D01*
X+3946612Y+6449406D01*
X+3946610Y+6449406D01*
X+3919125Y+6421921D01*
X+3919125Y+6421919D01*
X+3874489Y+6377283D01*
X+2783227Y+6377283D01*
X+2743199Y+6337255D01*
X+2743199Y+6216649D01*
X+2844085Y+6216649D01*
X+2863135Y+6235699D01*
X+3220282Y+6235699D01*
X+3239332Y+6216649D01*
X+3314699Y+6216649D01*
X+3314699Y+5727699D01*
X+3427957Y+5727699D01*
X+3427957Y+5846023D01*
X+3480027Y+5846023D01*
X+3480027Y+5848684D01*
X+3586868Y+5955525D01*
X+3427957Y+5955525D01*
X+3427957Y+6146023D01*
X+3684495Y+6146023D01*
X+3684495Y+6136023D01*
X+4192495Y+6136023D01*
X+4192495Y+5945525D01*
X+4140651Y+5945525D01*
X+4140651Y+5909350D01*
X+4077324Y+5846023D01*
X+4192495Y+5846023D01*
X+4192495Y+5716269D01*
X+4205249Y+5716269D01*
X+4205249Y+5459731D01*
X+4140425Y+5459731D01*
X+4140425Y+5346699D01*
X+4203699Y+5346699D01*
X+4203699Y+5175061D01*
X+4394199Y+4984561D01*
X+4394199Y+3143439D01*
X+3938269Y+2687509D01*
X+3938269Y+2616199D01*
X+4349561Y+2616199D01*
X+4492461Y+2473299D01*
X+4610099Y+2473299D01*
X+4610099Y+2044701D01*
X+4279901Y+2044701D01*
X+4279901Y+2095501D01*
X+4146549Y+2095501D01*
X+4146549Y+1962151D01*
X+4101913Y+1962151D01*
X+4095563Y+1955801D01*
X+4032437Y+1955801D01*
X+4026087Y+1962151D01*
X+3981451Y+1962151D01*
X+3981451Y+2095501D01*
X+3879849Y+2095501D01*
X+3879849Y+2032001D01*
X+3359151Y+2032001D01*
X+3359151Y+2311399D01*
X+3365501Y+2311399D01*
X+3365501Y+2317751D01*
X+3173731Y+2317751D01*
X+3173731Y+2508249D01*
X+3430269Y+2508249D01*
X+3430269Y+2476499D01*
X+3455301Y+2476499D01*
X+3474056Y+2457744D01*
X+3474056Y+2919731D01*
X+3455006Y+2919731D01*
X+3455006Y+3173731D01*
X+3378199Y+3173731D01*
X+3378199Y+2798249D01*
X+3430269Y+2798249D01*
X+3430269Y+2607751D01*
X+3173731Y+2607751D01*
X+3173731Y+2798249D01*
X+3225801Y+2798249D01*
X+3225801Y+3427731D01*
X+3155006Y+3427731D01*
X+3155006Y+3684269D01*
X+3225801Y+3684269D01*
X+3225801Y+3797301D01*
X+3162301Y+3797301D01*
X+3162301Y+4076699D01*
X+3416301Y+4076699D01*
X+3416301Y+4178301D01*
X+3244135Y+4178301D01*
X+2781301Y+4641135D01*
X+2781301Y+5975351D01*
X+2546351Y+5975351D01*
X+2546351Y+6216649D01*
X+2590801Y+6216649D01*
X+2590801Y+6400379D01*
X+2635437Y+6445015D01*
X+2635439Y+6445015D01*
X+2675467Y+6485043D01*
X+2675467Y+6485045D01*
X+2720103Y+6529681D01*
X+3811365Y+6529681D01*
X+3838850Y+6557166D01*
X+3838850Y+6704428D01*
X+3765228Y+6778050D01*
X+3765228Y+7025313D01*
X+3826511Y+7086596D01*
X+3826511Y+7296149D01*
X+3879851Y+7296149D01*
X+3879851Y+7618731D01*
X+3859249Y+7618731D01*
X+3859249Y+7364731D01*
X+3668751Y+7364731D01*
X+3668751Y+7618731D01*
X+3551751Y+7618731D01*
X+3551751Y+7872731D01*
X+3541751Y+7872731D01*
X+3541751Y+8129269D01*
X+3732249Y+8129269D01*
X+3732249Y+7875269D01*
X+3742249Y+7875269D01*
X+3742249Y+7621269D01*
X+3841751Y+7621269D01*
X+3841751Y+8129269D01*
X+3860801Y+8129269D01*
X+3860801Y+8159751D01*
X+3554731Y+8159751D01*
X+3554731Y+8350249D01*
X+4065269Y+8350249D01*
X+4065269Y+8159751D01*
X+5245099Y+8301596D02*
X+5245099Y+7954404D01*
X+5092699Y+7802004D01*
X+5092699Y+6864351D01*
X+5029915Y+6864351D01*
X+5010865Y+6845301D01*
X+4641135Y+6845301D01*
X+4622085Y+6864351D01*
X+4535433Y+6864351D01*
X+4592585Y+6807199D01*
X+5492751Y+6807199D01*
X+5492751Y+6859269D01*
X+5535950Y+6859269D01*
X+5535950Y+6983798D01*
X+5532897Y+6986851D01*
X+5347511Y+6986851D01*
X+5347511Y+7296149D01*
X+5568489Y+7296149D01*
X+5568489Y+7101149D01*
X+5580239Y+7101149D01*
X+5650248Y+7031140D01*
X+5650248Y+6859269D01*
X+5683249Y+6859269D01*
X+5683249Y+6602731D01*
X+5492751Y+6602731D01*
X+5492751Y+6654801D01*
X+4529461Y+6654801D01*
X+4484825Y+6699437D01*
X+4484825Y+6699439D01*
X+4413439Y+6770825D01*
X+4413437Y+6770825D01*
X+4368801Y+6815461D01*
X+4368801Y+6864351D01*
X+4324351Y+6864351D01*
X+4324351Y+7105649D01*
X+4559301Y+7105649D01*
X+4559301Y+7802004D01*
X+4406901Y+7954404D01*
X+4406901Y+8301596D01*
X+4652404Y+8547099D01*
X+4999596Y+8547099D01*
X+5245099Y+8301596D01*
X+1689099Y+8301596D02*
X+1689099Y+7954404D01*
X+1536699Y+7802004D01*
X+1536699Y+6864351D01*
X+1473915Y+6864351D01*
X+1454865Y+6845301D01*
X+1085135Y+6845301D01*
X+1066085Y+6864351D01*
X+965199Y+6864351D01*
X+965199Y+6820574D01*
X+978574Y+6807199D01*
X+1763751Y+6807199D01*
X+1763751Y+6859269D01*
X+1798720Y+6859269D01*
X+1798720Y+6968985D01*
X+1777854Y+6989851D01*
X+1635511Y+6989851D01*
X+1635511Y+7299149D01*
X+1856489Y+7299149D01*
X+1856489Y+7072857D01*
X+1858674Y+7070671D01*
X+1879541Y+7049805D01*
X+1913018Y+7016328D01*
X+1913018Y+6859269D01*
X+1954249Y+6859269D01*
X+1954249Y+6602731D01*
X+1763751Y+6602731D01*
X+1763751Y+6654801D01*
X+915450Y+6654801D01*
X+870814Y+6699437D01*
X+870814Y+6699439D01*
X+812801Y+6757452D01*
X+812801Y+6864351D01*
X+768351Y+6864351D01*
X+768351Y+7105649D01*
X+1003301Y+7105649D01*
X+1003301Y+7802004D01*
X+850901Y+7954404D01*
X+850901Y+8301596D01*
X+1096404Y+8547099D01*
X+1443596Y+8547099D01*
X+1689099Y+8301596D01*
X+2304269Y+8162751D02*
X+2252199Y+8162751D01*
X+2252199Y+8132269D01*
X+2271249Y+8132269D01*
X+2271249Y+7624269D01*
X+2398249Y+7624269D01*
X+2398249Y+7597599D01*
X+2482956Y+7597599D01*
X+2492656Y+7607299D01*
X+2587344Y+7607299D01*
X+2654299Y+7540344D01*
X+2654299Y+7445656D01*
X+2587344Y+7378701D01*
X+2492656Y+7378701D01*
X+2476956Y+7394401D01*
X+2405767Y+7394401D01*
X+2405767Y+7092879D01*
X+2367739Y+7054851D01*
X+2286489Y+7054851D01*
X+2286489Y+6989851D01*
X+2101812Y+6989851D01*
X+2091477Y+6979516D01*
X+2091477Y+6859269D01*
X+2254249Y+6859269D01*
X+2254249Y+6602731D01*
X+2235199Y+6602731D01*
X+2235199Y+6468955D01*
X+2190563Y+6424319D01*
X+2190561Y+6424319D01*
X+2172484Y+6406242D01*
X+2172484Y+6406240D01*
X+2127848Y+6361604D01*
X+1055401Y+6361604D01*
X+965199Y+6271402D01*
X+965199Y+6216649D01*
X+1066085Y+6216649D01*
X+1085135Y+6235699D01*
X+1484512Y+6235699D01*
X+1503562Y+6216649D01*
X+1536699Y+6216649D01*
X+1536699Y+6183512D01*
X+1567060Y+6153151D01*
X+1567060Y+5727699D01*
X+1649731Y+5727699D01*
X+1649731Y+5846249D01*
X+1701801Y+5846249D01*
X+1701801Y+5853160D01*
X+1804392Y+5955751D01*
X+1649731Y+5955751D01*
X+1649731Y+6146249D01*
X+1906269Y+6146249D01*
X+1906269Y+6136249D01*
X+2414269Y+6136249D01*
X+2414269Y+5945751D01*
X+2353871Y+5945751D01*
X+2353871Y+5892243D01*
X+2307877Y+5846249D01*
X+2414269Y+5846249D01*
X+2414269Y+5716269D01*
X+2427249Y+5716269D01*
X+2427249Y+5459731D01*
X+2362199Y+5459731D01*
X+2362199Y+5346699D01*
X+2425699Y+5346699D01*
X+2425699Y+5175061D01*
X+2569858Y+5030902D01*
X+2569858Y+2971082D01*
X+2225577Y+2626801D01*
X+2160269Y+2626801D01*
X+2160269Y+2622956D01*
X+2510804Y+2622956D01*
X+2660461Y+2473299D01*
X+2832099Y+2473299D01*
X+2832099Y+2044701D01*
X+2501901Y+2044701D01*
X+2501901Y+2082801D01*
X+2368549Y+2082801D01*
X+2368549Y+1962151D01*
X+2323913Y+1962151D01*
X+2317563Y+1955801D01*
X+2254437Y+1955801D01*
X+2248087Y+1962151D01*
X+2203451Y+1962151D01*
X+2203451Y+2082801D01*
X+2101849Y+2082801D01*
X+2101849Y+2032001D01*
X+1581151Y+2032001D01*
X+1581151Y+2311399D01*
X+1587501Y+2311399D01*
X+1587501Y+2317751D01*
X+1395731Y+2317751D01*
X+1395731Y+2508249D01*
X+1652269Y+2508249D01*
X+1652269Y+2476499D01*
X+1677301Y+2476499D01*
X+1701801Y+2451999D01*
X+1701801Y+2919731D01*
X+1682751Y+2919731D01*
X+1682751Y+3173731D01*
X+1600199Y+3173731D01*
X+1600199Y+2798249D01*
X+1652269Y+2798249D01*
X+1652269Y+2607751D01*
X+1395731Y+2607751D01*
X+1395731Y+2798249D01*
X+1447801Y+2798249D01*
X+1447801Y+3427731D01*
X+1382751Y+3427731D01*
X+1382751Y+3684269D01*
X+1447801Y+3684269D01*
X+1447801Y+3797301D01*
X+1384301Y+3797301D01*
X+1384301Y+4076699D01*
X+1638301Y+4076699D01*
X+1638301Y+4178301D01*
X+1466135Y+4178301D01*
X+1003301Y+4641135D01*
X+1003301Y+5975351D01*
X+768351Y+5975351D01*
X+768351Y+6216649D01*
X+812801Y+6216649D01*
X+812801Y+6334526D01*
X+857437Y+6379162D01*
X+857439Y+6379162D01*
X+947641Y+6469364D01*
X+947641Y+6469366D01*
X+992277Y+6514002D01*
X+2064724Y+6514002D01*
X+2082801Y+6532079D01*
X+2082801Y+6602731D01*
X+2063751Y+6602731D01*
X+2063751Y+6673851D01*
X+2039024Y+6673851D01*
X+1977179Y+6735696D01*
X+1977179Y+7026858D01*
X+2054470Y+7104149D01*
X+2065511Y+7104149D01*
X+2065511Y+7299149D01*
X+2122661Y+7299149D01*
X+2122661Y+7621731D01*
X+2098249Y+7621731D01*
X+2098249Y+7367731D01*
X+1907751Y+7367731D01*
X+1907751Y+7621731D01*
X+1780751Y+7621731D01*
X+1780751Y+7878269D01*
X+1790751Y+7878269D01*
X+1790751Y+8132269D01*
X+1981249Y+8132269D01*
X+1981249Y+7875731D01*
X+1971249Y+7875731D01*
X+1971249Y+7624269D01*
X+2080751Y+7624269D01*
X+2080751Y+8132269D01*
X+2099801Y+8132269D01*
X+2099801Y+8162751D01*
X+1793731Y+8162751D01*
X+1793731Y+8353249D01*
X+2304269Y+8353249D01*
X+2304269Y+8162751D01*
X+5981511Y+9275249D02*
X+6097269Y+9275249D01*
X+6097269Y+9084751D01*
X+5840731Y+9084751D01*
X+5840731Y+9194801D01*
X+3613199Y+9194801D01*
X+3613199Y+9182099D01*
X+4451299Y+9182099D01*
X+4451299Y+8867831D01*
X+5428929Y+8867831D01*
X+5646511Y+8650249D01*
X+6016269Y+8650249D01*
X+6016269Y+8459751D01*
X+5505731Y+8459751D01*
X+5505731Y+8575509D01*
X+5365807Y+8715433D01*
X+4138012Y+8715433D01*
X+4060801Y+8792644D01*
X+4060801Y+8851901D01*
X+4013199Y+8851901D01*
X+4013199Y+8640249D01*
X+4065269Y+8640249D01*
X+4065269Y+8449751D01*
X+3808731Y+8449751D01*
X+3808731Y+8459751D01*
X+3554731Y+8459751D01*
X+3554731Y+8650249D01*
X+3811269Y+8650249D01*
X+3811269Y+8640249D01*
X+3860801Y+8640249D01*
X+3860801Y+8851901D01*
X+3813198Y+8851901D01*
X+3813198Y+8829226D01*
X+3708116Y+8724144D01*
X+2459904Y+8724144D01*
X+2304269Y+8568509D01*
X+2304269Y+8452751D01*
X+2047731Y+8452751D01*
X+2047731Y+8462751D01*
X+1793731Y+8462751D01*
X+1793731Y+8653249D01*
X+2050269Y+8653249D01*
X+2050269Y+8643249D01*
X+2163489Y+8643249D01*
X+2396782Y+8876542D01*
X+3222701Y+8876542D01*
X+3222701Y+9182099D01*
X+3460801Y+9182099D01*
X+3460801Y+9283561D01*
X+3524439Y+9347199D01*
X+5909561Y+9347199D01*
X+5981511Y+9275249D01*
X+7391434Y+2108199D02*
X+7524563Y+2108199D01*
X+7530913Y+2101849D01*
X+7575549Y+2101849D01*
X+7575549Y+1962151D01*
X+7530913Y+1962151D01*
X+7524563Y+1955801D01*
X+7442199Y+1955801D01*
X+7442199Y+1655249D01*
X+7494269Y+1655249D01*
X+7494269Y+1473199D01*
X+7651563Y+1473199D01*
X+7657913Y+1466849D01*
X+7702549Y+1466849D01*
X+7702549Y+1327151D01*
X+7657913Y+1327151D01*
X+7651563Y+1320801D01*
X+7494269Y+1320801D01*
X+7494269Y+1174751D01*
X+7442199Y+1174751D01*
X+7442199Y+903249D01*
X+7621269Y+903249D01*
X+7621269Y+893249D01*
X+7872731Y+893249D01*
X+7872731Y+1020249D01*
X+7924801Y+1020249D01*
X+7924801Y+1054101D01*
X+7918451Y+1054101D01*
X+7918451Y+1231899D01*
X+8083549Y+1231899D01*
X+8083549Y+1219199D01*
X+8413563Y+1219199D01*
X+8419913Y+1212849D01*
X+8464549Y+1212849D01*
X+8464549Y+1073151D01*
X+8419913Y+1073151D01*
X+8413563Y+1066801D01*
X+8083549Y+1066801D01*
X+8083549Y+1054101D01*
X+8077199Y+1054101D01*
X+8077199Y+1020249D01*
X+8126731Y+1020249D01*
X+8126731Y+1030249D01*
X+8383269Y+1030249D01*
X+8383269Y+1020249D01*
X+8637269Y+1020249D01*
X+8637269Y+829751D01*
X+8380731Y+829751D01*
X+8380731Y+839751D01*
X+8331199Y+839751D01*
X+8331199Y+831684D01*
X+8229764Y+730249D01*
X+8637269Y+730249D01*
X+8637269Y+539751D01*
X+7875269Y+539751D01*
X+7875269Y+412751D01*
X+7364731Y+412751D01*
X+7364731Y+558801D01*
X+6953439Y+558801D01*
X+6873801Y+638439D01*
X+6873801Y+723901D01*
X+6035701Y+723901D01*
X+6035701Y+1054099D01*
X+6448401Y+1054099D01*
X+6448401Y+1161077D01*
X+6434305Y+1175173D01*
X+6434305Y+1269861D01*
X+6501260Y+1336816D01*
X+6587491Y+1336816D01*
X+6587491Y+1485899D01*
X+6752589Y+1485899D01*
X+6752589Y+1308101D01*
X+6624663Y+1308101D01*
X+6662903Y+1269861D01*
X+6662903Y+1175173D01*
X+6651599Y+1163869D01*
X+6651599Y+1054099D01*
X+6673801Y+1054099D01*
X+6673801Y+1203909D01*
X+6777993Y+1308101D01*
X+6775451Y+1308101D01*
X+6775451Y+1485899D01*
X+6940549Y+1485899D01*
X+6940549Y+1308101D01*
X+6934199Y+1308101D01*
X+6934199Y+1248787D01*
X+6826199Y+1140787D01*
X+6826199Y+1054099D01*
X+7264299Y+1054099D01*
X+7264299Y+884199D01*
X+7289801Y+884199D01*
X+7289801Y+1174751D01*
X+7237731Y+1174751D01*
X+7237731Y+1320801D01*
X+7207439Y+1320801D01*
X+7074089Y+1454151D01*
X+7029451Y+1454151D01*
X+7029451Y+1498789D01*
X+7016939Y+1511301D01*
X+6846569Y+1511301D01*
X+6846569Y+1498601D01*
X+6681471Y+1498601D01*
X+6681471Y+1676399D01*
X+6846569Y+1676399D01*
X+6846569Y+1663699D01*
X+7080061Y+1663699D01*
X+7149911Y+1593849D01*
X+7194549Y+1593849D01*
X+7194549Y+1549211D01*
X+7237731Y+1506029D01*
X+7237731Y+1655249D01*
X+7289801Y+1655249D01*
X+7289801Y+1949451D01*
X+7213636Y+1949451D01*
X+7213636Y+2114549D01*
X+7391434Y+2114549D01*
X+7391434Y+2108199D01*
X+7200934Y+1855471D02*
X+7188222Y+1855471D01*
X+7188215Y+1828799D01*
X+7194549Y+1828799D01*
X+7194549Y+1689101D01*
X+7149913Y+1689101D01*
X+7143563Y+1682751D01*
X+7080437Y+1682751D01*
X+7074087Y+1689101D01*
X+7029451Y+1689101D01*
X+7029451Y+1828799D01*
X+7035810Y+1828799D01*
X+7035817Y+1855471D01*
X+7023136Y+1855471D01*
X+7023136Y+2020569D01*
X+7200934Y+2020569D01*
X+7200934Y+1855471D01*
X+9042401Y+614706D02*
X+9042401Y+909294D01*
X+9250706Y+1117599D01*
X+9545294Y+1117599D01*
X+9753599Y+909294D01*
X+9753599Y+614706D01*
X+9545294Y+406401D01*
X+9250706Y+406401D01*
X+9042401Y+614706D01*
X+660401Y+614706D02*
X+660401Y+909294D01*
X+868706Y+1117599D01*
X+1163294Y+1117599D01*
X+1371599Y+909294D01*
X+1371599Y+614706D01*
X+1163294Y+406401D01*
X+868706Y+406401D01*
X+660401Y+614706D01*
X+6097269Y+8902699D02*
X+6300471Y+8902699D01*
X+6300471Y+8915399D01*
X+6465569Y+8915399D01*
X+6465569Y+8737601D01*
X+6300471Y+8737601D01*
X+6300471Y+8750301D01*
X+6000939Y+8750301D01*
X+5956489Y+8794751D01*
X+5840731Y+8794751D01*
X+5840731Y+8985249D01*
X+6097269Y+8985249D01*
X+6097269Y+8902699D01*
X+6488431Y+8915399D02*
X+6653529Y+8915399D01*
X+6653529Y+8737601D01*
X+6488431Y+8737601D01*
X+6488431Y+8915399D01*
X+6967221Y+3904557D02*
X+6967221Y+4133155D01*
X+7246619Y+4133155D01*
X+7246619Y+3904557D01*
X+6967221Y+3904557D01*
X+660401Y+8869706D02*
X+660401Y+9164294D01*
X+868706Y+9372599D01*
X+1163294Y+9372599D01*
X+1371599Y+9164294D01*
X+1371599Y+8869706D01*
X+1163294Y+8661401D01*
X+868706Y+8661401D01*
X+660401Y+8869706D01*
X+9042401Y+8869706D02*
X+9042401Y+9164294D01*
X+9250706Y+9372599D01*
X+9545294Y+9372599D01*
X+9753599Y+9164294D01*
X+9753599Y+8869706D01*
X+9545294Y+8661401D01*
X+9250706Y+8661401D01*
X+9042401Y+8869706D01*
X+9359900Y+4429218D02*
X+9359900Y+4460782D01*
X+9382218Y+4483100D01*
X+9413782Y+4483100D01*
X+9436100Y+4460782D01*
X+9436100Y+4429218D01*
X+9413782Y+4406900D01*
X+9382218Y+4406900D01*
X+9359900Y+4429218D01*
X+6946900Y+2270218D02*
X+6946900Y+2301782D01*
X+6969218Y+2324100D01*
X+7000782Y+2324100D01*
X+7023100Y+2301782D01*
X+7023100Y+2270218D01*
X+7000782Y+2247900D01*
X+6969218Y+2247900D01*
X+6946900Y+2270218D01*
X+6842857Y+1879881D02*
X+6842857Y+1911445D01*
X+6865175Y+1933763D01*
X+6896739Y+1933763D01*
X+6919057Y+1911445D01*
X+6919057Y+1879881D01*
X+6896739Y+1857563D01*
X+6865175Y+1857563D01*
X+6842857Y+1879881D01*
X+7271228Y+3683886D02*
X+7271228Y+3715450D01*
X+7293546Y+3737768D01*
X+7325110Y+3737768D01*
X+7347428Y+3715450D01*
X+7347428Y+3683886D01*
X+7325110Y+3661568D01*
X+7293546Y+3661568D01*
X+7271228Y+3683886D01*
X+7266601Y+3310467D02*
X+7266601Y+3342031D01*
X+7288919Y+3364349D01*
X+7320483Y+3364349D01*
X+7342801Y+3342031D01*
X+7342801Y+3310467D01*
X+7320483Y+3288149D01*
X+7288919Y+3288149D01*
X+7266601Y+3310467D01*
X+7079547Y+3348480D02*
X+7079547Y+3380044D01*
X+7101865Y+3402362D01*
X+7133429Y+3402362D01*
X+7155747Y+3380044D01*
X+7155747Y+3348480D01*
X+7133429Y+3326162D01*
X+7101865Y+3326162D01*
X+7079547Y+3348480D01*
X+5137151Y+1511301D02*
X+5270501Y+1511301D01*
X+5270501Y+1492249D01*
X+5078731Y+1492249D01*
X+5078731Y+1301751D01*
X+5335269Y+1301751D01*
X+5335269Y+1333501D01*
X+5360301Y+1333501D01*
X+5397499Y+1370699D01*
X+5397499Y+1511301D01*
X+5397501Y+1511301D01*
X+5397501Y+1370699D01*
X+5434699Y+1333501D01*
X+5459731Y+1333501D01*
X+5459731Y+1301751D01*
X+5713731Y+1301751D01*
X+5713731Y+1202249D01*
X+5459731Y+1202249D01*
X+5459731Y+1011751D01*
X+5475991Y+1011751D01*
X+5429439Y+965199D01*
X+4286439Y+965199D01*
X+4121339Y+800099D01*
X+4069760Y+800099D01*
X+4300462Y+1030801D01*
X+5078731Y+1030801D01*
X+5078731Y+1011751D01*
X+5335269Y+1011751D01*
X+5335269Y+1202249D01*
X+5078731Y+1202249D01*
X+5078731Y+1183199D01*
X+4237340Y+1183199D01*
X+3879801Y+825660D01*
X+3879801Y+800099D01*
X+3832199Y+800099D01*
X+3832199Y+878643D01*
X+3886199Y+932643D01*
X+3886199Y+1011751D01*
X+3938269Y+1011751D01*
X+3938269Y+1166458D01*
X+4192269Y+1166458D01*
X+4192269Y+1356956D01*
X+3938269Y+1356956D01*
X+3938269Y+1466458D01*
X+4192269Y+1466458D01*
X+4192269Y+1656956D01*
X+4058551Y+1656956D01*
X+4001008Y+1714499D01*
X+3879849Y+1714499D01*
X+3879849Y+1768340D01*
X+3981451Y+1768340D01*
X+3981451Y+1727201D01*
X+4146549Y+1727201D01*
X+4146549Y+1768340D01*
X+5137151Y+1768340D01*
X+5137151Y+1511301D01*
X+3359151Y+1511301D02*
X+3492501Y+1511301D01*
X+3492501Y+1492249D01*
X+3300731Y+1492249D01*
X+3300731Y+1301751D01*
X+3557269Y+1301751D01*
X+3557269Y+1333501D01*
X+3582301Y+1333501D01*
X+3619499Y+1370699D01*
X+3619499Y+1511301D01*
X+3619501Y+1511301D01*
X+3619501Y+1370699D01*
X+3656699Y+1333501D01*
X+3681731Y+1333501D01*
X+3681731Y+1301751D01*
X+3935731Y+1301751D01*
X+3935731Y+1202249D01*
X+3681731Y+1202249D01*
X+3681731Y+1011751D01*
X+3733801Y+1011751D01*
X+3733801Y+995765D01*
X+3679801Y+941765D01*
X+3679801Y+800099D01*
X+3632199Y+800099D01*
X+3632199Y+890751D01*
X+3511199Y+1011751D01*
X+3557269Y+1011751D01*
X+3557269Y+1202249D01*
X+3300731Y+1202249D01*
X+3300731Y+1011751D01*
X+3352801Y+1011751D01*
X+3352801Y+954629D01*
X+3479801Y+827629D01*
X+3479801Y+800099D01*
X+3432199Y+800099D01*
X+3432199Y+866561D01*
X+3115561Y+1183199D01*
X+2414269Y+1183199D01*
X+2414269Y+1365249D01*
X+2160269Y+1365249D01*
X+2160269Y+1474751D01*
X+2414269Y+1474751D01*
X+2414269Y+1665249D01*
X+2280551Y+1665249D01*
X+2231302Y+1714498D01*
X+2108199Y+1714498D01*
X+2108199Y+1787390D01*
X+2203451Y+1787390D01*
X+2203451Y+1727201D01*
X+2368549Y+1727201D01*
X+2368549Y+1787390D01*
X+3359151Y+1787390D01*
X+3359151Y+1511301D01*
X+6019801Y+4921439D02*
X+6019801Y+3283274D01*
X+5780667Y+3044140D01*
X+5780667Y+2810697D01*
X+5749170Y+2779199D01*
X+5716269Y+2779199D01*
X+5716269Y+2798249D01*
X+5459731Y+2798249D01*
X+5459731Y+2616199D01*
X+5410199Y+2616199D01*
X+5410199Y+2919731D01*
X+5429249Y+2919731D01*
X+5429249Y+3173731D01*
X+5528751Y+3173731D01*
X+5528751Y+2919731D01*
X+5719249Y+2919731D01*
X+5719249Y+3035489D01*
X+5964199Y+3280439D01*
X+5964199Y+3427731D01*
X+5983249Y+3427731D01*
X+5983249Y+3684269D01*
X+5792751Y+3684269D01*
X+5792751Y+3427731D01*
X+5811801Y+3427731D01*
X+5811801Y+3343561D01*
X+5644509Y+3176269D01*
X+5556249Y+3176269D01*
X+5556249Y+3427731D01*
X+5683249Y+3427731D01*
X+5683249Y+3684269D01*
X+5492751Y+3684269D01*
X+5492751Y+3430269D01*
X+5429249Y+3430269D01*
X+5429249Y+3684269D01*
X+5410199Y+3684269D01*
X+5410199Y+3797301D01*
X+5727699Y+3797301D01*
X+5727699Y+4076699D01*
X+5473699Y+4076699D01*
X+5473699Y+4615737D01*
X+5530135Y+4559301D01*
X+5899865Y+4559301D01*
X+5981699Y+4641135D01*
X+5981699Y+4883865D01*
X+5899865Y+4965699D01*
X+5727699Y+4965699D01*
X+5727699Y+5067301D01*
X+5873939Y+5067301D01*
X+6019801Y+4921439D01*
X+5549900Y+4429218D02*
X+5549900Y+4460782D01*
X+5572218Y+4483100D01*
X+5603782Y+4483100D01*
X+5626100Y+4460782D01*
X+5626100Y+4429218D01*
X+5603782Y+4406900D01*
X+5572218Y+4406900D01*
X+5549900Y+4429218D01*
X+5803900Y+4429218D02*
X+5803900Y+4460782D01*
X+5826218Y+4483100D01*
X+5857782Y+4483100D01*
X+5880100Y+4460782D01*
X+5880100Y+4429218D01*
X+5857782Y+4406900D01*
X+5826218Y+4406900D01*
X+5803900Y+4429218D01*
X+6187301Y+5088939D02*
X+6187301Y+4742734D01*
X+6231937Y+4698098D01*
X+6231939Y+4698098D01*
X+6354801Y+4575236D01*
X+6354801Y+4446269D01*
X+6335751Y+4446269D01*
X+6335751Y+4189731D01*
X+6354801Y+4189731D01*
X+6354801Y+4016315D01*
X+6337301Y+4016315D01*
X+6337301Y+3559117D01*
X+6400801Y+3559117D01*
X+6400801Y+2927349D01*
X+5966651Y+2927349D01*
X+5966651Y+2660651D01*
X+6400801Y+2660651D01*
X+6400801Y+2453574D01*
X+6375401Y+2428174D01*
X+6375401Y+2422355D01*
X+6302255Y+2422355D01*
X+6302255Y+2445002D01*
X+6257619Y+2489638D01*
X+6257617Y+2489638D01*
X+6175694Y+2571561D01*
X+6175694Y+2571563D01*
X+6131058Y+2616199D01*
X+5716269Y+2616199D01*
X+5716269Y+2626801D01*
X+5812295Y+2626801D01*
X+5933065Y+2747571D01*
X+5933065Y+2981018D01*
X+6120773Y+3168726D01*
X+6127563Y+3168726D01*
X+6172199Y+3213362D01*
X+6172199Y+4984561D01*
X+5981699Y+5175061D01*
X+5981699Y+5294541D01*
X+6187301Y+5088939D01*
X+6216036Y+3347004D02*
X+6216036Y+3378568D01*
X+6238354Y+3400886D01*
X+6269918Y+3400886D01*
X+6292236Y+3378568D01*
X+6292236Y+3347004D01*
X+6269918Y+3324686D01*
X+6238354Y+3324686D01*
X+6216036Y+3347004D01*
X+4241801Y+4921439D02*
X+4241801Y+3206561D01*
X+3833489Y+2798249D01*
X+3681731Y+2798249D01*
X+3681731Y+2616199D01*
X+3626454Y+2616199D01*
X+3626454Y+2919731D01*
X+3645504Y+2919731D01*
X+3645504Y+3173731D01*
X+3745006Y+3173731D01*
X+3745006Y+2919731D01*
X+3935504Y+2919731D01*
X+3935504Y+3035489D01*
X+4186199Y+3286184D01*
X+4186199Y+3427731D01*
X+4205249Y+3427731D01*
X+4205249Y+3684269D01*
X+4014751Y+3684269D01*
X+4014751Y+3427731D01*
X+4033801Y+3427731D01*
X+4033801Y+3349306D01*
X+3860764Y+3176269D01*
X+3778249Y+3176269D01*
X+3778249Y+3427731D01*
X+3905249Y+3427731D01*
X+3905249Y+3684269D01*
X+3714751Y+3684269D01*
X+3714751Y+3430269D01*
X+3645504Y+3430269D01*
X+3645504Y+3684269D01*
X+3626454Y+3684269D01*
X+3626454Y+3797301D01*
X+3949699Y+3797301D01*
X+3949699Y+4076699D01*
X+3695699Y+4076699D01*
X+3695699Y+4615737D01*
X+3752135Y+4559301D01*
X+3867865Y+4559301D01*
X+3871638Y+4563074D01*
X+3993592Y+4563074D01*
X+3997365Y+4559301D01*
X+4113095Y+4559301D01*
X+4194929Y+4641135D01*
X+4194929Y+4648681D01*
X+4203699Y+4657451D01*
X+4203699Y+4883865D01*
X+4121865Y+4965699D01*
X+3949699Y+4965699D01*
X+3949699Y+5067301D01*
X+4095939Y+5067301D01*
X+4241801Y+4921439D01*
X+3849598Y+4459284D02*
X+3849598Y+4427720D01*
X+3827280Y+4405402D01*
X+3795716Y+4405402D01*
X+3773398Y+4427720D01*
X+3773398Y+4459284D01*
X+3795716Y+4481602D01*
X+3827280Y+4481602D01*
X+3849598Y+4459284D01*
X+4013518Y+4427720D02*
X+4013518Y+4459284D01*
X+4035836Y+4481602D01*
X+4067400Y+4481602D01*
X+4089718Y+4459284D01*
X+4089718Y+4427720D01*
X+4067400Y+4405402D01*
X+4035836Y+4405402D01*
X+4013518Y+4427720D01*
X+2417460Y+4967780D02*
X+2417460Y+3684269D01*
X+2236751Y+3684269D01*
X+2236751Y+3427731D01*
X+2255801Y+3427731D01*
X+2255801Y+3343561D01*
X+2088509Y+3176269D01*
X+2000249Y+3176269D01*
X+2000249Y+3427731D01*
X+2127249Y+3427731D01*
X+2127249Y+3684269D01*
X+1936751Y+3684269D01*
X+1936751Y+3430269D01*
X+1873249Y+3430269D01*
X+1873249Y+3684269D01*
X+1854199Y+3684269D01*
X+1854199Y+3797301D01*
X+2171699Y+3797301D01*
X+2171699Y+4076699D01*
X+1917699Y+4076699D01*
X+1917699Y+4615737D01*
X+1974135Y+4559301D01*
X+2216865Y+4559301D01*
X+2298699Y+4641135D01*
X+2298699Y+4883865D01*
X+2216865Y+4965699D01*
X+2171699Y+4965699D01*
X+2171699Y+5067301D01*
X+2317939Y+5067301D01*
X+2417460Y+4967780D01*
X+1993900Y+4429218D02*
X+1993900Y+4460782D01*
X+2016218Y+4483100D01*
X+2047782Y+4483100D01*
X+2070100Y+4460782D01*
X+2070100Y+4429218D01*
X+2047782Y+4406900D01*
X+2016218Y+4406900D01*
X+1993900Y+4429218D01*
X+2417460Y+3034204D02*
X+2162455Y+2779199D01*
X+2160269Y+2779199D01*
X+2160269Y+2798249D01*
X+1903731Y+2798249D01*
X+1903731Y+2622956D01*
X+1854199Y+2622956D01*
X+1854199Y+2919731D01*
X+1873249Y+2919731D01*
X+1873249Y+3173731D01*
X+1972751Y+3173731D01*
X+1972751Y+2919731D01*
X+2163249Y+2919731D01*
X+2163249Y+3035489D01*
X+2408199Y+3280439D01*
X+2408199Y+3427731D01*
X+2417460Y+3427731D01*
X+2417460Y+3034204D01*
X+9398000Y+8420099D02*
X+9398000Y+8001000D01*
X+9398000Y+7581901D02*
X+9398000Y+8001000D01*
X+8978901Y+8001000D02*
X+9398000Y+8001000D01*
X+9817099Y+8001000D02*
X+9398000Y+8001000D01*
X+9170100Y+1905000D02*
X+8878001Y+1905000D01*
X+8585902Y+1905000D02*
X+8878001Y+1905000D01*
X+8878001Y+2197099D02*
X+8878001Y+1905000D01*
X+8878001Y+1612901D02*
X+8878001Y+1905000D01*
X+9170099Y+3683000D02*
X+8878000Y+3683000D01*
X+8585901Y+3683000D02*
X+8878000Y+3683000D01*
X+8878000Y+3975099D02*
X+8878000Y+3683000D01*
X+8878000Y+3390901D02*
X+8878000Y+3683000D01*
X+9112249Y+7493000D02*
X+9017000Y+7493000D01*
X+8921751Y+7493000D02*
X+9017000Y+7493000D01*
X+9017000Y+7621269D02*
X+9017000Y+7493000D01*
X+9112249Y+7239000D02*
X+9017000Y+7239000D01*
X+8921751Y+7239000D02*
X+9017000Y+7239000D01*
X+9017000Y+7110731D02*
X+9017000Y+7239000D01*
X+8731249Y+3302000D02*
X+8636000Y+3302000D01*
X+8540751Y+3302000D02*
X+8636000Y+3302000D01*
X+8636000Y+3430269D02*
X+8636000Y+3302000D01*
X+8636000Y+3173731D02*
X+8636000Y+3302000D01*
X+8540751Y+2286000D02*
X+8636000Y+2286000D01*
X+8731249Y+2286000D02*
X+8636000Y+2286000D01*
X+8636000Y+2157731D02*
X+8636000Y+2286000D01*
X+8636000Y+2414269D02*
X+8636000Y+2286000D01*
X+7080249Y+2921000D02*
X+6985000Y+2921000D01*
X+6889751Y+2921000D02*
X+6985000Y+2921000D01*
X+6635751Y+4318000D02*
X+6731000Y+4318000D01*
X+6826249Y+4318000D02*
X+6731000Y+4318000D01*
X+6731000Y+4189731D02*
X+6731000Y+4318000D01*
X+6731000Y+4446269D02*
X+6731000Y+4318000D01*
X+7080249Y+4318000D02*
X+6985000Y+4318000D01*
X+6889751Y+4318000D02*
X+6985000Y+4318000D01*
X+6985000Y+4446269D02*
X+6985000Y+4318000D01*
X+6985000Y+4189731D02*
X+6985000Y+4318000D01*
X+7080249Y+3175000D02*
X+6985000Y+3175000D01*
X+6889751Y+3175000D02*
X+6985000Y+3175000D01*
X+6985000Y+3303269D02*
X+6985000Y+3175000D01*
X+2127249Y+3556000D02*
X+2032000Y+3556000D01*
X+1936751Y+3556000D02*
X+2032000Y+3556000D01*
X+2032000Y+3684269D02*
X+2032000Y+3556000D01*
X+2032000Y+3427731D02*
X+2032000Y+3556000D01*
X+1581151Y+1651000D02*
X+1651000Y+1651000D01*
X+1651000Y+1511301D02*
X+1651000Y+1651000D01*
X+2286000Y+1365249D02*
X+2286000Y+1270000D01*
X+2157731Y+1270000D02*
X+2286000Y+1270000D01*
X+2414269Y+1270000D02*
X+2286000Y+1270000D01*
X+1635511Y+7112000D02*
X+1746000Y+7112000D01*
X+1856489Y+7112000D02*
X+1746000Y+7112000D01*
X+1635511Y+7177000D02*
X+1746000Y+7177000D01*
X+1856489Y+7177000D02*
X+1746000Y+7177000D01*
X+1780751Y+7750000D02*
X+1876000Y+7750000D01*
X+1971249Y+7750000D02*
X+1876000Y+7750000D01*
X+1876000Y+7621731D02*
X+1876000Y+7750000D01*
X+1922000Y+8162751D02*
X+1922000Y+8258000D01*
X+1922000Y+8353249D02*
X+1922000Y+8258000D01*
X+1793731Y+8258000D02*
X+1922000Y+8258000D01*
X+1907751Y+7496000D02*
X+2003000Y+7496000D01*
X+2098249Y+7496000D02*
X+2003000Y+7496000D01*
X+2003000Y+7367731D02*
X+2003000Y+7496000D01*
X+2003000Y+7624269D02*
X+2003000Y+7496000D01*
X+1790751Y+8004000D02*
X+1886000Y+8004000D01*
X+1981249Y+8004000D02*
X+1886000Y+8004000D01*
X+1886000Y+8132269D02*
X+1886000Y+8004000D01*
X+3359151Y+1651000D02*
X+3429000Y+1651000D01*
X+3429000Y+1511301D02*
X+3429000Y+1651000D01*
X+4064000Y+1356956D02*
X+4064000Y+1261707D01*
X+4064000Y+1166458D02*
X+4064000Y+1261707D01*
X+3935731Y+1261707D02*
X+4064000Y+1261707D01*
X+4192269Y+1261707D02*
X+4064000Y+1261707D01*
X+5137151Y+1651000D02*
X+5207000Y+1651000D01*
X+5207000Y+1511301D02*
X+5207000Y+1651000D01*
X+5842000Y+1365249D02*
X+5842000Y+1270000D01*
X+5842000Y+1174751D02*
X+5842000Y+1270000D01*
X+5713731Y+1270000D02*
X+5842000Y+1270000D01*
X+5970269Y+1270000D02*
X+5842000Y+1270000D01*
X+3396511Y+7109000D02*
X+3507000Y+7109000D01*
X+3617489Y+7109000D02*
X+3507000Y+7109000D01*
X+3396511Y+7174000D02*
X+3507000Y+7174000D01*
X+3617489Y+7174000D02*
X+3507000Y+7174000D01*
X+5347511Y+7109000D02*
X+5458000Y+7109000D01*
X+5568489Y+7109000D02*
X+5458000Y+7109000D01*
X+5347511Y+7174000D02*
X+5458000Y+7174000D01*
X+5568489Y+7174000D02*
X+5458000Y+7174000D01*
X+3683000Y+8159751D02*
X+3683000Y+8255000D01*
X+3683000Y+8350249D02*
X+3683000Y+8255000D01*
X+3554731Y+8255000D02*
X+3683000Y+8255000D01*
X+3668751Y+7493000D02*
X+3764000Y+7493000D01*
X+3859249Y+7493000D02*
X+3764000Y+7493000D01*
X+3764000Y+7364731D02*
X+3764000Y+7493000D01*
X+3764000Y+7621269D02*
X+3764000Y+7493000D01*
X+3541751Y+8001000D02*
X+3637000Y+8001000D01*
X+3732249Y+8001000D02*
X+3637000Y+8001000D01*
X+3637000Y+8129269D02*
X+3637000Y+8001000D01*
X+3551751Y+7747000D02*
X+3647000Y+7747000D01*
X+3742249Y+7747000D02*
X+3647000Y+7747000D01*
X+3647000Y+7618731D02*
X+3647000Y+7747000D01*
X+5634000Y+8350249D02*
X+5634000Y+8255000D01*
X+5634000Y+8159751D02*
X+5634000Y+8255000D01*
X+5505731Y+8255000D02*
X+5634000Y+8255000D01*
X+5810249Y+7493000D02*
X+5715000Y+7493000D01*
X+5619751Y+7493000D02*
X+5715000Y+7493000D01*
X+5715000Y+7621269D02*
X+5715000Y+7493000D01*
X+5715000Y+7364731D02*
X+5715000Y+7493000D01*
X+5683249Y+7747000D02*
X+5588000Y+7747000D01*
X+5492751Y+7747000D02*
X+5588000Y+7747000D01*
X+5588000Y+7618731D02*
X+5588000Y+7747000D01*
X+5693249Y+8001000D02*
X+5598000Y+8001000D01*
X+5502751Y+8001000D02*
X+5598000Y+8001000D01*
X+5598000Y+8129269D02*
X+5598000Y+8001000D01*
X+4451299Y+9017000D02*
X+4337000Y+9017000D01*
X+4337000Y+9182099D02*
X+4337000Y+9017000D01*
X+6350000Y+723901D02*
X+6350000Y+889000D01*
X+6350000Y+1054099D02*
X+6350000Y+889000D01*
X+6035701Y+889000D02*
X+6150000Y+889000D01*
X+6150000Y+723901D02*
X+6150000Y+889000D01*
X+6150000Y+1054099D02*
X+6150000Y+889000D01*
X+2171699Y+3937000D02*
X+2032000Y+3937000D01*
X+2032000Y+3797301D02*
X+2032000Y+3937000D01*
X+2032000Y+4076699D02*
X+2032000Y+3937000D01*
X+3949699Y+3937000D02*
X+3810000Y+3937000D01*
X+3810000Y+3797301D02*
X+3810000Y+3937000D01*
X+3810000Y+4076699D02*
X+3810000Y+3937000D01*
X+5727699Y+3937000D02*
X+5588000Y+3937000D01*
X+5588000Y+3797301D02*
X+5588000Y+3937000D01*
X+5588000Y+4076699D02*
X+5588000Y+3937000D01*
X+6985000Y+2527301D02*
X+6985000Y+2667000D01*
X+2000249Y+3302000D02*
X+1905000Y+3302000D01*
X+1905000Y+3430269D02*
X+1905000Y+3302000D01*
X+1905000Y+3173731D02*
X+1905000Y+3302000D01*
X+3778249Y+3302000D02*
X+3683000Y+3302000D01*
X+3683000Y+3173731D02*
X+3683000Y+3302000D01*
X+3683000Y+3430269D02*
X+3683000Y+3302000D01*
X+3905249Y+3556000D02*
X+3810000Y+3556000D01*
X+3714751Y+3556000D02*
X+3810000Y+3556000D01*
X+3810000Y+3684269D02*
X+3810000Y+3556000D01*
X+3810000Y+3427731D02*
X+3810000Y+3556000D01*
X+5683249Y+3556000D02*
X+5588000Y+3556000D01*
X+5492751Y+3556000D02*
X+5588000Y+3556000D01*
X+5588000Y+3684269D02*
X+5588000Y+3556000D01*
X+5588000Y+3427731D02*
X+5588000Y+3556000D01*
X+5556249Y+3302000D02*
X+5461000Y+3302000D01*
X+5461000Y+3173731D02*
X+5461000Y+3302000D01*
X+5461000Y+3430269D02*
X+5461000Y+3302000D01*
X+6752589Y+1397000D02*
X+6670040Y+1397000D01*
X+6587491Y+1397000D02*
X+6670040Y+1397000D01*
X+6670040Y+1485899D02*
X+6670040Y+1397000D01*
X+6670040Y+1308101D02*
X+6670040Y+1397000D01*
X+8255000Y+730249D02*
X+8255000Y+635000D01*
X+8255000Y+539751D02*
X+8255000Y+635000D01*
X+8509000Y+730249D02*
X+8509000Y+635000D01*
X+8509000Y+539751D02*
X+8509000Y+635000D01*
X+8637269Y+635000D02*
X+8509000Y+635000D01*
X+7493000Y+412751D02*
X+7493000Y+508000D01*
X+7364731Y+508000D02*
X+7493000Y+508000D01*
X+7747000Y+412751D02*
X+7747000Y+508000D01*
X+7875269Y+508000D02*
X+7747000Y+508000D01*
X+6488431Y+8826500D02*
X+6570980Y+8826500D01*
X+6653529Y+8826500D02*
X+6570980Y+8826500D01*
X+6570980Y+8737601D02*
X+6570980Y+8826500D01*
X+6570980Y+8915399D02*
X+6570980Y+8826500D01*
X+7106920Y+3904557D02*
X+7106920Y+4018856D01*
X+7106920Y+4133155D02*
X+7106920Y+4018856D01*
X+7246619Y+4018856D02*
X+7106920Y+4018856D01*
X+6967221Y+4018856D02*
X+7106920Y+4018856D01*
X+1009651Y+1655000D02*
X+1143000Y+1655000D01*
X+1276349Y+1655000D02*
X+1143000Y+1655000D01*
X+1143000Y+1521651D02*
X+1143000Y+1655000D01*
X+5966651Y+2794000D02*
X+6100000Y+2794000D01*
X+6100000Y+2660651D02*
X+6100000Y+2794000D01*
X+6100000Y+2927349D02*
X+6100000Y+2794000D01*
D15*
X+7747000Y+8000999D03*
X+9398000Y+8001000D03*
X+8509001Y+8000999D03*
X+8509000Y+5715000D03*
D16*
X+8128000Y+1905000D03*
X+8878001Y+1905000D03*
X+8128000Y+3683000D03*
X+8878000Y+3683000D03*
D72*
X+9017000Y+7493000D03*
X+8717000Y+7493000D03*
X+9017000Y+7239000D03*
X+8717000Y+7239000D03*
D73*
X+6477000Y+8382000D03*
X+6477000Y+8092000D03*
D72*
X+8636000Y+3302000D03*
X+8336000Y+3302000D03*
X+8636000Y+2286000D03*
X+8336000Y+2286000D03*
X+6985000Y+2921000D03*
X+7285000Y+2921000D03*
X+6731000Y+4318000D03*
X+6431000Y+4318000D03*
X+6985000Y+4318000D03*
X+7285000Y+4318000D03*
X+6985000Y+3175000D03*
X+6685000Y+3175000D03*
D30*
X+3048000Y+6985000D03*
X+3048000Y+6096000D03*
D31*
X+2667000Y+6096000D03*
X+2667000Y+6985000D03*
D30*
X+4826000Y+6985000D03*
X+4826000Y+6096000D03*
D31*
X+4445000Y+6096000D03*
X+4445000Y+6985000D03*
D30*
X+1270000Y+6985000D03*
X+1270000Y+6096000D03*
D31*
X+889000Y+6096000D03*
X+889000Y+6985000D03*
D72*
X+2332000Y+3556000D03*
X+2032000Y+3556000D03*
D32*
X+2032000Y+1651000D03*
X+1905000Y+1651000D03*
X+1778000Y+1651000D03*
X+1651000Y+1651000D03*
X+1651000Y+2171700D03*
X+1778000Y+2171700D03*
X+1905000Y+2171700D03*
X+2032000Y+2171700D03*
D73*
X+2286000Y+1570000D03*
X+2286000Y+1270000D03*
D33*
X+2286000Y+1797050D03*
X+2286000Y+2032000D03*
D73*
X+2032000Y+2703000D03*
X+2032000Y+2413000D03*
X+1524000Y+2703000D03*
X+1524000Y+2413000D03*
D34*
X+1746000Y+7047000D03*
X+1746000Y+7112000D03*
X+1746000Y+7177000D03*
X+1746000Y+7242000D03*
X+2176000Y+7242000D03*
X+2176000Y+7177000D03*
X+2176000Y+7112000D03*
X+2176000Y+7047000D03*
D72*
X+1876000Y+7750000D03*
X+2176000Y+7750000D03*
X+1859000Y+6731000D03*
X+2159000Y+6731000D03*
D73*
X+1922000Y+8258000D03*
X+1922000Y+8558000D03*
D72*
X+2003000Y+7496000D03*
X+2303000Y+7496000D03*
D73*
X+2176000Y+8548000D03*
X+2176000Y+8258000D03*
D72*
X+1886000Y+8004000D03*
X+2176000Y+8004000D03*
D32*
X+3810000Y+1651000D03*
X+3683000Y+1651000D03*
X+3556000Y+1651000D03*
X+3429000Y+1651000D03*
X+3429000Y+2171700D03*
X+3556000Y+2171700D03*
X+3683000Y+2171700D03*
X+3810000Y+2171700D03*
D73*
X+3810000Y+2703000D03*
X+3810000Y+2413000D03*
X+3302000Y+2703000D03*
X+3302000Y+2413000D03*
X+4064000Y+1561707D03*
X+4064000Y+1261707D03*
D33*
X+4064000Y+1797050D03*
X+4064000Y+2032000D03*
X+5842000Y+1797050D03*
X+5842000Y+2032000D03*
D32*
X+5588000Y+1651000D03*
X+5461000Y+1651000D03*
X+5334000Y+1651000D03*
X+5207000Y+1651000D03*
X+5207000Y+2171700D03*
X+5334000Y+2171700D03*
X+5461000Y+2171700D03*
X+5588000Y+2171700D03*
D73*
X+5842000Y+1570000D03*
X+5842000Y+1270000D03*
X+5588000Y+2703000D03*
X+5588000Y+2413000D03*
X+5080000Y+2703000D03*
X+5080000Y+2413000D03*
D34*
X+3507000Y+7044000D03*
X+3507000Y+7109000D03*
X+3507000Y+7174000D03*
X+3507000Y+7239000D03*
X+3937000Y+7239000D03*
X+3937000Y+7174000D03*
X+3937000Y+7109000D03*
X+3937000Y+7044000D03*
X+5458000Y+7044000D03*
X+5458000Y+7109000D03*
X+5458000Y+7174000D03*
X+5458000Y+7239000D03*
X+5888000Y+7239000D03*
X+5888000Y+7174000D03*
X+5888000Y+7109000D03*
X+5888000Y+7044000D03*
D73*
X+3683000Y+8255000D03*
X+3683000Y+8555000D03*
D72*
X+3764000Y+7493000D03*
X+4064000Y+7493000D03*
X+3637000Y+8001000D03*
X+3937000Y+8001000D03*
X+3637000Y+6731000D03*
X+3937000Y+6731000D03*
D73*
X+3937000Y+8545000D03*
X+3937000Y+8255000D03*
D72*
X+3647000Y+7747000D03*
X+3937000Y+7747000D03*
D73*
X+5634000Y+8255000D03*
X+5634000Y+8555000D03*
D72*
X+5715000Y+7493000D03*
X+6015000Y+7493000D03*
X+5588000Y+7747000D03*
X+5888000Y+7747000D03*
X+5588000Y+6731000D03*
X+5888000Y+6731000D03*
D73*
X+5888000Y+8555000D03*
X+5888000Y+8265000D03*
D72*
X+5598000Y+8001000D03*
X+5888000Y+8001000D03*
D15*
X+1270000Y+8128000D03*
X+4826000Y+8128000D03*
D73*
X+5588000Y+1397000D03*
X+5588000Y+1107000D03*
X+5207000Y+1397000D03*
X+5207000Y+1107000D03*
X+3810000Y+1397000D03*
X+3810000Y+1107000D03*
X+3429000Y+1397000D03*
X+3429000Y+1107000D03*
X+2032000Y+1397000D03*
X+2032000Y+1107000D03*
X+1651000Y+1397000D03*
X+1651000Y+1107000D03*
D17*
X+3156000Y+635000D03*
X+3356000Y+635000D03*
X+3556000Y+635000D03*
X+3756000Y+635000D03*
X+3956000Y+635000D03*
X+4156000Y+635000D03*
X+3337000Y+9017000D03*
X+3537000Y+9017000D03*
X+3737000Y+9017000D03*
X+3937000Y+9017000D03*
X+4137000Y+9017000D03*
X+4337000Y+9017000D03*
X+7150000Y+889000D03*
X+6950000Y+889000D03*
X+6750000Y+889000D03*
X+6550000Y+889000D03*
X+6350000Y+889000D03*
X+6150000Y+889000D03*
D18*
X+2286000Y+5207000D03*
X+2032000Y+5207000D03*
X+1778000Y+5207000D03*
X+1524000Y+3937000D03*
X+1778000Y+3937000D03*
X+2032000Y+3937000D03*
X+4064000Y+5207000D03*
X+3810000Y+5207000D03*
X+3556000Y+5207000D03*
X+3302000Y+3937000D03*
X+3556000Y+3937000D03*
X+3810000Y+3937000D03*
X+5842000Y+5207000D03*
X+5588000Y+5207000D03*
X+5334000Y+5207000D03*
X+5080000Y+3937000D03*
X+5334000Y+3937000D03*
X+5588000Y+3937000D03*
D15*
X+3048000Y+8128000D03*
D18*
X+7239000Y+2667000D03*
X+6985000Y+2667000D03*
X+6731000Y+2667000D03*
D19*
X+6223000Y+2108056D03*
X+6223000Y+2308056D03*
X+2667000Y+2159000D03*
X+2667000Y+2359000D03*
X+4445000Y+2159000D03*
X+4445000Y+2359000D03*
D72*
X+2032000Y+5588000D03*
X+2332000Y+5588000D03*
X+1778000Y+3556000D03*
X+1478000Y+3556000D03*
D73*
X+2286000Y+5751000D03*
X+2286000Y+6041000D03*
D72*
X+1615000Y+3302000D03*
X+1905000Y+3302000D03*
D73*
X+1778000Y+6051000D03*
X+1778000Y+5751000D03*
X+2032000Y+5751000D03*
X+2032000Y+6041000D03*
D72*
X+1778000Y+3048000D03*
X+2068000Y+3048000D03*
X+3393000Y+3302000D03*
X+3683000Y+3302000D03*
X+3810000Y+5588000D03*
X+4110000Y+5588000D03*
D73*
X+3556226Y+6050774D03*
X+3556226Y+5750774D03*
D72*
X+3550255Y+3556000D03*
X+3250255Y+3556000D03*
X+4110000Y+3556000D03*
X+3810000Y+3556000D03*
D73*
X+4064226Y+5750774D03*
X+4064226Y+6040774D03*
X+3810226Y+5750774D03*
X+3810226Y+6040774D03*
D72*
X+3550255Y+3048000D03*
X+3840255Y+3048000D03*
X+5588000Y+5588000D03*
X+5888000Y+5588000D03*
D73*
X+5334000Y+6051000D03*
X+5334000Y+5751000D03*
D72*
X+5334000Y+3556000D03*
X+5034000Y+3556000D03*
X+5888000Y+3556000D03*
X+5588000Y+3556000D03*
D73*
X+5842000Y+5751000D03*
X+5842000Y+6041000D03*
X+5588000Y+5751000D03*
X+5588000Y+6041000D03*
D72*
X+5171000Y+3302000D03*
X+5461000Y+3302000D03*
X+5334000Y+3048000D03*
X+5624000Y+3048000D03*
D35*
X+6764020Y+1587500D03*
X+6858000Y+1397000D03*
X+6670040Y+1397000D03*
D33*
X+7112000Y+1758950D03*
X+7112000Y+1524000D03*
X+7620000Y+1162050D03*
X+7620000Y+1397000D03*
D73*
X+8255000Y+635000D03*
X+8255000Y+935000D03*
D33*
X+8382000Y+1143000D03*
X+8382000Y+1377950D03*
D73*
X+8001000Y+635000D03*
X+8001000Y+925000D03*
X+8509000Y+635000D03*
X+8509000Y+925000D03*
D35*
X+8001000Y+1143000D03*
X+7907020Y+1333500D03*
X+8094980Y+1333500D03*
D73*
X+7493000Y+508000D03*
X+7493000Y+808000D03*
D33*
X+7493000Y+2032000D03*
X+7493000Y+2266950D03*
D36*
X+7302535Y+2032000D03*
X+7112035Y+1938020D03*
X+7112035Y+2125980D03*
D73*
X+7366000Y+1270000D03*
X+7366000Y+1560000D03*
X+7747000Y+508000D03*
X+7747000Y+798000D03*
D70*
X+9398000Y+762000D03*
X+1016000Y+762000D03*
D35*
X+6477000Y+8636000D03*
X+6383020Y+8826500D03*
X+6570980Y+8826500D03*
D72*
X+7112000Y+6350000D03*
X+6822000Y+6350000D03*
D73*
X+5969000Y+8890000D03*
X+5969000Y+9180000D03*
D18*
X+7239000Y+6985000D03*
X+6985000Y+6985000D03*
X+6731000Y+6985000D03*
X+7239000Y+5207000D03*
X+6985000Y+5207000D03*
X+6731000Y+5207000D03*
D37*
X+7106920Y+4018856D03*
D38*
X+6477000Y+3787716D03*
D37*
X+7106920Y+3787716D03*
X+7106920Y+3556576D03*
D70*
X+1016000Y+9017000D03*
X+9398000Y+9017000D03*
D71*
X+1143000Y+1905000D03*
X+1143000Y+1655000D03*
X+6350000Y+2794000D03*
X+6100000Y+2794000D03*
D20*
X+552000Y+254000D02*
X+9906000Y+254000D01*
X+9906000Y+9525000D01*
X+552000Y+9525000D01*
X+552000Y+254000D01*
M02*
