G04 PROTEUS RS274X GERBER FILE*
%FSLAX45Y45*%
%MOMM*%
G01*
%ADD20C,0.203200*%
%ADD39C,0.120000*%
%ADD40C,0.200000*%
%ADD21C,0.508000*%
%ADD41C,0.152400*%
D20*
X+552000Y+254000D02*
X+9906000Y+254000D01*
X+9906000Y+9525000D01*
X+552000Y+9525000D01*
X+552000Y+254000D01*
X+7874000Y+8000999D02*
X+7873573Y+8011408D01*
X+7870101Y+8032227D01*
X+7862845Y+8053046D01*
X+7851017Y+8073865D01*
X+7832920Y+8094523D01*
X+7812101Y+8110044D01*
X+7791282Y+8120029D01*
X+7770463Y+8125813D01*
X+7749644Y+8127971D01*
X+7747000Y+8127999D01*
X+7620000Y+8000999D02*
X+7620427Y+8011408D01*
X+7623899Y+8032227D01*
X+7631155Y+8053046D01*
X+7642983Y+8073865D01*
X+7661080Y+8094523D01*
X+7681899Y+8110044D01*
X+7702718Y+8120029D01*
X+7723537Y+8125813D01*
X+7744356Y+8127971D01*
X+7747000Y+8127999D01*
X+7620000Y+8000999D02*
X+7620427Y+7990590D01*
X+7623899Y+7969771D01*
X+7631155Y+7948952D01*
X+7642983Y+7928133D01*
X+7661080Y+7907475D01*
X+7681899Y+7891954D01*
X+7702718Y+7881969D01*
X+7723537Y+7876185D01*
X+7744356Y+7874027D01*
X+7747000Y+7873999D01*
X+7874000Y+8000999D02*
X+7873573Y+7990590D01*
X+7870101Y+7969771D01*
X+7862845Y+7948952D01*
X+7851017Y+7928133D01*
X+7832920Y+7907475D01*
X+7812101Y+7891954D01*
X+7791282Y+7881969D01*
X+7770463Y+7876185D01*
X+7749644Y+7874027D01*
X+7747000Y+7873999D01*
X+7810500Y+8000999D02*
X+7810283Y+8006246D01*
X+7808518Y+8016741D01*
X+7804826Y+8027236D01*
X+7798798Y+8037731D01*
X+7789576Y+8048111D01*
X+7779081Y+8055799D01*
X+7768586Y+8060717D01*
X+7758091Y+8063523D01*
X+7747596Y+8064496D01*
X+7747000Y+8064499D01*
X+7683500Y+8000999D02*
X+7683717Y+8006246D01*
X+7685482Y+8016741D01*
X+7689174Y+8027236D01*
X+7695202Y+8037731D01*
X+7704424Y+8048111D01*
X+7714919Y+8055799D01*
X+7725414Y+8060717D01*
X+7735909Y+8063523D01*
X+7746404Y+8064496D01*
X+7747000Y+8064499D01*
X+7683500Y+8000999D02*
X+7683717Y+7995752D01*
X+7685482Y+7985257D01*
X+7689174Y+7974762D01*
X+7695202Y+7964267D01*
X+7704424Y+7953887D01*
X+7714919Y+7946199D01*
X+7725414Y+7941281D01*
X+7735909Y+7938475D01*
X+7746404Y+7937502D01*
X+7747000Y+7937499D01*
X+7810500Y+8000999D02*
X+7810283Y+7995752D01*
X+7808518Y+7985257D01*
X+7804826Y+7974762D01*
X+7798798Y+7964267D01*
X+7789576Y+7953887D01*
X+7779081Y+7946199D01*
X+7768586Y+7941281D01*
X+7758091Y+7938475D01*
X+7747596Y+7937502D01*
X+7747000Y+7937499D01*
X+9525000Y+8001000D02*
X+9524573Y+8011409D01*
X+9521101Y+8032228D01*
X+9513845Y+8053047D01*
X+9502017Y+8073866D01*
X+9483920Y+8094524D01*
X+9463101Y+8110045D01*
X+9442282Y+8120030D01*
X+9421463Y+8125814D01*
X+9400644Y+8127972D01*
X+9398000Y+8128000D01*
X+9271000Y+8001000D02*
X+9271427Y+8011409D01*
X+9274899Y+8032228D01*
X+9282155Y+8053047D01*
X+9293983Y+8073866D01*
X+9312080Y+8094524D01*
X+9332899Y+8110045D01*
X+9353718Y+8120030D01*
X+9374537Y+8125814D01*
X+9395356Y+8127972D01*
X+9398000Y+8128000D01*
X+9271000Y+8001000D02*
X+9271427Y+7990591D01*
X+9274899Y+7969772D01*
X+9282155Y+7948953D01*
X+9293983Y+7928134D01*
X+9312080Y+7907476D01*
X+9332899Y+7891955D01*
X+9353718Y+7881970D01*
X+9374537Y+7876186D01*
X+9395356Y+7874028D01*
X+9398000Y+7874000D01*
X+9525000Y+8001000D02*
X+9524573Y+7990591D01*
X+9521101Y+7969772D01*
X+9513845Y+7948953D01*
X+9502017Y+7928134D01*
X+9483920Y+7907476D01*
X+9463101Y+7891955D01*
X+9442282Y+7881970D01*
X+9421463Y+7876186D01*
X+9400644Y+7874028D01*
X+9398000Y+7874000D01*
X+9461500Y+8001000D02*
X+9461283Y+8006247D01*
X+9459518Y+8016742D01*
X+9455826Y+8027237D01*
X+9449798Y+8037732D01*
X+9440576Y+8048112D01*
X+9430081Y+8055800D01*
X+9419586Y+8060718D01*
X+9409091Y+8063524D01*
X+9398596Y+8064497D01*
X+9398000Y+8064500D01*
X+9334500Y+8001000D02*
X+9334717Y+8006247D01*
X+9336482Y+8016742D01*
X+9340174Y+8027237D01*
X+9346202Y+8037732D01*
X+9355424Y+8048112D01*
X+9365919Y+8055800D01*
X+9376414Y+8060718D01*
X+9386909Y+8063524D01*
X+9397404Y+8064497D01*
X+9398000Y+8064500D01*
X+9334500Y+8001000D02*
X+9334717Y+7995753D01*
X+9336482Y+7985258D01*
X+9340174Y+7974763D01*
X+9346202Y+7964268D01*
X+9355424Y+7953888D01*
X+9365919Y+7946200D01*
X+9376414Y+7941282D01*
X+9386909Y+7938476D01*
X+9397404Y+7937503D01*
X+9398000Y+7937500D01*
X+9461500Y+8001000D02*
X+9461283Y+7995753D01*
X+9459518Y+7985258D01*
X+9455826Y+7974763D01*
X+9449798Y+7964268D01*
X+9440576Y+7953888D01*
X+9430081Y+7946200D01*
X+9419586Y+7941282D01*
X+9409091Y+7938476D01*
X+9398596Y+7937503D01*
X+9398000Y+7937500D01*
X+9500902Y+6857999D02*
X+9498202Y+6931136D01*
X+9476330Y+7077411D01*
X+9431032Y+7223686D01*
X+9358567Y+7369961D01*
X+9251020Y+7516236D01*
X+9107249Y+7649180D01*
X+8960974Y+7740942D01*
X+8814699Y+7801618D01*
X+8668424Y+7837005D01*
X+8522149Y+7849813D01*
X+8509001Y+7849900D01*
X+7517100Y+6857999D02*
X+7519800Y+6931136D01*
X+7541672Y+7077411D01*
X+7586970Y+7223686D01*
X+7659435Y+7369961D01*
X+7766982Y+7516236D01*
X+7910753Y+7649180D01*
X+8057028Y+7740942D01*
X+8203303Y+7801618D01*
X+8349578Y+7837005D01*
X+8495853Y+7849813D01*
X+8509001Y+7849900D01*
X+7517100Y+6857999D02*
X+7519800Y+6784862D01*
X+7541672Y+6638587D01*
X+7586970Y+6492312D01*
X+7659435Y+6346037D01*
X+7766982Y+6199762D01*
X+7910753Y+6066818D01*
X+8057028Y+5975056D01*
X+8203303Y+5914380D01*
X+8349578Y+5878993D01*
X+8495853Y+5866185D01*
X+8509001Y+5866098D01*
X+9500902Y+6857999D02*
X+9498202Y+6784862D01*
X+9476330Y+6638587D01*
X+9431032Y+6492312D01*
X+9358567Y+6346037D01*
X+9251020Y+6199762D01*
X+9107249Y+6066818D01*
X+8960974Y+5975056D01*
X+8814699Y+5914380D01*
X+8668424Y+5878993D01*
X+8522149Y+5866185D01*
X+8509001Y+5866098D01*
D39*
X+9303000Y+1905000D02*
X+9300722Y+1965332D01*
X+9282256Y+2085997D01*
X+9243945Y+2206662D01*
X+9182441Y+2327327D01*
X+9090503Y+2447992D01*
X+8970714Y+2554033D01*
X+8850049Y+2625803D01*
X+8729384Y+2672301D01*
X+8608719Y+2697984D01*
X+8503000Y+2705000D01*
X+7703000Y+1905000D02*
X+7705278Y+1965332D01*
X+7723744Y+2085997D01*
X+7762055Y+2206662D01*
X+7823559Y+2327327D01*
X+7915497Y+2447992D01*
X+8035286Y+2554033D01*
X+8155951Y+2625803D01*
X+8276616Y+2672301D01*
X+8397281Y+2697984D01*
X+8503000Y+2705000D01*
X+7703000Y+1905000D02*
X+7705278Y+1844668D01*
X+7723744Y+1724003D01*
X+7762055Y+1603338D01*
X+7823559Y+1482673D01*
X+7915497Y+1362008D01*
X+8035286Y+1255967D01*
X+8155951Y+1184197D01*
X+8276616Y+1137699D01*
X+8397281Y+1112016D01*
X+8503000Y+1105000D01*
X+9303000Y+1905000D02*
X+9300722Y+1844668D01*
X+9282256Y+1724003D01*
X+9243945Y+1603338D01*
X+9182441Y+1482673D01*
X+9090503Y+1362008D01*
X+8970714Y+1255967D01*
X+8850049Y+1184197D01*
X+8729384Y+1137699D01*
X+8608719Y+1112016D01*
X+8503000Y+1105000D01*
D40*
X+7925000Y+2493000D02*
X+7924965Y+2493831D01*
X+7924684Y+2495495D01*
X+7924094Y+2497159D01*
X+7923130Y+2498823D01*
X+7921655Y+2500464D01*
X+7919991Y+2501665D01*
X+7918327Y+2502430D01*
X+7916663Y+2502861D01*
X+7915000Y+2503000D01*
X+7905000Y+2493000D02*
X+7905035Y+2493831D01*
X+7905316Y+2495495D01*
X+7905906Y+2497159D01*
X+7906870Y+2498823D01*
X+7908345Y+2500464D01*
X+7910009Y+2501665D01*
X+7911673Y+2502430D01*
X+7913337Y+2502861D01*
X+7915000Y+2503000D01*
X+7905000Y+2493000D02*
X+7905035Y+2492169D01*
X+7905316Y+2490505D01*
X+7905906Y+2488841D01*
X+7906870Y+2487177D01*
X+7908345Y+2485536D01*
X+7910009Y+2484335D01*
X+7911673Y+2483570D01*
X+7913337Y+2483139D01*
X+7915000Y+2483000D01*
X+7925000Y+2493000D02*
X+7924965Y+2492169D01*
X+7924684Y+2490505D01*
X+7924094Y+2488841D01*
X+7923130Y+2487177D01*
X+7921655Y+2485536D01*
X+7919991Y+2484335D01*
X+7918327Y+2483570D01*
X+7916663Y+2483139D01*
X+7915000Y+2483000D01*
D39*
X+9303000Y+3683000D02*
X+9300722Y+3743332D01*
X+9282256Y+3863997D01*
X+9243945Y+3984662D01*
X+9182441Y+4105327D01*
X+9090503Y+4225992D01*
X+8970714Y+4332033D01*
X+8850049Y+4403803D01*
X+8729384Y+4450301D01*
X+8608719Y+4475984D01*
X+8503000Y+4483000D01*
X+7703000Y+3683000D02*
X+7705278Y+3743332D01*
X+7723744Y+3863997D01*
X+7762055Y+3984662D01*
X+7823559Y+4105327D01*
X+7915497Y+4225992D01*
X+8035286Y+4332033D01*
X+8155951Y+4403803D01*
X+8276616Y+4450301D01*
X+8397281Y+4475984D01*
X+8503000Y+4483000D01*
X+7703000Y+3683000D02*
X+7705278Y+3622668D01*
X+7723744Y+3502003D01*
X+7762055Y+3381338D01*
X+7823559Y+3260673D01*
X+7915497Y+3140008D01*
X+8035286Y+3033967D01*
X+8155951Y+2962197D01*
X+8276616Y+2915699D01*
X+8397281Y+2890016D01*
X+8503000Y+2883000D01*
X+9303000Y+3683000D02*
X+9300722Y+3622668D01*
X+9282256Y+3502003D01*
X+9243945Y+3381338D01*
X+9182441Y+3260673D01*
X+9090503Y+3140008D01*
X+8970714Y+3033967D01*
X+8850049Y+2962197D01*
X+8729384Y+2915699D01*
X+8608719Y+2890016D01*
X+8503000Y+2883000D01*
D40*
X+7925000Y+4271000D02*
X+7924965Y+4271831D01*
X+7924684Y+4273495D01*
X+7924094Y+4275159D01*
X+7923130Y+4276823D01*
X+7921655Y+4278464D01*
X+7919991Y+4279665D01*
X+7918327Y+4280430D01*
X+7916663Y+4280861D01*
X+7915000Y+4281000D01*
X+7905000Y+4271000D02*
X+7905035Y+4271831D01*
X+7905316Y+4273495D01*
X+7905906Y+4275159D01*
X+7906870Y+4276823D01*
X+7908345Y+4278464D01*
X+7910009Y+4279665D01*
X+7911673Y+4280430D01*
X+7913337Y+4280861D01*
X+7915000Y+4281000D01*
X+7905000Y+4271000D02*
X+7905035Y+4270169D01*
X+7905316Y+4268505D01*
X+7905906Y+4266841D01*
X+7906870Y+4265177D01*
X+7908345Y+4263536D01*
X+7910009Y+4262335D01*
X+7911673Y+4261570D01*
X+7913337Y+4261139D01*
X+7915000Y+4261000D01*
X+7925000Y+4271000D02*
X+7924965Y+4270169D01*
X+7924684Y+4268505D01*
X+7924094Y+4266841D01*
X+7923130Y+4265177D01*
X+7921655Y+4263536D01*
X+7919991Y+4262335D01*
X+7918327Y+4261570D01*
X+7916663Y+4261139D01*
X+7915000Y+4261000D01*
D20*
X+1397000Y+8128000D02*
X+1396573Y+8138409D01*
X+1393101Y+8159228D01*
X+1385845Y+8180047D01*
X+1374017Y+8200866D01*
X+1355920Y+8221524D01*
X+1335101Y+8237045D01*
X+1314282Y+8247030D01*
X+1293463Y+8252814D01*
X+1272644Y+8254972D01*
X+1270000Y+8255000D01*
X+1143000Y+8128000D02*
X+1143427Y+8138409D01*
X+1146899Y+8159228D01*
X+1154155Y+8180047D01*
X+1165983Y+8200866D01*
X+1184080Y+8221524D01*
X+1204899Y+8237045D01*
X+1225718Y+8247030D01*
X+1246537Y+8252814D01*
X+1267356Y+8254972D01*
X+1270000Y+8255000D01*
X+1143000Y+8128000D02*
X+1143427Y+8117591D01*
X+1146899Y+8096772D01*
X+1154155Y+8075953D01*
X+1165983Y+8055134D01*
X+1184080Y+8034476D01*
X+1204899Y+8018955D01*
X+1225718Y+8008970D01*
X+1246537Y+8003186D01*
X+1267356Y+8001028D01*
X+1270000Y+8001000D01*
X+1397000Y+8128000D02*
X+1396573Y+8117591D01*
X+1393101Y+8096772D01*
X+1385845Y+8075953D01*
X+1374017Y+8055134D01*
X+1355920Y+8034476D01*
X+1335101Y+8018955D01*
X+1314282Y+8008970D01*
X+1293463Y+8003186D01*
X+1272644Y+8001028D01*
X+1270000Y+8001000D01*
X+1333500Y+8128000D02*
X+1333283Y+8133247D01*
X+1331518Y+8143742D01*
X+1327826Y+8154237D01*
X+1321798Y+8164732D01*
X+1312576Y+8175112D01*
X+1302081Y+8182800D01*
X+1291586Y+8187718D01*
X+1281091Y+8190524D01*
X+1270596Y+8191497D01*
X+1270000Y+8191500D01*
X+1206500Y+8128000D02*
X+1206717Y+8133247D01*
X+1208482Y+8143742D01*
X+1212174Y+8154237D01*
X+1218202Y+8164732D01*
X+1227424Y+8175112D01*
X+1237919Y+8182800D01*
X+1248414Y+8187718D01*
X+1258909Y+8190524D01*
X+1269404Y+8191497D01*
X+1270000Y+8191500D01*
X+1206500Y+8128000D02*
X+1206717Y+8122753D01*
X+1208482Y+8112258D01*
X+1212174Y+8101763D01*
X+1218202Y+8091268D01*
X+1227424Y+8080888D01*
X+1237919Y+8073200D01*
X+1248414Y+8068282D01*
X+1258909Y+8065476D01*
X+1269404Y+8064503D01*
X+1270000Y+8064500D01*
X+1333500Y+8128000D02*
X+1333283Y+8122753D01*
X+1331518Y+8112258D01*
X+1327826Y+8101763D01*
X+1321798Y+8091268D01*
X+1312576Y+8080888D01*
X+1302081Y+8073200D01*
X+1291586Y+8068282D01*
X+1281091Y+8065476D01*
X+1270596Y+8064503D01*
X+1270000Y+8064500D01*
X+1079500Y+8582396D02*
X+1079500Y+8673836D01*
X+1158875Y+8673836D01*
X+1174750Y+8658596D01*
X+1174750Y+8643356D01*
X+1158875Y+8628116D01*
X+1079500Y+8628116D01*
X+1206500Y+8582396D02*
X+1206500Y+8673836D01*
X+1301750Y+8673836D02*
X+1301750Y+8582396D01*
X+1206500Y+8628116D02*
X+1301750Y+8628116D01*
X+1365250Y+8643356D02*
X+1397000Y+8673836D01*
X+1397000Y+8582396D01*
X+4953000Y+8128000D02*
X+4952573Y+8138409D01*
X+4949101Y+8159228D01*
X+4941845Y+8180047D01*
X+4930017Y+8200866D01*
X+4911920Y+8221524D01*
X+4891101Y+8237045D01*
X+4870282Y+8247030D01*
X+4849463Y+8252814D01*
X+4828644Y+8254972D01*
X+4826000Y+8255000D01*
X+4699000Y+8128000D02*
X+4699427Y+8138409D01*
X+4702899Y+8159228D01*
X+4710155Y+8180047D01*
X+4721983Y+8200866D01*
X+4740080Y+8221524D01*
X+4760899Y+8237045D01*
X+4781718Y+8247030D01*
X+4802537Y+8252814D01*
X+4823356Y+8254972D01*
X+4826000Y+8255000D01*
X+4699000Y+8128000D02*
X+4699427Y+8117591D01*
X+4702899Y+8096772D01*
X+4710155Y+8075953D01*
X+4721983Y+8055134D01*
X+4740080Y+8034476D01*
X+4760899Y+8018955D01*
X+4781718Y+8008970D01*
X+4802537Y+8003186D01*
X+4823356Y+8001028D01*
X+4826000Y+8001000D01*
X+4953000Y+8128000D02*
X+4952573Y+8117591D01*
X+4949101Y+8096772D01*
X+4941845Y+8075953D01*
X+4930017Y+8055134D01*
X+4911920Y+8034476D01*
X+4891101Y+8018955D01*
X+4870282Y+8008970D01*
X+4849463Y+8003186D01*
X+4828644Y+8001028D01*
X+4826000Y+8001000D01*
X+4889500Y+8128000D02*
X+4889283Y+8133247D01*
X+4887518Y+8143742D01*
X+4883826Y+8154237D01*
X+4877798Y+8164732D01*
X+4868576Y+8175112D01*
X+4858081Y+8182800D01*
X+4847586Y+8187718D01*
X+4837091Y+8190524D01*
X+4826596Y+8191497D01*
X+4826000Y+8191500D01*
X+4762500Y+8128000D02*
X+4762717Y+8133247D01*
X+4764482Y+8143742D01*
X+4768174Y+8154237D01*
X+4774202Y+8164732D01*
X+4783424Y+8175112D01*
X+4793919Y+8182800D01*
X+4804414Y+8187718D01*
X+4814909Y+8190524D01*
X+4825404Y+8191497D01*
X+4826000Y+8191500D01*
X+4762500Y+8128000D02*
X+4762717Y+8122753D01*
X+4764482Y+8112258D01*
X+4768174Y+8101763D01*
X+4774202Y+8091268D01*
X+4783424Y+8080888D01*
X+4793919Y+8073200D01*
X+4804414Y+8068282D01*
X+4814909Y+8065476D01*
X+4825404Y+8064503D01*
X+4826000Y+8064500D01*
X+4889500Y+8128000D02*
X+4889283Y+8122753D01*
X+4887518Y+8112258D01*
X+4883826Y+8101763D01*
X+4877798Y+8091268D01*
X+4868576Y+8080888D01*
X+4858081Y+8073200D01*
X+4847586Y+8068282D01*
X+4837091Y+8065476D01*
X+4826596Y+8064503D01*
X+4826000Y+8064500D01*
X+4635500Y+8582396D02*
X+4635500Y+8673836D01*
X+4714875Y+8673836D01*
X+4730750Y+8658596D01*
X+4730750Y+8643356D01*
X+4714875Y+8628116D01*
X+4635500Y+8628116D01*
X+4762500Y+8582396D02*
X+4762500Y+8673836D01*
X+4857750Y+8673836D02*
X+4857750Y+8582396D01*
X+4762500Y+8628116D02*
X+4857750Y+8628116D01*
X+4905375Y+8658596D02*
X+4921250Y+8673836D01*
X+4968875Y+8673836D01*
X+4984750Y+8658596D01*
X+4984750Y+8643356D01*
X+4968875Y+8628116D01*
X+4984750Y+8612876D01*
X+4984750Y+8597636D01*
X+4968875Y+8582396D01*
X+4921250Y+8582396D01*
X+4905375Y+8597636D01*
X+4937125Y+8628116D02*
X+4968875Y+8628116D01*
D21*
X+3194100Y+444500D02*
X+3193969Y+447658D01*
X+3192903Y+453976D01*
X+3190672Y+460294D01*
X+3187027Y+466612D01*
X+3181452Y+472851D01*
X+3175134Y+477447D01*
X+3168816Y+480380D01*
X+3162498Y+482042D01*
X+3156180Y+482600D01*
X+3156000Y+482600D01*
X+3117900Y+444500D02*
X+3118031Y+447658D01*
X+3119097Y+453976D01*
X+3121328Y+460294D01*
X+3124973Y+466612D01*
X+3130548Y+472851D01*
X+3136866Y+477447D01*
X+3143184Y+480380D01*
X+3149502Y+482042D01*
X+3155820Y+482600D01*
X+3156000Y+482600D01*
X+3117900Y+444500D02*
X+3118031Y+441342D01*
X+3119097Y+435024D01*
X+3121328Y+428706D01*
X+3124973Y+422388D01*
X+3130548Y+416149D01*
X+3136866Y+411553D01*
X+3143184Y+408620D01*
X+3149502Y+406958D01*
X+3155820Y+406400D01*
X+3156000Y+406400D01*
X+3194100Y+444500D02*
X+3193969Y+441342D01*
X+3192903Y+435024D01*
X+3190672Y+428706D01*
X+3187027Y+422388D01*
X+3181452Y+416149D01*
X+3175134Y+411553D01*
X+3168816Y+408620D01*
X+3162498Y+406958D01*
X+3156180Y+406400D01*
X+3156000Y+406400D01*
D41*
X+3007030Y+534340D02*
X+3133593Y+534340D01*
X+4304970Y+534340D02*
X+4304970Y+735000D01*
X+4181191Y+735000D01*
X+3007030Y+735000D02*
X+3007030Y+534340D01*
X+4178407Y+534340D02*
X+4304970Y+534340D01*
X+4130809Y+735000D02*
X+3981191Y+735000D01*
X+3978407Y+534340D02*
X+4133593Y+534340D01*
X+3930809Y+735000D02*
X+3781191Y+735000D01*
X+3778407Y+534340D02*
X+3933593Y+534340D01*
X+3730809Y+735000D02*
X+3581191Y+735000D01*
X+3578407Y+534340D02*
X+3733593Y+534340D01*
X+3530809Y+735000D02*
X+3381191Y+735000D01*
X+3378407Y+534340D02*
X+3533593Y+534340D01*
X+3330809Y+735000D02*
X+3181191Y+735000D01*
X+3130809Y+735000D02*
X+3007030Y+735000D01*
X+3178407Y+534340D02*
X+3333593Y+534340D01*
D20*
X+3529000Y+773100D02*
X+3529000Y+864540D01*
X+3608375Y+864540D01*
X+3624250Y+849300D01*
X+3624250Y+834060D01*
X+3608375Y+818820D01*
X+3529000Y+818820D01*
X+3656000Y+773100D02*
X+3656000Y+864540D01*
X+3751250Y+864540D02*
X+3751250Y+773100D01*
X+3656000Y+818820D02*
X+3751250Y+818820D01*
D21*
X+3375100Y+8826500D02*
X+3374969Y+8829658D01*
X+3373903Y+8835976D01*
X+3371672Y+8842294D01*
X+3368027Y+8848612D01*
X+3362452Y+8854851D01*
X+3356134Y+8859447D01*
X+3349816Y+8862380D01*
X+3343498Y+8864042D01*
X+3337180Y+8864600D01*
X+3337000Y+8864600D01*
X+3298900Y+8826500D02*
X+3299031Y+8829658D01*
X+3300097Y+8835976D01*
X+3302328Y+8842294D01*
X+3305973Y+8848612D01*
X+3311548Y+8854851D01*
X+3317866Y+8859447D01*
X+3324184Y+8862380D01*
X+3330502Y+8864042D01*
X+3336820Y+8864600D01*
X+3337000Y+8864600D01*
X+3298900Y+8826500D02*
X+3299031Y+8823342D01*
X+3300097Y+8817024D01*
X+3302328Y+8810706D01*
X+3305973Y+8804388D01*
X+3311548Y+8798149D01*
X+3317866Y+8793553D01*
X+3324184Y+8790620D01*
X+3330502Y+8788958D01*
X+3336820Y+8788400D01*
X+3337000Y+8788400D01*
X+3375100Y+8826500D02*
X+3374969Y+8823342D01*
X+3373903Y+8817024D01*
X+3371672Y+8810706D01*
X+3368027Y+8804388D01*
X+3362452Y+8798149D01*
X+3356134Y+8793553D01*
X+3349816Y+8790620D01*
X+3343498Y+8788958D01*
X+3337180Y+8788400D01*
X+3337000Y+8788400D01*
D41*
X+3188030Y+8916340D02*
X+3314593Y+8916340D01*
X+4485970Y+8916340D02*
X+4485970Y+9117000D01*
X+4362191Y+9117000D01*
X+3188030Y+9117000D02*
X+3188030Y+8916340D01*
X+4359407Y+8916340D02*
X+4485970Y+8916340D01*
X+4311809Y+9117000D02*
X+4162191Y+9117000D01*
X+4159407Y+8916340D02*
X+4314593Y+8916340D01*
X+4111809Y+9117000D02*
X+3962191Y+9117000D01*
X+3959407Y+8916340D02*
X+4114593Y+8916340D01*
X+3911809Y+9117000D02*
X+3762191Y+9117000D01*
X+3759407Y+8916340D02*
X+3914593Y+8916340D01*
X+3711809Y+9117000D02*
X+3562191Y+9117000D01*
X+3559407Y+8916340D02*
X+3714593Y+8916340D01*
X+3511809Y+9117000D02*
X+3362191Y+9117000D01*
X+3311809Y+9117000D02*
X+3188030Y+9117000D01*
X+3359407Y+8916340D02*
X+3514593Y+8916340D01*
D20*
X+3710000Y+9170340D02*
X+3725875Y+9155100D01*
X+3789375Y+9155100D01*
X+3805250Y+9170340D01*
X+3805250Y+9185580D01*
X+3789375Y+9200820D01*
X+3725875Y+9200820D01*
X+3710000Y+9216060D01*
X+3710000Y+9231300D01*
X+3725875Y+9246540D01*
X+3789375Y+9246540D01*
X+3805250Y+9231300D01*
X+3837000Y+9246540D02*
X+3837000Y+9155100D01*
X+3884625Y+9200820D01*
X+3932250Y+9155100D01*
X+3932250Y+9246540D01*
D21*
X+7188100Y+1079500D02*
X+7187969Y+1082658D01*
X+7186903Y+1088976D01*
X+7184672Y+1095294D01*
X+7181027Y+1101612D01*
X+7175452Y+1107851D01*
X+7169134Y+1112447D01*
X+7162816Y+1115380D01*
X+7156498Y+1117042D01*
X+7150180Y+1117600D01*
X+7150000Y+1117600D01*
X+7111900Y+1079500D02*
X+7112031Y+1082658D01*
X+7113097Y+1088976D01*
X+7115328Y+1095294D01*
X+7118973Y+1101612D01*
X+7124548Y+1107851D01*
X+7130866Y+1112447D01*
X+7137184Y+1115380D01*
X+7143502Y+1117042D01*
X+7149820Y+1117600D01*
X+7150000Y+1117600D01*
X+7111900Y+1079500D02*
X+7112031Y+1076342D01*
X+7113097Y+1070024D01*
X+7115328Y+1063706D01*
X+7118973Y+1057388D01*
X+7124548Y+1051149D01*
X+7130866Y+1046553D01*
X+7137184Y+1043620D01*
X+7143502Y+1041958D01*
X+7149820Y+1041400D01*
X+7150000Y+1041400D01*
X+7188100Y+1079500D02*
X+7187969Y+1076342D01*
X+7186903Y+1070024D01*
X+7184672Y+1063706D01*
X+7181027Y+1057388D01*
X+7175452Y+1051149D01*
X+7169134Y+1046553D01*
X+7162816Y+1043620D01*
X+7156498Y+1041958D01*
X+7150180Y+1041400D01*
X+7150000Y+1041400D01*
D41*
X+7298970Y+989660D02*
X+7172407Y+989660D01*
X+6001030Y+989660D02*
X+6001030Y+789000D01*
X+6124809Y+789000D01*
X+7298970Y+789000D02*
X+7298970Y+989660D01*
X+6127593Y+989660D02*
X+6001030Y+989660D01*
X+6175191Y+789000D02*
X+6324809Y+789000D01*
X+6327593Y+989660D02*
X+6172407Y+989660D01*
X+6375191Y+789000D02*
X+6524809Y+789000D01*
X+6527593Y+989660D02*
X+6372407Y+989660D01*
X+6575191Y+789000D02*
X+6724809Y+789000D01*
X+6727593Y+989660D02*
X+6572407Y+989660D01*
X+6775191Y+789000D02*
X+6924809Y+789000D01*
X+6927593Y+989660D02*
X+6772407Y+989660D01*
X+6975191Y+789000D02*
X+7124809Y+789000D01*
X+7175191Y+789000D02*
X+7298970Y+789000D01*
X+7127593Y+989660D02*
X+6972407Y+989660D01*
D20*
X+6459500Y+659460D02*
X+6459500Y+750900D01*
X+6507125Y+705180D01*
X+6554750Y+750900D01*
X+6554750Y+659460D01*
X+6586500Y+720420D02*
X+6618250Y+750900D01*
X+6650000Y+750900D01*
X+6681750Y+720420D01*
X+6681750Y+689940D01*
X+6650000Y+659460D01*
X+6618250Y+659460D01*
X+6586500Y+689940D01*
X+6586500Y+720420D01*
X+6713500Y+659460D02*
X+6713500Y+750900D01*
X+6808750Y+659460D01*
X+6808750Y+750900D01*
X+1651000Y+5080000D02*
X+2413000Y+5080000D01*
X+2413000Y+5334000D01*
X+1651000Y+5334000D01*
X+1651000Y+5080000D01*
X+2413000Y+5080000D02*
X+2413000Y+4953000D01*
X+1651000Y+4953000D01*
X+1651000Y+5080000D01*
X+2413000Y+5080000D02*
X+2286000Y+4953000D01*
X+2286000Y+5080000D02*
X+2159000Y+4953000D01*
X+2159000Y+5080000D02*
X+2032000Y+4953000D01*
X+2032000Y+5080000D02*
X+1905000Y+4953000D01*
X+1905000Y+5080000D02*
X+1778000Y+4953000D01*
X+1778000Y+5080000D02*
X+1651000Y+4953000D01*
X+1778000Y+4881880D02*
X+1809750Y+4912360D01*
X+1841500Y+4912360D01*
X+1873250Y+4881880D01*
X+1873250Y+4851400D01*
X+1841500Y+4820920D01*
X+1809750Y+4820920D01*
X+1778000Y+4851400D01*
X+1778000Y+4881880D01*
X+1841500Y+4851400D02*
X+1873250Y+4820920D01*
X+2000250Y+4851400D02*
X+1905000Y+4851400D01*
X+1968500Y+4912360D01*
X+1968500Y+4820920D01*
X+2032000Y+4836160D02*
X+2032000Y+4897120D01*
X+2047875Y+4912360D01*
X+2111375Y+4912360D01*
X+2127250Y+4897120D01*
X+2127250Y+4836160D01*
X+2111375Y+4820920D01*
X+2047875Y+4820920D01*
X+2032000Y+4836160D01*
X+2032000Y+4820920D02*
X+2127250Y+4912360D01*
X+2190750Y+4881880D02*
X+2222500Y+4912360D01*
X+2222500Y+4820920D01*
X+1397000Y+3810000D02*
X+2159000Y+3810000D01*
X+2159000Y+4064000D01*
X+1397000Y+4064000D01*
X+1397000Y+3810000D01*
X+1397000Y+4064000D02*
X+1397000Y+4191000D01*
X+2159000Y+4191000D01*
X+2159000Y+4064000D01*
X+1397000Y+4064000D02*
X+1524000Y+4191000D01*
X+1524000Y+4064000D02*
X+1651000Y+4191000D01*
X+1651000Y+4064000D02*
X+1778000Y+4191000D01*
X+1778000Y+4064000D02*
X+1905000Y+4191000D01*
X+1905000Y+4064000D02*
X+2032000Y+4191000D01*
X+2032000Y+4064000D02*
X+2159000Y+4191000D01*
X+1524000Y+4292600D02*
X+1555750Y+4323080D01*
X+1587500Y+4323080D01*
X+1619250Y+4292600D01*
X+1619250Y+4262120D01*
X+1587500Y+4231640D01*
X+1555750Y+4231640D01*
X+1524000Y+4262120D01*
X+1524000Y+4292600D01*
X+1587500Y+4262120D02*
X+1619250Y+4231640D01*
X+1746250Y+4262120D02*
X+1651000Y+4262120D01*
X+1714500Y+4323080D01*
X+1714500Y+4231640D01*
X+1778000Y+4246880D02*
X+1778000Y+4307840D01*
X+1793875Y+4323080D01*
X+1857375Y+4323080D01*
X+1873250Y+4307840D01*
X+1873250Y+4246880D01*
X+1857375Y+4231640D01*
X+1793875Y+4231640D01*
X+1778000Y+4246880D01*
X+1778000Y+4231640D02*
X+1873250Y+4323080D01*
X+1920875Y+4307840D02*
X+1936750Y+4323080D01*
X+1984375Y+4323080D01*
X+2000250Y+4307840D01*
X+2000250Y+4292600D01*
X+1984375Y+4277360D01*
X+1936750Y+4277360D01*
X+1920875Y+4262120D01*
X+1920875Y+4231640D01*
X+2000250Y+4231640D01*
X+3429000Y+5080000D02*
X+4191000Y+5080000D01*
X+4191000Y+5334000D01*
X+3429000Y+5334000D01*
X+3429000Y+5080000D01*
X+4191000Y+5080000D02*
X+4191000Y+4953000D01*
X+3429000Y+4953000D01*
X+3429000Y+5080000D01*
X+4191000Y+5080000D02*
X+4064000Y+4953000D01*
X+4064000Y+5080000D02*
X+3937000Y+4953000D01*
X+3937000Y+5080000D02*
X+3810000Y+4953000D01*
X+3810000Y+5080000D02*
X+3683000Y+4953000D01*
X+3683000Y+5080000D02*
X+3556000Y+4953000D01*
X+3556000Y+5080000D02*
X+3429000Y+4953000D01*
X+3556000Y+4881880D02*
X+3587750Y+4912360D01*
X+3619500Y+4912360D01*
X+3651250Y+4881880D01*
X+3651250Y+4851400D01*
X+3619500Y+4820920D01*
X+3587750Y+4820920D01*
X+3556000Y+4851400D01*
X+3556000Y+4881880D01*
X+3619500Y+4851400D02*
X+3651250Y+4820920D01*
X+3778250Y+4912360D02*
X+3698875Y+4912360D01*
X+3698875Y+4881880D01*
X+3762375Y+4881880D01*
X+3778250Y+4866640D01*
X+3778250Y+4836160D01*
X+3762375Y+4820920D01*
X+3714750Y+4820920D01*
X+3698875Y+4836160D01*
X+3810000Y+4836160D02*
X+3810000Y+4897120D01*
X+3825875Y+4912360D01*
X+3889375Y+4912360D01*
X+3905250Y+4897120D01*
X+3905250Y+4836160D01*
X+3889375Y+4820920D01*
X+3825875Y+4820920D01*
X+3810000Y+4836160D01*
X+3810000Y+4820920D02*
X+3905250Y+4912360D01*
X+3968750Y+4881880D02*
X+4000500Y+4912360D01*
X+4000500Y+4820920D01*
X+3175000Y+3810000D02*
X+3937000Y+3810000D01*
X+3937000Y+4064000D01*
X+3175000Y+4064000D01*
X+3175000Y+3810000D01*
X+3175000Y+4064000D02*
X+3175000Y+4191000D01*
X+3937000Y+4191000D01*
X+3937000Y+4064000D01*
X+3175000Y+4064000D02*
X+3302000Y+4191000D01*
X+3302000Y+4064000D02*
X+3429000Y+4191000D01*
X+3429000Y+4064000D02*
X+3556000Y+4191000D01*
X+3556000Y+4064000D02*
X+3683000Y+4191000D01*
X+3683000Y+4064000D02*
X+3810000Y+4191000D01*
X+3810000Y+4064000D02*
X+3937000Y+4191000D01*
X+3302000Y+4292600D02*
X+3333750Y+4323080D01*
X+3365500Y+4323080D01*
X+3397250Y+4292600D01*
X+3397250Y+4262120D01*
X+3365500Y+4231640D01*
X+3333750Y+4231640D01*
X+3302000Y+4262120D01*
X+3302000Y+4292600D01*
X+3365500Y+4262120D02*
X+3397250Y+4231640D01*
X+3524250Y+4323080D02*
X+3444875Y+4323080D01*
X+3444875Y+4292600D01*
X+3508375Y+4292600D01*
X+3524250Y+4277360D01*
X+3524250Y+4246880D01*
X+3508375Y+4231640D01*
X+3460750Y+4231640D01*
X+3444875Y+4246880D01*
X+3556000Y+4246880D02*
X+3556000Y+4307840D01*
X+3571875Y+4323080D01*
X+3635375Y+4323080D01*
X+3651250Y+4307840D01*
X+3651250Y+4246880D01*
X+3635375Y+4231640D01*
X+3571875Y+4231640D01*
X+3556000Y+4246880D01*
X+3556000Y+4231640D02*
X+3651250Y+4323080D01*
X+3698875Y+4307840D02*
X+3714750Y+4323080D01*
X+3762375Y+4323080D01*
X+3778250Y+4307840D01*
X+3778250Y+4292600D01*
X+3762375Y+4277360D01*
X+3714750Y+4277360D01*
X+3698875Y+4262120D01*
X+3698875Y+4231640D01*
X+3778250Y+4231640D01*
X+5207000Y+5080000D02*
X+5969000Y+5080000D01*
X+5969000Y+5334000D01*
X+5207000Y+5334000D01*
X+5207000Y+5080000D01*
X+5969000Y+5080000D02*
X+5969000Y+4953000D01*
X+5207000Y+4953000D01*
X+5207000Y+5080000D01*
X+5969000Y+5080000D02*
X+5842000Y+4953000D01*
X+5842000Y+5080000D02*
X+5715000Y+4953000D01*
X+5715000Y+5080000D02*
X+5588000Y+4953000D01*
X+5588000Y+5080000D02*
X+5461000Y+4953000D01*
X+5461000Y+5080000D02*
X+5334000Y+4953000D01*
X+5334000Y+5080000D02*
X+5207000Y+4953000D01*
X+5334000Y+4881880D02*
X+5365750Y+4912360D01*
X+5397500Y+4912360D01*
X+5429250Y+4881880D01*
X+5429250Y+4851400D01*
X+5397500Y+4820920D01*
X+5365750Y+4820920D01*
X+5334000Y+4851400D01*
X+5334000Y+4881880D01*
X+5397500Y+4851400D02*
X+5429250Y+4820920D01*
X+5556250Y+4897120D02*
X+5540375Y+4912360D01*
X+5492750Y+4912360D01*
X+5476875Y+4897120D01*
X+5476875Y+4836160D01*
X+5492750Y+4820920D01*
X+5540375Y+4820920D01*
X+5556250Y+4836160D01*
X+5556250Y+4851400D01*
X+5540375Y+4866640D01*
X+5476875Y+4866640D01*
X+5588000Y+4836160D02*
X+5588000Y+4897120D01*
X+5603875Y+4912360D01*
X+5667375Y+4912360D01*
X+5683250Y+4897120D01*
X+5683250Y+4836160D01*
X+5667375Y+4820920D01*
X+5603875Y+4820920D01*
X+5588000Y+4836160D01*
X+5588000Y+4820920D02*
X+5683250Y+4912360D01*
X+5746750Y+4881880D02*
X+5778500Y+4912360D01*
X+5778500Y+4820920D01*
X+4953000Y+3810000D02*
X+5715000Y+3810000D01*
X+5715000Y+4064000D01*
X+4953000Y+4064000D01*
X+4953000Y+3810000D01*
X+4953000Y+4064000D02*
X+4953000Y+4191000D01*
X+5715000Y+4191000D01*
X+5715000Y+4064000D01*
X+4953000Y+4064000D02*
X+5080000Y+4191000D01*
X+5080000Y+4064000D02*
X+5207000Y+4191000D01*
X+5207000Y+4064000D02*
X+5334000Y+4191000D01*
X+5334000Y+4064000D02*
X+5461000Y+4191000D01*
X+5461000Y+4064000D02*
X+5588000Y+4191000D01*
X+5588000Y+4064000D02*
X+5715000Y+4191000D01*
X+5080000Y+4292600D02*
X+5111750Y+4323080D01*
X+5143500Y+4323080D01*
X+5175250Y+4292600D01*
X+5175250Y+4262120D01*
X+5143500Y+4231640D01*
X+5111750Y+4231640D01*
X+5080000Y+4262120D01*
X+5080000Y+4292600D01*
X+5143500Y+4262120D02*
X+5175250Y+4231640D01*
X+5302250Y+4307840D02*
X+5286375Y+4323080D01*
X+5238750Y+4323080D01*
X+5222875Y+4307840D01*
X+5222875Y+4246880D01*
X+5238750Y+4231640D01*
X+5286375Y+4231640D01*
X+5302250Y+4246880D01*
X+5302250Y+4262120D01*
X+5286375Y+4277360D01*
X+5222875Y+4277360D01*
X+5334000Y+4246880D02*
X+5334000Y+4307840D01*
X+5349875Y+4323080D01*
X+5413375Y+4323080D01*
X+5429250Y+4307840D01*
X+5429250Y+4246880D01*
X+5413375Y+4231640D01*
X+5349875Y+4231640D01*
X+5334000Y+4246880D01*
X+5334000Y+4231640D02*
X+5429250Y+4323080D01*
X+5476875Y+4307840D02*
X+5492750Y+4323080D01*
X+5540375Y+4323080D01*
X+5556250Y+4307840D01*
X+5556250Y+4292600D01*
X+5540375Y+4277360D01*
X+5492750Y+4277360D01*
X+5476875Y+4262120D01*
X+5476875Y+4231640D01*
X+5556250Y+4231640D01*
X+3175000Y+8128000D02*
X+3174573Y+8138409D01*
X+3171101Y+8159228D01*
X+3163845Y+8180047D01*
X+3152017Y+8200866D01*
X+3133920Y+8221524D01*
X+3113101Y+8237045D01*
X+3092282Y+8247030D01*
X+3071463Y+8252814D01*
X+3050644Y+8254972D01*
X+3048000Y+8255000D01*
X+2921000Y+8128000D02*
X+2921427Y+8138409D01*
X+2924899Y+8159228D01*
X+2932155Y+8180047D01*
X+2943983Y+8200866D01*
X+2962080Y+8221524D01*
X+2982899Y+8237045D01*
X+3003718Y+8247030D01*
X+3024537Y+8252814D01*
X+3045356Y+8254972D01*
X+3048000Y+8255000D01*
X+2921000Y+8128000D02*
X+2921427Y+8117591D01*
X+2924899Y+8096772D01*
X+2932155Y+8075953D01*
X+2943983Y+8055134D01*
X+2962080Y+8034476D01*
X+2982899Y+8018955D01*
X+3003718Y+8008970D01*
X+3024537Y+8003186D01*
X+3045356Y+8001028D01*
X+3048000Y+8001000D01*
X+3175000Y+8128000D02*
X+3174573Y+8117591D01*
X+3171101Y+8096772D01*
X+3163845Y+8075953D01*
X+3152017Y+8055134D01*
X+3133920Y+8034476D01*
X+3113101Y+8018955D01*
X+3092282Y+8008970D01*
X+3071463Y+8003186D01*
X+3050644Y+8001028D01*
X+3048000Y+8001000D01*
X+3111500Y+8128000D02*
X+3111283Y+8133247D01*
X+3109518Y+8143742D01*
X+3105826Y+8154237D01*
X+3099798Y+8164732D01*
X+3090576Y+8175112D01*
X+3080081Y+8182800D01*
X+3069586Y+8187718D01*
X+3059091Y+8190524D01*
X+3048596Y+8191497D01*
X+3048000Y+8191500D01*
X+2984500Y+8128000D02*
X+2984717Y+8133247D01*
X+2986482Y+8143742D01*
X+2990174Y+8154237D01*
X+2996202Y+8164732D01*
X+3005424Y+8175112D01*
X+3015919Y+8182800D01*
X+3026414Y+8187718D01*
X+3036909Y+8190524D01*
X+3047404Y+8191497D01*
X+3048000Y+8191500D01*
X+2984500Y+8128000D02*
X+2984717Y+8122753D01*
X+2986482Y+8112258D01*
X+2990174Y+8101763D01*
X+2996202Y+8091268D01*
X+3005424Y+8080888D01*
X+3015919Y+8073200D01*
X+3026414Y+8068282D01*
X+3036909Y+8065476D01*
X+3047404Y+8064503D01*
X+3048000Y+8064500D01*
X+3111500Y+8128000D02*
X+3111283Y+8122753D01*
X+3109518Y+8112258D01*
X+3105826Y+8101763D01*
X+3099798Y+8091268D01*
X+3090576Y+8080888D01*
X+3080081Y+8073200D01*
X+3069586Y+8068282D01*
X+3059091Y+8065476D01*
X+3048596Y+8064503D01*
X+3048000Y+8064500D01*
X+2857500Y+8549640D02*
X+2857500Y+8641080D01*
X+2936875Y+8641080D01*
X+2952750Y+8625840D01*
X+2952750Y+8610600D01*
X+2936875Y+8595360D01*
X+2857500Y+8595360D01*
X+2984500Y+8549640D02*
X+2984500Y+8641080D01*
X+3079750Y+8641080D02*
X+3079750Y+8549640D01*
X+2984500Y+8595360D02*
X+3079750Y+8595360D01*
X+3127375Y+8625840D02*
X+3143250Y+8641080D01*
X+3190875Y+8641080D01*
X+3206750Y+8625840D01*
X+3206750Y+8610600D01*
X+3190875Y+8595360D01*
X+3143250Y+8595360D01*
X+3127375Y+8580120D01*
X+3127375Y+8549640D01*
X+3206750Y+8549640D01*
X+6604000Y+2540000D02*
X+7366000Y+2540000D01*
X+7366000Y+2794000D01*
X+6604000Y+2794000D01*
X+6604000Y+2540000D01*
X+7366000Y+2540000D02*
X+7366000Y+2413000D01*
X+6604000Y+2413000D01*
X+6604000Y+2540000D01*
X+7366000Y+2540000D02*
X+7239000Y+2413000D01*
X+7239000Y+2540000D02*
X+7112000Y+2413000D01*
X+7112000Y+2540000D02*
X+6985000Y+2413000D01*
X+6985000Y+2540000D02*
X+6858000Y+2413000D01*
X+6858000Y+2540000D02*
X+6731000Y+2413000D01*
X+6731000Y+2540000D02*
X+6604000Y+2413000D01*
X+6858000Y+2372360D02*
X+6858000Y+2296160D01*
X+6873875Y+2280920D01*
X+6937375Y+2280920D01*
X+6953250Y+2296160D01*
X+6953250Y+2372360D01*
X+7080250Y+2311400D02*
X+6985000Y+2311400D01*
X+7048500Y+2372360D01*
X+7048500Y+2280920D01*
D39*
X+6473000Y+2208056D02*
X+6472185Y+2228227D01*
X+6465566Y+2268570D01*
X+6451753Y+2308913D01*
X+6429307Y+2349256D01*
X+6395010Y+2389474D01*
X+6354667Y+2420574D01*
X+6314324Y+2440779D01*
X+6273981Y+2452803D01*
X+6233638Y+2457830D01*
X+6223000Y+2458056D01*
X+5973000Y+2208056D02*
X+5973815Y+2228227D01*
X+5980434Y+2268570D01*
X+5994247Y+2308913D01*
X+6016693Y+2349256D01*
X+6050990Y+2389474D01*
X+6091333Y+2420574D01*
X+6131676Y+2440779D01*
X+6172019Y+2452803D01*
X+6212362Y+2457830D01*
X+6223000Y+2458056D01*
X+5973000Y+2208056D02*
X+5973815Y+2187885D01*
X+5980434Y+2147542D01*
X+5994247Y+2107199D01*
X+6016693Y+2066856D01*
X+6050990Y+2026638D01*
X+6091333Y+1995538D01*
X+6131676Y+1975333D01*
X+6172019Y+1963309D01*
X+6212362Y+1958282D01*
X+6223000Y+1958056D01*
X+6473000Y+2208056D02*
X+6472185Y+2187885D01*
X+6465566Y+2147542D01*
X+6451753Y+2107199D01*
X+6429307Y+2066856D01*
X+6395010Y+2026638D01*
X+6354667Y+1995538D01*
X+6314324Y+1975333D01*
X+6273981Y+1963309D01*
X+6233638Y+1958282D01*
X+6223000Y+1958056D01*
D40*
X+6034000Y+2009056D02*
X+6033965Y+2009887D01*
X+6033684Y+2011551D01*
X+6033094Y+2013215D01*
X+6032130Y+2014879D01*
X+6030655Y+2016520D01*
X+6028991Y+2017721D01*
X+6027327Y+2018486D01*
X+6025663Y+2018917D01*
X+6024000Y+2019056D01*
X+6014000Y+2009056D02*
X+6014035Y+2009887D01*
X+6014316Y+2011551D01*
X+6014906Y+2013215D01*
X+6015870Y+2014879D01*
X+6017345Y+2016520D01*
X+6019009Y+2017721D01*
X+6020673Y+2018486D01*
X+6022337Y+2018917D01*
X+6024000Y+2019056D01*
X+6014000Y+2009056D02*
X+6014035Y+2008225D01*
X+6014316Y+2006561D01*
X+6014906Y+2004897D01*
X+6015870Y+2003233D01*
X+6017345Y+2001592D01*
X+6019009Y+2000391D01*
X+6020673Y+1999626D01*
X+6022337Y+1999195D01*
X+6024000Y+1999056D01*
X+6034000Y+2009056D02*
X+6033965Y+2008225D01*
X+6033684Y+2006561D01*
X+6033094Y+2004897D01*
X+6032130Y+2003233D01*
X+6030655Y+2001592D01*
X+6028991Y+2000391D01*
X+6027327Y+1999626D01*
X+6025663Y+1999195D01*
X+6024000Y+1999056D01*
D20*
X+5921280Y+2112806D02*
X+5936520Y+2096931D01*
X+5936520Y+2049306D01*
X+5906040Y+2017556D01*
X+5875560Y+2017556D01*
X+5845080Y+2049306D01*
X+5845080Y+2096931D01*
X+5860320Y+2112806D01*
X+5875560Y+2176306D02*
X+5845080Y+2208056D01*
X+5936520Y+2208056D01*
X+5875560Y+2366806D02*
X+5890800Y+2350931D01*
X+5890800Y+2303306D01*
X+5875560Y+2287431D01*
X+5860320Y+2287431D01*
X+5845080Y+2303306D01*
X+5845080Y+2350931D01*
X+5860320Y+2366806D01*
X+5921280Y+2366806D01*
X+5936520Y+2350931D01*
X+5936520Y+2303306D01*
D39*
X+2917000Y+2259000D02*
X+2916185Y+2279171D01*
X+2909566Y+2319514D01*
X+2895753Y+2359857D01*
X+2873307Y+2400200D01*
X+2839010Y+2440418D01*
X+2798667Y+2471518D01*
X+2758324Y+2491723D01*
X+2717981Y+2503747D01*
X+2677638Y+2508774D01*
X+2667000Y+2509000D01*
X+2417000Y+2259000D02*
X+2417815Y+2279171D01*
X+2424434Y+2319514D01*
X+2438247Y+2359857D01*
X+2460693Y+2400200D01*
X+2494990Y+2440418D01*
X+2535333Y+2471518D01*
X+2575676Y+2491723D01*
X+2616019Y+2503747D01*
X+2656362Y+2508774D01*
X+2667000Y+2509000D01*
X+2417000Y+2259000D02*
X+2417815Y+2238829D01*
X+2424434Y+2198486D01*
X+2438247Y+2158143D01*
X+2460693Y+2117800D01*
X+2494990Y+2077582D01*
X+2535333Y+2046482D01*
X+2575676Y+2026277D01*
X+2616019Y+2014253D01*
X+2656362Y+2009226D01*
X+2667000Y+2009000D01*
X+2917000Y+2259000D02*
X+2916185Y+2238829D01*
X+2909566Y+2198486D01*
X+2895753Y+2158143D01*
X+2873307Y+2117800D01*
X+2839010Y+2077582D01*
X+2798667Y+2046482D01*
X+2758324Y+2026277D01*
X+2717981Y+2014253D01*
X+2677638Y+2009226D01*
X+2667000Y+2009000D01*
D40*
X+2478000Y+2060000D02*
X+2477965Y+2060831D01*
X+2477684Y+2062495D01*
X+2477094Y+2064159D01*
X+2476130Y+2065823D01*
X+2474655Y+2067464D01*
X+2472991Y+2068665D01*
X+2471327Y+2069430D01*
X+2469663Y+2069861D01*
X+2468000Y+2070000D01*
X+2458000Y+2060000D02*
X+2458035Y+2060831D01*
X+2458316Y+2062495D01*
X+2458906Y+2064159D01*
X+2459870Y+2065823D01*
X+2461345Y+2067464D01*
X+2463009Y+2068665D01*
X+2464673Y+2069430D01*
X+2466337Y+2069861D01*
X+2468000Y+2070000D01*
X+2458000Y+2060000D02*
X+2458035Y+2059169D01*
X+2458316Y+2057505D01*
X+2458906Y+2055841D01*
X+2459870Y+2054177D01*
X+2461345Y+2052536D01*
X+2463009Y+2051335D01*
X+2464673Y+2050570D01*
X+2466337Y+2050139D01*
X+2468000Y+2050000D01*
X+2478000Y+2060000D02*
X+2477965Y+2059169D01*
X+2477684Y+2057505D01*
X+2477094Y+2055841D01*
X+2476130Y+2054177D01*
X+2474655Y+2052536D01*
X+2472991Y+2051335D01*
X+2471327Y+2050570D01*
X+2469663Y+2050139D01*
X+2468000Y+2050000D01*
D20*
X+2365280Y+2163750D02*
X+2380520Y+2147875D01*
X+2380520Y+2100250D01*
X+2350040Y+2068500D01*
X+2319560Y+2068500D01*
X+2289080Y+2100250D01*
X+2289080Y+2147875D01*
X+2304320Y+2163750D01*
X+2304320Y+2211375D02*
X+2289080Y+2227250D01*
X+2289080Y+2274875D01*
X+2304320Y+2290750D01*
X+2319560Y+2290750D01*
X+2334800Y+2274875D01*
X+2334800Y+2227250D01*
X+2350040Y+2211375D01*
X+2380520Y+2211375D01*
X+2380520Y+2290750D01*
X+2365280Y+2322500D02*
X+2304320Y+2322500D01*
X+2289080Y+2338375D01*
X+2289080Y+2401875D01*
X+2304320Y+2417750D01*
X+2365280Y+2417750D01*
X+2380520Y+2401875D01*
X+2380520Y+2338375D01*
X+2365280Y+2322500D01*
X+2380520Y+2322500D02*
X+2289080Y+2417750D01*
D39*
X+4695000Y+2259000D02*
X+4694185Y+2279171D01*
X+4687566Y+2319514D01*
X+4673753Y+2359857D01*
X+4651307Y+2400200D01*
X+4617010Y+2440418D01*
X+4576667Y+2471518D01*
X+4536324Y+2491723D01*
X+4495981Y+2503747D01*
X+4455638Y+2508774D01*
X+4445000Y+2509000D01*
X+4195000Y+2259000D02*
X+4195815Y+2279171D01*
X+4202434Y+2319514D01*
X+4216247Y+2359857D01*
X+4238693Y+2400200D01*
X+4272990Y+2440418D01*
X+4313333Y+2471518D01*
X+4353676Y+2491723D01*
X+4394019Y+2503747D01*
X+4434362Y+2508774D01*
X+4445000Y+2509000D01*
X+4195000Y+2259000D02*
X+4195815Y+2238829D01*
X+4202434Y+2198486D01*
X+4216247Y+2158143D01*
X+4238693Y+2117800D01*
X+4272990Y+2077582D01*
X+4313333Y+2046482D01*
X+4353676Y+2026277D01*
X+4394019Y+2014253D01*
X+4434362Y+2009226D01*
X+4445000Y+2009000D01*
X+4695000Y+2259000D02*
X+4694185Y+2238829D01*
X+4687566Y+2198486D01*
X+4673753Y+2158143D01*
X+4651307Y+2117800D01*
X+4617010Y+2077582D01*
X+4576667Y+2046482D01*
X+4536324Y+2026277D01*
X+4495981Y+2014253D01*
X+4455638Y+2009226D01*
X+4445000Y+2009000D01*
D40*
X+4256000Y+2060000D02*
X+4255965Y+2060831D01*
X+4255684Y+2062495D01*
X+4255094Y+2064159D01*
X+4254130Y+2065823D01*
X+4252655Y+2067464D01*
X+4250991Y+2068665D01*
X+4249327Y+2069430D01*
X+4247663Y+2069861D01*
X+4246000Y+2070000D01*
X+4236000Y+2060000D02*
X+4236035Y+2060831D01*
X+4236316Y+2062495D01*
X+4236906Y+2064159D01*
X+4237870Y+2065823D01*
X+4239345Y+2067464D01*
X+4241009Y+2068665D01*
X+4242673Y+2069430D01*
X+4244337Y+2069861D01*
X+4246000Y+2070000D01*
X+4236000Y+2060000D02*
X+4236035Y+2059169D01*
X+4236316Y+2057505D01*
X+4236906Y+2055841D01*
X+4237870Y+2054177D01*
X+4239345Y+2052536D01*
X+4241009Y+2051335D01*
X+4242673Y+2050570D01*
X+4244337Y+2050139D01*
X+4246000Y+2050000D01*
X+4256000Y+2060000D02*
X+4255965Y+2059169D01*
X+4255684Y+2057505D01*
X+4255094Y+2055841D01*
X+4254130Y+2054177D01*
X+4252655Y+2052536D01*
X+4250991Y+2051335D01*
X+4249327Y+2050570D01*
X+4247663Y+2050139D01*
X+4246000Y+2050000D01*
D20*
X+4143280Y+2163750D02*
X+4158520Y+2147875D01*
X+4158520Y+2100250D01*
X+4128040Y+2068500D01*
X+4097560Y+2068500D01*
X+4067080Y+2100250D01*
X+4067080Y+2147875D01*
X+4082320Y+2163750D01*
X+4082320Y+2211375D02*
X+4067080Y+2227250D01*
X+4067080Y+2274875D01*
X+4082320Y+2290750D01*
X+4097560Y+2290750D01*
X+4112800Y+2274875D01*
X+4112800Y+2227250D01*
X+4128040Y+2211375D01*
X+4158520Y+2211375D01*
X+4158520Y+2290750D01*
X+4097560Y+2354250D02*
X+4067080Y+2386000D01*
X+4158520Y+2386000D01*
X+10414000Y+9525000D02*
X+10414000Y+254000D01*
X+10414000Y+9525000D02*
X+10287000Y+9398000D01*
X+10414000Y+9525000D02*
X+10541000Y+9398000D01*
X+10414000Y+254000D02*
X+10541000Y+381000D01*
X+10414000Y+254000D02*
X+10287000Y+381000D01*
X+10445750Y+4889500D02*
X+10445641Y+4892134D01*
X+10444751Y+4897403D01*
X+10442889Y+4902672D01*
X+10439846Y+4907941D01*
X+10435191Y+4913143D01*
X+10429922Y+4916969D01*
X+10424653Y+4919409D01*
X+10419384Y+4920790D01*
X+10414115Y+4921250D01*
X+10414000Y+4921250D01*
X+10382250Y+4889500D02*
X+10382359Y+4892134D01*
X+10383249Y+4897403D01*
X+10385111Y+4902672D01*
X+10388154Y+4907941D01*
X+10392809Y+4913143D01*
X+10398078Y+4916969D01*
X+10403347Y+4919409D01*
X+10408616Y+4920790D01*
X+10413885Y+4921250D01*
X+10414000Y+4921250D01*
X+10382250Y+4889500D02*
X+10382359Y+4886866D01*
X+10383249Y+4881597D01*
X+10385111Y+4876328D01*
X+10388154Y+4871059D01*
X+10392809Y+4865857D01*
X+10398078Y+4862031D01*
X+10403347Y+4859591D01*
X+10408616Y+4858210D01*
X+10413885Y+4857750D01*
X+10414000Y+4857750D01*
X+10445750Y+4889500D02*
X+10445641Y+4886866D01*
X+10444751Y+4881597D01*
X+10442889Y+4876328D01*
X+10439846Y+4871059D01*
X+10435191Y+4865857D01*
X+10429922Y+4862031D01*
X+10424653Y+4859591D01*
X+10419384Y+4858210D01*
X+10414115Y+4857750D01*
X+10414000Y+4857750D01*
X+10530840Y+5254625D02*
X+10546080Y+5238750D01*
X+10546080Y+5191125D01*
X+10530840Y+5175250D01*
X+10515600Y+5175250D01*
X+10500360Y+5191125D01*
X+10485120Y+5175250D01*
X+10469880Y+5175250D01*
X+10454640Y+5191125D01*
X+10454640Y+5238750D01*
X+10469880Y+5254625D01*
X+10500360Y+5222875D02*
X+10500360Y+5191125D01*
X+10530840Y+5048250D02*
X+10546080Y+5064125D01*
X+10546080Y+5111750D01*
X+10530840Y+5127625D01*
X+10469880Y+5127625D01*
X+10454640Y+5111750D01*
X+10454640Y+5064125D01*
X+10469880Y+5048250D01*
X+10485120Y+5048250D01*
X+10500360Y+5064125D01*
X+10500360Y+5127625D01*
X+10546080Y+4921250D02*
X+10546080Y+5000625D01*
X+10515600Y+5000625D01*
X+10515600Y+4937125D01*
X+10500360Y+4921250D01*
X+10469880Y+4921250D01*
X+10454640Y+4937125D01*
X+10454640Y+4984750D01*
X+10469880Y+5000625D01*
X+10469880Y+4889500D02*
X+10530840Y+4889500D01*
X+10546080Y+4873625D01*
X+10546080Y+4810125D01*
X+10530840Y+4794250D01*
X+10469880Y+4794250D01*
X+10454640Y+4810125D01*
X+10454640Y+4873625D01*
X+10469880Y+4889500D01*
X+10454640Y+4889500D02*
X+10546080Y+4794250D01*
X+10546080Y+4746625D02*
X+10469880Y+4746625D01*
X+10454640Y+4730750D01*
X+10454640Y+4683125D01*
X+10469880Y+4667250D01*
X+10515600Y+4762500D02*
X+10515600Y+4683125D01*
X+10454640Y+4540250D02*
X+10500360Y+4540250D01*
X+10515600Y+4556125D01*
X+10515600Y+4619625D01*
X+10500360Y+4635500D01*
X+10546080Y+4635500D02*
X+10454640Y+4635500D01*
X+508000Y+0D02*
X+9906000Y+0D01*
X+508000Y+0D02*
X+635000Y-127000D01*
X+508000Y+0D02*
X+635000Y+127000D01*
X+9906000Y+0D02*
X+9779000Y+127000D01*
X+9906000Y+0D02*
X+9779000Y-127000D01*
X+5238750Y+0D02*
X+5238641Y+2634D01*
X+5237751Y+7903D01*
X+5235889Y+13172D01*
X+5232846Y+18441D01*
X+5228191Y+23643D01*
X+5222922Y+27469D01*
X+5217653Y+29909D01*
X+5212384Y+31290D01*
X+5207115Y+31750D01*
X+5207000Y+31750D01*
X+5175250Y+0D02*
X+5175359Y+2634D01*
X+5176249Y+7903D01*
X+5178111Y+13172D01*
X+5181154Y+18441D01*
X+5185809Y+23643D01*
X+5191078Y+27469D01*
X+5196347Y+29909D01*
X+5201616Y+31290D01*
X+5206885Y+31750D01*
X+5207000Y+31750D01*
X+5175250Y+0D02*
X+5175359Y-2634D01*
X+5176249Y-7903D01*
X+5178111Y-13172D01*
X+5181154Y-18441D01*
X+5185809Y-23643D01*
X+5191078Y-27469D01*
X+5196347Y-29909D01*
X+5201616Y-31290D01*
X+5206885Y-31750D01*
X+5207000Y-31750D01*
X+5238750Y+0D02*
X+5238641Y-2634D01*
X+5237751Y-7903D01*
X+5235889Y-13172D01*
X+5232846Y-18441D01*
X+5228191Y-23643D01*
X+5222922Y-27469D01*
X+5217653Y-29909D01*
X+5212384Y-31290D01*
X+5207115Y-31750D01*
X+5207000Y-31750D01*
X+4841875Y+116840D02*
X+4857750Y+132080D01*
X+4905375Y+132080D01*
X+4921250Y+116840D01*
X+4921250Y+101600D01*
X+4905375Y+86360D01*
X+4921250Y+71120D01*
X+4921250Y+55880D01*
X+4905375Y+40640D01*
X+4857750Y+40640D01*
X+4841875Y+55880D01*
X+4873625Y+86360D02*
X+4905375Y+86360D01*
X+4968875Y+132080D02*
X+5048250Y+132080D01*
X+5048250Y+116840D01*
X+4968875Y+40640D01*
X+5080000Y+55880D02*
X+5080000Y+116840D01*
X+5095875Y+132080D01*
X+5159375Y+132080D01*
X+5175250Y+116840D01*
X+5175250Y+55880D01*
X+5159375Y+40640D01*
X+5095875Y+40640D01*
X+5080000Y+55880D01*
X+5080000Y+40640D02*
X+5175250Y+132080D01*
X+5207000Y+55880D02*
X+5207000Y+116840D01*
X+5222875Y+132080D01*
X+5286375Y+132080D01*
X+5302250Y+116840D01*
X+5302250Y+55880D01*
X+5286375Y+40640D01*
X+5222875Y+40640D01*
X+5207000Y+55880D01*
X+5207000Y+40640D02*
X+5302250Y+132080D01*
X+5349875Y+132080D02*
X+5349875Y+55880D01*
X+5365750Y+40640D01*
X+5413375Y+40640D01*
X+5429250Y+55880D01*
X+5334000Y+101600D02*
X+5413375Y+101600D01*
X+5556250Y+40640D02*
X+5556250Y+86360D01*
X+5540375Y+101600D01*
X+5476875Y+101600D01*
X+5461000Y+86360D01*
X+5461000Y+132080D02*
X+5461000Y+40640D01*
X+6604000Y+6858000D02*
X+7366000Y+6858000D01*
X+7366000Y+7112000D01*
X+6604000Y+7112000D01*
X+6604000Y+6858000D01*
X+7366000Y+6858000D02*
X+7366000Y+6731000D01*
X+6604000Y+6731000D01*
X+6604000Y+6858000D01*
X+7366000Y+6858000D02*
X+7239000Y+6731000D01*
X+7239000Y+6858000D02*
X+7112000Y+6731000D01*
X+7112000Y+6858000D02*
X+6985000Y+6731000D01*
X+6985000Y+6858000D02*
X+6858000Y+6731000D01*
X+6858000Y+6858000D02*
X+6731000Y+6731000D01*
X+6731000Y+6858000D02*
X+6604000Y+6731000D01*
X+6858000Y+6659880D02*
X+6889750Y+6690360D01*
X+6921500Y+6690360D01*
X+6953250Y+6659880D01*
X+6953250Y+6629400D01*
X+6921500Y+6598920D01*
X+6889750Y+6598920D01*
X+6858000Y+6629400D01*
X+6858000Y+6659880D01*
X+6921500Y+6629400D02*
X+6953250Y+6598920D01*
X+7080250Y+6629400D02*
X+6985000Y+6629400D01*
X+7048500Y+6690360D01*
X+7048500Y+6598920D01*
X+6604000Y+5080000D02*
X+7366000Y+5080000D01*
X+7366000Y+5334000D01*
X+6604000Y+5334000D01*
X+6604000Y+5080000D01*
X+7366000Y+5080000D02*
X+7366000Y+4953000D01*
X+6604000Y+4953000D01*
X+6604000Y+5080000D01*
X+7366000Y+5080000D02*
X+7239000Y+4953000D01*
X+7239000Y+5080000D02*
X+7112000Y+4953000D01*
X+7112000Y+5080000D02*
X+6985000Y+4953000D01*
X+6985000Y+5080000D02*
X+6858000Y+4953000D01*
X+6858000Y+5080000D02*
X+6731000Y+4953000D01*
X+6731000Y+5080000D02*
X+6604000Y+4953000D01*
X+6858000Y+4881880D02*
X+6889750Y+4912360D01*
X+6921500Y+4912360D01*
X+6953250Y+4881880D01*
X+6953250Y+4851400D01*
X+6921500Y+4820920D01*
X+6889750Y+4820920D01*
X+6858000Y+4851400D01*
X+6858000Y+4881880D01*
X+6921500Y+4851400D02*
X+6953250Y+4820920D01*
X+7080250Y+4912360D02*
X+7000875Y+4912360D01*
X+7000875Y+4881880D01*
X+7064375Y+4881880D01*
X+7080250Y+4866640D01*
X+7080250Y+4836160D01*
X+7064375Y+4820920D01*
X+7016750Y+4820920D01*
X+7000875Y+4836160D01*
D39*
X+1458000Y+1780000D02*
X+1456990Y+1805207D01*
X+1448788Y+1855622D01*
X+1431686Y+1906037D01*
X+1403940Y+1956452D01*
X+1361610Y+2006792D01*
X+1311195Y+2046337D01*
X+1260780Y+2072152D01*
X+1210365Y+2087712D01*
X+1159950Y+2094544D01*
X+1143000Y+2095000D01*
X+828000Y+1780000D02*
X+829010Y+1805207D01*
X+837212Y+1855622D01*
X+854314Y+1906037D01*
X+882060Y+1956452D01*
X+924390Y+2006792D01*
X+974805Y+2046337D01*
X+1025220Y+2072152D01*
X+1075635Y+2087712D01*
X+1126050Y+2094544D01*
X+1143000Y+2095000D01*
X+828000Y+1780000D02*
X+829010Y+1754793D01*
X+837212Y+1704378D01*
X+854314Y+1653963D01*
X+882060Y+1603548D01*
X+924390Y+1553208D01*
X+974805Y+1513663D01*
X+1025220Y+1487848D01*
X+1075635Y+1472288D01*
X+1126050Y+1465456D01*
X+1143000Y+1465000D01*
X+1458000Y+1780000D02*
X+1456990Y+1754793D01*
X+1448788Y+1704378D01*
X+1431686Y+1653963D01*
X+1403940Y+1603548D01*
X+1361610Y+1553208D01*
X+1311195Y+1513663D01*
X+1260780Y+1487848D01*
X+1210365Y+1472288D01*
X+1159950Y+1465456D01*
X+1143000Y+1465000D01*
D40*
X+1398000Y+2025000D02*
X+1397965Y+2025831D01*
X+1397684Y+2027495D01*
X+1397094Y+2029159D01*
X+1396130Y+2030823D01*
X+1394655Y+2032464D01*
X+1392991Y+2033665D01*
X+1391327Y+2034430D01*
X+1389663Y+2034861D01*
X+1388000Y+2035000D01*
X+1378000Y+2025000D02*
X+1378035Y+2025831D01*
X+1378316Y+2027495D01*
X+1378906Y+2029159D01*
X+1379870Y+2030823D01*
X+1381345Y+2032464D01*
X+1383009Y+2033665D01*
X+1384673Y+2034430D01*
X+1386337Y+2034861D01*
X+1388000Y+2035000D01*
X+1378000Y+2025000D02*
X+1378035Y+2024169D01*
X+1378316Y+2022505D01*
X+1378906Y+2020841D01*
X+1379870Y+2019177D01*
X+1381345Y+2017536D01*
X+1383009Y+2016335D01*
X+1384673Y+2015570D01*
X+1386337Y+2015139D01*
X+1388000Y+2015000D01*
X+1398000Y+2025000D02*
X+1397965Y+2024169D01*
X+1397684Y+2022505D01*
X+1397094Y+2020841D01*
X+1396130Y+2019177D01*
X+1394655Y+2017536D01*
X+1392991Y+2016335D01*
X+1391327Y+2015570D01*
X+1389663Y+2015139D01*
X+1388000Y+2015000D01*
D20*
X+1570680Y+1748250D02*
X+1585920Y+1732375D01*
X+1585920Y+1684750D01*
X+1555440Y+1653000D01*
X+1524960Y+1653000D01*
X+1494480Y+1684750D01*
X+1494480Y+1732375D01*
X+1509720Y+1748250D01*
X+1509720Y+1795875D02*
X+1494480Y+1811750D01*
X+1494480Y+1859375D01*
X+1509720Y+1875250D01*
X+1524960Y+1875250D01*
X+1540200Y+1859375D01*
X+1540200Y+1811750D01*
X+1555440Y+1795875D01*
X+1585920Y+1795875D01*
X+1585920Y+1875250D01*
D39*
X+6540000Y+2794000D02*
X+6538990Y+2819207D01*
X+6530788Y+2869622D01*
X+6513686Y+2920037D01*
X+6485940Y+2970452D01*
X+6443610Y+3020792D01*
X+6393195Y+3060337D01*
X+6342780Y+3086152D01*
X+6292365Y+3101712D01*
X+6241950Y+3108544D01*
X+6225000Y+3109000D01*
X+5910000Y+2794000D02*
X+5911010Y+2819207D01*
X+5919212Y+2869622D01*
X+5936314Y+2920037D01*
X+5964060Y+2970452D01*
X+6006390Y+3020792D01*
X+6056805Y+3060337D01*
X+6107220Y+3086152D01*
X+6157635Y+3101712D01*
X+6208050Y+3108544D01*
X+6225000Y+3109000D01*
X+5910000Y+2794000D02*
X+5911010Y+2768793D01*
X+5919212Y+2718378D01*
X+5936314Y+2667963D01*
X+5964060Y+2617548D01*
X+6006390Y+2567208D01*
X+6056805Y+2527663D01*
X+6107220Y+2501848D01*
X+6157635Y+2486288D01*
X+6208050Y+2479456D01*
X+6225000Y+2479000D01*
X+6540000Y+2794000D02*
X+6538990Y+2768793D01*
X+6530788Y+2718378D01*
X+6513686Y+2667963D01*
X+6485940Y+2617548D01*
X+6443610Y+2567208D01*
X+6393195Y+2527663D01*
X+6342780Y+2501848D01*
X+6292365Y+2486288D01*
X+6241950Y+2479456D01*
X+6225000Y+2479000D01*
D40*
X+6480000Y+2549000D02*
X+6479965Y+2549831D01*
X+6479684Y+2551495D01*
X+6479094Y+2553159D01*
X+6478130Y+2554823D01*
X+6476655Y+2556464D01*
X+6474991Y+2557665D01*
X+6473327Y+2558430D01*
X+6471663Y+2558861D01*
X+6470000Y+2559000D01*
X+6460000Y+2549000D02*
X+6460035Y+2549831D01*
X+6460316Y+2551495D01*
X+6460906Y+2553159D01*
X+6461870Y+2554823D01*
X+6463345Y+2556464D01*
X+6465009Y+2557665D01*
X+6466673Y+2558430D01*
X+6468337Y+2558861D01*
X+6470000Y+2559000D01*
X+6460000Y+2549000D02*
X+6460035Y+2548169D01*
X+6460316Y+2546505D01*
X+6460906Y+2544841D01*
X+6461870Y+2543177D01*
X+6463345Y+2541536D01*
X+6465009Y+2540335D01*
X+6466673Y+2539570D01*
X+6468337Y+2539139D01*
X+6470000Y+2539000D01*
X+6480000Y+2549000D02*
X+6479965Y+2548169D01*
X+6479684Y+2546505D01*
X+6479094Y+2544841D01*
X+6478130Y+2543177D01*
X+6476655Y+2541536D01*
X+6474991Y+2540335D01*
X+6473327Y+2539570D01*
X+6471663Y+2539139D01*
X+6470000Y+2539000D01*
D20*
X+6193250Y+2366320D02*
X+6177375Y+2351080D01*
X+6129750Y+2351080D01*
X+6098000Y+2381560D01*
X+6098000Y+2412040D01*
X+6129750Y+2442520D01*
X+6177375Y+2442520D01*
X+6193250Y+2427280D01*
X+6240875Y+2442520D02*
X+6320250Y+2442520D01*
X+6320250Y+2427280D01*
X+6240875Y+2351080D01*
M02*
