G04 PROTEUS RS274X GERBER FILE*
%FSLAX45Y45*%
%MOMM*%
G01*
%ADD20C,0.203200*%
%ADD68C,0.050000*%
%ADD80C,0.095000*%
%ADD81C,0.093000*%
%ADD82C,0.150580*%
%ADD83C,0.105410*%
%ADD84C,0.144780*%
%ADD85C,0.059690*%
%ADD86C,0.208330*%
%ADD87C,0.141000*%
%ADD88C,0.118750*%
%ADD89C,0.116250*%
%ADD90C,0.077470*%
%ADD91C,0.074610*%
%ADD92C,0.103290*%
%ADD93C,0.138850*%
D20*
X+552000Y+254000D02*
X+9906000Y+254000D01*
X+9906000Y+9525000D01*
X+552000Y+9525000D01*
X+552000Y+254000D01*
D68*
X+9102000Y+7378000D02*
X+8632000Y+7378000D01*
X+8632000Y+7608000D01*
X+9102000Y+7608000D01*
X+9102000Y+7378000D01*
X+8867000Y+7543000D02*
X+8867000Y+7443000D01*
X+8817000Y+7493000D02*
X+8917000Y+7493000D01*
D80*
X+8772000Y+7512000D02*
X+8762500Y+7521500D01*
X+8734000Y+7521500D01*
X+8715000Y+7502500D01*
X+8715000Y+7483500D01*
X+8734000Y+7464500D01*
X+8762500Y+7464500D01*
X+8772000Y+7474000D01*
X+8810000Y+7483500D02*
X+8829000Y+7464500D01*
X+8829000Y+7521500D01*
X+8867000Y+7512000D02*
X+8867000Y+7474000D01*
X+8876500Y+7464500D01*
X+8914500Y+7464500D01*
X+8924000Y+7474000D01*
X+8924000Y+7512000D01*
X+8914500Y+7521500D01*
X+8876500Y+7521500D01*
X+8867000Y+7512000D01*
X+8867000Y+7521500D02*
X+8924000Y+7464500D01*
X+8952500Y+7474000D02*
X+8962000Y+7464500D01*
X+8990500Y+7464500D01*
X+9000000Y+7474000D01*
X+9000000Y+7483500D01*
X+8990500Y+7493000D01*
X+9000000Y+7502500D01*
X+9000000Y+7512000D01*
X+8990500Y+7521500D01*
X+8962000Y+7521500D01*
X+8952500Y+7512000D01*
X+8971500Y+7493000D02*
X+8990500Y+7493000D01*
D68*
X+9102000Y+7124000D02*
X+8632000Y+7124000D01*
X+8632000Y+7354000D01*
X+9102000Y+7354000D01*
X+9102000Y+7124000D01*
X+8867000Y+7289000D02*
X+8867000Y+7189000D01*
X+8817000Y+7239000D02*
X+8917000Y+7239000D01*
D80*
X+8772000Y+7258000D02*
X+8762500Y+7267500D01*
X+8734000Y+7267500D01*
X+8715000Y+7248500D01*
X+8715000Y+7229500D01*
X+8734000Y+7210500D01*
X+8762500Y+7210500D01*
X+8772000Y+7220000D01*
X+8810000Y+7229500D02*
X+8829000Y+7210500D01*
X+8829000Y+7267500D01*
X+8867000Y+7258000D02*
X+8867000Y+7220000D01*
X+8876500Y+7210500D01*
X+8914500Y+7210500D01*
X+8924000Y+7220000D01*
X+8924000Y+7258000D01*
X+8914500Y+7267500D01*
X+8876500Y+7267500D01*
X+8867000Y+7258000D01*
X+8867000Y+7267500D02*
X+8924000Y+7210500D01*
X+9000000Y+7248500D02*
X+8943000Y+7248500D01*
X+8981000Y+7210500D01*
X+8981000Y+7267500D01*
D68*
X+6592000Y+8467000D02*
X+6592000Y+8007000D01*
X+6362000Y+8007000D01*
X+6362000Y+8467000D01*
X+6592000Y+8467000D01*
X+6427000Y+8237000D02*
X+6527000Y+8237000D01*
X+6477000Y+8187000D02*
X+6477000Y+8287000D01*
D81*
X+6449100Y+8088200D02*
X+6504900Y+8088200D01*
X+6504900Y+8134700D01*
X+6495600Y+8144000D01*
X+6486300Y+8144000D01*
X+6477000Y+8134700D01*
X+6477000Y+8088200D01*
X+6477000Y+8134700D02*
X+6467700Y+8144000D01*
X+6449100Y+8144000D01*
X+6486300Y+8181200D02*
X+6504900Y+8199800D01*
X+6449100Y+8199800D01*
X+6458400Y+8237000D02*
X+6495600Y+8237000D01*
X+6504900Y+8246300D01*
X+6504900Y+8283500D01*
X+6495600Y+8292800D01*
X+6458400Y+8292800D01*
X+6449100Y+8283500D01*
X+6449100Y+8246300D01*
X+6458400Y+8237000D01*
X+6449100Y+8237000D02*
X+6504900Y+8292800D01*
X+6486300Y+8330000D02*
X+6504900Y+8348600D01*
X+6449100Y+8348600D01*
D68*
X+8721000Y+3187000D02*
X+8251000Y+3187000D01*
X+8251000Y+3417000D01*
X+8721000Y+3417000D01*
X+8721000Y+3187000D01*
X+8486000Y+3352000D02*
X+8486000Y+3252000D01*
X+8436000Y+3302000D02*
X+8536000Y+3302000D01*
D80*
X+8391000Y+3321000D02*
X+8381500Y+3330500D01*
X+8353000Y+3330500D01*
X+8334000Y+3311500D01*
X+8334000Y+3292500D01*
X+8353000Y+3273500D01*
X+8381500Y+3273500D01*
X+8391000Y+3283000D01*
X+8429000Y+3292500D02*
X+8448000Y+3273500D01*
X+8448000Y+3330500D01*
X+8505000Y+3292500D02*
X+8524000Y+3273500D01*
X+8524000Y+3330500D01*
X+8619000Y+3283000D02*
X+8609500Y+3273500D01*
X+8581000Y+3273500D01*
X+8571500Y+3283000D01*
X+8571500Y+3321000D01*
X+8581000Y+3330500D01*
X+8609500Y+3330500D01*
X+8619000Y+3321000D01*
X+8619000Y+3311500D01*
X+8609500Y+3302000D01*
X+8571500Y+3302000D01*
D68*
X+8721000Y+2171000D02*
X+8251000Y+2171000D01*
X+8251000Y+2401000D01*
X+8721000Y+2401000D01*
X+8721000Y+2171000D01*
X+8486000Y+2336000D02*
X+8486000Y+2236000D01*
X+8436000Y+2286000D02*
X+8536000Y+2286000D01*
D80*
X+8581000Y+2267000D02*
X+8590500Y+2257500D01*
X+8619000Y+2257500D01*
X+8638000Y+2276500D01*
X+8638000Y+2295500D01*
X+8619000Y+2314500D01*
X+8590500Y+2314500D01*
X+8581000Y+2305000D01*
X+8543000Y+2295500D02*
X+8524000Y+2314500D01*
X+8524000Y+2257500D01*
X+8467000Y+2295500D02*
X+8448000Y+2314500D01*
X+8448000Y+2257500D01*
X+8400500Y+2314500D02*
X+8353000Y+2314500D01*
X+8353000Y+2305000D01*
X+8400500Y+2257500D01*
D68*
X+6900000Y+3036000D02*
X+7370000Y+3036000D01*
X+7370000Y+2806000D01*
X+6900000Y+2806000D01*
X+6900000Y+3036000D01*
X+7135000Y+2871000D02*
X+7135000Y+2971000D01*
X+7185000Y+2921000D02*
X+7085000Y+2921000D01*
D80*
X+7230000Y+2902000D02*
X+7239500Y+2892500D01*
X+7268000Y+2892500D01*
X+7287000Y+2911500D01*
X+7287000Y+2930500D01*
X+7268000Y+2949500D01*
X+7239500Y+2949500D01*
X+7230000Y+2940000D01*
X+7192000Y+2930500D02*
X+7173000Y+2949500D01*
X+7173000Y+2892500D01*
X+7116000Y+2930500D02*
X+7097000Y+2949500D01*
X+7097000Y+2892500D01*
X+7040000Y+2930500D02*
X+7021000Y+2949500D01*
X+7021000Y+2892500D01*
D68*
X+6816000Y+4203000D02*
X+6346000Y+4203000D01*
X+6346000Y+4433000D01*
X+6816000Y+4433000D01*
X+6816000Y+4203000D01*
X+6581000Y+4368000D02*
X+6581000Y+4268000D01*
X+6531000Y+4318000D02*
X+6631000Y+4318000D01*
D80*
X+6676000Y+4299000D02*
X+6685500Y+4289500D01*
X+6714000Y+4289500D01*
X+6733000Y+4308500D01*
X+6733000Y+4327500D01*
X+6714000Y+4346500D01*
X+6685500Y+4346500D01*
X+6676000Y+4337000D01*
X+6638000Y+4327500D02*
X+6619000Y+4346500D01*
X+6619000Y+4289500D01*
X+6581000Y+4299000D02*
X+6581000Y+4337000D01*
X+6571500Y+4346500D01*
X+6533500Y+4346500D01*
X+6524000Y+4337000D01*
X+6524000Y+4299000D01*
X+6533500Y+4289500D01*
X+6571500Y+4289500D01*
X+6581000Y+4299000D01*
X+6581000Y+4289500D02*
X+6524000Y+4346500D01*
X+6495500Y+4346500D02*
X+6448000Y+4346500D01*
X+6448000Y+4337000D01*
X+6495500Y+4289500D01*
D68*
X+6900000Y+4433000D02*
X+7370000Y+4433000D01*
X+7370000Y+4203000D01*
X+6900000Y+4203000D01*
X+6900000Y+4433000D01*
X+7135000Y+4268000D02*
X+7135000Y+4368000D01*
X+7185000Y+4318000D02*
X+7085000Y+4318000D01*
D80*
X+7230000Y+4299000D02*
X+7239500Y+4289500D01*
X+7268000Y+4289500D01*
X+7287000Y+4308500D01*
X+7287000Y+4327500D01*
X+7268000Y+4346500D01*
X+7239500Y+4346500D01*
X+7230000Y+4337000D01*
X+7192000Y+4327500D02*
X+7173000Y+4346500D01*
X+7173000Y+4289500D01*
X+7135000Y+4299000D02*
X+7135000Y+4337000D01*
X+7125500Y+4346500D01*
X+7087500Y+4346500D01*
X+7078000Y+4337000D01*
X+7078000Y+4299000D01*
X+7087500Y+4289500D01*
X+7125500Y+4289500D01*
X+7135000Y+4299000D01*
X+7135000Y+4289500D02*
X+7078000Y+4346500D01*
X+7002000Y+4327500D02*
X+7011500Y+4318000D01*
X+7040000Y+4318000D01*
X+7049500Y+4327500D01*
X+7049500Y+4337000D01*
X+7040000Y+4346500D01*
X+7011500Y+4346500D01*
X+7002000Y+4337000D01*
X+7002000Y+4299000D01*
X+7011500Y+4289500D01*
X+7040000Y+4289500D01*
D68*
X+7070000Y+3060000D02*
X+6600000Y+3060000D01*
X+6600000Y+3290000D01*
X+7070000Y+3290000D01*
X+7070000Y+3060000D01*
X+6835000Y+3225000D02*
X+6835000Y+3125000D01*
X+6785000Y+3175000D02*
X+6885000Y+3175000D01*
D80*
X+6740000Y+3194000D02*
X+6730500Y+3203500D01*
X+6702000Y+3203500D01*
X+6683000Y+3184500D01*
X+6683000Y+3165500D01*
X+6702000Y+3146500D01*
X+6730500Y+3146500D01*
X+6740000Y+3156000D01*
X+6778000Y+3165500D02*
X+6797000Y+3146500D01*
X+6797000Y+3203500D01*
X+6854000Y+3165500D02*
X+6873000Y+3146500D01*
X+6873000Y+3203500D01*
X+6911000Y+3194000D02*
X+6911000Y+3156000D01*
X+6920500Y+3146500D01*
X+6958500Y+3146500D01*
X+6968000Y+3156000D01*
X+6968000Y+3194000D01*
X+6958500Y+3203500D01*
X+6920500Y+3203500D01*
X+6911000Y+3194000D01*
X+6911000Y+3203500D02*
X+6968000Y+3146500D01*
D20*
X+2529840Y+6013450D02*
X+3312160Y+6013450D01*
X+3312160Y+7067550D01*
X+2529840Y+7067550D01*
X+2529840Y+6013450D01*
D82*
X+2951117Y+6901904D02*
X+2966175Y+6886846D01*
X+2966175Y+6826612D01*
X+2951117Y+6811553D01*
X+2936058Y+6811553D01*
X+2921000Y+6826612D01*
X+2921000Y+6886846D01*
X+2905941Y+6901904D01*
X+2890883Y+6901904D01*
X+2875824Y+6886846D01*
X+2875824Y+6826612D01*
X+2890883Y+6811553D01*
X+2966175Y+6781436D02*
X+2875824Y+6781436D01*
X+2875824Y+6691085D02*
X+2966175Y+6691085D01*
X+2921000Y+6781436D02*
X+2921000Y+6691085D01*
X+2875824Y+6660968D02*
X+2951117Y+6660968D01*
X+2966175Y+6645910D01*
X+2966175Y+6585676D01*
X+2951117Y+6570617D01*
X+2875824Y+6570617D01*
X+2966175Y+6540500D02*
X+2875824Y+6540500D01*
X+2966175Y+6450149D01*
X+2875824Y+6450149D01*
X+2875824Y+6420032D02*
X+2875824Y+6329681D01*
X+2875824Y+6374857D02*
X+2966175Y+6374857D01*
X+2905941Y+6269447D02*
X+2875824Y+6239330D01*
X+2966175Y+6239330D01*
D20*
X+4307840Y+6013450D02*
X+5090160Y+6013450D01*
X+5090160Y+7067550D01*
X+4307840Y+7067550D01*
X+4307840Y+6013450D01*
D82*
X+4729117Y+6901904D02*
X+4744175Y+6886846D01*
X+4744175Y+6826612D01*
X+4729117Y+6811553D01*
X+4714058Y+6811553D01*
X+4699000Y+6826612D01*
X+4699000Y+6886846D01*
X+4683941Y+6901904D01*
X+4668883Y+6901904D01*
X+4653824Y+6886846D01*
X+4653824Y+6826612D01*
X+4668883Y+6811553D01*
X+4744175Y+6781436D02*
X+4653824Y+6781436D01*
X+4653824Y+6691085D02*
X+4744175Y+6691085D01*
X+4699000Y+6781436D02*
X+4699000Y+6691085D01*
X+4653824Y+6660968D02*
X+4729117Y+6660968D01*
X+4744175Y+6645910D01*
X+4744175Y+6585676D01*
X+4729117Y+6570617D01*
X+4653824Y+6570617D01*
X+4744175Y+6540500D02*
X+4653824Y+6540500D01*
X+4744175Y+6450149D01*
X+4653824Y+6450149D01*
X+4653824Y+6420032D02*
X+4653824Y+6329681D01*
X+4653824Y+6374857D02*
X+4744175Y+6374857D01*
X+4668883Y+6284506D02*
X+4653824Y+6269447D01*
X+4653824Y+6224272D01*
X+4668883Y+6209213D01*
X+4683941Y+6209213D01*
X+4699000Y+6224272D01*
X+4699000Y+6269447D01*
X+4714058Y+6284506D01*
X+4744175Y+6284506D01*
X+4744175Y+6209213D01*
D20*
X+751840Y+6013450D02*
X+1534160Y+6013450D01*
X+1534160Y+7067550D01*
X+751840Y+7067550D01*
X+751840Y+6013450D01*
D83*
X+1164082Y+6919976D02*
X+1174623Y+6909435D01*
X+1174623Y+6867271D01*
X+1164082Y+6856730D01*
X+1153541Y+6856730D01*
X+1143000Y+6867271D01*
X+1143000Y+6909435D01*
X+1132459Y+6919976D01*
X+1121918Y+6919976D01*
X+1111377Y+6909435D01*
X+1111377Y+6867271D01*
X+1121918Y+6856730D01*
X+1174623Y+6835648D02*
X+1111377Y+6835648D01*
X+1111377Y+6772402D02*
X+1174623Y+6772402D01*
X+1143000Y+6835648D02*
X+1143000Y+6772402D01*
X+1111377Y+6751320D02*
X+1164082Y+6751320D01*
X+1174623Y+6740779D01*
X+1174623Y+6698615D01*
X+1164082Y+6688074D01*
X+1111377Y+6688074D01*
X+1174623Y+6666992D02*
X+1111377Y+6666992D01*
X+1174623Y+6603746D01*
X+1111377Y+6603746D01*
X+1111377Y+6582664D02*
X+1111377Y+6519418D01*
X+1111377Y+6551041D02*
X+1174623Y+6551041D01*
X+1185164Y+6498336D02*
X+1185164Y+6435090D01*
X+1174623Y+6414008D02*
X+1111377Y+6414008D01*
X+1111377Y+6361303D01*
X+1121918Y+6350762D01*
X+1132459Y+6350762D01*
X+1143000Y+6361303D01*
X+1143000Y+6414008D01*
X+1174623Y+6329680D02*
X+1111377Y+6329680D01*
X+1111377Y+6266434D02*
X+1174623Y+6266434D01*
X+1143000Y+6329680D02*
X+1143000Y+6266434D01*
X+1132459Y+6224270D02*
X+1111377Y+6203188D01*
X+1174623Y+6203188D01*
D68*
X+2417000Y+3441000D02*
X+1947000Y+3441000D01*
X+1947000Y+3671000D01*
X+2417000Y+3671000D01*
X+2417000Y+3441000D01*
X+2182000Y+3606000D02*
X+2182000Y+3506000D01*
X+2132000Y+3556000D02*
X+2232000Y+3556000D01*
D80*
X+2087000Y+3575000D02*
X+2077500Y+3584500D01*
X+2049000Y+3584500D01*
X+2030000Y+3565500D01*
X+2030000Y+3546500D01*
X+2049000Y+3527500D01*
X+2077500Y+3527500D01*
X+2087000Y+3537000D01*
X+2163000Y+3565500D02*
X+2106000Y+3565500D01*
X+2144000Y+3527500D01*
X+2144000Y+3584500D01*
X+2182000Y+3575000D02*
X+2182000Y+3537000D01*
X+2191500Y+3527500D01*
X+2229500Y+3527500D01*
X+2239000Y+3537000D01*
X+2239000Y+3575000D01*
X+2229500Y+3584500D01*
X+2191500Y+3584500D01*
X+2182000Y+3575000D01*
X+2182000Y+3584500D02*
X+2239000Y+3527500D01*
X+2315000Y+3537000D02*
X+2305500Y+3527500D01*
X+2277000Y+3527500D01*
X+2267500Y+3537000D01*
X+2267500Y+3575000D01*
X+2277000Y+3584500D01*
X+2305500Y+3584500D01*
X+2315000Y+3575000D01*
X+2315000Y+3565500D01*
X+2305500Y+3556000D01*
X+2267500Y+3556000D01*
D20*
X+1607820Y+1549400D02*
X+2075180Y+1549400D01*
X+2075180Y+2273300D01*
X+1607820Y+2273300D01*
X+1607820Y+1549400D01*
D84*
X+1884934Y+1679702D02*
X+1812544Y+1679702D01*
X+1798066Y+1694180D01*
X+1798066Y+1752092D01*
X+1812544Y+1766570D01*
X+1884934Y+1766570D01*
X+1827022Y+1882394D02*
X+1827022Y+1795526D01*
X+1884934Y+1853438D01*
X+1798066Y+1853438D01*
X+1812544Y+1911350D02*
X+1870456Y+1911350D01*
X+1884934Y+1925828D01*
X+1884934Y+1983740D01*
X+1870456Y+1998218D01*
X+1812544Y+1998218D01*
X+1798066Y+1983740D01*
X+1798066Y+1925828D01*
X+1812544Y+1911350D01*
X+1798066Y+1911350D02*
X+1884934Y+1998218D01*
X+1855978Y+2056130D02*
X+1884934Y+2085086D01*
X+1798066Y+2085086D01*
D68*
X+2401000Y+1655000D02*
X+2401000Y+1185000D01*
X+2171000Y+1185000D01*
X+2171000Y+1655000D01*
X+2401000Y+1655000D01*
X+2236000Y+1420000D02*
X+2336000Y+1420000D01*
X+2286000Y+1370000D02*
X+2286000Y+1470000D01*
D80*
X+2267000Y+1325000D02*
X+2257500Y+1315500D01*
X+2257500Y+1287000D01*
X+2276500Y+1268000D01*
X+2295500Y+1268000D01*
X+2314500Y+1287000D01*
X+2314500Y+1315500D01*
X+2305000Y+1325000D01*
X+2276500Y+1401000D02*
X+2276500Y+1344000D01*
X+2314500Y+1382000D01*
X+2257500Y+1382000D01*
X+2267000Y+1420000D02*
X+2305000Y+1420000D01*
X+2314500Y+1429500D01*
X+2314500Y+1467500D01*
X+2305000Y+1477000D01*
X+2267000Y+1477000D01*
X+2257500Y+1467500D01*
X+2257500Y+1429500D01*
X+2267000Y+1420000D01*
X+2257500Y+1420000D02*
X+2314500Y+1477000D01*
X+2295500Y+1515000D02*
X+2314500Y+1534000D01*
X+2257500Y+1534000D01*
D20*
X+2210920Y+1765300D02*
X+2361080Y+1765300D01*
X+2361080Y+2063750D01*
X+2210920Y+2063750D01*
X+2210920Y+1765300D01*
D85*
X+2268093Y+1819021D02*
X+2303907Y+1819021D01*
X+2303907Y+1842897D01*
X+2291969Y+1854835D01*
X+2280031Y+1854835D01*
X+2268093Y+1842897D01*
X+2268093Y+1819021D01*
X+2280031Y+1902587D02*
X+2280031Y+1866773D01*
X+2303907Y+1890649D01*
X+2268093Y+1890649D01*
X+2274062Y+1914525D02*
X+2297938Y+1914525D01*
X+2303907Y+1920494D01*
X+2303907Y+1944370D01*
X+2297938Y+1950339D01*
X+2274062Y+1950339D01*
X+2268093Y+1944370D01*
X+2268093Y+1920494D01*
X+2274062Y+1914525D01*
X+2268093Y+1914525D02*
X+2303907Y+1950339D01*
X+2291969Y+1974215D02*
X+2303907Y+1986153D01*
X+2268093Y+1986153D01*
D68*
X+2147000Y+2788000D02*
X+2147000Y+2328000D01*
X+1917000Y+2328000D01*
X+1917000Y+2788000D01*
X+2147000Y+2788000D01*
X+1982000Y+2558000D02*
X+2082000Y+2558000D01*
X+2032000Y+2508000D02*
X+2032000Y+2608000D01*
D81*
X+2004100Y+2409200D02*
X+2059900Y+2409200D01*
X+2059900Y+2455700D01*
X+2050600Y+2465000D01*
X+2041300Y+2465000D01*
X+2032000Y+2455700D01*
X+2032000Y+2409200D01*
X+2032000Y+2455700D02*
X+2022700Y+2465000D01*
X+2004100Y+2465000D01*
X+2022700Y+2539400D02*
X+2022700Y+2483600D01*
X+2059900Y+2520800D01*
X+2004100Y+2520800D01*
X+2013400Y+2558000D02*
X+2050600Y+2558000D01*
X+2059900Y+2567300D01*
X+2059900Y+2604500D01*
X+2050600Y+2613800D01*
X+2013400Y+2613800D01*
X+2004100Y+2604500D01*
X+2004100Y+2567300D01*
X+2013400Y+2558000D01*
X+2004100Y+2558000D02*
X+2059900Y+2613800D01*
X+2041300Y+2651000D02*
X+2059900Y+2669600D01*
X+2004100Y+2669600D01*
D68*
X+1639000Y+2788000D02*
X+1639000Y+2328000D01*
X+1409000Y+2328000D01*
X+1409000Y+2788000D01*
X+1639000Y+2788000D01*
X+1474000Y+2558000D02*
X+1574000Y+2558000D01*
X+1524000Y+2508000D02*
X+1524000Y+2608000D01*
D81*
X+1496100Y+2409200D02*
X+1551900Y+2409200D01*
X+1551900Y+2455700D01*
X+1542600Y+2465000D01*
X+1533300Y+2465000D01*
X+1524000Y+2455700D01*
X+1524000Y+2409200D01*
X+1524000Y+2455700D02*
X+1514700Y+2465000D01*
X+1496100Y+2465000D01*
X+1514700Y+2539400D02*
X+1514700Y+2483600D01*
X+1551900Y+2520800D01*
X+1496100Y+2520800D01*
X+1505400Y+2558000D02*
X+1542600Y+2558000D01*
X+1551900Y+2567300D01*
X+1551900Y+2604500D01*
X+1542600Y+2613800D01*
X+1505400Y+2613800D01*
X+1496100Y+2604500D01*
X+1496100Y+2567300D01*
X+1505400Y+2558000D01*
X+1496100Y+2558000D02*
X+1551900Y+2613800D01*
X+1551900Y+2688200D02*
X+1551900Y+2641700D01*
X+1533300Y+2641700D01*
X+1533300Y+2678900D01*
X+1524000Y+2688200D01*
X+1505400Y+2688200D01*
X+1496100Y+2678900D01*
X+1496100Y+2651000D01*
X+1505400Y+2641700D01*
D68*
X+1651000Y+7324500D02*
X+2271000Y+7324500D01*
X+2271000Y+6964500D01*
X+1651000Y+6964500D01*
X+1651000Y+7324500D01*
X+1961000Y+7094500D02*
X+1961000Y+7194500D01*
X+2011000Y+7144500D02*
X+1911000Y+7144500D01*
D86*
X+1794334Y+7082000D02*
X+1794334Y+7186167D01*
X+1815167Y+7207000D01*
X+1898500Y+7207000D01*
X+1919333Y+7186167D01*
X+1919333Y+7082000D01*
X+2002666Y+7123667D02*
X+2044333Y+7082000D01*
X+2044333Y+7207000D01*
D68*
X+1791000Y+7865000D02*
X+2261000Y+7865000D01*
X+2261000Y+7635000D01*
X+1791000Y+7635000D01*
X+1791000Y+7865000D01*
X+2026000Y+7700000D02*
X+2026000Y+7800000D01*
X+2076000Y+7750000D02*
X+1976000Y+7750000D01*
D87*
X+1997800Y+7778200D02*
X+1983700Y+7792300D01*
X+1941400Y+7792300D01*
X+1913200Y+7764100D01*
X+1913200Y+7735900D01*
X+1941400Y+7707700D01*
X+1983700Y+7707700D01*
X+1997800Y+7721800D01*
X+2054200Y+7735900D02*
X+2082400Y+7707700D01*
X+2082400Y+7792300D01*
D68*
X+1774000Y+6846000D02*
X+2244000Y+6846000D01*
X+2244000Y+6616000D01*
X+1774000Y+6616000D01*
X+1774000Y+6846000D01*
X+2009000Y+6681000D02*
X+2009000Y+6781000D01*
X+2059000Y+6731000D02*
X+1959000Y+6731000D01*
D87*
X+1980800Y+6759200D02*
X+1966700Y+6773300D01*
X+1924400Y+6773300D01*
X+1896200Y+6745100D01*
X+1896200Y+6716900D01*
X+1924400Y+6688700D01*
X+1966700Y+6688700D01*
X+1980800Y+6702800D01*
X+2023100Y+6702800D02*
X+2037200Y+6688700D01*
X+2079500Y+6688700D01*
X+2093600Y+6702800D01*
X+2093600Y+6716900D01*
X+2079500Y+6731000D01*
X+2093600Y+6745100D01*
X+2093600Y+6759200D01*
X+2079500Y+6773300D01*
X+2037200Y+6773300D01*
X+2023100Y+6759200D01*
X+2051300Y+6731000D02*
X+2079500Y+6731000D01*
D68*
X+1807000Y+8173000D02*
X+1807000Y+8643000D01*
X+2037000Y+8643000D01*
X+2037000Y+8173000D01*
X+1807000Y+8173000D01*
X+1972000Y+8408000D02*
X+1872000Y+8408000D01*
X+1922000Y+8458000D02*
X+1922000Y+8358000D01*
D88*
X+1898250Y+8336750D02*
X+1886375Y+8324875D01*
X+1886375Y+8289250D01*
X+1910125Y+8265500D01*
X+1933875Y+8265500D01*
X+1957625Y+8289250D01*
X+1957625Y+8324875D01*
X+1945750Y+8336750D01*
X+1933875Y+8384250D02*
X+1957625Y+8408000D01*
X+1886375Y+8408000D01*
X+1945750Y+8467375D02*
X+1957625Y+8479250D01*
X+1957625Y+8514875D01*
X+1945750Y+8526750D01*
X+1933875Y+8526750D01*
X+1922000Y+8514875D01*
X+1910125Y+8526750D01*
X+1898250Y+8526750D01*
X+1886375Y+8514875D01*
X+1886375Y+8479250D01*
X+1898250Y+8467375D01*
X+1922000Y+8491125D02*
X+1922000Y+8514875D01*
D68*
X+1918000Y+7611000D02*
X+2388000Y+7611000D01*
X+2388000Y+7381000D01*
X+1918000Y+7381000D01*
X+1918000Y+7611000D01*
X+2153000Y+7446000D02*
X+2153000Y+7546000D01*
X+2203000Y+7496000D02*
X+2103000Y+7496000D01*
D88*
X+2081750Y+7519750D02*
X+2069875Y+7531625D01*
X+2034250Y+7531625D01*
X+2010500Y+7507875D01*
X+2010500Y+7484125D01*
X+2034250Y+7460375D01*
X+2069875Y+7460375D01*
X+2081750Y+7472250D01*
X+2129250Y+7484125D02*
X+2153000Y+7460375D01*
X+2153000Y+7531625D01*
X+2271750Y+7507875D02*
X+2200500Y+7507875D01*
X+2248000Y+7460375D01*
X+2248000Y+7531625D01*
D68*
X+2291000Y+8633000D02*
X+2291000Y+8173000D01*
X+2061000Y+8173000D01*
X+2061000Y+8633000D01*
X+2291000Y+8633000D01*
X+2126000Y+8403000D02*
X+2226000Y+8403000D01*
X+2176000Y+8353000D02*
X+2176000Y+8453000D01*
D89*
X+2141125Y+8263500D02*
X+2210875Y+8263500D01*
X+2210875Y+8321625D01*
X+2199250Y+8333250D01*
X+2187625Y+8333250D01*
X+2176000Y+8321625D01*
X+2176000Y+8263500D01*
X+2176000Y+8321625D02*
X+2164375Y+8333250D01*
X+2141125Y+8333250D01*
X+2187625Y+8379750D02*
X+2210875Y+8403000D01*
X+2141125Y+8403000D01*
X+2210875Y+8461125D02*
X+2210875Y+8519250D01*
X+2199250Y+8519250D01*
X+2141125Y+8461125D01*
D68*
X+1801000Y+8119000D02*
X+2261000Y+8119000D01*
X+2261000Y+7889000D01*
X+1801000Y+7889000D01*
X+1801000Y+8119000D01*
X+2031000Y+7954000D02*
X+2031000Y+8054000D01*
X+2081000Y+8004000D02*
X+1981000Y+8004000D01*
D89*
X+1891500Y+8038875D02*
X+1891500Y+7969125D01*
X+1949625Y+7969125D01*
X+1961250Y+7980750D01*
X+1961250Y+7992375D01*
X+1949625Y+8004000D01*
X+1891500Y+8004000D01*
X+1949625Y+8004000D02*
X+1961250Y+8015625D01*
X+1961250Y+8038875D01*
X+2007750Y+7992375D02*
X+2031000Y+7969125D01*
X+2031000Y+8038875D01*
X+2100750Y+8004000D02*
X+2089125Y+7992375D01*
X+2089125Y+7980750D01*
X+2100750Y+7969125D01*
X+2135625Y+7969125D01*
X+2147250Y+7980750D01*
X+2147250Y+7992375D01*
X+2135625Y+8004000D01*
X+2100750Y+8004000D01*
X+2089125Y+8015625D01*
X+2089125Y+8027250D01*
X+2100750Y+8038875D01*
X+2135625Y+8038875D01*
X+2147250Y+8027250D01*
X+2147250Y+8015625D01*
X+2135625Y+8004000D01*
D20*
X+3385820Y+1549400D02*
X+3853180Y+1549400D01*
X+3853180Y+2273300D01*
X+3385820Y+2273300D01*
X+3385820Y+1549400D01*
D84*
X+3662934Y+1679702D02*
X+3590544Y+1679702D01*
X+3576066Y+1694180D01*
X+3576066Y+1752092D01*
X+3590544Y+1766570D01*
X+3662934Y+1766570D01*
X+3662934Y+1882394D02*
X+3662934Y+1810004D01*
X+3633978Y+1810004D01*
X+3633978Y+1867916D01*
X+3619500Y+1882394D01*
X+3590544Y+1882394D01*
X+3576066Y+1867916D01*
X+3576066Y+1824482D01*
X+3590544Y+1810004D01*
X+3590544Y+1911350D02*
X+3648456Y+1911350D01*
X+3662934Y+1925828D01*
X+3662934Y+1983740D01*
X+3648456Y+1998218D01*
X+3590544Y+1998218D01*
X+3576066Y+1983740D01*
X+3576066Y+1925828D01*
X+3590544Y+1911350D01*
X+3576066Y+1911350D02*
X+3662934Y+1998218D01*
X+3633978Y+2056130D02*
X+3662934Y+2085086D01*
X+3576066Y+2085086D01*
D68*
X+3925000Y+2788000D02*
X+3925000Y+2328000D01*
X+3695000Y+2328000D01*
X+3695000Y+2788000D01*
X+3925000Y+2788000D01*
X+3760000Y+2558000D02*
X+3860000Y+2558000D01*
X+3810000Y+2508000D02*
X+3810000Y+2608000D01*
D81*
X+3782100Y+2409200D02*
X+3837900Y+2409200D01*
X+3837900Y+2455700D01*
X+3828600Y+2465000D01*
X+3819300Y+2465000D01*
X+3810000Y+2455700D01*
X+3810000Y+2409200D01*
X+3810000Y+2455700D02*
X+3800700Y+2465000D01*
X+3782100Y+2465000D01*
X+3837900Y+2539400D02*
X+3837900Y+2492900D01*
X+3819300Y+2492900D01*
X+3819300Y+2530100D01*
X+3810000Y+2539400D01*
X+3791400Y+2539400D01*
X+3782100Y+2530100D01*
X+3782100Y+2502200D01*
X+3791400Y+2492900D01*
X+3791400Y+2558000D02*
X+3828600Y+2558000D01*
X+3837900Y+2567300D01*
X+3837900Y+2604500D01*
X+3828600Y+2613800D01*
X+3791400Y+2613800D01*
X+3782100Y+2604500D01*
X+3782100Y+2567300D01*
X+3791400Y+2558000D01*
X+3782100Y+2558000D02*
X+3837900Y+2613800D01*
X+3819300Y+2651000D02*
X+3837900Y+2669600D01*
X+3782100Y+2669600D01*
D68*
X+3417000Y+2788000D02*
X+3417000Y+2328000D01*
X+3187000Y+2328000D01*
X+3187000Y+2788000D01*
X+3417000Y+2788000D01*
X+3252000Y+2558000D02*
X+3352000Y+2558000D01*
X+3302000Y+2508000D02*
X+3302000Y+2608000D01*
D81*
X+3274100Y+2409200D02*
X+3329900Y+2409200D01*
X+3329900Y+2455700D01*
X+3320600Y+2465000D01*
X+3311300Y+2465000D01*
X+3302000Y+2455700D01*
X+3302000Y+2409200D01*
X+3302000Y+2455700D02*
X+3292700Y+2465000D01*
X+3274100Y+2465000D01*
X+3329900Y+2539400D02*
X+3329900Y+2492900D01*
X+3311300Y+2492900D01*
X+3311300Y+2530100D01*
X+3302000Y+2539400D01*
X+3283400Y+2539400D01*
X+3274100Y+2530100D01*
X+3274100Y+2502200D01*
X+3283400Y+2492900D01*
X+3283400Y+2558000D02*
X+3320600Y+2558000D01*
X+3329900Y+2567300D01*
X+3329900Y+2604500D01*
X+3320600Y+2613800D01*
X+3283400Y+2613800D01*
X+3274100Y+2604500D01*
X+3274100Y+2567300D01*
X+3283400Y+2558000D01*
X+3274100Y+2558000D02*
X+3329900Y+2613800D01*
X+3329900Y+2688200D02*
X+3329900Y+2641700D01*
X+3311300Y+2641700D01*
X+3311300Y+2678900D01*
X+3302000Y+2688200D01*
X+3283400Y+2688200D01*
X+3274100Y+2678900D01*
X+3274100Y+2651000D01*
X+3283400Y+2641700D01*
D68*
X+4179000Y+1646707D02*
X+4179000Y+1176707D01*
X+3949000Y+1176707D01*
X+3949000Y+1646707D01*
X+4179000Y+1646707D01*
X+4014000Y+1411707D02*
X+4114000Y+1411707D01*
X+4064000Y+1361707D02*
X+4064000Y+1461707D01*
D80*
X+4045000Y+1316707D02*
X+4035500Y+1307207D01*
X+4035500Y+1278707D01*
X+4054500Y+1259707D01*
X+4073500Y+1259707D01*
X+4092500Y+1278707D01*
X+4092500Y+1307207D01*
X+4083000Y+1316707D01*
X+4092500Y+1392707D02*
X+4092500Y+1345207D01*
X+4073500Y+1345207D01*
X+4073500Y+1383207D01*
X+4064000Y+1392707D01*
X+4045000Y+1392707D01*
X+4035500Y+1383207D01*
X+4035500Y+1354707D01*
X+4045000Y+1345207D01*
X+4045000Y+1411707D02*
X+4083000Y+1411707D01*
X+4092500Y+1421207D01*
X+4092500Y+1459207D01*
X+4083000Y+1468707D01*
X+4045000Y+1468707D01*
X+4035500Y+1459207D01*
X+4035500Y+1421207D01*
X+4045000Y+1411707D01*
X+4035500Y+1411707D02*
X+4092500Y+1468707D01*
X+4073500Y+1506707D02*
X+4092500Y+1525707D01*
X+4035500Y+1525707D01*
D20*
X+3988920Y+1765300D02*
X+4139080Y+1765300D01*
X+4139080Y+2063750D01*
X+3988920Y+2063750D01*
X+3988920Y+1765300D01*
D85*
X+4046093Y+1819021D02*
X+4081907Y+1819021D01*
X+4081907Y+1842897D01*
X+4069969Y+1854835D01*
X+4058031Y+1854835D01*
X+4046093Y+1842897D01*
X+4046093Y+1819021D01*
X+4081907Y+1902587D02*
X+4081907Y+1872742D01*
X+4069969Y+1872742D01*
X+4069969Y+1896618D01*
X+4064000Y+1902587D01*
X+4052062Y+1902587D01*
X+4046093Y+1896618D01*
X+4046093Y+1878711D01*
X+4052062Y+1872742D01*
X+4052062Y+1914525D02*
X+4075938Y+1914525D01*
X+4081907Y+1920494D01*
X+4081907Y+1944370D01*
X+4075938Y+1950339D01*
X+4052062Y+1950339D01*
X+4046093Y+1944370D01*
X+4046093Y+1920494D01*
X+4052062Y+1914525D01*
X+4046093Y+1914525D02*
X+4081907Y+1950339D01*
X+4069969Y+1974215D02*
X+4081907Y+1986153D01*
X+4046093Y+1986153D01*
D20*
X+5766920Y+1765300D02*
X+5917080Y+1765300D01*
X+5917080Y+2063750D01*
X+5766920Y+2063750D01*
X+5766920Y+1765300D01*
D85*
X+5824093Y+1819021D02*
X+5859907Y+1819021D01*
X+5859907Y+1842897D01*
X+5847969Y+1854835D01*
X+5836031Y+1854835D01*
X+5824093Y+1842897D01*
X+5824093Y+1819021D01*
X+5853938Y+1902587D02*
X+5859907Y+1896618D01*
X+5859907Y+1878711D01*
X+5853938Y+1872742D01*
X+5830062Y+1872742D01*
X+5824093Y+1878711D01*
X+5824093Y+1896618D01*
X+5830062Y+1902587D01*
X+5836031Y+1902587D01*
X+5842000Y+1896618D01*
X+5842000Y+1872742D01*
X+5830062Y+1914525D02*
X+5853938Y+1914525D01*
X+5859907Y+1920494D01*
X+5859907Y+1944370D01*
X+5853938Y+1950339D01*
X+5830062Y+1950339D01*
X+5824093Y+1944370D01*
X+5824093Y+1920494D01*
X+5830062Y+1914525D01*
X+5824093Y+1914525D02*
X+5859907Y+1950339D01*
X+5847969Y+1974215D02*
X+5859907Y+1986153D01*
X+5824093Y+1986153D01*
D20*
X+5163820Y+1549400D02*
X+5631180Y+1549400D01*
X+5631180Y+2273300D01*
X+5163820Y+2273300D01*
X+5163820Y+1549400D01*
D84*
X+5440934Y+1679702D02*
X+5368544Y+1679702D01*
X+5354066Y+1694180D01*
X+5354066Y+1752092D01*
X+5368544Y+1766570D01*
X+5440934Y+1766570D01*
X+5426456Y+1882394D02*
X+5440934Y+1867916D01*
X+5440934Y+1824482D01*
X+5426456Y+1810004D01*
X+5368544Y+1810004D01*
X+5354066Y+1824482D01*
X+5354066Y+1867916D01*
X+5368544Y+1882394D01*
X+5383022Y+1882394D01*
X+5397500Y+1867916D01*
X+5397500Y+1810004D01*
X+5368544Y+1911350D02*
X+5426456Y+1911350D01*
X+5440934Y+1925828D01*
X+5440934Y+1983740D01*
X+5426456Y+1998218D01*
X+5368544Y+1998218D01*
X+5354066Y+1983740D01*
X+5354066Y+1925828D01*
X+5368544Y+1911350D01*
X+5354066Y+1911350D02*
X+5440934Y+1998218D01*
X+5411978Y+2056130D02*
X+5440934Y+2085086D01*
X+5354066Y+2085086D01*
D68*
X+5957000Y+1655000D02*
X+5957000Y+1185000D01*
X+5727000Y+1185000D01*
X+5727000Y+1655000D01*
X+5957000Y+1655000D01*
X+5792000Y+1420000D02*
X+5892000Y+1420000D01*
X+5842000Y+1370000D02*
X+5842000Y+1470000D01*
D80*
X+5823000Y+1325000D02*
X+5813500Y+1315500D01*
X+5813500Y+1287000D01*
X+5832500Y+1268000D01*
X+5851500Y+1268000D01*
X+5870500Y+1287000D01*
X+5870500Y+1315500D01*
X+5861000Y+1325000D01*
X+5861000Y+1401000D02*
X+5870500Y+1391500D01*
X+5870500Y+1363000D01*
X+5861000Y+1353500D01*
X+5823000Y+1353500D01*
X+5813500Y+1363000D01*
X+5813500Y+1391500D01*
X+5823000Y+1401000D01*
X+5832500Y+1401000D01*
X+5842000Y+1391500D01*
X+5842000Y+1353500D01*
X+5823000Y+1420000D02*
X+5861000Y+1420000D01*
X+5870500Y+1429500D01*
X+5870500Y+1467500D01*
X+5861000Y+1477000D01*
X+5823000Y+1477000D01*
X+5813500Y+1467500D01*
X+5813500Y+1429500D01*
X+5823000Y+1420000D01*
X+5813500Y+1420000D02*
X+5870500Y+1477000D01*
X+5851500Y+1515000D02*
X+5870500Y+1534000D01*
X+5813500Y+1534000D01*
D68*
X+5703000Y+2788000D02*
X+5703000Y+2328000D01*
X+5473000Y+2328000D01*
X+5473000Y+2788000D01*
X+5703000Y+2788000D01*
X+5538000Y+2558000D02*
X+5638000Y+2558000D01*
X+5588000Y+2508000D02*
X+5588000Y+2608000D01*
D81*
X+5560100Y+2409200D02*
X+5615900Y+2409200D01*
X+5615900Y+2455700D01*
X+5606600Y+2465000D01*
X+5597300Y+2465000D01*
X+5588000Y+2455700D01*
X+5588000Y+2409200D01*
X+5588000Y+2455700D02*
X+5578700Y+2465000D01*
X+5560100Y+2465000D01*
X+5606600Y+2539400D02*
X+5615900Y+2530100D01*
X+5615900Y+2502200D01*
X+5606600Y+2492900D01*
X+5569400Y+2492900D01*
X+5560100Y+2502200D01*
X+5560100Y+2530100D01*
X+5569400Y+2539400D01*
X+5578700Y+2539400D01*
X+5588000Y+2530100D01*
X+5588000Y+2492900D01*
X+5569400Y+2558000D02*
X+5606600Y+2558000D01*
X+5615900Y+2567300D01*
X+5615900Y+2604500D01*
X+5606600Y+2613800D01*
X+5569400Y+2613800D01*
X+5560100Y+2604500D01*
X+5560100Y+2567300D01*
X+5569400Y+2558000D01*
X+5560100Y+2558000D02*
X+5615900Y+2613800D01*
X+5597300Y+2651000D02*
X+5615900Y+2669600D01*
X+5560100Y+2669600D01*
D68*
X+5195000Y+2788000D02*
X+5195000Y+2328000D01*
X+4965000Y+2328000D01*
X+4965000Y+2788000D01*
X+5195000Y+2788000D01*
X+5030000Y+2558000D02*
X+5130000Y+2558000D01*
X+5080000Y+2508000D02*
X+5080000Y+2608000D01*
D81*
X+5052100Y+2409200D02*
X+5107900Y+2409200D01*
X+5107900Y+2455700D01*
X+5098600Y+2465000D01*
X+5089300Y+2465000D01*
X+5080000Y+2455700D01*
X+5080000Y+2409200D01*
X+5080000Y+2455700D02*
X+5070700Y+2465000D01*
X+5052100Y+2465000D01*
X+5098600Y+2539400D02*
X+5107900Y+2530100D01*
X+5107900Y+2502200D01*
X+5098600Y+2492900D01*
X+5061400Y+2492900D01*
X+5052100Y+2502200D01*
X+5052100Y+2530100D01*
X+5061400Y+2539400D01*
X+5070700Y+2539400D01*
X+5080000Y+2530100D01*
X+5080000Y+2492900D01*
X+5061400Y+2558000D02*
X+5098600Y+2558000D01*
X+5107900Y+2567300D01*
X+5107900Y+2604500D01*
X+5098600Y+2613800D01*
X+5061400Y+2613800D01*
X+5052100Y+2604500D01*
X+5052100Y+2567300D01*
X+5061400Y+2558000D01*
X+5052100Y+2558000D02*
X+5107900Y+2613800D01*
X+5107900Y+2688200D02*
X+5107900Y+2641700D01*
X+5089300Y+2641700D01*
X+5089300Y+2678900D01*
X+5080000Y+2688200D01*
X+5061400Y+2688200D01*
X+5052100Y+2678900D01*
X+5052100Y+2651000D01*
X+5061400Y+2641700D01*
D68*
X+3412000Y+7321500D02*
X+4032000Y+7321500D01*
X+4032000Y+6961500D01*
X+3412000Y+6961500D01*
X+3412000Y+7321500D01*
X+3722000Y+7091500D02*
X+3722000Y+7191500D01*
X+3772000Y+7141500D02*
X+3672000Y+7141500D01*
D86*
X+3555334Y+7079000D02*
X+3555334Y+7183167D01*
X+3576167Y+7204000D01*
X+3659500Y+7204000D01*
X+3680333Y+7183167D01*
X+3680333Y+7079000D01*
X+3742833Y+7099833D02*
X+3763666Y+7079000D01*
X+3826166Y+7079000D01*
X+3846999Y+7099833D01*
X+3846999Y+7120667D01*
X+3826166Y+7141500D01*
X+3763666Y+7141500D01*
X+3742833Y+7162333D01*
X+3742833Y+7204000D01*
X+3846999Y+7204000D01*
D68*
X+5363000Y+7321500D02*
X+5983000Y+7321500D01*
X+5983000Y+6961500D01*
X+5363000Y+6961500D01*
X+5363000Y+7321500D01*
X+5673000Y+7091500D02*
X+5673000Y+7191500D01*
X+5723000Y+7141500D02*
X+5623000Y+7141500D01*
D86*
X+5839666Y+7204000D02*
X+5839666Y+7099833D01*
X+5818833Y+7079000D01*
X+5735500Y+7079000D01*
X+5714667Y+7099833D01*
X+5714667Y+7204000D01*
X+5652167Y+7183167D02*
X+5631334Y+7204000D01*
X+5568834Y+7204000D01*
X+5548001Y+7183167D01*
X+5548001Y+7162333D01*
X+5568834Y+7141500D01*
X+5548001Y+7120667D01*
X+5548001Y+7099833D01*
X+5568834Y+7079000D01*
X+5631334Y+7079000D01*
X+5652167Y+7099833D01*
X+5610501Y+7141500D02*
X+5568834Y+7141500D01*
D68*
X+3568000Y+8170000D02*
X+3568000Y+8640000D01*
X+3798000Y+8640000D01*
X+3798000Y+8170000D01*
X+3568000Y+8170000D01*
X+3733000Y+8405000D02*
X+3633000Y+8405000D01*
X+3683000Y+8455000D02*
X+3683000Y+8355000D01*
D87*
X+3654800Y+8376800D02*
X+3640700Y+8362700D01*
X+3640700Y+8320400D01*
X+3668900Y+8292200D01*
X+3697100Y+8292200D01*
X+3725300Y+8320400D01*
X+3725300Y+8362700D01*
X+3711200Y+8376800D01*
X+3668900Y+8489600D02*
X+3668900Y+8405000D01*
X+3725300Y+8461400D01*
X+3640700Y+8461400D01*
D68*
X+3679000Y+7608000D02*
X+4149000Y+7608000D01*
X+4149000Y+7378000D01*
X+3679000Y+7378000D01*
X+3679000Y+7608000D01*
X+3914000Y+7443000D02*
X+3914000Y+7543000D01*
X+3964000Y+7493000D02*
X+3864000Y+7493000D01*
D87*
X+3885800Y+7521200D02*
X+3871700Y+7535300D01*
X+3829400Y+7535300D01*
X+3801200Y+7507100D01*
X+3801200Y+7478900D01*
X+3829400Y+7450700D01*
X+3871700Y+7450700D01*
X+3885800Y+7464800D01*
X+3998600Y+7450700D02*
X+3928100Y+7450700D01*
X+3928100Y+7478900D01*
X+3984500Y+7478900D01*
X+3998600Y+7493000D01*
X+3998600Y+7521200D01*
X+3984500Y+7535300D01*
X+3942200Y+7535300D01*
X+3928100Y+7521200D01*
D68*
X+3552000Y+8116000D02*
X+4022000Y+8116000D01*
X+4022000Y+7886000D01*
X+3552000Y+7886000D01*
X+3552000Y+8116000D01*
X+3787000Y+7951000D02*
X+3787000Y+8051000D01*
X+3837000Y+8001000D02*
X+3737000Y+8001000D01*
D87*
X+3758800Y+8029200D02*
X+3744700Y+8043300D01*
X+3702400Y+8043300D01*
X+3674200Y+8015100D01*
X+3674200Y+7986900D01*
X+3702400Y+7958700D01*
X+3744700Y+7958700D01*
X+3758800Y+7972800D01*
X+3871600Y+7972800D02*
X+3857500Y+7958700D01*
X+3815200Y+7958700D01*
X+3801100Y+7972800D01*
X+3801100Y+8029200D01*
X+3815200Y+8043300D01*
X+3857500Y+8043300D01*
X+3871600Y+8029200D01*
X+3871600Y+8015100D01*
X+3857500Y+8001000D01*
X+3801100Y+8001000D01*
D68*
X+3552000Y+6846000D02*
X+4022000Y+6846000D01*
X+4022000Y+6616000D01*
X+3552000Y+6616000D01*
X+3552000Y+6846000D01*
X+3787000Y+6681000D02*
X+3787000Y+6781000D01*
X+3837000Y+6731000D02*
X+3737000Y+6731000D01*
D87*
X+3758800Y+6759200D02*
X+3744700Y+6773300D01*
X+3702400Y+6773300D01*
X+3674200Y+6745100D01*
X+3674200Y+6716900D01*
X+3702400Y+6688700D01*
X+3744700Y+6688700D01*
X+3758800Y+6702800D01*
X+3815200Y+6731000D02*
X+3801100Y+6716900D01*
X+3801100Y+6702800D01*
X+3815200Y+6688700D01*
X+3857500Y+6688700D01*
X+3871600Y+6702800D01*
X+3871600Y+6716900D01*
X+3857500Y+6731000D01*
X+3815200Y+6731000D01*
X+3801100Y+6745100D01*
X+3801100Y+6759200D01*
X+3815200Y+6773300D01*
X+3857500Y+6773300D01*
X+3871600Y+6759200D01*
X+3871600Y+6745100D01*
X+3857500Y+6731000D01*
D68*
X+4052000Y+8630000D02*
X+4052000Y+8170000D01*
X+3822000Y+8170000D01*
X+3822000Y+8630000D01*
X+4052000Y+8630000D01*
X+3887000Y+8400000D02*
X+3987000Y+8400000D01*
X+3937000Y+8350000D02*
X+3937000Y+8450000D01*
D87*
X+3894700Y+8287200D02*
X+3979300Y+8287200D01*
X+3979300Y+8357700D01*
X+3965200Y+8371800D01*
X+3951100Y+8371800D01*
X+3937000Y+8357700D01*
X+3937000Y+8287200D01*
X+3937000Y+8357700D02*
X+3922900Y+8371800D01*
X+3894700Y+8371800D01*
X+3951100Y+8428200D02*
X+3979300Y+8456400D01*
X+3894700Y+8456400D01*
D68*
X+3562000Y+7862000D02*
X+4022000Y+7862000D01*
X+4022000Y+7632000D01*
X+3562000Y+7632000D01*
X+3562000Y+7862000D01*
X+3792000Y+7697000D02*
X+3792000Y+7797000D01*
X+3842000Y+7747000D02*
X+3742000Y+7747000D01*
D87*
X+3679200Y+7789300D02*
X+3679200Y+7704700D01*
X+3749700Y+7704700D01*
X+3763800Y+7718800D01*
X+3763800Y+7732900D01*
X+3749700Y+7747000D01*
X+3679200Y+7747000D01*
X+3749700Y+7747000D02*
X+3763800Y+7761100D01*
X+3763800Y+7789300D01*
X+3806100Y+7718800D02*
X+3820200Y+7704700D01*
X+3862500Y+7704700D01*
X+3876600Y+7718800D01*
X+3876600Y+7732900D01*
X+3862500Y+7747000D01*
X+3820200Y+7747000D01*
X+3806100Y+7761100D01*
X+3806100Y+7789300D01*
X+3876600Y+7789300D01*
D68*
X+5519000Y+8170000D02*
X+5519000Y+8640000D01*
X+5749000Y+8640000D01*
X+5749000Y+8170000D01*
X+5519000Y+8170000D01*
X+5684000Y+8405000D02*
X+5584000Y+8405000D01*
X+5634000Y+8455000D02*
X+5634000Y+8355000D01*
D87*
X+5662200Y+8433200D02*
X+5676300Y+8447300D01*
X+5676300Y+8489600D01*
X+5648100Y+8517800D01*
X+5619900Y+8517800D01*
X+5591700Y+8489600D01*
X+5591700Y+8447300D01*
X+5605800Y+8433200D01*
X+5619900Y+8320400D02*
X+5634000Y+8334500D01*
X+5634000Y+8376800D01*
X+5619900Y+8390900D01*
X+5605800Y+8390900D01*
X+5591700Y+8376800D01*
X+5591700Y+8334500D01*
X+5605800Y+8320400D01*
X+5662200Y+8320400D01*
X+5676300Y+8334500D01*
X+5676300Y+8376800D01*
D68*
X+5630000Y+7608000D02*
X+6100000Y+7608000D01*
X+6100000Y+7378000D01*
X+5630000Y+7378000D01*
X+5630000Y+7608000D01*
X+5865000Y+7443000D02*
X+5865000Y+7543000D01*
X+5915000Y+7493000D02*
X+5815000Y+7493000D01*
D88*
X+5936250Y+7469250D02*
X+5948125Y+7457375D01*
X+5983750Y+7457375D01*
X+6007500Y+7481125D01*
X+6007500Y+7504875D01*
X+5983750Y+7528625D01*
X+5948125Y+7528625D01*
X+5936250Y+7516750D01*
X+5888750Y+7504875D02*
X+5865000Y+7528625D01*
X+5865000Y+7457375D01*
X+5817500Y+7469250D02*
X+5817500Y+7516750D01*
X+5805625Y+7528625D01*
X+5758125Y+7528625D01*
X+5746250Y+7516750D01*
X+5746250Y+7469250D01*
X+5758125Y+7457375D01*
X+5805625Y+7457375D01*
X+5817500Y+7469250D01*
X+5817500Y+7457375D02*
X+5746250Y+7528625D01*
D68*
X+5503000Y+7862000D02*
X+5973000Y+7862000D01*
X+5973000Y+7632000D01*
X+5503000Y+7632000D01*
X+5503000Y+7862000D01*
X+5738000Y+7697000D02*
X+5738000Y+7797000D01*
X+5788000Y+7747000D02*
X+5688000Y+7747000D01*
D88*
X+5809250Y+7723250D02*
X+5821125Y+7711375D01*
X+5856750Y+7711375D01*
X+5880500Y+7735125D01*
X+5880500Y+7758875D01*
X+5856750Y+7782625D01*
X+5821125Y+7782625D01*
X+5809250Y+7770750D01*
X+5761750Y+7758875D02*
X+5738000Y+7782625D01*
X+5738000Y+7711375D01*
X+5666750Y+7758875D02*
X+5643000Y+7782625D01*
X+5643000Y+7711375D01*
D68*
X+5503000Y+6846000D02*
X+5973000Y+6846000D01*
X+5973000Y+6616000D01*
X+5503000Y+6616000D01*
X+5503000Y+6846000D01*
X+5738000Y+6681000D02*
X+5738000Y+6781000D01*
X+5788000Y+6731000D02*
X+5688000Y+6731000D01*
D88*
X+5809250Y+6707250D02*
X+5821125Y+6695375D01*
X+5856750Y+6695375D01*
X+5880500Y+6719125D01*
X+5880500Y+6742875D01*
X+5856750Y+6766625D01*
X+5821125Y+6766625D01*
X+5809250Y+6754750D01*
X+5761750Y+6742875D02*
X+5738000Y+6766625D01*
X+5738000Y+6695375D01*
X+5619250Y+6766625D02*
X+5678625Y+6766625D01*
X+5678625Y+6742875D01*
X+5631125Y+6742875D01*
X+5619250Y+6731000D01*
X+5619250Y+6707250D01*
X+5631125Y+6695375D01*
X+5666750Y+6695375D01*
X+5678625Y+6707250D01*
D68*
X+6003000Y+8640000D02*
X+6003000Y+8180000D01*
X+5773000Y+8180000D01*
X+5773000Y+8640000D01*
X+6003000Y+8640000D01*
X+5838000Y+8410000D02*
X+5938000Y+8410000D01*
X+5888000Y+8360000D02*
X+5888000Y+8460000D01*
D87*
X+5930300Y+8522800D02*
X+5845700Y+8522800D01*
X+5845700Y+8452300D01*
X+5859800Y+8438200D01*
X+5873900Y+8438200D01*
X+5888000Y+8452300D01*
X+5888000Y+8522800D01*
X+5888000Y+8452300D02*
X+5902100Y+8438200D01*
X+5930300Y+8438200D01*
X+5859800Y+8395900D02*
X+5845700Y+8381800D01*
X+5845700Y+8339500D01*
X+5859800Y+8325400D01*
X+5873900Y+8325400D01*
X+5888000Y+8339500D01*
X+5902100Y+8325400D01*
X+5916200Y+8325400D01*
X+5930300Y+8339500D01*
X+5930300Y+8381800D01*
X+5916200Y+8395900D01*
X+5888000Y+8367700D02*
X+5888000Y+8339500D01*
D68*
X+5513000Y+8116000D02*
X+5973000Y+8116000D01*
X+5973000Y+7886000D01*
X+5513000Y+7886000D01*
X+5513000Y+8116000D01*
X+5743000Y+7951000D02*
X+5743000Y+8051000D01*
X+5793000Y+8001000D02*
X+5693000Y+8001000D01*
D87*
X+5855800Y+7958700D02*
X+5855800Y+8043300D01*
X+5785300Y+8043300D01*
X+5771200Y+8029200D01*
X+5771200Y+8015100D01*
X+5785300Y+8001000D01*
X+5855800Y+8001000D01*
X+5785300Y+8001000D02*
X+5771200Y+7986900D01*
X+5771200Y+7958700D01*
X+5658400Y+7986900D02*
X+5743000Y+7986900D01*
X+5686600Y+8043300D01*
X+5686600Y+7958700D01*
D68*
X+5703000Y+1482000D02*
X+5703000Y+1022000D01*
X+5473000Y+1022000D01*
X+5473000Y+1482000D01*
X+5703000Y+1482000D01*
X+5538000Y+1252000D02*
X+5638000Y+1252000D01*
X+5588000Y+1202000D02*
X+5588000Y+1302000D01*
D87*
X+5545700Y+1139200D02*
X+5630300Y+1139200D01*
X+5630300Y+1209700D01*
X+5616200Y+1223800D01*
X+5602100Y+1223800D01*
X+5588000Y+1209700D01*
X+5588000Y+1139200D01*
X+5588000Y+1209700D02*
X+5573900Y+1223800D01*
X+5545700Y+1223800D01*
X+5630300Y+1336600D02*
X+5630300Y+1266100D01*
X+5602100Y+1266100D01*
X+5602100Y+1322500D01*
X+5588000Y+1336600D01*
X+5559800Y+1336600D01*
X+5545700Y+1322500D01*
X+5545700Y+1280200D01*
X+5559800Y+1266100D01*
D68*
X+5322000Y+1482000D02*
X+5322000Y+1022000D01*
X+5092000Y+1022000D01*
X+5092000Y+1482000D01*
X+5322000Y+1482000D01*
X+5157000Y+1252000D02*
X+5257000Y+1252000D01*
X+5207000Y+1202000D02*
X+5207000Y+1302000D01*
D87*
X+5164700Y+1139200D02*
X+5249300Y+1139200D01*
X+5249300Y+1209700D01*
X+5235200Y+1223800D01*
X+5221100Y+1223800D01*
X+5207000Y+1209700D01*
X+5207000Y+1139200D01*
X+5207000Y+1209700D02*
X+5192900Y+1223800D01*
X+5164700Y+1223800D01*
X+5235200Y+1336600D02*
X+5249300Y+1322500D01*
X+5249300Y+1280200D01*
X+5235200Y+1266100D01*
X+5178800Y+1266100D01*
X+5164700Y+1280200D01*
X+5164700Y+1322500D01*
X+5178800Y+1336600D01*
X+5192900Y+1336600D01*
X+5207000Y+1322500D01*
X+5207000Y+1266100D01*
D68*
X+3925000Y+1482000D02*
X+3925000Y+1022000D01*
X+3695000Y+1022000D01*
X+3695000Y+1482000D01*
X+3925000Y+1482000D01*
X+3760000Y+1252000D02*
X+3860000Y+1252000D01*
X+3810000Y+1202000D02*
X+3810000Y+1302000D01*
D87*
X+3767700Y+1139200D02*
X+3852300Y+1139200D01*
X+3852300Y+1209700D01*
X+3838200Y+1223800D01*
X+3824100Y+1223800D01*
X+3810000Y+1209700D01*
X+3810000Y+1139200D01*
X+3810000Y+1209700D02*
X+3795900Y+1223800D01*
X+3767700Y+1223800D01*
X+3852300Y+1266100D02*
X+3852300Y+1336600D01*
X+3838200Y+1336600D01*
X+3767700Y+1266100D01*
D68*
X+3544000Y+1482000D02*
X+3544000Y+1022000D01*
X+3314000Y+1022000D01*
X+3314000Y+1482000D01*
X+3544000Y+1482000D01*
X+3379000Y+1252000D02*
X+3479000Y+1252000D01*
X+3429000Y+1202000D02*
X+3429000Y+1302000D01*
D89*
X+3394125Y+1112500D02*
X+3463875Y+1112500D01*
X+3463875Y+1170625D01*
X+3452250Y+1182250D01*
X+3440625Y+1182250D01*
X+3429000Y+1170625D01*
X+3429000Y+1112500D01*
X+3429000Y+1170625D02*
X+3417375Y+1182250D01*
X+3394125Y+1182250D01*
X+3417375Y+1275250D02*
X+3417375Y+1205500D01*
X+3463875Y+1252000D01*
X+3394125Y+1252000D01*
X+3405750Y+1298500D02*
X+3452250Y+1298500D01*
X+3463875Y+1310125D01*
X+3463875Y+1356625D01*
X+3452250Y+1368250D01*
X+3405750Y+1368250D01*
X+3394125Y+1356625D01*
X+3394125Y+1310125D01*
X+3405750Y+1298500D01*
X+3394125Y+1298500D02*
X+3463875Y+1368250D01*
D68*
X+2147000Y+1482000D02*
X+2147000Y+1022000D01*
X+1917000Y+1022000D01*
X+1917000Y+1482000D01*
X+2147000Y+1482000D01*
X+1982000Y+1252000D02*
X+2082000Y+1252000D01*
X+2032000Y+1202000D02*
X+2032000Y+1302000D01*
D89*
X+1997125Y+1112500D02*
X+2066875Y+1112500D01*
X+2066875Y+1170625D01*
X+2055250Y+1182250D01*
X+2043625Y+1182250D01*
X+2032000Y+1170625D01*
X+2032000Y+1112500D01*
X+2032000Y+1170625D02*
X+2020375Y+1182250D01*
X+1997125Y+1182250D01*
X+2020375Y+1275250D02*
X+2020375Y+1205500D01*
X+2066875Y+1252000D01*
X+1997125Y+1252000D01*
X+2043625Y+1321750D02*
X+2066875Y+1345000D01*
X+1997125Y+1345000D01*
D68*
X+1766000Y+1482000D02*
X+1766000Y+1022000D01*
X+1536000Y+1022000D01*
X+1536000Y+1482000D01*
X+1766000Y+1482000D01*
X+1601000Y+1252000D02*
X+1701000Y+1252000D01*
X+1651000Y+1202000D02*
X+1651000Y+1302000D01*
D89*
X+1616125Y+1112500D02*
X+1685875Y+1112500D01*
X+1685875Y+1170625D01*
X+1674250Y+1182250D01*
X+1662625Y+1182250D01*
X+1651000Y+1170625D01*
X+1651000Y+1112500D01*
X+1651000Y+1170625D02*
X+1639375Y+1182250D01*
X+1616125Y+1182250D01*
X+1639375Y+1275250D02*
X+1639375Y+1205500D01*
X+1685875Y+1252000D01*
X+1616125Y+1252000D01*
X+1674250Y+1310125D02*
X+1685875Y+1321750D01*
X+1685875Y+1356625D01*
X+1674250Y+1368250D01*
X+1662625Y+1368250D01*
X+1651000Y+1356625D01*
X+1651000Y+1321750D01*
X+1639375Y+1310125D01*
X+1616125Y+1310125D01*
X+1616125Y+1368250D01*
D68*
X+1947000Y+5703000D02*
X+2417000Y+5703000D01*
X+2417000Y+5473000D01*
X+1947000Y+5473000D01*
X+1947000Y+5703000D01*
X+2182000Y+5538000D02*
X+2182000Y+5638000D01*
X+2232000Y+5588000D02*
X+2132000Y+5588000D01*
D80*
X+2087000Y+5607000D02*
X+2077500Y+5616500D01*
X+2049000Y+5616500D01*
X+2030000Y+5597500D01*
X+2030000Y+5578500D01*
X+2049000Y+5559500D01*
X+2077500Y+5559500D01*
X+2087000Y+5569000D01*
X+2163000Y+5597500D02*
X+2106000Y+5597500D01*
X+2144000Y+5559500D01*
X+2144000Y+5616500D01*
X+2182000Y+5607000D02*
X+2182000Y+5569000D01*
X+2191500Y+5559500D01*
X+2229500Y+5559500D01*
X+2239000Y+5569000D01*
X+2239000Y+5607000D01*
X+2229500Y+5616500D01*
X+2191500Y+5616500D01*
X+2182000Y+5607000D01*
X+2182000Y+5616500D02*
X+2239000Y+5559500D01*
X+2267500Y+5569000D02*
X+2277000Y+5559500D01*
X+2305500Y+5559500D01*
X+2315000Y+5569000D01*
X+2315000Y+5578500D01*
X+2305500Y+5588000D01*
X+2315000Y+5597500D01*
X+2315000Y+5607000D01*
X+2305500Y+5616500D01*
X+2277000Y+5616500D01*
X+2267500Y+5607000D01*
X+2286500Y+5588000D02*
X+2305500Y+5588000D01*
D68*
X+1863000Y+3441000D02*
X+1393000Y+3441000D01*
X+1393000Y+3671000D01*
X+1863000Y+3671000D01*
X+1863000Y+3441000D01*
X+1628000Y+3606000D02*
X+1628000Y+3506000D01*
X+1578000Y+3556000D02*
X+1678000Y+3556000D01*
D80*
X+1723000Y+3537000D02*
X+1732500Y+3527500D01*
X+1761000Y+3527500D01*
X+1780000Y+3546500D01*
X+1780000Y+3565500D01*
X+1761000Y+3584500D01*
X+1732500Y+3584500D01*
X+1723000Y+3575000D01*
X+1647000Y+3546500D02*
X+1704000Y+3546500D01*
X+1666000Y+3584500D01*
X+1666000Y+3527500D01*
X+1628000Y+3537000D02*
X+1628000Y+3575000D01*
X+1618500Y+3584500D01*
X+1580500Y+3584500D01*
X+1571000Y+3575000D01*
X+1571000Y+3537000D01*
X+1580500Y+3527500D01*
X+1618500Y+3527500D01*
X+1628000Y+3537000D01*
X+1628000Y+3527500D02*
X+1571000Y+3584500D01*
X+1495000Y+3584500D02*
X+1542500Y+3584500D01*
X+1542500Y+3565500D01*
X+1504500Y+3565500D01*
X+1495000Y+3556000D01*
X+1495000Y+3537000D01*
X+1504500Y+3527500D01*
X+1533000Y+3527500D01*
X+1542500Y+3537000D01*
D68*
X+2171000Y+5666000D02*
X+2171000Y+6126000D01*
X+2401000Y+6126000D01*
X+2401000Y+5666000D01*
X+2171000Y+5666000D01*
X+2336000Y+5896000D02*
X+2236000Y+5896000D01*
X+2286000Y+5946000D02*
X+2286000Y+5846000D01*
D81*
X+2313900Y+6044800D02*
X+2258100Y+6044800D01*
X+2258100Y+5998300D01*
X+2267400Y+5989000D01*
X+2276700Y+5989000D01*
X+2286000Y+5998300D01*
X+2286000Y+6044800D01*
X+2286000Y+5998300D02*
X+2295300Y+5989000D01*
X+2313900Y+5989000D01*
X+2295300Y+5914600D02*
X+2295300Y+5970400D01*
X+2258100Y+5933200D01*
X+2313900Y+5933200D01*
X+2304600Y+5896000D02*
X+2267400Y+5896000D01*
X+2258100Y+5886700D01*
X+2258100Y+5849500D01*
X+2267400Y+5840200D01*
X+2304600Y+5840200D01*
X+2313900Y+5849500D01*
X+2313900Y+5886700D01*
X+2304600Y+5896000D01*
X+2313900Y+5896000D02*
X+2258100Y+5840200D01*
X+2267400Y+5812300D02*
X+2258100Y+5803000D01*
X+2258100Y+5775100D01*
X+2267400Y+5765800D01*
X+2276700Y+5765800D01*
X+2286000Y+5775100D01*
X+2295300Y+5765800D01*
X+2304600Y+5765800D01*
X+2313900Y+5775100D01*
X+2313900Y+5803000D01*
X+2304600Y+5812300D01*
X+2286000Y+5793700D02*
X+2286000Y+5775100D01*
D68*
X+1530000Y+3417000D02*
X+1990000Y+3417000D01*
X+1990000Y+3187000D01*
X+1530000Y+3187000D01*
X+1530000Y+3417000D01*
X+1760000Y+3252000D02*
X+1760000Y+3352000D01*
X+1810000Y+3302000D02*
X+1710000Y+3302000D01*
D81*
X+1908800Y+3274100D02*
X+1908800Y+3329900D01*
X+1862300Y+3329900D01*
X+1853000Y+3320600D01*
X+1853000Y+3311300D01*
X+1862300Y+3302000D01*
X+1908800Y+3302000D01*
X+1862300Y+3302000D02*
X+1853000Y+3292700D01*
X+1853000Y+3274100D01*
X+1778600Y+3292700D02*
X+1834400Y+3292700D01*
X+1797200Y+3329900D01*
X+1797200Y+3274100D01*
X+1760000Y+3283400D02*
X+1760000Y+3320600D01*
X+1750700Y+3329900D01*
X+1713500Y+3329900D01*
X+1704200Y+3320600D01*
X+1704200Y+3283400D01*
X+1713500Y+3274100D01*
X+1750700Y+3274100D01*
X+1760000Y+3283400D01*
X+1760000Y+3274100D02*
X+1704200Y+3329900D01*
X+1676300Y+3329900D02*
X+1629800Y+3329900D01*
X+1629800Y+3320600D01*
X+1676300Y+3274100D01*
D68*
X+1893000Y+6136000D02*
X+1893000Y+5666000D01*
X+1663000Y+5666000D01*
X+1663000Y+6136000D01*
X+1893000Y+6136000D01*
X+1728000Y+5901000D02*
X+1828000Y+5901000D01*
X+1778000Y+5851000D02*
X+1778000Y+5951000D01*
D80*
X+1797000Y+5996000D02*
X+1806500Y+6005500D01*
X+1806500Y+6034000D01*
X+1787500Y+6053000D01*
X+1768500Y+6053000D01*
X+1749500Y+6034000D01*
X+1749500Y+6005500D01*
X+1759000Y+5996000D01*
X+1787500Y+5920000D02*
X+1787500Y+5977000D01*
X+1749500Y+5939000D01*
X+1806500Y+5939000D01*
X+1797000Y+5901000D02*
X+1759000Y+5901000D01*
X+1749500Y+5891500D01*
X+1749500Y+5853500D01*
X+1759000Y+5844000D01*
X+1797000Y+5844000D01*
X+1806500Y+5853500D01*
X+1806500Y+5891500D01*
X+1797000Y+5901000D01*
X+1806500Y+5901000D02*
X+1749500Y+5844000D01*
X+1787500Y+5768000D02*
X+1787500Y+5825000D01*
X+1749500Y+5787000D01*
X+1806500Y+5787000D01*
D68*
X+1917000Y+5666000D02*
X+1917000Y+6126000D01*
X+2147000Y+6126000D01*
X+2147000Y+5666000D01*
X+1917000Y+5666000D01*
X+2082000Y+5896000D02*
X+1982000Y+5896000D01*
X+2032000Y+5946000D02*
X+2032000Y+5846000D01*
D81*
X+2004100Y+5747200D02*
X+2059900Y+5747200D01*
X+2059900Y+5793700D01*
X+2050600Y+5803000D01*
X+2041300Y+5803000D01*
X+2032000Y+5793700D01*
X+2032000Y+5747200D01*
X+2032000Y+5793700D02*
X+2022700Y+5803000D01*
X+2004100Y+5803000D01*
X+2022700Y+5877400D02*
X+2022700Y+5821600D01*
X+2059900Y+5858800D01*
X+2004100Y+5858800D01*
X+2013400Y+5896000D02*
X+2050600Y+5896000D01*
X+2059900Y+5905300D01*
X+2059900Y+5942500D01*
X+2050600Y+5951800D01*
X+2013400Y+5951800D01*
X+2004100Y+5942500D01*
X+2004100Y+5905300D01*
X+2013400Y+5896000D01*
X+2004100Y+5896000D02*
X+2059900Y+5951800D01*
X+2022700Y+6026200D02*
X+2022700Y+5970400D01*
X+2059900Y+6007600D01*
X+2004100Y+6007600D01*
D68*
X+1693000Y+3163000D02*
X+2153000Y+3163000D01*
X+2153000Y+2933000D01*
X+1693000Y+2933000D01*
X+1693000Y+3163000D01*
X+1923000Y+2998000D02*
X+1923000Y+3098000D01*
X+1973000Y+3048000D02*
X+1873000Y+3048000D01*
D81*
X+2071800Y+3020100D02*
X+2071800Y+3075900D01*
X+2025300Y+3075900D01*
X+2016000Y+3066600D01*
X+2016000Y+3057300D01*
X+2025300Y+3048000D01*
X+2071800Y+3048000D01*
X+2025300Y+3048000D02*
X+2016000Y+3038700D01*
X+2016000Y+3020100D01*
X+1941600Y+3038700D02*
X+1997400Y+3038700D01*
X+1960200Y+3075900D01*
X+1960200Y+3020100D01*
X+1923000Y+3029400D02*
X+1923000Y+3066600D01*
X+1913700Y+3075900D01*
X+1876500Y+3075900D01*
X+1867200Y+3066600D01*
X+1867200Y+3029400D01*
X+1876500Y+3020100D01*
X+1913700Y+3020100D01*
X+1923000Y+3029400D01*
X+1923000Y+3020100D02*
X+1867200Y+3075900D01*
X+1830000Y+3048000D02*
X+1839300Y+3057300D01*
X+1839300Y+3066600D01*
X+1830000Y+3075900D01*
X+1802100Y+3075900D01*
X+1792800Y+3066600D01*
X+1792800Y+3057300D01*
X+1802100Y+3048000D01*
X+1830000Y+3048000D01*
X+1839300Y+3038700D01*
X+1839300Y+3029400D01*
X+1830000Y+3020100D01*
X+1802100Y+3020100D01*
X+1792800Y+3029400D01*
X+1792800Y+3038700D01*
X+1802100Y+3048000D01*
D68*
X+3308000Y+3417000D02*
X+3768000Y+3417000D01*
X+3768000Y+3187000D01*
X+3308000Y+3187000D01*
X+3308000Y+3417000D01*
X+3538000Y+3252000D02*
X+3538000Y+3352000D01*
X+3588000Y+3302000D02*
X+3488000Y+3302000D01*
D81*
X+3389200Y+3329900D02*
X+3389200Y+3274100D01*
X+3435700Y+3274100D01*
X+3445000Y+3283400D01*
X+3445000Y+3292700D01*
X+3435700Y+3302000D01*
X+3389200Y+3302000D01*
X+3435700Y+3302000D02*
X+3445000Y+3311300D01*
X+3445000Y+3329900D01*
X+3519400Y+3274100D02*
X+3472900Y+3274100D01*
X+3472900Y+3292700D01*
X+3510100Y+3292700D01*
X+3519400Y+3302000D01*
X+3519400Y+3320600D01*
X+3510100Y+3329900D01*
X+3482200Y+3329900D01*
X+3472900Y+3320600D01*
X+3538000Y+3320600D02*
X+3538000Y+3283400D01*
X+3547300Y+3274100D01*
X+3584500Y+3274100D01*
X+3593800Y+3283400D01*
X+3593800Y+3320600D01*
X+3584500Y+3329900D01*
X+3547300Y+3329900D01*
X+3538000Y+3320600D01*
X+3538000Y+3329900D02*
X+3593800Y+3274100D01*
X+3621700Y+3274100D02*
X+3668200Y+3274100D01*
X+3668200Y+3283400D01*
X+3621700Y+3329900D01*
D68*
X+3725000Y+5703000D02*
X+4195000Y+5703000D01*
X+4195000Y+5473000D01*
X+3725000Y+5473000D01*
X+3725000Y+5703000D01*
X+3960000Y+5538000D02*
X+3960000Y+5638000D01*
X+4010000Y+5588000D02*
X+3910000Y+5588000D01*
D80*
X+3865000Y+5607000D02*
X+3855500Y+5616500D01*
X+3827000Y+5616500D01*
X+3808000Y+5597500D01*
X+3808000Y+5578500D01*
X+3827000Y+5559500D01*
X+3855500Y+5559500D01*
X+3865000Y+5569000D01*
X+3941000Y+5559500D02*
X+3893500Y+5559500D01*
X+3893500Y+5578500D01*
X+3931500Y+5578500D01*
X+3941000Y+5588000D01*
X+3941000Y+5607000D01*
X+3931500Y+5616500D01*
X+3903000Y+5616500D01*
X+3893500Y+5607000D01*
X+3960000Y+5607000D02*
X+3960000Y+5569000D01*
X+3969500Y+5559500D01*
X+4007500Y+5559500D01*
X+4017000Y+5569000D01*
X+4017000Y+5607000D01*
X+4007500Y+5616500D01*
X+3969500Y+5616500D01*
X+3960000Y+5607000D01*
X+3960000Y+5616500D02*
X+4017000Y+5559500D01*
X+4045500Y+5569000D02*
X+4055000Y+5559500D01*
X+4083500Y+5559500D01*
X+4093000Y+5569000D01*
X+4093000Y+5578500D01*
X+4083500Y+5588000D01*
X+4093000Y+5597500D01*
X+4093000Y+5607000D01*
X+4083500Y+5616500D01*
X+4055000Y+5616500D01*
X+4045500Y+5607000D01*
X+4064500Y+5588000D02*
X+4083500Y+5588000D01*
D68*
X+3671226Y+6135774D02*
X+3671226Y+5665774D01*
X+3441226Y+5665774D01*
X+3441226Y+6135774D01*
X+3671226Y+6135774D01*
X+3506226Y+5900774D02*
X+3606226Y+5900774D01*
X+3556226Y+5850774D02*
X+3556226Y+5950774D01*
D80*
X+3537226Y+5805774D02*
X+3527726Y+5796274D01*
X+3527726Y+5767774D01*
X+3546726Y+5748774D01*
X+3565726Y+5748774D01*
X+3584726Y+5767774D01*
X+3584726Y+5796274D01*
X+3575226Y+5805774D01*
X+3584726Y+5881774D02*
X+3584726Y+5834274D01*
X+3565726Y+5834274D01*
X+3565726Y+5872274D01*
X+3556226Y+5881774D01*
X+3537226Y+5881774D01*
X+3527726Y+5872274D01*
X+3527726Y+5843774D01*
X+3537226Y+5834274D01*
X+3537226Y+5900774D02*
X+3575226Y+5900774D01*
X+3584726Y+5910274D01*
X+3584726Y+5948274D01*
X+3575226Y+5957774D01*
X+3537226Y+5957774D01*
X+3527726Y+5948274D01*
X+3527726Y+5910274D01*
X+3537226Y+5900774D01*
X+3527726Y+5900774D02*
X+3584726Y+5957774D01*
X+3546726Y+6033774D02*
X+3546726Y+5976774D01*
X+3584726Y+6014774D01*
X+3527726Y+6014774D01*
D68*
X+3635255Y+3441000D02*
X+3165255Y+3441000D01*
X+3165255Y+3671000D01*
X+3635255Y+3671000D01*
X+3635255Y+3441000D01*
X+3400255Y+3606000D02*
X+3400255Y+3506000D01*
X+3350255Y+3556000D02*
X+3450255Y+3556000D01*
D80*
X+3495255Y+3537000D02*
X+3504755Y+3527500D01*
X+3533255Y+3527500D01*
X+3552255Y+3546500D01*
X+3552255Y+3565500D01*
X+3533255Y+3584500D01*
X+3504755Y+3584500D01*
X+3495255Y+3575000D01*
X+3419255Y+3584500D02*
X+3466755Y+3584500D01*
X+3466755Y+3565500D01*
X+3428755Y+3565500D01*
X+3419255Y+3556000D01*
X+3419255Y+3537000D01*
X+3428755Y+3527500D01*
X+3457255Y+3527500D01*
X+3466755Y+3537000D01*
X+3400255Y+3537000D02*
X+3400255Y+3575000D01*
X+3390755Y+3584500D01*
X+3352755Y+3584500D01*
X+3343255Y+3575000D01*
X+3343255Y+3537000D01*
X+3352755Y+3527500D01*
X+3390755Y+3527500D01*
X+3400255Y+3537000D01*
X+3400255Y+3527500D02*
X+3343255Y+3584500D01*
X+3267255Y+3584500D02*
X+3314755Y+3584500D01*
X+3314755Y+3565500D01*
X+3276755Y+3565500D01*
X+3267255Y+3556000D01*
X+3267255Y+3537000D01*
X+3276755Y+3527500D01*
X+3305255Y+3527500D01*
X+3314755Y+3537000D01*
D68*
X+4195000Y+3441000D02*
X+3725000Y+3441000D01*
X+3725000Y+3671000D01*
X+4195000Y+3671000D01*
X+4195000Y+3441000D01*
X+3960000Y+3606000D02*
X+3960000Y+3506000D01*
X+3910000Y+3556000D02*
X+4010000Y+3556000D01*
D80*
X+3865000Y+3575000D02*
X+3855500Y+3584500D01*
X+3827000Y+3584500D01*
X+3808000Y+3565500D01*
X+3808000Y+3546500D01*
X+3827000Y+3527500D01*
X+3855500Y+3527500D01*
X+3865000Y+3537000D01*
X+3941000Y+3527500D02*
X+3893500Y+3527500D01*
X+3893500Y+3546500D01*
X+3931500Y+3546500D01*
X+3941000Y+3556000D01*
X+3941000Y+3575000D01*
X+3931500Y+3584500D01*
X+3903000Y+3584500D01*
X+3893500Y+3575000D01*
X+3960000Y+3575000D02*
X+3960000Y+3537000D01*
X+3969500Y+3527500D01*
X+4007500Y+3527500D01*
X+4017000Y+3537000D01*
X+4017000Y+3575000D01*
X+4007500Y+3584500D01*
X+3969500Y+3584500D01*
X+3960000Y+3575000D01*
X+3960000Y+3584500D02*
X+4017000Y+3527500D01*
X+4093000Y+3537000D02*
X+4083500Y+3527500D01*
X+4055000Y+3527500D01*
X+4045500Y+3537000D01*
X+4045500Y+3575000D01*
X+4055000Y+3584500D01*
X+4083500Y+3584500D01*
X+4093000Y+3575000D01*
X+4093000Y+3565500D01*
X+4083500Y+3556000D01*
X+4045500Y+3556000D01*
D68*
X+3949226Y+5665774D02*
X+3949226Y+6125774D01*
X+4179226Y+6125774D01*
X+4179226Y+5665774D01*
X+3949226Y+5665774D01*
X+4114226Y+5895774D02*
X+4014226Y+5895774D01*
X+4064226Y+5945774D02*
X+4064226Y+5845774D01*
D81*
X+4092126Y+6044574D02*
X+4036326Y+6044574D01*
X+4036326Y+5998074D01*
X+4045626Y+5988774D01*
X+4054926Y+5988774D01*
X+4064226Y+5998074D01*
X+4064226Y+6044574D01*
X+4064226Y+5998074D02*
X+4073526Y+5988774D01*
X+4092126Y+5988774D01*
X+4036326Y+5914374D02*
X+4036326Y+5960874D01*
X+4054926Y+5960874D01*
X+4054926Y+5923674D01*
X+4064226Y+5914374D01*
X+4082826Y+5914374D01*
X+4092126Y+5923674D01*
X+4092126Y+5951574D01*
X+4082826Y+5960874D01*
X+4082826Y+5895774D02*
X+4045626Y+5895774D01*
X+4036326Y+5886474D01*
X+4036326Y+5849274D01*
X+4045626Y+5839974D01*
X+4082826Y+5839974D01*
X+4092126Y+5849274D01*
X+4092126Y+5886474D01*
X+4082826Y+5895774D01*
X+4092126Y+5895774D02*
X+4036326Y+5839974D01*
X+4045626Y+5812074D02*
X+4036326Y+5802774D01*
X+4036326Y+5774874D01*
X+4045626Y+5765574D01*
X+4054926Y+5765574D01*
X+4064226Y+5774874D01*
X+4073526Y+5765574D01*
X+4082826Y+5765574D01*
X+4092126Y+5774874D01*
X+4092126Y+5802774D01*
X+4082826Y+5812074D01*
X+4064226Y+5793474D02*
X+4064226Y+5774874D01*
D68*
X+3695226Y+5665774D02*
X+3695226Y+6125774D01*
X+3925226Y+6125774D01*
X+3925226Y+5665774D01*
X+3695226Y+5665774D01*
X+3860226Y+5895774D02*
X+3760226Y+5895774D01*
X+3810226Y+5945774D02*
X+3810226Y+5845774D01*
D81*
X+3838126Y+6044574D02*
X+3782326Y+6044574D01*
X+3782326Y+5998074D01*
X+3791626Y+5988774D01*
X+3800926Y+5988774D01*
X+3810226Y+5998074D01*
X+3810226Y+6044574D01*
X+3810226Y+5998074D02*
X+3819526Y+5988774D01*
X+3838126Y+5988774D01*
X+3782326Y+5914374D02*
X+3782326Y+5960874D01*
X+3800926Y+5960874D01*
X+3800926Y+5923674D01*
X+3810226Y+5914374D01*
X+3828826Y+5914374D01*
X+3838126Y+5923674D01*
X+3838126Y+5951574D01*
X+3828826Y+5960874D01*
X+3828826Y+5895774D02*
X+3791626Y+5895774D01*
X+3782326Y+5886474D01*
X+3782326Y+5849274D01*
X+3791626Y+5839974D01*
X+3828826Y+5839974D01*
X+3838126Y+5849274D01*
X+3838126Y+5886474D01*
X+3828826Y+5895774D01*
X+3838126Y+5895774D02*
X+3782326Y+5839974D01*
X+3819526Y+5765574D02*
X+3819526Y+5821374D01*
X+3782326Y+5784174D01*
X+3838126Y+5784174D01*
D68*
X+3465255Y+3163000D02*
X+3925255Y+3163000D01*
X+3925255Y+2933000D01*
X+3465255Y+2933000D01*
X+3465255Y+3163000D01*
X+3695255Y+2998000D02*
X+3695255Y+3098000D01*
X+3745255Y+3048000D02*
X+3645255Y+3048000D01*
D81*
X+3546455Y+3075900D02*
X+3546455Y+3020100D01*
X+3592955Y+3020100D01*
X+3602255Y+3029400D01*
X+3602255Y+3038700D01*
X+3592955Y+3048000D01*
X+3546455Y+3048000D01*
X+3592955Y+3048000D02*
X+3602255Y+3057300D01*
X+3602255Y+3075900D01*
X+3676655Y+3020100D02*
X+3630155Y+3020100D01*
X+3630155Y+3038700D01*
X+3667355Y+3038700D01*
X+3676655Y+3048000D01*
X+3676655Y+3066600D01*
X+3667355Y+3075900D01*
X+3639455Y+3075900D01*
X+3630155Y+3066600D01*
X+3695255Y+3066600D02*
X+3695255Y+3029400D01*
X+3704555Y+3020100D01*
X+3741755Y+3020100D01*
X+3751055Y+3029400D01*
X+3751055Y+3066600D01*
X+3741755Y+3075900D01*
X+3704555Y+3075900D01*
X+3695255Y+3066600D01*
X+3695255Y+3075900D02*
X+3751055Y+3020100D01*
X+3788255Y+3048000D02*
X+3778955Y+3038700D01*
X+3778955Y+3029400D01*
X+3788255Y+3020100D01*
X+3816155Y+3020100D01*
X+3825455Y+3029400D01*
X+3825455Y+3038700D01*
X+3816155Y+3048000D01*
X+3788255Y+3048000D01*
X+3778955Y+3057300D01*
X+3778955Y+3066600D01*
X+3788255Y+3075900D01*
X+3816155Y+3075900D01*
X+3825455Y+3066600D01*
X+3825455Y+3057300D01*
X+3816155Y+3048000D01*
D68*
X+5503000Y+5703000D02*
X+5973000Y+5703000D01*
X+5973000Y+5473000D01*
X+5503000Y+5473000D01*
X+5503000Y+5703000D01*
X+5738000Y+5538000D02*
X+5738000Y+5638000D01*
X+5788000Y+5588000D02*
X+5688000Y+5588000D01*
D80*
X+5643000Y+5607000D02*
X+5633500Y+5616500D01*
X+5605000Y+5616500D01*
X+5586000Y+5597500D01*
X+5586000Y+5578500D01*
X+5605000Y+5559500D01*
X+5633500Y+5559500D01*
X+5643000Y+5569000D01*
X+5719000Y+5569000D02*
X+5709500Y+5559500D01*
X+5681000Y+5559500D01*
X+5671500Y+5569000D01*
X+5671500Y+5607000D01*
X+5681000Y+5616500D01*
X+5709500Y+5616500D01*
X+5719000Y+5607000D01*
X+5719000Y+5597500D01*
X+5709500Y+5588000D01*
X+5671500Y+5588000D01*
X+5738000Y+5607000D02*
X+5738000Y+5569000D01*
X+5747500Y+5559500D01*
X+5785500Y+5559500D01*
X+5795000Y+5569000D01*
X+5795000Y+5607000D01*
X+5785500Y+5616500D01*
X+5747500Y+5616500D01*
X+5738000Y+5607000D01*
X+5738000Y+5616500D02*
X+5795000Y+5559500D01*
X+5823500Y+5569000D02*
X+5833000Y+5559500D01*
X+5861500Y+5559500D01*
X+5871000Y+5569000D01*
X+5871000Y+5578500D01*
X+5861500Y+5588000D01*
X+5871000Y+5597500D01*
X+5871000Y+5607000D01*
X+5861500Y+5616500D01*
X+5833000Y+5616500D01*
X+5823500Y+5607000D01*
X+5842500Y+5588000D02*
X+5861500Y+5588000D01*
D68*
X+5449000Y+6136000D02*
X+5449000Y+5666000D01*
X+5219000Y+5666000D01*
X+5219000Y+6136000D01*
X+5449000Y+6136000D01*
X+5284000Y+5901000D02*
X+5384000Y+5901000D01*
X+5334000Y+5851000D02*
X+5334000Y+5951000D01*
D80*
X+5315000Y+5806000D02*
X+5305500Y+5796500D01*
X+5305500Y+5768000D01*
X+5324500Y+5749000D01*
X+5343500Y+5749000D01*
X+5362500Y+5768000D01*
X+5362500Y+5796500D01*
X+5353000Y+5806000D01*
X+5353000Y+5882000D02*
X+5362500Y+5872500D01*
X+5362500Y+5844000D01*
X+5353000Y+5834500D01*
X+5315000Y+5834500D01*
X+5305500Y+5844000D01*
X+5305500Y+5872500D01*
X+5315000Y+5882000D01*
X+5324500Y+5882000D01*
X+5334000Y+5872500D01*
X+5334000Y+5834500D01*
X+5315000Y+5901000D02*
X+5353000Y+5901000D01*
X+5362500Y+5910500D01*
X+5362500Y+5948500D01*
X+5353000Y+5958000D01*
X+5315000Y+5958000D01*
X+5305500Y+5948500D01*
X+5305500Y+5910500D01*
X+5315000Y+5901000D01*
X+5305500Y+5901000D02*
X+5362500Y+5958000D01*
X+5324500Y+6034000D02*
X+5324500Y+5977000D01*
X+5362500Y+6015000D01*
X+5305500Y+6015000D01*
D68*
X+5419000Y+3441000D02*
X+4949000Y+3441000D01*
X+4949000Y+3671000D01*
X+5419000Y+3671000D01*
X+5419000Y+3441000D01*
X+5184000Y+3606000D02*
X+5184000Y+3506000D01*
X+5134000Y+3556000D02*
X+5234000Y+3556000D01*
D80*
X+5089000Y+3575000D02*
X+5079500Y+3584500D01*
X+5051000Y+3584500D01*
X+5032000Y+3565500D01*
X+5032000Y+3546500D01*
X+5051000Y+3527500D01*
X+5079500Y+3527500D01*
X+5089000Y+3537000D01*
X+5165000Y+3537000D02*
X+5155500Y+3527500D01*
X+5127000Y+3527500D01*
X+5117500Y+3537000D01*
X+5117500Y+3575000D01*
X+5127000Y+3584500D01*
X+5155500Y+3584500D01*
X+5165000Y+3575000D01*
X+5165000Y+3565500D01*
X+5155500Y+3556000D01*
X+5117500Y+3556000D01*
X+5184000Y+3575000D02*
X+5184000Y+3537000D01*
X+5193500Y+3527500D01*
X+5231500Y+3527500D01*
X+5241000Y+3537000D01*
X+5241000Y+3575000D01*
X+5231500Y+3584500D01*
X+5193500Y+3584500D01*
X+5184000Y+3575000D01*
X+5184000Y+3584500D02*
X+5241000Y+3527500D01*
X+5317000Y+3527500D02*
X+5269500Y+3527500D01*
X+5269500Y+3546500D01*
X+5307500Y+3546500D01*
X+5317000Y+3556000D01*
X+5317000Y+3575000D01*
X+5307500Y+3584500D01*
X+5279000Y+3584500D01*
X+5269500Y+3575000D01*
D68*
X+5973000Y+3441000D02*
X+5503000Y+3441000D01*
X+5503000Y+3671000D01*
X+5973000Y+3671000D01*
X+5973000Y+3441000D01*
X+5738000Y+3606000D02*
X+5738000Y+3506000D01*
X+5688000Y+3556000D02*
X+5788000Y+3556000D01*
D80*
X+5643000Y+3575000D02*
X+5633500Y+3584500D01*
X+5605000Y+3584500D01*
X+5586000Y+3565500D01*
X+5586000Y+3546500D01*
X+5605000Y+3527500D01*
X+5633500Y+3527500D01*
X+5643000Y+3537000D01*
X+5719000Y+3537000D02*
X+5709500Y+3527500D01*
X+5681000Y+3527500D01*
X+5671500Y+3537000D01*
X+5671500Y+3575000D01*
X+5681000Y+3584500D01*
X+5709500Y+3584500D01*
X+5719000Y+3575000D01*
X+5719000Y+3565500D01*
X+5709500Y+3556000D01*
X+5671500Y+3556000D01*
X+5738000Y+3575000D02*
X+5738000Y+3537000D01*
X+5747500Y+3527500D01*
X+5785500Y+3527500D01*
X+5795000Y+3537000D01*
X+5795000Y+3575000D01*
X+5785500Y+3584500D01*
X+5747500Y+3584500D01*
X+5738000Y+3575000D01*
X+5738000Y+3584500D02*
X+5795000Y+3527500D01*
X+5871000Y+3537000D02*
X+5861500Y+3527500D01*
X+5833000Y+3527500D01*
X+5823500Y+3537000D01*
X+5823500Y+3575000D01*
X+5833000Y+3584500D01*
X+5861500Y+3584500D01*
X+5871000Y+3575000D01*
X+5871000Y+3565500D01*
X+5861500Y+3556000D01*
X+5823500Y+3556000D01*
D68*
X+5727000Y+5666000D02*
X+5727000Y+6126000D01*
X+5957000Y+6126000D01*
X+5957000Y+5666000D01*
X+5727000Y+5666000D01*
X+5892000Y+5896000D02*
X+5792000Y+5896000D01*
X+5842000Y+5946000D02*
X+5842000Y+5846000D01*
D81*
X+5869900Y+6044800D02*
X+5814100Y+6044800D01*
X+5814100Y+5998300D01*
X+5823400Y+5989000D01*
X+5832700Y+5989000D01*
X+5842000Y+5998300D01*
X+5842000Y+6044800D01*
X+5842000Y+5998300D02*
X+5851300Y+5989000D01*
X+5869900Y+5989000D01*
X+5823400Y+5914600D02*
X+5814100Y+5923900D01*
X+5814100Y+5951800D01*
X+5823400Y+5961100D01*
X+5860600Y+5961100D01*
X+5869900Y+5951800D01*
X+5869900Y+5923900D01*
X+5860600Y+5914600D01*
X+5851300Y+5914600D01*
X+5842000Y+5923900D01*
X+5842000Y+5961100D01*
X+5860600Y+5896000D02*
X+5823400Y+5896000D01*
X+5814100Y+5886700D01*
X+5814100Y+5849500D01*
X+5823400Y+5840200D01*
X+5860600Y+5840200D01*
X+5869900Y+5849500D01*
X+5869900Y+5886700D01*
X+5860600Y+5896000D01*
X+5869900Y+5896000D02*
X+5814100Y+5840200D01*
X+5823400Y+5812300D02*
X+5814100Y+5803000D01*
X+5814100Y+5775100D01*
X+5823400Y+5765800D01*
X+5832700Y+5765800D01*
X+5842000Y+5775100D01*
X+5851300Y+5765800D01*
X+5860600Y+5765800D01*
X+5869900Y+5775100D01*
X+5869900Y+5803000D01*
X+5860600Y+5812300D01*
X+5842000Y+5793700D02*
X+5842000Y+5775100D01*
D68*
X+5473000Y+5666000D02*
X+5473000Y+6126000D01*
X+5703000Y+6126000D01*
X+5703000Y+5666000D01*
X+5473000Y+5666000D01*
X+5638000Y+5896000D02*
X+5538000Y+5896000D01*
X+5588000Y+5946000D02*
X+5588000Y+5846000D01*
D81*
X+5615900Y+6044800D02*
X+5560100Y+6044800D01*
X+5560100Y+5998300D01*
X+5569400Y+5989000D01*
X+5578700Y+5989000D01*
X+5588000Y+5998300D01*
X+5588000Y+6044800D01*
X+5588000Y+5998300D02*
X+5597300Y+5989000D01*
X+5615900Y+5989000D01*
X+5569400Y+5914600D02*
X+5560100Y+5923900D01*
X+5560100Y+5951800D01*
X+5569400Y+5961100D01*
X+5606600Y+5961100D01*
X+5615900Y+5951800D01*
X+5615900Y+5923900D01*
X+5606600Y+5914600D01*
X+5597300Y+5914600D01*
X+5588000Y+5923900D01*
X+5588000Y+5961100D01*
X+5606600Y+5896000D02*
X+5569400Y+5896000D01*
X+5560100Y+5886700D01*
X+5560100Y+5849500D01*
X+5569400Y+5840200D01*
X+5606600Y+5840200D01*
X+5615900Y+5849500D01*
X+5615900Y+5886700D01*
X+5606600Y+5896000D01*
X+5615900Y+5896000D02*
X+5560100Y+5840200D01*
X+5597300Y+5765800D02*
X+5597300Y+5821600D01*
X+5560100Y+5784400D01*
X+5615900Y+5784400D01*
D68*
X+5086000Y+3417000D02*
X+5546000Y+3417000D01*
X+5546000Y+3187000D01*
X+5086000Y+3187000D01*
X+5086000Y+3417000D01*
X+5316000Y+3252000D02*
X+5316000Y+3352000D01*
X+5366000Y+3302000D02*
X+5266000Y+3302000D01*
D81*
X+5167200Y+3329900D02*
X+5167200Y+3274100D01*
X+5213700Y+3274100D01*
X+5223000Y+3283400D01*
X+5223000Y+3292700D01*
X+5213700Y+3302000D01*
X+5167200Y+3302000D01*
X+5213700Y+3302000D02*
X+5223000Y+3311300D01*
X+5223000Y+3329900D01*
X+5297400Y+3283400D02*
X+5288100Y+3274100D01*
X+5260200Y+3274100D01*
X+5250900Y+3283400D01*
X+5250900Y+3320600D01*
X+5260200Y+3329900D01*
X+5288100Y+3329900D01*
X+5297400Y+3320600D01*
X+5297400Y+3311300D01*
X+5288100Y+3302000D01*
X+5250900Y+3302000D01*
X+5316000Y+3320600D02*
X+5316000Y+3283400D01*
X+5325300Y+3274100D01*
X+5362500Y+3274100D01*
X+5371800Y+3283400D01*
X+5371800Y+3320600D01*
X+5362500Y+3329900D01*
X+5325300Y+3329900D01*
X+5316000Y+3320600D01*
X+5316000Y+3329900D02*
X+5371800Y+3274100D01*
X+5399700Y+3274100D02*
X+5446200Y+3274100D01*
X+5446200Y+3283400D01*
X+5399700Y+3329900D01*
D68*
X+5249000Y+3163000D02*
X+5709000Y+3163000D01*
X+5709000Y+2933000D01*
X+5249000Y+2933000D01*
X+5249000Y+3163000D01*
X+5479000Y+2998000D02*
X+5479000Y+3098000D01*
X+5529000Y+3048000D02*
X+5429000Y+3048000D01*
D81*
X+5330200Y+3075900D02*
X+5330200Y+3020100D01*
X+5376700Y+3020100D01*
X+5386000Y+3029400D01*
X+5386000Y+3038700D01*
X+5376700Y+3048000D01*
X+5330200Y+3048000D01*
X+5376700Y+3048000D02*
X+5386000Y+3057300D01*
X+5386000Y+3075900D01*
X+5460400Y+3029400D02*
X+5451100Y+3020100D01*
X+5423200Y+3020100D01*
X+5413900Y+3029400D01*
X+5413900Y+3066600D01*
X+5423200Y+3075900D01*
X+5451100Y+3075900D01*
X+5460400Y+3066600D01*
X+5460400Y+3057300D01*
X+5451100Y+3048000D01*
X+5413900Y+3048000D01*
X+5479000Y+3066600D02*
X+5479000Y+3029400D01*
X+5488300Y+3020100D01*
X+5525500Y+3020100D01*
X+5534800Y+3029400D01*
X+5534800Y+3066600D01*
X+5525500Y+3075900D01*
X+5488300Y+3075900D01*
X+5479000Y+3066600D01*
X+5479000Y+3075900D02*
X+5534800Y+3020100D01*
X+5572000Y+3048000D02*
X+5562700Y+3038700D01*
X+5562700Y+3029400D01*
X+5572000Y+3020100D01*
X+5599900Y+3020100D01*
X+5609200Y+3029400D01*
X+5609200Y+3038700D01*
X+5599900Y+3048000D01*
X+5572000Y+3048000D01*
X+5562700Y+3057300D01*
X+5562700Y+3066600D01*
X+5572000Y+3075900D01*
X+5599900Y+3075900D01*
X+5609200Y+3066600D01*
X+5609200Y+3057300D01*
X+5599900Y+3048000D01*
D20*
X+6609080Y+1346200D02*
X+6918960Y+1346200D01*
X+6918960Y+1638300D01*
X+6609080Y+1638300D01*
X+6609080Y+1346200D01*
D90*
X+6856984Y+1499997D02*
X+6841490Y+1515491D01*
X+6825996Y+1515491D01*
X+6810502Y+1499997D01*
X+6810502Y+1484503D01*
X+6825996Y+1469009D01*
X+6841490Y+1469009D01*
X+6856984Y+1484503D01*
X+6856984Y+1499997D01*
X+6825996Y+1484503D02*
X+6810502Y+1469009D01*
X+6779514Y+1499997D02*
X+6764020Y+1515491D01*
X+6764020Y+1469009D01*
X+6725285Y+1507744D02*
X+6717538Y+1515491D01*
X+6694297Y+1515491D01*
X+6686550Y+1507744D01*
X+6686550Y+1499997D01*
X+6694297Y+1492250D01*
X+6717538Y+1492250D01*
X+6725285Y+1484503D01*
X+6725285Y+1469009D01*
X+6686550Y+1469009D01*
D20*
X+7036920Y+1492250D02*
X+7187080Y+1492250D01*
X+7187080Y+1790700D01*
X+7036920Y+1790700D01*
X+7036920Y+1492250D01*
D91*
X+7089616Y+1551942D02*
X+7134383Y+1551942D01*
X+7134383Y+1581786D01*
X+7119461Y+1596708D01*
X+7104538Y+1596708D01*
X+7089616Y+1581786D01*
X+7089616Y+1551942D01*
X+7119461Y+1626553D02*
X+7134383Y+1641475D01*
X+7089616Y+1641475D01*
X+7119461Y+1686242D02*
X+7134383Y+1701164D01*
X+7089616Y+1701164D01*
D20*
X+7544920Y+1130300D02*
X+7695080Y+1130300D01*
X+7695080Y+1428750D01*
X+7544920Y+1428750D01*
X+7544920Y+1130300D01*
D85*
X+7602093Y+1184021D02*
X+7637907Y+1184021D01*
X+7637907Y+1207897D01*
X+7625969Y+1219835D01*
X+7614031Y+1219835D01*
X+7602093Y+1207897D01*
X+7602093Y+1184021D01*
X+7631938Y+1237742D02*
X+7637907Y+1243711D01*
X+7637907Y+1261618D01*
X+7631938Y+1267587D01*
X+7625969Y+1267587D01*
X+7620000Y+1261618D01*
X+7620000Y+1243711D01*
X+7614031Y+1237742D01*
X+7602093Y+1237742D01*
X+7602093Y+1267587D01*
X+7608062Y+1279525D02*
X+7631938Y+1279525D01*
X+7637907Y+1285494D01*
X+7637907Y+1309370D01*
X+7631938Y+1315339D01*
X+7608062Y+1315339D01*
X+7602093Y+1309370D01*
X+7602093Y+1285494D01*
X+7608062Y+1279525D01*
X+7602093Y+1279525D02*
X+7637907Y+1315339D01*
X+7631938Y+1333246D02*
X+7637907Y+1339215D01*
X+7637907Y+1357122D01*
X+7631938Y+1363091D01*
X+7625969Y+1363091D01*
X+7620000Y+1357122D01*
X+7620000Y+1339215D01*
X+7614031Y+1333246D01*
X+7602093Y+1333246D01*
X+7602093Y+1363091D01*
D68*
X+8140000Y+550000D02*
X+8140000Y+1020000D01*
X+8370000Y+1020000D01*
X+8370000Y+550000D01*
X+8140000Y+550000D01*
X+8305000Y+785000D02*
X+8205000Y+785000D01*
X+8255000Y+835000D02*
X+8255000Y+735000D01*
D80*
X+8274000Y+880000D02*
X+8283500Y+889500D01*
X+8283500Y+918000D01*
X+8264500Y+937000D01*
X+8245500Y+937000D01*
X+8226500Y+918000D01*
X+8226500Y+889500D01*
X+8236000Y+880000D01*
X+8236000Y+851500D02*
X+8226500Y+842000D01*
X+8226500Y+813500D01*
X+8236000Y+804000D01*
X+8245500Y+804000D01*
X+8255000Y+813500D01*
X+8255000Y+842000D01*
X+8264500Y+851500D01*
X+8283500Y+851500D01*
X+8283500Y+804000D01*
X+8274000Y+785000D02*
X+8236000Y+785000D01*
X+8226500Y+775500D01*
X+8226500Y+737500D01*
X+8236000Y+728000D01*
X+8274000Y+728000D01*
X+8283500Y+737500D01*
X+8283500Y+775500D01*
X+8274000Y+785000D01*
X+8283500Y+785000D02*
X+8226500Y+728000D01*
X+8245500Y+690000D02*
X+8226500Y+671000D01*
X+8283500Y+671000D01*
D20*
X+8306920Y+1111250D02*
X+8457080Y+1111250D01*
X+8457080Y+1409700D01*
X+8306920Y+1409700D01*
X+8306920Y+1111250D01*
D85*
X+8364093Y+1164971D02*
X+8399907Y+1164971D01*
X+8399907Y+1188847D01*
X+8387969Y+1200785D01*
X+8376031Y+1200785D01*
X+8364093Y+1188847D01*
X+8364093Y+1164971D01*
X+8393938Y+1218692D02*
X+8399907Y+1224661D01*
X+8399907Y+1242568D01*
X+8393938Y+1248537D01*
X+8387969Y+1248537D01*
X+8382000Y+1242568D01*
X+8382000Y+1224661D01*
X+8376031Y+1218692D01*
X+8364093Y+1218692D01*
X+8364093Y+1248537D01*
X+8370062Y+1260475D02*
X+8393938Y+1260475D01*
X+8399907Y+1266444D01*
X+8399907Y+1290320D01*
X+8393938Y+1296289D01*
X+8370062Y+1296289D01*
X+8364093Y+1290320D01*
X+8364093Y+1266444D01*
X+8370062Y+1260475D01*
X+8364093Y+1260475D02*
X+8399907Y+1296289D01*
X+8387969Y+1320165D02*
X+8399907Y+1332103D01*
X+8364093Y+1332103D01*
D68*
X+7886000Y+550000D02*
X+7886000Y+1010000D01*
X+8116000Y+1010000D01*
X+8116000Y+550000D01*
X+7886000Y+550000D01*
X+8051000Y+780000D02*
X+7951000Y+780000D01*
X+8001000Y+830000D02*
X+8001000Y+730000D01*
D81*
X+7973100Y+631200D02*
X+8028900Y+631200D01*
X+8028900Y+677700D01*
X+8019600Y+687000D01*
X+8010300Y+687000D01*
X+8001000Y+677700D01*
X+8001000Y+631200D01*
X+8001000Y+677700D02*
X+7991700Y+687000D01*
X+7973100Y+687000D01*
X+8019600Y+714900D02*
X+8028900Y+724200D01*
X+8028900Y+752100D01*
X+8019600Y+761400D01*
X+8010300Y+761400D01*
X+8001000Y+752100D01*
X+8001000Y+724200D01*
X+7991700Y+714900D01*
X+7973100Y+714900D01*
X+7973100Y+761400D01*
X+7982400Y+780000D02*
X+8019600Y+780000D01*
X+8028900Y+789300D01*
X+8028900Y+826500D01*
X+8019600Y+835800D01*
X+7982400Y+835800D01*
X+7973100Y+826500D01*
X+7973100Y+789300D01*
X+7982400Y+780000D01*
X+7973100Y+780000D02*
X+8028900Y+835800D01*
X+8010300Y+873000D02*
X+8028900Y+891600D01*
X+7973100Y+891600D01*
D68*
X+8394000Y+550000D02*
X+8394000Y+1010000D01*
X+8624000Y+1010000D01*
X+8624000Y+550000D01*
X+8394000Y+550000D01*
X+8559000Y+780000D02*
X+8459000Y+780000D01*
X+8509000Y+830000D02*
X+8509000Y+730000D01*
D81*
X+8536900Y+928800D02*
X+8481100Y+928800D01*
X+8481100Y+882300D01*
X+8490400Y+873000D01*
X+8499700Y+873000D01*
X+8509000Y+882300D01*
X+8509000Y+928800D01*
X+8509000Y+882300D02*
X+8518300Y+873000D01*
X+8536900Y+873000D01*
X+8490400Y+845100D02*
X+8481100Y+835800D01*
X+8481100Y+807900D01*
X+8490400Y+798600D01*
X+8499700Y+798600D01*
X+8509000Y+807900D01*
X+8509000Y+835800D01*
X+8518300Y+845100D01*
X+8536900Y+845100D01*
X+8536900Y+798600D01*
X+8527600Y+780000D02*
X+8490400Y+780000D01*
X+8481100Y+770700D01*
X+8481100Y+733500D01*
X+8490400Y+724200D01*
X+8527600Y+724200D01*
X+8536900Y+733500D01*
X+8536900Y+770700D01*
X+8527600Y+780000D01*
X+8536900Y+780000D02*
X+8481100Y+724200D01*
X+8490400Y+696300D02*
X+8481100Y+687000D01*
X+8481100Y+659100D01*
X+8490400Y+649800D01*
X+8499700Y+649800D01*
X+8509000Y+659100D01*
X+8509000Y+687000D01*
X+8518300Y+696300D01*
X+8536900Y+696300D01*
X+8536900Y+649800D01*
D20*
X+7846060Y+1092200D02*
X+8155940Y+1092200D01*
X+8155940Y+1384300D01*
X+7846060Y+1384300D01*
X+7846060Y+1092200D01*
D90*
X+7908036Y+1230503D02*
X+7923530Y+1215009D01*
X+7939024Y+1215009D01*
X+7954518Y+1230503D01*
X+7954518Y+1245997D01*
X+7939024Y+1261491D01*
X+7923530Y+1261491D01*
X+7908036Y+1245997D01*
X+7908036Y+1230503D01*
X+7939024Y+1245997D02*
X+7954518Y+1261491D01*
X+7985506Y+1230503D02*
X+8001000Y+1215009D01*
X+8001000Y+1261491D01*
X+8047482Y+1230503D02*
X+8062976Y+1215009D01*
X+8062976Y+1261491D01*
D68*
X+7378000Y+423000D02*
X+7378000Y+893000D01*
X+7608000Y+893000D01*
X+7608000Y+423000D01*
X+7378000Y+423000D01*
X+7543000Y+658000D02*
X+7443000Y+658000D01*
X+7493000Y+708000D02*
X+7493000Y+608000D01*
D88*
X+7469250Y+586750D02*
X+7457375Y+574875D01*
X+7457375Y+539250D01*
X+7481125Y+515500D01*
X+7504875Y+515500D01*
X+7528625Y+539250D01*
X+7528625Y+574875D01*
X+7516750Y+586750D01*
X+7516750Y+622375D02*
X+7528625Y+634250D01*
X+7528625Y+669875D01*
X+7516750Y+681750D01*
X+7504875Y+681750D01*
X+7493000Y+669875D01*
X+7481125Y+681750D01*
X+7469250Y+681750D01*
X+7457375Y+669875D01*
X+7457375Y+634250D01*
X+7469250Y+622375D01*
X+7493000Y+646125D02*
X+7493000Y+669875D01*
X+7504875Y+729250D02*
X+7528625Y+753000D01*
X+7457375Y+753000D01*
D20*
X+7417920Y+2000250D02*
X+7568080Y+2000250D01*
X+7568080Y+2298700D01*
X+7417920Y+2298700D01*
X+7417920Y+2000250D01*
D91*
X+7470616Y+2059942D02*
X+7515383Y+2059942D01*
X+7515383Y+2089786D01*
X+7500461Y+2104708D01*
X+7485538Y+2104708D01*
X+7470616Y+2089786D01*
X+7470616Y+2059942D01*
X+7500461Y+2134553D02*
X+7515383Y+2149475D01*
X+7470616Y+2149475D01*
X+7478077Y+2179320D02*
X+7507922Y+2179320D01*
X+7515383Y+2186781D01*
X+7515383Y+2216625D01*
X+7507922Y+2224086D01*
X+7478077Y+2224086D01*
X+7470616Y+2216625D01*
X+7470616Y+2186781D01*
X+7478077Y+2179320D01*
X+7470616Y+2179320D02*
X+7515383Y+2224086D01*
D20*
X+7061235Y+1877060D02*
X+7353335Y+1877060D01*
X+7353335Y+2186940D01*
X+7061235Y+2186940D01*
X+7061235Y+1877060D01*
D92*
X+7217614Y+1949366D02*
X+7238273Y+1970024D01*
X+7238273Y+1990683D01*
X+7217614Y+2011341D01*
X+7196956Y+2011341D01*
X+7176297Y+1990683D01*
X+7176297Y+1970024D01*
X+7196956Y+1949366D01*
X+7217614Y+1949366D01*
X+7196956Y+1990683D02*
X+7176297Y+2011341D01*
X+7217614Y+2052658D02*
X+7238273Y+2073317D01*
X+7176297Y+2073317D01*
D68*
X+7251000Y+1185000D02*
X+7251000Y+1645000D01*
X+7481000Y+1645000D01*
X+7481000Y+1185000D01*
X+7251000Y+1185000D01*
X+7416000Y+1415000D02*
X+7316000Y+1415000D01*
X+7366000Y+1465000D02*
X+7366000Y+1365000D01*
D89*
X+7331125Y+1275500D02*
X+7400875Y+1275500D01*
X+7400875Y+1333625D01*
X+7389250Y+1345250D01*
X+7377625Y+1345250D01*
X+7366000Y+1333625D01*
X+7366000Y+1275500D01*
X+7366000Y+1333625D02*
X+7354375Y+1345250D01*
X+7331125Y+1345250D01*
X+7389250Y+1380125D02*
X+7400875Y+1391750D01*
X+7400875Y+1426625D01*
X+7389250Y+1438250D01*
X+7377625Y+1438250D01*
X+7366000Y+1426625D01*
X+7354375Y+1438250D01*
X+7342750Y+1438250D01*
X+7331125Y+1426625D01*
X+7331125Y+1391750D01*
X+7342750Y+1380125D01*
X+7366000Y+1403375D02*
X+7366000Y+1426625D01*
X+7366000Y+1484750D02*
X+7377625Y+1473125D01*
X+7389250Y+1473125D01*
X+7400875Y+1484750D01*
X+7400875Y+1519625D01*
X+7389250Y+1531250D01*
X+7377625Y+1531250D01*
X+7366000Y+1519625D01*
X+7366000Y+1484750D01*
X+7354375Y+1473125D01*
X+7342750Y+1473125D01*
X+7331125Y+1484750D01*
X+7331125Y+1519625D01*
X+7342750Y+1531250D01*
X+7354375Y+1531250D01*
X+7366000Y+1519625D01*
D68*
X+7632000Y+423000D02*
X+7632000Y+883000D01*
X+7862000Y+883000D01*
X+7862000Y+423000D01*
X+7632000Y+423000D01*
X+7797000Y+653000D02*
X+7697000Y+653000D01*
X+7747000Y+703000D02*
X+7747000Y+603000D01*
D89*
X+7712125Y+513500D02*
X+7781875Y+513500D01*
X+7781875Y+571625D01*
X+7770250Y+583250D01*
X+7758625Y+583250D01*
X+7747000Y+571625D01*
X+7747000Y+513500D01*
X+7747000Y+571625D02*
X+7735375Y+583250D01*
X+7712125Y+583250D01*
X+7770250Y+618125D02*
X+7781875Y+629750D01*
X+7781875Y+664625D01*
X+7770250Y+676250D01*
X+7758625Y+676250D01*
X+7747000Y+664625D01*
X+7735375Y+676250D01*
X+7723750Y+676250D01*
X+7712125Y+664625D01*
X+7712125Y+629750D01*
X+7723750Y+618125D01*
X+7747000Y+641375D02*
X+7747000Y+664625D01*
X+7758625Y+769250D02*
X+7747000Y+757625D01*
X+7747000Y+722750D01*
X+7758625Y+711125D01*
X+7770250Y+711125D01*
X+7781875Y+722750D01*
X+7781875Y+757625D01*
X+7770250Y+769250D01*
X+7723750Y+769250D01*
X+7712125Y+757625D01*
X+7712125Y+722750D01*
D20*
X+6322060Y+8585200D02*
X+6631940Y+8585200D01*
X+6631940Y+8877300D01*
X+6322060Y+8877300D01*
X+6322060Y+8585200D01*
D92*
X+6559634Y+8741579D02*
X+6538976Y+8762238D01*
X+6518317Y+8762238D01*
X+6497659Y+8741579D01*
X+6497659Y+8720921D01*
X+6518317Y+8700262D01*
X+6538976Y+8700262D01*
X+6559634Y+8720921D01*
X+6559634Y+8741579D01*
X+6518317Y+8720921D02*
X+6497659Y+8700262D01*
X+6466671Y+8751909D02*
X+6456342Y+8762238D01*
X+6425354Y+8762238D01*
X+6415025Y+8751909D01*
X+6415025Y+8741579D01*
X+6425354Y+8731250D01*
X+6415025Y+8720921D01*
X+6415025Y+8710591D01*
X+6425354Y+8700262D01*
X+6456342Y+8700262D01*
X+6466671Y+8710591D01*
X+6446013Y+8731250D02*
X+6425354Y+8731250D01*
D68*
X+7197000Y+6235000D02*
X+6737000Y+6235000D01*
X+6737000Y+6465000D01*
X+7197000Y+6465000D01*
X+7197000Y+6235000D01*
X+6967000Y+6400000D02*
X+6967000Y+6300000D01*
X+6917000Y+6350000D02*
X+7017000Y+6350000D01*
D87*
X+7079800Y+6307700D02*
X+7079800Y+6392300D01*
X+7009300Y+6392300D01*
X+6995200Y+6378200D01*
X+6995200Y+6364100D01*
X+7009300Y+6350000D01*
X+7079800Y+6350000D01*
X+7009300Y+6350000D02*
X+6995200Y+6335900D01*
X+6995200Y+6307700D01*
X+6938800Y+6350000D02*
X+6952900Y+6364100D01*
X+6952900Y+6378200D01*
X+6938800Y+6392300D01*
X+6896500Y+6392300D01*
X+6882400Y+6378200D01*
X+6882400Y+6364100D01*
X+6896500Y+6350000D01*
X+6938800Y+6350000D01*
X+6952900Y+6335900D01*
X+6952900Y+6321800D01*
X+6938800Y+6307700D01*
X+6896500Y+6307700D01*
X+6882400Y+6321800D01*
X+6882400Y+6335900D01*
X+6896500Y+6350000D01*
D68*
X+5854000Y+8805000D02*
X+5854000Y+9265000D01*
X+6084000Y+9265000D01*
X+6084000Y+8805000D01*
X+5854000Y+8805000D01*
X+6019000Y+9035000D02*
X+5919000Y+9035000D01*
X+5969000Y+9085000D02*
X+5969000Y+8985000D01*
D87*
X+6011300Y+9147800D02*
X+5926700Y+9147800D01*
X+5926700Y+9077300D01*
X+5940800Y+9063200D01*
X+5954900Y+9063200D01*
X+5969000Y+9077300D01*
X+5969000Y+9147800D01*
X+5969000Y+9077300D02*
X+5983100Y+9063200D01*
X+6011300Y+9063200D01*
X+5954900Y+8950400D02*
X+5969000Y+8964500D01*
X+5969000Y+9006800D01*
X+5954900Y+9020900D01*
X+5940800Y+9020900D01*
X+5926700Y+9006800D01*
X+5926700Y+8964500D01*
X+5940800Y+8950400D01*
X+5997200Y+8950400D01*
X+6011300Y+8964500D01*
X+6011300Y+9006800D01*
D20*
X+6375400Y+3462596D02*
X+7208520Y+3462596D01*
X+7208520Y+4122996D01*
X+6375400Y+4122996D01*
X+6375400Y+3462596D01*
D93*
X+7069665Y+3834452D02*
X+7069665Y+3765025D01*
X+7055780Y+3751140D01*
X+7000239Y+3751140D01*
X+6986354Y+3765025D01*
X+6986354Y+3834452D01*
X+6958583Y+3751140D02*
X+6958583Y+3806681D01*
X+6930813Y+3834452D01*
X+6903042Y+3834452D01*
X+6875272Y+3806681D01*
X+6875272Y+3751140D01*
X+6958583Y+3778911D02*
X+6875272Y+3778911D01*
X+6805846Y+3765025D02*
X+6791960Y+3765025D01*
X+6791960Y+3751140D01*
X+6805846Y+3751140D01*
X+6805846Y+3765025D01*
X+6653108Y+3834452D02*
X+6722534Y+3834452D01*
X+6722534Y+3806681D01*
X+6666993Y+3806681D01*
X+6653108Y+3792796D01*
X+6653108Y+3765025D01*
X+6666993Y+3751140D01*
X+6708649Y+3751140D01*
X+6722534Y+3765025D01*
X+6625337Y+3834452D02*
X+6625337Y+3792796D01*
X+6583682Y+3751140D01*
X+6542026Y+3792796D01*
X+6542026Y+3834452D01*
M02*
