G04 PROTEUS GERBER X2 FILE*
%TF.GenerationSoftware,Labcenter,Proteus,8.7-SP3-Build25561*%
%TF.CreationDate,2021-06-23T20:43:36+00:00*%
%TF.FileFunction,AssemblyDrawing,Top*%
%TF.FilePolarity,Positive*%
%TF.Part,Single*%
%TF.SameCoordinates,{72a0a031-abb8-4097-8df3-996e39d3871e}*%
%FSLAX45Y45*%
%MOMM*%
G01*
%TA.AperFunction,Profile*%
%ADD47C,0.203200*%
%TA.AperFunction,Material*%
%ADD61C,0.203200*%
%ADD152C,0.549060*%
%ADD153C,0.411790*%
%ADD154C,0.105410*%
%ADD155C,0.068580*%
%ADD156C,0.291780*%
%ADD157C,0.317500*%
%ADD158C,0.389040*%
%ADD159C,0.100530*%
%ADD160C,0.050000*%
%ADD161C,0.116250*%
%ADD162C,0.422590*%
%ADD163C,0.258330*%
%ADD164C,0.096190*%
%ADD165C,0.118750*%
%ADD166C,0.054860*%
%ADD167C,0.141000*%
%ADD168C,0.093000*%
%ADD169C,0.103290*%
%ADD170C,0.144780*%
%ADD171C,0.137160*%
%ADD172C,0.171450*%
%ADD173C,0.059690*%
%ADD174C,0.095000*%
%ADD175C,0.077470*%
%ADD176C,0.074610*%
%ADD65C,0.152400*%
%ADD177C,0.278890*%
%ADD178C,0.151430*%
%ADD179C,0.160020*%
%ADD180C,0.931330*%
%ADD181C,0.263750*%
%ADD182C,0.100750*%
%ADD183C,0.083180*%
%ADD184C,0.100580*%
%ADD185C,0.182880*%
%TA.AperFunction,NonMaterial*%
%ADD48C,0.203200*%
%TD.AperFunction*%
D47*
X-1079500Y-9461500D02*
X+9715500Y-9461500D01*
X+9715500Y+2349500D01*
X-1079500Y+2349500D01*
X-1079500Y-9461500D01*
D61*
X+3329940Y-2636520D02*
X+4417060Y-2636520D01*
X+4417060Y-989330D01*
X+3329940Y-989330D01*
X+3329940Y-2636520D01*
D152*
X+3818594Y-2252175D02*
X+3708781Y-2142363D01*
X+3708781Y-2032550D01*
X+3818594Y-1922738D01*
X+3928406Y-1922738D01*
X+4038219Y-2032550D01*
X+4038219Y-2142363D01*
X+3928406Y-2252175D01*
X+3818594Y-2252175D01*
X+3928406Y-2032550D02*
X+4038219Y-1922738D01*
X+3763687Y-1483488D02*
X+3708781Y-1538394D01*
X+3708781Y-1703113D01*
X+3763687Y-1758019D01*
X+3983313Y-1758019D01*
X+4038219Y-1703113D01*
X+4038219Y-1538394D01*
X+3983313Y-1483488D01*
X+3928406Y-1483488D01*
X+3873500Y-1538394D01*
X+3873500Y-1758019D01*
D61*
X+5107940Y-668020D02*
X+6195060Y-668020D01*
X+6195060Y+979170D01*
X+5107940Y+979170D01*
X+5107940Y-668020D01*
D152*
X+5596594Y-283675D02*
X+5486781Y-173863D01*
X+5486781Y-64050D01*
X+5596594Y+45762D01*
X+5706406Y+45762D01*
X+5816219Y-64050D01*
X+5816219Y-173863D01*
X+5706406Y-283675D01*
X+5596594Y-283675D01*
X+5706406Y-64050D02*
X+5816219Y+45762D01*
X+5486781Y+210481D02*
X+5486781Y+485012D01*
X+5541687Y+485012D01*
X+5816219Y+210481D01*
D61*
X+5679440Y-2636520D02*
X+6766560Y-2636520D01*
X+6766560Y-989330D01*
X+5679440Y-989330D01*
X+5679440Y-2636520D01*
D152*
X+6168094Y-2252175D02*
X+6058281Y-2142363D01*
X+6058281Y-2032550D01*
X+6168094Y-1922738D01*
X+6277906Y-1922738D01*
X+6387719Y-2032550D01*
X+6387719Y-2142363D01*
X+6277906Y-2252175D01*
X+6168094Y-2252175D01*
X+6277906Y-2032550D02*
X+6387719Y-1922738D01*
X+6223000Y-1703113D02*
X+6168094Y-1758019D01*
X+6113187Y-1758019D01*
X+6058281Y-1703113D01*
X+6058281Y-1538394D01*
X+6113187Y-1483488D01*
X+6168094Y-1483488D01*
X+6223000Y-1538394D01*
X+6223000Y-1703113D01*
X+6277906Y-1758019D01*
X+6332813Y-1758019D01*
X+6387719Y-1703113D01*
X+6387719Y-1538394D01*
X+6332813Y-1483488D01*
X+6277906Y-1483488D01*
X+6223000Y-1538394D01*
D61*
X+7393940Y-668020D02*
X+8481060Y-668020D01*
X+8481060Y+979170D01*
X+7393940Y+979170D01*
X+7393940Y-668020D01*
D152*
X+7882594Y-283675D02*
X+7772781Y-173863D01*
X+7772781Y-64050D01*
X+7882594Y+45762D01*
X+7992406Y+45762D01*
X+8102219Y-64050D01*
X+8102219Y-173863D01*
X+7992406Y-283675D01*
X+7882594Y-283675D01*
X+7992406Y-64050D02*
X+8102219Y+45762D01*
X+7882594Y+485012D02*
X+7937500Y+430106D01*
X+7937500Y+265387D01*
X+7882594Y+210481D01*
X+7827687Y+210481D01*
X+7772781Y+265387D01*
X+7772781Y+430106D01*
X+7827687Y+485012D01*
X+8047313Y+485012D01*
X+8102219Y+430106D01*
X+8102219Y+265387D01*
D61*
X+7965440Y-2636520D02*
X+9052560Y-2636520D01*
X+9052560Y-989330D01*
X+7965440Y-989330D01*
X+7965440Y-2636520D01*
D153*
X+8467820Y-2307080D02*
X+8385461Y-2224721D01*
X+8385461Y-2142362D01*
X+8467820Y-2060003D01*
X+8550180Y-2060003D01*
X+8632539Y-2142362D01*
X+8632539Y-2224721D01*
X+8550180Y-2307080D01*
X+8467820Y-2307080D01*
X+8550180Y-2142362D02*
X+8632539Y-2060003D01*
X+8467820Y-1895284D02*
X+8385461Y-1812925D01*
X+8632539Y-1812925D01*
X+8591359Y-1648206D02*
X+8426641Y-1648206D01*
X+8385461Y-1607027D01*
X+8385461Y-1442308D01*
X+8426641Y-1401129D01*
X+8591359Y-1401129D01*
X+8632539Y-1442308D01*
X+8632539Y-1607027D01*
X+8591359Y-1648206D01*
X+8632539Y-1648206D02*
X+8385461Y-1401129D01*
D61*
X+2758440Y-668020D02*
X+3845560Y-668020D01*
X+3845560Y+979170D01*
X+2758440Y+979170D01*
X+2758440Y-668020D01*
D152*
X+3247094Y-283675D02*
X+3137281Y-173863D01*
X+3137281Y-64050D01*
X+3247094Y+45762D01*
X+3356906Y+45762D01*
X+3466719Y-64050D01*
X+3466719Y-173863D01*
X+3356906Y-283675D01*
X+3247094Y-283675D01*
X+3356906Y-64050D02*
X+3466719Y+45762D01*
X+3192187Y+210481D02*
X+3137281Y+265387D01*
X+3137281Y+430106D01*
X+3192187Y+485012D01*
X+3247094Y+485012D01*
X+3302000Y+430106D01*
X+3302000Y+265387D01*
X+3356906Y+210481D01*
X+3466719Y+210481D01*
X+3466719Y+485012D01*
D61*
X+6403340Y+44450D02*
X+7185660Y+44450D01*
X+7185660Y+1098550D01*
X+6403340Y+1098550D01*
X+6403340Y+44450D01*
D154*
X+6815582Y+192024D02*
X+6826123Y+202565D01*
X+6826123Y+244729D01*
X+6815582Y+255270D01*
X+6805041Y+255270D01*
X+6794500Y+244729D01*
X+6794500Y+202565D01*
X+6783959Y+192024D01*
X+6773418Y+192024D01*
X+6762877Y+202565D01*
X+6762877Y+244729D01*
X+6773418Y+255270D01*
X+6826123Y+276352D02*
X+6762877Y+276352D01*
X+6762877Y+339598D02*
X+6826123Y+339598D01*
X+6794500Y+276352D02*
X+6794500Y+339598D01*
X+6762877Y+360680D02*
X+6815582Y+360680D01*
X+6826123Y+371221D01*
X+6826123Y+413385D01*
X+6815582Y+423926D01*
X+6762877Y+423926D01*
X+6826123Y+445008D02*
X+6762877Y+445008D01*
X+6826123Y+508254D01*
X+6762877Y+508254D01*
X+6762877Y+529336D02*
X+6762877Y+592582D01*
X+6762877Y+560959D02*
X+6826123Y+560959D01*
X+6836664Y+613664D02*
X+6836664Y+676910D01*
X+6826123Y+697992D02*
X+6762877Y+697992D01*
X+6762877Y+750697D01*
X+6773418Y+761238D01*
X+6783959Y+761238D01*
X+6794500Y+750697D01*
X+6794500Y+697992D01*
X+6826123Y+782320D02*
X+6762877Y+782320D01*
X+6762877Y+845566D02*
X+6826123Y+845566D01*
X+6794500Y+782320D02*
X+6794500Y+845566D01*
X+6773418Y+877189D02*
X+6762877Y+887730D01*
X+6762877Y+919353D01*
X+6773418Y+929894D01*
X+6783959Y+929894D01*
X+6794500Y+919353D01*
X+6794500Y+887730D01*
X+6805041Y+877189D01*
X+6826123Y+877189D01*
X+6826123Y+929894D01*
D61*
X+8689340Y+44450D02*
X+9471660Y+44450D01*
X+9471660Y+1098550D01*
X+8689340Y+1098550D01*
X+8689340Y+44450D01*
D154*
X+9101582Y+192024D02*
X+9112123Y+202565D01*
X+9112123Y+244729D01*
X+9101582Y+255270D01*
X+9091041Y+255270D01*
X+9080500Y+244729D01*
X+9080500Y+202565D01*
X+9069959Y+192024D01*
X+9059418Y+192024D01*
X+9048877Y+202565D01*
X+9048877Y+244729D01*
X+9059418Y+255270D01*
X+9112123Y+276352D02*
X+9048877Y+276352D01*
X+9048877Y+339598D02*
X+9112123Y+339598D01*
X+9080500Y+276352D02*
X+9080500Y+339598D01*
X+9048877Y+360680D02*
X+9101582Y+360680D01*
X+9112123Y+371221D01*
X+9112123Y+413385D01*
X+9101582Y+423926D01*
X+9048877Y+423926D01*
X+9112123Y+445008D02*
X+9048877Y+445008D01*
X+9112123Y+508254D01*
X+9048877Y+508254D01*
X+9048877Y+529336D02*
X+9048877Y+592582D01*
X+9048877Y+560959D02*
X+9112123Y+560959D01*
X+9122664Y+613664D02*
X+9122664Y+676910D01*
X+9112123Y+697992D02*
X+9048877Y+697992D01*
X+9048877Y+750697D01*
X+9059418Y+761238D01*
X+9069959Y+761238D01*
X+9080500Y+750697D01*
X+9080500Y+697992D01*
X+9112123Y+782320D02*
X+9048877Y+782320D01*
X+9048877Y+845566D02*
X+9112123Y+845566D01*
X+9080500Y+782320D02*
X+9080500Y+845566D01*
X+9059418Y+877189D02*
X+9048877Y+887730D01*
X+9048877Y+919353D01*
X+9059418Y+929894D01*
X+9069959Y+929894D01*
X+9080500Y+919353D01*
X+9091041Y+929894D01*
X+9101582Y+929894D01*
X+9112123Y+919353D01*
X+9112123Y+887730D01*
X+9101582Y+877189D01*
X+9080500Y+898271D02*
X+9080500Y+919353D01*
D61*
X+4053840Y+44450D02*
X+4836160Y+44450D01*
X+4836160Y+1098550D01*
X+4053840Y+1098550D01*
X+4053840Y+44450D01*
D154*
X+4466082Y+192024D02*
X+4476623Y+202565D01*
X+4476623Y+244729D01*
X+4466082Y+255270D01*
X+4455541Y+255270D01*
X+4445000Y+244729D01*
X+4445000Y+202565D01*
X+4434459Y+192024D01*
X+4423918Y+192024D01*
X+4413377Y+202565D01*
X+4413377Y+244729D01*
X+4423918Y+255270D01*
X+4476623Y+276352D02*
X+4413377Y+276352D01*
X+4413377Y+339598D02*
X+4476623Y+339598D01*
X+4445000Y+276352D02*
X+4445000Y+339598D01*
X+4413377Y+360680D02*
X+4466082Y+360680D01*
X+4476623Y+371221D01*
X+4476623Y+413385D01*
X+4466082Y+423926D01*
X+4413377Y+423926D01*
X+4476623Y+445008D02*
X+4413377Y+445008D01*
X+4476623Y+508254D01*
X+4413377Y+508254D01*
X+4413377Y+529336D02*
X+4413377Y+592582D01*
X+4413377Y+560959D02*
X+4476623Y+560959D01*
X+4487164Y+613664D02*
X+4487164Y+676910D01*
X+4476623Y+697992D02*
X+4413377Y+697992D01*
X+4413377Y+750697D01*
X+4423918Y+761238D01*
X+4434459Y+761238D01*
X+4445000Y+750697D01*
X+4445000Y+697992D01*
X+4476623Y+782320D02*
X+4413377Y+782320D01*
X+4413377Y+845566D02*
X+4476623Y+845566D01*
X+4445000Y+782320D02*
X+4445000Y+845566D01*
X+4434459Y+887730D02*
X+4413377Y+908812D01*
X+4476623Y+908812D01*
D61*
X+4180840Y+1577340D02*
X+4455160Y+1577340D01*
X+4455160Y+1851660D01*
X+4180840Y+1851660D01*
X+4180840Y+1577340D01*
D155*
X+4235704Y+1693926D02*
X+4235704Y+1735074D01*
X+4269994Y+1735074D01*
X+4276852Y+1728216D01*
X+4276852Y+1721358D01*
X+4269994Y+1714500D01*
X+4235704Y+1714500D01*
X+4290568Y+1693926D02*
X+4290568Y+1735074D01*
X+4331716Y+1735074D02*
X+4331716Y+1693926D01*
X+4290568Y+1714500D02*
X+4331716Y+1714500D01*
X+4359148Y+1721358D02*
X+4372864Y+1735074D01*
X+4372864Y+1693926D01*
D61*
X+6530340Y+1577340D02*
X+6804660Y+1577340D01*
X+6804660Y+1851660D01*
X+6530340Y+1851660D01*
X+6530340Y+1577340D01*
D155*
X+6585204Y+1693926D02*
X+6585204Y+1735074D01*
X+6619494Y+1735074D01*
X+6626352Y+1728216D01*
X+6626352Y+1721358D01*
X+6619494Y+1714500D01*
X+6585204Y+1714500D01*
X+6640068Y+1693926D02*
X+6640068Y+1735074D01*
X+6681216Y+1735074D02*
X+6681216Y+1693926D01*
X+6640068Y+1714500D02*
X+6681216Y+1714500D01*
X+6701790Y+1728216D02*
X+6708648Y+1735074D01*
X+6729222Y+1735074D01*
X+6736080Y+1728216D01*
X+6736080Y+1721358D01*
X+6729222Y+1714500D01*
X+6708648Y+1714500D01*
X+6701790Y+1707642D01*
X+6701790Y+1693926D01*
X+6736080Y+1693926D01*
D61*
X+8117840Y+1513840D02*
X+8392160Y+1513840D01*
X+8392160Y+1788160D01*
X+8117840Y+1788160D01*
X+8117840Y+1513840D01*
D155*
X+8172704Y+1630426D02*
X+8172704Y+1671574D01*
X+8206994Y+1671574D01*
X+8213852Y+1664716D01*
X+8213852Y+1657858D01*
X+8206994Y+1651000D01*
X+8172704Y+1651000D01*
X+8227568Y+1630426D02*
X+8227568Y+1671574D01*
X+8268716Y+1671574D02*
X+8268716Y+1630426D01*
X+8227568Y+1651000D02*
X+8268716Y+1651000D01*
X+8289290Y+1664716D02*
X+8296148Y+1671574D01*
X+8316722Y+1671574D01*
X+8323580Y+1664716D01*
X+8323580Y+1657858D01*
X+8316722Y+1651000D01*
X+8323580Y+1644142D01*
X+8323580Y+1637284D01*
X+8316722Y+1630426D01*
X+8296148Y+1630426D01*
X+8289290Y+1637284D01*
X+8303006Y+1651000D02*
X+8316722Y+1651000D01*
D61*
X+1835150Y-1738630D02*
X+2533650Y-1738630D01*
X+2533650Y-571500D01*
X+1835150Y-571500D01*
X+1835150Y-1738630D01*
D156*
X+2155222Y-1505202D02*
X+2096866Y-1446846D01*
X+2096866Y-1388490D01*
X+2155222Y-1330134D01*
X+2213579Y-1330134D01*
X+2271935Y-1388490D01*
X+2271935Y-1446846D01*
X+2213579Y-1505202D01*
X+2155222Y-1505202D01*
X+2213579Y-1388490D02*
X+2271935Y-1330134D01*
X+2155222Y-1213421D02*
X+2096866Y-1155065D01*
X+2271935Y-1155065D01*
X+2126044Y-1009174D02*
X+2096866Y-979996D01*
X+2096866Y-892462D01*
X+2126044Y-863284D01*
X+2155222Y-863284D01*
X+2184400Y-892462D01*
X+2213579Y-863284D01*
X+2242757Y-863284D01*
X+2271935Y-892462D01*
X+2271935Y-979996D01*
X+2242757Y-1009174D01*
X+2184400Y-950818D02*
X+2184400Y-892462D01*
D61*
X+1809750Y-246380D02*
X+2508250Y-246380D01*
X+2508250Y+920750D01*
X+1809750Y+920750D01*
X+1809750Y-246380D01*
D156*
X+2129822Y-12952D02*
X+2071466Y+45404D01*
X+2071466Y+103760D01*
X+2129822Y+162116D01*
X+2188179Y+162116D01*
X+2246535Y+103760D01*
X+2246535Y+45404D01*
X+2188179Y-12952D01*
X+2129822Y-12952D01*
X+2188179Y+103760D02*
X+2246535Y+162116D01*
X+2129822Y+278829D02*
X+2071466Y+337185D01*
X+2246535Y+337185D01*
X+2188179Y+628966D02*
X+2188179Y+453898D01*
X+2071466Y+570610D01*
X+2246535Y+570610D01*
D61*
X+815340Y-2921000D02*
X+1851660Y-2921000D01*
X+1851660Y-1651000D01*
X+815340Y-1651000D01*
X+815340Y-2921000D01*
D157*
X+1397000Y-2476500D02*
X+1428750Y-2508250D01*
X+1428750Y-2603500D01*
X+1365250Y-2667000D01*
X+1301750Y-2667000D01*
X+1238250Y-2603500D01*
X+1238250Y-2508250D01*
X+1270000Y-2476500D01*
X+1270000Y-2381250D02*
X+1238250Y-2349500D01*
X+1238250Y-2254250D01*
X+1270000Y-2222500D01*
X+1301750Y-2222500D01*
X+1333500Y-2254250D01*
X+1333500Y-2349500D01*
X+1365250Y-2381250D01*
X+1428750Y-2381250D01*
X+1428750Y-2222500D01*
X+1333500Y-2095500D02*
X+1301750Y-2127250D01*
X+1270000Y-2127250D01*
X+1238250Y-2095500D01*
X+1238250Y-2000250D01*
X+1270000Y-1968500D01*
X+1301750Y-1968500D01*
X+1333500Y-2000250D01*
X+1333500Y-2095500D01*
X+1365250Y-2127250D01*
X+1397000Y-2127250D01*
X+1428750Y-2095500D01*
X+1428750Y-2000250D01*
X+1397000Y-1968500D01*
X+1365250Y-1968500D01*
X+1333500Y-2000250D01*
D61*
X-327660Y-2921000D02*
X+708660Y-2921000D01*
X+708660Y-1651000D01*
X-327660Y-1651000D01*
X-327660Y-2921000D01*
D157*
X+254000Y-2476500D02*
X+285750Y-2508250D01*
X+285750Y-2603500D01*
X+222250Y-2667000D01*
X+158750Y-2667000D01*
X+95250Y-2603500D01*
X+95250Y-2508250D01*
X+127000Y-2476500D01*
X+127000Y-2381250D02*
X+95250Y-2349500D01*
X+95250Y-2254250D01*
X+127000Y-2222500D01*
X+158750Y-2222500D01*
X+190500Y-2254250D01*
X+190500Y-2349500D01*
X+222250Y-2381250D01*
X+285750Y-2381250D01*
X+285750Y-2222500D01*
X+158750Y-1968500D02*
X+190500Y-2000250D01*
X+190500Y-2095500D01*
X+158750Y-2127250D01*
X+127000Y-2127250D01*
X+95250Y-2095500D01*
X+95250Y-2000250D01*
X+127000Y-1968500D01*
X+254000Y-1968500D01*
X+285750Y-2000250D01*
X+285750Y-2095500D01*
D61*
X-895350Y-4127500D02*
X-196850Y-4127500D01*
X-196850Y-2960370D01*
X-895350Y-2960370D01*
X-895350Y-4127500D01*
D158*
X-585004Y-3855169D02*
X-662813Y-3777361D01*
X-662813Y-3699552D01*
X-585004Y-3621744D01*
X-507196Y-3621744D01*
X-429387Y-3699552D01*
X-429387Y-3777361D01*
X-507196Y-3855169D01*
X-585004Y-3855169D01*
X-507196Y-3699552D02*
X-429387Y-3621744D01*
X-662813Y-3310510D02*
X-662813Y-3505031D01*
X-585004Y-3505031D01*
X-585004Y-3349414D01*
X-546100Y-3310510D01*
X-468291Y-3310510D01*
X-429387Y-3349414D01*
X-429387Y-3466127D01*
X-468291Y-3505031D01*
D61*
X-852160Y-4568800D02*
X-671840Y-4568800D01*
X-671840Y-4267200D01*
X-852160Y-4267200D01*
X-852160Y-4568800D01*
D159*
X-731840Y-4498426D02*
X-792160Y-4498426D01*
X-792160Y-4458213D01*
X-772053Y-4438107D01*
X-751947Y-4438107D01*
X-731840Y-4458213D01*
X-731840Y-4498426D01*
X-772053Y-4397894D02*
X-792160Y-4377787D01*
X-731840Y-4377787D01*
D160*
X-593000Y-4433000D02*
X-133000Y-4433000D01*
X-133000Y-4203000D01*
X-593000Y-4203000D01*
X-593000Y-4433000D01*
X-363000Y-4268000D02*
X-363000Y-4368000D01*
X-313000Y-4318000D02*
X-413000Y-4318000D01*
D161*
X-502500Y-4352875D02*
X-502500Y-4283125D01*
X-444375Y-4283125D01*
X-432750Y-4294750D01*
X-432750Y-4306375D01*
X-444375Y-4318000D01*
X-502500Y-4318000D01*
X-444375Y-4318000D02*
X-432750Y-4329625D01*
X-432750Y-4352875D01*
X-397875Y-4294750D02*
X-386250Y-4283125D01*
X-351375Y-4283125D01*
X-339750Y-4294750D01*
X-339750Y-4306375D01*
X-351375Y-4318000D01*
X-339750Y-4329625D01*
X-339750Y-4341250D01*
X-351375Y-4352875D01*
X-386250Y-4352875D01*
X-397875Y-4341250D01*
X-374625Y-4318000D02*
X-351375Y-4318000D01*
X-304875Y-4294750D02*
X-293250Y-4283125D01*
X-258375Y-4283125D01*
X-246750Y-4294750D01*
X-246750Y-4306375D01*
X-258375Y-4318000D01*
X-293250Y-4318000D01*
X-304875Y-4329625D01*
X-304875Y-4352875D01*
X-246750Y-4352875D01*
D61*
X-73660Y-4191000D02*
X+962660Y-4191000D01*
X+962660Y-2921000D01*
X-73660Y-2921000D01*
X-73660Y-4191000D01*
D157*
X+508000Y-3746500D02*
X+539750Y-3778250D01*
X+539750Y-3873500D01*
X+476250Y-3937000D01*
X+412750Y-3937000D01*
X+349250Y-3873500D01*
X+349250Y-3778250D01*
X+381000Y-3746500D01*
X+381000Y-3651250D02*
X+349250Y-3619500D01*
X+349250Y-3524250D01*
X+381000Y-3492500D01*
X+412750Y-3492500D01*
X+444500Y-3524250D01*
X+476250Y-3492500D01*
X+508000Y-3492500D01*
X+539750Y-3524250D01*
X+539750Y-3619500D01*
X+508000Y-3651250D01*
X+444500Y-3587750D02*
X+444500Y-3524250D01*
X+444500Y-3365500D02*
X+412750Y-3397250D01*
X+381000Y-3397250D01*
X+349250Y-3365500D01*
X+349250Y-3270250D01*
X+381000Y-3238500D01*
X+412750Y-3238500D01*
X+444500Y-3270250D01*
X+444500Y-3365500D01*
X+476250Y-3397250D01*
X+508000Y-3397250D01*
X+539750Y-3365500D01*
X+539750Y-3270250D01*
X+508000Y-3238500D01*
X+476250Y-3238500D01*
X+444500Y-3270250D01*
D61*
X+2256790Y-4260850D02*
X+3331210Y-4260850D01*
X+3331210Y-2570480D01*
X+2256790Y-2570480D01*
X+2256790Y-4260850D01*
D162*
X+2667223Y-3922774D02*
X+2878519Y-3922774D01*
X+2920778Y-3880515D01*
X+2920778Y-3711479D01*
X+2878519Y-3669220D01*
X+2667223Y-3669220D01*
X+2751741Y-3500183D02*
X+2667223Y-3415665D01*
X+2920778Y-3415665D01*
X+2751741Y-3162110D02*
X+2667223Y-3077592D01*
X+2920778Y-3077592D01*
D160*
X+2272500Y-4409000D02*
X+1502500Y-4409000D01*
X+1502500Y-4989000D01*
X+2272500Y-4989000D01*
X+2272500Y-4409000D01*
X+1887500Y-4749000D02*
X+1887500Y-4649000D01*
X+1837500Y-4699000D02*
X+1937500Y-4699000D01*
D163*
X+1680834Y-4621500D02*
X+1680834Y-4776500D01*
X+1835833Y-4776500D01*
X+1939166Y-4673167D02*
X+1990833Y-4621500D01*
X+1990833Y-4776500D01*
D61*
X+2389677Y-4990787D02*
X+2549997Y-4990787D01*
X+2549997Y-4561887D01*
X+2389677Y-4561887D01*
X+2389677Y-4990787D01*
D164*
X+2498695Y-4853290D02*
X+2440980Y-4853290D01*
X+2440980Y-4814814D01*
X+2460218Y-4795576D01*
X+2479457Y-4795576D01*
X+2498695Y-4814814D01*
X+2498695Y-4853290D01*
X+2450599Y-4718623D02*
X+2440980Y-4728242D01*
X+2440980Y-4757099D01*
X+2450599Y-4766718D01*
X+2489076Y-4766718D01*
X+2498695Y-4757099D01*
X+2498695Y-4728242D01*
X+2489076Y-4718623D01*
X+2479457Y-4718623D01*
X+2469837Y-4728242D01*
X+2469837Y-4766718D01*
D61*
X+1069340Y-4191000D02*
X+2105660Y-4191000D01*
X+2105660Y-2921000D01*
X+1069340Y-2921000D01*
X+1069340Y-4191000D01*
D157*
X+1651000Y-3746500D02*
X+1682750Y-3778250D01*
X+1682750Y-3873500D01*
X+1619250Y-3937000D01*
X+1555750Y-3937000D01*
X+1492250Y-3873500D01*
X+1492250Y-3778250D01*
X+1524000Y-3746500D01*
X+1524000Y-3651250D02*
X+1492250Y-3619500D01*
X+1492250Y-3524250D01*
X+1524000Y-3492500D01*
X+1555750Y-3492500D01*
X+1587500Y-3524250D01*
X+1619250Y-3492500D01*
X+1651000Y-3492500D01*
X+1682750Y-3524250D01*
X+1682750Y-3619500D01*
X+1651000Y-3651250D01*
X+1587500Y-3587750D02*
X+1587500Y-3524250D01*
X+1555750Y-3238500D02*
X+1587500Y-3270250D01*
X+1587500Y-3365500D01*
X+1555750Y-3397250D01*
X+1524000Y-3397250D01*
X+1492250Y-3365500D01*
X+1492250Y-3270250D01*
X+1524000Y-3238500D01*
X+1651000Y-3238500D01*
X+1682750Y-3270250D01*
X+1682750Y-3365500D01*
D160*
X-593000Y-4687000D02*
X-123000Y-4687000D01*
X-123000Y-4457000D01*
X-593000Y-4457000D01*
X-593000Y-4687000D01*
X-358000Y-4522000D02*
X-358000Y-4622000D01*
X-308000Y-4572000D02*
X-408000Y-4572000D01*
D165*
X-429250Y-4595750D02*
X-441125Y-4607625D01*
X-476750Y-4607625D01*
X-500500Y-4583875D01*
X-500500Y-4560125D01*
X-476750Y-4536375D01*
X-441125Y-4536375D01*
X-429250Y-4548250D01*
X-405500Y-4607625D02*
X-405500Y-4560125D01*
X-381750Y-4536375D01*
X-358000Y-4536375D01*
X-334250Y-4560125D01*
X-334250Y-4607625D01*
X-405500Y-4583875D02*
X-334250Y-4583875D01*
X-298625Y-4548250D02*
X-286750Y-4536375D01*
X-251125Y-4536375D01*
X-239250Y-4548250D01*
X-239250Y-4560125D01*
X-251125Y-4572000D01*
X-239250Y-4583875D01*
X-239250Y-4595750D01*
X-251125Y-4607625D01*
X-286750Y-4607625D01*
X-298625Y-4595750D01*
X-274875Y-4572000D02*
X-251125Y-4572000D01*
D160*
X+2869500Y-4614000D02*
X+2869500Y-5074000D01*
X+3099500Y-5074000D01*
X+3099500Y-4614000D01*
X+2869500Y-4614000D01*
X+3034500Y-4844000D02*
X+2934500Y-4844000D01*
X+2984500Y-4894000D02*
X+2984500Y-4794000D01*
D161*
X+3019375Y-4983500D02*
X+2949625Y-4983500D01*
X+2949625Y-4925375D01*
X+2961250Y-4913750D01*
X+2972875Y-4913750D01*
X+2984500Y-4925375D01*
X+2984500Y-4983500D01*
X+2984500Y-4925375D02*
X+2996125Y-4913750D01*
X+3019375Y-4913750D01*
X+2949625Y-4820750D02*
X+2949625Y-4878875D01*
X+2972875Y-4878875D01*
X+2972875Y-4832375D01*
X+2984500Y-4820750D01*
X+3007750Y-4820750D01*
X+3019375Y-4832375D01*
X+3019375Y-4867250D01*
X+3007750Y-4878875D01*
X+2961250Y-4785875D02*
X+2949625Y-4774250D01*
X+2949625Y-4739375D01*
X+2961250Y-4727750D01*
X+2972875Y-4727750D01*
X+2984500Y-4739375D01*
X+2996125Y-4727750D01*
X+3007750Y-4727750D01*
X+3019375Y-4739375D01*
X+3019375Y-4774250D01*
X+3007750Y-4785875D01*
X+2984500Y-4762625D02*
X+2984500Y-4739375D01*
D160*
X+3359500Y-4330000D02*
X+2899500Y-4330000D01*
X+2899500Y-4560000D01*
X+3359500Y-4560000D01*
X+3359500Y-4330000D01*
X+3129500Y-4495000D02*
X+3129500Y-4395000D01*
X+3079500Y-4445000D02*
X+3179500Y-4445000D01*
D161*
X+2990000Y-4479875D02*
X+2990000Y-4410125D01*
X+3048125Y-4410125D01*
X+3059750Y-4421750D01*
X+3059750Y-4433375D01*
X+3048125Y-4445000D01*
X+2990000Y-4445000D01*
X+3048125Y-4445000D02*
X+3059750Y-4456625D01*
X+3059750Y-4479875D01*
X+3152750Y-4410125D02*
X+3094625Y-4410125D01*
X+3094625Y-4433375D01*
X+3141125Y-4433375D01*
X+3152750Y-4445000D01*
X+3152750Y-4468250D01*
X+3141125Y-4479875D01*
X+3106250Y-4479875D01*
X+3094625Y-4468250D01*
X+3245750Y-4456625D02*
X+3176000Y-4456625D01*
X+3222500Y-4410125D01*
X+3222500Y-4479875D01*
D160*
X+258000Y-1345500D02*
X-212000Y-1345500D01*
X-212000Y-1575500D01*
X+258000Y-1575500D01*
X+258000Y-1345500D01*
X+23000Y-1510500D02*
X+23000Y-1410500D01*
X-27000Y-1460500D02*
X+73000Y-1460500D01*
D165*
X-48250Y-1484250D02*
X-60125Y-1496125D01*
X-95750Y-1496125D01*
X-119500Y-1472375D01*
X-119500Y-1448625D01*
X-95750Y-1424875D01*
X-60125Y-1424875D01*
X-48250Y-1436750D01*
X+46750Y-1472375D02*
X-24500Y-1472375D01*
X+23000Y-1424875D01*
X+23000Y-1496125D01*
X+70500Y-1484250D02*
X+70500Y-1436750D01*
X+82375Y-1424875D01*
X+129875Y-1424875D01*
X+141750Y-1436750D01*
X+141750Y-1484250D01*
X+129875Y-1496125D01*
X+82375Y-1496125D01*
X+70500Y-1484250D01*
X+70500Y-1496125D02*
X+141750Y-1424875D01*
D160*
X+258000Y-837500D02*
X-212000Y-837500D01*
X-212000Y-1067500D01*
X+258000Y-1067500D01*
X+258000Y-837500D01*
X+23000Y-1002500D02*
X+23000Y-902500D01*
X-27000Y-952500D02*
X+73000Y-952500D01*
D165*
X-48250Y-976250D02*
X-60125Y-988125D01*
X-95750Y-988125D01*
X-119500Y-964375D01*
X-119500Y-940625D01*
X-95750Y-916875D01*
X-60125Y-916875D01*
X-48250Y-928750D01*
X+46750Y-964375D02*
X-24500Y-964375D01*
X+23000Y-916875D01*
X+23000Y-988125D01*
X+94250Y-940625D02*
X+118000Y-916875D01*
X+118000Y-988125D01*
D160*
X+258000Y-1091500D02*
X-212000Y-1091500D01*
X-212000Y-1321500D01*
X+258000Y-1321500D01*
X+258000Y-1091500D01*
X+23000Y-1256500D02*
X+23000Y-1156500D01*
X-27000Y-1206500D02*
X+73000Y-1206500D01*
D165*
X-48250Y-1230250D02*
X-60125Y-1242125D01*
X-95750Y-1242125D01*
X-119500Y-1218375D01*
X-119500Y-1194625D01*
X-95750Y-1170875D01*
X-60125Y-1170875D01*
X-48250Y-1182750D01*
X+46750Y-1218375D02*
X-24500Y-1218375D01*
X+23000Y-1170875D01*
X+23000Y-1242125D01*
X+82375Y-1182750D02*
X+94250Y-1170875D01*
X+129875Y-1170875D01*
X+141750Y-1182750D01*
X+141750Y-1194625D01*
X+129875Y-1206500D01*
X+94250Y-1206500D01*
X+82375Y-1218375D01*
X+82375Y-1242125D01*
X+141750Y-1242125D01*
D160*
X+266000Y+1863000D02*
X+266000Y+1393000D01*
X+496000Y+1393000D01*
X+496000Y+1863000D01*
X+266000Y+1863000D01*
X+431000Y+1628000D02*
X+331000Y+1628000D01*
X+381000Y+1578000D02*
X+381000Y+1678000D01*
D165*
X+404750Y+1556750D02*
X+416625Y+1544875D01*
X+416625Y+1509250D01*
X+392875Y+1485500D01*
X+369125Y+1485500D01*
X+345375Y+1509250D01*
X+345375Y+1544875D01*
X+357250Y+1556750D01*
X+392875Y+1651750D02*
X+392875Y+1580500D01*
X+345375Y+1628000D01*
X+416625Y+1628000D01*
X+357250Y+1687375D02*
X+345375Y+1699250D01*
X+345375Y+1734875D01*
X+357250Y+1746750D01*
X+369125Y+1746750D01*
X+381000Y+1734875D01*
X+392875Y+1746750D01*
X+404750Y+1746750D01*
X+416625Y+1734875D01*
X+416625Y+1699250D01*
X+404750Y+1687375D01*
X+381000Y+1711125D02*
X+381000Y+1734875D01*
D160*
X+1599500Y+1845500D02*
X+1599500Y+1375500D01*
X+1829500Y+1375500D01*
X+1829500Y+1845500D01*
X+1599500Y+1845500D01*
X+1764500Y+1610500D02*
X+1664500Y+1610500D01*
X+1714500Y+1560500D02*
X+1714500Y+1660500D01*
D165*
X+1738250Y+1539250D02*
X+1750125Y+1527375D01*
X+1750125Y+1491750D01*
X+1726375Y+1468000D01*
X+1702625Y+1468000D01*
X+1678875Y+1491750D01*
X+1678875Y+1527375D01*
X+1690750Y+1539250D01*
X+1726375Y+1634250D02*
X+1726375Y+1563000D01*
X+1678875Y+1610500D01*
X+1750125Y+1610500D01*
X+1726375Y+1729250D02*
X+1726375Y+1658000D01*
X+1678875Y+1705500D01*
X+1750125Y+1705500D01*
D160*
X+804000Y-1258000D02*
X+1274000Y-1258000D01*
X+1274000Y-1028000D01*
X+804000Y-1028000D01*
X+804000Y-1258000D01*
X+1039000Y-1093000D02*
X+1039000Y-1193000D01*
X+1089000Y-1143000D02*
X+989000Y-1143000D01*
D165*
X+967750Y-1166750D02*
X+955875Y-1178625D01*
X+920250Y-1178625D01*
X+896500Y-1154875D01*
X+896500Y-1131125D01*
X+920250Y-1107375D01*
X+955875Y-1107375D01*
X+967750Y-1119250D01*
X+1062750Y-1154875D02*
X+991500Y-1154875D01*
X+1039000Y-1107375D01*
X+1039000Y-1178625D01*
X+1110250Y-1143000D02*
X+1098375Y-1131125D01*
X+1098375Y-1119250D01*
X+1110250Y-1107375D01*
X+1145875Y-1107375D01*
X+1157750Y-1119250D01*
X+1157750Y-1131125D01*
X+1145875Y-1143000D01*
X+1110250Y-1143000D01*
X+1098375Y-1154875D01*
X+1098375Y-1166750D01*
X+1110250Y-1178625D01*
X+1145875Y-1178625D01*
X+1157750Y-1166750D01*
X+1157750Y-1154875D01*
X+1145875Y-1143000D01*
D61*
X-708660Y+561340D02*
X-434340Y+561340D01*
X-434340Y+835660D01*
X-708660Y+835660D01*
X-708660Y+561340D01*
D166*
X-587959Y+610718D02*
X-571500Y+610718D01*
X-555040Y+627177D01*
X-571500Y+643636D01*
X-587959Y+643636D01*
X-587959Y+660095D02*
X-587959Y+682040D01*
X-587959Y+671068D02*
X-555040Y+671068D01*
X-555040Y+660095D02*
X-555040Y+682040D01*
X-555040Y+698500D02*
X-587959Y+698500D01*
X-555040Y+731418D01*
X-587959Y+731418D01*
X-571500Y+747877D02*
X-571500Y+775309D01*
D61*
X-708660Y-1470660D02*
X-434340Y-1470660D01*
X-434340Y-1196340D01*
X-708660Y-1196340D01*
X-708660Y-1470660D01*
D166*
X-587959Y-1421282D02*
X-571500Y-1421282D01*
X-555040Y-1404823D01*
X-571500Y-1388364D01*
X-587959Y-1388364D01*
X-587959Y-1371905D02*
X-587959Y-1349960D01*
X-587959Y-1360932D02*
X-555040Y-1360932D01*
X-555040Y-1371905D02*
X-555040Y-1349960D01*
X-555040Y-1333500D02*
X-587959Y-1333500D01*
X-555040Y-1300582D01*
X-587959Y-1300582D01*
X-571500Y-1289609D02*
X-571500Y-1256691D01*
X-582472Y-1273150D02*
X-560527Y-1273150D01*
D160*
X+2782000Y-783500D02*
X+2782000Y-323500D01*
X+2552000Y-323500D01*
X+2552000Y-783500D01*
X+2782000Y-783500D01*
X+2617000Y-553500D02*
X+2717000Y-553500D01*
X+2667000Y-503500D02*
X+2667000Y-603500D01*
D167*
X+2709300Y-666300D02*
X+2624700Y-666300D01*
X+2624700Y-595800D01*
X+2638800Y-581700D01*
X+2652900Y-581700D01*
X+2667000Y-595800D01*
X+2667000Y-666300D01*
X+2667000Y-595800D02*
X+2681100Y-581700D01*
X+2709300Y-581700D01*
X+2667000Y-525300D02*
X+2652900Y-539400D01*
X+2638800Y-539400D01*
X+2624700Y-525300D01*
X+2624700Y-483000D01*
X+2638800Y-468900D01*
X+2652900Y-468900D01*
X+2667000Y-483000D01*
X+2667000Y-525300D01*
X+2681100Y-539400D01*
X+2695200Y-539400D01*
X+2709300Y-525300D01*
X+2709300Y-483000D01*
X+2695200Y-468900D01*
X+2681100Y-468900D01*
X+2667000Y-483000D01*
D160*
X+2371000Y-1853500D02*
X+1911000Y-1853500D01*
X+1911000Y-2083500D01*
X+2371000Y-2083500D01*
X+2371000Y-1853500D01*
X+2141000Y-2018500D02*
X+2141000Y-1918500D01*
X+2091000Y-1968500D02*
X+2191000Y-1968500D01*
D167*
X+2028200Y-2010800D02*
X+2028200Y-1926200D01*
X+2098700Y-1926200D01*
X+2112800Y-1940300D01*
X+2112800Y-1954400D01*
X+2098700Y-1968500D01*
X+2028200Y-1968500D01*
X+2098700Y-1968500D02*
X+2112800Y-1982600D01*
X+2112800Y-2010800D01*
X+2225600Y-1954400D02*
X+2211500Y-1968500D01*
X+2169200Y-1968500D01*
X+2155100Y-1954400D01*
X+2155100Y-1940300D01*
X+2169200Y-1926200D01*
X+2211500Y-1926200D01*
X+2225600Y-1940300D01*
X+2225600Y-1996700D01*
X+2211500Y-2010800D01*
X+2169200Y-2010800D01*
D160*
X+2782000Y-1264000D02*
X+2782000Y-804000D01*
X+2552000Y-804000D01*
X+2552000Y-1264000D01*
X+2782000Y-1264000D01*
X+2617000Y-1034000D02*
X+2717000Y-1034000D01*
X+2667000Y-984000D02*
X+2667000Y-1084000D01*
D168*
X+2694900Y-1182800D02*
X+2639100Y-1182800D01*
X+2639100Y-1136300D01*
X+2648400Y-1127000D01*
X+2657700Y-1127000D01*
X+2667000Y-1136300D01*
X+2667000Y-1182800D01*
X+2667000Y-1136300D02*
X+2676300Y-1127000D01*
X+2694900Y-1127000D01*
X+2657700Y-1089800D02*
X+2639100Y-1071200D01*
X+2694900Y-1071200D01*
X+2685600Y-1034000D02*
X+2648400Y-1034000D01*
X+2639100Y-1024700D01*
X+2639100Y-987500D01*
X+2648400Y-978200D01*
X+2685600Y-978200D01*
X+2694900Y-987500D01*
X+2694900Y-1024700D01*
X+2685600Y-1034000D01*
X+2694900Y-1034000D02*
X+2639100Y-978200D01*
X+2657700Y-941000D02*
X+2639100Y-922400D01*
X+2694900Y-922400D01*
D61*
X+2512060Y-2019300D02*
X+2821940Y-2019300D01*
X+2821940Y-1727200D01*
X+2512060Y-1727200D01*
X+2512060Y-2019300D01*
D169*
X+2584366Y-1862921D02*
X+2605024Y-1842262D01*
X+2625683Y-1842262D01*
X+2646341Y-1862921D01*
X+2646341Y-1883579D01*
X+2625683Y-1904238D01*
X+2605024Y-1904238D01*
X+2584366Y-1883579D01*
X+2584366Y-1862921D01*
X+2625683Y-1883579D02*
X+2646341Y-1904238D01*
X+2677329Y-1852591D02*
X+2687658Y-1842262D01*
X+2718646Y-1842262D01*
X+2728975Y-1852591D01*
X+2728975Y-1862921D01*
X+2718646Y-1873250D01*
X+2728975Y-1883579D01*
X+2728975Y-1893909D01*
X+2718646Y-1904238D01*
X+2687658Y-1904238D01*
X+2677329Y-1893909D01*
X+2697987Y-1873250D02*
X+2718646Y-1873250D01*
D160*
X+1972500Y-5092000D02*
X+1502500Y-5092000D01*
X+1502500Y-5322000D01*
X+1972500Y-5322000D01*
X+1972500Y-5092000D01*
X+1737500Y-5257000D02*
X+1737500Y-5157000D01*
X+1687500Y-5207000D02*
X+1787500Y-5207000D01*
D165*
X+1666250Y-5230750D02*
X+1654375Y-5242625D01*
X+1618750Y-5242625D01*
X+1595000Y-5218875D01*
X+1595000Y-5195125D01*
X+1618750Y-5171375D01*
X+1654375Y-5171375D01*
X+1666250Y-5183250D01*
X+1690000Y-5242625D02*
X+1690000Y-5195125D01*
X+1713750Y-5171375D01*
X+1737500Y-5171375D01*
X+1761250Y-5195125D01*
X+1761250Y-5242625D01*
X+1690000Y-5218875D02*
X+1761250Y-5218875D01*
X+1808750Y-5195125D02*
X+1832500Y-5171375D01*
X+1832500Y-5242625D01*
D160*
X+5917500Y-2863500D02*
X+5917500Y-3323500D01*
X+6147500Y-3323500D01*
X+6147500Y-2863500D01*
X+5917500Y-2863500D01*
X+6082500Y-3093500D02*
X+5982500Y-3093500D01*
X+6032500Y-3143500D02*
X+6032500Y-3043500D01*
D168*
X+6060400Y-3242300D02*
X+6004600Y-3242300D01*
X+6004600Y-3195800D01*
X+6013900Y-3186500D01*
X+6023200Y-3186500D01*
X+6032500Y-3195800D01*
X+6032500Y-3242300D01*
X+6032500Y-3195800D02*
X+6041800Y-3186500D01*
X+6060400Y-3186500D01*
X+6041800Y-3112100D02*
X+6041800Y-3167900D01*
X+6004600Y-3130700D01*
X+6060400Y-3130700D01*
X+6051100Y-3093500D02*
X+6013900Y-3093500D01*
X+6004600Y-3084200D01*
X+6004600Y-3047000D01*
X+6013900Y-3037700D01*
X+6051100Y-3037700D01*
X+6060400Y-3047000D01*
X+6060400Y-3084200D01*
X+6051100Y-3093500D01*
X+6060400Y-3093500D02*
X+6004600Y-3037700D01*
X+6004600Y-2963300D02*
X+6004600Y-3009800D01*
X+6023200Y-3009800D01*
X+6023200Y-2972600D01*
X+6032500Y-2963300D01*
X+6051100Y-2963300D01*
X+6060400Y-2972600D01*
X+6060400Y-3000500D01*
X+6051100Y-3009800D01*
D160*
X+5536500Y-2863500D02*
X+5536500Y-3323500D01*
X+5766500Y-3323500D01*
X+5766500Y-2863500D01*
X+5536500Y-2863500D01*
X+5701500Y-3093500D02*
X+5601500Y-3093500D01*
X+5651500Y-3143500D02*
X+5651500Y-3043500D01*
D168*
X+5679400Y-3242300D02*
X+5623600Y-3242300D01*
X+5623600Y-3195800D01*
X+5632900Y-3186500D01*
X+5642200Y-3186500D01*
X+5651500Y-3195800D01*
X+5651500Y-3242300D01*
X+5651500Y-3195800D02*
X+5660800Y-3186500D01*
X+5679400Y-3186500D01*
X+5660800Y-3112100D02*
X+5660800Y-3167900D01*
X+5623600Y-3130700D01*
X+5679400Y-3130700D01*
X+5670100Y-3093500D02*
X+5632900Y-3093500D01*
X+5623600Y-3084200D01*
X+5623600Y-3047000D01*
X+5632900Y-3037700D01*
X+5670100Y-3037700D01*
X+5679400Y-3047000D01*
X+5679400Y-3084200D01*
X+5670100Y-3093500D01*
X+5679400Y-3093500D02*
X+5623600Y-3037700D01*
X+5642200Y-3000500D02*
X+5623600Y-2981900D01*
X+5679400Y-2981900D01*
D61*
X+5544820Y-4114800D02*
X+6012180Y-4114800D01*
X+6012180Y-3390900D01*
X+5544820Y-3390900D01*
X+5544820Y-4114800D01*
D170*
X+5735066Y-3984498D02*
X+5807456Y-3984498D01*
X+5821934Y-3970020D01*
X+5821934Y-3912108D01*
X+5807456Y-3897630D01*
X+5735066Y-3897630D01*
X+5792978Y-3781806D02*
X+5792978Y-3868674D01*
X+5735066Y-3810762D01*
X+5821934Y-3810762D01*
X+5807456Y-3752850D02*
X+5749544Y-3752850D01*
X+5735066Y-3738372D01*
X+5735066Y-3680460D01*
X+5749544Y-3665982D01*
X+5807456Y-3665982D01*
X+5821934Y-3680460D01*
X+5821934Y-3738372D01*
X+5807456Y-3752850D01*
X+5821934Y-3752850D02*
X+5735066Y-3665982D01*
X+5764022Y-3608070D02*
X+5735066Y-3579114D01*
X+5821934Y-3579114D01*
D61*
X+6941820Y-4114800D02*
X+7409180Y-4114800D01*
X+7409180Y-3390900D01*
X+6941820Y-3390900D01*
X+6941820Y-4114800D01*
D170*
X+7132066Y-3984498D02*
X+7204456Y-3984498D01*
X+7218934Y-3970020D01*
X+7218934Y-3912108D01*
X+7204456Y-3897630D01*
X+7132066Y-3897630D01*
X+7132066Y-3781806D02*
X+7132066Y-3854196D01*
X+7161022Y-3854196D01*
X+7161022Y-3796284D01*
X+7175500Y-3781806D01*
X+7204456Y-3781806D01*
X+7218934Y-3796284D01*
X+7218934Y-3839718D01*
X+7204456Y-3854196D01*
X+7204456Y-3752850D02*
X+7146544Y-3752850D01*
X+7132066Y-3738372D01*
X+7132066Y-3680460D01*
X+7146544Y-3665982D01*
X+7204456Y-3665982D01*
X+7218934Y-3680460D01*
X+7218934Y-3738372D01*
X+7204456Y-3752850D01*
X+7218934Y-3752850D02*
X+7132066Y-3665982D01*
X+7161022Y-3608070D02*
X+7132066Y-3579114D01*
X+7218934Y-3579114D01*
D61*
X+8338820Y-4114800D02*
X+8806180Y-4114800D01*
X+8806180Y-3390900D01*
X+8338820Y-3390900D01*
X+8338820Y-4114800D01*
D170*
X+8529066Y-3984498D02*
X+8601456Y-3984498D01*
X+8615934Y-3970020D01*
X+8615934Y-3912108D01*
X+8601456Y-3897630D01*
X+8529066Y-3897630D01*
X+8543544Y-3781806D02*
X+8529066Y-3796284D01*
X+8529066Y-3839718D01*
X+8543544Y-3854196D01*
X+8601456Y-3854196D01*
X+8615934Y-3839718D01*
X+8615934Y-3796284D01*
X+8601456Y-3781806D01*
X+8586978Y-3781806D01*
X+8572500Y-3796284D01*
X+8572500Y-3854196D01*
X+8601456Y-3752850D02*
X+8543544Y-3752850D01*
X+8529066Y-3738372D01*
X+8529066Y-3680460D01*
X+8543544Y-3665982D01*
X+8601456Y-3665982D01*
X+8615934Y-3680460D01*
X+8615934Y-3738372D01*
X+8601456Y-3752850D01*
X+8615934Y-3752850D02*
X+8529066Y-3665982D01*
X+8558022Y-3608070D02*
X+8529066Y-3579114D01*
X+8615934Y-3579114D01*
D160*
X+6933500Y-2863500D02*
X+6933500Y-3323500D01*
X+7163500Y-3323500D01*
X+7163500Y-2863500D01*
X+6933500Y-2863500D01*
X+7098500Y-3093500D02*
X+6998500Y-3093500D01*
X+7048500Y-3143500D02*
X+7048500Y-3043500D01*
D168*
X+7076400Y-3242300D02*
X+7020600Y-3242300D01*
X+7020600Y-3195800D01*
X+7029900Y-3186500D01*
X+7039200Y-3186500D01*
X+7048500Y-3195800D01*
X+7048500Y-3242300D01*
X+7048500Y-3195800D02*
X+7057800Y-3186500D01*
X+7076400Y-3186500D01*
X+7020600Y-3112100D02*
X+7020600Y-3158600D01*
X+7039200Y-3158600D01*
X+7039200Y-3121400D01*
X+7048500Y-3112100D01*
X+7067100Y-3112100D01*
X+7076400Y-3121400D01*
X+7076400Y-3149300D01*
X+7067100Y-3158600D01*
X+7067100Y-3093500D02*
X+7029900Y-3093500D01*
X+7020600Y-3084200D01*
X+7020600Y-3047000D01*
X+7029900Y-3037700D01*
X+7067100Y-3037700D01*
X+7076400Y-3047000D01*
X+7076400Y-3084200D01*
X+7067100Y-3093500D01*
X+7076400Y-3093500D02*
X+7020600Y-3037700D01*
X+7039200Y-3000500D02*
X+7020600Y-2981900D01*
X+7076400Y-2981900D01*
D61*
X+4942840Y-4025900D02*
X+5471160Y-4025900D01*
X+5471160Y-3340100D01*
X+4942840Y-3340100D01*
X+4942840Y-4025900D01*
D171*
X+5234432Y-3820160D02*
X+5248148Y-3833876D01*
X+5248148Y-3875024D01*
X+5220716Y-3902456D01*
X+5193284Y-3902456D01*
X+5165852Y-3875024D01*
X+5165852Y-3833876D01*
X+5179568Y-3820160D01*
X+5165852Y-3792728D02*
X+5207000Y-3792728D01*
X+5248148Y-3751580D01*
X+5207000Y-3710432D01*
X+5165852Y-3710432D01*
X+5220716Y-3600704D02*
X+5220716Y-3683000D01*
X+5165852Y-3628136D01*
X+5248148Y-3628136D01*
X+5220716Y-3490976D02*
X+5220716Y-3573272D01*
X+5165852Y-3518408D01*
X+5248148Y-3518408D01*
D61*
X+6339840Y-4025900D02*
X+6868160Y-4025900D01*
X+6868160Y-3340100D01*
X+6339840Y-3340100D01*
X+6339840Y-4025900D01*
D172*
X+6638290Y-3785870D02*
X+6655435Y-3803015D01*
X+6655435Y-3854450D01*
X+6621145Y-3888740D01*
X+6586855Y-3888740D01*
X+6552565Y-3854450D01*
X+6552565Y-3803015D01*
X+6569710Y-3785870D01*
X+6552565Y-3751580D02*
X+6604000Y-3751580D01*
X+6655435Y-3700145D01*
X+6604000Y-3648710D01*
X+6552565Y-3648710D01*
X+6586855Y-3580130D02*
X+6552565Y-3545840D01*
X+6655435Y-3545840D01*
D61*
X+7736840Y-4025900D02*
X+8265160Y-4025900D01*
X+8265160Y-3340100D01*
X+7736840Y-3340100D01*
X+7736840Y-4025900D01*
D172*
X+8035290Y-3785870D02*
X+8052435Y-3803015D01*
X+8052435Y-3854450D01*
X+8018145Y-3888740D01*
X+7983855Y-3888740D01*
X+7949565Y-3854450D01*
X+7949565Y-3803015D01*
X+7966710Y-3785870D01*
X+7949565Y-3751580D02*
X+8001000Y-3751580D01*
X+8052435Y-3700145D01*
X+8001000Y-3648710D01*
X+7949565Y-3648710D01*
X+7966710Y-3597275D02*
X+7949565Y-3580130D01*
X+7949565Y-3528695D01*
X+7966710Y-3511550D01*
X+7983855Y-3511550D01*
X+8001000Y-3528695D01*
X+8001000Y-3580130D01*
X+8018145Y-3597275D01*
X+8052435Y-3597275D01*
X+8052435Y-3511550D01*
D61*
X+4877920Y-4413250D02*
X+5028080Y-4413250D01*
X+5028080Y-4114800D01*
X+4877920Y-4114800D01*
X+4877920Y-4413250D01*
D173*
X+4970907Y-4359529D02*
X+4935093Y-4359529D01*
X+4935093Y-4335653D01*
X+4947031Y-4323715D01*
X+4958969Y-4323715D01*
X+4970907Y-4335653D01*
X+4970907Y-4359529D01*
X+4958969Y-4275963D02*
X+4958969Y-4311777D01*
X+4935093Y-4287901D01*
X+4970907Y-4287901D01*
X+4964938Y-4264025D02*
X+4941062Y-4264025D01*
X+4935093Y-4258056D01*
X+4935093Y-4234180D01*
X+4941062Y-4228211D01*
X+4964938Y-4228211D01*
X+4970907Y-4234180D01*
X+4970907Y-4258056D01*
X+4964938Y-4264025D01*
X+4970907Y-4264025D02*
X+4935093Y-4228211D01*
X+4947031Y-4204335D02*
X+4935093Y-4192397D01*
X+4970907Y-4192397D01*
D61*
X+6274920Y-4394200D02*
X+6425080Y-4394200D01*
X+6425080Y-4095750D01*
X+6274920Y-4095750D01*
X+6274920Y-4394200D01*
D173*
X+6367907Y-4340479D02*
X+6332093Y-4340479D01*
X+6332093Y-4316603D01*
X+6344031Y-4304665D01*
X+6355969Y-4304665D01*
X+6367907Y-4316603D01*
X+6367907Y-4340479D01*
X+6332093Y-4256913D02*
X+6332093Y-4286758D01*
X+6344031Y-4286758D01*
X+6344031Y-4262882D01*
X+6350000Y-4256913D01*
X+6361938Y-4256913D01*
X+6367907Y-4262882D01*
X+6367907Y-4280789D01*
X+6361938Y-4286758D01*
X+6361938Y-4244975D02*
X+6338062Y-4244975D01*
X+6332093Y-4239006D01*
X+6332093Y-4215130D01*
X+6338062Y-4209161D01*
X+6361938Y-4209161D01*
X+6367907Y-4215130D01*
X+6367907Y-4239006D01*
X+6361938Y-4244975D01*
X+6367907Y-4244975D02*
X+6332093Y-4209161D01*
X+6344031Y-4185285D02*
X+6332093Y-4173347D01*
X+6367907Y-4173347D01*
D61*
X+7703670Y-4362450D02*
X+7853830Y-4362450D01*
X+7853830Y-4064000D01*
X+7703670Y-4064000D01*
X+7703670Y-4362450D01*
D173*
X+7796657Y-4308729D02*
X+7760843Y-4308729D01*
X+7760843Y-4284853D01*
X+7772781Y-4272915D01*
X+7784719Y-4272915D01*
X+7796657Y-4284853D01*
X+7796657Y-4308729D01*
X+7766812Y-4225163D02*
X+7760843Y-4231132D01*
X+7760843Y-4249039D01*
X+7766812Y-4255008D01*
X+7790688Y-4255008D01*
X+7796657Y-4249039D01*
X+7796657Y-4231132D01*
X+7790688Y-4225163D01*
X+7784719Y-4225163D01*
X+7778750Y-4231132D01*
X+7778750Y-4255008D01*
X+7790688Y-4213225D02*
X+7766812Y-4213225D01*
X+7760843Y-4207256D01*
X+7760843Y-4183380D01*
X+7766812Y-4177411D01*
X+7790688Y-4177411D01*
X+7796657Y-4183380D01*
X+7796657Y-4207256D01*
X+7790688Y-4213225D01*
X+7796657Y-4213225D02*
X+7760843Y-4177411D01*
X+7772781Y-4153535D02*
X+7760843Y-4141597D01*
X+7796657Y-4141597D01*
D160*
X+6044500Y-3534500D02*
X+6044500Y-4004500D01*
X+6274500Y-4004500D01*
X+6274500Y-3534500D01*
X+6044500Y-3534500D01*
X+6209500Y-3769500D02*
X+6109500Y-3769500D01*
X+6159500Y-3819500D02*
X+6159500Y-3719500D01*
D174*
X+6178500Y-3864500D02*
X+6188000Y-3874000D01*
X+6188000Y-3902500D01*
X+6169000Y-3921500D01*
X+6150000Y-3921500D01*
X+6131000Y-3902500D01*
X+6131000Y-3874000D01*
X+6140500Y-3864500D01*
X+6169000Y-3788500D02*
X+6169000Y-3845500D01*
X+6131000Y-3807500D01*
X+6188000Y-3807500D01*
X+6178500Y-3769500D02*
X+6140500Y-3769500D01*
X+6131000Y-3760000D01*
X+6131000Y-3722000D01*
X+6140500Y-3712500D01*
X+6178500Y-3712500D01*
X+6188000Y-3722000D01*
X+6188000Y-3760000D01*
X+6178500Y-3769500D01*
X+6188000Y-3769500D02*
X+6131000Y-3712500D01*
X+6150000Y-3674500D02*
X+6131000Y-3655500D01*
X+6188000Y-3655500D01*
D160*
X+7441500Y-3534500D02*
X+7441500Y-4004500D01*
X+7671500Y-4004500D01*
X+7671500Y-3534500D01*
X+7441500Y-3534500D01*
X+7606500Y-3769500D02*
X+7506500Y-3769500D01*
X+7556500Y-3819500D02*
X+7556500Y-3719500D01*
D174*
X+7575500Y-3864500D02*
X+7585000Y-3874000D01*
X+7585000Y-3902500D01*
X+7566000Y-3921500D01*
X+7547000Y-3921500D01*
X+7528000Y-3902500D01*
X+7528000Y-3874000D01*
X+7537500Y-3864500D01*
X+7528000Y-3788500D02*
X+7528000Y-3836000D01*
X+7547000Y-3836000D01*
X+7547000Y-3798000D01*
X+7556500Y-3788500D01*
X+7575500Y-3788500D01*
X+7585000Y-3798000D01*
X+7585000Y-3826500D01*
X+7575500Y-3836000D01*
X+7575500Y-3769500D02*
X+7537500Y-3769500D01*
X+7528000Y-3760000D01*
X+7528000Y-3722000D01*
X+7537500Y-3712500D01*
X+7575500Y-3712500D01*
X+7585000Y-3722000D01*
X+7585000Y-3760000D01*
X+7575500Y-3769500D01*
X+7585000Y-3769500D02*
X+7528000Y-3712500D01*
X+7547000Y-3674500D02*
X+7528000Y-3655500D01*
X+7585000Y-3655500D01*
D160*
X+8838500Y-3534500D02*
X+8838500Y-4004500D01*
X+9068500Y-4004500D01*
X+9068500Y-3534500D01*
X+8838500Y-3534500D01*
X+9003500Y-3769500D02*
X+8903500Y-3769500D01*
X+8953500Y-3819500D02*
X+8953500Y-3719500D01*
D174*
X+8972500Y-3864500D02*
X+8982000Y-3874000D01*
X+8982000Y-3902500D01*
X+8963000Y-3921500D01*
X+8944000Y-3921500D01*
X+8925000Y-3902500D01*
X+8925000Y-3874000D01*
X+8934500Y-3864500D01*
X+8934500Y-3788500D02*
X+8925000Y-3798000D01*
X+8925000Y-3826500D01*
X+8934500Y-3836000D01*
X+8972500Y-3836000D01*
X+8982000Y-3826500D01*
X+8982000Y-3798000D01*
X+8972500Y-3788500D01*
X+8963000Y-3788500D01*
X+8953500Y-3798000D01*
X+8953500Y-3836000D01*
X+8972500Y-3769500D02*
X+8934500Y-3769500D01*
X+8925000Y-3760000D01*
X+8925000Y-3722000D01*
X+8934500Y-3712500D01*
X+8972500Y-3712500D01*
X+8982000Y-3722000D01*
X+8982000Y-3760000D01*
X+8972500Y-3769500D01*
X+8982000Y-3769500D02*
X+8925000Y-3712500D01*
X+8944000Y-3674500D02*
X+8925000Y-3655500D01*
X+8982000Y-3655500D01*
D160*
X+7314500Y-2863500D02*
X+7314500Y-3323500D01*
X+7544500Y-3323500D01*
X+7544500Y-2863500D01*
X+7314500Y-2863500D01*
X+7479500Y-3093500D02*
X+7379500Y-3093500D01*
X+7429500Y-3143500D02*
X+7429500Y-3043500D01*
D168*
X+7457400Y-3242300D02*
X+7401600Y-3242300D01*
X+7401600Y-3195800D01*
X+7410900Y-3186500D01*
X+7420200Y-3186500D01*
X+7429500Y-3195800D01*
X+7429500Y-3242300D01*
X+7429500Y-3195800D02*
X+7438800Y-3186500D01*
X+7457400Y-3186500D01*
X+7401600Y-3112100D02*
X+7401600Y-3158600D01*
X+7420200Y-3158600D01*
X+7420200Y-3121400D01*
X+7429500Y-3112100D01*
X+7448100Y-3112100D01*
X+7457400Y-3121400D01*
X+7457400Y-3149300D01*
X+7448100Y-3158600D01*
X+7448100Y-3093500D02*
X+7410900Y-3093500D01*
X+7401600Y-3084200D01*
X+7401600Y-3047000D01*
X+7410900Y-3037700D01*
X+7448100Y-3037700D01*
X+7457400Y-3047000D01*
X+7457400Y-3084200D01*
X+7448100Y-3093500D01*
X+7457400Y-3093500D02*
X+7401600Y-3037700D01*
X+7401600Y-2963300D02*
X+7401600Y-3009800D01*
X+7420200Y-3009800D01*
X+7420200Y-2972600D01*
X+7429500Y-2963300D01*
X+7448100Y-2963300D01*
X+7457400Y-2972600D01*
X+7457400Y-3000500D01*
X+7448100Y-3009800D01*
D160*
X+8330500Y-2863500D02*
X+8330500Y-3323500D01*
X+8560500Y-3323500D01*
X+8560500Y-2863500D01*
X+8330500Y-2863500D01*
X+8495500Y-3093500D02*
X+8395500Y-3093500D01*
X+8445500Y-3143500D02*
X+8445500Y-3043500D01*
D168*
X+8473400Y-3242300D02*
X+8417600Y-3242300D01*
X+8417600Y-3195800D01*
X+8426900Y-3186500D01*
X+8436200Y-3186500D01*
X+8445500Y-3195800D01*
X+8445500Y-3242300D01*
X+8445500Y-3195800D02*
X+8454800Y-3186500D01*
X+8473400Y-3186500D01*
X+8426900Y-3112100D02*
X+8417600Y-3121400D01*
X+8417600Y-3149300D01*
X+8426900Y-3158600D01*
X+8464100Y-3158600D01*
X+8473400Y-3149300D01*
X+8473400Y-3121400D01*
X+8464100Y-3112100D01*
X+8454800Y-3112100D01*
X+8445500Y-3121400D01*
X+8445500Y-3158600D01*
X+8464100Y-3093500D02*
X+8426900Y-3093500D01*
X+8417600Y-3084200D01*
X+8417600Y-3047000D01*
X+8426900Y-3037700D01*
X+8464100Y-3037700D01*
X+8473400Y-3047000D01*
X+8473400Y-3084200D01*
X+8464100Y-3093500D01*
X+8473400Y-3093500D02*
X+8417600Y-3037700D01*
X+8436200Y-3000500D02*
X+8417600Y-2981900D01*
X+8473400Y-2981900D01*
D160*
X+8711500Y-2863500D02*
X+8711500Y-3323500D01*
X+8941500Y-3323500D01*
X+8941500Y-2863500D01*
X+8711500Y-2863500D01*
X+8876500Y-3093500D02*
X+8776500Y-3093500D01*
X+8826500Y-3143500D02*
X+8826500Y-3043500D01*
D168*
X+8854400Y-3242300D02*
X+8798600Y-3242300D01*
X+8798600Y-3195800D01*
X+8807900Y-3186500D01*
X+8817200Y-3186500D01*
X+8826500Y-3195800D01*
X+8826500Y-3242300D01*
X+8826500Y-3195800D02*
X+8835800Y-3186500D01*
X+8854400Y-3186500D01*
X+8807900Y-3112100D02*
X+8798600Y-3121400D01*
X+8798600Y-3149300D01*
X+8807900Y-3158600D01*
X+8845100Y-3158600D01*
X+8854400Y-3149300D01*
X+8854400Y-3121400D01*
X+8845100Y-3112100D01*
X+8835800Y-3112100D01*
X+8826500Y-3121400D01*
X+8826500Y-3158600D01*
X+8845100Y-3093500D02*
X+8807900Y-3093500D01*
X+8798600Y-3084200D01*
X+8798600Y-3047000D01*
X+8807900Y-3037700D01*
X+8845100Y-3037700D01*
X+8854400Y-3047000D01*
X+8854400Y-3084200D01*
X+8845100Y-3093500D01*
X+8854400Y-3093500D02*
X+8798600Y-3037700D01*
X+8798600Y-2963300D02*
X+8798600Y-3009800D01*
X+8817200Y-3009800D01*
X+8817200Y-2972600D01*
X+8826500Y-2963300D01*
X+8845100Y-2963300D01*
X+8854400Y-2972600D01*
X+8854400Y-3000500D01*
X+8845100Y-3009800D01*
D160*
X+8330500Y-4169500D02*
X+8330500Y-4629500D01*
X+8560500Y-4629500D01*
X+8560500Y-4169500D01*
X+8330500Y-4169500D01*
X+8495500Y-4399500D02*
X+8395500Y-4399500D01*
X+8445500Y-4449500D02*
X+8445500Y-4349500D01*
D167*
X+8487800Y-4512300D02*
X+8403200Y-4512300D01*
X+8403200Y-4441800D01*
X+8417300Y-4427700D01*
X+8431400Y-4427700D01*
X+8445500Y-4441800D01*
X+8445500Y-4512300D01*
X+8445500Y-4441800D02*
X+8459600Y-4427700D01*
X+8487800Y-4427700D01*
X+8403200Y-4314900D02*
X+8403200Y-4385400D01*
X+8431400Y-4385400D01*
X+8431400Y-4329000D01*
X+8445500Y-4314900D01*
X+8473700Y-4314900D01*
X+8487800Y-4329000D01*
X+8487800Y-4371300D01*
X+8473700Y-4385400D01*
D160*
X+8584500Y-4169500D02*
X+8584500Y-4629500D01*
X+8814500Y-4629500D01*
X+8814500Y-4169500D01*
X+8584500Y-4169500D01*
X+8749500Y-4399500D02*
X+8649500Y-4399500D01*
X+8699500Y-4449500D02*
X+8699500Y-4349500D01*
D167*
X+8741800Y-4512300D02*
X+8657200Y-4512300D01*
X+8657200Y-4441800D01*
X+8671300Y-4427700D01*
X+8685400Y-4427700D01*
X+8699500Y-4441800D01*
X+8699500Y-4512300D01*
X+8699500Y-4441800D02*
X+8713600Y-4427700D01*
X+8741800Y-4427700D01*
X+8671300Y-4314900D02*
X+8657200Y-4329000D01*
X+8657200Y-4371300D01*
X+8671300Y-4385400D01*
X+8727700Y-4385400D01*
X+8741800Y-4371300D01*
X+8741800Y-4329000D01*
X+8727700Y-4314900D01*
X+8713600Y-4314900D01*
X+8699500Y-4329000D01*
X+8699500Y-4385400D01*
D160*
X+6933500Y-4169500D02*
X+6933500Y-4629500D01*
X+7163500Y-4629500D01*
X+7163500Y-4169500D01*
X+6933500Y-4169500D01*
X+7098500Y-4399500D02*
X+6998500Y-4399500D01*
X+7048500Y-4449500D02*
X+7048500Y-4349500D01*
D167*
X+7090800Y-4512300D02*
X+7006200Y-4512300D01*
X+7006200Y-4441800D01*
X+7020300Y-4427700D01*
X+7034400Y-4427700D01*
X+7048500Y-4441800D01*
X+7048500Y-4512300D01*
X+7048500Y-4441800D02*
X+7062600Y-4427700D01*
X+7090800Y-4427700D01*
X+7006200Y-4385400D02*
X+7006200Y-4314900D01*
X+7020300Y-4314900D01*
X+7090800Y-4385400D01*
D160*
X+7187500Y-4169500D02*
X+7187500Y-4629500D01*
X+7417500Y-4629500D01*
X+7417500Y-4169500D01*
X+7187500Y-4169500D01*
X+7352500Y-4399500D02*
X+7252500Y-4399500D01*
X+7302500Y-4449500D02*
X+7302500Y-4349500D01*
D161*
X+7337375Y-4539000D02*
X+7267625Y-4539000D01*
X+7267625Y-4480875D01*
X+7279250Y-4469250D01*
X+7290875Y-4469250D01*
X+7302500Y-4480875D01*
X+7302500Y-4539000D01*
X+7302500Y-4480875D02*
X+7314125Y-4469250D01*
X+7337375Y-4469250D01*
X+7314125Y-4376250D02*
X+7314125Y-4446000D01*
X+7267625Y-4399500D01*
X+7337375Y-4399500D01*
X+7325750Y-4353000D02*
X+7279250Y-4353000D01*
X+7267625Y-4341375D01*
X+7267625Y-4294875D01*
X+7279250Y-4283250D01*
X+7325750Y-4283250D01*
X+7337375Y-4294875D01*
X+7337375Y-4341375D01*
X+7325750Y-4353000D01*
X+7337375Y-4353000D02*
X+7267625Y-4283250D01*
D160*
X+5536500Y-4169500D02*
X+5536500Y-4629500D01*
X+5766500Y-4629500D01*
X+5766500Y-4169500D01*
X+5536500Y-4169500D01*
X+5701500Y-4399500D02*
X+5601500Y-4399500D01*
X+5651500Y-4449500D02*
X+5651500Y-4349500D01*
D161*
X+5686375Y-4539000D02*
X+5616625Y-4539000D01*
X+5616625Y-4480875D01*
X+5628250Y-4469250D01*
X+5639875Y-4469250D01*
X+5651500Y-4480875D01*
X+5651500Y-4539000D01*
X+5651500Y-4480875D02*
X+5663125Y-4469250D01*
X+5686375Y-4469250D01*
X+5663125Y-4376250D02*
X+5663125Y-4446000D01*
X+5616625Y-4399500D01*
X+5686375Y-4399500D01*
X+5639875Y-4329750D02*
X+5616625Y-4306500D01*
X+5686375Y-4306500D01*
D160*
X+5790500Y-4169500D02*
X+5790500Y-4629500D01*
X+6020500Y-4629500D01*
X+6020500Y-4169500D01*
X+5790500Y-4169500D01*
X+5955500Y-4399500D02*
X+5855500Y-4399500D01*
X+5905500Y-4449500D02*
X+5905500Y-4349500D01*
D161*
X+5940375Y-4539000D02*
X+5870625Y-4539000D01*
X+5870625Y-4480875D01*
X+5882250Y-4469250D01*
X+5893875Y-4469250D01*
X+5905500Y-4480875D01*
X+5905500Y-4539000D01*
X+5905500Y-4480875D02*
X+5917125Y-4469250D01*
X+5940375Y-4469250D01*
X+5917125Y-4376250D02*
X+5917125Y-4446000D01*
X+5870625Y-4399500D01*
X+5940375Y-4399500D01*
X+5882250Y-4341375D02*
X+5870625Y-4329750D01*
X+5870625Y-4294875D01*
X+5882250Y-4283250D01*
X+5893875Y-4283250D01*
X+5905500Y-4294875D01*
X+5905500Y-4329750D01*
X+5917125Y-4341375D01*
X+5940375Y-4341375D01*
X+5940375Y-4283250D01*
D160*
X+4901500Y-613500D02*
X+4901500Y-1073500D01*
X+5131500Y-1073500D01*
X+5131500Y-613500D01*
X+4901500Y-613500D01*
X+5066500Y-843500D02*
X+4966500Y-843500D01*
X+5016500Y-893500D02*
X+5016500Y-793500D01*
D168*
X+5044400Y-992300D02*
X+4988600Y-992300D01*
X+4988600Y-945800D01*
X+4997900Y-936500D01*
X+5007200Y-936500D01*
X+5016500Y-945800D01*
X+5016500Y-992300D01*
X+5016500Y-945800D02*
X+5025800Y-936500D01*
X+5044400Y-936500D01*
X+4988600Y-862100D02*
X+4988600Y-908600D01*
X+5007200Y-908600D01*
X+5007200Y-871400D01*
X+5016500Y-862100D01*
X+5035100Y-862100D01*
X+5044400Y-871400D01*
X+5044400Y-899300D01*
X+5035100Y-908600D01*
X+5035100Y-843500D02*
X+4997900Y-843500D01*
X+4988600Y-834200D01*
X+4988600Y-797000D01*
X+4997900Y-787700D01*
X+5035100Y-787700D01*
X+5044400Y-797000D01*
X+5044400Y-834200D01*
X+5035100Y-843500D01*
X+5044400Y-843500D02*
X+4988600Y-787700D01*
X+4997900Y-759800D02*
X+4988600Y-750500D01*
X+4988600Y-722600D01*
X+4997900Y-713300D01*
X+5007200Y-713300D01*
X+5016500Y-722600D01*
X+5025800Y-713300D01*
X+5035100Y-713300D01*
X+5044400Y-722600D01*
X+5044400Y-750500D01*
X+5035100Y-759800D01*
X+5016500Y-741200D02*
X+5016500Y-722600D01*
D160*
X+4647500Y-133000D02*
X+4647500Y-593000D01*
X+4877500Y-593000D01*
X+4877500Y-133000D01*
X+4647500Y-133000D01*
X+4812500Y-363000D02*
X+4712500Y-363000D01*
X+4762500Y-413000D02*
X+4762500Y-313000D01*
D168*
X+4790400Y-511800D02*
X+4734600Y-511800D01*
X+4734600Y-465300D01*
X+4743900Y-456000D01*
X+4753200Y-456000D01*
X+4762500Y-465300D01*
X+4762500Y-511800D01*
X+4762500Y-465300D02*
X+4771800Y-456000D01*
X+4790400Y-456000D01*
X+4734600Y-381600D02*
X+4734600Y-428100D01*
X+4753200Y-428100D01*
X+4753200Y-390900D01*
X+4762500Y-381600D01*
X+4781100Y-381600D01*
X+4790400Y-390900D01*
X+4790400Y-418800D01*
X+4781100Y-428100D01*
X+4781100Y-363000D02*
X+4743900Y-363000D01*
X+4734600Y-353700D01*
X+4734600Y-316500D01*
X+4743900Y-307200D01*
X+4781100Y-307200D01*
X+4790400Y-316500D01*
X+4790400Y-353700D01*
X+4781100Y-363000D01*
X+4790400Y-363000D02*
X+4734600Y-307200D01*
X+4771800Y-232800D02*
X+4771800Y-288600D01*
X+4734600Y-251400D01*
X+4790400Y-251400D01*
D160*
X+4901500Y-1629500D02*
X+4901500Y-2089500D01*
X+5131500Y-2089500D01*
X+5131500Y-1629500D01*
X+4901500Y-1629500D01*
X+5066500Y-1859500D02*
X+4966500Y-1859500D01*
X+5016500Y-1909500D02*
X+5016500Y-1809500D01*
D168*
X+5044400Y-2008300D02*
X+4988600Y-2008300D01*
X+4988600Y-1961800D01*
X+4997900Y-1952500D01*
X+5007200Y-1952500D01*
X+5016500Y-1961800D01*
X+5016500Y-2008300D01*
X+5016500Y-1961800D02*
X+5025800Y-1952500D01*
X+5044400Y-1952500D01*
X+4988600Y-1878100D02*
X+4988600Y-1924600D01*
X+5007200Y-1924600D01*
X+5007200Y-1887400D01*
X+5016500Y-1878100D01*
X+5035100Y-1878100D01*
X+5044400Y-1887400D01*
X+5044400Y-1915300D01*
X+5035100Y-1924600D01*
X+5035100Y-1859500D02*
X+4997900Y-1859500D01*
X+4988600Y-1850200D01*
X+4988600Y-1813000D01*
X+4997900Y-1803700D01*
X+5035100Y-1803700D01*
X+5044400Y-1813000D01*
X+5044400Y-1850200D01*
X+5035100Y-1859500D01*
X+5044400Y-1859500D02*
X+4988600Y-1803700D01*
X+4988600Y-1775800D02*
X+4988600Y-1729300D01*
X+4997900Y-1729300D01*
X+5044400Y-1775800D01*
D160*
X+4647500Y-1121500D02*
X+4647500Y-1581500D01*
X+4877500Y-1581500D01*
X+4877500Y-1121500D01*
X+4647500Y-1121500D01*
X+4812500Y-1351500D02*
X+4712500Y-1351500D01*
X+4762500Y-1401500D02*
X+4762500Y-1301500D01*
D168*
X+4790400Y-1500300D02*
X+4734600Y-1500300D01*
X+4734600Y-1453800D01*
X+4743900Y-1444500D01*
X+4753200Y-1444500D01*
X+4762500Y-1453800D01*
X+4762500Y-1500300D01*
X+4762500Y-1453800D02*
X+4771800Y-1444500D01*
X+4790400Y-1444500D01*
X+4734600Y-1370100D02*
X+4734600Y-1416600D01*
X+4753200Y-1416600D01*
X+4753200Y-1379400D01*
X+4762500Y-1370100D01*
X+4781100Y-1370100D01*
X+4790400Y-1379400D01*
X+4790400Y-1407300D01*
X+4781100Y-1416600D01*
X+4781100Y-1351500D02*
X+4743900Y-1351500D01*
X+4734600Y-1342200D01*
X+4734600Y-1305000D01*
X+4743900Y-1295700D01*
X+4781100Y-1295700D01*
X+4790400Y-1305000D01*
X+4790400Y-1342200D01*
X+4781100Y-1351500D01*
X+4790400Y-1351500D02*
X+4734600Y-1295700D01*
X+4762500Y-1258500D02*
X+4753200Y-1267800D01*
X+4743900Y-1267800D01*
X+4734600Y-1258500D01*
X+4734600Y-1230600D01*
X+4743900Y-1221300D01*
X+4753200Y-1221300D01*
X+4762500Y-1230600D01*
X+4762500Y-1258500D01*
X+4771800Y-1267800D01*
X+4781100Y-1267800D01*
X+4790400Y-1258500D01*
X+4790400Y-1230600D01*
X+4781100Y-1221300D01*
X+4771800Y-1221300D01*
X+4762500Y-1230600D01*
D160*
X+4901500Y-123000D02*
X+4901500Y-593000D01*
X+5131500Y-593000D01*
X+5131500Y-123000D01*
X+4901500Y-123000D01*
X+5066500Y-358000D02*
X+4966500Y-358000D01*
X+5016500Y-408000D02*
X+5016500Y-308000D01*
D174*
X+5035500Y-453000D02*
X+5045000Y-462500D01*
X+5045000Y-491000D01*
X+5026000Y-510000D01*
X+5007000Y-510000D01*
X+4988000Y-491000D01*
X+4988000Y-462500D01*
X+4997500Y-453000D01*
X+4988000Y-377000D02*
X+4988000Y-424500D01*
X+5007000Y-424500D01*
X+5007000Y-386500D01*
X+5016500Y-377000D01*
X+5035500Y-377000D01*
X+5045000Y-386500D01*
X+5045000Y-415000D01*
X+5035500Y-424500D01*
X+5035500Y-358000D02*
X+4997500Y-358000D01*
X+4988000Y-348500D01*
X+4988000Y-310500D01*
X+4997500Y-301000D01*
X+5035500Y-301000D01*
X+5045000Y-310500D01*
X+5045000Y-348500D01*
X+5035500Y-358000D01*
X+5045000Y-358000D02*
X+4988000Y-301000D01*
X+4997500Y-272500D02*
X+4988000Y-263000D01*
X+4988000Y-234500D01*
X+4997500Y-225000D01*
X+5007000Y-225000D01*
X+5016500Y-234500D01*
X+5026000Y-225000D01*
X+5035500Y-225000D01*
X+5045000Y-234500D01*
X+5045000Y-263000D01*
X+5035500Y-272500D01*
X+5016500Y-253500D02*
X+5016500Y-234500D01*
D160*
X+4647500Y-613500D02*
X+4647500Y-1083500D01*
X+4877500Y-1083500D01*
X+4877500Y-613500D01*
X+4647500Y-613500D01*
X+4812500Y-848500D02*
X+4712500Y-848500D01*
X+4762500Y-898500D02*
X+4762500Y-798500D01*
D174*
X+4781500Y-943500D02*
X+4791000Y-953000D01*
X+4791000Y-981500D01*
X+4772000Y-1000500D01*
X+4753000Y-1000500D01*
X+4734000Y-981500D01*
X+4734000Y-953000D01*
X+4743500Y-943500D01*
X+4734000Y-867500D02*
X+4734000Y-915000D01*
X+4753000Y-915000D01*
X+4753000Y-877000D01*
X+4762500Y-867500D01*
X+4781500Y-867500D01*
X+4791000Y-877000D01*
X+4791000Y-905500D01*
X+4781500Y-915000D01*
X+4781500Y-848500D02*
X+4743500Y-848500D01*
X+4734000Y-839000D01*
X+4734000Y-801000D01*
X+4743500Y-791500D01*
X+4781500Y-791500D01*
X+4791000Y-801000D01*
X+4791000Y-839000D01*
X+4781500Y-848500D01*
X+4791000Y-848500D02*
X+4734000Y-791500D01*
X+4772000Y-715500D02*
X+4772000Y-772500D01*
X+4734000Y-734500D01*
X+4791000Y-734500D01*
D160*
X+4901500Y-1121500D02*
X+4901500Y-1591500D01*
X+5131500Y-1591500D01*
X+5131500Y-1121500D01*
X+4901500Y-1121500D01*
X+5066500Y-1356500D02*
X+4966500Y-1356500D01*
X+5016500Y-1406500D02*
X+5016500Y-1306500D01*
D174*
X+5035500Y-1451500D02*
X+5045000Y-1461000D01*
X+5045000Y-1489500D01*
X+5026000Y-1508500D01*
X+5007000Y-1508500D01*
X+4988000Y-1489500D01*
X+4988000Y-1461000D01*
X+4997500Y-1451500D01*
X+4988000Y-1375500D02*
X+4988000Y-1423000D01*
X+5007000Y-1423000D01*
X+5007000Y-1385000D01*
X+5016500Y-1375500D01*
X+5035500Y-1375500D01*
X+5045000Y-1385000D01*
X+5045000Y-1413500D01*
X+5035500Y-1423000D01*
X+5035500Y-1356500D02*
X+4997500Y-1356500D01*
X+4988000Y-1347000D01*
X+4988000Y-1309000D01*
X+4997500Y-1299500D01*
X+5035500Y-1299500D01*
X+5045000Y-1309000D01*
X+5045000Y-1347000D01*
X+5035500Y-1356500D01*
X+5045000Y-1356500D02*
X+4988000Y-1299500D01*
X+4988000Y-1223500D02*
X+4988000Y-1271000D01*
X+5007000Y-1271000D01*
X+5007000Y-1233000D01*
X+5016500Y-1223500D01*
X+5035500Y-1223500D01*
X+5045000Y-1233000D01*
X+5045000Y-1261500D01*
X+5035500Y-1271000D01*
D160*
X+4647500Y-1629500D02*
X+4647500Y-2099500D01*
X+4877500Y-2099500D01*
X+4877500Y-1629500D01*
X+4647500Y-1629500D01*
X+4812500Y-1864500D02*
X+4712500Y-1864500D01*
X+4762500Y-1914500D02*
X+4762500Y-1814500D01*
D174*
X+4781500Y-1959500D02*
X+4791000Y-1969000D01*
X+4791000Y-1997500D01*
X+4772000Y-2016500D01*
X+4753000Y-2016500D01*
X+4734000Y-1997500D01*
X+4734000Y-1969000D01*
X+4743500Y-1959500D01*
X+4734000Y-1883500D02*
X+4734000Y-1931000D01*
X+4753000Y-1931000D01*
X+4753000Y-1893000D01*
X+4762500Y-1883500D01*
X+4781500Y-1883500D01*
X+4791000Y-1893000D01*
X+4791000Y-1921500D01*
X+4781500Y-1931000D01*
X+4781500Y-1864500D02*
X+4743500Y-1864500D01*
X+4734000Y-1855000D01*
X+4734000Y-1817000D01*
X+4743500Y-1807500D01*
X+4781500Y-1807500D01*
X+4791000Y-1817000D01*
X+4791000Y-1855000D01*
X+4781500Y-1864500D01*
X+4791000Y-1864500D02*
X+4734000Y-1807500D01*
X+4743500Y-1731500D02*
X+4734000Y-1741000D01*
X+4734000Y-1769500D01*
X+4743500Y-1779000D01*
X+4781500Y-1779000D01*
X+4791000Y-1769500D01*
X+4791000Y-1741000D01*
X+4781500Y-1731500D01*
X+4772000Y-1731500D01*
X+4762500Y-1741000D01*
X+4762500Y-1779000D01*
D160*
X+7251000Y-105500D02*
X+7251000Y-575500D01*
X+7481000Y-575500D01*
X+7481000Y-105500D01*
X+7251000Y-105500D01*
X+7416000Y-340500D02*
X+7316000Y-340500D01*
X+7366000Y-390500D02*
X+7366000Y-290500D01*
D174*
X+7385000Y-435500D02*
X+7394500Y-445000D01*
X+7394500Y-473500D01*
X+7375500Y-492500D01*
X+7356500Y-492500D01*
X+7337500Y-473500D01*
X+7337500Y-445000D01*
X+7347000Y-435500D01*
X+7347000Y-359500D02*
X+7337500Y-369000D01*
X+7337500Y-397500D01*
X+7347000Y-407000D01*
X+7385000Y-407000D01*
X+7394500Y-397500D01*
X+7394500Y-369000D01*
X+7385000Y-359500D01*
X+7375500Y-359500D01*
X+7366000Y-369000D01*
X+7366000Y-407000D01*
X+7385000Y-340500D02*
X+7347000Y-340500D01*
X+7337500Y-331000D01*
X+7337500Y-293000D01*
X+7347000Y-283500D01*
X+7385000Y-283500D01*
X+7394500Y-293000D01*
X+7394500Y-331000D01*
X+7385000Y-340500D01*
X+7394500Y-340500D02*
X+7337500Y-283500D01*
X+7347000Y-255000D02*
X+7337500Y-245500D01*
X+7337500Y-217000D01*
X+7347000Y-207500D01*
X+7356500Y-207500D01*
X+7366000Y-217000D01*
X+7375500Y-207500D01*
X+7385000Y-207500D01*
X+7394500Y-217000D01*
X+7394500Y-245500D01*
X+7385000Y-255000D01*
X+7366000Y-236000D02*
X+7366000Y-217000D01*
D160*
X+6997000Y-613500D02*
X+6997000Y-1083500D01*
X+7227000Y-1083500D01*
X+7227000Y-613500D01*
X+6997000Y-613500D01*
X+7162000Y-848500D02*
X+7062000Y-848500D01*
X+7112000Y-898500D02*
X+7112000Y-798500D01*
D174*
X+7131000Y-943500D02*
X+7140500Y-953000D01*
X+7140500Y-981500D01*
X+7121500Y-1000500D01*
X+7102500Y-1000500D01*
X+7083500Y-981500D01*
X+7083500Y-953000D01*
X+7093000Y-943500D01*
X+7093000Y-867500D02*
X+7083500Y-877000D01*
X+7083500Y-905500D01*
X+7093000Y-915000D01*
X+7131000Y-915000D01*
X+7140500Y-905500D01*
X+7140500Y-877000D01*
X+7131000Y-867500D01*
X+7121500Y-867500D01*
X+7112000Y-877000D01*
X+7112000Y-915000D01*
X+7131000Y-848500D02*
X+7093000Y-848500D01*
X+7083500Y-839000D01*
X+7083500Y-801000D01*
X+7093000Y-791500D01*
X+7131000Y-791500D01*
X+7140500Y-801000D01*
X+7140500Y-839000D01*
X+7131000Y-848500D01*
X+7140500Y-848500D02*
X+7083500Y-791500D01*
X+7121500Y-715500D02*
X+7121500Y-772500D01*
X+7083500Y-734500D01*
X+7140500Y-734500D01*
D160*
X+7251000Y-1121500D02*
X+7251000Y-1591500D01*
X+7481000Y-1591500D01*
X+7481000Y-1121500D01*
X+7251000Y-1121500D01*
X+7416000Y-1356500D02*
X+7316000Y-1356500D01*
X+7366000Y-1406500D02*
X+7366000Y-1306500D01*
D174*
X+7385000Y-1451500D02*
X+7394500Y-1461000D01*
X+7394500Y-1489500D01*
X+7375500Y-1508500D01*
X+7356500Y-1508500D01*
X+7337500Y-1489500D01*
X+7337500Y-1461000D01*
X+7347000Y-1451500D01*
X+7347000Y-1375500D02*
X+7337500Y-1385000D01*
X+7337500Y-1413500D01*
X+7347000Y-1423000D01*
X+7385000Y-1423000D01*
X+7394500Y-1413500D01*
X+7394500Y-1385000D01*
X+7385000Y-1375500D01*
X+7375500Y-1375500D01*
X+7366000Y-1385000D01*
X+7366000Y-1423000D01*
X+7385000Y-1356500D02*
X+7347000Y-1356500D01*
X+7337500Y-1347000D01*
X+7337500Y-1309000D01*
X+7347000Y-1299500D01*
X+7385000Y-1299500D01*
X+7394500Y-1309000D01*
X+7394500Y-1347000D01*
X+7385000Y-1356500D01*
X+7394500Y-1356500D02*
X+7337500Y-1299500D01*
X+7337500Y-1223500D02*
X+7337500Y-1271000D01*
X+7356500Y-1271000D01*
X+7356500Y-1233000D01*
X+7366000Y-1223500D01*
X+7385000Y-1223500D01*
X+7394500Y-1233000D01*
X+7394500Y-1261500D01*
X+7385000Y-1271000D01*
D160*
X+6997000Y-1629500D02*
X+6997000Y-2099500D01*
X+7227000Y-2099500D01*
X+7227000Y-1629500D01*
X+6997000Y-1629500D01*
X+7162000Y-1864500D02*
X+7062000Y-1864500D01*
X+7112000Y-1914500D02*
X+7112000Y-1814500D01*
D174*
X+7131000Y-1959500D02*
X+7140500Y-1969000D01*
X+7140500Y-1997500D01*
X+7121500Y-2016500D01*
X+7102500Y-2016500D01*
X+7083500Y-1997500D01*
X+7083500Y-1969000D01*
X+7093000Y-1959500D01*
X+7093000Y-1883500D02*
X+7083500Y-1893000D01*
X+7083500Y-1921500D01*
X+7093000Y-1931000D01*
X+7131000Y-1931000D01*
X+7140500Y-1921500D01*
X+7140500Y-1893000D01*
X+7131000Y-1883500D01*
X+7121500Y-1883500D01*
X+7112000Y-1893000D01*
X+7112000Y-1931000D01*
X+7131000Y-1864500D02*
X+7093000Y-1864500D01*
X+7083500Y-1855000D01*
X+7083500Y-1817000D01*
X+7093000Y-1807500D01*
X+7131000Y-1807500D01*
X+7140500Y-1817000D01*
X+7140500Y-1855000D01*
X+7131000Y-1864500D01*
X+7140500Y-1864500D02*
X+7083500Y-1807500D01*
X+7093000Y-1731500D02*
X+7083500Y-1741000D01*
X+7083500Y-1769500D01*
X+7093000Y-1779000D01*
X+7131000Y-1779000D01*
X+7140500Y-1769500D01*
X+7140500Y-1741000D01*
X+7131000Y-1731500D01*
X+7121500Y-1731500D01*
X+7112000Y-1741000D01*
X+7112000Y-1779000D01*
D160*
X+7251000Y-613500D02*
X+7251000Y-1073500D01*
X+7481000Y-1073500D01*
X+7481000Y-613500D01*
X+7251000Y-613500D01*
X+7416000Y-843500D02*
X+7316000Y-843500D01*
X+7366000Y-893500D02*
X+7366000Y-793500D01*
D168*
X+7393900Y-992300D02*
X+7338100Y-992300D01*
X+7338100Y-945800D01*
X+7347400Y-936500D01*
X+7356700Y-936500D01*
X+7366000Y-945800D01*
X+7366000Y-992300D01*
X+7366000Y-945800D02*
X+7375300Y-936500D01*
X+7393900Y-936500D01*
X+7347400Y-862100D02*
X+7338100Y-871400D01*
X+7338100Y-899300D01*
X+7347400Y-908600D01*
X+7384600Y-908600D01*
X+7393900Y-899300D01*
X+7393900Y-871400D01*
X+7384600Y-862100D01*
X+7375300Y-862100D01*
X+7366000Y-871400D01*
X+7366000Y-908600D01*
X+7384600Y-843500D02*
X+7347400Y-843500D01*
X+7338100Y-834200D01*
X+7338100Y-797000D01*
X+7347400Y-787700D01*
X+7384600Y-787700D01*
X+7393900Y-797000D01*
X+7393900Y-834200D01*
X+7384600Y-843500D01*
X+7393900Y-843500D02*
X+7338100Y-787700D01*
X+7347400Y-759800D02*
X+7338100Y-750500D01*
X+7338100Y-722600D01*
X+7347400Y-713300D01*
X+7356700Y-713300D01*
X+7366000Y-722600D01*
X+7375300Y-713300D01*
X+7384600Y-713300D01*
X+7393900Y-722600D01*
X+7393900Y-750500D01*
X+7384600Y-759800D01*
X+7366000Y-741200D02*
X+7366000Y-722600D01*
D160*
X+6997000Y-105500D02*
X+6997000Y-565500D01*
X+7227000Y-565500D01*
X+7227000Y-105500D01*
X+6997000Y-105500D01*
X+7162000Y-335500D02*
X+7062000Y-335500D01*
X+7112000Y-385500D02*
X+7112000Y-285500D01*
D168*
X+7139900Y-484300D02*
X+7084100Y-484300D01*
X+7084100Y-437800D01*
X+7093400Y-428500D01*
X+7102700Y-428500D01*
X+7112000Y-437800D01*
X+7112000Y-484300D01*
X+7112000Y-437800D02*
X+7121300Y-428500D01*
X+7139900Y-428500D01*
X+7093400Y-354100D02*
X+7084100Y-363400D01*
X+7084100Y-391300D01*
X+7093400Y-400600D01*
X+7130600Y-400600D01*
X+7139900Y-391300D01*
X+7139900Y-363400D01*
X+7130600Y-354100D01*
X+7121300Y-354100D01*
X+7112000Y-363400D01*
X+7112000Y-400600D01*
X+7130600Y-335500D02*
X+7093400Y-335500D01*
X+7084100Y-326200D01*
X+7084100Y-289000D01*
X+7093400Y-279700D01*
X+7130600Y-279700D01*
X+7139900Y-289000D01*
X+7139900Y-326200D01*
X+7130600Y-335500D01*
X+7139900Y-335500D02*
X+7084100Y-279700D01*
X+7121300Y-205300D02*
X+7121300Y-261100D01*
X+7084100Y-223900D01*
X+7139900Y-223900D01*
D160*
X+7251000Y-1629500D02*
X+7251000Y-2089500D01*
X+7481000Y-2089500D01*
X+7481000Y-1629500D01*
X+7251000Y-1629500D01*
X+7416000Y-1859500D02*
X+7316000Y-1859500D01*
X+7366000Y-1909500D02*
X+7366000Y-1809500D01*
D168*
X+7393900Y-2008300D02*
X+7338100Y-2008300D01*
X+7338100Y-1961800D01*
X+7347400Y-1952500D01*
X+7356700Y-1952500D01*
X+7366000Y-1961800D01*
X+7366000Y-2008300D01*
X+7366000Y-1961800D02*
X+7375300Y-1952500D01*
X+7393900Y-1952500D01*
X+7347400Y-1878100D02*
X+7338100Y-1887400D01*
X+7338100Y-1915300D01*
X+7347400Y-1924600D01*
X+7384600Y-1924600D01*
X+7393900Y-1915300D01*
X+7393900Y-1887400D01*
X+7384600Y-1878100D01*
X+7375300Y-1878100D01*
X+7366000Y-1887400D01*
X+7366000Y-1924600D01*
X+7384600Y-1859500D02*
X+7347400Y-1859500D01*
X+7338100Y-1850200D01*
X+7338100Y-1813000D01*
X+7347400Y-1803700D01*
X+7384600Y-1803700D01*
X+7393900Y-1813000D01*
X+7393900Y-1850200D01*
X+7384600Y-1859500D01*
X+7393900Y-1859500D02*
X+7338100Y-1803700D01*
X+7338100Y-1775800D02*
X+7338100Y-1729300D01*
X+7347400Y-1729300D01*
X+7393900Y-1775800D01*
D160*
X+6997000Y-1121500D02*
X+6997000Y-1581500D01*
X+7227000Y-1581500D01*
X+7227000Y-1121500D01*
X+6997000Y-1121500D01*
X+7162000Y-1351500D02*
X+7062000Y-1351500D01*
X+7112000Y-1401500D02*
X+7112000Y-1301500D01*
D168*
X+7139900Y-1500300D02*
X+7084100Y-1500300D01*
X+7084100Y-1453800D01*
X+7093400Y-1444500D01*
X+7102700Y-1444500D01*
X+7112000Y-1453800D01*
X+7112000Y-1500300D01*
X+7112000Y-1453800D02*
X+7121300Y-1444500D01*
X+7139900Y-1444500D01*
X+7093400Y-1370100D02*
X+7084100Y-1379400D01*
X+7084100Y-1407300D01*
X+7093400Y-1416600D01*
X+7130600Y-1416600D01*
X+7139900Y-1407300D01*
X+7139900Y-1379400D01*
X+7130600Y-1370100D01*
X+7121300Y-1370100D01*
X+7112000Y-1379400D01*
X+7112000Y-1416600D01*
X+7130600Y-1351500D02*
X+7093400Y-1351500D01*
X+7084100Y-1342200D01*
X+7084100Y-1305000D01*
X+7093400Y-1295700D01*
X+7130600Y-1295700D01*
X+7139900Y-1305000D01*
X+7139900Y-1342200D01*
X+7130600Y-1351500D01*
X+7139900Y-1351500D02*
X+7084100Y-1295700D01*
X+7112000Y-1258500D02*
X+7102700Y-1267800D01*
X+7093400Y-1267800D01*
X+7084100Y-1258500D01*
X+7084100Y-1230600D01*
X+7093400Y-1221300D01*
X+7102700Y-1221300D01*
X+7112000Y-1230600D01*
X+7112000Y-1258500D01*
X+7121300Y-1267800D01*
X+7130600Y-1267800D01*
X+7139900Y-1258500D01*
X+7139900Y-1230600D01*
X+7130600Y-1221300D01*
X+7121300Y-1221300D01*
X+7112000Y-1230600D01*
D61*
X+3368040Y-3860800D02*
X+3677920Y-3860800D01*
X+3677920Y-3568700D01*
X+3368040Y-3568700D01*
X+3368040Y-3860800D01*
D169*
X+3440346Y-3704421D02*
X+3461004Y-3683762D01*
X+3481663Y-3683762D01*
X+3502321Y-3704421D01*
X+3502321Y-3725079D01*
X+3481663Y-3745738D01*
X+3461004Y-3745738D01*
X+3440346Y-3725079D01*
X+3440346Y-3704421D01*
X+3481663Y-3725079D02*
X+3502321Y-3745738D01*
X+3543638Y-3704421D02*
X+3564297Y-3683762D01*
X+3564297Y-3745738D01*
D61*
X+3939540Y-3860800D02*
X+4249420Y-3860800D01*
X+4249420Y-3568700D01*
X+3939540Y-3568700D01*
X+3939540Y-3860800D01*
D175*
X+4001516Y-3707003D02*
X+4017010Y-3691509D01*
X+4032504Y-3691509D01*
X+4047998Y-3707003D01*
X+4047998Y-3722497D01*
X+4032504Y-3737991D01*
X+4017010Y-3737991D01*
X+4001516Y-3722497D01*
X+4001516Y-3707003D01*
X+4032504Y-3722497D02*
X+4047998Y-3737991D01*
X+4078986Y-3707003D02*
X+4094480Y-3691509D01*
X+4094480Y-3737991D01*
X+4140962Y-3707003D02*
X+4156456Y-3691509D01*
X+4156456Y-3737991D01*
D61*
X+4394200Y-4315460D02*
X+4686300Y-4315460D01*
X+4686300Y-4005580D01*
X+4394200Y-4005580D01*
X+4394200Y-4315460D01*
D175*
X+4532503Y-4253484D02*
X+4517009Y-4237990D01*
X+4517009Y-4222496D01*
X+4532503Y-4207002D01*
X+4547997Y-4207002D01*
X+4563491Y-4222496D01*
X+4563491Y-4237990D01*
X+4547997Y-4253484D01*
X+4532503Y-4253484D01*
X+4547997Y-4222496D02*
X+4563491Y-4207002D01*
X+4532503Y-4176014D02*
X+4517009Y-4160520D01*
X+4563491Y-4160520D01*
X+4524756Y-4121785D02*
X+4517009Y-4114038D01*
X+4517009Y-4090797D01*
X+4524756Y-4083050D01*
X+4532503Y-4083050D01*
X+4540250Y-4090797D01*
X+4540250Y-4114038D01*
X+4547997Y-4121785D01*
X+4563491Y-4121785D01*
X+4563491Y-4083050D01*
D61*
X+3734920Y-3841750D02*
X+3885080Y-3841750D01*
X+3885080Y-3543300D01*
X+3734920Y-3543300D01*
X+3734920Y-3841750D01*
D176*
X+3832384Y-3782058D02*
X+3787617Y-3782058D01*
X+3787617Y-3752214D01*
X+3802539Y-3737292D01*
X+3817462Y-3737292D01*
X+3832384Y-3752214D01*
X+3832384Y-3782058D01*
X+3802539Y-3707447D02*
X+3787617Y-3692525D01*
X+3832384Y-3692525D01*
X+3824923Y-3662680D02*
X+3795078Y-3662680D01*
X+3787617Y-3655219D01*
X+3787617Y-3625375D01*
X+3795078Y-3617914D01*
X+3824923Y-3617914D01*
X+3832384Y-3625375D01*
X+3832384Y-3655219D01*
X+3824923Y-3662680D01*
X+3832384Y-3662680D02*
X+3787617Y-3617914D01*
D61*
X+3353920Y-4203700D02*
X+3504080Y-4203700D01*
X+3504080Y-3905250D01*
X+3353920Y-3905250D01*
X+3353920Y-4203700D01*
D176*
X+3451384Y-4144008D02*
X+3406617Y-4144008D01*
X+3406617Y-4114164D01*
X+3421539Y-4099242D01*
X+3436462Y-4099242D01*
X+3451384Y-4114164D01*
X+3451384Y-4144008D01*
X+3421539Y-4069397D02*
X+3406617Y-4054475D01*
X+3451384Y-4054475D01*
X+3421539Y-4009708D02*
X+3406617Y-3994786D01*
X+3451384Y-3994786D01*
D61*
X+4306420Y-3841750D02*
X+4456580Y-3841750D01*
X+4456580Y-3543300D01*
X+4306420Y-3543300D01*
X+4306420Y-3841750D01*
D173*
X+4399407Y-3788029D02*
X+4363593Y-3788029D01*
X+4363593Y-3764153D01*
X+4375531Y-3752215D01*
X+4387469Y-3752215D01*
X+4399407Y-3764153D01*
X+4399407Y-3788029D01*
X+4369562Y-3734308D02*
X+4363593Y-3728339D01*
X+4363593Y-3710432D01*
X+4369562Y-3704463D01*
X+4375531Y-3704463D01*
X+4381500Y-3710432D01*
X+4381500Y-3728339D01*
X+4387469Y-3734308D01*
X+4399407Y-3734308D01*
X+4399407Y-3704463D01*
X+4393438Y-3692525D02*
X+4369562Y-3692525D01*
X+4363593Y-3686556D01*
X+4363593Y-3662680D01*
X+4369562Y-3656711D01*
X+4393438Y-3656711D01*
X+4399407Y-3662680D01*
X+4399407Y-3686556D01*
X+4393438Y-3692525D01*
X+4399407Y-3692525D02*
X+4363593Y-3656711D01*
X+4375531Y-3632835D02*
X+4363593Y-3620897D01*
X+4399407Y-3620897D01*
D61*
X+3925420Y-4203700D02*
X+4075580Y-4203700D01*
X+4075580Y-3905250D01*
X+3925420Y-3905250D01*
X+3925420Y-4203700D01*
D173*
X+4018407Y-4149979D02*
X+3982593Y-4149979D01*
X+3982593Y-4126103D01*
X+3994531Y-4114165D01*
X+4006469Y-4114165D01*
X+4018407Y-4126103D01*
X+4018407Y-4149979D01*
X+3988562Y-4096258D02*
X+3982593Y-4090289D01*
X+3982593Y-4072382D01*
X+3988562Y-4066413D01*
X+3994531Y-4066413D01*
X+4000500Y-4072382D01*
X+4000500Y-4090289D01*
X+4006469Y-4096258D01*
X+4018407Y-4096258D01*
X+4018407Y-4066413D01*
X+4012438Y-4054475D02*
X+3988562Y-4054475D01*
X+3982593Y-4048506D01*
X+3982593Y-4024630D01*
X+3988562Y-4018661D01*
X+4012438Y-4018661D01*
X+4018407Y-4024630D01*
X+4018407Y-4048506D01*
X+4012438Y-4054475D01*
X+4018407Y-4054475D02*
X+3982593Y-4018661D01*
X+3988562Y-4000754D02*
X+3982593Y-3994785D01*
X+3982593Y-3976878D01*
X+3988562Y-3970909D01*
X+3994531Y-3970909D01*
X+4000500Y-3976878D01*
X+4000500Y-3994785D01*
X+4006469Y-4000754D01*
X+4018407Y-4000754D01*
X+4018407Y-3970909D01*
D160*
X+3435000Y-3480500D02*
X+3895000Y-3480500D01*
X+3895000Y-3250500D01*
X+3435000Y-3250500D01*
X+3435000Y-3480500D01*
X+3665000Y-3315500D02*
X+3665000Y-3415500D01*
X+3715000Y-3365500D02*
X+3615000Y-3365500D01*
D161*
X+3525500Y-3400375D02*
X+3525500Y-3330625D01*
X+3583625Y-3330625D01*
X+3595250Y-3342250D01*
X+3595250Y-3353875D01*
X+3583625Y-3365500D01*
X+3525500Y-3365500D01*
X+3583625Y-3365500D02*
X+3595250Y-3377125D01*
X+3595250Y-3400375D01*
X+3630125Y-3342250D02*
X+3641750Y-3330625D01*
X+3676625Y-3330625D01*
X+3688250Y-3342250D01*
X+3688250Y-3353875D01*
X+3676625Y-3365500D01*
X+3688250Y-3377125D01*
X+3688250Y-3388750D01*
X+3676625Y-3400375D01*
X+3641750Y-3400375D01*
X+3630125Y-3388750D01*
X+3653375Y-3365500D02*
X+3676625Y-3365500D01*
X+3734750Y-3365500D02*
X+3723125Y-3353875D01*
X+3723125Y-3342250D01*
X+3734750Y-3330625D01*
X+3769625Y-3330625D01*
X+3781250Y-3342250D01*
X+3781250Y-3353875D01*
X+3769625Y-3365500D01*
X+3734750Y-3365500D01*
X+3723125Y-3377125D01*
X+3723125Y-3388750D01*
X+3734750Y-3400375D01*
X+3769625Y-3400375D01*
X+3781250Y-3388750D01*
X+3781250Y-3377125D01*
X+3769625Y-3365500D01*
D160*
X+3435000Y-3226500D02*
X+3895000Y-3226500D01*
X+3895000Y-2996500D01*
X+3435000Y-2996500D01*
X+3435000Y-3226500D01*
X+3665000Y-3061500D02*
X+3665000Y-3161500D01*
X+3715000Y-3111500D02*
X+3615000Y-3111500D01*
D161*
X+3525500Y-3146375D02*
X+3525500Y-3076625D01*
X+3583625Y-3076625D01*
X+3595250Y-3088250D01*
X+3595250Y-3099875D01*
X+3583625Y-3111500D01*
X+3525500Y-3111500D01*
X+3583625Y-3111500D02*
X+3595250Y-3123125D01*
X+3595250Y-3146375D01*
X+3630125Y-3088250D02*
X+3641750Y-3076625D01*
X+3676625Y-3076625D01*
X+3688250Y-3088250D01*
X+3688250Y-3099875D01*
X+3676625Y-3111500D01*
X+3688250Y-3123125D01*
X+3688250Y-3134750D01*
X+3676625Y-3146375D01*
X+3641750Y-3146375D01*
X+3630125Y-3134750D01*
X+3653375Y-3111500D02*
X+3676625Y-3111500D01*
X+3781250Y-3099875D02*
X+3769625Y-3111500D01*
X+3734750Y-3111500D01*
X+3723125Y-3099875D01*
X+3723125Y-3088250D01*
X+3734750Y-3076625D01*
X+3769625Y-3076625D01*
X+3781250Y-3088250D01*
X+3781250Y-3134750D01*
X+3769625Y-3146375D01*
X+3734750Y-3146375D01*
D160*
X+4466500Y-3250500D02*
X+4006500Y-3250500D01*
X+4006500Y-3480500D01*
X+4466500Y-3480500D01*
X+4466500Y-3250500D01*
X+4236500Y-3415500D02*
X+4236500Y-3315500D01*
X+4186500Y-3365500D02*
X+4286500Y-3365500D01*
D168*
X+4087700Y-3393400D02*
X+4087700Y-3337600D01*
X+4134200Y-3337600D01*
X+4143500Y-3346900D01*
X+4143500Y-3356200D01*
X+4134200Y-3365500D01*
X+4087700Y-3365500D01*
X+4134200Y-3365500D02*
X+4143500Y-3374800D01*
X+4143500Y-3393400D01*
X+4171400Y-3346900D02*
X+4180700Y-3337600D01*
X+4208600Y-3337600D01*
X+4217900Y-3346900D01*
X+4217900Y-3356200D01*
X+4208600Y-3365500D01*
X+4180700Y-3365500D01*
X+4171400Y-3374800D01*
X+4171400Y-3393400D01*
X+4217900Y-3393400D01*
X+4236500Y-3384100D02*
X+4236500Y-3346900D01*
X+4245800Y-3337600D01*
X+4283000Y-3337600D01*
X+4292300Y-3346900D01*
X+4292300Y-3384100D01*
X+4283000Y-3393400D01*
X+4245800Y-3393400D01*
X+4236500Y-3384100D01*
X+4236500Y-3393400D02*
X+4292300Y-3337600D01*
X+4329500Y-3356200D02*
X+4348100Y-3337600D01*
X+4348100Y-3393400D01*
D160*
X+4520500Y-2990500D02*
X+4520500Y-3450500D01*
X+4750500Y-3450500D01*
X+4750500Y-2990500D01*
X+4520500Y-2990500D01*
X+4685500Y-3220500D02*
X+4585500Y-3220500D01*
X+4635500Y-3270500D02*
X+4635500Y-3170500D01*
D168*
X+4663400Y-3369300D02*
X+4607600Y-3369300D01*
X+4607600Y-3322800D01*
X+4616900Y-3313500D01*
X+4626200Y-3313500D01*
X+4635500Y-3322800D01*
X+4635500Y-3369300D01*
X+4635500Y-3322800D02*
X+4644800Y-3313500D01*
X+4663400Y-3313500D01*
X+4616900Y-3285600D02*
X+4607600Y-3276300D01*
X+4607600Y-3248400D01*
X+4616900Y-3239100D01*
X+4626200Y-3239100D01*
X+4635500Y-3248400D01*
X+4635500Y-3276300D01*
X+4644800Y-3285600D01*
X+4663400Y-3285600D01*
X+4663400Y-3239100D01*
X+4654100Y-3220500D02*
X+4616900Y-3220500D01*
X+4607600Y-3211200D01*
X+4607600Y-3174000D01*
X+4616900Y-3164700D01*
X+4654100Y-3164700D01*
X+4663400Y-3174000D01*
X+4663400Y-3211200D01*
X+4654100Y-3220500D01*
X+4663400Y-3220500D02*
X+4607600Y-3164700D01*
X+4616900Y-3136800D02*
X+4607600Y-3127500D01*
X+4607600Y-3099600D01*
X+4616900Y-3090300D01*
X+4626200Y-3090300D01*
X+4635500Y-3099600D01*
X+4635500Y-3127500D01*
X+4644800Y-3136800D01*
X+4663400Y-3136800D01*
X+4663400Y-3090300D01*
D160*
X+4750500Y-3958500D02*
X+4750500Y-3488500D01*
X+4520500Y-3488500D01*
X+4520500Y-3958500D01*
X+4750500Y-3958500D01*
X+4585500Y-3723500D02*
X+4685500Y-3723500D01*
X+4635500Y-3673500D02*
X+4635500Y-3773500D01*
D174*
X+4654500Y-3818500D02*
X+4664000Y-3828000D01*
X+4664000Y-3856500D01*
X+4645000Y-3875500D01*
X+4626000Y-3875500D01*
X+4607000Y-3856500D01*
X+4607000Y-3828000D01*
X+4616500Y-3818500D01*
X+4616500Y-3790000D02*
X+4607000Y-3780500D01*
X+4607000Y-3752000D01*
X+4616500Y-3742500D01*
X+4626000Y-3742500D01*
X+4635500Y-3752000D01*
X+4635500Y-3780500D01*
X+4645000Y-3790000D01*
X+4664000Y-3790000D01*
X+4664000Y-3742500D01*
X+4654500Y-3723500D02*
X+4616500Y-3723500D01*
X+4607000Y-3714000D01*
X+4607000Y-3676000D01*
X+4616500Y-3666500D01*
X+4654500Y-3666500D01*
X+4664000Y-3676000D01*
X+4664000Y-3714000D01*
X+4654500Y-3723500D01*
X+4664000Y-3723500D02*
X+4607000Y-3666500D01*
X+4626000Y-3628500D02*
X+4607000Y-3609500D01*
X+4664000Y-3609500D01*
D160*
X+4466500Y-2996500D02*
X+3996500Y-2996500D01*
X+3996500Y-3226500D01*
X+4466500Y-3226500D01*
X+4466500Y-2996500D01*
X+4231500Y-3161500D02*
X+4231500Y-3061500D01*
X+4181500Y-3111500D02*
X+4281500Y-3111500D01*
D165*
X+4160250Y-3135250D02*
X+4148375Y-3147125D01*
X+4112750Y-3147125D01*
X+4089000Y-3123375D01*
X+4089000Y-3099625D01*
X+4112750Y-3075875D01*
X+4148375Y-3075875D01*
X+4160250Y-3087750D01*
X+4195875Y-3087750D02*
X+4207750Y-3075875D01*
X+4243375Y-3075875D01*
X+4255250Y-3087750D01*
X+4255250Y-3099625D01*
X+4243375Y-3111500D01*
X+4255250Y-3123375D01*
X+4255250Y-3135250D01*
X+4243375Y-3147125D01*
X+4207750Y-3147125D01*
X+4195875Y-3135250D01*
X+4219625Y-3111500D02*
X+4243375Y-3111500D01*
X+4302750Y-3099625D02*
X+4326500Y-3075875D01*
X+4326500Y-3147125D01*
D160*
X-171347Y-9195500D02*
X+288653Y-9195500D01*
X+288653Y-8965500D01*
X-171347Y-8965500D01*
X-171347Y-9195500D01*
X+58653Y-9030500D02*
X+58653Y-9130500D01*
X+108653Y-9080500D02*
X+8653Y-9080500D01*
D161*
X-80847Y-9115375D02*
X-80847Y-9045625D01*
X-22722Y-9045625D01*
X-11097Y-9057250D01*
X-11097Y-9068875D01*
X-22722Y-9080500D01*
X-80847Y-9080500D01*
X-22722Y-9080500D02*
X-11097Y-9092125D01*
X-11097Y-9115375D01*
X+35403Y-9068875D02*
X+58653Y-9045625D01*
X+58653Y-9115375D01*
X+174903Y-9045625D02*
X+116778Y-9045625D01*
X+116778Y-9068875D01*
X+163278Y-9068875D01*
X+174903Y-9080500D01*
X+174903Y-9103750D01*
X+163278Y-9115375D01*
X+128403Y-9115375D01*
X+116778Y-9103750D01*
D160*
X+1190000Y-8491699D02*
X+730000Y-8491699D01*
X+730000Y-8721699D01*
X+1190000Y-8721699D01*
X+1190000Y-8491699D01*
X+960000Y-8656699D02*
X+960000Y-8556699D01*
X+910000Y-8606699D02*
X+1010000Y-8606699D01*
D161*
X+820500Y-8641574D02*
X+820500Y-8571824D01*
X+878625Y-8571824D01*
X+890250Y-8583449D01*
X+890250Y-8595074D01*
X+878625Y-8606699D01*
X+820500Y-8606699D01*
X+878625Y-8606699D02*
X+890250Y-8618324D01*
X+890250Y-8641574D01*
X+936750Y-8595074D02*
X+960000Y-8571824D01*
X+960000Y-8641574D01*
X+1076250Y-8583449D02*
X+1064625Y-8571824D01*
X+1029750Y-8571824D01*
X+1018125Y-8583449D01*
X+1018125Y-8629949D01*
X+1029750Y-8641574D01*
X+1064625Y-8641574D01*
X+1076250Y-8629949D01*
X+1076250Y-8618324D01*
X+1064625Y-8606699D01*
X+1018125Y-8606699D01*
D65*
X+2270200Y-8485719D02*
X+2270200Y-8036139D01*
X+720800Y-8036139D01*
X+720800Y-8485719D01*
X+2270200Y-8485719D01*
X+2270200Y-8036139D01*
X+720800Y-8036139D01*
X+720800Y-8485719D01*
X+2270200Y-8485719D01*
D177*
X+1049274Y-8288819D02*
X+1049274Y-8316708D01*
X+1077163Y-8344597D01*
X+1188719Y-8344597D01*
X+1216608Y-8316708D01*
X+1216608Y-8177262D01*
X+1272387Y-8177262D02*
X+1439721Y-8177262D01*
X+1356054Y-8177262D02*
X+1356054Y-8344597D01*
X+1495500Y-8344597D02*
X+1495500Y-8233040D01*
X+1551278Y-8177262D01*
X+1607056Y-8177262D01*
X+1662834Y-8233040D01*
X+1662834Y-8344597D01*
X+1495500Y-8288819D02*
X+1662834Y-8288819D01*
X+1830169Y-8288819D02*
X+1885947Y-8288819D01*
X+1885947Y-8344597D01*
X+1774391Y-8344597D01*
X+1718613Y-8288819D01*
X+1718613Y-8233040D01*
X+1774391Y-8177262D01*
X+1858058Y-8177262D01*
X+1885947Y-8205151D01*
D61*
X+497840Y-5334000D02*
X+1534160Y-5334000D01*
X+1534160Y-4064000D01*
X+497840Y-4064000D01*
X+497840Y-5334000D01*
D157*
X+1079500Y-4889500D02*
X+1111250Y-4921250D01*
X+1111250Y-5016500D01*
X+1047750Y-5080000D01*
X+984250Y-5080000D01*
X+920750Y-5016500D01*
X+920750Y-4921250D01*
X+952500Y-4889500D01*
X+984250Y-4762500D02*
X+920750Y-4699000D01*
X+1111250Y-4699000D01*
X+952500Y-4540250D02*
X+920750Y-4508500D01*
X+920750Y-4413250D01*
X+952500Y-4381500D01*
X+984250Y-4381500D01*
X+1016000Y-4413250D01*
X+1016000Y-4508500D01*
X+1047750Y-4540250D01*
X+1111250Y-4540250D01*
X+1111250Y-4381500D01*
D160*
X+4052000Y-8673699D02*
X+4052000Y-8203699D01*
X+3822000Y-8203699D01*
X+3822000Y-8673699D01*
X+4052000Y-8673699D01*
X+3887000Y-8438699D02*
X+3987000Y-8438699D01*
X+3937000Y-8388699D02*
X+3937000Y-8488699D01*
D165*
X+3960750Y-8509949D02*
X+3972625Y-8521824D01*
X+3972625Y-8557449D01*
X+3948875Y-8581199D01*
X+3925125Y-8581199D01*
X+3901375Y-8557449D01*
X+3901375Y-8521824D01*
X+3913250Y-8509949D01*
X+3925125Y-8462449D02*
X+3901375Y-8438699D01*
X+3972625Y-8438699D01*
X+3913250Y-8319949D02*
X+3901375Y-8331824D01*
X+3901375Y-8367449D01*
X+3913250Y-8379324D01*
X+3960750Y-8379324D01*
X+3972625Y-8367449D01*
X+3972625Y-8331824D01*
X+3960750Y-8319949D01*
X+3948875Y-8319949D01*
X+3937000Y-8331824D01*
X+3937000Y-8379324D01*
D160*
X-877000Y+148500D02*
X-877000Y-321500D01*
X-647000Y-321500D01*
X-647000Y+148500D01*
X-877000Y+148500D01*
X-712000Y-86500D02*
X-812000Y-86500D01*
X-762000Y-136500D02*
X-762000Y-36500D01*
D174*
X-743000Y-181500D02*
X-733500Y-191000D01*
X-733500Y-219500D01*
X-752500Y-238500D01*
X-771500Y-238500D01*
X-790500Y-219500D01*
X-790500Y-191000D01*
X-781000Y-181500D01*
X-771500Y-143500D02*
X-790500Y-124500D01*
X-733500Y-124500D01*
X-743000Y-86500D02*
X-781000Y-86500D01*
X-790500Y-77000D01*
X-790500Y-39000D01*
X-781000Y-29500D01*
X-743000Y-29500D01*
X-733500Y-39000D01*
X-733500Y-77000D01*
X-743000Y-86500D01*
X-733500Y-86500D02*
X-790500Y-29500D01*
X-752500Y+46500D02*
X-752500Y-10500D01*
X-790500Y+27500D01*
X-733500Y+27500D01*
D65*
X+3651250Y-9014979D02*
X+3651250Y-8725419D01*
X+3060750Y-8725419D01*
X+3060750Y-9014979D01*
X+3651250Y-9014979D01*
X+3651250Y-8725419D01*
X+3060750Y-8725419D01*
X+3060750Y-9014979D01*
X+3651250Y-9014979D01*
D178*
X+3174278Y-8915629D02*
X+3174278Y-8824768D01*
X+3249995Y-8824768D01*
X+3265139Y-8839912D01*
X+3265139Y-8855055D01*
X+3249995Y-8870199D01*
X+3174278Y-8870199D01*
X+3295426Y-8855055D02*
X+3325713Y-8824768D01*
X+3356000Y-8824768D01*
X+3386287Y-8855055D01*
X+3386287Y-8885342D01*
X+3356000Y-8915629D01*
X+3325713Y-8915629D01*
X+3295426Y-8885342D01*
X+3295426Y-8855055D01*
X+3416574Y-8824768D02*
X+3507435Y-8824768D01*
X+3462004Y-8824768D02*
X+3462004Y-8915629D01*
D160*
X+4705000Y-8703699D02*
X+5165000Y-8703699D01*
X+5165000Y-8473699D01*
X+4705000Y-8473699D01*
X+4705000Y-8703699D01*
X+4935000Y-8538699D02*
X+4935000Y-8638699D01*
X+4985000Y-8588699D02*
X+4885000Y-8588699D01*
D161*
X+4795500Y-8623574D02*
X+4795500Y-8553824D01*
X+4853625Y-8553824D01*
X+4865250Y-8565449D01*
X+4865250Y-8577074D01*
X+4853625Y-8588699D01*
X+4795500Y-8588699D01*
X+4853625Y-8588699D02*
X+4865250Y-8600324D01*
X+4865250Y-8623574D01*
X+4900125Y-8565449D02*
X+4911750Y-8553824D01*
X+4946625Y-8553824D01*
X+4958250Y-8565449D01*
X+4958250Y-8577074D01*
X+4946625Y-8588699D01*
X+4958250Y-8600324D01*
X+4958250Y-8611949D01*
X+4946625Y-8623574D01*
X+4911750Y-8623574D01*
X+4900125Y-8611949D01*
X+4923375Y-8588699D02*
X+4946625Y-8588699D01*
X+5004750Y-8577074D02*
X+5028000Y-8553824D01*
X+5028000Y-8623574D01*
D160*
X+4076000Y-8213699D02*
X+4076000Y-8673699D01*
X+4306000Y-8673699D01*
X+4306000Y-8213699D01*
X+4076000Y-8213699D01*
X+4241000Y-8443699D02*
X+4141000Y-8443699D01*
X+4191000Y-8493699D02*
X+4191000Y-8393699D01*
D161*
X+4225875Y-8583199D02*
X+4156125Y-8583199D01*
X+4156125Y-8525074D01*
X+4167750Y-8513449D01*
X+4179375Y-8513449D01*
X+4191000Y-8525074D01*
X+4191000Y-8583199D01*
X+4191000Y-8525074D02*
X+4202625Y-8513449D01*
X+4225875Y-8513449D01*
X+4167750Y-8478574D02*
X+4156125Y-8466949D01*
X+4156125Y-8432074D01*
X+4167750Y-8420449D01*
X+4179375Y-8420449D01*
X+4191000Y-8432074D01*
X+4202625Y-8420449D01*
X+4214250Y-8420449D01*
X+4225875Y-8432074D01*
X+4225875Y-8466949D01*
X+4214250Y-8478574D01*
X+4191000Y-8455324D02*
X+4191000Y-8432074D01*
X+4202625Y-8327449D02*
X+4202625Y-8397199D01*
X+4156125Y-8350699D01*
X+4225875Y-8350699D01*
D160*
X+4560000Y-8673699D02*
X+4560000Y-8213699D01*
X+4330000Y-8213699D01*
X+4330000Y-8673699D01*
X+4560000Y-8673699D01*
X+4395000Y-8443699D02*
X+4495000Y-8443699D01*
X+4445000Y-8393699D02*
X+4445000Y-8493699D01*
D161*
X+4479875Y-8583199D02*
X+4410125Y-8583199D01*
X+4410125Y-8525074D01*
X+4421750Y-8513449D01*
X+4433375Y-8513449D01*
X+4445000Y-8525074D01*
X+4445000Y-8583199D01*
X+4445000Y-8525074D02*
X+4456625Y-8513449D01*
X+4479875Y-8513449D01*
X+4421750Y-8478574D02*
X+4410125Y-8466949D01*
X+4410125Y-8432074D01*
X+4421750Y-8420449D01*
X+4433375Y-8420449D01*
X+4445000Y-8432074D01*
X+4456625Y-8420449D01*
X+4468250Y-8420449D01*
X+4479875Y-8432074D01*
X+4479875Y-8466949D01*
X+4468250Y-8478574D01*
X+4445000Y-8455324D02*
X+4445000Y-8432074D01*
X+4410125Y-8327449D02*
X+4410125Y-8385574D01*
X+4433375Y-8385574D01*
X+4433375Y-8339074D01*
X+4445000Y-8327449D01*
X+4468250Y-8327449D01*
X+4479875Y-8339074D01*
X+4479875Y-8373949D01*
X+4468250Y-8385574D01*
D65*
X+5254370Y-9015400D02*
X+5254370Y-8763940D01*
X+3905630Y-8763940D01*
X+3905630Y-9015400D01*
X+5254370Y-9015400D01*
X+5254370Y-8763940D01*
X+3905630Y-8763940D01*
X+3905630Y-9015400D01*
X+5254370Y-9015400D01*
D179*
X+4323968Y-8937676D02*
X+4323968Y-8841664D01*
X+4371974Y-8889670D01*
X+4419980Y-8841664D01*
X+4419980Y-8937676D01*
X+4451984Y-8873668D02*
X+4483988Y-8841664D01*
X+4515992Y-8841664D01*
X+4547996Y-8873668D01*
X+4547996Y-8905672D01*
X+4515992Y-8937676D01*
X+4483988Y-8937676D01*
X+4451984Y-8905672D01*
X+4451984Y-8873668D01*
X+4580000Y-8937676D02*
X+4580000Y-8841664D01*
X+4660010Y-8841664D01*
X+4676012Y-8857666D01*
X+4676012Y-8873668D01*
X+4660010Y-8889670D01*
X+4580000Y-8889670D01*
X+4708016Y-8921674D02*
X+4724018Y-8937676D01*
X+4788026Y-8937676D01*
X+4804028Y-8921674D01*
X+4804028Y-8905672D01*
X+4788026Y-8889670D01*
X+4724018Y-8889670D01*
X+4708016Y-8873668D01*
X+4708016Y-8857666D01*
X+4724018Y-8841664D01*
X+4788026Y-8841664D01*
X+4804028Y-8857666D01*
D61*
X-301674Y-1629810D02*
X+2118001Y-232810D01*
X+1115940Y+1502810D01*
X-1303735Y+105810D01*
X-301674Y-1629810D01*
D180*
X-377813Y-194066D02*
X-98413Y-678001D01*
X+385521Y-398601D01*
X+394655Y+144378D02*
X+428744Y+271600D01*
X+670712Y+411300D01*
X+797934Y+377211D01*
X+844501Y+296555D01*
X+810412Y+169333D01*
X+568444Y+29633D01*
X+534355Y-97589D01*
X+627489Y-258901D01*
X+1030767Y-26068D01*
D160*
X+1104500Y+1583500D02*
X+1104414Y+1585576D01*
X+1103712Y+1589729D01*
X+1102242Y+1593882D01*
X+1099840Y+1598035D01*
X+1096167Y+1602134D01*
X+1092014Y+1605143D01*
X+1087861Y+1607060D01*
X+1083708Y+1608143D01*
X+1079555Y+1608500D01*
X+1079500Y+1608500D01*
X+1054500Y+1583500D02*
X+1054586Y+1585576D01*
X+1055288Y+1589729D01*
X+1056758Y+1593882D01*
X+1059160Y+1598035D01*
X+1062833Y+1602134D01*
X+1066986Y+1605143D01*
X+1071139Y+1607060D01*
X+1075292Y+1608143D01*
X+1079445Y+1608500D01*
X+1079500Y+1608500D01*
X+1054500Y+1583500D02*
X+1054586Y+1581424D01*
X+1055288Y+1577271D01*
X+1056758Y+1573118D01*
X+1059160Y+1568965D01*
X+1062833Y+1564866D01*
X+1066986Y+1561857D01*
X+1071139Y+1559940D01*
X+1075292Y+1558857D01*
X+1079445Y+1558500D01*
X+1079500Y+1558500D01*
X+1104500Y+1583500D02*
X+1104414Y+1581424D01*
X+1103712Y+1577271D01*
X+1102242Y+1573118D01*
X+1099840Y+1568965D01*
X+1096167Y+1564866D01*
X+1092014Y+1561857D01*
X+1087861Y+1559940D01*
X+1083708Y+1558857D01*
X+1079555Y+1558500D01*
X+1079500Y+1558500D01*
X+1079500Y+1618500D02*
X+1079500Y+1548500D01*
X+1044500Y+1583500D02*
X+1114500Y+1583500D01*
X+554500Y+1058500D02*
X+1079500Y+1058500D01*
X+1134062Y+1061152D01*
X+1186845Y+1068946D01*
X+1237610Y+1081643D01*
X+1286116Y+1099003D01*
X+1332122Y+1120785D01*
X+1375389Y+1146748D01*
X+1415676Y+1176652D01*
X+1452742Y+1210258D01*
X+1486348Y+1247324D01*
X+1516252Y+1287611D01*
X+1542215Y+1330878D01*
X+1563997Y+1376884D01*
X+1581357Y+1425390D01*
X+1594054Y+1476155D01*
X+1601848Y+1528938D01*
X+1604500Y+1583500D01*
X+1601848Y+1638062D01*
X+1594054Y+1690845D01*
X+1581357Y+1741610D01*
X+1563997Y+1790116D01*
X+1542215Y+1836122D01*
X+1516252Y+1879389D01*
X+1486348Y+1919676D01*
X+1452742Y+1956742D01*
X+1415676Y+1990348D01*
X+1375389Y+2020252D01*
X+1332122Y+2046215D01*
X+1286116Y+2067997D01*
X+1237610Y+2085357D01*
X+1186845Y+2098054D01*
X+1134062Y+2105848D01*
X+1079500Y+2108500D01*
X+1024938Y+2105848D01*
X+972155Y+2098054D01*
X+921390Y+2085357D01*
X+872884Y+2067997D01*
X+826878Y+2046215D01*
X+783611Y+2020252D01*
X+743324Y+1990348D01*
X+706258Y+1956742D01*
X+672652Y+1919676D01*
X+642748Y+1879389D01*
X+616785Y+1836122D01*
X+595003Y+1790116D01*
X+577643Y+1741610D01*
X+564946Y+1690845D01*
X+557152Y+1638062D01*
X+554500Y+1583500D01*
X+554500Y+1058500D01*
D181*
X+1132250Y+1425250D02*
X+1158625Y+1398875D01*
X+1158625Y+1319750D01*
X+1105875Y+1267000D01*
X+1053125Y+1267000D01*
X+1000375Y+1319750D01*
X+1000375Y+1398875D01*
X+1026750Y+1425250D01*
X+1053125Y+1530750D02*
X+1000375Y+1583500D01*
X+1158625Y+1583500D01*
X+1053125Y+1847250D02*
X+1079500Y+1820875D01*
X+1079500Y+1741750D01*
X+1053125Y+1715375D01*
X+1026750Y+1715375D01*
X+1000375Y+1741750D01*
X+1000375Y+1820875D01*
X+1026750Y+1847250D01*
X+1132250Y+1847250D01*
X+1158625Y+1820875D01*
X+1158625Y+1741750D01*
D160*
X-292500Y+1583500D02*
X-292586Y+1585576D01*
X-293288Y+1589729D01*
X-294758Y+1593882D01*
X-297160Y+1598035D01*
X-300833Y+1602134D01*
X-304986Y+1605143D01*
X-309139Y+1607060D01*
X-313292Y+1608143D01*
X-317445Y+1608500D01*
X-317500Y+1608500D01*
X-342500Y+1583500D02*
X-342414Y+1585576D01*
X-341712Y+1589729D01*
X-340242Y+1593882D01*
X-337840Y+1598035D01*
X-334167Y+1602134D01*
X-330014Y+1605143D01*
X-325861Y+1607060D01*
X-321708Y+1608143D01*
X-317555Y+1608500D01*
X-317500Y+1608500D01*
X-342500Y+1583500D02*
X-342414Y+1581424D01*
X-341712Y+1577271D01*
X-340242Y+1573118D01*
X-337840Y+1568965D01*
X-334167Y+1564866D01*
X-330014Y+1561857D01*
X-325861Y+1559940D01*
X-321708Y+1558857D01*
X-317555Y+1558500D01*
X-317500Y+1558500D01*
X-292500Y+1583500D02*
X-292586Y+1581424D01*
X-293288Y+1577271D01*
X-294758Y+1573118D01*
X-297160Y+1568965D01*
X-300833Y+1564866D01*
X-304986Y+1561857D01*
X-309139Y+1559940D01*
X-313292Y+1558857D01*
X-317445Y+1558500D01*
X-317500Y+1558500D01*
X-317500Y+1618500D02*
X-317500Y+1548500D01*
X-352500Y+1583500D02*
X-282500Y+1583500D01*
X-842500Y+1058500D02*
X-317500Y+1058500D01*
X-262938Y+1061152D01*
X-210155Y+1068946D01*
X-159390Y+1081643D01*
X-110884Y+1099003D01*
X-64878Y+1120785D01*
X-21611Y+1146748D01*
X+18676Y+1176652D01*
X+55742Y+1210258D01*
X+89348Y+1247324D01*
X+119252Y+1287611D01*
X+145215Y+1330878D01*
X+166997Y+1376884D01*
X+184357Y+1425390D01*
X+197054Y+1476155D01*
X+204848Y+1528938D01*
X+207500Y+1583500D01*
X+204848Y+1638062D01*
X+197054Y+1690845D01*
X+184357Y+1741610D01*
X+166997Y+1790116D01*
X+145215Y+1836122D01*
X+119252Y+1879389D01*
X+89348Y+1919676D01*
X+55742Y+1956742D01*
X+18676Y+1990348D01*
X-21611Y+2020252D01*
X-64878Y+2046215D01*
X-110884Y+2067997D01*
X-159390Y+2085357D01*
X-210155Y+2098054D01*
X-262938Y+2105848D01*
X-317500Y+2108500D01*
X-372062Y+2105848D01*
X-424845Y+2098054D01*
X-475610Y+2085357D01*
X-524116Y+2067997D01*
X-570122Y+2046215D01*
X-613389Y+2020252D01*
X-653676Y+1990348D01*
X-690742Y+1956742D01*
X-724348Y+1919676D01*
X-754252Y+1879389D01*
X-780215Y+1836122D01*
X-801997Y+1790116D01*
X-819357Y+1741610D01*
X-832054Y+1690845D01*
X-839848Y+1638062D01*
X-842500Y+1583500D01*
X-842500Y+1058500D01*
D181*
X-264750Y+1425250D02*
X-238375Y+1398875D01*
X-238375Y+1319750D01*
X-291125Y+1267000D01*
X-343875Y+1267000D01*
X-396625Y+1319750D01*
X-396625Y+1398875D01*
X-370250Y+1425250D01*
X-370250Y+1504375D02*
X-396625Y+1530750D01*
X-396625Y+1609875D01*
X-370250Y+1636250D01*
X-343875Y+1636250D01*
X-317500Y+1609875D01*
X-317500Y+1530750D01*
X-291125Y+1504375D01*
X-238375Y+1504375D01*
X-238375Y+1636250D01*
X-264750Y+1689000D02*
X-370250Y+1689000D01*
X-396625Y+1715375D01*
X-396625Y+1820875D01*
X-370250Y+1847250D01*
X-264750Y+1847250D01*
X-238375Y+1820875D01*
X-238375Y+1715375D01*
X-264750Y+1689000D01*
X-238375Y+1689000D02*
X-396625Y+1847250D01*
D160*
X+2501500Y+1587500D02*
X+2501414Y+1589576D01*
X+2500712Y+1593729D01*
X+2499242Y+1597882D01*
X+2496840Y+1602035D01*
X+2493167Y+1606134D01*
X+2489014Y+1609143D01*
X+2484861Y+1611060D01*
X+2480708Y+1612143D01*
X+2476555Y+1612500D01*
X+2476500Y+1612500D01*
X+2451500Y+1587500D02*
X+2451586Y+1589576D01*
X+2452288Y+1593729D01*
X+2453758Y+1597882D01*
X+2456160Y+1602035D01*
X+2459833Y+1606134D01*
X+2463986Y+1609143D01*
X+2468139Y+1611060D01*
X+2472292Y+1612143D01*
X+2476445Y+1612500D01*
X+2476500Y+1612500D01*
X+2451500Y+1587500D02*
X+2451586Y+1585424D01*
X+2452288Y+1581271D01*
X+2453758Y+1577118D01*
X+2456160Y+1572965D01*
X+2459833Y+1568866D01*
X+2463986Y+1565857D01*
X+2468139Y+1563940D01*
X+2472292Y+1562857D01*
X+2476445Y+1562500D01*
X+2476500Y+1562500D01*
X+2501500Y+1587500D02*
X+2501414Y+1585424D01*
X+2500712Y+1581271D01*
X+2499242Y+1577118D01*
X+2496840Y+1572965D01*
X+2493167Y+1568866D01*
X+2489014Y+1565857D01*
X+2484861Y+1563940D01*
X+2480708Y+1562857D01*
X+2476555Y+1562500D01*
X+2476500Y+1562500D01*
X+2476500Y+1622500D02*
X+2476500Y+1552500D01*
X+2441500Y+1587500D02*
X+2511500Y+1587500D01*
X+1951500Y+1062500D02*
X+2476500Y+1062500D01*
X+2531062Y+1065152D01*
X+2583845Y+1072946D01*
X+2634610Y+1085643D01*
X+2683116Y+1103003D01*
X+2729122Y+1124785D01*
X+2772389Y+1150748D01*
X+2812676Y+1180652D01*
X+2849742Y+1214258D01*
X+2883348Y+1251324D01*
X+2913252Y+1291611D01*
X+2939215Y+1334878D01*
X+2960997Y+1380884D01*
X+2978357Y+1429390D01*
X+2991054Y+1480155D01*
X+2998848Y+1532938D01*
X+3001500Y+1587500D01*
X+2998848Y+1642062D01*
X+2991054Y+1694845D01*
X+2978357Y+1745610D01*
X+2960997Y+1794116D01*
X+2939215Y+1840122D01*
X+2913252Y+1883389D01*
X+2883348Y+1923676D01*
X+2849742Y+1960742D01*
X+2812676Y+1994348D01*
X+2772389Y+2024252D01*
X+2729122Y+2050215D01*
X+2683116Y+2071997D01*
X+2634610Y+2089357D01*
X+2583845Y+2102054D01*
X+2531062Y+2109848D01*
X+2476500Y+2112500D01*
X+2421938Y+2109848D01*
X+2369155Y+2102054D01*
X+2318390Y+2089357D01*
X+2269884Y+2071997D01*
X+2223878Y+2050215D01*
X+2180611Y+2024252D01*
X+2140324Y+1994348D01*
X+2103258Y+1960742D01*
X+2069652Y+1923676D01*
X+2039748Y+1883389D01*
X+2013785Y+1840122D01*
X+1992003Y+1794116D01*
X+1974643Y+1745610D01*
X+1961946Y+1694845D01*
X+1954152Y+1642062D01*
X+1951500Y+1587500D01*
X+1951500Y+1062500D01*
D181*
X+2529250Y+1429250D02*
X+2555625Y+1402875D01*
X+2555625Y+1323750D01*
X+2502875Y+1271000D01*
X+2450125Y+1271000D01*
X+2397375Y+1323750D01*
X+2397375Y+1402875D01*
X+2423750Y+1429250D01*
X+2450125Y+1534750D02*
X+2397375Y+1587500D01*
X+2555625Y+1587500D01*
X+2397375Y+1719375D02*
X+2397375Y+1851250D01*
X+2423750Y+1851250D01*
X+2555625Y+1719375D01*
D61*
X+46990Y-8350769D02*
X+349250Y-8350769D01*
X+349250Y-8051049D01*
X+46990Y-8051049D01*
X+46990Y-8350769D01*
D182*
X+117518Y-8170683D02*
X+117518Y-8221060D01*
X+127593Y-8231135D01*
X+167894Y-8231135D01*
X+177969Y-8221060D01*
X+177969Y-8170683D01*
X+258571Y-8180758D02*
X+248496Y-8170683D01*
X+218270Y-8170683D01*
X+208195Y-8180758D01*
X+208195Y-8221060D01*
X+218270Y-8231135D01*
X+248496Y-8231135D01*
X+258571Y-8221060D01*
X+258571Y-8210984D01*
X+248496Y-8200909D01*
X+208195Y-8200909D01*
D61*
X-373380Y-7516379D02*
X-40640Y-7516379D01*
X-40640Y-7231899D01*
X-373380Y-7231899D01*
X-373380Y-7516379D01*
D183*
X-306832Y-7349183D02*
X-306832Y-7390776D01*
X-298514Y-7399094D01*
X-265240Y-7399094D01*
X-256921Y-7390776D01*
X-256921Y-7349183D01*
X-223647Y-7365820D02*
X-207010Y-7349183D01*
X-207010Y-7399094D01*
X-165418Y-7357502D02*
X-157099Y-7349183D01*
X-132144Y-7349183D01*
X-123825Y-7357502D01*
X-123825Y-7365820D01*
X-132144Y-7374139D01*
X-157099Y-7374139D01*
X-165418Y-7382457D01*
X-165418Y-7399094D01*
X-123825Y-7399094D01*
D160*
X-12000Y-7032699D02*
X-12000Y-6562699D01*
X-242000Y-6562699D01*
X-242000Y-7032699D01*
X-12000Y-7032699D01*
X-177000Y-6797699D02*
X-77000Y-6797699D01*
X-127000Y-6747699D02*
X-127000Y-6847699D01*
D165*
X-103250Y-6868949D02*
X-91375Y-6880824D01*
X-91375Y-6916449D01*
X-115125Y-6940199D01*
X-138875Y-6940199D01*
X-162625Y-6916449D01*
X-162625Y-6880824D01*
X-150750Y-6868949D01*
X-150750Y-6833324D02*
X-162625Y-6821449D01*
X-162625Y-6785824D01*
X-150750Y-6773949D01*
X-138875Y-6773949D01*
X-127000Y-6785824D01*
X-127000Y-6821449D01*
X-115125Y-6833324D01*
X-91375Y-6833324D01*
X-91375Y-6773949D01*
X-138875Y-6726449D02*
X-162625Y-6702699D01*
X-91375Y-6702699D01*
D61*
X-429260Y-8128519D02*
X-12700Y-8128519D01*
X-12700Y-7960879D01*
X-429260Y-7960879D01*
X-429260Y-8128519D01*
D184*
X-301447Y-8074875D02*
X-301447Y-8014524D01*
X-261214Y-8014524D01*
X-241097Y-8034641D01*
X-241097Y-8054758D01*
X-261214Y-8074875D01*
X-301447Y-8074875D01*
X-160630Y-8014524D02*
X-210922Y-8014524D01*
X-210922Y-8034641D01*
X-170689Y-8034641D01*
X-160630Y-8044699D01*
X-160630Y-8064816D01*
X-170689Y-8074875D01*
X-200864Y-8074875D01*
X-210922Y-8064816D01*
D160*
X+466000Y-8691699D02*
X+6000Y-8691699D01*
X+6000Y-8921699D01*
X+466000Y-8921699D01*
X+466000Y-8691699D01*
X+236000Y-8856699D02*
X+236000Y-8756699D01*
X+186000Y-8806699D02*
X+286000Y-8806699D01*
D161*
X+96500Y-8841574D02*
X+96500Y-8771824D01*
X+154625Y-8771824D01*
X+166250Y-8783449D01*
X+166250Y-8795074D01*
X+154625Y-8806699D01*
X+96500Y-8806699D01*
X+154625Y-8806699D02*
X+166250Y-8818324D01*
X+166250Y-8841574D01*
X+212750Y-8795074D02*
X+236000Y-8771824D01*
X+236000Y-8841574D01*
X+352250Y-8818324D02*
X+282500Y-8818324D01*
X+329000Y-8771824D01*
X+329000Y-8841574D01*
D160*
X+6000Y-8667699D02*
X+466000Y-8667699D01*
X+466000Y-8437699D01*
X+6000Y-8437699D01*
X+6000Y-8667699D01*
X+236000Y-8502699D02*
X+236000Y-8602699D01*
X+286000Y-8552699D02*
X+186000Y-8552699D01*
D161*
X+96500Y-8587574D02*
X+96500Y-8517824D01*
X+154625Y-8517824D01*
X+166250Y-8529449D01*
X+166250Y-8541074D01*
X+154625Y-8552699D01*
X+96500Y-8552699D01*
X+154625Y-8552699D02*
X+166250Y-8564324D01*
X+166250Y-8587574D01*
X+259250Y-8517824D02*
X+201125Y-8517824D01*
X+201125Y-8541074D01*
X+247625Y-8541074D01*
X+259250Y-8552699D01*
X+259250Y-8575949D01*
X+247625Y-8587574D01*
X+212750Y-8587574D01*
X+201125Y-8575949D01*
X+352250Y-8517824D02*
X+294125Y-8517824D01*
X+294125Y-8541074D01*
X+340625Y-8541074D01*
X+352250Y-8552699D01*
X+352250Y-8575949D01*
X+340625Y-8587574D01*
X+305750Y-8587574D01*
X+294125Y-8575949D01*
D160*
X+69500Y-7969199D02*
X+529500Y-7969199D01*
X+529500Y-7739199D01*
X+69500Y-7739199D01*
X+69500Y-7969199D01*
X+299500Y-7804199D02*
X+299500Y-7904199D01*
X+349500Y-7854199D02*
X+249500Y-7854199D01*
D161*
X+160000Y-7889074D02*
X+160000Y-7819324D01*
X+218125Y-7819324D01*
X+229750Y-7830949D01*
X+229750Y-7842574D01*
X+218125Y-7854199D01*
X+160000Y-7854199D01*
X+218125Y-7854199D02*
X+229750Y-7865824D01*
X+229750Y-7889074D01*
X+322750Y-7819324D02*
X+264625Y-7819324D01*
X+264625Y-7842574D01*
X+311125Y-7842574D01*
X+322750Y-7854199D01*
X+322750Y-7877449D01*
X+311125Y-7889074D01*
X+276250Y-7889074D01*
X+264625Y-7877449D01*
X+415750Y-7830949D02*
X+404125Y-7819324D01*
X+369250Y-7819324D01*
X+357625Y-7830949D01*
X+357625Y-7877449D01*
X+369250Y-7889074D01*
X+404125Y-7889074D01*
X+415750Y-7877449D01*
X+415750Y-7865824D01*
X+404125Y-7854199D01*
X+357625Y-7854199D01*
D160*
X-481680Y-7905699D02*
X-21680Y-7905699D01*
X-21680Y-7675699D01*
X-481680Y-7675699D01*
X-481680Y-7905699D01*
X-251680Y-7740699D02*
X-251680Y-7840699D01*
X-201680Y-7790699D02*
X-301680Y-7790699D01*
D161*
X-391180Y-7825574D02*
X-391180Y-7755824D01*
X-333055Y-7755824D01*
X-321430Y-7767449D01*
X-321430Y-7779074D01*
X-333055Y-7790699D01*
X-391180Y-7790699D01*
X-333055Y-7790699D02*
X-321430Y-7802324D01*
X-321430Y-7825574D01*
X-228430Y-7755824D02*
X-286555Y-7755824D01*
X-286555Y-7779074D01*
X-240055Y-7779074D01*
X-228430Y-7790699D01*
X-228430Y-7813949D01*
X-240055Y-7825574D01*
X-274930Y-7825574D01*
X-286555Y-7813949D01*
X-193555Y-7755824D02*
X-135430Y-7755824D01*
X-135430Y-7767449D01*
X-193555Y-7825574D01*
D160*
X-502000Y-8667699D02*
X-42000Y-8667699D01*
X-42000Y-8437699D01*
X-502000Y-8437699D01*
X-502000Y-8667699D01*
X-272000Y-8502699D02*
X-272000Y-8602699D01*
X-222000Y-8552699D02*
X-322000Y-8552699D01*
D161*
X-411500Y-8587574D02*
X-411500Y-8517824D01*
X-353375Y-8517824D01*
X-341750Y-8529449D01*
X-341750Y-8541074D01*
X-353375Y-8552699D01*
X-411500Y-8552699D01*
X-353375Y-8552699D02*
X-341750Y-8564324D01*
X-341750Y-8587574D01*
X-248750Y-8517824D02*
X-306875Y-8517824D01*
X-306875Y-8541074D01*
X-260375Y-8541074D01*
X-248750Y-8552699D01*
X-248750Y-8575949D01*
X-260375Y-8587574D01*
X-295250Y-8587574D01*
X-306875Y-8575949D01*
X-202250Y-8552699D02*
X-213875Y-8541074D01*
X-213875Y-8529449D01*
X-202250Y-8517824D01*
X-167375Y-8517824D01*
X-155750Y-8529449D01*
X-155750Y-8541074D01*
X-167375Y-8552699D01*
X-202250Y-8552699D01*
X-213875Y-8564324D01*
X-213875Y-8575949D01*
X-202250Y-8587574D01*
X-167375Y-8587574D01*
X-155750Y-8575949D01*
X-155750Y-8564324D01*
X-167375Y-8552699D01*
D160*
X-42000Y-8183699D02*
X-502000Y-8183699D01*
X-502000Y-8413699D01*
X-42000Y-8413699D01*
X-42000Y-8183699D01*
X-272000Y-8348699D02*
X-272000Y-8248699D01*
X-322000Y-8298699D02*
X-222000Y-8298699D01*
D161*
X-411500Y-8333574D02*
X-411500Y-8263824D01*
X-353375Y-8263824D01*
X-341750Y-8275449D01*
X-341750Y-8287074D01*
X-353375Y-8298699D01*
X-411500Y-8298699D01*
X-353375Y-8298699D02*
X-341750Y-8310324D01*
X-341750Y-8333574D01*
X-248750Y-8263824D02*
X-306875Y-8263824D01*
X-306875Y-8287074D01*
X-260375Y-8287074D01*
X-248750Y-8298699D01*
X-248750Y-8321949D01*
X-260375Y-8333574D01*
X-295250Y-8333574D01*
X-306875Y-8321949D01*
X-155750Y-8287074D02*
X-167375Y-8298699D01*
X-202250Y-8298699D01*
X-213875Y-8287074D01*
X-213875Y-8275449D01*
X-202250Y-8263824D01*
X-167375Y-8263824D01*
X-155750Y-8275449D01*
X-155750Y-8321949D01*
X-167375Y-8333574D01*
X-202250Y-8333574D01*
D65*
X-490220Y-5727750D02*
X-779780Y-5727750D01*
X-779780Y-6318250D01*
X-490220Y-6318250D01*
X-490220Y-5727750D01*
X-779780Y-5727750D01*
X-779780Y-6318250D01*
X-490220Y-6318250D01*
X-490220Y-5727750D01*
D185*
X-580136Y-6169304D02*
X-689864Y-6169304D01*
X-689864Y-6077864D01*
X-671576Y-6059576D01*
X-653288Y-6059576D01*
X-635000Y-6077864D01*
X-635000Y-6169304D01*
X-580136Y-6023000D02*
X-653288Y-6023000D01*
X-689864Y-5986424D01*
X-689864Y-5949848D01*
X-653288Y-5913272D01*
X-580136Y-5913272D01*
X-616712Y-6023000D02*
X-616712Y-5913272D01*
D65*
X-490220Y-6499250D02*
X-779780Y-6499250D01*
X-779780Y-7089750D01*
X-490220Y-7089750D01*
X-490220Y-6499250D01*
X-779780Y-6499250D01*
X-779780Y-7089750D01*
X-490220Y-7089750D01*
X-490220Y-6499250D01*
D178*
X-665287Y-6961079D02*
X-680431Y-6945935D01*
X-680431Y-6900505D01*
X-665287Y-6885361D01*
X-650144Y-6885361D01*
X-635000Y-6900505D01*
X-619857Y-6885361D01*
X-604713Y-6885361D01*
X-589570Y-6900505D01*
X-589570Y-6945935D01*
X-604713Y-6961079D01*
X-635000Y-6930792D02*
X-635000Y-6900505D01*
X-680431Y-6855074D02*
X-635000Y-6855074D01*
X-589570Y-6809644D01*
X-635000Y-6764213D01*
X-680431Y-6764213D01*
X-665287Y-6718783D02*
X-680431Y-6703639D01*
X-680431Y-6658209D01*
X-665287Y-6643065D01*
X-650144Y-6643065D01*
X-635000Y-6658209D01*
X-619857Y-6643065D01*
X-604713Y-6643065D01*
X-589570Y-6658209D01*
X-589570Y-6703639D01*
X-604713Y-6718783D01*
X-635000Y-6688496D02*
X-635000Y-6658209D01*
D61*
X+53340Y-7663699D02*
X+1089660Y-7663699D01*
X+1089660Y-6393699D01*
X+53340Y-6393699D01*
X+53340Y-7663699D01*
D157*
X+476250Y-7409699D02*
X+635000Y-7409699D01*
X+666750Y-7377949D01*
X+666750Y-7250949D01*
X+635000Y-7219199D01*
X+476250Y-7219199D01*
X+539750Y-7092199D02*
X+476250Y-7028699D01*
X+666750Y-7028699D01*
X+508000Y-6869949D02*
X+476250Y-6838199D01*
X+476250Y-6742949D01*
X+508000Y-6711199D01*
X+539750Y-6711199D01*
X+571500Y-6742949D01*
X+603250Y-6711199D01*
X+635000Y-6711199D01*
X+666750Y-6742949D01*
X+666750Y-6838199D01*
X+635000Y-6869949D01*
X+571500Y-6806449D02*
X+571500Y-6742949D01*
D48*
X+9842500Y+2349500D02*
X+9906000Y-9461500D01*
X+9842500Y+2349500D02*
X+9716184Y+2221819D01*
X+9842500Y+2349500D02*
X+9970180Y+2223184D01*
X+9906000Y-9461500D02*
X+10032315Y-9333819D01*
X+9906000Y-9461500D02*
X+9778319Y-9335184D01*
X+9906000Y-3556000D02*
X+9905891Y-3553366D01*
X+9905001Y-3548097D01*
X+9903139Y-3542828D01*
X+9900096Y-3537559D01*
X+9895441Y-3532357D01*
X+9890172Y-3528531D01*
X+9884903Y-3526091D01*
X+9879634Y-3524710D01*
X+9874365Y-3524250D01*
X+9874250Y-3524250D01*
X+9842500Y-3556000D02*
X+9842609Y-3553366D01*
X+9843499Y-3548097D01*
X+9845361Y-3542828D01*
X+9848404Y-3537559D01*
X+9853059Y-3532357D01*
X+9858328Y-3528531D01*
X+9863597Y-3526091D01*
X+9868866Y-3524710D01*
X+9874135Y-3524250D01*
X+9874250Y-3524250D01*
X+9842500Y-3556000D02*
X+9842609Y-3558634D01*
X+9843499Y-3563903D01*
X+9845361Y-3569172D01*
X+9848404Y-3574441D01*
X+9853059Y-3579643D01*
X+9858328Y-3583469D01*
X+9863597Y-3585909D01*
X+9868866Y-3587290D01*
X+9874135Y-3587750D01*
X+9874250Y-3587750D01*
X+9906000Y-3556000D02*
X+9905891Y-3558634D01*
X+9905001Y-3563903D01*
X+9903139Y-3569172D01*
X+9900096Y-3574441D01*
X+9895441Y-3579643D01*
X+9890172Y-3583469D01*
X+9884903Y-3585909D01*
X+9879634Y-3587290D01*
X+9874365Y-3587750D01*
X+9874250Y-3587750D01*
X+9942876Y-3079385D02*
X+9942377Y-2984136D01*
X+10003669Y-3047316D01*
X+9912230Y-3047795D01*
X+9989260Y-3206143D02*
X+10004417Y-3190189D01*
X+10004168Y-3142564D01*
X+9988845Y-3126769D01*
X+9927885Y-3127088D01*
X+9912729Y-3143043D01*
X+9912978Y-3190667D01*
X+9928301Y-3206462D01*
X+9943541Y-3206383D01*
X+9958698Y-3190428D01*
X+9958365Y-3126929D01*
X+10005165Y-3333062D02*
X+10004749Y-3253688D01*
X+9974270Y-3253848D01*
X+9974602Y-3317347D01*
X+9959446Y-3333302D01*
X+9928966Y-3333461D01*
X+9913643Y-3317666D01*
X+9913394Y-3270042D01*
X+9928550Y-3254087D01*
X+9929132Y-3365211D02*
X+9990092Y-3364891D01*
X+10005414Y-3380686D01*
X+10005747Y-3444186D01*
X+9990590Y-3460140D01*
X+9929631Y-3460459D01*
X+9914308Y-3444664D01*
X+9913976Y-3381165D01*
X+9929132Y-3365211D01*
X+9913893Y-3365290D02*
X+10005830Y-3460060D01*
X+9930047Y-3539833D02*
X+9930130Y-3555708D01*
X+9914890Y-3555788D01*
X+9914807Y-3539913D01*
X+9930047Y-3539833D01*
X+9930462Y-3619207D02*
X+9991422Y-3618887D01*
X+10006744Y-3634682D01*
X+10007077Y-3698182D01*
X+9991920Y-3714136D01*
X+9930961Y-3714455D01*
X+9915638Y-3698660D01*
X+9915306Y-3635161D01*
X+9930462Y-3619207D01*
X+9915223Y-3619286D02*
X+10007160Y-3714056D01*
X+10007409Y-3761681D02*
X+10007825Y-3841055D01*
X+9992585Y-3841135D01*
X+9915971Y-3762160D01*
X+10008074Y-3888679D02*
X+9931875Y-3889078D01*
X+9916719Y-3905033D01*
X+9916968Y-3952657D01*
X+9932291Y-3968452D01*
X+9977512Y-3872964D02*
X+9977927Y-3952338D01*
X+9917716Y-4095530D02*
X+9963436Y-4095291D01*
X+9978592Y-4079336D01*
X+9978260Y-4015837D01*
X+9962937Y-4000042D01*
X+10008656Y-3999803D02*
X+9917218Y-4000281D01*
M02*
