G04 PROTEUS GERBER X2 FILE*
%TF.GenerationSoftware,Labcenter,Proteus,8.7-SP3-Build25561*%
%TF.CreationDate,2021-06-23T20:43:36+00:00*%
%TF.FileFunction,Soldermask,Top*%
%TF.FilePolarity,Negative*%
%TF.Part,Single*%
%TF.SameCoordinates,{72a0a031-abb8-4097-8df3-996e39d3871e}*%
%FSLAX45Y45*%
%MOMM*%
G01*
%TA.AperFunction,Material*%
%ADD74C,1.270000*%
%ADD75C,2.032000*%
%ADD76C,1.016000*%
%AMPPAD067*
4,1,36,
-0.457200,1.727200,
0.457200,1.727200,
0.483170,1.724670,
0.507180,1.717400,
0.528780,1.705850,
0.547490,1.690490,
0.562850,1.671770,
0.574400,1.650180,
0.581670,1.626170,
0.584200,1.600200,
0.584200,-1.600200,
0.581670,-1.626170,
0.574400,-1.650180,
0.562850,-1.671770,
0.547490,-1.690490,
0.528780,-1.705850,
0.507180,-1.717400,
0.483170,-1.724670,
0.457200,-1.727200,
-0.457200,-1.727200,
-0.483170,-1.724670,
-0.507180,-1.717400,
-0.528780,-1.705850,
-0.547490,-1.690490,
-0.562850,-1.671770,
-0.574400,-1.650180,
-0.581670,-1.626170,
-0.584200,-1.600200,
-0.584200,1.600200,
-0.581670,1.626170,
-0.574400,1.650180,
-0.562850,1.671770,
-0.547490,1.690490,
-0.528780,1.705850,
-0.507180,1.717400,
-0.483170,1.724670,
-0.457200,1.727200,
0*%
%TA.AperFunction,Material*%
%ADD77PPAD067*%
%AMPPAD068*
4,1,36,
-5.397500,4.203700,
5.397500,4.203700,
5.423470,4.201170,
5.447480,4.193900,
5.469080,4.182350,
5.487790,4.166990,
5.503150,4.148270,
5.514700,4.126680,
5.521970,4.102670,
5.524500,4.076700,
5.524500,-4.076700,
5.521970,-4.102670,
5.514700,-4.126680,
5.503150,-4.148270,
5.487790,-4.166990,
5.469080,-4.182350,
5.447480,-4.193900,
5.423470,-4.201170,
5.397500,-4.203700,
-5.397500,-4.203700,
-5.423470,-4.201170,
-5.447480,-4.193900,
-5.469080,-4.182350,
-5.487790,-4.166990,
-5.503150,-4.148270,
-5.514700,-4.126680,
-5.521970,-4.102670,
-5.524500,-4.076700,
-5.524500,4.076700,
-5.521970,4.102670,
-5.514700,4.126680,
-5.503150,4.148270,
-5.487790,4.166990,
-5.469080,4.182350,
-5.447480,4.193900,
-5.423470,4.201170,
-5.397500,4.203700,
0*%
%ADD78PPAD068*%
%AMPPAD069*
4,1,36,
2.413000,0.825500,
2.413000,-0.825500,
2.410470,-0.851470,
2.403200,-0.875480,
2.391650,-0.897080,
2.376290,-0.915790,
2.357570,-0.931150,
2.335980,-0.942700,
2.311970,-0.949970,
2.286000,-0.952500,
-2.286000,-0.952500,
-2.311970,-0.949970,
-2.335980,-0.942700,
-2.357570,-0.931150,
-2.376290,-0.915790,
-2.391650,-0.897080,
-2.403200,-0.875480,
-2.410470,-0.851470,
-2.413000,-0.825500,
-2.413000,0.825500,
-2.410470,0.851470,
-2.403200,0.875480,
-2.391650,0.897080,
-2.376290,0.915790,
-2.357570,0.931150,
-2.335980,0.942700,
-2.311970,0.949970,
-2.286000,0.952500,
2.286000,0.952500,
2.311970,0.949970,
2.335980,0.942700,
2.357570,0.931150,
2.376290,0.915790,
2.391650,0.897080,
2.403200,0.875480,
2.410470,0.851470,
2.413000,0.825500,
0*%
%TA.AperFunction,Material*%
%ADD79PPAD069*%
%AMPPAD070*
4,1,36,
0.952500,0.825500,
0.952500,-0.825500,
0.949970,-0.851470,
0.942700,-0.875480,
0.931150,-0.897080,
0.915790,-0.915790,
0.897070,-0.931150,
0.875480,-0.942700,
0.851470,-0.949970,
0.825500,-0.952500,
-0.825500,-0.952500,
-0.851470,-0.949970,
-0.875480,-0.942700,
-0.897070,-0.931150,
-0.915790,-0.915790,
-0.931150,-0.897080,
-0.942700,-0.875480,
-0.949970,-0.851470,
-0.952500,-0.825500,
-0.952500,0.825500,
-0.949970,0.851470,
-0.942700,0.875480,
-0.931150,0.897080,
-0.915790,0.915790,
-0.897070,0.931150,
-0.875480,0.942700,
-0.851470,0.949970,
-0.825500,0.952500,
0.825500,0.952500,
0.851470,0.949970,
0.875480,0.942700,
0.897070,0.931150,
0.915790,0.915790,
0.931150,0.897080,
0.942700,0.875480,
0.949970,0.851470,
0.952500,0.825500,
0*%
%ADD80PPAD070*%
%TA.AperFunction,Material*%
%ADD81C,5.334000*%
%AMPPAD072*
4,1,36,
3.492500,-3.619500,
-3.492500,-3.619500,
-3.518470,-3.616970,
-3.542480,-3.609700,
-3.564080,-3.598150,
-3.582790,-3.582790,
-3.598150,-3.564070,
-3.609700,-3.542480,
-3.616970,-3.518470,
-3.619500,-3.492500,
-3.619500,3.492500,
-3.616970,3.518470,
-3.609700,3.542480,
-3.598150,3.564070,
-3.582790,3.582790,
-3.564080,3.598150,
-3.542480,3.609700,
-3.518470,3.616970,
-3.492500,3.619500,
3.492500,3.619500,
3.518470,3.616970,
3.542480,3.609700,
3.564080,3.598150,
3.582790,3.582790,
3.598150,3.564070,
3.609700,3.542480,
3.616970,3.518470,
3.619500,3.492500,
3.619500,-3.492500,
3.616970,-3.518470,
3.609700,-3.542480,
3.598150,-3.564070,
3.582790,-3.582790,
3.564080,-3.598150,
3.542480,-3.609700,
3.518470,-3.616970,
3.492500,-3.619500,
0*%
%TA.AperFunction,Material*%
%ADD82PPAD072*%
%AMPPAD073*
4,1,36,
0.762000,-1.397000,
-0.762000,-1.397000,
-0.787970,-1.394470,
-0.811980,-1.387200,
-0.833580,-1.375650,
-0.852290,-1.360290,
-0.867650,-1.341570,
-0.879200,-1.319980,
-0.886470,-1.295970,
-0.889000,-1.270000,
-0.889000,1.270000,
-0.886470,1.295970,
-0.879200,1.319980,
-0.867650,1.341570,
-0.852290,1.360290,
-0.833580,1.375650,
-0.811980,1.387200,
-0.787970,1.394470,
-0.762000,1.397000,
0.762000,1.397000,
0.787970,1.394470,
0.811980,1.387200,
0.833580,1.375650,
0.852290,1.360290,
0.867650,1.341570,
0.879200,1.319980,
0.886470,1.295970,
0.889000,1.270000,
0.889000,-1.270000,
0.886470,-1.295970,
0.879200,-1.319980,
0.867650,-1.341570,
0.852290,-1.360290,
0.833580,-1.375650,
0.811980,-1.387200,
0.787970,-1.394470,
0.762000,-1.397000,
0*%
%ADD83PPAD073*%
%AMPPAD074*
4,1,36,
-1.016000,2.032000,
1.016000,2.032000,
1.041970,2.029470,
1.065980,2.022200,
1.087580,2.010650,
1.106290,1.995290,
1.121650,1.976570,
1.133200,1.954980,
1.140470,1.930970,
1.143000,1.905000,
1.143000,-1.905000,
1.140470,-1.930970,
1.133200,-1.954980,
1.121650,-1.976570,
1.106290,-1.995290,
1.087580,-2.010650,
1.065980,-2.022200,
1.041970,-2.029470,
1.016000,-2.032000,
-1.016000,-2.032000,
-1.041970,-2.029470,
-1.065980,-2.022200,
-1.087580,-2.010650,
-1.106290,-1.995290,
-1.121650,-1.976570,
-1.133200,-1.954980,
-1.140470,-1.930970,
-1.143000,-1.905000,
-1.143000,1.905000,
-1.140470,1.930970,
-1.133200,1.954980,
-1.121650,1.976570,
-1.106290,1.995290,
-1.087580,2.010650,
-1.065980,2.022200,
-1.041970,2.029470,
-1.016000,2.032000,
0*%
%TA.AperFunction,Material*%
%ADD84PPAD074*%
%AMPPAD075*
4,1,36,
-0.762000,-0.508000,
-0.762000,0.508000,
-0.759470,0.533970,
-0.752200,0.557980,
-0.740650,0.579580,
-0.725290,0.598290,
-0.706570,0.613650,
-0.684980,0.625200,
-0.660970,0.632470,
-0.635000,0.635000,
0.635000,0.635000,
0.660970,0.632470,
0.684980,0.625200,
0.706570,0.613650,
0.725290,0.598290,
0.740650,0.579580,
0.752200,0.557980,
0.759470,0.533970,
0.762000,0.508000,
0.762000,-0.508000,
0.759470,-0.533970,
0.752200,-0.557980,
0.740650,-0.579580,
0.725290,-0.598290,
0.706570,-0.613650,
0.684980,-0.625200,
0.660970,-0.632470,
0.635000,-0.635000,
-0.635000,-0.635000,
-0.660970,-0.632470,
-0.684980,-0.625200,
-0.706570,-0.613650,
-0.725290,-0.598290,
-0.740650,-0.579580,
-0.752200,-0.557980,
-0.759470,-0.533970,
-0.762000,-0.508000,
0*%
%ADD85PPAD075*%
%AMPPAD076*
4,1,4,
-0.571500,0.901700,
0.571500,0.901700,
0.571500,-0.901700,
-0.571500,-0.901700,
-0.571500,0.901700,
0*%
%ADD86PPAD076*%
%AMPPAD077*
4,1,4,
-0.571500,2.603500,
0.571500,2.603500,
0.571500,-2.603500,
-0.571500,-2.603500,
-0.571500,2.603500,
0*%
%TA.AperFunction,Material*%
%ADD87PPAD077*%
%AMPPAD078*
4,1,4,
-5.372100,-4.775200,
-5.372100,4.775200,
5.372100,4.775200,
5.372100,-4.775200,
-5.372100,-4.775200,
0*%
%ADD88PPAD078*%
%AMPPAD079*
4,1,4,
0.596900,-2.654300,
-0.596900,-2.654300,
-0.596900,2.654300,
0.596900,2.654300,
0.596900,-2.654300,
0*%
%TA.AperFunction,Material*%
%ADD89PPAD079*%
%AMPPAD080*
4,1,36,
-0.889000,-0.444500,
-0.889000,0.444500,
-0.886470,0.470470,
-0.879200,0.494480,
-0.867650,0.516080,
-0.852290,0.534790,
-0.833570,0.550150,
-0.811980,0.561700,
-0.787970,0.568970,
-0.762000,0.571500,
0.762000,0.571500,
0.787970,0.568970,
0.811980,0.561700,
0.833570,0.550150,
0.852290,0.534790,
0.867650,0.516080,
0.879200,0.494480,
0.886470,0.470470,
0.889000,0.444500,
0.889000,-0.444500,
0.886470,-0.470470,
0.879200,-0.494480,
0.867650,-0.516080,
0.852290,-0.534790,
0.833570,-0.550150,
0.811980,-0.561700,
0.787970,-0.568970,
0.762000,-0.571500,
-0.762000,-0.571500,
-0.787970,-0.568970,
-0.811980,-0.561700,
-0.833570,-0.550150,
-0.852290,-0.534790,
-0.867650,-0.516080,
-0.879200,-0.494480,
-0.886470,-0.470470,
-0.889000,-0.444500,
0*%
%ADD90PPAD080*%
%AMPPAD081*
4,1,4,
0.901700,0.571500,
0.901700,-0.571500,
-0.901700,-0.571500,
-0.901700,0.571500,
0.901700,0.571500,
0*%
%ADD91PPAD081*%
%AMPPAD082*
4,1,36,
0.444500,-0.635000,
-0.444500,-0.635000,
-0.470470,-0.632470,
-0.494480,-0.625200,
-0.516080,-0.613650,
-0.534790,-0.598290,
-0.550150,-0.579570,
-0.561700,-0.557980,
-0.568970,-0.533970,
-0.571500,-0.508000,
-0.571500,0.508000,
-0.568970,0.533970,
-0.561700,0.557980,
-0.550150,0.579570,
-0.534790,0.598290,
-0.516080,0.613650,
-0.494480,0.625200,
-0.470470,0.632470,
-0.444500,0.635000,
0.444500,0.635000,
0.470470,0.632470,
0.494480,0.625200,
0.516080,0.613650,
0.534790,0.598290,
0.550150,0.579570,
0.561700,0.557980,
0.568970,0.533970,
0.571500,0.508000,
0.571500,-0.508000,
0.568970,-0.533970,
0.561700,-0.557980,
0.550150,-0.579570,
0.534790,-0.598290,
0.516080,-0.613650,
0.494480,-0.625200,
0.470470,-0.632470,
0.444500,-0.635000,
0*%
%TA.AperFunction,Material*%
%ADD92PPAD082*%
%AMPPAD083*
4,1,36,
0.317500,-1.143000,
-0.317500,-1.143000,
-0.343470,-1.140470,
-0.367480,-1.133200,
-0.389080,-1.121650,
-0.407790,-1.106290,
-0.423150,-1.087570,
-0.434700,-1.065980,
-0.441970,-1.041970,
-0.444500,-1.016000,
-0.444500,1.016000,
-0.441970,1.041970,
-0.434700,1.065980,
-0.423150,1.087570,
-0.407790,1.106290,
-0.389080,1.121650,
-0.367480,1.133200,
-0.343470,1.140470,
-0.317500,1.143000,
0.317500,1.143000,
0.343470,1.140470,
0.367480,1.133200,
0.389080,1.121650,
0.407790,1.106290,
0.423150,1.087570,
0.434700,1.065980,
0.441970,1.041970,
0.444500,1.016000,
0.444500,-1.016000,
0.441970,-1.041970,
0.434700,-1.065980,
0.423150,-1.087570,
0.407790,-1.106290,
0.389080,-1.121650,
0.367480,-1.133200,
0.343470,-1.140470,
0.317500,-1.143000,
0*%
%TA.AperFunction,Material*%
%ADD93PPAD083*%
%AMPPAD084*
4,1,36,
-0.825500,1.651000,
0.825500,1.651000,
0.851470,1.648470,
0.875480,1.641200,
0.897080,1.629650,
0.915790,1.614290,
0.931150,1.595570,
0.942700,1.573980,
0.949970,1.549970,
0.952500,1.524000,
0.952500,-1.524000,
0.949970,-1.549970,
0.942700,-1.573980,
0.931150,-1.595570,
0.915790,-1.614290,
0.897080,-1.629650,
0.875480,-1.641200,
0.851470,-1.648470,
0.825500,-1.651000,
-0.825500,-1.651000,
-0.851470,-1.648470,
-0.875480,-1.641200,
-0.897080,-1.629650,
-0.915790,-1.614290,
-0.931150,-1.595570,
-0.942700,-1.573980,
-0.949970,-1.549970,
-0.952500,-1.524000,
-0.952500,1.524000,
-0.949970,1.549970,
-0.942700,1.573980,
-0.931150,1.595570,
-0.915790,1.614290,
-0.897080,1.629650,
-0.875480,1.641200,
-0.851470,1.648470,
-0.825500,1.651000,
0*%
%TA.AperFunction,Material*%
%ADD94PPAD084*%
%AMPPAD085*
4,1,36,
0.571500,0.317500,
0.571500,-0.317500,
0.568970,-0.343470,
0.561700,-0.367480,
0.550150,-0.389080,
0.534790,-0.407790,
0.516070,-0.423150,
0.494480,-0.434700,
0.470470,-0.441970,
0.444500,-0.444500,
-0.444500,-0.444500,
-0.470470,-0.441970,
-0.494480,-0.434700,
-0.516070,-0.423150,
-0.534790,-0.407790,
-0.550150,-0.389080,
-0.561700,-0.367480,
-0.568970,-0.343470,
-0.571500,-0.317500,
-0.571500,0.317500,
-0.568970,0.343470,
-0.561700,0.367480,
-0.550150,0.389080,
-0.534790,0.407790,
-0.516070,0.423150,
-0.494480,0.434700,
-0.470470,0.441970,
-0.444500,0.444500,
0.444500,0.444500,
0.470470,0.441970,
0.494480,0.434700,
0.516070,0.423150,
0.534790,0.407790,
0.550150,0.389080,
0.561700,0.367480,
0.568970,0.343470,
0.571500,0.317500,
0*%
%ADD95PPAD085*%
%AMPPAD086*
4,1,36,
0.635000,0.444500,
0.635000,-0.444500,
0.632470,-0.470470,
0.625200,-0.494480,
0.613650,-0.516080,
0.598290,-0.534790,
0.579570,-0.550150,
0.557980,-0.561700,
0.533970,-0.568970,
0.508000,-0.571500,
-0.508000,-0.571500,
-0.533970,-0.568970,
-0.557980,-0.561700,
-0.579570,-0.550150,
-0.598290,-0.534790,
-0.613650,-0.516080,
-0.625200,-0.494480,
-0.632470,-0.470470,
-0.635000,-0.444500,
-0.635000,0.444500,
-0.632470,0.470470,
-0.625200,0.494480,
-0.613650,0.516080,
-0.598290,0.534790,
-0.579570,0.550150,
-0.557980,0.561700,
-0.533970,0.568970,
-0.508000,0.571500,
0.508000,0.571500,
0.533970,0.568970,
0.557980,0.561700,
0.579570,0.550150,
0.598290,0.534790,
0.613650,0.516080,
0.625200,0.494480,
0.632470,0.470470,
0.635000,0.444500,
0*%
%TA.AperFunction,Material*%
%ADD96PPAD086*%
%TA.AperFunction,Material*%
%ADD97C,2.286000*%
%TA.AperFunction,Material*%
%ADD98C,1.397000*%
%TA.AperFunction,Material*%
%ADD99C,3.556000*%
%AMPPAD090*
4,1,36,
-0.444500,-0.254000,
-0.444500,0.254000,
-0.441970,0.279970,
-0.434700,0.303980,
-0.423150,0.325580,
-0.407790,0.344290,
-0.389070,0.359650,
-0.367480,0.371200,
-0.343470,0.378470,
-0.317500,0.381000,
0.317500,0.381000,
0.343470,0.378470,
0.367480,0.371200,
0.389070,0.359650,
0.407790,0.344290,
0.423150,0.325580,
0.434700,0.303980,
0.441970,0.279970,
0.444500,0.254000,
0.444500,-0.254000,
0.441970,-0.279970,
0.434700,-0.303980,
0.423150,-0.325580,
0.407790,-0.344290,
0.389070,-0.359650,
0.367480,-0.371200,
0.343470,-0.378470,
0.317500,-0.381000,
-0.317500,-0.381000,
-0.343470,-0.378470,
-0.367480,-0.371200,
-0.389070,-0.359650,
-0.407790,-0.344290,
-0.423150,-0.325580,
-0.434700,-0.303980,
-0.441970,-0.279970,
-0.444500,-0.254000,
0*%
%TA.AperFunction,Material*%
%ADD100PPAD090*%
%AMPPAD091*
4,1,36,
-0.508000,0.889000,
0.508000,0.889000,
0.533970,0.886470,
0.557980,0.879200,
0.579580,0.867650,
0.598290,0.852290,
0.613650,0.833570,
0.625200,0.811980,
0.632470,0.787970,
0.635000,0.762000,
0.635000,-0.762000,
0.632470,-0.787970,
0.625200,-0.811980,
0.613650,-0.833570,
0.598290,-0.852290,
0.579580,-0.867650,
0.557980,-0.879200,
0.533970,-0.886470,
0.508000,-0.889000,
-0.508000,-0.889000,
-0.533970,-0.886470,
-0.557980,-0.879200,
-0.579580,-0.867650,
-0.598290,-0.852290,
-0.613650,-0.833570,
-0.625200,-0.811980,
-0.632470,-0.787970,
-0.635000,-0.762000,
-0.635000,0.762000,
-0.632470,0.787970,
-0.625200,0.811980,
-0.613650,0.833570,
-0.598290,0.852290,
-0.579580,0.867650,
-0.557980,0.879200,
-0.533970,0.886470,
-0.508000,0.889000,
0*%
%TA.AperFunction,Material*%
%ADD101PPAD091*%
%AMPPAD092*
4,1,36,
1.143000,-2.667000,
-1.143000,-2.667000,
-1.168970,-2.664470,
-1.192980,-2.657200,
-1.214580,-2.645650,
-1.233290,-2.630290,
-1.248650,-2.611570,
-1.260200,-2.589980,
-1.267470,-2.565970,
-1.270000,-2.540000,
-1.270000,2.540000,
-1.267470,2.565970,
-1.260200,2.589980,
-1.248650,2.611570,
-1.233290,2.630290,
-1.214580,2.645650,
-1.192980,2.657200,
-1.168970,2.664470,
-1.143000,2.667000,
1.143000,2.667000,
1.168970,2.664470,
1.192980,2.657200,
1.214580,2.645650,
1.233290,2.630290,
1.248650,2.611570,
1.260200,2.589980,
1.267470,2.565970,
1.270000,2.540000,
1.270000,-2.540000,
1.267470,-2.565970,
1.260200,-2.589980,
1.248650,-2.611570,
1.233290,-2.630290,
1.214580,-2.645650,
1.192980,-2.657200,
1.168970,-2.664470,
1.143000,-2.667000,
0*%
%TA.AperFunction,Material*%
%ADD102PPAD092*%
%TA.AperFunction,Material*%
%ADD103C,6.604000*%
%TA.AperFunction,Profile*%
%ADD47C,0.203200*%
%TD.AperFunction*%
D74*
X+3225800Y+1174750D03*
X+3479800Y+1174750D03*
X+5257800Y+1174750D03*
X+5511800Y+1174750D03*
X+5765800Y+1174750D03*
X+7543800Y+1174750D03*
X+7797800Y+1174750D03*
X+3098800Y+1394720D03*
X+3352800Y+1394720D03*
X+4876800Y+1394720D03*
X+5130800Y+1394720D03*
X+5384800Y+1394720D03*
X+5638800Y+1394720D03*
X+7162800Y+1394720D03*
X+7416800Y+1394720D03*
X+7670800Y+1394720D03*
X+4749800Y+1614690D03*
X+5003800Y+1614690D03*
X+5257800Y+1614690D03*
X+5511800Y+1614690D03*
X+5765800Y+1614690D03*
X+7289800Y+1614690D03*
X+7543800Y+1614690D03*
X+7797800Y+1614690D03*
X+4876800Y+1834660D03*
X+5130800Y+1834660D03*
X+5384800Y+1834660D03*
X+5638800Y+1834660D03*
X+7162800Y+1834660D03*
X+7416800Y+1834660D03*
X+7670800Y+1834660D03*
X+4749800Y+2054630D03*
X+5003800Y+2054630D03*
X+5257800Y+2054630D03*
X+5511800Y+2054630D03*
X+5765800Y+2054630D03*
X+7289800Y+2054630D03*
X+7543800Y+2054630D03*
X+7797800Y+2054630D03*
X+5562600Y-1497654D03*
X+5461000Y-1321678D03*
X+5562600Y-1145702D03*
X+5562600Y-793750D03*
X+5765800Y-793750D03*
X+5969000Y-793750D03*
X+6375400Y-793750D03*
X+6578600Y-793750D03*
X+6781800Y-793750D03*
X+6477000Y-617774D03*
X+6680200Y-617774D03*
X+6781800Y-441798D03*
X+5664200Y-265822D03*
X+5867400Y-265822D03*
X+6070600Y-265822D03*
X+6273800Y-265822D03*
X+6477000Y-265822D03*
X+5562600Y-89846D03*
X+5765800Y-89846D03*
X+5969000Y-89846D03*
X+6172200Y-89846D03*
X+6375400Y-89846D03*
X+6781800Y-89846D03*
X+7848600Y-1497654D03*
X+7747000Y-1321678D03*
X+7848600Y-1145702D03*
X+8051800Y-793750D03*
X+8255000Y-793750D03*
X+8661400Y-793750D03*
X+8763000Y-617774D03*
X+7950200Y-265822D03*
X+8153400Y-265822D03*
X+8356600Y-265822D03*
X+8559800Y-265822D03*
X+8763000Y-265822D03*
X+7848600Y-89846D03*
X+8051800Y-89846D03*
X+8255000Y-89846D03*
X+8458200Y-89846D03*
X+8661400Y-89846D03*
X+3213100Y-1497654D03*
X+3111500Y-1321678D03*
X+3213100Y-1145702D03*
X+4127500Y-617774D03*
X+4330700Y-617774D03*
X+3314700Y-265822D03*
X+3517900Y-265822D03*
X+3721100Y-265822D03*
X+3924300Y-265822D03*
X+4127500Y-265822D03*
X+3213100Y-89846D03*
X+3416300Y-89846D03*
X+3619500Y-89846D03*
X+3822700Y-89846D03*
X+4025900Y-89846D03*
X+4432300Y-89846D03*
X+4013200Y+1052310D03*
X+3911600Y+1228286D03*
X+4114800Y+1228286D03*
X+3810000Y+1404262D03*
X+4013200Y+1404262D03*
X+3911600Y+1580238D03*
X+3810000Y+1756214D03*
X+3937000Y+1905000D03*
X+8597900Y+1228286D03*
X+8801100Y+1228286D03*
X+8597900Y+1580238D03*
X+8636000Y+1905000D03*
X+6363969Y+1052310D03*
X+6262369Y+1228286D03*
X+6465569Y+1228286D03*
X+6160769Y+1404262D03*
X+6363969Y+1404262D03*
X+6262369Y+1580238D03*
X+6160769Y+1756214D03*
X+6286500Y+1905000D03*
X+7747000Y-3429000D03*
X+6428649Y-3363510D03*
X+9144000Y-3873500D03*
X+3111500Y-1673630D03*
X+4127500Y-793750D03*
X+4381500Y-793750D03*
X+5003800Y+1174750D03*
X-127000Y-4953000D03*
D75*
X+63500Y-3492500D03*
D74*
X+1870921Y-3983646D03*
X+1599186Y-1195100D03*
X+1472186Y-975130D03*
X+1345186Y-755160D03*
X+1472186Y-535190D03*
X+1345186Y-315220D03*
X+1599186Y-315220D03*
X+1472186Y-95250D03*
X+1345186Y+124720D03*
X+1599186Y+124720D03*
X+1218186Y+784630D03*
X+1599186Y+1004600D03*
X-762000Y-2746780D03*
X-889000Y-2526810D03*
X-381000Y-2526810D03*
X-762000Y-2306840D03*
X-889000Y-2086870D03*
X-381000Y-2086870D03*
X-762000Y-1866900D03*
X-889000Y-1646930D03*
X-889000Y-1206990D03*
X-762000Y-987020D03*
X-889000Y-767050D03*
X-381000Y-327110D03*
X+2844800Y+1394720D03*
X+8305800Y+1257545D03*
X+9067800Y+1257545D03*
X+8305800Y+2137425D03*
X+8559800Y+2137425D03*
X+8813800Y+2137425D03*
D76*
X+5837110Y-3144357D03*
X+5270500Y-3048000D03*
X+3302000Y-5715000D03*
X+7728521Y-5632686D03*
X+5456700Y-7874734D03*
X+5569161Y-5681557D03*
D74*
X+2921000Y+1206500D03*
X+4889500Y+1016000D03*
X+4889500Y+127000D03*
X+2857500Y-762000D03*
X+444500Y-1714500D03*
X+1079500Y-1714500D03*
X+2667000Y-2159000D03*
X+3492500Y-2730500D03*
X+5270500Y-762000D03*
X+9334500Y-127000D03*
X+9334500Y+1270000D03*
X+7556500Y-771119D03*
X+7239000Y+1016000D03*
X+7239000Y+127000D03*
X+7683500Y-1524000D03*
X+5207000Y-1714500D03*
X+6159500Y-2756319D03*
X+6858000Y-2921000D03*
X+7810500Y-2921000D03*
X+8130124Y-2765437D03*
X+9016592Y-2712654D03*
X+5461000Y-2857500D03*
X+5274900Y-3052400D03*
X+4842626Y-3311415D03*
X+6830053Y-3107255D03*
X+4191000Y-3937000D03*
X+4762500Y-4191000D03*
X+3300258Y-3889179D03*
X+1998796Y-2196106D03*
X+257824Y-6055893D03*
X+3300258Y-5713258D03*
X+3492500Y-6096000D03*
X+3621347Y-5992131D03*
X+1114864Y-6895947D03*
X+3041830Y-8368317D03*
X+3796742Y-7221787D03*
X+5108251Y-7477050D03*
X+5275203Y-7507387D03*
X+5651500Y-8318500D03*
X+5897832Y-8584805D03*
X+5847931Y-5496261D03*
X+5384021Y-4535575D03*
X+5253034Y-4755962D03*
X+5461000Y-4826000D03*
X+6286500Y-4572000D03*
X+6604000Y-4572000D03*
X+7519052Y-4519896D03*
X+7874000Y-4508500D03*
X+8636000Y-5334000D03*
X+8445500Y-5334000D03*
X+7930743Y-7773916D03*
X+8128000Y-7683500D03*
X+8264818Y-7429067D03*
X+7548436Y-7708194D03*
X+7630827Y-7859220D03*
X+7744835Y-7957584D03*
X+3810000Y-6159500D03*
X+5842000Y-8064500D03*
X+7493000Y-5270500D03*
X+7366836Y-5371819D03*
X+2148416Y-7711403D03*
X+3811743Y-4009908D03*
X+3810000Y-4318000D03*
X+6667500Y-8763000D03*
X+6214797Y-8425182D03*
X+3619500Y-8064500D03*
X+4445000Y-7937500D03*
X+1219412Y-7660924D03*
X+1270000Y-5842000D03*
X+2730500Y-7302500D03*
X+7001866Y-8138590D03*
X+6535347Y-8548492D03*
X-762000Y-5334000D03*
X+7296770Y-8399453D03*
X+6765489Y-4563361D03*
D76*
X+5670519Y-7606818D03*
D74*
X+8191500Y-4572000D03*
X+7874000Y-5334000D03*
X+7726841Y-5634366D03*
X+7713985Y-6031803D03*
X+5557689Y-7773118D03*
X+2921000Y-1016000D03*
X+5401014Y-1783053D03*
X+635000Y-3378275D03*
X+889000Y-3378275D03*
X+1143000Y-3378275D03*
X+1397000Y-3378275D03*
X+1651000Y-3378275D03*
X+1905000Y-3378275D03*
X+2159000Y-3378275D03*
X+0Y-3158305D03*
X+254000Y-3158305D03*
X+889000Y-2938335D03*
X+1143000Y-2938335D03*
X+1905000Y-2938335D03*
X+0Y-2718365D03*
X+508000Y-2718365D03*
X+1016000Y-2718365D03*
X+1524000Y-2718365D03*
X+1778000Y-2718365D03*
X+381000Y-2498395D03*
X+889000Y-2498395D03*
X+1143000Y-2498395D03*
X+1651000Y-2498395D03*
X+2921000Y-2498395D03*
X+4445000Y-2498395D03*
X+6985000Y-2498395D03*
X+0Y-2278425D03*
X+254000Y-2278425D03*
X+508000Y-2278425D03*
X+1016000Y-2278425D03*
X+1270000Y-2278425D03*
X+1524000Y-2278425D03*
X+1778000Y-2278425D03*
X+2540000Y-2278425D03*
X+2794000Y-2278425D03*
X+6858000Y-2278425D03*
X+889000Y-2058455D03*
X+1651000Y-2058455D03*
X+508000Y-1398545D03*
X+508000Y-958605D03*
X+762000Y-958605D03*
X+381000Y-738635D03*
X+635000Y-738635D03*
X+0Y-518665D03*
X+508000Y-518665D03*
X+762000Y-518665D03*
X+381000Y-298695D03*
X+635000Y-298695D03*
X+0Y-78725D03*
X+508000Y-78725D03*
X+762000Y-78725D03*
X-381000Y+141245D03*
X-127000Y+141245D03*
X+381000Y+141245D03*
X+635000Y+141245D03*
X-508000Y+361215D03*
X-254000Y+361215D03*
X+0Y+361215D03*
X+508000Y+361215D03*
X+762000Y+361215D03*
X-889000Y+581185D03*
X+381000Y+581185D03*
X+635000Y+581185D03*
X+254000Y+801155D03*
X+508000Y+801155D03*
X+762000Y+801155D03*
X-889000Y+1901005D03*
X-762000Y+2120975D03*
X-508000Y+2120975D03*
X-254000Y+2120975D03*
X+0Y+2120975D03*
X+254000Y+2120975D03*
X+508000Y+2120975D03*
X+762000Y+2120975D03*
X+1016000Y+2120975D03*
X+1270000Y+2120975D03*
X+1524000Y+2120975D03*
X+1778000Y+2120975D03*
X+2032000Y+2120975D03*
X+2286000Y+2120975D03*
X+8826500Y-5334000D03*
X+8826500Y-4953000D03*
X+7048500Y-4953000D03*
X+59261Y-7642565D03*
X+1104092Y-7593726D03*
X+4762500Y-5778500D03*
X+5143500Y-5778500D03*
X+4889500Y-6223000D03*
X+4191000Y-6223000D03*
X+1402008Y-6775609D03*
D77*
X+3492500Y-2476500D03*
X+3619500Y-2476500D03*
X+3746500Y-2476500D03*
X+4000500Y-2476500D03*
X+4127500Y-2476500D03*
X+4254500Y-2476500D03*
D78*
X+3873500Y-1397000D03*
D77*
X+5270500Y-508000D03*
X+5397500Y-508000D03*
X+5524500Y-508000D03*
X+5778500Y-508000D03*
X+5905500Y-508000D03*
X+6032500Y-508000D03*
D78*
X+5651500Y+571500D03*
D77*
X+5842000Y-2476500D03*
X+5969000Y-2476500D03*
X+6096000Y-2476500D03*
X+6350000Y-2476500D03*
X+6477000Y-2476500D03*
X+6604000Y-2476500D03*
D78*
X+6223000Y-1397000D03*
D77*
X+7556500Y-508000D03*
X+7683500Y-508000D03*
X+7810500Y-508000D03*
X+8064500Y-508000D03*
X+8191500Y-508000D03*
X+8318500Y-508000D03*
D78*
X+7937500Y+571500D03*
D77*
X+8128000Y-2476500D03*
X+8255000Y-2476500D03*
X+8382000Y-2476500D03*
X+8636000Y-2476500D03*
X+8763000Y-2476500D03*
X+8890000Y-2476500D03*
D78*
X+8509000Y-1397000D03*
D77*
X+2921000Y-508000D03*
X+3048000Y-508000D03*
X+3175000Y-508000D03*
X+3429000Y-508000D03*
X+3556000Y-508000D03*
X+3683000Y-508000D03*
D78*
X+3302000Y+571500D03*
D79*
X+6667500Y+1016000D03*
X+6667500Y+127000D03*
D80*
X+7048500Y+127000D03*
X+7048500Y+1016000D03*
D79*
X+8953500Y+1016000D03*
X+8953500Y+127000D03*
D80*
X+9334500Y+127000D03*
X+9334500Y+1016000D03*
D79*
X+4318000Y+1016000D03*
X+4318000Y+127000D03*
D80*
X+4699000Y+127000D03*
X+4699000Y+1016000D03*
D81*
X+4318000Y+1714500D03*
X+6667500Y+1714500D03*
X+8255000Y+1651000D03*
D82*
X+2184400Y-1389380D03*
D83*
X+2413000Y-698500D03*
X+1955800Y-698500D03*
D82*
X+2159000Y+571500D03*
D83*
X+1930400Y-119380D03*
X+2387600Y-119380D03*
D84*
X+1333500Y-2730500D03*
X+1333500Y-1841500D03*
X+190500Y-2730500D03*
X+190500Y-1841500D03*
D82*
X-546100Y-3309620D03*
D83*
X-774700Y-4000500D03*
X-317500Y-4000500D03*
D85*
X-762000Y-4518000D03*
X-762000Y-4318000D03*
D86*
X-508000Y-4318000D03*
X-218000Y-4318000D03*
D84*
X+444500Y-3111500D03*
X+444500Y-4000500D03*
D87*
X+2453640Y-4000500D03*
X+2623820Y-4000500D03*
X+2794000Y-4000500D03*
X+2964180Y-4000500D03*
X+3134360Y-4000500D03*
D88*
X+2794000Y-3048000D03*
D89*
X+2187500Y-4699000D03*
X+1587500Y-4699000D03*
D90*
X+2469837Y-4946337D03*
X+2469837Y-4606337D03*
D84*
X+1587500Y-3111500D03*
X+1587500Y-4000500D03*
D86*
X-508000Y-4572000D03*
X-208000Y-4572000D03*
D91*
X+2984500Y-4699000D03*
X+2984500Y-4989000D03*
D86*
X+3274500Y-4445000D03*
X+2984500Y-4445000D03*
X+173000Y-1460500D03*
X-127000Y-1460500D03*
X+173000Y-952500D03*
X-127000Y-952500D03*
X+173000Y-1206500D03*
X-127000Y-1206500D03*
D91*
X+381000Y+1778000D03*
X+381000Y+1478000D03*
X+1714500Y+1760500D03*
X+1714500Y+1460500D03*
D86*
X+889000Y-1143000D03*
X+1189000Y-1143000D03*
D81*
X-571500Y+698500D03*
X-571500Y-1333500D03*
D91*
X+2667000Y-698500D03*
X+2667000Y-408500D03*
D86*
X+2286000Y-1968500D03*
X+1996000Y-1968500D03*
D91*
X+2667000Y-1179000D03*
X+2667000Y-889000D03*
D92*
X+2667000Y-1778000D03*
X+2573020Y-1968500D03*
X+2760980Y-1968500D03*
D86*
X+1887500Y-5207000D03*
X+1587500Y-5207000D03*
D91*
X+6032500Y-2948500D03*
X+6032500Y-3238500D03*
X+5651500Y-2948500D03*
X+5651500Y-3238500D03*
D93*
X+5588000Y-4013200D03*
X+5715000Y-4013200D03*
X+5842000Y-4013200D03*
X+5969000Y-4013200D03*
X+5969000Y-3492500D03*
X+5842000Y-3492500D03*
X+5715000Y-3492500D03*
X+5588000Y-3492500D03*
X+6985000Y-4013200D03*
X+7112000Y-4013200D03*
X+7239000Y-4013200D03*
X+7366000Y-4013200D03*
X+7366000Y-3492500D03*
X+7239000Y-3492500D03*
X+7112000Y-3492500D03*
X+6985000Y-3492500D03*
X+8382000Y-4013200D03*
X+8509000Y-4013200D03*
X+8636000Y-4013200D03*
X+8763000Y-4013200D03*
X+8763000Y-3492500D03*
X+8636000Y-3492500D03*
X+8509000Y-3492500D03*
X+8382000Y-3492500D03*
D91*
X+7048500Y-2948500D03*
X+7048500Y-3238500D03*
D94*
X+5207000Y-3492500D03*
X+5207000Y-3873500D03*
X+6604000Y-3492500D03*
X+6604000Y-3873500D03*
X+8001000Y-3492500D03*
X+8001000Y-3873500D03*
D95*
X+4953000Y-4381500D03*
X+4953000Y-4146550D03*
X+6350000Y-4362450D03*
X+6350000Y-4127500D03*
X+7778750Y-4330700D03*
X+7778750Y-4095750D03*
D91*
X+6159500Y-3619500D03*
X+6159500Y-3919500D03*
X+7556500Y-3619500D03*
X+7556500Y-3919500D03*
X+8953500Y-3619500D03*
X+8953500Y-3919500D03*
X+7429500Y-2948500D03*
X+7429500Y-3238500D03*
X+8445500Y-2948500D03*
X+8445500Y-3238500D03*
X+8826500Y-2948500D03*
X+8826500Y-3238500D03*
X+8445500Y-4254500D03*
X+8445500Y-4544500D03*
X+8699500Y-4254500D03*
X+8699500Y-4544500D03*
X+7048500Y-4254500D03*
X+7048500Y-4544500D03*
X+7302500Y-4254500D03*
X+7302500Y-4544500D03*
X+5651500Y-4254500D03*
X+5651500Y-4544500D03*
X+5905500Y-4254500D03*
X+5905500Y-4544500D03*
X+5016500Y-698500D03*
X+5016500Y-988500D03*
X+4762500Y-218000D03*
X+4762500Y-508000D03*
X+5016500Y-1714500D03*
X+5016500Y-2004500D03*
X+4762500Y-1206500D03*
X+4762500Y-1496500D03*
X+5016500Y-208000D03*
X+5016500Y-508000D03*
X+4762500Y-698500D03*
X+4762500Y-998500D03*
X+5016500Y-1206500D03*
X+5016500Y-1506500D03*
X+4762500Y-1714500D03*
X+4762500Y-2014500D03*
X+7366000Y-190500D03*
X+7366000Y-490500D03*
X+7112000Y-698500D03*
X+7112000Y-998500D03*
X+7366000Y-1206500D03*
X+7366000Y-1506500D03*
X+7112000Y-1714500D03*
X+7112000Y-2014500D03*
X+7366000Y-698500D03*
X+7366000Y-988500D03*
X+7112000Y-190500D03*
X+7112000Y-480500D03*
X+7366000Y-1714500D03*
X+7366000Y-2004500D03*
X+7112000Y-1206500D03*
X+7112000Y-1496500D03*
D92*
X+3522980Y-3619500D03*
X+3429000Y-3810000D03*
X+3616960Y-3810000D03*
X+4094480Y-3619500D03*
X+4000500Y-3810000D03*
X+4188460Y-3810000D03*
D96*
X+4445000Y-4160520D03*
X+4635500Y-4254500D03*
X+4635500Y-4066540D03*
D95*
X+3810000Y-3575050D03*
X+3810000Y-3810000D03*
X+3429000Y-3937000D03*
X+3429000Y-4171950D03*
X+4381500Y-3575050D03*
X+4381500Y-3810000D03*
X+4000500Y-3937000D03*
X+4000500Y-4171950D03*
D86*
X+3520000Y-3365500D03*
X+3810000Y-3365500D03*
X+3520000Y-3111500D03*
X+3810000Y-3111500D03*
X+4381500Y-3365500D03*
X+4091500Y-3365500D03*
D91*
X+4635500Y-3075500D03*
X+4635500Y-3365500D03*
X+4635500Y-3873500D03*
X+4635500Y-3573500D03*
D86*
X+4381500Y-3111500D03*
X+4081500Y-3111500D03*
D97*
X+7959290Y-8931710D03*
X+8318500Y-8572500D03*
D86*
X-86347Y-9080500D03*
X+203653Y-9080500D03*
X+1105000Y-8606699D03*
X+815000Y-8606699D03*
D98*
X+2095500Y-8162199D03*
X+2095500Y-8362199D03*
X+1895500Y-8162199D03*
X+1895500Y-8362199D03*
X+1695500Y-8162199D03*
X+1695500Y-8362199D03*
X+1495500Y-8162199D03*
X+1495500Y-8362199D03*
X+1295500Y-8162199D03*
X+1295500Y-8362199D03*
X+1095500Y-8162199D03*
X+1095500Y-8362199D03*
X+895500Y-8162199D03*
X+895500Y-8362199D03*
D84*
X+1016000Y-5143500D03*
X+1016000Y-4254500D03*
D91*
X+3937000Y-8588699D03*
X+3937000Y-8288699D03*
X-762000Y+63500D03*
X-762000Y-236500D03*
D98*
X+3156000Y-8870199D03*
X+3356000Y-8870199D03*
X+3556000Y-8870199D03*
D86*
X+4790000Y-8588699D03*
X+5080000Y-8588699D03*
D91*
X+4191000Y-8298699D03*
X+4191000Y-8588699D03*
X+4445000Y-8588699D03*
X+4445000Y-8298699D03*
D98*
X+5080000Y-8890000D03*
X+4880000Y-8890000D03*
X+4680000Y-8890000D03*
X+4480000Y-8890000D03*
X+4280000Y-8890000D03*
X+4080000Y-8890000D03*
D81*
X-582734Y-635000D03*
X+1397000Y+508000D03*
D99*
X+1079500Y+1333500D03*
X+1079500Y+1833500D03*
X-317500Y+1333500D03*
X-317500Y+1833500D03*
X+2476500Y+1337500D03*
X+2476500Y+1837500D03*
D100*
X+317500Y-8298699D03*
X+317500Y-8204719D03*
X+317500Y-8108199D03*
X+78740Y-8108199D03*
X+78740Y-8298699D03*
D85*
X-127000Y-7282699D03*
D92*
X-307340Y-7282699D03*
X-307340Y-7465579D03*
X-106680Y-7465579D03*
D91*
X-127000Y-6947699D03*
X-127000Y-6647699D03*
D101*
X-378460Y-8044699D03*
X-63500Y-8044699D03*
D86*
X+381000Y-8806699D03*
X+91000Y-8806699D03*
X+91000Y-8552699D03*
X+381000Y-8552699D03*
X+154500Y-7854199D03*
X+444500Y-7854199D03*
X-396680Y-7790699D03*
X-106680Y-7790699D03*
X-417000Y-8552699D03*
X-127000Y-8552699D03*
X-127000Y-8298699D03*
X-417000Y-8298699D03*
D98*
X-635000Y-6223000D03*
X-635000Y-6023000D03*
X-635000Y-5823000D03*
X-635000Y-6994500D03*
X-635000Y-6794500D03*
X-635000Y-6594500D03*
D102*
X+317500Y-7409699D03*
X+317500Y-6647699D03*
X+825500Y-7409699D03*
X+825500Y-6647699D03*
D103*
X+9271000Y+1905000D03*
X+3175000Y+1905000D03*
X+9271000Y-9017000D03*
X-635000Y-9017000D03*
D47*
X-1079500Y-9461500D02*
X+9715500Y-9461500D01*
X+9715500Y+2349500D01*
X-1079500Y+2349500D01*
X-1079500Y-9461500D01*
M02*
