G04 PROTEUS GERBER X2 FILE*
%TF.GenerationSoftware,Labcenter,Proteus,8.7-SP3-Build25561*%
%TF.CreationDate,2021-06-23T20:43:36+00:00*%
%TF.FileFunction,Soldermask,Bot*%
%TF.FilePolarity,Negative*%
%TF.Part,Single*%
%TF.SameCoordinates,{72a0a031-abb8-4097-8df3-996e39d3871e}*%
%FSLAX45Y45*%
%MOMM*%
G01*
%TA.AperFunction,Material*%
%ADD74C,1.270000*%
%ADD75C,2.032000*%
%ADD76C,1.016000*%
%AMPPAD094*
4,1,4,
0.449010,-0.628620,
0.628620,-0.449010,
-0.449010,0.628620,
-0.628620,0.449010,
0.449010,-0.628620,
0*%
%TA.AperFunction,Material*%
%ADD104PPAD094*%
%AMPPAD095*
4,1,4,
0.628620,0.449010,
0.449010,0.628620,
-0.628620,-0.449010,
-0.449010,-0.628620,
0.628620,0.449010,
0*%
%ADD105PPAD095*%
%AMPPAD096*
4,1,4,
0.637600,0.422070,
0.422070,0.637600,
-0.637600,-0.422070,
-0.422070,-0.637600,
0.637600,0.422070,
0*%
%ADD106PPAD096*%
%AMPPAD097*
4,1,4,
0.422070,-0.637600,
0.637600,-0.422070,
-0.422070,0.637600,
-0.637600,0.422070,
0.422070,-0.637600,
0*%
%ADD107PPAD097*%
%ADD108C,3.000000*%
%AMPPAD099*
4,1,36,
-0.254000,-0.444500,
0.254000,-0.444500,
0.279970,-0.441970,
0.303980,-0.434700,
0.325580,-0.423150,
0.344290,-0.407790,
0.359650,-0.389070,
0.371200,-0.367480,
0.378470,-0.343470,
0.381000,-0.317500,
0.381000,0.317500,
0.378470,0.343470,
0.371200,0.367480,
0.359650,0.389070,
0.344290,0.407790,
0.325580,0.423150,
0.303980,0.434700,
0.279970,0.441970,
0.254000,0.444500,
-0.254000,0.444500,
-0.279970,0.441970,
-0.303980,0.434700,
-0.325580,0.423150,
-0.344290,0.407790,
-0.359650,0.389070,
-0.371200,0.367480,
-0.378470,0.343470,
-0.381000,0.317500,
-0.381000,-0.317500,
-0.378470,-0.343470,
-0.371200,-0.367480,
-0.359650,-0.389070,
-0.344290,-0.407790,
-0.325580,-0.423150,
-0.303980,-0.434700,
-0.279970,-0.441970,
-0.254000,-0.444500,
0*%
%TA.AperFunction,Material*%
%ADD109PPAD099*%
%TA.AperFunction,Material*%
%ADD81C,5.334000*%
%AMPPAD100*
4,1,4,
-0.901700,0.571500,
-0.901700,-0.571500,
0.901700,-0.571500,
0.901700,0.571500,
-0.901700,0.571500,
0*%
%TA.AperFunction,Material*%
%ADD110PPAD100*%
%AMPPAD101*
4,1,36,
3.492500,3.619500,
-3.492500,3.619500,
-3.518470,3.616970,
-3.542480,3.609700,
-3.564080,3.598150,
-3.582790,3.582790,
-3.598150,3.564070,
-3.609700,3.542480,
-3.616970,3.518470,
-3.619500,3.492500,
-3.619500,-3.492500,
-3.616970,-3.518470,
-3.609700,-3.542480,
-3.598150,-3.564070,
-3.582790,-3.582790,
-3.564080,-3.598150,
-3.542480,-3.609700,
-3.518470,-3.616970,
-3.492500,-3.619500,
3.492500,-3.619500,
3.518470,-3.616970,
3.542480,-3.609700,
3.564080,-3.598150,
3.582790,-3.582790,
3.598150,-3.564070,
3.609700,-3.542480,
3.616970,-3.518470,
3.619500,-3.492500,
3.619500,3.492500,
3.616970,3.518470,
3.609700,3.542480,
3.598150,3.564070,
3.582790,3.582790,
3.564080,3.598150,
3.542480,3.609700,
3.518470,3.616970,
3.492500,3.619500,
0*%
%TA.AperFunction,Material*%
%ADD111PPAD101*%
%AMPPAD102*
4,1,36,
0.762000,1.397000,
-0.762000,1.397000,
-0.787970,1.394470,
-0.811980,1.387200,
-0.833580,1.375650,
-0.852290,1.360290,
-0.867650,1.341570,
-0.879200,1.319980,
-0.886470,1.295970,
-0.889000,1.270000,
-0.889000,-1.270000,
-0.886470,-1.295970,
-0.879200,-1.319980,
-0.867650,-1.341570,
-0.852290,-1.360290,
-0.833580,-1.375650,
-0.811980,-1.387200,
-0.787970,-1.394470,
-0.762000,-1.397000,
0.762000,-1.397000,
0.787970,-1.394470,
0.811980,-1.387200,
0.833580,-1.375650,
0.852290,-1.360290,
0.867650,-1.341570,
0.879200,-1.319980,
0.886470,-1.295970,
0.889000,-1.270000,
0.889000,1.270000,
0.886470,1.295970,
0.879200,1.319980,
0.867650,1.341570,
0.852290,1.360290,
0.833580,1.375650,
0.811980,1.387200,
0.787970,1.394470,
0.762000,1.397000,
0*%
%ADD112PPAD102*%
%AMPPAD103*
4,1,4,
0.571500,0.901700,
-0.571500,0.901700,
-0.571500,-0.901700,
0.571500,-0.901700,
0.571500,0.901700,
0*%
%TA.AperFunction,Material*%
%ADD113PPAD103*%
%AMPPAD104*
4,1,36,
0.901700,-0.025400,
0.901700,0.025400,
0.898160,0.061750,
0.887980,0.095370,
0.871810,0.125600,
0.850300,0.151800,
0.824110,0.173310,
0.793870,0.189480,
0.760250,0.199660,
0.723900,0.203200,
-0.723900,0.203200,
-0.760250,0.199660,
-0.793870,0.189480,
-0.824110,0.173310,
-0.850300,0.151800,
-0.871810,0.125600,
-0.887980,0.095370,
-0.898160,0.061750,
-0.901700,0.025400,
-0.901700,-0.025400,
-0.898160,-0.061750,
-0.887980,-0.095370,
-0.871810,-0.125600,
-0.850300,-0.151800,
-0.824110,-0.173310,
-0.793870,-0.189480,
-0.760250,-0.199660,
-0.723900,-0.203200,
0.723900,-0.203200,
0.760250,-0.199660,
0.793870,-0.189480,
0.824110,-0.173310,
0.850300,-0.151800,
0.871810,-0.125600,
0.887980,-0.095370,
0.898160,-0.061750,
0.901700,-0.025400,
0*%
%TA.AperFunction,Material*%
%ADD114PPAD104*%
%AMPPAD105*
4,1,4,
1.371600,-0.495300,
1.371600,0.495300,
-1.371600,0.495300,
-1.371600,-0.495300,
1.371600,-0.495300,
0*%
%TA.AperFunction,Material*%
%ADD115PPAD105*%
%AMPPAD106*
4,1,4,
3.073400,-2.781300,
3.073400,2.781300,
-3.073400,2.781300,
-3.073400,-2.781300,
3.073400,-2.781300,
0*%
%ADD116PPAD106*%
%TA.AperFunction,Material*%
%ADD97C,2.286000*%
%AMPPAD107*
4,1,4,
-1.041710,-0.233490,
-0.233490,-1.041710,
1.041710,0.233490,
0.233490,1.041710,
-1.041710,-0.233490,
0*%
%ADD117PPAD107*%
%AMPPAD108*
4,1,4,
-0.233490,1.041710,
-1.041710,0.233490,
0.233490,-1.041710,
1.041710,-0.233490,
-0.233490,1.041710,
0*%
%ADD118PPAD108*%
%TA.AperFunction,Material*%
%ADD98C,1.397000*%
%AMPPAD109*
4,1,36,
-0.889000,0.508000,
-0.889000,-0.508000,
-0.886470,-0.533970,
-0.879200,-0.557980,
-0.867650,-0.579580,
-0.852290,-0.598290,
-0.833570,-0.613650,
-0.811980,-0.625200,
-0.787970,-0.632470,
-0.762000,-0.635000,
0.762000,-0.635000,
0.787970,-0.632470,
0.811980,-0.625200,
0.833570,-0.613650,
0.852290,-0.598290,
0.867650,-0.579580,
0.879200,-0.557980,
0.886470,-0.533970,
0.889000,-0.508000,
0.889000,0.508000,
0.886470,0.533970,
0.879200,0.557980,
0.867650,0.579580,
0.852290,0.598290,
0.833570,0.613650,
0.811980,0.625200,
0.787970,0.632470,
0.762000,0.635000,
-0.762000,0.635000,
-0.787970,0.632470,
-0.811980,0.625200,
-0.833570,0.613650,
-0.852290,0.598290,
-0.867650,0.579580,
-0.879200,0.557980,
-0.886470,0.533970,
-0.889000,0.508000,
0*%
%TA.AperFunction,Material*%
%ADD119PPAD109*%
%ADD99C,3.556000*%
%TA.AperFunction,Material*%
%ADD103C,6.604000*%
%TA.AperFunction,Profile*%
%ADD47C,0.203200*%
%TD.AperFunction*%
D74*
X+3225800Y+1174750D03*
X+3479800Y+1174750D03*
X+5257800Y+1174750D03*
X+5511800Y+1174750D03*
X+5765800Y+1174750D03*
X+7543800Y+1174750D03*
X+7797800Y+1174750D03*
X+3098800Y+1394720D03*
X+3352800Y+1394720D03*
X+4876800Y+1394720D03*
X+5130800Y+1394720D03*
X+5384800Y+1394720D03*
X+5638800Y+1394720D03*
X+7162800Y+1394720D03*
X+7416800Y+1394720D03*
X+7670800Y+1394720D03*
X+4749800Y+1614690D03*
X+5003800Y+1614690D03*
X+5257800Y+1614690D03*
X+5511800Y+1614690D03*
X+5765800Y+1614690D03*
X+7289800Y+1614690D03*
X+7543800Y+1614690D03*
X+7797800Y+1614690D03*
X+4876800Y+1834660D03*
X+5130800Y+1834660D03*
X+5384800Y+1834660D03*
X+5638800Y+1834660D03*
X+7162800Y+1834660D03*
X+7416800Y+1834660D03*
X+7670800Y+1834660D03*
X+4749800Y+2054630D03*
X+5003800Y+2054630D03*
X+5257800Y+2054630D03*
X+5511800Y+2054630D03*
X+5765800Y+2054630D03*
X+7289800Y+2054630D03*
X+7543800Y+2054630D03*
X+7797800Y+2054630D03*
X+5562600Y-1497654D03*
X+5461000Y-1321678D03*
X+5562600Y-1145702D03*
X+5562600Y-793750D03*
X+5765800Y-793750D03*
X+5969000Y-793750D03*
X+6375400Y-793750D03*
X+6578600Y-793750D03*
X+6781800Y-793750D03*
X+6477000Y-617774D03*
X+6680200Y-617774D03*
X+6781800Y-441798D03*
X+5664200Y-265822D03*
X+5867400Y-265822D03*
X+6070600Y-265822D03*
X+6273800Y-265822D03*
X+6477000Y-265822D03*
X+5562600Y-89846D03*
X+5765800Y-89846D03*
X+5969000Y-89846D03*
X+6172200Y-89846D03*
X+6375400Y-89846D03*
X+6781800Y-89846D03*
X+7848600Y-1497654D03*
X+7747000Y-1321678D03*
X+7848600Y-1145702D03*
X+8051800Y-793750D03*
X+8255000Y-793750D03*
X+8661400Y-793750D03*
X+8763000Y-617774D03*
X+7950200Y-265822D03*
X+8153400Y-265822D03*
X+8356600Y-265822D03*
X+8559800Y-265822D03*
X+8763000Y-265822D03*
X+7848600Y-89846D03*
X+8051800Y-89846D03*
X+8255000Y-89846D03*
X+8458200Y-89846D03*
X+8661400Y-89846D03*
X+3213100Y-1497654D03*
X+3111500Y-1321678D03*
X+3213100Y-1145702D03*
X+4127500Y-617774D03*
X+4330700Y-617774D03*
X+3314700Y-265822D03*
X+3517900Y-265822D03*
X+3721100Y-265822D03*
X+3924300Y-265822D03*
X+4127500Y-265822D03*
X+3213100Y-89846D03*
X+3416300Y-89846D03*
X+3619500Y-89846D03*
X+3822700Y-89846D03*
X+4025900Y-89846D03*
X+4432300Y-89846D03*
X+4013200Y+1052310D03*
X+3911600Y+1228286D03*
X+4114800Y+1228286D03*
X+3810000Y+1404262D03*
X+4013200Y+1404262D03*
X+3911600Y+1580238D03*
X+3810000Y+1756214D03*
X+3937000Y+1905000D03*
X+8597900Y+1228286D03*
X+8801100Y+1228286D03*
X+8597900Y+1580238D03*
X+8636000Y+1905000D03*
X+6363969Y+1052310D03*
X+6262369Y+1228286D03*
X+6465569Y+1228286D03*
X+6160769Y+1404262D03*
X+6363969Y+1404262D03*
X+6262369Y+1580238D03*
X+6160769Y+1756214D03*
X+6286500Y+1905000D03*
X+7747000Y-3429000D03*
X+6428649Y-3363510D03*
X+9144000Y-3873500D03*
X+3111500Y-1673630D03*
X+4127500Y-793750D03*
X+4381500Y-793750D03*
X+5003800Y+1174750D03*
X-127000Y-4953000D03*
D75*
X+63500Y-3492500D03*
D74*
X+1870921Y-3983646D03*
X+1599186Y-1195100D03*
X+1472186Y-975130D03*
X+1345186Y-755160D03*
X+1472186Y-535190D03*
X+1345186Y-315220D03*
X+1599186Y-315220D03*
X+1472186Y-95250D03*
X+1345186Y+124720D03*
X+1599186Y+124720D03*
X+1218186Y+784630D03*
X+1599186Y+1004600D03*
X-762000Y-2746780D03*
X-889000Y-2526810D03*
X-381000Y-2526810D03*
X-762000Y-2306840D03*
X-889000Y-2086870D03*
X-381000Y-2086870D03*
X-762000Y-1866900D03*
X-889000Y-1646930D03*
X-889000Y-1206990D03*
X-762000Y-987020D03*
X-889000Y-767050D03*
X-381000Y-327110D03*
X+2844800Y+1394720D03*
X+8305800Y+1257545D03*
X+9067800Y+1257545D03*
X+8305800Y+2137425D03*
X+8559800Y+2137425D03*
X+8813800Y+2137425D03*
D76*
X+5837110Y-3144357D03*
X+5270500Y-3048000D03*
X+3302000Y-5715000D03*
X+7728521Y-5632686D03*
X+5456700Y-7874734D03*
X+5569161Y-5681557D03*
D74*
X+2921000Y+1206500D03*
X+4889500Y+1016000D03*
X+4889500Y+127000D03*
X+2857500Y-762000D03*
X+444500Y-1714500D03*
X+1079500Y-1714500D03*
X+2667000Y-2159000D03*
X+3492500Y-2730500D03*
X+5270500Y-762000D03*
X+9334500Y-127000D03*
X+9334500Y+1270000D03*
X+7556500Y-771119D03*
X+7239000Y+1016000D03*
X+7239000Y+127000D03*
X+7683500Y-1524000D03*
X+5207000Y-1714500D03*
X+6159500Y-2756319D03*
X+6858000Y-2921000D03*
X+7810500Y-2921000D03*
X+8130124Y-2765437D03*
X+9016592Y-2712654D03*
X+5461000Y-2857500D03*
X+5274900Y-3052400D03*
X+4842626Y-3311415D03*
X+6830053Y-3107255D03*
X+4191000Y-3937000D03*
X+4762500Y-4191000D03*
X+3300258Y-3889179D03*
X+1998796Y-2196106D03*
X+257824Y-6055893D03*
X+3300258Y-5713258D03*
X+3492500Y-6096000D03*
X+3621347Y-5992131D03*
X+1114864Y-6895947D03*
X+3041830Y-8368317D03*
X+3796742Y-7221787D03*
X+5108251Y-7477050D03*
X+5275203Y-7507387D03*
X+5651500Y-8318500D03*
X+5897832Y-8584805D03*
X+5847931Y-5496261D03*
X+5384021Y-4535575D03*
X+5253034Y-4755962D03*
X+5461000Y-4826000D03*
X+6286500Y-4572000D03*
X+6604000Y-4572000D03*
X+7519052Y-4519896D03*
X+7874000Y-4508500D03*
X+8636000Y-5334000D03*
X+8445500Y-5334000D03*
X+7930743Y-7773916D03*
X+8128000Y-7683500D03*
X+8264818Y-7429067D03*
X+7548436Y-7708194D03*
X+7630827Y-7859220D03*
X+7744835Y-7957584D03*
X+3810000Y-6159500D03*
X+5842000Y-8064500D03*
X+7493000Y-5270500D03*
X+7366836Y-5371819D03*
X+2148416Y-7711403D03*
X+3811743Y-4009908D03*
X+3810000Y-4318000D03*
X+6667500Y-8763000D03*
X+6214797Y-8425182D03*
X+3619500Y-8064500D03*
X+4445000Y-7937500D03*
X+1219412Y-7660924D03*
X+1270000Y-5842000D03*
X+2730500Y-7302500D03*
X+7001866Y-8138590D03*
X+6535347Y-8548492D03*
X-762000Y-5334000D03*
X+7296770Y-8399453D03*
X+6765489Y-4563361D03*
D76*
X+5670519Y-7606818D03*
D74*
X+8191500Y-4572000D03*
X+7874000Y-5334000D03*
X+7726841Y-5634366D03*
X+7713985Y-6031803D03*
X+5557689Y-7773118D03*
X+2921000Y-1016000D03*
X+5401014Y-1783053D03*
X+635000Y-3378275D03*
X+889000Y-3378275D03*
X+1143000Y-3378275D03*
X+1397000Y-3378275D03*
X+1651000Y-3378275D03*
X+1905000Y-3378275D03*
X+2159000Y-3378275D03*
X+0Y-3158305D03*
X+254000Y-3158305D03*
X+889000Y-2938335D03*
X+1143000Y-2938335D03*
X+1905000Y-2938335D03*
X+0Y-2718365D03*
X+508000Y-2718365D03*
X+1016000Y-2718365D03*
X+1524000Y-2718365D03*
X+1778000Y-2718365D03*
X+381000Y-2498395D03*
X+889000Y-2498395D03*
X+1143000Y-2498395D03*
X+1651000Y-2498395D03*
X+2921000Y-2498395D03*
X+4445000Y-2498395D03*
X+6985000Y-2498395D03*
X+0Y-2278425D03*
X+254000Y-2278425D03*
X+508000Y-2278425D03*
X+1016000Y-2278425D03*
X+1270000Y-2278425D03*
X+1524000Y-2278425D03*
X+1778000Y-2278425D03*
X+2540000Y-2278425D03*
X+2794000Y-2278425D03*
X+6858000Y-2278425D03*
X+889000Y-2058455D03*
X+1651000Y-2058455D03*
X+508000Y-1398545D03*
X+508000Y-958605D03*
X+762000Y-958605D03*
X+381000Y-738635D03*
X+635000Y-738635D03*
X+0Y-518665D03*
X+508000Y-518665D03*
X+762000Y-518665D03*
X+381000Y-298695D03*
X+635000Y-298695D03*
X+0Y-78725D03*
X+508000Y-78725D03*
X+762000Y-78725D03*
X-381000Y+141245D03*
X-127000Y+141245D03*
X+381000Y+141245D03*
X+635000Y+141245D03*
X-508000Y+361215D03*
X-254000Y+361215D03*
X+0Y+361215D03*
X+508000Y+361215D03*
X+762000Y+361215D03*
X-889000Y+581185D03*
X+381000Y+581185D03*
X+635000Y+581185D03*
X+254000Y+801155D03*
X+508000Y+801155D03*
X+762000Y+801155D03*
X-889000Y+1901005D03*
X-762000Y+2120975D03*
X-508000Y+2120975D03*
X-254000Y+2120975D03*
X+0Y+2120975D03*
X+254000Y+2120975D03*
X+508000Y+2120975D03*
X+762000Y+2120975D03*
X+1016000Y+2120975D03*
X+1270000Y+2120975D03*
X+1524000Y+2120975D03*
X+1778000Y+2120975D03*
X+2032000Y+2120975D03*
X+2286000Y+2120975D03*
X+8826500Y-5334000D03*
X+8826500Y-4953000D03*
X+7048500Y-4953000D03*
X+59261Y-7642565D03*
X+1104092Y-7593726D03*
X+4762500Y-5778500D03*
X+5143500Y-5778500D03*
X+4889500Y-6223000D03*
X+4191000Y-6223000D03*
X+1402008Y-6775609D03*
D104*
X+7979323Y-6859876D03*
X+7943967Y-6895232D03*
X+7908612Y-6930587D03*
X+7873257Y-6965942D03*
X+7837901Y-7001298D03*
X+7802546Y-7036653D03*
X+7767191Y-7072008D03*
X+7731835Y-7107364D03*
X+7696480Y-7142719D03*
X+7661125Y-7178074D03*
X+7625769Y-7213430D03*
X+7590414Y-7248785D03*
X+7555059Y-7284140D03*
X+7519703Y-7319496D03*
X+7484348Y-7354851D03*
X+7448993Y-7390207D03*
X+7413637Y-7425562D03*
X+7378282Y-7460917D03*
X+7342927Y-7496273D03*
X+7307571Y-7531628D03*
X+7272216Y-7566983D03*
X+7236861Y-7602339D03*
X+7201505Y-7637694D03*
X+7166150Y-7673049D03*
X+7130795Y-7708405D03*
X+7095439Y-7743760D03*
X+7060084Y-7779115D03*
X+7024729Y-7814471D03*
X+6989373Y-7849826D03*
X+6954018Y-7885181D03*
X+6918663Y-7920537D03*
X+6883307Y-7955892D03*
X+6847952Y-7991247D03*
X+6812597Y-8026603D03*
X+6777241Y-8061958D03*
X+6741886Y-8097313D03*
D105*
X+6466114Y-8097313D03*
X+6430759Y-8061958D03*
X+6395404Y-8026603D03*
X+6360048Y-7991247D03*
X+6324693Y-7955892D03*
D106*
X+6289338Y-7920537D03*
D105*
X+6253982Y-7885181D03*
X+6218627Y-7849826D03*
X+6183272Y-7814471D03*
X+6147916Y-7779115D03*
X+6112561Y-7743760D03*
X+6077206Y-7708405D03*
X+6041850Y-7673049D03*
X+6006495Y-7637694D03*
X+5971140Y-7602339D03*
X+5935784Y-7566983D03*
X+5900429Y-7531628D03*
X+5865074Y-7496273D03*
X+5829718Y-7460917D03*
X+5794363Y-7425562D03*
X+5759008Y-7390207D03*
X+5723652Y-7354851D03*
X+5688297Y-7319496D03*
X+5652942Y-7284140D03*
X+5617586Y-7248785D03*
X+5582231Y-7213430D03*
X+5546875Y-7178074D03*
X+5511520Y-7142719D03*
X+5476165Y-7107364D03*
X+5440809Y-7072008D03*
X+5405454Y-7036653D03*
X+5370099Y-7001298D03*
X+5334743Y-6965942D03*
X+5299388Y-6930587D03*
X+5264033Y-6895232D03*
X+5228677Y-6859876D03*
D104*
X+5228677Y-6584105D03*
X+5264033Y-6548749D03*
X+5299388Y-6513394D03*
X+5334743Y-6478039D03*
X+5370099Y-6442683D03*
X+5405454Y-6407328D03*
X+5440809Y-6371973D03*
X+5476165Y-6336617D03*
X+5511520Y-6301262D03*
X+5546875Y-6265907D03*
X+5582231Y-6230551D03*
X+5617586Y-6195196D03*
X+5652942Y-6159841D03*
X+5688297Y-6124485D03*
X+5723652Y-6089130D03*
X+5759008Y-6053775D03*
X+5794363Y-6018419D03*
X+5829718Y-5983064D03*
X+5865074Y-5947709D03*
X+5900429Y-5912353D03*
X+5935784Y-5876998D03*
X+5971140Y-5841643D03*
X+6006495Y-5806287D03*
X+6041850Y-5770932D03*
X+6077206Y-5735577D03*
X+6112561Y-5700221D03*
X+6147916Y-5664866D03*
X+6183272Y-5629511D03*
X+6218627Y-5594155D03*
X+6253982Y-5558800D03*
X+6289338Y-5523445D03*
X+6324693Y-5488089D03*
X+6360048Y-5452734D03*
D107*
X+6395404Y-5417379D03*
D104*
X+6430759Y-5382023D03*
X+6466114Y-5346668D03*
D105*
X+6741886Y-5346668D03*
X+6777241Y-5382023D03*
X+6812597Y-5417379D03*
X+6847952Y-5452734D03*
X+6883307Y-5488089D03*
X+6918663Y-5523445D03*
X+6954018Y-5558800D03*
X+6989373Y-5594155D03*
X+7024729Y-5629511D03*
X+7060084Y-5664866D03*
X+7095439Y-5700221D03*
X+7130795Y-5735577D03*
X+7166150Y-5770932D03*
X+7201505Y-5806287D03*
X+7236861Y-5841643D03*
X+7272216Y-5876998D03*
X+7307571Y-5912353D03*
X+7342927Y-5947709D03*
X+7378282Y-5983064D03*
X+7413637Y-6018419D03*
X+7448993Y-6053775D03*
X+7484348Y-6089130D03*
X+7519703Y-6124485D03*
X+7555059Y-6159841D03*
X+7590414Y-6195196D03*
X+7625769Y-6230551D03*
X+7661125Y-6265907D03*
X+7696480Y-6301262D03*
X+7731835Y-6336617D03*
X+7767191Y-6371973D03*
X+7802546Y-6407328D03*
X+7837901Y-6442683D03*
X+7873257Y-6478039D03*
X+7908612Y-6513394D03*
X+7943967Y-6548749D03*
X+7979323Y-6584105D03*
D108*
X+6604000Y-8235199D03*
X+6604000Y-5208782D03*
D109*
X+1206500Y-8763000D03*
X+1300480Y-8763000D03*
X+1397000Y-8763000D03*
X+1397000Y-9001760D03*
X+1206500Y-9001760D03*
X+2349500Y-7584959D03*
X+2255520Y-7584959D03*
X+2159000Y-7584959D03*
X+2159000Y-7346199D03*
X+2349500Y-7346199D03*
X+1524000Y-7584959D03*
X+1430020Y-7584959D03*
X+1333500Y-7584959D03*
X+1333500Y-7346199D03*
X+1524000Y-7346199D03*
D81*
X+4318000Y+1714500D03*
X+6667500Y+1714500D03*
X+8255000Y+1651000D03*
D110*
X+2413000Y-716000D03*
X+2413000Y-1016000D03*
X+2413000Y-218000D03*
X+2413000Y-508000D03*
X+2667000Y-208000D03*
X+2667000Y-508000D03*
X+2667000Y-726000D03*
X+2667000Y-1016000D03*
D111*
X-546100Y-4071620D03*
D112*
X-317500Y-4762500D03*
X-774700Y-4762500D03*
D111*
X+292100Y-4071620D03*
D112*
X+520700Y-4762500D03*
X+63500Y-4762500D03*
D81*
X-571500Y+698500D03*
X-571500Y-1333500D03*
D113*
X-462000Y-5080000D03*
X-762000Y-5080000D03*
D110*
X+825500Y-4762500D03*
X+825500Y-4462500D03*
X+2667000Y-1206500D03*
X+2667000Y-1506500D03*
X+2413000Y-1714500D03*
X+2413000Y-2014500D03*
X+2667000Y-1714500D03*
X+2667000Y-2004500D03*
X+2413000Y-1206500D03*
X+2413000Y-1496500D03*
D114*
X+6259000Y-3273402D03*
X+6259000Y-3338402D03*
X+6259000Y-3403402D03*
X+6259000Y-3468402D03*
X+5829000Y-3468402D03*
X+5829000Y-3403402D03*
X+5829000Y-3338402D03*
X+5829000Y-3273402D03*
X+7486107Y-3273033D03*
X+7486107Y-3338033D03*
X+7486107Y-3403033D03*
X+7486107Y-3468033D03*
X+7056107Y-3468033D03*
X+7056107Y-3403033D03*
X+7056107Y-3338033D03*
X+7056107Y-3273033D03*
X+8735869Y-3274533D03*
X+8735869Y-3339533D03*
X+8735869Y-3404533D03*
X+8735869Y-3469533D03*
X+8305869Y-3469533D03*
X+8305869Y-3404533D03*
X+8305869Y-3339533D03*
X+8305869Y-3274533D03*
D113*
X+6195500Y-2957402D03*
X+5895500Y-2957402D03*
X+7422607Y-2957033D03*
X+7122607Y-2957033D03*
X+8672369Y-2958533D03*
X+8372369Y-2958533D03*
X+6432000Y-3719402D03*
X+6132000Y-3719402D03*
X+7676607Y-3719033D03*
X+7376607Y-3719033D03*
X+8908869Y-3719033D03*
X+8608869Y-3719033D03*
X+6432000Y-3973402D03*
X+6132000Y-3973402D03*
X+5824500Y-4227402D03*
X+5524500Y-4227402D03*
X+5524500Y-3719402D03*
X+5814500Y-3719402D03*
X+6422000Y-4227402D03*
X+6132000Y-4227402D03*
X+5814500Y-3973402D03*
X+5524500Y-3973402D03*
X+6787607Y-3719033D03*
X+7077607Y-3719033D03*
X+7676607Y-3973033D03*
X+7386607Y-3973033D03*
X+7077607Y-3973033D03*
X+6787607Y-3973033D03*
X+8019869Y-3719033D03*
X+8309869Y-3719033D03*
X+8908869Y-3973033D03*
X+8618869Y-3973033D03*
X+8309869Y-3973033D03*
X+8019869Y-3973033D03*
X+7087607Y-4227033D03*
X+6787607Y-4227033D03*
X+7676607Y-4227033D03*
X+7376607Y-4227033D03*
X+8319869Y-4227033D03*
X+8019869Y-4227033D03*
X+8908869Y-4227033D03*
X+8608869Y-4227033D03*
D115*
X+3873500Y-6965199D03*
X+3873500Y-7421199D03*
D116*
X+3203500Y-7193199D03*
D97*
X+7959290Y-8931710D03*
X+8318500Y-8572500D03*
D117*
X+7355263Y-8603473D03*
X+7567395Y-8815605D03*
D118*
X+7948395Y-8053605D03*
X+7736263Y-8265737D03*
D110*
X+698500Y-9017000D03*
X+698500Y-8727000D03*
X+952500Y-9027380D03*
X+952500Y-8737380D03*
X+2413000Y-8425699D03*
X+2413000Y-8135699D03*
X+2540000Y-7346199D03*
X+2540000Y-7636199D03*
D113*
X+1206500Y-7854199D03*
X+1496500Y-7854199D03*
D110*
X+1714500Y-7346199D03*
X+1714500Y-7636199D03*
X+2667000Y-8425699D03*
X+2667000Y-8135699D03*
X+1968500Y-7346199D03*
X+1968500Y-7636199D03*
D98*
X+2095500Y-8162199D03*
X+2095500Y-8362199D03*
X+1895500Y-8162199D03*
X+1895500Y-8362199D03*
X+1695500Y-8162199D03*
X+1695500Y-8362199D03*
X+1495500Y-8162199D03*
X+1495500Y-8362199D03*
X+1295500Y-8162199D03*
X+1295500Y-8362199D03*
X+1095500Y-8162199D03*
X+1095500Y-8362199D03*
X+895500Y-8162199D03*
X+895500Y-8362199D03*
D117*
X+4254500Y-7346199D03*
X+4049439Y-7141138D03*
X+6805395Y-8879105D03*
X+7010456Y-9084166D03*
D110*
X+2667000Y-8616199D03*
X+2667000Y-8906199D03*
D117*
X+7335027Y-9027737D03*
X+7122895Y-8815605D03*
D118*
X+8138895Y-8244105D03*
X+8351027Y-8031973D03*
D110*
X+5715000Y-8653500D03*
X+5715000Y-8953500D03*
D117*
X+4232868Y-6943567D03*
X+4445000Y-7155699D03*
D110*
X+2390022Y-8916199D03*
X+2390022Y-8616199D03*
X+2095500Y-8916199D03*
X+2095500Y-8616199D03*
X+4953000Y-8598699D03*
X+4953000Y-8298699D03*
X+4191000Y-8598698D03*
X+4191000Y-8298699D03*
X+3365500Y-8616199D03*
X+3365500Y-8316199D03*
D113*
X+1697000Y-4254500D03*
X+1397000Y-4254500D03*
D119*
X+8953500Y-6926580D03*
X+8953500Y-7241540D03*
X+9207500Y-6924040D03*
X+9207500Y-7239000D03*
X+9461500Y-6924040D03*
X+9461500Y-7239000D03*
D98*
X+3156000Y-8870199D03*
X+3356000Y-8870199D03*
X+3556000Y-8870199D03*
D118*
X+7962956Y-8420044D03*
X+7757895Y-8625105D03*
X+8064500Y-7282699D03*
X+8269561Y-7077638D03*
D110*
X+5461000Y-8663500D03*
X+5461000Y-8953500D03*
X+4699000Y-8298699D03*
X+4699000Y-8588699D03*
X+4445000Y-8298699D03*
X+4445000Y-8588699D03*
X+3619500Y-8298699D03*
X+3619500Y-8588699D03*
X+8953500Y-6733540D03*
X+8953500Y-6443540D03*
X+9207500Y-6733540D03*
X+9207500Y-6443540D03*
X+9461500Y-6733540D03*
X+9461500Y-6443540D03*
D113*
X+1905000Y-4508500D03*
X+2195000Y-4508500D03*
X+1905000Y-4254500D03*
X+2195000Y-4254500D03*
X+1397000Y-4508500D03*
X+1687000Y-4508500D03*
X+1560000Y-4762500D03*
X+1270000Y-4762500D03*
D110*
X+5207000Y-8298699D03*
X+5207000Y-8588699D03*
X+3937000Y-8298699D03*
X+3937000Y-8588699D03*
X+2476500Y-4544500D03*
X+2476500Y-4254500D03*
D98*
X+5080000Y-8890000D03*
X+4880000Y-8890000D03*
X+4680000Y-8890000D03*
X+4480000Y-8890000D03*
X+4280000Y-8890000D03*
X+4080000Y-8890000D03*
D113*
X+4173500Y-7600199D03*
X+3873500Y-7600199D03*
D81*
X-582734Y-635000D03*
X+1397000Y+508000D03*
D99*
X+1079500Y+1333500D03*
X+1079500Y+1833500D03*
X-317500Y+1333500D03*
X-317500Y+1833500D03*
X+2476500Y+1337500D03*
X+2476500Y+1837500D03*
D98*
X-635000Y-6223000D03*
X-635000Y-6023000D03*
X-635000Y-5823000D03*
X-635000Y-6994500D03*
X-635000Y-6794500D03*
X-635000Y-6594500D03*
D103*
X+9271000Y+1905000D03*
X+3175000Y+1905000D03*
X+9271000Y-9017000D03*
X-635000Y-9017000D03*
D47*
X-1079500Y-9461500D02*
X+9715500Y-9461500D01*
X+9715500Y+2349500D01*
X-1079500Y+2349500D01*
X-1079500Y-9461500D01*
M02*
