G04 PROTEUS GERBER X2 FILE*
%TF.GenerationSoftware,Labcenter,Proteus,8.7-SP3-Build25561*%
%TF.CreationDate,2021-07-11T19:04:18+00:00*%
%TF.FileFunction,Legend,Bot*%
%TF.FilePolarity,Positive*%
%TF.Part,Single*%
%TF.SameCoordinates,{258fd287-c93d-46cd-987c-e4f85f9f1f24}*%
%FSLAX45Y45*%
%MOMM*%
G01*
%TA.AperFunction,Profile*%
%ADD39C,0.203200*%
%TA.AperFunction,Material*%
%ADD49C,0.200000*%
%ADD47C,0.203200*%
%ADD53C,0.250000*%
%ADD54C,0.100000*%
%ADD50C,0.508000*%
%ADD48C,0.101600*%
%TD.AperFunction*%
D39*
X-1079500Y-6413500D02*
X+9715500Y-6413500D01*
X+9715500Y+2730500D01*
X-1079500Y+2730500D01*
X-1079500Y-6413500D01*
D49*
X+2503000Y-811000D02*
X+2503000Y-921000D01*
X+2323000Y-811000D02*
X+2323000Y-921000D01*
X+2503000Y-313000D02*
X+2503000Y-413000D01*
X+2323000Y-313000D02*
X+2323000Y-413000D01*
X+2757000Y-303000D02*
X+2757000Y-413000D01*
X+2577000Y-303000D02*
X+2577000Y-413000D01*
X+2757000Y-821000D02*
X+2757000Y-921000D01*
X+2577000Y-821000D02*
X+2577000Y-921000D01*
D47*
X-235700Y-4597400D02*
X-235700Y-4673600D01*
X-870700Y-4673600D01*
X-870700Y-4597400D01*
X-515100Y-4673600D02*
X-515100Y-4724400D01*
X-591300Y-4724400D01*
X-591300Y-4673600D01*
X-286500Y-4673600D02*
X-286500Y-4749800D01*
X-350000Y-4749800D01*
X-350000Y-4673600D01*
X-819900Y-4673600D02*
X-819900Y-4749800D01*
X-756400Y-4749800D01*
X-756400Y-4673600D02*
X-756400Y-4749800D01*
X+602500Y-4597400D02*
X+602500Y-4673600D01*
X-32500Y-4673600D01*
X-32500Y-4597400D01*
X+323100Y-4673600D02*
X+323100Y-4724400D01*
X+246900Y-4724400D01*
X+246900Y-4673600D01*
X+551700Y-4673600D02*
X+551700Y-4749800D01*
X+488200Y-4749800D01*
X+488200Y-4673600D01*
X+18300Y-4673600D02*
X+18300Y-4749800D01*
X+81800Y-4749800D01*
X+81800Y-4673600D02*
X+81800Y-4749800D01*
D49*
X+78000Y-1550500D02*
X-32000Y-1550500D01*
X+78000Y-1370500D02*
X-32000Y-1370500D01*
X+78000Y-1042500D02*
X-32000Y-1042500D01*
X+78000Y-862500D02*
X-32000Y-862500D01*
X+78000Y-1296500D02*
X-32000Y-1296500D01*
X+78000Y-1116500D02*
X-32000Y-1116500D01*
X+984000Y-1053000D02*
X+1094000Y-1053000D01*
X+984000Y-1233000D02*
X+1094000Y-1233000D01*
X-564100Y-5322400D02*
X-674100Y-5322400D01*
X-564100Y-5142400D02*
X-674100Y-5142400D01*
X+728400Y-4819900D02*
X+728400Y-4709900D01*
X+908400Y-4819900D02*
X+908400Y-4709900D01*
X+2757000Y-1301500D02*
X+2757000Y-1411500D01*
X+2577000Y-1301500D02*
X+2577000Y-1411500D01*
X+2503000Y-1809500D02*
X+2503000Y-1919500D01*
X+2323000Y-1809500D02*
X+2323000Y-1919500D01*
X+2757000Y-1809500D02*
X+2757000Y-1909500D01*
X+2577000Y-1809500D02*
X+2577000Y-1909500D01*
X+2503000Y-1301500D02*
X+2503000Y-1401500D01*
X+2323000Y-1301500D02*
X+2323000Y-1401500D01*
D53*
X+6316500Y-3195902D02*
X+6316457Y-3194863D01*
X+6316105Y-3192784D01*
X+6315368Y-3190705D01*
X+6314164Y-3188626D01*
X+6312323Y-3186576D01*
X+6310244Y-3185073D01*
X+6308165Y-3184116D01*
X+6306086Y-3183577D01*
X+6304007Y-3183402D01*
X+6304000Y-3183402D01*
X+6291500Y-3195902D02*
X+6291543Y-3194863D01*
X+6291895Y-3192784D01*
X+6292632Y-3190705D01*
X+6293836Y-3188626D01*
X+6295677Y-3186576D01*
X+6297756Y-3185073D01*
X+6299835Y-3184116D01*
X+6301914Y-3183577D01*
X+6303993Y-3183402D01*
X+6304000Y-3183402D01*
X+6291500Y-3195902D02*
X+6291543Y-3196941D01*
X+6291895Y-3199020D01*
X+6292632Y-3201099D01*
X+6293836Y-3203178D01*
X+6295677Y-3205228D01*
X+6297756Y-3206731D01*
X+6299835Y-3207688D01*
X+6301914Y-3208227D01*
X+6303993Y-3208402D01*
X+6304000Y-3208402D01*
X+6316500Y-3195902D02*
X+6316457Y-3196941D01*
X+6316105Y-3199020D01*
X+6315368Y-3201099D01*
X+6314164Y-3203178D01*
X+6312323Y-3205228D01*
X+6310244Y-3206731D01*
X+6308165Y-3207688D01*
X+6306086Y-3208227D01*
X+6304007Y-3208402D01*
X+6304000Y-3208402D01*
D49*
X+6154000Y-3525902D02*
X+5934000Y-3525902D01*
X+5934000Y-3215902D01*
X+6154000Y-3215902D01*
X+6154000Y-3525902D01*
D54*
X+6154000Y-3225902D02*
X+6144000Y-3215902D01*
X+6154000Y-3235902D02*
X+6134000Y-3215902D01*
X+6154000Y-3245902D02*
X+6124000Y-3215902D01*
X+6154000Y-3255902D02*
X+6114000Y-3215902D01*
X+6154000Y-3265902D02*
X+6104000Y-3215902D01*
X+6154000Y-3275902D02*
X+6094000Y-3215902D01*
X+6154000Y-3285902D02*
X+6084000Y-3215902D01*
X+6154000Y-3295902D02*
X+6074000Y-3215902D01*
X+6154000Y-3305902D02*
X+6064000Y-3215902D01*
D53*
X+7543607Y-3195533D02*
X+7543564Y-3194494D01*
X+7543212Y-3192415D01*
X+7542475Y-3190336D01*
X+7541271Y-3188257D01*
X+7539430Y-3186207D01*
X+7537351Y-3184704D01*
X+7535272Y-3183747D01*
X+7533193Y-3183208D01*
X+7531114Y-3183033D01*
X+7531107Y-3183033D01*
X+7518607Y-3195533D02*
X+7518650Y-3194494D01*
X+7519002Y-3192415D01*
X+7519739Y-3190336D01*
X+7520943Y-3188257D01*
X+7522784Y-3186207D01*
X+7524863Y-3184704D01*
X+7526942Y-3183747D01*
X+7529021Y-3183208D01*
X+7531100Y-3183033D01*
X+7531107Y-3183033D01*
X+7518607Y-3195533D02*
X+7518650Y-3196572D01*
X+7519002Y-3198651D01*
X+7519739Y-3200730D01*
X+7520943Y-3202809D01*
X+7522784Y-3204859D01*
X+7524863Y-3206362D01*
X+7526942Y-3207319D01*
X+7529021Y-3207858D01*
X+7531100Y-3208033D01*
X+7531107Y-3208033D01*
X+7543607Y-3195533D02*
X+7543564Y-3196572D01*
X+7543212Y-3198651D01*
X+7542475Y-3200730D01*
X+7541271Y-3202809D01*
X+7539430Y-3204859D01*
X+7537351Y-3206362D01*
X+7535272Y-3207319D01*
X+7533193Y-3207858D01*
X+7531114Y-3208033D01*
X+7531107Y-3208033D01*
D49*
X+7381107Y-3525533D02*
X+7161107Y-3525533D01*
X+7161107Y-3215533D01*
X+7381107Y-3215533D01*
X+7381107Y-3525533D01*
D54*
X+7381107Y-3225533D02*
X+7371107Y-3215533D01*
X+7381107Y-3235533D02*
X+7361107Y-3215533D01*
X+7381107Y-3245533D02*
X+7351107Y-3215533D01*
X+7381107Y-3255533D02*
X+7341107Y-3215533D01*
X+7381107Y-3265533D02*
X+7331107Y-3215533D01*
X+7381107Y-3275533D02*
X+7321107Y-3215533D01*
X+7381107Y-3285533D02*
X+7311107Y-3215533D01*
X+7381107Y-3295533D02*
X+7301107Y-3215533D01*
X+7381107Y-3305533D02*
X+7291107Y-3215533D01*
D53*
X+8793369Y-3197033D02*
X+8793326Y-3195994D01*
X+8792974Y-3193915D01*
X+8792237Y-3191836D01*
X+8791033Y-3189757D01*
X+8789192Y-3187707D01*
X+8787113Y-3186204D01*
X+8785034Y-3185247D01*
X+8782955Y-3184708D01*
X+8780876Y-3184533D01*
X+8780869Y-3184533D01*
X+8768369Y-3197033D02*
X+8768412Y-3195994D01*
X+8768764Y-3193915D01*
X+8769501Y-3191836D01*
X+8770705Y-3189757D01*
X+8772546Y-3187707D01*
X+8774625Y-3186204D01*
X+8776704Y-3185247D01*
X+8778783Y-3184708D01*
X+8780862Y-3184533D01*
X+8780869Y-3184533D01*
X+8768369Y-3197033D02*
X+8768412Y-3198072D01*
X+8768764Y-3200151D01*
X+8769501Y-3202230D01*
X+8770705Y-3204309D01*
X+8772546Y-3206359D01*
X+8774625Y-3207862D01*
X+8776704Y-3208819D01*
X+8778783Y-3209358D01*
X+8780862Y-3209533D01*
X+8780869Y-3209533D01*
X+8793369Y-3197033D02*
X+8793326Y-3198072D01*
X+8792974Y-3200151D01*
X+8792237Y-3202230D01*
X+8791033Y-3204309D01*
X+8789192Y-3206359D01*
X+8787113Y-3207862D01*
X+8785034Y-3208819D01*
X+8782955Y-3209358D01*
X+8780876Y-3209533D01*
X+8780869Y-3209533D01*
D49*
X+8630869Y-3527033D02*
X+8410869Y-3527033D01*
X+8410869Y-3217033D01*
X+8630869Y-3217033D01*
X+8630869Y-3527033D01*
D54*
X+8630869Y-3227033D02*
X+8620869Y-3217033D01*
X+8630869Y-3237033D02*
X+8610869Y-3217033D01*
X+8630869Y-3247033D02*
X+8600869Y-3217033D01*
X+8630869Y-3257033D02*
X+8590869Y-3217033D01*
X+8630869Y-3267033D02*
X+8580869Y-3217033D01*
X+8630869Y-3277033D02*
X+8570869Y-3217033D01*
X+8630869Y-3287033D02*
X+8560869Y-3217033D01*
X+8630869Y-3297033D02*
X+8550869Y-3217033D01*
X+8630869Y-3307033D02*
X+8540869Y-3217033D01*
D49*
X+6100500Y-3047402D02*
X+5990500Y-3047402D01*
X+6100500Y-2867402D02*
X+5990500Y-2867402D01*
X+7327607Y-3047033D02*
X+7217607Y-3047033D01*
X+7327607Y-2867033D02*
X+7217607Y-2867033D01*
X+8577369Y-3048533D02*
X+8467369Y-3048533D01*
X+8577369Y-2868533D02*
X+8467369Y-2868533D01*
X+6337000Y-3809402D02*
X+6227000Y-3809402D01*
X+6337000Y-3629402D02*
X+6227000Y-3629402D01*
X+7581607Y-3809033D02*
X+7471607Y-3809033D01*
X+7581607Y-3629033D02*
X+7471607Y-3629033D01*
X+8813869Y-3809033D02*
X+8703869Y-3809033D01*
X+8813869Y-3629033D02*
X+8703869Y-3629033D01*
X+6337000Y-4063402D02*
X+6227000Y-4063402D01*
X+6337000Y-3883402D02*
X+6227000Y-3883402D01*
X+5729500Y-4317402D02*
X+5619500Y-4317402D01*
X+5729500Y-4137402D02*
X+5619500Y-4137402D01*
X+5619500Y-3629402D02*
X+5719500Y-3629402D01*
X+5619500Y-3809402D02*
X+5719500Y-3809402D01*
X+6327000Y-4317402D02*
X+6227000Y-4317402D01*
X+6327000Y-4137402D02*
X+6227000Y-4137402D01*
X+5719500Y-4063402D02*
X+5619500Y-4063402D01*
X+5719500Y-3883402D02*
X+5619500Y-3883402D01*
X+6882607Y-3629033D02*
X+6982607Y-3629033D01*
X+6882607Y-3809033D02*
X+6982607Y-3809033D01*
X+7581607Y-4063033D02*
X+7481607Y-4063033D01*
X+7581607Y-3883033D02*
X+7481607Y-3883033D01*
X+6982607Y-4063033D02*
X+6882607Y-4063033D01*
X+6982607Y-3883033D02*
X+6882607Y-3883033D01*
X+8114869Y-3629033D02*
X+8214869Y-3629033D01*
X+8114869Y-3809033D02*
X+8214869Y-3809033D01*
X+8813869Y-4063033D02*
X+8713869Y-4063033D01*
X+8813869Y-3883033D02*
X+8713869Y-3883033D01*
X+8214869Y-4063033D02*
X+8114869Y-4063033D01*
X+8214869Y-3883033D02*
X+8114869Y-3883033D01*
X+6992607Y-4317033D02*
X+6882607Y-4317033D01*
X+6992607Y-4137033D02*
X+6882607Y-4137033D01*
X+7581607Y-4317033D02*
X+7471607Y-4317033D01*
X+7581607Y-4137033D02*
X+7471607Y-4137033D01*
X+8224869Y-4317033D02*
X+8114869Y-4317033D01*
X+8224869Y-4137033D02*
X+8114869Y-4137033D01*
X+8813869Y-4317033D02*
X+8703869Y-4317033D01*
X+8813869Y-4137033D02*
X+8703869Y-4137033D01*
X+7063000Y-6249500D02*
X+6953000Y-6249500D01*
X+7063000Y-6069500D02*
X+6953000Y-6069500D01*
X+1602000Y-4344500D02*
X+1492000Y-4344500D01*
X+1602000Y-4164500D02*
X+1492000Y-4164500D01*
X-672000Y-31500D02*
X-672000Y-141500D01*
X-852000Y-31500D02*
X-852000Y-141500D01*
D47*
X+718820Y-5979160D02*
X+871220Y-5979160D01*
X+721360Y-5831840D02*
X+871220Y-5831840D01*
X+1046480Y-5829301D02*
X+1046480Y-5920741D01*
X+1109980Y-5920741D01*
X+1141730Y-5890261D01*
X+1141730Y-5859781D01*
X+1109980Y-5829301D01*
X+1046480Y-5829301D01*
X+1189355Y-5905501D02*
X+1205230Y-5920741D01*
X+1252855Y-5920741D01*
X+1268730Y-5905501D01*
X+1268730Y-5890261D01*
X+1252855Y-5875021D01*
X+1205230Y-5875021D01*
X+1189355Y-5859781D01*
X+1189355Y-5829301D01*
X+1268730Y-5829301D01*
D50*
X+9093200Y-5181500D02*
X+9093069Y-5178342D01*
X+9092003Y-5172024D01*
X+9089772Y-5165706D01*
X+9086127Y-5159388D01*
X+9080552Y-5153149D01*
X+9074234Y-5148553D01*
X+9067916Y-5145620D01*
X+9061598Y-5143958D01*
X+9055280Y-5143400D01*
X+9055100Y-5143400D01*
X+9017000Y-5181500D02*
X+9017131Y-5178342D01*
X+9018197Y-5172024D01*
X+9020428Y-5165706D01*
X+9024073Y-5159388D01*
X+9029648Y-5153149D01*
X+9035966Y-5148553D01*
X+9042284Y-5145620D01*
X+9048602Y-5143958D01*
X+9054920Y-5143400D01*
X+9055100Y-5143400D01*
X+9017000Y-5181500D02*
X+9017131Y-5184658D01*
X+9018197Y-5190976D01*
X+9020428Y-5197294D01*
X+9024073Y-5203612D01*
X+9029648Y-5209851D01*
X+9035966Y-5214447D01*
X+9042284Y-5217380D01*
X+9048602Y-5219042D01*
X+9054920Y-5219600D01*
X+9055100Y-5219600D01*
X+9093200Y-5181500D02*
X+9093069Y-5184658D01*
X+9092003Y-5190976D01*
X+9089772Y-5197294D01*
X+9086127Y-5203612D01*
X+9080552Y-5209851D01*
X+9074234Y-5214447D01*
X+9067916Y-5217380D01*
X+9061598Y-5219042D01*
X+9055280Y-5219600D01*
X+9055100Y-5219600D01*
D49*
X+8159500Y-5434500D02*
X+8259500Y-5434500D01*
X+8159500Y-5614500D02*
X+8259500Y-5614500D01*
X+7583000Y-5365500D02*
X+7583000Y-5465500D01*
X+7403000Y-5365500D02*
X+7403000Y-5465500D01*
X+7647500Y-5465500D02*
X+7647500Y-5365500D01*
X+7827500Y-5465500D02*
X+7827500Y-5365500D01*
X+8738416Y-4703216D02*
X+8838416Y-4703216D01*
X+8738416Y-4883216D02*
X+8838416Y-4883216D01*
X+324100Y-5995500D02*
X+224100Y-5995500D01*
X+324100Y-5815500D02*
X+224100Y-5815500D01*
X+2000000Y-4418500D02*
X+2100000Y-4418500D01*
X+2000000Y-4598500D02*
X+2100000Y-4598500D01*
X+2000000Y-4164500D02*
X+2100000Y-4164500D01*
X+2000000Y-4344500D02*
X+2100000Y-4344500D01*
X+1492000Y-4418500D02*
X+1592000Y-4418500D01*
X+1492000Y-4598500D02*
X+1592000Y-4598500D01*
X+1465000Y-4852500D02*
X+1365000Y-4852500D01*
X+1465000Y-4672500D02*
X+1365000Y-4672500D01*
D50*
X+8394600Y-5715000D02*
X+8394469Y-5711842D01*
X+8393403Y-5705524D01*
X+8391172Y-5699206D01*
X+8387527Y-5692888D01*
X+8381952Y-5686649D01*
X+8375634Y-5682053D01*
X+8369316Y-5679120D01*
X+8362998Y-5677458D01*
X+8356680Y-5676900D01*
X+8356500Y-5676900D01*
X+8318400Y-5715000D02*
X+8318531Y-5711842D01*
X+8319597Y-5705524D01*
X+8321828Y-5699206D01*
X+8325473Y-5692888D01*
X+8331048Y-5686649D01*
X+8337366Y-5682053D01*
X+8343684Y-5679120D01*
X+8350002Y-5677458D01*
X+8356320Y-5676900D01*
X+8356500Y-5676900D01*
X+8318400Y-5715000D02*
X+8318531Y-5718158D01*
X+8319597Y-5724476D01*
X+8321828Y-5730794D01*
X+8325473Y-5737112D01*
X+8331048Y-5743351D01*
X+8337366Y-5747947D01*
X+8343684Y-5750880D01*
X+8350002Y-5752542D01*
X+8356320Y-5753100D01*
X+8356500Y-5753100D01*
X+8394600Y-5715000D02*
X+8394469Y-5718158D01*
X+8393403Y-5724476D01*
X+8391172Y-5730794D01*
X+8387527Y-5737112D01*
X+8381952Y-5743351D01*
X+8375634Y-5747947D01*
X+8369316Y-5750880D01*
X+8362998Y-5752542D01*
X+8356680Y-5753100D01*
X+8356500Y-5753100D01*
X+4162600Y-6096000D02*
X+4162469Y-6092842D01*
X+4161403Y-6086524D01*
X+4159172Y-6080206D01*
X+4155527Y-6073888D01*
X+4149952Y-6067649D01*
X+4143634Y-6063053D01*
X+4137316Y-6060120D01*
X+4130998Y-6058458D01*
X+4124680Y-6057900D01*
X+4124500Y-6057900D01*
X+4086400Y-6096000D02*
X+4086531Y-6092842D01*
X+4087597Y-6086524D01*
X+4089828Y-6080206D01*
X+4093473Y-6073888D01*
X+4099048Y-6067649D01*
X+4105366Y-6063053D01*
X+4111684Y-6060120D01*
X+4118002Y-6058458D01*
X+4124320Y-6057900D01*
X+4124500Y-6057900D01*
X+4086400Y-6096000D02*
X+4086531Y-6099158D01*
X+4087597Y-6105476D01*
X+4089828Y-6111794D01*
X+4093473Y-6118112D01*
X+4099048Y-6124351D01*
X+4105366Y-6128947D01*
X+4111684Y-6131880D01*
X+4118002Y-6133542D01*
X+4124320Y-6134100D01*
X+4124500Y-6134100D01*
X+4162600Y-6096000D02*
X+4162469Y-6099158D01*
X+4161403Y-6105476D01*
X+4159172Y-6111794D01*
X+4155527Y-6118112D01*
X+4149952Y-6124351D01*
X+4143634Y-6128947D01*
X+4137316Y-6131880D01*
X+4130998Y-6133542D01*
X+4124680Y-6134100D01*
X+4124500Y-6134100D01*
X+5724600Y-6096000D02*
X+5724469Y-6092842D01*
X+5723403Y-6086524D01*
X+5721172Y-6080206D01*
X+5717527Y-6073888D01*
X+5711952Y-6067649D01*
X+5705634Y-6063053D01*
X+5699316Y-6060120D01*
X+5692998Y-6058458D01*
X+5686680Y-6057900D01*
X+5686500Y-6057900D01*
X+5648400Y-6096000D02*
X+5648531Y-6092842D01*
X+5649597Y-6086524D01*
X+5651828Y-6080206D01*
X+5655473Y-6073888D01*
X+5661048Y-6067649D01*
X+5667366Y-6063053D01*
X+5673684Y-6060120D01*
X+5680002Y-6058458D01*
X+5686320Y-6057900D01*
X+5686500Y-6057900D01*
X+5648400Y-6096000D02*
X+5648531Y-6099158D01*
X+5649597Y-6105476D01*
X+5651828Y-6111794D01*
X+5655473Y-6118112D01*
X+5661048Y-6124351D01*
X+5667366Y-6128947D01*
X+5673684Y-6131880D01*
X+5680002Y-6133542D01*
X+5686320Y-6134100D01*
X+5686500Y-6134100D01*
X+5724600Y-6096000D02*
X+5724469Y-6099158D01*
X+5723403Y-6105476D01*
X+5721172Y-6111794D01*
X+5717527Y-6118112D01*
X+5711952Y-6124351D01*
X+5705634Y-6128947D01*
X+5699316Y-6131880D01*
X+5692998Y-6133542D01*
X+5686680Y-6134100D01*
X+5686500Y-6134100D01*
X+5750100Y-5461000D02*
X+5749969Y-5457842D01*
X+5748903Y-5451524D01*
X+5746672Y-5445206D01*
X+5743027Y-5438888D01*
X+5737452Y-5432649D01*
X+5731134Y-5428053D01*
X+5724816Y-5425120D01*
X+5718498Y-5423458D01*
X+5712180Y-5422900D01*
X+5712000Y-5422900D01*
X+5673900Y-5461000D02*
X+5674031Y-5457842D01*
X+5675097Y-5451524D01*
X+5677328Y-5445206D01*
X+5680973Y-5438888D01*
X+5686548Y-5432649D01*
X+5692866Y-5428053D01*
X+5699184Y-5425120D01*
X+5705502Y-5423458D01*
X+5711820Y-5422900D01*
X+5712000Y-5422900D01*
X+5673900Y-5461000D02*
X+5674031Y-5464158D01*
X+5675097Y-5470476D01*
X+5677328Y-5476794D01*
X+5680973Y-5483112D01*
X+5686548Y-5489351D01*
X+5692866Y-5493947D01*
X+5699184Y-5496880D01*
X+5705502Y-5498542D01*
X+5711820Y-5499100D01*
X+5712000Y-5499100D01*
X+5750100Y-5461000D02*
X+5749969Y-5464158D01*
X+5748903Y-5470476D01*
X+5746672Y-5476794D01*
X+5743027Y-5483112D01*
X+5737452Y-5489351D01*
X+5731134Y-5493947D01*
X+5724816Y-5496880D01*
X+5718498Y-5498542D01*
X+5712180Y-5499100D01*
X+5712000Y-5499100D01*
X+1761085Y-6276892D02*
X+1760954Y-6273734D01*
X+1759888Y-6267416D01*
X+1757657Y-6261098D01*
X+1754012Y-6254780D01*
X+1748437Y-6248541D01*
X+1742119Y-6243945D01*
X+1735801Y-6241012D01*
X+1729483Y-6239350D01*
X+1723165Y-6238792D01*
X+1722985Y-6238792D01*
X+1684885Y-6276892D02*
X+1685016Y-6273734D01*
X+1686082Y-6267416D01*
X+1688313Y-6261098D01*
X+1691958Y-6254780D01*
X+1697533Y-6248541D01*
X+1703851Y-6243945D01*
X+1710169Y-6241012D01*
X+1716487Y-6239350D01*
X+1722805Y-6238792D01*
X+1722985Y-6238792D01*
X+1684885Y-6276892D02*
X+1685016Y-6280050D01*
X+1686082Y-6286368D01*
X+1688313Y-6292686D01*
X+1691958Y-6299004D01*
X+1697533Y-6305243D01*
X+1703851Y-6309839D01*
X+1710169Y-6312772D01*
X+1716487Y-6314434D01*
X+1722805Y-6314992D01*
X+1722985Y-6314992D01*
X+1761085Y-6276892D02*
X+1760954Y-6280050D01*
X+1759888Y-6286368D01*
X+1757657Y-6292686D01*
X+1754012Y-6299004D01*
X+1748437Y-6305243D01*
X+1742119Y-6309839D01*
X+1735801Y-6312772D01*
X+1729483Y-6314434D01*
X+1723165Y-6314992D01*
X+1722985Y-6314992D01*
D49*
X+4139500Y-2089000D02*
X+4169500Y-2089000D01*
X+4139500Y-2229000D02*
X+4169500Y-2229000D01*
D47*
X+4503750Y-2392670D02*
X+4503750Y-2301230D01*
X+4424375Y-2301230D01*
X+4408500Y-2316470D01*
X+4408500Y-2331710D01*
X+4424375Y-2346950D01*
X+4503750Y-2346950D01*
X+4424375Y-2346950D02*
X+4408500Y-2362190D01*
X+4408500Y-2392670D01*
X+4376750Y-2301230D02*
X+4281500Y-2301230D01*
X+4329125Y-2301230D02*
X+4329125Y-2392670D01*
X+4249750Y-2407910D02*
X+4154500Y-2407910D01*
X+4122750Y-2392670D02*
X+4122750Y-2301230D01*
X+4027500Y-2392670D01*
X+4027500Y-2301230D01*
X+3995750Y-2301230D02*
X+3900500Y-2301230D01*
X+3948125Y-2301230D02*
X+3948125Y-2392670D01*
X+3773500Y-2377430D02*
X+3789375Y-2392670D01*
X+3837000Y-2392670D01*
X+3868750Y-2362190D01*
X+3868750Y-2331710D01*
X+3837000Y-2301230D01*
X+3789375Y-2301230D01*
X+3773500Y-2316470D01*
D49*
X+3499358Y-5492074D02*
X+3499358Y-5392074D01*
X+3679358Y-5492074D02*
X+3679358Y-5392074D01*
X+3658700Y-5862900D02*
X+3658700Y-5962900D01*
X+3478700Y-5862900D02*
X+3478700Y-5962900D01*
X+2843700Y-5759700D02*
X+2843700Y-5659700D01*
X+3023700Y-5759700D02*
X+3023700Y-5659700D01*
D47*
X+3185160Y-6004560D02*
X+3185160Y-5915660D01*
X+3296920Y-5897880D02*
X+3296920Y-5826760D01*
X+3185160Y-6004560D02*
X+3276600Y-6004560D01*
X+3279140Y-5715000D02*
X+3185160Y-5715000D01*
X+3185160Y-5801360D01*
D53*
X-577400Y-3322300D02*
X-577443Y-3321261D01*
X-577795Y-3319182D01*
X-578532Y-3317103D01*
X-579736Y-3315024D01*
X-581577Y-3312974D01*
X-583656Y-3311471D01*
X-585735Y-3310514D01*
X-587814Y-3309975D01*
X-589893Y-3309800D01*
X-589900Y-3309800D01*
X-602400Y-3322300D02*
X-602357Y-3321261D01*
X-602005Y-3319182D01*
X-601268Y-3317103D01*
X-600064Y-3315024D01*
X-598223Y-3312974D01*
X-596144Y-3311471D01*
X-594065Y-3310514D01*
X-591986Y-3309975D01*
X-589907Y-3309800D01*
X-589900Y-3309800D01*
X-602400Y-3322300D02*
X-602357Y-3323339D01*
X-602005Y-3325418D01*
X-601268Y-3327497D01*
X-600064Y-3329576D01*
X-598223Y-3331626D01*
X-596144Y-3333129D01*
X-594065Y-3334086D01*
X-591986Y-3334625D01*
X-589907Y-3334800D01*
X-589900Y-3334800D01*
X-577400Y-3322300D02*
X-577443Y-3323339D01*
X-577795Y-3325418D01*
X-578532Y-3327497D01*
X-579736Y-3329576D01*
X-581577Y-3331626D01*
X-583656Y-3333129D01*
X-585735Y-3334086D01*
X-587814Y-3334625D01*
X-589893Y-3334800D01*
X-589900Y-3334800D01*
D49*
X-524900Y-3307300D02*
X-524900Y-3352300D01*
X+35100Y-3352300D01*
X+35100Y-3307300D01*
X-524900Y-3017300D02*
X-524900Y-2972300D01*
X+35100Y-2972300D01*
X+35100Y-3017300D01*
D53*
X-552000Y-2471400D02*
X-552043Y-2470361D01*
X-552395Y-2468282D01*
X-553132Y-2466203D01*
X-554336Y-2464124D01*
X-556177Y-2462074D01*
X-558256Y-2460571D01*
X-560335Y-2459614D01*
X-562414Y-2459075D01*
X-564493Y-2458900D01*
X-564500Y-2458900D01*
X-577000Y-2471400D02*
X-576957Y-2470361D01*
X-576605Y-2468282D01*
X-575868Y-2466203D01*
X-574664Y-2464124D01*
X-572823Y-2462074D01*
X-570744Y-2460571D01*
X-568665Y-2459614D01*
X-566586Y-2459075D01*
X-564507Y-2458900D01*
X-564500Y-2458900D01*
X-577000Y-2471400D02*
X-576957Y-2472439D01*
X-576605Y-2474518D01*
X-575868Y-2476597D01*
X-574664Y-2478676D01*
X-572823Y-2480726D01*
X-570744Y-2482229D01*
X-568665Y-2483186D01*
X-566586Y-2483725D01*
X-564507Y-2483900D01*
X-564500Y-2483900D01*
X-552000Y-2471400D02*
X-552043Y-2472439D01*
X-552395Y-2474518D01*
X-553132Y-2476597D01*
X-554336Y-2478676D01*
X-556177Y-2480726D01*
X-558256Y-2482229D01*
X-560335Y-2483186D01*
X-562414Y-2483725D01*
X-564493Y-2483900D01*
X-564500Y-2483900D01*
D49*
X-499500Y-2456400D02*
X-499500Y-2501400D01*
X+60500Y-2501400D01*
X+60500Y-2456400D01*
X-499500Y-2166400D02*
X-499500Y-2121400D01*
X+60500Y-2121400D01*
X+60500Y-2166400D01*
D53*
X+1277400Y-3795800D02*
X+1277357Y-3794761D01*
X+1277005Y-3792682D01*
X+1276268Y-3790603D01*
X+1275064Y-3788524D01*
X+1273223Y-3786474D01*
X+1271144Y-3784971D01*
X+1269065Y-3784014D01*
X+1266986Y-3783475D01*
X+1264907Y-3783300D01*
X+1264900Y-3783300D01*
X+1252400Y-3795800D02*
X+1252443Y-3794761D01*
X+1252795Y-3792682D01*
X+1253532Y-3790603D01*
X+1254736Y-3788524D01*
X+1256577Y-3786474D01*
X+1258656Y-3784971D01*
X+1260735Y-3784014D01*
X+1262814Y-3783475D01*
X+1264893Y-3783300D01*
X+1264900Y-3783300D01*
X+1252400Y-3795800D02*
X+1252443Y-3796839D01*
X+1252795Y-3798918D01*
X+1253532Y-3800997D01*
X+1254736Y-3803076D01*
X+1256577Y-3805126D01*
X+1258656Y-3806629D01*
X+1260735Y-3807586D01*
X+1262814Y-3808125D01*
X+1264893Y-3808300D01*
X+1264900Y-3808300D01*
X+1277400Y-3795800D02*
X+1277357Y-3796839D01*
X+1277005Y-3798918D01*
X+1276268Y-3800997D01*
X+1275064Y-3803076D01*
X+1273223Y-3805126D01*
X+1271144Y-3806629D01*
X+1269065Y-3807586D01*
X+1266986Y-3808125D01*
X+1264907Y-3808300D01*
X+1264900Y-3808300D01*
D49*
X+1249900Y-3730800D02*
X+1294900Y-3730800D01*
X+1294900Y-3170800D01*
X+1249900Y-3170800D01*
X+959900Y-3730800D02*
X+914900Y-3730800D01*
X+914900Y-3170800D01*
X+959900Y-3170800D01*
X+8426700Y-5131900D02*
X+8326700Y-5131900D01*
X+8426700Y-4951900D02*
X+8326700Y-4951900D01*
D48*
X+3295500Y-5421357D02*
X+3435500Y-5421357D01*
X+3295500Y-5441357D02*
X+3435500Y-5441357D01*
X+3295500Y-5551357D02*
X+3435500Y-5551357D01*
X+3435500Y-5391357D01*
X+3295500Y-5391357D01*
X+3295500Y-5551357D01*
D49*
X+5550709Y-2739804D02*
X+5529496Y-2718591D01*
X+5649704Y-2640809D02*
X+5628491Y-2619596D01*
X+5706998Y-2592893D02*
X+5685785Y-2571680D01*
X+5805993Y-2493898D02*
X+5784780Y-2472685D01*
X+7092800Y-2632800D02*
X+7092800Y-2602800D01*
X+7232800Y-2632800D02*
X+7232800Y-2602800D01*
X+7308700Y-2629600D02*
X+7308700Y-2599600D01*
X+7448700Y-2629600D02*
X+7448700Y-2599600D01*
X+8952800Y-2647800D02*
X+8982800Y-2647800D01*
X+8952800Y-2787800D02*
X+8982800Y-2787800D01*
X+8949600Y-2876400D02*
X+8979600Y-2876400D01*
X+8949600Y-3016400D02*
X+8979600Y-3016400D01*
M02*
