G04 PROTEUS GERBER X2 FILE*
%TF.GenerationSoftware,Labcenter,Proteus,8.7-SP3-Build25561*%
%TF.CreationDate,2021-07-01T20:15:02+00:00*%
%TF.FileFunction,Legend,Top*%
%TF.FilePolarity,Positive*%
%TF.Part,Single*%
%TF.SameCoordinates,{0ff4b75a-929f-468c-805a-ac40d57636d7}*%
%FSLAX45Y45*%
%MOMM*%
G01*
%TA.AperFunction,Profile*%
%ADD39C,0.203200*%
%TA.AperFunction,Material*%
%ADD43C,0.203200*%
%ADD44C,0.101600*%
%ADD45C,0.200000*%
%ADD46C,0.508000*%
%ADD47C,0.152400*%
%ADD48C,0.120000*%
%TD.AperFunction*%
D39*
X-1079500Y-6413500D02*
X+9715500Y-6413500D01*
X+9715500Y+2349500D01*
X-1079500Y+2349500D01*
X-1079500Y-6413500D01*
D43*
X+6413500Y+254000D02*
X+7175500Y+254000D01*
X+7175500Y+889000D01*
X+6413500Y+889000D01*
X+6413500Y+254000D01*
X+6921500Y+762000D02*
X+6921500Y+381000D01*
X+8699500Y+254000D02*
X+9461500Y+254000D01*
X+9461500Y+889000D01*
X+8699500Y+889000D01*
X+8699500Y+254000D01*
X+9207500Y+762000D02*
X+9207500Y+381000D01*
X+4064000Y+254000D02*
X+4826000Y+254000D01*
X+4826000Y+889000D01*
X+4064000Y+889000D01*
X+4064000Y+254000D01*
X+4572000Y+762000D02*
X+4572000Y+381000D01*
X+4445000Y+1714500D02*
X+4444573Y+1724909D01*
X+4441101Y+1745728D01*
X+4433845Y+1766547D01*
X+4422017Y+1787366D01*
X+4403920Y+1808024D01*
X+4383101Y+1823545D01*
X+4362282Y+1833530D01*
X+4341463Y+1839314D01*
X+4320644Y+1841472D01*
X+4318000Y+1841500D01*
X+4191000Y+1714500D02*
X+4191427Y+1724909D01*
X+4194899Y+1745728D01*
X+4202155Y+1766547D01*
X+4213983Y+1787366D01*
X+4232080Y+1808024D01*
X+4252899Y+1823545D01*
X+4273718Y+1833530D01*
X+4294537Y+1839314D01*
X+4315356Y+1841472D01*
X+4318000Y+1841500D01*
X+4191000Y+1714500D02*
X+4191427Y+1704091D01*
X+4194899Y+1683272D01*
X+4202155Y+1662453D01*
X+4213983Y+1641634D01*
X+4232080Y+1620976D01*
X+4252899Y+1605455D01*
X+4273718Y+1595470D01*
X+4294537Y+1589686D01*
X+4315356Y+1587528D01*
X+4318000Y+1587500D01*
X+4445000Y+1714500D02*
X+4444573Y+1704091D01*
X+4441101Y+1683272D01*
X+4433845Y+1662453D01*
X+4422017Y+1641634D01*
X+4403920Y+1620976D01*
X+4383101Y+1605455D01*
X+4362282Y+1595470D01*
X+4341463Y+1589686D01*
X+4320644Y+1587528D01*
X+4318000Y+1587500D01*
X+4381500Y+1714500D02*
X+4381283Y+1719747D01*
X+4379518Y+1730242D01*
X+4375826Y+1740737D01*
X+4369798Y+1751232D01*
X+4360576Y+1761612D01*
X+4350081Y+1769300D01*
X+4339586Y+1774218D01*
X+4329091Y+1777024D01*
X+4318596Y+1777997D01*
X+4318000Y+1778000D01*
X+4254500Y+1714500D02*
X+4254717Y+1719747D01*
X+4256482Y+1730242D01*
X+4260174Y+1740737D01*
X+4266202Y+1751232D01*
X+4275424Y+1761612D01*
X+4285919Y+1769300D01*
X+4296414Y+1774218D01*
X+4306909Y+1777024D01*
X+4317404Y+1777997D01*
X+4318000Y+1778000D01*
X+4254500Y+1714500D02*
X+4254717Y+1709253D01*
X+4256482Y+1698758D01*
X+4260174Y+1688263D01*
X+4266202Y+1677768D01*
X+4275424Y+1667388D01*
X+4285919Y+1659700D01*
X+4296414Y+1654782D01*
X+4306909Y+1651976D01*
X+4317404Y+1651003D01*
X+4318000Y+1651000D01*
X+4381500Y+1714500D02*
X+4381283Y+1709253D01*
X+4379518Y+1698758D01*
X+4375826Y+1688263D01*
X+4369798Y+1677768D01*
X+4360576Y+1667388D01*
X+4350081Y+1659700D01*
X+4339586Y+1654782D01*
X+4329091Y+1651976D01*
X+4318596Y+1651003D01*
X+4318000Y+1651000D01*
X+4127500Y+2009140D02*
X+4127500Y+2100580D01*
X+4206875Y+2100580D01*
X+4222750Y+2085340D01*
X+4222750Y+2070100D01*
X+4206875Y+2054860D01*
X+4127500Y+2054860D01*
X+4254500Y+2009140D02*
X+4254500Y+2100580D01*
X+4349750Y+2100580D02*
X+4349750Y+2009140D01*
X+4254500Y+2054860D02*
X+4349750Y+2054860D01*
X+4413250Y+2070100D02*
X+4445000Y+2100580D01*
X+4445000Y+2009140D01*
X+6794500Y+1714500D02*
X+6794073Y+1724909D01*
X+6790601Y+1745728D01*
X+6783345Y+1766547D01*
X+6771517Y+1787366D01*
X+6753420Y+1808024D01*
X+6732601Y+1823545D01*
X+6711782Y+1833530D01*
X+6690963Y+1839314D01*
X+6670144Y+1841472D01*
X+6667500Y+1841500D01*
X+6540500Y+1714500D02*
X+6540927Y+1724909D01*
X+6544399Y+1745728D01*
X+6551655Y+1766547D01*
X+6563483Y+1787366D01*
X+6581580Y+1808024D01*
X+6602399Y+1823545D01*
X+6623218Y+1833530D01*
X+6644037Y+1839314D01*
X+6664856Y+1841472D01*
X+6667500Y+1841500D01*
X+6540500Y+1714500D02*
X+6540927Y+1704091D01*
X+6544399Y+1683272D01*
X+6551655Y+1662453D01*
X+6563483Y+1641634D01*
X+6581580Y+1620976D01*
X+6602399Y+1605455D01*
X+6623218Y+1595470D01*
X+6644037Y+1589686D01*
X+6664856Y+1587528D01*
X+6667500Y+1587500D01*
X+6794500Y+1714500D02*
X+6794073Y+1704091D01*
X+6790601Y+1683272D01*
X+6783345Y+1662453D01*
X+6771517Y+1641634D01*
X+6753420Y+1620976D01*
X+6732601Y+1605455D01*
X+6711782Y+1595470D01*
X+6690963Y+1589686D01*
X+6670144Y+1587528D01*
X+6667500Y+1587500D01*
X+6731000Y+1714500D02*
X+6730783Y+1719747D01*
X+6729018Y+1730242D01*
X+6725326Y+1740737D01*
X+6719298Y+1751232D01*
X+6710076Y+1761612D01*
X+6699581Y+1769300D01*
X+6689086Y+1774218D01*
X+6678591Y+1777024D01*
X+6668096Y+1777997D01*
X+6667500Y+1778000D01*
X+6604000Y+1714500D02*
X+6604217Y+1719747D01*
X+6605982Y+1730242D01*
X+6609674Y+1740737D01*
X+6615702Y+1751232D01*
X+6624924Y+1761612D01*
X+6635419Y+1769300D01*
X+6645914Y+1774218D01*
X+6656409Y+1777024D01*
X+6666904Y+1777997D01*
X+6667500Y+1778000D01*
X+6604000Y+1714500D02*
X+6604217Y+1709253D01*
X+6605982Y+1698758D01*
X+6609674Y+1688263D01*
X+6615702Y+1677768D01*
X+6624924Y+1667388D01*
X+6635419Y+1659700D01*
X+6645914Y+1654782D01*
X+6656409Y+1651976D01*
X+6666904Y+1651003D01*
X+6667500Y+1651000D01*
X+6731000Y+1714500D02*
X+6730783Y+1709253D01*
X+6729018Y+1698758D01*
X+6725326Y+1688263D01*
X+6719298Y+1677768D01*
X+6710076Y+1667388D01*
X+6699581Y+1659700D01*
X+6689086Y+1654782D01*
X+6678591Y+1651976D01*
X+6668096Y+1651003D01*
X+6667500Y+1651000D01*
X+6477000Y+2009140D02*
X+6477000Y+2100580D01*
X+6556375Y+2100580D01*
X+6572250Y+2085340D01*
X+6572250Y+2070100D01*
X+6556375Y+2054860D01*
X+6477000Y+2054860D01*
X+6604000Y+2009140D02*
X+6604000Y+2100580D01*
X+6699250Y+2100580D02*
X+6699250Y+2009140D01*
X+6604000Y+2054860D02*
X+6699250Y+2054860D01*
X+6746875Y+2085340D02*
X+6762750Y+2100580D01*
X+6810375Y+2100580D01*
X+6826250Y+2085340D01*
X+6826250Y+2070100D01*
X+6810375Y+2054860D01*
X+6762750Y+2054860D01*
X+6746875Y+2039620D01*
X+6746875Y+2009140D01*
X+6826250Y+2009140D01*
X+8382000Y+1651000D02*
X+8381573Y+1661409D01*
X+8378101Y+1682228D01*
X+8370845Y+1703047D01*
X+8359017Y+1723866D01*
X+8340920Y+1744524D01*
X+8320101Y+1760045D01*
X+8299282Y+1770030D01*
X+8278463Y+1775814D01*
X+8257644Y+1777972D01*
X+8255000Y+1778000D01*
X+8128000Y+1651000D02*
X+8128427Y+1661409D01*
X+8131899Y+1682228D01*
X+8139155Y+1703047D01*
X+8150983Y+1723866D01*
X+8169080Y+1744524D01*
X+8189899Y+1760045D01*
X+8210718Y+1770030D01*
X+8231537Y+1775814D01*
X+8252356Y+1777972D01*
X+8255000Y+1778000D01*
X+8128000Y+1651000D02*
X+8128427Y+1640591D01*
X+8131899Y+1619772D01*
X+8139155Y+1598953D01*
X+8150983Y+1578134D01*
X+8169080Y+1557476D01*
X+8189899Y+1541955D01*
X+8210718Y+1531970D01*
X+8231537Y+1526186D01*
X+8252356Y+1524028D01*
X+8255000Y+1524000D01*
X+8382000Y+1651000D02*
X+8381573Y+1640591D01*
X+8378101Y+1619772D01*
X+8370845Y+1598953D01*
X+8359017Y+1578134D01*
X+8340920Y+1557476D01*
X+8320101Y+1541955D01*
X+8299282Y+1531970D01*
X+8278463Y+1526186D01*
X+8257644Y+1524028D01*
X+8255000Y+1524000D01*
X+8318500Y+1651000D02*
X+8318283Y+1656247D01*
X+8316518Y+1666742D01*
X+8312826Y+1677237D01*
X+8306798Y+1687732D01*
X+8297576Y+1698112D01*
X+8287081Y+1705800D01*
X+8276586Y+1710718D01*
X+8266091Y+1713524D01*
X+8255596Y+1714497D01*
X+8255000Y+1714500D01*
X+8191500Y+1651000D02*
X+8191717Y+1656247D01*
X+8193482Y+1666742D01*
X+8197174Y+1677237D01*
X+8203202Y+1687732D01*
X+8212424Y+1698112D01*
X+8222919Y+1705800D01*
X+8233414Y+1710718D01*
X+8243909Y+1713524D01*
X+8254404Y+1714497D01*
X+8255000Y+1714500D01*
X+8191500Y+1651000D02*
X+8191717Y+1645753D01*
X+8193482Y+1635258D01*
X+8197174Y+1624763D01*
X+8203202Y+1614268D01*
X+8212424Y+1603888D01*
X+8222919Y+1596200D01*
X+8233414Y+1591282D01*
X+8243909Y+1588476D01*
X+8254404Y+1587503D01*
X+8255000Y+1587500D01*
X+8318500Y+1651000D02*
X+8318283Y+1645753D01*
X+8316518Y+1635258D01*
X+8312826Y+1624763D01*
X+8306798Y+1614268D01*
X+8297576Y+1603888D01*
X+8287081Y+1596200D01*
X+8276586Y+1591282D01*
X+8266091Y+1588476D01*
X+8255596Y+1587503D01*
X+8255000Y+1587500D01*
X+8064500Y+1945640D02*
X+8064500Y+2037080D01*
X+8143875Y+2037080D01*
X+8159750Y+2021840D01*
X+8159750Y+2006600D01*
X+8143875Y+1991360D01*
X+8064500Y+1991360D01*
X+8191500Y+1945640D02*
X+8191500Y+2037080D01*
X+8286750Y+2037080D02*
X+8286750Y+1945640D01*
X+8191500Y+1991360D02*
X+8286750Y+1991360D01*
X+8334375Y+2021840D02*
X+8350250Y+2037080D01*
X+8397875Y+2037080D01*
X+8413750Y+2021840D01*
X+8413750Y+2006600D01*
X+8397875Y+1991360D01*
X+8413750Y+1976120D01*
X+8413750Y+1960880D01*
X+8397875Y+1945640D01*
X+8350250Y+1945640D01*
X+8334375Y+1960880D01*
X+8366125Y+1991360D02*
X+8397875Y+1991360D01*
X+254000Y-2540000D02*
X+0Y-2794000D01*
X+0Y-3302000D01*
X+254000Y-3556000D01*
X+1016000Y-3556000D01*
X+1016000Y-2540000D01*
X+254000Y-2540000D01*
X+190500Y-2794000D02*
X+317500Y-2794000D01*
X+254000Y-2730500D02*
X+254000Y-2857500D01*
X+0Y-1397000D02*
X-254000Y-1651000D01*
X-254000Y-2159000D01*
X+0Y-2413000D01*
X+762000Y-2413000D01*
X+762000Y-1397000D01*
X+0Y-1397000D01*
X-63500Y-1651000D02*
X+63500Y-1651000D01*
X+0Y-1587500D02*
X+0Y-1714500D01*
X-863600Y-3683000D02*
X-863600Y-3759200D01*
X-228600Y-3759200D01*
X-228600Y-3683000D01*
X-584200Y-3759200D02*
X-584200Y-3810000D01*
X-508000Y-3810000D01*
X-508000Y-3759200D01*
X-812800Y-3759200D02*
X-812800Y-3835400D01*
X-749300Y-3835400D01*
X-749300Y-3759200D01*
X-279400Y-3759200D02*
X-279400Y-3835400D01*
X-342900Y-3835400D01*
X-342900Y-3759200D02*
X-342900Y-3835400D01*
D44*
X-692000Y-4385460D02*
X-832000Y-4385460D01*
X-692000Y-4405460D02*
X-832000Y-4405460D01*
X-832000Y-4515460D02*
X-692000Y-4515460D01*
X-692000Y-4355460D01*
X-832000Y-4355460D01*
X-832000Y-4515460D01*
D45*
X-413000Y-4408000D02*
X-313000Y-4408000D01*
X-413000Y-4228000D02*
X-313000Y-4228000D01*
D43*
X+952500Y-4699000D02*
X+1206500Y-4445000D01*
X+1206500Y-3937000D01*
X+952500Y-3683000D01*
X+190500Y-3683000D01*
X+190500Y-4699000D01*
X+952500Y-4699000D01*
X+1016000Y-4445000D02*
X+889000Y-4445000D01*
X+952500Y-4508500D02*
X+952500Y-4381500D01*
D45*
X+2087500Y-4434000D02*
X+1687500Y-4434000D01*
X+2087500Y-4964000D02*
X+1687500Y-4964000D01*
D43*
X+2399837Y-4896337D02*
X+2399837Y-4656337D01*
X+2539837Y-4896337D02*
X+2539837Y-4656337D01*
D45*
X-413000Y-4662000D02*
X-303000Y-4662000D01*
X-413000Y-4482000D02*
X-303000Y-4482000D01*
X+2894500Y-4794000D02*
X+2894500Y-4894000D01*
X+3074500Y-4794000D02*
X+3074500Y-4894000D01*
X+3179500Y-4355000D02*
X+3079500Y-4355000D01*
X+3179500Y-4535000D02*
X+3079500Y-4535000D01*
X+78000Y-1370500D02*
X-32000Y-1370500D01*
X+78000Y-1550500D02*
X-32000Y-1550500D01*
X+78000Y-862500D02*
X-32000Y-862500D01*
X+78000Y-1042500D02*
X-32000Y-1042500D01*
X+78000Y-1116500D02*
X-32000Y-1116500D01*
X+78000Y-1296500D02*
X-32000Y-1296500D01*
X+291000Y+1683000D02*
X+291000Y+1573000D01*
X+471000Y+1683000D02*
X+471000Y+1573000D01*
X+1624500Y+1665500D02*
X+1624500Y+1555500D01*
X+1804500Y+1665500D02*
X+1804500Y+1555500D01*
X+984000Y-1233000D02*
X+1094000Y-1233000D01*
X+984000Y-1053000D02*
X+1094000Y-1053000D01*
D43*
X-444500Y+698500D02*
X-444927Y+708909D01*
X-448399Y+729728D01*
X-455655Y+750547D01*
X-467483Y+771366D01*
X-485580Y+792024D01*
X-506399Y+807545D01*
X-527218Y+817530D01*
X-548037Y+823314D01*
X-568856Y+825472D01*
X-571500Y+825500D01*
X-698500Y+698500D02*
X-698073Y+708909D01*
X-694601Y+729728D01*
X-687345Y+750547D01*
X-675517Y+771366D01*
X-657420Y+792024D01*
X-636601Y+807545D01*
X-615782Y+817530D01*
X-594963Y+823314D01*
X-574144Y+825472D01*
X-571500Y+825500D01*
X-698500Y+698500D02*
X-698073Y+688091D01*
X-694601Y+667272D01*
X-687345Y+646453D01*
X-675517Y+625634D01*
X-657420Y+604976D01*
X-636601Y+589455D01*
X-615782Y+579470D01*
X-594963Y+573686D01*
X-574144Y+571528D01*
X-571500Y+571500D01*
X-444500Y+698500D02*
X-444927Y+688091D01*
X-448399Y+667272D01*
X-455655Y+646453D01*
X-467483Y+625634D01*
X-485580Y+604976D01*
X-506399Y+589455D01*
X-527218Y+579470D01*
X-548037Y+573686D01*
X-568856Y+571528D01*
X-571500Y+571500D01*
X-508000Y+698500D02*
X-508217Y+703747D01*
X-509982Y+714242D01*
X-513674Y+724737D01*
X-519702Y+735232D01*
X-528924Y+745612D01*
X-539419Y+753300D01*
X-549914Y+758218D01*
X-560409Y+761024D01*
X-570904Y+761997D01*
X-571500Y+762000D01*
X-635000Y+698500D02*
X-634783Y+703747D01*
X-633018Y+714242D01*
X-629326Y+724737D01*
X-623298Y+735232D01*
X-614076Y+745612D01*
X-603581Y+753300D01*
X-593086Y+758218D01*
X-582591Y+761024D01*
X-572096Y+761997D01*
X-571500Y+762000D01*
X-635000Y+698500D02*
X-634783Y+693253D01*
X-633018Y+682758D01*
X-629326Y+672263D01*
X-623298Y+661768D01*
X-614076Y+651388D01*
X-603581Y+643700D01*
X-593086Y+638782D01*
X-582591Y+635976D01*
X-572096Y+635003D01*
X-571500Y+635000D01*
X-508000Y+698500D02*
X-508217Y+693253D01*
X-509982Y+682758D01*
X-513674Y+672263D01*
X-519702Y+661768D01*
X-528924Y+651388D01*
X-539419Y+643700D01*
X-549914Y+638782D01*
X-560409Y+635976D01*
X-570904Y+635003D01*
X-571500Y+635000D01*
X-932180Y+254000D02*
X-886460Y+254000D01*
X-840740Y+301625D01*
X-886460Y+349250D01*
X-932180Y+349250D01*
X-932180Y+396875D02*
X-932180Y+460375D01*
X-932180Y+428625D02*
X-840740Y+428625D01*
X-840740Y+396875D02*
X-840740Y+460375D01*
X-840740Y+508000D02*
X-932180Y+508000D01*
X-840740Y+603250D01*
X-932180Y+603250D01*
X-886460Y+650875D02*
X-886460Y+730250D01*
X-444500Y-1397000D02*
X-444927Y-1386591D01*
X-448399Y-1365772D01*
X-455655Y-1344953D01*
X-467483Y-1324134D01*
X-485580Y-1303476D01*
X-506399Y-1287955D01*
X-527218Y-1277970D01*
X-548037Y-1272186D01*
X-568856Y-1270028D01*
X-571500Y-1270000D01*
X-698500Y-1397000D02*
X-698073Y-1386591D01*
X-694601Y-1365772D01*
X-687345Y-1344953D01*
X-675517Y-1324134D01*
X-657420Y-1303476D01*
X-636601Y-1287955D01*
X-615782Y-1277970D01*
X-594963Y-1272186D01*
X-574144Y-1270028D01*
X-571500Y-1270000D01*
X-698500Y-1397000D02*
X-698073Y-1407409D01*
X-694601Y-1428228D01*
X-687345Y-1449047D01*
X-675517Y-1469866D01*
X-657420Y-1490524D01*
X-636601Y-1506045D01*
X-615782Y-1516030D01*
X-594963Y-1521814D01*
X-574144Y-1523972D01*
X-571500Y-1524000D01*
X-444500Y-1397000D02*
X-444927Y-1407409D01*
X-448399Y-1428228D01*
X-455655Y-1449047D01*
X-467483Y-1469866D01*
X-485580Y-1490524D01*
X-506399Y-1506045D01*
X-527218Y-1516030D01*
X-548037Y-1521814D01*
X-568856Y-1523972D01*
X-571500Y-1524000D01*
X-508000Y-1397000D02*
X-508217Y-1391753D01*
X-509982Y-1381258D01*
X-513674Y-1370763D01*
X-519702Y-1360268D01*
X-528924Y-1349888D01*
X-539419Y-1342200D01*
X-549914Y-1337282D01*
X-560409Y-1334476D01*
X-570904Y-1333503D01*
X-571500Y-1333500D01*
X-635000Y-1397000D02*
X-634783Y-1391753D01*
X-633018Y-1381258D01*
X-629326Y-1370763D01*
X-623298Y-1360268D01*
X-614076Y-1349888D01*
X-603581Y-1342200D01*
X-593086Y-1337282D01*
X-582591Y-1334476D01*
X-572096Y-1333503D01*
X-571500Y-1333500D01*
X-635000Y-1397000D02*
X-634783Y-1402247D01*
X-633018Y-1412742D01*
X-629326Y-1423237D01*
X-623298Y-1433732D01*
X-614076Y-1444112D01*
X-603581Y-1451800D01*
X-593086Y-1456718D01*
X-582591Y-1459524D01*
X-572096Y-1460497D01*
X-571500Y-1460500D01*
X-508000Y-1397000D02*
X-508217Y-1402247D01*
X-509982Y-1412742D01*
X-513674Y-1423237D01*
X-519702Y-1433732D01*
X-528924Y-1444112D01*
X-539419Y-1451800D01*
X-549914Y-1456718D01*
X-560409Y-1459524D01*
X-570904Y-1460497D01*
X-571500Y-1460500D01*
X-891540Y-1981200D02*
X-845820Y-1981200D01*
X-800100Y-1933575D01*
X-845820Y-1885950D01*
X-891540Y-1885950D01*
X-891540Y-1838325D02*
X-891540Y-1774825D01*
X-891540Y-1806575D02*
X-800100Y-1806575D01*
X-800100Y-1838325D02*
X-800100Y-1774825D01*
X-800100Y-1727200D02*
X-891540Y-1727200D01*
X-800100Y-1631950D01*
X-891540Y-1631950D01*
X-845820Y-1600200D02*
X-845820Y-1504950D01*
X-876300Y-1552575D02*
X-815340Y-1552575D01*
D45*
X+1792500Y-5117000D02*
X+1682500Y-5117000D01*
X+1792500Y-5297000D02*
X+1682500Y-5297000D01*
X+5942500Y-3043500D02*
X+5942500Y-3143500D01*
X+6122500Y-3043500D02*
X+6122500Y-3143500D01*
X+5561500Y-3043500D02*
X+5561500Y-3143500D01*
X+5741500Y-3043500D02*
X+5741500Y-3143500D01*
D43*
X+5554980Y-3860800D02*
X+5554980Y-3779838D01*
X+5565601Y-3777756D01*
X+5574167Y-3772036D01*
X+5579886Y-3763471D01*
X+5581968Y-3752850D01*
X+5554980Y-3725862D02*
X+5565601Y-3727944D01*
X+5574167Y-3733664D01*
X+5579886Y-3742229D01*
X+5581968Y-3752850D01*
X+5554980Y-3725862D02*
X+5554980Y-3644900D01*
X+6002020Y-3784600D02*
X+6002020Y-3721100D01*
X+5588000Y-3860800D02*
X+5969000Y-3860800D01*
X+5588000Y-3644900D02*
X+5969000Y-3644900D01*
X+5588000Y-3860800D02*
X+5554980Y-3860800D01*
X+5554980Y-3644900D02*
X+5588000Y-3644900D01*
X+6002020Y-3721100D02*
X+6002020Y-3644900D01*
X+5969000Y-3644900D01*
X+5969000Y-3860800D02*
X+6002020Y-3860800D01*
X+6002020Y-3784600D01*
X+5614416Y-3825240D02*
X+5614381Y-3824395D01*
X+5614094Y-3822704D01*
X+5613495Y-3821013D01*
X+5612515Y-3819322D01*
X+5611015Y-3817654D01*
X+5609324Y-3816434D01*
X+5607633Y-3815658D01*
X+5605942Y-3815221D01*
X+5604256Y-3815080D01*
X+5594096Y-3825240D02*
X+5594131Y-3824395D01*
X+5594418Y-3822704D01*
X+5595017Y-3821013D01*
X+5595997Y-3819322D01*
X+5597497Y-3817654D01*
X+5599188Y-3816434D01*
X+5600879Y-3815658D01*
X+5602570Y-3815221D01*
X+5604256Y-3815080D01*
X+5594096Y-3825240D02*
X+5594131Y-3826085D01*
X+5594418Y-3827776D01*
X+5595017Y-3829467D01*
X+5595997Y-3831158D01*
X+5597497Y-3832826D01*
X+5599188Y-3834046D01*
X+5600879Y-3834822D01*
X+5602570Y-3835259D01*
X+5604256Y-3835400D01*
X+5614416Y-3825240D02*
X+5614381Y-3826085D01*
X+5614094Y-3827776D01*
X+5613495Y-3829467D01*
X+5612515Y-3831158D01*
X+5611015Y-3832826D01*
X+5609324Y-3834046D01*
X+5607633Y-3834822D01*
X+5605942Y-3835259D01*
X+5604256Y-3835400D01*
X+6951980Y-3860800D02*
X+6951980Y-3779838D01*
X+6962601Y-3777756D01*
X+6971167Y-3772036D01*
X+6976886Y-3763471D01*
X+6978968Y-3752850D01*
X+6951980Y-3725862D02*
X+6962601Y-3727944D01*
X+6971167Y-3733664D01*
X+6976886Y-3742229D01*
X+6978968Y-3752850D01*
X+6951980Y-3725862D02*
X+6951980Y-3644900D01*
X+7399020Y-3784600D02*
X+7399020Y-3721100D01*
X+6985000Y-3860800D02*
X+7366000Y-3860800D01*
X+6985000Y-3644900D02*
X+7366000Y-3644900D01*
X+6985000Y-3860800D02*
X+6951980Y-3860800D01*
X+6951980Y-3644900D02*
X+6985000Y-3644900D01*
X+7399020Y-3721100D02*
X+7399020Y-3644900D01*
X+7366000Y-3644900D01*
X+7366000Y-3860800D02*
X+7399020Y-3860800D01*
X+7399020Y-3784600D01*
X+7011416Y-3825240D02*
X+7011381Y-3824395D01*
X+7011094Y-3822704D01*
X+7010495Y-3821013D01*
X+7009515Y-3819322D01*
X+7008015Y-3817654D01*
X+7006324Y-3816434D01*
X+7004633Y-3815658D01*
X+7002942Y-3815221D01*
X+7001256Y-3815080D01*
X+6991096Y-3825240D02*
X+6991131Y-3824395D01*
X+6991418Y-3822704D01*
X+6992017Y-3821013D01*
X+6992997Y-3819322D01*
X+6994497Y-3817654D01*
X+6996188Y-3816434D01*
X+6997879Y-3815658D01*
X+6999570Y-3815221D01*
X+7001256Y-3815080D01*
X+6991096Y-3825240D02*
X+6991131Y-3826085D01*
X+6991418Y-3827776D01*
X+6992017Y-3829467D01*
X+6992997Y-3831158D01*
X+6994497Y-3832826D01*
X+6996188Y-3834046D01*
X+6997879Y-3834822D01*
X+6999570Y-3835259D01*
X+7001256Y-3835400D01*
X+7011416Y-3825240D02*
X+7011381Y-3826085D01*
X+7011094Y-3827776D01*
X+7010495Y-3829467D01*
X+7009515Y-3831158D01*
X+7008015Y-3832826D01*
X+7006324Y-3834046D01*
X+7004633Y-3834822D01*
X+7002942Y-3835259D01*
X+7001256Y-3835400D01*
X+8348980Y-3860800D02*
X+8348980Y-3779838D01*
X+8359601Y-3777756D01*
X+8368167Y-3772036D01*
X+8373886Y-3763471D01*
X+8375968Y-3752850D01*
X+8348980Y-3725862D02*
X+8359601Y-3727944D01*
X+8368167Y-3733664D01*
X+8373886Y-3742229D01*
X+8375968Y-3752850D01*
X+8348980Y-3725862D02*
X+8348980Y-3644900D01*
X+8796020Y-3784600D02*
X+8796020Y-3721100D01*
X+8382000Y-3860800D02*
X+8763000Y-3860800D01*
X+8382000Y-3644900D02*
X+8763000Y-3644900D01*
X+8382000Y-3860800D02*
X+8348980Y-3860800D01*
X+8348980Y-3644900D02*
X+8382000Y-3644900D01*
X+8796020Y-3721100D02*
X+8796020Y-3644900D01*
X+8763000Y-3644900D01*
X+8763000Y-3860800D02*
X+8796020Y-3860800D01*
X+8796020Y-3784600D01*
X+8408416Y-3825240D02*
X+8408381Y-3824395D01*
X+8408094Y-3822704D01*
X+8407495Y-3821013D01*
X+8406515Y-3819322D01*
X+8405015Y-3817654D01*
X+8403324Y-3816434D01*
X+8401633Y-3815658D01*
X+8399942Y-3815221D01*
X+8398256Y-3815080D01*
X+8388096Y-3825240D02*
X+8388131Y-3824395D01*
X+8388418Y-3822704D01*
X+8389017Y-3821013D01*
X+8389997Y-3819322D01*
X+8391497Y-3817654D01*
X+8393188Y-3816434D01*
X+8394879Y-3815658D01*
X+8396570Y-3815221D01*
X+8398256Y-3815080D01*
X+8388096Y-3825240D02*
X+8388131Y-3826085D01*
X+8388418Y-3827776D01*
X+8389017Y-3829467D01*
X+8389997Y-3831158D01*
X+8391497Y-3832826D01*
X+8393188Y-3834046D01*
X+8394879Y-3834822D01*
X+8396570Y-3835259D01*
X+8398256Y-3835400D01*
X+8408416Y-3825240D02*
X+8408381Y-3826085D01*
X+8408094Y-3827776D01*
X+8407495Y-3829467D01*
X+8406515Y-3831158D01*
X+8405015Y-3832826D01*
X+8403324Y-3834046D01*
X+8401633Y-3834822D01*
X+8399942Y-3835259D01*
X+8398256Y-3835400D01*
D45*
X+6958500Y-3043500D02*
X+6958500Y-3143500D01*
X+7138500Y-3043500D02*
X+7138500Y-3143500D01*
D43*
X+5461000Y-3556000D02*
X+5334000Y-3429000D01*
X+5080000Y-3429000D01*
X+4953000Y-3556000D01*
X+4953000Y-3937000D01*
X+5461000Y-3937000D01*
X+5461000Y-3556000D01*
X+5334000Y-3492500D02*
X+5334000Y-3619500D01*
X+5397500Y-3556000D02*
X+5270500Y-3556000D01*
X+6858000Y-3556000D02*
X+6731000Y-3429000D01*
X+6477000Y-3429000D01*
X+6350000Y-3556000D01*
X+6350000Y-3937000D01*
X+6858000Y-3937000D01*
X+6858000Y-3556000D01*
X+6731000Y-3492500D02*
X+6731000Y-3619500D01*
X+6794500Y-3556000D02*
X+6667500Y-3556000D01*
X+8255000Y-3556000D02*
X+8128000Y-3429000D01*
X+7874000Y-3429000D01*
X+7747000Y-3556000D01*
X+7747000Y-3937000D01*
X+8255000Y-3937000D01*
X+8255000Y-3556000D01*
X+8128000Y-3492500D02*
X+8128000Y-3619500D01*
X+8191500Y-3556000D02*
X+8064500Y-3556000D01*
D44*
X+5023000Y-4213960D02*
X+4883000Y-4213960D01*
X+5023000Y-4233960D02*
X+4883000Y-4233960D01*
X+4883000Y-4343960D02*
X+5023000Y-4343960D01*
X+5023000Y-4183960D01*
X+4883000Y-4183960D01*
X+4883000Y-4343960D01*
X+6420000Y-4194910D02*
X+6280000Y-4194910D01*
X+6420000Y-4214910D02*
X+6280000Y-4214910D01*
X+6280000Y-4324910D02*
X+6420000Y-4324910D01*
X+6420000Y-4164910D01*
X+6280000Y-4164910D01*
X+6280000Y-4324910D01*
X+7848750Y-4163160D02*
X+7708750Y-4163160D01*
X+7848750Y-4183160D02*
X+7708750Y-4183160D01*
X+7708750Y-4293160D02*
X+7848750Y-4293160D01*
X+7848750Y-4133160D01*
X+7708750Y-4133160D01*
X+7708750Y-4293160D01*
D45*
X+6069500Y-3714500D02*
X+6069500Y-3824500D01*
X+6249500Y-3714500D02*
X+6249500Y-3824500D01*
X+7466500Y-3714500D02*
X+7466500Y-3824500D01*
X+7646500Y-3714500D02*
X+7646500Y-3824500D01*
X+8863500Y-3714500D02*
X+8863500Y-3824500D01*
X+9043500Y-3714500D02*
X+9043500Y-3824500D01*
X+7339500Y-3043500D02*
X+7339500Y-3143500D01*
X+7519500Y-3043500D02*
X+7519500Y-3143500D01*
X+8355500Y-3043500D02*
X+8355500Y-3143500D01*
X+8535500Y-3043500D02*
X+8535500Y-3143500D01*
X+8736500Y-3043500D02*
X+8736500Y-3143500D01*
X+8916500Y-3043500D02*
X+8916500Y-3143500D01*
X+5741500Y-4449500D02*
X+5741500Y-4349500D01*
X+5561500Y-4449500D02*
X+5561500Y-4349500D01*
X+6013000Y-4449500D02*
X+6013000Y-4349500D01*
X+5833000Y-4449500D02*
X+5833000Y-4349500D01*
X+7138500Y-4449500D02*
X+7138500Y-4349500D01*
X+6958500Y-4449500D02*
X+6958500Y-4349500D01*
X+4926500Y-793500D02*
X+4926500Y-893500D01*
X+5106500Y-793500D02*
X+5106500Y-893500D01*
X+4672500Y-313000D02*
X+4672500Y-413000D01*
X+4852500Y-313000D02*
X+4852500Y-413000D01*
X+4926500Y-1809500D02*
X+4926500Y-1909500D01*
X+5106500Y-1809500D02*
X+5106500Y-1909500D01*
X+4672500Y-1301500D02*
X+4672500Y-1401500D01*
X+4852500Y-1301500D02*
X+4852500Y-1401500D01*
X+4926500Y-303000D02*
X+4926500Y-413000D01*
X+5106500Y-303000D02*
X+5106500Y-413000D01*
X+4672500Y-793500D02*
X+4672500Y-903500D01*
X+4852500Y-793500D02*
X+4852500Y-903500D01*
X+4926500Y-1301500D02*
X+4926500Y-1411500D01*
X+5106500Y-1301500D02*
X+5106500Y-1411500D01*
X+4672500Y-1809500D02*
X+4672500Y-1919500D01*
X+4852500Y-1809500D02*
X+4852500Y-1919500D01*
X+7276000Y-285500D02*
X+7276000Y-395500D01*
X+7456000Y-285500D02*
X+7456000Y-395500D01*
X+7022000Y-793500D02*
X+7022000Y-903500D01*
X+7202000Y-793500D02*
X+7202000Y-903500D01*
X+7276000Y-1301500D02*
X+7276000Y-1411500D01*
X+7456000Y-1301500D02*
X+7456000Y-1411500D01*
X+7022000Y-1809500D02*
X+7022000Y-1919500D01*
X+7202000Y-1809500D02*
X+7202000Y-1919500D01*
X+7276000Y-793500D02*
X+7276000Y-893500D01*
X+7456000Y-793500D02*
X+7456000Y-893500D01*
X+7022000Y-285500D02*
X+7022000Y-385500D01*
X+7202000Y-285500D02*
X+7202000Y-385500D01*
X+7276000Y-1809500D02*
X+7276000Y-1909500D01*
X+7456000Y-1809500D02*
X+7456000Y-1909500D01*
X+7022000Y-1301500D02*
X+7022000Y-1401500D01*
X+7202000Y-1301500D02*
X+7202000Y-1401500D01*
D43*
X+3667760Y-3655060D02*
X+3578860Y-3655060D01*
X+3561080Y-3766820D02*
X+3489960Y-3766820D01*
X+3667760Y-3655060D02*
X+3667760Y-3746500D01*
X+3378200Y-3749040D02*
X+3378200Y-3655060D01*
X+3464560Y-3655060D01*
X+4239260Y-3655060D02*
X+4150360Y-3655060D01*
X+4132580Y-3766820D02*
X+4061460Y-3766820D01*
X+4239260Y-3655060D02*
X+4239260Y-3746500D01*
X+3949700Y-3749040D02*
X+3949700Y-3655060D01*
X+4036060Y-3655060D01*
X+4480560Y-4015740D02*
X+4480560Y-4104640D01*
X+4592320Y-4122420D02*
X+4592320Y-4193540D01*
X+4480560Y-4015740D02*
X+4572000Y-4015740D01*
X+4574540Y-4305300D02*
X+4480560Y-4305300D01*
X+4480560Y-4218940D01*
D44*
X+3740000Y-3742590D02*
X+3880000Y-3742590D01*
X+3740000Y-3722590D02*
X+3880000Y-3722590D01*
X+3740000Y-3772590D02*
X+3880000Y-3772590D01*
X+3880000Y-3612590D01*
X+3740000Y-3612590D01*
X+3740000Y-3772590D01*
X+3359000Y-4104540D02*
X+3499000Y-4104540D01*
X+3359000Y-4084540D02*
X+3499000Y-4084540D01*
X+3359000Y-4134540D02*
X+3499000Y-4134540D01*
X+3499000Y-3974540D01*
X+3359000Y-3974540D01*
X+3359000Y-4134540D01*
X+4311500Y-3742590D02*
X+4451500Y-3742590D01*
X+4311500Y-3722590D02*
X+4451500Y-3722590D01*
X+4311500Y-3772590D02*
X+4451500Y-3772590D01*
X+4451500Y-3612590D01*
X+4311500Y-3612590D01*
X+4311500Y-3772590D01*
X+3930500Y-4104540D02*
X+4070500Y-4104540D01*
X+3930500Y-4084540D02*
X+4070500Y-4084540D01*
X+3930500Y-4134540D02*
X+4070500Y-4134540D01*
X+4070500Y-3974540D01*
X+3930500Y-3974540D01*
X+3930500Y-4134540D01*
D45*
X+3615000Y-3455500D02*
X+3715000Y-3455500D01*
X+3615000Y-3275500D02*
X+3715000Y-3275500D01*
X+3615000Y-3201500D02*
X+3715000Y-3201500D01*
X+3615000Y-3021500D02*
X+3715000Y-3021500D01*
X+4286500Y-3275500D02*
X+4186500Y-3275500D01*
X+4286500Y-3455500D02*
X+4186500Y-3455500D01*
X+4545500Y-3170500D02*
X+4545500Y-3270500D01*
X+4725500Y-3170500D02*
X+4725500Y-3270500D01*
X+4725500Y-3778500D02*
X+4725500Y-3668500D01*
X+4545500Y-3778500D02*
X+4545500Y-3668500D01*
X+4286500Y-3021500D02*
X+4176500Y-3021500D01*
X+4286500Y-3201500D02*
X+4176500Y-3201500D01*
X+8789500Y-4449500D02*
X+8789500Y-4349500D01*
X+8609500Y-4449500D02*
X+8609500Y-4349500D01*
D43*
X+762000Y-5842000D02*
X+1016000Y-5588000D01*
X+1016000Y-5080000D01*
X+762000Y-4826000D01*
X+0Y-4826000D01*
X+0Y-5842000D01*
X+762000Y-5842000D01*
X+825500Y-5588000D02*
X+698500Y-5588000D01*
X+762000Y-5651500D02*
X+762000Y-5524500D01*
D45*
X+6255000Y-6069500D02*
X+6145000Y-6069500D01*
X+6255000Y-6249500D02*
X+6145000Y-6249500D01*
X+8335500Y-5475500D02*
X+8335500Y-5365500D01*
X+8155500Y-5475500D02*
X+8155500Y-5365500D01*
X+7573500Y-5475499D02*
X+7573500Y-5365499D01*
X+7393500Y-5475499D02*
X+7393500Y-5365499D01*
X-852000Y-31500D02*
X-852000Y-141500D01*
X-672000Y-31500D02*
X-672000Y-141500D01*
D46*
X+9182100Y-5181500D02*
X+9181969Y-5178342D01*
X+9180903Y-5172024D01*
X+9178672Y-5165706D01*
X+9175027Y-5159388D01*
X+9169452Y-5153149D01*
X+9163134Y-5148553D01*
X+9156816Y-5145620D01*
X+9150498Y-5143958D01*
X+9144180Y-5143400D01*
X+9144000Y-5143400D01*
X+9105900Y-5181500D02*
X+9106031Y-5178342D01*
X+9107097Y-5172024D01*
X+9109328Y-5165706D01*
X+9112973Y-5159388D01*
X+9118548Y-5153149D01*
X+9124866Y-5148553D01*
X+9131184Y-5145620D01*
X+9137502Y-5143958D01*
X+9143820Y-5143400D01*
X+9144000Y-5143400D01*
X+9105900Y-5181500D02*
X+9106031Y-5184658D01*
X+9107097Y-5190976D01*
X+9109328Y-5197294D01*
X+9112973Y-5203612D01*
X+9118548Y-5209851D01*
X+9124866Y-5214447D01*
X+9131184Y-5217380D01*
X+9137502Y-5219042D01*
X+9143820Y-5219600D01*
X+9144000Y-5219600D01*
X+9182100Y-5181500D02*
X+9181969Y-5184658D01*
X+9180903Y-5190976D01*
X+9178672Y-5197294D01*
X+9175027Y-5203612D01*
X+9169452Y-5209851D01*
X+9163134Y-5214447D01*
X+9156816Y-5217380D01*
X+9150498Y-5219042D01*
X+9144180Y-5219600D01*
X+9144000Y-5219600D01*
D47*
X+9215120Y-4711650D02*
X+9215120Y-5251350D01*
X+9258635Y-5251350D01*
X+9453880Y-5251350D02*
X+9453880Y-4711650D01*
X+9410365Y-4711650D01*
X+9258635Y-4711650D02*
X+9215120Y-4711650D01*
X+9410365Y-5251350D02*
X+9453880Y-5251350D01*
D43*
X+9075420Y-5327067D02*
X+8983980Y-5327067D01*
X+8983980Y-5247692D01*
X+8999220Y-5231817D01*
X+9014460Y-5231817D01*
X+9029700Y-5247692D01*
X+9029700Y-5327067D01*
X+9014460Y-5200067D02*
X+8983980Y-5168317D01*
X+8983980Y-5136567D01*
X+9014460Y-5104817D01*
X+9044940Y-5104817D01*
X+9075420Y-5136567D01*
X+9075420Y-5168317D01*
X+9044940Y-5200067D01*
X+9014460Y-5200067D01*
X+8983980Y-5073067D02*
X+8983980Y-4977817D01*
X+8983980Y-5025442D02*
X+9075420Y-5025442D01*
X+9090660Y-4946067D02*
X+9090660Y-4850817D01*
X+8983980Y-4803192D02*
X+8983980Y-4739692D01*
X+8983980Y-4771442D02*
X+9075420Y-4771442D01*
X+9075420Y-4803192D02*
X+9075420Y-4739692D01*
X+9075420Y-4692067D02*
X+8983980Y-4692067D01*
X+9075420Y-4596817D01*
X+8983980Y-4596817D01*
D45*
X+7392500Y-4449500D02*
X+7392500Y-4349500D01*
X+7212500Y-4449500D02*
X+7212500Y-4349500D01*
X+8535500Y-4449500D02*
X+8535500Y-4349500D01*
X+8355500Y-4449500D02*
X+8355500Y-4349500D01*
X+8663500Y-5730301D02*
X+8663500Y-5830301D01*
X+8843500Y-5730301D02*
X+8843500Y-5830301D01*
X+7901500Y-5365500D02*
X+7901500Y-5465500D01*
X+8081500Y-5365500D02*
X+8081500Y-5465500D01*
X+7647500Y-5365500D02*
X+7647500Y-5465500D01*
X+7827500Y-5365500D02*
X+7827500Y-5465500D01*
X+8409500Y-5365500D02*
X+8409500Y-5465500D01*
X+8589500Y-5365500D02*
X+8589500Y-5465500D01*
X+7139500Y-5365500D02*
X+7139500Y-5465500D01*
X+7319500Y-5365500D02*
X+7319500Y-5465500D01*
D46*
X+8394600Y-5715000D02*
X+8394469Y-5711842D01*
X+8393403Y-5705524D01*
X+8391172Y-5699206D01*
X+8387527Y-5692888D01*
X+8381952Y-5686649D01*
X+8375634Y-5682053D01*
X+8369316Y-5679120D01*
X+8362998Y-5677458D01*
X+8356680Y-5676900D01*
X+8356500Y-5676900D01*
X+8318400Y-5715000D02*
X+8318531Y-5711842D01*
X+8319597Y-5705524D01*
X+8321828Y-5699206D01*
X+8325473Y-5692888D01*
X+8331048Y-5686649D01*
X+8337366Y-5682053D01*
X+8343684Y-5679120D01*
X+8350002Y-5677458D01*
X+8356320Y-5676900D01*
X+8356500Y-5676900D01*
X+8318400Y-5715000D02*
X+8318531Y-5718158D01*
X+8319597Y-5724476D01*
X+8321828Y-5730794D01*
X+8325473Y-5737112D01*
X+8331048Y-5743351D01*
X+8337366Y-5747947D01*
X+8343684Y-5750880D01*
X+8350002Y-5752542D01*
X+8356320Y-5753100D01*
X+8356500Y-5753100D01*
X+8394600Y-5715000D02*
X+8394469Y-5718158D01*
X+8393403Y-5724476D01*
X+8391172Y-5730794D01*
X+8387527Y-5737112D01*
X+8381952Y-5743351D01*
X+8375634Y-5747947D01*
X+8369316Y-5750880D01*
X+8362998Y-5752542D01*
X+8356680Y-5753100D01*
X+8356500Y-5753100D01*
D47*
X+8505470Y-5804840D02*
X+8378907Y-5804840D01*
X+7207530Y-5804840D02*
X+7207530Y-6005500D01*
X+7331309Y-6005500D01*
X+8505470Y-6005500D02*
X+8505470Y-5804840D01*
X+7334093Y-5804840D02*
X+7207530Y-5804840D01*
X+7381691Y-6005500D02*
X+7531309Y-6005500D01*
X+7534093Y-5804840D02*
X+7378907Y-5804840D01*
X+7581691Y-6005500D02*
X+7731309Y-6005500D01*
X+7734093Y-5804840D02*
X+7578907Y-5804840D01*
X+7781691Y-6005500D02*
X+7931309Y-6005500D01*
X+7934093Y-5804840D02*
X+7778907Y-5804840D01*
X+7981691Y-6005500D02*
X+8131309Y-6005500D01*
X+8134093Y-5804840D02*
X+7978907Y-5804840D01*
X+8181691Y-6005500D02*
X+8331309Y-6005500D01*
X+8381691Y-6005500D02*
X+8505470Y-6005500D01*
X+8334093Y-5804840D02*
X+8178907Y-5804840D01*
D43*
X+7348500Y-5755124D02*
X+7348500Y-5663684D01*
X+7396125Y-5709404D01*
X+7443750Y-5663684D01*
X+7443750Y-5755124D01*
X+7475500Y-5694164D02*
X+7507250Y-5663684D01*
X+7539000Y-5663684D01*
X+7570750Y-5694164D01*
X+7570750Y-5724644D01*
X+7539000Y-5755124D01*
X+7507250Y-5755124D01*
X+7475500Y-5724644D01*
X+7475500Y-5694164D01*
X+7602500Y-5755124D02*
X+7602500Y-5663684D01*
X+7681875Y-5663684D01*
X+7697750Y-5678924D01*
X+7697750Y-5694164D01*
X+7681875Y-5709404D01*
X+7602500Y-5709404D01*
X+7729500Y-5739884D02*
X+7745375Y-5755124D01*
X+7808875Y-5755124D01*
X+7824750Y-5739884D01*
X+7824750Y-5724644D01*
X+7808875Y-5709404D01*
X+7745375Y-5709404D01*
X+7729500Y-5694164D01*
X+7729500Y-5678924D01*
X+7745375Y-5663684D01*
X+7808875Y-5663684D01*
X+7824750Y-5678924D01*
X+7856500Y-5770364D02*
X+7951750Y-5770364D01*
X+7999375Y-5663684D02*
X+8062875Y-5663684D01*
X+8031125Y-5663684D02*
X+8031125Y-5755124D01*
X+7999375Y-5755124D02*
X+8062875Y-5755124D01*
X+8110500Y-5755124D02*
X+8110500Y-5663684D01*
X+8205750Y-5755124D01*
X+8205750Y-5663684D01*
X+1356692Y-106403D02*
X+1353992Y-33266D01*
X+1332120Y+113009D01*
X+1286822Y+259284D01*
X+1214357Y+405559D01*
X+1106810Y+551834D01*
X+963039Y+684778D01*
X+816764Y+776540D01*
X+670489Y+837216D01*
X+524214Y+872603D01*
X+377939Y+885411D01*
X+364791Y+885498D01*
X-627110Y-106403D02*
X-624410Y-33266D01*
X-602538Y+113009D01*
X-557240Y+259284D01*
X-484775Y+405559D01*
X-377228Y+551834D01*
X-233457Y+684778D01*
X-87182Y+776540D01*
X+59093Y+837216D01*
X+205368Y+872603D01*
X+351643Y+885411D01*
X+364791Y+885498D01*
X-627110Y-106403D02*
X-624410Y-179540D01*
X-602538Y-325815D01*
X-557240Y-472090D01*
X-484775Y-618365D01*
X-377228Y-764640D01*
X-233457Y-897584D01*
X-87182Y-989346D01*
X+59093Y-1050022D01*
X+205368Y-1085409D01*
X+351643Y-1098217D01*
X+364791Y-1098304D01*
X+1356692Y-106403D02*
X+1353992Y-179540D01*
X+1332120Y-325815D01*
X+1286822Y-472090D01*
X+1214357Y-618365D01*
X+1106810Y-764640D01*
X+963039Y-897584D01*
X+816764Y-989346D01*
X+670489Y-1050022D01*
X+524214Y-1085409D01*
X+377939Y-1098217D01*
X+364791Y-1098304D01*
D48*
X+1579500Y+1583500D02*
X+1577969Y+1622600D01*
X+1565546Y+1700801D01*
X+1539694Y+1779002D01*
X+1497934Y+1857203D01*
X+1434695Y+1935404D01*
X+1356502Y+1999757D01*
X+1278301Y+2042279D01*
X+1200100Y+2068738D01*
X+1121899Y+2081699D01*
X+1079500Y+2083500D01*
X+579500Y+1583500D02*
X+581031Y+1622600D01*
X+593454Y+1700801D01*
X+619306Y+1779002D01*
X+661066Y+1857203D01*
X+724305Y+1935404D01*
X+802498Y+1999757D01*
X+880699Y+2042279D01*
X+958900Y+2068738D01*
X+1037101Y+2081699D01*
X+1079500Y+2083500D01*
X+579500Y+1583500D02*
X+581031Y+1544400D01*
X+593454Y+1466199D01*
X+619306Y+1387998D01*
X+661066Y+1309797D01*
X+724305Y+1231596D01*
X+802498Y+1167243D01*
X+880699Y+1124721D01*
X+958900Y+1098262D01*
X+1037101Y+1085301D01*
X+1079500Y+1083500D01*
X+1579500Y+1583500D02*
X+1577969Y+1544400D01*
X+1565546Y+1466199D01*
X+1539694Y+1387998D01*
X+1497934Y+1309797D01*
X+1434695Y+1231596D01*
X+1356502Y+1167243D01*
X+1278301Y+1124721D01*
X+1200100Y+1098262D01*
X+1121899Y+1085301D01*
X+1079500Y+1083500D01*
D45*
X+713500Y+1207500D02*
X+713465Y+1208331D01*
X+713184Y+1209995D01*
X+712594Y+1211659D01*
X+711630Y+1213323D01*
X+710155Y+1214964D01*
X+708491Y+1216165D01*
X+706827Y+1216930D01*
X+705163Y+1217361D01*
X+703500Y+1217500D01*
X+693500Y+1207500D02*
X+693535Y+1208331D01*
X+693816Y+1209995D01*
X+694406Y+1211659D01*
X+695370Y+1213323D01*
X+696845Y+1214964D01*
X+698509Y+1216165D01*
X+700173Y+1216930D01*
X+701837Y+1217361D01*
X+703500Y+1217500D01*
X+693500Y+1207500D02*
X+693535Y+1206669D01*
X+693816Y+1205005D01*
X+694406Y+1203341D01*
X+695370Y+1201677D01*
X+696845Y+1200036D01*
X+698509Y+1198835D01*
X+700173Y+1198070D01*
X+701837Y+1197639D01*
X+703500Y+1197500D01*
X+713500Y+1207500D02*
X+713465Y+1206669D01*
X+713184Y+1205005D01*
X+712594Y+1203341D01*
X+711630Y+1201677D01*
X+710155Y+1200036D01*
X+708491Y+1198835D01*
X+706827Y+1198070D01*
X+705163Y+1197639D01*
X+703500Y+1197500D01*
D48*
X+182500Y+1583500D02*
X+180969Y+1622600D01*
X+168546Y+1700801D01*
X+142694Y+1779002D01*
X+100934Y+1857203D01*
X+37695Y+1935404D01*
X-40498Y+1999757D01*
X-118699Y+2042279D01*
X-196900Y+2068738D01*
X-275101Y+2081699D01*
X-317500Y+2083500D01*
X-817500Y+1583500D02*
X-815969Y+1622600D01*
X-803546Y+1700801D01*
X-777694Y+1779002D01*
X-735934Y+1857203D01*
X-672695Y+1935404D01*
X-594502Y+1999757D01*
X-516301Y+2042279D01*
X-438100Y+2068738D01*
X-359899Y+2081699D01*
X-317500Y+2083500D01*
X-817500Y+1583500D02*
X-815969Y+1544400D01*
X-803546Y+1466199D01*
X-777694Y+1387998D01*
X-735934Y+1309797D01*
X-672695Y+1231596D01*
X-594502Y+1167243D01*
X-516301Y+1124721D01*
X-438100Y+1098262D01*
X-359899Y+1085301D01*
X-317500Y+1083500D01*
X+182500Y+1583500D02*
X+180969Y+1544400D01*
X+168546Y+1466199D01*
X+142694Y+1387998D01*
X+100934Y+1309797D01*
X+37695Y+1231596D01*
X-40498Y+1167243D01*
X-118699Y+1124721D01*
X-196900Y+1098262D01*
X-275101Y+1085301D01*
X-317500Y+1083500D01*
D45*
X-683500Y+1207500D02*
X-683535Y+1208331D01*
X-683816Y+1209995D01*
X-684406Y+1211659D01*
X-685370Y+1213323D01*
X-686845Y+1214964D01*
X-688509Y+1216165D01*
X-690173Y+1216930D01*
X-691837Y+1217361D01*
X-693500Y+1217500D01*
X-703500Y+1207500D02*
X-703465Y+1208331D01*
X-703184Y+1209995D01*
X-702594Y+1211659D01*
X-701630Y+1213323D01*
X-700155Y+1214964D01*
X-698491Y+1216165D01*
X-696827Y+1216930D01*
X-695163Y+1217361D01*
X-693500Y+1217500D01*
X-703500Y+1207500D02*
X-703465Y+1206669D01*
X-703184Y+1205005D01*
X-702594Y+1203341D01*
X-701630Y+1201677D01*
X-700155Y+1200036D01*
X-698491Y+1198835D01*
X-696827Y+1198070D01*
X-695163Y+1197639D01*
X-693500Y+1197500D01*
X-683500Y+1207500D02*
X-683535Y+1206669D01*
X-683816Y+1205005D01*
X-684406Y+1203341D01*
X-685370Y+1201677D01*
X-686845Y+1200036D01*
X-688509Y+1198835D01*
X-690173Y+1198070D01*
X-691837Y+1197639D01*
X-693500Y+1197500D01*
D48*
X+2976500Y+1587500D02*
X+2974969Y+1626600D01*
X+2962546Y+1704801D01*
X+2936694Y+1783002D01*
X+2894934Y+1861203D01*
X+2831695Y+1939404D01*
X+2753502Y+2003757D01*
X+2675301Y+2046279D01*
X+2597100Y+2072738D01*
X+2518899Y+2085699D01*
X+2476500Y+2087500D01*
X+1976500Y+1587500D02*
X+1978031Y+1626600D01*
X+1990454Y+1704801D01*
X+2016306Y+1783002D01*
X+2058066Y+1861203D01*
X+2121305Y+1939404D01*
X+2199498Y+2003757D01*
X+2277699Y+2046279D01*
X+2355900Y+2072738D01*
X+2434101Y+2085699D01*
X+2476500Y+2087500D01*
X+1976500Y+1587500D02*
X+1978031Y+1548400D01*
X+1990454Y+1470199D01*
X+2016306Y+1391998D01*
X+2058066Y+1313797D01*
X+2121305Y+1235596D01*
X+2199498Y+1171243D01*
X+2277699Y+1128721D01*
X+2355900Y+1102262D01*
X+2434101Y+1089301D01*
X+2476500Y+1087500D01*
X+2976500Y+1587500D02*
X+2974969Y+1548400D01*
X+2962546Y+1470199D01*
X+2936694Y+1391998D01*
X+2894934Y+1313797D01*
X+2831695Y+1235596D01*
X+2753502Y+1171243D01*
X+2675301Y+1128721D01*
X+2597100Y+1102262D01*
X+2518899Y+1089301D01*
X+2476500Y+1087500D01*
D45*
X+2110500Y+1211500D02*
X+2110465Y+1212331D01*
X+2110184Y+1213995D01*
X+2109594Y+1215659D01*
X+2108630Y+1217323D01*
X+2107155Y+1218964D01*
X+2105491Y+1220165D01*
X+2103827Y+1220930D01*
X+2102163Y+1221361D01*
X+2100500Y+1221500D01*
X+2090500Y+1211500D02*
X+2090535Y+1212331D01*
X+2090816Y+1213995D01*
X+2091406Y+1215659D01*
X+2092370Y+1217323D01*
X+2093845Y+1218964D01*
X+2095509Y+1220165D01*
X+2097173Y+1220930D01*
X+2098837Y+1221361D01*
X+2100500Y+1221500D01*
X+2090500Y+1211500D02*
X+2090535Y+1210669D01*
X+2090816Y+1209005D01*
X+2091406Y+1207341D01*
X+2092370Y+1205677D01*
X+2093845Y+1204036D01*
X+2095509Y+1202835D01*
X+2097173Y+1202070D01*
X+2098837Y+1201639D01*
X+2100500Y+1201500D01*
X+2110500Y+1211500D02*
X+2110465Y+1210669D01*
X+2110184Y+1209005D01*
X+2109594Y+1207341D01*
X+2108630Y+1205677D01*
X+2107155Y+1204036D01*
X+2105491Y+1202835D01*
X+2103827Y+1202070D01*
X+2102163Y+1201639D01*
X+2100500Y+1201500D01*
D46*
X+4162600Y-6096000D02*
X+4162469Y-6092842D01*
X+4161403Y-6086524D01*
X+4159172Y-6080206D01*
X+4155527Y-6073888D01*
X+4149952Y-6067649D01*
X+4143634Y-6063053D01*
X+4137316Y-6060120D01*
X+4130998Y-6058458D01*
X+4124680Y-6057900D01*
X+4124500Y-6057900D01*
X+4086400Y-6096000D02*
X+4086531Y-6092842D01*
X+4087597Y-6086524D01*
X+4089828Y-6080206D01*
X+4093473Y-6073888D01*
X+4099048Y-6067649D01*
X+4105366Y-6063053D01*
X+4111684Y-6060120D01*
X+4118002Y-6058458D01*
X+4124320Y-6057900D01*
X+4124500Y-6057900D01*
X+4086400Y-6096000D02*
X+4086531Y-6099158D01*
X+4087597Y-6105476D01*
X+4089828Y-6111794D01*
X+4093473Y-6118112D01*
X+4099048Y-6124351D01*
X+4105366Y-6128947D01*
X+4111684Y-6131880D01*
X+4118002Y-6133542D01*
X+4124320Y-6134100D01*
X+4124500Y-6134100D01*
X+4162600Y-6096000D02*
X+4162469Y-6099158D01*
X+4161403Y-6105476D01*
X+4159172Y-6111794D01*
X+4155527Y-6118112D01*
X+4149952Y-6124351D01*
X+4143634Y-6128947D01*
X+4137316Y-6131880D01*
X+4130998Y-6133542D01*
X+4124680Y-6134100D01*
X+4124500Y-6134100D01*
D47*
X+3975530Y-6006160D02*
X+4102093Y-6006160D01*
X+5273470Y-6006160D02*
X+5273470Y-5805500D01*
X+5149691Y-5805500D01*
X+3975530Y-5805500D02*
X+3975530Y-6006160D01*
X+5146907Y-6006160D02*
X+5273470Y-6006160D01*
X+5099309Y-5805500D02*
X+4949691Y-5805500D01*
X+4946907Y-6006160D02*
X+5102093Y-6006160D01*
X+4899309Y-5805500D02*
X+4749691Y-5805500D01*
X+4746907Y-6006160D02*
X+4902093Y-6006160D01*
X+4699309Y-5805500D02*
X+4549691Y-5805500D01*
X+4546907Y-6006160D02*
X+4702093Y-6006160D01*
X+4499309Y-5805500D02*
X+4349691Y-5805500D01*
X+4346907Y-6006160D02*
X+4502093Y-6006160D01*
X+4299309Y-5805500D02*
X+4149691Y-5805500D01*
X+4099309Y-5805500D02*
X+3975530Y-5805500D01*
X+4146907Y-6006160D02*
X+4302093Y-6006160D01*
D43*
X+4465750Y-5752160D02*
X+4449875Y-5767400D01*
X+4402250Y-5767400D01*
X+4370500Y-5736920D01*
X+4370500Y-5706440D01*
X+4402250Y-5675960D01*
X+4449875Y-5675960D01*
X+4465750Y-5691200D01*
X+4497500Y-5706440D02*
X+4529250Y-5675960D01*
X+4561000Y-5675960D01*
X+4592750Y-5706440D01*
X+4592750Y-5736920D01*
X+4561000Y-5767400D01*
X+4529250Y-5767400D01*
X+4497500Y-5736920D01*
X+4497500Y-5706440D01*
X+4624500Y-5767400D02*
X+4624500Y-5675960D01*
X+4719750Y-5767400D01*
X+4719750Y-5675960D01*
X+4783250Y-5706440D02*
X+4815000Y-5675960D01*
X+4815000Y-5767400D01*
D46*
X+5724600Y-6096000D02*
X+5724469Y-6092842D01*
X+5723403Y-6086524D01*
X+5721172Y-6080206D01*
X+5717527Y-6073888D01*
X+5711952Y-6067649D01*
X+5705634Y-6063053D01*
X+5699316Y-6060120D01*
X+5692998Y-6058458D01*
X+5686680Y-6057900D01*
X+5686500Y-6057900D01*
X+5648400Y-6096000D02*
X+5648531Y-6092842D01*
X+5649597Y-6086524D01*
X+5651828Y-6080206D01*
X+5655473Y-6073888D01*
X+5661048Y-6067649D01*
X+5667366Y-6063053D01*
X+5673684Y-6060120D01*
X+5680002Y-6058458D01*
X+5686320Y-6057900D01*
X+5686500Y-6057900D01*
X+5648400Y-6096000D02*
X+5648531Y-6099158D01*
X+5649597Y-6105476D01*
X+5651828Y-6111794D01*
X+5655473Y-6118112D01*
X+5661048Y-6124351D01*
X+5667366Y-6128947D01*
X+5673684Y-6131880D01*
X+5680002Y-6133542D01*
X+5686320Y-6134100D01*
X+5686500Y-6134100D01*
X+5724600Y-6096000D02*
X+5724469Y-6099158D01*
X+5723403Y-6105476D01*
X+5721172Y-6111794D01*
X+5717527Y-6118112D01*
X+5711952Y-6124351D01*
X+5705634Y-6128947D01*
X+5699316Y-6131880D01*
X+5692998Y-6133542D01*
X+5686680Y-6134100D01*
X+5686500Y-6134100D01*
D47*
X+5537530Y-6006160D02*
X+5664093Y-6006160D01*
X+6835470Y-6006160D02*
X+6835470Y-5805500D01*
X+6711691Y-5805500D01*
X+5537530Y-5805500D02*
X+5537530Y-6006160D01*
X+6708907Y-6006160D02*
X+6835470Y-6006160D01*
X+6661309Y-5805500D02*
X+6511691Y-5805500D01*
X+6508907Y-6006160D02*
X+6664093Y-6006160D01*
X+6461309Y-5805500D02*
X+6311691Y-5805500D01*
X+6308907Y-6006160D02*
X+6464093Y-6006160D01*
X+6261309Y-5805500D02*
X+6111691Y-5805500D01*
X+6108907Y-6006160D02*
X+6264093Y-6006160D01*
X+6061309Y-5805500D02*
X+5911691Y-5805500D01*
X+5908907Y-6006160D02*
X+6064093Y-6006160D01*
X+5861309Y-5805500D02*
X+5711691Y-5805500D01*
X+5661309Y-5805500D02*
X+5537530Y-5805500D01*
X+5708907Y-6006160D02*
X+5864093Y-6006160D01*
D43*
X+6027750Y-5752160D02*
X+6011875Y-5767400D01*
X+5964250Y-5767400D01*
X+5932500Y-5736920D01*
X+5932500Y-5706440D01*
X+5964250Y-5675960D01*
X+6011875Y-5675960D01*
X+6027750Y-5691200D01*
X+6059500Y-5706440D02*
X+6091250Y-5675960D01*
X+6123000Y-5675960D01*
X+6154750Y-5706440D01*
X+6154750Y-5736920D01*
X+6123000Y-5767400D01*
X+6091250Y-5767400D01*
X+6059500Y-5736920D01*
X+6059500Y-5706440D01*
X+6186500Y-5767400D02*
X+6186500Y-5675960D01*
X+6281750Y-5767400D01*
X+6281750Y-5675960D01*
X+6329375Y-5691200D02*
X+6345250Y-5675960D01*
X+6392875Y-5675960D01*
X+6408750Y-5691200D01*
X+6408750Y-5706440D01*
X+6392875Y-5721680D01*
X+6345250Y-5721680D01*
X+6329375Y-5736920D01*
X+6329375Y-5767400D01*
X+6408750Y-5767400D01*
D46*
X+5750100Y-5461000D02*
X+5749969Y-5457842D01*
X+5748903Y-5451524D01*
X+5746672Y-5445206D01*
X+5743027Y-5438888D01*
X+5737452Y-5432649D01*
X+5731134Y-5428053D01*
X+5724816Y-5425120D01*
X+5718498Y-5423458D01*
X+5712180Y-5422900D01*
X+5712000Y-5422900D01*
X+5673900Y-5461000D02*
X+5674031Y-5457842D01*
X+5675097Y-5451524D01*
X+5677328Y-5445206D01*
X+5680973Y-5438888D01*
X+5686548Y-5432649D01*
X+5692866Y-5428053D01*
X+5699184Y-5425120D01*
X+5705502Y-5423458D01*
X+5711820Y-5422900D01*
X+5712000Y-5422900D01*
X+5673900Y-5461000D02*
X+5674031Y-5464158D01*
X+5675097Y-5470476D01*
X+5677328Y-5476794D01*
X+5680973Y-5483112D01*
X+5686548Y-5489351D01*
X+5692866Y-5493947D01*
X+5699184Y-5496880D01*
X+5705502Y-5498542D01*
X+5711820Y-5499100D01*
X+5712000Y-5499100D01*
X+5750100Y-5461000D02*
X+5749969Y-5464158D01*
X+5748903Y-5470476D01*
X+5746672Y-5476794D01*
X+5743027Y-5483112D01*
X+5737452Y-5489351D01*
X+5731134Y-5493947D01*
X+5724816Y-5496880D01*
X+5718498Y-5498542D01*
X+5712180Y-5499100D01*
X+5712000Y-5499100D01*
D47*
X+5563030Y-5371160D02*
X+5689593Y-5371160D01*
X+6860970Y-5371160D02*
X+6860970Y-5170500D01*
X+6737191Y-5170500D01*
X+5563030Y-5170500D02*
X+5563030Y-5371160D01*
X+6734407Y-5371160D02*
X+6860970Y-5371160D01*
X+6686809Y-5170500D02*
X+6537191Y-5170500D01*
X+6534407Y-5371160D02*
X+6689593Y-5371160D01*
X+6486809Y-5170500D02*
X+6337191Y-5170500D01*
X+6334407Y-5371160D02*
X+6489593Y-5371160D01*
X+6286809Y-5170500D02*
X+6137191Y-5170500D01*
X+6134407Y-5371160D02*
X+6289593Y-5371160D01*
X+6086809Y-5170500D02*
X+5937191Y-5170500D01*
X+5934407Y-5371160D02*
X+6089593Y-5371160D01*
X+5886809Y-5170500D02*
X+5737191Y-5170500D01*
X+5686809Y-5170500D02*
X+5563030Y-5170500D01*
X+5734407Y-5371160D02*
X+5889593Y-5371160D01*
D43*
X+6021500Y-5132400D02*
X+6021500Y-5040960D01*
X+6100875Y-5040960D01*
X+6116750Y-5056200D01*
X+6116750Y-5071440D01*
X+6100875Y-5086680D01*
X+6021500Y-5086680D01*
X+6148500Y-5040960D02*
X+6148500Y-5132400D01*
X+6196125Y-5086680D01*
X+6243750Y-5132400D01*
X+6243750Y-5040960D01*
X+6275500Y-5132400D02*
X+6275500Y-5040960D01*
X+6323125Y-5086680D01*
X+6370750Y-5040960D01*
X+6370750Y-5132400D01*
D46*
X+1760831Y-6096000D02*
X+1760700Y-6092842D01*
X+1759634Y-6086524D01*
X+1757403Y-6080206D01*
X+1753758Y-6073888D01*
X+1748183Y-6067649D01*
X+1741865Y-6063053D01*
X+1735547Y-6060120D01*
X+1729229Y-6058458D01*
X+1722911Y-6057900D01*
X+1722731Y-6057900D01*
X+1684631Y-6096000D02*
X+1684762Y-6092842D01*
X+1685828Y-6086524D01*
X+1688059Y-6080206D01*
X+1691704Y-6073888D01*
X+1697279Y-6067649D01*
X+1703597Y-6063053D01*
X+1709915Y-6060120D01*
X+1716233Y-6058458D01*
X+1722551Y-6057900D01*
X+1722731Y-6057900D01*
X+1684631Y-6096000D02*
X+1684762Y-6099158D01*
X+1685828Y-6105476D01*
X+1688059Y-6111794D01*
X+1691704Y-6118112D01*
X+1697279Y-6124351D01*
X+1703597Y-6128947D01*
X+1709915Y-6131880D01*
X+1716233Y-6133542D01*
X+1722551Y-6134100D01*
X+1722731Y-6134100D01*
X+1760831Y-6096000D02*
X+1760700Y-6099158D01*
X+1759634Y-6105476D01*
X+1757403Y-6111794D01*
X+1753758Y-6118112D01*
X+1748183Y-6124351D01*
X+1741865Y-6128947D01*
X+1735547Y-6131880D01*
X+1729229Y-6133542D01*
X+1722911Y-6134100D01*
X+1722731Y-6134100D01*
D47*
X+1252881Y-6024880D02*
X+1792581Y-6024880D01*
X+1792581Y-5981365D01*
X+1792581Y-5786120D02*
X+1252881Y-5786120D01*
X+1252881Y-5829635D01*
X+1252881Y-5981365D02*
X+1252881Y-6024880D01*
X+1792581Y-5829635D02*
X+1792581Y-5786120D01*
D43*
X+1078231Y-5717540D02*
X+1109981Y-5717540D01*
X+1109981Y-5748020D01*
X+1046481Y-5748020D01*
X+1014731Y-5717540D01*
X+1014731Y-5687060D01*
X+1046481Y-5656580D01*
X+1094106Y-5656580D01*
X+1109981Y-5671820D01*
X+1141731Y-5763260D02*
X+1236981Y-5763260D01*
X+1363981Y-5656580D02*
X+1284606Y-5656580D01*
X+1284606Y-5687060D01*
X+1348106Y-5687060D01*
X+1363981Y-5702300D01*
X+1363981Y-5732780D01*
X+1348106Y-5748020D01*
X+1300481Y-5748020D01*
X+1284606Y-5732780D01*
X+1395731Y-5656580D02*
X+1395731Y-5702300D01*
X+1443356Y-5748020D01*
X+1490981Y-5702300D01*
X+1490981Y-5656580D01*
X+1522731Y-5763260D02*
X+1617981Y-5763260D01*
X+1665606Y-5671820D02*
X+1681481Y-5656580D01*
X+1729106Y-5656580D01*
X+1744981Y-5671820D01*
X+1744981Y-5687060D01*
X+1729106Y-5702300D01*
X+1744981Y-5717540D01*
X+1744981Y-5732780D01*
X+1729106Y-5748020D01*
X+1681481Y-5748020D01*
X+1665606Y-5732780D01*
X+1697356Y-5702300D02*
X+1729106Y-5702300D01*
X+1776731Y-5656580D02*
X+1776731Y-5702300D01*
X+1824356Y-5748020D01*
X+1871981Y-5702300D01*
X+1871981Y-5656580D01*
X+1919606Y-5671820D02*
X+1935481Y-5656580D01*
X+1983106Y-5656580D01*
X+1998981Y-5671820D01*
X+1998981Y-5687060D01*
X+1983106Y-5702300D01*
X+1998981Y-5717540D01*
X+1998981Y-5732780D01*
X+1983106Y-5748020D01*
X+1935481Y-5748020D01*
X+1919606Y-5732780D01*
X+1951356Y-5702300D02*
X+1983106Y-5702300D01*
D48*
X+2214500Y-3488500D02*
X+2212969Y-3449400D01*
X+2200546Y-3371199D01*
X+2174694Y-3292998D01*
X+2132934Y-3214797D01*
X+2069695Y-3136596D01*
X+1991502Y-3072243D01*
X+1913301Y-3029721D01*
X+1835100Y-3003262D01*
X+1756899Y-2990301D01*
X+1714500Y-2988500D01*
X+1214500Y-3488500D02*
X+1216031Y-3449400D01*
X+1228454Y-3371199D01*
X+1254306Y-3292998D01*
X+1296066Y-3214797D01*
X+1359305Y-3136596D01*
X+1437498Y-3072243D01*
X+1515699Y-3029721D01*
X+1593900Y-3003262D01*
X+1672101Y-2990301D01*
X+1714500Y-2988500D01*
X+1214500Y-3488500D02*
X+1216031Y-3527600D01*
X+1228454Y-3605801D01*
X+1254306Y-3684002D01*
X+1296066Y-3762203D01*
X+1359305Y-3840404D01*
X+1437498Y-3904757D01*
X+1515699Y-3947279D01*
X+1593900Y-3973738D01*
X+1672101Y-3986699D01*
X+1714500Y-3988500D01*
X+2214500Y-3488500D02*
X+2212969Y-3527600D01*
X+2200546Y-3605801D01*
X+2174694Y-3684002D01*
X+2132934Y-3762203D01*
X+2069695Y-3840404D01*
X+1991502Y-3904757D01*
X+1913301Y-3947279D01*
X+1835100Y-3973738D01*
X+1756899Y-3986699D01*
X+1714500Y-3988500D01*
D45*
X+1348500Y-3864500D02*
X+1348465Y-3863669D01*
X+1348184Y-3862005D01*
X+1347594Y-3860341D01*
X+1346630Y-3858677D01*
X+1345155Y-3857036D01*
X+1343491Y-3855835D01*
X+1341827Y-3855070D01*
X+1340163Y-3854639D01*
X+1338500Y-3854500D01*
X+1328500Y-3864500D02*
X+1328535Y-3863669D01*
X+1328816Y-3862005D01*
X+1329406Y-3860341D01*
X+1330370Y-3858677D01*
X+1331845Y-3857036D01*
X+1333509Y-3855835D01*
X+1335173Y-3855070D01*
X+1336837Y-3854639D01*
X+1338500Y-3854500D01*
X+1328500Y-3864500D02*
X+1328535Y-3865331D01*
X+1328816Y-3866995D01*
X+1329406Y-3868659D01*
X+1330370Y-3870323D01*
X+1331845Y-3871964D01*
X+1333509Y-3873165D01*
X+1335173Y-3873930D01*
X+1336837Y-3874361D01*
X+1338500Y-3874500D01*
X+1348500Y-3864500D02*
X+1348465Y-3865331D01*
X+1348184Y-3866995D01*
X+1347594Y-3868659D01*
X+1346630Y-3870323D01*
X+1345155Y-3871964D01*
X+1343491Y-3873165D01*
X+1341827Y-3873930D01*
X+1340163Y-3874361D01*
X+1338500Y-3874500D01*
D43*
X+2776965Y-1422400D02*
X+2776965Y-1104900D01*
X+1887965Y-1104900D01*
X+1887965Y-1422400D01*
X+2649965Y-1104900D02*
X+2649965Y-977900D01*
X+2586465Y-977900D02*
X+2586465Y-1104900D01*
X+2649965Y-977900D02*
X+2586465Y-977900D01*
X+2395965Y-1104900D02*
X+2395965Y-1041400D01*
X+2268965Y-1041400D01*
X+2268965Y-1104900D01*
X+2078465Y-1104900D02*
X+2078465Y-977900D01*
X+2014965Y-977900D01*
X+2014965Y-1104900D01*
X+1651000Y+25400D02*
X+1651000Y-292100D01*
X+2540000Y-292100D01*
X+2540000Y+25400D01*
X+1778000Y-292100D02*
X+1778000Y-419100D01*
X+1841500Y-419100D02*
X+1841500Y-292100D01*
X+1778000Y-419100D02*
X+1841500Y-419100D01*
X+2032000Y-292100D02*
X+2032000Y-355600D01*
X+2159000Y-355600D01*
X+2159000Y-292100D01*
X+2349500Y-292100D02*
X+2349500Y-419100D01*
X+2413000Y-419100D01*
X+2413000Y-292100D01*
X+9423400Y-4191000D02*
X+9423400Y-4076700D01*
X+9398000Y-4076700D01*
X+9372600Y-4095750D01*
X+9372600Y-4171950D01*
X+9398000Y-4191000D01*
X+9448800Y-4191000D01*
X+9474200Y-4171950D01*
X+9474200Y-4095750D01*
X+9474200Y-4038600D02*
X+9321800Y-4038600D01*
X+9321800Y-3943350D01*
X+9347200Y-3924300D01*
X+9372600Y-3924300D01*
X+9398000Y-3943350D01*
X+9423400Y-3924300D01*
X+9448800Y-3924300D01*
X+9474200Y-3943350D01*
X+9474200Y-4038600D01*
X+9398000Y-4038600D02*
X+9398000Y-3943350D01*
X+9372600Y-3829050D02*
X+9474200Y-3829050D01*
X+9321800Y-3829050D02*
X+9321800Y-3829050D01*
X+9321800Y-3733800D02*
X+9474200Y-3733800D01*
X+9448800Y-3733800D02*
X+9372600Y-3619500D01*
X+9423400Y-3695700D02*
X+9474200Y-3619500D01*
X+9423400Y-3581400D02*
X+9423400Y-3467100D01*
X+9398000Y-3467100D01*
X+9372600Y-3486150D01*
X+9372600Y-3562350D01*
X+9398000Y-3581400D01*
X+9448800Y-3581400D01*
X+9474200Y-3562350D01*
X+9474200Y-3486150D01*
X+9321800Y-3257550D02*
X+9321800Y-3181350D01*
X+9321800Y-3219450D02*
X+9474200Y-3219450D01*
X+9474200Y-3257550D02*
X+9474200Y-3181350D01*
X+9474200Y-3124200D02*
X+9372600Y-3124200D01*
X+9398000Y-3124200D02*
X+9372600Y-3105150D01*
X+9372600Y-3028950D01*
X+9398000Y-3009900D01*
X+9474200Y-3009900D01*
X+9372600Y-2971800D02*
X+9474200Y-2914650D01*
X+9372600Y-2857500D01*
X+9423400Y-2819400D02*
X+9423400Y-2705100D01*
X+9398000Y-2705100D01*
X+9372600Y-2724150D01*
X+9372600Y-2800350D01*
X+9398000Y-2819400D01*
X+9448800Y-2819400D01*
X+9474200Y-2800350D01*
X+9474200Y-2724150D01*
X+9474200Y-2667000D02*
X+9372600Y-2667000D01*
X+9398000Y-2667000D02*
X+9372600Y-2647950D01*
X+9372600Y-2571750D01*
X+9398000Y-2552700D01*
X+9321800Y-2495550D02*
X+9448800Y-2495550D01*
X+9474200Y-2476500D01*
X+9474200Y-2419350D01*
X+9448800Y-2400300D01*
X+9372600Y-2514600D02*
X+9372600Y-2419350D01*
X+9423400Y-2362200D02*
X+9423400Y-2247900D01*
X+9398000Y-2247900D01*
X+9372600Y-2266950D01*
X+9372600Y-2343150D01*
X+9398000Y-2362200D01*
X+9448800Y-2362200D01*
X+9474200Y-2343150D01*
X+9474200Y-2266950D01*
X+9474200Y-2209800D02*
X+9372600Y-2209800D01*
X+9398000Y-2209800D02*
X+9372600Y-2190750D01*
X+9372600Y-2114550D01*
X+9398000Y-2095500D01*
X+9372600Y-1905000D02*
X+9474200Y-1847850D01*
X+9372600Y-1790700D01*
X+9321800Y-1638300D02*
X+9321800Y-1733550D01*
X+9372600Y-1733550D01*
X+9372600Y-1657350D01*
X+9398000Y-1638300D01*
X+9448800Y-1638300D01*
X+9474200Y-1657350D01*
X+9474200Y-1714500D01*
X+9448800Y-1733550D01*
X+9321800Y-1333500D02*
X+9474200Y-1447800D01*
X+9474200Y-1143000D02*
X+9372600Y-1143000D01*
X+9321800Y-1104900D01*
X+9321800Y-1066800D01*
X+9372600Y-1028700D01*
X+9474200Y-1028700D01*
X+9423400Y-1143000D02*
X+9423400Y-1028700D01*
X+9321800Y-990600D02*
X+9321800Y-876300D01*
X+9321800Y-933450D02*
X+9474200Y-933450D01*
X+2921000Y+38100D02*
X+2921000Y-279400D01*
X+3810000Y-279400D01*
X+3810000Y+38100D01*
X+3048000Y-279400D02*
X+3048000Y-406400D01*
X+3111500Y-406400D02*
X+3111500Y-279400D01*
X+3048000Y-406400D02*
X+3111500Y-406400D01*
X+3302000Y-279400D02*
X+3302000Y-342900D01*
X+3429000Y-342900D01*
X+3429000Y-279400D01*
X+3619500Y-279400D02*
X+3619500Y-406400D01*
X+3683000Y-406400D01*
X+3683000Y-279400D01*
X+3556000Y-1917700D02*
X+3556000Y-2235200D01*
X+4445000Y-2235200D01*
X+4445000Y-1917700D01*
X+3683000Y-2235200D02*
X+3683000Y-2362200D01*
X+3746500Y-2362200D02*
X+3746500Y-2235200D01*
X+3683000Y-2362200D02*
X+3746500Y-2362200D01*
X+3937000Y-2235200D02*
X+3937000Y-2298700D01*
X+4064000Y-2298700D01*
X+4064000Y-2235200D01*
X+4254500Y-2235200D02*
X+4254500Y-2362200D01*
X+4318000Y-2362200D01*
X+4318000Y-2235200D01*
X+5257800Y+38100D02*
X+5257800Y-279400D01*
X+6146800Y-279400D01*
X+6146800Y+38100D01*
X+5384800Y-279400D02*
X+5384800Y-406400D01*
X+5448300Y-406400D02*
X+5448300Y-279400D01*
X+5384800Y-406400D02*
X+5448300Y-406400D01*
X+5638800Y-279400D02*
X+5638800Y-342900D01*
X+5765800Y-342900D01*
X+5765800Y-279400D01*
X+5956300Y-279400D02*
X+5956300Y-406400D01*
X+6019800Y-406400D01*
X+6019800Y-279400D01*
X+5905500Y-1917700D02*
X+5905500Y-2235200D01*
X+6794500Y-2235200D01*
X+6794500Y-1917700D01*
X+6032500Y-2235200D02*
X+6032500Y-2362200D01*
X+6096000Y-2362200D02*
X+6096000Y-2235200D01*
X+6032500Y-2362200D02*
X+6096000Y-2362200D01*
X+6286500Y-2235200D02*
X+6286500Y-2298700D01*
X+6413500Y-2298700D01*
X+6413500Y-2235200D01*
X+6604000Y-2235200D02*
X+6604000Y-2362200D01*
X+6667500Y-2362200D01*
X+6667500Y-2235200D01*
X+7543800Y+38100D02*
X+7543800Y-279400D01*
X+8432800Y-279400D01*
X+8432800Y+38100D01*
X+7670800Y-279400D02*
X+7670800Y-406400D01*
X+7734300Y-406400D02*
X+7734300Y-279400D01*
X+7670800Y-406400D02*
X+7734300Y-406400D01*
X+7924800Y-279400D02*
X+7924800Y-342900D01*
X+8051800Y-342900D01*
X+8051800Y-279400D01*
X+8242300Y-279400D02*
X+8242300Y-406400D01*
X+8305800Y-406400D01*
X+8305800Y-279400D01*
X+8191500Y-1917700D02*
X+8191500Y-2235200D01*
X+9080500Y-2235200D01*
X+9080500Y-1917700D01*
X+8318500Y-2235200D02*
X+8318500Y-2362200D01*
X+8382000Y-2362200D02*
X+8382000Y-2235200D01*
X+8318500Y-2362200D02*
X+8382000Y-2362200D01*
X+8572500Y-2235200D02*
X+8572500Y-2298700D01*
X+8699500Y-2298700D01*
X+8699500Y-2235200D01*
X+8890000Y-2235200D02*
X+8890000Y-2362200D01*
X+8953500Y-2362200D01*
X+8953500Y-2235200D01*
M02*
