G04 PROTEUS GERBER X2 FILE*
%TF.GenerationSoftware,Labcenter,Proteus,8.7-SP3-Build25561*%
%TF.CreationDate,2021-07-01T20:15:02+00:00*%
%TF.FileFunction,Paste,Top*%
%TF.FilePolarity,Positive*%
%TF.Part,Single*%
%TF.SameCoordinates,{0ff4b75a-929f-468c-805a-ac40d57636d7}*%
%FSLAX45Y45*%
%MOMM*%
G01*
%TA.AperFunction,Material*%
%ADD89R,4.572000X1.651000*%
%ADD90R,1.651000X1.651000*%
%TA.AperFunction,Material*%
%ADD91R,3.810000X2.032000*%
%TA.AperFunction,Material*%
%ADD92R,6.985000X6.985000*%
%ADD93R,1.524000X2.540000*%
%TA.AperFunction,Material*%
%ADD94R,0.889000X0.635000*%
%ADD95R,1.143000X1.803400*%
%TA.AperFunction,Material*%
%ADD96R,1.143000X5.207000*%
%ADD97R,10.744200X9.550400*%
%TA.AperFunction,Material*%
%ADD98R,1.193800X5.308600*%
%ADD99R,1.524000X0.889000*%
%ADD100R,1.803400X1.143000*%
%TA.AperFunction,Material*%
%ADD101R,0.635000X2.032000*%
%TA.AperFunction,Material*%
%ADD102R,1.651000X3.048000*%
%TA.AperFunction,Material*%
%ADD103R,0.889000X1.016000*%
%ADD104R,1.016000X0.889000*%
%ADD105R,11.430000X8.890000*%
%ADD106R,2.032000X3.810000*%
%TA.AperFunction,Profile*%
%ADD39C,0.203200*%
%TD.AperFunction*%
D89*
X+6667500Y+1016000D03*
X+6667500Y+127000D03*
D90*
X+7048500Y+127000D03*
X+7048500Y+1016000D03*
D89*
X+8953500Y+1016000D03*
X+8953500Y+127000D03*
D90*
X+9334500Y+127000D03*
X+9334500Y+1016000D03*
D89*
X+4318000Y+1016000D03*
X+4318000Y+127000D03*
D90*
X+4699000Y+127000D03*
X+4699000Y+1016000D03*
D91*
X+952500Y-3048000D03*
X+63500Y-3048000D03*
X+698500Y-1905000D03*
X-190500Y-1905000D03*
D92*
X-546100Y-3309620D03*
D93*
X-774700Y-4000500D03*
X-317500Y-4000500D03*
D94*
X-762000Y-4553000D03*
X-762000Y-4318050D03*
D95*
X-508000Y-4318000D03*
X-218000Y-4318000D03*
D91*
X+254000Y-4191000D03*
X+1143000Y-4191000D03*
D96*
X+2453640Y-4000500D03*
X+2623820Y-4000500D03*
X+2794000Y-4000500D03*
X+2964180Y-4000500D03*
X+3134360Y-4000500D03*
D97*
X+2794000Y-3048000D03*
D98*
X+2187500Y-4699000D03*
X+1587500Y-4699000D03*
D99*
X+2469837Y-4946337D03*
X+2469837Y-4606337D03*
D95*
X-508000Y-4572000D03*
X-208000Y-4572000D03*
D100*
X+2984500Y-4699000D03*
X+2984500Y-4989000D03*
D95*
X+3274500Y-4445000D03*
X+2984500Y-4445000D03*
X+173000Y-1460500D03*
X-127000Y-1460500D03*
X+173000Y-952500D03*
X-127000Y-952500D03*
X+173000Y-1206500D03*
X-127000Y-1206500D03*
D100*
X+381000Y+1778000D03*
X+381000Y+1478000D03*
X+1714500Y+1760500D03*
X+1714500Y+1460500D03*
D95*
X+889000Y-1143000D03*
X+1189000Y-1143000D03*
X+1887500Y-5207000D03*
X+1587500Y-5207000D03*
D100*
X+6032500Y-2948500D03*
X+6032500Y-3238500D03*
X+5651500Y-2948500D03*
X+5651500Y-3238500D03*
D101*
X+5588000Y-4013200D03*
X+5715000Y-4013200D03*
X+5842000Y-4013200D03*
X+5969000Y-4013200D03*
X+5969000Y-3492500D03*
X+5842000Y-3492500D03*
X+5715000Y-3492500D03*
X+5588000Y-3492500D03*
X+6985000Y-4013200D03*
X+7112000Y-4013200D03*
X+7239000Y-4013200D03*
X+7366000Y-4013200D03*
X+7366000Y-3492500D03*
X+7239000Y-3492500D03*
X+7112000Y-3492500D03*
X+6985000Y-3492500D03*
X+8382000Y-4013200D03*
X+8509000Y-4013200D03*
X+8636000Y-4013200D03*
X+8763000Y-4013200D03*
X+8763000Y-3492500D03*
X+8636000Y-3492500D03*
X+8509000Y-3492500D03*
X+8382000Y-3492500D03*
D100*
X+7048500Y-2948500D03*
X+7048500Y-3238500D03*
D102*
X+5207000Y-3492500D03*
X+5207000Y-3873500D03*
X+6604000Y-3492500D03*
X+6604000Y-3873500D03*
X+8001000Y-3492500D03*
X+8001000Y-3873500D03*
D94*
X+4953000Y-4381500D03*
X+4953000Y-4146550D03*
X+6350000Y-4362450D03*
X+6350000Y-4127500D03*
X+7778750Y-4330700D03*
X+7778750Y-4095750D03*
D100*
X+6159500Y-3619500D03*
X+6159500Y-3919500D03*
X+7556500Y-3619500D03*
X+7556500Y-3919500D03*
X+8953500Y-3619500D03*
X+8953500Y-3919500D03*
X+7429500Y-2948500D03*
X+7429500Y-3238500D03*
X+8445500Y-2948500D03*
X+8445500Y-3238500D03*
X+8826500Y-2948500D03*
X+8826500Y-3238500D03*
X+5651500Y-4544500D03*
X+5651500Y-4254500D03*
X+5923000Y-4544500D03*
X+5923000Y-4254500D03*
X+7048500Y-4544500D03*
X+7048500Y-4254500D03*
X+5016500Y-698500D03*
X+5016500Y-988500D03*
X+4762500Y-218000D03*
X+4762500Y-508000D03*
X+5016500Y-1714500D03*
X+5016500Y-2004500D03*
X+4762500Y-1206500D03*
X+4762500Y-1496500D03*
X+5016500Y-208000D03*
X+5016500Y-508000D03*
X+4762500Y-698500D03*
X+4762500Y-998500D03*
X+5016500Y-1206500D03*
X+5016500Y-1506500D03*
X+4762500Y-1714500D03*
X+4762500Y-2014500D03*
X+7366000Y-190500D03*
X+7366000Y-490500D03*
X+7112000Y-698500D03*
X+7112000Y-998500D03*
X+7366000Y-1206500D03*
X+7366000Y-1506500D03*
X+7112000Y-1714500D03*
X+7112000Y-2014500D03*
X+7366000Y-698500D03*
X+7366000Y-988500D03*
X+7112000Y-190500D03*
X+7112000Y-480500D03*
X+7366000Y-1714500D03*
X+7366000Y-2004500D03*
X+7112000Y-1206500D03*
X+7112000Y-1496500D03*
D103*
X+3522980Y-3619500D03*
X+3429000Y-3810000D03*
X+3616960Y-3810000D03*
X+4094480Y-3619500D03*
X+4000500Y-3810000D03*
X+4188460Y-3810000D03*
D104*
X+4445000Y-4160520D03*
X+4635500Y-4254500D03*
X+4635500Y-4066540D03*
D94*
X+3810000Y-3575050D03*
X+3810000Y-3810000D03*
X+3429000Y-3937000D03*
X+3429000Y-4171950D03*
X+4381500Y-3575050D03*
X+4381500Y-3810000D03*
X+4000500Y-3937000D03*
X+4000500Y-4171950D03*
D95*
X+3520000Y-3365500D03*
X+3810000Y-3365500D03*
X+3520000Y-3111500D03*
X+3810000Y-3111500D03*
X+4381500Y-3365500D03*
X+4091500Y-3365500D03*
D100*
X+4635500Y-3075500D03*
X+4635500Y-3365500D03*
X+4635500Y-3873500D03*
X+4635500Y-3573500D03*
D95*
X+4381500Y-3111500D03*
X+4081500Y-3111500D03*
D100*
X+8699500Y-4544500D03*
X+8699500Y-4254500D03*
D91*
X+63500Y-5334000D03*
X+952500Y-5334000D03*
D95*
X+6350000Y-6159500D03*
X+6050000Y-6159500D03*
D100*
X+8245500Y-5570500D03*
X+8245500Y-5270500D03*
X+7483500Y-5570499D03*
X+7483500Y-5270500D03*
X-762000Y+63500D03*
X-762000Y-236500D03*
X+7302500Y-4544500D03*
X+7302500Y-4254500D03*
X+8445500Y-4544500D03*
X+8445500Y-4254500D03*
X+8753500Y-5635301D03*
X+8753500Y-5925301D03*
X+7991500Y-5270500D03*
X+7991500Y-5560500D03*
X+7737500Y-5270500D03*
X+7737500Y-5560500D03*
X+8499500Y-5270500D03*
X+8499500Y-5560500D03*
X+7229500Y-5270500D03*
X+7229500Y-5560500D03*
D105*
X+2332465Y-1930400D03*
D106*
X+2586465Y-698500D03*
X+2078465Y-698500D03*
D105*
X+2095500Y+533400D03*
D106*
X+1841500Y-698500D03*
X+2349500Y-698500D03*
D105*
X+3365500Y+546100D03*
D106*
X+3111500Y-685800D03*
X+3619500Y-685800D03*
D105*
X+4000500Y-1409700D03*
D106*
X+3746500Y-2641600D03*
X+4254500Y-2641600D03*
D105*
X+5702300Y+546100D03*
D106*
X+5448300Y-685800D03*
X+5956300Y-685800D03*
D105*
X+6350000Y-1409700D03*
D106*
X+6096000Y-2641600D03*
X+6604000Y-2641600D03*
D105*
X+7988300Y+546100D03*
D106*
X+7734300Y-685800D03*
X+8242300Y-685800D03*
D105*
X+8636000Y-1409700D03*
D106*
X+8382000Y-2641600D03*
X+8890000Y-2641600D03*
D39*
X-1079500Y-6413500D02*
X+9715500Y-6413500D01*
X+9715500Y+2349500D01*
X-1079500Y+2349500D01*
X-1079500Y-6413500D01*
M02*
