G04 PROTEUS GERBER X2 FILE*
%TF.GenerationSoftware,Labcenter,Proteus,8.7-SP3-Build25561*%
%TF.CreationDate,2021-07-01T20:15:02+00:00*%
%TF.FileFunction,Soldermask,Bot*%
%TF.FilePolarity,Negative*%
%TF.Part,Single*%
%TF.SameCoordinates,{0ff4b75a-929f-468c-805a-ac40d57636d7}*%
%FSLAX45Y45*%
%MOMM*%
G01*
%TA.AperFunction,Material*%
%ADD51C,1.270000*%
%ADD52C,2.032000*%
%ADD53C,1.016000*%
%TA.AperFunction,Material*%
%ADD56C,5.334000*%
%AMPPAD071*
4,1,4,
-0.901700,0.571500,
-0.901700,-0.571500,
0.901700,-0.571500,
0.901700,0.571500,
-0.901700,0.571500,
0*%
%TA.AperFunction,Material*%
%ADD81PPAD071*%
%AMPPAD072*
4,1,36,
3.492500,3.619500,
-3.492500,3.619500,
-3.518470,3.616970,
-3.542480,3.609700,
-3.564080,3.598150,
-3.582790,3.582790,
-3.598150,3.564070,
-3.609700,3.542480,
-3.616970,3.518470,
-3.619500,3.492500,
-3.619500,-3.492500,
-3.616970,-3.518470,
-3.609700,-3.542480,
-3.598150,-3.564070,
-3.582790,-3.582790,
-3.564080,-3.598150,
-3.542480,-3.609700,
-3.518470,-3.616970,
-3.492500,-3.619500,
3.492500,-3.619500,
3.518470,-3.616970,
3.542480,-3.609700,
3.564080,-3.598150,
3.582790,-3.582790,
3.598150,-3.564070,
3.609700,-3.542480,
3.616970,-3.518470,
3.619500,-3.492500,
3.619500,3.492500,
3.616970,3.518470,
3.609700,3.542480,
3.598150,3.564070,
3.582790,3.582790,
3.564080,3.598150,
3.542480,3.609700,
3.518470,3.616970,
3.492500,3.619500,
0*%
%TA.AperFunction,Material*%
%ADD82PPAD072*%
%AMPPAD073*
4,1,36,
0.762000,1.397000,
-0.762000,1.397000,
-0.787970,1.394470,
-0.811980,1.387200,
-0.833580,1.375650,
-0.852290,1.360290,
-0.867650,1.341570,
-0.879200,1.319980,
-0.886470,1.295970,
-0.889000,1.270000,
-0.889000,-1.270000,
-0.886470,-1.295970,
-0.879200,-1.319980,
-0.867650,-1.341570,
-0.852290,-1.360290,
-0.833580,-1.375650,
-0.811980,-1.387200,
-0.787970,-1.394470,
-0.762000,-1.397000,
0.762000,-1.397000,
0.787970,-1.394470,
0.811980,-1.387200,
0.833580,-1.375650,
0.852290,-1.360290,
0.867650,-1.341570,
0.879200,-1.319980,
0.886470,-1.295970,
0.889000,-1.270000,
0.889000,1.270000,
0.886470,1.295970,
0.879200,1.319980,
0.867650,1.341570,
0.852290,1.360290,
0.833580,1.375650,
0.811980,1.387200,
0.787970,1.394470,
0.762000,1.397000,
0*%
%ADD83PPAD073*%
%AMPPAD074*
4,1,4,
0.571500,0.901700,
-0.571500,0.901700,
-0.571500,-0.901700,
0.571500,-0.901700,
0.571500,0.901700,
0*%
%TA.AperFunction,Material*%
%ADD84PPAD074*%
%AMPPAD075*
4,1,36,
0.901700,-0.025400,
0.901700,0.025400,
0.898160,0.061750,
0.887980,0.095370,
0.871810,0.125600,
0.850300,0.151800,
0.824110,0.173310,
0.793870,0.189480,
0.760250,0.199660,
0.723900,0.203200,
-0.723900,0.203200,
-0.760250,0.199660,
-0.793870,0.189480,
-0.824110,0.173310,
-0.850300,0.151800,
-0.871810,0.125600,
-0.887980,0.095370,
-0.898160,0.061750,
-0.901700,0.025400,
-0.901700,-0.025400,
-0.898160,-0.061750,
-0.887980,-0.095370,
-0.871810,-0.125600,
-0.850300,-0.151800,
-0.824110,-0.173310,
-0.793870,-0.189480,
-0.760250,-0.199660,
-0.723900,-0.203200,
0.723900,-0.203200,
0.760250,-0.199660,
0.793870,-0.189480,
0.824110,-0.173310,
0.850300,-0.151800,
0.871810,-0.125600,
0.887980,-0.095370,
0.898160,-0.061750,
0.901700,-0.025400,
0*%
%TA.AperFunction,Material*%
%ADD85PPAD075*%
%AMPPAD076*
4,1,36,
-0.508000,-0.889000,
0.508000,-0.889000,
0.533970,-0.886470,
0.557980,-0.879200,
0.579580,-0.867650,
0.598290,-0.852290,
0.613650,-0.833570,
0.625200,-0.811980,
0.632470,-0.787970,
0.635000,-0.762000,
0.635000,0.762000,
0.632470,0.787970,
0.625200,0.811980,
0.613650,0.833570,
0.598290,0.852290,
0.579580,0.867650,
0.557980,0.879200,
0.533970,0.886470,
0.508000,0.889000,
-0.508000,0.889000,
-0.533970,0.886470,
-0.557980,0.879200,
-0.579580,0.867650,
-0.598290,0.852290,
-0.613650,0.833570,
-0.625200,0.811980,
-0.632470,0.787970,
-0.635000,0.762000,
-0.635000,-0.762000,
-0.632470,-0.787970,
-0.625200,-0.811980,
-0.613650,-0.833570,
-0.598290,-0.852290,
-0.579580,-0.867650,
-0.557980,-0.879200,
-0.533970,-0.886470,
-0.508000,-0.889000,
0*%
%TA.AperFunction,Material*%
%ADD86PPAD076*%
%TA.AperFunction,Material*%
%ADD75C,1.397000*%
%TA.AperFunction,Material*%
%ADD76C,3.556000*%
%TA.AperFunction,Material*%
%ADD77C,6.604000*%
%TA.AperFunction,Material*%
%ADD78C,2.794000*%
%AMPPAD077*
4,1,4,
-0.469900,-0.723900,
0.469900,-0.723900,
0.469900,0.723900,
-0.469900,0.723900,
-0.469900,-0.723900,
0*%
%ADD87PPAD077*%
%AMPPAD078*
4,1,36,
-0.444500,-0.635000,
0.444500,-0.635000,
0.470470,-0.632470,
0.494480,-0.625200,
0.516080,-0.613650,
0.534790,-0.598290,
0.550150,-0.579570,
0.561700,-0.557980,
0.568970,-0.533970,
0.571500,-0.508000,
0.571500,0.508000,
0.568970,0.533970,
0.561700,0.557980,
0.550150,0.579570,
0.534790,0.598290,
0.516080,0.613650,
0.494480,0.625200,
0.470470,0.632470,
0.444500,0.635000,
-0.444500,0.635000,
-0.470470,0.632470,
-0.494480,0.625200,
-0.516080,0.613650,
-0.534790,0.598290,
-0.550150,0.579570,
-0.561700,0.557980,
-0.568970,0.533970,
-0.571500,0.508000,
-0.571500,-0.508000,
-0.568970,-0.533970,
-0.561700,-0.557980,
-0.550150,-0.579570,
-0.534790,-0.598290,
-0.516080,-0.613650,
-0.494480,-0.625200,
-0.470470,-0.632470,
-0.444500,-0.635000,
0*%
%TA.AperFunction,Material*%
%ADD88PPAD078*%
%TA.AperFunction,Profile*%
%ADD39C,0.203200*%
%TD.AperFunction*%
D51*
X+3225800Y+1174750D03*
X+3479800Y+1174750D03*
X+5257800Y+1174750D03*
X+5511800Y+1174750D03*
X+5765800Y+1174750D03*
X+7543800Y+1174750D03*
X+7797800Y+1174750D03*
X+3098800Y+1394720D03*
X+3352800Y+1394720D03*
X+4876800Y+1394720D03*
X+5130800Y+1394720D03*
X+5384800Y+1394720D03*
X+5638800Y+1394720D03*
X+7162800Y+1394720D03*
X+7416800Y+1394720D03*
X+7670800Y+1394720D03*
X+4749800Y+1614690D03*
X+5003800Y+1614690D03*
X+5257800Y+1614690D03*
X+5511800Y+1614690D03*
X+5765800Y+1614690D03*
X+7289800Y+1614690D03*
X+7543800Y+1614690D03*
X+7797800Y+1614690D03*
X+4876800Y+1834660D03*
X+5130800Y+1834660D03*
X+5384800Y+1834660D03*
X+5638800Y+1834660D03*
X+7162800Y+1834660D03*
X+7416800Y+1834660D03*
X+7670800Y+1834660D03*
X+4749800Y+2054630D03*
X+5003800Y+2054630D03*
X+5257800Y+2054630D03*
X+5511800Y+2054630D03*
X+5765800Y+2054630D03*
X+7289800Y+2054630D03*
X+7543800Y+2054630D03*
X+7797800Y+2054630D03*
X+5562600Y-1497654D03*
X+5461000Y-1321678D03*
X+5562600Y-1145702D03*
X+5715000Y-444500D03*
X+5689600Y-812800D03*
X+5689600Y-647700D03*
X+6375400Y-793750D03*
X+6578600Y-793750D03*
X+6781800Y-793750D03*
X+6477000Y-617774D03*
X+6680200Y-617774D03*
X+6781800Y-441798D03*
X+5664200Y-265822D03*
X+5867400Y-265822D03*
X+6070600Y-265822D03*
X+6273800Y-265822D03*
X+6477000Y-265822D03*
X+5562600Y-89846D03*
X+5765800Y-89846D03*
X+5969000Y-89846D03*
X+6172200Y-89846D03*
X+6375400Y-89846D03*
X+6781800Y-89846D03*
X+7848600Y-1497654D03*
X+7747000Y-1321678D03*
X+7848600Y-1145702D03*
X+8001000Y-800100D03*
X+8026400Y-596900D03*
X+8661400Y-793750D03*
X+8763000Y-617774D03*
X+7950200Y-265822D03*
X+8153400Y-265822D03*
X+8356600Y-265822D03*
X+8559800Y-265822D03*
X+8763000Y-265822D03*
X+7848600Y-89846D03*
X+8051800Y-89846D03*
X+8255000Y-89846D03*
X+8458200Y-89846D03*
X+8661400Y-89846D03*
X+3213100Y-1497654D03*
X+3111500Y-1321678D03*
X+3213100Y-1145702D03*
X+4127500Y-617774D03*
X+4330700Y-617774D03*
X+3314700Y-265822D03*
X+3517900Y-265822D03*
X+3721100Y-265822D03*
X+3924300Y-265822D03*
X+4127500Y-265822D03*
X+3213100Y-89846D03*
X+3416300Y-89846D03*
X+3619500Y-89846D03*
X+3822700Y-89846D03*
X+4025900Y-89846D03*
X+4432300Y-89846D03*
X+4013200Y+1052310D03*
X+3911600Y+1228286D03*
X+4114800Y+1228286D03*
X+3810000Y+1404262D03*
X+4013200Y+1404262D03*
X+3911600Y+1580238D03*
X+3810000Y+1756214D03*
X+3937000Y+1905000D03*
X+8597900Y+1228286D03*
X+8801100Y+1228286D03*
X+8597900Y+1580238D03*
X+8636000Y+1905000D03*
X+6363969Y+1052310D03*
X+6262369Y+1228286D03*
X+6465569Y+1228286D03*
X+6160769Y+1404262D03*
X+6363969Y+1404262D03*
X+6262369Y+1580238D03*
X+6160769Y+1756214D03*
X+6286500Y+1905000D03*
X+7747000Y-3429000D03*
X+6428649Y-3363510D03*
X+3111500Y-1673630D03*
X+4127500Y-793750D03*
X+4381500Y-793750D03*
X+5003800Y+1174750D03*
X-127000Y-4953000D03*
D52*
X+63500Y-3492500D03*
D51*
X+1870921Y-3983646D03*
X+1599186Y-1195100D03*
X+1472186Y-975130D03*
X+1345186Y-755160D03*
X+1472186Y-535190D03*
X+1345186Y-315220D03*
X+1599186Y-315220D03*
X+1472186Y-95250D03*
X+1345186Y+124720D03*
X+1714500Y-63500D03*
X+1206500Y+952500D03*
X+1587500Y+1143000D03*
X-762000Y-2746780D03*
X-889000Y-2526810D03*
X-762000Y-2306840D03*
X-889000Y-2086870D03*
X-381000Y-2086870D03*
X-762000Y-1866900D03*
X-889000Y-1646930D03*
X-889000Y-1206990D03*
X-889000Y-952500D03*
X-889000Y-767050D03*
X-381000Y-327110D03*
X+2844800Y+1394720D03*
X+8305800Y+1257545D03*
X+9067800Y+1257545D03*
X+8305800Y+2137425D03*
X+8559800Y+2137425D03*
X+8813800Y+2137425D03*
D53*
X+5837110Y-3144357D03*
D51*
X+2921000Y+1206500D03*
X+4889500Y+1016000D03*
X+4889500Y+127000D03*
X+2857500Y-762000D03*
X+9334500Y-127000D03*
X+9334500Y+1270000D03*
X+7239000Y+1016000D03*
X+7239000Y+127000D03*
X+5461000Y-2857500D03*
X+4191000Y-3937000D03*
X+6286500Y-4572000D03*
X+6604000Y-4572000D03*
X+7519052Y-4519896D03*
X+7874000Y-4508500D03*
X+3811743Y-4009908D03*
X+3810000Y-4318000D03*
X+2921000Y-1016000D03*
X+635000Y-3378275D03*
X+889000Y-3378275D03*
X+1143000Y-3378275D03*
X+1397000Y-3378275D03*
X+1905000Y-3378275D03*
X+2159000Y-3378275D03*
X+127000Y-3238500D03*
X+381000Y-3238500D03*
X+1651000Y-2667000D03*
X+1651000Y-2286000D03*
X+1460500Y-2476500D03*
X+0Y-2718365D03*
X+508000Y-2718365D03*
X+1460500Y-2857500D03*
X+1460500Y-2667000D03*
X+1651000Y-2476500D03*
X+381000Y-2498395D03*
X+381000Y-1651000D03*
X+1270000Y-2476500D03*
X+1270000Y-2667000D03*
X+3111500Y-2413000D03*
X+4445000Y-2540000D03*
X+6985000Y-2498395D03*
X+0Y-2278425D03*
X+254000Y-2278425D03*
X+508000Y-2278425D03*
X+1016000Y-2278425D03*
X+1270000Y-2278425D03*
X+1270000Y-2857500D03*
X+1270000Y-1968500D03*
X+1460500Y-1968500D03*
X+1460500Y-2286000D03*
X+6858000Y-2278425D03*
X+381000Y-1905000D03*
X+1587500Y-2095500D03*
X+508000Y-1398545D03*
X+508000Y-958605D03*
X+762000Y-958605D03*
X+381000Y-738635D03*
X+635000Y-738635D03*
X+0Y-518665D03*
X+508000Y-518665D03*
X+762000Y-518665D03*
X+381000Y-298695D03*
X+635000Y-298695D03*
X+0Y-78725D03*
X+508000Y-78725D03*
X+762000Y-78725D03*
X-381000Y+141245D03*
X-127000Y+141245D03*
X+381000Y+141245D03*
X+635000Y+141245D03*
X-508000Y+361215D03*
X-254000Y+361215D03*
X+0Y+361215D03*
X+508000Y+361215D03*
X+762000Y+361215D03*
X-889000Y+581185D03*
X+381000Y+581185D03*
X+635000Y+581185D03*
X+254000Y+801155D03*
X+508000Y+801155D03*
X+762000Y+801155D03*
X-889000Y+1901005D03*
X-762000Y+2120975D03*
X-508000Y+2120975D03*
X-254000Y+2120975D03*
X+0Y+2120975D03*
X+254000Y+2120975D03*
X+508000Y+2120975D03*
X+762000Y+2120975D03*
X+1016000Y+2120975D03*
X+1270000Y+2120975D03*
X+1524000Y+2120975D03*
X+1778000Y+2120975D03*
X+2032000Y+2120975D03*
X+2286000Y+2120975D03*
X+5384021Y-4535575D03*
X-762000Y-5334000D03*
X+4283159Y-4283011D03*
X+4826045Y-3267760D03*
X+3937000Y-2921000D03*
X+8179340Y-4812956D03*
X+8546457Y-5012353D03*
X+8763000Y-4826000D03*
X+8890000Y-4508500D03*
X+9152534Y-4790567D03*
X+8144101Y-5716084D03*
X+8802625Y-6177544D03*
X+6153231Y-4826944D03*
X+6778656Y-4571579D03*
X+8064500Y-4508500D03*
X+8001000Y-4826000D03*
X+5397500Y-5588000D03*
X+4775444Y-4133215D03*
X+4754453Y-4741974D03*
X+3810000Y-4826000D03*
X+4993399Y-4680922D03*
X+5016500Y-4826000D03*
X+3302000Y-5207000D03*
X+3145817Y-5333103D03*
X+2667000Y-2476500D03*
X+1841500Y-1079500D03*
X+2014205Y-1094840D03*
X+571500Y-5334000D03*
X+772975Y-4198785D03*
X+3556000Y+1524000D03*
X+762000Y-3810000D03*
X+3576345Y-2643122D03*
X+7543800Y-812800D03*
X+8127850Y-2993866D03*
X+8118219Y-2853714D03*
X+4818888Y-2925288D03*
X+5249412Y-804176D03*
X+6696244Y-3035770D03*
X+5257800Y-1714500D03*
X+5905500Y-2489200D03*
X+6883138Y-3230089D03*
X+6698805Y-3180794D03*
X+7664736Y-1676863D03*
X-381000Y-2526810D03*
X+635000Y-2938335D03*
X+1651000Y-2938335D03*
X+1905000Y-2938335D03*
X+254000Y-2718365D03*
X+1016000Y-2718365D03*
X+127000Y-2498395D03*
X+635000Y-2498395D03*
X+8001000Y-2498395D03*
X+6350000Y-2278425D03*
X+7874000Y-2278425D03*
X+8128000Y-2278425D03*
X+8382000Y-2278425D03*
X+8509000Y-2058455D03*
X+8763000Y-2058455D03*
X+1345186Y-1635040D03*
X+1218186Y-1415070D03*
X+1980186Y-95250D03*
D56*
X+4318000Y+1714500D03*
X+6667500Y+1714500D03*
X+8255000Y+1651000D03*
D81*
X+2413000Y-716000D03*
X+2413000Y-1016000D03*
X+2413000Y-218000D03*
X+2413000Y-508000D03*
X+2667000Y-208000D03*
X+2667000Y-508000D03*
X+2667000Y-726000D03*
X+2667000Y-1016000D03*
D82*
X-546100Y-4071620D03*
D83*
X-317500Y-4762500D03*
X-774700Y-4762500D03*
D82*
X+292100Y-4071620D03*
D83*
X+520700Y-4762500D03*
X+63500Y-4762500D03*
D56*
X-571500Y+698500D03*
X-571500Y-1397000D03*
D84*
X-462000Y-5080000D03*
X-762000Y-5080000D03*
D81*
X+825500Y-4762500D03*
X+825500Y-4462500D03*
X+2667000Y-1206500D03*
X+2667000Y-1506500D03*
X+2413000Y-1714500D03*
X+2413000Y-2014500D03*
X+2667000Y-1714500D03*
X+2667000Y-2004500D03*
X+2413000Y-1206500D03*
X+2413000Y-1496500D03*
D85*
X+6259000Y-3273402D03*
X+6259000Y-3338402D03*
X+6259000Y-3403402D03*
X+6259000Y-3468402D03*
X+5829000Y-3468402D03*
X+5829000Y-3403402D03*
X+5829000Y-3338402D03*
X+5829000Y-3273402D03*
X+7486107Y-3273033D03*
X+7486107Y-3338033D03*
X+7486107Y-3403033D03*
X+7486107Y-3468033D03*
X+7056107Y-3468033D03*
X+7056107Y-3403033D03*
X+7056107Y-3338033D03*
X+7056107Y-3273033D03*
X+8735869Y-3274533D03*
X+8735869Y-3339533D03*
X+8735869Y-3404533D03*
X+8735869Y-3469533D03*
X+8305869Y-3469533D03*
X+8305869Y-3404533D03*
X+8305869Y-3339533D03*
X+8305869Y-3274533D03*
D84*
X+6195500Y-2957402D03*
X+5895500Y-2957402D03*
X+7422607Y-2957033D03*
X+7122607Y-2957033D03*
X+8672369Y-2958533D03*
X+8372369Y-2958533D03*
X+6432000Y-3719402D03*
X+6132000Y-3719402D03*
X+7676607Y-3719033D03*
X+7376607Y-3719033D03*
X+8908869Y-3719033D03*
X+8608869Y-3719033D03*
X+6432000Y-3973402D03*
X+6132000Y-3973402D03*
X+5824500Y-4227402D03*
X+5524500Y-4227402D03*
X+5524500Y-3719402D03*
X+5814500Y-3719402D03*
X+6422000Y-4227402D03*
X+6132000Y-4227402D03*
X+5814500Y-3973402D03*
X+5524500Y-3973402D03*
X+6787607Y-3719033D03*
X+7077607Y-3719033D03*
X+7676607Y-3973033D03*
X+7386607Y-3973033D03*
X+7077607Y-3973033D03*
X+6787607Y-3973033D03*
X+8019869Y-3719033D03*
X+8309869Y-3719033D03*
X+8908869Y-3973033D03*
X+8618869Y-3973033D03*
X+8309869Y-3973033D03*
X+8019869Y-3973033D03*
X+7087607Y-4227033D03*
X+6787607Y-4227033D03*
X+7676607Y-4227033D03*
X+7376607Y-4227033D03*
X+8319869Y-4227033D03*
X+8019869Y-4227033D03*
X+8908869Y-4227033D03*
X+8608869Y-4227033D03*
X+7158000Y-6159500D03*
X+6858000Y-6159500D03*
X+1697000Y-4254500D03*
X+1397000Y-4254500D03*
D86*
X+0Y-5334000D03*
X+314960Y-5334000D03*
D75*
X+9334500Y-5181500D03*
X+9334500Y-4981500D03*
X+9334500Y-4781500D03*
D84*
X+8064500Y-5524500D03*
X+8354500Y-5524500D03*
X+7193500Y-5570499D03*
X+7483500Y-5570499D03*
D81*
X+7737500Y-5560500D03*
X+7737500Y-5270500D03*
D84*
X+9171500Y-4572000D03*
X+9461500Y-4572000D03*
X-218000Y-5334000D03*
X-508000Y-5334000D03*
X+1905000Y-4508500D03*
X+2195000Y-4508500D03*
X+1905000Y-4254500D03*
X+2195000Y-4254500D03*
X+1397000Y-4508500D03*
X+1687000Y-4508500D03*
X+1560000Y-4762500D03*
X+1270000Y-4762500D03*
D75*
X+8356500Y-5905500D03*
X+8156500Y-5905500D03*
X+7956500Y-5905500D03*
X+7756500Y-5905500D03*
X+7556500Y-5905500D03*
X+7356500Y-5905500D03*
D56*
X-510798Y-841109D03*
X+1240380Y+628303D03*
D76*
X+1079500Y+1333500D03*
X+1079500Y+1833500D03*
X-317500Y+1333500D03*
X-317500Y+1833500D03*
X+2476500Y+1337500D03*
X+2476500Y+1837500D03*
D77*
X+9271000Y+1905000D03*
X+3175000Y+1905000D03*
X+9271000Y-5969000D03*
X-635000Y-5969000D03*
D75*
X+4124500Y-5905500D03*
X+4324500Y-5905500D03*
X+4524500Y-5905500D03*
X+4724500Y-5905500D03*
X+4924500Y-5905500D03*
X+5124500Y-5905500D03*
X+5686500Y-5905500D03*
X+5886500Y-5905500D03*
X+6086500Y-5905500D03*
X+6286500Y-5905500D03*
X+6486500Y-5905500D03*
X+6686500Y-5905500D03*
X+5712000Y-5270500D03*
X+5912000Y-5270500D03*
X+6112000Y-5270500D03*
X+6312000Y-5270500D03*
X+6512000Y-5270500D03*
X+6712000Y-5270500D03*
X+1722731Y-5905500D03*
X+1522731Y-5905500D03*
X+1322731Y-5905500D03*
D78*
X+1714500Y-3738500D03*
X+1714500Y-3238500D03*
D87*
X+4054500Y-2159000D03*
X+4254500Y-2159000D03*
D84*
X+2540000Y-5461000D03*
X+2250000Y-5461000D03*
X+3393000Y-5969000D03*
X+3683000Y-5969000D03*
X+2830000Y-5715000D03*
X+2540000Y-5715000D03*
D88*
X+3081020Y-5778500D03*
X+3175000Y-5969000D03*
X+2987040Y-5969000D03*
D39*
X-1079500Y-6413500D02*
X+9715500Y-6413500D01*
X+9715500Y+2349500D01*
X-1079500Y+2349500D01*
X-1079500Y-6413500D01*
M02*
