G04 PROTEUS RS274X GERBER FILE*
%FSLAX45Y45*%
%MOMM*%
G01*
%ADD18C,0.203200*%
%ADD60C,0.127000*%
%ADD61C,0.063500*%
D18*
X+531044Y+6762722D02*
X+531044Y+6635722D01*
X+467544Y+6699222D02*
X+594544Y+6699222D01*
X+1424221Y+6062447D02*
X+1514023Y+5972645D01*
X+1424221Y+5972645D02*
X+1514023Y+6062447D01*
X+1422479Y+5581625D02*
X+1512281Y+5491823D01*
X+1422479Y+5491823D02*
X+1512281Y+5581625D01*
X+485362Y+6743342D02*
X+575164Y+6653540D01*
X+485362Y+6653540D02*
X+575164Y+6743342D01*
X-555541Y+6743342D02*
X-465739Y+6653540D01*
X-555541Y+6653540D02*
X-465739Y+6743342D01*
X-2603500Y+6350000D02*
X-2603717Y+6355247D01*
X-2605482Y+6365742D01*
X-2609174Y+6376237D01*
X-2615202Y+6386732D01*
X-2624424Y+6397112D01*
X-2634919Y+6404800D01*
X-2645414Y+6409718D01*
X-2655909Y+6412524D01*
X-2666404Y+6413497D01*
X-2667000Y+6413500D01*
X-2730500Y+6350000D02*
X-2730283Y+6355247D01*
X-2728518Y+6365742D01*
X-2724826Y+6376237D01*
X-2718798Y+6386732D01*
X-2709576Y+6397112D01*
X-2699081Y+6404800D01*
X-2688586Y+6409718D01*
X-2678091Y+6412524D01*
X-2667596Y+6413497D01*
X-2667000Y+6413500D01*
X-2730500Y+6350000D02*
X-2730283Y+6344753D01*
X-2728518Y+6334258D01*
X-2724826Y+6323763D01*
X-2718798Y+6313268D01*
X-2709576Y+6302888D01*
X-2699081Y+6295200D01*
X-2688586Y+6290282D01*
X-2678091Y+6287476D01*
X-2667596Y+6286503D01*
X-2667000Y+6286500D01*
X-2603500Y+6350000D02*
X-2603717Y+6344753D01*
X-2605482Y+6334258D01*
X-2609174Y+6323763D01*
X-2615202Y+6313268D01*
X-2624424Y+6302888D01*
X-2634919Y+6295200D01*
X-2645414Y+6290282D01*
X-2655909Y+6287476D01*
X-2666404Y+6286503D01*
X-2667000Y+6286500D01*
X-2667000Y+6413500D02*
X-2667000Y+6286500D01*
X-2730500Y+6350000D02*
X-2603500Y+6350000D01*
X-2603500Y+6604000D02*
X-2603717Y+6609247D01*
X-2605482Y+6619742D01*
X-2609174Y+6630237D01*
X-2615202Y+6640732D01*
X-2624424Y+6651112D01*
X-2634919Y+6658800D01*
X-2645414Y+6663718D01*
X-2655909Y+6666524D01*
X-2666404Y+6667497D01*
X-2667000Y+6667500D01*
X-2730500Y+6604000D02*
X-2730283Y+6609247D01*
X-2728518Y+6619742D01*
X-2724826Y+6630237D01*
X-2718798Y+6640732D01*
X-2709576Y+6651112D01*
X-2699081Y+6658800D01*
X-2688586Y+6663718D01*
X-2678091Y+6666524D01*
X-2667596Y+6667497D01*
X-2667000Y+6667500D01*
X-2730500Y+6604000D02*
X-2730283Y+6598753D01*
X-2728518Y+6588258D01*
X-2724826Y+6577763D01*
X-2718798Y+6567268D01*
X-2709576Y+6556888D01*
X-2699081Y+6549200D01*
X-2688586Y+6544282D01*
X-2678091Y+6541476D01*
X-2667596Y+6540503D01*
X-2667000Y+6540500D01*
X-2603500Y+6604000D02*
X-2603717Y+6598753D01*
X-2605482Y+6588258D01*
X-2609174Y+6577763D01*
X-2615202Y+6567268D01*
X-2624424Y+6556888D01*
X-2634919Y+6549200D01*
X-2645414Y+6544282D01*
X-2655909Y+6541476D01*
X-2666404Y+6540503D01*
X-2667000Y+6540500D01*
X-2667000Y+6667500D02*
X-2667000Y+6540500D01*
X-2730500Y+6604000D02*
X-2603500Y+6604000D01*
X-2603500Y+6858000D02*
X-2603717Y+6863247D01*
X-2605482Y+6873742D01*
X-2609174Y+6884237D01*
X-2615202Y+6894732D01*
X-2624424Y+6905112D01*
X-2634919Y+6912800D01*
X-2645414Y+6917718D01*
X-2655909Y+6920524D01*
X-2666404Y+6921497D01*
X-2667000Y+6921500D01*
X-2730500Y+6858000D02*
X-2730283Y+6863247D01*
X-2728518Y+6873742D01*
X-2724826Y+6884237D01*
X-2718798Y+6894732D01*
X-2709576Y+6905112D01*
X-2699081Y+6912800D01*
X-2688586Y+6917718D01*
X-2678091Y+6920524D01*
X-2667596Y+6921497D01*
X-2667000Y+6921500D01*
X-2730500Y+6858000D02*
X-2730283Y+6852753D01*
X-2728518Y+6842258D01*
X-2724826Y+6831763D01*
X-2718798Y+6821268D01*
X-2709576Y+6810888D01*
X-2699081Y+6803200D01*
X-2688586Y+6798282D01*
X-2678091Y+6795476D01*
X-2667596Y+6794503D01*
X-2667000Y+6794500D01*
X-2603500Y+6858000D02*
X-2603717Y+6852753D01*
X-2605482Y+6842258D01*
X-2609174Y+6831763D01*
X-2615202Y+6821268D01*
X-2624424Y+6810888D01*
X-2634919Y+6803200D01*
X-2645414Y+6798282D01*
X-2655909Y+6795476D01*
X-2666404Y+6794503D01*
X-2667000Y+6794500D01*
X-2667000Y+6921500D02*
X-2667000Y+6794500D01*
X-2730500Y+6858000D02*
X-2603500Y+6858000D01*
X-2603500Y+7112000D02*
X-2603717Y+7117247D01*
X-2605482Y+7127742D01*
X-2609174Y+7138237D01*
X-2615202Y+7148732D01*
X-2624424Y+7159112D01*
X-2634919Y+7166800D01*
X-2645414Y+7171718D01*
X-2655909Y+7174524D01*
X-2666404Y+7175497D01*
X-2667000Y+7175500D01*
X-2730500Y+7112000D02*
X-2730283Y+7117247D01*
X-2728518Y+7127742D01*
X-2724826Y+7138237D01*
X-2718798Y+7148732D01*
X-2709576Y+7159112D01*
X-2699081Y+7166800D01*
X-2688586Y+7171718D01*
X-2678091Y+7174524D01*
X-2667596Y+7175497D01*
X-2667000Y+7175500D01*
X-2730500Y+7112000D02*
X-2730283Y+7106753D01*
X-2728518Y+7096258D01*
X-2724826Y+7085763D01*
X-2718798Y+7075268D01*
X-2709576Y+7064888D01*
X-2699081Y+7057200D01*
X-2688586Y+7052282D01*
X-2678091Y+7049476D01*
X-2667596Y+7048503D01*
X-2667000Y+7048500D01*
X-2603500Y+7112000D02*
X-2603717Y+7106753D01*
X-2605482Y+7096258D01*
X-2609174Y+7085763D01*
X-2615202Y+7075268D01*
X-2624424Y+7064888D01*
X-2634919Y+7057200D01*
X-2645414Y+7052282D01*
X-2655909Y+7049476D01*
X-2666404Y+7048503D01*
X-2667000Y+7048500D01*
X-2667000Y+7175500D02*
X-2667000Y+7048500D01*
X-2730500Y+7112000D02*
X-2603500Y+7112000D01*
X-2603500Y+7366000D02*
X-2603717Y+7371247D01*
X-2605482Y+7381742D01*
X-2609174Y+7392237D01*
X-2615202Y+7402732D01*
X-2624424Y+7413112D01*
X-2634919Y+7420800D01*
X-2645414Y+7425718D01*
X-2655909Y+7428524D01*
X-2666404Y+7429497D01*
X-2667000Y+7429500D01*
X-2730500Y+7366000D02*
X-2730283Y+7371247D01*
X-2728518Y+7381742D01*
X-2724826Y+7392237D01*
X-2718798Y+7402732D01*
X-2709576Y+7413112D01*
X-2699081Y+7420800D01*
X-2688586Y+7425718D01*
X-2678091Y+7428524D01*
X-2667596Y+7429497D01*
X-2667000Y+7429500D01*
X-2730500Y+7366000D02*
X-2730283Y+7360753D01*
X-2728518Y+7350258D01*
X-2724826Y+7339763D01*
X-2718798Y+7329268D01*
X-2709576Y+7318888D01*
X-2699081Y+7311200D01*
X-2688586Y+7306282D01*
X-2678091Y+7303476D01*
X-2667596Y+7302503D01*
X-2667000Y+7302500D01*
X-2603500Y+7366000D02*
X-2603717Y+7360753D01*
X-2605482Y+7350258D01*
X-2609174Y+7339763D01*
X-2615202Y+7329268D01*
X-2624424Y+7318888D01*
X-2634919Y+7311200D01*
X-2645414Y+7306282D01*
X-2655909Y+7303476D01*
X-2666404Y+7302503D01*
X-2667000Y+7302500D01*
X-2667000Y+7429500D02*
X-2667000Y+7302500D01*
X-2730500Y+7366000D02*
X-2603500Y+7366000D01*
X+1968500Y+6604000D02*
X+1968283Y+6609247D01*
X+1966518Y+6619742D01*
X+1962826Y+6630237D01*
X+1956798Y+6640732D01*
X+1947576Y+6651112D01*
X+1937081Y+6658800D01*
X+1926586Y+6663718D01*
X+1916091Y+6666524D01*
X+1905596Y+6667497D01*
X+1905000Y+6667500D01*
X+1841500Y+6604000D02*
X+1841717Y+6609247D01*
X+1843482Y+6619742D01*
X+1847174Y+6630237D01*
X+1853202Y+6640732D01*
X+1862424Y+6651112D01*
X+1872919Y+6658800D01*
X+1883414Y+6663718D01*
X+1893909Y+6666524D01*
X+1904404Y+6667497D01*
X+1905000Y+6667500D01*
X+1841500Y+6604000D02*
X+1841717Y+6598753D01*
X+1843482Y+6588258D01*
X+1847174Y+6577763D01*
X+1853202Y+6567268D01*
X+1862424Y+6556888D01*
X+1872919Y+6549200D01*
X+1883414Y+6544282D01*
X+1893909Y+6541476D01*
X+1904404Y+6540503D01*
X+1905000Y+6540500D01*
X+1968500Y+6604000D02*
X+1968283Y+6598753D01*
X+1966518Y+6588258D01*
X+1962826Y+6577763D01*
X+1956798Y+6567268D01*
X+1947576Y+6556888D01*
X+1937081Y+6549200D01*
X+1926586Y+6544282D01*
X+1916091Y+6541476D01*
X+1905596Y+6540503D01*
X+1905000Y+6540500D01*
X+1905000Y+6667500D02*
X+1905000Y+6540500D01*
X+1841500Y+6604000D02*
X+1968500Y+6604000D01*
X+1968500Y+6858000D02*
X+1968283Y+6863247D01*
X+1966518Y+6873742D01*
X+1962826Y+6884237D01*
X+1956798Y+6894732D01*
X+1947576Y+6905112D01*
X+1937081Y+6912800D01*
X+1926586Y+6917718D01*
X+1916091Y+6920524D01*
X+1905596Y+6921497D01*
X+1905000Y+6921500D01*
X+1841500Y+6858000D02*
X+1841717Y+6863247D01*
X+1843482Y+6873742D01*
X+1847174Y+6884237D01*
X+1853202Y+6894732D01*
X+1862424Y+6905112D01*
X+1872919Y+6912800D01*
X+1883414Y+6917718D01*
X+1893909Y+6920524D01*
X+1904404Y+6921497D01*
X+1905000Y+6921500D01*
X+1841500Y+6858000D02*
X+1841717Y+6852753D01*
X+1843482Y+6842258D01*
X+1847174Y+6831763D01*
X+1853202Y+6821268D01*
X+1862424Y+6810888D01*
X+1872919Y+6803200D01*
X+1883414Y+6798282D01*
X+1893909Y+6795476D01*
X+1904404Y+6794503D01*
X+1905000Y+6794500D01*
X+1968500Y+6858000D02*
X+1968283Y+6852753D01*
X+1966518Y+6842258D01*
X+1962826Y+6831763D01*
X+1956798Y+6821268D01*
X+1947576Y+6810888D01*
X+1937081Y+6803200D01*
X+1926586Y+6798282D01*
X+1916091Y+6795476D01*
X+1905596Y+6794503D01*
X+1905000Y+6794500D01*
X+1905000Y+6921500D02*
X+1905000Y+6794500D01*
X+1841500Y+6858000D02*
X+1968500Y+6858000D01*
X+1968500Y+7366000D02*
X+1968283Y+7371247D01*
X+1966518Y+7381742D01*
X+1962826Y+7392237D01*
X+1956798Y+7402732D01*
X+1947576Y+7413112D01*
X+1937081Y+7420800D01*
X+1926586Y+7425718D01*
X+1916091Y+7428524D01*
X+1905596Y+7429497D01*
X+1905000Y+7429500D01*
X+1841500Y+7366000D02*
X+1841717Y+7371247D01*
X+1843482Y+7381742D01*
X+1847174Y+7392237D01*
X+1853202Y+7402732D01*
X+1862424Y+7413112D01*
X+1872919Y+7420800D01*
X+1883414Y+7425718D01*
X+1893909Y+7428524D01*
X+1904404Y+7429497D01*
X+1905000Y+7429500D01*
X+1841500Y+7366000D02*
X+1841717Y+7360753D01*
X+1843482Y+7350258D01*
X+1847174Y+7339763D01*
X+1853202Y+7329268D01*
X+1862424Y+7318888D01*
X+1872919Y+7311200D01*
X+1883414Y+7306282D01*
X+1893909Y+7303476D01*
X+1904404Y+7302503D01*
X+1905000Y+7302500D01*
X+1968500Y+7366000D02*
X+1968283Y+7360753D01*
X+1966518Y+7350258D01*
X+1962826Y+7339763D01*
X+1956798Y+7329268D01*
X+1947576Y+7318888D01*
X+1937081Y+7311200D01*
X+1926586Y+7306282D01*
X+1916091Y+7303476D01*
X+1905596Y+7302503D01*
X+1905000Y+7302500D01*
X+1905000Y+7429500D02*
X+1905000Y+7302500D01*
X+1841500Y+7366000D02*
X+1968500Y+7366000D01*
X+1968500Y+7112000D02*
X+1968283Y+7117247D01*
X+1966518Y+7127742D01*
X+1962826Y+7138237D01*
X+1956798Y+7148732D01*
X+1947576Y+7159112D01*
X+1937081Y+7166800D01*
X+1926586Y+7171718D01*
X+1916091Y+7174524D01*
X+1905596Y+7175497D01*
X+1905000Y+7175500D01*
X+1841500Y+7112000D02*
X+1841717Y+7117247D01*
X+1843482Y+7127742D01*
X+1847174Y+7138237D01*
X+1853202Y+7148732D01*
X+1862424Y+7159112D01*
X+1872919Y+7166800D01*
X+1883414Y+7171718D01*
X+1893909Y+7174524D01*
X+1904404Y+7175497D01*
X+1905000Y+7175500D01*
X+1841500Y+7112000D02*
X+1841717Y+7106753D01*
X+1843482Y+7096258D01*
X+1847174Y+7085763D01*
X+1853202Y+7075268D01*
X+1862424Y+7064888D01*
X+1872919Y+7057200D01*
X+1883414Y+7052282D01*
X+1893909Y+7049476D01*
X+1904404Y+7048503D01*
X+1905000Y+7048500D01*
X+1968500Y+7112000D02*
X+1968283Y+7106753D01*
X+1966518Y+7096258D01*
X+1962826Y+7085763D01*
X+1956798Y+7075268D01*
X+1947576Y+7064888D01*
X+1937081Y+7057200D01*
X+1926586Y+7052282D01*
X+1916091Y+7049476D01*
X+1905596Y+7048503D01*
X+1905000Y+7048500D01*
X+1905000Y+7175500D02*
X+1905000Y+7048500D01*
X+1841500Y+7112000D02*
X+1968500Y+7112000D01*
X-63500Y+5969000D02*
X-63717Y+5974247D01*
X-65482Y+5984742D01*
X-69174Y+5995237D01*
X-75202Y+6005732D01*
X-84424Y+6016112D01*
X-94919Y+6023800D01*
X-105414Y+6028718D01*
X-115909Y+6031524D01*
X-126404Y+6032497D01*
X-127000Y+6032500D01*
X-190500Y+5969000D02*
X-190283Y+5974247D01*
X-188518Y+5984742D01*
X-184826Y+5995237D01*
X-178798Y+6005732D01*
X-169576Y+6016112D01*
X-159081Y+6023800D01*
X-148586Y+6028718D01*
X-138091Y+6031524D01*
X-127596Y+6032497D01*
X-127000Y+6032500D01*
X-190500Y+5969000D02*
X-190283Y+5963753D01*
X-188518Y+5953258D01*
X-184826Y+5942763D01*
X-178798Y+5932268D01*
X-169576Y+5921888D01*
X-159081Y+5914200D01*
X-148586Y+5909282D01*
X-138091Y+5906476D01*
X-127596Y+5905503D01*
X-127000Y+5905500D01*
X-63500Y+5969000D02*
X-63717Y+5963753D01*
X-65482Y+5953258D01*
X-69174Y+5942763D01*
X-75202Y+5932268D01*
X-84424Y+5921888D01*
X-94919Y+5914200D01*
X-105414Y+5909282D01*
X-115909Y+5906476D01*
X-126404Y+5905503D01*
X-127000Y+5905500D01*
X-171901Y+6013901D02*
X-82099Y+5924099D01*
X-171901Y+5924099D02*
X-82099Y+6013901D01*
X+444500Y+5969000D02*
X+444283Y+5974247D01*
X+442518Y+5984742D01*
X+438826Y+5995237D01*
X+432798Y+6005732D01*
X+423576Y+6016112D01*
X+413081Y+6023800D01*
X+402586Y+6028718D01*
X+392091Y+6031524D01*
X+381596Y+6032497D01*
X+381000Y+6032500D01*
X+317500Y+5969000D02*
X+317717Y+5974247D01*
X+319482Y+5984742D01*
X+323174Y+5995237D01*
X+329202Y+6005732D01*
X+338424Y+6016112D01*
X+348919Y+6023800D01*
X+359414Y+6028718D01*
X+369909Y+6031524D01*
X+380404Y+6032497D01*
X+381000Y+6032500D01*
X+317500Y+5969000D02*
X+317717Y+5963753D01*
X+319482Y+5953258D01*
X+323174Y+5942763D01*
X+329202Y+5932268D01*
X+338424Y+5921888D01*
X+348919Y+5914200D01*
X+359414Y+5909282D01*
X+369909Y+5906476D01*
X+380404Y+5905503D01*
X+381000Y+5905500D01*
X+444500Y+5969000D02*
X+444283Y+5963753D01*
X+442518Y+5953258D01*
X+438826Y+5942763D01*
X+432798Y+5932268D01*
X+423576Y+5921888D01*
X+413081Y+5914200D01*
X+402586Y+5909282D01*
X+392091Y+5906476D01*
X+381596Y+5905503D01*
X+381000Y+5905500D01*
X+336099Y+6013901D02*
X+425901Y+5924099D01*
X+336099Y+5924099D02*
X+425901Y+6013901D01*
X-2032000Y+6413500D02*
X-2032000Y+6286500D01*
X-2095500Y+6350000D02*
X-1968500Y+6350000D01*
X-2076901Y+6394901D02*
X-1987099Y+6305099D01*
X-2076901Y+6305099D02*
X-1987099Y+6394901D01*
X-1778000Y+6413500D02*
X-1778000Y+6286500D01*
X-1841500Y+6350000D02*
X-1714500Y+6350000D01*
X-1822901Y+6394901D02*
X-1733099Y+6305099D01*
X-1822901Y+6305099D02*
X-1733099Y+6394901D01*
X-1524000Y+6413500D02*
X-1524000Y+6286500D01*
X-1587500Y+6350000D02*
X-1460500Y+6350000D01*
X-1568901Y+6394901D02*
X-1479099Y+6305099D01*
X-1568901Y+6305099D02*
X-1479099Y+6394901D01*
X-1270000Y+6413500D02*
X-1270000Y+6286500D01*
X-1333500Y+6350000D02*
X-1206500Y+6350000D01*
X-1314901Y+6394901D02*
X-1225099Y+6305099D01*
X-1314901Y+6305099D02*
X-1225099Y+6394901D01*
X-1016000Y+6413500D02*
X-1016000Y+6286500D01*
X-1079500Y+6350000D02*
X-952500Y+6350000D01*
X-1060901Y+6394901D02*
X-971099Y+6305099D01*
X-1060901Y+6305099D02*
X-971099Y+6394901D01*
X-762000Y+6413500D02*
X-762000Y+6286500D01*
X-825500Y+6350000D02*
X-698500Y+6350000D01*
X-806901Y+6394901D02*
X-717099Y+6305099D01*
X-806901Y+6305099D02*
X-717099Y+6394901D01*
X-508000Y+6413500D02*
X-508000Y+6286500D01*
X-571500Y+6350000D02*
X-444500Y+6350000D01*
X-552901Y+6394901D02*
X-463099Y+6305099D01*
X-552901Y+6305099D02*
X-463099Y+6394901D01*
X-254000Y+6413500D02*
X-254000Y+6286500D01*
X-317500Y+6350000D02*
X-190500Y+6350000D01*
X-298901Y+6394901D02*
X-209099Y+6305099D01*
X-298901Y+6305099D02*
X-209099Y+6394901D01*
X+0Y+6413500D02*
X+0Y+6286500D01*
X-63500Y+6350000D02*
X+63500Y+6350000D01*
X-44901Y+6394901D02*
X+44901Y+6305099D01*
X-44901Y+6305099D02*
X+44901Y+6394901D01*
X+254000Y+6413500D02*
X+254000Y+6286500D01*
X+190500Y+6350000D02*
X+317500Y+6350000D01*
X+209099Y+6394901D02*
X+298901Y+6305099D01*
X+209099Y+6305099D02*
X+298901Y+6394901D01*
X+508000Y+6413500D02*
X+508000Y+6286500D01*
X+444500Y+6350000D02*
X+571500Y+6350000D01*
X+463099Y+6394901D02*
X+552901Y+6305099D01*
X+463099Y+6305099D02*
X+552901Y+6394901D01*
X+762000Y+6413500D02*
X+762000Y+6286500D01*
X+698500Y+6350000D02*
X+825500Y+6350000D01*
X+717099Y+6394901D02*
X+806901Y+6305099D01*
X+717099Y+6305099D02*
X+806901Y+6394901D01*
X+1016000Y+6413500D02*
X+1016000Y+6286500D01*
X+952500Y+6350000D02*
X+1079500Y+6350000D01*
X+971099Y+6394901D02*
X+1060901Y+6305099D01*
X+971099Y+6305099D02*
X+1060901Y+6394901D01*
X+1270000Y+6413500D02*
X+1270000Y+6286500D01*
X+1206500Y+6350000D02*
X+1333500Y+6350000D01*
X+1225099Y+6394901D02*
X+1314901Y+6305099D01*
X+1225099Y+6305099D02*
X+1314901Y+6394901D01*
X+1270000Y+7175500D02*
X+1270000Y+7048500D01*
X+1206500Y+7112000D02*
X+1333500Y+7112000D01*
X+1225099Y+7156901D02*
X+1314901Y+7067099D01*
X+1225099Y+7067099D02*
X+1314901Y+7156901D01*
X+1016000Y+7175500D02*
X+1016000Y+7048500D01*
X+952500Y+7112000D02*
X+1079500Y+7112000D01*
X+971099Y+7156901D02*
X+1060901Y+7067099D01*
X+971099Y+7067099D02*
X+1060901Y+7156901D01*
X+762000Y+7175500D02*
X+762000Y+7048500D01*
X+698500Y+7112000D02*
X+825500Y+7112000D01*
X+717099Y+7156901D02*
X+806901Y+7067099D01*
X+717099Y+7067099D02*
X+806901Y+7156901D01*
X+508000Y+7175500D02*
X+508000Y+7048500D01*
X+444500Y+7112000D02*
X+571500Y+7112000D01*
X+463099Y+7156901D02*
X+552901Y+7067099D01*
X+463099Y+7067099D02*
X+552901Y+7156901D01*
X+254000Y+7175500D02*
X+254000Y+7048500D01*
X+190500Y+7112000D02*
X+317500Y+7112000D01*
X+209099Y+7156901D02*
X+298901Y+7067099D01*
X+209099Y+7067099D02*
X+298901Y+7156901D01*
X+0Y+7175500D02*
X+0Y+7048500D01*
X-63500Y+7112000D02*
X+63500Y+7112000D01*
X-44901Y+7156901D02*
X+44901Y+7067099D01*
X-44901Y+7067099D02*
X+44901Y+7156901D01*
X-254000Y+7175500D02*
X-254000Y+7048500D01*
X-317500Y+7112000D02*
X-190500Y+7112000D01*
X-298901Y+7156901D02*
X-209099Y+7067099D01*
X-298901Y+7067099D02*
X-209099Y+7156901D01*
X-508000Y+7175500D02*
X-508000Y+7048500D01*
X-571500Y+7112000D02*
X-444500Y+7112000D01*
X-552901Y+7156901D02*
X-463099Y+7067099D01*
X-552901Y+7067099D02*
X-463099Y+7156901D01*
X-762000Y+7175500D02*
X-762000Y+7048500D01*
X-825500Y+7112000D02*
X-698500Y+7112000D01*
X-806901Y+7156901D02*
X-717099Y+7067099D01*
X-806901Y+7067099D02*
X-717099Y+7156901D01*
X-1016000Y+7175500D02*
X-1016000Y+7048500D01*
X-1079500Y+7112000D02*
X-952500Y+7112000D01*
X-1060901Y+7156901D02*
X-971099Y+7067099D01*
X-1060901Y+7067099D02*
X-971099Y+7156901D01*
X-1270000Y+7175500D02*
X-1270000Y+7048500D01*
X-1333500Y+7112000D02*
X-1206500Y+7112000D01*
X-1314901Y+7156901D02*
X-1225099Y+7067099D01*
X-1314901Y+7067099D02*
X-1225099Y+7156901D01*
X-1524000Y+7175500D02*
X-1524000Y+7048500D01*
X-1587500Y+7112000D02*
X-1460500Y+7112000D01*
X-1568901Y+7156901D02*
X-1479099Y+7067099D01*
X-1568901Y+7067099D02*
X-1479099Y+7156901D01*
X-1778000Y+7175500D02*
X-1778000Y+7048500D01*
X-1841500Y+7112000D02*
X-1714500Y+7112000D01*
X-1822901Y+7156901D02*
X-1733099Y+7067099D01*
X-1822901Y+7067099D02*
X-1733099Y+7156901D01*
X-2030000Y+7175500D02*
X-2030000Y+7048500D01*
X-2093500Y+7112000D02*
X-1966500Y+7112000D01*
X-2074901Y+7156901D02*
X-1985099Y+7067099D01*
X-2074901Y+7067099D02*
X-1985099Y+7156901D01*
X-1714500Y+5207000D02*
X-1714717Y+5212247D01*
X-1716482Y+5222742D01*
X-1720174Y+5233237D01*
X-1726202Y+5243732D01*
X-1735424Y+5254112D01*
X-1745919Y+5261800D01*
X-1756414Y+5266718D01*
X-1766909Y+5269524D01*
X-1777404Y+5270497D01*
X-1778000Y+5270500D01*
X-1841500Y+5207000D02*
X-1841283Y+5212247D01*
X-1839518Y+5222742D01*
X-1835826Y+5233237D01*
X-1829798Y+5243732D01*
X-1820576Y+5254112D01*
X-1810081Y+5261800D01*
X-1799586Y+5266718D01*
X-1789091Y+5269524D01*
X-1778596Y+5270497D01*
X-1778000Y+5270500D01*
X-1841500Y+5207000D02*
X-1841283Y+5201753D01*
X-1839518Y+5191258D01*
X-1835826Y+5180763D01*
X-1829798Y+5170268D01*
X-1820576Y+5159888D01*
X-1810081Y+5152200D01*
X-1799586Y+5147282D01*
X-1789091Y+5144476D01*
X-1778596Y+5143503D01*
X-1778000Y+5143500D01*
X-1714500Y+5207000D02*
X-1714717Y+5201753D01*
X-1716482Y+5191258D01*
X-1720174Y+5180763D01*
X-1726202Y+5170268D01*
X-1735424Y+5159888D01*
X-1745919Y+5152200D01*
X-1756414Y+5147282D01*
X-1766909Y+5144476D01*
X-1777404Y+5143503D01*
X-1778000Y+5143500D01*
X-1778000Y+5270500D02*
X-1778000Y+5143500D01*
X-1841500Y+5207000D02*
X-1714500Y+5207000D01*
X-1460500Y+5207000D02*
X-1460717Y+5212247D01*
X-1462482Y+5222742D01*
X-1466174Y+5233237D01*
X-1472202Y+5243732D01*
X-1481424Y+5254112D01*
X-1491919Y+5261800D01*
X-1502414Y+5266718D01*
X-1512909Y+5269524D01*
X-1523404Y+5270497D01*
X-1524000Y+5270500D01*
X-1587500Y+5207000D02*
X-1587283Y+5212247D01*
X-1585518Y+5222742D01*
X-1581826Y+5233237D01*
X-1575798Y+5243732D01*
X-1566576Y+5254112D01*
X-1556081Y+5261800D01*
X-1545586Y+5266718D01*
X-1535091Y+5269524D01*
X-1524596Y+5270497D01*
X-1524000Y+5270500D01*
X-1587500Y+5207000D02*
X-1587283Y+5201753D01*
X-1585518Y+5191258D01*
X-1581826Y+5180763D01*
X-1575798Y+5170268D01*
X-1566576Y+5159888D01*
X-1556081Y+5152200D01*
X-1545586Y+5147282D01*
X-1535091Y+5144476D01*
X-1524596Y+5143503D01*
X-1524000Y+5143500D01*
X-1460500Y+5207000D02*
X-1460717Y+5201753D01*
X-1462482Y+5191258D01*
X-1466174Y+5180763D01*
X-1472202Y+5170268D01*
X-1481424Y+5159888D01*
X-1491919Y+5152200D01*
X-1502414Y+5147282D01*
X-1512909Y+5144476D01*
X-1523404Y+5143503D01*
X-1524000Y+5143500D01*
X-1524000Y+5270500D02*
X-1524000Y+5143500D01*
X-1587500Y+5207000D02*
X-1460500Y+5207000D01*
X-1206500Y+5207000D02*
X-1206717Y+5212247D01*
X-1208482Y+5222742D01*
X-1212174Y+5233237D01*
X-1218202Y+5243732D01*
X-1227424Y+5254112D01*
X-1237919Y+5261800D01*
X-1248414Y+5266718D01*
X-1258909Y+5269524D01*
X-1269404Y+5270497D01*
X-1270000Y+5270500D01*
X-1333500Y+5207000D02*
X-1333283Y+5212247D01*
X-1331518Y+5222742D01*
X-1327826Y+5233237D01*
X-1321798Y+5243732D01*
X-1312576Y+5254112D01*
X-1302081Y+5261800D01*
X-1291586Y+5266718D01*
X-1281091Y+5269524D01*
X-1270596Y+5270497D01*
X-1270000Y+5270500D01*
X-1333500Y+5207000D02*
X-1333283Y+5201753D01*
X-1331518Y+5191258D01*
X-1327826Y+5180763D01*
X-1321798Y+5170268D01*
X-1312576Y+5159888D01*
X-1302081Y+5152200D01*
X-1291586Y+5147282D01*
X-1281091Y+5144476D01*
X-1270596Y+5143503D01*
X-1270000Y+5143500D01*
X-1206500Y+5207000D02*
X-1206717Y+5201753D01*
X-1208482Y+5191258D01*
X-1212174Y+5180763D01*
X-1218202Y+5170268D01*
X-1227424Y+5159888D01*
X-1237919Y+5152200D01*
X-1248414Y+5147282D01*
X-1258909Y+5144476D01*
X-1269404Y+5143503D01*
X-1270000Y+5143500D01*
X-1270000Y+5270500D02*
X-1270000Y+5143500D01*
X-1333500Y+5207000D02*
X-1206500Y+5207000D01*
X+1968500Y+7874000D02*
X+1968283Y+7879247D01*
X+1966518Y+7889742D01*
X+1962826Y+7900237D01*
X+1956798Y+7910732D01*
X+1947576Y+7921112D01*
X+1937081Y+7928800D01*
X+1926586Y+7933718D01*
X+1916091Y+7936524D01*
X+1905596Y+7937497D01*
X+1905000Y+7937500D01*
X+1841500Y+7874000D02*
X+1841717Y+7879247D01*
X+1843482Y+7889742D01*
X+1847174Y+7900237D01*
X+1853202Y+7910732D01*
X+1862424Y+7921112D01*
X+1872919Y+7928800D01*
X+1883414Y+7933718D01*
X+1893909Y+7936524D01*
X+1904404Y+7937497D01*
X+1905000Y+7937500D01*
X+1841500Y+7874000D02*
X+1841717Y+7868753D01*
X+1843482Y+7858258D01*
X+1847174Y+7847763D01*
X+1853202Y+7837268D01*
X+1862424Y+7826888D01*
X+1872919Y+7819200D01*
X+1883414Y+7814282D01*
X+1893909Y+7811476D01*
X+1904404Y+7810503D01*
X+1905000Y+7810500D01*
X+1968500Y+7874000D02*
X+1968283Y+7868753D01*
X+1966518Y+7858258D01*
X+1962826Y+7847763D01*
X+1956798Y+7837268D01*
X+1947576Y+7826888D01*
X+1937081Y+7819200D01*
X+1926586Y+7814282D01*
X+1916091Y+7811476D01*
X+1905596Y+7810503D01*
X+1905000Y+7810500D01*
X+1905000Y+7937500D02*
X+1905000Y+7810500D01*
X+1841500Y+7874000D02*
X+1968500Y+7874000D01*
X-1968500Y+5207000D02*
X-1968717Y+5212247D01*
X-1970482Y+5222742D01*
X-1974174Y+5233237D01*
X-1980202Y+5243732D01*
X-1989424Y+5254112D01*
X-1999919Y+5261800D01*
X-2010414Y+5266718D01*
X-2020909Y+5269524D01*
X-2031404Y+5270497D01*
X-2032000Y+5270500D01*
X-2095500Y+5207000D02*
X-2095283Y+5212247D01*
X-2093518Y+5222742D01*
X-2089826Y+5233237D01*
X-2083798Y+5243732D01*
X-2074576Y+5254112D01*
X-2064081Y+5261800D01*
X-2053586Y+5266718D01*
X-2043091Y+5269524D01*
X-2032596Y+5270497D01*
X-2032000Y+5270500D01*
X-2095500Y+5207000D02*
X-2095283Y+5201753D01*
X-2093518Y+5191258D01*
X-2089826Y+5180763D01*
X-2083798Y+5170268D01*
X-2074576Y+5159888D01*
X-2064081Y+5152200D01*
X-2053586Y+5147282D01*
X-2043091Y+5144476D01*
X-2032596Y+5143503D01*
X-2032000Y+5143500D01*
X-1968500Y+5207000D02*
X-1968717Y+5201753D01*
X-1970482Y+5191258D01*
X-1974174Y+5180763D01*
X-1980202Y+5170268D01*
X-1989424Y+5159888D01*
X-1999919Y+5152200D01*
X-2010414Y+5147282D01*
X-2020909Y+5144476D01*
X-2031404Y+5143503D01*
X-2032000Y+5143500D01*
X-2032000Y+5270500D02*
X-2032000Y+5143500D01*
X-2095500Y+5207000D02*
X-1968500Y+5207000D01*
X+3238500Y+7374000D02*
X+3238283Y+7379247D01*
X+3236518Y+7389742D01*
X+3232826Y+7400237D01*
X+3226798Y+7410732D01*
X+3217576Y+7421112D01*
X+3207081Y+7428800D01*
X+3196586Y+7433718D01*
X+3186091Y+7436524D01*
X+3175596Y+7437497D01*
X+3175000Y+7437500D01*
X+3111500Y+7374000D02*
X+3111717Y+7379247D01*
X+3113482Y+7389742D01*
X+3117174Y+7400237D01*
X+3123202Y+7410732D01*
X+3132424Y+7421112D01*
X+3142919Y+7428800D01*
X+3153414Y+7433718D01*
X+3163909Y+7436524D01*
X+3174404Y+7437497D01*
X+3175000Y+7437500D01*
X+3111500Y+7374000D02*
X+3111717Y+7368753D01*
X+3113482Y+7358258D01*
X+3117174Y+7347763D01*
X+3123202Y+7337268D01*
X+3132424Y+7326888D01*
X+3142919Y+7319200D01*
X+3153414Y+7314282D01*
X+3163909Y+7311476D01*
X+3174404Y+7310503D01*
X+3175000Y+7310500D01*
X+3238500Y+7374000D02*
X+3238283Y+7368753D01*
X+3236518Y+7358258D01*
X+3232826Y+7347763D01*
X+3226798Y+7337268D01*
X+3217576Y+7326888D01*
X+3207081Y+7319200D01*
X+3196586Y+7314282D01*
X+3186091Y+7311476D01*
X+3175596Y+7310503D01*
X+3175000Y+7310500D01*
X+3175000Y+7437500D02*
X+3175000Y+7310500D01*
X+3111500Y+7374000D02*
X+3238500Y+7374000D01*
X+3238283Y+7379247D01*
X+3236518Y+7389742D01*
X+3232826Y+7400237D01*
X+3226798Y+7410732D01*
X+3217576Y+7421112D01*
X+3207081Y+7428800D01*
X+3196586Y+7433718D01*
X+3186091Y+7436524D01*
X+3175596Y+7437497D01*
X+3175000Y+7437500D01*
X+3111500Y+7374000D02*
X+3111717Y+7379247D01*
X+3113482Y+7389742D01*
X+3117174Y+7400237D01*
X+3123202Y+7410732D01*
X+3132424Y+7421112D01*
X+3142919Y+7428800D01*
X+3153414Y+7433718D01*
X+3163909Y+7436524D01*
X+3174404Y+7437497D01*
X+3175000Y+7437500D01*
X+3111500Y+7374000D02*
X+3111717Y+7368753D01*
X+3113482Y+7358258D01*
X+3117174Y+7347763D01*
X+3123202Y+7337268D01*
X+3132424Y+7326888D01*
X+3142919Y+7319200D01*
X+3153414Y+7314282D01*
X+3163909Y+7311476D01*
X+3174404Y+7310503D01*
X+3175000Y+7310500D01*
X+3238500Y+7374000D02*
X+3238283Y+7368753D01*
X+3236518Y+7358258D01*
X+3232826Y+7347763D01*
X+3226798Y+7337268D01*
X+3217576Y+7326888D01*
X+3207081Y+7319200D01*
X+3196586Y+7314282D01*
X+3186091Y+7311476D01*
X+3175596Y+7310503D01*
X+3175000Y+7310500D01*
X+3130099Y+7418901D02*
X+3219901Y+7329099D01*
X+3130099Y+7329099D02*
X+3219901Y+7418901D01*
X+3238500Y+7874000D02*
X+3238283Y+7879247D01*
X+3236518Y+7889742D01*
X+3232826Y+7900237D01*
X+3226798Y+7910732D01*
X+3217576Y+7921112D01*
X+3207081Y+7928800D01*
X+3196586Y+7933718D01*
X+3186091Y+7936524D01*
X+3175596Y+7937497D01*
X+3175000Y+7937500D01*
X+3111500Y+7874000D02*
X+3111717Y+7879247D01*
X+3113482Y+7889742D01*
X+3117174Y+7900237D01*
X+3123202Y+7910732D01*
X+3132424Y+7921112D01*
X+3142919Y+7928800D01*
X+3153414Y+7933718D01*
X+3163909Y+7936524D01*
X+3174404Y+7937497D01*
X+3175000Y+7937500D01*
X+3111500Y+7874000D02*
X+3111717Y+7868753D01*
X+3113482Y+7858258D01*
X+3117174Y+7847763D01*
X+3123202Y+7837268D01*
X+3132424Y+7826888D01*
X+3142919Y+7819200D01*
X+3153414Y+7814282D01*
X+3163909Y+7811476D01*
X+3174404Y+7810503D01*
X+3175000Y+7810500D01*
X+3238500Y+7874000D02*
X+3238283Y+7868753D01*
X+3236518Y+7858258D01*
X+3232826Y+7847763D01*
X+3226798Y+7837268D01*
X+3217576Y+7826888D01*
X+3207081Y+7819200D01*
X+3196586Y+7814282D01*
X+3186091Y+7811476D01*
X+3175596Y+7810503D01*
X+3175000Y+7810500D01*
X+3175000Y+7937500D02*
X+3175000Y+7810500D01*
X+3111500Y+7874000D02*
X+3238500Y+7874000D01*
X+3238283Y+7879247D01*
X+3236518Y+7889742D01*
X+3232826Y+7900237D01*
X+3226798Y+7910732D01*
X+3217576Y+7921112D01*
X+3207081Y+7928800D01*
X+3196586Y+7933718D01*
X+3186091Y+7936524D01*
X+3175596Y+7937497D01*
X+3175000Y+7937500D01*
X+3111500Y+7874000D02*
X+3111717Y+7879247D01*
X+3113482Y+7889742D01*
X+3117174Y+7900237D01*
X+3123202Y+7910732D01*
X+3132424Y+7921112D01*
X+3142919Y+7928800D01*
X+3153414Y+7933718D01*
X+3163909Y+7936524D01*
X+3174404Y+7937497D01*
X+3175000Y+7937500D01*
X+3111500Y+7874000D02*
X+3111717Y+7868753D01*
X+3113482Y+7858258D01*
X+3117174Y+7847763D01*
X+3123202Y+7837268D01*
X+3132424Y+7826888D01*
X+3142919Y+7819200D01*
X+3153414Y+7814282D01*
X+3163909Y+7811476D01*
X+3174404Y+7810503D01*
X+3175000Y+7810500D01*
X+3238500Y+7874000D02*
X+3238283Y+7868753D01*
X+3236518Y+7858258D01*
X+3232826Y+7847763D01*
X+3226798Y+7837268D01*
X+3217576Y+7826888D01*
X+3207081Y+7819200D01*
X+3196586Y+7814282D01*
X+3186091Y+7811476D01*
X+3175596Y+7810503D01*
X+3175000Y+7810500D01*
X+3130099Y+7918901D02*
X+3219901Y+7829099D01*
X+3130099Y+7829099D02*
X+3219901Y+7918901D01*
X+3238500Y+6096000D02*
X+3238283Y+6101247D01*
X+3236518Y+6111742D01*
X+3232826Y+6122237D01*
X+3226798Y+6132732D01*
X+3217576Y+6143112D01*
X+3207081Y+6150800D01*
X+3196586Y+6155718D01*
X+3186091Y+6158524D01*
X+3175596Y+6159497D01*
X+3175000Y+6159500D01*
X+3111500Y+6096000D02*
X+3111717Y+6101247D01*
X+3113482Y+6111742D01*
X+3117174Y+6122237D01*
X+3123202Y+6132732D01*
X+3132424Y+6143112D01*
X+3142919Y+6150800D01*
X+3153414Y+6155718D01*
X+3163909Y+6158524D01*
X+3174404Y+6159497D01*
X+3175000Y+6159500D01*
X+3111500Y+6096000D02*
X+3111717Y+6090753D01*
X+3113482Y+6080258D01*
X+3117174Y+6069763D01*
X+3123202Y+6059268D01*
X+3132424Y+6048888D01*
X+3142919Y+6041200D01*
X+3153414Y+6036282D01*
X+3163909Y+6033476D01*
X+3174404Y+6032503D01*
X+3175000Y+6032500D01*
X+3238500Y+6096000D02*
X+3238283Y+6090753D01*
X+3236518Y+6080258D01*
X+3232826Y+6069763D01*
X+3226798Y+6059268D01*
X+3217576Y+6048888D01*
X+3207081Y+6041200D01*
X+3196586Y+6036282D01*
X+3186091Y+6033476D01*
X+3175596Y+6032503D01*
X+3175000Y+6032500D01*
X+3175000Y+6159500D02*
X+3175000Y+6032500D01*
X+3111500Y+6096000D02*
X+3238500Y+6096000D01*
X+3238283Y+6101247D01*
X+3236518Y+6111742D01*
X+3232826Y+6122237D01*
X+3226798Y+6132732D01*
X+3217576Y+6143112D01*
X+3207081Y+6150800D01*
X+3196586Y+6155718D01*
X+3186091Y+6158524D01*
X+3175596Y+6159497D01*
X+3175000Y+6159500D01*
X+3111500Y+6096000D02*
X+3111717Y+6101247D01*
X+3113482Y+6111742D01*
X+3117174Y+6122237D01*
X+3123202Y+6132732D01*
X+3132424Y+6143112D01*
X+3142919Y+6150800D01*
X+3153414Y+6155718D01*
X+3163909Y+6158524D01*
X+3174404Y+6159497D01*
X+3175000Y+6159500D01*
X+3111500Y+6096000D02*
X+3111717Y+6090753D01*
X+3113482Y+6080258D01*
X+3117174Y+6069763D01*
X+3123202Y+6059268D01*
X+3132424Y+6048888D01*
X+3142919Y+6041200D01*
X+3153414Y+6036282D01*
X+3163909Y+6033476D01*
X+3174404Y+6032503D01*
X+3175000Y+6032500D01*
X+3238500Y+6096000D02*
X+3238283Y+6090753D01*
X+3236518Y+6080258D01*
X+3232826Y+6069763D01*
X+3226798Y+6059268D01*
X+3217576Y+6048888D01*
X+3207081Y+6041200D01*
X+3196586Y+6036282D01*
X+3186091Y+6033476D01*
X+3175596Y+6032503D01*
X+3175000Y+6032500D01*
X+3130099Y+6140901D02*
X+3219901Y+6051099D01*
X+3130099Y+6051099D02*
X+3219901Y+6140901D01*
X+3238500Y+5461000D02*
X+3238283Y+5466247D01*
X+3236518Y+5476742D01*
X+3232826Y+5487237D01*
X+3226798Y+5497732D01*
X+3217576Y+5508112D01*
X+3207081Y+5515800D01*
X+3196586Y+5520718D01*
X+3186091Y+5523524D01*
X+3175596Y+5524497D01*
X+3175000Y+5524500D01*
X+3111500Y+5461000D02*
X+3111717Y+5466247D01*
X+3113482Y+5476742D01*
X+3117174Y+5487237D01*
X+3123202Y+5497732D01*
X+3132424Y+5508112D01*
X+3142919Y+5515800D01*
X+3153414Y+5520718D01*
X+3163909Y+5523524D01*
X+3174404Y+5524497D01*
X+3175000Y+5524500D01*
X+3111500Y+5461000D02*
X+3111717Y+5455753D01*
X+3113482Y+5445258D01*
X+3117174Y+5434763D01*
X+3123202Y+5424268D01*
X+3132424Y+5413888D01*
X+3142919Y+5406200D01*
X+3153414Y+5401282D01*
X+3163909Y+5398476D01*
X+3174404Y+5397503D01*
X+3175000Y+5397500D01*
X+3238500Y+5461000D02*
X+3238283Y+5455753D01*
X+3236518Y+5445258D01*
X+3232826Y+5434763D01*
X+3226798Y+5424268D01*
X+3217576Y+5413888D01*
X+3207081Y+5406200D01*
X+3196586Y+5401282D01*
X+3186091Y+5398476D01*
X+3175596Y+5397503D01*
X+3175000Y+5397500D01*
X+3175000Y+5524500D02*
X+3175000Y+5397500D01*
X+3111500Y+5461000D02*
X+3238500Y+5461000D01*
X+3238283Y+5466247D01*
X+3236518Y+5476742D01*
X+3232826Y+5487237D01*
X+3226798Y+5497732D01*
X+3217576Y+5508112D01*
X+3207081Y+5515800D01*
X+3196586Y+5520718D01*
X+3186091Y+5523524D01*
X+3175596Y+5524497D01*
X+3175000Y+5524500D01*
X+3111500Y+5461000D02*
X+3111717Y+5466247D01*
X+3113482Y+5476742D01*
X+3117174Y+5487237D01*
X+3123202Y+5497732D01*
X+3132424Y+5508112D01*
X+3142919Y+5515800D01*
X+3153414Y+5520718D01*
X+3163909Y+5523524D01*
X+3174404Y+5524497D01*
X+3175000Y+5524500D01*
X+3111500Y+5461000D02*
X+3111717Y+5455753D01*
X+3113482Y+5445258D01*
X+3117174Y+5434763D01*
X+3123202Y+5424268D01*
X+3132424Y+5413888D01*
X+3142919Y+5406200D01*
X+3153414Y+5401282D01*
X+3163909Y+5398476D01*
X+3174404Y+5397503D01*
X+3175000Y+5397500D01*
X+3238500Y+5461000D02*
X+3238283Y+5455753D01*
X+3236518Y+5445258D01*
X+3232826Y+5434763D01*
X+3226798Y+5424268D01*
X+3217576Y+5413888D01*
X+3207081Y+5406200D01*
X+3196586Y+5401282D01*
X+3186091Y+5398476D01*
X+3175596Y+5397503D01*
X+3175000Y+5397500D01*
X+3130099Y+5505901D02*
X+3219901Y+5416099D01*
X+3130099Y+5416099D02*
X+3219901Y+5505901D01*
X-3108960Y+4765040D02*
X+3512000Y+4765040D01*
X+3512000Y+8128000D01*
X-3108960Y+8128000D01*
X-3108960Y+4765040D01*
D60*
X-3119120Y+2273300D02*
X-474980Y+2273300D01*
X-474980Y+4000500D01*
X-3119120Y+4000500D01*
X-3119120Y+2273300D01*
D61*
X-2651758Y+4000500D02*
X-2651758Y+2273300D01*
X-1838958Y+4000500D02*
X-1838958Y+2273300D01*
X-1005838Y+4000500D02*
X-1005838Y+2273300D01*
X-3119120Y+3727450D02*
X-474980Y+3727450D01*
X-3119120Y+3486150D02*
X-474980Y+3486150D01*
X-3119120Y+3244850D02*
X-474980Y+3244850D01*
X-3119120Y+3003550D02*
X-474980Y+3003550D01*
X-3119120Y+2762250D02*
X-474980Y+2762250D01*
X-3119120Y+2520950D02*
X-474980Y+2520950D01*
D60*
X-3061970Y+3836670D02*
X-3046730Y+3821430D01*
X-2985770Y+3821430D01*
X-2970530Y+3836670D01*
X-2970530Y+3851910D01*
X-2985770Y+3867150D01*
X-3046730Y+3867150D01*
X-3061970Y+3882390D01*
X-3061970Y+3897630D01*
X-3046730Y+3912870D01*
X-2985770Y+3912870D01*
X-2970530Y+3897630D01*
X-2848610Y+3912870D02*
X-2940050Y+3821430D01*
X-2940050Y+3912870D02*
X-2894330Y+3867150D01*
X-2818130Y+3821430D02*
X-2818130Y+3912870D01*
X-2772410Y+3867150D01*
X-2726690Y+3912870D01*
X-2726690Y+3821430D01*
X-2594610Y+3836670D02*
X-2579370Y+3821430D01*
X-2518410Y+3821430D01*
X-2503170Y+3836670D01*
X-2503170Y+3851910D01*
X-2518410Y+3867150D01*
X-2579370Y+3867150D01*
X-2594610Y+3882390D01*
X-2594610Y+3897630D01*
X-2579370Y+3912870D01*
X-2518410Y+3912870D01*
X-2503170Y+3897630D01*
X-2457450Y+3912870D02*
X-2396490Y+3912870D01*
X-2426970Y+3912870D02*
X-2426970Y+3821430D01*
X-2457450Y+3821430D02*
X-2396490Y+3821430D01*
X-2350770Y+3912870D02*
X-2259330Y+3912870D01*
X-2350770Y+3821430D01*
X-2259330Y+3821430D01*
X-2137410Y+3821430D02*
X-2228850Y+3821430D01*
X-2228850Y+3912870D01*
X-2137410Y+3912870D01*
X-2228850Y+3867150D02*
X-2167890Y+3867150D01*
X-1781810Y+3821430D02*
X-1781810Y+3912870D01*
X-1705610Y+3912870D01*
X-1690370Y+3897630D01*
X-1690370Y+3882390D01*
X-1705610Y+3867150D01*
X-1781810Y+3867150D01*
X-1659890Y+3912870D02*
X-1659890Y+3821430D01*
X-1568450Y+3821430D01*
X-1537970Y+3821430D02*
X-1537970Y+3882390D01*
X-1507490Y+3912870D01*
X-1477010Y+3912870D01*
X-1446530Y+3882390D01*
X-1446530Y+3821430D01*
X-1537970Y+3851910D02*
X-1446530Y+3851910D01*
X-1416050Y+3912870D02*
X-1324610Y+3912870D01*
X-1370330Y+3912870D02*
X-1370330Y+3821430D01*
X-1202690Y+3821430D02*
X-1294130Y+3821430D01*
X-1294130Y+3912870D01*
X-1202690Y+3912870D01*
X-1294130Y+3867150D02*
X-1233170Y+3867150D01*
X-1172210Y+3821430D02*
X-1172210Y+3912870D01*
X-1111250Y+3912870D01*
X-1080770Y+3882390D01*
X-1080770Y+3851910D01*
X-1111250Y+3821430D01*
X-1172210Y+3821430D01*
X-948690Y+3882390D02*
X-918210Y+3912870D01*
X-887730Y+3912870D01*
X-857250Y+3882390D01*
X-857250Y+3851910D01*
X-887730Y+3821430D01*
X-918210Y+3821430D01*
X-948690Y+3851910D01*
X-948690Y+3882390D01*
X-887730Y+3851910D02*
X-857250Y+3821430D01*
X-826770Y+3912870D02*
X-735330Y+3912870D01*
X-781050Y+3912870D02*
X-781050Y+3821430D01*
X-613410Y+3912870D02*
X-704850Y+3821430D01*
X-704850Y+3912870D02*
X-659130Y+3867150D01*
D18*
X-2872740Y+3676650D02*
X-2872740Y+3549650D01*
X-2936240Y+3613150D02*
X-2809240Y+3613150D01*
D60*
X-2575560Y+3587750D02*
X-2575560Y+3638550D01*
X-2562860Y+3651250D01*
X-2512060Y+3651250D01*
X-2499360Y+3638550D01*
X-2499360Y+3587750D01*
X-2512060Y+3575050D01*
X-2562860Y+3575050D01*
X-2575560Y+3587750D01*
X-2575560Y+3575050D02*
X-2499360Y+3651250D01*
X-2435860Y+3587750D02*
X-2423160Y+3587750D01*
X-2423160Y+3575050D01*
X-2435860Y+3575050D01*
X-2435860Y+3587750D01*
X-2359660Y+3638550D02*
X-2346960Y+3651250D01*
X-2308860Y+3651250D01*
X-2296160Y+3638550D01*
X-2296160Y+3625850D01*
X-2308860Y+3613150D01*
X-2296160Y+3600450D01*
X-2296160Y+3587750D01*
X-2308860Y+3575050D01*
X-2346960Y+3575050D01*
X-2359660Y+3587750D01*
X-2334260Y+3613150D02*
X-2308860Y+3613150D01*
X-2245360Y+3613150D02*
X-2258060Y+3625850D01*
X-2258060Y+3638550D01*
X-2245360Y+3651250D01*
X-2207260Y+3651250D01*
X-2194560Y+3638550D01*
X-2194560Y+3625850D01*
X-2207260Y+3613150D01*
X-2245360Y+3613150D01*
X-2258060Y+3600450D01*
X-2258060Y+3587750D01*
X-2245360Y+3575050D01*
X-2207260Y+3575050D01*
X-2194560Y+3587750D01*
X-2194560Y+3600450D01*
X-2207260Y+3613150D01*
X-2143760Y+3625850D02*
X-2118360Y+3651250D01*
X-2118360Y+3575050D01*
X-2067560Y+3575050D02*
X-2067560Y+3625850D01*
X-2067560Y+3613150D02*
X-2054860Y+3625850D01*
X-2029460Y+3600450D01*
X-2004060Y+3625850D01*
X-1991360Y+3613150D01*
X-1991360Y+3575050D01*
X-1965960Y+3575050D02*
X-1965960Y+3625850D01*
X-1965960Y+3613150D02*
X-1953260Y+3625850D01*
X-1927860Y+3600450D01*
X-1902460Y+3625850D01*
X-1889760Y+3613150D01*
X-1889760Y+3575050D01*
X-1673860Y+3651250D02*
X-1750060Y+3575050D01*
X-1750060Y+3651250D02*
X-1711960Y+3613150D01*
X-1572260Y+3575050D02*
X-1648460Y+3575050D01*
X-1648460Y+3651250D01*
X-1572260Y+3651250D01*
X-1648460Y+3613150D02*
X-1597660Y+3613150D01*
X-1546860Y+3587750D02*
X-1534160Y+3575050D01*
X-1483360Y+3575050D01*
X-1470660Y+3587750D01*
X-1470660Y+3600450D01*
X-1483360Y+3613150D01*
X-1534160Y+3613150D01*
X-1546860Y+3625850D01*
X-1546860Y+3638550D01*
X-1534160Y+3651250D01*
X-1483360Y+3651250D01*
X-1470660Y+3638550D01*
X-878840Y+3625850D02*
X-853440Y+3651250D01*
X-853440Y+3575050D01*
D18*
X-2917641Y+3416751D02*
X-2827839Y+3326949D01*
X-2917641Y+3326949D02*
X-2827839Y+3416751D01*
D60*
X-2575560Y+3346450D02*
X-2575560Y+3397250D01*
X-2562860Y+3409950D01*
X-2512060Y+3409950D01*
X-2499360Y+3397250D01*
X-2499360Y+3346450D01*
X-2512060Y+3333750D01*
X-2562860Y+3333750D01*
X-2575560Y+3346450D01*
X-2575560Y+3333750D02*
X-2499360Y+3409950D01*
X-2435860Y+3346450D02*
X-2423160Y+3346450D01*
X-2423160Y+3333750D01*
X-2435860Y+3333750D01*
X-2435860Y+3346450D01*
X-2296160Y+3409950D02*
X-2359660Y+3409950D01*
X-2359660Y+3384550D01*
X-2308860Y+3384550D01*
X-2296160Y+3371850D01*
X-2296160Y+3346450D01*
X-2308860Y+3333750D01*
X-2346960Y+3333750D01*
X-2359660Y+3346450D01*
X-2270760Y+3346450D02*
X-2270760Y+3397250D01*
X-2258060Y+3409950D01*
X-2207260Y+3409950D01*
X-2194560Y+3397250D01*
X-2194560Y+3346450D01*
X-2207260Y+3333750D01*
X-2258060Y+3333750D01*
X-2270760Y+3346450D01*
X-2270760Y+3333750D02*
X-2194560Y+3409950D01*
X-2143760Y+3371850D02*
X-2156460Y+3384550D01*
X-2156460Y+3397250D01*
X-2143760Y+3409950D01*
X-2105660Y+3409950D01*
X-2092960Y+3397250D01*
X-2092960Y+3384550D01*
X-2105660Y+3371850D01*
X-2143760Y+3371850D01*
X-2156460Y+3359150D01*
X-2156460Y+3346450D01*
X-2143760Y+3333750D01*
X-2105660Y+3333750D01*
X-2092960Y+3346450D01*
X-2092960Y+3359150D01*
X-2105660Y+3371850D01*
X-2067560Y+3333750D02*
X-2067560Y+3384550D01*
X-2067560Y+3371850D02*
X-2054860Y+3384550D01*
X-2029460Y+3359150D01*
X-2004060Y+3384550D01*
X-1991360Y+3371850D01*
X-1991360Y+3333750D01*
X-1965960Y+3333750D02*
X-1965960Y+3384550D01*
X-1965960Y+3371850D02*
X-1953260Y+3384550D01*
X-1927860Y+3359150D01*
X-1902460Y+3384550D01*
X-1889760Y+3371850D01*
X-1889760Y+3333750D01*
X-1673860Y+3409950D02*
X-1750060Y+3333750D01*
X-1750060Y+3409950D02*
X-1711960Y+3371850D01*
X-1572260Y+3333750D02*
X-1648460Y+3333750D01*
X-1648460Y+3409950D01*
X-1572260Y+3409950D01*
X-1648460Y+3371850D02*
X-1597660Y+3371850D01*
X-1546860Y+3346450D02*
X-1534160Y+3333750D01*
X-1483360Y+3333750D01*
X-1470660Y+3346450D01*
X-1470660Y+3359150D01*
X-1483360Y+3371850D01*
X-1534160Y+3371850D01*
X-1546860Y+3384550D01*
X-1546860Y+3397250D01*
X-1534160Y+3409950D01*
X-1483360Y+3409950D01*
X-1470660Y+3397250D01*
X-828040Y+3359150D02*
X-904240Y+3359150D01*
X-853440Y+3409950D01*
X-853440Y+3333750D01*
D18*
X-2872740Y+3194050D02*
X-2872740Y+3067050D01*
X-2936240Y+3130550D02*
X-2809240Y+3130550D01*
X-2917641Y+3175451D02*
X-2827839Y+3085649D01*
X-2917641Y+3085649D02*
X-2827839Y+3175451D01*
D60*
X-2575560Y+3105150D02*
X-2575560Y+3155950D01*
X-2562860Y+3168650D01*
X-2512060Y+3168650D01*
X-2499360Y+3155950D01*
X-2499360Y+3105150D01*
X-2512060Y+3092450D01*
X-2562860Y+3092450D01*
X-2575560Y+3105150D01*
X-2575560Y+3092450D02*
X-2499360Y+3168650D01*
X-2435860Y+3105150D02*
X-2423160Y+3105150D01*
X-2423160Y+3092450D01*
X-2435860Y+3092450D01*
X-2435860Y+3105150D01*
X-2359660Y+3168650D02*
X-2296160Y+3168650D01*
X-2296160Y+3155950D01*
X-2359660Y+3092450D01*
X-2194560Y+3155950D02*
X-2207260Y+3168650D01*
X-2245360Y+3168650D01*
X-2258060Y+3155950D01*
X-2258060Y+3105150D01*
X-2245360Y+3092450D01*
X-2207260Y+3092450D01*
X-2194560Y+3105150D01*
X-2194560Y+3117850D01*
X-2207260Y+3130550D01*
X-2258060Y+3130550D01*
X-2156460Y+3155950D02*
X-2143760Y+3168650D01*
X-2105660Y+3168650D01*
X-2092960Y+3155950D01*
X-2092960Y+3143250D01*
X-2105660Y+3130550D01*
X-2143760Y+3130550D01*
X-2156460Y+3117850D01*
X-2156460Y+3092450D01*
X-2092960Y+3092450D01*
X-2067560Y+3092450D02*
X-2067560Y+3143250D01*
X-2067560Y+3130550D02*
X-2054860Y+3143250D01*
X-2029460Y+3117850D01*
X-2004060Y+3143250D01*
X-1991360Y+3130550D01*
X-1991360Y+3092450D01*
X-1965960Y+3092450D02*
X-1965960Y+3143250D01*
X-1965960Y+3130550D02*
X-1953260Y+3143250D01*
X-1927860Y+3117850D01*
X-1902460Y+3143250D01*
X-1889760Y+3130550D01*
X-1889760Y+3092450D01*
X-1673860Y+3168650D02*
X-1750060Y+3092450D01*
X-1750060Y+3168650D02*
X-1711960Y+3130550D01*
X-1572260Y+3092450D02*
X-1648460Y+3092450D01*
X-1648460Y+3168650D01*
X-1572260Y+3168650D01*
X-1648460Y+3130550D02*
X-1597660Y+3130550D01*
X-1546860Y+3105150D02*
X-1534160Y+3092450D01*
X-1483360Y+3092450D01*
X-1470660Y+3105150D01*
X-1470660Y+3117850D01*
X-1483360Y+3130550D01*
X-1534160Y+3130550D01*
X-1546860Y+3143250D01*
X-1546860Y+3155950D01*
X-1534160Y+3168650D01*
X-1483360Y+3168650D01*
X-1470660Y+3155950D01*
X-891540Y+3155950D02*
X-878840Y+3168650D01*
X-840740Y+3168650D01*
X-828040Y+3155950D01*
X-828040Y+3143250D01*
X-840740Y+3130550D01*
X-878840Y+3130550D01*
X-891540Y+3117850D01*
X-891540Y+3092450D01*
X-828040Y+3092450D01*
X-777240Y+3130550D02*
X-789940Y+3143250D01*
X-789940Y+3155950D01*
X-777240Y+3168650D01*
X-739140Y+3168650D01*
X-726440Y+3155950D01*
X-726440Y+3143250D01*
X-739140Y+3130550D01*
X-777240Y+3130550D01*
X-789940Y+3117850D01*
X-789940Y+3105150D01*
X-777240Y+3092450D01*
X-739140Y+3092450D01*
X-726440Y+3105150D01*
X-726440Y+3117850D01*
X-739140Y+3130550D01*
D18*
X-2809240Y+2889250D02*
X-2809457Y+2894497D01*
X-2811222Y+2904992D01*
X-2814914Y+2915487D01*
X-2820942Y+2925982D01*
X-2830164Y+2936362D01*
X-2840659Y+2944050D01*
X-2851154Y+2948968D01*
X-2861649Y+2951774D01*
X-2872144Y+2952747D01*
X-2872740Y+2952750D01*
X-2936240Y+2889250D02*
X-2936023Y+2894497D01*
X-2934258Y+2904992D01*
X-2930566Y+2915487D01*
X-2924538Y+2925982D01*
X-2915316Y+2936362D01*
X-2904821Y+2944050D01*
X-2894326Y+2948968D01*
X-2883831Y+2951774D01*
X-2873336Y+2952747D01*
X-2872740Y+2952750D01*
X-2936240Y+2889250D02*
X-2936023Y+2884003D01*
X-2934258Y+2873508D01*
X-2930566Y+2863013D01*
X-2924538Y+2852518D01*
X-2915316Y+2842138D01*
X-2904821Y+2834450D01*
X-2894326Y+2829532D01*
X-2883831Y+2826726D01*
X-2873336Y+2825753D01*
X-2872740Y+2825750D01*
X-2809240Y+2889250D02*
X-2809457Y+2884003D01*
X-2811222Y+2873508D01*
X-2814914Y+2863013D01*
X-2820942Y+2852518D01*
X-2830164Y+2842138D01*
X-2840659Y+2834450D01*
X-2851154Y+2829532D01*
X-2861649Y+2826726D01*
X-2872144Y+2825753D01*
X-2872740Y+2825750D01*
X-2872740Y+2952750D02*
X-2872740Y+2825750D01*
X-2936240Y+2889250D02*
X-2809240Y+2889250D01*
D60*
X-2550160Y+2901950D02*
X-2524760Y+2927350D01*
X-2524760Y+2851150D01*
X-2435860Y+2863850D02*
X-2423160Y+2863850D01*
X-2423160Y+2851150D01*
X-2435860Y+2851150D01*
X-2435860Y+2863850D01*
X-2372360Y+2863850D02*
X-2372360Y+2914650D01*
X-2359660Y+2927350D01*
X-2308860Y+2927350D01*
X-2296160Y+2914650D01*
X-2296160Y+2863850D01*
X-2308860Y+2851150D01*
X-2359660Y+2851150D01*
X-2372360Y+2863850D01*
X-2372360Y+2851150D02*
X-2296160Y+2927350D01*
X-2245360Y+2901950D02*
X-2219960Y+2927350D01*
X-2219960Y+2851150D01*
X-2092960Y+2914650D02*
X-2105660Y+2927350D01*
X-2143760Y+2927350D01*
X-2156460Y+2914650D01*
X-2156460Y+2863850D01*
X-2143760Y+2851150D01*
X-2105660Y+2851150D01*
X-2092960Y+2863850D01*
X-2092960Y+2876550D01*
X-2105660Y+2889250D01*
X-2156460Y+2889250D01*
X-2067560Y+2851150D02*
X-2067560Y+2901950D01*
X-2067560Y+2889250D02*
X-2054860Y+2901950D01*
X-2029460Y+2876550D01*
X-2004060Y+2901950D01*
X-1991360Y+2889250D01*
X-1991360Y+2851150D01*
X-1965960Y+2851150D02*
X-1965960Y+2901950D01*
X-1965960Y+2889250D02*
X-1953260Y+2901950D01*
X-1927860Y+2876550D01*
X-1902460Y+2901950D01*
X-1889760Y+2889250D01*
X-1889760Y+2851150D01*
X-1673860Y+2927350D02*
X-1750060Y+2851150D01*
X-1750060Y+2927350D02*
X-1711960Y+2889250D01*
X-1572260Y+2851150D02*
X-1648460Y+2851150D01*
X-1648460Y+2927350D01*
X-1572260Y+2927350D01*
X-1648460Y+2889250D02*
X-1597660Y+2889250D01*
X-1546860Y+2863850D02*
X-1534160Y+2851150D01*
X-1483360Y+2851150D01*
X-1470660Y+2863850D01*
X-1470660Y+2876550D01*
X-1483360Y+2889250D01*
X-1534160Y+2889250D01*
X-1546860Y+2901950D01*
X-1546860Y+2914650D01*
X-1534160Y+2927350D01*
X-1483360Y+2927350D01*
X-1470660Y+2914650D01*
X-878840Y+2901950D02*
X-853440Y+2927350D01*
X-853440Y+2851150D01*
X-726440Y+2876550D02*
X-802640Y+2876550D01*
X-751840Y+2927350D01*
X-751840Y+2851150D01*
D18*
X-2809240Y+2647950D02*
X-2809457Y+2653197D01*
X-2811222Y+2663692D01*
X-2814914Y+2674187D01*
X-2820942Y+2684682D01*
X-2830164Y+2695062D01*
X-2840659Y+2702750D01*
X-2851154Y+2707668D01*
X-2861649Y+2710474D01*
X-2872144Y+2711447D01*
X-2872740Y+2711450D01*
X-2936240Y+2647950D02*
X-2936023Y+2653197D01*
X-2934258Y+2663692D01*
X-2930566Y+2674187D01*
X-2924538Y+2684682D01*
X-2915316Y+2695062D01*
X-2904821Y+2702750D01*
X-2894326Y+2707668D01*
X-2883831Y+2710474D01*
X-2873336Y+2711447D01*
X-2872740Y+2711450D01*
X-2936240Y+2647950D02*
X-2936023Y+2642703D01*
X-2934258Y+2632208D01*
X-2930566Y+2621713D01*
X-2924538Y+2611218D01*
X-2915316Y+2600838D01*
X-2904821Y+2593150D01*
X-2894326Y+2588232D01*
X-2883831Y+2585426D01*
X-2873336Y+2584453D01*
X-2872740Y+2584450D01*
X-2809240Y+2647950D02*
X-2809457Y+2642703D01*
X-2811222Y+2632208D01*
X-2814914Y+2621713D01*
X-2820942Y+2611218D01*
X-2830164Y+2600838D01*
X-2840659Y+2593150D01*
X-2851154Y+2588232D01*
X-2861649Y+2585426D01*
X-2872144Y+2584453D01*
X-2872740Y+2584450D01*
X-2917641Y+2692851D02*
X-2827839Y+2603049D01*
X-2917641Y+2603049D02*
X-2827839Y+2692851D01*
D60*
X-2550160Y+2660650D02*
X-2524760Y+2686050D01*
X-2524760Y+2609850D01*
X-2435860Y+2622550D02*
X-2423160Y+2622550D01*
X-2423160Y+2609850D01*
X-2435860Y+2609850D01*
X-2435860Y+2622550D01*
X-2346960Y+2660650D02*
X-2321560Y+2686050D01*
X-2321560Y+2609850D01*
X-2194560Y+2635250D02*
X-2270760Y+2635250D01*
X-2219960Y+2686050D01*
X-2219960Y+2609850D01*
X-2156460Y+2673350D02*
X-2143760Y+2686050D01*
X-2105660Y+2686050D01*
X-2092960Y+2673350D01*
X-2092960Y+2660650D01*
X-2105660Y+2647950D01*
X-2092960Y+2635250D01*
X-2092960Y+2622550D01*
X-2105660Y+2609850D01*
X-2143760Y+2609850D01*
X-2156460Y+2622550D01*
X-2131060Y+2647950D02*
X-2105660Y+2647950D01*
X-2067560Y+2609850D02*
X-2067560Y+2660650D01*
X-2067560Y+2647950D02*
X-2054860Y+2660650D01*
X-2029460Y+2635250D01*
X-2004060Y+2660650D01*
X-1991360Y+2647950D01*
X-1991360Y+2609850D01*
X-1965960Y+2609850D02*
X-1965960Y+2660650D01*
X-1965960Y+2647950D02*
X-1953260Y+2660650D01*
X-1927860Y+2635250D01*
X-1902460Y+2660650D01*
X-1889760Y+2647950D01*
X-1889760Y+2609850D01*
X-1673860Y+2686050D02*
X-1750060Y+2609850D01*
X-1750060Y+2686050D02*
X-1711960Y+2647950D01*
X-1572260Y+2609850D02*
X-1648460Y+2609850D01*
X-1648460Y+2686050D01*
X-1572260Y+2686050D01*
X-1648460Y+2647950D02*
X-1597660Y+2647950D01*
X-1546860Y+2622550D02*
X-1534160Y+2609850D01*
X-1483360Y+2609850D01*
X-1470660Y+2622550D01*
X-1470660Y+2635250D01*
X-1483360Y+2647950D01*
X-1534160Y+2647950D01*
X-1546860Y+2660650D01*
X-1546860Y+2673350D01*
X-1534160Y+2686050D01*
X-1483360Y+2686050D01*
X-1470660Y+2673350D01*
X-891540Y+2673350D02*
X-878840Y+2686050D01*
X-840740Y+2686050D01*
X-828040Y+2673350D01*
X-828040Y+2660650D01*
X-840740Y+2647950D01*
X-878840Y+2647950D01*
X-891540Y+2635250D01*
X-891540Y+2609850D01*
X-828040Y+2609850D01*
D18*
X-2809240Y+2406650D02*
X-2809457Y+2411897D01*
X-2811222Y+2422392D01*
X-2814914Y+2432887D01*
X-2820942Y+2443382D01*
X-2830164Y+2453762D01*
X-2840659Y+2461450D01*
X-2851154Y+2466368D01*
X-2861649Y+2469174D01*
X-2872144Y+2470147D01*
X-2872740Y+2470150D01*
X-2936240Y+2406650D02*
X-2936023Y+2411897D01*
X-2934258Y+2422392D01*
X-2930566Y+2432887D01*
X-2924538Y+2443382D01*
X-2915316Y+2453762D01*
X-2904821Y+2461450D01*
X-2894326Y+2466368D01*
X-2883831Y+2469174D01*
X-2873336Y+2470147D01*
X-2872740Y+2470150D01*
X-2936240Y+2406650D02*
X-2936023Y+2401403D01*
X-2934258Y+2390908D01*
X-2930566Y+2380413D01*
X-2924538Y+2369918D01*
X-2915316Y+2359538D01*
X-2904821Y+2351850D01*
X-2894326Y+2346932D01*
X-2883831Y+2344126D01*
X-2873336Y+2343153D01*
X-2872740Y+2343150D01*
X-2809240Y+2406650D02*
X-2809457Y+2401403D01*
X-2811222Y+2390908D01*
X-2814914Y+2380413D01*
X-2820942Y+2369918D01*
X-2830164Y+2359538D01*
X-2840659Y+2351850D01*
X-2851154Y+2346932D01*
X-2861649Y+2344126D01*
X-2872144Y+2343153D01*
X-2872740Y+2343150D01*
X-2872740Y+2470150D02*
X-2872740Y+2343150D01*
X-2936240Y+2406650D02*
X-2809240Y+2406650D01*
X-2809457Y+2411897D01*
X-2811222Y+2422392D01*
X-2814914Y+2432887D01*
X-2820942Y+2443382D01*
X-2830164Y+2453762D01*
X-2840659Y+2461450D01*
X-2851154Y+2466368D01*
X-2861649Y+2469174D01*
X-2872144Y+2470147D01*
X-2872740Y+2470150D01*
X-2936240Y+2406650D02*
X-2936023Y+2411897D01*
X-2934258Y+2422392D01*
X-2930566Y+2432887D01*
X-2924538Y+2443382D01*
X-2915316Y+2453762D01*
X-2904821Y+2461450D01*
X-2894326Y+2466368D01*
X-2883831Y+2469174D01*
X-2873336Y+2470147D01*
X-2872740Y+2470150D01*
X-2936240Y+2406650D02*
X-2936023Y+2401403D01*
X-2934258Y+2390908D01*
X-2930566Y+2380413D01*
X-2924538Y+2369918D01*
X-2915316Y+2359538D01*
X-2904821Y+2351850D01*
X-2894326Y+2346932D01*
X-2883831Y+2344126D01*
X-2873336Y+2343153D01*
X-2872740Y+2343150D01*
X-2809240Y+2406650D02*
X-2809457Y+2401403D01*
X-2811222Y+2390908D01*
X-2814914Y+2380413D01*
X-2820942Y+2369918D01*
X-2830164Y+2359538D01*
X-2840659Y+2351850D01*
X-2851154Y+2346932D01*
X-2861649Y+2344126D01*
X-2872144Y+2343153D01*
X-2872740Y+2343150D01*
X-2917641Y+2451551D02*
X-2827839Y+2361749D01*
X-2917641Y+2361749D02*
X-2827839Y+2451551D01*
D60*
X-2550160Y+2419350D02*
X-2524760Y+2444750D01*
X-2524760Y+2368550D01*
X-2435860Y+2381250D02*
X-2423160Y+2381250D01*
X-2423160Y+2368550D01*
X-2435860Y+2368550D01*
X-2435860Y+2381250D01*
X-2296160Y+2444750D02*
X-2359660Y+2444750D01*
X-2359660Y+2419350D01*
X-2308860Y+2419350D01*
X-2296160Y+2406650D01*
X-2296160Y+2381250D01*
X-2308860Y+2368550D01*
X-2346960Y+2368550D01*
X-2359660Y+2381250D01*
X-2258060Y+2432050D02*
X-2245360Y+2444750D01*
X-2207260Y+2444750D01*
X-2194560Y+2432050D01*
X-2194560Y+2419350D01*
X-2207260Y+2406650D01*
X-2245360Y+2406650D01*
X-2258060Y+2393950D01*
X-2258060Y+2368550D01*
X-2194560Y+2368550D01*
X-2092960Y+2393950D02*
X-2169160Y+2393950D01*
X-2118360Y+2444750D01*
X-2118360Y+2368550D01*
X-2067560Y+2368550D02*
X-2067560Y+2419350D01*
X-2067560Y+2406650D02*
X-2054860Y+2419350D01*
X-2029460Y+2393950D01*
X-2004060Y+2419350D01*
X-1991360Y+2406650D01*
X-1991360Y+2368550D01*
X-1965960Y+2368550D02*
X-1965960Y+2419350D01*
X-1965960Y+2406650D02*
X-1953260Y+2419350D01*
X-1927860Y+2393950D01*
X-1902460Y+2419350D01*
X-1889760Y+2406650D01*
X-1889760Y+2368550D01*
X-1673860Y+2444750D02*
X-1750060Y+2368550D01*
X-1750060Y+2444750D02*
X-1711960Y+2406650D01*
X-1572260Y+2368550D02*
X-1648460Y+2368550D01*
X-1648460Y+2444750D01*
X-1572260Y+2444750D01*
X-1648460Y+2406650D02*
X-1597660Y+2406650D01*
X-1546860Y+2381250D02*
X-1534160Y+2368550D01*
X-1483360Y+2368550D01*
X-1470660Y+2381250D01*
X-1470660Y+2393950D01*
X-1483360Y+2406650D01*
X-1534160Y+2406650D01*
X-1546860Y+2419350D01*
X-1546860Y+2432050D01*
X-1534160Y+2444750D01*
X-1483360Y+2444750D01*
X-1470660Y+2432050D01*
X-828040Y+2393950D02*
X-904240Y+2393950D01*
X-853440Y+2444750D01*
X-853440Y+2368550D01*
M02*
