G04 PROTEUS RS274X GERBER FILE*
%FSLAX45Y45*%
%MOMM*%
G01*
%ADD11C,0.762000*%
%ADD19C,1.270000*%
%ADD10C,0.381000*%
%ADD70C,1.778000*%
%ADD12C,0.762000*%
%ADD13C,1.270000*%
%ADD18C,0.203200*%
%ADD14R,2.032000X2.032000*%
%ADD71R,1.143000X1.803400*%
%ADD20R,1.803400X1.143000*%
%ADD21R,1.803400X1.244600*%
%ADD15C,2.540000*%
%ADD22R,1.016000X1.524000*%
%ADD16R,1.778000X1.778000*%
%ADD23R,1.524000X2.032000*%
%ADD24R,3.810000X2.032000*%
%ADD25R,4.572000X1.651000*%
%ADD26R,1.651000X1.651000*%
%ADD17C,3.810000*%
%ADD27R,0.304800X1.778000*%
G36*
X+3453580Y+4823460D02*
X-3050540Y+4823460D01*
X-3050540Y+8069580D01*
X+3050884Y+8069580D01*
X+2948941Y+7967637D01*
X+2948941Y+7780363D01*
X+3081363Y+7647941D01*
X+3268637Y+7647941D01*
X+3401059Y+7780363D01*
X+3401059Y+7967637D01*
X+3299116Y+8069580D01*
X+3453580Y+8069580D01*
X+3453580Y+4823460D01*
G37*
%LPC*%
G36*
X-2529841Y+7439659D02*
X-1866232Y+7439659D01*
X-1849282Y+7422709D01*
X-1652271Y+7422709D01*
X-1652271Y+7237291D01*
X-1704341Y+7237291D01*
X-1704341Y+7236459D01*
X-1653541Y+7236459D01*
X-1653541Y+6987541D01*
X-1902459Y+6987541D01*
X-1902459Y+7236459D01*
X-1871368Y+7236459D01*
X-1872200Y+7237291D01*
X-1903729Y+7237291D01*
X-1903729Y+7268820D01*
X-1927250Y+7292341D01*
X-2529841Y+7292341D01*
X-2529841Y+7185659D01*
X-2154459Y+7185659D01*
X-2154459Y+7236459D01*
X-1905541Y+7236459D01*
X-1905541Y+6987541D01*
X-2154459Y+6987541D01*
X-2154459Y+7038341D01*
X-2529841Y+7038341D01*
X-2529841Y+6677659D01*
X-2411729Y+6677659D01*
X-2411729Y+6732709D01*
X-2297459Y+6732709D01*
X-2245938Y+6784230D01*
X-2157729Y+6784230D01*
X-2157729Y+6950709D01*
X-1906271Y+6950709D01*
X-1906271Y+6784230D01*
X-1903729Y+6784230D01*
X-1903729Y+6950709D01*
X-1652271Y+6950709D01*
X-1652271Y+6784230D01*
X-1649729Y+6784230D01*
X-1649729Y+6950709D01*
X-1398271Y+6950709D01*
X-1398271Y+6784230D01*
X-1395729Y+6784230D01*
X-1395729Y+6950709D01*
X-1144271Y+6950709D01*
X-1144271Y+6784230D01*
X-1141729Y+6784230D01*
X-1141729Y+6950709D01*
X-890271Y+6950709D01*
X-890271Y+6784230D01*
X-564942Y+6784230D01*
X-551672Y+6797500D01*
X-469608Y+6797500D01*
X-411581Y+6739473D01*
X-411581Y+6657409D01*
X-469608Y+6599382D01*
X-551672Y+6599382D01*
X-589202Y+6636912D01*
X-890271Y+6636912D01*
X-890271Y+6465291D01*
X-891541Y+6465291D01*
X-891541Y+6225541D01*
X-942341Y+6225541D01*
X-942341Y+6094729D01*
X-842291Y+6094729D01*
X-842291Y+5843271D01*
X-890271Y+5843271D01*
X-890271Y+5658291D01*
X-1141729Y+5658291D01*
X-1141729Y+5843709D01*
X-1089659Y+5843709D01*
X-1089659Y+6225541D01*
X-1140459Y+6225541D01*
X-1140459Y+6465291D01*
X-1141729Y+6465291D01*
X-1141729Y+6494341D01*
X-1144271Y+6494341D01*
X-1144271Y+6475291D01*
X-1196341Y+6475291D01*
X-1196341Y+6474459D01*
X-1145541Y+6474459D01*
X-1145541Y+6225541D01*
X-1196341Y+6225541D01*
X-1196341Y+5843709D01*
X-1144271Y+5843709D01*
X-1144271Y+5658291D01*
X-1395729Y+5658291D01*
X-1395729Y+5843709D01*
X-1343659Y+5843709D01*
X-1343659Y+6225541D01*
X-1394459Y+6225541D01*
X-1394459Y+6474459D01*
X-1343659Y+6474459D01*
X-1343659Y+6475291D01*
X-1395729Y+6475291D01*
X-1395729Y+6636912D01*
X-1398271Y+6636912D01*
X-1398271Y+6475291D01*
X-1450341Y+6475291D01*
X-1450341Y+6474459D01*
X-1399541Y+6474459D01*
X-1399541Y+6225541D01*
X-1450341Y+6225541D01*
X-1450341Y+5843709D01*
X-1398271Y+5843709D01*
X-1398271Y+5658291D01*
X-1649729Y+5658291D01*
X-1649729Y+5843709D01*
X-1597659Y+5843709D01*
X-1597659Y+6225541D01*
X-1648459Y+6225541D01*
X-1648459Y+6474459D01*
X-1597659Y+6474459D01*
X-1597659Y+6475291D01*
X-1649729Y+6475291D01*
X-1649729Y+6484341D01*
X-1652271Y+6484341D01*
X-1652271Y+6465291D01*
X-1653541Y+6465291D01*
X-1653541Y+6225541D01*
X-1704341Y+6225541D01*
X-1704341Y+5843709D01*
X-1652271Y+5843709D01*
X-1652271Y+5658291D01*
X-1903729Y+5658291D01*
X-1903729Y+5677341D01*
X-1906271Y+5677341D01*
X-1906271Y+5658291D01*
X-2157729Y+5658291D01*
X-2157729Y+5677341D01*
X-2160271Y+5677341D01*
X-2160271Y+5668291D01*
X-2411729Y+5668291D01*
X-2411729Y+5853709D01*
X-2160271Y+5853709D01*
X-2160271Y+5824659D01*
X-2157729Y+5824659D01*
X-2157729Y+5843709D01*
X-1906271Y+5843709D01*
X-1906271Y+5824659D01*
X-1903729Y+5824659D01*
X-1903729Y+5843709D01*
X-1851659Y+5843709D01*
X-1851659Y+6225541D01*
X-1902459Y+6225541D01*
X-1902459Y+6465291D01*
X-1903729Y+6465291D01*
X-1903729Y+6636912D01*
X-1906271Y+6636912D01*
X-1906271Y+6465291D01*
X-1907541Y+6465291D01*
X-1907541Y+6225541D01*
X-2156459Y+6225541D01*
X-2156459Y+6276341D01*
X-2160271Y+6276341D01*
X-2160271Y+6257291D01*
X-2212341Y+6257291D01*
X-2212341Y+6066789D01*
X-2160271Y+6066789D01*
X-2160271Y+5871211D01*
X-2411729Y+5871211D01*
X-2411729Y+6066789D01*
X-2359659Y+6066789D01*
X-2359659Y+6257291D01*
X-2411729Y+6257291D01*
X-2411729Y+6276341D01*
X-2529841Y+6276341D01*
X-2529841Y+6212841D01*
X-2804159Y+6212841D01*
X-2804159Y+7503159D01*
X-2529841Y+7503159D01*
X-2529841Y+7439659D01*
G37*
G36*
X+1535459Y+7585709D02*
X+1649729Y+7585709D01*
X+1649729Y+7439659D01*
X+1767841Y+7439659D01*
X+1767841Y+7503159D01*
X+2042159Y+7503159D01*
X+2042159Y+6677659D01*
X+2313941Y+6677659D01*
X+2313941Y+6741159D01*
X+2466341Y+6741159D01*
X+2466341Y+7096761D01*
X+2428241Y+7096761D01*
X+2428241Y+7371079D01*
X+2493291Y+7371079D01*
X+2493291Y+7445618D01*
X+2486941Y+7451968D01*
X+2486941Y+7534032D01*
X+2493291Y+7540382D01*
X+2493291Y+7618729D01*
X+2678709Y+7618729D01*
X+2678709Y+7592059D01*
X+3073363Y+7592059D01*
X+3081363Y+7600059D01*
X+3268637Y+7600059D01*
X+3401059Y+7467637D01*
X+3401059Y+7280363D01*
X+3268637Y+7147941D01*
X+3081363Y+7147941D01*
X+2948941Y+7280363D01*
X+2948941Y+7393941D01*
X+2870199Y+7393941D01*
X+2870199Y+7371079D01*
X+2882899Y+7371079D01*
X+2882899Y+7096761D01*
X+2659381Y+7096761D01*
X+2659381Y+7367271D01*
X+2651759Y+7367271D01*
X+2651759Y+7096761D01*
X+2613659Y+7096761D01*
X+2613659Y+6741159D01*
X+2766059Y+6741159D01*
X+2766059Y+6466841D01*
X+2313941Y+6466841D01*
X+2313941Y+6530341D01*
X+2042159Y+6530341D01*
X+2042159Y+6466841D01*
X+1767841Y+6466841D01*
X+1767841Y+6530341D01*
X+1649729Y+6530341D01*
X+1649729Y+6465291D01*
X+1398271Y+6465291D01*
X+1398271Y+6530341D01*
X+1366491Y+6530341D01*
X+1271269Y+6625563D01*
X+1014729Y+6625563D01*
X+1014729Y+6465291D01*
X+940609Y+6465291D01*
X+940609Y+6414700D01*
X+974968Y+6449059D01*
X+1057032Y+6449059D01*
X+1115059Y+6391032D01*
X+1115059Y+6308968D01*
X+1057032Y+6250941D01*
X+974968Y+6250941D01*
X+940609Y+6285300D01*
X+940609Y+6245619D01*
X+1003489Y+6182739D01*
X+1003489Y+6201363D01*
X+1046637Y+6244511D01*
X+1126772Y+6244510D01*
X+1126773Y+6244511D01*
X+1398591Y+6244511D01*
X+1441739Y+6201363D01*
X+1441739Y+6201361D01*
X+1499631Y+6143469D01*
X+1499633Y+6143469D01*
X+1542781Y+6100321D01*
X+1542781Y+6083978D01*
X+1568181Y+6058578D01*
X+1568181Y+5976514D01*
X+1526376Y+5934709D01*
X+1776729Y+5934709D01*
X+1776729Y+5915659D01*
X+1874491Y+5915659D01*
X+1936723Y+5977891D01*
X+1913891Y+5977891D01*
X+1913891Y+6214109D01*
X+2228097Y+6214109D01*
X+2234447Y+6220459D01*
X+2337553Y+6220459D01*
X+2343903Y+6214109D01*
X+2355097Y+6214109D01*
X+2361447Y+6220459D01*
X+2979763Y+6220459D01*
X+3081363Y+6322059D01*
X+3268637Y+6322059D01*
X+3401059Y+6189637D01*
X+3401059Y+6002363D01*
X+3268637Y+5869941D01*
X+3251953Y+5869941D01*
X+3226553Y+5844541D01*
X+3226551Y+5844541D01*
X+3099551Y+5717541D01*
X+2234448Y+5717541D01*
X+2161542Y+5790447D01*
X+2161542Y+5917446D01*
X+2161541Y+5917447D01*
X+2161541Y+5977891D01*
X+2105659Y+5977891D01*
X+2105659Y+5938491D01*
X+1935509Y+5768341D01*
X+1776729Y+5768341D01*
X+1776729Y+5749291D01*
X+1525271Y+5749291D01*
X+1525271Y+5760965D01*
X+1482210Y+5760965D01*
X+1375539Y+5654294D01*
X+1375539Y+5584974D01*
X+1426348Y+5635783D01*
X+1508412Y+5635783D01*
X+1525271Y+5618924D01*
X+1525271Y+5634709D01*
X+1776729Y+5634709D01*
X+1776729Y+5615659D01*
X+1899115Y+5615659D01*
X+2104787Y+5409987D01*
X+2104787Y+5325109D01*
X+2161541Y+5325109D01*
X+2161541Y+5385553D01*
X+2161542Y+5385554D01*
X+2161542Y+5512553D01*
X+2234448Y+5585459D01*
X+2979763Y+5585459D01*
X+3081363Y+5687059D01*
X+3268637Y+5687059D01*
X+3401059Y+5554637D01*
X+3401059Y+5367363D01*
X+3268637Y+5234941D01*
X+3124953Y+5234941D01*
X+3099553Y+5209541D01*
X+3099551Y+5209541D01*
X+2972552Y+5082542D01*
X+2921000Y+5082542D01*
X+2361447Y+5082541D01*
X+2361446Y+5082542D01*
X+2234448Y+5082542D01*
X+2228099Y+5088891D01*
X+1913891Y+5088891D01*
X+1913891Y+5325109D01*
X+1957469Y+5325109D01*
X+1957469Y+5348969D01*
X+1838097Y+5468341D01*
X+1776729Y+5468341D01*
X+1776729Y+5449291D01*
X+1525271Y+5449291D01*
X+1525271Y+5454524D01*
X+1508412Y+5437665D01*
X+1426348Y+5437665D01*
X+1375539Y+5488474D01*
X+1375539Y+5260575D01*
X+1332391Y+5217427D01*
X+1332389Y+5217427D01*
X+1276239Y+5161277D01*
X+1276239Y+5161275D01*
X+1233091Y+5118127D01*
X+1050121Y+5118127D01*
X+1006973Y+5161275D01*
X+1006973Y+5188217D01*
X+993380Y+5201809D01*
X+961391Y+5233798D01*
X+961391Y+5336541D01*
X+770201Y+5336541D01*
X+770201Y+5585459D01*
X+961334Y+5585459D01*
X+961334Y+5624550D01*
X+993322Y+5656538D01*
X+1038562Y+5656538D01*
X+1070609Y+5624491D01*
X+1070609Y+5279037D01*
X+1084201Y+5265445D01*
X+1172071Y+5265445D01*
X+1228221Y+5321595D01*
X+1228221Y+5715314D01*
X+1271369Y+5758462D01*
X+1271371Y+5758462D01*
X+1378042Y+5865133D01*
X+1378042Y+5865135D01*
X+1421190Y+5908283D01*
X+1525271Y+5908283D01*
X+1525271Y+5933604D01*
X+1510154Y+5918487D01*
X+1428090Y+5918487D01*
X+1370063Y+5976514D01*
X+1370063Y+6058578D01*
X+1373124Y+6061640D01*
X+1337571Y+6097193D01*
X+1126773Y+6097193D01*
X+1126772Y+6097194D01*
X+1117216Y+6097194D01*
X+1080717Y+6097193D01*
X+1069041Y+6085517D01*
X+1069041Y+5915188D01*
X+1070609Y+5913620D01*
X+1070609Y+5763545D01*
X+1038562Y+5731498D01*
X+1001261Y+5731498D01*
X+972119Y+5702356D01*
X+926879Y+5702356D01*
X+916860Y+5712374D01*
X+908007Y+5703521D01*
X+868374Y+5703521D01*
X+845061Y+5680208D01*
X+799821Y+5680208D01*
X+766391Y+5713638D01*
X+766391Y+6058866D01*
X+727876Y+6058866D01*
X+727474Y+6058464D01*
X+727474Y+5774498D01*
X+684326Y+5731350D01*
X+684324Y+5731350D01*
X+383465Y+5430491D01*
X+383465Y+5430489D01*
X+340317Y+5387341D01*
X-255271Y+5387341D01*
X-255271Y+5368291D01*
X-506729Y+5368291D01*
X-506729Y+5387341D01*
X-509271Y+5387341D01*
X-509271Y+5368291D01*
X-760729Y+5368291D01*
X-760729Y+5387341D01*
X-890271Y+5387341D01*
X-890271Y+5368291D01*
X-1141729Y+5368291D01*
X-1141729Y+5553709D01*
X-890271Y+5553709D01*
X-890271Y+5534659D01*
X-760729Y+5534659D01*
X-760729Y+5553709D01*
X-509271Y+5553709D01*
X-509271Y+5534659D01*
X-506729Y+5534659D01*
X-506729Y+5553709D01*
X-255271Y+5553709D01*
X-255271Y+5534659D01*
X+279297Y+5534659D01*
X+580156Y+5835518D01*
X+580156Y+6119484D01*
X+623304Y+6162632D01*
X+623306Y+6162632D01*
X+623708Y+6163034D01*
X+623708Y+6163036D01*
X+666856Y+6206184D01*
X+818468Y+6206184D01*
X+831391Y+6193261D01*
X+831391Y+6279300D01*
X+803032Y+6250941D01*
X+720968Y+6250941D01*
X+662941Y+6308968D01*
X+662941Y+6391032D01*
X+720968Y+6449059D01*
X+803032Y+6449059D01*
X+831391Y+6420700D01*
X+831391Y+6465291D01*
X+763271Y+6465291D01*
X+763271Y+6625563D01*
X+597476Y+6625563D01*
X+571295Y+6599382D01*
X+489231Y+6599382D01*
X+431204Y+6657409D01*
X+431204Y+6739473D01*
X+489231Y+6797500D01*
X+571295Y+6797500D01*
X+595914Y+6772881D01*
X+763271Y+6772881D01*
X+763271Y+6950709D01*
X+1014729Y+6950709D01*
X+1014729Y+6772881D01*
X+1332287Y+6772881D01*
X+1427509Y+6677659D01*
X+1767841Y+6677659D01*
X+1767841Y+7038341D01*
X+1584491Y+7038341D01*
X+1512541Y+7110291D01*
X+1398271Y+7110291D01*
X+1398271Y+7292341D01*
X+1144709Y+7292341D01*
X+1144709Y+7240271D01*
X+959291Y+7240271D01*
X+959291Y+7491729D01*
X+1144709Y+7491729D01*
X+1144709Y+7439659D01*
X+1398271Y+7439659D01*
X+1398271Y+7514561D01*
X+1366491Y+7546341D01*
X+665509Y+7546341D01*
X+581659Y+7462491D01*
X+581659Y+7236459D01*
X+632459Y+7236459D01*
X+632459Y+6987541D01*
X+383541Y+6987541D01*
X+383541Y+7236459D01*
X+434341Y+7236459D01*
X+434341Y+7523509D01*
X+604491Y+7693659D01*
X+1427509Y+7693659D01*
X+1535459Y+7585709D01*
G37*
G36*
X+854709Y+7240271D02*
X+835659Y+7240271D01*
X+835659Y+7236459D01*
X+886459Y+7236459D01*
X+886459Y+6987541D01*
X+637541Y+6987541D01*
X+637541Y+7236459D01*
X+688341Y+7236459D01*
X+688341Y+7240271D01*
X+669291Y+7240271D01*
X+669291Y+7491729D01*
X+854709Y+7491729D01*
X+854709Y+7240271D01*
G37*
G36*
X-2671729Y+5871211D02*
X-2671729Y+6066789D01*
X-2420271Y+6066789D01*
X-2420271Y+5871211D01*
X-2671729Y+5871211D01*
G37*
G36*
X+379729Y+6950709D02*
X+379729Y+6765291D01*
X+128271Y+6765291D01*
X+128271Y+6950709D01*
X+379729Y+6950709D01*
G37*
G36*
X+379729Y+6465291D02*
X+378459Y+6465291D01*
X+378459Y+6225541D01*
X+327659Y+6225541D01*
X+327659Y+6131559D01*
X+448334Y+6131559D01*
X+543559Y+6036334D01*
X+543559Y+5901666D01*
X+448334Y+5806441D01*
X+313666Y+5806441D01*
X+218441Y+5901666D01*
X+218441Y+6027391D01*
X+180341Y+6065491D01*
X+180341Y+6225541D01*
X+129541Y+6225541D01*
X+129541Y+6465291D01*
X+128271Y+6465291D01*
X+128271Y+6650709D01*
X+379729Y+6650709D01*
X+379729Y+6465291D01*
G37*
G36*
X+125729Y+6950709D02*
X+125729Y+6765291D01*
X-125729Y+6765291D01*
X-125729Y+6950709D01*
X+125729Y+6950709D01*
G37*
G36*
X+125729Y+6465291D02*
X+124459Y+6465291D01*
X+124459Y+6225541D01*
X+73659Y+6225541D01*
X+73659Y+6065491D01*
X+35559Y+6027391D01*
X+35559Y+5901666D01*
X-59666Y+5806441D01*
X-194334Y+5806441D01*
X-289559Y+5901666D01*
X-289559Y+6036334D01*
X-194334Y+6131559D01*
X-73659Y+6131559D01*
X-73659Y+6225541D01*
X-124459Y+6225541D01*
X-124459Y+6465291D01*
X-125729Y+6465291D01*
X-125729Y+6650709D01*
X+125729Y+6650709D01*
X+125729Y+6465291D01*
G37*
G36*
X-1183641Y+7508241D02*
X-1356359Y+7508241D01*
X-1356359Y+7546341D01*
X-1398271Y+7546341D01*
X-1398271Y+7527291D01*
X-1649729Y+7527291D01*
X-1649729Y+7712709D01*
X-1398271Y+7712709D01*
X-1398271Y+7693659D01*
X-1356359Y+7693659D01*
X-1356359Y+7731759D01*
X-1183641Y+7731759D01*
X-1183641Y+7508241D01*
G37*
G36*
X-1398271Y+7237291D02*
X-1450341Y+7237291D01*
X-1450341Y+7236459D01*
X-1399541Y+7236459D01*
X-1399541Y+6987541D01*
X-1648459Y+6987541D01*
X-1648459Y+7236459D01*
X-1597659Y+7236459D01*
X-1597659Y+7237291D01*
X-1649729Y+7237291D01*
X-1649729Y+7422709D01*
X-1398271Y+7422709D01*
X-1398271Y+7237291D01*
G37*
G36*
X-233681Y+7508241D02*
X-245605Y+7508241D01*
X-245605Y+7393406D01*
X-346670Y+7292341D01*
X-633291Y+7292341D01*
X-633291Y+7240271D01*
X-818709Y+7240271D01*
X-818709Y+7491729D01*
X-633291Y+7491729D01*
X-633291Y+7439659D01*
X-407688Y+7439659D01*
X-392923Y+7454424D01*
X-392923Y+7508241D01*
X-406399Y+7508241D01*
X-406399Y+7731759D01*
X-233681Y+7731759D01*
X-233681Y+7508241D01*
G37*
G36*
X-923291Y+7240271D02*
X-1108709Y+7240271D01*
X-1108709Y+7292341D01*
X-1168347Y+7292341D01*
X-1196634Y+7264054D01*
X-1196634Y+7236459D01*
X-1145541Y+7236459D01*
X-1145541Y+6987541D01*
X-1394459Y+6987541D01*
X-1394459Y+7236459D01*
X-1343952Y+7236459D01*
X-1343952Y+7325072D01*
X-1229365Y+7439659D01*
X-1108709Y+7439659D01*
X-1108709Y+7491729D01*
X-923291Y+7491729D01*
X-923291Y+7240271D01*
G37*
G36*
X-1945641Y+7693659D02*
X-1903729Y+7693659D01*
X-1903729Y+7712709D01*
X-1652271Y+7712709D01*
X-1652271Y+7527291D01*
X-1903729Y+7527291D01*
X-1903729Y+7546341D01*
X-1945641Y+7546341D01*
X-1945641Y+7508241D01*
X-2118359Y+7508241D01*
X-2118359Y+7731759D01*
X-1945641Y+7731759D01*
X-1945641Y+7693659D01*
G37*
G36*
X-868681Y+7508241D02*
X-1041399Y+7508241D01*
X-1041399Y+7731759D01*
X-868681Y+7731759D01*
X-868681Y+7508241D01*
G37*
G36*
X-721359Y+7731759D02*
X-548641Y+7731759D01*
X-548641Y+7508241D01*
X-721359Y+7508241D01*
X-721359Y+7731759D01*
G37*
G36*
X-2260601Y+7508241D02*
X-2433319Y+7508241D01*
X-2433319Y+7731759D01*
X-2260601Y+7731759D01*
X-2260601Y+7508241D01*
G37*
G36*
X-720968Y+6250941D02*
X-803032Y+6250941D01*
X-861059Y+6308968D01*
X-861059Y+6391032D01*
X-803032Y+6449059D01*
X-720968Y+6449059D01*
X-662941Y+6391032D01*
X-662941Y+6308968D01*
X-720968Y+6250941D01*
G37*
G36*
X-466968Y+6250941D02*
X-549032Y+6250941D01*
X-607059Y+6308968D01*
X-607059Y+6391032D01*
X-549032Y+6449059D01*
X-466968Y+6449059D01*
X-408941Y+6391032D01*
X-408941Y+6308968D01*
X-466968Y+6250941D01*
G37*
G36*
X-378459Y+6474459D02*
X-129541Y+6474459D01*
X-129541Y+6225541D01*
X-378459Y+6225541D01*
X-378459Y+6474459D01*
G37*
G36*
X+549032Y+6250941D02*
X+466968Y+6250941D01*
X+408941Y+6308968D01*
X+408941Y+6391032D01*
X+466968Y+6449059D01*
X+549032Y+6449059D01*
X+607059Y+6391032D01*
X+607059Y+6308968D01*
X+549032Y+6250941D01*
G37*
G36*
X+1311032Y+6250941D02*
X+1228968Y+6250941D01*
X+1170941Y+6308968D01*
X+1170941Y+6391032D01*
X+1228968Y+6449059D01*
X+1311032Y+6449059D01*
X+1369059Y+6391032D01*
X+1369059Y+6308968D01*
X+1311032Y+6250941D01*
G37*
G36*
X+1311032Y+7012941D02*
X+1228968Y+7012941D01*
X+1170941Y+7070968D01*
X+1170941Y+7153032D01*
X+1228968Y+7211059D01*
X+1311032Y+7211059D01*
X+1369059Y+7153032D01*
X+1369059Y+7070968D01*
X+1311032Y+7012941D01*
G37*
G36*
X+1057032Y+7012941D02*
X+974968Y+7012941D01*
X+916941Y+7070968D01*
X+916941Y+7153032D01*
X+974968Y+7211059D01*
X+1057032Y+7211059D01*
X+1115059Y+7153032D01*
X+1115059Y+7070968D01*
X+1057032Y+7012941D01*
G37*
G36*
X+129541Y+7236459D02*
X+378459Y+7236459D01*
X+378459Y+6987541D01*
X+129541Y+6987541D01*
X+129541Y+7236459D01*
G37*
G36*
X+41032Y+7012941D02*
X-41032Y+7012941D01*
X-99059Y+7070968D01*
X-99059Y+7153032D01*
X-41032Y+7211059D01*
X+41032Y+7211059D01*
X+99059Y+7153032D01*
X+99059Y+7070968D01*
X+41032Y+7012941D01*
G37*
G36*
X+56709Y+7494271D02*
X+37659Y+7494271D01*
X+37659Y+7491729D01*
X+56709Y+7491729D01*
X+56709Y+7240271D01*
X-128709Y+7240271D01*
X-128709Y+7260123D01*
X-152373Y+7236459D01*
X-129541Y+7236459D01*
X-129541Y+6987541D01*
X-378459Y+6987541D01*
X-378459Y+7236459D01*
X-327659Y+7236459D01*
X-327659Y+7269509D01*
X-157509Y+7439659D01*
X-128709Y+7439659D01*
X-128709Y+7491729D01*
X-109659Y+7491729D01*
X-109659Y+7494271D01*
X-128709Y+7494271D01*
X-128709Y+7745729D01*
X+56709Y+7745729D01*
X+56709Y+7494271D01*
G37*
G36*
X-466968Y+7012941D02*
X-549032Y+7012941D01*
X-607059Y+7070968D01*
X-607059Y+7153032D01*
X-549032Y+7211059D01*
X-466968Y+7211059D01*
X-408941Y+7153032D01*
X-408941Y+7070968D01*
X-466968Y+7012941D01*
G37*
G36*
X-720968Y+7012941D02*
X-803032Y+7012941D01*
X-861059Y+7070968D01*
X-861059Y+7153032D01*
X-803032Y+7211059D01*
X-720968Y+7211059D01*
X-662941Y+7153032D01*
X-662941Y+7070968D01*
X-720968Y+7012941D01*
G37*
G36*
X-974968Y+7012941D02*
X-1057032Y+7012941D01*
X-1115059Y+7070968D01*
X-1115059Y+7153032D01*
X-1057032Y+7211059D01*
X-974968Y+7211059D01*
X-916941Y+7153032D01*
X-916941Y+7070968D01*
X-974968Y+7012941D01*
G37*
G36*
X+2378709Y+7371079D02*
X+2420619Y+7371079D01*
X+2420619Y+7096761D01*
X+2197101Y+7096761D01*
X+2197101Y+7367271D01*
X+2193291Y+7367271D01*
X+2193291Y+7618729D01*
X+2378709Y+7618729D01*
X+2378709Y+7371079D01*
G37*
G36*
X+1398271Y+6765291D02*
X+1398271Y+6950709D01*
X+1649729Y+6950709D01*
X+1649729Y+6765291D01*
X+1398271Y+6765291D01*
G37*
G36*
X-1144271Y+5368291D02*
X-1196341Y+5368291D01*
X-1196341Y+5344159D01*
X-1132841Y+5344159D01*
X-1132841Y+5069841D01*
X-2169159Y+5069841D01*
X-2169159Y+5344159D01*
X-1851659Y+5344159D01*
X-1851659Y+5368291D01*
X-1903729Y+5368291D01*
X-1903729Y+5553709D01*
X-1652271Y+5553709D01*
X-1652271Y+5368291D01*
X-1704341Y+5368291D01*
X-1704341Y+5344159D01*
X-1597659Y+5344159D01*
X-1597659Y+5368291D01*
X-1649729Y+5368291D01*
X-1649729Y+5553709D01*
X-1398271Y+5553709D01*
X-1398271Y+5368291D01*
X-1450341Y+5368291D01*
X-1450341Y+5344159D01*
X-1343659Y+5344159D01*
X-1343659Y+5368291D01*
X-1395729Y+5368291D01*
X-1395729Y+5553709D01*
X-1144271Y+5553709D01*
X-1144271Y+5368291D01*
G37*
G36*
X-1906271Y+5553709D02*
X-1906271Y+5368291D01*
X-2157729Y+5368291D01*
X-2157729Y+5553709D01*
X-1906271Y+5553709D01*
G37*
G36*
X-2160271Y+5553709D02*
X-2160271Y+5368291D01*
X-2411729Y+5368291D01*
X-2411729Y+5553709D01*
X-2160271Y+5553709D01*
G37*
G36*
X+2042159Y+7736841D02*
X+1767841Y+7736841D01*
X+1767841Y+7800341D01*
X+665509Y+7800341D01*
X+411509Y+7546341D01*
X+346709Y+7546341D01*
X+346709Y+7494271D01*
X+161291Y+7494271D01*
X+161291Y+7745729D01*
X+346709Y+7745729D01*
X+346709Y+7693659D01*
X+350491Y+7693659D01*
X+604491Y+7947659D01*
X+1767841Y+7947659D01*
X+1767841Y+8011159D01*
X+2042159Y+8011159D01*
X+2042159Y+7736841D01*
G37*
G36*
X+346709Y+7240271D02*
X+161291Y+7240271D01*
X+161291Y+7491729D01*
X+346709Y+7491729D01*
X+346709Y+7240271D01*
G37*
G36*
X-506729Y+5658291D02*
X-506729Y+5843709D01*
X-255271Y+5843709D01*
X-255271Y+5658291D01*
X-506729Y+5658291D01*
G37*
G36*
X-542291Y+5853709D02*
X-509271Y+5853709D01*
X-509271Y+5668291D01*
X-760729Y+5668291D01*
X-760729Y+5853709D01*
X-727709Y+5853709D01*
X-727709Y+6094729D01*
X-542291Y+6094729D01*
X-542291Y+5853709D01*
G37*
%LPD*%
D11*
X-2667000Y+7112000D02*
X-2030000Y+7112000D01*
X-2667000Y+7366000D02*
X-1896741Y+7366000D01*
X-1780066Y+7249325D01*
X-1780066Y+7114066D01*
X-1778000Y+7112000D01*
X-127000Y+5969000D02*
X+0Y+6096000D01*
X+0Y+6350000D01*
X+254000Y+6350000D02*
X+254000Y+6096000D01*
X+381000Y+5969000D01*
X+0Y+6558000D02*
X+0Y+6350000D01*
X+254000Y+6558000D02*
X+254000Y+6350000D01*
X+254000Y+6858000D02*
X+254000Y+7112000D01*
X+0Y+6858000D02*
X+254000Y+6858000D01*
X-381000Y+6858000D02*
X-261470Y+6858000D01*
X+0Y+6858000D01*
X-254000Y+6350000D02*
X-254000Y+6850530D01*
X-261470Y+6858000D01*
X-2667000Y+6350000D02*
X-2286000Y+6350000D01*
X-2032000Y+6350000D01*
X+1052000Y+7366000D02*
X+1905000Y+7366000D01*
X+762000Y+7112000D02*
X+762000Y+7366000D01*
X+508000Y+7112000D02*
X+508000Y+7493000D01*
X+635000Y+7620000D01*
X+1397000Y+7620000D01*
X+1524000Y+7493000D01*
X+1524000Y+7203000D02*
X+1615000Y+7112000D01*
X+1905000Y+7112000D01*
X-2032000Y+7620000D02*
X-1778000Y+7620000D01*
X-635000Y+6858000D02*
X-381000Y+6858000D01*
X-1524000Y+7620000D02*
X-1270000Y+7620000D01*
X-889000Y+6858000D02*
X-889000Y+7620000D01*
X-889000Y+6858000D02*
X-635000Y+6858000D01*
X-955040Y+7620000D02*
X-889000Y+7620000D01*
X-635000Y+7620000D01*
X-726000Y+7366000D02*
X-377179Y+7366000D01*
X-319264Y+7423915D01*
X-319264Y+7619224D01*
X-320040Y+7620000D01*
X-1016000Y+7366000D02*
X-1198856Y+7366000D01*
X-1270293Y+7294563D01*
X-1270293Y+7112293D01*
X-1270000Y+7112000D01*
X-1524000Y+7112000D02*
X-1524000Y+7330000D01*
X-1778000Y+7112000D02*
X-1778000Y+7330000D01*
X-2346960Y+7620000D02*
X-2794000Y+7620000D01*
X-2921000Y+7493000D01*
X-2921000Y+6858000D01*
X-2667000Y+6858000D01*
X-2286000Y+5969000D02*
X-2286000Y+6350000D01*
X-2921000Y+6096000D02*
X-2921000Y+6189626D01*
X-2921000Y+6858000D01*
X-254000Y+7112000D02*
X-254000Y+7239000D01*
X-127000Y+7366000D01*
X-36000Y+7366000D01*
X-36000Y+7620000D01*
X+254000Y+7366000D02*
X+254000Y+7112000D01*
X+254000Y+7620000D02*
X+381000Y+7620000D01*
X+635000Y+7874000D01*
X+1905000Y+7874000D01*
X-2286000Y+5461000D02*
X-2032000Y+5461000D01*
X-2032000Y+5207000D02*
X-2032000Y+5461000D01*
X-1778000Y+5751000D02*
X-2032000Y+5751000D01*
X-2276000Y+5751000D01*
X-2286000Y+5761000D01*
X-1778000Y+5461000D02*
X-1778000Y+5207000D01*
X-1524000Y+5461000D02*
X-1524000Y+5207000D01*
X-1270000Y+5461000D02*
X-1270000Y+5207000D01*
X-1778000Y+6350000D02*
X-1778000Y+5751000D01*
X-1524000Y+6350000D02*
X-1524000Y+5751000D01*
X-1270000Y+6350000D02*
X-1270000Y+5751000D01*
X-1270000Y+6568000D02*
X-1026000Y+6568000D01*
X-1016000Y+6558000D01*
X-1270000Y+6350000D02*
X-1270000Y+6568000D01*
X-1270000Y+6858000D02*
X-1016000Y+6858000D01*
X-889000Y+6858000D01*
X-2032000Y+6858000D02*
X-1778000Y+6858000D01*
X-1524000Y+6858000D01*
X-1270000Y+6858000D01*
X-1778000Y+6558000D02*
X-1534000Y+6558000D01*
X-1524000Y+6568000D01*
X-1524000Y+6350000D01*
X-2667000Y+6604000D02*
X-2322000Y+6604000D01*
X-2286000Y+6640000D01*
X-2667000Y+6858000D02*
X-2032000Y+6858000D01*
X-2032000Y+6558000D02*
X-2032000Y+6706149D01*
X-2036422Y+6710571D01*
X-2286000Y+6640000D02*
X-2215429Y+6710571D01*
X-2036422Y+6710571D01*
X-522770Y+6710571D01*
X-510640Y+6698441D01*
X-2286000Y+5461000D02*
X-2413000Y+5461000D01*
X-2540000Y+5588000D01*
X-2540000Y+5963000D01*
X-2546000Y+5969000D01*
X-2921000Y+6096000D02*
X-2794000Y+5969000D01*
X-2736807Y+5969000D01*
X-2546000Y+5969000D02*
X-2736807Y+5969000D01*
X-254000Y+6350000D02*
X-254000Y+6223000D01*
X-381000Y+6096000D01*
X-381000Y+5751000D01*
X+1524000Y+6858000D02*
X+1905000Y+6858000D01*
X+2159000Y+6858000D01*
X+2286000Y+6985000D01*
X+2286000Y+7211060D01*
X+2308860Y+7233920D01*
X+1524000Y+6558000D02*
X+1524000Y+6569452D01*
X+1558548Y+6604000D01*
X+1905000Y+6604000D01*
X+2540000Y+6604000D01*
X+2540000Y+7233920D01*
X+2540000Y+7291172D01*
D19*
X+3175000Y+7874000D02*
X+2413000Y+7874000D01*
X+2286000Y+7747000D01*
X+2286000Y+7493000D01*
X+2586000Y+7493000D02*
X+2717713Y+7493000D01*
X+2771140Y+7233920D02*
X+2771140Y+7470140D01*
X+2794000Y+7493000D01*
X+3175000Y+7374000D02*
X+3056000Y+7493000D01*
X+2794000Y+7493000D01*
X+2717713Y+7493000D01*
D11*
X-935000Y+5969000D02*
X-1016000Y+5969000D01*
X-1016000Y+5751000D02*
X-1016000Y+5969000D01*
X-1016000Y+6350000D01*
X-635000Y+5761000D02*
X-635000Y+5969000D01*
X-381000Y+5751000D02*
X-625000Y+5751000D01*
X-635000Y+5761000D01*
X-381000Y+5461000D02*
X-635000Y+5461000D01*
X-1016000Y+5461000D02*
X-635000Y+5461000D01*
D10*
X+886000Y+5891000D02*
X+951000Y+5891000D01*
D11*
X+531044Y+6699222D02*
X+889000Y+6699222D01*
D10*
X+886000Y+5461000D02*
X+951000Y+5461000D01*
D11*
X+889000Y+6858000D02*
X+1092407Y+6858000D01*
X+254000Y+6858000D02*
X+889000Y+6858000D01*
X+1092407Y+6858000D02*
X+1524000Y+6858000D01*
X+889000Y+6558000D02*
X+889000Y+6699222D01*
X+1524000Y+6558000D02*
X+1478000Y+6604000D01*
X+1464113Y+6604000D01*
X+889000Y+6699222D02*
X+1301778Y+6699222D01*
X+1397000Y+6604000D01*
X+1464113Y+6604000D01*
X+1478000Y+6604000D02*
X+1558548Y+6604000D01*
D70*
X+2413000Y+6096000D02*
X+3175000Y+6096000D01*
X+2286000Y+5334000D02*
X+3048000Y+5334000D01*
X+2413000Y+5207000D02*
X+2921000Y+5207000D01*
X+3048000Y+5334000D01*
X+3175000Y+5461000D01*
X+2286000Y+5461000D01*
X+2286000Y+5334000D01*
X+2286000Y+5207000D01*
X+2413000Y+5207000D01*
X+2286000Y+5969000D02*
X+3175000Y+5969000D01*
X+3175000Y+6096000D02*
X+3175000Y+5969000D01*
X+3048000Y+5842000D01*
X+2286000Y+5842000D01*
X+2286000Y+5969000D01*
X+2286000Y+6096000D01*
D19*
X+2308860Y+7233920D02*
X+2286000Y+7256780D01*
X+2286000Y+7493000D01*
D11*
X+1651000Y+5842000D02*
X+1905000Y+5842000D01*
X+2032000Y+5969000D01*
X+2032000Y+6096000D01*
X+1651000Y+5542000D02*
X+1868606Y+5542000D01*
X+2031128Y+5379478D01*
X+2031128Y+5207872D01*
X+2032000Y+5207000D01*
D10*
X+1651000Y+5542000D02*
X+1472656Y+5542000D01*
X+1467380Y+5536724D01*
D11*
X-2032000Y+5207000D02*
X-2032000Y+5000038D01*
X-1991289Y+4959327D01*
X+635000Y+4959327D01*
X+641327Y+4959327D01*
X+889000Y+5207000D01*
D10*
X+886000Y+5461000D02*
X+886000Y+5210000D01*
X+889000Y+5207000D01*
X-2032000Y+5000038D02*
X-2035135Y+5003173D01*
X-2035135Y+5203865D01*
X-2032000Y+5207000D01*
D11*
X+1651000Y+5842000D02*
X+1643624Y+5834624D01*
X+1451701Y+5834624D01*
X+1301880Y+5684803D01*
X+1301880Y+5291086D01*
X+1202580Y+5191786D01*
X+1080632Y+5191786D01*
D10*
X+1016000Y+5461000D02*
X+1016000Y+5256418D01*
D11*
X+1467380Y+5536724D02*
X+1645724Y+5536724D01*
X+1651000Y+5542000D01*
X+1469122Y+6017546D02*
X+1469122Y+6069810D01*
X+1397696Y+6141236D01*
X+1368080Y+6170852D01*
X+1157284Y+6170852D01*
X+1077148Y+6170852D01*
D10*
X+1014432Y+6108136D02*
X+1014432Y+5892568D01*
X+1016000Y+5891000D01*
D11*
X-381000Y+5461000D02*
X+309806Y+5461000D01*
X+545804Y+5696998D01*
X+653815Y+5805009D01*
X+653815Y+6088973D01*
X+697367Y+6132525D01*
X+787957Y+6132525D01*
D10*
X+821000Y+5891000D02*
X+821000Y+6099482D01*
X+787957Y+6132525D01*
X+951000Y+5461000D02*
X+951000Y+5330477D01*
X+1016000Y+5256418D02*
X+1080632Y+5191786D01*
X+951000Y+5330477D02*
X+951000Y+5269000D01*
X+889000Y+5207000D01*
X+1014432Y+6108136D02*
X+1077148Y+6170852D01*
X+951000Y+5891000D02*
X+951000Y+6158000D01*
X+886000Y+6223000D01*
X+886000Y+5891000D02*
X+886000Y+6223000D01*
X+886000Y+6558000D01*
X+889000Y+6558000D01*
X+1016000Y+5891000D02*
X+1016000Y+5786164D01*
X+1015942Y+5786106D01*
X+1016000Y+5461000D02*
X+1016000Y+5601872D01*
X+1015942Y+5601930D01*
X+951000Y+5461000D02*
X+951000Y+5592270D01*
X+950665Y+5592605D01*
X+886000Y+5461000D02*
X+886000Y+5596655D01*
X+885387Y+5597268D01*
X+886000Y+5891000D02*
X+886000Y+5758742D01*
X+885387Y+5758129D01*
X+951000Y+5891000D02*
X+951000Y+5758465D01*
X+949499Y+5756964D01*
X+821000Y+5891000D02*
X+821000Y+5736257D01*
X+822441Y+5734816D01*
D12*
X+531044Y+6699222D03*
D13*
X+1469122Y+6017546D03*
X+1467380Y+5536724D03*
X+530263Y+6698441D03*
X-510640Y+6698441D03*
D18*
X+3453580Y+4823460D02*
X-3050540Y+4823460D01*
X-3050540Y+8069580D01*
X+3050884Y+8069580D01*
X+2948941Y+7967637D01*
X+2948941Y+7780363D01*
X+3081363Y+7647941D01*
X+3268637Y+7647941D01*
X+3401059Y+7780363D01*
X+3401059Y+7967637D01*
X+3299116Y+8069580D01*
X+3453580Y+8069580D01*
X+3453580Y+4823460D01*
X-2529841Y+7439659D02*
X-1866232Y+7439659D01*
X-1849282Y+7422709D01*
X-1652271Y+7422709D01*
X-1652271Y+7237291D01*
X-1704341Y+7237291D01*
X-1704341Y+7236459D01*
X-1653541Y+7236459D01*
X-1653541Y+6987541D01*
X-1902459Y+6987541D01*
X-1902459Y+7236459D01*
X-1871368Y+7236459D01*
X-1872200Y+7237291D01*
X-1903729Y+7237291D01*
X-1903729Y+7268820D01*
X-1927250Y+7292341D01*
X-2529841Y+7292341D01*
X-2529841Y+7185659D01*
X-2154459Y+7185659D01*
X-2154459Y+7236459D01*
X-1905541Y+7236459D01*
X-1905541Y+6987541D01*
X-2154459Y+6987541D01*
X-2154459Y+7038341D01*
X-2529841Y+7038341D01*
X-2529841Y+6677659D01*
X-2411729Y+6677659D01*
X-2411729Y+6732709D01*
X-2297459Y+6732709D01*
X-2245938Y+6784230D01*
X-2157729Y+6784230D01*
X-2157729Y+6950709D01*
X-1906271Y+6950709D01*
X-1906271Y+6784230D01*
X-1903729Y+6784230D01*
X-1903729Y+6950709D01*
X-1652271Y+6950709D01*
X-1652271Y+6784230D01*
X-1649729Y+6784230D01*
X-1649729Y+6950709D01*
X-1398271Y+6950709D01*
X-1398271Y+6784230D01*
X-1395729Y+6784230D01*
X-1395729Y+6950709D01*
X-1144271Y+6950709D01*
X-1144271Y+6784230D01*
X-1141729Y+6784230D01*
X-1141729Y+6950709D01*
X-890271Y+6950709D01*
X-890271Y+6784230D01*
X-564942Y+6784230D01*
X-551672Y+6797500D01*
X-469608Y+6797500D01*
X-411581Y+6739473D01*
X-411581Y+6657409D01*
X-469608Y+6599382D01*
X-551672Y+6599382D01*
X-589202Y+6636912D01*
X-890271Y+6636912D01*
X-890271Y+6465291D01*
X-891541Y+6465291D01*
X-891541Y+6225541D01*
X-942341Y+6225541D01*
X-942341Y+6094729D01*
X-842291Y+6094729D01*
X-842291Y+5843271D01*
X-890271Y+5843271D01*
X-890271Y+5658291D01*
X-1141729Y+5658291D01*
X-1141729Y+5843709D01*
X-1089659Y+5843709D01*
X-1089659Y+6225541D01*
X-1140459Y+6225541D01*
X-1140459Y+6465291D01*
X-1141729Y+6465291D01*
X-1141729Y+6494341D01*
X-1144271Y+6494341D01*
X-1144271Y+6475291D01*
X-1196341Y+6475291D01*
X-1196341Y+6474459D01*
X-1145541Y+6474459D01*
X-1145541Y+6225541D01*
X-1196341Y+6225541D01*
X-1196341Y+5843709D01*
X-1144271Y+5843709D01*
X-1144271Y+5658291D01*
X-1395729Y+5658291D01*
X-1395729Y+5843709D01*
X-1343659Y+5843709D01*
X-1343659Y+6225541D01*
X-1394459Y+6225541D01*
X-1394459Y+6474459D01*
X-1343659Y+6474459D01*
X-1343659Y+6475291D01*
X-1395729Y+6475291D01*
X-1395729Y+6636912D01*
X-1398271Y+6636912D01*
X-1398271Y+6475291D01*
X-1450341Y+6475291D01*
X-1450341Y+6474459D01*
X-1399541Y+6474459D01*
X-1399541Y+6225541D01*
X-1450341Y+6225541D01*
X-1450341Y+5843709D01*
X-1398271Y+5843709D01*
X-1398271Y+5658291D01*
X-1649729Y+5658291D01*
X-1649729Y+5843709D01*
X-1597659Y+5843709D01*
X-1597659Y+6225541D01*
X-1648459Y+6225541D01*
X-1648459Y+6474459D01*
X-1597659Y+6474459D01*
X-1597659Y+6475291D01*
X-1649729Y+6475291D01*
X-1649729Y+6484341D01*
X-1652271Y+6484341D01*
X-1652271Y+6465291D01*
X-1653541Y+6465291D01*
X-1653541Y+6225541D01*
X-1704341Y+6225541D01*
X-1704341Y+5843709D01*
X-1652271Y+5843709D01*
X-1652271Y+5658291D01*
X-1903729Y+5658291D01*
X-1903729Y+5677341D01*
X-1906271Y+5677341D01*
X-1906271Y+5658291D01*
X-2157729Y+5658291D01*
X-2157729Y+5677341D01*
X-2160271Y+5677341D01*
X-2160271Y+5668291D01*
X-2411729Y+5668291D01*
X-2411729Y+5853709D01*
X-2160271Y+5853709D01*
X-2160271Y+5824659D01*
X-2157729Y+5824659D01*
X-2157729Y+5843709D01*
X-1906271Y+5843709D01*
X-1906271Y+5824659D01*
X-1903729Y+5824659D01*
X-1903729Y+5843709D01*
X-1851659Y+5843709D01*
X-1851659Y+6225541D01*
X-1902459Y+6225541D01*
X-1902459Y+6465291D01*
X-1903729Y+6465291D01*
X-1903729Y+6636912D01*
X-1906271Y+6636912D01*
X-1906271Y+6465291D01*
X-1907541Y+6465291D01*
X-1907541Y+6225541D01*
X-2156459Y+6225541D01*
X-2156459Y+6276341D01*
X-2160271Y+6276341D01*
X-2160271Y+6257291D01*
X-2212341Y+6257291D01*
X-2212341Y+6066789D01*
X-2160271Y+6066789D01*
X-2160271Y+5871211D01*
X-2411729Y+5871211D01*
X-2411729Y+6066789D01*
X-2359659Y+6066789D01*
X-2359659Y+6257291D01*
X-2411729Y+6257291D01*
X-2411729Y+6276341D01*
X-2529841Y+6276341D01*
X-2529841Y+6212841D01*
X-2804159Y+6212841D01*
X-2804159Y+7503159D01*
X-2529841Y+7503159D01*
X-2529841Y+7439659D01*
X+1535459Y+7585709D02*
X+1649729Y+7585709D01*
X+1649729Y+7439659D01*
X+1767841Y+7439659D01*
X+1767841Y+7503159D01*
X+2042159Y+7503159D01*
X+2042159Y+6677659D01*
X+2313941Y+6677659D01*
X+2313941Y+6741159D01*
X+2466341Y+6741159D01*
X+2466341Y+7096761D01*
X+2428241Y+7096761D01*
X+2428241Y+7371079D01*
X+2493291Y+7371079D01*
X+2493291Y+7445618D01*
X+2486941Y+7451968D01*
X+2486941Y+7534032D01*
X+2493291Y+7540382D01*
X+2493291Y+7618729D01*
X+2678709Y+7618729D01*
X+2678709Y+7592059D01*
X+3073363Y+7592059D01*
X+3081363Y+7600059D01*
X+3268637Y+7600059D01*
X+3401059Y+7467637D01*
X+3401059Y+7280363D01*
X+3268637Y+7147941D01*
X+3081363Y+7147941D01*
X+2948941Y+7280363D01*
X+2948941Y+7393941D01*
X+2870199Y+7393941D01*
X+2870199Y+7371079D01*
X+2882899Y+7371079D01*
X+2882899Y+7096761D01*
X+2659381Y+7096761D01*
X+2659381Y+7367271D01*
X+2651759Y+7367271D01*
X+2651759Y+7096761D01*
X+2613659Y+7096761D01*
X+2613659Y+6741159D01*
X+2766059Y+6741159D01*
X+2766059Y+6466841D01*
X+2313941Y+6466841D01*
X+2313941Y+6530341D01*
X+2042159Y+6530341D01*
X+2042159Y+6466841D01*
X+1767841Y+6466841D01*
X+1767841Y+6530341D01*
X+1649729Y+6530341D01*
X+1649729Y+6465291D01*
X+1398271Y+6465291D01*
X+1398271Y+6530341D01*
X+1366491Y+6530341D01*
X+1271269Y+6625563D01*
X+1014729Y+6625563D01*
X+1014729Y+6465291D01*
X+940609Y+6465291D01*
X+940609Y+6414700D01*
X+974968Y+6449059D01*
X+1057032Y+6449059D01*
X+1115059Y+6391032D01*
X+1115059Y+6308968D01*
X+1057032Y+6250941D01*
X+974968Y+6250941D01*
X+940609Y+6285300D01*
X+940609Y+6245619D01*
X+1003489Y+6182739D01*
X+1003489Y+6201363D01*
X+1046637Y+6244511D01*
X+1126772Y+6244510D01*
X+1126773Y+6244511D01*
X+1398591Y+6244511D01*
X+1441739Y+6201363D01*
X+1441739Y+6201361D01*
X+1499631Y+6143469D01*
X+1499633Y+6143469D01*
X+1542781Y+6100321D01*
X+1542781Y+6083978D01*
X+1568181Y+6058578D01*
X+1568181Y+5976514D01*
X+1526376Y+5934709D01*
X+1776729Y+5934709D01*
X+1776729Y+5915659D01*
X+1874491Y+5915659D01*
X+1936723Y+5977891D01*
X+1913891Y+5977891D01*
X+1913891Y+6214109D01*
X+2228097Y+6214109D01*
X+2234447Y+6220459D01*
X+2337553Y+6220459D01*
X+2343903Y+6214109D01*
X+2355097Y+6214109D01*
X+2361447Y+6220459D01*
X+2979763Y+6220459D01*
X+3081363Y+6322059D01*
X+3268637Y+6322059D01*
X+3401059Y+6189637D01*
X+3401059Y+6002363D01*
X+3268637Y+5869941D01*
X+3251953Y+5869941D01*
X+3226553Y+5844541D01*
X+3226551Y+5844541D01*
X+3099551Y+5717541D01*
X+2234448Y+5717541D01*
X+2161542Y+5790447D01*
X+2161542Y+5917446D01*
X+2161541Y+5917447D01*
X+2161541Y+5977891D01*
X+2105659Y+5977891D01*
X+2105659Y+5938491D01*
X+1935509Y+5768341D01*
X+1776729Y+5768341D01*
X+1776729Y+5749291D01*
X+1525271Y+5749291D01*
X+1525271Y+5760965D01*
X+1482210Y+5760965D01*
X+1375539Y+5654294D01*
X+1375539Y+5584974D01*
X+1426348Y+5635783D01*
X+1508412Y+5635783D01*
X+1525271Y+5618924D01*
X+1525271Y+5634709D01*
X+1776729Y+5634709D01*
X+1776729Y+5615659D01*
X+1899115Y+5615659D01*
X+2104787Y+5409987D01*
X+2104787Y+5325109D01*
X+2161541Y+5325109D01*
X+2161541Y+5385553D01*
X+2161542Y+5385554D01*
X+2161542Y+5512553D01*
X+2234448Y+5585459D01*
X+2979763Y+5585459D01*
X+3081363Y+5687059D01*
X+3268637Y+5687059D01*
X+3401059Y+5554637D01*
X+3401059Y+5367363D01*
X+3268637Y+5234941D01*
X+3124953Y+5234941D01*
X+3099553Y+5209541D01*
X+3099551Y+5209541D01*
X+2972552Y+5082542D01*
X+2921000Y+5082542D01*
X+2361447Y+5082541D01*
X+2361446Y+5082542D01*
X+2234448Y+5082542D01*
X+2228099Y+5088891D01*
X+1913891Y+5088891D01*
X+1913891Y+5325109D01*
X+1957469Y+5325109D01*
X+1957469Y+5348969D01*
X+1838097Y+5468341D01*
X+1776729Y+5468341D01*
X+1776729Y+5449291D01*
X+1525271Y+5449291D01*
X+1525271Y+5454524D01*
X+1508412Y+5437665D01*
X+1426348Y+5437665D01*
X+1375539Y+5488474D01*
X+1375539Y+5260575D01*
X+1332391Y+5217427D01*
X+1332389Y+5217427D01*
X+1276239Y+5161277D01*
X+1276239Y+5161275D01*
X+1233091Y+5118127D01*
X+1050121Y+5118127D01*
X+1006973Y+5161275D01*
X+1006973Y+5188217D01*
X+993380Y+5201809D01*
X+961391Y+5233798D01*
X+961391Y+5336541D01*
X+770201Y+5336541D01*
X+770201Y+5585459D01*
X+961334Y+5585459D01*
X+961334Y+5624550D01*
X+993322Y+5656538D01*
X+1038562Y+5656538D01*
X+1070609Y+5624491D01*
X+1070609Y+5279037D01*
X+1084201Y+5265445D01*
X+1172071Y+5265445D01*
X+1228221Y+5321595D01*
X+1228221Y+5715314D01*
X+1271369Y+5758462D01*
X+1271371Y+5758462D01*
X+1378042Y+5865133D01*
X+1378042Y+5865135D01*
X+1421190Y+5908283D01*
X+1525271Y+5908283D01*
X+1525271Y+5933604D01*
X+1510154Y+5918487D01*
X+1428090Y+5918487D01*
X+1370063Y+5976514D01*
X+1370063Y+6058578D01*
X+1373124Y+6061640D01*
X+1337571Y+6097193D01*
X+1126773Y+6097193D01*
X+1126772Y+6097194D01*
X+1117216Y+6097194D01*
X+1080717Y+6097193D01*
X+1069041Y+6085517D01*
X+1069041Y+5915188D01*
X+1070609Y+5913620D01*
X+1070609Y+5763545D01*
X+1038562Y+5731498D01*
X+1001261Y+5731498D01*
X+972119Y+5702356D01*
X+926879Y+5702356D01*
X+916860Y+5712374D01*
X+908007Y+5703521D01*
X+868374Y+5703521D01*
X+845061Y+5680208D01*
X+799821Y+5680208D01*
X+766391Y+5713638D01*
X+766391Y+6058866D01*
X+727876Y+6058866D01*
X+727474Y+6058464D01*
X+727474Y+5774498D01*
X+684326Y+5731350D01*
X+684324Y+5731350D01*
X+383465Y+5430491D01*
X+383465Y+5430489D01*
X+340317Y+5387341D01*
X-255271Y+5387341D01*
X-255271Y+5368291D01*
X-506729Y+5368291D01*
X-506729Y+5387341D01*
X-509271Y+5387341D01*
X-509271Y+5368291D01*
X-760729Y+5368291D01*
X-760729Y+5387341D01*
X-890271Y+5387341D01*
X-890271Y+5368291D01*
X-1141729Y+5368291D01*
X-1141729Y+5553709D01*
X-890271Y+5553709D01*
X-890271Y+5534659D01*
X-760729Y+5534659D01*
X-760729Y+5553709D01*
X-509271Y+5553709D01*
X-509271Y+5534659D01*
X-506729Y+5534659D01*
X-506729Y+5553709D01*
X-255271Y+5553709D01*
X-255271Y+5534659D01*
X+279297Y+5534659D01*
X+580156Y+5835518D01*
X+580156Y+6119484D01*
X+623304Y+6162632D01*
X+623306Y+6162632D01*
X+623708Y+6163034D01*
X+623708Y+6163036D01*
X+666856Y+6206184D01*
X+818468Y+6206184D01*
X+831391Y+6193261D01*
X+831391Y+6279300D01*
X+803032Y+6250941D01*
X+720968Y+6250941D01*
X+662941Y+6308968D01*
X+662941Y+6391032D01*
X+720968Y+6449059D01*
X+803032Y+6449059D01*
X+831391Y+6420700D01*
X+831391Y+6465291D01*
X+763271Y+6465291D01*
X+763271Y+6625563D01*
X+597476Y+6625563D01*
X+571295Y+6599382D01*
X+489231Y+6599382D01*
X+431204Y+6657409D01*
X+431204Y+6739473D01*
X+489231Y+6797500D01*
X+571295Y+6797500D01*
X+595914Y+6772881D01*
X+763271Y+6772881D01*
X+763271Y+6950709D01*
X+1014729Y+6950709D01*
X+1014729Y+6772881D01*
X+1332287Y+6772881D01*
X+1427509Y+6677659D01*
X+1767841Y+6677659D01*
X+1767841Y+7038341D01*
X+1584491Y+7038341D01*
X+1512541Y+7110291D01*
X+1398271Y+7110291D01*
X+1398271Y+7292341D01*
X+1144709Y+7292341D01*
X+1144709Y+7240271D01*
X+959291Y+7240271D01*
X+959291Y+7491729D01*
X+1144709Y+7491729D01*
X+1144709Y+7439659D01*
X+1398271Y+7439659D01*
X+1398271Y+7514561D01*
X+1366491Y+7546341D01*
X+665509Y+7546341D01*
X+581659Y+7462491D01*
X+581659Y+7236459D01*
X+632459Y+7236459D01*
X+632459Y+6987541D01*
X+383541Y+6987541D01*
X+383541Y+7236459D01*
X+434341Y+7236459D01*
X+434341Y+7523509D01*
X+604491Y+7693659D01*
X+1427509Y+7693659D01*
X+1535459Y+7585709D01*
X+854709Y+7240271D02*
X+835659Y+7240271D01*
X+835659Y+7236459D01*
X+886459Y+7236459D01*
X+886459Y+6987541D01*
X+637541Y+6987541D01*
X+637541Y+7236459D01*
X+688341Y+7236459D01*
X+688341Y+7240271D01*
X+669291Y+7240271D01*
X+669291Y+7491729D01*
X+854709Y+7491729D01*
X+854709Y+7240271D01*
X-2671729Y+5871211D02*
X-2671729Y+6066789D01*
X-2420271Y+6066789D01*
X-2420271Y+5871211D01*
X-2671729Y+5871211D01*
X+379729Y+6950709D02*
X+379729Y+6765291D01*
X+128271Y+6765291D01*
X+128271Y+6950709D01*
X+379729Y+6950709D01*
X+379729Y+6465291D02*
X+378459Y+6465291D01*
X+378459Y+6225541D01*
X+327659Y+6225541D01*
X+327659Y+6131559D01*
X+448334Y+6131559D01*
X+543559Y+6036334D01*
X+543559Y+5901666D01*
X+448334Y+5806441D01*
X+313666Y+5806441D01*
X+218441Y+5901666D01*
X+218441Y+6027391D01*
X+180341Y+6065491D01*
X+180341Y+6225541D01*
X+129541Y+6225541D01*
X+129541Y+6465291D01*
X+128271Y+6465291D01*
X+128271Y+6650709D01*
X+379729Y+6650709D01*
X+379729Y+6465291D01*
X+125729Y+6950709D02*
X+125729Y+6765291D01*
X-125729Y+6765291D01*
X-125729Y+6950709D01*
X+125729Y+6950709D01*
X+125729Y+6465291D02*
X+124459Y+6465291D01*
X+124459Y+6225541D01*
X+73659Y+6225541D01*
X+73659Y+6065491D01*
X+35559Y+6027391D01*
X+35559Y+5901666D01*
X-59666Y+5806441D01*
X-194334Y+5806441D01*
X-289559Y+5901666D01*
X-289559Y+6036334D01*
X-194334Y+6131559D01*
X-73659Y+6131559D01*
X-73659Y+6225541D01*
X-124459Y+6225541D01*
X-124459Y+6465291D01*
X-125729Y+6465291D01*
X-125729Y+6650709D01*
X+125729Y+6650709D01*
X+125729Y+6465291D01*
X-1183641Y+7508241D02*
X-1356359Y+7508241D01*
X-1356359Y+7546341D01*
X-1398271Y+7546341D01*
X-1398271Y+7527291D01*
X-1649729Y+7527291D01*
X-1649729Y+7712709D01*
X-1398271Y+7712709D01*
X-1398271Y+7693659D01*
X-1356359Y+7693659D01*
X-1356359Y+7731759D01*
X-1183641Y+7731759D01*
X-1183641Y+7508241D01*
X-1398271Y+7237291D02*
X-1450341Y+7237291D01*
X-1450341Y+7236459D01*
X-1399541Y+7236459D01*
X-1399541Y+6987541D01*
X-1648459Y+6987541D01*
X-1648459Y+7236459D01*
X-1597659Y+7236459D01*
X-1597659Y+7237291D01*
X-1649729Y+7237291D01*
X-1649729Y+7422709D01*
X-1398271Y+7422709D01*
X-1398271Y+7237291D01*
X-233681Y+7508241D02*
X-245605Y+7508241D01*
X-245605Y+7393406D01*
X-346670Y+7292341D01*
X-633291Y+7292341D01*
X-633291Y+7240271D01*
X-818709Y+7240271D01*
X-818709Y+7491729D01*
X-633291Y+7491729D01*
X-633291Y+7439659D01*
X-407688Y+7439659D01*
X-392923Y+7454424D01*
X-392923Y+7508241D01*
X-406399Y+7508241D01*
X-406399Y+7731759D01*
X-233681Y+7731759D01*
X-233681Y+7508241D01*
X-923291Y+7240271D02*
X-1108709Y+7240271D01*
X-1108709Y+7292341D01*
X-1168347Y+7292341D01*
X-1196634Y+7264054D01*
X-1196634Y+7236459D01*
X-1145541Y+7236459D01*
X-1145541Y+6987541D01*
X-1394459Y+6987541D01*
X-1394459Y+7236459D01*
X-1343952Y+7236459D01*
X-1343952Y+7325072D01*
X-1229365Y+7439659D01*
X-1108709Y+7439659D01*
X-1108709Y+7491729D01*
X-923291Y+7491729D01*
X-923291Y+7240271D01*
X-1945641Y+7693659D02*
X-1903729Y+7693659D01*
X-1903729Y+7712709D01*
X-1652271Y+7712709D01*
X-1652271Y+7527291D01*
X-1903729Y+7527291D01*
X-1903729Y+7546341D01*
X-1945641Y+7546341D01*
X-1945641Y+7508241D01*
X-2118359Y+7508241D01*
X-2118359Y+7731759D01*
X-1945641Y+7731759D01*
X-1945641Y+7693659D01*
X-868681Y+7508241D02*
X-1041399Y+7508241D01*
X-1041399Y+7731759D01*
X-868681Y+7731759D01*
X-868681Y+7508241D01*
X-721359Y+7731759D02*
X-548641Y+7731759D01*
X-548641Y+7508241D01*
X-721359Y+7508241D01*
X-721359Y+7731759D01*
X-2260601Y+7508241D02*
X-2433319Y+7508241D01*
X-2433319Y+7731759D01*
X-2260601Y+7731759D01*
X-2260601Y+7508241D01*
X-720968Y+6250941D02*
X-803032Y+6250941D01*
X-861059Y+6308968D01*
X-861059Y+6391032D01*
X-803032Y+6449059D01*
X-720968Y+6449059D01*
X-662941Y+6391032D01*
X-662941Y+6308968D01*
X-720968Y+6250941D01*
X-466968Y+6250941D02*
X-549032Y+6250941D01*
X-607059Y+6308968D01*
X-607059Y+6391032D01*
X-549032Y+6449059D01*
X-466968Y+6449059D01*
X-408941Y+6391032D01*
X-408941Y+6308968D01*
X-466968Y+6250941D01*
X-378459Y+6474459D02*
X-129541Y+6474459D01*
X-129541Y+6225541D01*
X-378459Y+6225541D01*
X-378459Y+6474459D01*
X+549032Y+6250941D02*
X+466968Y+6250941D01*
X+408941Y+6308968D01*
X+408941Y+6391032D01*
X+466968Y+6449059D01*
X+549032Y+6449059D01*
X+607059Y+6391032D01*
X+607059Y+6308968D01*
X+549032Y+6250941D01*
X+1311032Y+6250941D02*
X+1228968Y+6250941D01*
X+1170941Y+6308968D01*
X+1170941Y+6391032D01*
X+1228968Y+6449059D01*
X+1311032Y+6449059D01*
X+1369059Y+6391032D01*
X+1369059Y+6308968D01*
X+1311032Y+6250941D01*
X+1311032Y+7012941D02*
X+1228968Y+7012941D01*
X+1170941Y+7070968D01*
X+1170941Y+7153032D01*
X+1228968Y+7211059D01*
X+1311032Y+7211059D01*
X+1369059Y+7153032D01*
X+1369059Y+7070968D01*
X+1311032Y+7012941D01*
X+1057032Y+7012941D02*
X+974968Y+7012941D01*
X+916941Y+7070968D01*
X+916941Y+7153032D01*
X+974968Y+7211059D01*
X+1057032Y+7211059D01*
X+1115059Y+7153032D01*
X+1115059Y+7070968D01*
X+1057032Y+7012941D01*
X+129541Y+7236459D02*
X+378459Y+7236459D01*
X+378459Y+6987541D01*
X+129541Y+6987541D01*
X+129541Y+7236459D01*
X+41032Y+7012941D02*
X-41032Y+7012941D01*
X-99059Y+7070968D01*
X-99059Y+7153032D01*
X-41032Y+7211059D01*
X+41032Y+7211059D01*
X+99059Y+7153032D01*
X+99059Y+7070968D01*
X+41032Y+7012941D01*
X+56709Y+7494271D02*
X+37659Y+7494271D01*
X+37659Y+7491729D01*
X+56709Y+7491729D01*
X+56709Y+7240271D01*
X-128709Y+7240271D01*
X-128709Y+7260123D01*
X-152373Y+7236459D01*
X-129541Y+7236459D01*
X-129541Y+6987541D01*
X-378459Y+6987541D01*
X-378459Y+7236459D01*
X-327659Y+7236459D01*
X-327659Y+7269509D01*
X-157509Y+7439659D01*
X-128709Y+7439659D01*
X-128709Y+7491729D01*
X-109659Y+7491729D01*
X-109659Y+7494271D01*
X-128709Y+7494271D01*
X-128709Y+7745729D01*
X+56709Y+7745729D01*
X+56709Y+7494271D01*
X-466968Y+7012941D02*
X-549032Y+7012941D01*
X-607059Y+7070968D01*
X-607059Y+7153032D01*
X-549032Y+7211059D01*
X-466968Y+7211059D01*
X-408941Y+7153032D01*
X-408941Y+7070968D01*
X-466968Y+7012941D01*
X-720968Y+7012941D02*
X-803032Y+7012941D01*
X-861059Y+7070968D01*
X-861059Y+7153032D01*
X-803032Y+7211059D01*
X-720968Y+7211059D01*
X-662941Y+7153032D01*
X-662941Y+7070968D01*
X-720968Y+7012941D01*
X-974968Y+7012941D02*
X-1057032Y+7012941D01*
X-1115059Y+7070968D01*
X-1115059Y+7153032D01*
X-1057032Y+7211059D01*
X-974968Y+7211059D01*
X-916941Y+7153032D01*
X-916941Y+7070968D01*
X-974968Y+7012941D01*
X+2378709Y+7371079D02*
X+2420619Y+7371079D01*
X+2420619Y+7096761D01*
X+2197101Y+7096761D01*
X+2197101Y+7367271D01*
X+2193291Y+7367271D01*
X+2193291Y+7618729D01*
X+2378709Y+7618729D01*
X+2378709Y+7371079D01*
X+1398271Y+6765291D02*
X+1398271Y+6950709D01*
X+1649729Y+6950709D01*
X+1649729Y+6765291D01*
X+1398271Y+6765291D01*
X-1144271Y+5368291D02*
X-1196341Y+5368291D01*
X-1196341Y+5344159D01*
X-1132841Y+5344159D01*
X-1132841Y+5069841D01*
X-2169159Y+5069841D01*
X-2169159Y+5344159D01*
X-1851659Y+5344159D01*
X-1851659Y+5368291D01*
X-1903729Y+5368291D01*
X-1903729Y+5553709D01*
X-1652271Y+5553709D01*
X-1652271Y+5368291D01*
X-1704341Y+5368291D01*
X-1704341Y+5344159D01*
X-1597659Y+5344159D01*
X-1597659Y+5368291D01*
X-1649729Y+5368291D01*
X-1649729Y+5553709D01*
X-1398271Y+5553709D01*
X-1398271Y+5368291D01*
X-1450341Y+5368291D01*
X-1450341Y+5344159D01*
X-1343659Y+5344159D01*
X-1343659Y+5368291D01*
X-1395729Y+5368291D01*
X-1395729Y+5553709D01*
X-1144271Y+5553709D01*
X-1144271Y+5368291D01*
X-1906271Y+5553709D02*
X-1906271Y+5368291D01*
X-2157729Y+5368291D01*
X-2157729Y+5553709D01*
X-1906271Y+5553709D01*
X-2160271Y+5553709D02*
X-2160271Y+5368291D01*
X-2411729Y+5368291D01*
X-2411729Y+5553709D01*
X-2160271Y+5553709D01*
X+2042159Y+7736841D02*
X+1767841Y+7736841D01*
X+1767841Y+7800341D01*
X+665509Y+7800341D01*
X+411509Y+7546341D01*
X+346709Y+7546341D01*
X+346709Y+7494271D01*
X+161291Y+7494271D01*
X+161291Y+7745729D01*
X+346709Y+7745729D01*
X+346709Y+7693659D01*
X+350491Y+7693659D01*
X+604491Y+7947659D01*
X+1767841Y+7947659D01*
X+1767841Y+8011159D01*
X+2042159Y+8011159D01*
X+2042159Y+7736841D01*
X+346709Y+7240271D02*
X+161291Y+7240271D01*
X+161291Y+7491729D01*
X+346709Y+7491729D01*
X+346709Y+7240271D01*
X-506729Y+5658291D02*
X-506729Y+5843709D01*
X-255271Y+5843709D01*
X-255271Y+5658291D01*
X-506729Y+5658291D01*
X-542291Y+5853709D02*
X-509271Y+5853709D01*
X-509271Y+5668291D01*
X-760729Y+5668291D01*
X-760729Y+5853709D01*
X-727709Y+5853709D01*
X-727709Y+6094729D01*
X-542291Y+6094729D01*
X-542291Y+5853709D01*
X-2804159Y+6858000D02*
X-2667000Y+6858000D01*
X-2529841Y+6858000D02*
X-2667000Y+6858000D01*
X+1767841Y+6858000D02*
X+1905000Y+6858000D01*
X+2042159Y+6858000D02*
X+1905000Y+6858000D01*
X-2546000Y+5871211D02*
X-2546000Y+5969000D01*
X-2546000Y+6066789D02*
X-2546000Y+5969000D01*
X-2420271Y+5969000D02*
X-2546000Y+5969000D01*
X-2671729Y+5969000D02*
X-2546000Y+5969000D01*
X+254000Y+6950709D02*
X+254000Y+6858000D01*
X+254000Y+6765291D02*
X+254000Y+6858000D01*
X+128271Y+6858000D02*
X+254000Y+6858000D01*
X+379729Y+6858000D02*
X+254000Y+6858000D01*
X+0Y+6950709D02*
X+0Y+6858000D01*
X+0Y+6765291D02*
X+0Y+6858000D01*
X-125729Y+6858000D02*
X+0Y+6858000D01*
X+125729Y+6858000D02*
X+0Y+6858000D01*
X-2032000Y+6950709D02*
X-2032000Y+6858000D01*
X-2157729Y+6858000D02*
X-2032000Y+6858000D01*
X-1906271Y+6858000D02*
X-2032000Y+6858000D01*
X-868681Y+7620000D02*
X-955040Y+7620000D01*
X-1041399Y+7620000D02*
X-955040Y+7620000D01*
X-955040Y+7731759D02*
X-955040Y+7620000D01*
X-955040Y+7508241D02*
X-955040Y+7620000D01*
X-721359Y+7620000D02*
X-635000Y+7620000D01*
X-548641Y+7620000D02*
X-635000Y+7620000D01*
X-635000Y+7508241D02*
X-635000Y+7620000D01*
X-635000Y+7731759D02*
X-635000Y+7620000D01*
X-2260601Y+7620000D02*
X-2346960Y+7620000D01*
X-2433319Y+7620000D02*
X-2346960Y+7620000D01*
X-2346960Y+7731759D02*
X-2346960Y+7620000D01*
X-2346960Y+7508241D02*
X-2346960Y+7620000D01*
X-378459Y+6350000D02*
X-254000Y+6350000D01*
X-129541Y+6350000D02*
X-254000Y+6350000D01*
X-254000Y+6225541D02*
X-254000Y+6350000D01*
X-254000Y+6474459D02*
X-254000Y+6350000D01*
X+129541Y+7112000D02*
X+254000Y+7112000D01*
X+378459Y+7112000D02*
X+254000Y+7112000D01*
X+254000Y+6987541D02*
X+254000Y+7112000D01*
X+254000Y+7236459D02*
X+254000Y+7112000D01*
X+2197101Y+7233920D02*
X+2308860Y+7233920D01*
X+2420619Y+7233920D02*
X+2308860Y+7233920D01*
X+2308860Y+7096761D02*
X+2308860Y+7233920D01*
X+2378709Y+7493000D02*
X+2286000Y+7493000D01*
X+2193291Y+7493000D02*
X+2286000Y+7493000D01*
X+2286000Y+7618729D02*
X+2286000Y+7493000D01*
X+1524000Y+6765291D02*
X+1524000Y+6858000D01*
X+1524000Y+6950709D02*
X+1524000Y+6858000D01*
X+1649729Y+6858000D02*
X+1524000Y+6858000D01*
X+1398271Y+6858000D02*
X+1524000Y+6858000D01*
X-2032000Y+5553709D02*
X-2032000Y+5461000D01*
X-2032000Y+5368291D02*
X-2032000Y+5461000D01*
X-2157729Y+5461000D02*
X-2032000Y+5461000D01*
X-1906271Y+5461000D02*
X-2032000Y+5461000D01*
X-2286000Y+5553709D02*
X-2286000Y+5461000D01*
X-2286000Y+5368291D02*
X-2286000Y+5461000D01*
X-2411729Y+5461000D02*
X-2286000Y+5461000D01*
X-2160271Y+5461000D02*
X-2286000Y+5461000D01*
X+346709Y+7366000D02*
X+254000Y+7366000D01*
X+161291Y+7366000D02*
X+254000Y+7366000D01*
X+254000Y+7491729D02*
X+254000Y+7366000D01*
X+254000Y+7240271D02*
X+254000Y+7366000D01*
X-1524000Y+6950709D02*
X-1524000Y+6858000D01*
X-1398271Y+6858000D02*
X-1524000Y+6858000D01*
X-1649729Y+6858000D02*
X-1524000Y+6858000D01*
X-1778000Y+6950709D02*
X-1778000Y+6858000D01*
X-1652271Y+6858000D02*
X-1778000Y+6858000D01*
X-1903729Y+6858000D02*
X-1778000Y+6858000D01*
X-381000Y+5658291D02*
X-381000Y+5751000D01*
X-381000Y+5843709D02*
X-381000Y+5751000D01*
X-255271Y+5751000D02*
X-381000Y+5751000D01*
X-506729Y+5751000D02*
X-381000Y+5751000D01*
X-1016000Y+6950709D02*
X-1016000Y+6858000D01*
X-890271Y+6858000D02*
X-1016000Y+6858000D01*
X-1141729Y+6858000D02*
X-1016000Y+6858000D01*
X-1270000Y+6950709D02*
X-1270000Y+6858000D01*
X-1144271Y+6858000D02*
X-1270000Y+6858000D01*
X-1395729Y+6858000D02*
X-1270000Y+6858000D01*
X-2169159Y+5207000D02*
X-2032000Y+5207000D01*
X-2032000Y+5069841D02*
X-2032000Y+5207000D01*
X-2032000Y+5344159D02*
X-2032000Y+5207000D01*
X+2948941Y+7874000D02*
X+3175000Y+7874000D01*
X+3401059Y+7874000D02*
X+3175000Y+7874000D01*
X+3175000Y+7647941D02*
X+3175000Y+7874000D01*
X+951000Y+5336541D02*
X+951000Y+5461000D01*
X+951000Y+5585459D02*
X+951000Y+5461000D01*
X+886000Y+5336541D02*
X+886000Y+5461000D01*
X+886000Y+5585459D02*
X+886000Y+5461000D01*
X-635000Y+5668291D02*
X-635000Y+5761000D01*
X-509271Y+5761000D02*
X-635000Y+5761000D01*
X-760729Y+5761000D02*
X-635000Y+5761000D01*
X-727709Y+5969000D02*
X-635000Y+5969000D01*
X-542291Y+5969000D02*
X-635000Y+5969000D01*
X-635000Y+6094729D02*
X-635000Y+5969000D01*
X+889000Y+6950709D02*
X+889000Y+6858000D01*
X+1014729Y+6858000D02*
X+889000Y+6858000D01*
X+763271Y+6858000D02*
X+889000Y+6858000D01*
D14*
X-2667000Y+6350000D03*
X-2667000Y+6604000D03*
X-2667000Y+6858000D03*
X-2667000Y+7112000D03*
X-2667000Y+7366000D03*
X+1905000Y+6604000D03*
X+1905000Y+6858000D03*
X+1905000Y+7366000D03*
X+1905000Y+7112000D03*
D71*
X+1052000Y+7366000D03*
X+762000Y+7366000D03*
D20*
X-2286000Y+6350000D03*
X-2286000Y+6640000D03*
D21*
X-2286000Y+5969000D03*
X-2546000Y+5969000D03*
D20*
X+254000Y+6858000D03*
X+254000Y+6558000D03*
X+0Y+6858000D03*
X+0Y+6558000D03*
D15*
X-127000Y+5969000D03*
X+381000Y+5969000D03*
D20*
X-2032000Y+6558000D03*
X-2032000Y+6858000D03*
X+1524000Y+7203000D03*
X+1524000Y+7493000D03*
X-1524000Y+7620000D03*
X-1524000Y+7330000D03*
D71*
X-726000Y+7366000D03*
X-1016000Y+7366000D03*
D20*
X-1778000Y+7620000D03*
X-1778000Y+7330000D03*
D22*
X-1270000Y+7620000D03*
X-955040Y+7620000D03*
X-320040Y+7620000D03*
X-635000Y+7620000D03*
X-2032000Y+7620000D03*
X-2346960Y+7620000D03*
D16*
X-2032000Y+6350000D03*
X-1778000Y+6350000D03*
X-1524000Y+6350000D03*
X-1270000Y+6350000D03*
X-1016000Y+6350000D03*
D13*
X-762000Y+6350000D03*
X-508000Y+6350000D03*
D16*
X-254000Y+6350000D03*
X+0Y+6350000D03*
X+254000Y+6350000D03*
D13*
X+508000Y+6350000D03*
X+762000Y+6350000D03*
X+1016000Y+6350000D03*
X+1270000Y+6350000D03*
X+1270000Y+7112000D03*
X+1016000Y+7112000D03*
D16*
X+762000Y+7112000D03*
X+508000Y+7112000D03*
X+254000Y+7112000D03*
D13*
X+0Y+7112000D03*
D16*
X-254000Y+7112000D03*
D13*
X-508000Y+7112000D03*
X-762000Y+7112000D03*
X-1016000Y+7112000D03*
D16*
X-1270000Y+7112000D03*
X-1524000Y+7112000D03*
X-1778000Y+7112000D03*
X-2030000Y+7112000D03*
D23*
X+2308860Y+7233920D03*
D24*
X+2540000Y+6604000D03*
D23*
X+2540000Y+7233920D03*
X+2771140Y+7233920D03*
D71*
X+2286000Y+7493000D03*
X+2586000Y+7493000D03*
D20*
X+1524000Y+6858000D03*
X+1524000Y+6558000D03*
X-1778000Y+5751000D03*
X-1778000Y+5461000D03*
X-2032000Y+5461000D03*
X-2032000Y+5751000D03*
X-2286000Y+5461000D03*
X-2286000Y+5761000D03*
D14*
X-1778000Y+5207000D03*
X-1524000Y+5207000D03*
X-1270000Y+5207000D03*
X+1905000Y+7874000D03*
D71*
X-36000Y+7620000D03*
X+254000Y+7620000D03*
X-36000Y+7366000D03*
X+254000Y+7366000D03*
D20*
X-1524000Y+5751000D03*
X-1524000Y+5461000D03*
X-1524000Y+6858000D03*
X-1524000Y+6568000D03*
X-1778000Y+6858000D03*
X-1778000Y+6558000D03*
X-1016000Y+5751000D03*
X-1016000Y+5461000D03*
X-381000Y+5751000D03*
X-381000Y+5461000D03*
X-1016000Y+6858000D03*
X-1016000Y+6558000D03*
X-1270000Y+5751000D03*
X-1270000Y+5461000D03*
X-1270000Y+6858000D03*
X-1270000Y+6568000D03*
D14*
X-2032000Y+5207000D03*
D25*
X+2413000Y+6096000D03*
X+2413000Y+5207000D03*
D26*
X+2032000Y+5207000D03*
X+2032000Y+6096000D03*
D17*
X+3175000Y+7374000D03*
X+3175000Y+7874000D03*
X+3175000Y+6096000D03*
D27*
X+1016000Y+5461000D03*
X+951000Y+5461000D03*
X+886000Y+5461000D03*
X+821000Y+5461000D03*
X+821000Y+5891000D03*
X+886000Y+5891000D03*
X+951000Y+5891000D03*
X+1016000Y+5891000D03*
D17*
X+3175000Y+5461000D03*
D20*
X-635000Y+5761000D03*
X-635000Y+5461000D03*
X+1651000Y+5842000D03*
X+1651000Y+5542000D03*
D71*
X-635000Y+5969000D03*
X-935000Y+5969000D03*
D20*
X+889000Y+6858000D03*
X+889000Y+6558000D03*
D18*
X-3108960Y+4765040D02*
X+3512000Y+4765040D01*
X+3512000Y+8128000D01*
X-3108960Y+8128000D01*
X-3108960Y+4765040D01*
M02*
