M48
METRIC,TZ
T01C0.3810
T02C0.5080
T03C1.0160
T04C1.1430
T05C0.7620
T06C1.5240
%
T01
X+5310Y+66992
T02
X+14691Y+60175
X+14674Y+55367
X+5303Y+66984
X-5106Y+66984
T03
X-26670Y+63500
X-26670Y+66040
X-26670Y+68580
X-26670Y+71120
X-26670Y+73660
X+19050Y+66040
X+19050Y+68580
X+19050Y+73660
X+19050Y+71120
X-17780Y+52070
X-15240Y+52070
X-12700Y+52070
X+19050Y+78740
X-20320Y+52070
T04
X-1270Y+59690
X+3810Y+59690
T05
X-20320Y+63500
X-17780Y+63500
X-15240Y+63500
X-12700Y+63500
X-10160Y+63500
X-7620Y+63500
X-5080Y+63500
X-2540Y+63500
X+0Y+63500
X+2540Y+63500
X+5080Y+63500
X+7620Y+63500
X+10160Y+63500
X+12700Y+63500
X+12700Y+71120
X+10160Y+71120
X+7620Y+71120
X+5080Y+71120
X+2540Y+71120
X+0Y+71120
X-2540Y+71120
X-5080Y+71120
X-7620Y+71120
X-10160Y+71120
X-12700Y+71120
X-15240Y+71120
X-17780Y+71120
X-20300Y+71120
T06
X+31750Y+73740
X+31750Y+78740
X+31750Y+60960
X+31750Y+54610
M30
