G04 PROTEUS RS274X GERBER FILE*
%FSLAX45Y45*%
%MOMM*%
G01*
%ADD71R,1.143000X1.803400*%
%ADD20R,1.803400X1.143000*%
%ADD21R,1.803400X1.244600*%
%ADD22R,1.016000X1.524000*%
%ADD23R,1.524000X2.032000*%
%ADD24R,3.810000X2.032000*%
%ADD25R,4.572000X1.651000*%
%ADD26R,1.651000X1.651000*%
%ADD27R,0.304800X1.778000*%
%ADD18C,0.203200*%
D71*
X+1052000Y+7366000D03*
X+762000Y+7366000D03*
D20*
X-2286000Y+6350000D03*
X-2286000Y+6640000D03*
D21*
X-2286000Y+5969000D03*
X-2546000Y+5969000D03*
D20*
X+254000Y+6858000D03*
X+254000Y+6558000D03*
X+0Y+6858000D03*
X+0Y+6558000D03*
X-2032000Y+6558000D03*
X-2032000Y+6858000D03*
X+1524000Y+7203000D03*
X+1524000Y+7493000D03*
X-1524000Y+7620000D03*
X-1524000Y+7330000D03*
D71*
X-726000Y+7366000D03*
X-1016000Y+7366000D03*
D20*
X-1778000Y+7620000D03*
X-1778000Y+7330000D03*
D22*
X-1270000Y+7620000D03*
X-955040Y+7620000D03*
X-320040Y+7620000D03*
X-635000Y+7620000D03*
X-2032000Y+7620000D03*
X-2346960Y+7620000D03*
D23*
X+2308860Y+7233920D03*
D24*
X+2540000Y+6604000D03*
D23*
X+2540000Y+7233920D03*
X+2771140Y+7233920D03*
D71*
X+2286000Y+7493000D03*
X+2586000Y+7493000D03*
D20*
X+1524000Y+6858000D03*
X+1524000Y+6558000D03*
X-1778000Y+5751000D03*
X-1778000Y+5461000D03*
X-2032000Y+5461000D03*
X-2032000Y+5751000D03*
X-2286000Y+5461000D03*
X-2286000Y+5761000D03*
D71*
X-36000Y+7620000D03*
X+254000Y+7620000D03*
X-36000Y+7366000D03*
X+254000Y+7366000D03*
D20*
X-1524000Y+5751000D03*
X-1524000Y+5461000D03*
X-1524000Y+6858000D03*
X-1524000Y+6568000D03*
X-1778000Y+6858000D03*
X-1778000Y+6558000D03*
X-1016000Y+5751000D03*
X-1016000Y+5461000D03*
X-381000Y+5751000D03*
X-381000Y+5461000D03*
X-1016000Y+6858000D03*
X-1016000Y+6558000D03*
X-1270000Y+5751000D03*
X-1270000Y+5461000D03*
X-1270000Y+6858000D03*
X-1270000Y+6568000D03*
D25*
X+2413000Y+6096000D03*
X+2413000Y+5207000D03*
D26*
X+2032000Y+5207000D03*
X+2032000Y+6096000D03*
D27*
X+1016000Y+5461000D03*
X+951000Y+5461000D03*
X+886000Y+5461000D03*
X+821000Y+5461000D03*
X+821000Y+5891000D03*
X+886000Y+5891000D03*
X+951000Y+5891000D03*
X+1016000Y+5891000D03*
D20*
X-635000Y+5761000D03*
X-635000Y+5461000D03*
X+1651000Y+5842000D03*
X+1651000Y+5542000D03*
D71*
X-635000Y+5969000D03*
X-935000Y+5969000D03*
D20*
X+889000Y+6858000D03*
X+889000Y+6558000D03*
D18*
X-3108960Y+4765040D02*
X+3512000Y+4765040D01*
X+3512000Y+8128000D01*
X-3108960Y+8128000D01*
X-3108960Y+4765040D01*
M02*
