G04 PROTEUS GERBER X2 FILE*
%TF.GenerationSoftware,Labcenter,Proteus,8.7-SP3-Build25561*%
%TF.CreationDate,2021-07-11T19:21:44+00:00*%
%TF.FileFunction,Plated,1,2,PTH*%
%TF.FilePolarity,Positive*%
%TF.Part,Single*%
%TF.SameCoordinates,{e2a5a0b5-523e-413d-a229-b9dd8a4e077c}*%
%FSLAX45Y45*%
%MOMM*%
G01*
%TA.AperFunction,MechanicalDrill*%
%ADD156C,0.381000*%
%TA.AperFunction,ViaDrill*%
%ADD157C,0.381000*%
%TA.AperFunction,ComponentDrill*%
%ADD158C,2.032000*%
%ADD159C,3.000000*%
%ADD160C,1.524000*%
%TA.AperFunction,ComponentDrill*%
%ADD161C,1.000000*%
%TA.AperFunction,OtherDrill,Unknown*%
%ADD162C,4.000000*%
%TA.AperFunction,ComponentDrill*%
%ADD163C,1.143000*%
%TD.AperFunction*%
D156*
X+3225800Y+1174750D03*
X+3479800Y+1174750D03*
X+5257800Y+1174750D03*
X+5511800Y+1174750D03*
X+5765800Y+1174750D03*
X+7543800Y+1174750D03*
X+7797800Y+1174750D03*
X+3098800Y+1394720D03*
X+3352800Y+1394720D03*
X+4876800Y+1394720D03*
X+5130800Y+1394720D03*
X+5384800Y+1394720D03*
X+5638800Y+1394720D03*
X+7162800Y+1394720D03*
X+7416800Y+1394720D03*
X+7670800Y+1394720D03*
X+4749800Y+1614690D03*
X+5003800Y+1614690D03*
X+5257800Y+1614690D03*
X+5511800Y+1614690D03*
X+5765800Y+1614690D03*
X+7289800Y+1614690D03*
X+7543800Y+1614690D03*
X+7797800Y+1614690D03*
X+4876800Y+1834660D03*
X+5130800Y+1834660D03*
X+5384800Y+1834660D03*
X+5638800Y+1834660D03*
X+7162800Y+1834660D03*
X+7416800Y+1834660D03*
X+7670800Y+1834660D03*
X+4749800Y+2054630D03*
X+5003800Y+2054630D03*
X+5257800Y+2054630D03*
X+5511800Y+2054630D03*
X+5765800Y+2054630D03*
X+7289800Y+2054630D03*
X+7543800Y+2054630D03*
X+7797800Y+2054630D03*
D157*
X+3213100Y-1497654D03*
X+3213100Y-1308100D03*
X+3213100Y-1145702D03*
X+4127500Y-617774D03*
X+4330700Y-617774D03*
X+3314700Y-265822D03*
X+3517900Y-265822D03*
X+3721100Y-265822D03*
X+3924300Y-265822D03*
X+4127500Y-265822D03*
X+3213100Y-89846D03*
X+3416300Y-89846D03*
X+3619500Y-89846D03*
X+3822700Y-89846D03*
X+4025900Y-89846D03*
X+4432300Y-89846D03*
X+4013200Y+1052310D03*
X+3911600Y+1228286D03*
X+4114800Y+1228286D03*
X+3810000Y+1404262D03*
X+4013200Y+1404262D03*
X+3911600Y+1580238D03*
X+3810000Y+1756214D03*
X+3937000Y+1905000D03*
X+8597900Y+1228286D03*
X+8801100Y+1228286D03*
X+8597900Y+1580238D03*
X+8724900Y+1866900D03*
X+6363969Y+1052310D03*
X+6262369Y+1228286D03*
X+6465569Y+1228286D03*
X+6160769Y+1404262D03*
X+6363969Y+1404262D03*
X+6262369Y+1580238D03*
X+6160769Y+1756214D03*
X+6286500Y+1905000D03*
X+7747000Y-3429000D03*
X+6428649Y-3363510D03*
D156*
X+3200400Y-1676400D03*
X+4127500Y-793750D03*
X+4381500Y-793750D03*
X+5003800Y+1174750D03*
D157*
X-134100Y-5105400D03*
D156*
X+1472186Y-535190D03*
X+1345186Y-315220D03*
X+1599186Y-315220D03*
X+1472186Y-95250D03*
X+1345186Y+124720D03*
X+1714500Y-63500D03*
X+1206500Y+952500D03*
X+1587500Y+1143000D03*
X+2844800Y+1394720D03*
X+8305800Y+1257545D03*
X+9067800Y+1257545D03*
X+8509000Y+1943100D03*
X+8559800Y+2137425D03*
X+8813800Y+2137425D03*
D157*
X+2921000Y+1206500D03*
X+4191000Y-3937000D03*
X+7519052Y-4519896D03*
X+7874000Y-4508500D03*
X+3811743Y-4009908D03*
X+3810000Y-4318000D03*
D156*
X+4445000Y-2540000D03*
X+6756400Y-2184400D03*
X+508000Y-958605D03*
X+762000Y-958605D03*
X+381000Y-738635D03*
X+635000Y-738635D03*
X+0Y-518665D03*
X+508000Y-518665D03*
X+762000Y-518665D03*
X+381000Y-298695D03*
X+635000Y-298695D03*
X+0Y-78725D03*
X+508000Y-78725D03*
X+762000Y-78725D03*
X-381000Y+141245D03*
X-127000Y+141245D03*
X+381000Y+141245D03*
X+635000Y+141245D03*
X-508000Y+361215D03*
X-254000Y+361215D03*
X+0Y+361215D03*
X+508000Y+361215D03*
X+762000Y+361215D03*
X+381000Y+581185D03*
X+635000Y+581185D03*
X+254000Y+801155D03*
X+508000Y+801155D03*
X+762000Y+801155D03*
D157*
X+5384021Y-4535575D03*
X+4283159Y-4283011D03*
X+4826045Y-3267760D03*
X+2667000Y-2476500D03*
X+7543800Y-812800D03*
X+8127850Y-2993866D03*
X+8118219Y-2853714D03*
X+5249412Y-804176D03*
X+6696244Y-3035770D03*
X+5257800Y-1714500D03*
X+5905500Y-2489200D03*
X+6698805Y-3180794D03*
X+7664736Y-1676863D03*
D156*
X+8001000Y-2498395D03*
X+6350000Y-2278425D03*
X+7874000Y-2278425D03*
X+8128000Y-2278425D03*
X+8382000Y-2278425D03*
X+8509000Y-2058455D03*
X+8763000Y-2058455D03*
X+1218186Y-1415070D03*
X+1980186Y-95250D03*
X+3924300Y-823914D03*
X+3416300Y-647938D03*
X+3822700Y-647938D03*
D157*
X+7924800Y-1608885D03*
X+7835900Y-1454906D03*
X+7747000Y-1300927D03*
X+7924800Y-1300927D03*
X+7835900Y-1146948D03*
X+8013700Y-838990D03*
X+8547100Y-838990D03*
X+8724900Y-838990D03*
X+8902700Y-838990D03*
X+8636000Y-685011D03*
X+8813800Y-685011D03*
X+8991600Y-685011D03*
X+8013700Y-531032D03*
X+8102600Y-377053D03*
X+8280400Y-377053D03*
X+8458200Y-377053D03*
X+7835900Y-223074D03*
X+8013700Y-223074D03*
X+8191500Y-223074D03*
X+8369300Y-223074D03*
X+8547100Y-223074D03*
X+8724900Y-223074D03*
X+7747000Y-69095D03*
X+7924800Y-69095D03*
X+8102600Y-69095D03*
X+8280400Y-69095D03*
X+8458200Y-69095D03*
X+8636000Y-69095D03*
X+8813800Y-69095D03*
X+5638800Y-1608885D03*
X+5549900Y-1454906D03*
X+5461000Y-1300927D03*
X+5638800Y-1300927D03*
X+5549900Y-1146948D03*
X+5727700Y-838990D03*
X+6616700Y-838990D03*
X+6527800Y-685011D03*
X+6705600Y-685011D03*
X+5727700Y-531032D03*
X+6616700Y-531032D03*
X+5816600Y-377053D03*
X+5994400Y-377053D03*
X+5549900Y-223074D03*
X+5727700Y-223074D03*
X+5905500Y-223074D03*
X+6083300Y-223074D03*
X+6261100Y-223074D03*
X+6438900Y-223074D03*
X+5461000Y-69095D03*
X+5638800Y-69095D03*
X+5816600Y-69095D03*
X+5994400Y-69095D03*
X+6172200Y-69095D03*
X+6350000Y-69095D03*
X+7010400Y-2413000D03*
X+3556000Y-2168441D03*
X+3733800Y-2168441D03*
X+6223000Y-2168441D03*
X+8001000Y-2168441D03*
X+800100Y-782630D03*
X+0Y-320693D03*
X+800100Y+141244D03*
X+4711700Y+738213D03*
X+7200900Y+738213D03*
X+7112000Y+2124024D03*
X+8826500Y+1638300D03*
X+9105900Y+1460500D03*
X+2014205Y-1094840D03*
X+1841500Y-1079500D03*
X+8802625Y-6177544D03*
X+8064500Y-4508500D03*
X+8001000Y-4826000D03*
X+6286500Y-4584700D03*
X+6604000Y-4584700D03*
X+6153231Y-4826944D03*
X+6778656Y-4571579D03*
D156*
X+127000Y-3334134D03*
X+1955800Y-3334134D03*
X+2159000Y-3334134D03*
X+736600Y-2982182D03*
X+939800Y-2982182D03*
X+1143000Y-2982182D03*
X+1346200Y-2982182D03*
X+1549400Y-2982182D03*
X+1752600Y-2982182D03*
X+838200Y-2806206D03*
X+1041400Y-2806206D03*
X+1244600Y-2806206D03*
X+1447800Y-2806206D03*
X+1651000Y-2806206D03*
X+1854200Y-2806206D03*
X+736600Y-2630230D03*
X+939800Y-2630230D03*
X+1143000Y-2630230D03*
X+1346200Y-2630230D03*
X+1549400Y-2630230D03*
X+228600Y-2454254D03*
X+635000Y-2454254D03*
X+838200Y-2454254D03*
X+1041400Y-2454254D03*
X+1244600Y-2454254D03*
X+1447800Y-2454254D03*
X+3073400Y-2454254D03*
X+736600Y-2278278D03*
X+939800Y-2278278D03*
X+1143000Y-2278278D03*
X+1346200Y-2278278D03*
X+1549400Y-2278278D03*
X+635000Y-2102302D03*
X+838200Y-2102302D03*
X+1041400Y-2102302D03*
X+1244600Y-2102302D03*
X+1447800Y-2102302D03*
X+7010400Y-2159000D03*
X+736600Y-1926326D03*
X+635000Y-1750350D03*
X+838200Y-1750350D03*
X+533400Y-1574374D03*
X+736600Y-1574374D03*
X+431800Y-1398398D03*
X+635000Y-1398398D03*
X+838200Y-1398398D03*
X+25400Y-694494D03*
X+330200Y-518518D03*
X+838200Y-342542D03*
X-660400Y+254000D03*
X-76200Y+537338D03*
X-76200Y+889290D03*
X-889000Y+1241242D03*
X-889000Y+1593194D03*
X-889000Y+1945146D03*
X+127000Y+1945146D03*
X+330200Y+1945146D03*
X+533400Y+1945146D03*
X+736600Y+1945146D03*
X+939800Y+1945146D03*
X+1346200Y+1945146D03*
X+1549400Y+1945146D03*
X-787400Y+2121122D03*
X-889000Y+2297098D03*
X-685800Y+2297098D03*
X-787400Y+2473074D03*
X-584200Y+2473074D03*
X+228600Y+2473074D03*
X+431800Y+2473074D03*
X+635000Y+2473074D03*
X+838200Y+2473074D03*
X+1041400Y+2473074D03*
X+1244600Y+2473074D03*
X+1447800Y+2473074D03*
X+2260600Y+1134306D03*
X+2463800Y+1134306D03*
X+2667000Y+1134306D03*
X+2362200Y+1310282D03*
X+2565400Y+1310282D03*
X+2260600Y+1486258D03*
X+2463800Y+1486258D03*
X+2667000Y+1486258D03*
X+2362200Y+1662234D03*
X+2565400Y+1662234D03*
X+2768600Y+1662234D03*
X+2971800Y+1662234D03*
X+3175000Y+1662234D03*
X+3378200Y+1662234D03*
X+2260600Y+1838210D03*
X+2463800Y+1838210D03*
X+2667000Y+1838210D03*
X+3276600Y+1838210D03*
X+3479800Y+1838210D03*
X+2362200Y+2014186D03*
X+2565400Y+2014186D03*
X+2260600Y+2190162D03*
X+2463800Y+2190162D03*
X+3479800Y+2190162D03*
X+4902200Y+2190162D03*
X+5105400Y+2190162D03*
X+2362200Y+2366138D03*
X+4800600Y+2366138D03*
X+5003800Y+2366138D03*
X+5207000Y+2366138D03*
X+5410200Y+2366138D03*
X+5613400Y+2366138D03*
X+5816600Y+2366138D03*
X+7239000Y+2366138D03*
X+7442200Y+2366138D03*
X+7645400Y+2366138D03*
X+2260600Y+2542114D03*
X+2463800Y+2542114D03*
X+3479800Y+2542114D03*
X+3683000Y+2542114D03*
X+3886200Y+2542114D03*
X+4089400Y+2542114D03*
X+4292600Y+2542114D03*
X+4495800Y+2542114D03*
X+4699000Y+2542114D03*
X+4902200Y+2542114D03*
X+5105400Y+2542114D03*
X+5308600Y+2542114D03*
X+5511800Y+2542114D03*
X+5715000Y+2542114D03*
X+5918200Y+2542114D03*
X+6121400Y+2542114D03*
X+6324600Y+2542114D03*
X+6527800Y+2542114D03*
X+6731000Y+2542114D03*
X+6934200Y+2542114D03*
X+7137400Y+2542114D03*
X+7340600Y+2542114D03*
X+7543800Y+2542114D03*
X+7747000Y+2542114D03*
X-787400Y-2834768D03*
X-889000Y-2658792D03*
X-685800Y-2658792D03*
X-787400Y-2482816D03*
X-698500Y-1257300D03*
X-685800Y-2306840D03*
X-812800Y-2336800D03*
X-584200Y-2130864D03*
X-927100Y-1054100D03*
X-889000Y-1602936D03*
X-787400Y-1426960D03*
X-381000Y-1426960D03*
X-889000Y-1250984D03*
X-787400Y-1075008D03*
X-889000Y-899032D03*
X-889000Y-547080D03*
X-482600Y-547080D03*
X-584200Y-371104D03*
X-381000Y-371104D03*
X+1638300Y-1591046D03*
X+1536700Y-1415070D03*
X+1435100Y-1239094D03*
X+1638300Y-1239094D03*
X+1333500Y-1063118D03*
X+1536700Y-1063118D03*
X+1435100Y-887142D03*
X+1333500Y-711166D03*
X+1536700Y-711166D03*
X+1333500Y+344690D03*
X+1435100Y+1224570D03*
D157*
X+3145817Y-5333103D03*
X+4895850Y-4946650D03*
X+3944752Y-3532550D03*
X+5431385Y-2971800D03*
X+2857500Y-762000D03*
X+2921000Y-1016000D03*
X+3576345Y-2643122D03*
X+4818888Y-2925288D03*
X+5842000Y-3162300D03*
X+3302000Y-5207000D03*
X+4752309Y-4765009D03*
X+4889500Y+1016000D03*
X+4889500Y+127000D03*
X+9334500Y+1270000D03*
X+9334500Y-127000D03*
X+7239000Y+127000D03*
X+7239000Y+1016000D03*
D156*
X+1206500Y-1635040D03*
X+228600Y+1290561D03*
X+406400Y+1290561D03*
X+584200Y+1290561D03*
X+762000Y+1290561D03*
X+939800Y+1290561D03*
X+711200Y-3356131D03*
X+8801100Y-2278278D03*
X+3378200Y-2124299D03*
X-533400Y+31407D03*
X-889000Y+339365D03*
X-533400Y+1879155D03*
D157*
X+5397500Y-5588000D03*
X+6883138Y-3230089D03*
X+6832600Y-901700D03*
X+2444906Y-5646325D03*
D158*
X+4318000Y+1714500D03*
X+6667500Y+1714500D03*
X+8255000Y+1651000D03*
D159*
X-602309Y+718491D03*
D160*
X-571500Y-1727200D03*
D161*
X+9245600Y-5181500D03*
X+9245600Y-4981500D03*
X+9245600Y-4781500D03*
X+8356500Y-5905500D03*
X+8156500Y-5905500D03*
X+7956500Y-5905500D03*
X+7756500Y-5905500D03*
X+7556500Y-5905500D03*
X+7356500Y-5905500D03*
D158*
X-469900Y-990600D03*
X+1146547Y+625845D03*
D160*
X-177800Y+1473200D03*
X-177800Y+2223200D03*
X+1739900Y+1460500D03*
X+1739900Y+2210500D03*
D162*
X+9283700Y+2298700D03*
X+2984500Y+2298700D03*
X+9271000Y-5969000D03*
X-635000Y-5969000D03*
D161*
X+4124500Y-5905500D03*
X+4324500Y-5905500D03*
X+4524500Y-5905500D03*
X+4724500Y-5905500D03*
X+4924500Y-5905500D03*
X+5124500Y-5905500D03*
X+5686500Y-5905500D03*
X+5886500Y-5905500D03*
X+6086500Y-5905500D03*
X+6286500Y-5905500D03*
X+6486500Y-5905500D03*
X+6686500Y-5905500D03*
X+5712000Y-5270500D03*
X+5912000Y-5270500D03*
X+6112000Y-5270500D03*
X+6312000Y-5270500D03*
X+6512000Y-5270500D03*
X+6712000Y-5270500D03*
X+1722985Y-6086392D03*
X+1522985Y-6086392D03*
X+1322985Y-6086392D03*
D163*
X+1587500Y-3886200D03*
X+1587500Y-3386200D03*
X+76200Y-1955800D03*
X+426200Y-1955800D03*
X+76200Y-2794000D03*
X+426200Y-2794000D03*
X+56400Y-5257800D03*
X+406400Y-5257800D03*
X+119900Y-3670300D03*
X+469900Y-3670300D03*
M02*
