G04 PROTEUS GERBER X2 FILE*
%TF.GenerationSoftware,Labcenter,Proteus,8.7-SP3-Build25561*%
%TF.CreationDate,2021-06-13T19:25:45+00:00*%
%TF.FileFunction,Soldermask,Bot*%
%TF.FilePolarity,Negative*%
%TF.Part,Single*%
%TF.SameCoordinates,{9c7b3d0d-a21c-4509-bc3d-39c11cb24c33}*%
%FSLAX45Y45*%
%MOMM*%
G01*
%TA.AperFunction,Material*%
%ADD69C,1.270000*%
%ADD74C,1.016000*%
%ADD75C,2.032000*%
%AMPPAD091*
4,1,4,
0.449010,-0.628620,
0.628620,-0.449010,
-0.449010,0.628620,
-0.628620,0.449010,
0.449010,-0.628620,
0*%
%TA.AperFunction,Material*%
%ADD101PPAD091*%
%AMPPAD092*
4,1,4,
0.628620,0.449010,
0.449010,0.628620,
-0.628620,-0.449010,
-0.449010,-0.628620,
0.628620,0.449010,
0*%
%ADD102PPAD092*%
%AMPPAD093*
4,1,4,
0.637600,0.422070,
0.422070,0.637600,
-0.637600,-0.422070,
-0.422070,-0.637600,
0.637600,0.422070,
0*%
%ADD103PPAD093*%
%AMPPAD094*
4,1,4,
0.422070,-0.637600,
0.637600,-0.422070,
-0.422070,0.637600,
-0.637600,0.422070,
0.422070,-0.637600,
0*%
%ADD104PPAD094*%
%ADD105C,3.000000*%
%AMPPAD096*
4,1,36,
0.444500,-0.254000,
0.444500,0.254000,
0.441970,0.279970,
0.434700,0.303980,
0.423150,0.325580,
0.407790,0.344290,
0.389070,0.359650,
0.367480,0.371200,
0.343470,0.378470,
0.317500,0.381000,
-0.317500,0.381000,
-0.343470,0.378470,
-0.367480,0.371200,
-0.389070,0.359650,
-0.407790,0.344290,
-0.423150,0.325580,
-0.434700,0.303980,
-0.441970,0.279970,
-0.444500,0.254000,
-0.444500,-0.254000,
-0.441970,-0.279970,
-0.434700,-0.303980,
-0.423150,-0.325580,
-0.407790,-0.344290,
-0.389070,-0.359650,
-0.367480,-0.371200,
-0.343470,-0.378470,
-0.317500,-0.381000,
0.317500,-0.381000,
0.343470,-0.378470,
0.367480,-0.371200,
0.389070,-0.359650,
0.407790,-0.344290,
0.423150,-0.325580,
0.434700,-0.303980,
0.441970,-0.279970,
0.444500,-0.254000,
0*%
%TA.AperFunction,Material*%
%ADD106PPAD096*%
%TA.AperFunction,Material*%
%ADD76C,6.604000*%
%TA.AperFunction,Material*%
%ADD81C,5.334000*%
%AMPPAD097*
4,1,4,
-0.901700,0.571500,
-0.901700,-0.571500,
0.901700,-0.571500,
0.901700,0.571500,
-0.901700,0.571500,
0*%
%TA.AperFunction,Material*%
%ADD107PPAD097*%
%AMPPAD098*
4,1,36,
3.492500,3.619500,
-3.492500,3.619500,
-3.518470,3.616970,
-3.542480,3.609700,
-3.564080,3.598150,
-3.582790,3.582790,
-3.598150,3.564070,
-3.609700,3.542480,
-3.616970,3.518470,
-3.619500,3.492500,
-3.619500,-3.492500,
-3.616970,-3.518470,
-3.609700,-3.542480,
-3.598150,-3.564070,
-3.582790,-3.582790,
-3.564080,-3.598150,
-3.542480,-3.609700,
-3.518470,-3.616970,
-3.492500,-3.619500,
3.492500,-3.619500,
3.518470,-3.616970,
3.542480,-3.609700,
3.564080,-3.598150,
3.582790,-3.582790,
3.598150,-3.564070,
3.609700,-3.542480,
3.616970,-3.518470,
3.619500,-3.492500,
3.619500,3.492500,
3.616970,3.518470,
3.609700,3.542480,
3.598150,3.564070,
3.582790,3.582790,
3.564080,3.598150,
3.542480,3.609700,
3.518470,3.616970,
3.492500,3.619500,
0*%
%TA.AperFunction,Material*%
%ADD108PPAD098*%
%AMPPAD099*
4,1,36,
0.762000,1.397000,
-0.762000,1.397000,
-0.787970,1.394470,
-0.811980,1.387200,
-0.833580,1.375650,
-0.852290,1.360290,
-0.867650,1.341570,
-0.879200,1.319980,
-0.886470,1.295970,
-0.889000,1.270000,
-0.889000,-1.270000,
-0.886470,-1.295970,
-0.879200,-1.319980,
-0.867650,-1.341570,
-0.852290,-1.360290,
-0.833580,-1.375650,
-0.811980,-1.387200,
-0.787970,-1.394470,
-0.762000,-1.397000,
0.762000,-1.397000,
0.787970,-1.394470,
0.811980,-1.387200,
0.833580,-1.375650,
0.852290,-1.360290,
0.867650,-1.341570,
0.879200,-1.319980,
0.886470,-1.295970,
0.889000,-1.270000,
0.889000,1.270000,
0.886470,1.295970,
0.879200,1.319980,
0.867650,1.341570,
0.852290,1.360290,
0.833580,1.375650,
0.811980,1.387200,
0.787970,1.394470,
0.762000,1.397000,
0*%
%ADD109PPAD099*%
%AMPPAD100*
4,1,4,
0.571500,0.901700,
-0.571500,0.901700,
-0.571500,-0.901700,
0.571500,-0.901700,
0.571500,0.901700,
0*%
%TA.AperFunction,Material*%
%ADD110PPAD100*%
%AMPPAD101*
4,1,36,
0.901700,-0.025400,
0.901700,0.025400,
0.898160,0.061750,
0.887980,0.095370,
0.871810,0.125600,
0.850300,0.151800,
0.824110,0.173310,
0.793870,0.189480,
0.760250,0.199660,
0.723900,0.203200,
-0.723900,0.203200,
-0.760250,0.199660,
-0.793870,0.189480,
-0.824110,0.173310,
-0.850300,0.151800,
-0.871810,0.125600,
-0.887980,0.095370,
-0.898160,0.061750,
-0.901700,0.025400,
-0.901700,-0.025400,
-0.898160,-0.061750,
-0.887980,-0.095370,
-0.871810,-0.125600,
-0.850300,-0.151800,
-0.824110,-0.173310,
-0.793870,-0.189480,
-0.760250,-0.199660,
-0.723900,-0.203200,
0.723900,-0.203200,
0.760250,-0.199660,
0.793870,-0.189480,
0.824110,-0.173310,
0.850300,-0.151800,
0.871810,-0.125600,
0.887980,-0.095370,
0.898160,-0.061750,
0.901700,-0.025400,
0*%
%TA.AperFunction,Material*%
%ADD111PPAD101*%
%AMPPAD102*
4,1,4,
-1.371600,0.495300,
-1.371600,-0.495300,
1.371600,-0.495300,
1.371600,0.495300,
-1.371600,0.495300,
0*%
%TA.AperFunction,Material*%
%ADD112PPAD102*%
%AMPPAD103*
4,1,4,
-3.073400,2.781300,
-3.073400,-2.781300,
3.073400,-2.781300,
3.073400,2.781300,
-3.073400,2.781300,
0*%
%ADD113PPAD103*%
%AMPPAD104*
4,1,36,
2.921000,-1.016000,
2.921000,1.016000,
2.918470,1.041970,
2.911200,1.065980,
2.899650,1.087580,
2.884290,1.106290,
2.865570,1.121650,
2.843980,1.133200,
2.819970,1.140470,
2.794000,1.143000,
-2.794000,1.143000,
-2.819970,1.140470,
-2.843980,1.133200,
-2.865570,1.121650,
-2.884290,1.106290,
-2.899650,1.087580,
-2.911200,1.065980,
-2.918470,1.041970,
-2.921000,1.016000,
-2.921000,-1.016000,
-2.918470,-1.041970,
-2.911200,-1.065980,
-2.899650,-1.087580,
-2.884290,-1.106290,
-2.865570,-1.121650,
-2.843980,-1.133200,
-2.819970,-1.140470,
-2.794000,-1.143000,
2.794000,-1.143000,
2.819970,-1.140470,
2.843980,-1.133200,
2.865570,-1.121650,
2.884290,-1.106290,
2.899650,-1.087580,
2.911200,-1.065980,
2.918470,-1.041970,
2.921000,-1.016000,
0*%
%TA.AperFunction,Material*%
%ADD114PPAD104*%
%TA.AperFunction,Material*%
%ADD99C,1.397000*%
%TA.AperFunction,Profile*%
%ADD46C,0.203200*%
%TD.AperFunction*%
D69*
X+3225800Y+1174750D03*
X+3479800Y+1174750D03*
X+5257800Y+1174750D03*
X+5511800Y+1174750D03*
X+5765800Y+1174750D03*
X+7543800Y+1174750D03*
X+7797800Y+1174750D03*
X+8051800Y+1174750D03*
X+3098800Y+1394720D03*
X+3352800Y+1394720D03*
X+4876800Y+1394720D03*
X+5130800Y+1394720D03*
X+5384800Y+1394720D03*
X+5638800Y+1394720D03*
X+7162800Y+1394720D03*
X+7416800Y+1394720D03*
X+7670800Y+1394720D03*
X+7924800Y+1394720D03*
X+3479800Y+1614690D03*
X+4749800Y+1614690D03*
X+5003800Y+1614690D03*
X+5257800Y+1614690D03*
X+5511800Y+1614690D03*
X+5765800Y+1614690D03*
X+7289800Y+1614690D03*
X+7543800Y+1614690D03*
X+7797800Y+1614690D03*
X+8051800Y+1614690D03*
X+3352800Y+1834660D03*
X+4876800Y+1834660D03*
X+5130800Y+1834660D03*
X+5384800Y+1834660D03*
X+5638800Y+1834660D03*
X+7162800Y+1834660D03*
X+7416800Y+1834660D03*
X+7670800Y+1834660D03*
X+7924800Y+1834660D03*
X+3479800Y+2054630D03*
X+4749800Y+2054630D03*
X+5003800Y+2054630D03*
X+5257800Y+2054630D03*
X+5511800Y+2054630D03*
X+5765800Y+2054630D03*
X+7289800Y+2054630D03*
X+7543800Y+2054630D03*
X+7797800Y+2054630D03*
X+8051800Y+2054630D03*
X+5461000Y-1673630D03*
X+5562600Y-1497654D03*
X+5461000Y-1321678D03*
X+5562600Y-1145702D03*
X+5562600Y-793750D03*
X+5765800Y-793750D03*
X+5969000Y-793750D03*
X+6375400Y-793750D03*
X+6578600Y-793750D03*
X+6781800Y-793750D03*
X+6477000Y-617774D03*
X+6680200Y-617774D03*
X+6781800Y-441798D03*
X+5664200Y-265822D03*
X+5867400Y-265822D03*
X+6070600Y-265822D03*
X+6273800Y-265822D03*
X+6477000Y-265822D03*
X+5562600Y-89846D03*
X+5765800Y-89846D03*
X+5969000Y-89846D03*
X+6172200Y-89846D03*
X+6375400Y-89846D03*
X+6781800Y-89846D03*
X+7747000Y-1673630D03*
X+7848600Y-1497654D03*
X+7747000Y-1321678D03*
X+7848600Y-1145702D03*
X+7747000Y-969726D03*
X+7848600Y-793750D03*
X+8051800Y-793750D03*
X+8255000Y-793750D03*
X+8661400Y-793750D03*
X+8763000Y-617774D03*
X+7950200Y-265822D03*
X+8153400Y-265822D03*
X+8356600Y-265822D03*
X+8559800Y-265822D03*
X+8763000Y-265822D03*
X+7848600Y-89846D03*
X+8051800Y-89846D03*
X+8255000Y-89846D03*
X+8458200Y-89846D03*
X+8661400Y-89846D03*
X+3213100Y-1497654D03*
X+3111500Y-1321678D03*
X+3213100Y-1145702D03*
X+3111500Y-969726D03*
X+3213100Y-793750D03*
X+3416300Y-793750D03*
X+3619500Y-793750D03*
X+4127500Y-617774D03*
X+4330700Y-617774D03*
X+3314700Y-265822D03*
X+3517900Y-265822D03*
X+3721100Y-265822D03*
X+3924300Y-265822D03*
X+4127500Y-265822D03*
X+3213100Y-89846D03*
X+3416300Y-89846D03*
X+3619500Y-89846D03*
X+3822700Y-89846D03*
X+4025900Y-89846D03*
X+4432300Y-89846D03*
X+4013200Y+1052310D03*
X+3911600Y+1228286D03*
X+4114800Y+1228286D03*
X+3810000Y+1404262D03*
X+4013200Y+1404262D03*
X+3911600Y+1580238D03*
X+3810000Y+1756214D03*
X+3911600Y+1932190D03*
X+8597900Y+1228286D03*
X+8801100Y+1228286D03*
X+8496300Y+1404262D03*
X+8699500Y+1404262D03*
X+8597900Y+1580238D03*
X+8496300Y+1756214D03*
X+8597900Y+1932190D03*
X+6363969Y+1052310D03*
X+6262369Y+1228286D03*
X+6465569Y+1228286D03*
X+6160769Y+1404262D03*
X+6363969Y+1404262D03*
X+6262369Y+1580238D03*
X+6160769Y+1756214D03*
X+6262369Y+1932190D03*
X+8686800Y-2130796D03*
X+8890000Y-2130796D03*
X+2082800Y+1916652D03*
X+2286000Y+1916652D03*
X+2895600Y+1916652D03*
X+2794000Y+2092628D03*
X+2006600Y+1525797D03*
X+2209800Y+1525797D03*
X+2413000Y+1525797D03*
X+2616200Y+1525797D03*
X+3492500Y-2730500D03*
X+4699000Y-1714500D03*
X+4729970Y-2032000D03*
X+2921000Y-762000D03*
X+4699000Y-444500D03*
X+5016500Y-63500D03*
X+8572500Y+571500D03*
X+8763000Y-889000D03*
X+8001000Y-2476500D03*
X+8636000Y-2794000D03*
X+9017000Y-2921000D03*
X+9461500Y-2159000D03*
X+8128000Y-2984500D03*
X+6921500Y-1206500D03*
X+7239000Y-63500D03*
X+5651500Y-2476500D03*
X+6921500Y-1714500D03*
X+6921500Y-635000D03*
X+8890000Y-762000D03*
X+6413500Y-2984500D03*
X+5269832Y-2934010D03*
X+5143500Y-2794000D03*
X+4699000Y-952500D03*
X+7620000Y-3048000D03*
X+7239000Y-2794000D03*
X+6852642Y-2947088D03*
X+5405123Y-3273402D03*
X+9035789Y-3275673D03*
X+9334500Y+1206500D03*
X+8056544Y-3238229D03*
X+9207500Y-63500D03*
X+6794500Y-3238500D03*
X+6985000Y-63500D03*
X+7747000Y-3429000D03*
X+6428649Y-3363510D03*
X+9144000Y-3873500D03*
X+5462196Y-3402691D03*
X+6804544Y-3400300D03*
X+7874000Y-3238500D03*
X+7048500Y+1206500D03*
X+7683500Y-3238500D03*
X+4699000Y+1206500D03*
X+6477000Y-3175000D03*
X+4749800Y-2724715D03*
X+5511800Y-2724715D03*
X+5384800Y-2504745D03*
X+7416800Y-2504745D03*
X+4749800Y-2284775D03*
X+5257800Y-2284775D03*
X+5511800Y-2284775D03*
X+2971800Y+2114625D03*
X+3111500Y-1673630D03*
X+4127500Y-793750D03*
X+4381500Y-793750D03*
X+7556500Y-762000D03*
X+5334000Y-825500D03*
X+2413000Y-444500D03*
X+1905000Y-381000D03*
X+5003800Y+1174750D03*
X+4699000Y-127000D03*
D74*
X+4889500Y-4508500D03*
X+5715000Y-5397500D03*
X+5250653Y-6773442D03*
X+3369407Y-4759836D03*
X+2476500Y-5969000D03*
X+5201336Y-4122418D03*
X+5137322Y-4216749D03*
X+5223704Y-4304672D03*
X+3543214Y-7032789D03*
X+2939996Y-6806802D03*
X+798339Y-5243339D03*
X+6794500Y-4508500D03*
X+5090277Y-4706542D03*
D69*
X-127000Y-4953000D03*
X+825500Y-4064000D03*
X+1206500Y-4064000D03*
D75*
X+63500Y-3492500D03*
D69*
X+190500Y-7302500D03*
X+1206500Y-7366000D03*
X+4190486Y-3977762D03*
X+4318000Y-3937000D03*
X+3746500Y-3937000D03*
X+3746500Y-4254500D03*
X+4797500Y-4128388D03*
X+3937000Y-3111500D03*
X+4699000Y-1206500D03*
X+4703525Y-680491D03*
X+3330252Y-6746398D03*
X+2540000Y-6223000D03*
X+7256104Y-6804454D03*
X+6667500Y-6794500D03*
X+6466771Y-5469186D03*
X+6286500Y-5207000D03*
X+6012307Y-6058609D03*
X+8382000Y-5080000D03*
X+8382000Y-5334000D03*
X+8382000Y-5588000D03*
X+8893984Y-4535770D03*
X+8493457Y-5954134D03*
X+8572500Y-6096000D03*
X+1270000Y-5334000D03*
X+762000Y-5461000D03*
X+777745Y-5731541D03*
X+2476596Y-5969000D03*
X+2540000Y-6413500D03*
X+1905000Y-6540500D03*
X+2162800Y-6787849D03*
X+1968500Y-6921500D03*
X+2413000Y-6794500D03*
X+2603500Y-6858000D03*
X+2382291Y-7028649D03*
X+2603500Y-7112000D03*
X+1638554Y-6958147D03*
X+1397000Y-6921500D03*
X+5270500Y-6540500D03*
X+5461000Y-6413500D03*
X+5000592Y-6897140D03*
X+4631295Y-7275534D03*
X+3570663Y-7287838D03*
X+3812572Y-7269848D03*
X+1308146Y-5957820D03*
X+5826579Y-4795895D03*
X+7969250Y-4540250D03*
X+1870921Y-3983646D03*
X+2222500Y-4000500D03*
X+2222500Y-6286500D03*
X+1985701Y-2218041D03*
X+2032000Y-3937000D03*
X+4651441Y-1565288D03*
D74*
X+5488720Y-4530670D03*
D69*
X+3226757Y-6836751D03*
X+7244914Y-5984685D03*
D74*
X+3551706Y-4639794D03*
D69*
X+558800Y-3384625D03*
X+812800Y-3384625D03*
X+1066800Y-3384625D03*
X+1320800Y-3384625D03*
X+1574800Y-3384625D03*
X+1828800Y-3384625D03*
X+2082800Y-3384625D03*
X+177800Y-3164655D03*
X+812800Y-2944685D03*
X+1066800Y-2944685D03*
X+1320800Y-2944685D03*
X+1828800Y-2944685D03*
X+177800Y-2724715D03*
X+1955800Y-2724715D03*
X+50800Y-2504745D03*
X+304800Y-2504745D03*
X+2082800Y-2504745D03*
X+50800Y-2064805D03*
X+304800Y-2064805D03*
X+177800Y-1844835D03*
X+177800Y-1404895D03*
X+50800Y-744985D03*
X+304800Y-744985D03*
X+558800Y-744985D03*
X+177800Y-525015D03*
X+685800Y-525015D03*
X+177800Y-85075D03*
X+685800Y-85075D03*
X+50800Y+134895D03*
X+304800Y+134895D03*
X+558800Y+134895D03*
X+812800Y+134895D03*
X+177800Y+354865D03*
X+685800Y+354865D03*
X+50800Y+574835D03*
X+304800Y+574835D03*
X+558800Y+574835D03*
X+812800Y+574835D03*
X+177800Y+794805D03*
X+685800Y+794805D03*
X+50800Y+1014775D03*
X+304800Y+1014775D03*
X+558800Y+1014775D03*
X+812800Y+1014775D03*
X+177800Y+1234745D03*
X+685800Y+1234745D03*
X+50800Y+1454715D03*
X+304800Y+1454715D03*
X+558800Y+1454715D03*
X+812800Y+1454715D03*
X+685800Y+1674685D03*
X+50800Y+1894655D03*
X+812800Y+1894655D03*
X+1066800Y+1894655D03*
X+1320800Y+1894655D03*
X+1574800Y+1894655D03*
X+889000Y-2597715D03*
X+1143000Y-2597715D03*
X+1397000Y-2597715D03*
X+1270000Y-2377745D03*
X+1143000Y-2157775D03*
X+1016000Y-1937805D03*
X+1270000Y-1937805D03*
X+1778000Y-1937805D03*
X+1270000Y-1497865D03*
X+889000Y-1277895D03*
X+1143000Y-1277895D03*
X+1397000Y-1277895D03*
X+1270000Y-1057925D03*
X+1143000Y-837955D03*
X+1397000Y-398015D03*
X+1651000Y-398015D03*
X+1524000Y-178045D03*
X+1651000Y+41925D03*
X+1524000Y+261895D03*
X+1524000Y+701835D03*
X+1651000Y+1361745D03*
X+2159000Y+1361745D03*
X+2413000Y+1361745D03*
X+1270000Y+1581715D03*
X+1524000Y+1581715D03*
X-444500Y-2724715D03*
X-825500Y-2504745D03*
X-571500Y-2504745D03*
X-317500Y-2504745D03*
X-825500Y-2064805D03*
X-571500Y-2064805D03*
X-317500Y-2064805D03*
X-444500Y-1844835D03*
X-825500Y-1624865D03*
X-444500Y-1404895D03*
X-317500Y-1184925D03*
X-825500Y-744985D03*
X-317500Y-744985D03*
X-698500Y-525015D03*
X-444500Y-525015D03*
X-825500Y-305045D03*
X-698500Y-85075D03*
X-444500Y-85075D03*
X-825500Y+134895D03*
X-317500Y+134895D03*
X-825500Y+574835D03*
X-317500Y+574835D03*
X-825500Y+1014775D03*
X-317500Y+1014775D03*
X-825500Y+1454715D03*
X-317500Y+1454715D03*
D101*
X+5589396Y-5904103D03*
X+5554040Y-5939459D03*
X+5518685Y-5974814D03*
X+5483330Y-6010169D03*
X+5447974Y-6045525D03*
X+5412619Y-6080880D03*
X+5377264Y-6116235D03*
X+5341908Y-6151591D03*
X+5306553Y-6186946D03*
X+5271198Y-6222301D03*
X+5235842Y-6257657D03*
X+5200487Y-6293012D03*
X+5165132Y-6328367D03*
X+5129776Y-6363723D03*
X+5094421Y-6399078D03*
X+5059066Y-6434434D03*
X+5023710Y-6469789D03*
X+4988355Y-6505144D03*
X+4953000Y-6540500D03*
X+4917644Y-6575855D03*
X+4882289Y-6611210D03*
X+4846934Y-6646566D03*
X+4811578Y-6681921D03*
X+4776223Y-6717276D03*
X+4740868Y-6752632D03*
X+4705512Y-6787987D03*
X+4670157Y-6823342D03*
X+4634802Y-6858698D03*
X+4599446Y-6894053D03*
X+4564091Y-6929408D03*
X+4528736Y-6964764D03*
X+4493380Y-7000119D03*
X+4458025Y-7035474D03*
X+4422670Y-7070830D03*
X+4387314Y-7106185D03*
X+4351959Y-7141540D03*
D102*
X+4076187Y-7141540D03*
X+4040832Y-7106185D03*
X+4005477Y-7070830D03*
X+3970121Y-7035474D03*
X+3934766Y-7000119D03*
D103*
X+3899411Y-6964764D03*
D102*
X+3864055Y-6929408D03*
X+3828700Y-6894053D03*
X+3793345Y-6858698D03*
X+3757989Y-6823342D03*
X+3722634Y-6787987D03*
X+3687279Y-6752632D03*
X+3651923Y-6717276D03*
X+3616568Y-6681921D03*
X+3581213Y-6646566D03*
X+3545857Y-6611210D03*
X+3510502Y-6575855D03*
X+3475147Y-6540500D03*
X+3439791Y-6505144D03*
X+3404436Y-6469789D03*
X+3369081Y-6434434D03*
X+3333725Y-6399078D03*
X+3298370Y-6363723D03*
X+3263015Y-6328367D03*
X+3227659Y-6293012D03*
X+3192304Y-6257657D03*
X+3156948Y-6222301D03*
X+3121593Y-6186946D03*
X+3086238Y-6151591D03*
X+3050882Y-6116235D03*
X+3015527Y-6080880D03*
X+2980172Y-6045525D03*
X+2944816Y-6010169D03*
X+2909461Y-5974814D03*
X+2874106Y-5939459D03*
X+2838750Y-5904103D03*
D101*
X+2838750Y-5628332D03*
X+2874106Y-5592976D03*
X+2909461Y-5557621D03*
X+2944816Y-5522266D03*
X+2980172Y-5486910D03*
X+3015527Y-5451555D03*
X+3050882Y-5416200D03*
X+3086238Y-5380844D03*
X+3121593Y-5345489D03*
X+3156948Y-5310134D03*
X+3192304Y-5274778D03*
X+3227659Y-5239423D03*
X+3263015Y-5204068D03*
X+3298370Y-5168712D03*
X+3333725Y-5133357D03*
X+3369081Y-5098002D03*
X+3404436Y-5062646D03*
X+3439791Y-5027291D03*
X+3475147Y-4991936D03*
X+3510502Y-4956580D03*
X+3545857Y-4921225D03*
X+3581213Y-4885870D03*
X+3616568Y-4850514D03*
X+3651923Y-4815159D03*
X+3687279Y-4779804D03*
X+3722634Y-4744448D03*
X+3757989Y-4709093D03*
X+3793345Y-4673738D03*
X+3828700Y-4638382D03*
X+3864055Y-4603027D03*
X+3899411Y-4567672D03*
X+3934766Y-4532316D03*
X+3970121Y-4496961D03*
D104*
X+4005477Y-4461606D03*
D101*
X+4040832Y-4426250D03*
X+4076187Y-4390895D03*
D102*
X+4351959Y-4390895D03*
X+4387314Y-4426250D03*
X+4422670Y-4461606D03*
X+4458025Y-4496961D03*
X+4493380Y-4532316D03*
X+4528736Y-4567672D03*
X+4564091Y-4603027D03*
X+4599446Y-4638382D03*
X+4634802Y-4673738D03*
X+4670157Y-4709093D03*
X+4705512Y-4744448D03*
X+4740868Y-4779804D03*
X+4776223Y-4815159D03*
X+4811578Y-4850514D03*
X+4846934Y-4885870D03*
X+4882289Y-4921225D03*
X+4917644Y-4956580D03*
X+4953000Y-4991936D03*
X+4988355Y-5027291D03*
X+5023710Y-5062646D03*
X+5059066Y-5098002D03*
X+5094421Y-5133357D03*
X+5129776Y-5168712D03*
X+5165132Y-5204068D03*
X+5200487Y-5239423D03*
X+5235842Y-5274778D03*
X+5271198Y-5310134D03*
X+5306553Y-5345489D03*
X+5341908Y-5380844D03*
X+5377264Y-5416200D03*
X+5412619Y-5451555D03*
X+5447974Y-5486910D03*
X+5483330Y-5522266D03*
X+5518685Y-5557621D03*
X+5554040Y-5592976D03*
X+5589396Y-5628332D03*
D105*
X+4214073Y-7279426D03*
X+4214073Y-4253009D03*
D106*
X+913740Y-5905500D03*
X+913740Y-5811520D03*
X+913740Y-5715000D03*
X+1152500Y-5715000D03*
X+1152500Y-5905500D03*
X+1793240Y-5715000D03*
X+1793240Y-5621020D03*
X+1793240Y-5524500D03*
X+2032000Y-5524500D03*
X+2032000Y-5715000D03*
X+913740Y-6858000D03*
X+913740Y-6764020D03*
X+913740Y-6667500D03*
X+1152500Y-6667500D03*
X+1152500Y-6858000D03*
D76*
X-635000Y-7175500D03*
X+9271000Y-7175500D03*
D81*
X+4318000Y+1714500D03*
X+6667500Y+1714500D03*
X+8953500Y+1714500D03*
D107*
X+5143500Y-698500D03*
X+5143500Y-998500D03*
X+5143500Y-190500D03*
X+5143500Y-480500D03*
X+4889500Y-190500D03*
X+4889500Y-490500D03*
X+4889500Y-698500D03*
X+4889500Y-988500D03*
D108*
X-546100Y-4071620D03*
D109*
X-317500Y-4762500D03*
X-774700Y-4762500D03*
D108*
X+292100Y-4071620D03*
D109*
X+520700Y-4762500D03*
X+63500Y-4762500D03*
D81*
X+381000Y+1968500D03*
X-571500Y+1968500D03*
D110*
X-462000Y-5080000D03*
X-762000Y-5080000D03*
D107*
X+825500Y-4762500D03*
X+825500Y-4462500D03*
X+4889500Y-1206500D03*
X+4889500Y-1506500D03*
X+5143500Y-1714500D03*
X+5143500Y-2014500D03*
X+4889500Y-1714500D03*
X+4889500Y-2004500D03*
X+5143500Y-1206500D03*
X+5143500Y-1496500D03*
D111*
X+6259000Y-3273402D03*
X+6259000Y-3338402D03*
X+6259000Y-3403402D03*
X+6259000Y-3468402D03*
X+5829000Y-3468402D03*
X+5829000Y-3403402D03*
X+5829000Y-3338402D03*
X+5829000Y-3273402D03*
X+7486107Y-3273033D03*
X+7486107Y-3338033D03*
X+7486107Y-3403033D03*
X+7486107Y-3468033D03*
X+7056107Y-3468033D03*
X+7056107Y-3403033D03*
X+7056107Y-3338033D03*
X+7056107Y-3273033D03*
X+8735869Y-3274533D03*
X+8735869Y-3339533D03*
X+8735869Y-3404533D03*
X+8735869Y-3469533D03*
X+8305869Y-3469533D03*
X+8305869Y-3404533D03*
X+8305869Y-3339533D03*
X+8305869Y-3274533D03*
D110*
X+6195500Y-2957402D03*
X+5895500Y-2957402D03*
X+7422607Y-2957033D03*
X+7122607Y-2957033D03*
X+8672369Y-2958533D03*
X+8372369Y-2958533D03*
X+6432000Y-3719402D03*
X+6132000Y-3719402D03*
X+7676607Y-3719033D03*
X+7376607Y-3719033D03*
X+8908869Y-3719033D03*
X+8608869Y-3719033D03*
X+6432000Y-3973402D03*
X+6132000Y-3973402D03*
X+5824500Y-4227402D03*
X+5524500Y-4227402D03*
X+5524500Y-3719402D03*
X+5814500Y-3719402D03*
X+6422000Y-4227402D03*
X+6132000Y-4227402D03*
X+5814500Y-3973402D03*
X+5524500Y-3973402D03*
X+6787607Y-3719033D03*
X+7077607Y-3719033D03*
X+7676607Y-3973033D03*
X+7386607Y-3973033D03*
X+7077607Y-3973033D03*
X+6787607Y-3973033D03*
X+8019869Y-3719033D03*
X+8309869Y-3719033D03*
X+8908869Y-3973033D03*
X+8618869Y-3973033D03*
X+8309869Y-3973033D03*
X+8019869Y-3973033D03*
X+7087607Y-4227033D03*
X+6787607Y-4227033D03*
X+7676607Y-4227033D03*
X+7376607Y-4227033D03*
X+8319869Y-4227033D03*
X+8019869Y-4227033D03*
X+8908869Y-4227033D03*
X+8608869Y-4227033D03*
D107*
X+7112000Y-698500D03*
X+7112000Y-988500D03*
X+7366000Y-218000D03*
X+7366000Y-508000D03*
X+7112000Y-1714500D03*
X+7112000Y-2004500D03*
X+7366000Y-1206500D03*
X+7366000Y-1496500D03*
X+7112000Y-208000D03*
X+7112000Y-508000D03*
X+7366000Y-698500D03*
X+7366000Y-998500D03*
X+7112000Y-1206500D03*
X+7112000Y-1506500D03*
X+7366000Y-1714500D03*
X+7366000Y-2014500D03*
X+9080500Y-190500D03*
X+9080500Y-490500D03*
X+9334500Y-698500D03*
X+9334500Y-998500D03*
X+9334500Y-1206500D03*
X+9334500Y-1506500D03*
X+9080500Y-1714500D03*
X+9080500Y-2014500D03*
X+9080500Y-698500D03*
X+9080500Y-988500D03*
X+9334500Y-190500D03*
X+9334500Y-480500D03*
X+9334500Y-1714500D03*
X+9334500Y-2004500D03*
X+9080500Y-1206500D03*
X+9080500Y-1496500D03*
D112*
X+6667500Y-5778500D03*
X+6667500Y-5322500D03*
D113*
X+7337500Y-5550500D03*
D114*
X+6680200Y-7239000D03*
X+5715000Y-7239000D03*
D107*
X+7112000Y-7002500D03*
X+7112000Y-7302500D03*
X+5270500Y-7002500D03*
X+5270500Y-7302500D03*
D110*
X+1152500Y-6413500D03*
X+862500Y-6413500D03*
X+1152500Y-6159500D03*
X+862500Y-6159500D03*
X+2004500Y-5905500D03*
X+1714500Y-5905500D03*
X+1152500Y-7112000D03*
X+862500Y-7112000D03*
D107*
X+9500Y-6032500D03*
X+9500Y-5742500D03*
D99*
X+454000Y-7023000D03*
X+254000Y-7023000D03*
X+454000Y-6823000D03*
X+254000Y-6823000D03*
X+454000Y-6623000D03*
X+254000Y-6623000D03*
X+454000Y-6423000D03*
X+254000Y-6423000D03*
X+454000Y-6223000D03*
X+254000Y-6223000D03*
X+454000Y-6023000D03*
X+254000Y-6023000D03*
X+454000Y-5823000D03*
X+254000Y-5823000D03*
D107*
X+6731000Y-6576500D03*
X+6731000Y-6286500D03*
D110*
X+6187000Y-6794500D03*
X+6477000Y-6794500D03*
X+1397000Y-6667500D03*
X+1687000Y-6667500D03*
D107*
X+6477000Y-6286500D03*
X+6477000Y-6586500D03*
X+6159500Y-6286500D03*
X+6159500Y-6586500D03*
X+5651500Y-6286500D03*
X+5651500Y-6586500D03*
X+5905500Y-6286500D03*
X+5905500Y-6586500D03*
D110*
X+1697000Y-6413500D03*
X+1397000Y-6413500D03*
X+1697000Y-6159500D03*
X+1397000Y-6159500D03*
X+1697000Y-4254500D03*
X+1397000Y-4254500D03*
D99*
X+9334500Y-6486500D03*
X+9334500Y-6286500D03*
X+9334500Y-6086500D03*
D107*
X+5016500Y-7139500D03*
X+5016500Y-7429500D03*
X+6223000Y-6032500D03*
X+6223000Y-5742500D03*
D110*
X+1905000Y-4508500D03*
X+2195000Y-4508500D03*
X+1905000Y-4254500D03*
X+2195000Y-4254500D03*
X+1397000Y-4508500D03*
X+1687000Y-4508500D03*
X+1560000Y-4762500D03*
X+1270000Y-4762500D03*
D99*
X+7537500Y-6713500D03*
X+7737500Y-6713500D03*
X+7937500Y-6713500D03*
X+8137500Y-6713500D03*
X+8337500Y-6713500D03*
X+8537500Y-6713500D03*
D46*
X-1079500Y-7620000D02*
X+9715500Y-7620000D01*
X+9715500Y+2349500D01*
X-1079500Y+2349500D01*
X-1079500Y-7620000D01*
M02*
