G04 PROTEUS GERBER X2 FILE*
%TF.GenerationSoftware,Labcenter,Proteus,8.7-SP3-Build25561*%
%TF.CreationDate,2021-07-04T19:39:20+00:00*%
%TF.FileFunction,AssemblyDrawing,Top*%
%TF.FilePolarity,Positive*%
%TF.Part,Single*%
%TF.SameCoordinates,{804bfe34-88de-486f-8887-f5b9ed786e22}*%
%FSLAX45Y45*%
%MOMM*%
G01*
%TA.AperFunction,Profile*%
%ADD42C,0.203200*%
%TA.AperFunction,Material*%
%ADD48C,0.203200*%
%ADD115C,0.105410*%
%ADD116C,0.068580*%
%ADD117C,0.389040*%
%ADD118C,0.090090*%
%ADD119C,0.050000*%
%ADD120C,0.116250*%
%ADD121C,0.422590*%
%ADD122C,0.258330*%
%ADD123C,0.096190*%
%ADD124C,0.118750*%
%ADD125C,0.077500*%
%ADD126C,0.054860*%
%ADD127C,0.093000*%
%ADD128C,0.144780*%
%ADD129C,0.137160*%
%ADD130C,0.171450*%
%ADD131C,0.059690*%
%ADD132C,0.095000*%
%ADD133C,0.141000*%
%ADD134C,0.103290*%
%ADD135C,0.077470*%
%ADD136C,0.074610*%
%ADD52C,0.152400*%
%ADD137C,0.086530*%
%ADD138C,0.160020*%
%ADD139C,0.931330*%
%ADD140C,0.263750*%
%ADD141C,0.067300*%
%ADD142C,0.351660*%
%ADD143C,0.622300*%
%ADD144C,0.466720*%
%ADD145C,0.066420*%
%ADD146C,0.213750*%
%TD.AperFunction*%
D42*
X-1079500Y-6413500D02*
X+9715500Y-6413500D01*
X+9715500Y+2349500D01*
X-1079500Y+2349500D01*
X-1079500Y-6413500D01*
D48*
X+6403340Y+44450D02*
X+7185660Y+44450D01*
X+7185660Y+1098550D01*
X+6403340Y+1098550D01*
X+6403340Y+44450D01*
D115*
X+6815582Y+192024D02*
X+6826123Y+202565D01*
X+6826123Y+244729D01*
X+6815582Y+255270D01*
X+6805041Y+255270D01*
X+6794500Y+244729D01*
X+6794500Y+202565D01*
X+6783959Y+192024D01*
X+6773418Y+192024D01*
X+6762877Y+202565D01*
X+6762877Y+244729D01*
X+6773418Y+255270D01*
X+6826123Y+276352D02*
X+6762877Y+276352D01*
X+6762877Y+339598D02*
X+6826123Y+339598D01*
X+6794500Y+276352D02*
X+6794500Y+339598D01*
X+6762877Y+360680D02*
X+6815582Y+360680D01*
X+6826123Y+371221D01*
X+6826123Y+413385D01*
X+6815582Y+423926D01*
X+6762877Y+423926D01*
X+6826123Y+445008D02*
X+6762877Y+445008D01*
X+6826123Y+508254D01*
X+6762877Y+508254D01*
X+6762877Y+529336D02*
X+6762877Y+592582D01*
X+6762877Y+560959D02*
X+6826123Y+560959D01*
X+6836664Y+613664D02*
X+6836664Y+676910D01*
X+6826123Y+697992D02*
X+6762877Y+697992D01*
X+6762877Y+750697D01*
X+6773418Y+761238D01*
X+6783959Y+761238D01*
X+6794500Y+750697D01*
X+6794500Y+697992D01*
X+6826123Y+782320D02*
X+6762877Y+782320D01*
X+6762877Y+845566D02*
X+6826123Y+845566D01*
X+6794500Y+782320D02*
X+6794500Y+845566D01*
X+6773418Y+877189D02*
X+6762877Y+887730D01*
X+6762877Y+919353D01*
X+6773418Y+929894D01*
X+6783959Y+929894D01*
X+6794500Y+919353D01*
X+6794500Y+887730D01*
X+6805041Y+877189D01*
X+6826123Y+877189D01*
X+6826123Y+929894D01*
D48*
X+8689340Y+44450D02*
X+9471660Y+44450D01*
X+9471660Y+1098550D01*
X+8689340Y+1098550D01*
X+8689340Y+44450D01*
D115*
X+9101582Y+192024D02*
X+9112123Y+202565D01*
X+9112123Y+244729D01*
X+9101582Y+255270D01*
X+9091041Y+255270D01*
X+9080500Y+244729D01*
X+9080500Y+202565D01*
X+9069959Y+192024D01*
X+9059418Y+192024D01*
X+9048877Y+202565D01*
X+9048877Y+244729D01*
X+9059418Y+255270D01*
X+9112123Y+276352D02*
X+9048877Y+276352D01*
X+9048877Y+339598D02*
X+9112123Y+339598D01*
X+9080500Y+276352D02*
X+9080500Y+339598D01*
X+9048877Y+360680D02*
X+9101582Y+360680D01*
X+9112123Y+371221D01*
X+9112123Y+413385D01*
X+9101582Y+423926D01*
X+9048877Y+423926D01*
X+9112123Y+445008D02*
X+9048877Y+445008D01*
X+9112123Y+508254D01*
X+9048877Y+508254D01*
X+9048877Y+529336D02*
X+9048877Y+592582D01*
X+9048877Y+560959D02*
X+9112123Y+560959D01*
X+9122664Y+613664D02*
X+9122664Y+676910D01*
X+9112123Y+697992D02*
X+9048877Y+697992D01*
X+9048877Y+750697D01*
X+9059418Y+761238D01*
X+9069959Y+761238D01*
X+9080500Y+750697D01*
X+9080500Y+697992D01*
X+9112123Y+782320D02*
X+9048877Y+782320D01*
X+9048877Y+845566D02*
X+9112123Y+845566D01*
X+9080500Y+782320D02*
X+9080500Y+845566D01*
X+9059418Y+877189D02*
X+9048877Y+887730D01*
X+9048877Y+919353D01*
X+9059418Y+929894D01*
X+9069959Y+929894D01*
X+9080500Y+919353D01*
X+9091041Y+929894D01*
X+9101582Y+929894D01*
X+9112123Y+919353D01*
X+9112123Y+887730D01*
X+9101582Y+877189D01*
X+9080500Y+898271D02*
X+9080500Y+919353D01*
D48*
X+4053840Y+44450D02*
X+4836160Y+44450D01*
X+4836160Y+1098550D01*
X+4053840Y+1098550D01*
X+4053840Y+44450D01*
D115*
X+4466082Y+192024D02*
X+4476623Y+202565D01*
X+4476623Y+244729D01*
X+4466082Y+255270D01*
X+4455541Y+255270D01*
X+4445000Y+244729D01*
X+4445000Y+202565D01*
X+4434459Y+192024D01*
X+4423918Y+192024D01*
X+4413377Y+202565D01*
X+4413377Y+244729D01*
X+4423918Y+255270D01*
X+4476623Y+276352D02*
X+4413377Y+276352D01*
X+4413377Y+339598D02*
X+4476623Y+339598D01*
X+4445000Y+276352D02*
X+4445000Y+339598D01*
X+4413377Y+360680D02*
X+4466082Y+360680D01*
X+4476623Y+371221D01*
X+4476623Y+413385D01*
X+4466082Y+423926D01*
X+4413377Y+423926D01*
X+4476623Y+445008D02*
X+4413377Y+445008D01*
X+4476623Y+508254D01*
X+4413377Y+508254D01*
X+4413377Y+529336D02*
X+4413377Y+592582D01*
X+4413377Y+560959D02*
X+4476623Y+560959D01*
X+4487164Y+613664D02*
X+4487164Y+676910D01*
X+4476623Y+697992D02*
X+4413377Y+697992D01*
X+4413377Y+750697D01*
X+4423918Y+761238D01*
X+4434459Y+761238D01*
X+4445000Y+750697D01*
X+4445000Y+697992D01*
X+4476623Y+782320D02*
X+4413377Y+782320D01*
X+4413377Y+845566D02*
X+4476623Y+845566D01*
X+4445000Y+782320D02*
X+4445000Y+845566D01*
X+4434459Y+887730D02*
X+4413377Y+908812D01*
X+4476623Y+908812D01*
D48*
X+4180840Y+1577340D02*
X+4455160Y+1577340D01*
X+4455160Y+1851660D01*
X+4180840Y+1851660D01*
X+4180840Y+1577340D01*
D116*
X+4235704Y+1693926D02*
X+4235704Y+1735074D01*
X+4269994Y+1735074D01*
X+4276852Y+1728216D01*
X+4276852Y+1721358D01*
X+4269994Y+1714500D01*
X+4235704Y+1714500D01*
X+4290568Y+1693926D02*
X+4290568Y+1735074D01*
X+4331716Y+1735074D02*
X+4331716Y+1693926D01*
X+4290568Y+1714500D02*
X+4331716Y+1714500D01*
X+4359148Y+1721358D02*
X+4372864Y+1735074D01*
X+4372864Y+1693926D01*
D48*
X+6530340Y+1577340D02*
X+6804660Y+1577340D01*
X+6804660Y+1851660D01*
X+6530340Y+1851660D01*
X+6530340Y+1577340D01*
D116*
X+6585204Y+1693926D02*
X+6585204Y+1735074D01*
X+6619494Y+1735074D01*
X+6626352Y+1728216D01*
X+6626352Y+1721358D01*
X+6619494Y+1714500D01*
X+6585204Y+1714500D01*
X+6640068Y+1693926D02*
X+6640068Y+1735074D01*
X+6681216Y+1735074D02*
X+6681216Y+1693926D01*
X+6640068Y+1714500D02*
X+6681216Y+1714500D01*
X+6701790Y+1728216D02*
X+6708648Y+1735074D01*
X+6729222Y+1735074D01*
X+6736080Y+1728216D01*
X+6736080Y+1721358D01*
X+6729222Y+1714500D01*
X+6708648Y+1714500D01*
X+6701790Y+1707642D01*
X+6701790Y+1693926D01*
X+6736080Y+1693926D01*
D48*
X+8117840Y+1513840D02*
X+8392160Y+1513840D01*
X+8392160Y+1788160D01*
X+8117840Y+1788160D01*
X+8117840Y+1513840D01*
D116*
X+8172704Y+1630426D02*
X+8172704Y+1671574D01*
X+8206994Y+1671574D01*
X+8213852Y+1664716D01*
X+8213852Y+1657858D01*
X+8206994Y+1651000D01*
X+8172704Y+1651000D01*
X+8227568Y+1630426D02*
X+8227568Y+1671574D01*
X+8268716Y+1671574D02*
X+8268716Y+1630426D01*
X+8227568Y+1651000D02*
X+8268716Y+1651000D01*
X+8289290Y+1664716D02*
X+8296148Y+1671574D01*
X+8316722Y+1671574D01*
X+8323580Y+1664716D01*
X+8323580Y+1657858D01*
X+8316722Y+1651000D01*
X+8323580Y+1644142D01*
X+8323580Y+1637284D01*
X+8316722Y+1630426D01*
X+8296148Y+1630426D01*
X+8289290Y+1637284D01*
X+8303006Y+1651000D02*
X+8316722Y+1651000D01*
D48*
X-895350Y-4127500D02*
X-196850Y-4127500D01*
X-196850Y-2960370D01*
X-895350Y-2960370D01*
X-895350Y-4127500D01*
D117*
X-585004Y-3855169D02*
X-662813Y-3777361D01*
X-662813Y-3699552D01*
X-585004Y-3621744D01*
X-507196Y-3621744D01*
X-429387Y-3699552D01*
X-429387Y-3777361D01*
X-507196Y-3855169D01*
X-585004Y-3855169D01*
X-507196Y-3699552D02*
X-429387Y-3621744D01*
X-662813Y-3310510D02*
X-662813Y-3505031D01*
X-585004Y-3505031D01*
X-585004Y-3349414D01*
X-546100Y-3310510D01*
X-468291Y-3310510D01*
X-429387Y-3349414D01*
X-429387Y-3466127D01*
X-468291Y-3505031D01*
D48*
X-837080Y-4584750D02*
X-686920Y-4584750D01*
X-686920Y-4286300D01*
X-837080Y-4286300D01*
X-837080Y-4584750D01*
D118*
X-734971Y-4507601D02*
X-789028Y-4507601D01*
X-789028Y-4471563D01*
X-771009Y-4453544D01*
X-752990Y-4453544D01*
X-734971Y-4471563D01*
X-734971Y-4507601D01*
X-771009Y-4417506D02*
X-789028Y-4399487D01*
X-734971Y-4399487D01*
D119*
X-593000Y-4433000D02*
X-133000Y-4433000D01*
X-133000Y-4203000D01*
X-593000Y-4203000D01*
X-593000Y-4433000D01*
X-363000Y-4268000D02*
X-363000Y-4368000D01*
X-313000Y-4318000D02*
X-413000Y-4318000D01*
D120*
X-502500Y-4352875D02*
X-502500Y-4283125D01*
X-444375Y-4283125D01*
X-432750Y-4294750D01*
X-432750Y-4306375D01*
X-444375Y-4318000D01*
X-502500Y-4318000D01*
X-444375Y-4318000D02*
X-432750Y-4329625D01*
X-432750Y-4352875D01*
X-397875Y-4294750D02*
X-386250Y-4283125D01*
X-351375Y-4283125D01*
X-339750Y-4294750D01*
X-339750Y-4306375D01*
X-351375Y-4318000D01*
X-339750Y-4329625D01*
X-339750Y-4341250D01*
X-351375Y-4352875D01*
X-386250Y-4352875D01*
X-397875Y-4341250D01*
X-374625Y-4318000D02*
X-351375Y-4318000D01*
X-304875Y-4294750D02*
X-293250Y-4283125D01*
X-258375Y-4283125D01*
X-246750Y-4294750D01*
X-246750Y-4306375D01*
X-258375Y-4318000D01*
X-293250Y-4318000D01*
X-304875Y-4329625D01*
X-304875Y-4352875D01*
X-246750Y-4352875D01*
D48*
X+2256790Y-4260850D02*
X+3331210Y-4260850D01*
X+3331210Y-2570480D01*
X+2256790Y-2570480D01*
X+2256790Y-4260850D01*
D121*
X+2667223Y-3922774D02*
X+2878519Y-3922774D01*
X+2920778Y-3880515D01*
X+2920778Y-3711479D01*
X+2878519Y-3669220D01*
X+2667223Y-3669220D01*
X+2751741Y-3500183D02*
X+2667223Y-3415665D01*
X+2920778Y-3415665D01*
X+2751741Y-3162110D02*
X+2667223Y-3077592D01*
X+2920778Y-3077592D01*
D119*
X+2272500Y-4409000D02*
X+1502500Y-4409000D01*
X+1502500Y-4989000D01*
X+2272500Y-4989000D01*
X+2272500Y-4409000D01*
X+1887500Y-4749000D02*
X+1887500Y-4649000D01*
X+1837500Y-4699000D02*
X+1937500Y-4699000D01*
D122*
X+1680834Y-4621500D02*
X+1680834Y-4776500D01*
X+1835833Y-4776500D01*
X+1939166Y-4673167D02*
X+1990833Y-4621500D01*
X+1990833Y-4776500D01*
D48*
X+2389677Y-4990787D02*
X+2549997Y-4990787D01*
X+2549997Y-4561887D01*
X+2389677Y-4561887D01*
X+2389677Y-4990787D01*
D123*
X+2498695Y-4853290D02*
X+2440980Y-4853290D01*
X+2440980Y-4814814D01*
X+2460218Y-4795576D01*
X+2479457Y-4795576D01*
X+2498695Y-4814814D01*
X+2498695Y-4853290D01*
X+2450599Y-4718623D02*
X+2440980Y-4728242D01*
X+2440980Y-4757099D01*
X+2450599Y-4766718D01*
X+2489076Y-4766718D01*
X+2498695Y-4757099D01*
X+2498695Y-4728242D01*
X+2489076Y-4718623D01*
X+2479457Y-4718623D01*
X+2469837Y-4728242D01*
X+2469837Y-4766718D01*
D119*
X-593000Y-4687000D02*
X-123000Y-4687000D01*
X-123000Y-4457000D01*
X-593000Y-4457000D01*
X-593000Y-4687000D01*
X-358000Y-4522000D02*
X-358000Y-4622000D01*
X-308000Y-4572000D02*
X-408000Y-4572000D01*
D124*
X-429250Y-4595750D02*
X-441125Y-4607625D01*
X-476750Y-4607625D01*
X-500500Y-4583875D01*
X-500500Y-4560125D01*
X-476750Y-4536375D01*
X-441125Y-4536375D01*
X-429250Y-4548250D01*
X-405500Y-4607625D02*
X-405500Y-4560125D01*
X-381750Y-4536375D01*
X-358000Y-4536375D01*
X-334250Y-4560125D01*
X-334250Y-4607625D01*
X-405500Y-4583875D02*
X-334250Y-4583875D01*
X-298625Y-4548250D02*
X-286750Y-4536375D01*
X-251125Y-4536375D01*
X-239250Y-4548250D01*
X-239250Y-4560125D01*
X-251125Y-4572000D01*
X-239250Y-4583875D01*
X-239250Y-4595750D01*
X-251125Y-4607625D01*
X-286750Y-4607625D01*
X-298625Y-4595750D01*
X-274875Y-4572000D02*
X-251125Y-4572000D01*
D119*
X+3359500Y-4330000D02*
X+2899500Y-4330000D01*
X+2899500Y-4560000D01*
X+3359500Y-4560000D01*
X+3359500Y-4330000D01*
X+3129500Y-4495000D02*
X+3129500Y-4395000D01*
X+3079500Y-4445000D02*
X+3179500Y-4445000D01*
D125*
X+2974500Y-4468250D02*
X+2974500Y-4421750D01*
X+3013250Y-4421750D01*
X+3021000Y-4429500D01*
X+3021000Y-4437250D01*
X+3013250Y-4445000D01*
X+2974500Y-4445000D01*
X+3013250Y-4445000D02*
X+3021000Y-4452750D01*
X+3021000Y-4468250D01*
X+3052000Y-4437250D02*
X+3067500Y-4421750D01*
X+3067500Y-4468250D01*
X+3098500Y-4421750D02*
X+3098500Y-4460500D01*
X+3106250Y-4468250D01*
X+3137250Y-4468250D01*
X+3145000Y-4460500D01*
X+3145000Y-4421750D01*
X+3176000Y-4437250D02*
X+3191500Y-4421750D01*
X+3191500Y-4468250D01*
X+3238000Y-4437250D02*
X+3253500Y-4421750D01*
X+3253500Y-4468250D01*
D119*
X+258000Y-1345500D02*
X-212000Y-1345500D01*
X-212000Y-1575500D01*
X+258000Y-1575500D01*
X+258000Y-1345500D01*
X+23000Y-1510500D02*
X+23000Y-1410500D01*
X-27000Y-1460500D02*
X+73000Y-1460500D01*
D124*
X-48250Y-1484250D02*
X-60125Y-1496125D01*
X-95750Y-1496125D01*
X-119500Y-1472375D01*
X-119500Y-1448625D01*
X-95750Y-1424875D01*
X-60125Y-1424875D01*
X-48250Y-1436750D01*
X+46750Y-1472375D02*
X-24500Y-1472375D01*
X+23000Y-1424875D01*
X+23000Y-1496125D01*
X+70500Y-1484250D02*
X+70500Y-1436750D01*
X+82375Y-1424875D01*
X+129875Y-1424875D01*
X+141750Y-1436750D01*
X+141750Y-1484250D01*
X+129875Y-1496125D01*
X+82375Y-1496125D01*
X+70500Y-1484250D01*
X+70500Y-1496125D02*
X+141750Y-1424875D01*
D119*
X+258000Y-837500D02*
X-212000Y-837500D01*
X-212000Y-1067500D01*
X+258000Y-1067500D01*
X+258000Y-837500D01*
X+23000Y-1002500D02*
X+23000Y-902500D01*
X-27000Y-952500D02*
X+73000Y-952500D01*
D124*
X-48250Y-976250D02*
X-60125Y-988125D01*
X-95750Y-988125D01*
X-119500Y-964375D01*
X-119500Y-940625D01*
X-95750Y-916875D01*
X-60125Y-916875D01*
X-48250Y-928750D01*
X+46750Y-964375D02*
X-24500Y-964375D01*
X+23000Y-916875D01*
X+23000Y-988125D01*
X+94250Y-940625D02*
X+118000Y-916875D01*
X+118000Y-988125D01*
D119*
X+258000Y-1091500D02*
X-212000Y-1091500D01*
X-212000Y-1321500D01*
X+258000Y-1321500D01*
X+258000Y-1091500D01*
X+23000Y-1256500D02*
X+23000Y-1156500D01*
X-27000Y-1206500D02*
X+73000Y-1206500D01*
D124*
X-48250Y-1230250D02*
X-60125Y-1242125D01*
X-95750Y-1242125D01*
X-119500Y-1218375D01*
X-119500Y-1194625D01*
X-95750Y-1170875D01*
X-60125Y-1170875D01*
X-48250Y-1182750D01*
X+46750Y-1218375D02*
X-24500Y-1218375D01*
X+23000Y-1170875D01*
X+23000Y-1242125D01*
X+82375Y-1182750D02*
X+94250Y-1170875D01*
X+129875Y-1170875D01*
X+141750Y-1182750D01*
X+141750Y-1194625D01*
X+129875Y-1206500D01*
X+94250Y-1206500D01*
X+82375Y-1218375D01*
X+82375Y-1242125D01*
X+141750Y-1242125D01*
D119*
X+266000Y+1863000D02*
X+266000Y+1393000D01*
X+496000Y+1393000D01*
X+496000Y+1863000D01*
X+266000Y+1863000D01*
X+431000Y+1628000D02*
X+331000Y+1628000D01*
X+381000Y+1578000D02*
X+381000Y+1678000D01*
D124*
X+404750Y+1556750D02*
X+416625Y+1544875D01*
X+416625Y+1509250D01*
X+392875Y+1485500D01*
X+369125Y+1485500D01*
X+345375Y+1509250D01*
X+345375Y+1544875D01*
X+357250Y+1556750D01*
X+392875Y+1651750D02*
X+392875Y+1580500D01*
X+345375Y+1628000D01*
X+416625Y+1628000D01*
X+357250Y+1687375D02*
X+345375Y+1699250D01*
X+345375Y+1734875D01*
X+357250Y+1746750D01*
X+369125Y+1746750D01*
X+381000Y+1734875D01*
X+392875Y+1746750D01*
X+404750Y+1746750D01*
X+416625Y+1734875D01*
X+416625Y+1699250D01*
X+404750Y+1687375D01*
X+381000Y+1711125D02*
X+381000Y+1734875D01*
D119*
X+1599500Y+1845500D02*
X+1599500Y+1375500D01*
X+1829500Y+1375500D01*
X+1829500Y+1845500D01*
X+1599500Y+1845500D01*
X+1764500Y+1610500D02*
X+1664500Y+1610500D01*
X+1714500Y+1560500D02*
X+1714500Y+1660500D01*
D124*
X+1738250Y+1539250D02*
X+1750125Y+1527375D01*
X+1750125Y+1491750D01*
X+1726375Y+1468000D01*
X+1702625Y+1468000D01*
X+1678875Y+1491750D01*
X+1678875Y+1527375D01*
X+1690750Y+1539250D01*
X+1726375Y+1634250D02*
X+1726375Y+1563000D01*
X+1678875Y+1610500D01*
X+1750125Y+1610500D01*
X+1726375Y+1729250D02*
X+1726375Y+1658000D01*
X+1678875Y+1705500D01*
X+1750125Y+1705500D01*
D119*
X+804000Y-1258000D02*
X+1274000Y-1258000D01*
X+1274000Y-1028000D01*
X+804000Y-1028000D01*
X+804000Y-1258000D01*
X+1039000Y-1093000D02*
X+1039000Y-1193000D01*
X+1089000Y-1143000D02*
X+989000Y-1143000D01*
D124*
X+967750Y-1166750D02*
X+955875Y-1178625D01*
X+920250Y-1178625D01*
X+896500Y-1154875D01*
X+896500Y-1131125D01*
X+920250Y-1107375D01*
X+955875Y-1107375D01*
X+967750Y-1119250D01*
X+1062750Y-1154875D02*
X+991500Y-1154875D01*
X+1039000Y-1107375D01*
X+1039000Y-1178625D01*
X+1110250Y-1143000D02*
X+1098375Y-1131125D01*
X+1098375Y-1119250D01*
X+1110250Y-1107375D01*
X+1145875Y-1107375D01*
X+1157750Y-1119250D01*
X+1157750Y-1131125D01*
X+1145875Y-1143000D01*
X+1110250Y-1143000D01*
X+1098375Y-1154875D01*
X+1098375Y-1166750D01*
X+1110250Y-1178625D01*
X+1145875Y-1178625D01*
X+1157750Y-1166750D01*
X+1157750Y-1154875D01*
X+1145875Y-1143000D01*
D48*
X-708660Y+561340D02*
X-434340Y+561340D01*
X-434340Y+835660D01*
X-708660Y+835660D01*
X-708660Y+561340D01*
D126*
X-587959Y+610718D02*
X-571500Y+610718D01*
X-555040Y+627177D01*
X-571500Y+643636D01*
X-587959Y+643636D01*
X-587959Y+660095D02*
X-587959Y+682040D01*
X-587959Y+671068D02*
X-555040Y+671068D01*
X-555040Y+660095D02*
X-555040Y+682040D01*
X-555040Y+698500D02*
X-587959Y+698500D01*
X-555040Y+731418D01*
X-587959Y+731418D01*
X-571500Y+747877D02*
X-571500Y+775309D01*
D48*
X-708660Y-1584960D02*
X-434340Y-1584960D01*
X-434340Y-1310640D01*
X-708660Y-1310640D01*
X-708660Y-1584960D01*
D126*
X-587959Y-1535582D02*
X-571500Y-1535582D01*
X-555040Y-1519123D01*
X-571500Y-1502664D01*
X-587959Y-1502664D01*
X-587959Y-1486205D02*
X-587959Y-1464260D01*
X-587959Y-1475232D02*
X-555040Y-1475232D01*
X-555040Y-1486205D02*
X-555040Y-1464260D01*
X-555040Y-1447800D02*
X-587959Y-1447800D01*
X-555040Y-1414882D01*
X-587959Y-1414882D01*
X-571500Y-1403909D02*
X-571500Y-1370991D01*
X-582472Y-1387450D02*
X-560527Y-1387450D01*
D119*
X+1972500Y-5092000D02*
X+1502500Y-5092000D01*
X+1502500Y-5322000D01*
X+1972500Y-5322000D01*
X+1972500Y-5092000D01*
X+1737500Y-5257000D02*
X+1737500Y-5157000D01*
X+1687500Y-5207000D02*
X+1787500Y-5207000D01*
D124*
X+1666250Y-5230750D02*
X+1654375Y-5242625D01*
X+1618750Y-5242625D01*
X+1595000Y-5218875D01*
X+1595000Y-5195125D01*
X+1618750Y-5171375D01*
X+1654375Y-5171375D01*
X+1666250Y-5183250D01*
X+1690000Y-5242625D02*
X+1690000Y-5195125D01*
X+1713750Y-5171375D01*
X+1737500Y-5171375D01*
X+1761250Y-5195125D01*
X+1761250Y-5242625D01*
X+1690000Y-5218875D02*
X+1761250Y-5218875D01*
X+1808750Y-5195125D02*
X+1832500Y-5171375D01*
X+1832500Y-5242625D01*
D119*
X+5917500Y-2863500D02*
X+5917500Y-3323500D01*
X+6147500Y-3323500D01*
X+6147500Y-2863500D01*
X+5917500Y-2863500D01*
X+6082500Y-3093500D02*
X+5982500Y-3093500D01*
X+6032500Y-3143500D02*
X+6032500Y-3043500D01*
D127*
X+6060400Y-3242300D02*
X+6004600Y-3242300D01*
X+6004600Y-3195800D01*
X+6013900Y-3186500D01*
X+6023200Y-3186500D01*
X+6032500Y-3195800D01*
X+6032500Y-3242300D01*
X+6032500Y-3195800D02*
X+6041800Y-3186500D01*
X+6060400Y-3186500D01*
X+6041800Y-3112100D02*
X+6041800Y-3167900D01*
X+6004600Y-3130700D01*
X+6060400Y-3130700D01*
X+6051100Y-3093500D02*
X+6013900Y-3093500D01*
X+6004600Y-3084200D01*
X+6004600Y-3047000D01*
X+6013900Y-3037700D01*
X+6051100Y-3037700D01*
X+6060400Y-3047000D01*
X+6060400Y-3084200D01*
X+6051100Y-3093500D01*
X+6060400Y-3093500D02*
X+6004600Y-3037700D01*
X+6004600Y-2963300D02*
X+6004600Y-3009800D01*
X+6023200Y-3009800D01*
X+6023200Y-2972600D01*
X+6032500Y-2963300D01*
X+6051100Y-2963300D01*
X+6060400Y-2972600D01*
X+6060400Y-3000500D01*
X+6051100Y-3009800D01*
D119*
X+5536500Y-2863500D02*
X+5536500Y-3323500D01*
X+5766500Y-3323500D01*
X+5766500Y-2863500D01*
X+5536500Y-2863500D01*
X+5701500Y-3093500D02*
X+5601500Y-3093500D01*
X+5651500Y-3143500D02*
X+5651500Y-3043500D01*
D127*
X+5679400Y-3242300D02*
X+5623600Y-3242300D01*
X+5623600Y-3195800D01*
X+5632900Y-3186500D01*
X+5642200Y-3186500D01*
X+5651500Y-3195800D01*
X+5651500Y-3242300D01*
X+5651500Y-3195800D02*
X+5660800Y-3186500D01*
X+5679400Y-3186500D01*
X+5660800Y-3112100D02*
X+5660800Y-3167900D01*
X+5623600Y-3130700D01*
X+5679400Y-3130700D01*
X+5670100Y-3093500D02*
X+5632900Y-3093500D01*
X+5623600Y-3084200D01*
X+5623600Y-3047000D01*
X+5632900Y-3037700D01*
X+5670100Y-3037700D01*
X+5679400Y-3047000D01*
X+5679400Y-3084200D01*
X+5670100Y-3093500D01*
X+5679400Y-3093500D02*
X+5623600Y-3037700D01*
X+5642200Y-3000500D02*
X+5623600Y-2981900D01*
X+5679400Y-2981900D01*
D48*
X+5544820Y-4114800D02*
X+6012180Y-4114800D01*
X+6012180Y-3390900D01*
X+5544820Y-3390900D01*
X+5544820Y-4114800D01*
D128*
X+5735066Y-3984498D02*
X+5807456Y-3984498D01*
X+5821934Y-3970020D01*
X+5821934Y-3912108D01*
X+5807456Y-3897630D01*
X+5735066Y-3897630D01*
X+5792978Y-3781806D02*
X+5792978Y-3868674D01*
X+5735066Y-3810762D01*
X+5821934Y-3810762D01*
X+5807456Y-3752850D02*
X+5749544Y-3752850D01*
X+5735066Y-3738372D01*
X+5735066Y-3680460D01*
X+5749544Y-3665982D01*
X+5807456Y-3665982D01*
X+5821934Y-3680460D01*
X+5821934Y-3738372D01*
X+5807456Y-3752850D01*
X+5821934Y-3752850D02*
X+5735066Y-3665982D01*
X+5764022Y-3608070D02*
X+5735066Y-3579114D01*
X+5821934Y-3579114D01*
D48*
X+6941820Y-4114800D02*
X+7409180Y-4114800D01*
X+7409180Y-3390900D01*
X+6941820Y-3390900D01*
X+6941820Y-4114800D01*
D128*
X+7132066Y-3984498D02*
X+7204456Y-3984498D01*
X+7218934Y-3970020D01*
X+7218934Y-3912108D01*
X+7204456Y-3897630D01*
X+7132066Y-3897630D01*
X+7132066Y-3781806D02*
X+7132066Y-3854196D01*
X+7161022Y-3854196D01*
X+7161022Y-3796284D01*
X+7175500Y-3781806D01*
X+7204456Y-3781806D01*
X+7218934Y-3796284D01*
X+7218934Y-3839718D01*
X+7204456Y-3854196D01*
X+7204456Y-3752850D02*
X+7146544Y-3752850D01*
X+7132066Y-3738372D01*
X+7132066Y-3680460D01*
X+7146544Y-3665982D01*
X+7204456Y-3665982D01*
X+7218934Y-3680460D01*
X+7218934Y-3738372D01*
X+7204456Y-3752850D01*
X+7218934Y-3752850D02*
X+7132066Y-3665982D01*
X+7161022Y-3608070D02*
X+7132066Y-3579114D01*
X+7218934Y-3579114D01*
D48*
X+8338820Y-4114800D02*
X+8806180Y-4114800D01*
X+8806180Y-3390900D01*
X+8338820Y-3390900D01*
X+8338820Y-4114800D01*
D128*
X+8529066Y-3984498D02*
X+8601456Y-3984498D01*
X+8615934Y-3970020D01*
X+8615934Y-3912108D01*
X+8601456Y-3897630D01*
X+8529066Y-3897630D01*
X+8543544Y-3781806D02*
X+8529066Y-3796284D01*
X+8529066Y-3839718D01*
X+8543544Y-3854196D01*
X+8601456Y-3854196D01*
X+8615934Y-3839718D01*
X+8615934Y-3796284D01*
X+8601456Y-3781806D01*
X+8586978Y-3781806D01*
X+8572500Y-3796284D01*
X+8572500Y-3854196D01*
X+8601456Y-3752850D02*
X+8543544Y-3752850D01*
X+8529066Y-3738372D01*
X+8529066Y-3680460D01*
X+8543544Y-3665982D01*
X+8601456Y-3665982D01*
X+8615934Y-3680460D01*
X+8615934Y-3738372D01*
X+8601456Y-3752850D01*
X+8615934Y-3752850D02*
X+8529066Y-3665982D01*
X+8558022Y-3608070D02*
X+8529066Y-3579114D01*
X+8615934Y-3579114D01*
D119*
X+6933500Y-2863500D02*
X+6933500Y-3323500D01*
X+7163500Y-3323500D01*
X+7163500Y-2863500D01*
X+6933500Y-2863500D01*
X+7098500Y-3093500D02*
X+6998500Y-3093500D01*
X+7048500Y-3143500D02*
X+7048500Y-3043500D01*
D127*
X+7076400Y-3242300D02*
X+7020600Y-3242300D01*
X+7020600Y-3195800D01*
X+7029900Y-3186500D01*
X+7039200Y-3186500D01*
X+7048500Y-3195800D01*
X+7048500Y-3242300D01*
X+7048500Y-3195800D02*
X+7057800Y-3186500D01*
X+7076400Y-3186500D01*
X+7020600Y-3112100D02*
X+7020600Y-3158600D01*
X+7039200Y-3158600D01*
X+7039200Y-3121400D01*
X+7048500Y-3112100D01*
X+7067100Y-3112100D01*
X+7076400Y-3121400D01*
X+7076400Y-3149300D01*
X+7067100Y-3158600D01*
X+7067100Y-3093500D02*
X+7029900Y-3093500D01*
X+7020600Y-3084200D01*
X+7020600Y-3047000D01*
X+7029900Y-3037700D01*
X+7067100Y-3037700D01*
X+7076400Y-3047000D01*
X+7076400Y-3084200D01*
X+7067100Y-3093500D01*
X+7076400Y-3093500D02*
X+7020600Y-3037700D01*
X+7039200Y-3000500D02*
X+7020600Y-2981900D01*
X+7076400Y-2981900D01*
D48*
X+4942840Y-4025900D02*
X+5471160Y-4025900D01*
X+5471160Y-3340100D01*
X+4942840Y-3340100D01*
X+4942840Y-4025900D01*
D129*
X+5234432Y-3820160D02*
X+5248148Y-3833876D01*
X+5248148Y-3875024D01*
X+5220716Y-3902456D01*
X+5193284Y-3902456D01*
X+5165852Y-3875024D01*
X+5165852Y-3833876D01*
X+5179568Y-3820160D01*
X+5165852Y-3792728D02*
X+5207000Y-3792728D01*
X+5248148Y-3751580D01*
X+5207000Y-3710432D01*
X+5165852Y-3710432D01*
X+5220716Y-3600704D02*
X+5220716Y-3683000D01*
X+5165852Y-3628136D01*
X+5248148Y-3628136D01*
X+5220716Y-3490976D02*
X+5220716Y-3573272D01*
X+5165852Y-3518408D01*
X+5248148Y-3518408D01*
D48*
X+6339840Y-4025900D02*
X+6868160Y-4025900D01*
X+6868160Y-3340100D01*
X+6339840Y-3340100D01*
X+6339840Y-4025900D01*
D130*
X+6638290Y-3785870D02*
X+6655435Y-3803015D01*
X+6655435Y-3854450D01*
X+6621145Y-3888740D01*
X+6586855Y-3888740D01*
X+6552565Y-3854450D01*
X+6552565Y-3803015D01*
X+6569710Y-3785870D01*
X+6552565Y-3751580D02*
X+6604000Y-3751580D01*
X+6655435Y-3700145D01*
X+6604000Y-3648710D01*
X+6552565Y-3648710D01*
X+6586855Y-3580130D02*
X+6552565Y-3545840D01*
X+6655435Y-3545840D01*
D48*
X+7736840Y-4025900D02*
X+8265160Y-4025900D01*
X+8265160Y-3340100D01*
X+7736840Y-3340100D01*
X+7736840Y-4025900D01*
D130*
X+8035290Y-3785870D02*
X+8052435Y-3803015D01*
X+8052435Y-3854450D01*
X+8018145Y-3888740D01*
X+7983855Y-3888740D01*
X+7949565Y-3854450D01*
X+7949565Y-3803015D01*
X+7966710Y-3785870D01*
X+7949565Y-3751580D02*
X+8001000Y-3751580D01*
X+8052435Y-3700145D01*
X+8001000Y-3648710D01*
X+7949565Y-3648710D01*
X+7966710Y-3597275D02*
X+7949565Y-3580130D01*
X+7949565Y-3528695D01*
X+7966710Y-3511550D01*
X+7983855Y-3511550D01*
X+8001000Y-3528695D01*
X+8001000Y-3580130D01*
X+8018145Y-3597275D01*
X+8052435Y-3597275D01*
X+8052435Y-3511550D01*
D48*
X+4877920Y-4413250D02*
X+5028080Y-4413250D01*
X+5028080Y-4114800D01*
X+4877920Y-4114800D01*
X+4877920Y-4413250D01*
D131*
X+4970907Y-4359529D02*
X+4935093Y-4359529D01*
X+4935093Y-4335653D01*
X+4947031Y-4323715D01*
X+4958969Y-4323715D01*
X+4970907Y-4335653D01*
X+4970907Y-4359529D01*
X+4958969Y-4275963D02*
X+4958969Y-4311777D01*
X+4935093Y-4287901D01*
X+4970907Y-4287901D01*
X+4964938Y-4264025D02*
X+4941062Y-4264025D01*
X+4935093Y-4258056D01*
X+4935093Y-4234180D01*
X+4941062Y-4228211D01*
X+4964938Y-4228211D01*
X+4970907Y-4234180D01*
X+4970907Y-4258056D01*
X+4964938Y-4264025D01*
X+4970907Y-4264025D02*
X+4935093Y-4228211D01*
X+4947031Y-4204335D02*
X+4935093Y-4192397D01*
X+4970907Y-4192397D01*
D48*
X+6274920Y-4394200D02*
X+6425080Y-4394200D01*
X+6425080Y-4095750D01*
X+6274920Y-4095750D01*
X+6274920Y-4394200D01*
D131*
X+6367907Y-4340479D02*
X+6332093Y-4340479D01*
X+6332093Y-4316603D01*
X+6344031Y-4304665D01*
X+6355969Y-4304665D01*
X+6367907Y-4316603D01*
X+6367907Y-4340479D01*
X+6332093Y-4256913D02*
X+6332093Y-4286758D01*
X+6344031Y-4286758D01*
X+6344031Y-4262882D01*
X+6350000Y-4256913D01*
X+6361938Y-4256913D01*
X+6367907Y-4262882D01*
X+6367907Y-4280789D01*
X+6361938Y-4286758D01*
X+6361938Y-4244975D02*
X+6338062Y-4244975D01*
X+6332093Y-4239006D01*
X+6332093Y-4215130D01*
X+6338062Y-4209161D01*
X+6361938Y-4209161D01*
X+6367907Y-4215130D01*
X+6367907Y-4239006D01*
X+6361938Y-4244975D01*
X+6367907Y-4244975D02*
X+6332093Y-4209161D01*
X+6344031Y-4185285D02*
X+6332093Y-4173347D01*
X+6367907Y-4173347D01*
D48*
X+7703670Y-4362450D02*
X+7853830Y-4362450D01*
X+7853830Y-4064000D01*
X+7703670Y-4064000D01*
X+7703670Y-4362450D01*
D131*
X+7796657Y-4308729D02*
X+7760843Y-4308729D01*
X+7760843Y-4284853D01*
X+7772781Y-4272915D01*
X+7784719Y-4272915D01*
X+7796657Y-4284853D01*
X+7796657Y-4308729D01*
X+7766812Y-4225163D02*
X+7760843Y-4231132D01*
X+7760843Y-4249039D01*
X+7766812Y-4255008D01*
X+7790688Y-4255008D01*
X+7796657Y-4249039D01*
X+7796657Y-4231132D01*
X+7790688Y-4225163D01*
X+7784719Y-4225163D01*
X+7778750Y-4231132D01*
X+7778750Y-4255008D01*
X+7790688Y-4213225D02*
X+7766812Y-4213225D01*
X+7760843Y-4207256D01*
X+7760843Y-4183380D01*
X+7766812Y-4177411D01*
X+7790688Y-4177411D01*
X+7796657Y-4183380D01*
X+7796657Y-4207256D01*
X+7790688Y-4213225D01*
X+7796657Y-4213225D02*
X+7760843Y-4177411D01*
X+7772781Y-4153535D02*
X+7760843Y-4141597D01*
X+7796657Y-4141597D01*
D119*
X+6044500Y-3534500D02*
X+6044500Y-4004500D01*
X+6274500Y-4004500D01*
X+6274500Y-3534500D01*
X+6044500Y-3534500D01*
X+6209500Y-3769500D02*
X+6109500Y-3769500D01*
X+6159500Y-3819500D02*
X+6159500Y-3719500D01*
D132*
X+6178500Y-3864500D02*
X+6188000Y-3874000D01*
X+6188000Y-3902500D01*
X+6169000Y-3921500D01*
X+6150000Y-3921500D01*
X+6131000Y-3902500D01*
X+6131000Y-3874000D01*
X+6140500Y-3864500D01*
X+6169000Y-3788500D02*
X+6169000Y-3845500D01*
X+6131000Y-3807500D01*
X+6188000Y-3807500D01*
X+6178500Y-3769500D02*
X+6140500Y-3769500D01*
X+6131000Y-3760000D01*
X+6131000Y-3722000D01*
X+6140500Y-3712500D01*
X+6178500Y-3712500D01*
X+6188000Y-3722000D01*
X+6188000Y-3760000D01*
X+6178500Y-3769500D01*
X+6188000Y-3769500D02*
X+6131000Y-3712500D01*
X+6150000Y-3674500D02*
X+6131000Y-3655500D01*
X+6188000Y-3655500D01*
D119*
X+7441500Y-3534500D02*
X+7441500Y-4004500D01*
X+7671500Y-4004500D01*
X+7671500Y-3534500D01*
X+7441500Y-3534500D01*
X+7606500Y-3769500D02*
X+7506500Y-3769500D01*
X+7556500Y-3819500D02*
X+7556500Y-3719500D01*
D132*
X+7575500Y-3864500D02*
X+7585000Y-3874000D01*
X+7585000Y-3902500D01*
X+7566000Y-3921500D01*
X+7547000Y-3921500D01*
X+7528000Y-3902500D01*
X+7528000Y-3874000D01*
X+7537500Y-3864500D01*
X+7528000Y-3788500D02*
X+7528000Y-3836000D01*
X+7547000Y-3836000D01*
X+7547000Y-3798000D01*
X+7556500Y-3788500D01*
X+7575500Y-3788500D01*
X+7585000Y-3798000D01*
X+7585000Y-3826500D01*
X+7575500Y-3836000D01*
X+7575500Y-3769500D02*
X+7537500Y-3769500D01*
X+7528000Y-3760000D01*
X+7528000Y-3722000D01*
X+7537500Y-3712500D01*
X+7575500Y-3712500D01*
X+7585000Y-3722000D01*
X+7585000Y-3760000D01*
X+7575500Y-3769500D01*
X+7585000Y-3769500D02*
X+7528000Y-3712500D01*
X+7547000Y-3674500D02*
X+7528000Y-3655500D01*
X+7585000Y-3655500D01*
D119*
X+8838500Y-3534500D02*
X+8838500Y-4004500D01*
X+9068500Y-4004500D01*
X+9068500Y-3534500D01*
X+8838500Y-3534500D01*
X+9003500Y-3769500D02*
X+8903500Y-3769500D01*
X+8953500Y-3819500D02*
X+8953500Y-3719500D01*
D132*
X+8972500Y-3864500D02*
X+8982000Y-3874000D01*
X+8982000Y-3902500D01*
X+8963000Y-3921500D01*
X+8944000Y-3921500D01*
X+8925000Y-3902500D01*
X+8925000Y-3874000D01*
X+8934500Y-3864500D01*
X+8934500Y-3788500D02*
X+8925000Y-3798000D01*
X+8925000Y-3826500D01*
X+8934500Y-3836000D01*
X+8972500Y-3836000D01*
X+8982000Y-3826500D01*
X+8982000Y-3798000D01*
X+8972500Y-3788500D01*
X+8963000Y-3788500D01*
X+8953500Y-3798000D01*
X+8953500Y-3836000D01*
X+8972500Y-3769500D02*
X+8934500Y-3769500D01*
X+8925000Y-3760000D01*
X+8925000Y-3722000D01*
X+8934500Y-3712500D01*
X+8972500Y-3712500D01*
X+8982000Y-3722000D01*
X+8982000Y-3760000D01*
X+8972500Y-3769500D01*
X+8982000Y-3769500D02*
X+8925000Y-3712500D01*
X+8944000Y-3674500D02*
X+8925000Y-3655500D01*
X+8982000Y-3655500D01*
D119*
X+7314500Y-2863500D02*
X+7314500Y-3323500D01*
X+7544500Y-3323500D01*
X+7544500Y-2863500D01*
X+7314500Y-2863500D01*
X+7479500Y-3093500D02*
X+7379500Y-3093500D01*
X+7429500Y-3143500D02*
X+7429500Y-3043500D01*
D127*
X+7457400Y-3242300D02*
X+7401600Y-3242300D01*
X+7401600Y-3195800D01*
X+7410900Y-3186500D01*
X+7420200Y-3186500D01*
X+7429500Y-3195800D01*
X+7429500Y-3242300D01*
X+7429500Y-3195800D02*
X+7438800Y-3186500D01*
X+7457400Y-3186500D01*
X+7401600Y-3112100D02*
X+7401600Y-3158600D01*
X+7420200Y-3158600D01*
X+7420200Y-3121400D01*
X+7429500Y-3112100D01*
X+7448100Y-3112100D01*
X+7457400Y-3121400D01*
X+7457400Y-3149300D01*
X+7448100Y-3158600D01*
X+7448100Y-3093500D02*
X+7410900Y-3093500D01*
X+7401600Y-3084200D01*
X+7401600Y-3047000D01*
X+7410900Y-3037700D01*
X+7448100Y-3037700D01*
X+7457400Y-3047000D01*
X+7457400Y-3084200D01*
X+7448100Y-3093500D01*
X+7457400Y-3093500D02*
X+7401600Y-3037700D01*
X+7401600Y-2963300D02*
X+7401600Y-3009800D01*
X+7420200Y-3009800D01*
X+7420200Y-2972600D01*
X+7429500Y-2963300D01*
X+7448100Y-2963300D01*
X+7457400Y-2972600D01*
X+7457400Y-3000500D01*
X+7448100Y-3009800D01*
D119*
X+8330500Y-2863500D02*
X+8330500Y-3323500D01*
X+8560500Y-3323500D01*
X+8560500Y-2863500D01*
X+8330500Y-2863500D01*
X+8495500Y-3093500D02*
X+8395500Y-3093500D01*
X+8445500Y-3143500D02*
X+8445500Y-3043500D01*
D127*
X+8473400Y-3242300D02*
X+8417600Y-3242300D01*
X+8417600Y-3195800D01*
X+8426900Y-3186500D01*
X+8436200Y-3186500D01*
X+8445500Y-3195800D01*
X+8445500Y-3242300D01*
X+8445500Y-3195800D02*
X+8454800Y-3186500D01*
X+8473400Y-3186500D01*
X+8426900Y-3112100D02*
X+8417600Y-3121400D01*
X+8417600Y-3149300D01*
X+8426900Y-3158600D01*
X+8464100Y-3158600D01*
X+8473400Y-3149300D01*
X+8473400Y-3121400D01*
X+8464100Y-3112100D01*
X+8454800Y-3112100D01*
X+8445500Y-3121400D01*
X+8445500Y-3158600D01*
X+8464100Y-3093500D02*
X+8426900Y-3093500D01*
X+8417600Y-3084200D01*
X+8417600Y-3047000D01*
X+8426900Y-3037700D01*
X+8464100Y-3037700D01*
X+8473400Y-3047000D01*
X+8473400Y-3084200D01*
X+8464100Y-3093500D01*
X+8473400Y-3093500D02*
X+8417600Y-3037700D01*
X+8436200Y-3000500D02*
X+8417600Y-2981900D01*
X+8473400Y-2981900D01*
D119*
X+8711500Y-2863500D02*
X+8711500Y-3323500D01*
X+8941500Y-3323500D01*
X+8941500Y-2863500D01*
X+8711500Y-2863500D01*
X+8876500Y-3093500D02*
X+8776500Y-3093500D01*
X+8826500Y-3143500D02*
X+8826500Y-3043500D01*
D127*
X+8854400Y-3242300D02*
X+8798600Y-3242300D01*
X+8798600Y-3195800D01*
X+8807900Y-3186500D01*
X+8817200Y-3186500D01*
X+8826500Y-3195800D01*
X+8826500Y-3242300D01*
X+8826500Y-3195800D02*
X+8835800Y-3186500D01*
X+8854400Y-3186500D01*
X+8807900Y-3112100D02*
X+8798600Y-3121400D01*
X+8798600Y-3149300D01*
X+8807900Y-3158600D01*
X+8845100Y-3158600D01*
X+8854400Y-3149300D01*
X+8854400Y-3121400D01*
X+8845100Y-3112100D01*
X+8835800Y-3112100D01*
X+8826500Y-3121400D01*
X+8826500Y-3158600D01*
X+8845100Y-3093500D02*
X+8807900Y-3093500D01*
X+8798600Y-3084200D01*
X+8798600Y-3047000D01*
X+8807900Y-3037700D01*
X+8845100Y-3037700D01*
X+8854400Y-3047000D01*
X+8854400Y-3084200D01*
X+8845100Y-3093500D01*
X+8854400Y-3093500D02*
X+8798600Y-3037700D01*
X+8798600Y-2963300D02*
X+8798600Y-3009800D01*
X+8817200Y-3009800D01*
X+8817200Y-2972600D01*
X+8826500Y-2963300D01*
X+8845100Y-2963300D01*
X+8854400Y-2972600D01*
X+8854400Y-3000500D01*
X+8845100Y-3009800D01*
D119*
X+5766500Y-4629500D02*
X+5766500Y-4169500D01*
X+5536500Y-4169500D01*
X+5536500Y-4629500D01*
X+5766500Y-4629500D01*
X+5601500Y-4399500D02*
X+5701500Y-4399500D01*
X+5651500Y-4349500D02*
X+5651500Y-4449500D01*
D133*
X+5693800Y-4512300D02*
X+5609200Y-4512300D01*
X+5609200Y-4441800D01*
X+5623300Y-4427700D01*
X+5637400Y-4427700D01*
X+5651500Y-4441800D01*
X+5651500Y-4512300D01*
X+5651500Y-4441800D02*
X+5665600Y-4427700D01*
X+5693800Y-4427700D01*
X+5609200Y-4314900D02*
X+5609200Y-4385400D01*
X+5637400Y-4385400D01*
X+5637400Y-4329000D01*
X+5651500Y-4314900D01*
X+5679700Y-4314900D01*
X+5693800Y-4329000D01*
X+5693800Y-4371300D01*
X+5679700Y-4385400D01*
D119*
X+6038000Y-4629500D02*
X+6038000Y-4169500D01*
X+5808000Y-4169500D01*
X+5808000Y-4629500D01*
X+6038000Y-4629500D01*
X+5873000Y-4399500D02*
X+5973000Y-4399500D01*
X+5923000Y-4349500D02*
X+5923000Y-4449500D01*
D133*
X+5965300Y-4512300D02*
X+5880700Y-4512300D01*
X+5880700Y-4441800D01*
X+5894800Y-4427700D01*
X+5908900Y-4427700D01*
X+5923000Y-4441800D01*
X+5923000Y-4512300D01*
X+5923000Y-4441800D02*
X+5937100Y-4427700D01*
X+5965300Y-4427700D01*
X+5894800Y-4314900D02*
X+5880700Y-4329000D01*
X+5880700Y-4371300D01*
X+5894800Y-4385400D01*
X+5951200Y-4385400D01*
X+5965300Y-4371300D01*
X+5965300Y-4329000D01*
X+5951200Y-4314900D01*
X+5937100Y-4314900D01*
X+5923000Y-4329000D01*
X+5923000Y-4385400D01*
D119*
X+7163500Y-4629500D02*
X+7163500Y-4169500D01*
X+6933500Y-4169500D01*
X+6933500Y-4629500D01*
X+7163500Y-4629500D01*
X+6998500Y-4399500D02*
X+7098500Y-4399500D01*
X+7048500Y-4349500D02*
X+7048500Y-4449500D01*
D133*
X+7090800Y-4512300D02*
X+7006200Y-4512300D01*
X+7006200Y-4441800D01*
X+7020300Y-4427700D01*
X+7034400Y-4427700D01*
X+7048500Y-4441800D01*
X+7048500Y-4512300D01*
X+7048500Y-4441800D02*
X+7062600Y-4427700D01*
X+7090800Y-4427700D01*
X+7006200Y-4385400D02*
X+7006200Y-4314900D01*
X+7020300Y-4314900D01*
X+7090800Y-4385400D01*
D119*
X+4901500Y-613500D02*
X+4901500Y-1073500D01*
X+5131500Y-1073500D01*
X+5131500Y-613500D01*
X+4901500Y-613500D01*
X+5066500Y-843500D02*
X+4966500Y-843500D01*
X+5016500Y-893500D02*
X+5016500Y-793500D01*
D127*
X+5044400Y-992300D02*
X+4988600Y-992300D01*
X+4988600Y-945800D01*
X+4997900Y-936500D01*
X+5007200Y-936500D01*
X+5016500Y-945800D01*
X+5016500Y-992300D01*
X+5016500Y-945800D02*
X+5025800Y-936500D01*
X+5044400Y-936500D01*
X+4988600Y-862100D02*
X+4988600Y-908600D01*
X+5007200Y-908600D01*
X+5007200Y-871400D01*
X+5016500Y-862100D01*
X+5035100Y-862100D01*
X+5044400Y-871400D01*
X+5044400Y-899300D01*
X+5035100Y-908600D01*
X+5035100Y-843500D02*
X+4997900Y-843500D01*
X+4988600Y-834200D01*
X+4988600Y-797000D01*
X+4997900Y-787700D01*
X+5035100Y-787700D01*
X+5044400Y-797000D01*
X+5044400Y-834200D01*
X+5035100Y-843500D01*
X+5044400Y-843500D02*
X+4988600Y-787700D01*
X+4997900Y-759800D02*
X+4988600Y-750500D01*
X+4988600Y-722600D01*
X+4997900Y-713300D01*
X+5007200Y-713300D01*
X+5016500Y-722600D01*
X+5025800Y-713300D01*
X+5035100Y-713300D01*
X+5044400Y-722600D01*
X+5044400Y-750500D01*
X+5035100Y-759800D01*
X+5016500Y-741200D02*
X+5016500Y-722600D01*
D119*
X+4647500Y-133000D02*
X+4647500Y-593000D01*
X+4877500Y-593000D01*
X+4877500Y-133000D01*
X+4647500Y-133000D01*
X+4812500Y-363000D02*
X+4712500Y-363000D01*
X+4762500Y-413000D02*
X+4762500Y-313000D01*
D127*
X+4790400Y-511800D02*
X+4734600Y-511800D01*
X+4734600Y-465300D01*
X+4743900Y-456000D01*
X+4753200Y-456000D01*
X+4762500Y-465300D01*
X+4762500Y-511800D01*
X+4762500Y-465300D02*
X+4771800Y-456000D01*
X+4790400Y-456000D01*
X+4734600Y-381600D02*
X+4734600Y-428100D01*
X+4753200Y-428100D01*
X+4753200Y-390900D01*
X+4762500Y-381600D01*
X+4781100Y-381600D01*
X+4790400Y-390900D01*
X+4790400Y-418800D01*
X+4781100Y-428100D01*
X+4781100Y-363000D02*
X+4743900Y-363000D01*
X+4734600Y-353700D01*
X+4734600Y-316500D01*
X+4743900Y-307200D01*
X+4781100Y-307200D01*
X+4790400Y-316500D01*
X+4790400Y-353700D01*
X+4781100Y-363000D01*
X+4790400Y-363000D02*
X+4734600Y-307200D01*
X+4771800Y-232800D02*
X+4771800Y-288600D01*
X+4734600Y-251400D01*
X+4790400Y-251400D01*
D119*
X+4901500Y-1629500D02*
X+4901500Y-2089500D01*
X+5131500Y-2089500D01*
X+5131500Y-1629500D01*
X+4901500Y-1629500D01*
X+5066500Y-1859500D02*
X+4966500Y-1859500D01*
X+5016500Y-1909500D02*
X+5016500Y-1809500D01*
D127*
X+5044400Y-2008300D02*
X+4988600Y-2008300D01*
X+4988600Y-1961800D01*
X+4997900Y-1952500D01*
X+5007200Y-1952500D01*
X+5016500Y-1961800D01*
X+5016500Y-2008300D01*
X+5016500Y-1961800D02*
X+5025800Y-1952500D01*
X+5044400Y-1952500D01*
X+4988600Y-1878100D02*
X+4988600Y-1924600D01*
X+5007200Y-1924600D01*
X+5007200Y-1887400D01*
X+5016500Y-1878100D01*
X+5035100Y-1878100D01*
X+5044400Y-1887400D01*
X+5044400Y-1915300D01*
X+5035100Y-1924600D01*
X+5035100Y-1859500D02*
X+4997900Y-1859500D01*
X+4988600Y-1850200D01*
X+4988600Y-1813000D01*
X+4997900Y-1803700D01*
X+5035100Y-1803700D01*
X+5044400Y-1813000D01*
X+5044400Y-1850200D01*
X+5035100Y-1859500D01*
X+5044400Y-1859500D02*
X+4988600Y-1803700D01*
X+4988600Y-1775800D02*
X+4988600Y-1729300D01*
X+4997900Y-1729300D01*
X+5044400Y-1775800D01*
D119*
X+4647500Y-1121500D02*
X+4647500Y-1581500D01*
X+4877500Y-1581500D01*
X+4877500Y-1121500D01*
X+4647500Y-1121500D01*
X+4812500Y-1351500D02*
X+4712500Y-1351500D01*
X+4762500Y-1401500D02*
X+4762500Y-1301500D01*
D127*
X+4790400Y-1500300D02*
X+4734600Y-1500300D01*
X+4734600Y-1453800D01*
X+4743900Y-1444500D01*
X+4753200Y-1444500D01*
X+4762500Y-1453800D01*
X+4762500Y-1500300D01*
X+4762500Y-1453800D02*
X+4771800Y-1444500D01*
X+4790400Y-1444500D01*
X+4734600Y-1370100D02*
X+4734600Y-1416600D01*
X+4753200Y-1416600D01*
X+4753200Y-1379400D01*
X+4762500Y-1370100D01*
X+4781100Y-1370100D01*
X+4790400Y-1379400D01*
X+4790400Y-1407300D01*
X+4781100Y-1416600D01*
X+4781100Y-1351500D02*
X+4743900Y-1351500D01*
X+4734600Y-1342200D01*
X+4734600Y-1305000D01*
X+4743900Y-1295700D01*
X+4781100Y-1295700D01*
X+4790400Y-1305000D01*
X+4790400Y-1342200D01*
X+4781100Y-1351500D01*
X+4790400Y-1351500D02*
X+4734600Y-1295700D01*
X+4762500Y-1258500D02*
X+4753200Y-1267800D01*
X+4743900Y-1267800D01*
X+4734600Y-1258500D01*
X+4734600Y-1230600D01*
X+4743900Y-1221300D01*
X+4753200Y-1221300D01*
X+4762500Y-1230600D01*
X+4762500Y-1258500D01*
X+4771800Y-1267800D01*
X+4781100Y-1267800D01*
X+4790400Y-1258500D01*
X+4790400Y-1230600D01*
X+4781100Y-1221300D01*
X+4771800Y-1221300D01*
X+4762500Y-1230600D01*
D119*
X+4901500Y-123000D02*
X+4901500Y-593000D01*
X+5131500Y-593000D01*
X+5131500Y-123000D01*
X+4901500Y-123000D01*
X+5066500Y-358000D02*
X+4966500Y-358000D01*
X+5016500Y-408000D02*
X+5016500Y-308000D01*
D132*
X+5035500Y-453000D02*
X+5045000Y-462500D01*
X+5045000Y-491000D01*
X+5026000Y-510000D01*
X+5007000Y-510000D01*
X+4988000Y-491000D01*
X+4988000Y-462500D01*
X+4997500Y-453000D01*
X+4988000Y-377000D02*
X+4988000Y-424500D01*
X+5007000Y-424500D01*
X+5007000Y-386500D01*
X+5016500Y-377000D01*
X+5035500Y-377000D01*
X+5045000Y-386500D01*
X+5045000Y-415000D01*
X+5035500Y-424500D01*
X+5035500Y-358000D02*
X+4997500Y-358000D01*
X+4988000Y-348500D01*
X+4988000Y-310500D01*
X+4997500Y-301000D01*
X+5035500Y-301000D01*
X+5045000Y-310500D01*
X+5045000Y-348500D01*
X+5035500Y-358000D01*
X+5045000Y-358000D02*
X+4988000Y-301000D01*
X+4997500Y-272500D02*
X+4988000Y-263000D01*
X+4988000Y-234500D01*
X+4997500Y-225000D01*
X+5007000Y-225000D01*
X+5016500Y-234500D01*
X+5026000Y-225000D01*
X+5035500Y-225000D01*
X+5045000Y-234500D01*
X+5045000Y-263000D01*
X+5035500Y-272500D01*
X+5016500Y-253500D02*
X+5016500Y-234500D01*
D119*
X+4647500Y-613500D02*
X+4647500Y-1083500D01*
X+4877500Y-1083500D01*
X+4877500Y-613500D01*
X+4647500Y-613500D01*
X+4812500Y-848500D02*
X+4712500Y-848500D01*
X+4762500Y-898500D02*
X+4762500Y-798500D01*
D132*
X+4781500Y-943500D02*
X+4791000Y-953000D01*
X+4791000Y-981500D01*
X+4772000Y-1000500D01*
X+4753000Y-1000500D01*
X+4734000Y-981500D01*
X+4734000Y-953000D01*
X+4743500Y-943500D01*
X+4734000Y-867500D02*
X+4734000Y-915000D01*
X+4753000Y-915000D01*
X+4753000Y-877000D01*
X+4762500Y-867500D01*
X+4781500Y-867500D01*
X+4791000Y-877000D01*
X+4791000Y-905500D01*
X+4781500Y-915000D01*
X+4781500Y-848500D02*
X+4743500Y-848500D01*
X+4734000Y-839000D01*
X+4734000Y-801000D01*
X+4743500Y-791500D01*
X+4781500Y-791500D01*
X+4791000Y-801000D01*
X+4791000Y-839000D01*
X+4781500Y-848500D01*
X+4791000Y-848500D02*
X+4734000Y-791500D01*
X+4772000Y-715500D02*
X+4772000Y-772500D01*
X+4734000Y-734500D01*
X+4791000Y-734500D01*
D119*
X+4901500Y-1121500D02*
X+4901500Y-1591500D01*
X+5131500Y-1591500D01*
X+5131500Y-1121500D01*
X+4901500Y-1121500D01*
X+5066500Y-1356500D02*
X+4966500Y-1356500D01*
X+5016500Y-1406500D02*
X+5016500Y-1306500D01*
D132*
X+5035500Y-1451500D02*
X+5045000Y-1461000D01*
X+5045000Y-1489500D01*
X+5026000Y-1508500D01*
X+5007000Y-1508500D01*
X+4988000Y-1489500D01*
X+4988000Y-1461000D01*
X+4997500Y-1451500D01*
X+4988000Y-1375500D02*
X+4988000Y-1423000D01*
X+5007000Y-1423000D01*
X+5007000Y-1385000D01*
X+5016500Y-1375500D01*
X+5035500Y-1375500D01*
X+5045000Y-1385000D01*
X+5045000Y-1413500D01*
X+5035500Y-1423000D01*
X+5035500Y-1356500D02*
X+4997500Y-1356500D01*
X+4988000Y-1347000D01*
X+4988000Y-1309000D01*
X+4997500Y-1299500D01*
X+5035500Y-1299500D01*
X+5045000Y-1309000D01*
X+5045000Y-1347000D01*
X+5035500Y-1356500D01*
X+5045000Y-1356500D02*
X+4988000Y-1299500D01*
X+4988000Y-1223500D02*
X+4988000Y-1271000D01*
X+5007000Y-1271000D01*
X+5007000Y-1233000D01*
X+5016500Y-1223500D01*
X+5035500Y-1223500D01*
X+5045000Y-1233000D01*
X+5045000Y-1261500D01*
X+5035500Y-1271000D01*
D119*
X+4647500Y-1629500D02*
X+4647500Y-2099500D01*
X+4877500Y-2099500D01*
X+4877500Y-1629500D01*
X+4647500Y-1629500D01*
X+4812500Y-1864500D02*
X+4712500Y-1864500D01*
X+4762500Y-1914500D02*
X+4762500Y-1814500D01*
D132*
X+4781500Y-1959500D02*
X+4791000Y-1969000D01*
X+4791000Y-1997500D01*
X+4772000Y-2016500D01*
X+4753000Y-2016500D01*
X+4734000Y-1997500D01*
X+4734000Y-1969000D01*
X+4743500Y-1959500D01*
X+4734000Y-1883500D02*
X+4734000Y-1931000D01*
X+4753000Y-1931000D01*
X+4753000Y-1893000D01*
X+4762500Y-1883500D01*
X+4781500Y-1883500D01*
X+4791000Y-1893000D01*
X+4791000Y-1921500D01*
X+4781500Y-1931000D01*
X+4781500Y-1864500D02*
X+4743500Y-1864500D01*
X+4734000Y-1855000D01*
X+4734000Y-1817000D01*
X+4743500Y-1807500D01*
X+4781500Y-1807500D01*
X+4791000Y-1817000D01*
X+4791000Y-1855000D01*
X+4781500Y-1864500D01*
X+4791000Y-1864500D02*
X+4734000Y-1807500D01*
X+4743500Y-1731500D02*
X+4734000Y-1741000D01*
X+4734000Y-1769500D01*
X+4743500Y-1779000D01*
X+4781500Y-1779000D01*
X+4791000Y-1769500D01*
X+4791000Y-1741000D01*
X+4781500Y-1731500D01*
X+4772000Y-1731500D01*
X+4762500Y-1741000D01*
X+4762500Y-1779000D01*
D119*
X+7251000Y-105500D02*
X+7251000Y-575500D01*
X+7481000Y-575500D01*
X+7481000Y-105500D01*
X+7251000Y-105500D01*
X+7416000Y-340500D02*
X+7316000Y-340500D01*
X+7366000Y-390500D02*
X+7366000Y-290500D01*
D132*
X+7385000Y-435500D02*
X+7394500Y-445000D01*
X+7394500Y-473500D01*
X+7375500Y-492500D01*
X+7356500Y-492500D01*
X+7337500Y-473500D01*
X+7337500Y-445000D01*
X+7347000Y-435500D01*
X+7347000Y-359500D02*
X+7337500Y-369000D01*
X+7337500Y-397500D01*
X+7347000Y-407000D01*
X+7385000Y-407000D01*
X+7394500Y-397500D01*
X+7394500Y-369000D01*
X+7385000Y-359500D01*
X+7375500Y-359500D01*
X+7366000Y-369000D01*
X+7366000Y-407000D01*
X+7385000Y-340500D02*
X+7347000Y-340500D01*
X+7337500Y-331000D01*
X+7337500Y-293000D01*
X+7347000Y-283500D01*
X+7385000Y-283500D01*
X+7394500Y-293000D01*
X+7394500Y-331000D01*
X+7385000Y-340500D01*
X+7394500Y-340500D02*
X+7337500Y-283500D01*
X+7347000Y-255000D02*
X+7337500Y-245500D01*
X+7337500Y-217000D01*
X+7347000Y-207500D01*
X+7356500Y-207500D01*
X+7366000Y-217000D01*
X+7375500Y-207500D01*
X+7385000Y-207500D01*
X+7394500Y-217000D01*
X+7394500Y-245500D01*
X+7385000Y-255000D01*
X+7366000Y-236000D02*
X+7366000Y-217000D01*
D119*
X+6997000Y-613500D02*
X+6997000Y-1083500D01*
X+7227000Y-1083500D01*
X+7227000Y-613500D01*
X+6997000Y-613500D01*
X+7162000Y-848500D02*
X+7062000Y-848500D01*
X+7112000Y-898500D02*
X+7112000Y-798500D01*
D132*
X+7131000Y-943500D02*
X+7140500Y-953000D01*
X+7140500Y-981500D01*
X+7121500Y-1000500D01*
X+7102500Y-1000500D01*
X+7083500Y-981500D01*
X+7083500Y-953000D01*
X+7093000Y-943500D01*
X+7093000Y-867500D02*
X+7083500Y-877000D01*
X+7083500Y-905500D01*
X+7093000Y-915000D01*
X+7131000Y-915000D01*
X+7140500Y-905500D01*
X+7140500Y-877000D01*
X+7131000Y-867500D01*
X+7121500Y-867500D01*
X+7112000Y-877000D01*
X+7112000Y-915000D01*
X+7131000Y-848500D02*
X+7093000Y-848500D01*
X+7083500Y-839000D01*
X+7083500Y-801000D01*
X+7093000Y-791500D01*
X+7131000Y-791500D01*
X+7140500Y-801000D01*
X+7140500Y-839000D01*
X+7131000Y-848500D01*
X+7140500Y-848500D02*
X+7083500Y-791500D01*
X+7121500Y-715500D02*
X+7121500Y-772500D01*
X+7083500Y-734500D01*
X+7140500Y-734500D01*
D119*
X+7251000Y-1121500D02*
X+7251000Y-1591500D01*
X+7481000Y-1591500D01*
X+7481000Y-1121500D01*
X+7251000Y-1121500D01*
X+7416000Y-1356500D02*
X+7316000Y-1356500D01*
X+7366000Y-1406500D02*
X+7366000Y-1306500D01*
D132*
X+7385000Y-1451500D02*
X+7394500Y-1461000D01*
X+7394500Y-1489500D01*
X+7375500Y-1508500D01*
X+7356500Y-1508500D01*
X+7337500Y-1489500D01*
X+7337500Y-1461000D01*
X+7347000Y-1451500D01*
X+7347000Y-1375500D02*
X+7337500Y-1385000D01*
X+7337500Y-1413500D01*
X+7347000Y-1423000D01*
X+7385000Y-1423000D01*
X+7394500Y-1413500D01*
X+7394500Y-1385000D01*
X+7385000Y-1375500D01*
X+7375500Y-1375500D01*
X+7366000Y-1385000D01*
X+7366000Y-1423000D01*
X+7385000Y-1356500D02*
X+7347000Y-1356500D01*
X+7337500Y-1347000D01*
X+7337500Y-1309000D01*
X+7347000Y-1299500D01*
X+7385000Y-1299500D01*
X+7394500Y-1309000D01*
X+7394500Y-1347000D01*
X+7385000Y-1356500D01*
X+7394500Y-1356500D02*
X+7337500Y-1299500D01*
X+7337500Y-1223500D02*
X+7337500Y-1271000D01*
X+7356500Y-1271000D01*
X+7356500Y-1233000D01*
X+7366000Y-1223500D01*
X+7385000Y-1223500D01*
X+7394500Y-1233000D01*
X+7394500Y-1261500D01*
X+7385000Y-1271000D01*
D119*
X+6997000Y-1629500D02*
X+6997000Y-2099500D01*
X+7227000Y-2099500D01*
X+7227000Y-1629500D01*
X+6997000Y-1629500D01*
X+7162000Y-1864500D02*
X+7062000Y-1864500D01*
X+7112000Y-1914500D02*
X+7112000Y-1814500D01*
D132*
X+7131000Y-1959500D02*
X+7140500Y-1969000D01*
X+7140500Y-1997500D01*
X+7121500Y-2016500D01*
X+7102500Y-2016500D01*
X+7083500Y-1997500D01*
X+7083500Y-1969000D01*
X+7093000Y-1959500D01*
X+7093000Y-1883500D02*
X+7083500Y-1893000D01*
X+7083500Y-1921500D01*
X+7093000Y-1931000D01*
X+7131000Y-1931000D01*
X+7140500Y-1921500D01*
X+7140500Y-1893000D01*
X+7131000Y-1883500D01*
X+7121500Y-1883500D01*
X+7112000Y-1893000D01*
X+7112000Y-1931000D01*
X+7131000Y-1864500D02*
X+7093000Y-1864500D01*
X+7083500Y-1855000D01*
X+7083500Y-1817000D01*
X+7093000Y-1807500D01*
X+7131000Y-1807500D01*
X+7140500Y-1817000D01*
X+7140500Y-1855000D01*
X+7131000Y-1864500D01*
X+7140500Y-1864500D02*
X+7083500Y-1807500D01*
X+7093000Y-1731500D02*
X+7083500Y-1741000D01*
X+7083500Y-1769500D01*
X+7093000Y-1779000D01*
X+7131000Y-1779000D01*
X+7140500Y-1769500D01*
X+7140500Y-1741000D01*
X+7131000Y-1731500D01*
X+7121500Y-1731500D01*
X+7112000Y-1741000D01*
X+7112000Y-1779000D01*
D119*
X+7251000Y-613500D02*
X+7251000Y-1073500D01*
X+7481000Y-1073500D01*
X+7481000Y-613500D01*
X+7251000Y-613500D01*
X+7416000Y-843500D02*
X+7316000Y-843500D01*
X+7366000Y-893500D02*
X+7366000Y-793500D01*
D127*
X+7393900Y-992300D02*
X+7338100Y-992300D01*
X+7338100Y-945800D01*
X+7347400Y-936500D01*
X+7356700Y-936500D01*
X+7366000Y-945800D01*
X+7366000Y-992300D01*
X+7366000Y-945800D02*
X+7375300Y-936500D01*
X+7393900Y-936500D01*
X+7347400Y-862100D02*
X+7338100Y-871400D01*
X+7338100Y-899300D01*
X+7347400Y-908600D01*
X+7384600Y-908600D01*
X+7393900Y-899300D01*
X+7393900Y-871400D01*
X+7384600Y-862100D01*
X+7375300Y-862100D01*
X+7366000Y-871400D01*
X+7366000Y-908600D01*
X+7384600Y-843500D02*
X+7347400Y-843500D01*
X+7338100Y-834200D01*
X+7338100Y-797000D01*
X+7347400Y-787700D01*
X+7384600Y-787700D01*
X+7393900Y-797000D01*
X+7393900Y-834200D01*
X+7384600Y-843500D01*
X+7393900Y-843500D02*
X+7338100Y-787700D01*
X+7347400Y-759800D02*
X+7338100Y-750500D01*
X+7338100Y-722600D01*
X+7347400Y-713300D01*
X+7356700Y-713300D01*
X+7366000Y-722600D01*
X+7375300Y-713300D01*
X+7384600Y-713300D01*
X+7393900Y-722600D01*
X+7393900Y-750500D01*
X+7384600Y-759800D01*
X+7366000Y-741200D02*
X+7366000Y-722600D01*
D119*
X+6997000Y-105500D02*
X+6997000Y-565500D01*
X+7227000Y-565500D01*
X+7227000Y-105500D01*
X+6997000Y-105500D01*
X+7162000Y-335500D02*
X+7062000Y-335500D01*
X+7112000Y-385500D02*
X+7112000Y-285500D01*
D127*
X+7139900Y-484300D02*
X+7084100Y-484300D01*
X+7084100Y-437800D01*
X+7093400Y-428500D01*
X+7102700Y-428500D01*
X+7112000Y-437800D01*
X+7112000Y-484300D01*
X+7112000Y-437800D02*
X+7121300Y-428500D01*
X+7139900Y-428500D01*
X+7093400Y-354100D02*
X+7084100Y-363400D01*
X+7084100Y-391300D01*
X+7093400Y-400600D01*
X+7130600Y-400600D01*
X+7139900Y-391300D01*
X+7139900Y-363400D01*
X+7130600Y-354100D01*
X+7121300Y-354100D01*
X+7112000Y-363400D01*
X+7112000Y-400600D01*
X+7130600Y-335500D02*
X+7093400Y-335500D01*
X+7084100Y-326200D01*
X+7084100Y-289000D01*
X+7093400Y-279700D01*
X+7130600Y-279700D01*
X+7139900Y-289000D01*
X+7139900Y-326200D01*
X+7130600Y-335500D01*
X+7139900Y-335500D02*
X+7084100Y-279700D01*
X+7121300Y-205300D02*
X+7121300Y-261100D01*
X+7084100Y-223900D01*
X+7139900Y-223900D01*
D119*
X+7251000Y-1629500D02*
X+7251000Y-2089500D01*
X+7481000Y-2089500D01*
X+7481000Y-1629500D01*
X+7251000Y-1629500D01*
X+7416000Y-1859500D02*
X+7316000Y-1859500D01*
X+7366000Y-1909500D02*
X+7366000Y-1809500D01*
D127*
X+7393900Y-2008300D02*
X+7338100Y-2008300D01*
X+7338100Y-1961800D01*
X+7347400Y-1952500D01*
X+7356700Y-1952500D01*
X+7366000Y-1961800D01*
X+7366000Y-2008300D01*
X+7366000Y-1961800D02*
X+7375300Y-1952500D01*
X+7393900Y-1952500D01*
X+7347400Y-1878100D02*
X+7338100Y-1887400D01*
X+7338100Y-1915300D01*
X+7347400Y-1924600D01*
X+7384600Y-1924600D01*
X+7393900Y-1915300D01*
X+7393900Y-1887400D01*
X+7384600Y-1878100D01*
X+7375300Y-1878100D01*
X+7366000Y-1887400D01*
X+7366000Y-1924600D01*
X+7384600Y-1859500D02*
X+7347400Y-1859500D01*
X+7338100Y-1850200D01*
X+7338100Y-1813000D01*
X+7347400Y-1803700D01*
X+7384600Y-1803700D01*
X+7393900Y-1813000D01*
X+7393900Y-1850200D01*
X+7384600Y-1859500D01*
X+7393900Y-1859500D02*
X+7338100Y-1803700D01*
X+7338100Y-1775800D02*
X+7338100Y-1729300D01*
X+7347400Y-1729300D01*
X+7393900Y-1775800D01*
D119*
X+6997000Y-1121500D02*
X+6997000Y-1581500D01*
X+7227000Y-1581500D01*
X+7227000Y-1121500D01*
X+6997000Y-1121500D01*
X+7162000Y-1351500D02*
X+7062000Y-1351500D01*
X+7112000Y-1401500D02*
X+7112000Y-1301500D01*
D127*
X+7139900Y-1500300D02*
X+7084100Y-1500300D01*
X+7084100Y-1453800D01*
X+7093400Y-1444500D01*
X+7102700Y-1444500D01*
X+7112000Y-1453800D01*
X+7112000Y-1500300D01*
X+7112000Y-1453800D02*
X+7121300Y-1444500D01*
X+7139900Y-1444500D01*
X+7093400Y-1370100D02*
X+7084100Y-1379400D01*
X+7084100Y-1407300D01*
X+7093400Y-1416600D01*
X+7130600Y-1416600D01*
X+7139900Y-1407300D01*
X+7139900Y-1379400D01*
X+7130600Y-1370100D01*
X+7121300Y-1370100D01*
X+7112000Y-1379400D01*
X+7112000Y-1416600D01*
X+7130600Y-1351500D02*
X+7093400Y-1351500D01*
X+7084100Y-1342200D01*
X+7084100Y-1305000D01*
X+7093400Y-1295700D01*
X+7130600Y-1295700D01*
X+7139900Y-1305000D01*
X+7139900Y-1342200D01*
X+7130600Y-1351500D01*
X+7139900Y-1351500D02*
X+7084100Y-1295700D01*
X+7112000Y-1258500D02*
X+7102700Y-1267800D01*
X+7093400Y-1267800D01*
X+7084100Y-1258500D01*
X+7084100Y-1230600D01*
X+7093400Y-1221300D01*
X+7102700Y-1221300D01*
X+7112000Y-1230600D01*
X+7112000Y-1258500D01*
X+7121300Y-1267800D01*
X+7130600Y-1267800D01*
X+7139900Y-1258500D01*
X+7139900Y-1230600D01*
X+7130600Y-1221300D01*
X+7121300Y-1221300D01*
X+7112000Y-1230600D01*
D48*
X+3368040Y-3860800D02*
X+3677920Y-3860800D01*
X+3677920Y-3568700D01*
X+3368040Y-3568700D01*
X+3368040Y-3860800D01*
D134*
X+3440346Y-3704421D02*
X+3461004Y-3683762D01*
X+3481663Y-3683762D01*
X+3502321Y-3704421D01*
X+3502321Y-3725079D01*
X+3481663Y-3745738D01*
X+3461004Y-3745738D01*
X+3440346Y-3725079D01*
X+3440346Y-3704421D01*
X+3481663Y-3725079D02*
X+3502321Y-3745738D01*
X+3543638Y-3704421D02*
X+3564297Y-3683762D01*
X+3564297Y-3745738D01*
D48*
X+3939540Y-3860800D02*
X+4249420Y-3860800D01*
X+4249420Y-3568700D01*
X+3939540Y-3568700D01*
X+3939540Y-3860800D01*
D135*
X+4001516Y-3707003D02*
X+4017010Y-3691509D01*
X+4032504Y-3691509D01*
X+4047998Y-3707003D01*
X+4047998Y-3722497D01*
X+4032504Y-3737991D01*
X+4017010Y-3737991D01*
X+4001516Y-3722497D01*
X+4001516Y-3707003D01*
X+4032504Y-3722497D02*
X+4047998Y-3737991D01*
X+4078986Y-3707003D02*
X+4094480Y-3691509D01*
X+4094480Y-3737991D01*
X+4140962Y-3707003D02*
X+4156456Y-3691509D01*
X+4156456Y-3737991D01*
D48*
X+4394200Y-4315460D02*
X+4686300Y-4315460D01*
X+4686300Y-4005580D01*
X+4394200Y-4005580D01*
X+4394200Y-4315460D01*
D135*
X+4532503Y-4253484D02*
X+4517009Y-4237990D01*
X+4517009Y-4222496D01*
X+4532503Y-4207002D01*
X+4547997Y-4207002D01*
X+4563491Y-4222496D01*
X+4563491Y-4237990D01*
X+4547997Y-4253484D01*
X+4532503Y-4253484D01*
X+4547997Y-4222496D02*
X+4563491Y-4207002D01*
X+4532503Y-4176014D02*
X+4517009Y-4160520D01*
X+4563491Y-4160520D01*
X+4524756Y-4121785D02*
X+4517009Y-4114038D01*
X+4517009Y-4090797D01*
X+4524756Y-4083050D01*
X+4532503Y-4083050D01*
X+4540250Y-4090797D01*
X+4540250Y-4114038D01*
X+4547997Y-4121785D01*
X+4563491Y-4121785D01*
X+4563491Y-4083050D01*
D48*
X+3734920Y-3841750D02*
X+3885080Y-3841750D01*
X+3885080Y-3543300D01*
X+3734920Y-3543300D01*
X+3734920Y-3841750D01*
D136*
X+3832384Y-3782058D02*
X+3787617Y-3782058D01*
X+3787617Y-3752214D01*
X+3802539Y-3737292D01*
X+3817462Y-3737292D01*
X+3832384Y-3752214D01*
X+3832384Y-3782058D01*
X+3802539Y-3707447D02*
X+3787617Y-3692525D01*
X+3832384Y-3692525D01*
X+3824923Y-3662680D02*
X+3795078Y-3662680D01*
X+3787617Y-3655219D01*
X+3787617Y-3625375D01*
X+3795078Y-3617914D01*
X+3824923Y-3617914D01*
X+3832384Y-3625375D01*
X+3832384Y-3655219D01*
X+3824923Y-3662680D01*
X+3832384Y-3662680D02*
X+3787617Y-3617914D01*
D48*
X+3353920Y-4203700D02*
X+3504080Y-4203700D01*
X+3504080Y-3905250D01*
X+3353920Y-3905250D01*
X+3353920Y-4203700D01*
D136*
X+3451384Y-4144008D02*
X+3406617Y-4144008D01*
X+3406617Y-4114164D01*
X+3421539Y-4099242D01*
X+3436462Y-4099242D01*
X+3451384Y-4114164D01*
X+3451384Y-4144008D01*
X+3421539Y-4069397D02*
X+3406617Y-4054475D01*
X+3451384Y-4054475D01*
X+3421539Y-4009708D02*
X+3406617Y-3994786D01*
X+3451384Y-3994786D01*
D48*
X+4306420Y-3841750D02*
X+4456580Y-3841750D01*
X+4456580Y-3543300D01*
X+4306420Y-3543300D01*
X+4306420Y-3841750D01*
D131*
X+4399407Y-3788029D02*
X+4363593Y-3788029D01*
X+4363593Y-3764153D01*
X+4375531Y-3752215D01*
X+4387469Y-3752215D01*
X+4399407Y-3764153D01*
X+4399407Y-3788029D01*
X+4369562Y-3734308D02*
X+4363593Y-3728339D01*
X+4363593Y-3710432D01*
X+4369562Y-3704463D01*
X+4375531Y-3704463D01*
X+4381500Y-3710432D01*
X+4381500Y-3728339D01*
X+4387469Y-3734308D01*
X+4399407Y-3734308D01*
X+4399407Y-3704463D01*
X+4393438Y-3692525D02*
X+4369562Y-3692525D01*
X+4363593Y-3686556D01*
X+4363593Y-3662680D01*
X+4369562Y-3656711D01*
X+4393438Y-3656711D01*
X+4399407Y-3662680D01*
X+4399407Y-3686556D01*
X+4393438Y-3692525D01*
X+4399407Y-3692525D02*
X+4363593Y-3656711D01*
X+4375531Y-3632835D02*
X+4363593Y-3620897D01*
X+4399407Y-3620897D01*
D48*
X+3925420Y-4203700D02*
X+4075580Y-4203700D01*
X+4075580Y-3905250D01*
X+3925420Y-3905250D01*
X+3925420Y-4203700D01*
D131*
X+4018407Y-4149979D02*
X+3982593Y-4149979D01*
X+3982593Y-4126103D01*
X+3994531Y-4114165D01*
X+4006469Y-4114165D01*
X+4018407Y-4126103D01*
X+4018407Y-4149979D01*
X+3988562Y-4096258D02*
X+3982593Y-4090289D01*
X+3982593Y-4072382D01*
X+3988562Y-4066413D01*
X+3994531Y-4066413D01*
X+4000500Y-4072382D01*
X+4000500Y-4090289D01*
X+4006469Y-4096258D01*
X+4018407Y-4096258D01*
X+4018407Y-4066413D01*
X+4012438Y-4054475D02*
X+3988562Y-4054475D01*
X+3982593Y-4048506D01*
X+3982593Y-4024630D01*
X+3988562Y-4018661D01*
X+4012438Y-4018661D01*
X+4018407Y-4024630D01*
X+4018407Y-4048506D01*
X+4012438Y-4054475D01*
X+4018407Y-4054475D02*
X+3982593Y-4018661D01*
X+3988562Y-4000754D02*
X+3982593Y-3994785D01*
X+3982593Y-3976878D01*
X+3988562Y-3970909D01*
X+3994531Y-3970909D01*
X+4000500Y-3976878D01*
X+4000500Y-3994785D01*
X+4006469Y-4000754D01*
X+4018407Y-4000754D01*
X+4018407Y-3970909D01*
D119*
X+3435000Y-3480500D02*
X+3895000Y-3480500D01*
X+3895000Y-3250500D01*
X+3435000Y-3250500D01*
X+3435000Y-3480500D01*
X+3665000Y-3315500D02*
X+3665000Y-3415500D01*
X+3715000Y-3365500D02*
X+3615000Y-3365500D01*
D120*
X+3525500Y-3400375D02*
X+3525500Y-3330625D01*
X+3583625Y-3330625D01*
X+3595250Y-3342250D01*
X+3595250Y-3353875D01*
X+3583625Y-3365500D01*
X+3525500Y-3365500D01*
X+3583625Y-3365500D02*
X+3595250Y-3377125D01*
X+3595250Y-3400375D01*
X+3630125Y-3342250D02*
X+3641750Y-3330625D01*
X+3676625Y-3330625D01*
X+3688250Y-3342250D01*
X+3688250Y-3353875D01*
X+3676625Y-3365500D01*
X+3688250Y-3377125D01*
X+3688250Y-3388750D01*
X+3676625Y-3400375D01*
X+3641750Y-3400375D01*
X+3630125Y-3388750D01*
X+3653375Y-3365500D02*
X+3676625Y-3365500D01*
X+3734750Y-3365500D02*
X+3723125Y-3353875D01*
X+3723125Y-3342250D01*
X+3734750Y-3330625D01*
X+3769625Y-3330625D01*
X+3781250Y-3342250D01*
X+3781250Y-3353875D01*
X+3769625Y-3365500D01*
X+3734750Y-3365500D01*
X+3723125Y-3377125D01*
X+3723125Y-3388750D01*
X+3734750Y-3400375D01*
X+3769625Y-3400375D01*
X+3781250Y-3388750D01*
X+3781250Y-3377125D01*
X+3769625Y-3365500D01*
D119*
X+3435000Y-3226500D02*
X+3895000Y-3226500D01*
X+3895000Y-2996500D01*
X+3435000Y-2996500D01*
X+3435000Y-3226500D01*
X+3665000Y-3061500D02*
X+3665000Y-3161500D01*
X+3715000Y-3111500D02*
X+3615000Y-3111500D01*
D120*
X+3525500Y-3146375D02*
X+3525500Y-3076625D01*
X+3583625Y-3076625D01*
X+3595250Y-3088250D01*
X+3595250Y-3099875D01*
X+3583625Y-3111500D01*
X+3525500Y-3111500D01*
X+3583625Y-3111500D02*
X+3595250Y-3123125D01*
X+3595250Y-3146375D01*
X+3630125Y-3088250D02*
X+3641750Y-3076625D01*
X+3676625Y-3076625D01*
X+3688250Y-3088250D01*
X+3688250Y-3099875D01*
X+3676625Y-3111500D01*
X+3688250Y-3123125D01*
X+3688250Y-3134750D01*
X+3676625Y-3146375D01*
X+3641750Y-3146375D01*
X+3630125Y-3134750D01*
X+3653375Y-3111500D02*
X+3676625Y-3111500D01*
X+3781250Y-3099875D02*
X+3769625Y-3111500D01*
X+3734750Y-3111500D01*
X+3723125Y-3099875D01*
X+3723125Y-3088250D01*
X+3734750Y-3076625D01*
X+3769625Y-3076625D01*
X+3781250Y-3088250D01*
X+3781250Y-3134750D01*
X+3769625Y-3146375D01*
X+3734750Y-3146375D01*
D119*
X+4466500Y-3250500D02*
X+4006500Y-3250500D01*
X+4006500Y-3480500D01*
X+4466500Y-3480500D01*
X+4466500Y-3250500D01*
X+4236500Y-3415500D02*
X+4236500Y-3315500D01*
X+4186500Y-3365500D02*
X+4286500Y-3365500D01*
D127*
X+4087700Y-3393400D02*
X+4087700Y-3337600D01*
X+4134200Y-3337600D01*
X+4143500Y-3346900D01*
X+4143500Y-3356200D01*
X+4134200Y-3365500D01*
X+4087700Y-3365500D01*
X+4134200Y-3365500D02*
X+4143500Y-3374800D01*
X+4143500Y-3393400D01*
X+4171400Y-3346900D02*
X+4180700Y-3337600D01*
X+4208600Y-3337600D01*
X+4217900Y-3346900D01*
X+4217900Y-3356200D01*
X+4208600Y-3365500D01*
X+4180700Y-3365500D01*
X+4171400Y-3374800D01*
X+4171400Y-3393400D01*
X+4217900Y-3393400D01*
X+4236500Y-3384100D02*
X+4236500Y-3346900D01*
X+4245800Y-3337600D01*
X+4283000Y-3337600D01*
X+4292300Y-3346900D01*
X+4292300Y-3384100D01*
X+4283000Y-3393400D01*
X+4245800Y-3393400D01*
X+4236500Y-3384100D01*
X+4236500Y-3393400D02*
X+4292300Y-3337600D01*
X+4329500Y-3356200D02*
X+4348100Y-3337600D01*
X+4348100Y-3393400D01*
D119*
X+4520500Y-2990500D02*
X+4520500Y-3450500D01*
X+4750500Y-3450500D01*
X+4750500Y-2990500D01*
X+4520500Y-2990500D01*
X+4685500Y-3220500D02*
X+4585500Y-3220500D01*
X+4635500Y-3270500D02*
X+4635500Y-3170500D01*
D127*
X+4663400Y-3369300D02*
X+4607600Y-3369300D01*
X+4607600Y-3322800D01*
X+4616900Y-3313500D01*
X+4626200Y-3313500D01*
X+4635500Y-3322800D01*
X+4635500Y-3369300D01*
X+4635500Y-3322800D02*
X+4644800Y-3313500D01*
X+4663400Y-3313500D01*
X+4616900Y-3285600D02*
X+4607600Y-3276300D01*
X+4607600Y-3248400D01*
X+4616900Y-3239100D01*
X+4626200Y-3239100D01*
X+4635500Y-3248400D01*
X+4635500Y-3276300D01*
X+4644800Y-3285600D01*
X+4663400Y-3285600D01*
X+4663400Y-3239100D01*
X+4654100Y-3220500D02*
X+4616900Y-3220500D01*
X+4607600Y-3211200D01*
X+4607600Y-3174000D01*
X+4616900Y-3164700D01*
X+4654100Y-3164700D01*
X+4663400Y-3174000D01*
X+4663400Y-3211200D01*
X+4654100Y-3220500D01*
X+4663400Y-3220500D02*
X+4607600Y-3164700D01*
X+4616900Y-3136800D02*
X+4607600Y-3127500D01*
X+4607600Y-3099600D01*
X+4616900Y-3090300D01*
X+4626200Y-3090300D01*
X+4635500Y-3099600D01*
X+4635500Y-3127500D01*
X+4644800Y-3136800D01*
X+4663400Y-3136800D01*
X+4663400Y-3090300D01*
D119*
X+4750500Y-3958500D02*
X+4750500Y-3488500D01*
X+4520500Y-3488500D01*
X+4520500Y-3958500D01*
X+4750500Y-3958500D01*
X+4585500Y-3723500D02*
X+4685500Y-3723500D01*
X+4635500Y-3673500D02*
X+4635500Y-3773500D01*
D132*
X+4654500Y-3818500D02*
X+4664000Y-3828000D01*
X+4664000Y-3856500D01*
X+4645000Y-3875500D01*
X+4626000Y-3875500D01*
X+4607000Y-3856500D01*
X+4607000Y-3828000D01*
X+4616500Y-3818500D01*
X+4616500Y-3790000D02*
X+4607000Y-3780500D01*
X+4607000Y-3752000D01*
X+4616500Y-3742500D01*
X+4626000Y-3742500D01*
X+4635500Y-3752000D01*
X+4635500Y-3780500D01*
X+4645000Y-3790000D01*
X+4664000Y-3790000D01*
X+4664000Y-3742500D01*
X+4654500Y-3723500D02*
X+4616500Y-3723500D01*
X+4607000Y-3714000D01*
X+4607000Y-3676000D01*
X+4616500Y-3666500D01*
X+4654500Y-3666500D01*
X+4664000Y-3676000D01*
X+4664000Y-3714000D01*
X+4654500Y-3723500D01*
X+4664000Y-3723500D02*
X+4607000Y-3666500D01*
X+4626000Y-3628500D02*
X+4607000Y-3609500D01*
X+4664000Y-3609500D01*
D119*
X+4466500Y-2996500D02*
X+3996500Y-2996500D01*
X+3996500Y-3226500D01*
X+4466500Y-3226500D01*
X+4466500Y-2996500D01*
X+4231500Y-3161500D02*
X+4231500Y-3061500D01*
X+4181500Y-3111500D02*
X+4281500Y-3111500D01*
D124*
X+4160250Y-3135250D02*
X+4148375Y-3147125D01*
X+4112750Y-3147125D01*
X+4089000Y-3123375D01*
X+4089000Y-3099625D01*
X+4112750Y-3075875D01*
X+4148375Y-3075875D01*
X+4160250Y-3087750D01*
X+4195875Y-3087750D02*
X+4207750Y-3075875D01*
X+4243375Y-3075875D01*
X+4255250Y-3087750D01*
X+4255250Y-3099625D01*
X+4243375Y-3111500D01*
X+4255250Y-3123375D01*
X+4255250Y-3135250D01*
X+4243375Y-3147125D01*
X+4207750Y-3147125D01*
X+4195875Y-3135250D01*
X+4219625Y-3111500D02*
X+4243375Y-3111500D01*
X+4302750Y-3099625D02*
X+4326500Y-3075875D01*
X+4326500Y-3147125D01*
D119*
X+8814500Y-4629500D02*
X+8814500Y-4169500D01*
X+8584500Y-4169500D01*
X+8584500Y-4629500D01*
X+8814500Y-4629500D01*
X+8649500Y-4399500D02*
X+8749500Y-4399500D01*
X+8699500Y-4349500D02*
X+8699500Y-4449500D01*
D120*
X+8734375Y-4539000D02*
X+8664625Y-4539000D01*
X+8664625Y-4480875D01*
X+8676250Y-4469250D01*
X+8687875Y-4469250D01*
X+8699500Y-4480875D01*
X+8699500Y-4539000D01*
X+8699500Y-4480875D02*
X+8711125Y-4469250D01*
X+8734375Y-4469250D01*
X+8687875Y-4422750D02*
X+8664625Y-4399500D01*
X+8734375Y-4399500D01*
X+8676250Y-4341375D02*
X+8664625Y-4329750D01*
X+8664625Y-4294875D01*
X+8676250Y-4283250D01*
X+8687875Y-4283250D01*
X+8699500Y-4294875D01*
X+8699500Y-4329750D01*
X+8711125Y-4341375D01*
X+8734375Y-4341375D01*
X+8734375Y-4283250D01*
D119*
X+6435000Y-6044500D02*
X+5965000Y-6044500D01*
X+5965000Y-6274500D01*
X+6435000Y-6274500D01*
X+6435000Y-6044500D01*
X+6200000Y-6209500D02*
X+6200000Y-6109500D01*
X+6150000Y-6159500D02*
X+6250000Y-6159500D01*
D124*
X+6128750Y-6183250D02*
X+6116875Y-6195125D01*
X+6081250Y-6195125D01*
X+6057500Y-6171375D01*
X+6057500Y-6147625D01*
X+6081250Y-6123875D01*
X+6116875Y-6123875D01*
X+6128750Y-6135750D01*
X+6176250Y-6147625D02*
X+6200000Y-6123875D01*
X+6200000Y-6195125D01*
X+6318750Y-6135750D02*
X+6306875Y-6123875D01*
X+6271250Y-6123875D01*
X+6259375Y-6135750D01*
X+6259375Y-6183250D01*
X+6271250Y-6195125D01*
X+6306875Y-6195125D01*
X+6318750Y-6183250D01*
X+6318750Y-6171375D01*
X+6306875Y-6159500D01*
X+6259375Y-6159500D01*
D119*
X+8360500Y-5655500D02*
X+8360500Y-5185500D01*
X+8130500Y-5185500D01*
X+8130500Y-5655500D01*
X+8360500Y-5655500D01*
X+8195500Y-5420500D02*
X+8295500Y-5420500D01*
X+8245500Y-5370500D02*
X+8245500Y-5470500D01*
D124*
X+8269250Y-5491750D02*
X+8281125Y-5503625D01*
X+8281125Y-5539250D01*
X+8257375Y-5563000D01*
X+8233625Y-5563000D01*
X+8209875Y-5539250D01*
X+8209875Y-5503625D01*
X+8221750Y-5491750D01*
X+8221750Y-5456125D02*
X+8209875Y-5444250D01*
X+8209875Y-5408625D01*
X+8221750Y-5396750D01*
X+8233625Y-5396750D01*
X+8245500Y-5408625D01*
X+8257375Y-5396750D01*
X+8269250Y-5396750D01*
X+8281125Y-5408625D01*
X+8281125Y-5444250D01*
X+8269250Y-5456125D01*
X+8245500Y-5432375D02*
X+8245500Y-5408625D01*
X+8257375Y-5301750D02*
X+8257375Y-5373000D01*
X+8209875Y-5325500D01*
X+8281125Y-5325500D01*
D119*
X+7598500Y-5655499D02*
X+7598500Y-5185499D01*
X+7368500Y-5185499D01*
X+7368500Y-5655499D01*
X+7598500Y-5655499D01*
X+7433500Y-5420499D02*
X+7533500Y-5420499D01*
X+7483500Y-5370499D02*
X+7483500Y-5470499D01*
D124*
X+7507250Y-5491749D02*
X+7519125Y-5503624D01*
X+7519125Y-5539249D01*
X+7495375Y-5562999D01*
X+7471625Y-5562999D01*
X+7447875Y-5539249D01*
X+7447875Y-5503624D01*
X+7459750Y-5491749D01*
X+7459750Y-5456124D02*
X+7447875Y-5444249D01*
X+7447875Y-5408624D01*
X+7459750Y-5396749D01*
X+7471625Y-5396749D01*
X+7483500Y-5408624D01*
X+7495375Y-5396749D01*
X+7507250Y-5396749D01*
X+7519125Y-5408624D01*
X+7519125Y-5444249D01*
X+7507250Y-5456124D01*
X+7483500Y-5432374D02*
X+7483500Y-5408624D01*
X+7447875Y-5301749D02*
X+7447875Y-5361124D01*
X+7471625Y-5361124D01*
X+7471625Y-5313624D01*
X+7483500Y-5301749D01*
X+7507250Y-5301749D01*
X+7519125Y-5313624D01*
X+7519125Y-5349249D01*
X+7507250Y-5361124D01*
D119*
X-877000Y+148500D02*
X-877000Y-321500D01*
X-647000Y-321500D01*
X-647000Y+148500D01*
X-877000Y+148500D01*
X-712000Y-86500D02*
X-812000Y-86500D01*
X-762000Y-136500D02*
X-762000Y-36500D01*
D132*
X-743000Y-181500D02*
X-733500Y-191000D01*
X-733500Y-219500D01*
X-752500Y-238500D01*
X-771500Y-238500D01*
X-790500Y-219500D01*
X-790500Y-191000D01*
X-781000Y-181500D01*
X-771500Y-143500D02*
X-790500Y-124500D01*
X-733500Y-124500D01*
X-743000Y-86500D02*
X-781000Y-86500D01*
X-790500Y-77000D01*
X-790500Y-39000D01*
X-781000Y-29500D01*
X-743000Y-29500D01*
X-733500Y-39000D01*
X-733500Y-77000D01*
X-743000Y-86500D01*
X-733500Y-86500D02*
X-790500Y-29500D01*
X-752500Y+46500D02*
X-752500Y-10500D01*
X-790500Y+27500D01*
X-733500Y+27500D01*
D52*
X+9390380Y-4686250D02*
X+9100820Y-4686250D01*
X+9100820Y-5276750D01*
X+9390380Y-5276750D01*
X+9390380Y-4686250D01*
X+9100820Y-4686250D01*
X+9100820Y-5276750D01*
X+9390380Y-5276750D01*
X+9390380Y-4686250D01*
D137*
X+9271561Y-5189181D02*
X+9219640Y-5189181D01*
X+9219640Y-5145915D01*
X+9228294Y-5137261D01*
X+9236947Y-5137261D01*
X+9245600Y-5145915D01*
X+9245600Y-5189181D01*
X+9236947Y-5119954D02*
X+9219640Y-5102648D01*
X+9219640Y-5085341D01*
X+9236947Y-5068034D01*
X+9254254Y-5068034D01*
X+9271561Y-5085341D01*
X+9271561Y-5102648D01*
X+9254254Y-5119954D01*
X+9236947Y-5119954D01*
X+9219640Y-5050727D02*
X+9219640Y-4998807D01*
X+9219640Y-5024767D02*
X+9271561Y-5024767D01*
X+9280214Y-4981500D02*
X+9280214Y-4929580D01*
X+9219640Y-4903620D02*
X+9219640Y-4869007D01*
X+9219640Y-4886313D02*
X+9271561Y-4886313D01*
X+9271561Y-4903620D02*
X+9271561Y-4869007D01*
X+9271561Y-4843046D02*
X+9219640Y-4843046D01*
X+9271561Y-4791126D01*
X+9219640Y-4791126D01*
D119*
X+7417500Y-4629500D02*
X+7417500Y-4169500D01*
X+7187500Y-4169500D01*
X+7187500Y-4629500D01*
X+7417500Y-4629500D01*
X+7252500Y-4399500D02*
X+7352500Y-4399500D01*
X+7302500Y-4349500D02*
X+7302500Y-4449500D01*
D120*
X+7337375Y-4539000D02*
X+7267625Y-4539000D01*
X+7267625Y-4480875D01*
X+7279250Y-4469250D01*
X+7290875Y-4469250D01*
X+7302500Y-4480875D01*
X+7302500Y-4539000D01*
X+7302500Y-4480875D02*
X+7314125Y-4469250D01*
X+7337375Y-4469250D01*
X+7290875Y-4422750D02*
X+7267625Y-4399500D01*
X+7337375Y-4399500D01*
X+7325750Y-4353000D02*
X+7279250Y-4353000D01*
X+7267625Y-4341375D01*
X+7267625Y-4294875D01*
X+7279250Y-4283250D01*
X+7325750Y-4283250D01*
X+7337375Y-4294875D01*
X+7337375Y-4341375D01*
X+7325750Y-4353000D01*
X+7337375Y-4353000D02*
X+7267625Y-4283250D01*
D119*
X+8560500Y-4629500D02*
X+8560500Y-4169500D01*
X+8330500Y-4169500D01*
X+8330500Y-4629500D01*
X+8560500Y-4629500D01*
X+8395500Y-4399500D02*
X+8495500Y-4399500D01*
X+8445500Y-4349500D02*
X+8445500Y-4449500D01*
D120*
X+8480375Y-4539000D02*
X+8410625Y-4539000D01*
X+8410625Y-4480875D01*
X+8422250Y-4469250D01*
X+8433875Y-4469250D01*
X+8445500Y-4480875D01*
X+8445500Y-4539000D01*
X+8445500Y-4480875D02*
X+8457125Y-4469250D01*
X+8480375Y-4469250D01*
X+8433875Y-4422750D02*
X+8410625Y-4399500D01*
X+8480375Y-4399500D01*
X+8433875Y-4329750D02*
X+8410625Y-4306500D01*
X+8480375Y-4306500D01*
D119*
X+8638500Y-5550301D02*
X+8638500Y-6010301D01*
X+8868500Y-6010301D01*
X+8868500Y-5550301D01*
X+8638500Y-5550301D01*
X+8803500Y-5780301D02*
X+8703500Y-5780301D01*
X+8753500Y-5830301D02*
X+8753500Y-5730301D01*
D120*
X+8788375Y-5919801D02*
X+8718625Y-5919801D01*
X+8718625Y-5861676D01*
X+8730250Y-5850051D01*
X+8741875Y-5850051D01*
X+8753500Y-5861676D01*
X+8753500Y-5919801D01*
X+8753500Y-5861676D02*
X+8765125Y-5850051D01*
X+8788375Y-5850051D01*
X+8730250Y-5815176D02*
X+8718625Y-5803551D01*
X+8718625Y-5768676D01*
X+8730250Y-5757051D01*
X+8741875Y-5757051D01*
X+8753500Y-5768676D01*
X+8765125Y-5757051D01*
X+8776750Y-5757051D01*
X+8788375Y-5768676D01*
X+8788375Y-5803551D01*
X+8776750Y-5815176D01*
X+8753500Y-5791926D02*
X+8753500Y-5768676D01*
X+8730250Y-5722176D02*
X+8718625Y-5710551D01*
X+8718625Y-5675676D01*
X+8730250Y-5664051D01*
X+8741875Y-5664051D01*
X+8753500Y-5675676D01*
X+8765125Y-5664051D01*
X+8776750Y-5664051D01*
X+8788375Y-5675676D01*
X+8788375Y-5710551D01*
X+8776750Y-5722176D01*
X+8753500Y-5698926D02*
X+8753500Y-5675676D01*
D119*
X+7876500Y-5185500D02*
X+7876500Y-5645500D01*
X+8106500Y-5645500D01*
X+8106500Y-5185500D01*
X+7876500Y-5185500D01*
X+8041500Y-5415500D02*
X+7941500Y-5415500D01*
X+7991500Y-5465500D02*
X+7991500Y-5365500D01*
D120*
X+8026375Y-5555000D02*
X+7956625Y-5555000D01*
X+7956625Y-5496875D01*
X+7968250Y-5485250D01*
X+7979875Y-5485250D01*
X+7991500Y-5496875D01*
X+7991500Y-5555000D01*
X+7991500Y-5496875D02*
X+8003125Y-5485250D01*
X+8026375Y-5485250D01*
X+7968250Y-5450375D02*
X+7956625Y-5438750D01*
X+7956625Y-5403875D01*
X+7968250Y-5392250D01*
X+7979875Y-5392250D01*
X+7991500Y-5403875D01*
X+8003125Y-5392250D01*
X+8014750Y-5392250D01*
X+8026375Y-5403875D01*
X+8026375Y-5438750D01*
X+8014750Y-5450375D01*
X+7991500Y-5427125D02*
X+7991500Y-5403875D01*
X+7968250Y-5299250D02*
X+7956625Y-5310875D01*
X+7956625Y-5345750D01*
X+7968250Y-5357375D01*
X+8014750Y-5357375D01*
X+8026375Y-5345750D01*
X+8026375Y-5310875D01*
X+8014750Y-5299250D01*
X+8003125Y-5299250D01*
X+7991500Y-5310875D01*
X+7991500Y-5357375D01*
D119*
X+7622500Y-5185500D02*
X+7622500Y-5645500D01*
X+7852500Y-5645500D01*
X+7852500Y-5185500D01*
X+7622500Y-5185500D01*
X+7787500Y-5415500D02*
X+7687500Y-5415500D01*
X+7737500Y-5465500D02*
X+7737500Y-5365500D01*
D120*
X+7772375Y-5555000D02*
X+7702625Y-5555000D01*
X+7702625Y-5496875D01*
X+7714250Y-5485250D01*
X+7725875Y-5485250D01*
X+7737500Y-5496875D01*
X+7737500Y-5555000D01*
X+7737500Y-5496875D02*
X+7749125Y-5485250D01*
X+7772375Y-5485250D01*
X+7714250Y-5450375D02*
X+7702625Y-5438750D01*
X+7702625Y-5403875D01*
X+7714250Y-5392250D01*
X+7725875Y-5392250D01*
X+7737500Y-5403875D01*
X+7749125Y-5392250D01*
X+7760750Y-5392250D01*
X+7772375Y-5403875D01*
X+7772375Y-5438750D01*
X+7760750Y-5450375D01*
X+7737500Y-5427125D02*
X+7737500Y-5403875D01*
X+7702625Y-5357375D02*
X+7702625Y-5299250D01*
X+7714250Y-5299250D01*
X+7772375Y-5357375D01*
D119*
X+8384500Y-5185500D02*
X+8384500Y-5645500D01*
X+8614500Y-5645500D01*
X+8614500Y-5185500D01*
X+8384500Y-5185500D01*
X+8549500Y-5415500D02*
X+8449500Y-5415500D01*
X+8499500Y-5465500D02*
X+8499500Y-5365500D01*
D120*
X+8534375Y-5555000D02*
X+8464625Y-5555000D01*
X+8464625Y-5496875D01*
X+8476250Y-5485250D01*
X+8487875Y-5485250D01*
X+8499500Y-5496875D01*
X+8499500Y-5555000D01*
X+8499500Y-5496875D02*
X+8511125Y-5485250D01*
X+8534375Y-5485250D01*
X+8464625Y-5392250D02*
X+8464625Y-5450375D01*
X+8487875Y-5450375D01*
X+8487875Y-5403875D01*
X+8499500Y-5392250D01*
X+8522750Y-5392250D01*
X+8534375Y-5403875D01*
X+8534375Y-5438750D01*
X+8522750Y-5450375D01*
X+8487875Y-5345750D02*
X+8464625Y-5322500D01*
X+8534375Y-5322500D01*
D119*
X+7114500Y-5185500D02*
X+7114500Y-5645500D01*
X+7344500Y-5645500D01*
X+7344500Y-5185500D01*
X+7114500Y-5185500D01*
X+7279500Y-5415500D02*
X+7179500Y-5415500D01*
X+7229500Y-5465500D02*
X+7229500Y-5365500D01*
D120*
X+7264375Y-5555000D02*
X+7194625Y-5555000D01*
X+7194625Y-5496875D01*
X+7206250Y-5485250D01*
X+7217875Y-5485250D01*
X+7229500Y-5496875D01*
X+7229500Y-5555000D01*
X+7229500Y-5496875D02*
X+7241125Y-5485250D01*
X+7264375Y-5485250D01*
X+7194625Y-5392250D02*
X+7194625Y-5450375D01*
X+7217875Y-5450375D01*
X+7217875Y-5403875D01*
X+7229500Y-5392250D01*
X+7252750Y-5392250D01*
X+7264375Y-5403875D01*
X+7264375Y-5438750D01*
X+7252750Y-5450375D01*
X+7206250Y-5357375D02*
X+7194625Y-5345750D01*
X+7194625Y-5310875D01*
X+7206250Y-5299250D01*
X+7217875Y-5299250D01*
X+7229500Y-5310875D01*
X+7229500Y-5345750D01*
X+7241125Y-5357375D01*
X+7264375Y-5357375D01*
X+7264375Y-5299250D01*
D52*
X+8530870Y-6030900D02*
X+8530870Y-5779440D01*
X+7182130Y-5779440D01*
X+7182130Y-6030900D01*
X+8530870Y-6030900D01*
X+8530870Y-5779440D01*
X+7182130Y-5779440D01*
X+7182130Y-6030900D01*
X+8530870Y-6030900D01*
D138*
X+7408444Y-5953176D02*
X+7408444Y-5857164D01*
X+7456450Y-5905170D01*
X+7504456Y-5857164D01*
X+7504456Y-5953176D01*
X+7536460Y-5889168D02*
X+7568464Y-5857164D01*
X+7600468Y-5857164D01*
X+7632472Y-5889168D01*
X+7632472Y-5921172D01*
X+7600468Y-5953176D01*
X+7568464Y-5953176D01*
X+7536460Y-5921172D01*
X+7536460Y-5889168D01*
X+7664476Y-5953176D02*
X+7664476Y-5857164D01*
X+7744486Y-5857164D01*
X+7760488Y-5873166D01*
X+7760488Y-5889168D01*
X+7744486Y-5905170D01*
X+7664476Y-5905170D01*
X+7792492Y-5937174D02*
X+7808494Y-5953176D01*
X+7872502Y-5953176D01*
X+7888504Y-5937174D01*
X+7888504Y-5921172D01*
X+7872502Y-5905170D01*
X+7808494Y-5905170D01*
X+7792492Y-5889168D01*
X+7792492Y-5873166D01*
X+7808494Y-5857164D01*
X+7872502Y-5857164D01*
X+7888504Y-5873166D01*
X+7920508Y-5969178D02*
X+8016520Y-5969178D01*
X+8064526Y-5857164D02*
X+8128534Y-5857164D01*
X+8096530Y-5857164D02*
X+8096530Y-5953176D01*
X+8064526Y-5953176D02*
X+8128534Y-5953176D01*
X+8176540Y-5953176D02*
X+8176540Y-5857164D01*
X+8272552Y-5953176D01*
X+8272552Y-5857164D01*
D48*
X-61261Y-1772000D02*
X+2079067Y+23948D01*
X+790842Y+1559195D01*
X-1349486Y-236754D01*
X-61261Y-1772000D01*
D139*
X-385557Y-371289D02*
X-26367Y-799355D01*
X+401697Y-440166D01*
X+316406Y+96150D02*
X+327885Y+227359D01*
X+541918Y+406954D01*
X+673126Y+395475D01*
X+732992Y+324130D01*
X+721513Y+192921D01*
X+507480Y+13326D01*
X+496000Y-117882D01*
X+615731Y-260571D01*
X+972451Y+38753D01*
D119*
X+1104500Y+1583500D02*
X+1104414Y+1585576D01*
X+1103712Y+1589729D01*
X+1102242Y+1593882D01*
X+1099840Y+1598035D01*
X+1096167Y+1602134D01*
X+1092014Y+1605143D01*
X+1087861Y+1607060D01*
X+1083708Y+1608143D01*
X+1079555Y+1608500D01*
X+1079500Y+1608500D01*
X+1054500Y+1583500D02*
X+1054586Y+1585576D01*
X+1055288Y+1589729D01*
X+1056758Y+1593882D01*
X+1059160Y+1598035D01*
X+1062833Y+1602134D01*
X+1066986Y+1605143D01*
X+1071139Y+1607060D01*
X+1075292Y+1608143D01*
X+1079445Y+1608500D01*
X+1079500Y+1608500D01*
X+1054500Y+1583500D02*
X+1054586Y+1581424D01*
X+1055288Y+1577271D01*
X+1056758Y+1573118D01*
X+1059160Y+1568965D01*
X+1062833Y+1564866D01*
X+1066986Y+1561857D01*
X+1071139Y+1559940D01*
X+1075292Y+1558857D01*
X+1079445Y+1558500D01*
X+1079500Y+1558500D01*
X+1104500Y+1583500D02*
X+1104414Y+1581424D01*
X+1103712Y+1577271D01*
X+1102242Y+1573118D01*
X+1099840Y+1568965D01*
X+1096167Y+1564866D01*
X+1092014Y+1561857D01*
X+1087861Y+1559940D01*
X+1083708Y+1558857D01*
X+1079555Y+1558500D01*
X+1079500Y+1558500D01*
X+1079500Y+1618500D02*
X+1079500Y+1548500D01*
X+1044500Y+1583500D02*
X+1114500Y+1583500D01*
X+554500Y+1058500D02*
X+1079500Y+1058500D01*
X+1134062Y+1061152D01*
X+1186845Y+1068946D01*
X+1237610Y+1081643D01*
X+1286116Y+1099003D01*
X+1332122Y+1120785D01*
X+1375389Y+1146748D01*
X+1415676Y+1176652D01*
X+1452742Y+1210258D01*
X+1486348Y+1247324D01*
X+1516252Y+1287611D01*
X+1542215Y+1330878D01*
X+1563997Y+1376884D01*
X+1581357Y+1425390D01*
X+1594054Y+1476155D01*
X+1601848Y+1528938D01*
X+1604500Y+1583500D01*
X+1601848Y+1638062D01*
X+1594054Y+1690845D01*
X+1581357Y+1741610D01*
X+1563997Y+1790116D01*
X+1542215Y+1836122D01*
X+1516252Y+1879389D01*
X+1486348Y+1919676D01*
X+1452742Y+1956742D01*
X+1415676Y+1990348D01*
X+1375389Y+2020252D01*
X+1332122Y+2046215D01*
X+1286116Y+2067997D01*
X+1237610Y+2085357D01*
X+1186845Y+2098054D01*
X+1134062Y+2105848D01*
X+1079500Y+2108500D01*
X+1024938Y+2105848D01*
X+972155Y+2098054D01*
X+921390Y+2085357D01*
X+872884Y+2067997D01*
X+826878Y+2046215D01*
X+783611Y+2020252D01*
X+743324Y+1990348D01*
X+706258Y+1956742D01*
X+672652Y+1919676D01*
X+642748Y+1879389D01*
X+616785Y+1836122D01*
X+595003Y+1790116D01*
X+577643Y+1741610D01*
X+564946Y+1690845D01*
X+557152Y+1638062D01*
X+554500Y+1583500D01*
X+554500Y+1058500D01*
D140*
X+1132250Y+1425250D02*
X+1158625Y+1398875D01*
X+1158625Y+1319750D01*
X+1105875Y+1267000D01*
X+1053125Y+1267000D01*
X+1000375Y+1319750D01*
X+1000375Y+1398875D01*
X+1026750Y+1425250D01*
X+1053125Y+1530750D02*
X+1000375Y+1583500D01*
X+1158625Y+1583500D01*
X+1053125Y+1847250D02*
X+1079500Y+1820875D01*
X+1079500Y+1741750D01*
X+1053125Y+1715375D01*
X+1026750Y+1715375D01*
X+1000375Y+1741750D01*
X+1000375Y+1820875D01*
X+1026750Y+1847250D01*
X+1132250Y+1847250D01*
X+1158625Y+1820875D01*
X+1158625Y+1741750D01*
D119*
X-292500Y+1583500D02*
X-292586Y+1585576D01*
X-293288Y+1589729D01*
X-294758Y+1593882D01*
X-297160Y+1598035D01*
X-300833Y+1602134D01*
X-304986Y+1605143D01*
X-309139Y+1607060D01*
X-313292Y+1608143D01*
X-317445Y+1608500D01*
X-317500Y+1608500D01*
X-342500Y+1583500D02*
X-342414Y+1585576D01*
X-341712Y+1589729D01*
X-340242Y+1593882D01*
X-337840Y+1598035D01*
X-334167Y+1602134D01*
X-330014Y+1605143D01*
X-325861Y+1607060D01*
X-321708Y+1608143D01*
X-317555Y+1608500D01*
X-317500Y+1608500D01*
X-342500Y+1583500D02*
X-342414Y+1581424D01*
X-341712Y+1577271D01*
X-340242Y+1573118D01*
X-337840Y+1568965D01*
X-334167Y+1564866D01*
X-330014Y+1561857D01*
X-325861Y+1559940D01*
X-321708Y+1558857D01*
X-317555Y+1558500D01*
X-317500Y+1558500D01*
X-292500Y+1583500D02*
X-292586Y+1581424D01*
X-293288Y+1577271D01*
X-294758Y+1573118D01*
X-297160Y+1568965D01*
X-300833Y+1564866D01*
X-304986Y+1561857D01*
X-309139Y+1559940D01*
X-313292Y+1558857D01*
X-317445Y+1558500D01*
X-317500Y+1558500D01*
X-317500Y+1618500D02*
X-317500Y+1548500D01*
X-352500Y+1583500D02*
X-282500Y+1583500D01*
X-842500Y+1058500D02*
X-317500Y+1058500D01*
X-262938Y+1061152D01*
X-210155Y+1068946D01*
X-159390Y+1081643D01*
X-110884Y+1099003D01*
X-64878Y+1120785D01*
X-21611Y+1146748D01*
X+18676Y+1176652D01*
X+55742Y+1210258D01*
X+89348Y+1247324D01*
X+119252Y+1287611D01*
X+145215Y+1330878D01*
X+166997Y+1376884D01*
X+184357Y+1425390D01*
X+197054Y+1476155D01*
X+204848Y+1528938D01*
X+207500Y+1583500D01*
X+204848Y+1638062D01*
X+197054Y+1690845D01*
X+184357Y+1741610D01*
X+166997Y+1790116D01*
X+145215Y+1836122D01*
X+119252Y+1879389D01*
X+89348Y+1919676D01*
X+55742Y+1956742D01*
X+18676Y+1990348D01*
X-21611Y+2020252D01*
X-64878Y+2046215D01*
X-110884Y+2067997D01*
X-159390Y+2085357D01*
X-210155Y+2098054D01*
X-262938Y+2105848D01*
X-317500Y+2108500D01*
X-372062Y+2105848D01*
X-424845Y+2098054D01*
X-475610Y+2085357D01*
X-524116Y+2067997D01*
X-570122Y+2046215D01*
X-613389Y+2020252D01*
X-653676Y+1990348D01*
X-690742Y+1956742D01*
X-724348Y+1919676D01*
X-754252Y+1879389D01*
X-780215Y+1836122D01*
X-801997Y+1790116D01*
X-819357Y+1741610D01*
X-832054Y+1690845D01*
X-839848Y+1638062D01*
X-842500Y+1583500D01*
X-842500Y+1058500D01*
D140*
X-264750Y+1425250D02*
X-238375Y+1398875D01*
X-238375Y+1319750D01*
X-291125Y+1267000D01*
X-343875Y+1267000D01*
X-396625Y+1319750D01*
X-396625Y+1398875D01*
X-370250Y+1425250D01*
X-370250Y+1504375D02*
X-396625Y+1530750D01*
X-396625Y+1609875D01*
X-370250Y+1636250D01*
X-343875Y+1636250D01*
X-317500Y+1609875D01*
X-317500Y+1530750D01*
X-291125Y+1504375D01*
X-238375Y+1504375D01*
X-238375Y+1636250D01*
X-264750Y+1689000D02*
X-370250Y+1689000D01*
X-396625Y+1715375D01*
X-396625Y+1820875D01*
X-370250Y+1847250D01*
X-264750Y+1847250D01*
X-238375Y+1820875D01*
X-238375Y+1715375D01*
X-264750Y+1689000D01*
X-238375Y+1689000D02*
X-396625Y+1847250D01*
D119*
X+2501500Y+1587500D02*
X+2501414Y+1589576D01*
X+2500712Y+1593729D01*
X+2499242Y+1597882D01*
X+2496840Y+1602035D01*
X+2493167Y+1606134D01*
X+2489014Y+1609143D01*
X+2484861Y+1611060D01*
X+2480708Y+1612143D01*
X+2476555Y+1612500D01*
X+2476500Y+1612500D01*
X+2451500Y+1587500D02*
X+2451586Y+1589576D01*
X+2452288Y+1593729D01*
X+2453758Y+1597882D01*
X+2456160Y+1602035D01*
X+2459833Y+1606134D01*
X+2463986Y+1609143D01*
X+2468139Y+1611060D01*
X+2472292Y+1612143D01*
X+2476445Y+1612500D01*
X+2476500Y+1612500D01*
X+2451500Y+1587500D02*
X+2451586Y+1585424D01*
X+2452288Y+1581271D01*
X+2453758Y+1577118D01*
X+2456160Y+1572965D01*
X+2459833Y+1568866D01*
X+2463986Y+1565857D01*
X+2468139Y+1563940D01*
X+2472292Y+1562857D01*
X+2476445Y+1562500D01*
X+2476500Y+1562500D01*
X+2501500Y+1587500D02*
X+2501414Y+1585424D01*
X+2500712Y+1581271D01*
X+2499242Y+1577118D01*
X+2496840Y+1572965D01*
X+2493167Y+1568866D01*
X+2489014Y+1565857D01*
X+2484861Y+1563940D01*
X+2480708Y+1562857D01*
X+2476555Y+1562500D01*
X+2476500Y+1562500D01*
X+2476500Y+1622500D02*
X+2476500Y+1552500D01*
X+2441500Y+1587500D02*
X+2511500Y+1587500D01*
X+1951500Y+1062500D02*
X+2476500Y+1062500D01*
X+2531062Y+1065152D01*
X+2583845Y+1072946D01*
X+2634610Y+1085643D01*
X+2683116Y+1103003D01*
X+2729122Y+1124785D01*
X+2772389Y+1150748D01*
X+2812676Y+1180652D01*
X+2849742Y+1214258D01*
X+2883348Y+1251324D01*
X+2913252Y+1291611D01*
X+2939215Y+1334878D01*
X+2960997Y+1380884D01*
X+2978357Y+1429390D01*
X+2991054Y+1480155D01*
X+2998848Y+1532938D01*
X+3001500Y+1587500D01*
X+2998848Y+1642062D01*
X+2991054Y+1694845D01*
X+2978357Y+1745610D01*
X+2960997Y+1794116D01*
X+2939215Y+1840122D01*
X+2913252Y+1883389D01*
X+2883348Y+1923676D01*
X+2849742Y+1960742D01*
X+2812676Y+1994348D01*
X+2772389Y+2024252D01*
X+2729122Y+2050215D01*
X+2683116Y+2071997D01*
X+2634610Y+2089357D01*
X+2583845Y+2102054D01*
X+2531062Y+2109848D01*
X+2476500Y+2112500D01*
X+2421938Y+2109848D01*
X+2369155Y+2102054D01*
X+2318390Y+2089357D01*
X+2269884Y+2071997D01*
X+2223878Y+2050215D01*
X+2180611Y+2024252D01*
X+2140324Y+1994348D01*
X+2103258Y+1960742D01*
X+2069652Y+1923676D01*
X+2039748Y+1883389D01*
X+2013785Y+1840122D01*
X+1992003Y+1794116D01*
X+1974643Y+1745610D01*
X+1961946Y+1694845D01*
X+1954152Y+1642062D01*
X+1951500Y+1587500D01*
X+1951500Y+1062500D01*
D140*
X+2529250Y+1429250D02*
X+2555625Y+1402875D01*
X+2555625Y+1323750D01*
X+2502875Y+1271000D01*
X+2450125Y+1271000D01*
X+2397375Y+1323750D01*
X+2397375Y+1402875D01*
X+2423750Y+1429250D01*
X+2450125Y+1534750D02*
X+2397375Y+1587500D01*
X+2555625Y+1587500D01*
X+2397375Y+1719375D02*
X+2397375Y+1851250D01*
X+2423750Y+1851250D01*
X+2555625Y+1719375D01*
D52*
X+3950130Y-5780100D02*
X+3950130Y-6031560D01*
X+5298870Y-6031560D01*
X+5298870Y-5780100D01*
X+3950130Y-5780100D01*
X+3950130Y-6031560D01*
X+5298870Y-6031560D01*
X+5298870Y-5780100D01*
X+3950130Y-5780100D01*
D138*
X+4464480Y-5937834D02*
X+4448478Y-5953836D01*
X+4400472Y-5953836D01*
X+4368468Y-5921832D01*
X+4368468Y-5889828D01*
X+4400472Y-5857824D01*
X+4448478Y-5857824D01*
X+4464480Y-5873826D01*
X+4496484Y-5889828D02*
X+4528488Y-5857824D01*
X+4560492Y-5857824D01*
X+4592496Y-5889828D01*
X+4592496Y-5921832D01*
X+4560492Y-5953836D01*
X+4528488Y-5953836D01*
X+4496484Y-5921832D01*
X+4496484Y-5889828D01*
X+4624500Y-5953836D02*
X+4624500Y-5857824D01*
X+4720512Y-5953836D01*
X+4720512Y-5857824D01*
X+4784520Y-5889828D02*
X+4816524Y-5857824D01*
X+4816524Y-5953836D01*
D52*
X+5512130Y-5780100D02*
X+5512130Y-6031560D01*
X+6860870Y-6031560D01*
X+6860870Y-5780100D01*
X+5512130Y-5780100D01*
X+5512130Y-6031560D01*
X+6860870Y-6031560D01*
X+6860870Y-5780100D01*
X+5512130Y-5780100D01*
D138*
X+6026480Y-5937834D02*
X+6010478Y-5953836D01*
X+5962472Y-5953836D01*
X+5930468Y-5921832D01*
X+5930468Y-5889828D01*
X+5962472Y-5857824D01*
X+6010478Y-5857824D01*
X+6026480Y-5873826D01*
X+6058484Y-5889828D02*
X+6090488Y-5857824D01*
X+6122492Y-5857824D01*
X+6154496Y-5889828D01*
X+6154496Y-5921832D01*
X+6122492Y-5953836D01*
X+6090488Y-5953836D01*
X+6058484Y-5921832D01*
X+6058484Y-5889828D01*
X+6186500Y-5953836D02*
X+6186500Y-5857824D01*
X+6282512Y-5953836D01*
X+6282512Y-5857824D01*
X+6330518Y-5873826D02*
X+6346520Y-5857824D01*
X+6394526Y-5857824D01*
X+6410528Y-5873826D01*
X+6410528Y-5889828D01*
X+6394526Y-5905830D01*
X+6346520Y-5905830D01*
X+6330518Y-5921832D01*
X+6330518Y-5953836D01*
X+6410528Y-5953836D01*
D52*
X+5537630Y-5145100D02*
X+5537630Y-5396560D01*
X+6886370Y-5396560D01*
X+6886370Y-5145100D01*
X+5537630Y-5145100D01*
X+5537630Y-5396560D01*
X+6886370Y-5396560D01*
X+6886370Y-5145100D01*
X+5537630Y-5145100D01*
D138*
X+6019976Y-5318836D02*
X+6019976Y-5222824D01*
X+6099986Y-5222824D01*
X+6115988Y-5238826D01*
X+6115988Y-5254828D01*
X+6099986Y-5270830D01*
X+6019976Y-5270830D01*
X+6147992Y-5222824D02*
X+6147992Y-5318836D01*
X+6195998Y-5270830D01*
X+6244004Y-5318836D01*
X+6244004Y-5222824D01*
X+6276008Y-5318836D02*
X+6276008Y-5222824D01*
X+6324014Y-5270830D01*
X+6372020Y-5222824D01*
X+6372020Y-5318836D01*
D52*
X+1227481Y-5760720D02*
X+1227481Y-6050280D01*
X+1817981Y-6050280D01*
X+1817981Y-5760720D01*
X+1227481Y-5760720D01*
X+1227481Y-6050280D01*
X+1817981Y-6050280D01*
X+1817981Y-5760720D01*
X+1227481Y-5760720D01*
D141*
X+1334280Y-5912231D02*
X+1347741Y-5912231D01*
X+1347741Y-5925692D01*
X+1320819Y-5925692D01*
X+1307359Y-5912231D01*
X+1307359Y-5898770D01*
X+1320819Y-5885309D01*
X+1341010Y-5885309D01*
X+1347741Y-5892040D01*
X+1361202Y-5932422D02*
X+1401584Y-5932422D01*
X+1455427Y-5885309D02*
X+1421775Y-5885309D01*
X+1421775Y-5898770D01*
X+1448696Y-5898770D01*
X+1455427Y-5905500D01*
X+1455427Y-5918961D01*
X+1448696Y-5925692D01*
X+1428505Y-5925692D01*
X+1421775Y-5918961D01*
X+1468888Y-5885309D02*
X+1468888Y-5905500D01*
X+1489079Y-5925692D01*
X+1509270Y-5905500D01*
X+1509270Y-5885309D01*
X+1522731Y-5932422D02*
X+1563113Y-5932422D01*
X+1583304Y-5892040D02*
X+1590034Y-5885309D01*
X+1610225Y-5885309D01*
X+1616956Y-5892040D01*
X+1616956Y-5898770D01*
X+1610225Y-5905500D01*
X+1616956Y-5912231D01*
X+1616956Y-5918961D01*
X+1610225Y-5925692D01*
X+1590034Y-5925692D01*
X+1583304Y-5918961D01*
X+1596765Y-5905500D02*
X+1610225Y-5905500D01*
X+1630417Y-5885309D02*
X+1630417Y-5905500D01*
X+1650608Y-5925692D01*
X+1670799Y-5905500D01*
X+1670799Y-5885309D01*
X+1690990Y-5892040D02*
X+1697720Y-5885309D01*
X+1717911Y-5885309D01*
X+1724642Y-5892040D01*
X+1724642Y-5898770D01*
X+1717911Y-5905500D01*
X+1724642Y-5912231D01*
X+1724642Y-5918961D01*
X+1717911Y-5925692D01*
X+1697720Y-5925692D01*
X+1690990Y-5918961D01*
X+1704451Y-5905500D02*
X+1717911Y-5905500D01*
D119*
X+1739500Y-3488500D02*
X+1739414Y-3486424D01*
X+1738712Y-3482271D01*
X+1737242Y-3478118D01*
X+1734840Y-3473965D01*
X+1731167Y-3469866D01*
X+1727014Y-3466857D01*
X+1722861Y-3464940D01*
X+1718708Y-3463857D01*
X+1714555Y-3463500D01*
X+1714500Y-3463500D01*
X+1689500Y-3488500D02*
X+1689586Y-3486424D01*
X+1690288Y-3482271D01*
X+1691758Y-3478118D01*
X+1694160Y-3473965D01*
X+1697833Y-3469866D01*
X+1701986Y-3466857D01*
X+1706139Y-3464940D01*
X+1710292Y-3463857D01*
X+1714445Y-3463500D01*
X+1714500Y-3463500D01*
X+1689500Y-3488500D02*
X+1689586Y-3490576D01*
X+1690288Y-3494729D01*
X+1691758Y-3498882D01*
X+1694160Y-3503035D01*
X+1697833Y-3507134D01*
X+1701986Y-3510143D01*
X+1706139Y-3512060D01*
X+1710292Y-3513143D01*
X+1714445Y-3513500D01*
X+1714500Y-3513500D01*
X+1739500Y-3488500D02*
X+1739414Y-3490576D01*
X+1738712Y-3494729D01*
X+1737242Y-3498882D01*
X+1734840Y-3503035D01*
X+1731167Y-3507134D01*
X+1727014Y-3510143D01*
X+1722861Y-3512060D01*
X+1718708Y-3513143D01*
X+1714555Y-3513500D01*
X+1714500Y-3513500D01*
X+1714500Y-3453500D02*
X+1714500Y-3523500D01*
X+1679500Y-3488500D02*
X+1749500Y-3488500D01*
X+1189500Y-4013500D02*
X+1714500Y-4013500D01*
X+1769062Y-4010848D01*
X+1821845Y-4003054D01*
X+1872610Y-3990357D01*
X+1921116Y-3972997D01*
X+1967122Y-3951215D01*
X+2010389Y-3925252D01*
X+2050676Y-3895348D01*
X+2087742Y-3861742D01*
X+2121348Y-3824676D01*
X+2151252Y-3784389D01*
X+2177215Y-3741122D01*
X+2198997Y-3695116D01*
X+2216357Y-3646610D01*
X+2229054Y-3595845D01*
X+2236848Y-3543062D01*
X+2239500Y-3488500D01*
X+2236848Y-3433938D01*
X+2229054Y-3381155D01*
X+2216357Y-3330390D01*
X+2198997Y-3281884D01*
X+2177215Y-3235878D01*
X+2151252Y-3192611D01*
X+2121348Y-3152324D01*
X+2087742Y-3115258D01*
X+2050676Y-3081652D01*
X+2010389Y-3051748D01*
X+1967122Y-3025785D01*
X+1921116Y-3004003D01*
X+1872610Y-2986643D01*
X+1821845Y-2973946D01*
X+1769062Y-2966152D01*
X+1714500Y-2963500D01*
X+1659938Y-2966152D01*
X+1607155Y-2973946D01*
X+1556390Y-2986643D01*
X+1507884Y-3004003D01*
X+1461878Y-3025785D01*
X+1418611Y-3051748D01*
X+1378324Y-3081652D01*
X+1341258Y-3115258D01*
X+1307652Y-3152324D01*
X+1277748Y-3192611D01*
X+1251785Y-3235878D01*
X+1230003Y-3281884D01*
X+1212643Y-3330390D01*
X+1199946Y-3381155D01*
X+1192152Y-3433938D01*
X+1189500Y-3488500D01*
X+1189500Y-4013500D01*
D142*
X+1784834Y-3558833D02*
X+1820000Y-3594000D01*
X+1820000Y-3699499D01*
X+1749667Y-3769832D01*
X+1679334Y-3769832D01*
X+1609001Y-3699499D01*
X+1609001Y-3594000D01*
X+1644167Y-3558833D01*
X+1644167Y-3453334D02*
X+1609001Y-3418167D01*
X+1609001Y-3312668D01*
X+1644167Y-3277501D01*
X+1679334Y-3277501D01*
X+1714500Y-3312668D01*
X+1714500Y-3418167D01*
X+1749667Y-3453334D01*
X+1820000Y-3453334D01*
X+1820000Y-3277501D01*
D48*
X+1760965Y-2374900D02*
X+2903965Y-2374900D01*
X+2903965Y-508000D01*
X+1760965Y-508000D01*
X+1760965Y-2374900D01*
D143*
X+2270235Y-1939290D02*
X+2145775Y-1814830D01*
X+2145775Y-1690370D01*
X+2270235Y-1565910D01*
X+2394695Y-1565910D01*
X+2519155Y-1690370D01*
X+2519155Y-1814830D01*
X+2394695Y-1939290D01*
X+2270235Y-1939290D01*
X+2394695Y-1690370D02*
X+2519155Y-1565910D01*
X+2394695Y-1068070D02*
X+2394695Y-1441450D01*
X+2145775Y-1192530D01*
X+2519155Y-1192530D01*
D48*
X+1524000Y-889000D02*
X+2667000Y-889000D01*
X+2667000Y+977900D01*
X+1524000Y+977900D01*
X+1524000Y-889000D01*
D144*
X+2048827Y-515620D02*
X+1955482Y-422275D01*
X+1955482Y-328930D01*
X+2048827Y-235585D01*
X+2142172Y-235585D01*
X+2235517Y-328930D01*
X+2235517Y-422275D01*
X+2142172Y-515620D01*
X+2048827Y-515620D01*
X+2142172Y-328930D02*
X+2235517Y-235585D01*
X+2048827Y-48895D02*
X+1955482Y+44450D01*
X+2235517Y+44450D01*
X+1955482Y+511175D02*
X+1955482Y+277812D01*
X+2048827Y+277812D01*
X+2048827Y+464502D01*
X+2095500Y+511175D01*
X+2188845Y+511175D01*
X+2235517Y+464502D01*
X+2235517Y+324485D01*
X+2188845Y+277812D01*
D48*
X+2794000Y-876300D02*
X+3937000Y-876300D01*
X+3937000Y+990600D01*
X+2794000Y+990600D01*
X+2794000Y-876300D01*
D143*
X+3303270Y-440690D02*
X+3178810Y-316230D01*
X+3178810Y-191770D01*
X+3303270Y-67310D01*
X+3427730Y-67310D01*
X+3552190Y-191770D01*
X+3552190Y-316230D01*
X+3427730Y-440690D01*
X+3303270Y-440690D01*
X+3427730Y-191770D02*
X+3552190Y-67310D01*
X+3241040Y+119380D02*
X+3178810Y+181610D01*
X+3178810Y+368300D01*
X+3241040Y+430530D01*
X+3303270Y+430530D01*
X+3365500Y+368300D01*
X+3365500Y+181610D01*
X+3427730Y+119380D01*
X+3552190Y+119380D01*
X+3552190Y+430530D01*
D48*
X+3429000Y-2832100D02*
X+4572000Y-2832100D01*
X+4572000Y-965200D01*
X+3429000Y-965200D01*
X+3429000Y-2832100D01*
D143*
X+3938270Y-2396490D02*
X+3813810Y-2272030D01*
X+3813810Y-2147570D01*
X+3938270Y-2023110D01*
X+4062730Y-2023110D01*
X+4187190Y-2147570D01*
X+4187190Y-2272030D01*
X+4062730Y-2396490D01*
X+3938270Y-2396490D01*
X+4062730Y-2147570D02*
X+4187190Y-2023110D01*
X+3876040Y-1525270D02*
X+3813810Y-1587500D01*
X+3813810Y-1774190D01*
X+3876040Y-1836420D01*
X+4124960Y-1836420D01*
X+4187190Y-1774190D01*
X+4187190Y-1587500D01*
X+4124960Y-1525270D01*
X+4062730Y-1525270D01*
X+4000500Y-1587500D01*
X+4000500Y-1836420D01*
D48*
X+5130800Y-876300D02*
X+6273800Y-876300D01*
X+6273800Y+990600D01*
X+5130800Y+990600D01*
X+5130800Y-876300D01*
D143*
X+5640070Y-440690D02*
X+5515610Y-316230D01*
X+5515610Y-191770D01*
X+5640070Y-67310D01*
X+5764530Y-67310D01*
X+5888990Y-191770D01*
X+5888990Y-316230D01*
X+5764530Y-440690D01*
X+5640070Y-440690D01*
X+5764530Y-191770D02*
X+5888990Y-67310D01*
X+5515610Y+119380D02*
X+5515610Y+430530D01*
X+5577840Y+430530D01*
X+5888990Y+119380D01*
D48*
X+5778500Y-2832100D02*
X+6921500Y-2832100D01*
X+6921500Y-965200D01*
X+5778500Y-965200D01*
X+5778500Y-2832100D01*
D143*
X+6287770Y-2396490D02*
X+6163310Y-2272030D01*
X+6163310Y-2147570D01*
X+6287770Y-2023110D01*
X+6412230Y-2023110D01*
X+6536690Y-2147570D01*
X+6536690Y-2272030D01*
X+6412230Y-2396490D01*
X+6287770Y-2396490D01*
X+6412230Y-2147570D02*
X+6536690Y-2023110D01*
X+6350000Y-1774190D02*
X+6287770Y-1836420D01*
X+6225540Y-1836420D01*
X+6163310Y-1774190D01*
X+6163310Y-1587500D01*
X+6225540Y-1525270D01*
X+6287770Y-1525270D01*
X+6350000Y-1587500D01*
X+6350000Y-1774190D01*
X+6412230Y-1836420D01*
X+6474460Y-1836420D01*
X+6536690Y-1774190D01*
X+6536690Y-1587500D01*
X+6474460Y-1525270D01*
X+6412230Y-1525270D01*
X+6350000Y-1587500D01*
D48*
X+7416800Y-876300D02*
X+8559800Y-876300D01*
X+8559800Y+990600D01*
X+7416800Y+990600D01*
X+7416800Y-876300D01*
D143*
X+7926070Y-440690D02*
X+7801610Y-316230D01*
X+7801610Y-191770D01*
X+7926070Y-67310D01*
X+8050530Y-67310D01*
X+8174990Y-191770D01*
X+8174990Y-316230D01*
X+8050530Y-440690D01*
X+7926070Y-440690D01*
X+8050530Y-191770D02*
X+8174990Y-67310D01*
X+7926070Y+430530D02*
X+7988300Y+368300D01*
X+7988300Y+181610D01*
X+7926070Y+119380D01*
X+7863840Y+119380D01*
X+7801610Y+181610D01*
X+7801610Y+368300D01*
X+7863840Y+430530D01*
X+8112760Y+430530D01*
X+8174990Y+368300D01*
X+8174990Y+181610D01*
D48*
X+8064500Y-2832100D02*
X+9207500Y-2832100D01*
X+9207500Y-965200D01*
X+8064500Y-965200D01*
X+8064500Y-2832100D01*
D144*
X+8589327Y-2458720D02*
X+8495982Y-2365375D01*
X+8495982Y-2272030D01*
X+8589327Y-2178685D01*
X+8682672Y-2178685D01*
X+8776017Y-2272030D01*
X+8776017Y-2365375D01*
X+8682672Y-2458720D01*
X+8589327Y-2458720D01*
X+8682672Y-2272030D02*
X+8776017Y-2178685D01*
X+8589327Y-1991995D02*
X+8495982Y-1898650D01*
X+8776017Y-1898650D01*
X+8729345Y-1711960D02*
X+8542655Y-1711960D01*
X+8495982Y-1665288D01*
X+8495982Y-1478598D01*
X+8542655Y-1431925D01*
X+8729345Y-1431925D01*
X+8776017Y-1478598D01*
X+8776017Y-1665288D01*
X+8729345Y-1711960D01*
X+8776017Y-1711960D02*
X+8495982Y-1431925D01*
D119*
X+3359500Y-4571300D02*
X+2899500Y-4571300D01*
X+2899500Y-4801300D01*
X+3359500Y-4801300D01*
X+3359500Y-4571300D01*
X+3129500Y-4736300D02*
X+3129500Y-4636300D01*
X+3079500Y-4686300D02*
X+3179500Y-4686300D01*
D145*
X+2970074Y-4706229D02*
X+2970074Y-4666372D01*
X+3003287Y-4666372D01*
X+3009930Y-4673015D01*
X+3009930Y-4679658D01*
X+3003287Y-4686300D01*
X+2970074Y-4686300D01*
X+3003287Y-4686300D02*
X+3009930Y-4692943D01*
X+3009930Y-4706229D01*
X+3029858Y-4673015D02*
X+3036501Y-4666372D01*
X+3056429Y-4666372D01*
X+3063072Y-4673015D01*
X+3063072Y-4679658D01*
X+3056429Y-4686300D01*
X+3036501Y-4686300D01*
X+3029858Y-4692943D01*
X+3029858Y-4706229D01*
X+3063072Y-4706229D01*
X+3076358Y-4706229D02*
X+3076358Y-4679658D01*
X+3089643Y-4666372D01*
X+3102929Y-4666372D01*
X+3116214Y-4679658D01*
X+3116214Y-4706229D01*
X+3076358Y-4692943D02*
X+3116214Y-4692943D01*
X+3129500Y-4666372D02*
X+3129500Y-4699586D01*
X+3136142Y-4706229D01*
X+3162713Y-4706229D01*
X+3169356Y-4699586D01*
X+3169356Y-4666372D01*
X+3195927Y-4679658D02*
X+3209213Y-4666372D01*
X+3209213Y-4706229D01*
X+3249069Y-4679658D02*
X+3262355Y-4666372D01*
X+3262355Y-4706229D01*
D119*
X+2696300Y-5042600D02*
X+3156300Y-5042600D01*
X+3156300Y-4812600D01*
X+2696300Y-4812600D01*
X+2696300Y-5042600D01*
X+2926300Y-4877600D02*
X+2926300Y-4977600D01*
X+2976300Y-4927600D02*
X+2876300Y-4927600D01*
D145*
X+2766874Y-4947529D02*
X+2766874Y-4907672D01*
X+2800087Y-4907672D01*
X+2806730Y-4914315D01*
X+2806730Y-4920958D01*
X+2800087Y-4927600D01*
X+2766874Y-4927600D01*
X+2800087Y-4927600D02*
X+2806730Y-4934243D01*
X+2806730Y-4947529D01*
X+2826658Y-4914315D02*
X+2833301Y-4907672D01*
X+2853229Y-4907672D01*
X+2859872Y-4914315D01*
X+2859872Y-4920958D01*
X+2853229Y-4927600D01*
X+2833301Y-4927600D01*
X+2826658Y-4934243D01*
X+2826658Y-4947529D01*
X+2859872Y-4947529D01*
X+2873158Y-4947529D02*
X+2873158Y-4907672D01*
X+2906371Y-4907672D01*
X+2913014Y-4914315D01*
X+2913014Y-4920958D01*
X+2906371Y-4927600D01*
X+2913014Y-4934243D01*
X+2913014Y-4940886D01*
X+2906371Y-4947529D01*
X+2873158Y-4947529D01*
X+2873158Y-4927600D02*
X+2906371Y-4927600D01*
X+2926300Y-4907672D02*
X+2926300Y-4940886D01*
X+2932942Y-4947529D01*
X+2959513Y-4947529D01*
X+2966156Y-4940886D01*
X+2966156Y-4907672D01*
X+2992727Y-4920958D02*
X+3006013Y-4907672D01*
X+3006013Y-4947529D01*
X+3045869Y-4920958D02*
X+3059155Y-4907672D01*
X+3059155Y-4947529D01*
D119*
X+465500Y-1905000D02*
X+465414Y-1902924D01*
X+464712Y-1898771D01*
X+463242Y-1894618D01*
X+460840Y-1890465D01*
X+457167Y-1886366D01*
X+453014Y-1883357D01*
X+448861Y-1881440D01*
X+444708Y-1880357D01*
X+440555Y-1880000D01*
X+440500Y-1880000D01*
X+415500Y-1905000D02*
X+415586Y-1902924D01*
X+416288Y-1898771D01*
X+417758Y-1894618D01*
X+420160Y-1890465D01*
X+423833Y-1886366D01*
X+427986Y-1883357D01*
X+432139Y-1881440D01*
X+436292Y-1880357D01*
X+440445Y-1880000D01*
X+440500Y-1880000D01*
X+415500Y-1905000D02*
X+415586Y-1907076D01*
X+416288Y-1911229D01*
X+417758Y-1915382D01*
X+420160Y-1919535D01*
X+423833Y-1923634D01*
X+427986Y-1926643D01*
X+432139Y-1928560D01*
X+436292Y-1929643D01*
X+440445Y-1930000D01*
X+440500Y-1930000D01*
X+465500Y-1905000D02*
X+465414Y-1907076D01*
X+464712Y-1911229D01*
X+463242Y-1915382D01*
X+460840Y-1919535D01*
X+457167Y-1923634D01*
X+453014Y-1926643D01*
X+448861Y-1928560D01*
X+444708Y-1929643D01*
X+440555Y-1930000D01*
X+440500Y-1930000D01*
X+475500Y-1905000D02*
X+405500Y-1905000D01*
X+440500Y-1870000D02*
X+440500Y-1940000D01*
X+15500Y-1480000D02*
X+15500Y-1905000D01*
X+17646Y-1949169D01*
X+23956Y-1991899D01*
X+34235Y-2032994D01*
X+48288Y-2072261D01*
X+65921Y-2109504D01*
X+86939Y-2144529D01*
X+111147Y-2177142D01*
X+138352Y-2207148D01*
X+168358Y-2234353D01*
X+200971Y-2258561D01*
X+235996Y-2279579D01*
X+273240Y-2297212D01*
X+312506Y-2311265D01*
X+353601Y-2321544D01*
X+396331Y-2327853D01*
X+440500Y-2330000D01*
X+484669Y-2327853D01*
X+527399Y-2321544D01*
X+568494Y-2311265D01*
X+607760Y-2297212D01*
X+645004Y-2279579D01*
X+680029Y-2258561D01*
X+712642Y-2234353D01*
X+742648Y-2207148D01*
X+769853Y-2177142D01*
X+794061Y-2144529D01*
X+815079Y-2109504D01*
X+832712Y-2072261D01*
X+846765Y-2032994D01*
X+857044Y-1991899D01*
X+863354Y-1949169D01*
X+865500Y-1905000D01*
X+863354Y-1860831D01*
X+857044Y-1818101D01*
X+846765Y-1777006D01*
X+832712Y-1737739D01*
X+815079Y-1700496D01*
X+794061Y-1665471D01*
X+769853Y-1632858D01*
X+742648Y-1602852D01*
X+712642Y-1575647D01*
X+680029Y-1551439D01*
X+645004Y-1530421D01*
X+607760Y-1512788D01*
X+568494Y-1498735D01*
X+527399Y-1488456D01*
X+484669Y-1482147D01*
X+440500Y-1480000D01*
X+15500Y-1480000D01*
D146*
X+312250Y-1947750D02*
X+290875Y-1969125D01*
X+226750Y-1969125D01*
X+184000Y-1926375D01*
X+184000Y-1883625D01*
X+226750Y-1840875D01*
X+290875Y-1840875D01*
X+312250Y-1862250D01*
X+397750Y-1883625D02*
X+440500Y-1840875D01*
X+440500Y-1969125D01*
X+568750Y-1883625D02*
X+611500Y-1840875D01*
X+611500Y-1969125D01*
D119*
X+469500Y-3048000D02*
X+469414Y-3045924D01*
X+468712Y-3041771D01*
X+467242Y-3037618D01*
X+464840Y-3033465D01*
X+461167Y-3029366D01*
X+457014Y-3026357D01*
X+452861Y-3024440D01*
X+448708Y-3023357D01*
X+444555Y-3023000D01*
X+444500Y-3023000D01*
X+419500Y-3048000D02*
X+419586Y-3045924D01*
X+420288Y-3041771D01*
X+421758Y-3037618D01*
X+424160Y-3033465D01*
X+427833Y-3029366D01*
X+431986Y-3026357D01*
X+436139Y-3024440D01*
X+440292Y-3023357D01*
X+444445Y-3023000D01*
X+444500Y-3023000D01*
X+419500Y-3048000D02*
X+419586Y-3050076D01*
X+420288Y-3054229D01*
X+421758Y-3058382D01*
X+424160Y-3062535D01*
X+427833Y-3066634D01*
X+431986Y-3069643D01*
X+436139Y-3071560D01*
X+440292Y-3072643D01*
X+444445Y-3073000D01*
X+444500Y-3073000D01*
X+469500Y-3048000D02*
X+469414Y-3050076D01*
X+468712Y-3054229D01*
X+467242Y-3058382D01*
X+464840Y-3062535D01*
X+461167Y-3066634D01*
X+457014Y-3069643D01*
X+452861Y-3071560D01*
X+448708Y-3072643D01*
X+444555Y-3073000D01*
X+444500Y-3073000D01*
X+479500Y-3048000D02*
X+409500Y-3048000D01*
X+444500Y-3013000D02*
X+444500Y-3083000D01*
X+19500Y-2623000D02*
X+19500Y-3048000D01*
X+21646Y-3092169D01*
X+27956Y-3134899D01*
X+38235Y-3175994D01*
X+52288Y-3215261D01*
X+69921Y-3252504D01*
X+90939Y-3287529D01*
X+115147Y-3320142D01*
X+142352Y-3350148D01*
X+172358Y-3377353D01*
X+204971Y-3401561D01*
X+239996Y-3422579D01*
X+277240Y-3440212D01*
X+316506Y-3454265D01*
X+357601Y-3464544D01*
X+400331Y-3470853D01*
X+444500Y-3473000D01*
X+488669Y-3470853D01*
X+531399Y-3464544D01*
X+572494Y-3454265D01*
X+611760Y-3440212D01*
X+649004Y-3422579D01*
X+684029Y-3401561D01*
X+716642Y-3377353D01*
X+746648Y-3350148D01*
X+773853Y-3320142D01*
X+798061Y-3287529D01*
X+819079Y-3252504D01*
X+836712Y-3215261D01*
X+850765Y-3175994D01*
X+861044Y-3134899D01*
X+867354Y-3092169D01*
X+869500Y-3048000D01*
X+867354Y-3003831D01*
X+861044Y-2961101D01*
X+850765Y-2920006D01*
X+836712Y-2880739D01*
X+819079Y-2843496D01*
X+798061Y-2808471D01*
X+773853Y-2775858D01*
X+746648Y-2745852D01*
X+716642Y-2718647D01*
X+684029Y-2694439D01*
X+649004Y-2673421D01*
X+611760Y-2655788D01*
X+572494Y-2641735D01*
X+531399Y-2631456D01*
X+488669Y-2625147D01*
X+444500Y-2623000D01*
X+19500Y-2623000D01*
D146*
X+316250Y-3090750D02*
X+294875Y-3112125D01*
X+230750Y-3112125D01*
X+188000Y-3069375D01*
X+188000Y-3026625D01*
X+230750Y-2983875D01*
X+294875Y-2983875D01*
X+316250Y-3005250D01*
X+401750Y-3026625D02*
X+444500Y-2983875D01*
X+444500Y-3112125D01*
X+551375Y-3005250D02*
X+572750Y-2983875D01*
X+636875Y-2983875D01*
X+658250Y-3005250D01*
X+658250Y-3026625D01*
X+636875Y-3048000D01*
X+658250Y-3069375D01*
X+658250Y-3090750D01*
X+636875Y-3112125D01*
X+572750Y-3112125D01*
X+551375Y-3090750D01*
X+594125Y-3048000D02*
X+636875Y-3048000D01*
D119*
X+914000Y-4279900D02*
X+913914Y-4277824D01*
X+913212Y-4273671D01*
X+911742Y-4269518D01*
X+909340Y-4265365D01*
X+905667Y-4261266D01*
X+901514Y-4258257D01*
X+897361Y-4256340D01*
X+893208Y-4255257D01*
X+889055Y-4254900D01*
X+889000Y-4254900D01*
X+864000Y-4279900D02*
X+864086Y-4277824D01*
X+864788Y-4273671D01*
X+866258Y-4269518D01*
X+868660Y-4265365D01*
X+872333Y-4261266D01*
X+876486Y-4258257D01*
X+880639Y-4256340D01*
X+884792Y-4255257D01*
X+888945Y-4254900D01*
X+889000Y-4254900D01*
X+864000Y-4279900D02*
X+864086Y-4281976D01*
X+864788Y-4286129D01*
X+866258Y-4290282D01*
X+868660Y-4294435D01*
X+872333Y-4298534D01*
X+876486Y-4301543D01*
X+880639Y-4303460D01*
X+884792Y-4304543D01*
X+888945Y-4304900D01*
X+889000Y-4304900D01*
X+914000Y-4279900D02*
X+913914Y-4281976D01*
X+913212Y-4286129D01*
X+911742Y-4290282D01*
X+909340Y-4294435D01*
X+905667Y-4298534D01*
X+901514Y-4301543D01*
X+897361Y-4303460D01*
X+893208Y-4304543D01*
X+889055Y-4304900D01*
X+889000Y-4304900D01*
X+889000Y-4314900D02*
X+889000Y-4244900D01*
X+924000Y-4279900D02*
X+854000Y-4279900D01*
X+1314000Y-3854900D02*
X+889000Y-3854900D01*
X+844831Y-3857047D01*
X+802101Y-3863356D01*
X+761006Y-3873635D01*
X+721740Y-3887688D01*
X+684496Y-3905321D01*
X+649471Y-3926339D01*
X+616858Y-3950547D01*
X+586852Y-3977752D01*
X+559647Y-4007758D01*
X+535439Y-4040371D01*
X+514421Y-4075396D01*
X+496788Y-4112639D01*
X+482735Y-4151906D01*
X+472456Y-4193001D01*
X+466146Y-4235731D01*
X+464000Y-4279900D01*
X+466146Y-4324069D01*
X+472456Y-4366799D01*
X+482735Y-4407894D01*
X+496788Y-4447161D01*
X+514421Y-4484404D01*
X+535439Y-4519429D01*
X+559647Y-4552042D01*
X+586852Y-4582048D01*
X+616858Y-4609253D01*
X+649471Y-4633461D01*
X+684496Y-4654479D01*
X+721740Y-4672112D01*
X+761006Y-4686165D01*
X+802101Y-4696444D01*
X+844831Y-4702753D01*
X+889000Y-4704900D01*
X+933169Y-4702753D01*
X+975899Y-4696444D01*
X+1016994Y-4686165D01*
X+1056260Y-4672112D01*
X+1093504Y-4654479D01*
X+1128529Y-4633461D01*
X+1161142Y-4609253D01*
X+1191148Y-4582048D01*
X+1218353Y-4552042D01*
X+1242561Y-4519429D01*
X+1263579Y-4484404D01*
X+1281212Y-4447161D01*
X+1295265Y-4407894D01*
X+1305544Y-4366799D01*
X+1311854Y-4324069D01*
X+1314000Y-4279900D01*
X+1314000Y-3854900D01*
D146*
X+931750Y-4408150D02*
X+953125Y-4429525D01*
X+953125Y-4493650D01*
X+910375Y-4536400D01*
X+867625Y-4536400D01*
X+824875Y-4493650D01*
X+824875Y-4429525D01*
X+846250Y-4408150D01*
X+867625Y-4322650D02*
X+824875Y-4279900D01*
X+953125Y-4279900D01*
X+910375Y-4066150D02*
X+910375Y-4194400D01*
X+824875Y-4108900D01*
X+953125Y-4108900D01*
D119*
X+469500Y-5334000D02*
X+469414Y-5331924D01*
X+468712Y-5327771D01*
X+467242Y-5323618D01*
X+464840Y-5319465D01*
X+461167Y-5315366D01*
X+457014Y-5312357D01*
X+452861Y-5310440D01*
X+448708Y-5309357D01*
X+444555Y-5309000D01*
X+444500Y-5309000D01*
X+419500Y-5334000D02*
X+419586Y-5331924D01*
X+420288Y-5327771D01*
X+421758Y-5323618D01*
X+424160Y-5319465D01*
X+427833Y-5315366D01*
X+431986Y-5312357D01*
X+436139Y-5310440D01*
X+440292Y-5309357D01*
X+444445Y-5309000D01*
X+444500Y-5309000D01*
X+419500Y-5334000D02*
X+419586Y-5336076D01*
X+420288Y-5340229D01*
X+421758Y-5344382D01*
X+424160Y-5348535D01*
X+427833Y-5352634D01*
X+431986Y-5355643D01*
X+436139Y-5357560D01*
X+440292Y-5358643D01*
X+444445Y-5359000D01*
X+444500Y-5359000D01*
X+469500Y-5334000D02*
X+469414Y-5336076D01*
X+468712Y-5340229D01*
X+467242Y-5344382D01*
X+464840Y-5348535D01*
X+461167Y-5352634D01*
X+457014Y-5355643D01*
X+452861Y-5357560D01*
X+448708Y-5358643D01*
X+444555Y-5359000D01*
X+444500Y-5359000D01*
X+444500Y-5369000D02*
X+444500Y-5299000D01*
X+479500Y-5334000D02*
X+409500Y-5334000D01*
X+869500Y-4909000D02*
X+444500Y-4909000D01*
X+400331Y-4911147D01*
X+357601Y-4917456D01*
X+316506Y-4927735D01*
X+277240Y-4941788D01*
X+239996Y-4959421D01*
X+204971Y-4980439D01*
X+172358Y-5004647D01*
X+142352Y-5031852D01*
X+115147Y-5061858D01*
X+90939Y-5094471D01*
X+69921Y-5129496D01*
X+52288Y-5166739D01*
X+38235Y-5206006D01*
X+27956Y-5247101D01*
X+21646Y-5289831D01*
X+19500Y-5334000D01*
X+21646Y-5378169D01*
X+27956Y-5420899D01*
X+38235Y-5461994D01*
X+52288Y-5501261D01*
X+69921Y-5538504D01*
X+90939Y-5573529D01*
X+115147Y-5606142D01*
X+142352Y-5636148D01*
X+172358Y-5663353D01*
X+204971Y-5687561D01*
X+239996Y-5708579D01*
X+277240Y-5726212D01*
X+316506Y-5740265D01*
X+357601Y-5750544D01*
X+400331Y-5756853D01*
X+444500Y-5759000D01*
X+488669Y-5756853D01*
X+531399Y-5750544D01*
X+572494Y-5740265D01*
X+611760Y-5726212D01*
X+649004Y-5708579D01*
X+684029Y-5687561D01*
X+716642Y-5663353D01*
X+746648Y-5636148D01*
X+773853Y-5606142D01*
X+798061Y-5573529D01*
X+819079Y-5538504D01*
X+836712Y-5501261D01*
X+850765Y-5461994D01*
X+861044Y-5420899D01*
X+867354Y-5378169D01*
X+869500Y-5334000D01*
X+869500Y-4909000D01*
D146*
X+487250Y-5462250D02*
X+508625Y-5483625D01*
X+508625Y-5547750D01*
X+465875Y-5590500D01*
X+423125Y-5590500D01*
X+380375Y-5547750D01*
X+380375Y-5483625D01*
X+401750Y-5462250D01*
X+423125Y-5376750D02*
X+380375Y-5334000D01*
X+508625Y-5334000D01*
X+401750Y-5227125D02*
X+380375Y-5205750D01*
X+380375Y-5141625D01*
X+401750Y-5120250D01*
X+423125Y-5120250D01*
X+444500Y-5141625D01*
X+444500Y-5205750D01*
X+465875Y-5227125D01*
X+508625Y-5227125D01*
X+508625Y-5120250D01*
M02*
