G04 PROTEUS GERBER X2 FILE*
%TF.GenerationSoftware,Labcenter,Proteus,8.7-SP3-Build25561*%
%TF.CreationDate,2021-07-04T19:39:20+00:00*%
%TF.FileFunction,Legend,Bot*%
%TF.FilePolarity,Positive*%
%TF.Part,Single*%
%TF.SameCoordinates,{804bfe34-88de-486f-8887-f5b9ed786e22}*%
%FSLAX45Y45*%
%MOMM*%
G01*
%TA.AperFunction,Profile*%
%ADD42C,0.203200*%
%TA.AperFunction,Material*%
%ADD50C,0.200000*%
%ADD48C,0.203200*%
%ADD51C,0.508000*%
%ADD54C,0.250000*%
%TD.AperFunction*%
D42*
X-1079500Y-6413500D02*
X+9715500Y-6413500D01*
X+9715500Y+2349500D01*
X-1079500Y+2349500D01*
X-1079500Y-6413500D01*
D50*
X+2503000Y-811000D02*
X+2503000Y-921000D01*
X+2323000Y-811000D02*
X+2323000Y-921000D01*
X+2503000Y-313000D02*
X+2503000Y-413000D01*
X+2323000Y-313000D02*
X+2323000Y-413000D01*
X+2757000Y-303000D02*
X+2757000Y-413000D01*
X+2577000Y-303000D02*
X+2577000Y-413000D01*
X+2757000Y-821000D02*
X+2757000Y-921000D01*
X+2577000Y-821000D02*
X+2577000Y-921000D01*
D48*
X-228600Y-4445000D02*
X-228600Y-4521200D01*
X-863600Y-4521200D01*
X-863600Y-4445000D01*
X-508000Y-4521200D02*
X-508000Y-4572000D01*
X-584200Y-4572000D01*
X-584200Y-4521200D01*
X-279400Y-4521200D02*
X-279400Y-4597400D01*
X-342900Y-4597400D01*
X-342900Y-4521200D01*
X-812800Y-4521200D02*
X-812800Y-4597400D01*
X-749300Y-4597400D01*
X-749300Y-4521200D02*
X-749300Y-4597400D01*
X+609600Y-4445000D02*
X+609600Y-4521200D01*
X-25400Y-4521200D01*
X-25400Y-4445000D01*
X+330200Y-4521200D02*
X+330200Y-4572000D01*
X+254000Y-4572000D01*
X+254000Y-4521200D01*
X+558800Y-4521200D02*
X+558800Y-4597400D01*
X+495300Y-4597400D01*
X+495300Y-4521200D01*
X+25400Y-4521200D02*
X+25400Y-4597400D01*
X+88900Y-4597400D01*
X+88900Y-4521200D02*
X+88900Y-4597400D01*
D50*
X-557000Y-5170000D02*
X-667000Y-5170000D01*
X-557000Y-4990000D02*
X-667000Y-4990000D01*
X+382100Y-3389100D02*
X+382100Y-3499100D01*
X+202100Y-3389100D02*
X+202100Y-3499100D01*
X+2757000Y-1301500D02*
X+2757000Y-1411500D01*
X+2577000Y-1301500D02*
X+2577000Y-1411500D01*
X+2503000Y-1809500D02*
X+2503000Y-1919500D01*
X+2323000Y-1809500D02*
X+2323000Y-1919500D01*
X+2757000Y-1809500D02*
X+2757000Y-1909500D01*
X+2577000Y-1809500D02*
X+2577000Y-1909500D01*
X+2503000Y-1301500D02*
X+2503000Y-1401500D01*
X+2323000Y-1301500D02*
X+2323000Y-1401500D01*
X+7063000Y-6249500D02*
X+6953000Y-6249500D01*
X+7063000Y-6069500D02*
X+6953000Y-6069500D01*
X+1602000Y-4344500D02*
X+1492000Y-4344500D01*
X+1602000Y-4164500D02*
X+1492000Y-4164500D01*
D48*
X+83820Y-5407660D02*
X+236220Y-5407660D01*
X+86360Y-5260340D02*
X+236220Y-5260340D01*
X+411480Y-5257801D02*
X+411480Y-5349241D01*
X+474980Y-5349241D01*
X+506730Y-5318761D01*
X+506730Y-5288281D01*
X+474980Y-5257801D01*
X+411480Y-5257801D01*
X+554355Y-5334001D02*
X+570230Y-5349241D01*
X+617855Y-5349241D01*
X+633730Y-5334001D01*
X+633730Y-5318761D01*
X+617855Y-5303521D01*
X+570230Y-5303521D01*
X+554355Y-5288281D01*
X+554355Y-5257801D01*
X+633730Y-5257801D01*
D51*
X+9093200Y-5181500D02*
X+9093069Y-5178342D01*
X+9092003Y-5172024D01*
X+9089772Y-5165706D01*
X+9086127Y-5159388D01*
X+9080552Y-5153149D01*
X+9074234Y-5148553D01*
X+9067916Y-5145620D01*
X+9061598Y-5143958D01*
X+9055280Y-5143400D01*
X+9055100Y-5143400D01*
X+9017000Y-5181500D02*
X+9017131Y-5178342D01*
X+9018197Y-5172024D01*
X+9020428Y-5165706D01*
X+9024073Y-5159388D01*
X+9029648Y-5153149D01*
X+9035966Y-5148553D01*
X+9042284Y-5145620D01*
X+9048602Y-5143958D01*
X+9054920Y-5143400D01*
X+9055100Y-5143400D01*
X+9017000Y-5181500D02*
X+9017131Y-5184658D01*
X+9018197Y-5190976D01*
X+9020428Y-5197294D01*
X+9024073Y-5203612D01*
X+9029648Y-5209851D01*
X+9035966Y-5214447D01*
X+9042284Y-5217380D01*
X+9048602Y-5219042D01*
X+9054920Y-5219600D01*
X+9055100Y-5219600D01*
X+9093200Y-5181500D02*
X+9093069Y-5184658D01*
X+9092003Y-5190976D01*
X+9089772Y-5197294D01*
X+9086127Y-5203612D01*
X+9080552Y-5209851D01*
X+9074234Y-5214447D01*
X+9067916Y-5217380D01*
X+9061598Y-5219042D01*
X+9055280Y-5219600D01*
X+9055100Y-5219600D01*
D50*
X+8159500Y-5434500D02*
X+8259500Y-5434500D01*
X+8159500Y-5614500D02*
X+8259500Y-5614500D01*
X+7288500Y-5480499D02*
X+7388500Y-5480499D01*
X+7288500Y-5660499D02*
X+7388500Y-5660499D01*
X+7647500Y-5465500D02*
X+7647500Y-5365500D01*
X+7827500Y-5465500D02*
X+7827500Y-5365500D01*
X+9279200Y-4151800D02*
X+9379200Y-4151800D01*
X+9279200Y-4331800D02*
X+9379200Y-4331800D01*
X-313000Y-5424000D02*
X-413000Y-5424000D01*
X-313000Y-5244000D02*
X-413000Y-5244000D01*
X+2000000Y-4418500D02*
X+2100000Y-4418500D01*
X+2000000Y-4598500D02*
X+2100000Y-4598500D01*
X+2000000Y-4164500D02*
X+2100000Y-4164500D01*
X+2000000Y-4344500D02*
X+2100000Y-4344500D01*
X+1492000Y-4418500D02*
X+1592000Y-4418500D01*
X+1492000Y-4598500D02*
X+1592000Y-4598500D01*
X+1465000Y-4852500D02*
X+1365000Y-4852500D01*
X+1465000Y-4672500D02*
X+1365000Y-4672500D01*
D51*
X+8394600Y-5715000D02*
X+8394469Y-5711842D01*
X+8393403Y-5705524D01*
X+8391172Y-5699206D01*
X+8387527Y-5692888D01*
X+8381952Y-5686649D01*
X+8375634Y-5682053D01*
X+8369316Y-5679120D01*
X+8362998Y-5677458D01*
X+8356680Y-5676900D01*
X+8356500Y-5676900D01*
X+8318400Y-5715000D02*
X+8318531Y-5711842D01*
X+8319597Y-5705524D01*
X+8321828Y-5699206D01*
X+8325473Y-5692888D01*
X+8331048Y-5686649D01*
X+8337366Y-5682053D01*
X+8343684Y-5679120D01*
X+8350002Y-5677458D01*
X+8356320Y-5676900D01*
X+8356500Y-5676900D01*
X+8318400Y-5715000D02*
X+8318531Y-5718158D01*
X+8319597Y-5724476D01*
X+8321828Y-5730794D01*
X+8325473Y-5737112D01*
X+8331048Y-5743351D01*
X+8337366Y-5747947D01*
X+8343684Y-5750880D01*
X+8350002Y-5752542D01*
X+8356320Y-5753100D01*
X+8356500Y-5753100D01*
X+8394600Y-5715000D02*
X+8394469Y-5718158D01*
X+8393403Y-5724476D01*
X+8391172Y-5730794D01*
X+8387527Y-5737112D01*
X+8381952Y-5743351D01*
X+8375634Y-5747947D01*
X+8369316Y-5750880D01*
X+8362998Y-5752542D01*
X+8356680Y-5753100D01*
X+8356500Y-5753100D01*
X+4162600Y-6096000D02*
X+4162469Y-6092842D01*
X+4161403Y-6086524D01*
X+4159172Y-6080206D01*
X+4155527Y-6073888D01*
X+4149952Y-6067649D01*
X+4143634Y-6063053D01*
X+4137316Y-6060120D01*
X+4130998Y-6058458D01*
X+4124680Y-6057900D01*
X+4124500Y-6057900D01*
X+4086400Y-6096000D02*
X+4086531Y-6092842D01*
X+4087597Y-6086524D01*
X+4089828Y-6080206D01*
X+4093473Y-6073888D01*
X+4099048Y-6067649D01*
X+4105366Y-6063053D01*
X+4111684Y-6060120D01*
X+4118002Y-6058458D01*
X+4124320Y-6057900D01*
X+4124500Y-6057900D01*
X+4086400Y-6096000D02*
X+4086531Y-6099158D01*
X+4087597Y-6105476D01*
X+4089828Y-6111794D01*
X+4093473Y-6118112D01*
X+4099048Y-6124351D01*
X+4105366Y-6128947D01*
X+4111684Y-6131880D01*
X+4118002Y-6133542D01*
X+4124320Y-6134100D01*
X+4124500Y-6134100D01*
X+4162600Y-6096000D02*
X+4162469Y-6099158D01*
X+4161403Y-6105476D01*
X+4159172Y-6111794D01*
X+4155527Y-6118112D01*
X+4149952Y-6124351D01*
X+4143634Y-6128947D01*
X+4137316Y-6131880D01*
X+4130998Y-6133542D01*
X+4124680Y-6134100D01*
X+4124500Y-6134100D01*
X+5724600Y-6096000D02*
X+5724469Y-6092842D01*
X+5723403Y-6086524D01*
X+5721172Y-6080206D01*
X+5717527Y-6073888D01*
X+5711952Y-6067649D01*
X+5705634Y-6063053D01*
X+5699316Y-6060120D01*
X+5692998Y-6058458D01*
X+5686680Y-6057900D01*
X+5686500Y-6057900D01*
X+5648400Y-6096000D02*
X+5648531Y-6092842D01*
X+5649597Y-6086524D01*
X+5651828Y-6080206D01*
X+5655473Y-6073888D01*
X+5661048Y-6067649D01*
X+5667366Y-6063053D01*
X+5673684Y-6060120D01*
X+5680002Y-6058458D01*
X+5686320Y-6057900D01*
X+5686500Y-6057900D01*
X+5648400Y-6096000D02*
X+5648531Y-6099158D01*
X+5649597Y-6105476D01*
X+5651828Y-6111794D01*
X+5655473Y-6118112D01*
X+5661048Y-6124351D01*
X+5667366Y-6128947D01*
X+5673684Y-6131880D01*
X+5680002Y-6133542D01*
X+5686320Y-6134100D01*
X+5686500Y-6134100D01*
X+5724600Y-6096000D02*
X+5724469Y-6099158D01*
X+5723403Y-6105476D01*
X+5721172Y-6111794D01*
X+5717527Y-6118112D01*
X+5711952Y-6124351D01*
X+5705634Y-6128947D01*
X+5699316Y-6131880D01*
X+5692998Y-6133542D01*
X+5686680Y-6134100D01*
X+5686500Y-6134100D01*
X+5750100Y-5461000D02*
X+5749969Y-5457842D01*
X+5748903Y-5451524D01*
X+5746672Y-5445206D01*
X+5743027Y-5438888D01*
X+5737452Y-5432649D01*
X+5731134Y-5428053D01*
X+5724816Y-5425120D01*
X+5718498Y-5423458D01*
X+5712180Y-5422900D01*
X+5712000Y-5422900D01*
X+5673900Y-5461000D02*
X+5674031Y-5457842D01*
X+5675097Y-5451524D01*
X+5677328Y-5445206D01*
X+5680973Y-5438888D01*
X+5686548Y-5432649D01*
X+5692866Y-5428053D01*
X+5699184Y-5425120D01*
X+5705502Y-5423458D01*
X+5711820Y-5422900D01*
X+5712000Y-5422900D01*
X+5673900Y-5461000D02*
X+5674031Y-5464158D01*
X+5675097Y-5470476D01*
X+5677328Y-5476794D01*
X+5680973Y-5483112D01*
X+5686548Y-5489351D01*
X+5692866Y-5493947D01*
X+5699184Y-5496880D01*
X+5705502Y-5498542D01*
X+5711820Y-5499100D01*
X+5712000Y-5499100D01*
X+5750100Y-5461000D02*
X+5749969Y-5464158D01*
X+5748903Y-5470476D01*
X+5746672Y-5476794D01*
X+5743027Y-5483112D01*
X+5737452Y-5489351D01*
X+5731134Y-5493947D01*
X+5724816Y-5496880D01*
X+5718498Y-5498542D01*
X+5712180Y-5499100D01*
X+5712000Y-5499100D01*
X+1760831Y-6096000D02*
X+1760700Y-6092842D01*
X+1759634Y-6086524D01*
X+1757403Y-6080206D01*
X+1753758Y-6073888D01*
X+1748183Y-6067649D01*
X+1741865Y-6063053D01*
X+1735547Y-6060120D01*
X+1729229Y-6058458D01*
X+1722911Y-6057900D01*
X+1722731Y-6057900D01*
X+1684631Y-6096000D02*
X+1684762Y-6092842D01*
X+1685828Y-6086524D01*
X+1688059Y-6080206D01*
X+1691704Y-6073888D01*
X+1697279Y-6067649D01*
X+1703597Y-6063053D01*
X+1709915Y-6060120D01*
X+1716233Y-6058458D01*
X+1722551Y-6057900D01*
X+1722731Y-6057900D01*
X+1684631Y-6096000D02*
X+1684762Y-6099158D01*
X+1685828Y-6105476D01*
X+1688059Y-6111794D01*
X+1691704Y-6118112D01*
X+1697279Y-6124351D01*
X+1703597Y-6128947D01*
X+1709915Y-6131880D01*
X+1716233Y-6133542D01*
X+1722551Y-6134100D01*
X+1722731Y-6134100D01*
X+1760831Y-6096000D02*
X+1760700Y-6099158D01*
X+1759634Y-6105476D01*
X+1757403Y-6111794D01*
X+1753758Y-6118112D01*
X+1748183Y-6124351D01*
X+1741865Y-6128947D01*
X+1735547Y-6131880D01*
X+1729229Y-6133542D01*
X+1722911Y-6134100D01*
X+1722731Y-6134100D01*
D50*
X+4139500Y-2089000D02*
X+4169500Y-2089000D01*
X+4139500Y-2229000D02*
X+4169500Y-2229000D01*
D48*
X+4503750Y-2392670D02*
X+4503750Y-2301230D01*
X+4424375Y-2301230D01*
X+4408500Y-2316470D01*
X+4408500Y-2331710D01*
X+4424375Y-2346950D01*
X+4503750Y-2346950D01*
X+4424375Y-2346950D02*
X+4408500Y-2362190D01*
X+4408500Y-2392670D01*
X+4376750Y-2301230D02*
X+4281500Y-2301230D01*
X+4329125Y-2301230D02*
X+4329125Y-2392670D01*
X+4249750Y-2407910D02*
X+4154500Y-2407910D01*
X+4122750Y-2392670D02*
X+4122750Y-2301230D01*
X+4027500Y-2392670D01*
X+4027500Y-2301230D01*
X+3995750Y-2301230D02*
X+3900500Y-2301230D01*
X+3948125Y-2301230D02*
X+3948125Y-2392670D01*
X+3773500Y-2377430D02*
X+3789375Y-2392670D01*
X+3837000Y-2392670D01*
X+3868750Y-2362190D01*
X+3868750Y-2331710D01*
X+3837000Y-2301230D01*
X+3789375Y-2301230D01*
X+3773500Y-2316470D01*
D50*
X+2602400Y-5467600D02*
X+2602400Y-5367600D01*
X+2782400Y-5467600D02*
X+2782400Y-5367600D01*
X+3658700Y-5862900D02*
X+3658700Y-5962900D01*
X+3478700Y-5862900D02*
X+3478700Y-5962900D01*
X+2843700Y-5759700D02*
X+2843700Y-5659700D01*
X+3023700Y-5759700D02*
X+3023700Y-5659700D01*
D48*
X+3185160Y-6004560D02*
X+3185160Y-5915660D01*
X+3296920Y-5897880D02*
X+3296920Y-5826760D01*
X+3185160Y-6004560D02*
X+3276600Y-6004560D01*
X+3279140Y-5715000D02*
X+3185160Y-5715000D01*
X+3185160Y-5801360D01*
D54*
X-544800Y-2941300D02*
X-544843Y-2940261D01*
X-545195Y-2938182D01*
X-545932Y-2936103D01*
X-547136Y-2934024D01*
X-548977Y-2931974D01*
X-551056Y-2930471D01*
X-553135Y-2929514D01*
X-555214Y-2928975D01*
X-557293Y-2928800D01*
X-557300Y-2928800D01*
X-569800Y-2941300D02*
X-569757Y-2940261D01*
X-569405Y-2938182D01*
X-568668Y-2936103D01*
X-567464Y-2934024D01*
X-565623Y-2931974D01*
X-563544Y-2930471D01*
X-561465Y-2929514D01*
X-559386Y-2928975D01*
X-557307Y-2928800D01*
X-557300Y-2928800D01*
X-569800Y-2941300D02*
X-569757Y-2942339D01*
X-569405Y-2944418D01*
X-568668Y-2946497D01*
X-567464Y-2948576D01*
X-565623Y-2950626D01*
X-563544Y-2952129D01*
X-561465Y-2953086D01*
X-559386Y-2953625D01*
X-557307Y-2953800D01*
X-557300Y-2953800D01*
X-544800Y-2941300D02*
X-544843Y-2942339D01*
X-545195Y-2944418D01*
X-545932Y-2946497D01*
X-547136Y-2948576D01*
X-548977Y-2950626D01*
X-551056Y-2952129D01*
X-553135Y-2953086D01*
X-555214Y-2953625D01*
X-557293Y-2953800D01*
X-557300Y-2953800D01*
D50*
X-492300Y-2926300D02*
X-492300Y-2971300D01*
X+67700Y-2971300D01*
X+67700Y-2926300D01*
X-492300Y-2636300D02*
X-492300Y-2591300D01*
X+67700Y-2591300D01*
X+67700Y-2636300D01*
D48*
X-345550Y-3011780D02*
X-345550Y-3103220D01*
X-282050Y-3103220D01*
X-250300Y-3072740D01*
X-250300Y-3042260D01*
X-282050Y-3011780D01*
X-345550Y-3011780D01*
X-123300Y-3042260D02*
X-218550Y-3042260D01*
X-155050Y-3103220D01*
X-155050Y-3011780D01*
D54*
X-544800Y-2471400D02*
X-544843Y-2470361D01*
X-545195Y-2468282D01*
X-545932Y-2466203D01*
X-547136Y-2464124D01*
X-548977Y-2462074D01*
X-551056Y-2460571D01*
X-553135Y-2459614D01*
X-555214Y-2459075D01*
X-557293Y-2458900D01*
X-557300Y-2458900D01*
X-569800Y-2471400D02*
X-569757Y-2470361D01*
X-569405Y-2468282D01*
X-568668Y-2466203D01*
X-567464Y-2464124D01*
X-565623Y-2462074D01*
X-563544Y-2460571D01*
X-561465Y-2459614D01*
X-559386Y-2459075D01*
X-557307Y-2458900D01*
X-557300Y-2458900D01*
X-569800Y-2471400D02*
X-569757Y-2472439D01*
X-569405Y-2474518D01*
X-568668Y-2476597D01*
X-567464Y-2478676D01*
X-565623Y-2480726D01*
X-563544Y-2482229D01*
X-561465Y-2483186D01*
X-559386Y-2483725D01*
X-557307Y-2483900D01*
X-557300Y-2483900D01*
X-544800Y-2471400D02*
X-544843Y-2472439D01*
X-545195Y-2474518D01*
X-545932Y-2476597D01*
X-547136Y-2478676D01*
X-548977Y-2480726D01*
X-551056Y-2482229D01*
X-553135Y-2483186D01*
X-555214Y-2483725D01*
X-557293Y-2483900D01*
X-557300Y-2483900D01*
D50*
X-492300Y-2456400D02*
X-492300Y-2501400D01*
X+67700Y-2501400D01*
X+67700Y-2456400D01*
X-492300Y-2166400D02*
X-492300Y-2121400D01*
X+67700Y-2121400D01*
X+67700Y-2166400D01*
D48*
X-345550Y-2541880D02*
X-345550Y-2633320D01*
X-282050Y-2633320D01*
X-250300Y-2602840D01*
X-250300Y-2572360D01*
X-282050Y-2541880D01*
X-345550Y-2541880D01*
X-202675Y-2618080D02*
X-186800Y-2633320D01*
X-139175Y-2633320D01*
X-123300Y-2618080D01*
X-123300Y-2602840D01*
X-139175Y-2587600D01*
X-123300Y-2572360D01*
X-123300Y-2557120D01*
X-139175Y-2541880D01*
X-186800Y-2541880D01*
X-202675Y-2557120D01*
X-170925Y-2587600D02*
X-139175Y-2587600D01*
D54*
X+1417100Y-3770400D02*
X+1417057Y-3769361D01*
X+1416705Y-3767282D01*
X+1415968Y-3765203D01*
X+1414764Y-3763124D01*
X+1412923Y-3761074D01*
X+1410844Y-3759571D01*
X+1408765Y-3758614D01*
X+1406686Y-3758075D01*
X+1404607Y-3757900D01*
X+1404600Y-3757900D01*
X+1392100Y-3770400D02*
X+1392143Y-3769361D01*
X+1392495Y-3767282D01*
X+1393232Y-3765203D01*
X+1394436Y-3763124D01*
X+1396277Y-3761074D01*
X+1398356Y-3759571D01*
X+1400435Y-3758614D01*
X+1402514Y-3758075D01*
X+1404593Y-3757900D01*
X+1404600Y-3757900D01*
X+1392100Y-3770400D02*
X+1392143Y-3771439D01*
X+1392495Y-3773518D01*
X+1393232Y-3775597D01*
X+1394436Y-3777676D01*
X+1396277Y-3779726D01*
X+1398356Y-3781229D01*
X+1400435Y-3782186D01*
X+1402514Y-3782725D01*
X+1404593Y-3782900D01*
X+1404600Y-3782900D01*
X+1417100Y-3770400D02*
X+1417057Y-3771439D01*
X+1416705Y-3773518D01*
X+1415968Y-3775597D01*
X+1414764Y-3777676D01*
X+1412923Y-3779726D01*
X+1410844Y-3781229D01*
X+1408765Y-3782186D01*
X+1406686Y-3782725D01*
X+1404607Y-3782900D01*
X+1404600Y-3782900D01*
D50*
X+1389600Y-3705400D02*
X+1434600Y-3705400D01*
X+1434600Y-3145400D01*
X+1389600Y-3145400D01*
X+1099600Y-3705400D02*
X+1054600Y-3705400D01*
X+1054600Y-3145400D01*
X+1099600Y-3145400D01*
D48*
X+1566520Y-3304650D02*
X+1475080Y-3304650D01*
X+1475080Y-3368150D01*
X+1505560Y-3399900D01*
X+1536040Y-3399900D01*
X+1566520Y-3368150D01*
X+1566520Y-3304650D01*
X+1475080Y-3526900D02*
X+1475080Y-3447525D01*
X+1505560Y-3447525D01*
X+1505560Y-3511025D01*
X+1520800Y-3526900D01*
X+1551280Y-3526900D01*
X+1566520Y-3511025D01*
X+1566520Y-3463400D01*
X+1551280Y-3447525D01*
D50*
X+9379200Y-4065100D02*
X+9279200Y-4065100D01*
X+9379200Y-3885100D02*
X+9279200Y-3885100D01*
D48*
X+5849620Y-3739320D02*
X+6032500Y-3739320D01*
X+6032500Y-3645340D01*
X+5849620Y-3645340D01*
X+5849620Y-3739320D01*
D50*
X+5958100Y-3415300D02*
X+5848100Y-3415300D01*
X+5958100Y-3235300D02*
X+5848100Y-3235300D01*
X+5741500Y-4136300D02*
X+5741500Y-4246300D01*
X+5561500Y-4136300D02*
X+5561500Y-4246300D01*
X+5307500Y-4246300D02*
X+5307500Y-4136300D01*
X+5487500Y-4246300D02*
X+5487500Y-4136300D01*
X+6323500Y-4246300D02*
X+6323500Y-4136300D01*
X+6503500Y-4246300D02*
X+6503500Y-4136300D01*
X+6069500Y-4244200D02*
X+6069500Y-4144200D01*
X+6249500Y-4244200D02*
X+6249500Y-4144200D01*
X+6120300Y-3751000D02*
X+6120300Y-3651000D01*
X+6300300Y-3751000D02*
X+6300300Y-3651000D01*
X+5995500Y-4146300D02*
X+5995500Y-4246300D01*
X+5815500Y-4146300D02*
X+5815500Y-4246300D01*
X+5561500Y-3751000D02*
X+5561500Y-3651000D01*
X+5741500Y-3751000D02*
X+5741500Y-3651000D01*
X+5307500Y-3751000D02*
X+5307500Y-3651000D01*
X+5487500Y-3751000D02*
X+5487500Y-3651000D01*
D48*
X+7095720Y-3733620D02*
X+7278600Y-3733620D01*
X+7278600Y-3639640D01*
X+7095720Y-3639640D01*
X+7095720Y-3733620D01*
D50*
X+7245600Y-3407400D02*
X+7135600Y-3407400D01*
X+7245600Y-3227400D02*
X+7135600Y-3227400D01*
X+7024200Y-4136300D02*
X+7024200Y-4246300D01*
X+6844200Y-4136300D02*
X+6844200Y-4246300D01*
X+6590200Y-4246300D02*
X+6590200Y-4136300D01*
X+6770200Y-4246300D02*
X+6770200Y-4136300D01*
X+7606200Y-4238400D02*
X+7606200Y-4128400D01*
X+7786200Y-4238400D02*
X+7786200Y-4128400D01*
X+7352200Y-4238400D02*
X+7352200Y-4138400D01*
X+7532200Y-4238400D02*
X+7532200Y-4138400D01*
X+7352200Y-3743100D02*
X+7352200Y-3643100D01*
X+7532200Y-3743100D02*
X+7532200Y-3643100D01*
X+7278200Y-4138400D02*
X+7278200Y-4238400D01*
X+7098200Y-4138400D02*
X+7098200Y-4238400D01*
X+6844200Y-3743100D02*
X+6844200Y-3643100D01*
X+7024200Y-3743100D02*
X+7024200Y-3643100D01*
X+6590200Y-3743100D02*
X+6590200Y-3643100D01*
X+6770200Y-3743100D02*
X+6770200Y-3643100D01*
D48*
X+8391120Y-3713920D02*
X+8574000Y-3713920D01*
X+8574000Y-3619940D01*
X+8391120Y-3619940D01*
X+8391120Y-3713920D01*
D50*
X+8634900Y-3725600D02*
X+8634900Y-3625600D01*
X+8814900Y-3725600D02*
X+8814900Y-3625600D01*
X+8510800Y-3389900D02*
X+8400800Y-3389900D01*
X+8510800Y-3209900D02*
X+8400800Y-3209900D01*
X+8888900Y-4228800D02*
X+8888900Y-4118800D01*
X+9068900Y-4228800D02*
X+9068900Y-4118800D01*
X+8634900Y-4218800D02*
X+8634900Y-4118800D01*
X+8814900Y-4218800D02*
X+8814900Y-4118800D01*
X+8560900Y-4118800D02*
X+8560900Y-4218800D01*
X+8380900Y-4118800D02*
X+8380900Y-4218800D01*
X+8126900Y-3725600D02*
X+8126900Y-3625600D01*
X+8306900Y-3725600D02*
X+8306900Y-3625600D01*
X+7872900Y-3725600D02*
X+7872900Y-3625600D01*
X+8052900Y-3725600D02*
X+8052900Y-3625600D01*
X+8306900Y-4118800D02*
X+8306900Y-4228800D01*
X+8126900Y-4118800D02*
X+8126900Y-4228800D01*
X+7872900Y-4233600D02*
X+7872900Y-4123600D01*
X+8052900Y-4233600D02*
X+8052900Y-4123600D01*
M02*
