G04 PROTEUS GERBER X2 FILE*
%TF.GenerationSoftware,Labcenter,Proteus,8.7-SP3-Build25561*%
%TF.CreationDate,2021-07-04T19:39:20+00:00*%
%TF.FileFunction,Paste,Bot*%
%TF.FilePolarity,Positive*%
%TF.Part,Single*%
%TF.SameCoordinates,{804bfe34-88de-486f-8887-f5b9ed786e22}*%
%FSLAX45Y45*%
%MOMM*%
G01*
%TA.AperFunction,Material*%
%ADD104R,1.803400X1.143000*%
%TA.AperFunction,Material*%
%ADD96R,6.985000X6.985000*%
%ADD97R,1.524000X2.540000*%
%TA.AperFunction,Material*%
%ADD99R,1.143000X1.803400*%
%ADD111R,1.016000X1.524000*%
%ADD112R,0.939800X1.447800*%
%TA.AperFunction,Material*%
%ADD108R,1.016000X0.889000*%
%TA.AperFunction,Material*%
%ADD113R,2.108200X2.108200*%
%TA.AperFunction,Material*%
%ADD114R,0.350000X0.500000*%
%TA.AperFunction,Profile*%
%ADD42C,0.203200*%
%TD.AperFunction*%
D104*
X+2413000Y-716000D03*
X+2413000Y-1016000D03*
X+2413000Y-218000D03*
X+2413000Y-508000D03*
X+2667000Y-208000D03*
X+2667000Y-508000D03*
X+2667000Y-726000D03*
X+2667000Y-1016000D03*
D96*
X-546100Y-4071620D03*
D97*
X-317500Y-4762500D03*
X-774700Y-4762500D03*
D96*
X+292100Y-4071620D03*
D97*
X+520700Y-4762500D03*
X+63500Y-4762500D03*
D99*
X-462000Y-5080000D03*
X-762000Y-5080000D03*
D104*
X+292100Y-3294100D03*
X+292100Y-3594100D03*
X+2667000Y-1206500D03*
X+2667000Y-1506500D03*
X+2413000Y-1714500D03*
X+2413000Y-2014500D03*
X+2667000Y-1714500D03*
X+2667000Y-2004500D03*
X+2413000Y-1206500D03*
X+2413000Y-1496500D03*
D99*
X+7158000Y-6159500D03*
X+6858000Y-6159500D03*
X+1697000Y-4254500D03*
X+1397000Y-4254500D03*
D111*
X+0Y-5334000D03*
X+314960Y-5334000D03*
D99*
X+8064500Y-5524500D03*
X+8354500Y-5524500D03*
X+7193500Y-5570499D03*
X+7483500Y-5570499D03*
D104*
X+7737500Y-5560500D03*
X+7737500Y-5270500D03*
D99*
X+9184200Y-4241800D03*
X+9474200Y-4241800D03*
X-218000Y-5334000D03*
X-508000Y-5334000D03*
X+1905000Y-4508500D03*
X+2195000Y-4508500D03*
X+1905000Y-4254500D03*
X+2195000Y-4254500D03*
X+1397000Y-4508500D03*
X+1687000Y-4508500D03*
X+1560000Y-4762500D03*
X+1270000Y-4762500D03*
D112*
X+4054500Y-2159000D03*
X+4254500Y-2159000D03*
D104*
X+2692400Y-5562600D03*
X+2692400Y-5272600D03*
X+3568700Y-5767900D03*
X+3568700Y-6057900D03*
X+2933700Y-5854700D03*
X+2933700Y-5564700D03*
D108*
X+3149600Y-5859780D03*
X+3340100Y-5765800D03*
X+3340100Y-5953760D03*
D113*
X+12700Y-2781300D03*
X-437300Y-2781300D03*
X+12700Y-2311400D03*
X-437300Y-2311400D03*
X+1244600Y-3200400D03*
X+1244600Y-3650400D03*
D99*
X+9474200Y-3975100D03*
X+9184200Y-3975100D03*
D114*
X+6007100Y-3782500D03*
X+5942100Y-3782500D03*
X+5877100Y-3782500D03*
X+5877100Y-3602500D03*
X+5942100Y-3602500D03*
X+6007100Y-3602500D03*
D99*
X+6053100Y-3325300D03*
X+5753100Y-3325300D03*
D104*
X+5651500Y-4041300D03*
X+5651500Y-4341300D03*
X+5397500Y-4341300D03*
X+5397500Y-4041300D03*
X+6413500Y-4341300D03*
X+6413500Y-4041300D03*
X+6159500Y-4339200D03*
X+6159500Y-4049200D03*
X+6210300Y-3846000D03*
X+6210300Y-3556000D03*
X+5905500Y-4051300D03*
X+5905500Y-4341300D03*
X+5651500Y-3846000D03*
X+5651500Y-3556000D03*
X+5397500Y-3846000D03*
X+5397500Y-3556000D03*
D114*
X+7253200Y-3776800D03*
X+7188200Y-3776800D03*
X+7123200Y-3776800D03*
X+7123200Y-3596800D03*
X+7188200Y-3596800D03*
X+7253200Y-3596800D03*
D99*
X+7340600Y-3317400D03*
X+7040600Y-3317400D03*
D104*
X+6934200Y-4041300D03*
X+6934200Y-4341300D03*
X+6680200Y-4341300D03*
X+6680200Y-4041300D03*
X+7696200Y-4333400D03*
X+7696200Y-4033400D03*
X+7442200Y-4333400D03*
X+7442200Y-4043400D03*
X+7442200Y-3838100D03*
X+7442200Y-3548100D03*
X+7188200Y-4043400D03*
X+7188200Y-4333400D03*
X+6934200Y-3838100D03*
X+6934200Y-3548100D03*
X+6680200Y-3838100D03*
X+6680200Y-3548100D03*
D114*
X+8548600Y-3757100D03*
X+8483600Y-3757100D03*
X+8418600Y-3757100D03*
X+8418600Y-3577100D03*
X+8483600Y-3577100D03*
X+8548600Y-3577100D03*
D104*
X+8724900Y-3820600D03*
X+8724900Y-3530600D03*
D99*
X+8605800Y-3299900D03*
X+8305800Y-3299900D03*
D104*
X+8978900Y-4323800D03*
X+8978900Y-4023800D03*
X+8724900Y-4313800D03*
X+8724900Y-4023800D03*
X+8470900Y-4023800D03*
X+8470900Y-4313800D03*
X+8216900Y-3820600D03*
X+8216900Y-3530600D03*
X+7962900Y-3820600D03*
X+7962900Y-3530600D03*
X+8216900Y-4023800D03*
X+8216900Y-4323800D03*
X+7962900Y-4328600D03*
X+7962900Y-4028600D03*
D42*
X-1079500Y-6413500D02*
X+9715500Y-6413500D01*
X+9715500Y+2349500D01*
X-1079500Y+2349500D01*
X-1079500Y-6413500D01*
M02*
