G04 PROTEUS GERBER X2 FILE*
%TF.GenerationSoftware,Labcenter,Proteus,8.7-SP3-Build25561*%
%TF.CreationDate,2021-07-04T19:39:20+00:00*%
%TF.FileFunction,Soldermask,Bot*%
%TF.FilePolarity,Negative*%
%TF.Part,Single*%
%TF.SameCoordinates,{804bfe34-88de-486f-8887-f5b9ed786e22}*%
%FSLAX45Y45*%
%MOMM*%
G01*
%TA.AperFunction,Material*%
%ADD55C,1.270000*%
%ADD56C,1.016000*%
%TA.AperFunction,Material*%
%ADD59C,5.334000*%
%AMPPAD075*
4,1,4,
-0.901700,0.571500,
-0.901700,-0.571500,
0.901700,-0.571500,
0.901700,0.571500,
-0.901700,0.571500,
0*%
%TA.AperFunction,Material*%
%ADD85PPAD075*%
%AMPPAD076*
4,1,36,
3.492500,3.619500,
-3.492500,3.619500,
-3.518470,3.616970,
-3.542480,3.609700,
-3.564080,3.598150,
-3.582790,3.582790,
-3.598150,3.564070,
-3.609700,3.542480,
-3.616970,3.518470,
-3.619500,3.492500,
-3.619500,-3.492500,
-3.616970,-3.518470,
-3.609700,-3.542480,
-3.598150,-3.564070,
-3.582790,-3.582790,
-3.564080,-3.598150,
-3.542480,-3.609700,
-3.518470,-3.616970,
-3.492500,-3.619500,
3.492500,-3.619500,
3.518470,-3.616970,
3.542480,-3.609700,
3.564080,-3.598150,
3.582790,-3.582790,
3.598150,-3.564070,
3.609700,-3.542480,
3.616970,-3.518470,
3.619500,-3.492500,
3.619500,3.492500,
3.616970,3.518470,
3.609700,3.542480,
3.598150,3.564070,
3.582790,3.582790,
3.564080,3.598150,
3.542480,3.609700,
3.518470,3.616970,
3.492500,3.619500,
0*%
%TA.AperFunction,Material*%
%ADD86PPAD076*%
%AMPPAD077*
4,1,36,
0.762000,1.397000,
-0.762000,1.397000,
-0.787970,1.394470,
-0.811980,1.387200,
-0.833580,1.375650,
-0.852290,1.360290,
-0.867650,1.341570,
-0.879200,1.319980,
-0.886470,1.295970,
-0.889000,1.270000,
-0.889000,-1.270000,
-0.886470,-1.295970,
-0.879200,-1.319980,
-0.867650,-1.341570,
-0.852290,-1.360290,
-0.833580,-1.375650,
-0.811980,-1.387200,
-0.787970,-1.394470,
-0.762000,-1.397000,
0.762000,-1.397000,
0.787970,-1.394470,
0.811980,-1.387200,
0.833580,-1.375650,
0.852290,-1.360290,
0.867650,-1.341570,
0.879200,-1.319980,
0.886470,-1.295970,
0.889000,-1.270000,
0.889000,1.270000,
0.886470,1.295970,
0.879200,1.319980,
0.867650,1.341570,
0.852290,1.360290,
0.833580,1.375650,
0.811980,1.387200,
0.787970,1.394470,
0.762000,1.397000,
0*%
%ADD87PPAD077*%
%AMPPAD078*
4,1,4,
0.571500,0.901700,
-0.571500,0.901700,
-0.571500,-0.901700,
0.571500,-0.901700,
0.571500,0.901700,
0*%
%TA.AperFunction,Material*%
%ADD88PPAD078*%
%AMPPAD079*
4,1,36,
-0.508000,-0.889000,
0.508000,-0.889000,
0.533970,-0.886470,
0.557980,-0.879200,
0.579580,-0.867650,
0.598290,-0.852290,
0.613650,-0.833570,
0.625200,-0.811980,
0.632470,-0.787970,
0.635000,-0.762000,
0.635000,0.762000,
0.632470,0.787970,
0.625200,0.811980,
0.613650,0.833570,
0.598290,0.852290,
0.579580,0.867650,
0.557980,0.879200,
0.533970,0.886470,
0.508000,0.889000,
-0.508000,0.889000,
-0.533970,0.886470,
-0.557980,0.879200,
-0.579580,0.867650,
-0.598290,0.852290,
-0.613650,0.833570,
-0.625200,0.811980,
-0.632470,0.787970,
-0.635000,0.762000,
-0.635000,-0.762000,
-0.632470,-0.787970,
-0.625200,-0.811980,
-0.613650,-0.833570,
-0.598290,-0.852290,
-0.579580,-0.867650,
-0.557980,-0.879200,
-0.533970,-0.886470,
-0.508000,-0.889000,
0*%
%ADD89PPAD079*%
%AMPPAD067*
4,1,8,
-1.397000,-0.509800,
-1.397000,0.509800,
-1.017800,0.889000,
1.017800,0.889000,
1.397000,0.509800,
1.397000,-0.509800,
1.017800,-0.889000,
-1.017800,-0.889000,
-1.397000,-0.509800,
0*%
%TA.AperFunction,Material*%
%ADD77PPAD067*%
%AMPPAD068*
4,1,8,
-0.509800,1.397000,
0.509800,1.397000,
0.889000,1.017800,
0.889000,-1.017800,
0.509800,-1.397000,
-0.509800,-1.397000,
-0.889000,-1.017800,
-0.889000,1.017800,
-0.509800,1.397000,
0*%
%TA.AperFunction,Material*%
%ADD78PPAD068*%
%TA.AperFunction,Material*%
%ADD79C,3.556000*%
%TA.AperFunction,Material*%
%ADD80C,6.604000*%
%TA.AperFunction,Material*%
%ADD81C,2.794000*%
%AMPPAD080*
4,1,4,
-0.469900,-0.723900,
0.469900,-0.723900,
0.469900,0.723900,
-0.469900,0.723900,
-0.469900,-0.723900,
0*%
%ADD90PPAD080*%
%AMPPAD081*
4,1,36,
0.635000,-0.444500,
0.635000,0.444500,
0.632470,0.470470,
0.625200,0.494480,
0.613650,0.516080,
0.598290,0.534790,
0.579570,0.550150,
0.557980,0.561700,
0.533970,0.568970,
0.508000,0.571500,
-0.508000,0.571500,
-0.533970,0.568970,
-0.557980,0.561700,
-0.579570,0.550150,
-0.598290,0.534790,
-0.613650,0.516080,
-0.625200,0.494480,
-0.632470,0.470470,
-0.635000,0.444500,
-0.635000,-0.444500,
-0.632470,-0.470470,
-0.625200,-0.494480,
-0.613650,-0.516080,
-0.598290,-0.534790,
-0.579570,-0.550150,
-0.557980,-0.561700,
-0.533970,-0.568970,
-0.508000,-0.571500,
0.508000,-0.571500,
0.533970,-0.568970,
0.557980,-0.561700,
0.579570,-0.550150,
0.598290,-0.534790,
0.613650,-0.516080,
0.625200,-0.494480,
0.632470,-0.470470,
0.635000,-0.444500,
0*%
%TA.AperFunction,Material*%
%ADD91PPAD081*%
%AMPPAD082*
4,1,4,
-1.054100,1.054100,
-1.054100,-1.054100,
1.054100,-1.054100,
1.054100,1.054100,
-1.054100,1.054100,
0*%
%TA.AperFunction,Material*%
%ADD92PPAD082*%
%AMPPAD083*
4,1,36,
0.175000,0.377000,
-0.175000,0.377000,
-0.200970,0.374470,
-0.224980,0.367200,
-0.246580,0.355650,
-0.265290,0.340290,
-0.280650,0.321570,
-0.292200,0.299980,
-0.299470,0.275970,
-0.302000,0.250000,
-0.302000,-0.250000,
-0.299470,-0.275970,
-0.292200,-0.299980,
-0.280650,-0.321570,
-0.265290,-0.340290,
-0.246580,-0.355650,
-0.224980,-0.367200,
-0.200970,-0.374470,
-0.175000,-0.377000,
0.175000,-0.377000,
0.200970,-0.374470,
0.224980,-0.367200,
0.246580,-0.355650,
0.265290,-0.340290,
0.280650,-0.321570,
0.292200,-0.299980,
0.299470,-0.275970,
0.302000,-0.250000,
0.302000,0.250000,
0.299470,0.275970,
0.292200,0.299980,
0.280650,0.321570,
0.265290,0.340290,
0.246580,0.355650,
0.224980,0.367200,
0.200970,0.374470,
0.175000,0.377000,
0*%
%TA.AperFunction,Material*%
%ADD93PPAD083*%
%TA.AperFunction,Material*%
%ADD84C,2.286000*%
%TA.AperFunction,Profile*%
%ADD42C,0.203200*%
%TD.AperFunction*%
D55*
X+3225800Y+1174750D03*
X+3479800Y+1174750D03*
X+5257800Y+1174750D03*
X+5511800Y+1174750D03*
X+5765800Y+1174750D03*
X+7543800Y+1174750D03*
X+7797800Y+1174750D03*
X+3098800Y+1394720D03*
X+3352800Y+1394720D03*
X+4876800Y+1394720D03*
X+5130800Y+1394720D03*
X+5384800Y+1394720D03*
X+5638800Y+1394720D03*
X+7162800Y+1394720D03*
X+7416800Y+1394720D03*
X+7670800Y+1394720D03*
X+4749800Y+1614690D03*
X+5003800Y+1614690D03*
X+5257800Y+1614690D03*
X+5511800Y+1614690D03*
X+5765800Y+1614690D03*
X+7289800Y+1614690D03*
X+7543800Y+1614690D03*
X+7797800Y+1614690D03*
X+4876800Y+1834660D03*
X+5130800Y+1834660D03*
X+5384800Y+1834660D03*
X+5638800Y+1834660D03*
X+7162800Y+1834660D03*
X+7416800Y+1834660D03*
X+7670800Y+1834660D03*
X+4749800Y+2054630D03*
X+5003800Y+2054630D03*
X+5257800Y+2054630D03*
X+5511800Y+2054630D03*
X+5765800Y+2054630D03*
X+7289800Y+2054630D03*
X+7543800Y+2054630D03*
X+7797800Y+2054630D03*
X+3213100Y-1497654D03*
X+3111500Y-1321678D03*
X+3213100Y-1145702D03*
X+4127500Y-617774D03*
X+4330700Y-617774D03*
X+3314700Y-265822D03*
X+3517900Y-265822D03*
X+3721100Y-265822D03*
X+3924300Y-265822D03*
X+4127500Y-265822D03*
X+3213100Y-89846D03*
X+3416300Y-89846D03*
X+3619500Y-89846D03*
X+3822700Y-89846D03*
X+4025900Y-89846D03*
X+4432300Y-89846D03*
X+4013200Y+1052310D03*
X+3911600Y+1228286D03*
X+4114800Y+1228286D03*
X+3810000Y+1404262D03*
X+4013200Y+1404262D03*
X+3911600Y+1580238D03*
X+3810000Y+1756214D03*
X+3937000Y+1905000D03*
X+8597900Y+1228286D03*
X+8801100Y+1228286D03*
X+8597900Y+1580238D03*
X+8724900Y+1866900D03*
X+6363969Y+1052310D03*
X+6262369Y+1228286D03*
X+6465569Y+1228286D03*
X+6160769Y+1404262D03*
X+6363969Y+1404262D03*
X+6262369Y+1580238D03*
X+6160769Y+1756214D03*
X+6286500Y+1905000D03*
X+3111500Y-1673630D03*
X+4127500Y-793750D03*
X+4381500Y-793750D03*
X+5003800Y+1174750D03*
X-127000Y-4953000D03*
X+1870921Y-3983646D03*
X+1599186Y-1195100D03*
X+1472186Y-975130D03*
X+1345186Y-755160D03*
X+1472186Y-535190D03*
X+1345186Y-315220D03*
X+1599186Y-315220D03*
X+1472186Y-95250D03*
X+1345186Y+124720D03*
X+1714500Y-63500D03*
X+1206500Y+952500D03*
X+1587500Y+1143000D03*
X-876300Y-2781300D03*
X-889000Y-2526810D03*
X-762000Y-2306840D03*
X-889000Y-2133600D03*
X-381000Y-2086870D03*
X-762000Y-1778000D03*
X-736600Y-1981200D03*
X-889000Y-1206990D03*
X-889000Y-952500D03*
X-889000Y-767050D03*
X-381000Y-327110D03*
X+2844800Y+1394720D03*
X+8305800Y+1257545D03*
X+9067800Y+1257545D03*
X+8509000Y+1943100D03*
X+8559800Y+2137425D03*
X+8813800Y+2137425D03*
D56*
X+5837110Y-3144357D03*
D55*
X+2921000Y+1206500D03*
X+4191000Y-3937000D03*
X+3811743Y-4009908D03*
X+3810000Y-4318000D03*
X+2921000Y-1016000D03*
X+635000Y-3378275D03*
X+889000Y-3378275D03*
X+1143000Y-3378275D03*
X+1397000Y-3378275D03*
X+1943100Y-3365500D03*
X+2159000Y-3378275D03*
X+63500Y-3263900D03*
X+406400Y-3175000D03*
X+1651000Y-2667000D03*
X+1651000Y-2286000D03*
X+1460500Y-2476500D03*
X+952500Y-3035300D03*
X+508000Y-2718365D03*
X+1460500Y-2857500D03*
X+1460500Y-2667000D03*
X+1651000Y-2476500D03*
X+381000Y-2498395D03*
X+381000Y-1651000D03*
X+1270000Y-2476500D03*
X+1270000Y-2667000D03*
X+3111500Y-2413000D03*
X+4445000Y-2540000D03*
X+6985000Y-2498395D03*
X+152400Y-1689100D03*
X+342900Y-2146300D03*
X+508000Y-2278425D03*
X+1016000Y-2278425D03*
X+1270000Y-2278425D03*
X+1270000Y-2857500D03*
X+1270000Y-1968500D03*
X+1460500Y-1968500D03*
X+1460500Y-2286000D03*
X+6858000Y-2278425D03*
X+444500Y-1803400D03*
X+1587500Y-2095500D03*
X+508000Y-1398545D03*
X+508000Y-958605D03*
X+762000Y-958605D03*
X+381000Y-738635D03*
X+635000Y-738635D03*
X+0Y-518665D03*
X+508000Y-518665D03*
X+762000Y-518665D03*
X+381000Y-298695D03*
X+635000Y-298695D03*
X+0Y-78725D03*
X+508000Y-78725D03*
X+762000Y-78725D03*
X-381000Y+141245D03*
X-127000Y+141245D03*
X+381000Y+141245D03*
X+635000Y+141245D03*
X-508000Y+361215D03*
X-254000Y+361215D03*
X+0Y+361215D03*
X+508000Y+361215D03*
X+762000Y+361215D03*
X-889000Y+581185D03*
X+381000Y+581185D03*
X+635000Y+581185D03*
X+254000Y+801155D03*
X+508000Y+801155D03*
X+762000Y+801155D03*
X-889000Y+1901005D03*
X-762000Y+2120975D03*
X-508000Y+2120975D03*
X-254000Y+2120975D03*
X+0Y+2120975D03*
X+254000Y+2120975D03*
X+508000Y+2120975D03*
X+762000Y+2120975D03*
X+1016000Y+2120975D03*
X+1270000Y+2120975D03*
X+1524000Y+2120975D03*
X+1778000Y+2120975D03*
X+2032000Y+2120975D03*
X+2286000Y+2120975D03*
X+4826045Y-3267760D03*
X+5397500Y-5588000D03*
X+2667000Y-2476500D03*
X+3576345Y-2643122D03*
X+7543800Y-812800D03*
X+8127850Y-2993866D03*
X+4818888Y-2925288D03*
X+5249412Y-804176D03*
X+6696244Y-3035770D03*
X+5257800Y-1714500D03*
X+5905500Y-2489200D03*
X+6698805Y-3180794D03*
X-736600Y-2641600D03*
X+1054100Y-2921000D03*
X+1651000Y-2938335D03*
X+1905000Y-2938335D03*
X+254000Y-2718365D03*
X+1016000Y-2718365D03*
X+520700Y-2044700D03*
X+635000Y-2498395D03*
X+8001000Y-2498395D03*
X+6350000Y-2278425D03*
X+7874000Y-2278425D03*
X+8128000Y-2278425D03*
X+8382000Y-2278425D03*
X+8509000Y-2058455D03*
X+8763000Y-2058455D03*
X+1345186Y-1635040D03*
X+1218186Y-1415070D03*
X+1980186Y-95250D03*
X+3944752Y-3532550D03*
X+3924300Y-823914D03*
X+3416300Y-647938D03*
X+3822700Y-647938D03*
X+7924800Y-1608885D03*
X+7835900Y-1454906D03*
X+7747000Y-1300927D03*
X+7924800Y-1300927D03*
X+7835900Y-1146948D03*
X+8013700Y-838990D03*
X+8547100Y-838990D03*
X+8724900Y-838990D03*
X+8902700Y-838990D03*
X+8636000Y-685011D03*
X+8813800Y-685011D03*
X+8991600Y-685011D03*
X+8013700Y-531032D03*
X+8102600Y-377053D03*
X+8280400Y-377053D03*
X+8458200Y-377053D03*
X+7835900Y-223074D03*
X+8013700Y-223074D03*
X+8191500Y-223074D03*
X+8369300Y-223074D03*
X+8547100Y-223074D03*
X+8724900Y-223074D03*
X+7747000Y-69095D03*
X+7924800Y-69095D03*
X+8102600Y-69095D03*
X+8280400Y-69095D03*
X+8458200Y-69095D03*
X+8636000Y-69095D03*
X+8813800Y-69095D03*
X+5638800Y-1608885D03*
X+5549900Y-1454906D03*
X+5461000Y-1300927D03*
X+5638800Y-1300927D03*
X+5549900Y-1146948D03*
X+5727700Y-838990D03*
X+6616700Y-838990D03*
X+6527800Y-685011D03*
X+6705600Y-685011D03*
X+5727700Y-531032D03*
X+6616700Y-531032D03*
X+5816600Y-377053D03*
X+5994400Y-377053D03*
X+5549900Y-223074D03*
X+5727700Y-223074D03*
X+5905500Y-223074D03*
X+6083300Y-223074D03*
X+6261100Y-223074D03*
X+6438900Y-223074D03*
X+5461000Y-69095D03*
X+5638800Y-69095D03*
X+5816600Y-69095D03*
X+5994400Y-69095D03*
X+6172200Y-69095D03*
X+6350000Y-69095D03*
X+2044700Y-3246294D03*
X+1092200Y-2070100D03*
X+711200Y-2784357D03*
X+1778000Y-2784357D03*
X+1066800Y-2476399D03*
X+7023100Y-2322420D03*
X+711200Y-2168441D03*
X+3556000Y-2168441D03*
X+3733800Y-2168441D03*
X+6223000Y-2168441D03*
X+8001000Y-2168441D03*
X+800100Y-782630D03*
X+0Y-320693D03*
X+800100Y+141244D03*
X-889000Y+295223D03*
X-622300Y+1988992D03*
X+622300Y+1988992D03*
X+4711700Y+738213D03*
X+7200900Y+738213D03*
X+7112000Y+2124024D03*
X-711200Y-2482816D03*
X+8826500Y+1638300D03*
X+9105900Y+1460500D03*
X+3302000Y-5207000D03*
X+4993399Y-4680922D03*
X+3145817Y-5333103D03*
X+5016500Y-4826000D03*
D56*
X+9333632Y-69289D03*
D55*
X+4886261Y+1021029D03*
X+4871017Y+140309D03*
X+7200900Y+1016000D03*
X+7216360Y+129270D03*
X+9334500Y-68421D03*
X+9347586Y+1185531D03*
X+5236283Y-4151453D03*
X+8910308Y-4517090D03*
X+9181462Y-3777221D03*
X+3442985Y-4350015D03*
X+4137486Y-4269464D03*
X+1841500Y-1079500D03*
X+2014205Y-1094840D03*
X+5431385Y-2982601D03*
X+2857500Y-762000D03*
X+7664736Y-1676863D03*
X+8118219Y-2853714D03*
X+6883138Y-3230089D03*
X+6375400Y-793750D03*
X+8802625Y-6177544D03*
X-762000Y-5334000D03*
X+9045099Y-2613401D03*
X+6545826Y-4172006D03*
X+7905430Y-4163419D03*
D59*
X+4318000Y+1714500D03*
X+6667500Y+1714500D03*
X+8255000Y+1651000D03*
D85*
X+2413000Y-716000D03*
X+2413000Y-1016000D03*
X+2413000Y-218000D03*
X+2413000Y-508000D03*
X+2667000Y-208000D03*
X+2667000Y-508000D03*
X+2667000Y-726000D03*
X+2667000Y-1016000D03*
D86*
X-546100Y-4071620D03*
D87*
X-317500Y-4762500D03*
X-774700Y-4762500D03*
D86*
X+292100Y-4071620D03*
D87*
X+520700Y-4762500D03*
X+63500Y-4762500D03*
D59*
X-571500Y+698500D03*
X-571500Y-1447800D03*
D88*
X-462000Y-5080000D03*
X-762000Y-5080000D03*
D85*
X+292100Y-3294100D03*
X+292100Y-3594100D03*
X+2667000Y-1206500D03*
X+2667000Y-1506500D03*
X+2413000Y-1714500D03*
X+2413000Y-2014500D03*
X+2667000Y-1714500D03*
X+2667000Y-2004500D03*
X+2413000Y-1206500D03*
X+2413000Y-1496500D03*
D88*
X+7158000Y-6159500D03*
X+6858000Y-6159500D03*
X+1697000Y-4254500D03*
X+1397000Y-4254500D03*
D89*
X+0Y-5334000D03*
X+314960Y-5334000D03*
D77*
X+9245600Y-5181500D03*
X+9245600Y-4981500D03*
X+9245600Y-4781500D03*
D88*
X+8064500Y-5524500D03*
X+8354500Y-5524500D03*
X+7193500Y-5570499D03*
X+7483500Y-5570499D03*
D85*
X+7737500Y-5560500D03*
X+7737500Y-5270500D03*
D88*
X+9184200Y-4241800D03*
X+9474200Y-4241800D03*
X-218000Y-5334000D03*
X-508000Y-5334000D03*
X+1905000Y-4508500D03*
X+2195000Y-4508500D03*
X+1905000Y-4254500D03*
X+2195000Y-4254500D03*
X+1397000Y-4508500D03*
X+1687000Y-4508500D03*
X+1560000Y-4762500D03*
X+1270000Y-4762500D03*
D78*
X+8356500Y-5905500D03*
X+8156500Y-5905500D03*
X+7956500Y-5905500D03*
X+7756500Y-5905500D03*
X+7556500Y-5905500D03*
X+7356500Y-5905500D03*
D59*
X-510798Y-841109D03*
X+1240380Y+628303D03*
D79*
X+1079500Y+1333500D03*
X+1079500Y+1833500D03*
X-317500Y+1333500D03*
X-317500Y+1833500D03*
X+2476500Y+1337500D03*
X+2476500Y+1837500D03*
D80*
X+9271000Y+1905000D03*
X+3175000Y+1905000D03*
X+9271000Y-5969000D03*
X-635000Y-5969000D03*
D78*
X+4124500Y-5905500D03*
X+4324500Y-5905500D03*
X+4524500Y-5905500D03*
X+4724500Y-5905500D03*
X+4924500Y-5905500D03*
X+5124500Y-5905500D03*
X+5686500Y-5905500D03*
X+5886500Y-5905500D03*
X+6086500Y-5905500D03*
X+6286500Y-5905500D03*
X+6486500Y-5905500D03*
X+6686500Y-5905500D03*
X+5712000Y-5270500D03*
X+5912000Y-5270500D03*
X+6112000Y-5270500D03*
X+6312000Y-5270500D03*
X+6512000Y-5270500D03*
X+6712000Y-5270500D03*
X+1722731Y-5905500D03*
X+1522731Y-5905500D03*
X+1322731Y-5905500D03*
D81*
X+1714500Y-3738500D03*
X+1714500Y-3238500D03*
D90*
X+4054500Y-2159000D03*
X+4254500Y-2159000D03*
D85*
X+2692400Y-5562600D03*
X+2692400Y-5272600D03*
X+3568700Y-5767900D03*
X+3568700Y-6057900D03*
X+2933700Y-5854700D03*
X+2933700Y-5564700D03*
D91*
X+3149600Y-5859780D03*
X+3340100Y-5765800D03*
X+3340100Y-5953760D03*
D92*
X+12700Y-2781300D03*
X-437300Y-2781300D03*
X+12700Y-2311400D03*
X-437300Y-2311400D03*
X+1244600Y-3200400D03*
X+1244600Y-3650400D03*
D88*
X+9474200Y-3975100D03*
X+9184200Y-3975100D03*
D93*
X+6007100Y-3782500D03*
X+5942100Y-3782500D03*
X+5877100Y-3782500D03*
X+5877100Y-3602500D03*
X+5942100Y-3602500D03*
X+6007100Y-3602500D03*
D88*
X+6053100Y-3325300D03*
X+5753100Y-3325300D03*
D85*
X+5651500Y-4041300D03*
X+5651500Y-4341300D03*
X+5397500Y-4341300D03*
X+5397500Y-4041300D03*
X+6413500Y-4341300D03*
X+6413500Y-4041300D03*
X+6159500Y-4339200D03*
X+6159500Y-4049200D03*
X+6210300Y-3846000D03*
X+6210300Y-3556000D03*
X+5905500Y-4051300D03*
X+5905500Y-4341300D03*
X+5651500Y-3846000D03*
X+5651500Y-3556000D03*
X+5397500Y-3846000D03*
X+5397500Y-3556000D03*
D93*
X+7253200Y-3776800D03*
X+7188200Y-3776800D03*
X+7123200Y-3776800D03*
X+7123200Y-3596800D03*
X+7188200Y-3596800D03*
X+7253200Y-3596800D03*
D88*
X+7340600Y-3317400D03*
X+7040600Y-3317400D03*
D85*
X+6934200Y-4041300D03*
X+6934200Y-4341300D03*
X+6680200Y-4341300D03*
X+6680200Y-4041300D03*
X+7696200Y-4333400D03*
X+7696200Y-4033400D03*
X+7442200Y-4333400D03*
X+7442200Y-4043400D03*
X+7442200Y-3838100D03*
X+7442200Y-3548100D03*
X+7188200Y-4043400D03*
X+7188200Y-4333400D03*
X+6934200Y-3838100D03*
X+6934200Y-3548100D03*
X+6680200Y-3838100D03*
X+6680200Y-3548100D03*
D93*
X+8548600Y-3757100D03*
X+8483600Y-3757100D03*
X+8418600Y-3757100D03*
X+8418600Y-3577100D03*
X+8483600Y-3577100D03*
X+8548600Y-3577100D03*
D85*
X+8724900Y-3820600D03*
X+8724900Y-3530600D03*
D88*
X+8605800Y-3299900D03*
X+8305800Y-3299900D03*
D85*
X+8978900Y-4323800D03*
X+8978900Y-4023800D03*
X+8724900Y-4313800D03*
X+8724900Y-4023800D03*
X+8470900Y-4023800D03*
X+8470900Y-4313800D03*
X+8216900Y-3820600D03*
X+8216900Y-3530600D03*
X+7962900Y-3820600D03*
X+7962900Y-3530600D03*
X+8216900Y-4023800D03*
X+8216900Y-4323800D03*
X+7962900Y-4328600D03*
X+7962900Y-4028600D03*
D84*
X+265500Y-1905000D03*
X+615500Y-1905000D03*
X+269500Y-3048000D03*
X+619500Y-3048000D03*
X+889000Y-4104900D03*
X+889000Y-4454900D03*
X+444500Y-5159000D03*
X+444500Y-5509000D03*
D42*
X-1079500Y-6413500D02*
X+9715500Y-6413500D01*
X+9715500Y+2349500D01*
X-1079500Y+2349500D01*
X-1079500Y-6413500D01*
M02*
