G04 PROTEUS GERBER X2 FILE*
%TF.GenerationSoftware,Labcenter,Proteus,8.7-SP3-Build25561*%
%TF.CreationDate,2021-07-04T19:39:20+00:00*%
%TF.FileFunction,AssemblyDrawing,Bot*%
%TF.FilePolarity,Positive*%
%TF.Part,Single*%
%TF.SameCoordinates,{804bfe34-88de-486f-8887-f5b9ed786e22}*%
%FSLAX45Y45*%
%MOMM*%
G01*
%TA.AperFunction,Profile*%
%ADD42C,0.203200*%
%TA.AperFunction,Material*%
%ADD119C,0.050000*%
%ADD132C,0.095000*%
%ADD127C,0.093000*%
%ADD48C,0.203200*%
%ADD117C,0.389040*%
%ADD124C,0.118750*%
%ADD147C,0.100580*%
%ADD120C,0.116250*%
%ADD148C,0.050710*%
%ADD133C,0.141000*%
%ADD134C,0.103290*%
%ADD149C,0.238330*%
%ADD150C,0.076660*%
%TD.AperFunction*%
D42*
X-1079500Y-6413500D02*
X+9715500Y-6413500D01*
X+9715500Y+2349500D01*
X-1079500Y+2349500D01*
X-1079500Y-6413500D01*
D119*
X+2528000Y-631000D02*
X+2528000Y-1101000D01*
X+2298000Y-1101000D01*
X+2298000Y-631000D01*
X+2528000Y-631000D01*
X+2363000Y-866000D02*
X+2463000Y-866000D01*
X+2413000Y-916000D02*
X+2413000Y-816000D01*
D132*
X+2432000Y-771000D02*
X+2441500Y-761500D01*
X+2441500Y-733000D01*
X+2422500Y-714000D01*
X+2403500Y-714000D01*
X+2384500Y-733000D01*
X+2384500Y-761500D01*
X+2394000Y-771000D01*
X+2422500Y-847000D02*
X+2422500Y-790000D01*
X+2384500Y-828000D01*
X+2441500Y-828000D01*
X+2432000Y-866000D02*
X+2394000Y-866000D01*
X+2384500Y-875500D01*
X+2384500Y-913500D01*
X+2394000Y-923000D01*
X+2432000Y-923000D01*
X+2441500Y-913500D01*
X+2441500Y-875500D01*
X+2432000Y-866000D01*
X+2441500Y-866000D02*
X+2384500Y-923000D01*
X+2422500Y-999000D02*
X+2422500Y-942000D01*
X+2384500Y-980000D01*
X+2441500Y-980000D01*
D119*
X+2528000Y-133000D02*
X+2528000Y-593000D01*
X+2298000Y-593000D01*
X+2298000Y-133000D01*
X+2528000Y-133000D01*
X+2363000Y-363000D02*
X+2463000Y-363000D01*
X+2413000Y-413000D02*
X+2413000Y-313000D01*
D127*
X+2440900Y-214200D02*
X+2385100Y-214200D01*
X+2385100Y-260700D01*
X+2394400Y-270000D01*
X+2403700Y-270000D01*
X+2413000Y-260700D01*
X+2413000Y-214200D01*
X+2413000Y-260700D02*
X+2422300Y-270000D01*
X+2440900Y-270000D01*
X+2422300Y-344400D02*
X+2422300Y-288600D01*
X+2385100Y-325800D01*
X+2440900Y-325800D01*
X+2431600Y-363000D02*
X+2394400Y-363000D01*
X+2385100Y-372300D01*
X+2385100Y-409500D01*
X+2394400Y-418800D01*
X+2431600Y-418800D01*
X+2440900Y-409500D01*
X+2440900Y-372300D01*
X+2431600Y-363000D01*
X+2440900Y-363000D02*
X+2385100Y-418800D01*
X+2422300Y-493200D02*
X+2422300Y-437400D01*
X+2385100Y-474600D01*
X+2440900Y-474600D01*
D119*
X+2782000Y-123000D02*
X+2782000Y-593000D01*
X+2552000Y-593000D01*
X+2552000Y-123000D01*
X+2782000Y-123000D01*
X+2617000Y-358000D02*
X+2717000Y-358000D01*
X+2667000Y-408000D02*
X+2667000Y-308000D01*
D132*
X+2686000Y-263000D02*
X+2695500Y-253500D01*
X+2695500Y-225000D01*
X+2676500Y-206000D01*
X+2657500Y-206000D01*
X+2638500Y-225000D01*
X+2638500Y-253500D01*
X+2648000Y-263000D01*
X+2676500Y-339000D02*
X+2676500Y-282000D01*
X+2638500Y-320000D01*
X+2695500Y-320000D01*
X+2686000Y-358000D02*
X+2648000Y-358000D01*
X+2638500Y-367500D01*
X+2638500Y-405500D01*
X+2648000Y-415000D01*
X+2686000Y-415000D01*
X+2695500Y-405500D01*
X+2695500Y-367500D01*
X+2686000Y-358000D01*
X+2695500Y-358000D02*
X+2638500Y-415000D01*
X+2648000Y-443500D02*
X+2638500Y-453000D01*
X+2638500Y-481500D01*
X+2648000Y-491000D01*
X+2657500Y-491000D01*
X+2667000Y-481500D01*
X+2676500Y-491000D01*
X+2686000Y-491000D01*
X+2695500Y-481500D01*
X+2695500Y-453000D01*
X+2686000Y-443500D01*
X+2667000Y-462500D02*
X+2667000Y-481500D01*
D119*
X+2782000Y-641000D02*
X+2782000Y-1101000D01*
X+2552000Y-1101000D01*
X+2552000Y-641000D01*
X+2782000Y-641000D01*
X+2617000Y-871000D02*
X+2717000Y-871000D01*
X+2667000Y-921000D02*
X+2667000Y-821000D01*
D127*
X+2694900Y-722200D02*
X+2639100Y-722200D01*
X+2639100Y-768700D01*
X+2648400Y-778000D01*
X+2657700Y-778000D01*
X+2667000Y-768700D01*
X+2667000Y-722200D01*
X+2667000Y-768700D02*
X+2676300Y-778000D01*
X+2694900Y-778000D01*
X+2676300Y-852400D02*
X+2676300Y-796600D01*
X+2639100Y-833800D01*
X+2694900Y-833800D01*
X+2685600Y-871000D02*
X+2648400Y-871000D01*
X+2639100Y-880300D01*
X+2639100Y-917500D01*
X+2648400Y-926800D01*
X+2685600Y-926800D01*
X+2694900Y-917500D01*
X+2694900Y-880300D01*
X+2685600Y-871000D01*
X+2694900Y-871000D02*
X+2639100Y-926800D01*
X+2648400Y-954700D02*
X+2639100Y-964000D01*
X+2639100Y-991900D01*
X+2648400Y-1001200D01*
X+2657700Y-1001200D01*
X+2667000Y-991900D01*
X+2676300Y-1001200D01*
X+2685600Y-1001200D01*
X+2694900Y-991900D01*
X+2694900Y-964000D01*
X+2685600Y-954700D01*
X+2667000Y-973300D02*
X+2667000Y-991900D01*
D48*
X-895350Y-4889500D02*
X-196850Y-4889500D01*
X-196850Y-3722370D01*
X-895350Y-3722370D01*
X-895350Y-4889500D01*
D117*
X-662813Y-3994701D02*
X-468291Y-3994701D01*
X-429387Y-4033605D01*
X-429387Y-4189222D01*
X-468291Y-4228126D01*
X-662813Y-4228126D01*
X-662813Y-4539360D02*
X-662813Y-4344839D01*
X-585004Y-4344839D01*
X-585004Y-4500456D01*
X-546100Y-4539360D01*
X-468291Y-4539360D01*
X-429387Y-4500456D01*
X-429387Y-4383743D01*
X-468291Y-4344839D01*
D48*
X-57150Y-4889500D02*
X+641350Y-4889500D01*
X+641350Y-3722370D01*
X-57150Y-3722370D01*
X-57150Y-4889500D01*
D117*
X+408813Y-4617169D02*
X+214291Y-4617169D01*
X+175387Y-4578265D01*
X+175387Y-4422648D01*
X+214291Y-4383744D01*
X+408813Y-4383744D01*
X+408813Y-4267031D02*
X+408813Y-4072510D01*
X+369909Y-4072510D01*
X+175387Y-4267031D01*
D119*
X-377000Y-5195000D02*
X-847000Y-5195000D01*
X-847000Y-4965000D01*
X-377000Y-4965000D01*
X-377000Y-5195000D01*
X-612000Y-5030000D02*
X-612000Y-5130000D01*
X-662000Y-5080000D02*
X-562000Y-5080000D01*
D124*
X-540750Y-5103750D02*
X-528875Y-5115625D01*
X-493250Y-5115625D01*
X-469500Y-5091875D01*
X-469500Y-5068125D01*
X-493250Y-5044375D01*
X-528875Y-5044375D01*
X-540750Y-5056250D01*
X-564500Y-5115625D02*
X-564500Y-5068125D01*
X-588250Y-5044375D01*
X-612000Y-5044375D01*
X-635750Y-5068125D01*
X-635750Y-5115625D01*
X-564500Y-5091875D02*
X-635750Y-5091875D01*
X-671375Y-5056250D02*
X-683250Y-5044375D01*
X-718875Y-5044375D01*
X-730750Y-5056250D01*
X-730750Y-5068125D01*
X-718875Y-5080000D01*
X-683250Y-5080000D01*
X-671375Y-5091875D01*
X-671375Y-5115625D01*
X-730750Y-5115625D01*
D119*
X+407100Y-3209100D02*
X+407100Y-3679100D01*
X+177100Y-3679100D01*
X+177100Y-3209100D01*
X+407100Y-3209100D01*
X+242100Y-3444100D02*
X+342100Y-3444100D01*
X+292100Y-3494100D02*
X+292100Y-3394100D01*
D124*
X+315850Y-3372850D02*
X+327725Y-3360975D01*
X+327725Y-3325350D01*
X+303975Y-3301600D01*
X+280225Y-3301600D01*
X+256475Y-3325350D01*
X+256475Y-3360975D01*
X+268350Y-3372850D01*
X+327725Y-3396600D02*
X+280225Y-3396600D01*
X+256475Y-3420350D01*
X+256475Y-3444100D01*
X+280225Y-3467850D01*
X+327725Y-3467850D01*
X+303975Y-3396600D02*
X+303975Y-3467850D01*
X+256475Y-3503475D02*
X+256475Y-3562850D01*
X+268350Y-3562850D01*
X+327725Y-3503475D01*
D119*
X+2782000Y-1121500D02*
X+2782000Y-1591500D01*
X+2552000Y-1591500D01*
X+2552000Y-1121500D01*
X+2782000Y-1121500D01*
X+2617000Y-1356500D02*
X+2717000Y-1356500D01*
X+2667000Y-1406500D02*
X+2667000Y-1306500D01*
D132*
X+2648000Y-1451500D02*
X+2638500Y-1461000D01*
X+2638500Y-1489500D01*
X+2657500Y-1508500D01*
X+2676500Y-1508500D01*
X+2695500Y-1489500D01*
X+2695500Y-1461000D01*
X+2686000Y-1451500D01*
X+2657500Y-1375500D02*
X+2657500Y-1432500D01*
X+2695500Y-1394500D01*
X+2638500Y-1394500D01*
X+2648000Y-1356500D02*
X+2686000Y-1356500D01*
X+2695500Y-1347000D01*
X+2695500Y-1309000D01*
X+2686000Y-1299500D01*
X+2648000Y-1299500D01*
X+2638500Y-1309000D01*
X+2638500Y-1347000D01*
X+2648000Y-1356500D01*
X+2638500Y-1356500D02*
X+2695500Y-1299500D01*
X+2695500Y-1223500D02*
X+2695500Y-1271000D01*
X+2676500Y-1271000D01*
X+2676500Y-1233000D01*
X+2667000Y-1223500D01*
X+2648000Y-1223500D01*
X+2638500Y-1233000D01*
X+2638500Y-1261500D01*
X+2648000Y-1271000D01*
D119*
X+2528000Y-1629500D02*
X+2528000Y-2099500D01*
X+2298000Y-2099500D01*
X+2298000Y-1629500D01*
X+2528000Y-1629500D01*
X+2363000Y-1864500D02*
X+2463000Y-1864500D01*
X+2413000Y-1914500D02*
X+2413000Y-1814500D01*
D132*
X+2394000Y-1959500D02*
X+2384500Y-1969000D01*
X+2384500Y-1997500D01*
X+2403500Y-2016500D01*
X+2422500Y-2016500D01*
X+2441500Y-1997500D01*
X+2441500Y-1969000D01*
X+2432000Y-1959500D01*
X+2403500Y-1883500D02*
X+2403500Y-1940500D01*
X+2441500Y-1902500D01*
X+2384500Y-1902500D01*
X+2394000Y-1864500D02*
X+2432000Y-1864500D01*
X+2441500Y-1855000D01*
X+2441500Y-1817000D01*
X+2432000Y-1807500D01*
X+2394000Y-1807500D01*
X+2384500Y-1817000D01*
X+2384500Y-1855000D01*
X+2394000Y-1864500D01*
X+2384500Y-1864500D02*
X+2441500Y-1807500D01*
X+2432000Y-1731500D02*
X+2441500Y-1741000D01*
X+2441500Y-1769500D01*
X+2432000Y-1779000D01*
X+2394000Y-1779000D01*
X+2384500Y-1769500D01*
X+2384500Y-1741000D01*
X+2394000Y-1731500D01*
X+2403500Y-1731500D01*
X+2413000Y-1741000D01*
X+2413000Y-1779000D01*
D119*
X+2782000Y-1629500D02*
X+2782000Y-2089500D01*
X+2552000Y-2089500D01*
X+2552000Y-1629500D01*
X+2782000Y-1629500D01*
X+2617000Y-1859500D02*
X+2717000Y-1859500D01*
X+2667000Y-1909500D02*
X+2667000Y-1809500D01*
D127*
X+2639100Y-2008300D02*
X+2694900Y-2008300D01*
X+2694900Y-1961800D01*
X+2685600Y-1952500D01*
X+2676300Y-1952500D01*
X+2667000Y-1961800D01*
X+2667000Y-2008300D01*
X+2667000Y-1961800D02*
X+2657700Y-1952500D01*
X+2639100Y-1952500D01*
X+2657700Y-1878100D02*
X+2657700Y-1933900D01*
X+2694900Y-1896700D01*
X+2639100Y-1896700D01*
X+2648400Y-1859500D02*
X+2685600Y-1859500D01*
X+2694900Y-1850200D01*
X+2694900Y-1813000D01*
X+2685600Y-1803700D01*
X+2648400Y-1803700D01*
X+2639100Y-1813000D01*
X+2639100Y-1850200D01*
X+2648400Y-1859500D01*
X+2639100Y-1859500D02*
X+2694900Y-1803700D01*
X+2694900Y-1775800D02*
X+2694900Y-1729300D01*
X+2685600Y-1729300D01*
X+2639100Y-1775800D01*
D119*
X+2528000Y-1121500D02*
X+2528000Y-1581500D01*
X+2298000Y-1581500D01*
X+2298000Y-1121500D01*
X+2528000Y-1121500D01*
X+2363000Y-1351500D02*
X+2463000Y-1351500D01*
X+2413000Y-1401500D02*
X+2413000Y-1301500D01*
D127*
X+2385100Y-1500300D02*
X+2440900Y-1500300D01*
X+2440900Y-1453800D01*
X+2431600Y-1444500D01*
X+2422300Y-1444500D01*
X+2413000Y-1453800D01*
X+2413000Y-1500300D01*
X+2413000Y-1453800D02*
X+2403700Y-1444500D01*
X+2385100Y-1444500D01*
X+2403700Y-1370100D02*
X+2403700Y-1425900D01*
X+2440900Y-1388700D01*
X+2385100Y-1388700D01*
X+2394400Y-1351500D02*
X+2431600Y-1351500D01*
X+2440900Y-1342200D01*
X+2440900Y-1305000D01*
X+2431600Y-1295700D01*
X+2394400Y-1295700D01*
X+2385100Y-1305000D01*
X+2385100Y-1342200D01*
X+2394400Y-1351500D01*
X+2385100Y-1351500D02*
X+2440900Y-1295700D01*
X+2413000Y-1258500D02*
X+2422300Y-1267800D01*
X+2431600Y-1267800D01*
X+2440900Y-1258500D01*
X+2440900Y-1230600D01*
X+2431600Y-1221300D01*
X+2422300Y-1221300D01*
X+2413000Y-1230600D01*
X+2413000Y-1258500D01*
X+2403700Y-1267800D01*
X+2394400Y-1267800D01*
X+2385100Y-1258500D01*
X+2385100Y-1230600D01*
X+2394400Y-1221300D01*
X+2403700Y-1221300D01*
X+2413000Y-1230600D01*
D119*
X+7243000Y-6274500D02*
X+6773000Y-6274500D01*
X+6773000Y-6044500D01*
X+7243000Y-6044500D01*
X+7243000Y-6274500D01*
X+7008000Y-6109500D02*
X+7008000Y-6209500D01*
X+6958000Y-6159500D02*
X+7058000Y-6159500D01*
D124*
X+7079250Y-6183250D02*
X+7091125Y-6195125D01*
X+7126750Y-6195125D01*
X+7150500Y-6171375D01*
X+7150500Y-6147625D01*
X+7126750Y-6123875D01*
X+7091125Y-6123875D01*
X+7079250Y-6135750D01*
X+7043625Y-6135750D02*
X+7031750Y-6123875D01*
X+6996125Y-6123875D01*
X+6984250Y-6135750D01*
X+6984250Y-6147625D01*
X+6996125Y-6159500D01*
X+6984250Y-6171375D01*
X+6984250Y-6183250D01*
X+6996125Y-6195125D01*
X+7031750Y-6195125D01*
X+7043625Y-6183250D01*
X+7019875Y-6159500D02*
X+6996125Y-6159500D01*
X+6889250Y-6135750D02*
X+6901125Y-6123875D01*
X+6936750Y-6123875D01*
X+6948625Y-6135750D01*
X+6948625Y-6183250D01*
X+6936750Y-6195125D01*
X+6901125Y-6195125D01*
X+6889250Y-6183250D01*
X+6889250Y-6171375D01*
X+6901125Y-6159500D01*
X+6948625Y-6159500D01*
D119*
X+1782000Y-4369500D02*
X+1312000Y-4369500D01*
X+1312000Y-4139500D01*
X+1782000Y-4139500D01*
X+1782000Y-4369500D01*
X+1547000Y-4204500D02*
X+1547000Y-4304500D01*
X+1497000Y-4254500D02*
X+1597000Y-4254500D01*
D124*
X+1618250Y-4278250D02*
X+1630125Y-4290125D01*
X+1665750Y-4290125D01*
X+1689500Y-4266375D01*
X+1689500Y-4242625D01*
X+1665750Y-4218875D01*
X+1630125Y-4218875D01*
X+1618250Y-4230750D01*
X+1582625Y-4230750D02*
X+1570750Y-4218875D01*
X+1535125Y-4218875D01*
X+1523250Y-4230750D01*
X+1523250Y-4242625D01*
X+1535125Y-4254500D01*
X+1523250Y-4266375D01*
X+1523250Y-4278250D01*
X+1535125Y-4290125D01*
X+1570750Y-4290125D01*
X+1582625Y-4278250D01*
X+1558875Y-4254500D02*
X+1535125Y-4254500D01*
X+1487625Y-4218875D02*
X+1428250Y-4218875D01*
X+1428250Y-4230750D01*
X+1487625Y-4290125D01*
D48*
X-50800Y-5417820D02*
X+365760Y-5417820D01*
X+365760Y-5250180D01*
X-50800Y-5250180D01*
X-50800Y-5417820D01*
D147*
X+77013Y-5303824D02*
X+77013Y-5364175D01*
X+117246Y-5364175D01*
X+137363Y-5344058D01*
X+137363Y-5323941D01*
X+117246Y-5303824D01*
X+77013Y-5303824D01*
X+167538Y-5354116D02*
X+177596Y-5364175D01*
X+207771Y-5364175D01*
X+217830Y-5354116D01*
X+217830Y-5344058D01*
X+207771Y-5334000D01*
X+177596Y-5334000D01*
X+167538Y-5323941D01*
X+167538Y-5303824D01*
X+217830Y-5303824D01*
D119*
X+7979500Y-5409500D02*
X+8439500Y-5409500D01*
X+8439500Y-5639500D01*
X+7979500Y-5639500D01*
X+7979500Y-5409500D01*
X+8209500Y-5574500D02*
X+8209500Y-5474500D01*
X+8259500Y-5524500D02*
X+8159500Y-5524500D01*
D120*
X+8070000Y-5489625D02*
X+8070000Y-5559375D01*
X+8128125Y-5559375D01*
X+8139750Y-5547750D01*
X+8139750Y-5536125D01*
X+8128125Y-5524500D01*
X+8070000Y-5524500D01*
X+8128125Y-5524500D02*
X+8139750Y-5512875D01*
X+8139750Y-5489625D01*
X+8174625Y-5547750D02*
X+8186250Y-5559375D01*
X+8221125Y-5559375D01*
X+8232750Y-5547750D01*
X+8232750Y-5536125D01*
X+8221125Y-5524500D01*
X+8232750Y-5512875D01*
X+8232750Y-5501250D01*
X+8221125Y-5489625D01*
X+8186250Y-5489625D01*
X+8174625Y-5501250D01*
X+8197875Y-5524500D02*
X+8221125Y-5524500D01*
X+8279250Y-5536125D02*
X+8302500Y-5559375D01*
X+8302500Y-5489625D01*
D119*
X+7108500Y-5455499D02*
X+7568500Y-5455499D01*
X+7568500Y-5685499D01*
X+7108500Y-5685499D01*
X+7108500Y-5455499D01*
X+7338500Y-5620499D02*
X+7338500Y-5520499D01*
X+7388500Y-5570499D02*
X+7288500Y-5570499D01*
D120*
X+7478000Y-5605374D02*
X+7478000Y-5535624D01*
X+7419875Y-5535624D01*
X+7408250Y-5547249D01*
X+7408250Y-5558874D01*
X+7419875Y-5570499D01*
X+7478000Y-5570499D01*
X+7419875Y-5570499D02*
X+7408250Y-5582124D01*
X+7408250Y-5605374D01*
X+7373375Y-5547249D02*
X+7361750Y-5535624D01*
X+7326875Y-5535624D01*
X+7315250Y-5547249D01*
X+7315250Y-5558874D01*
X+7326875Y-5570499D01*
X+7315250Y-5582124D01*
X+7315250Y-5593749D01*
X+7326875Y-5605374D01*
X+7361750Y-5605374D01*
X+7373375Y-5593749D01*
X+7350125Y-5570499D02*
X+7326875Y-5570499D01*
X+7222250Y-5582124D02*
X+7292000Y-5582124D01*
X+7245500Y-5535624D01*
X+7245500Y-5605374D01*
D119*
X+7622500Y-5645500D02*
X+7622500Y-5185500D01*
X+7852500Y-5185500D01*
X+7852500Y-5645500D01*
X+7622500Y-5645500D01*
X+7787500Y-5415500D02*
X+7687500Y-5415500D01*
X+7737500Y-5365500D02*
X+7737500Y-5465500D01*
D120*
X+7772375Y-5276000D02*
X+7702625Y-5276000D01*
X+7702625Y-5334125D01*
X+7714250Y-5345750D01*
X+7725875Y-5345750D01*
X+7737500Y-5334125D01*
X+7737500Y-5276000D01*
X+7737500Y-5334125D02*
X+7749125Y-5345750D01*
X+7772375Y-5345750D01*
X+7714250Y-5380625D02*
X+7702625Y-5392250D01*
X+7702625Y-5427125D01*
X+7714250Y-5438750D01*
X+7725875Y-5438750D01*
X+7737500Y-5427125D01*
X+7749125Y-5438750D01*
X+7760750Y-5438750D01*
X+7772375Y-5427125D01*
X+7772375Y-5392250D01*
X+7760750Y-5380625D01*
X+7737500Y-5403875D02*
X+7737500Y-5427125D01*
X+7702625Y-5531750D02*
X+7702625Y-5473625D01*
X+7725875Y-5473625D01*
X+7725875Y-5520125D01*
X+7737500Y-5531750D01*
X+7760750Y-5531750D01*
X+7772375Y-5520125D01*
X+7772375Y-5485250D01*
X+7760750Y-5473625D01*
D119*
X+9099200Y-4126800D02*
X+9559200Y-4126800D01*
X+9559200Y-4356800D01*
X+9099200Y-4356800D01*
X+9099200Y-4126800D01*
X+9329200Y-4291800D02*
X+9329200Y-4191800D01*
X+9379200Y-4241800D02*
X+9279200Y-4241800D01*
D120*
X+9468700Y-4276675D02*
X+9468700Y-4206925D01*
X+9410575Y-4206925D01*
X+9398950Y-4218550D01*
X+9398950Y-4230175D01*
X+9410575Y-4241800D01*
X+9468700Y-4241800D01*
X+9410575Y-4241800D02*
X+9398950Y-4253425D01*
X+9398950Y-4276675D01*
X+9305950Y-4253425D02*
X+9375700Y-4253425D01*
X+9329200Y-4206925D01*
X+9329200Y-4276675D01*
X+9271075Y-4218550D02*
X+9259450Y-4206925D01*
X+9224575Y-4206925D01*
X+9212950Y-4218550D01*
X+9212950Y-4230175D01*
X+9224575Y-4241800D01*
X+9212950Y-4253425D01*
X+9212950Y-4265050D01*
X+9224575Y-4276675D01*
X+9259450Y-4276675D01*
X+9271075Y-4265050D01*
X+9247825Y-4241800D02*
X+9224575Y-4241800D01*
D119*
X-133000Y-5449000D02*
X-593000Y-5449000D01*
X-593000Y-5219000D01*
X-133000Y-5219000D01*
X-133000Y-5449000D01*
X-363000Y-5284000D02*
X-363000Y-5384000D01*
X-413000Y-5334000D02*
X-313000Y-5334000D01*
D120*
X-502500Y-5299125D02*
X-502500Y-5368875D01*
X-444375Y-5368875D01*
X-432750Y-5357250D01*
X-432750Y-5345625D01*
X-444375Y-5334000D01*
X-502500Y-5334000D01*
X-444375Y-5334000D02*
X-432750Y-5322375D01*
X-432750Y-5299125D01*
X-339750Y-5322375D02*
X-409500Y-5322375D01*
X-363000Y-5368875D01*
X-363000Y-5299125D01*
X-246750Y-5322375D02*
X-316500Y-5322375D01*
X-270000Y-5368875D01*
X-270000Y-5299125D01*
D119*
X+1820000Y-4393500D02*
X+2280000Y-4393500D01*
X+2280000Y-4623500D01*
X+1820000Y-4623500D01*
X+1820000Y-4393500D01*
X+2050000Y-4558500D02*
X+2050000Y-4458500D01*
X+2100000Y-4508500D02*
X+2000000Y-4508500D01*
D120*
X+2189500Y-4543375D02*
X+2189500Y-4473625D01*
X+2131375Y-4473625D01*
X+2119750Y-4485250D01*
X+2119750Y-4496875D01*
X+2131375Y-4508500D01*
X+2189500Y-4508500D01*
X+2131375Y-4508500D02*
X+2119750Y-4520125D01*
X+2119750Y-4543375D01*
X+2026750Y-4520125D02*
X+2096500Y-4520125D01*
X+2050000Y-4473625D01*
X+2050000Y-4543375D01*
X+1991875Y-4473625D02*
X+1933750Y-4473625D01*
X+1933750Y-4485250D01*
X+1991875Y-4543375D01*
D119*
X+1820000Y-4139500D02*
X+2280000Y-4139500D01*
X+2280000Y-4369500D01*
X+1820000Y-4369500D01*
X+1820000Y-4139500D01*
X+2050000Y-4304500D02*
X+2050000Y-4204500D01*
X+2100000Y-4254500D02*
X+2000000Y-4254500D01*
D120*
X+2189500Y-4289375D02*
X+2189500Y-4219625D01*
X+2131375Y-4219625D01*
X+2119750Y-4231250D01*
X+2119750Y-4242875D01*
X+2131375Y-4254500D01*
X+2189500Y-4254500D01*
X+2131375Y-4254500D02*
X+2119750Y-4266125D01*
X+2119750Y-4289375D01*
X+2026750Y-4266125D02*
X+2096500Y-4266125D01*
X+2050000Y-4219625D01*
X+2050000Y-4289375D01*
X+1980250Y-4254500D02*
X+1991875Y-4242875D01*
X+1991875Y-4231250D01*
X+1980250Y-4219625D01*
X+1945375Y-4219625D01*
X+1933750Y-4231250D01*
X+1933750Y-4242875D01*
X+1945375Y-4254500D01*
X+1980250Y-4254500D01*
X+1991875Y-4266125D01*
X+1991875Y-4277750D01*
X+1980250Y-4289375D01*
X+1945375Y-4289375D01*
X+1933750Y-4277750D01*
X+1933750Y-4266125D01*
X+1945375Y-4254500D01*
D119*
X+1312000Y-4393500D02*
X+1772000Y-4393500D01*
X+1772000Y-4623500D01*
X+1312000Y-4623500D01*
X+1312000Y-4393500D01*
X+1542000Y-4558500D02*
X+1542000Y-4458500D01*
X+1592000Y-4508500D02*
X+1492000Y-4508500D01*
D120*
X+1681500Y-4543375D02*
X+1681500Y-4473625D01*
X+1623375Y-4473625D01*
X+1611750Y-4485250D01*
X+1611750Y-4496875D01*
X+1623375Y-4508500D01*
X+1681500Y-4508500D01*
X+1623375Y-4508500D02*
X+1611750Y-4520125D01*
X+1611750Y-4543375D01*
X+1518750Y-4520125D02*
X+1588500Y-4520125D01*
X+1542000Y-4473625D01*
X+1542000Y-4543375D01*
X+1425750Y-4496875D02*
X+1437375Y-4508500D01*
X+1472250Y-4508500D01*
X+1483875Y-4496875D01*
X+1483875Y-4485250D01*
X+1472250Y-4473625D01*
X+1437375Y-4473625D01*
X+1425750Y-4485250D01*
X+1425750Y-4531750D01*
X+1437375Y-4543375D01*
X+1472250Y-4543375D01*
D119*
X+1645000Y-4877500D02*
X+1185000Y-4877500D01*
X+1185000Y-4647500D01*
X+1645000Y-4647500D01*
X+1645000Y-4877500D01*
X+1415000Y-4712500D02*
X+1415000Y-4812500D01*
X+1365000Y-4762500D02*
X+1465000Y-4762500D01*
D120*
X+1554500Y-4797375D02*
X+1554500Y-4727625D01*
X+1496375Y-4727625D01*
X+1484750Y-4739250D01*
X+1484750Y-4750875D01*
X+1496375Y-4762500D01*
X+1554500Y-4762500D01*
X+1496375Y-4762500D02*
X+1484750Y-4774125D01*
X+1484750Y-4797375D01*
X+1391750Y-4727625D02*
X+1449875Y-4727625D01*
X+1449875Y-4750875D01*
X+1403375Y-4750875D01*
X+1391750Y-4762500D01*
X+1391750Y-4785750D01*
X+1403375Y-4797375D01*
X+1438250Y-4797375D01*
X+1449875Y-4785750D01*
X+1368500Y-4785750D02*
X+1368500Y-4739250D01*
X+1356875Y-4727625D01*
X+1310375Y-4727625D01*
X+1298750Y-4739250D01*
X+1298750Y-4785750D01*
X+1310375Y-4797375D01*
X+1356875Y-4797375D01*
X+1368500Y-4785750D01*
X+1368500Y-4797375D02*
X+1298750Y-4727625D01*
D119*
X+3979500Y-2059000D02*
X+4329500Y-2059000D01*
X+4329500Y-2259000D01*
X+3979500Y-2259000D01*
X+3979500Y-2059000D01*
X+4154500Y-2209000D02*
X+4154500Y-2109000D01*
X+4204500Y-2159000D02*
X+4104500Y-2159000D01*
D148*
X+4276213Y-2174215D02*
X+4276213Y-2143786D01*
X+4250857Y-2143786D01*
X+4245785Y-2148858D01*
X+4245785Y-2153929D01*
X+4250857Y-2159000D01*
X+4276213Y-2159000D01*
X+4250857Y-2159000D02*
X+4245785Y-2164072D01*
X+4245785Y-2174215D01*
X+4235642Y-2143786D02*
X+4205214Y-2143786D01*
X+4220428Y-2143786D02*
X+4220428Y-2174215D01*
X+4195071Y-2179286D02*
X+4164643Y-2179286D01*
X+4154500Y-2174215D02*
X+4154500Y-2143786D01*
X+4124072Y-2174215D01*
X+4124072Y-2143786D01*
X+4113929Y-2143786D02*
X+4083501Y-2143786D01*
X+4098715Y-2143786D02*
X+4098715Y-2174215D01*
X+4042930Y-2169143D02*
X+4048002Y-2174215D01*
X+4063216Y-2174215D01*
X+4073358Y-2164072D01*
X+4073358Y-2153929D01*
X+4063216Y-2143786D01*
X+4048002Y-2143786D01*
X+4042930Y-2148858D01*
D119*
X+2577400Y-5647600D02*
X+2577400Y-5187600D01*
X+2807400Y-5187600D01*
X+2807400Y-5647600D01*
X+2577400Y-5647600D01*
X+2742400Y-5417600D02*
X+2642400Y-5417600D01*
X+2692400Y-5367600D02*
X+2692400Y-5467600D01*
D133*
X+2650100Y-5530400D02*
X+2734700Y-5530400D01*
X+2734700Y-5459900D01*
X+2720600Y-5445800D01*
X+2706500Y-5445800D01*
X+2692400Y-5459900D01*
X+2692400Y-5530400D01*
X+2692400Y-5459900D02*
X+2678300Y-5445800D01*
X+2650100Y-5445800D01*
X+2692400Y-5389400D02*
X+2706500Y-5403500D01*
X+2720600Y-5403500D01*
X+2734700Y-5389400D01*
X+2734700Y-5347100D01*
X+2720600Y-5333000D01*
X+2706500Y-5333000D01*
X+2692400Y-5347100D01*
X+2692400Y-5389400D01*
X+2678300Y-5403500D01*
X+2664200Y-5403500D01*
X+2650100Y-5389400D01*
X+2650100Y-5347100D01*
X+2664200Y-5333000D01*
X+2678300Y-5333000D01*
X+2692400Y-5347100D01*
D119*
X+3683700Y-5682900D02*
X+3683700Y-6142900D01*
X+3453700Y-6142900D01*
X+3453700Y-5682900D01*
X+3683700Y-5682900D01*
X+3518700Y-5912900D02*
X+3618700Y-5912900D01*
X+3568700Y-5962900D02*
X+3568700Y-5862900D01*
D133*
X+3526400Y-6025700D02*
X+3611000Y-6025700D01*
X+3611000Y-5955200D01*
X+3596900Y-5941100D01*
X+3582800Y-5941100D01*
X+3568700Y-5955200D01*
X+3568700Y-6025700D01*
X+3568700Y-5955200D02*
X+3554600Y-5941100D01*
X+3526400Y-5941100D01*
X+3582800Y-5828300D02*
X+3568700Y-5842400D01*
X+3568700Y-5884700D01*
X+3582800Y-5898800D01*
X+3596900Y-5898800D01*
X+3611000Y-5884700D01*
X+3611000Y-5842400D01*
X+3596900Y-5828300D01*
X+3540500Y-5828300D01*
X+3526400Y-5842400D01*
X+3526400Y-5884700D01*
D119*
X+2818700Y-5939700D02*
X+2818700Y-5479700D01*
X+3048700Y-5479700D01*
X+3048700Y-5939700D01*
X+2818700Y-5939700D01*
X+2983700Y-5709700D02*
X+2883700Y-5709700D01*
X+2933700Y-5659700D02*
X+2933700Y-5759700D01*
D127*
X+2905800Y-5858500D02*
X+2961600Y-5858500D01*
X+2961600Y-5812000D01*
X+2952300Y-5802700D01*
X+2943000Y-5802700D01*
X+2933700Y-5812000D01*
X+2933700Y-5858500D01*
X+2933700Y-5812000D02*
X+2924400Y-5802700D01*
X+2905800Y-5802700D01*
X+2943000Y-5765500D02*
X+2961600Y-5746900D01*
X+2905800Y-5746900D01*
X+2915100Y-5709700D02*
X+2952300Y-5709700D01*
X+2961600Y-5700400D01*
X+2961600Y-5663200D01*
X+2952300Y-5653900D01*
X+2915100Y-5653900D01*
X+2905800Y-5663200D01*
X+2905800Y-5700400D01*
X+2915100Y-5709700D01*
X+2905800Y-5709700D02*
X+2961600Y-5653900D01*
X+2943000Y-5616700D02*
X+2961600Y-5598100D01*
X+2905800Y-5598100D01*
D48*
X+3098800Y-6014720D02*
X+3390900Y-6014720D01*
X+3390900Y-5704840D01*
X+3098800Y-5704840D01*
X+3098800Y-6014720D01*
D134*
X+3255179Y-5942414D02*
X+3275838Y-5921756D01*
X+3275838Y-5901097D01*
X+3255179Y-5880439D01*
X+3234521Y-5880439D01*
X+3213862Y-5901097D01*
X+3213862Y-5921756D01*
X+3234521Y-5942414D01*
X+3255179Y-5942414D01*
X+3234521Y-5901097D02*
X+3213862Y-5880439D01*
X+3265509Y-5849451D02*
X+3275838Y-5839122D01*
X+3275838Y-5808134D01*
X+3265509Y-5797805D01*
X+3255179Y-5797805D01*
X+3244850Y-5808134D01*
X+3234521Y-5797805D01*
X+3224191Y-5797805D01*
X+3213862Y-5808134D01*
X+3213862Y-5839122D01*
X+3224191Y-5849451D01*
X+3244850Y-5828793D02*
X+3244850Y-5808134D01*
D119*
X-567300Y-2566300D02*
X+142700Y-2566300D01*
X+142700Y-2996300D01*
X-567300Y-2996300D01*
X-567300Y-2566300D01*
X-212300Y-2831300D02*
X-212300Y-2731300D01*
X-162300Y-2781300D02*
X-262300Y-2781300D01*
D149*
X-402966Y-2709800D02*
X-402966Y-2852800D01*
X-307633Y-2852800D01*
X-259967Y-2805133D01*
X-259967Y-2757467D01*
X-307633Y-2709800D01*
X-402966Y-2709800D01*
X-69301Y-2757467D02*
X-212300Y-2757467D01*
X-116967Y-2852800D01*
X-116967Y-2709800D01*
D119*
X-567300Y-2096400D02*
X+142700Y-2096400D01*
X+142700Y-2526400D01*
X-567300Y-2526400D01*
X-567300Y-2096400D01*
X-212300Y-2361400D02*
X-212300Y-2261400D01*
X-162300Y-2311400D02*
X-262300Y-2311400D01*
D149*
X-402966Y-2239900D02*
X-402966Y-2382900D01*
X-307633Y-2382900D01*
X-259967Y-2335233D01*
X-259967Y-2287567D01*
X-307633Y-2239900D01*
X-402966Y-2239900D01*
X-188467Y-2359067D02*
X-164634Y-2382900D01*
X-93134Y-2382900D01*
X-69301Y-2359067D01*
X-69301Y-2335233D01*
X-93134Y-2311400D01*
X-69301Y-2287567D01*
X-69301Y-2263733D01*
X-93134Y-2239900D01*
X-164634Y-2239900D01*
X-188467Y-2263733D01*
X-140801Y-2311400D02*
X-93134Y-2311400D01*
D119*
X+1029600Y-3780400D02*
X+1029600Y-3070400D01*
X+1459600Y-3070400D01*
X+1459600Y-3780400D01*
X+1029600Y-3780400D01*
X+1294600Y-3425400D02*
X+1194600Y-3425400D01*
X+1244600Y-3375400D02*
X+1244600Y-3475400D01*
D149*
X+1316100Y-3234734D02*
X+1173100Y-3234734D01*
X+1173100Y-3330067D01*
X+1220767Y-3377733D01*
X+1268433Y-3377733D01*
X+1316100Y-3330067D01*
X+1316100Y-3234734D01*
X+1173100Y-3568399D02*
X+1173100Y-3449233D01*
X+1220767Y-3449233D01*
X+1220767Y-3544566D01*
X+1244600Y-3568399D01*
X+1292267Y-3568399D01*
X+1316100Y-3544566D01*
X+1316100Y-3473066D01*
X+1292267Y-3449233D01*
D119*
X+9559200Y-4090100D02*
X+9099200Y-4090100D01*
X+9099200Y-3860100D01*
X+9559200Y-3860100D01*
X+9559200Y-4090100D01*
X+9329200Y-3925100D02*
X+9329200Y-4025100D01*
X+9279200Y-3975100D02*
X+9379200Y-3975100D01*
D120*
X+9189700Y-3940225D02*
X+9189700Y-4009975D01*
X+9247825Y-4009975D01*
X+9259450Y-3998350D01*
X+9259450Y-3986725D01*
X+9247825Y-3975100D01*
X+9189700Y-3975100D01*
X+9247825Y-3975100D02*
X+9259450Y-3963475D01*
X+9259450Y-3940225D01*
X+9305950Y-3986725D02*
X+9329200Y-4009975D01*
X+9329200Y-3940225D01*
X+9387325Y-3998350D02*
X+9398950Y-4009975D01*
X+9433825Y-4009975D01*
X+9445450Y-3998350D01*
X+9445450Y-3986725D01*
X+9433825Y-3975100D01*
X+9445450Y-3963475D01*
X+9445450Y-3951850D01*
X+9433825Y-3940225D01*
X+9398950Y-3940225D01*
X+9387325Y-3951850D01*
X+9410575Y-3975100D02*
X+9433825Y-3975100D01*
D48*
X+5839460Y-3807500D02*
X+6042660Y-3807500D01*
X+6042660Y-3577500D01*
X+5839460Y-3577500D01*
X+5839460Y-3807500D01*
D150*
X+5918061Y-3631168D02*
X+5956394Y-3631168D01*
X+5964060Y-3638834D01*
X+5964060Y-3669500D01*
X+5956394Y-3677167D01*
X+5918061Y-3677167D01*
X+5933394Y-3707833D02*
X+5918061Y-3723166D01*
X+5964060Y-3723166D01*
D119*
X+6138100Y-3440300D02*
X+5668100Y-3440300D01*
X+5668100Y-3210300D01*
X+6138100Y-3210300D01*
X+6138100Y-3440300D01*
X+5903100Y-3275300D02*
X+5903100Y-3375300D01*
X+5853100Y-3325300D02*
X+5953100Y-3325300D01*
D133*
X+5931300Y-3353500D02*
X+5945400Y-3367600D01*
X+5987700Y-3367600D01*
X+6015900Y-3339400D01*
X+6015900Y-3311200D01*
X+5987700Y-3283000D01*
X+5945400Y-3283000D01*
X+5931300Y-3297100D01*
X+5874900Y-3311200D02*
X+5846700Y-3283000D01*
X+5846700Y-3367600D01*
D119*
X+5766500Y-3956300D02*
X+5766500Y-4426300D01*
X+5536500Y-4426300D01*
X+5536500Y-3956300D01*
X+5766500Y-3956300D01*
X+5601500Y-4191300D02*
X+5701500Y-4191300D01*
X+5651500Y-4241300D02*
X+5651500Y-4141300D01*
D133*
X+5679700Y-4163100D02*
X+5693800Y-4149000D01*
X+5693800Y-4106700D01*
X+5665600Y-4078500D01*
X+5637400Y-4078500D01*
X+5609200Y-4106700D01*
X+5609200Y-4149000D01*
X+5623300Y-4163100D01*
X+5623300Y-4205400D02*
X+5609200Y-4219500D01*
X+5609200Y-4261800D01*
X+5623300Y-4275900D01*
X+5637400Y-4275900D01*
X+5651500Y-4261800D01*
X+5665600Y-4275900D01*
X+5679700Y-4275900D01*
X+5693800Y-4261800D01*
X+5693800Y-4219500D01*
X+5679700Y-4205400D01*
X+5651500Y-4233600D02*
X+5651500Y-4261800D01*
D119*
X+5282500Y-4426300D02*
X+5282500Y-3956300D01*
X+5512500Y-3956300D01*
X+5512500Y-4426300D01*
X+5282500Y-4426300D01*
X+5447500Y-4191300D02*
X+5347500Y-4191300D01*
X+5397500Y-4141300D02*
X+5397500Y-4241300D01*
D133*
X+5425700Y-4163100D02*
X+5439800Y-4149000D01*
X+5439800Y-4106700D01*
X+5411600Y-4078500D01*
X+5383400Y-4078500D01*
X+5355200Y-4106700D01*
X+5355200Y-4149000D01*
X+5369300Y-4163100D01*
X+5411600Y-4275900D02*
X+5411600Y-4191300D01*
X+5355200Y-4247700D01*
X+5439800Y-4247700D01*
D119*
X+6298500Y-4426300D02*
X+6298500Y-3956300D01*
X+6528500Y-3956300D01*
X+6528500Y-4426300D01*
X+6298500Y-4426300D01*
X+6463500Y-4191300D02*
X+6363500Y-4191300D01*
X+6413500Y-4141300D02*
X+6413500Y-4241300D01*
D133*
X+6441700Y-4163100D02*
X+6455800Y-4149000D01*
X+6455800Y-4106700D01*
X+6427600Y-4078500D01*
X+6399400Y-4078500D01*
X+6371200Y-4106700D01*
X+6371200Y-4149000D01*
X+6385300Y-4163100D01*
X+6371200Y-4275900D02*
X+6371200Y-4205400D01*
X+6399400Y-4205400D01*
X+6399400Y-4261800D01*
X+6413500Y-4275900D01*
X+6441700Y-4275900D01*
X+6455800Y-4261800D01*
X+6455800Y-4219500D01*
X+6441700Y-4205400D01*
D119*
X+6044500Y-4424200D02*
X+6044500Y-3964200D01*
X+6274500Y-3964200D01*
X+6274500Y-4424200D01*
X+6044500Y-4424200D01*
X+6209500Y-4194200D02*
X+6109500Y-4194200D01*
X+6159500Y-4144200D02*
X+6159500Y-4244200D01*
D133*
X+6201800Y-4081400D02*
X+6117200Y-4081400D01*
X+6117200Y-4151900D01*
X+6131300Y-4166000D01*
X+6145400Y-4166000D01*
X+6159500Y-4151900D01*
X+6159500Y-4081400D01*
X+6159500Y-4151900D02*
X+6173600Y-4166000D01*
X+6201800Y-4166000D01*
X+6145400Y-4222400D02*
X+6117200Y-4250600D01*
X+6201800Y-4250600D01*
D119*
X+6095300Y-3931000D02*
X+6095300Y-3471000D01*
X+6325300Y-3471000D01*
X+6325300Y-3931000D01*
X+6095300Y-3931000D01*
X+6260300Y-3701000D02*
X+6160300Y-3701000D01*
X+6210300Y-3651000D02*
X+6210300Y-3751000D01*
D133*
X+6252600Y-3588200D02*
X+6168000Y-3588200D01*
X+6168000Y-3658700D01*
X+6182100Y-3672800D01*
X+6196200Y-3672800D01*
X+6210300Y-3658700D01*
X+6210300Y-3588200D01*
X+6210300Y-3658700D02*
X+6224400Y-3672800D01*
X+6252600Y-3672800D01*
X+6182100Y-3715100D02*
X+6168000Y-3729200D01*
X+6168000Y-3771500D01*
X+6182100Y-3785600D01*
X+6196200Y-3785600D01*
X+6210300Y-3771500D01*
X+6210300Y-3729200D01*
X+6224400Y-3715100D01*
X+6252600Y-3715100D01*
X+6252600Y-3785600D01*
D119*
X+6020500Y-3966300D02*
X+6020500Y-4426300D01*
X+5790500Y-4426300D01*
X+5790500Y-3966300D01*
X+6020500Y-3966300D01*
X+5855500Y-4196300D02*
X+5955500Y-4196300D01*
X+5905500Y-4246300D02*
X+5905500Y-4146300D01*
D133*
X+5947800Y-4083500D02*
X+5863200Y-4083500D01*
X+5863200Y-4154000D01*
X+5877300Y-4168100D01*
X+5891400Y-4168100D01*
X+5905500Y-4154000D01*
X+5905500Y-4083500D01*
X+5905500Y-4154000D02*
X+5919600Y-4168100D01*
X+5947800Y-4168100D01*
X+5877300Y-4210400D02*
X+5863200Y-4224500D01*
X+5863200Y-4266800D01*
X+5877300Y-4280900D01*
X+5891400Y-4280900D01*
X+5905500Y-4266800D01*
X+5919600Y-4280900D01*
X+5933700Y-4280900D01*
X+5947800Y-4266800D01*
X+5947800Y-4224500D01*
X+5933700Y-4210400D01*
X+5905500Y-4238600D02*
X+5905500Y-4266800D01*
D119*
X+5536500Y-3931000D02*
X+5536500Y-3471000D01*
X+5766500Y-3471000D01*
X+5766500Y-3931000D01*
X+5536500Y-3931000D01*
X+5701500Y-3701000D02*
X+5601500Y-3701000D01*
X+5651500Y-3651000D02*
X+5651500Y-3751000D01*
D133*
X+5693800Y-3588200D02*
X+5609200Y-3588200D01*
X+5609200Y-3658700D01*
X+5623300Y-3672800D01*
X+5637400Y-3672800D01*
X+5651500Y-3658700D01*
X+5651500Y-3588200D01*
X+5651500Y-3658700D02*
X+5665600Y-3672800D01*
X+5693800Y-3672800D01*
X+5665600Y-3785600D02*
X+5665600Y-3701000D01*
X+5609200Y-3757400D01*
X+5693800Y-3757400D01*
D119*
X+5282500Y-3931000D02*
X+5282500Y-3471000D01*
X+5512500Y-3471000D01*
X+5512500Y-3931000D01*
X+5282500Y-3931000D01*
X+5447500Y-3701000D02*
X+5347500Y-3701000D01*
X+5397500Y-3651000D02*
X+5397500Y-3751000D01*
D120*
X+5432375Y-3561500D02*
X+5362625Y-3561500D01*
X+5362625Y-3619625D01*
X+5374250Y-3631250D01*
X+5385875Y-3631250D01*
X+5397500Y-3619625D01*
X+5397500Y-3561500D01*
X+5397500Y-3619625D02*
X+5409125Y-3631250D01*
X+5432375Y-3631250D01*
X+5385875Y-3677750D02*
X+5362625Y-3701000D01*
X+5432375Y-3701000D01*
X+5362625Y-3759125D02*
X+5362625Y-3817250D01*
X+5374250Y-3817250D01*
X+5432375Y-3759125D01*
D48*
X+7085560Y-3801800D02*
X+7288760Y-3801800D01*
X+7288760Y-3571800D01*
X+7085560Y-3571800D01*
X+7085560Y-3801800D01*
D150*
X+7164161Y-3625468D02*
X+7202494Y-3625468D01*
X+7210160Y-3633134D01*
X+7210160Y-3663800D01*
X+7202494Y-3671467D01*
X+7164161Y-3671467D01*
X+7194827Y-3732799D02*
X+7194827Y-3686800D01*
X+7164161Y-3717466D01*
X+7210160Y-3717466D01*
D119*
X+7425600Y-3432400D02*
X+6955600Y-3432400D01*
X+6955600Y-3202400D01*
X+7425600Y-3202400D01*
X+7425600Y-3432400D01*
X+7190600Y-3267400D02*
X+7190600Y-3367400D01*
X+7140600Y-3317400D02*
X+7240600Y-3317400D01*
D133*
X+7218800Y-3345600D02*
X+7232900Y-3359700D01*
X+7275200Y-3359700D01*
X+7303400Y-3331500D01*
X+7303400Y-3303300D01*
X+7275200Y-3275100D01*
X+7232900Y-3275100D01*
X+7218800Y-3289200D01*
X+7176500Y-3275100D02*
X+7106000Y-3275100D01*
X+7106000Y-3289200D01*
X+7176500Y-3359700D01*
D119*
X+7049200Y-3956300D02*
X+7049200Y-4426300D01*
X+6819200Y-4426300D01*
X+6819200Y-3956300D01*
X+7049200Y-3956300D01*
X+6884200Y-4191300D02*
X+6984200Y-4191300D01*
X+6934200Y-4241300D02*
X+6934200Y-4141300D01*
D124*
X+6957950Y-4120050D02*
X+6969825Y-4108175D01*
X+6969825Y-4072550D01*
X+6946075Y-4048800D01*
X+6922325Y-4048800D01*
X+6898575Y-4072550D01*
X+6898575Y-4108175D01*
X+6910450Y-4120050D01*
X+6922325Y-4167550D02*
X+6898575Y-4191300D01*
X+6969825Y-4191300D01*
X+6934200Y-4262550D02*
X+6922325Y-4250675D01*
X+6910450Y-4250675D01*
X+6898575Y-4262550D01*
X+6898575Y-4298175D01*
X+6910450Y-4310050D01*
X+6922325Y-4310050D01*
X+6934200Y-4298175D01*
X+6934200Y-4262550D01*
X+6946075Y-4250675D01*
X+6957950Y-4250675D01*
X+6969825Y-4262550D01*
X+6969825Y-4298175D01*
X+6957950Y-4310050D01*
X+6946075Y-4310050D01*
X+6934200Y-4298175D01*
D119*
X+6565200Y-4426300D02*
X+6565200Y-3956300D01*
X+6795200Y-3956300D01*
X+6795200Y-4426300D01*
X+6565200Y-4426300D01*
X+6730200Y-4191300D02*
X+6630200Y-4191300D01*
X+6680200Y-4141300D02*
X+6680200Y-4241300D01*
D124*
X+6703950Y-4120050D02*
X+6715825Y-4108175D01*
X+6715825Y-4072550D01*
X+6692075Y-4048800D01*
X+6668325Y-4048800D01*
X+6644575Y-4072550D01*
X+6644575Y-4108175D01*
X+6656450Y-4120050D01*
X+6656450Y-4155675D02*
X+6644575Y-4167550D01*
X+6644575Y-4203175D01*
X+6656450Y-4215050D01*
X+6668325Y-4215050D01*
X+6680200Y-4203175D01*
X+6680200Y-4167550D01*
X+6692075Y-4155675D01*
X+6715825Y-4155675D01*
X+6715825Y-4215050D01*
X+6668325Y-4262550D02*
X+6644575Y-4286300D01*
X+6715825Y-4286300D01*
D119*
X+7581200Y-4418400D02*
X+7581200Y-3948400D01*
X+7811200Y-3948400D01*
X+7811200Y-4418400D01*
X+7581200Y-4418400D01*
X+7746200Y-4183400D02*
X+7646200Y-4183400D01*
X+7696200Y-4133400D02*
X+7696200Y-4233400D01*
D124*
X+7719950Y-4112150D02*
X+7731825Y-4100275D01*
X+7731825Y-4064650D01*
X+7708075Y-4040900D01*
X+7684325Y-4040900D01*
X+7660575Y-4064650D01*
X+7660575Y-4100275D01*
X+7672450Y-4112150D01*
X+7672450Y-4147775D02*
X+7660575Y-4159650D01*
X+7660575Y-4195275D01*
X+7672450Y-4207150D01*
X+7684325Y-4207150D01*
X+7696200Y-4195275D01*
X+7696200Y-4159650D01*
X+7708075Y-4147775D01*
X+7731825Y-4147775D01*
X+7731825Y-4207150D01*
X+7672450Y-4242775D02*
X+7660575Y-4254650D01*
X+7660575Y-4290275D01*
X+7672450Y-4302150D01*
X+7684325Y-4302150D01*
X+7696200Y-4290275D01*
X+7696200Y-4254650D01*
X+7708075Y-4242775D01*
X+7731825Y-4242775D01*
X+7731825Y-4302150D01*
D119*
X+7327200Y-4418400D02*
X+7327200Y-3958400D01*
X+7557200Y-3958400D01*
X+7557200Y-4418400D01*
X+7327200Y-4418400D01*
X+7492200Y-4188400D02*
X+7392200Y-4188400D01*
X+7442200Y-4138400D02*
X+7442200Y-4238400D01*
D120*
X+7477075Y-4048900D02*
X+7407325Y-4048900D01*
X+7407325Y-4107025D01*
X+7418950Y-4118650D01*
X+7430575Y-4118650D01*
X+7442200Y-4107025D01*
X+7442200Y-4048900D01*
X+7442200Y-4107025D02*
X+7453825Y-4118650D01*
X+7477075Y-4118650D01*
X+7430575Y-4165150D02*
X+7407325Y-4188400D01*
X+7477075Y-4188400D01*
X+7453825Y-4304650D02*
X+7453825Y-4234900D01*
X+7407325Y-4281400D01*
X+7477075Y-4281400D01*
D119*
X+7327200Y-3923100D02*
X+7327200Y-3463100D01*
X+7557200Y-3463100D01*
X+7557200Y-3923100D01*
X+7327200Y-3923100D01*
X+7492200Y-3693100D02*
X+7392200Y-3693100D01*
X+7442200Y-3643100D02*
X+7442200Y-3743100D01*
D120*
X+7477075Y-3553600D02*
X+7407325Y-3553600D01*
X+7407325Y-3611725D01*
X+7418950Y-3623350D01*
X+7430575Y-3623350D01*
X+7442200Y-3611725D01*
X+7442200Y-3553600D01*
X+7442200Y-3611725D02*
X+7453825Y-3623350D01*
X+7477075Y-3623350D01*
X+7430575Y-3669850D02*
X+7407325Y-3693100D01*
X+7477075Y-3693100D01*
X+7407325Y-3809350D02*
X+7407325Y-3751225D01*
X+7430575Y-3751225D01*
X+7430575Y-3797725D01*
X+7442200Y-3809350D01*
X+7465450Y-3809350D01*
X+7477075Y-3797725D01*
X+7477075Y-3762850D01*
X+7465450Y-3751225D01*
D119*
X+7303200Y-3958400D02*
X+7303200Y-4418400D01*
X+7073200Y-4418400D01*
X+7073200Y-3958400D01*
X+7303200Y-3958400D01*
X+7138200Y-4188400D02*
X+7238200Y-4188400D01*
X+7188200Y-4238400D02*
X+7188200Y-4138400D01*
D120*
X+7223075Y-4048900D02*
X+7153325Y-4048900D01*
X+7153325Y-4107025D01*
X+7164950Y-4118650D01*
X+7176575Y-4118650D01*
X+7188200Y-4107025D01*
X+7188200Y-4048900D01*
X+7188200Y-4107025D02*
X+7199825Y-4118650D01*
X+7223075Y-4118650D01*
X+7176575Y-4165150D02*
X+7153325Y-4188400D01*
X+7223075Y-4188400D01*
X+7164950Y-4304650D02*
X+7153325Y-4293025D01*
X+7153325Y-4258150D01*
X+7164950Y-4246525D01*
X+7211450Y-4246525D01*
X+7223075Y-4258150D01*
X+7223075Y-4293025D01*
X+7211450Y-4304650D01*
X+7199825Y-4304650D01*
X+7188200Y-4293025D01*
X+7188200Y-4246525D01*
D119*
X+6819200Y-3923100D02*
X+6819200Y-3463100D01*
X+7049200Y-3463100D01*
X+7049200Y-3923100D01*
X+6819200Y-3923100D01*
X+6984200Y-3693100D02*
X+6884200Y-3693100D01*
X+6934200Y-3643100D02*
X+6934200Y-3743100D01*
D120*
X+6969075Y-3553600D02*
X+6899325Y-3553600D01*
X+6899325Y-3611725D01*
X+6910950Y-3623350D01*
X+6922575Y-3623350D01*
X+6934200Y-3611725D01*
X+6934200Y-3553600D01*
X+6934200Y-3611725D02*
X+6945825Y-3623350D01*
X+6969075Y-3623350D01*
X+6922575Y-3669850D02*
X+6899325Y-3693100D01*
X+6969075Y-3693100D01*
X+6922575Y-3809350D02*
X+6934200Y-3797725D01*
X+6934200Y-3762850D01*
X+6922575Y-3751225D01*
X+6910950Y-3751225D01*
X+6899325Y-3762850D01*
X+6899325Y-3797725D01*
X+6910950Y-3809350D01*
X+6957450Y-3809350D01*
X+6969075Y-3797725D01*
X+6969075Y-3762850D01*
D119*
X+6565200Y-3923100D02*
X+6565200Y-3463100D01*
X+6795200Y-3463100D01*
X+6795200Y-3923100D01*
X+6565200Y-3923100D01*
X+6730200Y-3693100D02*
X+6630200Y-3693100D01*
X+6680200Y-3643100D02*
X+6680200Y-3743100D01*
D120*
X+6715075Y-3553600D02*
X+6645325Y-3553600D01*
X+6645325Y-3611725D01*
X+6656950Y-3623350D01*
X+6668575Y-3623350D01*
X+6680200Y-3611725D01*
X+6680200Y-3553600D01*
X+6680200Y-3611725D02*
X+6691825Y-3623350D01*
X+6715075Y-3623350D01*
X+6656950Y-3658225D02*
X+6645325Y-3669850D01*
X+6645325Y-3704725D01*
X+6656950Y-3716350D01*
X+6668575Y-3716350D01*
X+6680200Y-3704725D01*
X+6680200Y-3669850D01*
X+6691825Y-3658225D01*
X+6715075Y-3658225D01*
X+6715075Y-3716350D01*
X+6703450Y-3739600D02*
X+6656950Y-3739600D01*
X+6645325Y-3751225D01*
X+6645325Y-3797725D01*
X+6656950Y-3809350D01*
X+6703450Y-3809350D01*
X+6715075Y-3797725D01*
X+6715075Y-3751225D01*
X+6703450Y-3739600D01*
X+6715075Y-3739600D02*
X+6645325Y-3809350D01*
D48*
X+8380960Y-3782100D02*
X+8584160Y-3782100D01*
X+8584160Y-3552100D01*
X+8380960Y-3552100D01*
X+8380960Y-3782100D01*
D150*
X+8459561Y-3605768D02*
X+8497894Y-3605768D01*
X+8505560Y-3613434D01*
X+8505560Y-3644100D01*
X+8497894Y-3651767D01*
X+8459561Y-3651767D01*
X+8467227Y-3674766D02*
X+8459561Y-3682433D01*
X+8459561Y-3705432D01*
X+8467227Y-3713099D01*
X+8474894Y-3713099D01*
X+8482560Y-3705432D01*
X+8482560Y-3682433D01*
X+8490227Y-3674766D01*
X+8505560Y-3674766D01*
X+8505560Y-3713099D01*
D119*
X+8609900Y-3905600D02*
X+8609900Y-3445600D01*
X+8839900Y-3445600D01*
X+8839900Y-3905600D01*
X+8609900Y-3905600D01*
X+8774900Y-3675600D02*
X+8674900Y-3675600D01*
X+8724900Y-3625600D02*
X+8724900Y-3725600D01*
D120*
X+8759775Y-3536100D02*
X+8690025Y-3536100D01*
X+8690025Y-3594225D01*
X+8701650Y-3605850D01*
X+8713275Y-3605850D01*
X+8724900Y-3594225D01*
X+8724900Y-3536100D01*
X+8724900Y-3594225D02*
X+8736525Y-3605850D01*
X+8759775Y-3605850D01*
X+8701650Y-3640725D02*
X+8690025Y-3652350D01*
X+8690025Y-3687225D01*
X+8701650Y-3698850D01*
X+8713275Y-3698850D01*
X+8724900Y-3687225D01*
X+8724900Y-3652350D01*
X+8736525Y-3640725D01*
X+8759775Y-3640725D01*
X+8759775Y-3698850D01*
X+8713275Y-3745350D02*
X+8690025Y-3768600D01*
X+8759775Y-3768600D01*
D119*
X+8690800Y-3414900D02*
X+8220800Y-3414900D01*
X+8220800Y-3184900D01*
X+8690800Y-3184900D01*
X+8690800Y-3414900D01*
X+8455800Y-3249900D02*
X+8455800Y-3349900D01*
X+8405800Y-3299900D02*
X+8505800Y-3299900D01*
D133*
X+8484000Y-3328100D02*
X+8498100Y-3342200D01*
X+8540400Y-3342200D01*
X+8568600Y-3314000D01*
X+8568600Y-3285800D01*
X+8540400Y-3257600D01*
X+8498100Y-3257600D01*
X+8484000Y-3271700D01*
X+8371200Y-3271700D02*
X+8385300Y-3257600D01*
X+8427600Y-3257600D01*
X+8441700Y-3271700D01*
X+8441700Y-3328100D01*
X+8427600Y-3342200D01*
X+8385300Y-3342200D01*
X+8371200Y-3328100D01*
X+8371200Y-3314000D01*
X+8385300Y-3299900D01*
X+8441700Y-3299900D01*
D119*
X+8863900Y-4408800D02*
X+8863900Y-3938800D01*
X+9093900Y-3938800D01*
X+9093900Y-4408800D01*
X+8863900Y-4408800D01*
X+9028900Y-4173800D02*
X+8928900Y-4173800D01*
X+8978900Y-4123800D02*
X+8978900Y-4223800D01*
D124*
X+9002650Y-4102550D02*
X+9014525Y-4090675D01*
X+9014525Y-4055050D01*
X+8990775Y-4031300D01*
X+8967025Y-4031300D01*
X+8943275Y-4055050D01*
X+8943275Y-4090675D01*
X+8955150Y-4102550D01*
X+8967025Y-4150050D02*
X+8943275Y-4173800D01*
X+9014525Y-4173800D01*
X+9002650Y-4221300D02*
X+8955150Y-4221300D01*
X+8943275Y-4233175D01*
X+8943275Y-4280675D01*
X+8955150Y-4292550D01*
X+9002650Y-4292550D01*
X+9014525Y-4280675D01*
X+9014525Y-4233175D01*
X+9002650Y-4221300D01*
X+9014525Y-4221300D02*
X+8943275Y-4292550D01*
D119*
X+8609900Y-4398800D02*
X+8609900Y-3938800D01*
X+8839900Y-3938800D01*
X+8839900Y-4398800D01*
X+8609900Y-4398800D01*
X+8774900Y-4168800D02*
X+8674900Y-4168800D01*
X+8724900Y-4118800D02*
X+8724900Y-4218800D01*
D120*
X+8759775Y-4029300D02*
X+8690025Y-4029300D01*
X+8690025Y-4087425D01*
X+8701650Y-4099050D01*
X+8713275Y-4099050D01*
X+8724900Y-4087425D01*
X+8724900Y-4029300D01*
X+8724900Y-4087425D02*
X+8736525Y-4099050D01*
X+8759775Y-4099050D01*
X+8713275Y-4145550D02*
X+8690025Y-4168800D01*
X+8759775Y-4168800D01*
X+8724900Y-4238550D02*
X+8713275Y-4226925D01*
X+8701650Y-4226925D01*
X+8690025Y-4238550D01*
X+8690025Y-4273425D01*
X+8701650Y-4285050D01*
X+8713275Y-4285050D01*
X+8724900Y-4273425D01*
X+8724900Y-4238550D01*
X+8736525Y-4226925D01*
X+8748150Y-4226925D01*
X+8759775Y-4238550D01*
X+8759775Y-4273425D01*
X+8748150Y-4285050D01*
X+8736525Y-4285050D01*
X+8724900Y-4273425D01*
D119*
X+8585900Y-3938800D02*
X+8585900Y-4398800D01*
X+8355900Y-4398800D01*
X+8355900Y-3938800D01*
X+8585900Y-3938800D01*
X+8420900Y-4168800D02*
X+8520900Y-4168800D01*
X+8470900Y-4218800D02*
X+8470900Y-4118800D01*
D120*
X+8505775Y-4029300D02*
X+8436025Y-4029300D01*
X+8436025Y-4087425D01*
X+8447650Y-4099050D01*
X+8459275Y-4099050D01*
X+8470900Y-4087425D01*
X+8470900Y-4029300D01*
X+8470900Y-4087425D02*
X+8482525Y-4099050D01*
X+8505775Y-4099050D01*
X+8447650Y-4133925D02*
X+8436025Y-4145550D01*
X+8436025Y-4180425D01*
X+8447650Y-4192050D01*
X+8459275Y-4192050D01*
X+8470900Y-4180425D01*
X+8470900Y-4145550D01*
X+8482525Y-4133925D01*
X+8505775Y-4133925D01*
X+8505775Y-4192050D01*
X+8447650Y-4226925D02*
X+8436025Y-4238550D01*
X+8436025Y-4273425D01*
X+8447650Y-4285050D01*
X+8459275Y-4285050D01*
X+8470900Y-4273425D01*
X+8470900Y-4238550D01*
X+8482525Y-4226925D01*
X+8505775Y-4226925D01*
X+8505775Y-4285050D01*
D119*
X+8101900Y-3905600D02*
X+8101900Y-3445600D01*
X+8331900Y-3445600D01*
X+8331900Y-3905600D01*
X+8101900Y-3905600D01*
X+8266900Y-3675600D02*
X+8166900Y-3675600D01*
X+8216900Y-3625600D02*
X+8216900Y-3725600D01*
D120*
X+8251775Y-3536100D02*
X+8182025Y-3536100D01*
X+8182025Y-3594225D01*
X+8193650Y-3605850D01*
X+8205275Y-3605850D01*
X+8216900Y-3594225D01*
X+8216900Y-3536100D01*
X+8216900Y-3594225D02*
X+8228525Y-3605850D01*
X+8251775Y-3605850D01*
X+8193650Y-3640725D02*
X+8182025Y-3652350D01*
X+8182025Y-3687225D01*
X+8193650Y-3698850D01*
X+8205275Y-3698850D01*
X+8216900Y-3687225D01*
X+8216900Y-3652350D01*
X+8228525Y-3640725D01*
X+8251775Y-3640725D01*
X+8251775Y-3698850D01*
X+8193650Y-3733725D02*
X+8182025Y-3745350D01*
X+8182025Y-3780225D01*
X+8193650Y-3791850D01*
X+8205275Y-3791850D01*
X+8216900Y-3780225D01*
X+8228525Y-3791850D01*
X+8240150Y-3791850D01*
X+8251775Y-3780225D01*
X+8251775Y-3745350D01*
X+8240150Y-3733725D01*
X+8216900Y-3756975D02*
X+8216900Y-3780225D01*
D119*
X+7847900Y-3905600D02*
X+7847900Y-3445600D01*
X+8077900Y-3445600D01*
X+8077900Y-3905600D01*
X+7847900Y-3905600D01*
X+8012900Y-3675600D02*
X+7912900Y-3675600D01*
X+7962900Y-3625600D02*
X+7962900Y-3725600D01*
D120*
X+7997775Y-3536100D02*
X+7928025Y-3536100D01*
X+7928025Y-3594225D01*
X+7939650Y-3605850D01*
X+7951275Y-3605850D01*
X+7962900Y-3594225D01*
X+7962900Y-3536100D01*
X+7962900Y-3594225D02*
X+7974525Y-3605850D01*
X+7997775Y-3605850D01*
X+7939650Y-3640725D02*
X+7928025Y-3652350D01*
X+7928025Y-3687225D01*
X+7939650Y-3698850D01*
X+7951275Y-3698850D01*
X+7962900Y-3687225D01*
X+7962900Y-3652350D01*
X+7974525Y-3640725D01*
X+7997775Y-3640725D01*
X+7997775Y-3698850D01*
X+7974525Y-3791850D02*
X+7974525Y-3722100D01*
X+7928025Y-3768600D01*
X+7997775Y-3768600D01*
D119*
X+8331900Y-3938800D02*
X+8331900Y-4408800D01*
X+8101900Y-4408800D01*
X+8101900Y-3938800D01*
X+8331900Y-3938800D01*
X+8166900Y-4173800D02*
X+8266900Y-4173800D01*
X+8216900Y-4223800D02*
X+8216900Y-4123800D01*
D133*
X+8245100Y-4145600D02*
X+8259200Y-4131500D01*
X+8259200Y-4089200D01*
X+8231000Y-4061000D01*
X+8202800Y-4061000D01*
X+8174600Y-4089200D01*
X+8174600Y-4131500D01*
X+8188700Y-4145600D01*
X+8216900Y-4202000D02*
X+8202800Y-4187900D01*
X+8188700Y-4187900D01*
X+8174600Y-4202000D01*
X+8174600Y-4244300D01*
X+8188700Y-4258400D01*
X+8202800Y-4258400D01*
X+8216900Y-4244300D01*
X+8216900Y-4202000D01*
X+8231000Y-4187900D01*
X+8245100Y-4187900D01*
X+8259200Y-4202000D01*
X+8259200Y-4244300D01*
X+8245100Y-4258400D01*
X+8231000Y-4258400D01*
X+8216900Y-4244300D01*
D119*
X+7847900Y-4413600D02*
X+7847900Y-3943600D01*
X+8077900Y-3943600D01*
X+8077900Y-4413600D01*
X+7847900Y-4413600D01*
X+8012900Y-4178600D02*
X+7912900Y-4178600D01*
X+7962900Y-4128600D02*
X+7962900Y-4228600D01*
D133*
X+7991100Y-4150400D02*
X+8005200Y-4136300D01*
X+8005200Y-4094000D01*
X+7977000Y-4065800D01*
X+7948800Y-4065800D01*
X+7920600Y-4094000D01*
X+7920600Y-4136300D01*
X+7934700Y-4150400D01*
X+7948800Y-4263200D02*
X+7962900Y-4249100D01*
X+7962900Y-4206800D01*
X+7948800Y-4192700D01*
X+7934700Y-4192700D01*
X+7920600Y-4206800D01*
X+7920600Y-4249100D01*
X+7934700Y-4263200D01*
X+7991100Y-4263200D01*
X+8005200Y-4249100D01*
X+8005200Y-4206800D01*
M02*
