G04 PROTEUS RS274X GERBER FILE*
%FSLAX45Y45*%
%MOMM*%
G01*
%ADD14C,0.203200*%
D14*
X-1016000Y+5019040D02*
X+3512000Y+5019040D01*
X+3512000Y+8128000D01*
X-1016000Y+8128000D01*
X-1016000Y+5019040D01*
X+0Y+5461000D02*
X-427Y+5471409D01*
X-3899Y+5492228D01*
X-11155Y+5513047D01*
X-22983Y+5533866D01*
X-41080Y+5554524D01*
X-61899Y+5570045D01*
X-82718Y+5580030D01*
X-103537Y+5585814D01*
X-124356Y+5587972D01*
X-127000Y+5588000D01*
X-254000Y+5461000D02*
X-253573Y+5471409D01*
X-250101Y+5492228D01*
X-242845Y+5513047D01*
X-231017Y+5533866D01*
X-212920Y+5554524D01*
X-192101Y+5570045D01*
X-171282Y+5580030D01*
X-150463Y+5585814D01*
X-129644Y+5587972D01*
X-127000Y+5588000D01*
X-254000Y+5461000D02*
X-253573Y+5450591D01*
X-250101Y+5429772D01*
X-242845Y+5408953D01*
X-231017Y+5388134D01*
X-212920Y+5367476D01*
X-192101Y+5351955D01*
X-171282Y+5341970D01*
X-150463Y+5336186D01*
X-129644Y+5334028D01*
X-127000Y+5334000D01*
X+0Y+5461000D02*
X-427Y+5450591D01*
X-3899Y+5429772D01*
X-11155Y+5408953D01*
X-22983Y+5388134D01*
X-41080Y+5367476D01*
X-61899Y+5351955D01*
X-82718Y+5341970D01*
X-103537Y+5336186D01*
X-124356Y+5334028D01*
X-127000Y+5334000D01*
X-63500Y+5461000D02*
X-63717Y+5466247D01*
X-65482Y+5476742D01*
X-69174Y+5487237D01*
X-75202Y+5497732D01*
X-84424Y+5508112D01*
X-94919Y+5515800D01*
X-105414Y+5520718D01*
X-115909Y+5523524D01*
X-126404Y+5524497D01*
X-127000Y+5524500D01*
X-190500Y+5461000D02*
X-190283Y+5466247D01*
X-188518Y+5476742D01*
X-184826Y+5487237D01*
X-178798Y+5497732D01*
X-169576Y+5508112D01*
X-159081Y+5515800D01*
X-148586Y+5520718D01*
X-138091Y+5523524D01*
X-127596Y+5524497D01*
X-127000Y+5524500D01*
X-190500Y+5461000D02*
X-190283Y+5455753D01*
X-188518Y+5445258D01*
X-184826Y+5434763D01*
X-178798Y+5424268D01*
X-169576Y+5413888D01*
X-159081Y+5406200D01*
X-148586Y+5401282D01*
X-138091Y+5398476D01*
X-127596Y+5397503D01*
X-127000Y+5397500D01*
X-63500Y+5461000D02*
X-63717Y+5455753D01*
X-65482Y+5445258D01*
X-69174Y+5434763D01*
X-75202Y+5424268D01*
X-84424Y+5413888D01*
X-94919Y+5406200D01*
X-105414Y+5401282D01*
X-115909Y+5398476D01*
X-126404Y+5397503D01*
X-127000Y+5397500D01*
X-259080Y+4508500D02*
X-213360Y+4508500D01*
X-167640Y+4556125D01*
X-213360Y+4603750D01*
X-259080Y+4603750D01*
X-167640Y+4635500D02*
X-259080Y+4635500D01*
X-213360Y+4683125D01*
X-259080Y+4730750D01*
X-167640Y+4730750D01*
X-228600Y+4762500D02*
X-259080Y+4794250D01*
X-259080Y+4826000D01*
X-228600Y+4857750D01*
X-198120Y+4857750D01*
X-167640Y+4826000D01*
X-167640Y+4794250D01*
X-198120Y+4762500D01*
X-228600Y+4762500D01*
X-167640Y+4889500D02*
X-259080Y+4889500D01*
X-167640Y+4984750D01*
X-259080Y+4984750D01*
X-228600Y+5048250D02*
X-259080Y+5080000D01*
X-167640Y+5080000D01*
X+254000Y+5461000D02*
X+253573Y+5471409D01*
X+250101Y+5492228D01*
X+242845Y+5513047D01*
X+231017Y+5533866D01*
X+212920Y+5554524D01*
X+192101Y+5570045D01*
X+171282Y+5580030D01*
X+150463Y+5585814D01*
X+129644Y+5587972D01*
X+127000Y+5588000D01*
X+0Y+5461000D02*
X+427Y+5471409D01*
X+3899Y+5492228D01*
X+11155Y+5513047D01*
X+22983Y+5533866D01*
X+41080Y+5554524D01*
X+61899Y+5570045D01*
X+82718Y+5580030D01*
X+103537Y+5585814D01*
X+124356Y+5587972D01*
X+127000Y+5588000D01*
X+0Y+5461000D02*
X+427Y+5450591D01*
X+3899Y+5429772D01*
X+11155Y+5408953D01*
X+22983Y+5388134D01*
X+41080Y+5367476D01*
X+61899Y+5351955D01*
X+82718Y+5341970D01*
X+103537Y+5336186D01*
X+124356Y+5334028D01*
X+127000Y+5334000D01*
X+254000Y+5461000D02*
X+253573Y+5450591D01*
X+250101Y+5429772D01*
X+242845Y+5408953D01*
X+231017Y+5388134D01*
X+212920Y+5367476D01*
X+192101Y+5351955D01*
X+171282Y+5341970D01*
X+150463Y+5336186D01*
X+129644Y+5334028D01*
X+127000Y+5334000D01*
X+190500Y+5461000D02*
X+190283Y+5466247D01*
X+188518Y+5476742D01*
X+184826Y+5487237D01*
X+178798Y+5497732D01*
X+169576Y+5508112D01*
X+159081Y+5515800D01*
X+148586Y+5520718D01*
X+138091Y+5523524D01*
X+127596Y+5524497D01*
X+127000Y+5524500D01*
X+63500Y+5461000D02*
X+63717Y+5466247D01*
X+65482Y+5476742D01*
X+69174Y+5487237D01*
X+75202Y+5497732D01*
X+84424Y+5508112D01*
X+94919Y+5515800D01*
X+105414Y+5520718D01*
X+115909Y+5523524D01*
X+126404Y+5524497D01*
X+127000Y+5524500D01*
X+63500Y+5461000D02*
X+63717Y+5455753D01*
X+65482Y+5445258D01*
X+69174Y+5434763D01*
X+75202Y+5424268D01*
X+84424Y+5413888D01*
X+94919Y+5406200D01*
X+105414Y+5401282D01*
X+115909Y+5398476D01*
X+126404Y+5397503D01*
X+127000Y+5397500D01*
X+190500Y+5461000D02*
X+190283Y+5455753D01*
X+188518Y+5445258D01*
X+184826Y+5434763D01*
X+178798Y+5424268D01*
X+169576Y+5413888D01*
X+159081Y+5406200D01*
X+148586Y+5401282D01*
X+138091Y+5398476D01*
X+127596Y+5397503D01*
X+127000Y+5397500D01*
X-5080Y+4508500D02*
X+40640Y+4508500D01*
X+86360Y+4556125D01*
X+40640Y+4603750D01*
X-5080Y+4603750D01*
X+86360Y+4635500D02*
X-5080Y+4635500D01*
X+40640Y+4683125D01*
X-5080Y+4730750D01*
X+86360Y+4730750D01*
X+25400Y+4762500D02*
X-5080Y+4794250D01*
X-5080Y+4826000D01*
X+25400Y+4857750D01*
X+55880Y+4857750D01*
X+86360Y+4826000D01*
X+86360Y+4794250D01*
X+55880Y+4762500D01*
X+25400Y+4762500D01*
X+86360Y+4889500D02*
X-5080Y+4889500D01*
X+86360Y+4984750D01*
X-5080Y+4984750D01*
X+10160Y+5032375D02*
X-5080Y+5048250D01*
X-5080Y+5095875D01*
X+10160Y+5111750D01*
X+25400Y+5111750D01*
X+40640Y+5095875D01*
X+40640Y+5048250D01*
X+55880Y+5032375D01*
X+86360Y+5032375D01*
X+86360Y+5111750D01*
X+508000Y+5461000D02*
X+507573Y+5471409D01*
X+504101Y+5492228D01*
X+496845Y+5513047D01*
X+485017Y+5533866D01*
X+466920Y+5554524D01*
X+446101Y+5570045D01*
X+425282Y+5580030D01*
X+404463Y+5585814D01*
X+383644Y+5587972D01*
X+381000Y+5588000D01*
X+254000Y+5461000D02*
X+254427Y+5471409D01*
X+257899Y+5492228D01*
X+265155Y+5513047D01*
X+276983Y+5533866D01*
X+295080Y+5554524D01*
X+315899Y+5570045D01*
X+336718Y+5580030D01*
X+357537Y+5585814D01*
X+378356Y+5587972D01*
X+381000Y+5588000D01*
X+254000Y+5461000D02*
X+254427Y+5450591D01*
X+257899Y+5429772D01*
X+265155Y+5408953D01*
X+276983Y+5388134D01*
X+295080Y+5367476D01*
X+315899Y+5351955D01*
X+336718Y+5341970D01*
X+357537Y+5336186D01*
X+378356Y+5334028D01*
X+381000Y+5334000D01*
X+508000Y+5461000D02*
X+507573Y+5450591D01*
X+504101Y+5429772D01*
X+496845Y+5408953D01*
X+485017Y+5388134D01*
X+466920Y+5367476D01*
X+446101Y+5351955D01*
X+425282Y+5341970D01*
X+404463Y+5336186D01*
X+383644Y+5334028D01*
X+381000Y+5334000D01*
X+444500Y+5461000D02*
X+444283Y+5466247D01*
X+442518Y+5476742D01*
X+438826Y+5487237D01*
X+432798Y+5497732D01*
X+423576Y+5508112D01*
X+413081Y+5515800D01*
X+402586Y+5520718D01*
X+392091Y+5523524D01*
X+381596Y+5524497D01*
X+381000Y+5524500D01*
X+317500Y+5461000D02*
X+317717Y+5466247D01*
X+319482Y+5476742D01*
X+323174Y+5487237D01*
X+329202Y+5497732D01*
X+338424Y+5508112D01*
X+348919Y+5515800D01*
X+359414Y+5520718D01*
X+369909Y+5523524D01*
X+380404Y+5524497D01*
X+381000Y+5524500D01*
X+317500Y+5461000D02*
X+317717Y+5455753D01*
X+319482Y+5445258D01*
X+323174Y+5434763D01*
X+329202Y+5424268D01*
X+338424Y+5413888D01*
X+348919Y+5406200D01*
X+359414Y+5401282D01*
X+369909Y+5398476D01*
X+380404Y+5397503D01*
X+381000Y+5397500D01*
X+444500Y+5461000D02*
X+444283Y+5455753D01*
X+442518Y+5445258D01*
X+438826Y+5434763D01*
X+432798Y+5424268D01*
X+423576Y+5413888D01*
X+413081Y+5406200D01*
X+402586Y+5401282D01*
X+392091Y+5398476D01*
X+381596Y+5397503D01*
X+381000Y+5397500D01*
X+248920Y+4508500D02*
X+294640Y+4508500D01*
X+340360Y+4556125D01*
X+294640Y+4603750D01*
X+248920Y+4603750D01*
X+340360Y+4635500D02*
X+248920Y+4635500D01*
X+294640Y+4683125D01*
X+248920Y+4730750D01*
X+340360Y+4730750D01*
X+279400Y+4762500D02*
X+248920Y+4794250D01*
X+248920Y+4826000D01*
X+279400Y+4857750D01*
X+309880Y+4857750D01*
X+340360Y+4826000D01*
X+340360Y+4794250D01*
X+309880Y+4762500D01*
X+279400Y+4762500D01*
X+340360Y+4889500D02*
X+248920Y+4889500D01*
X+340360Y+4984750D01*
X+248920Y+4984750D01*
X+264160Y+5032375D02*
X+248920Y+5048250D01*
X+248920Y+5095875D01*
X+264160Y+5111750D01*
X+279400Y+5111750D01*
X+294640Y+5095875D01*
X+309880Y+5111750D01*
X+325120Y+5111750D01*
X+340360Y+5095875D01*
X+340360Y+5048250D01*
X+325120Y+5032375D01*
X+294640Y+5064125D02*
X+294640Y+5095875D01*
X+762000Y+7112000D02*
X+761573Y+7122409D01*
X+758101Y+7143228D01*
X+750845Y+7164047D01*
X+739017Y+7184866D01*
X+720920Y+7205524D01*
X+700101Y+7221045D01*
X+679282Y+7231030D01*
X+658463Y+7236814D01*
X+637644Y+7238972D01*
X+635000Y+7239000D01*
X+508000Y+7112000D02*
X+508427Y+7122409D01*
X+511899Y+7143228D01*
X+519155Y+7164047D01*
X+530983Y+7184866D01*
X+549080Y+7205524D01*
X+569899Y+7221045D01*
X+590718Y+7231030D01*
X+611537Y+7236814D01*
X+632356Y+7238972D01*
X+635000Y+7239000D01*
X+508000Y+7112000D02*
X+508427Y+7101591D01*
X+511899Y+7080772D01*
X+519155Y+7059953D01*
X+530983Y+7039134D01*
X+549080Y+7018476D01*
X+569899Y+7002955D01*
X+590718Y+6992970D01*
X+611537Y+6987186D01*
X+632356Y+6985028D01*
X+635000Y+6985000D01*
X+762000Y+7112000D02*
X+761573Y+7101591D01*
X+758101Y+7080772D01*
X+750845Y+7059953D01*
X+739017Y+7039134D01*
X+720920Y+7018476D01*
X+700101Y+7002955D01*
X+679282Y+6992970D01*
X+658463Y+6987186D01*
X+637644Y+6985028D01*
X+635000Y+6985000D01*
X+698500Y+7112000D02*
X+698283Y+7117247D01*
X+696518Y+7127742D01*
X+692826Y+7138237D01*
X+686798Y+7148732D01*
X+677576Y+7159112D01*
X+667081Y+7166800D01*
X+656586Y+7171718D01*
X+646091Y+7174524D01*
X+635596Y+7175497D01*
X+635000Y+7175500D01*
X+571500Y+7112000D02*
X+571717Y+7117247D01*
X+573482Y+7127742D01*
X+577174Y+7138237D01*
X+583202Y+7148732D01*
X+592424Y+7159112D01*
X+602919Y+7166800D01*
X+613414Y+7171718D01*
X+623909Y+7174524D01*
X+634404Y+7175497D01*
X+635000Y+7175500D01*
X+571500Y+7112000D02*
X+571717Y+7106753D01*
X+573482Y+7096258D01*
X+577174Y+7085763D01*
X+583202Y+7075268D01*
X+592424Y+7064888D01*
X+602919Y+7057200D01*
X+613414Y+7052282D01*
X+623909Y+7049476D01*
X+634404Y+7048503D01*
X+635000Y+7048500D01*
X+698500Y+7112000D02*
X+698283Y+7106753D01*
X+696518Y+7096258D01*
X+692826Y+7085763D01*
X+686798Y+7075268D01*
X+677576Y+7064888D01*
X+667081Y+7057200D01*
X+656586Y+7052282D01*
X+646091Y+7049476D01*
X+635596Y+7048503D01*
X+635000Y+7048500D01*
X+751840Y+7429500D02*
X+767080Y+7445375D01*
X+767080Y+7508875D01*
X+751840Y+7524750D01*
X+736600Y+7524750D01*
X+721360Y+7508875D01*
X+721360Y+7445375D01*
X+706120Y+7429500D01*
X+690880Y+7429500D01*
X+675640Y+7445375D01*
X+675640Y+7508875D01*
X+690880Y+7524750D01*
X+767080Y+7556500D02*
X+675640Y+7556500D01*
X+675640Y+7635875D01*
X+690880Y+7651750D01*
X+706120Y+7651750D01*
X+721360Y+7635875D01*
X+721360Y+7556500D01*
X+767080Y+7778750D02*
X+767080Y+7683500D01*
X+675640Y+7683500D01*
X+675640Y+7778750D01*
X+721360Y+7683500D02*
X+721360Y+7747000D01*
X+767080Y+7905750D02*
X+767080Y+7810500D01*
X+675640Y+7810500D01*
X+675640Y+7905750D01*
X+721360Y+7810500D02*
X+721360Y+7874000D01*
X+767080Y+7937500D02*
X+675640Y+7937500D01*
X+675640Y+8001000D01*
X+706120Y+8032750D01*
X+736600Y+8032750D01*
X+767080Y+8001000D01*
X+767080Y+7937500D01*
X+675640Y+8080375D02*
X+675640Y+8143875D01*
X+675640Y+8112125D02*
X+767080Y+8112125D01*
X+767080Y+8080375D02*
X+767080Y+8143875D01*
X+767080Y+8191500D02*
X+675640Y+8191500D01*
X+767080Y+8286750D01*
X+675640Y+8286750D01*
X-254000Y+5461000D02*
X-254427Y+5471409D01*
X-257899Y+5492228D01*
X-265155Y+5513047D01*
X-276983Y+5533866D01*
X-295080Y+5554524D01*
X-315899Y+5570045D01*
X-336718Y+5580030D01*
X-357537Y+5585814D01*
X-378356Y+5587972D01*
X-381000Y+5588000D01*
X-508000Y+5461000D02*
X-507573Y+5471409D01*
X-504101Y+5492228D01*
X-496845Y+5513047D01*
X-485017Y+5533866D01*
X-466920Y+5554524D01*
X-446101Y+5570045D01*
X-425282Y+5580030D01*
X-404463Y+5585814D01*
X-383644Y+5587972D01*
X-381000Y+5588000D01*
X-508000Y+5461000D02*
X-507573Y+5450591D01*
X-504101Y+5429772D01*
X-496845Y+5408953D01*
X-485017Y+5388134D01*
X-466920Y+5367476D01*
X-446101Y+5351955D01*
X-425282Y+5341970D01*
X-404463Y+5336186D01*
X-383644Y+5334028D01*
X-381000Y+5334000D01*
X-254000Y+5461000D02*
X-254427Y+5450591D01*
X-257899Y+5429772D01*
X-265155Y+5408953D01*
X-276983Y+5388134D01*
X-295080Y+5367476D01*
X-315899Y+5351955D01*
X-336718Y+5341970D01*
X-357537Y+5336186D01*
X-378356Y+5334028D01*
X-381000Y+5334000D01*
X-317500Y+5461000D02*
X-317717Y+5466247D01*
X-319482Y+5476742D01*
X-323174Y+5487237D01*
X-329202Y+5497732D01*
X-338424Y+5508112D01*
X-348919Y+5515800D01*
X-359414Y+5520718D01*
X-369909Y+5523524D01*
X-380404Y+5524497D01*
X-381000Y+5524500D01*
X-444500Y+5461000D02*
X-444283Y+5466247D01*
X-442518Y+5476742D01*
X-438826Y+5487237D01*
X-432798Y+5497732D01*
X-423576Y+5508112D01*
X-413081Y+5515800D01*
X-402586Y+5520718D01*
X-392091Y+5523524D01*
X-381596Y+5524497D01*
X-381000Y+5524500D01*
X-444500Y+5461000D02*
X-444283Y+5455753D01*
X-442518Y+5445258D01*
X-438826Y+5434763D01*
X-432798Y+5424268D01*
X-423576Y+5413888D01*
X-413081Y+5406200D01*
X-402586Y+5401282D01*
X-392091Y+5398476D01*
X-381596Y+5397503D01*
X-381000Y+5397500D01*
X-317500Y+5461000D02*
X-317717Y+5455753D01*
X-319482Y+5445258D01*
X-323174Y+5434763D01*
X-329202Y+5424268D01*
X-338424Y+5413888D01*
X-348919Y+5406200D01*
X-359414Y+5401282D01*
X-369909Y+5398476D01*
X-380404Y+5397503D01*
X-381000Y+5397500D01*
X-452120Y+5080000D02*
X-452120Y+5111750D01*
X-421640Y+5111750D01*
X-421640Y+5048250D01*
X-452120Y+5016500D01*
X-482600Y+5016500D01*
X-513080Y+5048250D01*
X-513080Y+5095875D01*
X-497840Y+5111750D01*
X+3302000Y+6858000D02*
X+3301573Y+6868409D01*
X+3298101Y+6889228D01*
X+3290845Y+6910047D01*
X+3279017Y+6930866D01*
X+3260920Y+6951524D01*
X+3240101Y+6967045D01*
X+3219282Y+6977030D01*
X+3198463Y+6982814D01*
X+3177644Y+6984972D01*
X+3175000Y+6985000D01*
X+3048000Y+6858000D02*
X+3048427Y+6868409D01*
X+3051899Y+6889228D01*
X+3059155Y+6910047D01*
X+3070983Y+6930866D01*
X+3089080Y+6951524D01*
X+3109899Y+6967045D01*
X+3130718Y+6977030D01*
X+3151537Y+6982814D01*
X+3172356Y+6984972D01*
X+3175000Y+6985000D01*
X+3048000Y+6858000D02*
X+3048427Y+6847591D01*
X+3051899Y+6826772D01*
X+3059155Y+6805953D01*
X+3070983Y+6785134D01*
X+3089080Y+6764476D01*
X+3109899Y+6748955D01*
X+3130718Y+6738970D01*
X+3151537Y+6733186D01*
X+3172356Y+6731028D01*
X+3175000Y+6731000D01*
X+3302000Y+6858000D02*
X+3301573Y+6847591D01*
X+3298101Y+6826772D01*
X+3290845Y+6805953D01*
X+3279017Y+6785134D01*
X+3260920Y+6764476D01*
X+3240101Y+6748955D01*
X+3219282Y+6738970D01*
X+3198463Y+6733186D01*
X+3177644Y+6731028D01*
X+3175000Y+6731000D01*
X+3238500Y+6858000D02*
X+3238283Y+6863247D01*
X+3236518Y+6873742D01*
X+3232826Y+6884237D01*
X+3226798Y+6894732D01*
X+3217576Y+6905112D01*
X+3207081Y+6912800D01*
X+3196586Y+6917718D01*
X+3186091Y+6920524D01*
X+3175596Y+6921497D01*
X+3175000Y+6921500D01*
X+3111500Y+6858000D02*
X+3111717Y+6863247D01*
X+3113482Y+6873742D01*
X+3117174Y+6884237D01*
X+3123202Y+6894732D01*
X+3132424Y+6905112D01*
X+3142919Y+6912800D01*
X+3153414Y+6917718D01*
X+3163909Y+6920524D01*
X+3174404Y+6921497D01*
X+3175000Y+6921500D01*
X+3111500Y+6858000D02*
X+3111717Y+6852753D01*
X+3113482Y+6842258D01*
X+3117174Y+6831763D01*
X+3123202Y+6821268D01*
X+3132424Y+6810888D01*
X+3142919Y+6803200D01*
X+3153414Y+6798282D01*
X+3163909Y+6795476D01*
X+3174404Y+6794503D01*
X+3175000Y+6794500D01*
X+3238500Y+6858000D02*
X+3238283Y+6852753D01*
X+3236518Y+6842258D01*
X+3232826Y+6831763D01*
X+3226798Y+6821268D01*
X+3217576Y+6810888D01*
X+3207081Y+6803200D01*
X+3196586Y+6798282D01*
X+3186091Y+6795476D01*
X+3175596Y+6794503D01*
X+3175000Y+6794500D01*
X+3429000Y+6863080D02*
X+3429000Y+6817360D01*
X+3476625Y+6771640D01*
X+3524250Y+6817360D01*
X+3524250Y+6863080D01*
X+3571875Y+6863080D02*
X+3635375Y+6863080D01*
X+3603625Y+6863080D02*
X+3603625Y+6771640D01*
X+3571875Y+6771640D02*
X+3635375Y+6771640D01*
X+3683000Y+6771640D02*
X+3683000Y+6863080D01*
X+3778250Y+6771640D01*
X+3778250Y+6863080D01*
X+3810000Y+6817360D02*
X+3905250Y+6817360D01*
X+3857625Y+6847840D02*
X+3857625Y+6786880D01*
X+3302000Y+7358000D02*
X+3301573Y+7368409D01*
X+3298101Y+7389228D01*
X+3290845Y+7410047D01*
X+3279017Y+7430866D01*
X+3260920Y+7451524D01*
X+3240101Y+7467045D01*
X+3219282Y+7477030D01*
X+3198463Y+7482814D01*
X+3177644Y+7484972D01*
X+3175000Y+7485000D01*
X+3048000Y+7358000D02*
X+3048427Y+7368409D01*
X+3051899Y+7389228D01*
X+3059155Y+7410047D01*
X+3070983Y+7430866D01*
X+3089080Y+7451524D01*
X+3109899Y+7467045D01*
X+3130718Y+7477030D01*
X+3151537Y+7482814D01*
X+3172356Y+7484972D01*
X+3175000Y+7485000D01*
X+3048000Y+7358000D02*
X+3048427Y+7347591D01*
X+3051899Y+7326772D01*
X+3059155Y+7305953D01*
X+3070983Y+7285134D01*
X+3089080Y+7264476D01*
X+3109899Y+7248955D01*
X+3130718Y+7238970D01*
X+3151537Y+7233186D01*
X+3172356Y+7231028D01*
X+3175000Y+7231000D01*
X+3302000Y+7358000D02*
X+3301573Y+7347591D01*
X+3298101Y+7326772D01*
X+3290845Y+7305953D01*
X+3279017Y+7285134D01*
X+3260920Y+7264476D01*
X+3240101Y+7248955D01*
X+3219282Y+7238970D01*
X+3198463Y+7233186D01*
X+3177644Y+7231028D01*
X+3175000Y+7231000D01*
X+3238500Y+7358000D02*
X+3238283Y+7363247D01*
X+3236518Y+7373742D01*
X+3232826Y+7384237D01*
X+3226798Y+7394732D01*
X+3217576Y+7405112D01*
X+3207081Y+7412800D01*
X+3196586Y+7417718D01*
X+3186091Y+7420524D01*
X+3175596Y+7421497D01*
X+3175000Y+7421500D01*
X+3111500Y+7358000D02*
X+3111717Y+7363247D01*
X+3113482Y+7373742D01*
X+3117174Y+7384237D01*
X+3123202Y+7394732D01*
X+3132424Y+7405112D01*
X+3142919Y+7412800D01*
X+3153414Y+7417718D01*
X+3163909Y+7420524D01*
X+3174404Y+7421497D01*
X+3175000Y+7421500D01*
X+3111500Y+7358000D02*
X+3111717Y+7352753D01*
X+3113482Y+7342258D01*
X+3117174Y+7331763D01*
X+3123202Y+7321268D01*
X+3132424Y+7310888D01*
X+3142919Y+7303200D01*
X+3153414Y+7298282D01*
X+3163909Y+7295476D01*
X+3174404Y+7294503D01*
X+3175000Y+7294500D01*
X+3238500Y+7358000D02*
X+3238283Y+7352753D01*
X+3236518Y+7342258D01*
X+3232826Y+7331763D01*
X+3226798Y+7321268D01*
X+3217576Y+7310888D01*
X+3207081Y+7303200D01*
X+3196586Y+7298282D01*
X+3186091Y+7295476D01*
X+3175596Y+7294503D01*
X+3175000Y+7294500D01*
X+3429000Y+7490080D02*
X+3429000Y+7444360D01*
X+3476625Y+7398640D01*
X+3524250Y+7444360D01*
X+3524250Y+7490080D01*
X+3571875Y+7490080D02*
X+3635375Y+7490080D01*
X+3603625Y+7490080D02*
X+3603625Y+7398640D01*
X+3571875Y+7398640D02*
X+3635375Y+7398640D01*
X+3683000Y+7398640D02*
X+3683000Y+7490080D01*
X+3778250Y+7398640D01*
X+3778250Y+7490080D01*
X+3825875Y+7444360D02*
X+3905250Y+7444360D01*
X+3302000Y+6096000D02*
X+3301573Y+6106409D01*
X+3298101Y+6127228D01*
X+3290845Y+6148047D01*
X+3279017Y+6168866D01*
X+3260920Y+6189524D01*
X+3240101Y+6205045D01*
X+3219282Y+6215030D01*
X+3198463Y+6220814D01*
X+3177644Y+6222972D01*
X+3175000Y+6223000D01*
X+3048000Y+6096000D02*
X+3048427Y+6106409D01*
X+3051899Y+6127228D01*
X+3059155Y+6148047D01*
X+3070983Y+6168866D01*
X+3089080Y+6189524D01*
X+3109899Y+6205045D01*
X+3130718Y+6215030D01*
X+3151537Y+6220814D01*
X+3172356Y+6222972D01*
X+3175000Y+6223000D01*
X+3048000Y+6096000D02*
X+3048427Y+6085591D01*
X+3051899Y+6064772D01*
X+3059155Y+6043953D01*
X+3070983Y+6023134D01*
X+3089080Y+6002476D01*
X+3109899Y+5986955D01*
X+3130718Y+5976970D01*
X+3151537Y+5971186D01*
X+3172356Y+5969028D01*
X+3175000Y+5969000D01*
X+3302000Y+6096000D02*
X+3301573Y+6085591D01*
X+3298101Y+6064772D01*
X+3290845Y+6043953D01*
X+3279017Y+6023134D01*
X+3260920Y+6002476D01*
X+3240101Y+5986955D01*
X+3219282Y+5976970D01*
X+3198463Y+5971186D01*
X+3177644Y+5969028D01*
X+3175000Y+5969000D01*
X+3238500Y+6096000D02*
X+3238283Y+6101247D01*
X+3236518Y+6111742D01*
X+3232826Y+6122237D01*
X+3226798Y+6132732D01*
X+3217576Y+6143112D01*
X+3207081Y+6150800D01*
X+3196586Y+6155718D01*
X+3186091Y+6158524D01*
X+3175596Y+6159497D01*
X+3175000Y+6159500D01*
X+3111500Y+6096000D02*
X+3111717Y+6101247D01*
X+3113482Y+6111742D01*
X+3117174Y+6122237D01*
X+3123202Y+6132732D01*
X+3132424Y+6143112D01*
X+3142919Y+6150800D01*
X+3153414Y+6155718D01*
X+3163909Y+6158524D01*
X+3174404Y+6159497D01*
X+3175000Y+6159500D01*
X+3111500Y+6096000D02*
X+3111717Y+6090753D01*
X+3113482Y+6080258D01*
X+3117174Y+6069763D01*
X+3123202Y+6059268D01*
X+3132424Y+6048888D01*
X+3142919Y+6041200D01*
X+3153414Y+6036282D01*
X+3163909Y+6033476D01*
X+3174404Y+6032503D01*
X+3175000Y+6032500D01*
X+3238500Y+6096000D02*
X+3238283Y+6090753D01*
X+3236518Y+6080258D01*
X+3232826Y+6069763D01*
X+3226798Y+6059268D01*
X+3217576Y+6048888D01*
X+3207081Y+6041200D01*
X+3196586Y+6036282D01*
X+3186091Y+6033476D01*
X+3175596Y+6032503D01*
X+3175000Y+6032500D01*
X+3063875Y+5928360D02*
X+3127375Y+5928360D01*
X+3095625Y+5928360D02*
X+3095625Y+5836920D01*
X+3063875Y+5836920D02*
X+3127375Y+5836920D01*
X+3190875Y+5882640D02*
X+3270250Y+5882640D01*
X+3302000Y+5461000D02*
X+3301573Y+5471409D01*
X+3298101Y+5492228D01*
X+3290845Y+5513047D01*
X+3279017Y+5533866D01*
X+3260920Y+5554524D01*
X+3240101Y+5570045D01*
X+3219282Y+5580030D01*
X+3198463Y+5585814D01*
X+3177644Y+5587972D01*
X+3175000Y+5588000D01*
X+3048000Y+5461000D02*
X+3048427Y+5471409D01*
X+3051899Y+5492228D01*
X+3059155Y+5513047D01*
X+3070983Y+5533866D01*
X+3089080Y+5554524D01*
X+3109899Y+5570045D01*
X+3130718Y+5580030D01*
X+3151537Y+5585814D01*
X+3172356Y+5587972D01*
X+3175000Y+5588000D01*
X+3048000Y+5461000D02*
X+3048427Y+5450591D01*
X+3051899Y+5429772D01*
X+3059155Y+5408953D01*
X+3070983Y+5388134D01*
X+3089080Y+5367476D01*
X+3109899Y+5351955D01*
X+3130718Y+5341970D01*
X+3151537Y+5336186D01*
X+3172356Y+5334028D01*
X+3175000Y+5334000D01*
X+3302000Y+5461000D02*
X+3301573Y+5450591D01*
X+3298101Y+5429772D01*
X+3290845Y+5408953D01*
X+3279017Y+5388134D01*
X+3260920Y+5367476D01*
X+3240101Y+5351955D01*
X+3219282Y+5341970D01*
X+3198463Y+5336186D01*
X+3177644Y+5334028D01*
X+3175000Y+5334000D01*
X+3238500Y+5461000D02*
X+3238283Y+5466247D01*
X+3236518Y+5476742D01*
X+3232826Y+5487237D01*
X+3226798Y+5497732D01*
X+3217576Y+5508112D01*
X+3207081Y+5515800D01*
X+3196586Y+5520718D01*
X+3186091Y+5523524D01*
X+3175596Y+5524497D01*
X+3175000Y+5524500D01*
X+3111500Y+5461000D02*
X+3111717Y+5466247D01*
X+3113482Y+5476742D01*
X+3117174Y+5487237D01*
X+3123202Y+5497732D01*
X+3132424Y+5508112D01*
X+3142919Y+5515800D01*
X+3153414Y+5520718D01*
X+3163909Y+5523524D01*
X+3174404Y+5524497D01*
X+3175000Y+5524500D01*
X+3111500Y+5461000D02*
X+3111717Y+5455753D01*
X+3113482Y+5445258D01*
X+3117174Y+5434763D01*
X+3123202Y+5424268D01*
X+3132424Y+5413888D01*
X+3142919Y+5406200D01*
X+3153414Y+5401282D01*
X+3163909Y+5398476D01*
X+3174404Y+5397503D01*
X+3175000Y+5397500D01*
X+3238500Y+5461000D02*
X+3238283Y+5455753D01*
X+3236518Y+5445258D01*
X+3232826Y+5434763D01*
X+3226798Y+5424268D01*
X+3217576Y+5413888D01*
X+3207081Y+5406200D01*
X+3196586Y+5401282D01*
X+3186091Y+5398476D01*
X+3175596Y+5397503D01*
X+3175000Y+5397500D01*
X+3342640Y+5349875D02*
X+3342640Y+5413375D01*
X+3342640Y+5381625D02*
X+3434080Y+5381625D01*
X+3434080Y+5349875D02*
X+3434080Y+5413375D01*
X+3388360Y+5461000D02*
X+3388360Y+5556250D01*
X+3357880Y+5508625D02*
X+3418840Y+5508625D01*
X+2159000Y+7620000D02*
X+2158573Y+7630409D01*
X+2155101Y+7651228D01*
X+2147845Y+7672047D01*
X+2136017Y+7692866D01*
X+2117920Y+7713524D01*
X+2097101Y+7729045D01*
X+2076282Y+7739030D01*
X+2055463Y+7744814D01*
X+2034644Y+7746972D01*
X+2032000Y+7747000D01*
X+1905000Y+7620000D02*
X+1905427Y+7630409D01*
X+1908899Y+7651228D01*
X+1916155Y+7672047D01*
X+1927983Y+7692866D01*
X+1946080Y+7713524D01*
X+1966899Y+7729045D01*
X+1987718Y+7739030D01*
X+2008537Y+7744814D01*
X+2029356Y+7746972D01*
X+2032000Y+7747000D01*
X+1905000Y+7620000D02*
X+1905427Y+7609591D01*
X+1908899Y+7588772D01*
X+1916155Y+7567953D01*
X+1927983Y+7547134D01*
X+1946080Y+7526476D01*
X+1966899Y+7510955D01*
X+1987718Y+7500970D01*
X+2008537Y+7495186D01*
X+2029356Y+7493028D01*
X+2032000Y+7493000D01*
X+2159000Y+7620000D02*
X+2158573Y+7609591D01*
X+2155101Y+7588772D01*
X+2147845Y+7567953D01*
X+2136017Y+7547134D01*
X+2117920Y+7526476D01*
X+2097101Y+7510955D01*
X+2076282Y+7500970D01*
X+2055463Y+7495186D01*
X+2034644Y+7493028D01*
X+2032000Y+7493000D01*
X+2095500Y+7620000D02*
X+2095283Y+7625247D01*
X+2093518Y+7635742D01*
X+2089826Y+7646237D01*
X+2083798Y+7656732D01*
X+2074576Y+7667112D01*
X+2064081Y+7674800D01*
X+2053586Y+7679718D01*
X+2043091Y+7682524D01*
X+2032596Y+7683497D01*
X+2032000Y+7683500D01*
X+1968500Y+7620000D02*
X+1968717Y+7625247D01*
X+1970482Y+7635742D01*
X+1974174Y+7646237D01*
X+1980202Y+7656732D01*
X+1989424Y+7667112D01*
X+1999919Y+7674800D01*
X+2010414Y+7679718D01*
X+2020909Y+7682524D01*
X+2031404Y+7683497D01*
X+2032000Y+7683500D01*
X+1968500Y+7620000D02*
X+1968717Y+7614753D01*
X+1970482Y+7604258D01*
X+1974174Y+7593763D01*
X+1980202Y+7583268D01*
X+1989424Y+7572888D01*
X+1999919Y+7565200D01*
X+2010414Y+7560282D01*
X+2020909Y+7557476D01*
X+2031404Y+7556503D01*
X+2032000Y+7556500D01*
X+2095500Y+7620000D02*
X+2095283Y+7614753D01*
X+2093518Y+7604258D01*
X+2089826Y+7593763D01*
X+2083798Y+7583268D01*
X+2074576Y+7572888D01*
X+2064081Y+7565200D01*
X+2053586Y+7560282D01*
X+2043091Y+7557476D01*
X+2032596Y+7556503D01*
X+2032000Y+7556500D01*
X+2000250Y+7879080D02*
X+1920875Y+7879080D01*
X+1920875Y+7848600D01*
X+1984375Y+7848600D01*
X+2000250Y+7833360D01*
X+2000250Y+7802880D01*
X+1984375Y+7787640D01*
X+1936750Y+7787640D01*
X+1920875Y+7802880D01*
X+2032000Y+7879080D02*
X+2032000Y+7833360D01*
X+2079625Y+7787640D01*
X+2127250Y+7833360D01*
X+2127250Y+7879080D01*
X+1905000Y+7620000D02*
X+1904573Y+7630409D01*
X+1901101Y+7651228D01*
X+1893845Y+7672047D01*
X+1882017Y+7692866D01*
X+1863920Y+7713524D01*
X+1843101Y+7729045D01*
X+1822282Y+7739030D01*
X+1801463Y+7744814D01*
X+1780644Y+7746972D01*
X+1778000Y+7747000D01*
X+1651000Y+7620000D02*
X+1651427Y+7630409D01*
X+1654899Y+7651228D01*
X+1662155Y+7672047D01*
X+1673983Y+7692866D01*
X+1692080Y+7713524D01*
X+1712899Y+7729045D01*
X+1733718Y+7739030D01*
X+1754537Y+7744814D01*
X+1775356Y+7746972D01*
X+1778000Y+7747000D01*
X+1651000Y+7620000D02*
X+1651427Y+7609591D01*
X+1654899Y+7588772D01*
X+1662155Y+7567953D01*
X+1673983Y+7547134D01*
X+1692080Y+7526476D01*
X+1712899Y+7510955D01*
X+1733718Y+7500970D01*
X+1754537Y+7495186D01*
X+1775356Y+7493028D01*
X+1778000Y+7493000D01*
X+1905000Y+7620000D02*
X+1904573Y+7609591D01*
X+1901101Y+7588772D01*
X+1893845Y+7567953D01*
X+1882017Y+7547134D01*
X+1863920Y+7526476D01*
X+1843101Y+7510955D01*
X+1822282Y+7500970D01*
X+1801463Y+7495186D01*
X+1780644Y+7493028D01*
X+1778000Y+7493000D01*
X+1841500Y+7620000D02*
X+1841283Y+7625247D01*
X+1839518Y+7635742D01*
X+1835826Y+7646237D01*
X+1829798Y+7656732D01*
X+1820576Y+7667112D01*
X+1810081Y+7674800D01*
X+1799586Y+7679718D01*
X+1789091Y+7682524D01*
X+1778596Y+7683497D01*
X+1778000Y+7683500D01*
X+1714500Y+7620000D02*
X+1714717Y+7625247D01*
X+1716482Y+7635742D01*
X+1720174Y+7646237D01*
X+1726202Y+7656732D01*
X+1735424Y+7667112D01*
X+1745919Y+7674800D01*
X+1756414Y+7679718D01*
X+1766909Y+7682524D01*
X+1777404Y+7683497D01*
X+1778000Y+7683500D01*
X+1714500Y+7620000D02*
X+1714717Y+7614753D01*
X+1716482Y+7604258D01*
X+1720174Y+7593763D01*
X+1726202Y+7583268D01*
X+1735424Y+7572888D01*
X+1745919Y+7565200D01*
X+1756414Y+7560282D01*
X+1766909Y+7557476D01*
X+1777404Y+7556503D01*
X+1778000Y+7556500D01*
X+1841500Y+7620000D02*
X+1841283Y+7614753D01*
X+1839518Y+7604258D01*
X+1835826Y+7593763D01*
X+1829798Y+7583268D01*
X+1820576Y+7572888D01*
X+1810081Y+7565200D01*
X+1799586Y+7560282D01*
X+1789091Y+7557476D01*
X+1778596Y+7556503D01*
X+1778000Y+7556500D01*
X+1682750Y+7879080D02*
X+1603375Y+7879080D01*
X+1603375Y+7848600D01*
X+1666875Y+7848600D01*
X+1682750Y+7833360D01*
X+1682750Y+7802880D01*
X+1666875Y+7787640D01*
X+1619250Y+7787640D01*
X+1603375Y+7802880D01*
X+1714500Y+7879080D02*
X+1714500Y+7833360D01*
X+1762125Y+7787640D01*
X+1809750Y+7833360D01*
X+1809750Y+7879080D01*
X+1905000Y+7818120D02*
X+1936750Y+7818120D01*
X+1936750Y+7787640D01*
X+1873250Y+7787640D01*
X+1841500Y+7818120D01*
X+1841500Y+7848600D01*
X+1873250Y+7879080D01*
X+1920875Y+7879080D01*
X+1936750Y+7863840D01*
X+0Y+7112000D02*
X-427Y+7122409D01*
X-3899Y+7143228D01*
X-11155Y+7164047D01*
X-22983Y+7184866D01*
X-41080Y+7205524D01*
X-61899Y+7221045D01*
X-82718Y+7231030D01*
X-103537Y+7236814D01*
X-124356Y+7238972D01*
X-127000Y+7239000D01*
X-254000Y+7112000D02*
X-253573Y+7122409D01*
X-250101Y+7143228D01*
X-242845Y+7164047D01*
X-231017Y+7184866D01*
X-212920Y+7205524D01*
X-192101Y+7221045D01*
X-171282Y+7231030D01*
X-150463Y+7236814D01*
X-129644Y+7238972D01*
X-127000Y+7239000D01*
X-254000Y+7112000D02*
X-253573Y+7101591D01*
X-250101Y+7080772D01*
X-242845Y+7059953D01*
X-231017Y+7039134D01*
X-212920Y+7018476D01*
X-192101Y+7002955D01*
X-171282Y+6992970D01*
X-150463Y+6987186D01*
X-129644Y+6985028D01*
X-127000Y+6985000D01*
X+0Y+7112000D02*
X-427Y+7101591D01*
X-3899Y+7080772D01*
X-11155Y+7059953D01*
X-22983Y+7039134D01*
X-41080Y+7018476D01*
X-61899Y+7002955D01*
X-82718Y+6992970D01*
X-103537Y+6987186D01*
X-124356Y+6985028D01*
X-127000Y+6985000D01*
X-63500Y+7112000D02*
X-63717Y+7117247D01*
X-65482Y+7127742D01*
X-69174Y+7138237D01*
X-75202Y+7148732D01*
X-84424Y+7159112D01*
X-94919Y+7166800D01*
X-105414Y+7171718D01*
X-115909Y+7174524D01*
X-126404Y+7175497D01*
X-127000Y+7175500D01*
X-190500Y+7112000D02*
X-190283Y+7117247D01*
X-188518Y+7127742D01*
X-184826Y+7138237D01*
X-178798Y+7148732D01*
X-169576Y+7159112D01*
X-159081Y+7166800D01*
X-148586Y+7171718D01*
X-138091Y+7174524D01*
X-127596Y+7175497D01*
X-127000Y+7175500D01*
X-190500Y+7112000D02*
X-190283Y+7106753D01*
X-188518Y+7096258D01*
X-184826Y+7085763D01*
X-178798Y+7075268D01*
X-169576Y+7064888D01*
X-159081Y+7057200D01*
X-148586Y+7052282D01*
X-138091Y+7049476D01*
X-127596Y+7048503D01*
X-127000Y+7048500D01*
X-63500Y+7112000D02*
X-63717Y+7106753D01*
X-65482Y+7096258D01*
X-69174Y+7085763D01*
X-75202Y+7075268D01*
X-84424Y+7064888D01*
X-94919Y+7057200D01*
X-105414Y+7052282D01*
X-115909Y+7049476D01*
X-126404Y+7048503D01*
X-127000Y+7048500D01*
X-132080Y+7429500D02*
X-86360Y+7429500D01*
X-40640Y+7477125D01*
X-86360Y+7524750D01*
X-132080Y+7524750D01*
X-40640Y+7556500D02*
X-132080Y+7556500D01*
X-86360Y+7604125D01*
X-132080Y+7651750D01*
X-40640Y+7651750D01*
X-101600Y+7715250D02*
X-132080Y+7747000D01*
X-40640Y+7747000D01*
X-25400Y+7810500D02*
X-25400Y+7905750D01*
X-101600Y+7937500D02*
X-132080Y+7969250D01*
X-132080Y+8001000D01*
X-101600Y+8032750D01*
X-71120Y+8032750D01*
X-40640Y+8001000D01*
X-40640Y+7969250D01*
X-71120Y+7937500D01*
X-101600Y+7937500D01*
X-132080Y+8064500D02*
X-55880Y+8064500D01*
X-40640Y+8080375D01*
X-40640Y+8143875D01*
X-55880Y+8159750D01*
X-132080Y+8159750D01*
X-132080Y+8191500D02*
X-132080Y+8286750D01*
X-132080Y+8239125D02*
X-40640Y+8239125D01*
X+254000Y+7112000D02*
X+253573Y+7122409D01*
X+250101Y+7143228D01*
X+242845Y+7164047D01*
X+231017Y+7184866D01*
X+212920Y+7205524D01*
X+192101Y+7221045D01*
X+171282Y+7231030D01*
X+150463Y+7236814D01*
X+129644Y+7238972D01*
X+127000Y+7239000D01*
X+0Y+7112000D02*
X+427Y+7122409D01*
X+3899Y+7143228D01*
X+11155Y+7164047D01*
X+22983Y+7184866D01*
X+41080Y+7205524D01*
X+61899Y+7221045D01*
X+82718Y+7231030D01*
X+103537Y+7236814D01*
X+124356Y+7238972D01*
X+127000Y+7239000D01*
X+0Y+7112000D02*
X+427Y+7101591D01*
X+3899Y+7080772D01*
X+11155Y+7059953D01*
X+22983Y+7039134D01*
X+41080Y+7018476D01*
X+61899Y+7002955D01*
X+82718Y+6992970D01*
X+103537Y+6987186D01*
X+124356Y+6985028D01*
X+127000Y+6985000D01*
X+254000Y+7112000D02*
X+253573Y+7101591D01*
X+250101Y+7080772D01*
X+242845Y+7059953D01*
X+231017Y+7039134D01*
X+212920Y+7018476D01*
X+192101Y+7002955D01*
X+171282Y+6992970D01*
X+150463Y+6987186D01*
X+129644Y+6985028D01*
X+127000Y+6985000D01*
X+190500Y+7112000D02*
X+190283Y+7117247D01*
X+188518Y+7127742D01*
X+184826Y+7138237D01*
X+178798Y+7148732D01*
X+169576Y+7159112D01*
X+159081Y+7166800D01*
X+148586Y+7171718D01*
X+138091Y+7174524D01*
X+127596Y+7175497D01*
X+127000Y+7175500D01*
X+63500Y+7112000D02*
X+63717Y+7117247D01*
X+65482Y+7127742D01*
X+69174Y+7138237D01*
X+75202Y+7148732D01*
X+84424Y+7159112D01*
X+94919Y+7166800D01*
X+105414Y+7171718D01*
X+115909Y+7174524D01*
X+126404Y+7175497D01*
X+127000Y+7175500D01*
X+63500Y+7112000D02*
X+63717Y+7106753D01*
X+65482Y+7096258D01*
X+69174Y+7085763D01*
X+75202Y+7075268D01*
X+84424Y+7064888D01*
X+94919Y+7057200D01*
X+105414Y+7052282D01*
X+115909Y+7049476D01*
X+126404Y+7048503D01*
X+127000Y+7048500D01*
X+190500Y+7112000D02*
X+190283Y+7106753D01*
X+188518Y+7096258D01*
X+184826Y+7085763D01*
X+178798Y+7075268D01*
X+169576Y+7064888D01*
X+159081Y+7057200D01*
X+148586Y+7052282D01*
X+138091Y+7049476D01*
X+127596Y+7048503D01*
X+127000Y+7048500D01*
X+121920Y+7429500D02*
X+167640Y+7429500D01*
X+213360Y+7477125D01*
X+167640Y+7524750D01*
X+121920Y+7524750D01*
X+213360Y+7556500D02*
X+121920Y+7556500D01*
X+167640Y+7604125D01*
X+121920Y+7651750D01*
X+213360Y+7651750D01*
X+137160Y+7699375D02*
X+121920Y+7715250D01*
X+121920Y+7762875D01*
X+137160Y+7778750D01*
X+152400Y+7778750D01*
X+167640Y+7762875D01*
X+167640Y+7715250D01*
X+182880Y+7699375D01*
X+213360Y+7699375D01*
X+213360Y+7778750D01*
X+228600Y+7810500D02*
X+228600Y+7905750D01*
X+152400Y+7937500D02*
X+121920Y+7969250D01*
X+121920Y+8001000D01*
X+152400Y+8032750D01*
X+182880Y+8032750D01*
X+213360Y+8001000D01*
X+213360Y+7969250D01*
X+182880Y+7937500D01*
X+152400Y+7937500D01*
X+121920Y+8064500D02*
X+198120Y+8064500D01*
X+213360Y+8080375D01*
X+213360Y+8143875D01*
X+198120Y+8159750D01*
X+121920Y+8159750D01*
X+121920Y+8191500D02*
X+121920Y+8286750D01*
X+121920Y+8239125D02*
X+213360Y+8239125D01*
X+508000Y+7112000D02*
X+507573Y+7122409D01*
X+504101Y+7143228D01*
X+496845Y+7164047D01*
X+485017Y+7184866D01*
X+466920Y+7205524D01*
X+446101Y+7221045D01*
X+425282Y+7231030D01*
X+404463Y+7236814D01*
X+383644Y+7238972D01*
X+381000Y+7239000D01*
X+254000Y+7112000D02*
X+254427Y+7122409D01*
X+257899Y+7143228D01*
X+265155Y+7164047D01*
X+276983Y+7184866D01*
X+295080Y+7205524D01*
X+315899Y+7221045D01*
X+336718Y+7231030D01*
X+357537Y+7236814D01*
X+378356Y+7238972D01*
X+381000Y+7239000D01*
X+254000Y+7112000D02*
X+254427Y+7101591D01*
X+257899Y+7080772D01*
X+265155Y+7059953D01*
X+276983Y+7039134D01*
X+295080Y+7018476D01*
X+315899Y+7002955D01*
X+336718Y+6992970D01*
X+357537Y+6987186D01*
X+378356Y+6985028D01*
X+381000Y+6985000D01*
X+508000Y+7112000D02*
X+507573Y+7101591D01*
X+504101Y+7080772D01*
X+496845Y+7059953D01*
X+485017Y+7039134D01*
X+466920Y+7018476D01*
X+446101Y+7002955D01*
X+425282Y+6992970D01*
X+404463Y+6987186D01*
X+383644Y+6985028D01*
X+381000Y+6985000D01*
X+444500Y+7112000D02*
X+444283Y+7117247D01*
X+442518Y+7127742D01*
X+438826Y+7138237D01*
X+432798Y+7148732D01*
X+423576Y+7159112D01*
X+413081Y+7166800D01*
X+402586Y+7171718D01*
X+392091Y+7174524D01*
X+381596Y+7175497D01*
X+381000Y+7175500D01*
X+317500Y+7112000D02*
X+317717Y+7117247D01*
X+319482Y+7127742D01*
X+323174Y+7138237D01*
X+329202Y+7148732D01*
X+338424Y+7159112D01*
X+348919Y+7166800D01*
X+359414Y+7171718D01*
X+369909Y+7174524D01*
X+380404Y+7175497D01*
X+381000Y+7175500D01*
X+317500Y+7112000D02*
X+317717Y+7106753D01*
X+319482Y+7096258D01*
X+323174Y+7085763D01*
X+329202Y+7075268D01*
X+338424Y+7064888D01*
X+348919Y+7057200D01*
X+359414Y+7052282D01*
X+369909Y+7049476D01*
X+380404Y+7048503D01*
X+381000Y+7048500D01*
X+444500Y+7112000D02*
X+444283Y+7106753D01*
X+442518Y+7096258D01*
X+438826Y+7085763D01*
X+432798Y+7075268D01*
X+423576Y+7064888D01*
X+413081Y+7057200D01*
X+402586Y+7052282D01*
X+392091Y+7049476D01*
X+381596Y+7048503D01*
X+381000Y+7048500D01*
X+375920Y+7429500D02*
X+421640Y+7429500D01*
X+467360Y+7477125D01*
X+421640Y+7524750D01*
X+375920Y+7524750D01*
X+467360Y+7556500D02*
X+375920Y+7556500D01*
X+421640Y+7604125D01*
X+375920Y+7651750D01*
X+467360Y+7651750D01*
X+391160Y+7699375D02*
X+375920Y+7715250D01*
X+375920Y+7762875D01*
X+391160Y+7778750D01*
X+406400Y+7778750D01*
X+421640Y+7762875D01*
X+436880Y+7778750D01*
X+452120Y+7778750D01*
X+467360Y+7762875D01*
X+467360Y+7715250D01*
X+452120Y+7699375D01*
X+421640Y+7731125D02*
X+421640Y+7762875D01*
X+482600Y+7810500D02*
X+482600Y+7905750D01*
X+406400Y+7937500D02*
X+375920Y+7969250D01*
X+375920Y+8001000D01*
X+406400Y+8032750D01*
X+436880Y+8032750D01*
X+467360Y+8001000D01*
X+467360Y+7969250D01*
X+436880Y+7937500D01*
X+406400Y+7937500D01*
X+375920Y+8064500D02*
X+452120Y+8064500D01*
X+467360Y+8080375D01*
X+467360Y+8143875D01*
X+452120Y+8159750D01*
X+375920Y+8159750D01*
X+375920Y+8191500D02*
X+375920Y+8286750D01*
X+375920Y+8239125D02*
X+467360Y+8239125D01*
X-254000Y+7112000D02*
X-254427Y+7122409D01*
X-257899Y+7143228D01*
X-265155Y+7164047D01*
X-276983Y+7184866D01*
X-295080Y+7205524D01*
X-315899Y+7221045D01*
X-336718Y+7231030D01*
X-357537Y+7236814D01*
X-378356Y+7238972D01*
X-381000Y+7239000D01*
X-508000Y+7112000D02*
X-507573Y+7122409D01*
X-504101Y+7143228D01*
X-496845Y+7164047D01*
X-485017Y+7184866D01*
X-466920Y+7205524D01*
X-446101Y+7221045D01*
X-425282Y+7231030D01*
X-404463Y+7236814D01*
X-383644Y+7238972D01*
X-381000Y+7239000D01*
X-508000Y+7112000D02*
X-507573Y+7101591D01*
X-504101Y+7080772D01*
X-496845Y+7059953D01*
X-485017Y+7039134D01*
X-466920Y+7018476D01*
X-446101Y+7002955D01*
X-425282Y+6992970D01*
X-404463Y+6987186D01*
X-383644Y+6985028D01*
X-381000Y+6985000D01*
X-254000Y+7112000D02*
X-254427Y+7101591D01*
X-257899Y+7080772D01*
X-265155Y+7059953D01*
X-276983Y+7039134D01*
X-295080Y+7018476D01*
X-315899Y+7002955D01*
X-336718Y+6992970D01*
X-357537Y+6987186D01*
X-378356Y+6985028D01*
X-381000Y+6985000D01*
X-317500Y+7112000D02*
X-317717Y+7117247D01*
X-319482Y+7127742D01*
X-323174Y+7138237D01*
X-329202Y+7148732D01*
X-338424Y+7159112D01*
X-348919Y+7166800D01*
X-359414Y+7171718D01*
X-369909Y+7174524D01*
X-380404Y+7175497D01*
X-381000Y+7175500D01*
X-444500Y+7112000D02*
X-444283Y+7117247D01*
X-442518Y+7127742D01*
X-438826Y+7138237D01*
X-432798Y+7148732D01*
X-423576Y+7159112D01*
X-413081Y+7166800D01*
X-402586Y+7171718D01*
X-392091Y+7174524D01*
X-381596Y+7175497D01*
X-381000Y+7175500D01*
X-444500Y+7112000D02*
X-444283Y+7106753D01*
X-442518Y+7096258D01*
X-438826Y+7085763D01*
X-432798Y+7075268D01*
X-423576Y+7064888D01*
X-413081Y+7057200D01*
X-402586Y+7052282D01*
X-392091Y+7049476D01*
X-381596Y+7048503D01*
X-381000Y+7048500D01*
X-317500Y+7112000D02*
X-317717Y+7106753D01*
X-319482Y+7096258D01*
X-323174Y+7085763D01*
X-329202Y+7075268D01*
X-338424Y+7064888D01*
X-348919Y+7057200D01*
X-359414Y+7052282D01*
X-369909Y+7049476D01*
X-380404Y+7048503D01*
X-381000Y+7048500D01*
X-386080Y+7429500D02*
X-340360Y+7429500D01*
X-294640Y+7477125D01*
X-340360Y+7524750D01*
X-386080Y+7524750D01*
X-294640Y+7556500D02*
X-386080Y+7556500D01*
X-340360Y+7604125D01*
X-386080Y+7651750D01*
X-294640Y+7651750D01*
X-325120Y+7778750D02*
X-325120Y+7683500D01*
X-386080Y+7747000D01*
X-294640Y+7747000D01*
X-279400Y+7810500D02*
X-279400Y+7905750D01*
X-325120Y+8001000D02*
X-325120Y+8032750D01*
X-294640Y+8032750D01*
X-294640Y+7969250D01*
X-325120Y+7937500D01*
X-355600Y+7937500D01*
X-386080Y+7969250D01*
X-386080Y+8016875D01*
X-370840Y+8032750D01*
X-508000Y+5461000D02*
X-508427Y+5471409D01*
X-511899Y+5492228D01*
X-519155Y+5513047D01*
X-530983Y+5533866D01*
X-549080Y+5554524D01*
X-569899Y+5570045D01*
X-590718Y+5580030D01*
X-611537Y+5585814D01*
X-632356Y+5587972D01*
X-635000Y+5588000D01*
X-762000Y+5461000D02*
X-761573Y+5471409D01*
X-758101Y+5492228D01*
X-750845Y+5513047D01*
X-739017Y+5533866D01*
X-720920Y+5554524D01*
X-700101Y+5570045D01*
X-679282Y+5580030D01*
X-658463Y+5585814D01*
X-637644Y+5587972D01*
X-635000Y+5588000D01*
X-762000Y+5461000D02*
X-761573Y+5450591D01*
X-758101Y+5429772D01*
X-750845Y+5408953D01*
X-739017Y+5388134D01*
X-720920Y+5367476D01*
X-700101Y+5351955D01*
X-679282Y+5341970D01*
X-658463Y+5336186D01*
X-637644Y+5334028D01*
X-635000Y+5334000D01*
X-508000Y+5461000D02*
X-508427Y+5450591D01*
X-511899Y+5429772D01*
X-519155Y+5408953D01*
X-530983Y+5388134D01*
X-549080Y+5367476D01*
X-569899Y+5351955D01*
X-590718Y+5341970D01*
X-611537Y+5336186D01*
X-632356Y+5334028D01*
X-635000Y+5334000D01*
X-571500Y+5461000D02*
X-571717Y+5466247D01*
X-573482Y+5476742D01*
X-577174Y+5487237D01*
X-583202Y+5497732D01*
X-592424Y+5508112D01*
X-602919Y+5515800D01*
X-613414Y+5520718D01*
X-623909Y+5523524D01*
X-634404Y+5524497D01*
X-635000Y+5524500D01*
X-698500Y+5461000D02*
X-698283Y+5466247D01*
X-696518Y+5476742D01*
X-692826Y+5487237D01*
X-686798Y+5497732D01*
X-677576Y+5508112D01*
X-667081Y+5515800D01*
X-656586Y+5520718D01*
X-646091Y+5523524D01*
X-635596Y+5524497D01*
X-635000Y+5524500D01*
X-698500Y+5461000D02*
X-698283Y+5455753D01*
X-696518Y+5445258D01*
X-692826Y+5434763D01*
X-686798Y+5424268D01*
X-677576Y+5413888D01*
X-667081Y+5406200D01*
X-656586Y+5401282D01*
X-646091Y+5398476D01*
X-635596Y+5397503D01*
X-635000Y+5397500D01*
X-571500Y+5461000D02*
X-571717Y+5455753D01*
X-573482Y+5445258D01*
X-577174Y+5434763D01*
X-583202Y+5424268D01*
X-592424Y+5413888D01*
X-602919Y+5406200D01*
X-613414Y+5401282D01*
X-623909Y+5398476D01*
X-634404Y+5397503D01*
X-635000Y+5397500D01*
X-746125Y+5720080D02*
X-682625Y+5720080D01*
X-714375Y+5720080D02*
X-714375Y+5628640D01*
X-746125Y+5628640D02*
X-682625Y+5628640D01*
X-571500Y+5659120D02*
X-539750Y+5659120D01*
X-539750Y+5628640D01*
X-603250Y+5628640D01*
X-635000Y+5659120D01*
X-635000Y+5689600D01*
X-603250Y+5720080D01*
X-555625Y+5720080D01*
X-539750Y+5704840D01*
X+1016000Y+7112000D02*
X+1015573Y+7122409D01*
X+1012101Y+7143228D01*
X+1004845Y+7164047D01*
X+993017Y+7184866D01*
X+974920Y+7205524D01*
X+954101Y+7221045D01*
X+933282Y+7231030D01*
X+912463Y+7236814D01*
X+891644Y+7238972D01*
X+889000Y+7239000D01*
X+762000Y+7112000D02*
X+762427Y+7122409D01*
X+765899Y+7143228D01*
X+773155Y+7164047D01*
X+784983Y+7184866D01*
X+803080Y+7205524D01*
X+823899Y+7221045D01*
X+844718Y+7231030D01*
X+865537Y+7236814D01*
X+886356Y+7238972D01*
X+889000Y+7239000D01*
X+762000Y+7112000D02*
X+762427Y+7101591D01*
X+765899Y+7080772D01*
X+773155Y+7059953D01*
X+784983Y+7039134D01*
X+803080Y+7018476D01*
X+823899Y+7002955D01*
X+844718Y+6992970D01*
X+865537Y+6987186D01*
X+886356Y+6985028D01*
X+889000Y+6985000D01*
X+1016000Y+7112000D02*
X+1015573Y+7101591D01*
X+1012101Y+7080772D01*
X+1004845Y+7059953D01*
X+993017Y+7039134D01*
X+974920Y+7018476D01*
X+954101Y+7002955D01*
X+933282Y+6992970D01*
X+912463Y+6987186D01*
X+891644Y+6985028D01*
X+889000Y+6985000D01*
X+952500Y+7112000D02*
X+952283Y+7117247D01*
X+950518Y+7127742D01*
X+946826Y+7138237D01*
X+940798Y+7148732D01*
X+931576Y+7159112D01*
X+921081Y+7166800D01*
X+910586Y+7171718D01*
X+900091Y+7174524D01*
X+889596Y+7175497D01*
X+889000Y+7175500D01*
X+825500Y+7112000D02*
X+825717Y+7117247D01*
X+827482Y+7127742D01*
X+831174Y+7138237D01*
X+837202Y+7148732D01*
X+846424Y+7159112D01*
X+856919Y+7166800D01*
X+867414Y+7171718D01*
X+877909Y+7174524D01*
X+888404Y+7175497D01*
X+889000Y+7175500D01*
X+825500Y+7112000D02*
X+825717Y+7106753D01*
X+827482Y+7096258D01*
X+831174Y+7085763D01*
X+837202Y+7075268D01*
X+846424Y+7064888D01*
X+856919Y+7057200D01*
X+867414Y+7052282D01*
X+877909Y+7049476D01*
X+888404Y+7048503D01*
X+889000Y+7048500D01*
X+952500Y+7112000D02*
X+952283Y+7106753D01*
X+950518Y+7096258D01*
X+946826Y+7085763D01*
X+940798Y+7075268D01*
X+931576Y+7064888D01*
X+921081Y+7057200D01*
X+910586Y+7052282D01*
X+900091Y+7049476D01*
X+889596Y+7048503D01*
X+889000Y+7048500D01*
X+883920Y+7508875D02*
X+883920Y+7572375D01*
X+883920Y+7540625D02*
X+975360Y+7540625D01*
X+975360Y+7508875D02*
X+975360Y+7572375D01*
X+975360Y+7620000D02*
X+883920Y+7620000D01*
X+929640Y+7667625D01*
X+883920Y+7715250D01*
X+975360Y+7715250D01*
X+914400Y+7747000D02*
X+883920Y+7778750D01*
X+883920Y+7810500D01*
X+914400Y+7842250D01*
X+944880Y+7842250D01*
X+975360Y+7810500D01*
X+975360Y+7778750D01*
X+944880Y+7747000D01*
X+914400Y+7747000D01*
X+975360Y+7874000D02*
X+883920Y+7874000D01*
X+975360Y+7969250D01*
X+883920Y+7969250D01*
X+762000Y+5461000D02*
X+761573Y+5471409D01*
X+758101Y+5492228D01*
X+750845Y+5513047D01*
X+739017Y+5533866D01*
X+720920Y+5554524D01*
X+700101Y+5570045D01*
X+679282Y+5580030D01*
X+658463Y+5585814D01*
X+637644Y+5587972D01*
X+635000Y+5588000D01*
X+508000Y+5461000D02*
X+508427Y+5471409D01*
X+511899Y+5492228D01*
X+519155Y+5513047D01*
X+530983Y+5533866D01*
X+549080Y+5554524D01*
X+569899Y+5570045D01*
X+590718Y+5580030D01*
X+611537Y+5585814D01*
X+632356Y+5587972D01*
X+635000Y+5588000D01*
X+508000Y+5461000D02*
X+508427Y+5450591D01*
X+511899Y+5429772D01*
X+519155Y+5408953D01*
X+530983Y+5388134D01*
X+549080Y+5367476D01*
X+569899Y+5351955D01*
X+590718Y+5341970D01*
X+611537Y+5336186D01*
X+632356Y+5334028D01*
X+635000Y+5334000D01*
X+762000Y+5461000D02*
X+761573Y+5450591D01*
X+758101Y+5429772D01*
X+750845Y+5408953D01*
X+739017Y+5388134D01*
X+720920Y+5367476D01*
X+700101Y+5351955D01*
X+679282Y+5341970D01*
X+658463Y+5336186D01*
X+637644Y+5334028D01*
X+635000Y+5334000D01*
X+698500Y+5461000D02*
X+698283Y+5466247D01*
X+696518Y+5476742D01*
X+692826Y+5487237D01*
X+686798Y+5497732D01*
X+677576Y+5508112D01*
X+667081Y+5515800D01*
X+656586Y+5520718D01*
X+646091Y+5523524D01*
X+635596Y+5524497D01*
X+635000Y+5524500D01*
X+571500Y+5461000D02*
X+571717Y+5466247D01*
X+573482Y+5476742D01*
X+577174Y+5487237D01*
X+583202Y+5497732D01*
X+592424Y+5508112D01*
X+602919Y+5515800D01*
X+613414Y+5520718D01*
X+623909Y+5523524D01*
X+634404Y+5524497D01*
X+635000Y+5524500D01*
X+571500Y+5461000D02*
X+571717Y+5455753D01*
X+573482Y+5445258D01*
X+577174Y+5434763D01*
X+583202Y+5424268D01*
X+592424Y+5413888D01*
X+602919Y+5406200D01*
X+613414Y+5401282D01*
X+623909Y+5398476D01*
X+634404Y+5397503D01*
X+635000Y+5397500D01*
X+698500Y+5461000D02*
X+698283Y+5455753D01*
X+696518Y+5445258D01*
X+692826Y+5434763D01*
X+686798Y+5424268D01*
X+677576Y+5413888D01*
X+667081Y+5406200D01*
X+656586Y+5401282D01*
X+646091Y+5398476D01*
X+635596Y+5397503D01*
X+635000Y+5397500D01*
X+579120Y+4318000D02*
X+594360Y+4333875D01*
X+594360Y+4397375D01*
X+579120Y+4413250D01*
X+563880Y+4413250D01*
X+548640Y+4397375D01*
X+548640Y+4333875D01*
X+533400Y+4318000D01*
X+518160Y+4318000D01*
X+502920Y+4333875D01*
X+502920Y+4397375D01*
X+518160Y+4413250D01*
X+594360Y+4445000D02*
X+502920Y+4445000D01*
X+502920Y+4524375D01*
X+518160Y+4540250D01*
X+533400Y+4540250D01*
X+548640Y+4524375D01*
X+548640Y+4445000D01*
X+594360Y+4667250D02*
X+594360Y+4572000D01*
X+502920Y+4572000D01*
X+502920Y+4667250D01*
X+548640Y+4572000D02*
X+548640Y+4635500D01*
X+594360Y+4794250D02*
X+594360Y+4699000D01*
X+502920Y+4699000D01*
X+502920Y+4794250D01*
X+548640Y+4699000D02*
X+548640Y+4762500D01*
X+594360Y+4826000D02*
X+502920Y+4826000D01*
X+502920Y+4889500D01*
X+533400Y+4921250D01*
X+563880Y+4921250D01*
X+594360Y+4889500D01*
X+594360Y+4826000D01*
X+533400Y+4953000D02*
X+502920Y+4984750D01*
X+502920Y+5016500D01*
X+533400Y+5048250D01*
X+563880Y+5048250D01*
X+594360Y+5016500D01*
X+594360Y+4984750D01*
X+563880Y+4953000D01*
X+533400Y+4953000D01*
X+502920Y+5080000D02*
X+579120Y+5080000D01*
X+594360Y+5095875D01*
X+594360Y+5159375D01*
X+579120Y+5175250D01*
X+502920Y+5175250D01*
X+502920Y+5207000D02*
X+502920Y+5302250D01*
X+502920Y+5254625D02*
X+594360Y+5254625D01*
M02*
