G04 PROTEUS RS274X GERBER FILE*
%FSLAX45Y45*%
%MOMM*%
G01*
%ADD14C,0.203200*%
%ADD50C,0.127000*%
%ADD51C,0.063500*%
D14*
X+1778000Y+6159500D02*
X+1778000Y+6032500D01*
X+1714500Y+6096000D02*
X+1841500Y+6096000D01*
X+1778000Y+5397500D02*
X+1778000Y+5270500D01*
X+1714500Y+5334000D02*
X+1841500Y+5334000D01*
X-171901Y+5505901D02*
X-82099Y+5416099D01*
X-171901Y+5416099D02*
X-82099Y+5505901D01*
X+82099Y+5505901D02*
X+171901Y+5416099D01*
X+82099Y+5416099D02*
X+171901Y+5505901D01*
X+336099Y+5505901D02*
X+425901Y+5416099D01*
X+336099Y+5416099D02*
X+425901Y+5505901D01*
X+590099Y+7156901D02*
X+679901Y+7067099D01*
X+590099Y+7067099D02*
X+679901Y+7156901D01*
X-425901Y+5505901D02*
X-336099Y+5416099D01*
X-425901Y+5416099D02*
X-336099Y+5505901D01*
X+3175000Y+6921500D02*
X+3175000Y+6794500D01*
X+3111500Y+6858000D02*
X+3238500Y+6858000D01*
X+3130099Y+6902901D02*
X+3219901Y+6813099D01*
X+3130099Y+6813099D02*
X+3219901Y+6902901D01*
X+3175000Y+7421500D02*
X+3175000Y+7294500D01*
X+3111500Y+7358000D02*
X+3238500Y+7358000D01*
X+3130099Y+7402901D02*
X+3219901Y+7313099D01*
X+3130099Y+7313099D02*
X+3219901Y+7402901D01*
X+3175000Y+6159500D02*
X+3175000Y+6032500D01*
X+3111500Y+6096000D02*
X+3238500Y+6096000D01*
X+3130099Y+6140901D02*
X+3219901Y+6051099D01*
X+3130099Y+6051099D02*
X+3219901Y+6140901D01*
X+3175000Y+5524500D02*
X+3175000Y+5397500D01*
X+3111500Y+5461000D02*
X+3238500Y+5461000D01*
X+3130099Y+5505901D02*
X+3219901Y+5416099D01*
X+3130099Y+5416099D02*
X+3219901Y+5505901D01*
X+1987099Y+7664901D02*
X+2076901Y+7575099D01*
X+1987099Y+7575099D02*
X+2076901Y+7664901D01*
X+1733099Y+7664901D02*
X+1822901Y+7575099D01*
X+1733099Y+7575099D02*
X+1822901Y+7664901D01*
X-171901Y+7156901D02*
X-82099Y+7067099D01*
X-171901Y+7067099D02*
X-82099Y+7156901D01*
X+82099Y+7156901D02*
X+171901Y+7067099D01*
X+82099Y+7067099D02*
X+171901Y+7156901D01*
X+336099Y+7156901D02*
X+425901Y+7067099D01*
X+336099Y+7067099D02*
X+425901Y+7156901D01*
X-425901Y+7156901D02*
X-336099Y+7067099D01*
X-425901Y+7067099D02*
X-336099Y+7156901D01*
X-679901Y+5505901D02*
X-590099Y+5416099D01*
X-679901Y+5416099D02*
X-590099Y+5505901D01*
X+844099Y+7156901D02*
X+933901Y+7067099D01*
X+844099Y+7067099D02*
X+933901Y+7156901D01*
X+590099Y+5505901D02*
X+679901Y+5416099D01*
X+590099Y+5416099D02*
X+679901Y+5505901D01*
X-1016000Y+5019040D02*
X+3512000Y+5019040D01*
X+3512000Y+8128000D01*
X-1016000Y+8128000D01*
X-1016000Y+5019040D01*
D50*
X-1026160Y+3060700D02*
X+1617980Y+3060700D01*
X+1617980Y+4064000D01*
X-1026160Y+4064000D01*
X-1026160Y+3060700D01*
D51*
X-558798Y+4064000D02*
X-558798Y+3060700D01*
X+254002Y+4064000D02*
X+254002Y+3060700D01*
X+1087122Y+4064000D02*
X+1087122Y+3060700D01*
X-1026160Y+3790950D02*
X+1617980Y+3790950D01*
X-1026160Y+3549650D02*
X+1617980Y+3549650D01*
X-1026160Y+3308350D02*
X+1617980Y+3308350D01*
D50*
X-969010Y+3900170D02*
X-953770Y+3884930D01*
X-892810Y+3884930D01*
X-877570Y+3900170D01*
X-877570Y+3915410D01*
X-892810Y+3930650D01*
X-953770Y+3930650D01*
X-969010Y+3945890D01*
X-969010Y+3961130D01*
X-953770Y+3976370D01*
X-892810Y+3976370D01*
X-877570Y+3961130D01*
X-755650Y+3976370D02*
X-847090Y+3884930D01*
X-847090Y+3976370D02*
X-801370Y+3930650D01*
X-725170Y+3884930D02*
X-725170Y+3976370D01*
X-679450Y+3930650D01*
X-633730Y+3976370D01*
X-633730Y+3884930D01*
X-501650Y+3900170D02*
X-486410Y+3884930D01*
X-425450Y+3884930D01*
X-410210Y+3900170D01*
X-410210Y+3915410D01*
X-425450Y+3930650D01*
X-486410Y+3930650D01*
X-501650Y+3945890D01*
X-501650Y+3961130D01*
X-486410Y+3976370D01*
X-425450Y+3976370D01*
X-410210Y+3961130D01*
X-364490Y+3976370D02*
X-303530Y+3976370D01*
X-334010Y+3976370D02*
X-334010Y+3884930D01*
X-364490Y+3884930D02*
X-303530Y+3884930D01*
X-257810Y+3976370D02*
X-166370Y+3976370D01*
X-257810Y+3884930D01*
X-166370Y+3884930D01*
X-44450Y+3884930D02*
X-135890Y+3884930D01*
X-135890Y+3976370D01*
X-44450Y+3976370D01*
X-135890Y+3930650D02*
X-74930Y+3930650D01*
X+311150Y+3884930D02*
X+311150Y+3976370D01*
X+387350Y+3976370D01*
X+402590Y+3961130D01*
X+402590Y+3945890D01*
X+387350Y+3930650D01*
X+311150Y+3930650D01*
X+433070Y+3976370D02*
X+433070Y+3884930D01*
X+524510Y+3884930D01*
X+554990Y+3884930D02*
X+554990Y+3945890D01*
X+585470Y+3976370D01*
X+615950Y+3976370D01*
X+646430Y+3945890D01*
X+646430Y+3884930D01*
X+554990Y+3915410D02*
X+646430Y+3915410D01*
X+676910Y+3976370D02*
X+768350Y+3976370D01*
X+722630Y+3976370D02*
X+722630Y+3884930D01*
X+890270Y+3884930D02*
X+798830Y+3884930D01*
X+798830Y+3976370D01*
X+890270Y+3976370D01*
X+798830Y+3930650D02*
X+859790Y+3930650D01*
X+920750Y+3884930D02*
X+920750Y+3976370D01*
X+981710Y+3976370D01*
X+1012190Y+3945890D01*
X+1012190Y+3915410D01*
X+981710Y+3884930D01*
X+920750Y+3884930D01*
X+1144270Y+3945890D02*
X+1174750Y+3976370D01*
X+1205230Y+3976370D01*
X+1235710Y+3945890D01*
X+1235710Y+3915410D01*
X+1205230Y+3884930D01*
X+1174750Y+3884930D01*
X+1144270Y+3915410D01*
X+1144270Y+3945890D01*
X+1205230Y+3915410D02*
X+1235710Y+3884930D01*
X+1266190Y+3976370D02*
X+1357630Y+3976370D01*
X+1311910Y+3976370D02*
X+1311910Y+3884930D01*
X+1479550Y+3976370D02*
X+1388110Y+3884930D01*
X+1388110Y+3976370D02*
X+1433830Y+3930650D01*
D14*
X-779780Y+3740150D02*
X-779780Y+3613150D01*
X-843280Y+3676650D02*
X-716280Y+3676650D01*
D50*
X-482600Y+3651250D02*
X-482600Y+3702050D01*
X-469900Y+3714750D01*
X-419100Y+3714750D01*
X-406400Y+3702050D01*
X-406400Y+3651250D01*
X-419100Y+3638550D01*
X-469900Y+3638550D01*
X-482600Y+3651250D01*
X-482600Y+3638550D02*
X-406400Y+3714750D01*
X-342900Y+3651250D02*
X-330200Y+3651250D01*
X-330200Y+3638550D01*
X-342900Y+3638550D01*
X-342900Y+3651250D01*
X-203200Y+3714750D02*
X-266700Y+3714750D01*
X-266700Y+3689350D01*
X-215900Y+3689350D01*
X-203200Y+3676650D01*
X-203200Y+3651250D01*
X-215900Y+3638550D01*
X-254000Y+3638550D01*
X-266700Y+3651250D01*
X-177800Y+3651250D02*
X-177800Y+3702050D01*
X-165100Y+3714750D01*
X-114300Y+3714750D01*
X-101600Y+3702050D01*
X-101600Y+3651250D01*
X-114300Y+3638550D01*
X-165100Y+3638550D01*
X-177800Y+3651250D01*
X-177800Y+3638550D02*
X-101600Y+3714750D01*
X-50800Y+3676650D02*
X-63500Y+3689350D01*
X-63500Y+3702050D01*
X-50800Y+3714750D01*
X-12700Y+3714750D01*
X+0Y+3702050D01*
X+0Y+3689350D01*
X-12700Y+3676650D01*
X-50800Y+3676650D01*
X-63500Y+3663950D01*
X-63500Y+3651250D01*
X-50800Y+3638550D01*
X-12700Y+3638550D01*
X+0Y+3651250D01*
X+0Y+3663950D01*
X-12700Y+3676650D01*
X+25400Y+3638550D02*
X+25400Y+3689350D01*
X+25400Y+3676650D02*
X+38100Y+3689350D01*
X+63500Y+3663950D01*
X+88900Y+3689350D01*
X+101600Y+3676650D01*
X+101600Y+3638550D01*
X+127000Y+3638550D02*
X+127000Y+3689350D01*
X+127000Y+3676650D02*
X+139700Y+3689350D01*
X+165100Y+3663950D01*
X+190500Y+3689350D01*
X+203200Y+3676650D01*
X+203200Y+3638550D01*
X+419100Y+3714750D02*
X+342900Y+3638550D01*
X+342900Y+3714750D02*
X+381000Y+3676650D01*
X+520700Y+3638550D02*
X+444500Y+3638550D01*
X+444500Y+3714750D01*
X+520700Y+3714750D01*
X+444500Y+3676650D02*
X+495300Y+3676650D01*
X+546100Y+3651250D02*
X+558800Y+3638550D01*
X+609600Y+3638550D01*
X+622300Y+3651250D01*
X+622300Y+3663950D01*
X+609600Y+3676650D01*
X+558800Y+3676650D01*
X+546100Y+3689350D01*
X+546100Y+3702050D01*
X+558800Y+3714750D01*
X+609600Y+3714750D01*
X+622300Y+3702050D01*
X+1201420Y+3702050D02*
X+1214120Y+3714750D01*
X+1252220Y+3714750D01*
X+1264920Y+3702050D01*
X+1264920Y+3689350D01*
X+1252220Y+3676650D01*
X+1214120Y+3676650D01*
X+1201420Y+3663950D01*
X+1201420Y+3638550D01*
X+1264920Y+3638550D01*
D14*
X-824681Y+3480251D02*
X-734879Y+3390449D01*
X-824681Y+3390449D02*
X-734879Y+3480251D01*
D50*
X-457200Y+3448050D02*
X-431800Y+3473450D01*
X-431800Y+3397250D01*
X-342900Y+3409950D02*
X-330200Y+3409950D01*
X-330200Y+3397250D01*
X-342900Y+3397250D01*
X-342900Y+3409950D01*
X-279400Y+3409950D02*
X-279400Y+3460750D01*
X-266700Y+3473450D01*
X-215900Y+3473450D01*
X-203200Y+3460750D01*
X-203200Y+3409950D01*
X-215900Y+3397250D01*
X-266700Y+3397250D01*
X-279400Y+3409950D01*
X-279400Y+3397250D02*
X-203200Y+3473450D01*
X-152400Y+3448050D02*
X-127000Y+3473450D01*
X-127000Y+3397250D01*
X+0Y+3460750D02*
X-12700Y+3473450D01*
X-50800Y+3473450D01*
X-63500Y+3460750D01*
X-63500Y+3409950D01*
X-50800Y+3397250D01*
X-12700Y+3397250D01*
X+0Y+3409950D01*
X+0Y+3422650D01*
X-12700Y+3435350D01*
X-63500Y+3435350D01*
X+25400Y+3397250D02*
X+25400Y+3448050D01*
X+25400Y+3435350D02*
X+38100Y+3448050D01*
X+63500Y+3422650D01*
X+88900Y+3448050D01*
X+101600Y+3435350D01*
X+101600Y+3397250D01*
X+127000Y+3397250D02*
X+127000Y+3448050D01*
X+127000Y+3435350D02*
X+139700Y+3448050D01*
X+165100Y+3422650D01*
X+190500Y+3448050D01*
X+203200Y+3435350D01*
X+203200Y+3397250D01*
X+419100Y+3473450D02*
X+342900Y+3397250D01*
X+342900Y+3473450D02*
X+381000Y+3435350D01*
X+520700Y+3397250D02*
X+444500Y+3397250D01*
X+444500Y+3473450D01*
X+520700Y+3473450D01*
X+444500Y+3435350D02*
X+495300Y+3435350D01*
X+546100Y+3409950D02*
X+558800Y+3397250D01*
X+609600Y+3397250D01*
X+622300Y+3409950D01*
X+622300Y+3422650D01*
X+609600Y+3435350D01*
X+558800Y+3435350D01*
X+546100Y+3448050D01*
X+546100Y+3460750D01*
X+558800Y+3473450D01*
X+609600Y+3473450D01*
X+622300Y+3460750D01*
X+1214120Y+3448050D02*
X+1239520Y+3473450D01*
X+1239520Y+3397250D01*
X+1366520Y+3422650D02*
X+1290320Y+3422650D01*
X+1341120Y+3473450D01*
X+1341120Y+3397250D01*
D14*
X-779780Y+3257550D02*
X-779780Y+3130550D01*
X-843280Y+3194050D02*
X-716280Y+3194050D01*
X-824681Y+3238951D02*
X-734879Y+3149149D01*
X-824681Y+3149149D02*
X-734879Y+3238951D01*
D50*
X-457200Y+3206750D02*
X-431800Y+3232150D01*
X-431800Y+3155950D01*
X-342900Y+3168650D02*
X-330200Y+3168650D01*
X-330200Y+3155950D01*
X-342900Y+3155950D01*
X-342900Y+3168650D01*
X-203200Y+3232150D02*
X-266700Y+3232150D01*
X-266700Y+3206750D01*
X-215900Y+3206750D01*
X-203200Y+3194050D01*
X-203200Y+3168650D01*
X-215900Y+3155950D01*
X-254000Y+3155950D01*
X-266700Y+3168650D01*
X-165100Y+3219450D02*
X-152400Y+3232150D01*
X-114300Y+3232150D01*
X-101600Y+3219450D01*
X-101600Y+3206750D01*
X-114300Y+3194050D01*
X-152400Y+3194050D01*
X-165100Y+3181350D01*
X-165100Y+3155950D01*
X-101600Y+3155950D01*
X+0Y+3181350D02*
X-76200Y+3181350D01*
X-25400Y+3232150D01*
X-25400Y+3155950D01*
X+25400Y+3155950D02*
X+25400Y+3206750D01*
X+25400Y+3194050D02*
X+38100Y+3206750D01*
X+63500Y+3181350D01*
X+88900Y+3206750D01*
X+101600Y+3194050D01*
X+101600Y+3155950D01*
X+127000Y+3155950D02*
X+127000Y+3206750D01*
X+127000Y+3194050D02*
X+139700Y+3206750D01*
X+165100Y+3181350D01*
X+190500Y+3206750D01*
X+203200Y+3194050D01*
X+203200Y+3155950D01*
X+419100Y+3232150D02*
X+342900Y+3155950D01*
X+342900Y+3232150D02*
X+381000Y+3194050D01*
X+520700Y+3155950D02*
X+444500Y+3155950D01*
X+444500Y+3232150D01*
X+520700Y+3232150D01*
X+444500Y+3194050D02*
X+495300Y+3194050D01*
X+546100Y+3168650D02*
X+558800Y+3155950D01*
X+609600Y+3155950D01*
X+622300Y+3168650D01*
X+622300Y+3181350D01*
X+609600Y+3194050D01*
X+558800Y+3194050D01*
X+546100Y+3206750D01*
X+546100Y+3219450D01*
X+558800Y+3232150D01*
X+609600Y+3232150D01*
X+622300Y+3219450D01*
X+1264920Y+3181350D02*
X+1188720Y+3181350D01*
X+1239520Y+3232150D01*
X+1239520Y+3155950D01*
M02*
