M48
METRIC,TZ
T01C0.5080
T02C1.0160
T03C1.5240
%
T01
X+17780Y+60960
X+17780Y+53340
T02
X-1270Y+54610
X+1270Y+54610
X+3810Y+54610
X+6350Y+71120
X-3810Y+54610
X+20320Y+76200
X+17780Y+76200
X-1270Y+71120
X+1270Y+71120
X+3810Y+71120
X-3810Y+71120
X-6350Y+54610
X+8890Y+71120
X+6350Y+54610
T03
X+31750Y+68580
X+31750Y+73580
X+31750Y+60960
X+31750Y+54610
M30
