G04 PROTEUS GERBER X2 FILE*
%TF.GenerationSoftware,Labcenter,Proteus,8.7-SP3-Build25561*%
%TF.CreationDate,2021-06-13T19:25:45+00:00*%
%TF.FileFunction,Paste,Top*%
%TF.FilePolarity,Positive*%
%TF.Part,Single*%
%TF.SameCoordinates,{9c7b3d0d-a21c-4509-bc3d-39c11cb24c33}*%
%FSLAX45Y45*%
%MOMM*%
G01*
%TA.AperFunction,Material*%
%ADD115R,0.914400X3.200400*%
%ADD116R,10.795000X8.153400*%
%TA.AperFunction,Material*%
%ADD117R,4.572000X1.651000*%
%ADD118R,1.651000X1.651000*%
%TA.AperFunction,Material*%
%ADD119R,6.985000X6.985000*%
%ADD120R,1.524000X2.540000*%
%TA.AperFunction,Material*%
%ADD121R,3.810000X2.032000*%
%ADD122R,1.270000X1.016000*%
%ADD123R,1.143000X1.803400*%
%ADD124R,2.032000X3.810000*%
%TA.AperFunction,Material*%
%ADD125R,1.143000X5.207000*%
%ADD126R,10.744200X9.550400*%
%TA.AperFunction,Material*%
%ADD127R,1.193800X5.308600*%
%ADD128R,1.524000X0.889000*%
%ADD129R,1.803400X1.143000*%
%ADD130R,3.556000X13.004800*%
%TA.AperFunction,Material*%
%ADD131R,0.889000X1.016000*%
%TA.AperFunction,Material*%
%ADD132R,0.635000X2.032000*%
%TA.AperFunction,Material*%
%ADD133R,1.651000X3.048000*%
%ADD134R,0.889000X0.635000*%
%TA.AperFunction,Material*%
%ADD135R,1.016000X0.889000*%
%TA.AperFunction,Material*%
%ADD136R,1.016000X1.524000*%
%TA.AperFunction,Profile*%
%ADD46C,0.203200*%
%TD.AperFunction*%
D115*
X+3492500Y-2476500D03*
X+3619500Y-2476500D03*
X+3746500Y-2476500D03*
X+4000500Y-2476500D03*
X+4127500Y-2476500D03*
X+4254500Y-2476500D03*
D116*
X+3873500Y-1397000D03*
D115*
X+5270500Y-508000D03*
X+5397500Y-508000D03*
X+5524500Y-508000D03*
X+5778500Y-508000D03*
X+5905500Y-508000D03*
X+6032500Y-508000D03*
D116*
X+5651500Y+571500D03*
D115*
X+5842000Y-2476500D03*
X+5969000Y-2476500D03*
X+6096000Y-2476500D03*
X+6350000Y-2476500D03*
X+6477000Y-2476500D03*
X+6604000Y-2476500D03*
D116*
X+6223000Y-1397000D03*
D115*
X+7556500Y-508000D03*
X+7683500Y-508000D03*
X+7810500Y-508000D03*
X+8064500Y-508000D03*
X+8191500Y-508000D03*
X+8318500Y-508000D03*
D116*
X+7937500Y+571500D03*
D115*
X+8128000Y-2476500D03*
X+8255000Y-2476500D03*
X+8382000Y-2476500D03*
X+8636000Y-2476500D03*
X+8763000Y-2476500D03*
X+8890000Y-2476500D03*
D116*
X+8509000Y-1397000D03*
D115*
X+2921000Y-508000D03*
X+3048000Y-508000D03*
X+3175000Y-508000D03*
X+3429000Y-508000D03*
X+3556000Y-508000D03*
X+3683000Y-508000D03*
D116*
X+3302000Y+571500D03*
D117*
X+6667500Y+1016000D03*
X+6667500Y+127000D03*
D118*
X+7048500Y+127000D03*
X+7048500Y+1016000D03*
D117*
X+8953500Y+1016000D03*
X+8953500Y+127000D03*
D118*
X+9334500Y+127000D03*
X+9334500Y+1016000D03*
D117*
X+4318000Y+1016000D03*
X+4318000Y+127000D03*
D118*
X+4699000Y+127000D03*
X+4699000Y+1016000D03*
D119*
X+2184400Y-1389380D03*
D120*
X+2413000Y-698500D03*
X+1955800Y-698500D03*
D119*
X+2159000Y+571500D03*
D120*
X+1930400Y-119380D03*
X+2387600Y-119380D03*
D121*
X+190500Y-2286000D03*
X-698500Y-2286000D03*
X+190500Y-1016000D03*
X-698500Y-1016000D03*
D119*
X-546100Y-3309620D03*
D120*
X-774700Y-4000500D03*
X-317500Y-4000500D03*
D122*
X-762000Y-4518000D03*
X-762000Y-4318000D03*
D123*
X-508000Y-4318000D03*
X-218000Y-4318000D03*
D124*
X+444500Y-3111500D03*
X+444500Y-4000500D03*
D125*
X+2453640Y-4000500D03*
X+2623820Y-4000500D03*
X+2794000Y-4000500D03*
X+2964180Y-4000500D03*
X+3134360Y-4000500D03*
D126*
X+2794000Y-3048000D03*
D127*
X+2187500Y-4699000D03*
X+1587500Y-4699000D03*
D128*
X+2469837Y-4946337D03*
X+2469837Y-4606337D03*
D124*
X+1587500Y-3111500D03*
X+1587500Y-4000500D03*
D123*
X-508000Y-4572000D03*
X-208000Y-4572000D03*
D129*
X+2984500Y-4699000D03*
X+2984500Y-4989000D03*
D123*
X+3274500Y-4445000D03*
X+2984500Y-4445000D03*
D130*
X-571500Y+698500D03*
X+1206500Y+698500D03*
D123*
X+0Y-381000D03*
X-300000Y-381000D03*
X+63500Y+1714500D03*
X-236500Y+1714500D03*
X+0Y-1651000D03*
X-300000Y-1651000D03*
D124*
X+2603500Y+2095500D03*
X+2603500Y+1206500D03*
D121*
X+698500Y-1016000D03*
X+1587500Y-1016000D03*
X+698500Y-2286000D03*
X+1587500Y-2286000D03*
D129*
X+1841500Y+1760500D03*
X+1841500Y+1460500D03*
D123*
X+889000Y-381000D03*
X+1189000Y-381000D03*
X+635000Y-1651000D03*
X+935000Y-1651000D03*
D129*
X+2667000Y-698500D03*
X+2667000Y-408500D03*
D123*
X+2286000Y-1968500D03*
X+1996000Y-1968500D03*
D129*
X+2667000Y-1179000D03*
X+2667000Y-889000D03*
D131*
X+2667000Y-1778000D03*
X+2573020Y-1968500D03*
X+2760980Y-1968500D03*
D123*
X+1887500Y-5207000D03*
X+1587500Y-5207000D03*
D129*
X+6032500Y-2948500D03*
X+6032500Y-3238500D03*
X+5651500Y-2948500D03*
X+5651500Y-3238500D03*
D132*
X+5588000Y-4013200D03*
X+5715000Y-4013200D03*
X+5842000Y-4013200D03*
X+5969000Y-4013200D03*
X+5969000Y-3492500D03*
X+5842000Y-3492500D03*
X+5715000Y-3492500D03*
X+5588000Y-3492500D03*
X+6985000Y-4013200D03*
X+7112000Y-4013200D03*
X+7239000Y-4013200D03*
X+7366000Y-4013200D03*
X+7366000Y-3492500D03*
X+7239000Y-3492500D03*
X+7112000Y-3492500D03*
X+6985000Y-3492500D03*
X+8382000Y-4013200D03*
X+8509000Y-4013200D03*
X+8636000Y-4013200D03*
X+8763000Y-4013200D03*
X+8763000Y-3492500D03*
X+8636000Y-3492500D03*
X+8509000Y-3492500D03*
X+8382000Y-3492500D03*
D129*
X+7048500Y-2948500D03*
X+7048500Y-3238500D03*
D133*
X+5207000Y-3492500D03*
X+5207000Y-3873500D03*
X+6604000Y-3492500D03*
X+6604000Y-3873500D03*
X+8001000Y-3492500D03*
X+8001000Y-3873500D03*
D134*
X+4953000Y-4381500D03*
X+4953000Y-4146550D03*
X+6350000Y-4362450D03*
X+6350000Y-4127500D03*
X+7778750Y-4330700D03*
X+7778750Y-4095750D03*
D129*
X+6159500Y-3619500D03*
X+6159500Y-3919500D03*
X+7556500Y-3619500D03*
X+7556500Y-3919500D03*
X+8953500Y-3619500D03*
X+8953500Y-3919500D03*
X+7429500Y-2948500D03*
X+7429500Y-3238500D03*
X+8445500Y-2948500D03*
X+8445500Y-3238500D03*
X+8826500Y-2948500D03*
X+8826500Y-3238500D03*
X+8445500Y-4254500D03*
X+8445500Y-4544500D03*
X+8699500Y-4254500D03*
X+8699500Y-4544500D03*
X+7048500Y-4254500D03*
X+7048500Y-4544500D03*
X+7302500Y-4254500D03*
X+7302500Y-4544500D03*
X+5651500Y-4254500D03*
X+5651500Y-4544500D03*
X+5905500Y-4254500D03*
X+5905500Y-4544500D03*
D131*
X+3522980Y-3619500D03*
X+3429000Y-3810000D03*
X+3616960Y-3810000D03*
X+4094480Y-3619500D03*
X+4000500Y-3810000D03*
X+4188460Y-3810000D03*
D135*
X+4445000Y-4160520D03*
X+4635500Y-4254500D03*
X+4635500Y-4066540D03*
D134*
X+3810000Y-3575050D03*
X+3810000Y-3810000D03*
X+3429000Y-3937000D03*
X+3429000Y-4171950D03*
X+4381500Y-3575050D03*
X+4381500Y-3810000D03*
X+4000500Y-3937000D03*
X+4000500Y-4171950D03*
D123*
X+3520000Y-3365500D03*
X+3810000Y-3365500D03*
X+3520000Y-3111500D03*
X+3810000Y-3111500D03*
X+4381500Y-3365500D03*
X+4091500Y-3365500D03*
D129*
X+4635500Y-3075500D03*
X+4635500Y-3365500D03*
X+4635500Y-3873500D03*
X+4635500Y-3573500D03*
D123*
X+4381500Y-3111500D03*
X+4081500Y-3111500D03*
X+1016000Y-7366000D03*
X+726000Y-7366000D03*
X+1016000Y-6604000D03*
X+726000Y-6604000D03*
X+1025500Y-7112000D03*
X+735500Y-7112000D03*
X+1016000Y-6858000D03*
X+726000Y-6858000D03*
X+998000Y-6223000D03*
X+708000Y-6223000D03*
D124*
X+1016000Y-5143500D03*
X+1016000Y-4254500D03*
D129*
X+8001000Y-6442000D03*
X+8001000Y-6142000D03*
X+7429500Y-6985000D03*
X+7429500Y-7285000D03*
X+8699500Y-6985000D03*
X+8699500Y-7285000D03*
X+9500Y-6794500D03*
X+9500Y-7094500D03*
D123*
X+236500Y-2921000D03*
X-63500Y-2921000D03*
D136*
X+9080500Y-5715000D03*
X+9395460Y-5715000D03*
X+9080500Y-5334000D03*
X+9395460Y-5334000D03*
X+9080500Y-4953000D03*
X+9395460Y-4953000D03*
D129*
X+7493000Y-6142000D03*
X+7493000Y-6432000D03*
X+7747000Y-6142000D03*
X+7747000Y-6432000D03*
X+8255000Y-6332500D03*
X+8255000Y-6042500D03*
X+7239000Y-6432000D03*
X+7239000Y-6142000D03*
X+7937500Y-7285000D03*
X+7937500Y-6995000D03*
X+8191500Y-7285000D03*
X+8191500Y-6995000D03*
D123*
X+8727000Y-6096000D03*
X+9017000Y-6096000D03*
X+8890000Y-5588000D03*
X+8600000Y-5588000D03*
X+8890000Y-5334000D03*
X+8600000Y-5334000D03*
X+8890000Y-5080000D03*
X+8600000Y-5080000D03*
D129*
X+7683500Y-7285000D03*
X+7683500Y-6995000D03*
X+8445500Y-7285000D03*
X+8445500Y-6995000D03*
X+5143500Y-1496500D03*
X+5143500Y-1206500D03*
D123*
X+1397000Y-6159500D03*
X+1697000Y-6159500D03*
D46*
X-1079500Y-7620000D02*
X+9715500Y-7620000D01*
X+9715500Y+2349500D01*
X-1079500Y+2349500D01*
X-1079500Y-7620000D01*
M02*
