G04 PROTEUS GERBER X2 FILE*
%TF.GenerationSoftware,Labcenter,Proteus,8.7-SP3-Build25561*%
%TF.CreationDate,2021-06-13T19:25:45+00:00*%
%TF.FileFunction,Copper,L3,Inr*%
%TF.FilePolarity,Positive*%
%TF.Part,Single*%
%TF.SameCoordinates,{9c7b3d0d-a21c-4509-bc3d-39c11cb24c33}*%
%FSLAX45Y45*%
%MOMM*%
G01*
%TA.AperFunction,Conductor*%
%ADD12C,2.032000*%
%ADD10C,0.762000*%
%ADD14C,0.508000*%
%ADD16C,0.635000*%
%ADD15C,0.254000*%
%ADD17C,0.381000*%
%TA.AperFunction,ViaPad*%
%ADD70C,2.032000*%
%TA.AperFunction,WasherPad*%
%ADD71C,1.016000*%
%TA.AperFunction,ViaPad*%
%ADD20C,1.016000*%
%ADD21C,0.762000*%
%ADD22C,1.778000*%
%TA.AperFunction,OtherPad,Unknown*%
%ADD23C,6.350000*%
%TA.AperFunction,ComponentPad*%
%ADD28C,5.080000*%
%TA.AperFunction,WasherPad*%
%ADD44C,1.397000*%
%TA.AperFunction,Profile*%
%ADD46C,0.203200*%
%TA.AperFunction,NonMaterial*%
%ADD47C,0.203200*%
%TD.AperFunction*%
G36*
X+9672320Y-7576820D02*
X-1036320Y-7576820D01*
X-1036320Y+2306320D01*
X+9672320Y+2306320D01*
X+9672320Y-7576820D01*
G37*
%LPC*%
G36*
X-985519Y-7320690D02*
X-985519Y-7030310D01*
X-780190Y-6824981D01*
X-489810Y-6824981D01*
X-284481Y-7030310D01*
X-284481Y-7320690D01*
X-489810Y-7526019D01*
X-780190Y-7526019D01*
X-985519Y-7320690D01*
G37*
G36*
X+8920481Y-7320690D02*
X+8920481Y-7030310D01*
X+9125810Y-6824981D01*
X+9416190Y-6824981D01*
X+9621519Y-7030310D01*
X+9621519Y-7320690D01*
X+9416190Y-7526019D01*
X+9125810Y-7526019D01*
X+8920481Y-7320690D01*
G37*
G36*
X+4030981Y+1595613D02*
X+4030981Y+1833387D01*
X+4199113Y+2001519D01*
X+4436887Y+2001519D01*
X+4605019Y+1833387D01*
X+4605019Y+1595613D01*
X+4436887Y+1427481D01*
X+4199113Y+1427481D01*
X+4030981Y+1595613D01*
G37*
G36*
X+6380481Y+1595613D02*
X+6380481Y+1833387D01*
X+6548613Y+2001519D01*
X+6786387Y+2001519D01*
X+6954519Y+1833387D01*
X+6954519Y+1595613D01*
X+6786387Y+1427481D01*
X+6548613Y+1427481D01*
X+6380481Y+1595613D01*
G37*
G36*
X+9240519Y+1833387D02*
X+9240519Y+1595613D01*
X+9072387Y+1427481D01*
X+8834613Y+1427481D01*
X+8681719Y+1580375D01*
X+8681719Y+1545519D01*
X+8632619Y+1496419D01*
X+8563181Y+1496419D01*
X+8514081Y+1545519D01*
X+8514081Y+1614957D01*
X+8563181Y+1664057D01*
X+8632619Y+1664057D01*
X+8666481Y+1630195D01*
X+8666481Y+1833387D01*
X+8834613Y+2001519D01*
X+9072387Y+2001519D01*
X+9240519Y+1833387D01*
G37*
G36*
X+93981Y+1849613D02*
X+93981Y+2087387D01*
X+262113Y+2255519D01*
X+499887Y+2255519D01*
X+668019Y+2087387D01*
X+668019Y+1849613D01*
X+499887Y+1681481D01*
X+262113Y+1681481D01*
X+93981Y+1849613D01*
G37*
G36*
X-858519Y+1849613D02*
X-858519Y+2087387D01*
X-690387Y+2255519D01*
X-452613Y+2255519D01*
X-284481Y+2087387D01*
X-284481Y+1849613D01*
X-452613Y+1681481D01*
X-690387Y+1681481D01*
X-858519Y+1849613D01*
G37*
G36*
X+845819Y-5426281D02*
X+845819Y-5495719D01*
X+796719Y-5544819D01*
X+742837Y-5544819D01*
X+680719Y-5606937D01*
X+680719Y-6745245D01*
X+602725Y-6858244D01*
X+582766Y-6868719D01*
X+553760Y-6868719D01*
X+499479Y-6923000D01*
X+553760Y-6977281D01*
X+1334243Y-6977281D01*
X+1313181Y-6956219D01*
X+1313181Y-6886781D01*
X+1362281Y-6837681D01*
X+1431719Y-6837681D01*
X+1480819Y-6886781D01*
X+1480819Y-6956219D01*
X+1459757Y-6977281D01*
X+1554735Y-6977281D01*
X+1554735Y-6923428D01*
X+1603835Y-6874328D01*
X+1673273Y-6874328D01*
X+1722373Y-6923428D01*
X+1722373Y-6992866D01*
X+1673273Y-7041966D01*
X+1619391Y-7041966D01*
X+1592638Y-7068719D01*
X+553760Y-7068719D01*
X+496610Y-7125869D01*
X+411390Y-7125869D01*
X+354000Y-7068479D01*
X+296610Y-7125869D01*
X+211390Y-7125869D01*
X+151131Y-7065610D01*
X+151131Y-6980390D01*
X+208521Y-6923000D01*
X+151131Y-6865610D01*
X+151131Y-6780390D01*
X+208521Y-6723000D01*
X+151131Y-6665610D01*
X+151131Y-6580390D01*
X+208521Y-6523000D01*
X+151131Y-6465610D01*
X+151131Y-6380390D01*
X+208521Y-6323000D01*
X+151131Y-6265610D01*
X+151131Y-6180390D01*
X+208521Y-6123000D01*
X+151131Y-6065610D01*
X+151131Y-5980390D01*
X+208521Y-5923000D01*
X+151131Y-5865610D01*
X+151131Y-5780390D01*
X+211390Y-5720131D01*
X+296610Y-5720131D01*
X+354000Y-5777521D01*
X+411390Y-5720131D01*
X+496610Y-5720131D01*
X+556869Y-5780390D01*
X+556869Y-5865610D01*
X+499479Y-5923000D01*
X+556869Y-5980390D01*
X+556869Y-6065610D01*
X+499479Y-6123000D01*
X+556869Y-6180390D01*
X+556869Y-6265610D01*
X+499479Y-6323000D01*
X+556869Y-6380390D01*
X+556869Y-6465610D01*
X+499479Y-6523000D01*
X+556869Y-6580390D01*
X+556869Y-6665610D01*
X+499479Y-6723000D01*
X+550059Y-6773580D01*
X+589281Y-6716755D01*
X+589281Y-5569063D01*
X+678181Y-5480163D01*
X+678181Y-5426281D01*
X+727281Y-5377181D01*
X+796719Y-5377181D01*
X+845819Y-5426281D01*
G37*
G36*
X+7005319Y-1679781D02*
X+7005319Y-1749219D01*
X+6956219Y-1798319D01*
X+6886781Y-1798319D01*
X+6874081Y-1785619D01*
X+6442957Y-1785619D01*
X+6357619Y-1870957D01*
X+6357619Y-2447043D01*
X+6738619Y-2828043D01*
X+6738619Y-3018543D01*
X+6774150Y-3054074D01*
X+7513350Y-3054074D01*
X+7536181Y-3031243D01*
X+7536181Y-3013281D01*
X+7585281Y-2964181D01*
X+7654719Y-2964181D01*
X+7703819Y-3013281D01*
X+7703819Y-3082719D01*
X+7654719Y-3131819D01*
X+7636757Y-3131819D01*
X+7572264Y-3196312D01*
X+6870850Y-3196312D01*
X+6878319Y-3203781D01*
X+6878319Y-3273219D01*
X+6835057Y-3316481D01*
X+6839263Y-3316481D01*
X+6888363Y-3365581D01*
X+6888363Y-3435019D01*
X+6875663Y-3447719D01*
X+6875663Y-3652779D01*
X+7735515Y-3652779D01*
X+7821931Y-3566363D01*
X+7821931Y-3304969D01*
X+7790181Y-3273219D01*
X+7790181Y-3203781D01*
X+7839281Y-3154681D01*
X+7908719Y-3154681D01*
X+7957819Y-3203781D01*
X+7957819Y-3273219D01*
X+7926069Y-3304969D01*
X+7926069Y-3609497D01*
X+7882787Y-3652779D01*
X+8724417Y-3652779D01*
X+9193232Y-4121594D01*
X+9193232Y-6453492D01*
X+9231631Y-6453492D01*
X+9231631Y-6443890D01*
X+9289021Y-6386500D01*
X+9231631Y-6329110D01*
X+9231631Y-6243890D01*
X+9289021Y-6186500D01*
X+9231631Y-6129110D01*
X+9231631Y-6043890D01*
X+9291890Y-5983631D01*
X+9377110Y-5983631D01*
X+9437369Y-6043890D01*
X+9437369Y-6129110D01*
X+9379979Y-6186500D01*
X+9437369Y-6243890D01*
X+9437369Y-6329110D01*
X+9379979Y-6386500D01*
X+9437369Y-6443890D01*
X+9437369Y-6529110D01*
X+9377110Y-6589369D01*
X+9291890Y-6589369D01*
X+9247451Y-6544930D01*
X+9183013Y-6544930D01*
X+9157613Y-6570330D01*
X+8430970Y-6570330D01*
X+8408619Y-6592681D01*
X+8408619Y-6639140D01*
X+8437500Y-6668021D01*
X+8494890Y-6610631D01*
X+8580110Y-6610631D01*
X+8640369Y-6670890D01*
X+8640369Y-6756110D01*
X+8580110Y-6816369D01*
X+8494890Y-6816369D01*
X+8437500Y-6758979D01*
X+8380110Y-6816369D01*
X+8294890Y-6816369D01*
X+8237500Y-6758979D01*
X+8180110Y-6816369D01*
X+8094890Y-6816369D01*
X+8037500Y-6758979D01*
X+7980110Y-6816369D01*
X+7894890Y-6816369D01*
X+7837500Y-6758979D01*
X+7780110Y-6816369D01*
X+7694890Y-6816369D01*
X+7637500Y-6758979D01*
X+7580110Y-6816369D01*
X+7494890Y-6816369D01*
X+7434631Y-6756110D01*
X+7434631Y-6670890D01*
X+7494890Y-6610631D01*
X+7580110Y-6610631D01*
X+7637500Y-6668021D01*
X+7694890Y-6610631D01*
X+7780110Y-6610631D01*
X+7837500Y-6668021D01*
X+7894890Y-6610631D01*
X+7980110Y-6610631D01*
X+8037500Y-6668021D01*
X+8094890Y-6610631D01*
X+8180110Y-6610631D01*
X+8237500Y-6668021D01*
X+8266381Y-6639140D01*
X+8266381Y-6533766D01*
X+8372055Y-6428092D01*
X+9050994Y-6428092D01*
X+9050994Y-4180508D01*
X+8665503Y-3795017D01*
X+5753946Y-3795017D01*
X+5445439Y-3486510D01*
X+5427477Y-3486510D01*
X+5378377Y-3437410D01*
X+5378377Y-3367972D01*
X+5389128Y-3357221D01*
X+5370404Y-3357221D01*
X+5321304Y-3308121D01*
X+5321304Y-3238683D01*
X+5370404Y-3189583D01*
X+5439842Y-3189583D01*
X+5488942Y-3238683D01*
X+5488942Y-3308121D01*
X+5478191Y-3318872D01*
X+5496915Y-3318872D01*
X+5546015Y-3367972D01*
X+5546015Y-3385934D01*
X+5812860Y-3652779D01*
X+6733425Y-3652779D01*
X+6733425Y-3447719D01*
X+6720725Y-3435019D01*
X+6720725Y-3365581D01*
X+6763987Y-3322319D01*
X+6759781Y-3322319D01*
X+6710681Y-3273219D01*
X+6710681Y-3203781D01*
X+6718150Y-3196312D01*
X+6715236Y-3196312D01*
X+6596381Y-3077457D01*
X+6596381Y-2886957D01*
X+6257043Y-2547619D01*
X+5698919Y-2547619D01*
X+5686219Y-2560319D01*
X+5616781Y-2560319D01*
X+5567681Y-2511219D01*
X+5567681Y-2441781D01*
X+5616781Y-2392681D01*
X+5686219Y-2392681D01*
X+5698919Y-2405381D01*
X+6215381Y-2405381D01*
X+6215381Y-1812042D01*
X+6384043Y-1643381D01*
X+6874081Y-1643381D01*
X+6886781Y-1630681D01*
X+6956219Y-1630681D01*
X+7005319Y-1679781D01*
G37*
G36*
X+2738119Y-71239D02*
X+2738119Y-182761D01*
X+2654978Y-265902D01*
X+2444043Y-265902D01*
X+2440716Y-269229D01*
X+2278382Y-269229D01*
X+2278382Y-754261D01*
X+2199524Y-833119D01*
X+1722239Y-833119D01*
X+1643381Y-754261D01*
X+1643381Y-642739D01*
X+1722239Y-563881D01*
X+2009144Y-563881D01*
X+2009144Y-192034D01*
X+1983307Y-166197D01*
X+2052151Y+9D01*
X+2329194Y+9D01*
X+2332521Y+3336D01*
X+2543456Y+3336D01*
X+2547739Y+7619D01*
X+2659261Y+7619D01*
X+2738119Y-71239D01*
G37*
G36*
X+3141981Y+1140031D02*
X+3141981Y+1209469D01*
X+3191081Y+1258569D01*
X+3260519Y+1258569D01*
X+3309619Y+1209469D01*
X+3309619Y+1140031D01*
X+3260519Y+1090931D01*
X+3191081Y+1090931D01*
X+3141981Y+1140031D01*
G37*
G36*
X+3395981Y+1140031D02*
X+3395981Y+1209469D01*
X+3445081Y+1258569D01*
X+3514519Y+1258569D01*
X+3563619Y+1209469D01*
X+3563619Y+1140031D01*
X+3514519Y+1090931D01*
X+3445081Y+1090931D01*
X+3395981Y+1140031D01*
G37*
G36*
X+5173981Y+1140031D02*
X+5173981Y+1209469D01*
X+5223081Y+1258569D01*
X+5292519Y+1258569D01*
X+5341619Y+1209469D01*
X+5341619Y+1140031D01*
X+5292519Y+1090931D01*
X+5223081Y+1090931D01*
X+5173981Y+1140031D01*
G37*
G36*
X+5427981Y+1140031D02*
X+5427981Y+1209469D01*
X+5477081Y+1258569D01*
X+5546519Y+1258569D01*
X+5595619Y+1209469D01*
X+5595619Y+1140031D01*
X+5546519Y+1090931D01*
X+5477081Y+1090931D01*
X+5427981Y+1140031D01*
G37*
G36*
X+5681981Y+1140031D02*
X+5681981Y+1209469D01*
X+5731081Y+1258569D01*
X+5800519Y+1258569D01*
X+5849619Y+1209469D01*
X+5849619Y+1140031D01*
X+5800519Y+1090931D01*
X+5731081Y+1090931D01*
X+5681981Y+1140031D01*
G37*
G36*
X+7459981Y+1140031D02*
X+7459981Y+1209469D01*
X+7509081Y+1258569D01*
X+7578519Y+1258569D01*
X+7627619Y+1209469D01*
X+7627619Y+1140031D01*
X+7578519Y+1090931D01*
X+7509081Y+1090931D01*
X+7459981Y+1140031D01*
G37*
G36*
X+7713981Y+1140031D02*
X+7713981Y+1209469D01*
X+7763081Y+1258569D01*
X+7832519Y+1258569D01*
X+7881619Y+1209469D01*
X+7881619Y+1140031D01*
X+7832519Y+1090931D01*
X+7763081Y+1090931D01*
X+7713981Y+1140031D01*
G37*
G36*
X+7967981Y+1140031D02*
X+7967981Y+1209469D01*
X+8017081Y+1258569D01*
X+8086519Y+1258569D01*
X+8135619Y+1209469D01*
X+8135619Y+1140031D01*
X+8086519Y+1090931D01*
X+8017081Y+1090931D01*
X+7967981Y+1140031D01*
G37*
G36*
X+3014981Y+1360001D02*
X+3014981Y+1429439D01*
X+3064081Y+1478539D01*
X+3133519Y+1478539D01*
X+3182619Y+1429439D01*
X+3182619Y+1360001D01*
X+3133519Y+1310901D01*
X+3064081Y+1310901D01*
X+3014981Y+1360001D01*
G37*
G36*
X+3268981Y+1360001D02*
X+3268981Y+1429439D01*
X+3318081Y+1478539D01*
X+3387519Y+1478539D01*
X+3436619Y+1429439D01*
X+3436619Y+1360001D01*
X+3387519Y+1310901D01*
X+3318081Y+1310901D01*
X+3268981Y+1360001D01*
G37*
G36*
X+4792981Y+1360001D02*
X+4792981Y+1429439D01*
X+4842081Y+1478539D01*
X+4911519Y+1478539D01*
X+4960619Y+1429439D01*
X+4960619Y+1360001D01*
X+4911519Y+1310901D01*
X+4842081Y+1310901D01*
X+4792981Y+1360001D01*
G37*
G36*
X+5046981Y+1360001D02*
X+5046981Y+1429439D01*
X+5096081Y+1478539D01*
X+5165519Y+1478539D01*
X+5214619Y+1429439D01*
X+5214619Y+1360001D01*
X+5165519Y+1310901D01*
X+5096081Y+1310901D01*
X+5046981Y+1360001D01*
G37*
G36*
X+5300981Y+1360001D02*
X+5300981Y+1429439D01*
X+5350081Y+1478539D01*
X+5419519Y+1478539D01*
X+5468619Y+1429439D01*
X+5468619Y+1360001D01*
X+5419519Y+1310901D01*
X+5350081Y+1310901D01*
X+5300981Y+1360001D01*
G37*
G36*
X+5554981Y+1360001D02*
X+5554981Y+1429439D01*
X+5604081Y+1478539D01*
X+5673519Y+1478539D01*
X+5722619Y+1429439D01*
X+5722619Y+1360001D01*
X+5673519Y+1310901D01*
X+5604081Y+1310901D01*
X+5554981Y+1360001D01*
G37*
G36*
X+7078981Y+1360001D02*
X+7078981Y+1429439D01*
X+7128081Y+1478539D01*
X+7197519Y+1478539D01*
X+7246619Y+1429439D01*
X+7246619Y+1360001D01*
X+7197519Y+1310901D01*
X+7128081Y+1310901D01*
X+7078981Y+1360001D01*
G37*
G36*
X+7332981Y+1360001D02*
X+7332981Y+1429439D01*
X+7382081Y+1478539D01*
X+7451519Y+1478539D01*
X+7500619Y+1429439D01*
X+7500619Y+1360001D01*
X+7451519Y+1310901D01*
X+7382081Y+1310901D01*
X+7332981Y+1360001D01*
G37*
G36*
X+7586981Y+1360001D02*
X+7586981Y+1429439D01*
X+7636081Y+1478539D01*
X+7705519Y+1478539D01*
X+7754619Y+1429439D01*
X+7754619Y+1360001D01*
X+7705519Y+1310901D01*
X+7636081Y+1310901D01*
X+7586981Y+1360001D01*
G37*
G36*
X+7840981Y+1360001D02*
X+7840981Y+1429439D01*
X+7890081Y+1478539D01*
X+7959519Y+1478539D01*
X+8008619Y+1429439D01*
X+8008619Y+1360001D01*
X+7959519Y+1310901D01*
X+7890081Y+1310901D01*
X+7840981Y+1360001D01*
G37*
G36*
X+3395981Y+1579971D02*
X+3395981Y+1649409D01*
X+3445081Y+1698509D01*
X+3514519Y+1698509D01*
X+3563619Y+1649409D01*
X+3563619Y+1579971D01*
X+3514519Y+1530871D01*
X+3445081Y+1530871D01*
X+3395981Y+1579971D01*
G37*
G36*
X+4665981Y+1579971D02*
X+4665981Y+1649409D01*
X+4715081Y+1698509D01*
X+4784519Y+1698509D01*
X+4833619Y+1649409D01*
X+4833619Y+1579971D01*
X+4784519Y+1530871D01*
X+4715081Y+1530871D01*
X+4665981Y+1579971D01*
G37*
G36*
X+4919981Y+1579971D02*
X+4919981Y+1649409D01*
X+4969081Y+1698509D01*
X+5038519Y+1698509D01*
X+5087619Y+1649409D01*
X+5087619Y+1579971D01*
X+5038519Y+1530871D01*
X+4969081Y+1530871D01*
X+4919981Y+1579971D01*
G37*
G36*
X+5173981Y+1579971D02*
X+5173981Y+1649409D01*
X+5223081Y+1698509D01*
X+5292519Y+1698509D01*
X+5341619Y+1649409D01*
X+5341619Y+1579971D01*
X+5292519Y+1530871D01*
X+5223081Y+1530871D01*
X+5173981Y+1579971D01*
G37*
G36*
X+5427981Y+1579971D02*
X+5427981Y+1649409D01*
X+5477081Y+1698509D01*
X+5546519Y+1698509D01*
X+5595619Y+1649409D01*
X+5595619Y+1579971D01*
X+5546519Y+1530871D01*
X+5477081Y+1530871D01*
X+5427981Y+1579971D01*
G37*
G36*
X+5681981Y+1579971D02*
X+5681981Y+1649409D01*
X+5731081Y+1698509D01*
X+5800519Y+1698509D01*
X+5849619Y+1649409D01*
X+5849619Y+1579971D01*
X+5800519Y+1530871D01*
X+5731081Y+1530871D01*
X+5681981Y+1579971D01*
G37*
G36*
X+7205981Y+1579971D02*
X+7205981Y+1649409D01*
X+7255081Y+1698509D01*
X+7324519Y+1698509D01*
X+7373619Y+1649409D01*
X+7373619Y+1579971D01*
X+7324519Y+1530871D01*
X+7255081Y+1530871D01*
X+7205981Y+1579971D01*
G37*
G36*
X+7459981Y+1579971D02*
X+7459981Y+1649409D01*
X+7509081Y+1698509D01*
X+7578519Y+1698509D01*
X+7627619Y+1649409D01*
X+7627619Y+1579971D01*
X+7578519Y+1530871D01*
X+7509081Y+1530871D01*
X+7459981Y+1579971D01*
G37*
G36*
X+7713981Y+1579971D02*
X+7713981Y+1649409D01*
X+7763081Y+1698509D01*
X+7832519Y+1698509D01*
X+7881619Y+1649409D01*
X+7881619Y+1579971D01*
X+7832519Y+1530871D01*
X+7763081Y+1530871D01*
X+7713981Y+1579971D01*
G37*
G36*
X+7967981Y+1579971D02*
X+7967981Y+1649409D01*
X+8017081Y+1698509D01*
X+8086519Y+1698509D01*
X+8135619Y+1649409D01*
X+8135619Y+1579971D01*
X+8086519Y+1530871D01*
X+8017081Y+1530871D01*
X+7967981Y+1579971D01*
G37*
G36*
X+3268981Y+1799941D02*
X+3268981Y+1869379D01*
X+3318081Y+1918479D01*
X+3387519Y+1918479D01*
X+3436619Y+1869379D01*
X+3436619Y+1799941D01*
X+3387519Y+1750841D01*
X+3318081Y+1750841D01*
X+3268981Y+1799941D01*
G37*
G36*
X+4792981Y+1799941D02*
X+4792981Y+1869379D01*
X+4842081Y+1918479D01*
X+4911519Y+1918479D01*
X+4960619Y+1869379D01*
X+4960619Y+1799941D01*
X+4911519Y+1750841D01*
X+4842081Y+1750841D01*
X+4792981Y+1799941D01*
G37*
G36*
X+5046981Y+1799941D02*
X+5046981Y+1869379D01*
X+5096081Y+1918479D01*
X+5165519Y+1918479D01*
X+5214619Y+1869379D01*
X+5214619Y+1799941D01*
X+5165519Y+1750841D01*
X+5096081Y+1750841D01*
X+5046981Y+1799941D01*
G37*
G36*
X+5300981Y+1799941D02*
X+5300981Y+1869379D01*
X+5350081Y+1918479D01*
X+5419519Y+1918479D01*
X+5468619Y+1869379D01*
X+5468619Y+1799941D01*
X+5419519Y+1750841D01*
X+5350081Y+1750841D01*
X+5300981Y+1799941D01*
G37*
G36*
X+5554981Y+1799941D02*
X+5554981Y+1869379D01*
X+5604081Y+1918479D01*
X+5673519Y+1918479D01*
X+5722619Y+1869379D01*
X+5722619Y+1799941D01*
X+5673519Y+1750841D01*
X+5604081Y+1750841D01*
X+5554981Y+1799941D01*
G37*
G36*
X+7078981Y+1799941D02*
X+7078981Y+1869379D01*
X+7128081Y+1918479D01*
X+7197519Y+1918479D01*
X+7246619Y+1869379D01*
X+7246619Y+1799941D01*
X+7197519Y+1750841D01*
X+7128081Y+1750841D01*
X+7078981Y+1799941D01*
G37*
G36*
X+7332981Y+1799941D02*
X+7332981Y+1869379D01*
X+7382081Y+1918479D01*
X+7451519Y+1918479D01*
X+7500619Y+1869379D01*
X+7500619Y+1799941D01*
X+7451519Y+1750841D01*
X+7382081Y+1750841D01*
X+7332981Y+1799941D01*
G37*
G36*
X+7586981Y+1799941D02*
X+7586981Y+1869379D01*
X+7636081Y+1918479D01*
X+7705519Y+1918479D01*
X+7754619Y+1869379D01*
X+7754619Y+1799941D01*
X+7705519Y+1750841D01*
X+7636081Y+1750841D01*
X+7586981Y+1799941D01*
G37*
G36*
X+7840981Y+1799941D02*
X+7840981Y+1869379D01*
X+7890081Y+1918479D01*
X+7959519Y+1918479D01*
X+8008619Y+1869379D01*
X+8008619Y+1799941D01*
X+7959519Y+1750841D01*
X+7890081Y+1750841D01*
X+7840981Y+1799941D01*
G37*
G36*
X+3395981Y+2019911D02*
X+3395981Y+2089349D01*
X+3445081Y+2138449D01*
X+3514519Y+2138449D01*
X+3563619Y+2089349D01*
X+3563619Y+2019911D01*
X+3514519Y+1970811D01*
X+3445081Y+1970811D01*
X+3395981Y+2019911D01*
G37*
G36*
X+4665981Y+2019911D02*
X+4665981Y+2089349D01*
X+4715081Y+2138449D01*
X+4784519Y+2138449D01*
X+4833619Y+2089349D01*
X+4833619Y+2019911D01*
X+4784519Y+1970811D01*
X+4715081Y+1970811D01*
X+4665981Y+2019911D01*
G37*
G36*
X+4919981Y+2019911D02*
X+4919981Y+2089349D01*
X+4969081Y+2138449D01*
X+5038519Y+2138449D01*
X+5087619Y+2089349D01*
X+5087619Y+2019911D01*
X+5038519Y+1970811D01*
X+4969081Y+1970811D01*
X+4919981Y+2019911D01*
G37*
G36*
X+5173981Y+2019911D02*
X+5173981Y+2089349D01*
X+5223081Y+2138449D01*
X+5292519Y+2138449D01*
X+5341619Y+2089349D01*
X+5341619Y+2019911D01*
X+5292519Y+1970811D01*
X+5223081Y+1970811D01*
X+5173981Y+2019911D01*
G37*
G36*
X+5427981Y+2019911D02*
X+5427981Y+2089349D01*
X+5477081Y+2138449D01*
X+5546519Y+2138449D01*
X+5595619Y+2089349D01*
X+5595619Y+2019911D01*
X+5546519Y+1970811D01*
X+5477081Y+1970811D01*
X+5427981Y+2019911D01*
G37*
G36*
X+5681981Y+2019911D02*
X+5681981Y+2089349D01*
X+5731081Y+2138449D01*
X+5800519Y+2138449D01*
X+5849619Y+2089349D01*
X+5849619Y+2019911D01*
X+5800519Y+1970811D01*
X+5731081Y+1970811D01*
X+5681981Y+2019911D01*
G37*
G36*
X+7205981Y+2019911D02*
X+7205981Y+2089349D01*
X+7255081Y+2138449D01*
X+7324519Y+2138449D01*
X+7373619Y+2089349D01*
X+7373619Y+2019911D01*
X+7324519Y+1970811D01*
X+7255081Y+1970811D01*
X+7205981Y+2019911D01*
G37*
G36*
X+7459981Y+2019911D02*
X+7459981Y+2089349D01*
X+7509081Y+2138449D01*
X+7578519Y+2138449D01*
X+7627619Y+2089349D01*
X+7627619Y+2019911D01*
X+7578519Y+1970811D01*
X+7509081Y+1970811D01*
X+7459981Y+2019911D01*
G37*
G36*
X+7713981Y+2019911D02*
X+7713981Y+2089349D01*
X+7763081Y+2138449D01*
X+7832519Y+2138449D01*
X+7881619Y+2089349D01*
X+7881619Y+2019911D01*
X+7832519Y+1970811D01*
X+7763081Y+1970811D01*
X+7713981Y+2019911D01*
G37*
G36*
X+7967981Y+2019911D02*
X+7967981Y+2089349D01*
X+8017081Y+2138449D01*
X+8086519Y+2138449D01*
X+8135619Y+2089349D01*
X+8135619Y+2019911D01*
X+8086519Y+1970811D01*
X+8017081Y+1970811D01*
X+7967981Y+2019911D01*
G37*
G36*
X+5377181Y-1708349D02*
X+5377181Y-1638911D01*
X+5426281Y-1589811D01*
X+5495719Y-1589811D01*
X+5544819Y-1638911D01*
X+5544819Y-1708349D01*
X+5495719Y-1757449D01*
X+5426281Y-1757449D01*
X+5377181Y-1708349D01*
G37*
G36*
X+5478781Y-1532373D02*
X+5478781Y-1462935D01*
X+5527881Y-1413835D01*
X+5597319Y-1413835D01*
X+5646419Y-1462935D01*
X+5646419Y-1532373D01*
X+5597319Y-1581473D01*
X+5527881Y-1581473D01*
X+5478781Y-1532373D01*
G37*
G36*
X+5377181Y-1356397D02*
X+5377181Y-1286959D01*
X+5426281Y-1237859D01*
X+5495719Y-1237859D01*
X+5544819Y-1286959D01*
X+5544819Y-1356397D01*
X+5495719Y-1405497D01*
X+5426281Y-1405497D01*
X+5377181Y-1356397D01*
G37*
G36*
X+5478781Y-1180421D02*
X+5478781Y-1110983D01*
X+5527881Y-1061883D01*
X+5597319Y-1061883D01*
X+5646419Y-1110983D01*
X+5646419Y-1180421D01*
X+5597319Y-1229521D01*
X+5527881Y-1229521D01*
X+5478781Y-1180421D01*
G37*
G36*
X+5478781Y-828469D02*
X+5478781Y-759031D01*
X+5527881Y-709931D01*
X+5597319Y-709931D01*
X+5646419Y-759031D01*
X+5646419Y-828469D01*
X+5597319Y-877569D01*
X+5527881Y-877569D01*
X+5478781Y-828469D01*
G37*
G36*
X+5681981Y-828469D02*
X+5681981Y-759031D01*
X+5731081Y-709931D01*
X+5800519Y-709931D01*
X+5849619Y-759031D01*
X+5849619Y-828469D01*
X+5800519Y-877569D01*
X+5731081Y-877569D01*
X+5681981Y-828469D01*
G37*
G36*
X+5885181Y-828469D02*
X+5885181Y-759031D01*
X+5934281Y-709931D01*
X+6003719Y-709931D01*
X+6052819Y-759031D01*
X+6052819Y-828469D01*
X+6003719Y-877569D01*
X+5934281Y-877569D01*
X+5885181Y-828469D01*
G37*
G36*
X+6291581Y-828469D02*
X+6291581Y-759031D01*
X+6340681Y-709931D01*
X+6410119Y-709931D01*
X+6459219Y-759031D01*
X+6459219Y-828469D01*
X+6410119Y-877569D01*
X+6340681Y-877569D01*
X+6291581Y-828469D01*
G37*
G36*
X+6494781Y-828469D02*
X+6494781Y-759031D01*
X+6543881Y-709931D01*
X+6613319Y-709931D01*
X+6662419Y-759031D01*
X+6662419Y-828469D01*
X+6613319Y-877569D01*
X+6543881Y-877569D01*
X+6494781Y-828469D01*
G37*
G36*
X+7005319Y-600281D02*
X+7005319Y-669719D01*
X+6992619Y-682419D01*
X+6992619Y-880307D01*
X+6854532Y-1018394D01*
X+6854532Y-1154930D01*
X+6886781Y-1122681D01*
X+6956219Y-1122681D01*
X+7005319Y-1171781D01*
X+7005319Y-1207703D01*
X+7297419Y-1499803D01*
X+7297419Y-2733881D01*
X+7322819Y-2759281D01*
X+7322819Y-2828719D01*
X+7273719Y-2877819D01*
X+7204281Y-2877819D01*
X+7155181Y-2828719D01*
X+7155181Y-2759281D01*
X+7180581Y-2733881D01*
X+7180581Y-2063996D01*
X+7141457Y-2103119D01*
X+6923761Y-2320815D01*
X+6923761Y-2899669D01*
X+6936461Y-2912369D01*
X+6936461Y-2981807D01*
X+6887361Y-3030907D01*
X+6817923Y-3030907D01*
X+6768823Y-2981807D01*
X+6768823Y-2912369D01*
X+6781523Y-2899669D01*
X+6781523Y-2261901D01*
X+7040881Y-2002543D01*
X+7040881Y-1680457D01*
X+6712294Y-1351870D01*
X+6712294Y-1060056D01*
X+5467980Y-1060056D01*
X+5317243Y-909319D01*
X+5299281Y-909319D01*
X+5250181Y-860219D01*
X+5250181Y-790781D01*
X+5299281Y-741681D01*
X+5368719Y-741681D01*
X+5417819Y-790781D01*
X+5417819Y-808743D01*
X+5526894Y-917818D01*
X+6753956Y-917818D01*
X+6794205Y-877569D01*
X+6747081Y-877569D01*
X+6697981Y-828469D01*
X+6697981Y-759031D01*
X+6747081Y-709931D01*
X+6816519Y-709931D01*
X+6850381Y-743793D01*
X+6850381Y-682419D01*
X+6837681Y-669719D01*
X+6837681Y-600281D01*
X+6886781Y-551181D01*
X+6956219Y-551181D01*
X+7005319Y-600281D01*
G37*
G36*
X+6393181Y-652493D02*
X+6393181Y-583055D01*
X+6442281Y-533955D01*
X+6511719Y-533955D01*
X+6560819Y-583055D01*
X+6560819Y-652493D01*
X+6511719Y-701593D01*
X+6442281Y-701593D01*
X+6393181Y-652493D01*
G37*
G36*
X+6596381Y-652493D02*
X+6596381Y-583055D01*
X+6645481Y-533955D01*
X+6714919Y-533955D01*
X+6764019Y-583055D01*
X+6764019Y-652493D01*
X+6714919Y-701593D01*
X+6645481Y-701593D01*
X+6596381Y-652493D01*
G37*
G36*
X+6697981Y-476517D02*
X+6697981Y-407079D01*
X+6747081Y-357979D01*
X+6816519Y-357979D01*
X+6865619Y-407079D01*
X+6865619Y-476517D01*
X+6816519Y-525617D01*
X+6747081Y-525617D01*
X+6697981Y-476517D01*
G37*
G36*
X+5580381Y-300541D02*
X+5580381Y-231103D01*
X+5629481Y-182003D01*
X+5698919Y-182003D01*
X+5748019Y-231103D01*
X+5748019Y-300541D01*
X+5698919Y-349641D01*
X+5629481Y-349641D01*
X+5580381Y-300541D01*
G37*
G36*
X+5783581Y-300541D02*
X+5783581Y-231103D01*
X+5832681Y-182003D01*
X+5902119Y-182003D01*
X+5951219Y-231103D01*
X+5951219Y-300541D01*
X+5902119Y-349641D01*
X+5832681Y-349641D01*
X+5783581Y-300541D01*
G37*
G36*
X+5986781Y-300541D02*
X+5986781Y-231103D01*
X+6035881Y-182003D01*
X+6105319Y-182003D01*
X+6154419Y-231103D01*
X+6154419Y-300541D01*
X+6105319Y-349641D01*
X+6035881Y-349641D01*
X+5986781Y-300541D01*
G37*
G36*
X+6189981Y-300541D02*
X+6189981Y-231103D01*
X+6239081Y-182003D01*
X+6308519Y-182003D01*
X+6357619Y-231103D01*
X+6357619Y-300541D01*
X+6308519Y-349641D01*
X+6239081Y-349641D01*
X+6189981Y-300541D01*
G37*
G36*
X+6393181Y-300541D02*
X+6393181Y-231103D01*
X+6442281Y-182003D01*
X+6511719Y-182003D01*
X+6560819Y-231103D01*
X+6560819Y-300541D01*
X+6511719Y-349641D01*
X+6442281Y-349641D01*
X+6393181Y-300541D01*
G37*
G36*
X+5478781Y-124565D02*
X+5478781Y-55127D01*
X+5527881Y-6027D01*
X+5597319Y-6027D01*
X+5646419Y-55127D01*
X+5646419Y-124565D01*
X+5597319Y-173665D01*
X+5527881Y-173665D01*
X+5478781Y-124565D01*
G37*
G36*
X+5681981Y-124565D02*
X+5681981Y-55127D01*
X+5731081Y-6027D01*
X+5800519Y-6027D01*
X+5849619Y-55127D01*
X+5849619Y-124565D01*
X+5800519Y-173665D01*
X+5731081Y-173665D01*
X+5681981Y-124565D01*
G37*
G36*
X+5885181Y-124565D02*
X+5885181Y-55127D01*
X+5934281Y-6027D01*
X+6003719Y-6027D01*
X+6052819Y-55127D01*
X+6052819Y-124565D01*
X+6003719Y-173665D01*
X+5934281Y-173665D01*
X+5885181Y-124565D01*
G37*
G36*
X+6088381Y-124565D02*
X+6088381Y-55127D01*
X+6137481Y-6027D01*
X+6206919Y-6027D01*
X+6256019Y-55127D01*
X+6256019Y-124565D01*
X+6206919Y-173665D01*
X+6137481Y-173665D01*
X+6088381Y-124565D01*
G37*
G36*
X+6291581Y-124565D02*
X+6291581Y-55127D01*
X+6340681Y-6027D01*
X+6410119Y-6027D01*
X+6459219Y-55127D01*
X+6459219Y-124565D01*
X+6410119Y-173665D01*
X+6340681Y-173665D01*
X+6291581Y-124565D01*
G37*
G36*
X+6697981Y-124565D02*
X+6697981Y-55127D01*
X+6747081Y-6027D01*
X+6816519Y-6027D01*
X+6865619Y-55127D01*
X+6865619Y-124565D01*
X+6816519Y-173665D01*
X+6747081Y-173665D01*
X+6697981Y-124565D01*
G37*
G36*
X+7663181Y-1708349D02*
X+7663181Y-1638911D01*
X+7712281Y-1589811D01*
X+7781719Y-1589811D01*
X+7830819Y-1638911D01*
X+7830819Y-1708349D01*
X+7781719Y-1757449D01*
X+7712281Y-1757449D01*
X+7663181Y-1708349D01*
G37*
G36*
X+7764781Y-1532373D02*
X+7764781Y-1462935D01*
X+7813881Y-1413835D01*
X+7883319Y-1413835D01*
X+7932419Y-1462935D01*
X+7932419Y-1532373D01*
X+7883319Y-1581473D01*
X+7813881Y-1581473D01*
X+7764781Y-1532373D01*
G37*
G36*
X+7663181Y-1356397D02*
X+7663181Y-1286959D01*
X+7712281Y-1237859D01*
X+7781719Y-1237859D01*
X+7830819Y-1286959D01*
X+7830819Y-1356397D01*
X+7781719Y-1405497D01*
X+7712281Y-1405497D01*
X+7663181Y-1356397D01*
G37*
G36*
X+7764781Y-1180421D02*
X+7764781Y-1110983D01*
X+7813881Y-1061883D01*
X+7883319Y-1061883D01*
X+7932419Y-1110983D01*
X+7932419Y-1180421D01*
X+7883319Y-1229521D01*
X+7813881Y-1229521D01*
X+7764781Y-1180421D01*
G37*
G36*
X+7663181Y-1004445D02*
X+7663181Y-935007D01*
X+7712281Y-885907D01*
X+7781719Y-885907D01*
X+7830819Y-935007D01*
X+7830819Y-1004445D01*
X+7781719Y-1053545D01*
X+7712281Y-1053545D01*
X+7663181Y-1004445D01*
G37*
G36*
X+7764781Y-828469D02*
X+7764781Y-759031D01*
X+7813881Y-709931D01*
X+7883319Y-709931D01*
X+7932419Y-759031D01*
X+7932419Y-828469D01*
X+7883319Y-877569D01*
X+7813881Y-877569D01*
X+7764781Y-828469D01*
G37*
G36*
X+7967981Y-828469D02*
X+7967981Y-759031D01*
X+8017081Y-709931D01*
X+8086519Y-709931D01*
X+8135619Y-759031D01*
X+8135619Y-828469D01*
X+8086519Y-877569D01*
X+8017081Y-877569D01*
X+7967981Y-828469D01*
G37*
G36*
X+8171181Y-828469D02*
X+8171181Y-759031D01*
X+8220281Y-709931D01*
X+8289719Y-709931D01*
X+8338819Y-759031D01*
X+8338819Y-828469D01*
X+8289719Y-877569D01*
X+8220281Y-877569D01*
X+8171181Y-828469D01*
G37*
G36*
X+8745219Y-759031D02*
X+8745219Y-805181D01*
X+8797719Y-805181D01*
X+8846819Y-854281D01*
X+8846819Y-923719D01*
X+8821419Y-949119D01*
X+8821419Y-1210271D01*
X+7794211Y-2237479D01*
X+7794211Y-2376778D01*
X+7917181Y-2499748D01*
X+7917181Y-2441781D01*
X+7966281Y-2392681D01*
X+8035719Y-2392681D01*
X+8048419Y-2405381D01*
X+9003916Y-2405381D01*
X+9321416Y-2087881D01*
X+9414081Y-2087881D01*
X+9426781Y-2075181D01*
X+9496219Y-2075181D01*
X+9545319Y-2124281D01*
X+9545319Y-2193719D01*
X+9496219Y-2242819D01*
X+9426781Y-2242819D01*
X+9414081Y-2230119D01*
X+9380330Y-2230119D01*
X+9088119Y-2522331D01*
X+9088119Y-2873581D01*
X+9100819Y-2886281D01*
X+9100819Y-2955719D01*
X+9051719Y-3004819D01*
X+8982281Y-3004819D01*
X+8933181Y-2955719D01*
X+8933181Y-2886281D01*
X+8945881Y-2873581D01*
X+8945881Y-2547619D01*
X+8048419Y-2547619D01*
X+8035719Y-2560319D01*
X+7977752Y-2560319D01*
X+8153014Y-2735581D01*
X+8575881Y-2735581D01*
X+8601281Y-2710181D01*
X+8670719Y-2710181D01*
X+8719819Y-2759281D01*
X+8719819Y-2828719D01*
X+8670719Y-2877819D01*
X+8601281Y-2877819D01*
X+8575881Y-2852419D01*
X+8104620Y-2852419D01*
X+7677373Y-2425172D01*
X+7677373Y-2189085D01*
X+8704581Y-1161877D01*
X+8704581Y-949119D01*
X+8679181Y-923719D01*
X+8679181Y-877569D01*
X+8626681Y-877569D01*
X+8577581Y-828469D01*
X+8577581Y-759031D01*
X+8626681Y-709931D01*
X+8696119Y-709931D01*
X+8745219Y-759031D01*
G37*
G36*
X+8920824Y-418995D02*
X+9031000Y-529171D01*
X+9031000Y-721576D01*
X+8973819Y-778757D01*
X+8973819Y-796719D01*
X+8924719Y-845819D01*
X+8855281Y-845819D01*
X+8806181Y-796719D01*
X+8806181Y-727281D01*
X+8855281Y-678181D01*
X+8873243Y-678181D01*
X+8888762Y-662662D01*
X+8888762Y-588085D01*
X+8841079Y-540402D01*
X+8804166Y-540402D01*
X+8846819Y-583055D01*
X+8846819Y-652493D01*
X+8797719Y-701593D01*
X+8728281Y-701593D01*
X+8679181Y-652493D01*
X+8679181Y-583055D01*
X+8721834Y-540402D01*
X+7688174Y-540402D01*
X+7627619Y-600957D01*
X+7627619Y-714581D01*
X+7640319Y-727281D01*
X+7640319Y-796719D01*
X+7627619Y-809419D01*
X+7627619Y-2388248D01*
X+8108906Y-2869535D01*
X+8143395Y-2900681D01*
X+8162719Y-2900681D01*
X+8211819Y-2949781D01*
X+8211819Y-3019219D01*
X+8162719Y-3068319D01*
X+8093281Y-3068319D01*
X+8044181Y-3019219D01*
X+8044181Y-3004160D01*
X+8010418Y-2972199D01*
X+7485381Y-2447162D01*
X+7485381Y-809419D01*
X+7472681Y-796719D01*
X+7472681Y-727281D01*
X+7485381Y-714581D01*
X+7485381Y-542043D01*
X+7629260Y-398164D01*
X+8899993Y-398164D01*
X+8920824Y-418995D01*
G37*
G36*
X+7866381Y-300541D02*
X+7866381Y-231103D01*
X+7915481Y-182003D01*
X+7984919Y-182003D01*
X+8034019Y-231103D01*
X+8034019Y-300541D01*
X+7984919Y-349641D01*
X+7915481Y-349641D01*
X+7866381Y-300541D01*
G37*
G36*
X+8069581Y-300541D02*
X+8069581Y-231103D01*
X+8118681Y-182003D01*
X+8188119Y-182003D01*
X+8237219Y-231103D01*
X+8237219Y-300541D01*
X+8188119Y-349641D01*
X+8118681Y-349641D01*
X+8069581Y-300541D01*
G37*
G36*
X+8272781Y-300541D02*
X+8272781Y-231103D01*
X+8321881Y-182003D01*
X+8391319Y-182003D01*
X+8440419Y-231103D01*
X+8440419Y-300541D01*
X+8391319Y-349641D01*
X+8321881Y-349641D01*
X+8272781Y-300541D01*
G37*
G36*
X+8475981Y-300541D02*
X+8475981Y-231103D01*
X+8525081Y-182003D01*
X+8594519Y-182003D01*
X+8643619Y-231103D01*
X+8643619Y-300541D01*
X+8594519Y-349641D01*
X+8525081Y-349641D01*
X+8475981Y-300541D01*
G37*
G36*
X+8679181Y-300541D02*
X+8679181Y-231103D01*
X+8728281Y-182003D01*
X+8797719Y-182003D01*
X+8846819Y-231103D01*
X+8846819Y-300541D01*
X+8797719Y-349641D01*
X+8728281Y-349641D01*
X+8679181Y-300541D01*
G37*
G36*
X+7764781Y-124565D02*
X+7764781Y-55127D01*
X+7813881Y-6027D01*
X+7883319Y-6027D01*
X+7932419Y-55127D01*
X+7932419Y-124565D01*
X+7883319Y-173665D01*
X+7813881Y-173665D01*
X+7764781Y-124565D01*
G37*
G36*
X+7967981Y-124565D02*
X+7967981Y-55127D01*
X+8017081Y-6027D01*
X+8086519Y-6027D01*
X+8135619Y-55127D01*
X+8135619Y-124565D01*
X+8086519Y-173665D01*
X+8017081Y-173665D01*
X+7967981Y-124565D01*
G37*
G36*
X+8171181Y-124565D02*
X+8171181Y-55127D01*
X+8220281Y-6027D01*
X+8289719Y-6027D01*
X+8338819Y-55127D01*
X+8338819Y-124565D01*
X+8289719Y-173665D01*
X+8220281Y-173665D01*
X+8171181Y-124565D01*
G37*
G36*
X+8374381Y-124565D02*
X+8374381Y-55127D01*
X+8423481Y-6027D01*
X+8492919Y-6027D01*
X+8542019Y-55127D01*
X+8542019Y-124565D01*
X+8492919Y-173665D01*
X+8423481Y-173665D01*
X+8374381Y-124565D01*
G37*
G36*
X+8577581Y-124565D02*
X+8577581Y-55127D01*
X+8626681Y-6027D01*
X+8696119Y-6027D01*
X+8745219Y-55127D01*
X+8745219Y-124565D01*
X+8696119Y-173665D01*
X+8626681Y-173665D01*
X+8577581Y-124565D01*
G37*
G36*
X+3129281Y-1532373D02*
X+3129281Y-1462935D01*
X+3178381Y-1413835D01*
X+3247819Y-1413835D01*
X+3296919Y-1462935D01*
X+3296919Y-1532373D01*
X+3247819Y-1581473D01*
X+3178381Y-1581473D01*
X+3129281Y-1532373D01*
G37*
G36*
X+3027681Y-1356397D02*
X+3027681Y-1286959D01*
X+3076781Y-1237859D01*
X+3146219Y-1237859D01*
X+3195319Y-1286959D01*
X+3195319Y-1356397D01*
X+3146219Y-1405497D01*
X+3076781Y-1405497D01*
X+3027681Y-1356397D01*
G37*
G36*
X+3129281Y-1180421D02*
X+3129281Y-1110983D01*
X+3178381Y-1061883D01*
X+3247819Y-1061883D01*
X+3296919Y-1110983D01*
X+3296919Y-1180421D01*
X+3247819Y-1229521D01*
X+3178381Y-1229521D01*
X+3129281Y-1180421D01*
G37*
G36*
X+3027681Y-1004445D02*
X+3027681Y-935007D01*
X+3076781Y-885907D01*
X+3146219Y-885907D01*
X+3195319Y-935007D01*
X+3195319Y-1004445D01*
X+3146219Y-1053545D01*
X+3076781Y-1053545D01*
X+3027681Y-1004445D01*
G37*
G36*
X+3129281Y-828469D02*
X+3129281Y-759031D01*
X+3178381Y-709931D01*
X+3247819Y-709931D01*
X+3296919Y-759031D01*
X+3296919Y-828469D01*
X+3247819Y-877569D01*
X+3178381Y-877569D01*
X+3129281Y-828469D01*
G37*
G36*
X+3332481Y-828469D02*
X+3332481Y-759031D01*
X+3381581Y-709931D01*
X+3451019Y-709931D01*
X+3500119Y-759031D01*
X+3500119Y-828469D01*
X+3451019Y-877569D01*
X+3381581Y-877569D01*
X+3332481Y-828469D01*
G37*
G36*
X+3535681Y-828469D02*
X+3535681Y-759031D01*
X+3584781Y-709931D01*
X+3654219Y-709931D01*
X+3703319Y-759031D01*
X+3703319Y-828469D01*
X+3654219Y-877569D01*
X+3584781Y-877569D01*
X+3535681Y-828469D01*
G37*
G36*
X+4043681Y-652493D02*
X+4043681Y-583055D01*
X+4092781Y-533955D01*
X+4162219Y-533955D01*
X+4211319Y-583055D01*
X+4211319Y-652493D01*
X+4162219Y-701593D01*
X+4092781Y-701593D01*
X+4043681Y-652493D01*
G37*
G36*
X+4246881Y-652493D02*
X+4246881Y-583055D01*
X+4295981Y-533955D01*
X+4365419Y-533955D01*
X+4414519Y-583055D01*
X+4414519Y-652493D01*
X+4365419Y-701593D01*
X+4295981Y-701593D01*
X+4246881Y-652493D01*
G37*
G36*
X+3230881Y-300541D02*
X+3230881Y-231103D01*
X+3279981Y-182003D01*
X+3349419Y-182003D01*
X+3398519Y-231103D01*
X+3398519Y-300541D01*
X+3349419Y-349641D01*
X+3279981Y-349641D01*
X+3230881Y-300541D01*
G37*
G36*
X+3434081Y-300541D02*
X+3434081Y-231103D01*
X+3483181Y-182003D01*
X+3552619Y-182003D01*
X+3601719Y-231103D01*
X+3601719Y-300541D01*
X+3552619Y-349641D01*
X+3483181Y-349641D01*
X+3434081Y-300541D01*
G37*
G36*
X+3637281Y-300541D02*
X+3637281Y-231103D01*
X+3686381Y-182003D01*
X+3755819Y-182003D01*
X+3804919Y-231103D01*
X+3804919Y-300541D01*
X+3755819Y-349641D01*
X+3686381Y-349641D01*
X+3637281Y-300541D01*
G37*
G36*
X+3840481Y-300541D02*
X+3840481Y-231103D01*
X+3889581Y-182003D01*
X+3959019Y-182003D01*
X+4008119Y-231103D01*
X+4008119Y-300541D01*
X+3959019Y-349641D01*
X+3889581Y-349641D01*
X+3840481Y-300541D01*
G37*
G36*
X+4043681Y-300541D02*
X+4043681Y-231103D01*
X+4092781Y-182003D01*
X+4162219Y-182003D01*
X+4211319Y-231103D01*
X+4211319Y-300541D01*
X+4162219Y-349641D01*
X+4092781Y-349641D01*
X+4043681Y-300541D01*
G37*
G36*
X+3129281Y-124565D02*
X+3129281Y-55127D01*
X+3178381Y-6027D01*
X+3247819Y-6027D01*
X+3296919Y-55127D01*
X+3296919Y-124565D01*
X+3247819Y-173665D01*
X+3178381Y-173665D01*
X+3129281Y-124565D01*
G37*
G36*
X+3332481Y-124565D02*
X+3332481Y-55127D01*
X+3381581Y-6027D01*
X+3451019Y-6027D01*
X+3500119Y-55127D01*
X+3500119Y-124565D01*
X+3451019Y-173665D01*
X+3381581Y-173665D01*
X+3332481Y-124565D01*
G37*
G36*
X+3535681Y-124565D02*
X+3535681Y-55127D01*
X+3584781Y-6027D01*
X+3654219Y-6027D01*
X+3703319Y-55127D01*
X+3703319Y-124565D01*
X+3654219Y-173665D01*
X+3584781Y-173665D01*
X+3535681Y-124565D01*
G37*
G36*
X+3738881Y-124565D02*
X+3738881Y-55127D01*
X+3787981Y-6027D01*
X+3857419Y-6027D01*
X+3906519Y-55127D01*
X+3906519Y-124565D01*
X+3857419Y-173665D01*
X+3787981Y-173665D01*
X+3738881Y-124565D01*
G37*
G36*
X+3942081Y-124565D02*
X+3942081Y-55127D01*
X+3991181Y-6027D01*
X+4060619Y-6027D01*
X+4109719Y-55127D01*
X+4109719Y-124565D01*
X+4060619Y-173665D01*
X+3991181Y-173665D01*
X+3942081Y-124565D01*
G37*
G36*
X+4348481Y-124565D02*
X+4348481Y-55127D01*
X+4397581Y-6027D01*
X+4467019Y-6027D01*
X+4516119Y-55127D01*
X+4516119Y-124565D01*
X+4467019Y-173665D01*
X+4397581Y-173665D01*
X+4348481Y-124565D01*
G37*
G36*
X+3929381Y+1017591D02*
X+3929381Y+1087029D01*
X+3978481Y+1136129D01*
X+4047919Y+1136129D01*
X+4097019Y+1087029D01*
X+4097019Y+1017591D01*
X+4047919Y+968491D01*
X+3978481Y+968491D01*
X+3929381Y+1017591D01*
G37*
G36*
X+3827781Y+1193567D02*
X+3827781Y+1263005D01*
X+3876881Y+1312105D01*
X+3946319Y+1312105D01*
X+3995419Y+1263005D01*
X+3995419Y+1193567D01*
X+3946319Y+1144467D01*
X+3876881Y+1144467D01*
X+3827781Y+1193567D01*
G37*
G36*
X+4030981Y+1193567D02*
X+4030981Y+1263005D01*
X+4080081Y+1312105D01*
X+4149519Y+1312105D01*
X+4198619Y+1263005D01*
X+4198619Y+1193567D01*
X+4149519Y+1144467D01*
X+4080081Y+1144467D01*
X+4030981Y+1193567D01*
G37*
G36*
X+3726181Y+1369543D02*
X+3726181Y+1438981D01*
X+3775281Y+1488081D01*
X+3844719Y+1488081D01*
X+3893819Y+1438981D01*
X+3893819Y+1369543D01*
X+3844719Y+1320443D01*
X+3775281Y+1320443D01*
X+3726181Y+1369543D01*
G37*
G36*
X+3929381Y+1369543D02*
X+3929381Y+1438981D01*
X+3978481Y+1488081D01*
X+4047919Y+1488081D01*
X+4097019Y+1438981D01*
X+4097019Y+1369543D01*
X+4047919Y+1320443D01*
X+3978481Y+1320443D01*
X+3929381Y+1369543D01*
G37*
G36*
X+3827781Y+1545519D02*
X+3827781Y+1614957D01*
X+3876881Y+1664057D01*
X+3946319Y+1664057D01*
X+3995419Y+1614957D01*
X+3995419Y+1545519D01*
X+3946319Y+1496419D01*
X+3876881Y+1496419D01*
X+3827781Y+1545519D01*
G37*
G36*
X+3726181Y+1721495D02*
X+3726181Y+1790933D01*
X+3775281Y+1840033D01*
X+3844719Y+1840033D01*
X+3893819Y+1790933D01*
X+3893819Y+1721495D01*
X+3844719Y+1672395D01*
X+3775281Y+1672395D01*
X+3726181Y+1721495D01*
G37*
G36*
X+3827781Y+1897471D02*
X+3827781Y+1966909D01*
X+3876881Y+2016009D01*
X+3946319Y+2016009D01*
X+3995419Y+1966909D01*
X+3995419Y+1897471D01*
X+3946319Y+1848371D01*
X+3876881Y+1848371D01*
X+3827781Y+1897471D01*
G37*
G36*
X+8514081Y+1193567D02*
X+8514081Y+1263005D01*
X+8563181Y+1312105D01*
X+8632619Y+1312105D01*
X+8681719Y+1263005D01*
X+8681719Y+1193567D01*
X+8632619Y+1144467D01*
X+8563181Y+1144467D01*
X+8514081Y+1193567D01*
G37*
G36*
X+8717281Y+1193567D02*
X+8717281Y+1263005D01*
X+8766381Y+1312105D01*
X+8835819Y+1312105D01*
X+8884919Y+1263005D01*
X+8884919Y+1193567D01*
X+8835819Y+1144467D01*
X+8766381Y+1144467D01*
X+8717281Y+1193567D01*
G37*
G36*
X+8412481Y+1369543D02*
X+8412481Y+1438981D01*
X+8461581Y+1488081D01*
X+8531019Y+1488081D01*
X+8580119Y+1438981D01*
X+8580119Y+1369543D01*
X+8531019Y+1320443D01*
X+8461581Y+1320443D01*
X+8412481Y+1369543D01*
G37*
G36*
X+8615681Y+1369543D02*
X+8615681Y+1438981D01*
X+8664781Y+1488081D01*
X+8734219Y+1488081D01*
X+8783319Y+1438981D01*
X+8783319Y+1369543D01*
X+8734219Y+1320443D01*
X+8664781Y+1320443D01*
X+8615681Y+1369543D01*
G37*
G36*
X+8412481Y+1721495D02*
X+8412481Y+1790933D01*
X+8461581Y+1840033D01*
X+8531019Y+1840033D01*
X+8580119Y+1790933D01*
X+8580119Y+1721495D01*
X+8531019Y+1672395D01*
X+8461581Y+1672395D01*
X+8412481Y+1721495D01*
G37*
G36*
X+8514081Y+1897471D02*
X+8514081Y+1966909D01*
X+8563181Y+2016009D01*
X+8632619Y+2016009D01*
X+8681719Y+1966909D01*
X+8681719Y+1897471D01*
X+8632619Y+1848371D01*
X+8563181Y+1848371D01*
X+8514081Y+1897471D01*
G37*
G36*
X+6280150Y+1017591D02*
X+6280150Y+1087029D01*
X+6329250Y+1136129D01*
X+6398688Y+1136129D01*
X+6447788Y+1087029D01*
X+6447788Y+1017591D01*
X+6398688Y+968491D01*
X+6329250Y+968491D01*
X+6280150Y+1017591D01*
G37*
G36*
X+6178550Y+1193567D02*
X+6178550Y+1263005D01*
X+6227650Y+1312105D01*
X+6297088Y+1312105D01*
X+6346188Y+1263005D01*
X+6346188Y+1193567D01*
X+6297088Y+1144467D01*
X+6227650Y+1144467D01*
X+6178550Y+1193567D01*
G37*
G36*
X+6381750Y+1193567D02*
X+6381750Y+1263005D01*
X+6430850Y+1312105D01*
X+6500288Y+1312105D01*
X+6549388Y+1263005D01*
X+6549388Y+1193567D01*
X+6500288Y+1144467D01*
X+6430850Y+1144467D01*
X+6381750Y+1193567D01*
G37*
G36*
X+6076950Y+1369543D02*
X+6076950Y+1438981D01*
X+6126050Y+1488081D01*
X+6195488Y+1488081D01*
X+6244588Y+1438981D01*
X+6244588Y+1369543D01*
X+6195488Y+1320443D01*
X+6126050Y+1320443D01*
X+6076950Y+1369543D01*
G37*
G36*
X+6280150Y+1369543D02*
X+6280150Y+1438981D01*
X+6329250Y+1488081D01*
X+6398688Y+1488081D01*
X+6447788Y+1438981D01*
X+6447788Y+1369543D01*
X+6398688Y+1320443D01*
X+6329250Y+1320443D01*
X+6280150Y+1369543D01*
G37*
G36*
X+6178550Y+1545519D02*
X+6178550Y+1614957D01*
X+6227650Y+1664057D01*
X+6297088Y+1664057D01*
X+6346188Y+1614957D01*
X+6346188Y+1545519D01*
X+6297088Y+1496419D01*
X+6227650Y+1496419D01*
X+6178550Y+1545519D01*
G37*
G36*
X+6076950Y+1721495D02*
X+6076950Y+1790933D01*
X+6126050Y+1840033D01*
X+6195488Y+1840033D01*
X+6244588Y+1790933D01*
X+6244588Y+1721495D01*
X+6195488Y+1672395D01*
X+6126050Y+1672395D01*
X+6076950Y+1721495D01*
G37*
G36*
X+6178550Y+1897471D02*
X+6178550Y+1966909D01*
X+6227650Y+2016009D01*
X+6297088Y+2016009D01*
X+6346188Y+1966909D01*
X+6346188Y+1897471D01*
X+6297088Y+1848371D01*
X+6227650Y+1848371D01*
X+6178550Y+1897471D01*
G37*
G36*
X+8655050Y-2143947D02*
X+8655050Y-2117645D01*
X+8673649Y-2099046D01*
X+8699951Y-2099046D01*
X+8718550Y-2117645D01*
X+8718550Y-2143947D01*
X+8699951Y-2162546D01*
X+8673649Y-2162546D01*
X+8655050Y-2143947D01*
G37*
G36*
X+8858250Y-2143947D02*
X+8858250Y-2117645D01*
X+8876849Y-2099046D01*
X+8903151Y-2099046D01*
X+8921750Y-2117645D01*
X+8921750Y-2143947D01*
X+8903151Y-2162546D01*
X+8876849Y-2162546D01*
X+8858250Y-2143947D01*
G37*
G36*
X+2051050Y+1903501D02*
X+2051050Y+1929803D01*
X+2069649Y+1948402D01*
X+2095951Y+1948402D01*
X+2114550Y+1929803D01*
X+2114550Y+1903501D01*
X+2095951Y+1884902D01*
X+2069649Y+1884902D01*
X+2051050Y+1903501D01*
G37*
G36*
X+2254250Y+1903501D02*
X+2254250Y+1929803D01*
X+2272849Y+1948402D01*
X+2299151Y+1948402D01*
X+2317750Y+1929803D01*
X+2317750Y+1903501D01*
X+2299151Y+1884902D01*
X+2272849Y+1884902D01*
X+2254250Y+1903501D01*
G37*
G36*
X+2863850Y+1903501D02*
X+2863850Y+1929803D01*
X+2882449Y+1948402D01*
X+2908751Y+1948402D01*
X+2927350Y+1929803D01*
X+2927350Y+1903501D01*
X+2908751Y+1884902D01*
X+2882449Y+1884902D01*
X+2863850Y+1903501D01*
G37*
G36*
X+2762250Y+2079477D02*
X+2762250Y+2105779D01*
X+2780849Y+2124378D01*
X+2807151Y+2124378D01*
X+2825750Y+2105779D01*
X+2825750Y+2079477D01*
X+2807151Y+2060878D01*
X+2780849Y+2060878D01*
X+2762250Y+2079477D01*
G37*
G36*
X+1922781Y+1491078D02*
X+1922781Y+1560516D01*
X+1971881Y+1609616D01*
X+2041319Y+1609616D01*
X+2090419Y+1560516D01*
X+2090419Y+1491078D01*
X+2041319Y+1441978D01*
X+1971881Y+1441978D01*
X+1922781Y+1491078D01*
G37*
G36*
X+2293619Y+1560516D02*
X+2293619Y+1491078D01*
X+2244519Y+1441978D01*
X+2197305Y+1441978D01*
X+2242819Y+1396464D01*
X+2242819Y+1327026D01*
X+2193719Y+1277926D01*
X+2124281Y+1277926D01*
X+2075181Y+1327026D01*
X+2075181Y+1396464D01*
X+2124281Y+1445564D01*
X+2171495Y+1445564D01*
X+2125981Y+1491078D01*
X+2125981Y+1560516D01*
X+2175081Y+1609616D01*
X+2244519Y+1609616D01*
X+2293619Y+1560516D01*
G37*
G36*
X+2496819Y+1560516D02*
X+2496819Y+1491078D01*
X+2449512Y+1443771D01*
X+2496819Y+1396464D01*
X+2496819Y+1327026D01*
X+2447719Y+1277926D01*
X+2378281Y+1277926D01*
X+2329181Y+1327026D01*
X+2329181Y+1396464D01*
X+2376488Y+1443771D01*
X+2329181Y+1491078D01*
X+2329181Y+1560516D01*
X+2378281Y+1609616D01*
X+2447719Y+1609616D01*
X+2496819Y+1560516D01*
G37*
G36*
X+2532381Y+1491078D02*
X+2532381Y+1560516D01*
X+2581481Y+1609616D01*
X+2650919Y+1609616D01*
X+2700019Y+1560516D01*
X+2700019Y+1491078D01*
X+2650919Y+1441978D01*
X+2581481Y+1441978D01*
X+2532381Y+1491078D01*
G37*
G36*
X+4782819Y-409781D02*
X+4782819Y-479219D01*
X+4733719Y-528319D01*
X+4664281Y-528319D01*
X+4651581Y-515619D01*
X+4579619Y-515619D01*
X+4579619Y-1226767D01*
X+4960619Y-1607766D01*
X+4960619Y-2828043D01*
X+4995467Y-2862891D01*
X+5093853Y-2862891D01*
X+5059681Y-2828719D01*
X+5059681Y-2759281D01*
X+5060958Y-2758004D01*
X+5060958Y-1406054D01*
X+4691223Y-1036319D01*
X+4664281Y-1036319D01*
X+4615181Y-987219D01*
X+4615181Y-917781D01*
X+4664281Y-868681D01*
X+4733719Y-868681D01*
X+4782819Y-917781D01*
X+4782819Y-944723D01*
X+5190496Y-1352399D01*
X+5190496Y-2722458D01*
X+5227319Y-2759281D01*
X+5227319Y-2828719D01*
X+5193147Y-2862891D01*
X+5222413Y-2862891D01*
X+5235113Y-2850191D01*
X+5304551Y-2850191D01*
X+5353651Y-2899291D01*
X+5353651Y-2968729D01*
X+5304551Y-3017829D01*
X+5235113Y-3017829D01*
X+5222413Y-3005129D01*
X+4947205Y-3005129D01*
X+4962642Y-3020566D01*
X+6276858Y-3020566D01*
X+6329681Y-2967743D01*
X+6329681Y-2949781D01*
X+6378781Y-2900681D01*
X+6448219Y-2900681D01*
X+6497319Y-2949781D01*
X+6497319Y-3019219D01*
X+6448219Y-3068319D01*
X+6430257Y-3068319D01*
X+6335773Y-3162804D01*
X+4903727Y-3162804D01*
X+4862066Y-3121142D01*
X+4542543Y-2801619D01*
X+3539919Y-2801619D01*
X+3527219Y-2814319D01*
X+3457781Y-2814319D01*
X+3408681Y-2765219D01*
X+3408681Y-2695781D01*
X+3457781Y-2646681D01*
X+3527219Y-2646681D01*
X+3539919Y-2659381D01*
X+4500881Y-2659381D01*
X+4500881Y-1812043D01*
X+4615181Y-1697743D01*
X+4615181Y-1679781D01*
X+4645855Y-1649107D01*
X+4616722Y-1649107D01*
X+4567622Y-1600007D01*
X+4567622Y-1530569D01*
X+4616722Y-1481469D01*
X+4633169Y-1481469D01*
X+4437381Y-1285681D01*
X+4437381Y-856407D01*
X+4416219Y-877569D01*
X+4346781Y-877569D01*
X+4297681Y-828469D01*
X+4297681Y-759031D01*
X+4346781Y-709931D01*
X+4416219Y-709931D01*
X+4437381Y-731093D01*
X+4437381Y-515619D01*
X+3077457Y-515619D01*
X+2992119Y-600957D01*
X+2992119Y-714581D01*
X+3004819Y-727281D01*
X+3004819Y-796719D01*
X+2955719Y-845819D01*
X+2886281Y-845819D01*
X+2837181Y-796719D01*
X+2837181Y-727281D01*
X+2849881Y-714581D01*
X+2849881Y-542043D01*
X+3018543Y-373381D01*
X+4651581Y-373381D01*
X+4664281Y-360681D01*
X+4733719Y-360681D01*
X+4782819Y-409781D01*
G37*
G36*
X+5100319Y-28781D02*
X+5100319Y-98219D01*
X+5081269Y-117269D01*
X+5081269Y-394343D01*
X+4787344Y-688268D01*
X+4787344Y-715210D01*
X+4738244Y-764310D01*
X+4668806Y-764310D01*
X+4619706Y-715210D01*
X+4619706Y-645772D01*
X+4668806Y-596672D01*
X+4695748Y-596672D01*
X+4951731Y-340689D01*
X+4951731Y-117269D01*
X+4932681Y-98219D01*
X+4932681Y-28781D01*
X+4981781Y+20319D01*
X+5051219Y+20319D01*
X+5100319Y-28781D01*
G37*
G36*
X+8488681Y+536781D02*
X+8488681Y+606219D01*
X+8537781Y+655319D01*
X+8607219Y+655319D01*
X+8656319Y+606219D01*
X+8656319Y+536781D01*
X+8607219Y+487681D01*
X+8537781Y+487681D01*
X+8488681Y+536781D01*
G37*
G36*
X+7155181Y-98219D02*
X+7155181Y-28781D01*
X+7204281Y+20319D01*
X+7273719Y+20319D01*
X+7322819Y-28781D01*
X+7322819Y-98219D01*
X+7273719Y-147319D01*
X+7204281Y-147319D01*
X+7155181Y-98219D01*
G37*
G36*
X+8951970Y-3310392D02*
X+8951970Y-3240954D01*
X+9001070Y-3191854D01*
X+9070508Y-3191854D01*
X+9119608Y-3240954D01*
X+9119608Y-3310392D01*
X+9070508Y-3359492D01*
X+9001070Y-3359492D01*
X+8951970Y-3310392D01*
G37*
G36*
X+9250681Y+1171781D02*
X+9250681Y+1241219D01*
X+9299781Y+1290319D01*
X+9369219Y+1290319D01*
X+9418319Y+1241219D01*
X+9418319Y+1171781D01*
X+9369219Y+1122681D01*
X+9299781Y+1122681D01*
X+9250681Y+1171781D01*
G37*
G36*
X+7972725Y-3272948D02*
X+7972725Y-3203510D01*
X+8021825Y-3154410D01*
X+8091263Y-3154410D01*
X+8140363Y-3203510D01*
X+8140363Y-3272948D01*
X+8091263Y-3322048D01*
X+8021825Y-3322048D01*
X+7972725Y-3272948D01*
G37*
G36*
X+9123681Y-98219D02*
X+9123681Y-28781D01*
X+9172781Y+20319D01*
X+9242219Y+20319D01*
X+9291319Y-28781D01*
X+9291319Y-98219D01*
X+9242219Y-147319D01*
X+9172781Y-147319D01*
X+9123681Y-98219D01*
G37*
G36*
X+6901181Y-98219D02*
X+6901181Y-28781D01*
X+6950281Y+20319D01*
X+7019719Y+20319D01*
X+7068819Y-28781D01*
X+7068819Y-98219D01*
X+7019719Y-147319D01*
X+6950281Y-147319D01*
X+6901181Y-98219D01*
G37*
G36*
X+7715250Y-3442151D02*
X+7715250Y-3415849D01*
X+7733849Y-3397250D01*
X+7760151Y-3397250D01*
X+7778750Y-3415849D01*
X+7778750Y-3442151D01*
X+7760151Y-3460750D01*
X+7733849Y-3460750D01*
X+7715250Y-3442151D01*
G37*
G36*
X+6396899Y-3376661D02*
X+6396899Y-3350359D01*
X+6415498Y-3331760D01*
X+6441800Y-3331760D01*
X+6460399Y-3350359D01*
X+6460399Y-3376661D01*
X+6441800Y-3395260D01*
X+6415498Y-3395260D01*
X+6396899Y-3376661D01*
G37*
G36*
X+9112250Y-3886651D02*
X+9112250Y-3860349D01*
X+9130849Y-3841750D01*
X+9157151Y-3841750D01*
X+9175750Y-3860349D01*
X+9175750Y-3886651D01*
X+9157151Y-3905250D01*
X+9130849Y-3905250D01*
X+9112250Y-3886651D01*
G37*
G36*
X+6964681Y+1171781D02*
X+6964681Y+1241219D01*
X+7013781Y+1290319D01*
X+7083219Y+1290319D01*
X+7132319Y+1241219D01*
X+7132319Y+1171781D01*
X+7083219Y+1122681D01*
X+7013781Y+1122681D01*
X+6964681Y+1171781D01*
G37*
G36*
X+7599681Y-3273219D02*
X+7599681Y-3203781D01*
X+7648781Y-3154681D01*
X+7718219Y-3154681D01*
X+7767319Y-3203781D01*
X+7767319Y-3273219D01*
X+7718219Y-3322319D01*
X+7648781Y-3322319D01*
X+7599681Y-3273219D01*
G37*
G36*
X+4615181Y+1171781D02*
X+4615181Y+1241219D01*
X+4664281Y+1290319D01*
X+4733719Y+1290319D01*
X+4782819Y+1241219D01*
X+4782819Y+1171781D01*
X+4733719Y+1122681D01*
X+4664281Y+1122681D01*
X+4615181Y+1171781D01*
G37*
G36*
X+6393181Y-3209719D02*
X+6393181Y-3140281D01*
X+6442281Y-3091181D01*
X+6511719Y-3091181D01*
X+6560819Y-3140281D01*
X+6560819Y-3209719D01*
X+6511719Y-3258819D01*
X+6442281Y-3258819D01*
X+6393181Y-3209719D01*
G37*
G36*
X+5480050Y-2737866D02*
X+5480050Y-2711564D01*
X+5498649Y-2692965D01*
X+5524951Y-2692965D01*
X+5543550Y-2711564D01*
X+5543550Y-2737866D01*
X+5524951Y-2756465D01*
X+5498649Y-2756465D01*
X+5480050Y-2737866D01*
G37*
G36*
X+5353050Y-2517896D02*
X+5353050Y-2491594D01*
X+5371649Y-2472995D01*
X+5397951Y-2472995D01*
X+5416550Y-2491594D01*
X+5416550Y-2517896D01*
X+5397951Y-2536495D01*
X+5371649Y-2536495D01*
X+5353050Y-2517896D01*
G37*
G36*
X+7385050Y-2517896D02*
X+7385050Y-2491594D01*
X+7403649Y-2472995D01*
X+7429951Y-2472995D01*
X+7448550Y-2491594D01*
X+7448550Y-2517896D01*
X+7429951Y-2536495D01*
X+7403649Y-2536495D01*
X+7385050Y-2517896D01*
G37*
G36*
X+5226050Y-2297926D02*
X+5226050Y-2271624D01*
X+5244649Y-2253025D01*
X+5270951Y-2253025D01*
X+5289550Y-2271624D01*
X+5289550Y-2297926D01*
X+5270951Y-2316525D01*
X+5244649Y-2316525D01*
X+5226050Y-2297926D01*
G37*
G36*
X+5480050Y-2297926D02*
X+5480050Y-2271624D01*
X+5498649Y-2253025D01*
X+5524951Y-2253025D01*
X+5543550Y-2271624D01*
X+5543550Y-2297926D01*
X+5524951Y-2316525D01*
X+5498649Y-2316525D01*
X+5480050Y-2297926D01*
G37*
G36*
X+2940050Y+2101474D02*
X+2940050Y+2127776D01*
X+2958649Y+2146375D01*
X+2984951Y+2146375D01*
X+3003550Y+2127776D01*
X+3003550Y+2101474D01*
X+2984951Y+2082875D01*
X+2958649Y+2082875D01*
X+2940050Y+2101474D01*
G37*
G36*
X+3027681Y-1708349D02*
X+3027681Y-1638911D01*
X+3076781Y-1589811D01*
X+3146219Y-1589811D01*
X+3195319Y-1638911D01*
X+3195319Y-1708349D01*
X+3146219Y-1757449D01*
X+3076781Y-1757449D01*
X+3027681Y-1708349D01*
G37*
G36*
X+4043681Y-828469D02*
X+4043681Y-759031D01*
X+4092781Y-709931D01*
X+4162219Y-709931D01*
X+4211319Y-759031D01*
X+4211319Y-828469D01*
X+4162219Y-877569D01*
X+4092781Y-877569D01*
X+4043681Y-828469D01*
G37*
G36*
X+2329181Y-479219D02*
X+2329181Y-409781D01*
X+2378281Y-360681D01*
X+2447719Y-360681D01*
X+2496819Y-409781D01*
X+2496819Y-479219D01*
X+2447719Y-528319D01*
X+2378281Y-528319D01*
X+2329181Y-479219D01*
G37*
G36*
X+1821181Y-415719D02*
X+1821181Y-346281D01*
X+1870281Y-297181D01*
X+1939719Y-297181D01*
X+1988819Y-346281D01*
X+1988819Y-415719D01*
X+1939719Y-464819D01*
X+1870281Y-464819D01*
X+1821181Y-415719D01*
G37*
G36*
X+4919981Y+1140031D02*
X+4919981Y+1209469D01*
X+4969081Y+1258569D01*
X+5038519Y+1258569D01*
X+5087619Y+1209469D01*
X+5087619Y+1140031D01*
X+5038519Y+1090931D01*
X+4969081Y+1090931D01*
X+4919981Y+1140031D01*
G37*
G36*
X+4615181Y-161719D02*
X+4615181Y-92281D01*
X+4664281Y-43181D01*
X+4733719Y-43181D01*
X+4782819Y-92281D01*
X+4782819Y-161719D01*
X+4733719Y-210819D01*
X+4664281Y-210819D01*
X+4615181Y-161719D01*
G37*
G36*
X+4818381Y-4537958D02*
X+4818381Y-4479042D01*
X+4860042Y-4437381D01*
X+4918958Y-4437381D01*
X+4960619Y-4479042D01*
X+4960619Y-4537958D01*
X+4918958Y-4579619D01*
X+4860042Y-4579619D01*
X+4818381Y-4537958D01*
G37*
G36*
X+5643881Y-5426958D02*
X+5643881Y-5368042D01*
X+5685542Y-5326381D01*
X+5744458Y-5326381D01*
X+5786119Y-5368042D01*
X+5786119Y-5426958D01*
X+5744458Y-5468619D01*
X+5685542Y-5468619D01*
X+5643881Y-5426958D01*
G37*
G36*
X+5179534Y-6802900D02*
X+5179534Y-6743984D01*
X+5221195Y-6702323D01*
X+5280111Y-6702323D01*
X+5321772Y-6743984D01*
X+5321772Y-6802900D01*
X+5280111Y-6844561D01*
X+5221195Y-6844561D01*
X+5179534Y-6802900D01*
G37*
G36*
X+3440526Y-4730378D02*
X+3440526Y-4789294D01*
X+3398865Y-4830955D01*
X+3362944Y-4830955D01*
X+2824970Y-5368930D01*
X+2824970Y-5955968D01*
X+2608238Y-6172700D01*
X+2623819Y-6188281D01*
X+2623819Y-6257719D01*
X+2574719Y-6306819D01*
X+2505281Y-6306819D01*
X+2489700Y-6291238D01*
X+2014219Y-6766719D01*
X+2014219Y-6848681D01*
X+2052319Y-6886781D01*
X+2052319Y-6956219D01*
X+2003219Y-7005319D01*
X+1933781Y-7005319D01*
X+1884681Y-6956219D01*
X+1884681Y-6886781D01*
X+1922781Y-6848681D01*
X+1922781Y-6728845D01*
X+2456181Y-6195445D01*
X+2456181Y-6188281D01*
X+2505281Y-6139181D01*
X+2512445Y-6139181D01*
X+2733532Y-5918094D01*
X+2733532Y-5331056D01*
X+3298288Y-4766299D01*
X+3298288Y-4730378D01*
X+3339949Y-4688717D01*
X+3398865Y-4688717D01*
X+3440526Y-4730378D01*
G37*
G36*
X+2560415Y-5934281D02*
X+2560415Y-6003719D01*
X+2511315Y-6052819D01*
X+2441877Y-6052819D01*
X+2392777Y-6003719D01*
X+2392777Y-5934281D01*
X+2441877Y-5885181D01*
X+2511315Y-5885181D01*
X+2560415Y-5934281D01*
G37*
G36*
X+5256194Y-4076699D02*
X+8144467Y-4076699D01*
X+8365787Y-4298019D01*
X+8365787Y-4996181D01*
X+8416719Y-4996181D01*
X+8465819Y-5045281D01*
X+8465819Y-5114719D01*
X+8416719Y-5163819D01*
X+8347281Y-5163819D01*
X+8300719Y-5117257D01*
X+8300719Y-5188063D01*
X+8362837Y-5250181D01*
X+8416719Y-5250181D01*
X+8465819Y-5299281D01*
X+8465819Y-5368719D01*
X+8416719Y-5417819D01*
X+8347281Y-5417819D01*
X+8298181Y-5368719D01*
X+8298181Y-5314837D01*
X+8237219Y-5253875D01*
X+8237219Y-5473226D01*
X+8306274Y-5542281D01*
X+8309181Y-5542281D01*
X+8347281Y-5504181D01*
X+8416719Y-5504181D01*
X+8465819Y-5553281D01*
X+8465819Y-5622719D01*
X+8416719Y-5671819D01*
X+8347281Y-5671819D01*
X+8309181Y-5633719D01*
X+8268400Y-5633719D01*
X+8145781Y-5511100D01*
X+8145781Y-4463937D01*
X+8032235Y-4350391D01*
X+5278562Y-4350391D01*
X+5253162Y-4375791D01*
X+5194246Y-4375791D01*
X+5152585Y-4334130D01*
X+5152585Y-4287868D01*
X+5107864Y-4287868D01*
X+5066203Y-4246207D01*
X+5066203Y-4187291D01*
X+5107864Y-4145630D01*
X+5130217Y-4145630D01*
X+5130217Y-4092960D01*
X+5171878Y-4051299D01*
X+5230794Y-4051299D01*
X+5256194Y-4076699D01*
G37*
G36*
X+4020819Y-3076781D02*
X+4020819Y-3146219D01*
X+3982719Y-3184319D01*
X+3982719Y-4844937D01*
X+3982718Y-5016500D01*
X+3982719Y-5188063D01*
X+3982719Y-5477625D01*
X+4144767Y-5315577D01*
X+4144767Y-4050581D01*
X+4106667Y-4012481D01*
X+4106667Y-3943043D01*
X+4155767Y-3893943D01*
X+4225205Y-3893943D01*
X+4234181Y-3902919D01*
X+4234181Y-3902281D01*
X+4283281Y-3853181D01*
X+4352719Y-3853181D01*
X+4401819Y-3902281D01*
X+4401819Y-3971719D01*
X+4352719Y-4020819D01*
X+4283281Y-4020819D01*
X+4274305Y-4011843D01*
X+4274305Y-4012481D01*
X+4236205Y-4050581D01*
X+4236205Y-5353451D01*
X+2860285Y-6729371D01*
X+2860285Y-6819242D01*
X+2868877Y-6827834D01*
X+2868877Y-6777344D01*
X+2910538Y-6735683D01*
X+2969454Y-6735683D01*
X+3011115Y-6777344D01*
X+3011115Y-6813265D01*
X+3109995Y-6912145D01*
X+3183613Y-6912145D01*
X+3142938Y-6871470D01*
X+3142938Y-6802032D01*
X+3154645Y-6790325D01*
X+3154645Y-6699241D01*
X+3317638Y-6536248D01*
X+3368596Y-6536248D01*
X+5419893Y-4484951D01*
X+5433862Y-4484951D01*
X+5459262Y-4459551D01*
X+5518178Y-4459551D01*
X+5559839Y-4501212D01*
X+5559839Y-4560128D01*
X+5518178Y-4601789D01*
X+5459262Y-4601789D01*
X+5445814Y-4588342D01*
X+4999875Y-5034281D01*
X+6204063Y-5034281D01*
X+6723381Y-4514963D01*
X+6723381Y-4479042D01*
X+6765042Y-4437381D01*
X+6823958Y-4437381D01*
X+6865619Y-4479042D01*
X+6865619Y-4537958D01*
X+6823958Y-4579619D01*
X+6788037Y-4579619D01*
X+6241937Y-5125719D01*
X+5015587Y-5125719D01*
X+3414071Y-6727235D01*
X+3414071Y-6781117D01*
X+3364971Y-6830217D01*
X+3310576Y-6830217D01*
X+3310576Y-6871470D01*
X+3269901Y-6912145D01*
X+4637881Y-6912145D01*
X+4946668Y-6603358D01*
X+5214820Y-6603358D01*
X+5186681Y-6575219D01*
X+5186681Y-6505781D01*
X+5235781Y-6456681D01*
X+5305219Y-6456681D01*
X+5354319Y-6505781D01*
X+5354319Y-6575219D01*
X+5326180Y-6603358D01*
X+5841486Y-6603358D01*
X+7885431Y-4559413D01*
X+7885431Y-4505531D01*
X+7934531Y-4456431D01*
X+8003969Y-4456431D01*
X+8053069Y-4505531D01*
X+8053069Y-4574969D01*
X+8003969Y-4624069D01*
X+7950087Y-4624069D01*
X+5879360Y-6694796D01*
X+4984542Y-6694796D01*
X+4675755Y-7003583D01*
X+3614333Y-7003583D01*
X+3614333Y-7059247D01*
X+5801161Y-7059247D01*
X+6746627Y-6113781D01*
X+7384937Y-6113781D01*
X+7461250Y-6113782D01*
X+7537563Y-6113781D01*
X+8269154Y-6113781D01*
X+8409638Y-5973297D01*
X+8409638Y-5919415D01*
X+8458738Y-5870315D01*
X+8528176Y-5870315D01*
X+8577276Y-5919415D01*
X+8577276Y-5988853D01*
X+8553948Y-6012181D01*
X+8607219Y-6012181D01*
X+8656319Y-6061281D01*
X+8656319Y-6130719D01*
X+8607219Y-6179819D01*
X+8553337Y-6179819D01*
X+8464437Y-6268719D01*
X+6830871Y-6268719D01*
X+5877815Y-7221775D01*
X+4696074Y-7221775D01*
X+4715114Y-7240815D01*
X+4715114Y-7310253D01*
X+4666014Y-7359353D01*
X+4596576Y-7359353D01*
X+4547476Y-7310253D01*
X+4547476Y-7240815D01*
X+4566516Y-7221775D01*
X+3883037Y-7221775D01*
X+3896391Y-7235129D01*
X+3896391Y-7304567D01*
X+3847291Y-7353667D01*
X+3777853Y-7353667D01*
X+3728753Y-7304567D01*
X+3728753Y-7235129D01*
X+3742107Y-7221775D01*
X+3623138Y-7221775D01*
X+3654482Y-7253119D01*
X+3654482Y-7322557D01*
X+3605382Y-7371657D01*
X+3535944Y-7371657D01*
X+3486844Y-7322557D01*
X+3486844Y-7253119D01*
X+3518188Y-7221775D01*
X+3080778Y-7221775D01*
X+3046160Y-7256393D01*
X+669781Y-7256393D01*
X+301264Y-7256392D01*
X+274319Y-7283337D01*
X+274319Y-7337219D01*
X+225219Y-7386319D01*
X+155781Y-7386319D01*
X+106681Y-7337219D01*
X+106681Y-7267781D01*
X+155781Y-7218681D01*
X+209663Y-7218681D01*
X+263388Y-7164956D01*
X+282326Y-7164956D01*
X+669781Y-7164955D01*
X+2336572Y-7164955D01*
X+2336572Y-7101468D01*
X+2298472Y-7063368D01*
X+2298472Y-6993930D01*
X+2347572Y-6944830D01*
X+2417010Y-6944830D01*
X+2466110Y-6993930D01*
X+2466110Y-7063368D01*
X+2428010Y-7101468D01*
X+2428010Y-7164955D01*
X+2537917Y-7164955D01*
X+2519681Y-7146719D01*
X+2519681Y-7077281D01*
X+2568781Y-7028181D01*
X+2638219Y-7028181D01*
X+2687319Y-7077281D01*
X+2687319Y-7146719D01*
X+2669083Y-7164955D01*
X+2901818Y-7164955D01*
X+2902063Y-7164710D01*
X+2939937Y-7164710D01*
X+2940182Y-7164955D01*
X+3008286Y-7164955D01*
X+3022556Y-7150685D01*
X+2831529Y-7150685D01*
X+2622663Y-6941819D01*
X+2568781Y-6941819D01*
X+2519681Y-6892719D01*
X+2519681Y-6823281D01*
X+2568781Y-6774181D01*
X+2638219Y-6774181D01*
X+2687319Y-6823281D01*
X+2687319Y-6877163D01*
X+2869403Y-7059247D01*
X+2970978Y-7059247D01*
X+2768847Y-6857116D01*
X+2768847Y-6691497D01*
X+2781429Y-6678915D01*
X+2336390Y-6678915D01*
X+2246619Y-6768686D01*
X+2246619Y-6822568D01*
X+2197519Y-6871668D01*
X+2128081Y-6871668D01*
X+2078981Y-6822568D01*
X+2078981Y-6753130D01*
X+2128081Y-6704030D01*
X+2181963Y-6704030D01*
X+2298516Y-6587477D01*
X+2753682Y-6587477D01*
X+3891281Y-5449878D01*
X+3891281Y-5188063D01*
X+3891282Y-5016500D01*
X+3891281Y-4826000D01*
X+3891281Y-3184319D01*
X+3853181Y-3146219D01*
X+3853181Y-3076781D01*
X+3902281Y-3027681D01*
X+3971719Y-3027681D01*
X+4020819Y-3076781D01*
G37*
G36*
X+853197Y-5197620D02*
X+866699Y-5197620D01*
X+1238471Y-5569392D01*
X+1806835Y-5569392D01*
X+1950719Y-5713276D01*
X+1950719Y-6467681D01*
X+1988819Y-6505781D01*
X+1988819Y-6575219D01*
X+1939719Y-6624319D01*
X+1870281Y-6624319D01*
X+1821181Y-6575219D01*
X+1821181Y-6505781D01*
X+1859281Y-6467681D01*
X+1859281Y-5751150D01*
X+1768961Y-5660830D01*
X+1200597Y-5660830D01*
X+841011Y-5301244D01*
X+827797Y-5314458D01*
X+768881Y-5314458D01*
X+727220Y-5272797D01*
X+727220Y-5213881D01*
X+768881Y-5172220D01*
X+827797Y-5172220D01*
X+853197Y-5197620D01*
G37*
G36*
X+5019158Y-4736000D02*
X+5019158Y-4677084D01*
X+5060819Y-4635423D01*
X+5119735Y-4635423D01*
X+5161396Y-4677084D01*
X+5161396Y-4736000D01*
X+5119735Y-4777661D01*
X+5060819Y-4777661D01*
X+5019158Y-4736000D01*
G37*
G36*
X-210819Y-4987719D02*
X-210819Y-4918281D01*
X-161719Y-4869181D01*
X-92281Y-4869181D01*
X-43181Y-4918281D01*
X-43181Y-4987719D01*
X-92281Y-5036819D01*
X-161719Y-5036819D01*
X-210819Y-4987719D01*
G37*
G36*
X+1290319Y-4029281D02*
X+1290319Y-4098719D01*
X+1241219Y-4147819D01*
X+1171781Y-4147819D01*
X+1159081Y-4135119D01*
X+872919Y-4135119D01*
X+860219Y-4147819D01*
X+790781Y-4147819D01*
X+741681Y-4098719D01*
X+741681Y-4029281D01*
X+790781Y-3980181D01*
X+860219Y-3980181D01*
X+872919Y-3992881D01*
X+1159081Y-3992881D01*
X+1171781Y-3980181D01*
X+1241219Y-3980181D01*
X+1290319Y-4029281D01*
G37*
G36*
X+25400Y-3508282D02*
X+25400Y-3476718D01*
X+47718Y-3454400D01*
X+79282Y-3454400D01*
X+101600Y-3476718D01*
X+101600Y-3508282D01*
X+79282Y-3530600D01*
X+47718Y-3530600D01*
X+25400Y-3508282D01*
G37*
G36*
X+1122681Y-7400719D02*
X+1122681Y-7331281D01*
X+1171781Y-7282181D01*
X+1241219Y-7282181D01*
X+1290319Y-7331281D01*
X+1290319Y-7400719D01*
X+1241219Y-7449819D01*
X+1171781Y-7449819D01*
X+1122681Y-7400719D01*
G37*
G36*
X+3662681Y-3971719D02*
X+3662681Y-3902281D01*
X+3711781Y-3853181D01*
X+3781219Y-3853181D01*
X+3830319Y-3902281D01*
X+3830319Y-3971719D01*
X+3781219Y-4020819D01*
X+3711781Y-4020819D01*
X+3662681Y-3971719D01*
G37*
G36*
X+3662681Y-4289219D02*
X+3662681Y-4219781D01*
X+3711781Y-4170681D01*
X+3781219Y-4170681D01*
X+3830319Y-4219781D01*
X+3830319Y-4289219D01*
X+3781219Y-4338319D01*
X+3711781Y-4338319D01*
X+3662681Y-4289219D01*
G37*
G36*
X+4713681Y-4163107D02*
X+4713681Y-4093669D01*
X+4762781Y-4044569D01*
X+4832219Y-4044569D01*
X+4881319Y-4093669D01*
X+4881319Y-4163107D01*
X+4832219Y-4212207D01*
X+4762781Y-4212207D01*
X+4713681Y-4163107D01*
G37*
G36*
X+4615181Y-1241219D02*
X+4615181Y-1171781D01*
X+4664281Y-1122681D01*
X+4733719Y-1122681D01*
X+4782819Y-1171781D01*
X+4782819Y-1241219D01*
X+4733719Y-1290319D01*
X+4664281Y-1290319D01*
X+4615181Y-1241219D01*
G37*
G36*
X+7224354Y-6817605D02*
X+7224354Y-6791303D01*
X+7242953Y-6772704D01*
X+7269255Y-6772704D01*
X+7287854Y-6791303D01*
X+7287854Y-6817605D01*
X+7269255Y-6836204D01*
X+7242953Y-6836204D01*
X+7224354Y-6817605D01*
G37*
G36*
X+6583681Y-6829219D02*
X+6583681Y-6759781D01*
X+6632781Y-6710681D01*
X+6702219Y-6710681D01*
X+6751319Y-6759781D01*
X+6751319Y-6829219D01*
X+6702219Y-6878319D01*
X+6632781Y-6878319D01*
X+6583681Y-6829219D01*
G37*
G36*
X+6382952Y-5503905D02*
X+6382952Y-5434467D01*
X+6432052Y-5385367D01*
X+6501490Y-5385367D01*
X+6550590Y-5434467D01*
X+6550590Y-5503905D01*
X+6501490Y-5553005D01*
X+6432052Y-5553005D01*
X+6382952Y-5503905D01*
G37*
G36*
X+6202681Y-5241719D02*
X+6202681Y-5172281D01*
X+6251781Y-5123181D01*
X+6321219Y-5123181D01*
X+6370319Y-5172281D01*
X+6370319Y-5241719D01*
X+6321219Y-5290819D01*
X+6251781Y-5290819D01*
X+6202681Y-5241719D01*
G37*
G36*
X+5928488Y-6093328D02*
X+5928488Y-6023890D01*
X+5977588Y-5974790D01*
X+6047026Y-5974790D01*
X+6096126Y-6023890D01*
X+6096126Y-6093328D01*
X+6047026Y-6142428D01*
X+5977588Y-6142428D01*
X+5928488Y-6093328D01*
G37*
G36*
X+8810165Y-4570489D02*
X+8810165Y-4501051D01*
X+8859265Y-4451951D01*
X+8928703Y-4451951D01*
X+8977803Y-4501051D01*
X+8977803Y-4570489D01*
X+8928703Y-4619589D01*
X+8859265Y-4619589D01*
X+8810165Y-4570489D01*
G37*
G36*
X+1186181Y-5368719D02*
X+1186181Y-5299281D01*
X+1235281Y-5250181D01*
X+1304719Y-5250181D01*
X+1353819Y-5299281D01*
X+1353819Y-5368719D01*
X+1304719Y-5417819D01*
X+1235281Y-5417819D01*
X+1186181Y-5368719D01*
G37*
G36*
X+693926Y-5766260D02*
X+693926Y-5696822D01*
X+743026Y-5647722D01*
X+812464Y-5647722D01*
X+861564Y-5696822D01*
X+861564Y-5766260D01*
X+812464Y-5815360D01*
X+743026Y-5815360D01*
X+693926Y-5766260D01*
G37*
G36*
X+2456181Y-6448219D02*
X+2456181Y-6378781D01*
X+2505281Y-6329681D01*
X+2574719Y-6329681D01*
X+2623819Y-6378781D01*
X+2623819Y-6448219D01*
X+2574719Y-6497319D01*
X+2505281Y-6497319D01*
X+2456181Y-6448219D01*
G37*
G36*
X+2329181Y-6829219D02*
X+2329181Y-6759781D01*
X+2378281Y-6710681D01*
X+2447719Y-6710681D01*
X+2496819Y-6759781D01*
X+2496819Y-6829219D01*
X+2447719Y-6878319D01*
X+2378281Y-6878319D01*
X+2329181Y-6829219D01*
G37*
G36*
X+5377181Y-6448219D02*
X+5377181Y-6378781D01*
X+5426281Y-6329681D01*
X+5495719Y-6329681D01*
X+5544819Y-6378781D01*
X+5544819Y-6448219D01*
X+5495719Y-6497319D01*
X+5426281Y-6497319D01*
X+5377181Y-6448219D01*
G37*
G36*
X+4916773Y-6931859D02*
X+4916773Y-6862421D01*
X+4965873Y-6813321D01*
X+5035311Y-6813321D01*
X+5084411Y-6862421D01*
X+5084411Y-6931859D01*
X+5035311Y-6980959D01*
X+4965873Y-6980959D01*
X+4916773Y-6931859D01*
G37*
G36*
X+1224327Y-5992539D02*
X+1224327Y-5923101D01*
X+1273427Y-5874001D01*
X+1342865Y-5874001D01*
X+1391965Y-5923101D01*
X+1391965Y-5992539D01*
X+1342865Y-6041639D01*
X+1273427Y-6041639D01*
X+1224327Y-5992539D01*
G37*
G36*
X+5742760Y-4830614D02*
X+5742760Y-4761176D01*
X+5791860Y-4712076D01*
X+5861298Y-4712076D01*
X+5910398Y-4761176D01*
X+5910398Y-4830614D01*
X+5861298Y-4879714D01*
X+5791860Y-4879714D01*
X+5742760Y-4830614D01*
G37*
G36*
X+1839171Y-3996797D02*
X+1839171Y-3970495D01*
X+1857770Y-3951896D01*
X+1884072Y-3951896D01*
X+1902671Y-3970495D01*
X+1902671Y-3996797D01*
X+1884072Y-4015396D01*
X+1857770Y-4015396D01*
X+1839171Y-3996797D01*
G37*
G36*
X+2138681Y-4035219D02*
X+2138681Y-3965781D01*
X+2187781Y-3916681D01*
X+2257219Y-3916681D01*
X+2306319Y-3965781D01*
X+2306319Y-4035219D01*
X+2257219Y-4084319D01*
X+2187781Y-4084319D01*
X+2138681Y-4035219D01*
G37*
G36*
X+2069520Y-2183322D02*
X+2069520Y-2237204D01*
X+2522219Y-2689903D01*
X+2522219Y-4336937D01*
X+2268219Y-4590937D01*
X+2268219Y-6213681D01*
X+2306319Y-6251781D01*
X+2306319Y-6321219D01*
X+2257219Y-6370319D01*
X+2187781Y-6370319D01*
X+2138681Y-6321219D01*
X+2138681Y-6251781D01*
X+2176781Y-6213681D01*
X+2176781Y-4553063D01*
X+2430781Y-4299063D01*
X+2430781Y-2727777D01*
X+2004864Y-2301860D01*
X+1950982Y-2301860D01*
X+1901882Y-2252760D01*
X+1901882Y-2183322D01*
X+1950982Y-2134222D01*
X+2020420Y-2134222D01*
X+2069520Y-2183322D01*
G37*
G36*
X+1948181Y-3971719D02*
X+1948181Y-3902281D01*
X+1997281Y-3853181D01*
X+2066719Y-3853181D01*
X+2115819Y-3902281D01*
X+2115819Y-3971719D01*
X+2066719Y-4020819D01*
X+1997281Y-4020819D01*
X+1948181Y-3971719D01*
G37*
G36*
X+7161095Y-6019404D02*
X+7161095Y-5949966D01*
X+7210195Y-5900866D01*
X+7279633Y-5900866D01*
X+7328733Y-5949966D01*
X+7328733Y-6019404D01*
X+7279633Y-6068504D01*
X+7210195Y-6068504D01*
X+7161095Y-6019404D01*
G37*
G36*
X+3480587Y-4669252D02*
X+3480587Y-4610336D01*
X+3522248Y-4568675D01*
X+3581164Y-4568675D01*
X+3622825Y-4610336D01*
X+3622825Y-4669252D01*
X+3581164Y-4710913D01*
X+3522248Y-4710913D01*
X+3480587Y-4669252D01*
G37*
G36*
X+527050Y-3397776D02*
X+527050Y-3371474D01*
X+545649Y-3352875D01*
X+571951Y-3352875D01*
X+590550Y-3371474D01*
X+590550Y-3397776D01*
X+571951Y-3416375D01*
X+545649Y-3416375D01*
X+527050Y-3397776D01*
G37*
G36*
X+781050Y-3397776D02*
X+781050Y-3371474D01*
X+799649Y-3352875D01*
X+825951Y-3352875D01*
X+844550Y-3371474D01*
X+844550Y-3397776D01*
X+825951Y-3416375D01*
X+799649Y-3416375D01*
X+781050Y-3397776D01*
G37*
G36*
X+1035050Y-3397776D02*
X+1035050Y-3371474D01*
X+1053649Y-3352875D01*
X+1079951Y-3352875D01*
X+1098550Y-3371474D01*
X+1098550Y-3397776D01*
X+1079951Y-3416375D01*
X+1053649Y-3416375D01*
X+1035050Y-3397776D01*
G37*
G36*
X+1289050Y-3397776D02*
X+1289050Y-3371474D01*
X+1307649Y-3352875D01*
X+1333951Y-3352875D01*
X+1352550Y-3371474D01*
X+1352550Y-3397776D01*
X+1333951Y-3416375D01*
X+1307649Y-3416375D01*
X+1289050Y-3397776D01*
G37*
G36*
X+1543050Y-3397776D02*
X+1543050Y-3371474D01*
X+1561649Y-3352875D01*
X+1587951Y-3352875D01*
X+1606550Y-3371474D01*
X+1606550Y-3397776D01*
X+1587951Y-3416375D01*
X+1561649Y-3416375D01*
X+1543050Y-3397776D01*
G37*
G36*
X+1797050Y-3397776D02*
X+1797050Y-3371474D01*
X+1815649Y-3352875D01*
X+1841951Y-3352875D01*
X+1860550Y-3371474D01*
X+1860550Y-3397776D01*
X+1841951Y-3416375D01*
X+1815649Y-3416375D01*
X+1797050Y-3397776D01*
G37*
G36*
X+2051050Y-3397776D02*
X+2051050Y-3371474D01*
X+2069649Y-3352875D01*
X+2095951Y-3352875D01*
X+2114550Y-3371474D01*
X+2114550Y-3397776D01*
X+2095951Y-3416375D01*
X+2069649Y-3416375D01*
X+2051050Y-3397776D01*
G37*
G36*
X+146050Y-3177806D02*
X+146050Y-3151504D01*
X+164649Y-3132905D01*
X+190951Y-3132905D01*
X+209550Y-3151504D01*
X+209550Y-3177806D01*
X+190951Y-3196405D01*
X+164649Y-3196405D01*
X+146050Y-3177806D01*
G37*
G36*
X+781050Y-2957836D02*
X+781050Y-2931534D01*
X+799649Y-2912935D01*
X+825951Y-2912935D01*
X+844550Y-2931534D01*
X+844550Y-2957836D01*
X+825951Y-2976435D01*
X+799649Y-2976435D01*
X+781050Y-2957836D01*
G37*
G36*
X+1035050Y-2957836D02*
X+1035050Y-2931534D01*
X+1053649Y-2912935D01*
X+1079951Y-2912935D01*
X+1098550Y-2931534D01*
X+1098550Y-2957836D01*
X+1079951Y-2976435D01*
X+1053649Y-2976435D01*
X+1035050Y-2957836D01*
G37*
G36*
X+1289050Y-2957836D02*
X+1289050Y-2931534D01*
X+1307649Y-2912935D01*
X+1333951Y-2912935D01*
X+1352550Y-2931534D01*
X+1352550Y-2957836D01*
X+1333951Y-2976435D01*
X+1307649Y-2976435D01*
X+1289050Y-2957836D01*
G37*
G36*
X+1797050Y-2957836D02*
X+1797050Y-2931534D01*
X+1815649Y-2912935D01*
X+1841951Y-2912935D01*
X+1860550Y-2931534D01*
X+1860550Y-2957836D01*
X+1841951Y-2976435D01*
X+1815649Y-2976435D01*
X+1797050Y-2957836D01*
G37*
G36*
X+146050Y-2737866D02*
X+146050Y-2711564D01*
X+164649Y-2692965D01*
X+190951Y-2692965D01*
X+209550Y-2711564D01*
X+209550Y-2737866D01*
X+190951Y-2756465D01*
X+164649Y-2756465D01*
X+146050Y-2737866D01*
G37*
G36*
X+1924050Y-2737866D02*
X+1924050Y-2711564D01*
X+1942649Y-2692965D01*
X+1968951Y-2692965D01*
X+1987550Y-2711564D01*
X+1987550Y-2737866D01*
X+1968951Y-2756465D01*
X+1942649Y-2756465D01*
X+1924050Y-2737866D01*
G37*
G36*
X+19050Y-2517896D02*
X+19050Y-2491594D01*
X+37649Y-2472995D01*
X+63951Y-2472995D01*
X+82550Y-2491594D01*
X+82550Y-2517896D01*
X+63951Y-2536495D01*
X+37649Y-2536495D01*
X+19050Y-2517896D01*
G37*
G36*
X+273050Y-2517896D02*
X+273050Y-2491594D01*
X+291649Y-2472995D01*
X+317951Y-2472995D01*
X+336550Y-2491594D01*
X+336550Y-2517896D01*
X+317951Y-2536495D01*
X+291649Y-2536495D01*
X+273050Y-2517896D01*
G37*
G36*
X+2051050Y-2517896D02*
X+2051050Y-2491594D01*
X+2069649Y-2472995D01*
X+2095951Y-2472995D01*
X+2114550Y-2491594D01*
X+2114550Y-2517896D01*
X+2095951Y-2536495D01*
X+2069649Y-2536495D01*
X+2051050Y-2517896D01*
G37*
G36*
X+19050Y-2077956D02*
X+19050Y-2051654D01*
X+37649Y-2033055D01*
X+63951Y-2033055D01*
X+82550Y-2051654D01*
X+82550Y-2077956D01*
X+63951Y-2096555D01*
X+37649Y-2096555D01*
X+19050Y-2077956D01*
G37*
G36*
X+273050Y-2077956D02*
X+273050Y-2051654D01*
X+291649Y-2033055D01*
X+317951Y-2033055D01*
X+336550Y-2051654D01*
X+336550Y-2077956D01*
X+317951Y-2096555D01*
X+291649Y-2096555D01*
X+273050Y-2077956D01*
G37*
G36*
X+146050Y-1857986D02*
X+146050Y-1831684D01*
X+164649Y-1813085D01*
X+190951Y-1813085D01*
X+209550Y-1831684D01*
X+209550Y-1857986D01*
X+190951Y-1876585D01*
X+164649Y-1876585D01*
X+146050Y-1857986D01*
G37*
G36*
X+146050Y-1418046D02*
X+146050Y-1391744D01*
X+164649Y-1373145D01*
X+190951Y-1373145D01*
X+209550Y-1391744D01*
X+209550Y-1418046D01*
X+190951Y-1436645D01*
X+164649Y-1436645D01*
X+146050Y-1418046D01*
G37*
G36*
X+19050Y-758136D02*
X+19050Y-731834D01*
X+37649Y-713235D01*
X+63951Y-713235D01*
X+82550Y-731834D01*
X+82550Y-758136D01*
X+63951Y-776735D01*
X+37649Y-776735D01*
X+19050Y-758136D01*
G37*
G36*
X+273050Y-758136D02*
X+273050Y-731834D01*
X+291649Y-713235D01*
X+317951Y-713235D01*
X+336550Y-731834D01*
X+336550Y-758136D01*
X+317951Y-776735D01*
X+291649Y-776735D01*
X+273050Y-758136D01*
G37*
G36*
X+527050Y-758136D02*
X+527050Y-731834D01*
X+545649Y-713235D01*
X+571951Y-713235D01*
X+590550Y-731834D01*
X+590550Y-758136D01*
X+571951Y-776735D01*
X+545649Y-776735D01*
X+527050Y-758136D01*
G37*
G36*
X+146050Y-538166D02*
X+146050Y-511864D01*
X+164649Y-493265D01*
X+190951Y-493265D01*
X+209550Y-511864D01*
X+209550Y-538166D01*
X+190951Y-556765D01*
X+164649Y-556765D01*
X+146050Y-538166D01*
G37*
G36*
X+654050Y-538166D02*
X+654050Y-511864D01*
X+672649Y-493265D01*
X+698951Y-493265D01*
X+717550Y-511864D01*
X+717550Y-538166D01*
X+698951Y-556765D01*
X+672649Y-556765D01*
X+654050Y-538166D01*
G37*
G36*
X+146050Y-98226D02*
X+146050Y-71924D01*
X+164649Y-53325D01*
X+190951Y-53325D01*
X+209550Y-71924D01*
X+209550Y-98226D01*
X+190951Y-116825D01*
X+164649Y-116825D01*
X+146050Y-98226D01*
G37*
G36*
X+654050Y-98226D02*
X+654050Y-71924D01*
X+672649Y-53325D01*
X+698951Y-53325D01*
X+717550Y-71924D01*
X+717550Y-98226D01*
X+698951Y-116825D01*
X+672649Y-116825D01*
X+654050Y-98226D01*
G37*
G36*
X+19050Y+121744D02*
X+19050Y+148046D01*
X+37649Y+166645D01*
X+63951Y+166645D01*
X+82550Y+148046D01*
X+82550Y+121744D01*
X+63951Y+103145D01*
X+37649Y+103145D01*
X+19050Y+121744D01*
G37*
G36*
X+273050Y+121744D02*
X+273050Y+148046D01*
X+291649Y+166645D01*
X+317951Y+166645D01*
X+336550Y+148046D01*
X+336550Y+121744D01*
X+317951Y+103145D01*
X+291649Y+103145D01*
X+273050Y+121744D01*
G37*
G36*
X+527050Y+121744D02*
X+527050Y+148046D01*
X+545649Y+166645D01*
X+571951Y+166645D01*
X+590550Y+148046D01*
X+590550Y+121744D01*
X+571951Y+103145D01*
X+545649Y+103145D01*
X+527050Y+121744D01*
G37*
G36*
X+781050Y+121744D02*
X+781050Y+148046D01*
X+799649Y+166645D01*
X+825951Y+166645D01*
X+844550Y+148046D01*
X+844550Y+121744D01*
X+825951Y+103145D01*
X+799649Y+103145D01*
X+781050Y+121744D01*
G37*
G36*
X+146050Y+341714D02*
X+146050Y+368016D01*
X+164649Y+386615D01*
X+190951Y+386615D01*
X+209550Y+368016D01*
X+209550Y+341714D01*
X+190951Y+323115D01*
X+164649Y+323115D01*
X+146050Y+341714D01*
G37*
G36*
X+654050Y+341714D02*
X+654050Y+368016D01*
X+672649Y+386615D01*
X+698951Y+386615D01*
X+717550Y+368016D01*
X+717550Y+341714D01*
X+698951Y+323115D01*
X+672649Y+323115D01*
X+654050Y+341714D01*
G37*
G36*
X+19050Y+561684D02*
X+19050Y+587986D01*
X+37649Y+606585D01*
X+63951Y+606585D01*
X+82550Y+587986D01*
X+82550Y+561684D01*
X+63951Y+543085D01*
X+37649Y+543085D01*
X+19050Y+561684D01*
G37*
G36*
X+273050Y+561684D02*
X+273050Y+587986D01*
X+291649Y+606585D01*
X+317951Y+606585D01*
X+336550Y+587986D01*
X+336550Y+561684D01*
X+317951Y+543085D01*
X+291649Y+543085D01*
X+273050Y+561684D01*
G37*
G36*
X+527050Y+561684D02*
X+527050Y+587986D01*
X+545649Y+606585D01*
X+571951Y+606585D01*
X+590550Y+587986D01*
X+590550Y+561684D01*
X+571951Y+543085D01*
X+545649Y+543085D01*
X+527050Y+561684D01*
G37*
G36*
X+781050Y+561684D02*
X+781050Y+587986D01*
X+799649Y+606585D01*
X+825951Y+606585D01*
X+844550Y+587986D01*
X+844550Y+561684D01*
X+825951Y+543085D01*
X+799649Y+543085D01*
X+781050Y+561684D01*
G37*
G36*
X+146050Y+781654D02*
X+146050Y+807956D01*
X+164649Y+826555D01*
X+190951Y+826555D01*
X+209550Y+807956D01*
X+209550Y+781654D01*
X+190951Y+763055D01*
X+164649Y+763055D01*
X+146050Y+781654D01*
G37*
G36*
X+654050Y+781654D02*
X+654050Y+807956D01*
X+672649Y+826555D01*
X+698951Y+826555D01*
X+717550Y+807956D01*
X+717550Y+781654D01*
X+698951Y+763055D01*
X+672649Y+763055D01*
X+654050Y+781654D01*
G37*
G36*
X+19050Y+1001624D02*
X+19050Y+1027926D01*
X+37649Y+1046525D01*
X+63951Y+1046525D01*
X+82550Y+1027926D01*
X+82550Y+1001624D01*
X+63951Y+983025D01*
X+37649Y+983025D01*
X+19050Y+1001624D01*
G37*
G36*
X+273050Y+1001624D02*
X+273050Y+1027926D01*
X+291649Y+1046525D01*
X+317951Y+1046525D01*
X+336550Y+1027926D01*
X+336550Y+1001624D01*
X+317951Y+983025D01*
X+291649Y+983025D01*
X+273050Y+1001624D01*
G37*
G36*
X+527050Y+1001624D02*
X+527050Y+1027926D01*
X+545649Y+1046525D01*
X+571951Y+1046525D01*
X+590550Y+1027926D01*
X+590550Y+1001624D01*
X+571951Y+983025D01*
X+545649Y+983025D01*
X+527050Y+1001624D01*
G37*
G36*
X+781050Y+1001624D02*
X+781050Y+1027926D01*
X+799649Y+1046525D01*
X+825951Y+1046525D01*
X+844550Y+1027926D01*
X+844550Y+1001624D01*
X+825951Y+983025D01*
X+799649Y+983025D01*
X+781050Y+1001624D01*
G37*
G36*
X+146050Y+1221594D02*
X+146050Y+1247896D01*
X+164649Y+1266495D01*
X+190951Y+1266495D01*
X+209550Y+1247896D01*
X+209550Y+1221594D01*
X+190951Y+1202995D01*
X+164649Y+1202995D01*
X+146050Y+1221594D01*
G37*
G36*
X+654050Y+1221594D02*
X+654050Y+1247896D01*
X+672649Y+1266495D01*
X+698951Y+1266495D01*
X+717550Y+1247896D01*
X+717550Y+1221594D01*
X+698951Y+1202995D01*
X+672649Y+1202995D01*
X+654050Y+1221594D01*
G37*
G36*
X+19050Y+1441564D02*
X+19050Y+1467866D01*
X+37649Y+1486465D01*
X+63951Y+1486465D01*
X+82550Y+1467866D01*
X+82550Y+1441564D01*
X+63951Y+1422965D01*
X+37649Y+1422965D01*
X+19050Y+1441564D01*
G37*
G36*
X+273050Y+1441564D02*
X+273050Y+1467866D01*
X+291649Y+1486465D01*
X+317951Y+1486465D01*
X+336550Y+1467866D01*
X+336550Y+1441564D01*
X+317951Y+1422965D01*
X+291649Y+1422965D01*
X+273050Y+1441564D01*
G37*
G36*
X+527050Y+1441564D02*
X+527050Y+1467866D01*
X+545649Y+1486465D01*
X+571951Y+1486465D01*
X+590550Y+1467866D01*
X+590550Y+1441564D01*
X+571951Y+1422965D01*
X+545649Y+1422965D01*
X+527050Y+1441564D01*
G37*
G36*
X+781050Y+1441564D02*
X+781050Y+1467866D01*
X+799649Y+1486465D01*
X+825951Y+1486465D01*
X+844550Y+1467866D01*
X+844550Y+1441564D01*
X+825951Y+1422965D01*
X+799649Y+1422965D01*
X+781050Y+1441564D01*
G37*
G36*
X+654050Y+1661534D02*
X+654050Y+1687836D01*
X+672649Y+1706435D01*
X+698951Y+1706435D01*
X+717550Y+1687836D01*
X+717550Y+1661534D01*
X+698951Y+1642935D01*
X+672649Y+1642935D01*
X+654050Y+1661534D01*
G37*
G36*
X+19050Y+1881504D02*
X+19050Y+1907806D01*
X+37649Y+1926405D01*
X+63951Y+1926405D01*
X+82550Y+1907806D01*
X+82550Y+1881504D01*
X+63951Y+1862905D01*
X+37649Y+1862905D01*
X+19050Y+1881504D01*
G37*
G36*
X+781050Y+1881504D02*
X+781050Y+1907806D01*
X+799649Y+1926405D01*
X+825951Y+1926405D01*
X+844550Y+1907806D01*
X+844550Y+1881504D01*
X+825951Y+1862905D01*
X+799649Y+1862905D01*
X+781050Y+1881504D01*
G37*
G36*
X+1035050Y+1881504D02*
X+1035050Y+1907806D01*
X+1053649Y+1926405D01*
X+1079951Y+1926405D01*
X+1098550Y+1907806D01*
X+1098550Y+1881504D01*
X+1079951Y+1862905D01*
X+1053649Y+1862905D01*
X+1035050Y+1881504D01*
G37*
G36*
X+1289050Y+1881504D02*
X+1289050Y+1907806D01*
X+1307649Y+1926405D01*
X+1333951Y+1926405D01*
X+1352550Y+1907806D01*
X+1352550Y+1881504D01*
X+1333951Y+1862905D01*
X+1307649Y+1862905D01*
X+1289050Y+1881504D01*
G37*
G36*
X+1543050Y+1881504D02*
X+1543050Y+1907806D01*
X+1561649Y+1926405D01*
X+1587951Y+1926405D01*
X+1606550Y+1907806D01*
X+1606550Y+1881504D01*
X+1587951Y+1862905D01*
X+1561649Y+1862905D01*
X+1543050Y+1881504D01*
G37*
G36*
X+805181Y-2632434D02*
X+805181Y-2562996D01*
X+854281Y-2513896D01*
X+923719Y-2513896D01*
X+972819Y-2562996D01*
X+972819Y-2632434D01*
X+923719Y-2681534D01*
X+854281Y-2681534D01*
X+805181Y-2632434D01*
G37*
G36*
X+1059181Y-2632434D02*
X+1059181Y-2562996D01*
X+1108281Y-2513896D01*
X+1177719Y-2513896D01*
X+1226819Y-2562996D01*
X+1226819Y-2632434D01*
X+1177719Y-2681534D01*
X+1108281Y-2681534D01*
X+1059181Y-2632434D01*
G37*
G36*
X+1313181Y-2632434D02*
X+1313181Y-2562996D01*
X+1362281Y-2513896D01*
X+1431719Y-2513896D01*
X+1480819Y-2562996D01*
X+1480819Y-2632434D01*
X+1431719Y-2681534D01*
X+1362281Y-2681534D01*
X+1313181Y-2632434D01*
G37*
G36*
X+1186181Y-2412464D02*
X+1186181Y-2343026D01*
X+1235281Y-2293926D01*
X+1304719Y-2293926D01*
X+1353819Y-2343026D01*
X+1353819Y-2412464D01*
X+1304719Y-2461564D01*
X+1235281Y-2461564D01*
X+1186181Y-2412464D01*
G37*
G36*
X+1059181Y-2192494D02*
X+1059181Y-2123056D01*
X+1108281Y-2073956D01*
X+1177719Y-2073956D01*
X+1226819Y-2123056D01*
X+1226819Y-2192494D01*
X+1177719Y-2241594D01*
X+1108281Y-2241594D01*
X+1059181Y-2192494D01*
G37*
G36*
X+932181Y-1972524D02*
X+932181Y-1903086D01*
X+981281Y-1853986D01*
X+1050719Y-1853986D01*
X+1099819Y-1903086D01*
X+1099819Y-1972524D01*
X+1050719Y-2021624D01*
X+981281Y-2021624D01*
X+932181Y-1972524D01*
G37*
G36*
X+1186181Y-1972524D02*
X+1186181Y-1903086D01*
X+1235281Y-1853986D01*
X+1304719Y-1853986D01*
X+1353819Y-1903086D01*
X+1353819Y-1972524D01*
X+1304719Y-2021624D01*
X+1235281Y-2021624D01*
X+1186181Y-1972524D01*
G37*
G36*
X+1694181Y-1972524D02*
X+1694181Y-1903086D01*
X+1743281Y-1853986D01*
X+1812719Y-1853986D01*
X+1861819Y-1903086D01*
X+1861819Y-1972524D01*
X+1812719Y-2021624D01*
X+1743281Y-2021624D01*
X+1694181Y-1972524D01*
G37*
G36*
X+1186181Y-1532584D02*
X+1186181Y-1463146D01*
X+1235281Y-1414046D01*
X+1304719Y-1414046D01*
X+1353819Y-1463146D01*
X+1353819Y-1532584D01*
X+1304719Y-1581684D01*
X+1235281Y-1581684D01*
X+1186181Y-1532584D01*
G37*
G36*
X+805181Y-1312614D02*
X+805181Y-1243176D01*
X+854281Y-1194076D01*
X+923719Y-1194076D01*
X+972819Y-1243176D01*
X+972819Y-1312614D01*
X+923719Y-1361714D01*
X+854281Y-1361714D01*
X+805181Y-1312614D01*
G37*
G36*
X+1059181Y-1312614D02*
X+1059181Y-1243176D01*
X+1108281Y-1194076D01*
X+1177719Y-1194076D01*
X+1226819Y-1243176D01*
X+1226819Y-1312614D01*
X+1177719Y-1361714D01*
X+1108281Y-1361714D01*
X+1059181Y-1312614D01*
G37*
G36*
X+1313181Y-1312614D02*
X+1313181Y-1243176D01*
X+1362281Y-1194076D01*
X+1431719Y-1194076D01*
X+1480819Y-1243176D01*
X+1480819Y-1312614D01*
X+1431719Y-1361714D01*
X+1362281Y-1361714D01*
X+1313181Y-1312614D01*
G37*
G36*
X+1186181Y-1092644D02*
X+1186181Y-1023206D01*
X+1235281Y-974106D01*
X+1304719Y-974106D01*
X+1353819Y-1023206D01*
X+1353819Y-1092644D01*
X+1304719Y-1141744D01*
X+1235281Y-1141744D01*
X+1186181Y-1092644D01*
G37*
G36*
X+1059181Y-872674D02*
X+1059181Y-803236D01*
X+1108281Y-754136D01*
X+1177719Y-754136D01*
X+1226819Y-803236D01*
X+1226819Y-872674D01*
X+1177719Y-921774D01*
X+1108281Y-921774D01*
X+1059181Y-872674D01*
G37*
G36*
X+1313181Y-432734D02*
X+1313181Y-363296D01*
X+1362281Y-314196D01*
X+1431719Y-314196D01*
X+1480819Y-363296D01*
X+1480819Y-432734D01*
X+1431719Y-481834D01*
X+1362281Y-481834D01*
X+1313181Y-432734D01*
G37*
G36*
X+1567181Y-432734D02*
X+1567181Y-363296D01*
X+1616281Y-314196D01*
X+1685719Y-314196D01*
X+1734819Y-363296D01*
X+1734819Y-432734D01*
X+1685719Y-481834D01*
X+1616281Y-481834D01*
X+1567181Y-432734D01*
G37*
G36*
X+1440181Y-212764D02*
X+1440181Y-143326D01*
X+1489281Y-94226D01*
X+1558719Y-94226D01*
X+1607819Y-143326D01*
X+1607819Y-212764D01*
X+1558719Y-261864D01*
X+1489281Y-261864D01*
X+1440181Y-212764D01*
G37*
G36*
X+1567181Y+7206D02*
X+1567181Y+76644D01*
X+1616281Y+125744D01*
X+1685719Y+125744D01*
X+1734819Y+76644D01*
X+1734819Y+7206D01*
X+1685719Y-41894D01*
X+1616281Y-41894D01*
X+1567181Y+7206D01*
G37*
G36*
X+1440181Y+227176D02*
X+1440181Y+296614D01*
X+1489281Y+345714D01*
X+1558719Y+345714D01*
X+1607819Y+296614D01*
X+1607819Y+227176D01*
X+1558719Y+178076D01*
X+1489281Y+178076D01*
X+1440181Y+227176D01*
G37*
G36*
X+1440181Y+667116D02*
X+1440181Y+736554D01*
X+1489281Y+785654D01*
X+1558719Y+785654D01*
X+1607819Y+736554D01*
X+1607819Y+667116D01*
X+1558719Y+618016D01*
X+1489281Y+618016D01*
X+1440181Y+667116D01*
G37*
G36*
X+1567181Y+1327026D02*
X+1567181Y+1396464D01*
X+1616281Y+1445564D01*
X+1685719Y+1445564D01*
X+1734819Y+1396464D01*
X+1734819Y+1327026D01*
X+1685719Y+1277926D01*
X+1616281Y+1277926D01*
X+1567181Y+1327026D01*
G37*
G36*
X+1186181Y+1546996D02*
X+1186181Y+1616434D01*
X+1235281Y+1665534D01*
X+1304719Y+1665534D01*
X+1353819Y+1616434D01*
X+1353819Y+1546996D01*
X+1304719Y+1497896D01*
X+1235281Y+1497896D01*
X+1186181Y+1546996D01*
G37*
G36*
X+1440181Y+1546996D02*
X+1440181Y+1616434D01*
X+1489281Y+1665534D01*
X+1558719Y+1665534D01*
X+1607819Y+1616434D01*
X+1607819Y+1546996D01*
X+1558719Y+1497896D01*
X+1489281Y+1497896D01*
X+1440181Y+1546996D01*
G37*
G36*
X-528319Y-2759434D02*
X-528319Y-2689996D01*
X-479219Y-2640896D01*
X-409781Y-2640896D01*
X-360681Y-2689996D01*
X-360681Y-2759434D01*
X-409781Y-2808534D01*
X-479219Y-2808534D01*
X-528319Y-2759434D01*
G37*
G36*
X-909319Y-2539464D02*
X-909319Y-2470026D01*
X-860219Y-2420926D01*
X-790781Y-2420926D01*
X-741681Y-2470026D01*
X-741681Y-2539464D01*
X-790781Y-2588564D01*
X-860219Y-2588564D01*
X-909319Y-2539464D01*
G37*
G36*
X-655319Y-2539464D02*
X-655319Y-2470026D01*
X-606219Y-2420926D01*
X-536781Y-2420926D01*
X-487681Y-2470026D01*
X-487681Y-2539464D01*
X-536781Y-2588564D01*
X-606219Y-2588564D01*
X-655319Y-2539464D01*
G37*
G36*
X-401319Y-2539464D02*
X-401319Y-2470026D01*
X-352219Y-2420926D01*
X-282781Y-2420926D01*
X-233681Y-2470026D01*
X-233681Y-2539464D01*
X-282781Y-2588564D01*
X-352219Y-2588564D01*
X-401319Y-2539464D01*
G37*
G36*
X-909319Y-2099524D02*
X-909319Y-2030086D01*
X-860219Y-1980986D01*
X-790781Y-1980986D01*
X-741681Y-2030086D01*
X-741681Y-2099524D01*
X-790781Y-2148624D01*
X-860219Y-2148624D01*
X-909319Y-2099524D01*
G37*
G36*
X-655319Y-2099524D02*
X-655319Y-2030086D01*
X-606219Y-1980986D01*
X-536781Y-1980986D01*
X-487681Y-2030086D01*
X-487681Y-2099524D01*
X-536781Y-2148624D01*
X-606219Y-2148624D01*
X-655319Y-2099524D01*
G37*
G36*
X-401319Y-2099524D02*
X-401319Y-2030086D01*
X-352219Y-1980986D01*
X-282781Y-1980986D01*
X-233681Y-2030086D01*
X-233681Y-2099524D01*
X-282781Y-2148624D01*
X-352219Y-2148624D01*
X-401319Y-2099524D01*
G37*
G36*
X-528319Y-1879554D02*
X-528319Y-1810116D01*
X-479219Y-1761016D01*
X-409781Y-1761016D01*
X-360681Y-1810116D01*
X-360681Y-1879554D01*
X-409781Y-1928654D01*
X-479219Y-1928654D01*
X-528319Y-1879554D01*
G37*
G36*
X-909319Y-1659584D02*
X-909319Y-1590146D01*
X-860219Y-1541046D01*
X-790781Y-1541046D01*
X-741681Y-1590146D01*
X-741681Y-1659584D01*
X-790781Y-1708684D01*
X-860219Y-1708684D01*
X-909319Y-1659584D01*
G37*
G36*
X-528319Y-1439614D02*
X-528319Y-1370176D01*
X-479219Y-1321076D01*
X-409781Y-1321076D01*
X-360681Y-1370176D01*
X-360681Y-1439614D01*
X-409781Y-1488714D01*
X-479219Y-1488714D01*
X-528319Y-1439614D01*
G37*
G36*
X-401319Y-1219644D02*
X-401319Y-1150206D01*
X-352219Y-1101106D01*
X-282781Y-1101106D01*
X-233681Y-1150206D01*
X-233681Y-1219644D01*
X-282781Y-1268744D01*
X-352219Y-1268744D01*
X-401319Y-1219644D01*
G37*
G36*
X-909319Y-779704D02*
X-909319Y-710266D01*
X-860219Y-661166D01*
X-790781Y-661166D01*
X-741681Y-710266D01*
X-741681Y-779704D01*
X-790781Y-828804D01*
X-860219Y-828804D01*
X-909319Y-779704D01*
G37*
G36*
X-401319Y-779704D02*
X-401319Y-710266D01*
X-352219Y-661166D01*
X-282781Y-661166D01*
X-233681Y-710266D01*
X-233681Y-779704D01*
X-282781Y-828804D01*
X-352219Y-828804D01*
X-401319Y-779704D01*
G37*
G36*
X-782319Y-559734D02*
X-782319Y-490296D01*
X-733219Y-441196D01*
X-663781Y-441196D01*
X-614681Y-490296D01*
X-614681Y-559734D01*
X-663781Y-608834D01*
X-733219Y-608834D01*
X-782319Y-559734D01*
G37*
G36*
X-528319Y-559734D02*
X-528319Y-490296D01*
X-479219Y-441196D01*
X-409781Y-441196D01*
X-360681Y-490296D01*
X-360681Y-559734D01*
X-409781Y-608834D01*
X-479219Y-608834D01*
X-528319Y-559734D01*
G37*
G36*
X-909319Y-339764D02*
X-909319Y-270326D01*
X-860219Y-221226D01*
X-790781Y-221226D01*
X-741681Y-270326D01*
X-741681Y-339764D01*
X-790781Y-388864D01*
X-860219Y-388864D01*
X-909319Y-339764D01*
G37*
G36*
X-782319Y-119794D02*
X-782319Y-50356D01*
X-733219Y-1256D01*
X-663781Y-1256D01*
X-614681Y-50356D01*
X-614681Y-119794D01*
X-663781Y-168894D01*
X-733219Y-168894D01*
X-782319Y-119794D01*
G37*
G36*
X-528319Y-119794D02*
X-528319Y-50356D01*
X-479219Y-1256D01*
X-409781Y-1256D01*
X-360681Y-50356D01*
X-360681Y-119794D01*
X-409781Y-168894D01*
X-479219Y-168894D01*
X-528319Y-119794D01*
G37*
G36*
X-909319Y+100176D02*
X-909319Y+169614D01*
X-860219Y+218714D01*
X-790781Y+218714D01*
X-741681Y+169614D01*
X-741681Y+100176D01*
X-790781Y+51076D01*
X-860219Y+51076D01*
X-909319Y+100176D01*
G37*
G36*
X-401319Y+100176D02*
X-401319Y+169614D01*
X-352219Y+218714D01*
X-282781Y+218714D01*
X-233681Y+169614D01*
X-233681Y+100176D01*
X-282781Y+51076D01*
X-352219Y+51076D01*
X-401319Y+100176D01*
G37*
G36*
X-909319Y+540116D02*
X-909319Y+609554D01*
X-860219Y+658654D01*
X-790781Y+658654D01*
X-741681Y+609554D01*
X-741681Y+540116D01*
X-790781Y+491016D01*
X-860219Y+491016D01*
X-909319Y+540116D01*
G37*
G36*
X-401319Y+540116D02*
X-401319Y+609554D01*
X-352219Y+658654D01*
X-282781Y+658654D01*
X-233681Y+609554D01*
X-233681Y+540116D01*
X-282781Y+491016D01*
X-352219Y+491016D01*
X-401319Y+540116D01*
G37*
G36*
X-909319Y+980056D02*
X-909319Y+1049494D01*
X-860219Y+1098594D01*
X-790781Y+1098594D01*
X-741681Y+1049494D01*
X-741681Y+980056D01*
X-790781Y+930956D01*
X-860219Y+930956D01*
X-909319Y+980056D01*
G37*
G36*
X-401319Y+980056D02*
X-401319Y+1049494D01*
X-352219Y+1098594D01*
X-282781Y+1098594D01*
X-233681Y+1049494D01*
X-233681Y+980056D01*
X-282781Y+930956D01*
X-352219Y+930956D01*
X-401319Y+980056D01*
G37*
G36*
X-909319Y+1419996D02*
X-909319Y+1489434D01*
X-860219Y+1538534D01*
X-790781Y+1538534D01*
X-741681Y+1489434D01*
X-741681Y+1419996D01*
X-790781Y+1370896D01*
X-860219Y+1370896D01*
X-909319Y+1419996D01*
G37*
G36*
X-401319Y+1419996D02*
X-401319Y+1489434D01*
X-352219Y+1538534D01*
X-282781Y+1538534D01*
X-233681Y+1489434D01*
X-233681Y+1419996D01*
X-282781Y+1370896D01*
X-352219Y+1370896D01*
X-401319Y+1419996D01*
G37*
%LPD*%
G36*
X+4818381Y-1666681D02*
X+4818381Y-2876305D01*
X+4643119Y-2701043D01*
X+4643119Y-1870957D01*
X+4715757Y-1798319D01*
X+4733719Y-1798319D01*
X+4782819Y-1749219D01*
X+4782819Y-1679781D01*
X+4733719Y-1630681D01*
X+4704586Y-1630681D01*
X+4735260Y-1600007D01*
X+4735260Y-1583560D01*
X+4818381Y-1666681D01*
G37*
%LPC*%
G36*
X+4698220Y-2045151D02*
X+4698220Y-2018849D01*
X+4716819Y-2000250D01*
X+4743121Y-2000250D01*
X+4761720Y-2018849D01*
X+4761720Y-2045151D01*
X+4743121Y-2063750D01*
X+4716819Y-2063750D01*
X+4698220Y-2045151D01*
G37*
G36*
X+4718050Y-2737866D02*
X+4718050Y-2711564D01*
X+4736649Y-2692965D01*
X+4762951Y-2692965D01*
X+4781550Y-2711564D01*
X+4781550Y-2737866D01*
X+4762951Y-2756465D01*
X+4736649Y-2756465D01*
X+4718050Y-2737866D01*
G37*
G36*
X+4718050Y-2297926D02*
X+4718050Y-2271624D01*
X+4736649Y-2253025D01*
X+4762951Y-2253025D01*
X+4781550Y-2271624D01*
X+4781550Y-2297926D01*
X+4762951Y-2316525D01*
X+4736649Y-2316525D01*
X+4718050Y-2297926D01*
G37*
%LPD*%
D12*
X+1778000Y-698500D02*
X+2143763Y-698500D01*
X+2143763Y-136273D01*
X+2142100Y-134610D01*
X+2384955Y-134610D01*
X+2388282Y-131283D01*
X+2599217Y-131283D01*
X+2603500Y-127000D01*
D10*
X+7556500Y-762000D02*
X+7556500Y-725757D01*
X+8890000Y-762000D02*
X+8959881Y-692119D01*
X+8959881Y-611280D01*
X+8959881Y-558628D01*
X+8870536Y-469283D01*
X+7658717Y-469283D01*
X+7556500Y-571500D01*
X+7556500Y-725757D01*
X+8001000Y-2476500D02*
X+8128000Y-2476500D01*
D14*
X+8509000Y-2794000D02*
X+8445500Y-2794000D01*
X+8128817Y-2794000D01*
X+7958551Y-2623734D01*
X+7735792Y-2400975D01*
X+7735792Y-2213282D01*
X+8763000Y-1186074D01*
X+8763000Y-889000D01*
X+8636000Y-2794000D02*
X+8509000Y-2794000D01*
D10*
X+8128000Y-2984500D02*
X+8059795Y-2921000D01*
X+7556500Y-2417705D01*
X+7556500Y-762000D01*
X+4445000Y-444500D02*
X+3048000Y-444500D01*
X+2921000Y-571500D01*
X+2921000Y-762000D01*
X+5715000Y-988937D02*
X+5642613Y-988937D01*
X+5497437Y-988937D01*
X+5334000Y-825500D01*
X+6921500Y-635000D02*
X+6921500Y-850850D01*
X+6783413Y-988937D01*
X+5715000Y-988937D01*
X+6413500Y-2984500D02*
X+6306315Y-3091685D01*
X+4699000Y-1714500D02*
X+4572000Y-1841500D01*
X+4572000Y-2159000D01*
X+4572000Y-2506587D01*
X+4889500Y-2857500D02*
X+4966010Y-2934010D01*
X+5269832Y-2934010D01*
X+4889500Y-1637224D02*
X+4889500Y-2857500D01*
X+4889500Y-1637224D02*
X+4508500Y-1256224D01*
X+4508500Y-444500D01*
X+4699000Y-444500D02*
X+4508500Y-444500D01*
X+4445000Y-444500D01*
D16*
X+5125727Y-1379227D02*
X+5125727Y-2279292D01*
X+5125727Y-2776227D01*
X+5143500Y-2794000D01*
X+5125727Y-1379227D02*
X+4699000Y-952500D01*
D14*
X+7239000Y-2429381D02*
X+7239000Y-1524000D01*
X+6921500Y-1206500D01*
D10*
X+6852642Y-2947088D02*
X+6852642Y-2291358D01*
X+7112000Y-2032000D01*
X+7112000Y-1651000D01*
X+6921500Y-1460500D01*
X+6783413Y-1322413D01*
X+6783413Y-988937D01*
D14*
X+7239000Y-2794000D02*
X+7239000Y-2603500D01*
X+7239000Y-2553564D01*
X+7239000Y-2429381D01*
D10*
X+6286500Y-2476500D02*
X+6286500Y-1841500D01*
X+6350000Y-1778000D01*
X+6921500Y-1714500D02*
X+6413500Y-1714500D01*
X+6350000Y-1778000D01*
X+7620000Y-3048000D02*
X+7542807Y-3125193D01*
X+6744693Y-3125193D01*
X+6667500Y-3048000D01*
X+6667500Y-2857500D01*
X+6477000Y-2667000D01*
X+6286500Y-2476500D01*
X+5651500Y-2476500D01*
X+7128142Y-3723898D02*
X+7302500Y-3723898D01*
X+6804544Y-3400300D02*
X+6804544Y-3719953D01*
X+6800599Y-3723898D01*
X+7128142Y-3723898D02*
X+6800599Y-3723898D01*
X+5783403Y-3723898D01*
X+5462196Y-3402691D01*
X+4572000Y-2730500D02*
X+3492500Y-2730500D01*
X+4572000Y-2506587D02*
X+4572000Y-2730500D01*
X+4933185Y-3091685D01*
X+5110059Y-3091685D01*
X+6306315Y-3091685D01*
X+9017000Y-2492873D02*
X+9023624Y-2486249D01*
X+9033373Y-2476500D01*
X+9350873Y-2159000D01*
X+9461500Y-2159000D01*
X+9017000Y-2921000D02*
X+9017000Y-2492873D01*
X+8128000Y-2476500D02*
X+9033373Y-2476500D01*
D16*
X+4703525Y-680491D02*
X+5016500Y-367516D01*
X+5016500Y-63500D01*
D15*
X+5201304Y-4216749D02*
X+5204677Y-4220122D01*
X+5302267Y-4220122D01*
X+5137322Y-4216749D02*
X+5201304Y-4216749D01*
D17*
X+7874000Y-3238500D02*
X+7874000Y-3587930D01*
X+7738032Y-3723898D01*
D10*
X+7302500Y-3723898D01*
D15*
X+762000Y-5461000D02*
X+635000Y-5588000D01*
X+635000Y-6731000D01*
X+571500Y-6823000D01*
X+454000Y-6823000D01*
D10*
X+1045014Y-4064000D02*
X+1090563Y-4064000D01*
X+825500Y-4064000D02*
X+1045014Y-4064000D01*
D15*
X+825500Y-7210674D02*
X+688718Y-7210674D01*
X+282326Y-7210674D01*
X+190500Y-7302500D01*
X+798339Y-5243339D02*
X+847762Y-5243339D01*
X+932658Y-5328235D01*
X+1043146Y-5438723D01*
X+1905000Y-6540500D02*
X+1905000Y-5732213D01*
X+1787898Y-5615111D01*
X+1219534Y-5615111D01*
X+1043146Y-5438723D01*
X+1638554Y-6958147D02*
X+1573701Y-7023000D01*
X+454000Y-7023000D01*
X+2820394Y-7210674D02*
X+2721093Y-7210674D01*
D10*
X+8401513Y-6499211D02*
X+8337500Y-6563224D01*
X+8337500Y-6713500D02*
X+8337500Y-6563224D01*
D15*
X+9235403Y-6499211D02*
X+9321789Y-6499211D01*
X+9334500Y-6486500D01*
D10*
X+9122113Y-6286500D02*
X+9122113Y-6385921D01*
X+9122113Y-6493169D01*
X+9128155Y-6499211D01*
X+7738032Y-3723898D02*
X+8694960Y-3723898D01*
X+9122113Y-4151051D01*
X+9122113Y-6286500D01*
D15*
X+9235403Y-6499211D02*
X+9128155Y-6499211D01*
D10*
X+8401513Y-6499211D01*
D15*
X+2921000Y-7210429D02*
X+2921245Y-7210674D01*
X+2493282Y-6223000D02*
X+2779251Y-5937031D01*
X+2779251Y-5905500D01*
X+3369407Y-4759836D02*
X+2779251Y-5349993D01*
X+2779251Y-5905500D01*
X+2493282Y-6223000D02*
X+2540000Y-6223000D01*
X+2200266Y-7210674D02*
X+2032000Y-7210674D01*
X+825500Y-7210674D01*
X+2382291Y-7028649D02*
X+2382291Y-7207246D01*
X+2385719Y-7210674D01*
X+2721093Y-7210674D02*
X+2385719Y-7210674D01*
X+2200266Y-7210674D01*
X+1968500Y-6921500D02*
X+1968500Y-6747782D01*
X+2405661Y-6310621D01*
X+2493282Y-6223000D01*
X+2162800Y-6787849D02*
X+2317453Y-6633196D01*
X+2607989Y-6633196D01*
X+2772619Y-6633196D01*
X+2849589Y-6556226D01*
X+3937000Y-5468815D01*
X+3937000Y-5207000D01*
X+7366000Y-6159500D02*
X+7556500Y-6159500D01*
X+8288091Y-6159500D01*
X+8493457Y-5954134D01*
X+2820394Y-7210674D02*
X+2857500Y-7210674D01*
X+2921245Y-7210674D01*
D10*
X+1206500Y-4064000D02*
X+1090563Y-4064000D01*
D15*
X+3027223Y-7210674D02*
X+3061841Y-7176056D01*
X+2921245Y-7210674D02*
X+3027223Y-7210674D01*
X+6985000Y-4122418D02*
X+7141469Y-4122418D01*
X+5201336Y-4122418D02*
X+6985000Y-4122418D01*
X+6921500Y-4220122D02*
X+7026056Y-4220122D01*
X+8093622Y-4220122D01*
X+8255000Y-4381500D01*
X+8255000Y-5207000D01*
X+8382000Y-5334000D01*
X+6921500Y-4220122D02*
X+5302267Y-4220122D01*
X+8287337Y-5588000D02*
X+8382000Y-5588000D01*
X+6223000Y-4304672D02*
X+6835794Y-4304672D01*
X+8051172Y-4304672D01*
X+8064500Y-4318000D01*
X+8191500Y-4445000D01*
X+8191500Y-5492163D01*
X+8287337Y-5588000D01*
X+5223704Y-4304672D02*
X+6223000Y-4304672D01*
X+2939996Y-6806802D02*
X+2991194Y-6858000D01*
X+4190486Y-3977762D02*
X+4190486Y-5334514D01*
X+3365500Y-6159500D01*
X+2814566Y-6710434D01*
X+2814566Y-6819249D01*
X+2814566Y-6838179D01*
X+3005582Y-7029195D01*
X+3539620Y-7029195D01*
X+3543214Y-7032789D01*
X+6794500Y-4508500D02*
X+6731000Y-4572000D01*
X+3330252Y-6746398D02*
X+4996650Y-5080000D01*
X+5524500Y-5080000D01*
X+6223000Y-5080000D01*
X+6731000Y-4572000D01*
X+2667000Y-6921500D02*
X+2850466Y-7104966D01*
X+2990009Y-7104966D01*
X+3053865Y-7104966D01*
X+2603500Y-6858000D02*
X+2667000Y-6921500D01*
X+7969250Y-4540250D02*
X+7874000Y-4635500D01*
X+5860423Y-6649077D01*
X+5217585Y-6649077D01*
X+4965605Y-6649077D01*
X+4756682Y-6858000D02*
X+4823091Y-6791591D01*
X+2991194Y-6858000D02*
X+3091058Y-6957864D01*
X+3261294Y-6957864D01*
X+4191000Y-6957864D01*
X+4823091Y-6791591D02*
X+4965605Y-6649077D01*
X+4191000Y-7104966D02*
X+4530855Y-7104966D01*
X+5820098Y-7104966D01*
X+5910382Y-7014682D01*
X+5954532Y-6970532D01*
X+6275987Y-6649077D01*
X+6765564Y-6159500D01*
X+7366000Y-6159500D01*
X+3053865Y-7104966D02*
X+4191000Y-7104966D01*
X+4318000Y-6957864D02*
X+4368923Y-6957864D01*
X+4656818Y-6957864D01*
X+4191000Y-6957864D02*
X+4318000Y-6957864D01*
X+4656818Y-6957864D02*
X+4756682Y-6858000D01*
X+2222500Y-6286500D02*
X+2222500Y-4572000D01*
X+2476500Y-4318000D01*
X+2476500Y-2708840D01*
X+1985701Y-2218041D01*
X+5270500Y-4699000D02*
X+4889500Y-5080000D01*
X+5270500Y-4699000D02*
X+5438830Y-4530670D01*
X+5488720Y-4530670D01*
X+4572000Y-5397500D02*
X+4508500Y-5461000D01*
X+4889500Y-5080000D02*
X+4572000Y-5397500D01*
X+3226757Y-6836751D02*
X+3200364Y-6810358D01*
X+3200364Y-6796574D01*
X+3200364Y-6718178D01*
X+4508500Y-5461000D02*
X+3387533Y-6581967D01*
X+3336575Y-6581967D01*
X+3200364Y-6718178D01*
X+3200364Y-6810358D02*
X+3200364Y-6848511D01*
X+3204283Y-6852430D01*
X+8445500Y-6223000D02*
X+6811934Y-6223000D01*
X+5858878Y-7176056D01*
X+8445500Y-6223000D02*
X+8572500Y-6096000D01*
X+3061841Y-7176056D02*
X+3523040Y-7176056D01*
X+5858878Y-7176056D01*
X+8256306Y-4253194D02*
X+8320068Y-4316956D01*
X+8320068Y-5000485D01*
X+8320068Y-5018068D01*
X+8382000Y-5080000D01*
X+7141469Y-4122418D02*
X+8125530Y-4122418D01*
X+8256306Y-4253194D01*
X+3937000Y-3111500D02*
X+3937000Y-4826000D01*
X+3937000Y-5207000D01*
D70*
X+1778000Y-698500D03*
X+2603500Y-127000D03*
D71*
X+3225800Y+1174750D03*
X+3479800Y+1174750D03*
X+5257800Y+1174750D03*
X+5511800Y+1174750D03*
X+5765800Y+1174750D03*
X+7543800Y+1174750D03*
X+7797800Y+1174750D03*
X+8051800Y+1174750D03*
X+3098800Y+1394720D03*
X+3352800Y+1394720D03*
X+4876800Y+1394720D03*
X+5130800Y+1394720D03*
X+5384800Y+1394720D03*
X+5638800Y+1394720D03*
X+7162800Y+1394720D03*
X+7416800Y+1394720D03*
X+7670800Y+1394720D03*
X+7924800Y+1394720D03*
X+3479800Y+1614690D03*
X+4749800Y+1614690D03*
X+5003800Y+1614690D03*
X+5257800Y+1614690D03*
X+5511800Y+1614690D03*
X+5765800Y+1614690D03*
X+7289800Y+1614690D03*
X+7543800Y+1614690D03*
X+7797800Y+1614690D03*
X+8051800Y+1614690D03*
X+3352800Y+1834660D03*
X+4876800Y+1834660D03*
X+5130800Y+1834660D03*
X+5384800Y+1834660D03*
X+5638800Y+1834660D03*
X+7162800Y+1834660D03*
X+7416800Y+1834660D03*
X+7670800Y+1834660D03*
X+7924800Y+1834660D03*
X+3479800Y+2054630D03*
X+4749800Y+2054630D03*
X+5003800Y+2054630D03*
X+5257800Y+2054630D03*
X+5511800Y+2054630D03*
X+5765800Y+2054630D03*
X+7289800Y+2054630D03*
X+7543800Y+2054630D03*
X+7797800Y+2054630D03*
X+8051800Y+2054630D03*
D20*
X+5461000Y-1673630D03*
X+5562600Y-1497654D03*
X+5461000Y-1321678D03*
X+5562600Y-1145702D03*
X+5562600Y-793750D03*
X+5765800Y-793750D03*
X+5969000Y-793750D03*
X+6375400Y-793750D03*
X+6578600Y-793750D03*
X+6781800Y-793750D03*
X+6477000Y-617774D03*
X+6680200Y-617774D03*
X+6781800Y-441798D03*
X+5664200Y-265822D03*
X+5867400Y-265822D03*
X+6070600Y-265822D03*
X+6273800Y-265822D03*
X+6477000Y-265822D03*
X+5562600Y-89846D03*
X+5765800Y-89846D03*
X+5969000Y-89846D03*
X+6172200Y-89846D03*
X+6375400Y-89846D03*
X+6781800Y-89846D03*
X+7747000Y-1673630D03*
X+7848600Y-1497654D03*
X+7747000Y-1321678D03*
X+7848600Y-1145702D03*
X+7747000Y-969726D03*
X+7848600Y-793750D03*
X+8051800Y-793750D03*
X+8255000Y-793750D03*
X+8661400Y-793750D03*
X+8763000Y-617774D03*
X+7950200Y-265822D03*
X+8153400Y-265822D03*
X+8356600Y-265822D03*
X+8559800Y-265822D03*
X+8763000Y-265822D03*
X+7848600Y-89846D03*
X+8051800Y-89846D03*
X+8255000Y-89846D03*
X+8458200Y-89846D03*
X+8661400Y-89846D03*
X+3213100Y-1497654D03*
X+3111500Y-1321678D03*
X+3213100Y-1145702D03*
X+3111500Y-969726D03*
X+3213100Y-793750D03*
X+3416300Y-793750D03*
X+3619500Y-793750D03*
X+4127500Y-617774D03*
X+4330700Y-617774D03*
X+3314700Y-265822D03*
X+3517900Y-265822D03*
X+3721100Y-265822D03*
X+3924300Y-265822D03*
X+4127500Y-265822D03*
X+3213100Y-89846D03*
X+3416300Y-89846D03*
X+3619500Y-89846D03*
X+3822700Y-89846D03*
X+4025900Y-89846D03*
X+4432300Y-89846D03*
X+4013200Y+1052310D03*
X+3911600Y+1228286D03*
X+4114800Y+1228286D03*
X+3810000Y+1404262D03*
X+4013200Y+1404262D03*
X+3911600Y+1580238D03*
X+3810000Y+1756214D03*
X+3911600Y+1932190D03*
X+8597900Y+1228286D03*
X+8801100Y+1228286D03*
X+8496300Y+1404262D03*
X+8699500Y+1404262D03*
X+8597900Y+1580238D03*
X+8496300Y+1756214D03*
X+8597900Y+1932190D03*
X+6363969Y+1052310D03*
X+6262369Y+1228286D03*
X+6465569Y+1228286D03*
X+6160769Y+1404262D03*
X+6363969Y+1404262D03*
X+6262369Y+1580238D03*
X+6160769Y+1756214D03*
X+6262369Y+1932190D03*
X+8686800Y-2130796D03*
X+8890000Y-2130796D03*
X+2082800Y+1916652D03*
X+2286000Y+1916652D03*
X+2895600Y+1916652D03*
X+2794000Y+2092628D03*
X+2006600Y+1525797D03*
X+2209800Y+1525797D03*
X+2413000Y+1525797D03*
X+2616200Y+1525797D03*
X+3492500Y-2730500D03*
X+4699000Y-1714500D03*
X+4729970Y-2032000D03*
X+2921000Y-762000D03*
X+4699000Y-444500D03*
X+5016500Y-63500D03*
X+8572500Y+571500D03*
X+8763000Y-889000D03*
X+8001000Y-2476500D03*
X+8636000Y-2794000D03*
X+9017000Y-2921000D03*
X+9461500Y-2159000D03*
X+8128000Y-2984500D03*
X+6921500Y-1206500D03*
X+7239000Y-63500D03*
X+5651500Y-2476500D03*
X+6921500Y-1714500D03*
X+6921500Y-635000D03*
X+8890000Y-762000D03*
X+6413500Y-2984500D03*
X+5269832Y-2934010D03*
X+5143500Y-2794000D03*
X+4699000Y-952500D03*
X+7620000Y-3048000D03*
X+7239000Y-2794000D03*
X+6852642Y-2947088D03*
X+5405123Y-3273402D03*
X+9035789Y-3275673D03*
X+9334500Y+1206500D03*
X+8056544Y-3238229D03*
X+9207500Y-63500D03*
X+6794500Y-3238500D03*
X+6985000Y-63500D03*
X+7747000Y-3429000D03*
X+6428649Y-3363510D03*
X+9144000Y-3873500D03*
X+5462196Y-3402691D03*
X+6804544Y-3400300D03*
X+7874000Y-3238500D03*
X+7048500Y+1206500D03*
X+7683500Y-3238500D03*
X+4699000Y+1206500D03*
X+6477000Y-3175000D03*
D71*
X+4749800Y-2724715D03*
X+5511800Y-2724715D03*
X+5384800Y-2504745D03*
X+7416800Y-2504745D03*
X+4749800Y-2284775D03*
X+5257800Y-2284775D03*
X+5511800Y-2284775D03*
X+2971800Y+2114625D03*
X+3111500Y-1673630D03*
X+4127500Y-793750D03*
X+4381500Y-793750D03*
D20*
X+7556500Y-762000D03*
X+5334000Y-825500D03*
X+2413000Y-444500D03*
X+1905000Y-381000D03*
D71*
X+5003800Y+1174750D03*
D20*
X+4699000Y-127000D03*
D21*
X+4889500Y-4508500D03*
X+5715000Y-5397500D03*
X+5250653Y-6773442D03*
X+3369407Y-4759836D03*
X+2476500Y-5969000D03*
X+5201336Y-4122418D03*
X+5137322Y-4216749D03*
X+5223704Y-4304672D03*
X+3543214Y-7032789D03*
X+2939996Y-6806802D03*
X+798339Y-5243339D03*
X+6794500Y-4508500D03*
X+5090277Y-4706542D03*
D20*
X-127000Y-4953000D03*
X+825500Y-4064000D03*
X+1206500Y-4064000D03*
D22*
X+63500Y-3492500D03*
D20*
X+190500Y-7302500D03*
X+1206500Y-7366000D03*
X+4190486Y-3977762D03*
X+4318000Y-3937000D03*
X+3746500Y-3937000D03*
X+3746500Y-4254500D03*
X+4797500Y-4128388D03*
X+3937000Y-3111500D03*
X+4699000Y-1206500D03*
X+4703525Y-680491D03*
X+3330252Y-6746398D03*
X+2540000Y-6223000D03*
X+7256104Y-6804454D03*
X+6667500Y-6794500D03*
X+6466771Y-5469186D03*
X+6286500Y-5207000D03*
X+6012307Y-6058609D03*
X+8382000Y-5080000D03*
X+8382000Y-5334000D03*
X+8382000Y-5588000D03*
X+8893984Y-4535770D03*
X+8493457Y-5954134D03*
X+8572500Y-6096000D03*
X+1270000Y-5334000D03*
X+762000Y-5461000D03*
X+777745Y-5731541D03*
X+2476596Y-5969000D03*
X+2540000Y-6413500D03*
X+1905000Y-6540500D03*
X+2162800Y-6787849D03*
X+1968500Y-6921500D03*
X+2413000Y-6794500D03*
X+2603500Y-6858000D03*
X+2382291Y-7028649D03*
X+2603500Y-7112000D03*
X+1638554Y-6958147D03*
X+1397000Y-6921500D03*
X+5270500Y-6540500D03*
X+5461000Y-6413500D03*
X+5000592Y-6897140D03*
X+4631295Y-7275534D03*
X+3570663Y-7287838D03*
X+3812572Y-7269848D03*
X+1308146Y-5957820D03*
X+5826579Y-4795895D03*
X+7969250Y-4540250D03*
X+1870921Y-3983646D03*
X+2222500Y-4000500D03*
X+2222500Y-6286500D03*
X+1985701Y-2218041D03*
X+2032000Y-3937000D03*
X+4651441Y-1565288D03*
D21*
X+5488720Y-4530670D03*
D20*
X+3226757Y-6836751D03*
X+7244914Y-5984685D03*
D21*
X+3551706Y-4639794D03*
D71*
X+558800Y-3384625D03*
X+812800Y-3384625D03*
X+1066800Y-3384625D03*
X+1320800Y-3384625D03*
X+1574800Y-3384625D03*
X+1828800Y-3384625D03*
X+2082800Y-3384625D03*
X+177800Y-3164655D03*
X+812800Y-2944685D03*
X+1066800Y-2944685D03*
X+1320800Y-2944685D03*
X+1828800Y-2944685D03*
X+177800Y-2724715D03*
X+1955800Y-2724715D03*
X+50800Y-2504745D03*
X+304800Y-2504745D03*
X+2082800Y-2504745D03*
X+50800Y-2064805D03*
X+304800Y-2064805D03*
X+177800Y-1844835D03*
X+177800Y-1404895D03*
X+50800Y-744985D03*
X+304800Y-744985D03*
X+558800Y-744985D03*
X+177800Y-525015D03*
X+685800Y-525015D03*
X+177800Y-85075D03*
X+685800Y-85075D03*
X+50800Y+134895D03*
X+304800Y+134895D03*
X+558800Y+134895D03*
X+812800Y+134895D03*
X+177800Y+354865D03*
X+685800Y+354865D03*
X+50800Y+574835D03*
X+304800Y+574835D03*
X+558800Y+574835D03*
X+812800Y+574835D03*
X+177800Y+794805D03*
X+685800Y+794805D03*
X+50800Y+1014775D03*
X+304800Y+1014775D03*
X+558800Y+1014775D03*
X+812800Y+1014775D03*
X+177800Y+1234745D03*
X+685800Y+1234745D03*
X+50800Y+1454715D03*
X+304800Y+1454715D03*
X+558800Y+1454715D03*
X+812800Y+1454715D03*
X+685800Y+1674685D03*
X+50800Y+1894655D03*
X+812800Y+1894655D03*
X+1066800Y+1894655D03*
X+1320800Y+1894655D03*
X+1574800Y+1894655D03*
X+889000Y-2597715D03*
X+1143000Y-2597715D03*
X+1397000Y-2597715D03*
X+1270000Y-2377745D03*
X+1143000Y-2157775D03*
X+1016000Y-1937805D03*
X+1270000Y-1937805D03*
X+1778000Y-1937805D03*
X+1270000Y-1497865D03*
X+889000Y-1277895D03*
X+1143000Y-1277895D03*
X+1397000Y-1277895D03*
X+1270000Y-1057925D03*
X+1143000Y-837955D03*
X+1397000Y-398015D03*
X+1651000Y-398015D03*
X+1524000Y-178045D03*
X+1651000Y+41925D03*
X+1524000Y+261895D03*
X+1524000Y+701835D03*
X+1651000Y+1361745D03*
X+2159000Y+1361745D03*
X+2413000Y+1361745D03*
X+1270000Y+1581715D03*
X+1524000Y+1581715D03*
X-444500Y-2724715D03*
X-825500Y-2504745D03*
X-571500Y-2504745D03*
X-317500Y-2504745D03*
X-825500Y-2064805D03*
X-571500Y-2064805D03*
X-317500Y-2064805D03*
X-444500Y-1844835D03*
X-825500Y-1624865D03*
X-444500Y-1404895D03*
X-317500Y-1184925D03*
X-825500Y-744985D03*
X-317500Y-744985D03*
X-698500Y-525015D03*
X-444500Y-525015D03*
X-825500Y-305045D03*
X-698500Y-85075D03*
X-444500Y-85075D03*
X-825500Y+134895D03*
X-317500Y+134895D03*
X-825500Y+574835D03*
X-317500Y+574835D03*
X-825500Y+1014775D03*
X-317500Y+1014775D03*
X-825500Y+1454715D03*
X-317500Y+1454715D03*
D15*
X+9672320Y-7576820D02*
X-1036320Y-7576820D01*
X-1036320Y+2306320D01*
X+9672320Y+2306320D01*
X+9672320Y-7576820D01*
X-985519Y-7320690D02*
X-985519Y-7030310D01*
X-780190Y-6824981D01*
X-489810Y-6824981D01*
X-284481Y-7030310D01*
X-284481Y-7320690D01*
X-489810Y-7526019D01*
X-780190Y-7526019D01*
X-985519Y-7320690D01*
X+8920481Y-7320690D02*
X+8920481Y-7030310D01*
X+9125810Y-6824981D01*
X+9416190Y-6824981D01*
X+9621519Y-7030310D01*
X+9621519Y-7320690D01*
X+9416190Y-7526019D01*
X+9125810Y-7526019D01*
X+8920481Y-7320690D01*
X+4030981Y+1595613D02*
X+4030981Y+1833387D01*
X+4199113Y+2001519D01*
X+4436887Y+2001519D01*
X+4605019Y+1833387D01*
X+4605019Y+1595613D01*
X+4436887Y+1427481D01*
X+4199113Y+1427481D01*
X+4030981Y+1595613D01*
X+6380481Y+1595613D02*
X+6380481Y+1833387D01*
X+6548613Y+2001519D01*
X+6786387Y+2001519D01*
X+6954519Y+1833387D01*
X+6954519Y+1595613D01*
X+6786387Y+1427481D01*
X+6548613Y+1427481D01*
X+6380481Y+1595613D01*
X+9240519Y+1833387D02*
X+9240519Y+1595613D01*
X+9072387Y+1427481D01*
X+8834613Y+1427481D01*
X+8681719Y+1580375D01*
X+8681719Y+1545519D01*
X+8632619Y+1496419D01*
X+8563181Y+1496419D01*
X+8514081Y+1545519D01*
X+8514081Y+1614957D01*
X+8563181Y+1664057D01*
X+8632619Y+1664057D01*
X+8666481Y+1630195D01*
X+8666481Y+1833387D01*
X+8834613Y+2001519D01*
X+9072387Y+2001519D01*
X+9240519Y+1833387D01*
X+93981Y+1849613D02*
X+93981Y+2087387D01*
X+262113Y+2255519D01*
X+499887Y+2255519D01*
X+668019Y+2087387D01*
X+668019Y+1849613D01*
X+499887Y+1681481D01*
X+262113Y+1681481D01*
X+93981Y+1849613D01*
X-858519Y+1849613D02*
X-858519Y+2087387D01*
X-690387Y+2255519D01*
X-452613Y+2255519D01*
X-284481Y+2087387D01*
X-284481Y+1849613D01*
X-452613Y+1681481D01*
X-690387Y+1681481D01*
X-858519Y+1849613D01*
X+845819Y-5426281D02*
X+845819Y-5495719D01*
X+796719Y-5544819D01*
X+742837Y-5544819D01*
X+680719Y-5606937D01*
X+680719Y-6745245D01*
X+602725Y-6858244D01*
X+582766Y-6868719D01*
X+553760Y-6868719D01*
X+499479Y-6923000D01*
X+553760Y-6977281D01*
X+1334243Y-6977281D01*
X+1313181Y-6956219D01*
X+1313181Y-6886781D01*
X+1362281Y-6837681D01*
X+1431719Y-6837681D01*
X+1480819Y-6886781D01*
X+1480819Y-6956219D01*
X+1459757Y-6977281D01*
X+1554735Y-6977281D01*
X+1554735Y-6923428D01*
X+1603835Y-6874328D01*
X+1673273Y-6874328D01*
X+1722373Y-6923428D01*
X+1722373Y-6992866D01*
X+1673273Y-7041966D01*
X+1619391Y-7041966D01*
X+1592638Y-7068719D01*
X+553760Y-7068719D01*
X+496610Y-7125869D01*
X+411390Y-7125869D01*
X+354000Y-7068479D01*
X+296610Y-7125869D01*
X+211390Y-7125869D01*
X+151131Y-7065610D01*
X+151131Y-6980390D01*
X+208521Y-6923000D01*
X+151131Y-6865610D01*
X+151131Y-6780390D01*
X+208521Y-6723000D01*
X+151131Y-6665610D01*
X+151131Y-6580390D01*
X+208521Y-6523000D01*
X+151131Y-6465610D01*
X+151131Y-6380390D01*
X+208521Y-6323000D01*
X+151131Y-6265610D01*
X+151131Y-6180390D01*
X+208521Y-6123000D01*
X+151131Y-6065610D01*
X+151131Y-5980390D01*
X+208521Y-5923000D01*
X+151131Y-5865610D01*
X+151131Y-5780390D01*
X+211390Y-5720131D01*
X+296610Y-5720131D01*
X+354000Y-5777521D01*
X+411390Y-5720131D01*
X+496610Y-5720131D01*
X+556869Y-5780390D01*
X+556869Y-5865610D01*
X+499479Y-5923000D01*
X+556869Y-5980390D01*
X+556869Y-6065610D01*
X+499479Y-6123000D01*
X+556869Y-6180390D01*
X+556869Y-6265610D01*
X+499479Y-6323000D01*
X+556869Y-6380390D01*
X+556869Y-6465610D01*
X+499479Y-6523000D01*
X+556869Y-6580390D01*
X+556869Y-6665610D01*
X+499479Y-6723000D01*
X+550059Y-6773580D01*
X+589281Y-6716755D01*
X+589281Y-5569063D01*
X+678181Y-5480163D01*
X+678181Y-5426281D01*
X+727281Y-5377181D01*
X+796719Y-5377181D01*
X+845819Y-5426281D01*
X+7005319Y-1679781D02*
X+7005319Y-1749219D01*
X+6956219Y-1798319D01*
X+6886781Y-1798319D01*
X+6874081Y-1785619D01*
X+6442957Y-1785619D01*
X+6357619Y-1870957D01*
X+6357619Y-2447043D01*
X+6738619Y-2828043D01*
X+6738619Y-3018543D01*
X+6774150Y-3054074D01*
X+7513350Y-3054074D01*
X+7536181Y-3031243D01*
X+7536181Y-3013281D01*
X+7585281Y-2964181D01*
X+7654719Y-2964181D01*
X+7703819Y-3013281D01*
X+7703819Y-3082719D01*
X+7654719Y-3131819D01*
X+7636757Y-3131819D01*
X+7572264Y-3196312D01*
X+6870850Y-3196312D01*
X+6878319Y-3203781D01*
X+6878319Y-3273219D01*
X+6835057Y-3316481D01*
X+6839263Y-3316481D01*
X+6888363Y-3365581D01*
X+6888363Y-3435019D01*
X+6875663Y-3447719D01*
X+6875663Y-3652779D01*
X+7735515Y-3652779D01*
X+7821931Y-3566363D01*
X+7821931Y-3304969D01*
X+7790181Y-3273219D01*
X+7790181Y-3203781D01*
X+7839281Y-3154681D01*
X+7908719Y-3154681D01*
X+7957819Y-3203781D01*
X+7957819Y-3273219D01*
X+7926069Y-3304969D01*
X+7926069Y-3609497D01*
X+7882787Y-3652779D01*
X+8724417Y-3652779D01*
X+9193232Y-4121594D01*
X+9193232Y-6453492D01*
X+9231631Y-6453492D01*
X+9231631Y-6443890D01*
X+9289021Y-6386500D01*
X+9231631Y-6329110D01*
X+9231631Y-6243890D01*
X+9289021Y-6186500D01*
X+9231631Y-6129110D01*
X+9231631Y-6043890D01*
X+9291890Y-5983631D01*
X+9377110Y-5983631D01*
X+9437369Y-6043890D01*
X+9437369Y-6129110D01*
X+9379979Y-6186500D01*
X+9437369Y-6243890D01*
X+9437369Y-6329110D01*
X+9379979Y-6386500D01*
X+9437369Y-6443890D01*
X+9437369Y-6529110D01*
X+9377110Y-6589369D01*
X+9291890Y-6589369D01*
X+9247451Y-6544930D01*
X+9183013Y-6544930D01*
X+9157613Y-6570330D01*
X+8430970Y-6570330D01*
X+8408619Y-6592681D01*
X+8408619Y-6639140D01*
X+8437500Y-6668021D01*
X+8494890Y-6610631D01*
X+8580110Y-6610631D01*
X+8640369Y-6670890D01*
X+8640369Y-6756110D01*
X+8580110Y-6816369D01*
X+8494890Y-6816369D01*
X+8437500Y-6758979D01*
X+8380110Y-6816369D01*
X+8294890Y-6816369D01*
X+8237500Y-6758979D01*
X+8180110Y-6816369D01*
X+8094890Y-6816369D01*
X+8037500Y-6758979D01*
X+7980110Y-6816369D01*
X+7894890Y-6816369D01*
X+7837500Y-6758979D01*
X+7780110Y-6816369D01*
X+7694890Y-6816369D01*
X+7637500Y-6758979D01*
X+7580110Y-6816369D01*
X+7494890Y-6816369D01*
X+7434631Y-6756110D01*
X+7434631Y-6670890D01*
X+7494890Y-6610631D01*
X+7580110Y-6610631D01*
X+7637500Y-6668021D01*
X+7694890Y-6610631D01*
X+7780110Y-6610631D01*
X+7837500Y-6668021D01*
X+7894890Y-6610631D01*
X+7980110Y-6610631D01*
X+8037500Y-6668021D01*
X+8094890Y-6610631D01*
X+8180110Y-6610631D01*
X+8237500Y-6668021D01*
X+8266381Y-6639140D01*
X+8266381Y-6533766D01*
X+8372055Y-6428092D01*
X+9050994Y-6428092D01*
X+9050994Y-4180508D01*
X+8665503Y-3795017D01*
X+5753946Y-3795017D01*
X+5445439Y-3486510D01*
X+5427477Y-3486510D01*
X+5378377Y-3437410D01*
X+5378377Y-3367972D01*
X+5389128Y-3357221D01*
X+5370404Y-3357221D01*
X+5321304Y-3308121D01*
X+5321304Y-3238683D01*
X+5370404Y-3189583D01*
X+5439842Y-3189583D01*
X+5488942Y-3238683D01*
X+5488942Y-3308121D01*
X+5478191Y-3318872D01*
X+5496915Y-3318872D01*
X+5546015Y-3367972D01*
X+5546015Y-3385934D01*
X+5812860Y-3652779D01*
X+6733425Y-3652779D01*
X+6733425Y-3447719D01*
X+6720725Y-3435019D01*
X+6720725Y-3365581D01*
X+6763987Y-3322319D01*
X+6759781Y-3322319D01*
X+6710681Y-3273219D01*
X+6710681Y-3203781D01*
X+6718150Y-3196312D01*
X+6715236Y-3196312D01*
X+6596381Y-3077457D01*
X+6596381Y-2886957D01*
X+6257043Y-2547619D01*
X+5698919Y-2547619D01*
X+5686219Y-2560319D01*
X+5616781Y-2560319D01*
X+5567681Y-2511219D01*
X+5567681Y-2441781D01*
X+5616781Y-2392681D01*
X+5686219Y-2392681D01*
X+5698919Y-2405381D01*
X+6215381Y-2405381D01*
X+6215381Y-1812042D01*
X+6384043Y-1643381D01*
X+6874081Y-1643381D01*
X+6886781Y-1630681D01*
X+6956219Y-1630681D01*
X+7005319Y-1679781D01*
X+2738119Y-71239D02*
X+2738119Y-182761D01*
X+2654978Y-265902D01*
X+2444043Y-265902D01*
X+2440716Y-269229D01*
X+2278382Y-269229D01*
X+2278382Y-754261D01*
X+2199524Y-833119D01*
X+1722239Y-833119D01*
X+1643381Y-754261D01*
X+1643381Y-642739D01*
X+1722239Y-563881D01*
X+2009144Y-563881D01*
X+2009144Y-192034D01*
X+1983307Y-166197D01*
X+2052151Y+9D01*
X+2329194Y+9D01*
X+2332521Y+3336D01*
X+2543456Y+3336D01*
X+2547739Y+7619D01*
X+2659261Y+7619D01*
X+2738119Y-71239D01*
X+3141981Y+1140031D02*
X+3141981Y+1209469D01*
X+3191081Y+1258569D01*
X+3260519Y+1258569D01*
X+3309619Y+1209469D01*
X+3309619Y+1140031D01*
X+3260519Y+1090931D01*
X+3191081Y+1090931D01*
X+3141981Y+1140031D01*
X+3395981Y+1140031D02*
X+3395981Y+1209469D01*
X+3445081Y+1258569D01*
X+3514519Y+1258569D01*
X+3563619Y+1209469D01*
X+3563619Y+1140031D01*
X+3514519Y+1090931D01*
X+3445081Y+1090931D01*
X+3395981Y+1140031D01*
X+5173981Y+1140031D02*
X+5173981Y+1209469D01*
X+5223081Y+1258569D01*
X+5292519Y+1258569D01*
X+5341619Y+1209469D01*
X+5341619Y+1140031D01*
X+5292519Y+1090931D01*
X+5223081Y+1090931D01*
X+5173981Y+1140031D01*
X+5427981Y+1140031D02*
X+5427981Y+1209469D01*
X+5477081Y+1258569D01*
X+5546519Y+1258569D01*
X+5595619Y+1209469D01*
X+5595619Y+1140031D01*
X+5546519Y+1090931D01*
X+5477081Y+1090931D01*
X+5427981Y+1140031D01*
X+5681981Y+1140031D02*
X+5681981Y+1209469D01*
X+5731081Y+1258569D01*
X+5800519Y+1258569D01*
X+5849619Y+1209469D01*
X+5849619Y+1140031D01*
X+5800519Y+1090931D01*
X+5731081Y+1090931D01*
X+5681981Y+1140031D01*
X+7459981Y+1140031D02*
X+7459981Y+1209469D01*
X+7509081Y+1258569D01*
X+7578519Y+1258569D01*
X+7627619Y+1209469D01*
X+7627619Y+1140031D01*
X+7578519Y+1090931D01*
X+7509081Y+1090931D01*
X+7459981Y+1140031D01*
X+7713981Y+1140031D02*
X+7713981Y+1209469D01*
X+7763081Y+1258569D01*
X+7832519Y+1258569D01*
X+7881619Y+1209469D01*
X+7881619Y+1140031D01*
X+7832519Y+1090931D01*
X+7763081Y+1090931D01*
X+7713981Y+1140031D01*
X+7967981Y+1140031D02*
X+7967981Y+1209469D01*
X+8017081Y+1258569D01*
X+8086519Y+1258569D01*
X+8135619Y+1209469D01*
X+8135619Y+1140031D01*
X+8086519Y+1090931D01*
X+8017081Y+1090931D01*
X+7967981Y+1140031D01*
X+3014981Y+1360001D02*
X+3014981Y+1429439D01*
X+3064081Y+1478539D01*
X+3133519Y+1478539D01*
X+3182619Y+1429439D01*
X+3182619Y+1360001D01*
X+3133519Y+1310901D01*
X+3064081Y+1310901D01*
X+3014981Y+1360001D01*
X+3268981Y+1360001D02*
X+3268981Y+1429439D01*
X+3318081Y+1478539D01*
X+3387519Y+1478539D01*
X+3436619Y+1429439D01*
X+3436619Y+1360001D01*
X+3387519Y+1310901D01*
X+3318081Y+1310901D01*
X+3268981Y+1360001D01*
X+4792981Y+1360001D02*
X+4792981Y+1429439D01*
X+4842081Y+1478539D01*
X+4911519Y+1478539D01*
X+4960619Y+1429439D01*
X+4960619Y+1360001D01*
X+4911519Y+1310901D01*
X+4842081Y+1310901D01*
X+4792981Y+1360001D01*
X+5046981Y+1360001D02*
X+5046981Y+1429439D01*
X+5096081Y+1478539D01*
X+5165519Y+1478539D01*
X+5214619Y+1429439D01*
X+5214619Y+1360001D01*
X+5165519Y+1310901D01*
X+5096081Y+1310901D01*
X+5046981Y+1360001D01*
X+5300981Y+1360001D02*
X+5300981Y+1429439D01*
X+5350081Y+1478539D01*
X+5419519Y+1478539D01*
X+5468619Y+1429439D01*
X+5468619Y+1360001D01*
X+5419519Y+1310901D01*
X+5350081Y+1310901D01*
X+5300981Y+1360001D01*
X+5554981Y+1360001D02*
X+5554981Y+1429439D01*
X+5604081Y+1478539D01*
X+5673519Y+1478539D01*
X+5722619Y+1429439D01*
X+5722619Y+1360001D01*
X+5673519Y+1310901D01*
X+5604081Y+1310901D01*
X+5554981Y+1360001D01*
X+7078981Y+1360001D02*
X+7078981Y+1429439D01*
X+7128081Y+1478539D01*
X+7197519Y+1478539D01*
X+7246619Y+1429439D01*
X+7246619Y+1360001D01*
X+7197519Y+1310901D01*
X+7128081Y+1310901D01*
X+7078981Y+1360001D01*
X+7332981Y+1360001D02*
X+7332981Y+1429439D01*
X+7382081Y+1478539D01*
X+7451519Y+1478539D01*
X+7500619Y+1429439D01*
X+7500619Y+1360001D01*
X+7451519Y+1310901D01*
X+7382081Y+1310901D01*
X+7332981Y+1360001D01*
X+7586981Y+1360001D02*
X+7586981Y+1429439D01*
X+7636081Y+1478539D01*
X+7705519Y+1478539D01*
X+7754619Y+1429439D01*
X+7754619Y+1360001D01*
X+7705519Y+1310901D01*
X+7636081Y+1310901D01*
X+7586981Y+1360001D01*
X+7840981Y+1360001D02*
X+7840981Y+1429439D01*
X+7890081Y+1478539D01*
X+7959519Y+1478539D01*
X+8008619Y+1429439D01*
X+8008619Y+1360001D01*
X+7959519Y+1310901D01*
X+7890081Y+1310901D01*
X+7840981Y+1360001D01*
X+3395981Y+1579971D02*
X+3395981Y+1649409D01*
X+3445081Y+1698509D01*
X+3514519Y+1698509D01*
X+3563619Y+1649409D01*
X+3563619Y+1579971D01*
X+3514519Y+1530871D01*
X+3445081Y+1530871D01*
X+3395981Y+1579971D01*
X+4665981Y+1579971D02*
X+4665981Y+1649409D01*
X+4715081Y+1698509D01*
X+4784519Y+1698509D01*
X+4833619Y+1649409D01*
X+4833619Y+1579971D01*
X+4784519Y+1530871D01*
X+4715081Y+1530871D01*
X+4665981Y+1579971D01*
X+4919981Y+1579971D02*
X+4919981Y+1649409D01*
X+4969081Y+1698509D01*
X+5038519Y+1698509D01*
X+5087619Y+1649409D01*
X+5087619Y+1579971D01*
X+5038519Y+1530871D01*
X+4969081Y+1530871D01*
X+4919981Y+1579971D01*
X+5173981Y+1579971D02*
X+5173981Y+1649409D01*
X+5223081Y+1698509D01*
X+5292519Y+1698509D01*
X+5341619Y+1649409D01*
X+5341619Y+1579971D01*
X+5292519Y+1530871D01*
X+5223081Y+1530871D01*
X+5173981Y+1579971D01*
X+5427981Y+1579971D02*
X+5427981Y+1649409D01*
X+5477081Y+1698509D01*
X+5546519Y+1698509D01*
X+5595619Y+1649409D01*
X+5595619Y+1579971D01*
X+5546519Y+1530871D01*
X+5477081Y+1530871D01*
X+5427981Y+1579971D01*
X+5681981Y+1579971D02*
X+5681981Y+1649409D01*
X+5731081Y+1698509D01*
X+5800519Y+1698509D01*
X+5849619Y+1649409D01*
X+5849619Y+1579971D01*
X+5800519Y+1530871D01*
X+5731081Y+1530871D01*
X+5681981Y+1579971D01*
X+7205981Y+1579971D02*
X+7205981Y+1649409D01*
X+7255081Y+1698509D01*
X+7324519Y+1698509D01*
X+7373619Y+1649409D01*
X+7373619Y+1579971D01*
X+7324519Y+1530871D01*
X+7255081Y+1530871D01*
X+7205981Y+1579971D01*
X+7459981Y+1579971D02*
X+7459981Y+1649409D01*
X+7509081Y+1698509D01*
X+7578519Y+1698509D01*
X+7627619Y+1649409D01*
X+7627619Y+1579971D01*
X+7578519Y+1530871D01*
X+7509081Y+1530871D01*
X+7459981Y+1579971D01*
X+7713981Y+1579971D02*
X+7713981Y+1649409D01*
X+7763081Y+1698509D01*
X+7832519Y+1698509D01*
X+7881619Y+1649409D01*
X+7881619Y+1579971D01*
X+7832519Y+1530871D01*
X+7763081Y+1530871D01*
X+7713981Y+1579971D01*
X+7967981Y+1579971D02*
X+7967981Y+1649409D01*
X+8017081Y+1698509D01*
X+8086519Y+1698509D01*
X+8135619Y+1649409D01*
X+8135619Y+1579971D01*
X+8086519Y+1530871D01*
X+8017081Y+1530871D01*
X+7967981Y+1579971D01*
X+3268981Y+1799941D02*
X+3268981Y+1869379D01*
X+3318081Y+1918479D01*
X+3387519Y+1918479D01*
X+3436619Y+1869379D01*
X+3436619Y+1799941D01*
X+3387519Y+1750841D01*
X+3318081Y+1750841D01*
X+3268981Y+1799941D01*
X+4792981Y+1799941D02*
X+4792981Y+1869379D01*
X+4842081Y+1918479D01*
X+4911519Y+1918479D01*
X+4960619Y+1869379D01*
X+4960619Y+1799941D01*
X+4911519Y+1750841D01*
X+4842081Y+1750841D01*
X+4792981Y+1799941D01*
X+5046981Y+1799941D02*
X+5046981Y+1869379D01*
X+5096081Y+1918479D01*
X+5165519Y+1918479D01*
X+5214619Y+1869379D01*
X+5214619Y+1799941D01*
X+5165519Y+1750841D01*
X+5096081Y+1750841D01*
X+5046981Y+1799941D01*
X+5300981Y+1799941D02*
X+5300981Y+1869379D01*
X+5350081Y+1918479D01*
X+5419519Y+1918479D01*
X+5468619Y+1869379D01*
X+5468619Y+1799941D01*
X+5419519Y+1750841D01*
X+5350081Y+1750841D01*
X+5300981Y+1799941D01*
X+5554981Y+1799941D02*
X+5554981Y+1869379D01*
X+5604081Y+1918479D01*
X+5673519Y+1918479D01*
X+5722619Y+1869379D01*
X+5722619Y+1799941D01*
X+5673519Y+1750841D01*
X+5604081Y+1750841D01*
X+5554981Y+1799941D01*
X+7078981Y+1799941D02*
X+7078981Y+1869379D01*
X+7128081Y+1918479D01*
X+7197519Y+1918479D01*
X+7246619Y+1869379D01*
X+7246619Y+1799941D01*
X+7197519Y+1750841D01*
X+7128081Y+1750841D01*
X+7078981Y+1799941D01*
X+7332981Y+1799941D02*
X+7332981Y+1869379D01*
X+7382081Y+1918479D01*
X+7451519Y+1918479D01*
X+7500619Y+1869379D01*
X+7500619Y+1799941D01*
X+7451519Y+1750841D01*
X+7382081Y+1750841D01*
X+7332981Y+1799941D01*
X+7586981Y+1799941D02*
X+7586981Y+1869379D01*
X+7636081Y+1918479D01*
X+7705519Y+1918479D01*
X+7754619Y+1869379D01*
X+7754619Y+1799941D01*
X+7705519Y+1750841D01*
X+7636081Y+1750841D01*
X+7586981Y+1799941D01*
X+7840981Y+1799941D02*
X+7840981Y+1869379D01*
X+7890081Y+1918479D01*
X+7959519Y+1918479D01*
X+8008619Y+1869379D01*
X+8008619Y+1799941D01*
X+7959519Y+1750841D01*
X+7890081Y+1750841D01*
X+7840981Y+1799941D01*
X+3395981Y+2019911D02*
X+3395981Y+2089349D01*
X+3445081Y+2138449D01*
X+3514519Y+2138449D01*
X+3563619Y+2089349D01*
X+3563619Y+2019911D01*
X+3514519Y+1970811D01*
X+3445081Y+1970811D01*
X+3395981Y+2019911D01*
X+4665981Y+2019911D02*
X+4665981Y+2089349D01*
X+4715081Y+2138449D01*
X+4784519Y+2138449D01*
X+4833619Y+2089349D01*
X+4833619Y+2019911D01*
X+4784519Y+1970811D01*
X+4715081Y+1970811D01*
X+4665981Y+2019911D01*
X+4919981Y+2019911D02*
X+4919981Y+2089349D01*
X+4969081Y+2138449D01*
X+5038519Y+2138449D01*
X+5087619Y+2089349D01*
X+5087619Y+2019911D01*
X+5038519Y+1970811D01*
X+4969081Y+1970811D01*
X+4919981Y+2019911D01*
X+5173981Y+2019911D02*
X+5173981Y+2089349D01*
X+5223081Y+2138449D01*
X+5292519Y+2138449D01*
X+5341619Y+2089349D01*
X+5341619Y+2019911D01*
X+5292519Y+1970811D01*
X+5223081Y+1970811D01*
X+5173981Y+2019911D01*
X+5427981Y+2019911D02*
X+5427981Y+2089349D01*
X+5477081Y+2138449D01*
X+5546519Y+2138449D01*
X+5595619Y+2089349D01*
X+5595619Y+2019911D01*
X+5546519Y+1970811D01*
X+5477081Y+1970811D01*
X+5427981Y+2019911D01*
X+5681981Y+2019911D02*
X+5681981Y+2089349D01*
X+5731081Y+2138449D01*
X+5800519Y+2138449D01*
X+5849619Y+2089349D01*
X+5849619Y+2019911D01*
X+5800519Y+1970811D01*
X+5731081Y+1970811D01*
X+5681981Y+2019911D01*
X+7205981Y+2019911D02*
X+7205981Y+2089349D01*
X+7255081Y+2138449D01*
X+7324519Y+2138449D01*
X+7373619Y+2089349D01*
X+7373619Y+2019911D01*
X+7324519Y+1970811D01*
X+7255081Y+1970811D01*
X+7205981Y+2019911D01*
X+7459981Y+2019911D02*
X+7459981Y+2089349D01*
X+7509081Y+2138449D01*
X+7578519Y+2138449D01*
X+7627619Y+2089349D01*
X+7627619Y+2019911D01*
X+7578519Y+1970811D01*
X+7509081Y+1970811D01*
X+7459981Y+2019911D01*
X+7713981Y+2019911D02*
X+7713981Y+2089349D01*
X+7763081Y+2138449D01*
X+7832519Y+2138449D01*
X+7881619Y+2089349D01*
X+7881619Y+2019911D01*
X+7832519Y+1970811D01*
X+7763081Y+1970811D01*
X+7713981Y+2019911D01*
X+7967981Y+2019911D02*
X+7967981Y+2089349D01*
X+8017081Y+2138449D01*
X+8086519Y+2138449D01*
X+8135619Y+2089349D01*
X+8135619Y+2019911D01*
X+8086519Y+1970811D01*
X+8017081Y+1970811D01*
X+7967981Y+2019911D01*
X+5377181Y-1708349D02*
X+5377181Y-1638911D01*
X+5426281Y-1589811D01*
X+5495719Y-1589811D01*
X+5544819Y-1638911D01*
X+5544819Y-1708349D01*
X+5495719Y-1757449D01*
X+5426281Y-1757449D01*
X+5377181Y-1708349D01*
X+5478781Y-1532373D02*
X+5478781Y-1462935D01*
X+5527881Y-1413835D01*
X+5597319Y-1413835D01*
X+5646419Y-1462935D01*
X+5646419Y-1532373D01*
X+5597319Y-1581473D01*
X+5527881Y-1581473D01*
X+5478781Y-1532373D01*
X+5377181Y-1356397D02*
X+5377181Y-1286959D01*
X+5426281Y-1237859D01*
X+5495719Y-1237859D01*
X+5544819Y-1286959D01*
X+5544819Y-1356397D01*
X+5495719Y-1405497D01*
X+5426281Y-1405497D01*
X+5377181Y-1356397D01*
X+5478781Y-1180421D02*
X+5478781Y-1110983D01*
X+5527881Y-1061883D01*
X+5597319Y-1061883D01*
X+5646419Y-1110983D01*
X+5646419Y-1180421D01*
X+5597319Y-1229521D01*
X+5527881Y-1229521D01*
X+5478781Y-1180421D01*
X+5478781Y-828469D02*
X+5478781Y-759031D01*
X+5527881Y-709931D01*
X+5597319Y-709931D01*
X+5646419Y-759031D01*
X+5646419Y-828469D01*
X+5597319Y-877569D01*
X+5527881Y-877569D01*
X+5478781Y-828469D01*
X+5681981Y-828469D02*
X+5681981Y-759031D01*
X+5731081Y-709931D01*
X+5800519Y-709931D01*
X+5849619Y-759031D01*
X+5849619Y-828469D01*
X+5800519Y-877569D01*
X+5731081Y-877569D01*
X+5681981Y-828469D01*
X+5885181Y-828469D02*
X+5885181Y-759031D01*
X+5934281Y-709931D01*
X+6003719Y-709931D01*
X+6052819Y-759031D01*
X+6052819Y-828469D01*
X+6003719Y-877569D01*
X+5934281Y-877569D01*
X+5885181Y-828469D01*
X+6291581Y-828469D02*
X+6291581Y-759031D01*
X+6340681Y-709931D01*
X+6410119Y-709931D01*
X+6459219Y-759031D01*
X+6459219Y-828469D01*
X+6410119Y-877569D01*
X+6340681Y-877569D01*
X+6291581Y-828469D01*
X+6494781Y-828469D02*
X+6494781Y-759031D01*
X+6543881Y-709931D01*
X+6613319Y-709931D01*
X+6662419Y-759031D01*
X+6662419Y-828469D01*
X+6613319Y-877569D01*
X+6543881Y-877569D01*
X+6494781Y-828469D01*
X+7005319Y-600281D02*
X+7005319Y-669719D01*
X+6992619Y-682419D01*
X+6992619Y-880307D01*
X+6854532Y-1018394D01*
X+6854532Y-1154930D01*
X+6886781Y-1122681D01*
X+6956219Y-1122681D01*
X+7005319Y-1171781D01*
X+7005319Y-1207703D01*
X+7297419Y-1499803D01*
X+7297419Y-2733881D01*
X+7322819Y-2759281D01*
X+7322819Y-2828719D01*
X+7273719Y-2877819D01*
X+7204281Y-2877819D01*
X+7155181Y-2828719D01*
X+7155181Y-2759281D01*
X+7180581Y-2733881D01*
X+7180581Y-2063996D01*
X+7141457Y-2103119D01*
X+6923761Y-2320815D01*
X+6923761Y-2899669D01*
X+6936461Y-2912369D01*
X+6936461Y-2981807D01*
X+6887361Y-3030907D01*
X+6817923Y-3030907D01*
X+6768823Y-2981807D01*
X+6768823Y-2912369D01*
X+6781523Y-2899669D01*
X+6781523Y-2261901D01*
X+7040881Y-2002543D01*
X+7040881Y-1680457D01*
X+6712294Y-1351870D01*
X+6712294Y-1060056D01*
X+5467980Y-1060056D01*
X+5317243Y-909319D01*
X+5299281Y-909319D01*
X+5250181Y-860219D01*
X+5250181Y-790781D01*
X+5299281Y-741681D01*
X+5368719Y-741681D01*
X+5417819Y-790781D01*
X+5417819Y-808743D01*
X+5526894Y-917818D01*
X+6753956Y-917818D01*
X+6794205Y-877569D01*
X+6747081Y-877569D01*
X+6697981Y-828469D01*
X+6697981Y-759031D01*
X+6747081Y-709931D01*
X+6816519Y-709931D01*
X+6850381Y-743793D01*
X+6850381Y-682419D01*
X+6837681Y-669719D01*
X+6837681Y-600281D01*
X+6886781Y-551181D01*
X+6956219Y-551181D01*
X+7005319Y-600281D01*
X+6393181Y-652493D02*
X+6393181Y-583055D01*
X+6442281Y-533955D01*
X+6511719Y-533955D01*
X+6560819Y-583055D01*
X+6560819Y-652493D01*
X+6511719Y-701593D01*
X+6442281Y-701593D01*
X+6393181Y-652493D01*
X+6596381Y-652493D02*
X+6596381Y-583055D01*
X+6645481Y-533955D01*
X+6714919Y-533955D01*
X+6764019Y-583055D01*
X+6764019Y-652493D01*
X+6714919Y-701593D01*
X+6645481Y-701593D01*
X+6596381Y-652493D01*
X+6697981Y-476517D02*
X+6697981Y-407079D01*
X+6747081Y-357979D01*
X+6816519Y-357979D01*
X+6865619Y-407079D01*
X+6865619Y-476517D01*
X+6816519Y-525617D01*
X+6747081Y-525617D01*
X+6697981Y-476517D01*
X+5580381Y-300541D02*
X+5580381Y-231103D01*
X+5629481Y-182003D01*
X+5698919Y-182003D01*
X+5748019Y-231103D01*
X+5748019Y-300541D01*
X+5698919Y-349641D01*
X+5629481Y-349641D01*
X+5580381Y-300541D01*
X+5783581Y-300541D02*
X+5783581Y-231103D01*
X+5832681Y-182003D01*
X+5902119Y-182003D01*
X+5951219Y-231103D01*
X+5951219Y-300541D01*
X+5902119Y-349641D01*
X+5832681Y-349641D01*
X+5783581Y-300541D01*
X+5986781Y-300541D02*
X+5986781Y-231103D01*
X+6035881Y-182003D01*
X+6105319Y-182003D01*
X+6154419Y-231103D01*
X+6154419Y-300541D01*
X+6105319Y-349641D01*
X+6035881Y-349641D01*
X+5986781Y-300541D01*
X+6189981Y-300541D02*
X+6189981Y-231103D01*
X+6239081Y-182003D01*
X+6308519Y-182003D01*
X+6357619Y-231103D01*
X+6357619Y-300541D01*
X+6308519Y-349641D01*
X+6239081Y-349641D01*
X+6189981Y-300541D01*
X+6393181Y-300541D02*
X+6393181Y-231103D01*
X+6442281Y-182003D01*
X+6511719Y-182003D01*
X+6560819Y-231103D01*
X+6560819Y-300541D01*
X+6511719Y-349641D01*
X+6442281Y-349641D01*
X+6393181Y-300541D01*
X+5478781Y-124565D02*
X+5478781Y-55127D01*
X+5527881Y-6027D01*
X+5597319Y-6027D01*
X+5646419Y-55127D01*
X+5646419Y-124565D01*
X+5597319Y-173665D01*
X+5527881Y-173665D01*
X+5478781Y-124565D01*
X+5681981Y-124565D02*
X+5681981Y-55127D01*
X+5731081Y-6027D01*
X+5800519Y-6027D01*
X+5849619Y-55127D01*
X+5849619Y-124565D01*
X+5800519Y-173665D01*
X+5731081Y-173665D01*
X+5681981Y-124565D01*
X+5885181Y-124565D02*
X+5885181Y-55127D01*
X+5934281Y-6027D01*
X+6003719Y-6027D01*
X+6052819Y-55127D01*
X+6052819Y-124565D01*
X+6003719Y-173665D01*
X+5934281Y-173665D01*
X+5885181Y-124565D01*
X+6088381Y-124565D02*
X+6088381Y-55127D01*
X+6137481Y-6027D01*
X+6206919Y-6027D01*
X+6256019Y-55127D01*
X+6256019Y-124565D01*
X+6206919Y-173665D01*
X+6137481Y-173665D01*
X+6088381Y-124565D01*
X+6291581Y-124565D02*
X+6291581Y-55127D01*
X+6340681Y-6027D01*
X+6410119Y-6027D01*
X+6459219Y-55127D01*
X+6459219Y-124565D01*
X+6410119Y-173665D01*
X+6340681Y-173665D01*
X+6291581Y-124565D01*
X+6697981Y-124565D02*
X+6697981Y-55127D01*
X+6747081Y-6027D01*
X+6816519Y-6027D01*
X+6865619Y-55127D01*
X+6865619Y-124565D01*
X+6816519Y-173665D01*
X+6747081Y-173665D01*
X+6697981Y-124565D01*
X+7663181Y-1708349D02*
X+7663181Y-1638911D01*
X+7712281Y-1589811D01*
X+7781719Y-1589811D01*
X+7830819Y-1638911D01*
X+7830819Y-1708349D01*
X+7781719Y-1757449D01*
X+7712281Y-1757449D01*
X+7663181Y-1708349D01*
X+7764781Y-1532373D02*
X+7764781Y-1462935D01*
X+7813881Y-1413835D01*
X+7883319Y-1413835D01*
X+7932419Y-1462935D01*
X+7932419Y-1532373D01*
X+7883319Y-1581473D01*
X+7813881Y-1581473D01*
X+7764781Y-1532373D01*
X+7663181Y-1356397D02*
X+7663181Y-1286959D01*
X+7712281Y-1237859D01*
X+7781719Y-1237859D01*
X+7830819Y-1286959D01*
X+7830819Y-1356397D01*
X+7781719Y-1405497D01*
X+7712281Y-1405497D01*
X+7663181Y-1356397D01*
X+7764781Y-1180421D02*
X+7764781Y-1110983D01*
X+7813881Y-1061883D01*
X+7883319Y-1061883D01*
X+7932419Y-1110983D01*
X+7932419Y-1180421D01*
X+7883319Y-1229521D01*
X+7813881Y-1229521D01*
X+7764781Y-1180421D01*
X+7663181Y-1004445D02*
X+7663181Y-935007D01*
X+7712281Y-885907D01*
X+7781719Y-885907D01*
X+7830819Y-935007D01*
X+7830819Y-1004445D01*
X+7781719Y-1053545D01*
X+7712281Y-1053545D01*
X+7663181Y-1004445D01*
X+7764781Y-828469D02*
X+7764781Y-759031D01*
X+7813881Y-709931D01*
X+7883319Y-709931D01*
X+7932419Y-759031D01*
X+7932419Y-828469D01*
X+7883319Y-877569D01*
X+7813881Y-877569D01*
X+7764781Y-828469D01*
X+7967981Y-828469D02*
X+7967981Y-759031D01*
X+8017081Y-709931D01*
X+8086519Y-709931D01*
X+8135619Y-759031D01*
X+8135619Y-828469D01*
X+8086519Y-877569D01*
X+8017081Y-877569D01*
X+7967981Y-828469D01*
X+8171181Y-828469D02*
X+8171181Y-759031D01*
X+8220281Y-709931D01*
X+8289719Y-709931D01*
X+8338819Y-759031D01*
X+8338819Y-828469D01*
X+8289719Y-877569D01*
X+8220281Y-877569D01*
X+8171181Y-828469D01*
X+8745219Y-759031D02*
X+8745219Y-805181D01*
X+8797719Y-805181D01*
X+8846819Y-854281D01*
X+8846819Y-923719D01*
X+8821419Y-949119D01*
X+8821419Y-1210271D01*
X+7794211Y-2237479D01*
X+7794211Y-2376778D01*
X+7917181Y-2499748D01*
X+7917181Y-2441781D01*
X+7966281Y-2392681D01*
X+8035719Y-2392681D01*
X+8048419Y-2405381D01*
X+9003916Y-2405381D01*
X+9321416Y-2087881D01*
X+9414081Y-2087881D01*
X+9426781Y-2075181D01*
X+9496219Y-2075181D01*
X+9545319Y-2124281D01*
X+9545319Y-2193719D01*
X+9496219Y-2242819D01*
X+9426781Y-2242819D01*
X+9414081Y-2230119D01*
X+9380330Y-2230119D01*
X+9088119Y-2522331D01*
X+9088119Y-2873581D01*
X+9100819Y-2886281D01*
X+9100819Y-2955719D01*
X+9051719Y-3004819D01*
X+8982281Y-3004819D01*
X+8933181Y-2955719D01*
X+8933181Y-2886281D01*
X+8945881Y-2873581D01*
X+8945881Y-2547619D01*
X+8048419Y-2547619D01*
X+8035719Y-2560319D01*
X+7977752Y-2560319D01*
X+8153014Y-2735581D01*
X+8575881Y-2735581D01*
X+8601281Y-2710181D01*
X+8670719Y-2710181D01*
X+8719819Y-2759281D01*
X+8719819Y-2828719D01*
X+8670719Y-2877819D01*
X+8601281Y-2877819D01*
X+8575881Y-2852419D01*
X+8104620Y-2852419D01*
X+7677373Y-2425172D01*
X+7677373Y-2189085D01*
X+8704581Y-1161877D01*
X+8704581Y-949119D01*
X+8679181Y-923719D01*
X+8679181Y-877569D01*
X+8626681Y-877569D01*
X+8577581Y-828469D01*
X+8577581Y-759031D01*
X+8626681Y-709931D01*
X+8696119Y-709931D01*
X+8745219Y-759031D01*
X+8920824Y-418995D02*
X+9031000Y-529171D01*
X+9031000Y-721576D01*
X+8973819Y-778757D01*
X+8973819Y-796719D01*
X+8924719Y-845819D01*
X+8855281Y-845819D01*
X+8806181Y-796719D01*
X+8806181Y-727281D01*
X+8855281Y-678181D01*
X+8873243Y-678181D01*
X+8888762Y-662662D01*
X+8888762Y-588085D01*
X+8841079Y-540402D01*
X+8804166Y-540402D01*
X+8846819Y-583055D01*
X+8846819Y-652493D01*
X+8797719Y-701593D01*
X+8728281Y-701593D01*
X+8679181Y-652493D01*
X+8679181Y-583055D01*
X+8721834Y-540402D01*
X+7688174Y-540402D01*
X+7627619Y-600957D01*
X+7627619Y-714581D01*
X+7640319Y-727281D01*
X+7640319Y-796719D01*
X+7627619Y-809419D01*
X+7627619Y-2388248D01*
X+8108906Y-2869535D01*
X+8143395Y-2900681D01*
X+8162719Y-2900681D01*
X+8211819Y-2949781D01*
X+8211819Y-3019219D01*
X+8162719Y-3068319D01*
X+8093281Y-3068319D01*
X+8044181Y-3019219D01*
X+8044181Y-3004160D01*
X+8010418Y-2972199D01*
X+7485381Y-2447162D01*
X+7485381Y-809419D01*
X+7472681Y-796719D01*
X+7472681Y-727281D01*
X+7485381Y-714581D01*
X+7485381Y-542043D01*
X+7629260Y-398164D01*
X+8899993Y-398164D01*
X+8920824Y-418995D01*
X+7866381Y-300541D02*
X+7866381Y-231103D01*
X+7915481Y-182003D01*
X+7984919Y-182003D01*
X+8034019Y-231103D01*
X+8034019Y-300541D01*
X+7984919Y-349641D01*
X+7915481Y-349641D01*
X+7866381Y-300541D01*
X+8069581Y-300541D02*
X+8069581Y-231103D01*
X+8118681Y-182003D01*
X+8188119Y-182003D01*
X+8237219Y-231103D01*
X+8237219Y-300541D01*
X+8188119Y-349641D01*
X+8118681Y-349641D01*
X+8069581Y-300541D01*
X+8272781Y-300541D02*
X+8272781Y-231103D01*
X+8321881Y-182003D01*
X+8391319Y-182003D01*
X+8440419Y-231103D01*
X+8440419Y-300541D01*
X+8391319Y-349641D01*
X+8321881Y-349641D01*
X+8272781Y-300541D01*
X+8475981Y-300541D02*
X+8475981Y-231103D01*
X+8525081Y-182003D01*
X+8594519Y-182003D01*
X+8643619Y-231103D01*
X+8643619Y-300541D01*
X+8594519Y-349641D01*
X+8525081Y-349641D01*
X+8475981Y-300541D01*
X+8679181Y-300541D02*
X+8679181Y-231103D01*
X+8728281Y-182003D01*
X+8797719Y-182003D01*
X+8846819Y-231103D01*
X+8846819Y-300541D01*
X+8797719Y-349641D01*
X+8728281Y-349641D01*
X+8679181Y-300541D01*
X+7764781Y-124565D02*
X+7764781Y-55127D01*
X+7813881Y-6027D01*
X+7883319Y-6027D01*
X+7932419Y-55127D01*
X+7932419Y-124565D01*
X+7883319Y-173665D01*
X+7813881Y-173665D01*
X+7764781Y-124565D01*
X+7967981Y-124565D02*
X+7967981Y-55127D01*
X+8017081Y-6027D01*
X+8086519Y-6027D01*
X+8135619Y-55127D01*
X+8135619Y-124565D01*
X+8086519Y-173665D01*
X+8017081Y-173665D01*
X+7967981Y-124565D01*
X+8171181Y-124565D02*
X+8171181Y-55127D01*
X+8220281Y-6027D01*
X+8289719Y-6027D01*
X+8338819Y-55127D01*
X+8338819Y-124565D01*
X+8289719Y-173665D01*
X+8220281Y-173665D01*
X+8171181Y-124565D01*
X+8374381Y-124565D02*
X+8374381Y-55127D01*
X+8423481Y-6027D01*
X+8492919Y-6027D01*
X+8542019Y-55127D01*
X+8542019Y-124565D01*
X+8492919Y-173665D01*
X+8423481Y-173665D01*
X+8374381Y-124565D01*
X+8577581Y-124565D02*
X+8577581Y-55127D01*
X+8626681Y-6027D01*
X+8696119Y-6027D01*
X+8745219Y-55127D01*
X+8745219Y-124565D01*
X+8696119Y-173665D01*
X+8626681Y-173665D01*
X+8577581Y-124565D01*
X+3129281Y-1532373D02*
X+3129281Y-1462935D01*
X+3178381Y-1413835D01*
X+3247819Y-1413835D01*
X+3296919Y-1462935D01*
X+3296919Y-1532373D01*
X+3247819Y-1581473D01*
X+3178381Y-1581473D01*
X+3129281Y-1532373D01*
X+3027681Y-1356397D02*
X+3027681Y-1286959D01*
X+3076781Y-1237859D01*
X+3146219Y-1237859D01*
X+3195319Y-1286959D01*
X+3195319Y-1356397D01*
X+3146219Y-1405497D01*
X+3076781Y-1405497D01*
X+3027681Y-1356397D01*
X+3129281Y-1180421D02*
X+3129281Y-1110983D01*
X+3178381Y-1061883D01*
X+3247819Y-1061883D01*
X+3296919Y-1110983D01*
X+3296919Y-1180421D01*
X+3247819Y-1229521D01*
X+3178381Y-1229521D01*
X+3129281Y-1180421D01*
X+3027681Y-1004445D02*
X+3027681Y-935007D01*
X+3076781Y-885907D01*
X+3146219Y-885907D01*
X+3195319Y-935007D01*
X+3195319Y-1004445D01*
X+3146219Y-1053545D01*
X+3076781Y-1053545D01*
X+3027681Y-1004445D01*
X+3129281Y-828469D02*
X+3129281Y-759031D01*
X+3178381Y-709931D01*
X+3247819Y-709931D01*
X+3296919Y-759031D01*
X+3296919Y-828469D01*
X+3247819Y-877569D01*
X+3178381Y-877569D01*
X+3129281Y-828469D01*
X+3332481Y-828469D02*
X+3332481Y-759031D01*
X+3381581Y-709931D01*
X+3451019Y-709931D01*
X+3500119Y-759031D01*
X+3500119Y-828469D01*
X+3451019Y-877569D01*
X+3381581Y-877569D01*
X+3332481Y-828469D01*
X+3535681Y-828469D02*
X+3535681Y-759031D01*
X+3584781Y-709931D01*
X+3654219Y-709931D01*
X+3703319Y-759031D01*
X+3703319Y-828469D01*
X+3654219Y-877569D01*
X+3584781Y-877569D01*
X+3535681Y-828469D01*
X+4043681Y-652493D02*
X+4043681Y-583055D01*
X+4092781Y-533955D01*
X+4162219Y-533955D01*
X+4211319Y-583055D01*
X+4211319Y-652493D01*
X+4162219Y-701593D01*
X+4092781Y-701593D01*
X+4043681Y-652493D01*
X+4246881Y-652493D02*
X+4246881Y-583055D01*
X+4295981Y-533955D01*
X+4365419Y-533955D01*
X+4414519Y-583055D01*
X+4414519Y-652493D01*
X+4365419Y-701593D01*
X+4295981Y-701593D01*
X+4246881Y-652493D01*
X+3230881Y-300541D02*
X+3230881Y-231103D01*
X+3279981Y-182003D01*
X+3349419Y-182003D01*
X+3398519Y-231103D01*
X+3398519Y-300541D01*
X+3349419Y-349641D01*
X+3279981Y-349641D01*
X+3230881Y-300541D01*
X+3434081Y-300541D02*
X+3434081Y-231103D01*
X+3483181Y-182003D01*
X+3552619Y-182003D01*
X+3601719Y-231103D01*
X+3601719Y-300541D01*
X+3552619Y-349641D01*
X+3483181Y-349641D01*
X+3434081Y-300541D01*
X+3637281Y-300541D02*
X+3637281Y-231103D01*
X+3686381Y-182003D01*
X+3755819Y-182003D01*
X+3804919Y-231103D01*
X+3804919Y-300541D01*
X+3755819Y-349641D01*
X+3686381Y-349641D01*
X+3637281Y-300541D01*
X+3840481Y-300541D02*
X+3840481Y-231103D01*
X+3889581Y-182003D01*
X+3959019Y-182003D01*
X+4008119Y-231103D01*
X+4008119Y-300541D01*
X+3959019Y-349641D01*
X+3889581Y-349641D01*
X+3840481Y-300541D01*
X+4043681Y-300541D02*
X+4043681Y-231103D01*
X+4092781Y-182003D01*
X+4162219Y-182003D01*
X+4211319Y-231103D01*
X+4211319Y-300541D01*
X+4162219Y-349641D01*
X+4092781Y-349641D01*
X+4043681Y-300541D01*
X+3129281Y-124565D02*
X+3129281Y-55127D01*
X+3178381Y-6027D01*
X+3247819Y-6027D01*
X+3296919Y-55127D01*
X+3296919Y-124565D01*
X+3247819Y-173665D01*
X+3178381Y-173665D01*
X+3129281Y-124565D01*
X+3332481Y-124565D02*
X+3332481Y-55127D01*
X+3381581Y-6027D01*
X+3451019Y-6027D01*
X+3500119Y-55127D01*
X+3500119Y-124565D01*
X+3451019Y-173665D01*
X+3381581Y-173665D01*
X+3332481Y-124565D01*
X+3535681Y-124565D02*
X+3535681Y-55127D01*
X+3584781Y-6027D01*
X+3654219Y-6027D01*
X+3703319Y-55127D01*
X+3703319Y-124565D01*
X+3654219Y-173665D01*
X+3584781Y-173665D01*
X+3535681Y-124565D01*
X+3738881Y-124565D02*
X+3738881Y-55127D01*
X+3787981Y-6027D01*
X+3857419Y-6027D01*
X+3906519Y-55127D01*
X+3906519Y-124565D01*
X+3857419Y-173665D01*
X+3787981Y-173665D01*
X+3738881Y-124565D01*
X+3942081Y-124565D02*
X+3942081Y-55127D01*
X+3991181Y-6027D01*
X+4060619Y-6027D01*
X+4109719Y-55127D01*
X+4109719Y-124565D01*
X+4060619Y-173665D01*
X+3991181Y-173665D01*
X+3942081Y-124565D01*
X+4348481Y-124565D02*
X+4348481Y-55127D01*
X+4397581Y-6027D01*
X+4467019Y-6027D01*
X+4516119Y-55127D01*
X+4516119Y-124565D01*
X+4467019Y-173665D01*
X+4397581Y-173665D01*
X+4348481Y-124565D01*
X+3929381Y+1017591D02*
X+3929381Y+1087029D01*
X+3978481Y+1136129D01*
X+4047919Y+1136129D01*
X+4097019Y+1087029D01*
X+4097019Y+1017591D01*
X+4047919Y+968491D01*
X+3978481Y+968491D01*
X+3929381Y+1017591D01*
X+3827781Y+1193567D02*
X+3827781Y+1263005D01*
X+3876881Y+1312105D01*
X+3946319Y+1312105D01*
X+3995419Y+1263005D01*
X+3995419Y+1193567D01*
X+3946319Y+1144467D01*
X+3876881Y+1144467D01*
X+3827781Y+1193567D01*
X+4030981Y+1193567D02*
X+4030981Y+1263005D01*
X+4080081Y+1312105D01*
X+4149519Y+1312105D01*
X+4198619Y+1263005D01*
X+4198619Y+1193567D01*
X+4149519Y+1144467D01*
X+4080081Y+1144467D01*
X+4030981Y+1193567D01*
X+3726181Y+1369543D02*
X+3726181Y+1438981D01*
X+3775281Y+1488081D01*
X+3844719Y+1488081D01*
X+3893819Y+1438981D01*
X+3893819Y+1369543D01*
X+3844719Y+1320443D01*
X+3775281Y+1320443D01*
X+3726181Y+1369543D01*
X+3929381Y+1369543D02*
X+3929381Y+1438981D01*
X+3978481Y+1488081D01*
X+4047919Y+1488081D01*
X+4097019Y+1438981D01*
X+4097019Y+1369543D01*
X+4047919Y+1320443D01*
X+3978481Y+1320443D01*
X+3929381Y+1369543D01*
X+3827781Y+1545519D02*
X+3827781Y+1614957D01*
X+3876881Y+1664057D01*
X+3946319Y+1664057D01*
X+3995419Y+1614957D01*
X+3995419Y+1545519D01*
X+3946319Y+1496419D01*
X+3876881Y+1496419D01*
X+3827781Y+1545519D01*
X+3726181Y+1721495D02*
X+3726181Y+1790933D01*
X+3775281Y+1840033D01*
X+3844719Y+1840033D01*
X+3893819Y+1790933D01*
X+3893819Y+1721495D01*
X+3844719Y+1672395D01*
X+3775281Y+1672395D01*
X+3726181Y+1721495D01*
X+3827781Y+1897471D02*
X+3827781Y+1966909D01*
X+3876881Y+2016009D01*
X+3946319Y+2016009D01*
X+3995419Y+1966909D01*
X+3995419Y+1897471D01*
X+3946319Y+1848371D01*
X+3876881Y+1848371D01*
X+3827781Y+1897471D01*
X+8514081Y+1193567D02*
X+8514081Y+1263005D01*
X+8563181Y+1312105D01*
X+8632619Y+1312105D01*
X+8681719Y+1263005D01*
X+8681719Y+1193567D01*
X+8632619Y+1144467D01*
X+8563181Y+1144467D01*
X+8514081Y+1193567D01*
X+8717281Y+1193567D02*
X+8717281Y+1263005D01*
X+8766381Y+1312105D01*
X+8835819Y+1312105D01*
X+8884919Y+1263005D01*
X+8884919Y+1193567D01*
X+8835819Y+1144467D01*
X+8766381Y+1144467D01*
X+8717281Y+1193567D01*
X+8412481Y+1369543D02*
X+8412481Y+1438981D01*
X+8461581Y+1488081D01*
X+8531019Y+1488081D01*
X+8580119Y+1438981D01*
X+8580119Y+1369543D01*
X+8531019Y+1320443D01*
X+8461581Y+1320443D01*
X+8412481Y+1369543D01*
X+8615681Y+1369543D02*
X+8615681Y+1438981D01*
X+8664781Y+1488081D01*
X+8734219Y+1488081D01*
X+8783319Y+1438981D01*
X+8783319Y+1369543D01*
X+8734219Y+1320443D01*
X+8664781Y+1320443D01*
X+8615681Y+1369543D01*
X+8412481Y+1721495D02*
X+8412481Y+1790933D01*
X+8461581Y+1840033D01*
X+8531019Y+1840033D01*
X+8580119Y+1790933D01*
X+8580119Y+1721495D01*
X+8531019Y+1672395D01*
X+8461581Y+1672395D01*
X+8412481Y+1721495D01*
X+8514081Y+1897471D02*
X+8514081Y+1966909D01*
X+8563181Y+2016009D01*
X+8632619Y+2016009D01*
X+8681719Y+1966909D01*
X+8681719Y+1897471D01*
X+8632619Y+1848371D01*
X+8563181Y+1848371D01*
X+8514081Y+1897471D01*
X+6280150Y+1017591D02*
X+6280150Y+1087029D01*
X+6329250Y+1136129D01*
X+6398688Y+1136129D01*
X+6447788Y+1087029D01*
X+6447788Y+1017591D01*
X+6398688Y+968491D01*
X+6329250Y+968491D01*
X+6280150Y+1017591D01*
X+6178550Y+1193567D02*
X+6178550Y+1263005D01*
X+6227650Y+1312105D01*
X+6297088Y+1312105D01*
X+6346188Y+1263005D01*
X+6346188Y+1193567D01*
X+6297088Y+1144467D01*
X+6227650Y+1144467D01*
X+6178550Y+1193567D01*
X+6381750Y+1193567D02*
X+6381750Y+1263005D01*
X+6430850Y+1312105D01*
X+6500288Y+1312105D01*
X+6549388Y+1263005D01*
X+6549388Y+1193567D01*
X+6500288Y+1144467D01*
X+6430850Y+1144467D01*
X+6381750Y+1193567D01*
X+6076950Y+1369543D02*
X+6076950Y+1438981D01*
X+6126050Y+1488081D01*
X+6195488Y+1488081D01*
X+6244588Y+1438981D01*
X+6244588Y+1369543D01*
X+6195488Y+1320443D01*
X+6126050Y+1320443D01*
X+6076950Y+1369543D01*
X+6280150Y+1369543D02*
X+6280150Y+1438981D01*
X+6329250Y+1488081D01*
X+6398688Y+1488081D01*
X+6447788Y+1438981D01*
X+6447788Y+1369543D01*
X+6398688Y+1320443D01*
X+6329250Y+1320443D01*
X+6280150Y+1369543D01*
X+6178550Y+1545519D02*
X+6178550Y+1614957D01*
X+6227650Y+1664057D01*
X+6297088Y+1664057D01*
X+6346188Y+1614957D01*
X+6346188Y+1545519D01*
X+6297088Y+1496419D01*
X+6227650Y+1496419D01*
X+6178550Y+1545519D01*
X+6076950Y+1721495D02*
X+6076950Y+1790933D01*
X+6126050Y+1840033D01*
X+6195488Y+1840033D01*
X+6244588Y+1790933D01*
X+6244588Y+1721495D01*
X+6195488Y+1672395D01*
X+6126050Y+1672395D01*
X+6076950Y+1721495D01*
X+6178550Y+1897471D02*
X+6178550Y+1966909D01*
X+6227650Y+2016009D01*
X+6297088Y+2016009D01*
X+6346188Y+1966909D01*
X+6346188Y+1897471D01*
X+6297088Y+1848371D01*
X+6227650Y+1848371D01*
X+6178550Y+1897471D01*
X+8655050Y-2143947D02*
X+8655050Y-2117645D01*
X+8673649Y-2099046D01*
X+8699951Y-2099046D01*
X+8718550Y-2117645D01*
X+8718550Y-2143947D01*
X+8699951Y-2162546D01*
X+8673649Y-2162546D01*
X+8655050Y-2143947D01*
X+8858250Y-2143947D02*
X+8858250Y-2117645D01*
X+8876849Y-2099046D01*
X+8903151Y-2099046D01*
X+8921750Y-2117645D01*
X+8921750Y-2143947D01*
X+8903151Y-2162546D01*
X+8876849Y-2162546D01*
X+8858250Y-2143947D01*
X+2051050Y+1903501D02*
X+2051050Y+1929803D01*
X+2069649Y+1948402D01*
X+2095951Y+1948402D01*
X+2114550Y+1929803D01*
X+2114550Y+1903501D01*
X+2095951Y+1884902D01*
X+2069649Y+1884902D01*
X+2051050Y+1903501D01*
X+2254250Y+1903501D02*
X+2254250Y+1929803D01*
X+2272849Y+1948402D01*
X+2299151Y+1948402D01*
X+2317750Y+1929803D01*
X+2317750Y+1903501D01*
X+2299151Y+1884902D01*
X+2272849Y+1884902D01*
X+2254250Y+1903501D01*
X+2863850Y+1903501D02*
X+2863850Y+1929803D01*
X+2882449Y+1948402D01*
X+2908751Y+1948402D01*
X+2927350Y+1929803D01*
X+2927350Y+1903501D01*
X+2908751Y+1884902D01*
X+2882449Y+1884902D01*
X+2863850Y+1903501D01*
X+2762250Y+2079477D02*
X+2762250Y+2105779D01*
X+2780849Y+2124378D01*
X+2807151Y+2124378D01*
X+2825750Y+2105779D01*
X+2825750Y+2079477D01*
X+2807151Y+2060878D01*
X+2780849Y+2060878D01*
X+2762250Y+2079477D01*
X+1922781Y+1491078D02*
X+1922781Y+1560516D01*
X+1971881Y+1609616D01*
X+2041319Y+1609616D01*
X+2090419Y+1560516D01*
X+2090419Y+1491078D01*
X+2041319Y+1441978D01*
X+1971881Y+1441978D01*
X+1922781Y+1491078D01*
X+2293619Y+1560516D02*
X+2293619Y+1491078D01*
X+2244519Y+1441978D01*
X+2197305Y+1441978D01*
X+2242819Y+1396464D01*
X+2242819Y+1327026D01*
X+2193719Y+1277926D01*
X+2124281Y+1277926D01*
X+2075181Y+1327026D01*
X+2075181Y+1396464D01*
X+2124281Y+1445564D01*
X+2171495Y+1445564D01*
X+2125981Y+1491078D01*
X+2125981Y+1560516D01*
X+2175081Y+1609616D01*
X+2244519Y+1609616D01*
X+2293619Y+1560516D01*
X+2496819Y+1560516D02*
X+2496819Y+1491078D01*
X+2449512Y+1443771D01*
X+2496819Y+1396464D01*
X+2496819Y+1327026D01*
X+2447719Y+1277926D01*
X+2378281Y+1277926D01*
X+2329181Y+1327026D01*
X+2329181Y+1396464D01*
X+2376488Y+1443771D01*
X+2329181Y+1491078D01*
X+2329181Y+1560516D01*
X+2378281Y+1609616D01*
X+2447719Y+1609616D01*
X+2496819Y+1560516D01*
X+2532381Y+1491078D02*
X+2532381Y+1560516D01*
X+2581481Y+1609616D01*
X+2650919Y+1609616D01*
X+2700019Y+1560516D01*
X+2700019Y+1491078D01*
X+2650919Y+1441978D01*
X+2581481Y+1441978D01*
X+2532381Y+1491078D01*
X+4782819Y-409781D02*
X+4782819Y-479219D01*
X+4733719Y-528319D01*
X+4664281Y-528319D01*
X+4651581Y-515619D01*
X+4579619Y-515619D01*
X+4579619Y-1226767D01*
X+4960619Y-1607766D01*
X+4960619Y-2828043D01*
X+4995467Y-2862891D01*
X+5093853Y-2862891D01*
X+5059681Y-2828719D01*
X+5059681Y-2759281D01*
X+5060958Y-2758004D01*
X+5060958Y-1406054D01*
X+4691223Y-1036319D01*
X+4664281Y-1036319D01*
X+4615181Y-987219D01*
X+4615181Y-917781D01*
X+4664281Y-868681D01*
X+4733719Y-868681D01*
X+4782819Y-917781D01*
X+4782819Y-944723D01*
X+5190496Y-1352399D01*
X+5190496Y-2722458D01*
X+5227319Y-2759281D01*
X+5227319Y-2828719D01*
X+5193147Y-2862891D01*
X+5222413Y-2862891D01*
X+5235113Y-2850191D01*
X+5304551Y-2850191D01*
X+5353651Y-2899291D01*
X+5353651Y-2968729D01*
X+5304551Y-3017829D01*
X+5235113Y-3017829D01*
X+5222413Y-3005129D01*
X+4947205Y-3005129D01*
X+4962642Y-3020566D01*
X+6276858Y-3020566D01*
X+6329681Y-2967743D01*
X+6329681Y-2949781D01*
X+6378781Y-2900681D01*
X+6448219Y-2900681D01*
X+6497319Y-2949781D01*
X+6497319Y-3019219D01*
X+6448219Y-3068319D01*
X+6430257Y-3068319D01*
X+6335773Y-3162804D01*
X+4903727Y-3162804D01*
X+4862066Y-3121142D01*
X+4542543Y-2801619D01*
X+3539919Y-2801619D01*
X+3527219Y-2814319D01*
X+3457781Y-2814319D01*
X+3408681Y-2765219D01*
X+3408681Y-2695781D01*
X+3457781Y-2646681D01*
X+3527219Y-2646681D01*
X+3539919Y-2659381D01*
X+4500881Y-2659381D01*
X+4500881Y-1812043D01*
X+4615181Y-1697743D01*
X+4615181Y-1679781D01*
X+4645855Y-1649107D01*
X+4616722Y-1649107D01*
X+4567622Y-1600007D01*
X+4567622Y-1530569D01*
X+4616722Y-1481469D01*
X+4633169Y-1481469D01*
X+4437381Y-1285681D01*
X+4437381Y-856407D01*
X+4416219Y-877569D01*
X+4346781Y-877569D01*
X+4297681Y-828469D01*
X+4297681Y-759031D01*
X+4346781Y-709931D01*
X+4416219Y-709931D01*
X+4437381Y-731093D01*
X+4437381Y-515619D01*
X+3077457Y-515619D01*
X+2992119Y-600957D01*
X+2992119Y-714581D01*
X+3004819Y-727281D01*
X+3004819Y-796719D01*
X+2955719Y-845819D01*
X+2886281Y-845819D01*
X+2837181Y-796719D01*
X+2837181Y-727281D01*
X+2849881Y-714581D01*
X+2849881Y-542043D01*
X+3018543Y-373381D01*
X+4651581Y-373381D01*
X+4664281Y-360681D01*
X+4733719Y-360681D01*
X+4782819Y-409781D01*
X+5100319Y-28781D02*
X+5100319Y-98219D01*
X+5081269Y-117269D01*
X+5081269Y-394343D01*
X+4787344Y-688268D01*
X+4787344Y-715210D01*
X+4738244Y-764310D01*
X+4668806Y-764310D01*
X+4619706Y-715210D01*
X+4619706Y-645772D01*
X+4668806Y-596672D01*
X+4695748Y-596672D01*
X+4951731Y-340689D01*
X+4951731Y-117269D01*
X+4932681Y-98219D01*
X+4932681Y-28781D01*
X+4981781Y+20319D01*
X+5051219Y+20319D01*
X+5100319Y-28781D01*
X+8488681Y+536781D02*
X+8488681Y+606219D01*
X+8537781Y+655319D01*
X+8607219Y+655319D01*
X+8656319Y+606219D01*
X+8656319Y+536781D01*
X+8607219Y+487681D01*
X+8537781Y+487681D01*
X+8488681Y+536781D01*
X+7155181Y-98219D02*
X+7155181Y-28781D01*
X+7204281Y+20319D01*
X+7273719Y+20319D01*
X+7322819Y-28781D01*
X+7322819Y-98219D01*
X+7273719Y-147319D01*
X+7204281Y-147319D01*
X+7155181Y-98219D01*
X+8951970Y-3310392D02*
X+8951970Y-3240954D01*
X+9001070Y-3191854D01*
X+9070508Y-3191854D01*
X+9119608Y-3240954D01*
X+9119608Y-3310392D01*
X+9070508Y-3359492D01*
X+9001070Y-3359492D01*
X+8951970Y-3310392D01*
X+9250681Y+1171781D02*
X+9250681Y+1241219D01*
X+9299781Y+1290319D01*
X+9369219Y+1290319D01*
X+9418319Y+1241219D01*
X+9418319Y+1171781D01*
X+9369219Y+1122681D01*
X+9299781Y+1122681D01*
X+9250681Y+1171781D01*
X+7972725Y-3272948D02*
X+7972725Y-3203510D01*
X+8021825Y-3154410D01*
X+8091263Y-3154410D01*
X+8140363Y-3203510D01*
X+8140363Y-3272948D01*
X+8091263Y-3322048D01*
X+8021825Y-3322048D01*
X+7972725Y-3272948D01*
X+9123681Y-98219D02*
X+9123681Y-28781D01*
X+9172781Y+20319D01*
X+9242219Y+20319D01*
X+9291319Y-28781D01*
X+9291319Y-98219D01*
X+9242219Y-147319D01*
X+9172781Y-147319D01*
X+9123681Y-98219D01*
X+6901181Y-98219D02*
X+6901181Y-28781D01*
X+6950281Y+20319D01*
X+7019719Y+20319D01*
X+7068819Y-28781D01*
X+7068819Y-98219D01*
X+7019719Y-147319D01*
X+6950281Y-147319D01*
X+6901181Y-98219D01*
X+7715250Y-3442151D02*
X+7715250Y-3415849D01*
X+7733849Y-3397250D01*
X+7760151Y-3397250D01*
X+7778750Y-3415849D01*
X+7778750Y-3442151D01*
X+7760151Y-3460750D01*
X+7733849Y-3460750D01*
X+7715250Y-3442151D01*
X+6396899Y-3376661D02*
X+6396899Y-3350359D01*
X+6415498Y-3331760D01*
X+6441800Y-3331760D01*
X+6460399Y-3350359D01*
X+6460399Y-3376661D01*
X+6441800Y-3395260D01*
X+6415498Y-3395260D01*
X+6396899Y-3376661D01*
X+9112250Y-3886651D02*
X+9112250Y-3860349D01*
X+9130849Y-3841750D01*
X+9157151Y-3841750D01*
X+9175750Y-3860349D01*
X+9175750Y-3886651D01*
X+9157151Y-3905250D01*
X+9130849Y-3905250D01*
X+9112250Y-3886651D01*
X+6964681Y+1171781D02*
X+6964681Y+1241219D01*
X+7013781Y+1290319D01*
X+7083219Y+1290319D01*
X+7132319Y+1241219D01*
X+7132319Y+1171781D01*
X+7083219Y+1122681D01*
X+7013781Y+1122681D01*
X+6964681Y+1171781D01*
X+7599681Y-3273219D02*
X+7599681Y-3203781D01*
X+7648781Y-3154681D01*
X+7718219Y-3154681D01*
X+7767319Y-3203781D01*
X+7767319Y-3273219D01*
X+7718219Y-3322319D01*
X+7648781Y-3322319D01*
X+7599681Y-3273219D01*
X+4615181Y+1171781D02*
X+4615181Y+1241219D01*
X+4664281Y+1290319D01*
X+4733719Y+1290319D01*
X+4782819Y+1241219D01*
X+4782819Y+1171781D01*
X+4733719Y+1122681D01*
X+4664281Y+1122681D01*
X+4615181Y+1171781D01*
X+6393181Y-3209719D02*
X+6393181Y-3140281D01*
X+6442281Y-3091181D01*
X+6511719Y-3091181D01*
X+6560819Y-3140281D01*
X+6560819Y-3209719D01*
X+6511719Y-3258819D01*
X+6442281Y-3258819D01*
X+6393181Y-3209719D01*
X+5480050Y-2737866D02*
X+5480050Y-2711564D01*
X+5498649Y-2692965D01*
X+5524951Y-2692965D01*
X+5543550Y-2711564D01*
X+5543550Y-2737866D01*
X+5524951Y-2756465D01*
X+5498649Y-2756465D01*
X+5480050Y-2737866D01*
X+5353050Y-2517896D02*
X+5353050Y-2491594D01*
X+5371649Y-2472995D01*
X+5397951Y-2472995D01*
X+5416550Y-2491594D01*
X+5416550Y-2517896D01*
X+5397951Y-2536495D01*
X+5371649Y-2536495D01*
X+5353050Y-2517896D01*
X+7385050Y-2517896D02*
X+7385050Y-2491594D01*
X+7403649Y-2472995D01*
X+7429951Y-2472995D01*
X+7448550Y-2491594D01*
X+7448550Y-2517896D01*
X+7429951Y-2536495D01*
X+7403649Y-2536495D01*
X+7385050Y-2517896D01*
X+5226050Y-2297926D02*
X+5226050Y-2271624D01*
X+5244649Y-2253025D01*
X+5270951Y-2253025D01*
X+5289550Y-2271624D01*
X+5289550Y-2297926D01*
X+5270951Y-2316525D01*
X+5244649Y-2316525D01*
X+5226050Y-2297926D01*
X+5480050Y-2297926D02*
X+5480050Y-2271624D01*
X+5498649Y-2253025D01*
X+5524951Y-2253025D01*
X+5543550Y-2271624D01*
X+5543550Y-2297926D01*
X+5524951Y-2316525D01*
X+5498649Y-2316525D01*
X+5480050Y-2297926D01*
X+2940050Y+2101474D02*
X+2940050Y+2127776D01*
X+2958649Y+2146375D01*
X+2984951Y+2146375D01*
X+3003550Y+2127776D01*
X+3003550Y+2101474D01*
X+2984951Y+2082875D01*
X+2958649Y+2082875D01*
X+2940050Y+2101474D01*
X+3027681Y-1708349D02*
X+3027681Y-1638911D01*
X+3076781Y-1589811D01*
X+3146219Y-1589811D01*
X+3195319Y-1638911D01*
X+3195319Y-1708349D01*
X+3146219Y-1757449D01*
X+3076781Y-1757449D01*
X+3027681Y-1708349D01*
X+4043681Y-828469D02*
X+4043681Y-759031D01*
X+4092781Y-709931D01*
X+4162219Y-709931D01*
X+4211319Y-759031D01*
X+4211319Y-828469D01*
X+4162219Y-877569D01*
X+4092781Y-877569D01*
X+4043681Y-828469D01*
X+2329181Y-479219D02*
X+2329181Y-409781D01*
X+2378281Y-360681D01*
X+2447719Y-360681D01*
X+2496819Y-409781D01*
X+2496819Y-479219D01*
X+2447719Y-528319D01*
X+2378281Y-528319D01*
X+2329181Y-479219D01*
X+1821181Y-415719D02*
X+1821181Y-346281D01*
X+1870281Y-297181D01*
X+1939719Y-297181D01*
X+1988819Y-346281D01*
X+1988819Y-415719D01*
X+1939719Y-464819D01*
X+1870281Y-464819D01*
X+1821181Y-415719D01*
X+4919981Y+1140031D02*
X+4919981Y+1209469D01*
X+4969081Y+1258569D01*
X+5038519Y+1258569D01*
X+5087619Y+1209469D01*
X+5087619Y+1140031D01*
X+5038519Y+1090931D01*
X+4969081Y+1090931D01*
X+4919981Y+1140031D01*
X+4615181Y-161719D02*
X+4615181Y-92281D01*
X+4664281Y-43181D01*
X+4733719Y-43181D01*
X+4782819Y-92281D01*
X+4782819Y-161719D01*
X+4733719Y-210819D01*
X+4664281Y-210819D01*
X+4615181Y-161719D01*
X+4818381Y-4537958D02*
X+4818381Y-4479042D01*
X+4860042Y-4437381D01*
X+4918958Y-4437381D01*
X+4960619Y-4479042D01*
X+4960619Y-4537958D01*
X+4918958Y-4579619D01*
X+4860042Y-4579619D01*
X+4818381Y-4537958D01*
X+5643881Y-5426958D02*
X+5643881Y-5368042D01*
X+5685542Y-5326381D01*
X+5744458Y-5326381D01*
X+5786119Y-5368042D01*
X+5786119Y-5426958D01*
X+5744458Y-5468619D01*
X+5685542Y-5468619D01*
X+5643881Y-5426958D01*
X+5179534Y-6802900D02*
X+5179534Y-6743984D01*
X+5221195Y-6702323D01*
X+5280111Y-6702323D01*
X+5321772Y-6743984D01*
X+5321772Y-6802900D01*
X+5280111Y-6844561D01*
X+5221195Y-6844561D01*
X+5179534Y-6802900D01*
X+3440526Y-4730378D02*
X+3440526Y-4789294D01*
X+3398865Y-4830955D01*
X+3362944Y-4830955D01*
X+2824970Y-5368930D01*
X+2824970Y-5955968D01*
X+2608238Y-6172700D01*
X+2623819Y-6188281D01*
X+2623819Y-6257719D01*
X+2574719Y-6306819D01*
X+2505281Y-6306819D01*
X+2489700Y-6291238D01*
X+2014219Y-6766719D01*
X+2014219Y-6848681D01*
X+2052319Y-6886781D01*
X+2052319Y-6956219D01*
X+2003219Y-7005319D01*
X+1933781Y-7005319D01*
X+1884681Y-6956219D01*
X+1884681Y-6886781D01*
X+1922781Y-6848681D01*
X+1922781Y-6728845D01*
X+2456181Y-6195445D01*
X+2456181Y-6188281D01*
X+2505281Y-6139181D01*
X+2512445Y-6139181D01*
X+2733532Y-5918094D01*
X+2733532Y-5331056D01*
X+3298288Y-4766299D01*
X+3298288Y-4730378D01*
X+3339949Y-4688717D01*
X+3398865Y-4688717D01*
X+3440526Y-4730378D01*
X+2560415Y-5934281D02*
X+2560415Y-6003719D01*
X+2511315Y-6052819D01*
X+2441877Y-6052819D01*
X+2392777Y-6003719D01*
X+2392777Y-5934281D01*
X+2441877Y-5885181D01*
X+2511315Y-5885181D01*
X+2560415Y-5934281D01*
X+5256194Y-4076699D02*
X+8144467Y-4076699D01*
X+8365787Y-4298019D01*
X+8365787Y-4996181D01*
X+8416719Y-4996181D01*
X+8465819Y-5045281D01*
X+8465819Y-5114719D01*
X+8416719Y-5163819D01*
X+8347281Y-5163819D01*
X+8300719Y-5117257D01*
X+8300719Y-5188063D01*
X+8362837Y-5250181D01*
X+8416719Y-5250181D01*
X+8465819Y-5299281D01*
X+8465819Y-5368719D01*
X+8416719Y-5417819D01*
X+8347281Y-5417819D01*
X+8298181Y-5368719D01*
X+8298181Y-5314837D01*
X+8237219Y-5253875D01*
X+8237219Y-5473226D01*
X+8306274Y-5542281D01*
X+8309181Y-5542281D01*
X+8347281Y-5504181D01*
X+8416719Y-5504181D01*
X+8465819Y-5553281D01*
X+8465819Y-5622719D01*
X+8416719Y-5671819D01*
X+8347281Y-5671819D01*
X+8309181Y-5633719D01*
X+8268400Y-5633719D01*
X+8145781Y-5511100D01*
X+8145781Y-4463937D01*
X+8032235Y-4350391D01*
X+5278562Y-4350391D01*
X+5253162Y-4375791D01*
X+5194246Y-4375791D01*
X+5152585Y-4334130D01*
X+5152585Y-4287868D01*
X+5107864Y-4287868D01*
X+5066203Y-4246207D01*
X+5066203Y-4187291D01*
X+5107864Y-4145630D01*
X+5130217Y-4145630D01*
X+5130217Y-4092960D01*
X+5171878Y-4051299D01*
X+5230794Y-4051299D01*
X+5256194Y-4076699D01*
X+4020819Y-3076781D02*
X+4020819Y-3146219D01*
X+3982719Y-3184319D01*
X+3982719Y-4844937D01*
X+3982718Y-5016500D01*
X+3982719Y-5188063D01*
X+3982719Y-5477625D01*
X+4144767Y-5315577D01*
X+4144767Y-4050581D01*
X+4106667Y-4012481D01*
X+4106667Y-3943043D01*
X+4155767Y-3893943D01*
X+4225205Y-3893943D01*
X+4234181Y-3902919D01*
X+4234181Y-3902281D01*
X+4283281Y-3853181D01*
X+4352719Y-3853181D01*
X+4401819Y-3902281D01*
X+4401819Y-3971719D01*
X+4352719Y-4020819D01*
X+4283281Y-4020819D01*
X+4274305Y-4011843D01*
X+4274305Y-4012481D01*
X+4236205Y-4050581D01*
X+4236205Y-5353451D01*
X+2860285Y-6729371D01*
X+2860285Y-6819242D01*
X+2868877Y-6827834D01*
X+2868877Y-6777344D01*
X+2910538Y-6735683D01*
X+2969454Y-6735683D01*
X+3011115Y-6777344D01*
X+3011115Y-6813265D01*
X+3109995Y-6912145D01*
X+3183613Y-6912145D01*
X+3142938Y-6871470D01*
X+3142938Y-6802032D01*
X+3154645Y-6790325D01*
X+3154645Y-6699241D01*
X+3317638Y-6536248D01*
X+3368596Y-6536248D01*
X+5419893Y-4484951D01*
X+5433862Y-4484951D01*
X+5459262Y-4459551D01*
X+5518178Y-4459551D01*
X+5559839Y-4501212D01*
X+5559839Y-4560128D01*
X+5518178Y-4601789D01*
X+5459262Y-4601789D01*
X+5445814Y-4588342D01*
X+4999875Y-5034281D01*
X+6204063Y-5034281D01*
X+6723381Y-4514963D01*
X+6723381Y-4479042D01*
X+6765042Y-4437381D01*
X+6823958Y-4437381D01*
X+6865619Y-4479042D01*
X+6865619Y-4537958D01*
X+6823958Y-4579619D01*
X+6788037Y-4579619D01*
X+6241937Y-5125719D01*
X+5015587Y-5125719D01*
X+3414071Y-6727235D01*
X+3414071Y-6781117D01*
X+3364971Y-6830217D01*
X+3310576Y-6830217D01*
X+3310576Y-6871470D01*
X+3269901Y-6912145D01*
X+4637881Y-6912145D01*
X+4946668Y-6603358D01*
X+5214820Y-6603358D01*
X+5186681Y-6575219D01*
X+5186681Y-6505781D01*
X+5235781Y-6456681D01*
X+5305219Y-6456681D01*
X+5354319Y-6505781D01*
X+5354319Y-6575219D01*
X+5326180Y-6603358D01*
X+5841486Y-6603358D01*
X+7885431Y-4559413D01*
X+7885431Y-4505531D01*
X+7934531Y-4456431D01*
X+8003969Y-4456431D01*
X+8053069Y-4505531D01*
X+8053069Y-4574969D01*
X+8003969Y-4624069D01*
X+7950087Y-4624069D01*
X+5879360Y-6694796D01*
X+4984542Y-6694796D01*
X+4675755Y-7003583D01*
X+3614333Y-7003583D01*
X+3614333Y-7059247D01*
X+5801161Y-7059247D01*
X+6746627Y-6113781D01*
X+7384937Y-6113781D01*
X+7461250Y-6113782D01*
X+7537563Y-6113781D01*
X+8269154Y-6113781D01*
X+8409638Y-5973297D01*
X+8409638Y-5919415D01*
X+8458738Y-5870315D01*
X+8528176Y-5870315D01*
X+8577276Y-5919415D01*
X+8577276Y-5988853D01*
X+8553948Y-6012181D01*
X+8607219Y-6012181D01*
X+8656319Y-6061281D01*
X+8656319Y-6130719D01*
X+8607219Y-6179819D01*
X+8553337Y-6179819D01*
X+8464437Y-6268719D01*
X+6830871Y-6268719D01*
X+5877815Y-7221775D01*
X+4696074Y-7221775D01*
X+4715114Y-7240815D01*
X+4715114Y-7310253D01*
X+4666014Y-7359353D01*
X+4596576Y-7359353D01*
X+4547476Y-7310253D01*
X+4547476Y-7240815D01*
X+4566516Y-7221775D01*
X+3883037Y-7221775D01*
X+3896391Y-7235129D01*
X+3896391Y-7304567D01*
X+3847291Y-7353667D01*
X+3777853Y-7353667D01*
X+3728753Y-7304567D01*
X+3728753Y-7235129D01*
X+3742107Y-7221775D01*
X+3623138Y-7221775D01*
X+3654482Y-7253119D01*
X+3654482Y-7322557D01*
X+3605382Y-7371657D01*
X+3535944Y-7371657D01*
X+3486844Y-7322557D01*
X+3486844Y-7253119D01*
X+3518188Y-7221775D01*
X+3080778Y-7221775D01*
X+3046160Y-7256393D01*
X+669781Y-7256393D01*
X+301264Y-7256392D01*
X+274319Y-7283337D01*
X+274319Y-7337219D01*
X+225219Y-7386319D01*
X+155781Y-7386319D01*
X+106681Y-7337219D01*
X+106681Y-7267781D01*
X+155781Y-7218681D01*
X+209663Y-7218681D01*
X+263388Y-7164956D01*
X+282326Y-7164956D01*
X+669781Y-7164955D01*
X+2336572Y-7164955D01*
X+2336572Y-7101468D01*
X+2298472Y-7063368D01*
X+2298472Y-6993930D01*
X+2347572Y-6944830D01*
X+2417010Y-6944830D01*
X+2466110Y-6993930D01*
X+2466110Y-7063368D01*
X+2428010Y-7101468D01*
X+2428010Y-7164955D01*
X+2537917Y-7164955D01*
X+2519681Y-7146719D01*
X+2519681Y-7077281D01*
X+2568781Y-7028181D01*
X+2638219Y-7028181D01*
X+2687319Y-7077281D01*
X+2687319Y-7146719D01*
X+2669083Y-7164955D01*
X+2901818Y-7164955D01*
X+2902063Y-7164710D01*
X+2939937Y-7164710D01*
X+2940182Y-7164955D01*
X+3008286Y-7164955D01*
X+3022556Y-7150685D01*
X+2831529Y-7150685D01*
X+2622663Y-6941819D01*
X+2568781Y-6941819D01*
X+2519681Y-6892719D01*
X+2519681Y-6823281D01*
X+2568781Y-6774181D01*
X+2638219Y-6774181D01*
X+2687319Y-6823281D01*
X+2687319Y-6877163D01*
X+2869403Y-7059247D01*
X+2970978Y-7059247D01*
X+2768847Y-6857116D01*
X+2768847Y-6691497D01*
X+2781429Y-6678915D01*
X+2336390Y-6678915D01*
X+2246619Y-6768686D01*
X+2246619Y-6822568D01*
X+2197519Y-6871668D01*
X+2128081Y-6871668D01*
X+2078981Y-6822568D01*
X+2078981Y-6753130D01*
X+2128081Y-6704030D01*
X+2181963Y-6704030D01*
X+2298516Y-6587477D01*
X+2753682Y-6587477D01*
X+3891281Y-5449878D01*
X+3891281Y-5188063D01*
X+3891282Y-5016500D01*
X+3891281Y-4826000D01*
X+3891281Y-3184319D01*
X+3853181Y-3146219D01*
X+3853181Y-3076781D01*
X+3902281Y-3027681D01*
X+3971719Y-3027681D01*
X+4020819Y-3076781D01*
X+853197Y-5197620D02*
X+866699Y-5197620D01*
X+1238471Y-5569392D01*
X+1806835Y-5569392D01*
X+1950719Y-5713276D01*
X+1950719Y-6467681D01*
X+1988819Y-6505781D01*
X+1988819Y-6575219D01*
X+1939719Y-6624319D01*
X+1870281Y-6624319D01*
X+1821181Y-6575219D01*
X+1821181Y-6505781D01*
X+1859281Y-6467681D01*
X+1859281Y-5751150D01*
X+1768961Y-5660830D01*
X+1200597Y-5660830D01*
X+841011Y-5301244D01*
X+827797Y-5314458D01*
X+768881Y-5314458D01*
X+727220Y-5272797D01*
X+727220Y-5213881D01*
X+768881Y-5172220D01*
X+827797Y-5172220D01*
X+853197Y-5197620D01*
X+5019158Y-4736000D02*
X+5019158Y-4677084D01*
X+5060819Y-4635423D01*
X+5119735Y-4635423D01*
X+5161396Y-4677084D01*
X+5161396Y-4736000D01*
X+5119735Y-4777661D01*
X+5060819Y-4777661D01*
X+5019158Y-4736000D01*
X-210819Y-4987719D02*
X-210819Y-4918281D01*
X-161719Y-4869181D01*
X-92281Y-4869181D01*
X-43181Y-4918281D01*
X-43181Y-4987719D01*
X-92281Y-5036819D01*
X-161719Y-5036819D01*
X-210819Y-4987719D01*
X+1290319Y-4029281D02*
X+1290319Y-4098719D01*
X+1241219Y-4147819D01*
X+1171781Y-4147819D01*
X+1159081Y-4135119D01*
X+872919Y-4135119D01*
X+860219Y-4147819D01*
X+790781Y-4147819D01*
X+741681Y-4098719D01*
X+741681Y-4029281D01*
X+790781Y-3980181D01*
X+860219Y-3980181D01*
X+872919Y-3992881D01*
X+1159081Y-3992881D01*
X+1171781Y-3980181D01*
X+1241219Y-3980181D01*
X+1290319Y-4029281D01*
X+25400Y-3508282D02*
X+25400Y-3476718D01*
X+47718Y-3454400D01*
X+79282Y-3454400D01*
X+101600Y-3476718D01*
X+101600Y-3508282D01*
X+79282Y-3530600D01*
X+47718Y-3530600D01*
X+25400Y-3508282D01*
X+1122681Y-7400719D02*
X+1122681Y-7331281D01*
X+1171781Y-7282181D01*
X+1241219Y-7282181D01*
X+1290319Y-7331281D01*
X+1290319Y-7400719D01*
X+1241219Y-7449819D01*
X+1171781Y-7449819D01*
X+1122681Y-7400719D01*
X+3662681Y-3971719D02*
X+3662681Y-3902281D01*
X+3711781Y-3853181D01*
X+3781219Y-3853181D01*
X+3830319Y-3902281D01*
X+3830319Y-3971719D01*
X+3781219Y-4020819D01*
X+3711781Y-4020819D01*
X+3662681Y-3971719D01*
X+3662681Y-4289219D02*
X+3662681Y-4219781D01*
X+3711781Y-4170681D01*
X+3781219Y-4170681D01*
X+3830319Y-4219781D01*
X+3830319Y-4289219D01*
X+3781219Y-4338319D01*
X+3711781Y-4338319D01*
X+3662681Y-4289219D01*
X+4713681Y-4163107D02*
X+4713681Y-4093669D01*
X+4762781Y-4044569D01*
X+4832219Y-4044569D01*
X+4881319Y-4093669D01*
X+4881319Y-4163107D01*
X+4832219Y-4212207D01*
X+4762781Y-4212207D01*
X+4713681Y-4163107D01*
X+4615181Y-1241219D02*
X+4615181Y-1171781D01*
X+4664281Y-1122681D01*
X+4733719Y-1122681D01*
X+4782819Y-1171781D01*
X+4782819Y-1241219D01*
X+4733719Y-1290319D01*
X+4664281Y-1290319D01*
X+4615181Y-1241219D01*
X+7224354Y-6817605D02*
X+7224354Y-6791303D01*
X+7242953Y-6772704D01*
X+7269255Y-6772704D01*
X+7287854Y-6791303D01*
X+7287854Y-6817605D01*
X+7269255Y-6836204D01*
X+7242953Y-6836204D01*
X+7224354Y-6817605D01*
X+6583681Y-6829219D02*
X+6583681Y-6759781D01*
X+6632781Y-6710681D01*
X+6702219Y-6710681D01*
X+6751319Y-6759781D01*
X+6751319Y-6829219D01*
X+6702219Y-6878319D01*
X+6632781Y-6878319D01*
X+6583681Y-6829219D01*
X+6382952Y-5503905D02*
X+6382952Y-5434467D01*
X+6432052Y-5385367D01*
X+6501490Y-5385367D01*
X+6550590Y-5434467D01*
X+6550590Y-5503905D01*
X+6501490Y-5553005D01*
X+6432052Y-5553005D01*
X+6382952Y-5503905D01*
X+6202681Y-5241719D02*
X+6202681Y-5172281D01*
X+6251781Y-5123181D01*
X+6321219Y-5123181D01*
X+6370319Y-5172281D01*
X+6370319Y-5241719D01*
X+6321219Y-5290819D01*
X+6251781Y-5290819D01*
X+6202681Y-5241719D01*
X+5928488Y-6093328D02*
X+5928488Y-6023890D01*
X+5977588Y-5974790D01*
X+6047026Y-5974790D01*
X+6096126Y-6023890D01*
X+6096126Y-6093328D01*
X+6047026Y-6142428D01*
X+5977588Y-6142428D01*
X+5928488Y-6093328D01*
X+8810165Y-4570489D02*
X+8810165Y-4501051D01*
X+8859265Y-4451951D01*
X+8928703Y-4451951D01*
X+8977803Y-4501051D01*
X+8977803Y-4570489D01*
X+8928703Y-4619589D01*
X+8859265Y-4619589D01*
X+8810165Y-4570489D01*
X+1186181Y-5368719D02*
X+1186181Y-5299281D01*
X+1235281Y-5250181D01*
X+1304719Y-5250181D01*
X+1353819Y-5299281D01*
X+1353819Y-5368719D01*
X+1304719Y-5417819D01*
X+1235281Y-5417819D01*
X+1186181Y-5368719D01*
X+693926Y-5766260D02*
X+693926Y-5696822D01*
X+743026Y-5647722D01*
X+812464Y-5647722D01*
X+861564Y-5696822D01*
X+861564Y-5766260D01*
X+812464Y-5815360D01*
X+743026Y-5815360D01*
X+693926Y-5766260D01*
X+2456181Y-6448219D02*
X+2456181Y-6378781D01*
X+2505281Y-6329681D01*
X+2574719Y-6329681D01*
X+2623819Y-6378781D01*
X+2623819Y-6448219D01*
X+2574719Y-6497319D01*
X+2505281Y-6497319D01*
X+2456181Y-6448219D01*
X+2329181Y-6829219D02*
X+2329181Y-6759781D01*
X+2378281Y-6710681D01*
X+2447719Y-6710681D01*
X+2496819Y-6759781D01*
X+2496819Y-6829219D01*
X+2447719Y-6878319D01*
X+2378281Y-6878319D01*
X+2329181Y-6829219D01*
X+5377181Y-6448219D02*
X+5377181Y-6378781D01*
X+5426281Y-6329681D01*
X+5495719Y-6329681D01*
X+5544819Y-6378781D01*
X+5544819Y-6448219D01*
X+5495719Y-6497319D01*
X+5426281Y-6497319D01*
X+5377181Y-6448219D01*
X+4916773Y-6931859D02*
X+4916773Y-6862421D01*
X+4965873Y-6813321D01*
X+5035311Y-6813321D01*
X+5084411Y-6862421D01*
X+5084411Y-6931859D01*
X+5035311Y-6980959D01*
X+4965873Y-6980959D01*
X+4916773Y-6931859D01*
X+1224327Y-5992539D02*
X+1224327Y-5923101D01*
X+1273427Y-5874001D01*
X+1342865Y-5874001D01*
X+1391965Y-5923101D01*
X+1391965Y-5992539D01*
X+1342865Y-6041639D01*
X+1273427Y-6041639D01*
X+1224327Y-5992539D01*
X+5742760Y-4830614D02*
X+5742760Y-4761176D01*
X+5791860Y-4712076D01*
X+5861298Y-4712076D01*
X+5910398Y-4761176D01*
X+5910398Y-4830614D01*
X+5861298Y-4879714D01*
X+5791860Y-4879714D01*
X+5742760Y-4830614D01*
X+1839171Y-3996797D02*
X+1839171Y-3970495D01*
X+1857770Y-3951896D01*
X+1884072Y-3951896D01*
X+1902671Y-3970495D01*
X+1902671Y-3996797D01*
X+1884072Y-4015396D01*
X+1857770Y-4015396D01*
X+1839171Y-3996797D01*
X+2138681Y-4035219D02*
X+2138681Y-3965781D01*
X+2187781Y-3916681D01*
X+2257219Y-3916681D01*
X+2306319Y-3965781D01*
X+2306319Y-4035219D01*
X+2257219Y-4084319D01*
X+2187781Y-4084319D01*
X+2138681Y-4035219D01*
X+2069520Y-2183322D02*
X+2069520Y-2237204D01*
X+2522219Y-2689903D01*
X+2522219Y-4336937D01*
X+2268219Y-4590937D01*
X+2268219Y-6213681D01*
X+2306319Y-6251781D01*
X+2306319Y-6321219D01*
X+2257219Y-6370319D01*
X+2187781Y-6370319D01*
X+2138681Y-6321219D01*
X+2138681Y-6251781D01*
X+2176781Y-6213681D01*
X+2176781Y-4553063D01*
X+2430781Y-4299063D01*
X+2430781Y-2727777D01*
X+2004864Y-2301860D01*
X+1950982Y-2301860D01*
X+1901882Y-2252760D01*
X+1901882Y-2183322D01*
X+1950982Y-2134222D01*
X+2020420Y-2134222D01*
X+2069520Y-2183322D01*
X+1948181Y-3971719D02*
X+1948181Y-3902281D01*
X+1997281Y-3853181D01*
X+2066719Y-3853181D01*
X+2115819Y-3902281D01*
X+2115819Y-3971719D01*
X+2066719Y-4020819D01*
X+1997281Y-4020819D01*
X+1948181Y-3971719D01*
X+7161095Y-6019404D02*
X+7161095Y-5949966D01*
X+7210195Y-5900866D01*
X+7279633Y-5900866D01*
X+7328733Y-5949966D01*
X+7328733Y-6019404D01*
X+7279633Y-6068504D01*
X+7210195Y-6068504D01*
X+7161095Y-6019404D01*
X+3480587Y-4669252D02*
X+3480587Y-4610336D01*
X+3522248Y-4568675D01*
X+3581164Y-4568675D01*
X+3622825Y-4610336D01*
X+3622825Y-4669252D01*
X+3581164Y-4710913D01*
X+3522248Y-4710913D01*
X+3480587Y-4669252D01*
X+527050Y-3397776D02*
X+527050Y-3371474D01*
X+545649Y-3352875D01*
X+571951Y-3352875D01*
X+590550Y-3371474D01*
X+590550Y-3397776D01*
X+571951Y-3416375D01*
X+545649Y-3416375D01*
X+527050Y-3397776D01*
X+781050Y-3397776D02*
X+781050Y-3371474D01*
X+799649Y-3352875D01*
X+825951Y-3352875D01*
X+844550Y-3371474D01*
X+844550Y-3397776D01*
X+825951Y-3416375D01*
X+799649Y-3416375D01*
X+781050Y-3397776D01*
X+1035050Y-3397776D02*
X+1035050Y-3371474D01*
X+1053649Y-3352875D01*
X+1079951Y-3352875D01*
X+1098550Y-3371474D01*
X+1098550Y-3397776D01*
X+1079951Y-3416375D01*
X+1053649Y-3416375D01*
X+1035050Y-3397776D01*
X+1289050Y-3397776D02*
X+1289050Y-3371474D01*
X+1307649Y-3352875D01*
X+1333951Y-3352875D01*
X+1352550Y-3371474D01*
X+1352550Y-3397776D01*
X+1333951Y-3416375D01*
X+1307649Y-3416375D01*
X+1289050Y-3397776D01*
X+1543050Y-3397776D02*
X+1543050Y-3371474D01*
X+1561649Y-3352875D01*
X+1587951Y-3352875D01*
X+1606550Y-3371474D01*
X+1606550Y-3397776D01*
X+1587951Y-3416375D01*
X+1561649Y-3416375D01*
X+1543050Y-3397776D01*
X+1797050Y-3397776D02*
X+1797050Y-3371474D01*
X+1815649Y-3352875D01*
X+1841951Y-3352875D01*
X+1860550Y-3371474D01*
X+1860550Y-3397776D01*
X+1841951Y-3416375D01*
X+1815649Y-3416375D01*
X+1797050Y-3397776D01*
X+2051050Y-3397776D02*
X+2051050Y-3371474D01*
X+2069649Y-3352875D01*
X+2095951Y-3352875D01*
X+2114550Y-3371474D01*
X+2114550Y-3397776D01*
X+2095951Y-3416375D01*
X+2069649Y-3416375D01*
X+2051050Y-3397776D01*
X+146050Y-3177806D02*
X+146050Y-3151504D01*
X+164649Y-3132905D01*
X+190951Y-3132905D01*
X+209550Y-3151504D01*
X+209550Y-3177806D01*
X+190951Y-3196405D01*
X+164649Y-3196405D01*
X+146050Y-3177806D01*
X+781050Y-2957836D02*
X+781050Y-2931534D01*
X+799649Y-2912935D01*
X+825951Y-2912935D01*
X+844550Y-2931534D01*
X+844550Y-2957836D01*
X+825951Y-2976435D01*
X+799649Y-2976435D01*
X+781050Y-2957836D01*
X+1035050Y-2957836D02*
X+1035050Y-2931534D01*
X+1053649Y-2912935D01*
X+1079951Y-2912935D01*
X+1098550Y-2931534D01*
X+1098550Y-2957836D01*
X+1079951Y-2976435D01*
X+1053649Y-2976435D01*
X+1035050Y-2957836D01*
X+1289050Y-2957836D02*
X+1289050Y-2931534D01*
X+1307649Y-2912935D01*
X+1333951Y-2912935D01*
X+1352550Y-2931534D01*
X+1352550Y-2957836D01*
X+1333951Y-2976435D01*
X+1307649Y-2976435D01*
X+1289050Y-2957836D01*
X+1797050Y-2957836D02*
X+1797050Y-2931534D01*
X+1815649Y-2912935D01*
X+1841951Y-2912935D01*
X+1860550Y-2931534D01*
X+1860550Y-2957836D01*
X+1841951Y-2976435D01*
X+1815649Y-2976435D01*
X+1797050Y-2957836D01*
X+146050Y-2737866D02*
X+146050Y-2711564D01*
X+164649Y-2692965D01*
X+190951Y-2692965D01*
X+209550Y-2711564D01*
X+209550Y-2737866D01*
X+190951Y-2756465D01*
X+164649Y-2756465D01*
X+146050Y-2737866D01*
X+1924050Y-2737866D02*
X+1924050Y-2711564D01*
X+1942649Y-2692965D01*
X+1968951Y-2692965D01*
X+1987550Y-2711564D01*
X+1987550Y-2737866D01*
X+1968951Y-2756465D01*
X+1942649Y-2756465D01*
X+1924050Y-2737866D01*
X+19050Y-2517896D02*
X+19050Y-2491594D01*
X+37649Y-2472995D01*
X+63951Y-2472995D01*
X+82550Y-2491594D01*
X+82550Y-2517896D01*
X+63951Y-2536495D01*
X+37649Y-2536495D01*
X+19050Y-2517896D01*
X+273050Y-2517896D02*
X+273050Y-2491594D01*
X+291649Y-2472995D01*
X+317951Y-2472995D01*
X+336550Y-2491594D01*
X+336550Y-2517896D01*
X+317951Y-2536495D01*
X+291649Y-2536495D01*
X+273050Y-2517896D01*
X+2051050Y-2517896D02*
X+2051050Y-2491594D01*
X+2069649Y-2472995D01*
X+2095951Y-2472995D01*
X+2114550Y-2491594D01*
X+2114550Y-2517896D01*
X+2095951Y-2536495D01*
X+2069649Y-2536495D01*
X+2051050Y-2517896D01*
X+19050Y-2077956D02*
X+19050Y-2051654D01*
X+37649Y-2033055D01*
X+63951Y-2033055D01*
X+82550Y-2051654D01*
X+82550Y-2077956D01*
X+63951Y-2096555D01*
X+37649Y-2096555D01*
X+19050Y-2077956D01*
X+273050Y-2077956D02*
X+273050Y-2051654D01*
X+291649Y-2033055D01*
X+317951Y-2033055D01*
X+336550Y-2051654D01*
X+336550Y-2077956D01*
X+317951Y-2096555D01*
X+291649Y-2096555D01*
X+273050Y-2077956D01*
X+146050Y-1857986D02*
X+146050Y-1831684D01*
X+164649Y-1813085D01*
X+190951Y-1813085D01*
X+209550Y-1831684D01*
X+209550Y-1857986D01*
X+190951Y-1876585D01*
X+164649Y-1876585D01*
X+146050Y-1857986D01*
X+146050Y-1418046D02*
X+146050Y-1391744D01*
X+164649Y-1373145D01*
X+190951Y-1373145D01*
X+209550Y-1391744D01*
X+209550Y-1418046D01*
X+190951Y-1436645D01*
X+164649Y-1436645D01*
X+146050Y-1418046D01*
X+19050Y-758136D02*
X+19050Y-731834D01*
X+37649Y-713235D01*
X+63951Y-713235D01*
X+82550Y-731834D01*
X+82550Y-758136D01*
X+63951Y-776735D01*
X+37649Y-776735D01*
X+19050Y-758136D01*
X+273050Y-758136D02*
X+273050Y-731834D01*
X+291649Y-713235D01*
X+317951Y-713235D01*
X+336550Y-731834D01*
X+336550Y-758136D01*
X+317951Y-776735D01*
X+291649Y-776735D01*
X+273050Y-758136D01*
X+527050Y-758136D02*
X+527050Y-731834D01*
X+545649Y-713235D01*
X+571951Y-713235D01*
X+590550Y-731834D01*
X+590550Y-758136D01*
X+571951Y-776735D01*
X+545649Y-776735D01*
X+527050Y-758136D01*
X+146050Y-538166D02*
X+146050Y-511864D01*
X+164649Y-493265D01*
X+190951Y-493265D01*
X+209550Y-511864D01*
X+209550Y-538166D01*
X+190951Y-556765D01*
X+164649Y-556765D01*
X+146050Y-538166D01*
X+654050Y-538166D02*
X+654050Y-511864D01*
X+672649Y-493265D01*
X+698951Y-493265D01*
X+717550Y-511864D01*
X+717550Y-538166D01*
X+698951Y-556765D01*
X+672649Y-556765D01*
X+654050Y-538166D01*
X+146050Y-98226D02*
X+146050Y-71924D01*
X+164649Y-53325D01*
X+190951Y-53325D01*
X+209550Y-71924D01*
X+209550Y-98226D01*
X+190951Y-116825D01*
X+164649Y-116825D01*
X+146050Y-98226D01*
X+654050Y-98226D02*
X+654050Y-71924D01*
X+672649Y-53325D01*
X+698951Y-53325D01*
X+717550Y-71924D01*
X+717550Y-98226D01*
X+698951Y-116825D01*
X+672649Y-116825D01*
X+654050Y-98226D01*
X+19050Y+121744D02*
X+19050Y+148046D01*
X+37649Y+166645D01*
X+63951Y+166645D01*
X+82550Y+148046D01*
X+82550Y+121744D01*
X+63951Y+103145D01*
X+37649Y+103145D01*
X+19050Y+121744D01*
X+273050Y+121744D02*
X+273050Y+148046D01*
X+291649Y+166645D01*
X+317951Y+166645D01*
X+336550Y+148046D01*
X+336550Y+121744D01*
X+317951Y+103145D01*
X+291649Y+103145D01*
X+273050Y+121744D01*
X+527050Y+121744D02*
X+527050Y+148046D01*
X+545649Y+166645D01*
X+571951Y+166645D01*
X+590550Y+148046D01*
X+590550Y+121744D01*
X+571951Y+103145D01*
X+545649Y+103145D01*
X+527050Y+121744D01*
X+781050Y+121744D02*
X+781050Y+148046D01*
X+799649Y+166645D01*
X+825951Y+166645D01*
X+844550Y+148046D01*
X+844550Y+121744D01*
X+825951Y+103145D01*
X+799649Y+103145D01*
X+781050Y+121744D01*
X+146050Y+341714D02*
X+146050Y+368016D01*
X+164649Y+386615D01*
X+190951Y+386615D01*
X+209550Y+368016D01*
X+209550Y+341714D01*
X+190951Y+323115D01*
X+164649Y+323115D01*
X+146050Y+341714D01*
X+654050Y+341714D02*
X+654050Y+368016D01*
X+672649Y+386615D01*
X+698951Y+386615D01*
X+717550Y+368016D01*
X+717550Y+341714D01*
X+698951Y+323115D01*
X+672649Y+323115D01*
X+654050Y+341714D01*
X+19050Y+561684D02*
X+19050Y+587986D01*
X+37649Y+606585D01*
X+63951Y+606585D01*
X+82550Y+587986D01*
X+82550Y+561684D01*
X+63951Y+543085D01*
X+37649Y+543085D01*
X+19050Y+561684D01*
X+273050Y+561684D02*
X+273050Y+587986D01*
X+291649Y+606585D01*
X+317951Y+606585D01*
X+336550Y+587986D01*
X+336550Y+561684D01*
X+317951Y+543085D01*
X+291649Y+543085D01*
X+273050Y+561684D01*
X+527050Y+561684D02*
X+527050Y+587986D01*
X+545649Y+606585D01*
X+571951Y+606585D01*
X+590550Y+587986D01*
X+590550Y+561684D01*
X+571951Y+543085D01*
X+545649Y+543085D01*
X+527050Y+561684D01*
X+781050Y+561684D02*
X+781050Y+587986D01*
X+799649Y+606585D01*
X+825951Y+606585D01*
X+844550Y+587986D01*
X+844550Y+561684D01*
X+825951Y+543085D01*
X+799649Y+543085D01*
X+781050Y+561684D01*
X+146050Y+781654D02*
X+146050Y+807956D01*
X+164649Y+826555D01*
X+190951Y+826555D01*
X+209550Y+807956D01*
X+209550Y+781654D01*
X+190951Y+763055D01*
X+164649Y+763055D01*
X+146050Y+781654D01*
X+654050Y+781654D02*
X+654050Y+807956D01*
X+672649Y+826555D01*
X+698951Y+826555D01*
X+717550Y+807956D01*
X+717550Y+781654D01*
X+698951Y+763055D01*
X+672649Y+763055D01*
X+654050Y+781654D01*
X+19050Y+1001624D02*
X+19050Y+1027926D01*
X+37649Y+1046525D01*
X+63951Y+1046525D01*
X+82550Y+1027926D01*
X+82550Y+1001624D01*
X+63951Y+983025D01*
X+37649Y+983025D01*
X+19050Y+1001624D01*
X+273050Y+1001624D02*
X+273050Y+1027926D01*
X+291649Y+1046525D01*
X+317951Y+1046525D01*
X+336550Y+1027926D01*
X+336550Y+1001624D01*
X+317951Y+983025D01*
X+291649Y+983025D01*
X+273050Y+1001624D01*
X+527050Y+1001624D02*
X+527050Y+1027926D01*
X+545649Y+1046525D01*
X+571951Y+1046525D01*
X+590550Y+1027926D01*
X+590550Y+1001624D01*
X+571951Y+983025D01*
X+545649Y+983025D01*
X+527050Y+1001624D01*
X+781050Y+1001624D02*
X+781050Y+1027926D01*
X+799649Y+1046525D01*
X+825951Y+1046525D01*
X+844550Y+1027926D01*
X+844550Y+1001624D01*
X+825951Y+983025D01*
X+799649Y+983025D01*
X+781050Y+1001624D01*
X+146050Y+1221594D02*
X+146050Y+1247896D01*
X+164649Y+1266495D01*
X+190951Y+1266495D01*
X+209550Y+1247896D01*
X+209550Y+1221594D01*
X+190951Y+1202995D01*
X+164649Y+1202995D01*
X+146050Y+1221594D01*
X+654050Y+1221594D02*
X+654050Y+1247896D01*
X+672649Y+1266495D01*
X+698951Y+1266495D01*
X+717550Y+1247896D01*
X+717550Y+1221594D01*
X+698951Y+1202995D01*
X+672649Y+1202995D01*
X+654050Y+1221594D01*
X+19050Y+1441564D02*
X+19050Y+1467866D01*
X+37649Y+1486465D01*
X+63951Y+1486465D01*
X+82550Y+1467866D01*
X+82550Y+1441564D01*
X+63951Y+1422965D01*
X+37649Y+1422965D01*
X+19050Y+1441564D01*
X+273050Y+1441564D02*
X+273050Y+1467866D01*
X+291649Y+1486465D01*
X+317951Y+1486465D01*
X+336550Y+1467866D01*
X+336550Y+1441564D01*
X+317951Y+1422965D01*
X+291649Y+1422965D01*
X+273050Y+1441564D01*
X+527050Y+1441564D02*
X+527050Y+1467866D01*
X+545649Y+1486465D01*
X+571951Y+1486465D01*
X+590550Y+1467866D01*
X+590550Y+1441564D01*
X+571951Y+1422965D01*
X+545649Y+1422965D01*
X+527050Y+1441564D01*
X+781050Y+1441564D02*
X+781050Y+1467866D01*
X+799649Y+1486465D01*
X+825951Y+1486465D01*
X+844550Y+1467866D01*
X+844550Y+1441564D01*
X+825951Y+1422965D01*
X+799649Y+1422965D01*
X+781050Y+1441564D01*
X+654050Y+1661534D02*
X+654050Y+1687836D01*
X+672649Y+1706435D01*
X+698951Y+1706435D01*
X+717550Y+1687836D01*
X+717550Y+1661534D01*
X+698951Y+1642935D01*
X+672649Y+1642935D01*
X+654050Y+1661534D01*
X+19050Y+1881504D02*
X+19050Y+1907806D01*
X+37649Y+1926405D01*
X+63951Y+1926405D01*
X+82550Y+1907806D01*
X+82550Y+1881504D01*
X+63951Y+1862905D01*
X+37649Y+1862905D01*
X+19050Y+1881504D01*
X+781050Y+1881504D02*
X+781050Y+1907806D01*
X+799649Y+1926405D01*
X+825951Y+1926405D01*
X+844550Y+1907806D01*
X+844550Y+1881504D01*
X+825951Y+1862905D01*
X+799649Y+1862905D01*
X+781050Y+1881504D01*
X+1035050Y+1881504D02*
X+1035050Y+1907806D01*
X+1053649Y+1926405D01*
X+1079951Y+1926405D01*
X+1098550Y+1907806D01*
X+1098550Y+1881504D01*
X+1079951Y+1862905D01*
X+1053649Y+1862905D01*
X+1035050Y+1881504D01*
X+1289050Y+1881504D02*
X+1289050Y+1907806D01*
X+1307649Y+1926405D01*
X+1333951Y+1926405D01*
X+1352550Y+1907806D01*
X+1352550Y+1881504D01*
X+1333951Y+1862905D01*
X+1307649Y+1862905D01*
X+1289050Y+1881504D01*
X+1543050Y+1881504D02*
X+1543050Y+1907806D01*
X+1561649Y+1926405D01*
X+1587951Y+1926405D01*
X+1606550Y+1907806D01*
X+1606550Y+1881504D01*
X+1587951Y+1862905D01*
X+1561649Y+1862905D01*
X+1543050Y+1881504D01*
X+805181Y-2632434D02*
X+805181Y-2562996D01*
X+854281Y-2513896D01*
X+923719Y-2513896D01*
X+972819Y-2562996D01*
X+972819Y-2632434D01*
X+923719Y-2681534D01*
X+854281Y-2681534D01*
X+805181Y-2632434D01*
X+1059181Y-2632434D02*
X+1059181Y-2562996D01*
X+1108281Y-2513896D01*
X+1177719Y-2513896D01*
X+1226819Y-2562996D01*
X+1226819Y-2632434D01*
X+1177719Y-2681534D01*
X+1108281Y-2681534D01*
X+1059181Y-2632434D01*
X+1313181Y-2632434D02*
X+1313181Y-2562996D01*
X+1362281Y-2513896D01*
X+1431719Y-2513896D01*
X+1480819Y-2562996D01*
X+1480819Y-2632434D01*
X+1431719Y-2681534D01*
X+1362281Y-2681534D01*
X+1313181Y-2632434D01*
X+1186181Y-2412464D02*
X+1186181Y-2343026D01*
X+1235281Y-2293926D01*
X+1304719Y-2293926D01*
X+1353819Y-2343026D01*
X+1353819Y-2412464D01*
X+1304719Y-2461564D01*
X+1235281Y-2461564D01*
X+1186181Y-2412464D01*
X+1059181Y-2192494D02*
X+1059181Y-2123056D01*
X+1108281Y-2073956D01*
X+1177719Y-2073956D01*
X+1226819Y-2123056D01*
X+1226819Y-2192494D01*
X+1177719Y-2241594D01*
X+1108281Y-2241594D01*
X+1059181Y-2192494D01*
X+932181Y-1972524D02*
X+932181Y-1903086D01*
X+981281Y-1853986D01*
X+1050719Y-1853986D01*
X+1099819Y-1903086D01*
X+1099819Y-1972524D01*
X+1050719Y-2021624D01*
X+981281Y-2021624D01*
X+932181Y-1972524D01*
X+1186181Y-1972524D02*
X+1186181Y-1903086D01*
X+1235281Y-1853986D01*
X+1304719Y-1853986D01*
X+1353819Y-1903086D01*
X+1353819Y-1972524D01*
X+1304719Y-2021624D01*
X+1235281Y-2021624D01*
X+1186181Y-1972524D01*
X+1694181Y-1972524D02*
X+1694181Y-1903086D01*
X+1743281Y-1853986D01*
X+1812719Y-1853986D01*
X+1861819Y-1903086D01*
X+1861819Y-1972524D01*
X+1812719Y-2021624D01*
X+1743281Y-2021624D01*
X+1694181Y-1972524D01*
X+1186181Y-1532584D02*
X+1186181Y-1463146D01*
X+1235281Y-1414046D01*
X+1304719Y-1414046D01*
X+1353819Y-1463146D01*
X+1353819Y-1532584D01*
X+1304719Y-1581684D01*
X+1235281Y-1581684D01*
X+1186181Y-1532584D01*
X+805181Y-1312614D02*
X+805181Y-1243176D01*
X+854281Y-1194076D01*
X+923719Y-1194076D01*
X+972819Y-1243176D01*
X+972819Y-1312614D01*
X+923719Y-1361714D01*
X+854281Y-1361714D01*
X+805181Y-1312614D01*
X+1059181Y-1312614D02*
X+1059181Y-1243176D01*
X+1108281Y-1194076D01*
X+1177719Y-1194076D01*
X+1226819Y-1243176D01*
X+1226819Y-1312614D01*
X+1177719Y-1361714D01*
X+1108281Y-1361714D01*
X+1059181Y-1312614D01*
X+1313181Y-1312614D02*
X+1313181Y-1243176D01*
X+1362281Y-1194076D01*
X+1431719Y-1194076D01*
X+1480819Y-1243176D01*
X+1480819Y-1312614D01*
X+1431719Y-1361714D01*
X+1362281Y-1361714D01*
X+1313181Y-1312614D01*
X+1186181Y-1092644D02*
X+1186181Y-1023206D01*
X+1235281Y-974106D01*
X+1304719Y-974106D01*
X+1353819Y-1023206D01*
X+1353819Y-1092644D01*
X+1304719Y-1141744D01*
X+1235281Y-1141744D01*
X+1186181Y-1092644D01*
X+1059181Y-872674D02*
X+1059181Y-803236D01*
X+1108281Y-754136D01*
X+1177719Y-754136D01*
X+1226819Y-803236D01*
X+1226819Y-872674D01*
X+1177719Y-921774D01*
X+1108281Y-921774D01*
X+1059181Y-872674D01*
X+1313181Y-432734D02*
X+1313181Y-363296D01*
X+1362281Y-314196D01*
X+1431719Y-314196D01*
X+1480819Y-363296D01*
X+1480819Y-432734D01*
X+1431719Y-481834D01*
X+1362281Y-481834D01*
X+1313181Y-432734D01*
X+1567181Y-432734D02*
X+1567181Y-363296D01*
X+1616281Y-314196D01*
X+1685719Y-314196D01*
X+1734819Y-363296D01*
X+1734819Y-432734D01*
X+1685719Y-481834D01*
X+1616281Y-481834D01*
X+1567181Y-432734D01*
X+1440181Y-212764D02*
X+1440181Y-143326D01*
X+1489281Y-94226D01*
X+1558719Y-94226D01*
X+1607819Y-143326D01*
X+1607819Y-212764D01*
X+1558719Y-261864D01*
X+1489281Y-261864D01*
X+1440181Y-212764D01*
X+1567181Y+7206D02*
X+1567181Y+76644D01*
X+1616281Y+125744D01*
X+1685719Y+125744D01*
X+1734819Y+76644D01*
X+1734819Y+7206D01*
X+1685719Y-41894D01*
X+1616281Y-41894D01*
X+1567181Y+7206D01*
X+1440181Y+227176D02*
X+1440181Y+296614D01*
X+1489281Y+345714D01*
X+1558719Y+345714D01*
X+1607819Y+296614D01*
X+1607819Y+227176D01*
X+1558719Y+178076D01*
X+1489281Y+178076D01*
X+1440181Y+227176D01*
X+1440181Y+667116D02*
X+1440181Y+736554D01*
X+1489281Y+785654D01*
X+1558719Y+785654D01*
X+1607819Y+736554D01*
X+1607819Y+667116D01*
X+1558719Y+618016D01*
X+1489281Y+618016D01*
X+1440181Y+667116D01*
X+1567181Y+1327026D02*
X+1567181Y+1396464D01*
X+1616281Y+1445564D01*
X+1685719Y+1445564D01*
X+1734819Y+1396464D01*
X+1734819Y+1327026D01*
X+1685719Y+1277926D01*
X+1616281Y+1277926D01*
X+1567181Y+1327026D01*
X+1186181Y+1546996D02*
X+1186181Y+1616434D01*
X+1235281Y+1665534D01*
X+1304719Y+1665534D01*
X+1353819Y+1616434D01*
X+1353819Y+1546996D01*
X+1304719Y+1497896D01*
X+1235281Y+1497896D01*
X+1186181Y+1546996D01*
X+1440181Y+1546996D02*
X+1440181Y+1616434D01*
X+1489281Y+1665534D01*
X+1558719Y+1665534D01*
X+1607819Y+1616434D01*
X+1607819Y+1546996D01*
X+1558719Y+1497896D01*
X+1489281Y+1497896D01*
X+1440181Y+1546996D01*
X-528319Y-2759434D02*
X-528319Y-2689996D01*
X-479219Y-2640896D01*
X-409781Y-2640896D01*
X-360681Y-2689996D01*
X-360681Y-2759434D01*
X-409781Y-2808534D01*
X-479219Y-2808534D01*
X-528319Y-2759434D01*
X-909319Y-2539464D02*
X-909319Y-2470026D01*
X-860219Y-2420926D01*
X-790781Y-2420926D01*
X-741681Y-2470026D01*
X-741681Y-2539464D01*
X-790781Y-2588564D01*
X-860219Y-2588564D01*
X-909319Y-2539464D01*
X-655319Y-2539464D02*
X-655319Y-2470026D01*
X-606219Y-2420926D01*
X-536781Y-2420926D01*
X-487681Y-2470026D01*
X-487681Y-2539464D01*
X-536781Y-2588564D01*
X-606219Y-2588564D01*
X-655319Y-2539464D01*
X-401319Y-2539464D02*
X-401319Y-2470026D01*
X-352219Y-2420926D01*
X-282781Y-2420926D01*
X-233681Y-2470026D01*
X-233681Y-2539464D01*
X-282781Y-2588564D01*
X-352219Y-2588564D01*
X-401319Y-2539464D01*
X-909319Y-2099524D02*
X-909319Y-2030086D01*
X-860219Y-1980986D01*
X-790781Y-1980986D01*
X-741681Y-2030086D01*
X-741681Y-2099524D01*
X-790781Y-2148624D01*
X-860219Y-2148624D01*
X-909319Y-2099524D01*
X-655319Y-2099524D02*
X-655319Y-2030086D01*
X-606219Y-1980986D01*
X-536781Y-1980986D01*
X-487681Y-2030086D01*
X-487681Y-2099524D01*
X-536781Y-2148624D01*
X-606219Y-2148624D01*
X-655319Y-2099524D01*
X-401319Y-2099524D02*
X-401319Y-2030086D01*
X-352219Y-1980986D01*
X-282781Y-1980986D01*
X-233681Y-2030086D01*
X-233681Y-2099524D01*
X-282781Y-2148624D01*
X-352219Y-2148624D01*
X-401319Y-2099524D01*
X-528319Y-1879554D02*
X-528319Y-1810116D01*
X-479219Y-1761016D01*
X-409781Y-1761016D01*
X-360681Y-1810116D01*
X-360681Y-1879554D01*
X-409781Y-1928654D01*
X-479219Y-1928654D01*
X-528319Y-1879554D01*
X-909319Y-1659584D02*
X-909319Y-1590146D01*
X-860219Y-1541046D01*
X-790781Y-1541046D01*
X-741681Y-1590146D01*
X-741681Y-1659584D01*
X-790781Y-1708684D01*
X-860219Y-1708684D01*
X-909319Y-1659584D01*
X-528319Y-1439614D02*
X-528319Y-1370176D01*
X-479219Y-1321076D01*
X-409781Y-1321076D01*
X-360681Y-1370176D01*
X-360681Y-1439614D01*
X-409781Y-1488714D01*
X-479219Y-1488714D01*
X-528319Y-1439614D01*
X-401319Y-1219644D02*
X-401319Y-1150206D01*
X-352219Y-1101106D01*
X-282781Y-1101106D01*
X-233681Y-1150206D01*
X-233681Y-1219644D01*
X-282781Y-1268744D01*
X-352219Y-1268744D01*
X-401319Y-1219644D01*
X-909319Y-779704D02*
X-909319Y-710266D01*
X-860219Y-661166D01*
X-790781Y-661166D01*
X-741681Y-710266D01*
X-741681Y-779704D01*
X-790781Y-828804D01*
X-860219Y-828804D01*
X-909319Y-779704D01*
X-401319Y-779704D02*
X-401319Y-710266D01*
X-352219Y-661166D01*
X-282781Y-661166D01*
X-233681Y-710266D01*
X-233681Y-779704D01*
X-282781Y-828804D01*
X-352219Y-828804D01*
X-401319Y-779704D01*
X-782319Y-559734D02*
X-782319Y-490296D01*
X-733219Y-441196D01*
X-663781Y-441196D01*
X-614681Y-490296D01*
X-614681Y-559734D01*
X-663781Y-608834D01*
X-733219Y-608834D01*
X-782319Y-559734D01*
X-528319Y-559734D02*
X-528319Y-490296D01*
X-479219Y-441196D01*
X-409781Y-441196D01*
X-360681Y-490296D01*
X-360681Y-559734D01*
X-409781Y-608834D01*
X-479219Y-608834D01*
X-528319Y-559734D01*
X-909319Y-339764D02*
X-909319Y-270326D01*
X-860219Y-221226D01*
X-790781Y-221226D01*
X-741681Y-270326D01*
X-741681Y-339764D01*
X-790781Y-388864D01*
X-860219Y-388864D01*
X-909319Y-339764D01*
X-782319Y-119794D02*
X-782319Y-50356D01*
X-733219Y-1256D01*
X-663781Y-1256D01*
X-614681Y-50356D01*
X-614681Y-119794D01*
X-663781Y-168894D01*
X-733219Y-168894D01*
X-782319Y-119794D01*
X-528319Y-119794D02*
X-528319Y-50356D01*
X-479219Y-1256D01*
X-409781Y-1256D01*
X-360681Y-50356D01*
X-360681Y-119794D01*
X-409781Y-168894D01*
X-479219Y-168894D01*
X-528319Y-119794D01*
X-909319Y+100176D02*
X-909319Y+169614D01*
X-860219Y+218714D01*
X-790781Y+218714D01*
X-741681Y+169614D01*
X-741681Y+100176D01*
X-790781Y+51076D01*
X-860219Y+51076D01*
X-909319Y+100176D01*
X-401319Y+100176D02*
X-401319Y+169614D01*
X-352219Y+218714D01*
X-282781Y+218714D01*
X-233681Y+169614D01*
X-233681Y+100176D01*
X-282781Y+51076D01*
X-352219Y+51076D01*
X-401319Y+100176D01*
X-909319Y+540116D02*
X-909319Y+609554D01*
X-860219Y+658654D01*
X-790781Y+658654D01*
X-741681Y+609554D01*
X-741681Y+540116D01*
X-790781Y+491016D01*
X-860219Y+491016D01*
X-909319Y+540116D01*
X-401319Y+540116D02*
X-401319Y+609554D01*
X-352219Y+658654D01*
X-282781Y+658654D01*
X-233681Y+609554D01*
X-233681Y+540116D01*
X-282781Y+491016D01*
X-352219Y+491016D01*
X-401319Y+540116D01*
X-909319Y+980056D02*
X-909319Y+1049494D01*
X-860219Y+1098594D01*
X-790781Y+1098594D01*
X-741681Y+1049494D01*
X-741681Y+980056D01*
X-790781Y+930956D01*
X-860219Y+930956D01*
X-909319Y+980056D01*
X-401319Y+980056D02*
X-401319Y+1049494D01*
X-352219Y+1098594D01*
X-282781Y+1098594D01*
X-233681Y+1049494D01*
X-233681Y+980056D01*
X-282781Y+930956D01*
X-352219Y+930956D01*
X-401319Y+980056D01*
X-909319Y+1419996D02*
X-909319Y+1489434D01*
X-860219Y+1538534D01*
X-790781Y+1538534D01*
X-741681Y+1489434D01*
X-741681Y+1419996D01*
X-790781Y+1370896D01*
X-860219Y+1370896D01*
X-909319Y+1419996D01*
X-401319Y+1419996D02*
X-401319Y+1489434D01*
X-352219Y+1538534D01*
X-282781Y+1538534D01*
X-233681Y+1489434D01*
X-233681Y+1419996D01*
X-282781Y+1370896D01*
X-352219Y+1370896D01*
X-401319Y+1419996D01*
X+4818381Y-1666681D02*
X+4818381Y-2876305D01*
X+4643119Y-2701043D01*
X+4643119Y-1870957D01*
X+4715757Y-1798319D01*
X+4733719Y-1798319D01*
X+4782819Y-1749219D01*
X+4782819Y-1679781D01*
X+4733719Y-1630681D01*
X+4704586Y-1630681D01*
X+4735260Y-1600007D01*
X+4735260Y-1583560D01*
X+4818381Y-1666681D01*
X+4698220Y-2045151D02*
X+4698220Y-2018849D01*
X+4716819Y-2000250D01*
X+4743121Y-2000250D01*
X+4761720Y-2018849D01*
X+4761720Y-2045151D01*
X+4743121Y-2063750D01*
X+4716819Y-2063750D01*
X+4698220Y-2045151D01*
X+4718050Y-2737866D02*
X+4718050Y-2711564D01*
X+4736649Y-2692965D01*
X+4762951Y-2692965D01*
X+4781550Y-2711564D01*
X+4781550Y-2737866D01*
X+4762951Y-2756465D01*
X+4736649Y-2756465D01*
X+4718050Y-2737866D01*
X+4718050Y-2297926D02*
X+4718050Y-2271624D01*
X+4736649Y-2253025D01*
X+4762951Y-2253025D01*
X+4781550Y-2271624D01*
X+4781550Y-2297926D01*
X+4762951Y-2316525D01*
X+4736649Y-2316525D01*
X+4718050Y-2297926D01*
X+93981Y+1968500D02*
X+381000Y+1968500D01*
X+668019Y+1968500D02*
X+381000Y+1968500D01*
X+381000Y+1681481D02*
X+381000Y+1968500D01*
X+381000Y+2255519D02*
X+381000Y+1968500D01*
X+254000Y-7125869D02*
X+254000Y-7023000D01*
X+151131Y-7023000D02*
X+254000Y-7023000D01*
X+151131Y-6823000D02*
X+254000Y-6823000D01*
X+151131Y-6623000D02*
X+254000Y-6623000D01*
X+151131Y-6023000D02*
X+254000Y-6023000D01*
X+9231631Y-6286500D02*
X+9334500Y-6286500D01*
X+9437369Y-6286500D02*
X+9334500Y-6286500D01*
X+8640369Y-6713500D02*
X+8537500Y-6713500D01*
X+8537500Y-6816369D02*
X+8537500Y-6713500D01*
X+8537500Y-6610631D02*
X+8537500Y-6713500D01*
D23*
X-635000Y-7175500D03*
X+9271000Y-7175500D03*
D28*
X+4318000Y+1714500D03*
X+6667500Y+1714500D03*
X+8953500Y+1714500D03*
X+381000Y+1968500D03*
X-571500Y+1968500D03*
D44*
X+454000Y-7023000D03*
X+254000Y-7023000D03*
X+454000Y-6823000D03*
X+254000Y-6823000D03*
X+454000Y-6623000D03*
X+254000Y-6623000D03*
X+454000Y-6423000D03*
X+254000Y-6423000D03*
X+454000Y-6223000D03*
X+254000Y-6223000D03*
X+454000Y-6023000D03*
X+254000Y-6023000D03*
X+454000Y-5823000D03*
X+254000Y-5823000D03*
X+9334500Y-6486500D03*
X+9334500Y-6286500D03*
X+9334500Y-6086500D03*
X+7537500Y-6713500D03*
X+7737500Y-6713500D03*
X+7937500Y-6713500D03*
X+8137500Y-6713500D03*
X+8337500Y-6713500D03*
X+8537500Y-6713500D03*
D46*
X-1079500Y-7620000D02*
X+9715500Y-7620000D01*
X+9715500Y+2349500D01*
X-1079500Y+2349500D01*
X-1079500Y-7620000D01*
D47*
X+9842500Y-7620000D02*
X+9842500Y+2349500D01*
X+9842500Y-7620000D02*
X+9969500Y-7493000D01*
X+9842500Y-7620000D02*
X+9715500Y-7493000D01*
X+9842500Y+2349500D02*
X+9715500Y+2222500D01*
X+9842500Y+2349500D02*
X+9969500Y+2222500D01*
X+9874250Y-2635250D02*
X+9874141Y-2632616D01*
X+9873251Y-2627347D01*
X+9871389Y-2622078D01*
X+9868346Y-2616809D01*
X+9863691Y-2611607D01*
X+9858422Y-2607781D01*
X+9853153Y-2605341D01*
X+9847884Y-2603960D01*
X+9842615Y-2603500D01*
X+9842500Y-2603500D01*
X+9810750Y-2635250D02*
X+9810859Y-2632616D01*
X+9811749Y-2627347D01*
X+9813611Y-2622078D01*
X+9816654Y-2616809D01*
X+9821309Y-2611607D01*
X+9826578Y-2607781D01*
X+9831847Y-2605341D01*
X+9837116Y-2603960D01*
X+9842385Y-2603500D01*
X+9842500Y-2603500D01*
X+9810750Y-2635250D02*
X+9810859Y-2637884D01*
X+9811749Y-2643153D01*
X+9813611Y-2648422D01*
X+9816654Y-2653691D01*
X+9821309Y-2658893D01*
X+9826578Y-2662719D01*
X+9831847Y-2665159D01*
X+9837116Y-2666540D01*
X+9842385Y-2667000D01*
X+9842500Y-2667000D01*
X+9874250Y-2635250D02*
X+9874141Y-2637884D01*
X+9873251Y-2643153D01*
X+9871389Y-2648422D01*
X+9868346Y-2653691D01*
X+9863691Y-2658893D01*
X+9858422Y-2662719D01*
X+9853153Y-2665159D01*
X+9847884Y-2666540D01*
X+9842615Y-2667000D01*
X+9842500Y-2667000D01*
X+8502015Y+2729230D02*
X+8517890Y+2744470D01*
X+8565515Y+2744470D01*
X+8581390Y+2729230D01*
X+8581390Y+2713990D01*
X+8565515Y+2698750D01*
X+8581390Y+2683510D01*
X+8581390Y+2668270D01*
X+8565515Y+2653030D01*
X+8517890Y+2653030D01*
X+8502015Y+2668270D01*
X+8533765Y+2698750D02*
X+8565515Y+2698750D01*
X+8708390Y+2713990D02*
X+8692515Y+2698750D01*
X+8644890Y+2698750D01*
X+8629015Y+2713990D01*
X+8629015Y+2729230D01*
X+8644890Y+2744470D01*
X+8692515Y+2744470D01*
X+8708390Y+2729230D01*
X+8708390Y+2668270D01*
X+8692515Y+2653030D01*
X+8644890Y+2653030D01*
X+8756015Y+2729230D02*
X+8771890Y+2744470D01*
X+8819515Y+2744470D01*
X+8835390Y+2729230D01*
X+8835390Y+2713990D01*
X+8819515Y+2698750D01*
X+8771890Y+2698750D01*
X+8756015Y+2683510D01*
X+8756015Y+2653030D01*
X+8835390Y+2653030D01*
X+8962390Y+2744470D02*
X+8883015Y+2744470D01*
X+8883015Y+2713990D01*
X+8946515Y+2713990D01*
X+8962390Y+2698750D01*
X+8962390Y+2668270D01*
X+8946515Y+2653030D01*
X+8898890Y+2653030D01*
X+8883015Y+2668270D01*
X+9010015Y+2744470D02*
X+9010015Y+2668270D01*
X+9025890Y+2653030D01*
X+9073515Y+2653030D01*
X+9089390Y+2668270D01*
X+8994140Y+2713990D02*
X+9073515Y+2713990D01*
X+9216390Y+2653030D02*
X+9216390Y+2698750D01*
X+9200515Y+2713990D01*
X+9137015Y+2713990D01*
X+9121140Y+2698750D01*
X+9121140Y+2744470D02*
X+9121140Y+2653030D01*
X+9715500Y+2603500D02*
X-1079500Y+2603500D01*
X+9715500Y+2603500D02*
X+9588500Y+2730500D01*
X+9715500Y+2603500D02*
X+9588500Y+2476500D01*
X-1079500Y+2603500D02*
X-952500Y+2476500D01*
X-1079500Y+2603500D02*
X-952500Y+2730500D01*
X+4349750Y+2603500D02*
X+4349641Y+2606134D01*
X+4348751Y+2611403D01*
X+4346889Y+2616672D01*
X+4343846Y+2621941D01*
X+4339191Y+2627143D01*
X+4333922Y+2630969D01*
X+4328653Y+2633409D01*
X+4323384Y+2634790D01*
X+4318115Y+2635250D01*
X+4318000Y+2635250D01*
X+4286250Y+2603500D02*
X+4286359Y+2606134D01*
X+4287249Y+2611403D01*
X+4289111Y+2616672D01*
X+4292154Y+2621941D01*
X+4296809Y+2627143D01*
X+4302078Y+2630969D01*
X+4307347Y+2633409D01*
X+4312616Y+2634790D01*
X+4317885Y+2635250D01*
X+4318000Y+2635250D01*
X+4286250Y+2603500D02*
X+4286359Y+2600866D01*
X+4287249Y+2595597D01*
X+4289111Y+2590328D01*
X+4292154Y+2585059D01*
X+4296809Y+2579857D01*
X+4302078Y+2576031D01*
X+4307347Y+2573591D01*
X+4312616Y+2572210D01*
X+4317885Y+2571750D01*
X+4318000Y+2571750D01*
X+4349750Y+2603500D02*
X+4349641Y+2600866D01*
X+4348751Y+2595597D01*
X+4346889Y+2590328D01*
X+4343846Y+2585059D01*
X+4339191Y+2579857D01*
X+4333922Y+2576031D01*
X+4328653Y+2573591D01*
X+4323384Y+2572210D01*
X+4318115Y+2571750D01*
X+4318000Y+2571750D01*
X+4032250Y+2674620D02*
X+3937000Y+2674620D01*
X+4000500Y+2735580D01*
X+4000500Y+2644140D01*
X+4079875Y+2720340D02*
X+4095750Y+2735580D01*
X+4143375Y+2735580D01*
X+4159250Y+2720340D01*
X+4159250Y+2705100D01*
X+4143375Y+2689860D01*
X+4095750Y+2689860D01*
X+4079875Y+2674620D01*
X+4079875Y+2644140D01*
X+4159250Y+2644140D01*
X+4286250Y+2735580D02*
X+4206875Y+2735580D01*
X+4206875Y+2705100D01*
X+4270375Y+2705100D01*
X+4286250Y+2689860D01*
X+4286250Y+2659380D01*
X+4270375Y+2644140D01*
X+4222750Y+2644140D01*
X+4206875Y+2659380D01*
X+4318000Y+2659380D02*
X+4318000Y+2720340D01*
X+4333875Y+2735580D01*
X+4397375Y+2735580D01*
X+4413250Y+2720340D01*
X+4413250Y+2659380D01*
X+4397375Y+2644140D01*
X+4333875Y+2644140D01*
X+4318000Y+2659380D01*
X+4318000Y+2644140D02*
X+4413250Y+2735580D01*
X+4460875Y+2735580D02*
X+4460875Y+2659380D01*
X+4476750Y+2644140D01*
X+4524375Y+2644140D01*
X+4540250Y+2659380D01*
X+4445000Y+2705100D02*
X+4524375Y+2705100D01*
X+4667250Y+2644140D02*
X+4667250Y+2689860D01*
X+4651375Y+2705100D01*
X+4587875Y+2705100D01*
X+4572000Y+2689860D01*
X+4572000Y+2735580D02*
X+4572000Y+2644140D01*
M02*
