G04 PROTEUS GERBER X2 FILE*
%TF.GenerationSoftware,Labcenter,Proteus,8.7-SP3-Build25561*%
%TF.CreationDate,2021-06-13T19:25:45+00:00*%
%TF.FileFunction,Plated,1,4,PTH*%
%TF.FilePolarity,Positive*%
%TF.Part,Single*%
%TF.SameCoordinates,{9c7b3d0d-a21c-4509-bc3d-39c11cb24c33}*%
%FSLAX45Y45*%
%MOMM*%
G01*
%TA.AperFunction,MechanicalDrill*%
%ADD182C,0.381000*%
%TA.AperFunction,ViaDrill*%
%ADD183C,0.381000*%
%ADD181C,0.508000*%
%TA.AperFunction,OtherDrill,Unknown*%
%ADD184C,4.000000*%
%TA.AperFunction,ComponentDrill*%
%ADD185C,1.524000*%
%TA.AperFunction,ComponentDrill*%
%ADD186C,0.812800*%
%TD.AperFunction*%
D182*
X+3225800Y+1174750D03*
X+3479800Y+1174750D03*
X+5257800Y+1174750D03*
X+5511800Y+1174750D03*
X+5765800Y+1174750D03*
X+7543800Y+1174750D03*
X+7797800Y+1174750D03*
X+8051800Y+1174750D03*
X+3098800Y+1394720D03*
X+3352800Y+1394720D03*
X+4876800Y+1394720D03*
X+5130800Y+1394720D03*
X+5384800Y+1394720D03*
X+5638800Y+1394720D03*
X+7162800Y+1394720D03*
X+7416800Y+1394720D03*
X+7670800Y+1394720D03*
X+7924800Y+1394720D03*
X+3479800Y+1614690D03*
X+4749800Y+1614690D03*
X+5003800Y+1614690D03*
X+5257800Y+1614690D03*
X+5511800Y+1614690D03*
X+5765800Y+1614690D03*
X+7289800Y+1614690D03*
X+7543800Y+1614690D03*
X+7797800Y+1614690D03*
X+8051800Y+1614690D03*
X+3352800Y+1834660D03*
X+4876800Y+1834660D03*
X+5130800Y+1834660D03*
X+5384800Y+1834660D03*
X+5638800Y+1834660D03*
X+7162800Y+1834660D03*
X+7416800Y+1834660D03*
X+7670800Y+1834660D03*
X+7924800Y+1834660D03*
X+3479800Y+2054630D03*
X+4749800Y+2054630D03*
X+5003800Y+2054630D03*
X+5257800Y+2054630D03*
X+5511800Y+2054630D03*
X+5765800Y+2054630D03*
X+7289800Y+2054630D03*
X+7543800Y+2054630D03*
X+7797800Y+2054630D03*
X+8051800Y+2054630D03*
D183*
X+5461000Y-1673630D03*
X+5562600Y-1497654D03*
X+5461000Y-1321678D03*
X+5562600Y-1145702D03*
X+5562600Y-793750D03*
X+5765800Y-793750D03*
X+5969000Y-793750D03*
X+6375400Y-793750D03*
X+6578600Y-793750D03*
X+6781800Y-793750D03*
X+6477000Y-617774D03*
X+6680200Y-617774D03*
X+6781800Y-441798D03*
X+5664200Y-265822D03*
X+5867400Y-265822D03*
X+6070600Y-265822D03*
X+6273800Y-265822D03*
X+6477000Y-265822D03*
X+5562600Y-89846D03*
X+5765800Y-89846D03*
X+5969000Y-89846D03*
X+6172200Y-89846D03*
X+6375400Y-89846D03*
X+6781800Y-89846D03*
X+7747000Y-1673630D03*
X+7848600Y-1497654D03*
X+7747000Y-1321678D03*
X+7848600Y-1145702D03*
X+7747000Y-969726D03*
X+7848600Y-793750D03*
X+8051800Y-793750D03*
X+8255000Y-793750D03*
X+8661400Y-793750D03*
X+8763000Y-617774D03*
X+7950200Y-265822D03*
X+8153400Y-265822D03*
X+8356600Y-265822D03*
X+8559800Y-265822D03*
X+8763000Y-265822D03*
X+7848600Y-89846D03*
X+8051800Y-89846D03*
X+8255000Y-89846D03*
X+8458200Y-89846D03*
X+8661400Y-89846D03*
X+3213100Y-1497654D03*
X+3111500Y-1321678D03*
X+3213100Y-1145702D03*
X+3111500Y-969726D03*
X+3213100Y-793750D03*
X+3416300Y-793750D03*
X+3619500Y-793750D03*
X+4127500Y-617774D03*
X+4330700Y-617774D03*
X+3314700Y-265822D03*
X+3517900Y-265822D03*
X+3721100Y-265822D03*
X+3924300Y-265822D03*
X+4127500Y-265822D03*
X+3213100Y-89846D03*
X+3416300Y-89846D03*
X+3619500Y-89846D03*
X+3822700Y-89846D03*
X+4025900Y-89846D03*
X+4432300Y-89846D03*
X+4013200Y+1052310D03*
X+3911600Y+1228286D03*
X+4114800Y+1228286D03*
X+3810000Y+1404262D03*
X+4013200Y+1404262D03*
X+3911600Y+1580238D03*
X+3810000Y+1756214D03*
X+3911600Y+1932190D03*
X+8597900Y+1228286D03*
X+8801100Y+1228286D03*
X+8496300Y+1404262D03*
X+8699500Y+1404262D03*
X+8597900Y+1580238D03*
X+8496300Y+1756214D03*
X+8597900Y+1932190D03*
X+6363969Y+1052310D03*
X+6262369Y+1228286D03*
X+6465569Y+1228286D03*
X+6160769Y+1404262D03*
X+6363969Y+1404262D03*
X+6262369Y+1580238D03*
X+6160769Y+1756214D03*
X+6262369Y+1932190D03*
X+8686800Y-2130796D03*
X+8890000Y-2130796D03*
X+2082800Y+1916652D03*
X+2286000Y+1916652D03*
X+2895600Y+1916652D03*
X+2794000Y+2092628D03*
X+2006600Y+1525797D03*
X+2209800Y+1525797D03*
X+2413000Y+1525797D03*
X+2616200Y+1525797D03*
X+3492500Y-2730500D03*
X+4699000Y-1714500D03*
X+4729970Y-2032000D03*
X+2921000Y-762000D03*
X+4699000Y-444500D03*
X+5016500Y-63500D03*
X+8572500Y+571500D03*
X+8763000Y-889000D03*
X+8001000Y-2476500D03*
X+8636000Y-2794000D03*
X+9017000Y-2921000D03*
X+9461500Y-2159000D03*
X+8128000Y-2984500D03*
X+6921500Y-1206500D03*
X+7239000Y-63500D03*
X+5651500Y-2476500D03*
X+6921500Y-1714500D03*
X+6921500Y-635000D03*
X+8890000Y-762000D03*
X+6413500Y-2984500D03*
X+5269832Y-2934010D03*
X+5143500Y-2794000D03*
X+4699000Y-952500D03*
X+7620000Y-3048000D03*
X+7239000Y-2794000D03*
X+6852642Y-2947088D03*
X+5405123Y-3273402D03*
X+9035789Y-3275673D03*
X+9334500Y+1206500D03*
X+8056544Y-3238229D03*
X+9207500Y-63500D03*
X+6794500Y-3238500D03*
X+6985000Y-63500D03*
X+7747000Y-3429000D03*
X+6428649Y-3363510D03*
X+9144000Y-3873500D03*
X+5462196Y-3402691D03*
X+6804544Y-3400300D03*
X+7874000Y-3238500D03*
X+7048500Y+1206500D03*
X+7683500Y-3238500D03*
X+4699000Y+1206500D03*
X+6477000Y-3175000D03*
D182*
X+4749800Y-2724715D03*
X+5511800Y-2724715D03*
X+5384800Y-2504745D03*
X+7416800Y-2504745D03*
X+4749800Y-2284775D03*
X+5257800Y-2284775D03*
X+5511800Y-2284775D03*
X+2971800Y+2114625D03*
X+3111500Y-1673630D03*
X+4127500Y-793750D03*
X+4381500Y-793750D03*
D183*
X+7556500Y-762000D03*
X+5334000Y-825500D03*
X+2413000Y-444500D03*
X+1905000Y-381000D03*
D182*
X+5003800Y+1174750D03*
D183*
X+4699000Y-127000D03*
X+4889500Y-4508500D03*
X+5715000Y-5397500D03*
X+5250653Y-6773442D03*
X+3369407Y-4759836D03*
X+2476500Y-5969000D03*
X+5201336Y-4122418D03*
X+5137322Y-4216749D03*
X+5223704Y-4304672D03*
X+3543214Y-7032789D03*
X+2939996Y-6806802D03*
X+798339Y-5243339D03*
X+6794500Y-4508500D03*
X+5090277Y-4706542D03*
X-127000Y-4953000D03*
X+825500Y-4064000D03*
X+1206500Y-4064000D03*
D181*
X+63500Y-3492500D03*
D183*
X+190500Y-7302500D03*
X+1206500Y-7366000D03*
X+4190486Y-3977762D03*
X+4318000Y-3937000D03*
X+3746500Y-3937000D03*
X+3746500Y-4254500D03*
X+4797500Y-4128388D03*
X+3937000Y-3111500D03*
X+4699000Y-1206500D03*
X+4703525Y-680491D03*
X+3330252Y-6746398D03*
X+2540000Y-6223000D03*
X+7256104Y-6804454D03*
X+6667500Y-6794500D03*
X+6466771Y-5469186D03*
X+6286500Y-5207000D03*
X+6012307Y-6058609D03*
X+8382000Y-5080000D03*
X+8382000Y-5334000D03*
X+8382000Y-5588000D03*
X+8893984Y-4535770D03*
X+8493457Y-5954134D03*
X+8572500Y-6096000D03*
X+1270000Y-5334000D03*
X+762000Y-5461000D03*
X+777745Y-5731541D03*
X+2476596Y-5969000D03*
X+2540000Y-6413500D03*
X+1905000Y-6540500D03*
X+2162800Y-6787849D03*
X+1968500Y-6921500D03*
X+2413000Y-6794500D03*
X+2603500Y-6858000D03*
X+2382291Y-7028649D03*
X+2603500Y-7112000D03*
X+1638554Y-6958147D03*
X+1397000Y-6921500D03*
X+5270500Y-6540500D03*
X+5461000Y-6413500D03*
X+5000592Y-6897140D03*
X+4631295Y-7275534D03*
X+3570663Y-7287838D03*
X+3812572Y-7269848D03*
X+1308146Y-5957820D03*
X+5826579Y-4795895D03*
X+7969250Y-4540250D03*
X+1870921Y-3983646D03*
X+2222500Y-4000500D03*
X+2222500Y-6286500D03*
X+1985701Y-2218041D03*
X+2032000Y-3937000D03*
X+4651441Y-1565288D03*
X+5488720Y-4530670D03*
X+3226757Y-6836751D03*
X+7244914Y-5984685D03*
X+3551706Y-4639794D03*
D182*
X+558800Y-3384625D03*
X+812800Y-3384625D03*
X+1066800Y-3384625D03*
X+1320800Y-3384625D03*
X+1574800Y-3384625D03*
X+1828800Y-3384625D03*
X+2082800Y-3384625D03*
X+177800Y-3164655D03*
X+812800Y-2944685D03*
X+1066800Y-2944685D03*
X+1320800Y-2944685D03*
X+1828800Y-2944685D03*
X+177800Y-2724715D03*
X+1955800Y-2724715D03*
X+50800Y-2504745D03*
X+304800Y-2504745D03*
X+2082800Y-2504745D03*
X+50800Y-2064805D03*
X+304800Y-2064805D03*
X+177800Y-1844835D03*
X+177800Y-1404895D03*
X+50800Y-744985D03*
X+304800Y-744985D03*
X+558800Y-744985D03*
X+177800Y-525015D03*
X+685800Y-525015D03*
X+177800Y-85075D03*
X+685800Y-85075D03*
X+50800Y+134895D03*
X+304800Y+134895D03*
X+558800Y+134895D03*
X+812800Y+134895D03*
X+177800Y+354865D03*
X+685800Y+354865D03*
X+50800Y+574835D03*
X+304800Y+574835D03*
X+558800Y+574835D03*
X+812800Y+574835D03*
X+177800Y+794805D03*
X+685800Y+794805D03*
X+50800Y+1014775D03*
X+304800Y+1014775D03*
X+558800Y+1014775D03*
X+812800Y+1014775D03*
X+177800Y+1234745D03*
X+685800Y+1234745D03*
X+50800Y+1454715D03*
X+304800Y+1454715D03*
X+558800Y+1454715D03*
X+812800Y+1454715D03*
X+685800Y+1674685D03*
X+50800Y+1894655D03*
X+812800Y+1894655D03*
X+1066800Y+1894655D03*
X+1320800Y+1894655D03*
X+1574800Y+1894655D03*
X+889000Y-2597715D03*
X+1143000Y-2597715D03*
X+1397000Y-2597715D03*
X+1270000Y-2377745D03*
X+1143000Y-2157775D03*
X+1016000Y-1937805D03*
X+1270000Y-1937805D03*
X+1778000Y-1937805D03*
X+1270000Y-1497865D03*
X+889000Y-1277895D03*
X+1143000Y-1277895D03*
X+1397000Y-1277895D03*
X+1270000Y-1057925D03*
X+1143000Y-837955D03*
X+1397000Y-398015D03*
X+1651000Y-398015D03*
X+1524000Y-178045D03*
X+1651000Y+41925D03*
X+1524000Y+261895D03*
X+1524000Y+701835D03*
X+1651000Y+1361745D03*
X+2159000Y+1361745D03*
X+2413000Y+1361745D03*
X+1270000Y+1581715D03*
X+1524000Y+1581715D03*
X-444500Y-2724715D03*
X-825500Y-2504745D03*
X-571500Y-2504745D03*
X-317500Y-2504745D03*
X-825500Y-2064805D03*
X-571500Y-2064805D03*
X-317500Y-2064805D03*
X-444500Y-1844835D03*
X-825500Y-1624865D03*
X-444500Y-1404895D03*
X-317500Y-1184925D03*
X-825500Y-744985D03*
X-317500Y-744985D03*
X-698500Y-525015D03*
X-444500Y-525015D03*
X-825500Y-305045D03*
X-698500Y-85075D03*
X-444500Y-85075D03*
X-825500Y+134895D03*
X-317500Y+134895D03*
X-825500Y+574835D03*
X-317500Y+574835D03*
X-825500Y+1014775D03*
X-317500Y+1014775D03*
X-825500Y+1454715D03*
X-317500Y+1454715D03*
D184*
X-635000Y-7175500D03*
X+9271000Y-7175500D03*
D185*
X+4318000Y+1714500D03*
X+6667500Y+1714500D03*
X+8953500Y+1714500D03*
X+381000Y+1968500D03*
X-571500Y+1968500D03*
D186*
X+454000Y-7023000D03*
X+254000Y-7023000D03*
X+454000Y-6823000D03*
X+254000Y-6823000D03*
X+454000Y-6623000D03*
X+254000Y-6623000D03*
X+454000Y-6423000D03*
X+254000Y-6423000D03*
X+454000Y-6223000D03*
X+254000Y-6223000D03*
X+454000Y-6023000D03*
X+254000Y-6023000D03*
X+454000Y-5823000D03*
X+254000Y-5823000D03*
X+9334500Y-6486500D03*
X+9334500Y-6286500D03*
X+9334500Y-6086500D03*
X+7537500Y-6713500D03*
X+7737500Y-6713500D03*
X+7937500Y-6713500D03*
X+8137500Y-6713500D03*
X+8337500Y-6713500D03*
X+8537500Y-6713500D03*
M02*
