G04 PROTEUS RS274X GERBER FILE*
%FSLAX45Y45*%
%MOMM*%
G01*
%ADD26C,1.524000*%
%AMPPAD021*
4,1,36,
-1.143000,0.762000,
-1.143000,-0.762000,
-1.140470,-0.787970,
-1.133200,-0.811980,
-1.121650,-0.833580,
-1.106290,-0.852290,
-1.087570,-0.867650,
-1.065980,-0.879200,
-1.041970,-0.886470,
-1.016000,-0.889000,
1.016000,-0.889000,
1.041970,-0.886470,
1.065980,-0.879200,
1.087570,-0.867650,
1.106290,-0.852290,
1.121650,-0.833580,
1.133200,-0.811980,
1.140470,-0.787970,
1.143000,-0.762000,
1.143000,0.762000,
1.140470,0.787970,
1.133200,0.811980,
1.121650,0.833580,
1.106290,0.852290,
1.087570,0.867650,
1.065980,0.879200,
1.041970,0.886470,
1.016000,0.889000,
-1.016000,0.889000,
-1.041970,0.886470,
-1.065980,0.879200,
-1.087570,0.867650,
-1.106290,0.852290,
-1.121650,0.833580,
-1.133200,0.811980,
-1.140470,0.787970,
-1.143000,0.762000,
0*%
%ADD29PPAD021*%
%AMPPAD022*
4,1,36,
-1.016000,-2.032000,
1.016000,-2.032000,
1.041970,-2.029470,
1.065980,-2.022200,
1.087580,-2.010650,
1.106290,-1.995290,
1.121650,-1.976570,
1.133200,-1.954980,
1.140470,-1.930970,
1.143000,-1.905000,
1.143000,1.905000,
1.140470,1.930970,
1.133200,1.954980,
1.121650,1.976570,
1.106290,1.995290,
1.087580,2.010650,
1.065980,2.022200,
1.041970,2.029470,
1.016000,2.032000,
-1.016000,2.032000,
-1.041970,2.029470,
-1.065980,2.022200,
-1.087580,2.010650,
-1.106290,1.995290,
-1.121650,1.976570,
-1.133200,1.954980,
-1.140470,1.930970,
-1.143000,1.905000,
-1.143000,-1.905000,
-1.140470,-1.930970,
-1.133200,-1.954980,
-1.121650,-1.976570,
-1.106290,-1.995290,
-1.087580,-2.010650,
-1.065980,-2.022200,
-1.041970,-2.029470,
-1.016000,-2.032000,
0*%
%ADD72PPAD022*%
%AMPPAD023*
4,1,4,
-0.901700,0.571500,
-0.901700,-0.571500,
0.901700,-0.571500,
0.901700,0.571500,
-0.901700,0.571500,
0*%
%ADD73PPAD023*%
%AMPPAD019*
4,1,36,
-1.016000,1.143000,
1.016000,1.143000,
1.041970,1.140470,
1.065980,1.133200,
1.087580,1.121650,
1.106290,1.106290,
1.121650,1.087570,
1.133200,1.065980,
1.140470,1.041970,
1.143000,1.016000,
1.143000,-1.016000,
1.140470,-1.041970,
1.133200,-1.065980,
1.121650,-1.087570,
1.106290,-1.106290,
1.087580,-1.121650,
1.065980,-1.133200,
1.041970,-1.140470,
1.016000,-1.143000,
-1.016000,-1.143000,
-1.041970,-1.140470,
-1.065980,-1.133200,
-1.087580,-1.121650,
-1.106290,-1.106290,
-1.121650,-1.087570,
-1.133200,-1.065980,
-1.140470,-1.041970,
-1.143000,-1.016000,
-1.143000,1.016000,
-1.140470,1.041970,
-1.133200,1.065980,
-1.121650,1.087570,
-1.106290,1.106290,
-1.087580,1.121650,
-1.065980,1.133200,
-1.041970,1.140470,
-1.016000,1.143000,
0*%
%ADD27PPAD019*%
%AMPPAD024*
4,1,4,
-0.571500,-0.901700,
0.571500,-0.901700,
0.571500,0.901700,
-0.571500,0.901700,
-0.571500,-0.901700,
0*%
%ADD30PPAD024*%
%AMPPAD025*
4,1,36,
-2.413000,0.825500,
-2.413000,-0.825500,
-2.410470,-0.851470,
-2.403200,-0.875480,
-2.391650,-0.897080,
-2.376290,-0.915790,
-2.357570,-0.931150,
-2.335980,-0.942700,
-2.311970,-0.949970,
-2.286000,-0.952500,
2.286000,-0.952500,
2.311970,-0.949970,
2.335980,-0.942700,
2.357570,-0.931150,
2.376290,-0.915790,
2.391650,-0.897080,
2.403200,-0.875480,
2.410470,-0.851470,
2.413000,-0.825500,
2.413000,0.825500,
2.410470,0.851470,
2.403200,0.875480,
2.391650,0.897080,
2.376290,0.915790,
2.357570,0.931150,
2.335980,0.942700,
2.311970,0.949970,
2.286000,0.952500,
-2.286000,0.952500,
-2.311970,0.949970,
-2.335980,0.942700,
-2.357570,0.931150,
-2.376290,0.915790,
-2.391650,0.897080,
-2.403200,0.875480,
-2.410470,0.851470,
-2.413000,0.825500,
0*%
%ADD31PPAD025*%
%AMPPAD026*
4,1,36,
-0.952500,0.825500,
-0.952500,-0.825500,
-0.949970,-0.851470,
-0.942700,-0.875480,
-0.931150,-0.897080,
-0.915790,-0.915790,
-0.897070,-0.931150,
-0.875480,-0.942700,
-0.851470,-0.949970,
-0.825500,-0.952500,
0.825500,-0.952500,
0.851470,-0.949970,
0.875480,-0.942700,
0.897070,-0.931150,
0.915790,-0.915790,
0.931150,-0.897080,
0.942700,-0.875480,
0.949970,-0.851470,
0.952500,-0.825500,
0.952500,0.825500,
0.949970,0.851470,
0.942700,0.875480,
0.931150,0.897080,
0.915790,0.915790,
0.897070,0.931150,
0.875480,0.942700,
0.851470,0.949970,
0.825500,0.952500,
-0.825500,0.952500,
-0.851470,0.949970,
-0.875480,0.942700,
-0.897070,0.931150,
-0.915790,0.915790,
-0.931150,0.897080,
-0.942700,0.875480,
-0.949970,0.851470,
-0.952500,0.825500,
0*%
%ADD32PPAD026*%
%ADD28C,4.064000*%
%AMPPAD027*
4,1,36,
-0.152400,1.016000,
0.152400,1.016000,
0.178370,1.013470,
0.202380,1.006200,
0.223980,0.994650,
0.242690,0.979290,
0.258050,0.960570,
0.269600,0.938980,
0.276870,0.914970,
0.279400,0.889000,
0.279400,-0.889000,
0.276870,-0.914970,
0.269600,-0.938980,
0.258050,-0.960570,
0.242690,-0.979290,
0.223980,-0.994650,
0.202380,-1.006200,
0.178370,-1.013470,
0.152400,-1.016000,
-0.152400,-1.016000,
-0.178370,-1.013470,
-0.202380,-1.006200,
-0.223980,-0.994650,
-0.242690,-0.979290,
-0.258050,-0.960570,
-0.269600,-0.938980,
-0.276870,-0.914970,
-0.279400,-0.889000,
-0.279400,0.889000,
-0.276870,0.914970,
-0.269600,0.938980,
-0.258050,0.960570,
-0.242690,0.979290,
-0.223980,0.994650,
-0.202380,1.006200,
-0.178370,1.013470,
-0.152400,1.016000,
0*%
%ADD33PPAD027*%
%ADD14C,0.203200*%
D26*
X+1778000Y+6096000D03*
X+1778000Y+5334000D03*
D29*
X+2534920Y+7216140D03*
D72*
X+1905000Y+6985000D03*
D29*
X+2534920Y+6985000D03*
X+2534920Y+6753860D03*
D73*
X+2794000Y+7239000D03*
X+2794000Y+6939000D03*
X-127000Y+6767000D03*
X-127000Y+6477000D03*
X-381000Y+6477000D03*
X-381000Y+6767000D03*
X-635000Y+6477000D03*
X-635000Y+6777000D03*
D27*
X-127000Y+5461000D03*
X+127000Y+5461000D03*
X+381000Y+5461000D03*
X+635000Y+7112000D03*
D73*
X+635000Y+6477000D03*
X+635000Y+6767000D03*
D30*
X+980000Y+5842000D03*
X+1270000Y+5842000D03*
D73*
X+127000Y+6767000D03*
X+127000Y+6477000D03*
X+127000Y+7874000D03*
X+127000Y+7584000D03*
X-127000Y+7874000D03*
X-127000Y+7574000D03*
D30*
X+889000Y+7366000D03*
X+1179000Y+7366000D03*
D73*
X+1143000Y+7874000D03*
X+1143000Y+7584000D03*
X+635000Y+7874000D03*
X+635000Y+7574000D03*
X+381000Y+6767000D03*
X+381000Y+6477000D03*
X+381000Y+7874000D03*
X+381000Y+7584000D03*
D27*
X-381000Y+5461000D03*
D31*
X+2413000Y+6096000D03*
X+2413000Y+5207000D03*
D32*
X+2032000Y+5207000D03*
X+2032000Y+6096000D03*
D28*
X+3175000Y+6858000D03*
X+3175000Y+7358000D03*
X+3175000Y+6096000D03*
D33*
X+1592000Y+6223000D03*
X+1527000Y+6223000D03*
X+1462000Y+6223000D03*
X+1397000Y+6223000D03*
X+1397000Y+6653000D03*
X+1462000Y+6653000D03*
X+1527000Y+6653000D03*
X+1592000Y+6653000D03*
D28*
X+3175000Y+5461000D03*
D73*
X+1397000Y+7874000D03*
X+1397000Y+7574000D03*
X+1651000Y+5842000D03*
X+1651000Y+5542000D03*
X+889000Y+7874000D03*
X+889000Y+7574000D03*
D27*
X+2032000Y+7620000D03*
X+1778000Y+7620000D03*
X-127000Y+7112000D03*
X+127000Y+7112000D03*
X+381000Y+7112000D03*
X-381000Y+7112000D03*
X-635000Y+5461000D03*
X+889000Y+7112000D03*
X+635000Y+5461000D03*
D73*
X+1651000Y+7412000D03*
X+1651000Y+7112000D03*
D30*
X+2586000Y+7620000D03*
X+2286000Y+7620000D03*
D14*
X-1016000Y+5019040D02*
X+3512000Y+5019040D01*
X+3512000Y+8128000D01*
X-1016000Y+8128000D01*
X-1016000Y+5019040D01*
M02*
