G04 PROTEUS RS274X GERBER FILE*
%FSLAX45Y45*%
%MOMM*%
G01*
%ADD15C,0.762000*%
%ADD16C,1.270000*%
%ADD17C,1.778000*%
%ADD10C,0.381000*%
%ADD11C,1.270000*%
%ADD14C,0.203200*%
%ADD18R,2.032000X1.524000*%
%ADD19R,2.032000X3.810000*%
%ADD70R,1.803400X1.143000*%
%ADD12R,2.032000X2.032000*%
%ADD71R,1.143000X1.803400*%
%ADD20R,4.572000X1.651000*%
%ADD21R,1.651000X1.651000*%
%ADD13C,3.810000*%
%ADD22R,0.304800X1.778000*%
G36*
X+3453580Y+5077459D02*
X-957580Y+5077459D01*
X-957580Y+8069581D01*
X+3453580Y+8069581D01*
X+3453580Y+5077459D01*
G37*
%LPC*%
G36*
X+2919729Y+7146291D02*
X+2672079Y+7146291D01*
X+2672079Y+7104381D01*
X+2397761Y+7104381D01*
X+2397761Y+7327899D01*
X+2668271Y+7327899D01*
X+2668271Y+7331709D01*
X+2919729Y+7331709D01*
X+2919729Y+7146291D01*
G37*
G36*
X+2169159Y+7693659D02*
X+2193291Y+7693659D01*
X+2193291Y+7745729D01*
X+2378709Y+7745729D01*
X+2378709Y+7494271D01*
X+2359659Y+7494271D01*
X+2359659Y+7058659D01*
X+2397761Y+7058659D01*
X+2397761Y+7096759D01*
X+2672079Y+7096759D01*
X+2672079Y+7031709D01*
X+2746618Y+7031709D01*
X+2752968Y+7038059D01*
X+2835032Y+7038059D01*
X+2841382Y+7031709D01*
X+2919729Y+7031709D01*
X+2919729Y+6852919D01*
X+2948941Y+6852919D01*
X+2948941Y+6951637D01*
X+3081363Y+7084059D01*
X+3268637Y+7084059D01*
X+3401059Y+6951637D01*
X+3401059Y+6764363D01*
X+3268637Y+6631941D01*
X+3081363Y+6631941D01*
X+3058503Y+6654801D01*
X+2672079Y+6654801D01*
X+2672079Y+6642101D01*
X+2397761Y+6642101D01*
X+2397761Y+6865619D01*
X+2668271Y+6865619D01*
X+2668271Y+6873241D01*
X+2397761Y+6873241D01*
X+2397761Y+6911341D01*
X+2042159Y+6911341D01*
X+2042159Y+6758941D01*
X+1767841Y+6758941D01*
X+1767841Y+6908341D01*
X+1618890Y+6908341D01*
X+1646609Y+6880622D01*
X+1646609Y+6491928D01*
X+1781569Y+6356968D01*
X+1808511Y+6356968D01*
X+1851659Y+6313820D01*
X+1851659Y+6162432D01*
X+1877059Y+6137032D01*
X+1877059Y+6054968D01*
X+1819032Y+5996941D01*
X+1736968Y+5996941D01*
X+1678941Y+6054968D01*
X+1678941Y+6137032D01*
X+1704341Y+6162432D01*
X+1704341Y+6279740D01*
X+1642799Y+6341282D01*
X+1642799Y+6249430D01*
X+1646609Y+6245620D01*
X+1646609Y+5934709D01*
X+1776729Y+5934709D01*
X+1776729Y+5915659D01*
X+1874491Y+5915659D01*
X+1936723Y+5977891D01*
X+1913891Y+5977891D01*
X+1913891Y+6214109D01*
X+2228097Y+6214109D01*
X+2234447Y+6220459D01*
X+2337553Y+6220459D01*
X+2343903Y+6214109D01*
X+2355097Y+6214109D01*
X+2361447Y+6220459D01*
X+2979763Y+6220459D01*
X+3081363Y+6322059D01*
X+3268637Y+6322059D01*
X+3401059Y+6189637D01*
X+3401059Y+6002363D01*
X+3268637Y+5869941D01*
X+3251953Y+5869941D01*
X+3226553Y+5844541D01*
X+3226551Y+5844541D01*
X+3099551Y+5717541D01*
X+2234448Y+5717541D01*
X+2161542Y+5790447D01*
X+2161542Y+5917446D01*
X+2161541Y+5917447D01*
X+2161541Y+5977891D01*
X+2105659Y+5977891D01*
X+2105659Y+5938491D01*
X+1935509Y+5768341D01*
X+1776729Y+5768341D01*
X+1776729Y+5749291D01*
X+1525271Y+5749291D01*
X+1525271Y+5934709D01*
X+1537391Y+5934709D01*
X+1537391Y+6098541D01*
X+1346201Y+6098541D01*
X+1346201Y+6347459D01*
X+1636622Y+6347459D01*
X+1537391Y+6446690D01*
X+1537391Y+6528541D01*
X+1451609Y+6528541D01*
X+1451609Y+6454380D01*
X+1419620Y+6422391D01*
X+1374380Y+6422391D01*
X+1342391Y+6454380D01*
X+1342391Y+7098441D01*
X+1200561Y+7240271D01*
X+1086291Y+7240271D01*
X+1086291Y+7491291D01*
X+1017271Y+7491291D01*
X+1017271Y+7676709D01*
X+1268729Y+7676709D01*
X+1268729Y+7657659D01*
X+1271271Y+7657659D01*
X+1271271Y+7666709D01*
X+1522729Y+7666709D01*
X+1522729Y+7481291D01*
X+1271709Y+7481291D01*
X+1271709Y+7377459D01*
X+1470658Y+7178510D01*
X+1470658Y+7117490D01*
X+1451609Y+7098441D01*
X+1451609Y+6989837D01*
X+1453341Y+6991569D01*
X+1453341Y+7012511D01*
X+1496489Y+7055659D01*
X+1525271Y+7055659D01*
X+1525271Y+7204709D01*
X+1767841Y+7204709D01*
X+1767841Y+7211059D01*
X+2042159Y+7211059D01*
X+2042159Y+7058659D01*
X+2212341Y+7058659D01*
X+2212341Y+7494271D01*
X+2193291Y+7494271D01*
X+2193291Y+7546341D01*
X+2169159Y+7546341D01*
X+2169159Y+7482841D01*
X+1776729Y+7482841D01*
X+1776729Y+7319291D01*
X+1525271Y+7319291D01*
X+1525271Y+7504709D01*
X+1640841Y+7504709D01*
X+1640841Y+7757159D01*
X+2169159Y+7757159D01*
X+2169159Y+7693659D01*
G37*
G36*
X+506729Y+7657659D02*
X+509271Y+7657659D01*
X+509271Y+7666709D01*
X+760729Y+7666709D01*
X+760729Y+7481291D01*
X+509271Y+7481291D01*
X+509271Y+7510341D01*
X+506729Y+7510341D01*
X+506729Y+7491291D01*
X+454659Y+7491291D01*
X+454659Y+7249159D01*
X+796291Y+7249159D01*
X+796291Y+7481291D01*
X+763271Y+7481291D01*
X+763271Y+7666709D01*
X+1014729Y+7666709D01*
X+1014729Y+7481291D01*
X+981709Y+7481291D01*
X+981709Y+7249159D01*
X+1026159Y+7249159D01*
X+1026159Y+6974841D01*
X+708659Y+6974841D01*
X+708659Y+6859709D01*
X+760729Y+6859709D01*
X+760729Y+6674291D01*
X+509271Y+6674291D01*
X+509271Y+6859709D01*
X+561341Y+6859709D01*
X+561341Y+6974841D01*
X+454659Y+6974841D01*
X+454659Y+6859709D01*
X+506729Y+6859709D01*
X+506729Y+6674291D01*
X+255271Y+6674291D01*
X+255271Y+6859709D01*
X+307341Y+6859709D01*
X+307341Y+6974841D01*
X+200659Y+6974841D01*
X+200659Y+6859709D01*
X+252729Y+6859709D01*
X+252729Y+6674291D01*
X+1271Y+6674291D01*
X+1271Y+6859709D01*
X+53341Y+6859709D01*
X+53341Y+6974841D01*
X-53341Y+6974841D01*
X-53341Y+6859709D01*
X-1271Y+6859709D01*
X-1271Y+6674291D01*
X-252729Y+6674291D01*
X-252729Y+6693341D01*
X-255271Y+6693341D01*
X-255271Y+6674291D01*
X-506729Y+6674291D01*
X-506729Y+6693341D01*
X-509271Y+6693341D01*
X-509271Y+6684291D01*
X-760729Y+6684291D01*
X-760729Y+6869709D01*
X-509271Y+6869709D01*
X-509271Y+6840659D01*
X-506729Y+6840659D01*
X-506729Y+6859709D01*
X-255271Y+6859709D01*
X-255271Y+6840659D01*
X-252729Y+6840659D01*
X-252729Y+6859709D01*
X-200659Y+6859709D01*
X-200659Y+6974841D01*
X-518159Y+6974841D01*
X-518159Y+7249159D01*
X+53341Y+7249159D01*
X+53341Y+7491291D01*
X+1271Y+7491291D01*
X+1271Y+7500341D01*
X-1271Y+7500341D01*
X-1271Y+7481291D01*
X-252729Y+7481291D01*
X-252729Y+7666709D01*
X-1271Y+7666709D01*
X-1271Y+7647659D01*
X+1271Y+7647659D01*
X+1271Y+7676709D01*
X+252729Y+7676709D01*
X+252729Y+7491291D01*
X+200659Y+7491291D01*
X+200659Y+7249159D01*
X+307341Y+7249159D01*
X+307341Y+7491291D01*
X+255271Y+7491291D01*
X+255271Y+7676709D01*
X+506729Y+7676709D01*
X+506729Y+7657659D01*
G37*
G36*
X+760729Y+6384291D02*
X+708659Y+6384291D01*
X+708659Y+5915659D01*
X+887291Y+5915659D01*
X+887291Y+5967729D01*
X+1072709Y+5967729D01*
X+1072709Y+5716271D01*
X+887291Y+5716271D01*
X+887291Y+5768341D01*
X+708659Y+5768341D01*
X+708659Y+5598159D01*
X+772159Y+5598159D01*
X+772159Y+5323841D01*
X-772159Y+5323841D01*
X-772159Y+5598159D01*
X-200659Y+5598159D01*
X-200659Y+6384291D01*
X-252729Y+6384291D01*
X-252729Y+6569709D01*
X-1271Y+6569709D01*
X-1271Y+6384291D01*
X-53341Y+6384291D01*
X-53341Y+5598159D01*
X+53341Y+5598159D01*
X+53341Y+6384291D01*
X+1271Y+6384291D01*
X+1271Y+6569709D01*
X+252729Y+6569709D01*
X+252729Y+6384291D01*
X+200659Y+6384291D01*
X+200659Y+5598159D01*
X+307341Y+5598159D01*
X+307341Y+6384291D01*
X+255271Y+6384291D01*
X+255271Y+6569709D01*
X+506729Y+6569709D01*
X+506729Y+6384291D01*
X+454659Y+6384291D01*
X+454659Y+5598159D01*
X+561341Y+5598159D01*
X+561341Y+6384291D01*
X+509271Y+6384291D01*
X+509271Y+6569709D01*
X+760729Y+6569709D01*
X+760729Y+6384291D01*
G37*
G36*
X-255271Y+6569709D02*
X-255271Y+6384291D01*
X-506729Y+6384291D01*
X-506729Y+6569709D01*
X-255271Y+6569709D01*
G37*
G36*
X-509271Y+6569709D02*
X-509271Y+6384291D01*
X-760729Y+6384291D01*
X-760729Y+6569709D01*
X-509271Y+6569709D01*
G37*
G36*
X+1362709Y+5716271D02*
X+1177291Y+5716271D01*
X+1177291Y+5967729D01*
X+1362709Y+5967729D01*
X+1362709Y+5716271D01*
G37*
G36*
X+1271Y+7781291D02*
X+1271Y+7966709D01*
X+252729Y+7966709D01*
X+252729Y+7781291D01*
X+1271Y+7781291D01*
G37*
G36*
X-252729Y+7781291D02*
X-252729Y+7966709D01*
X-1271Y+7966709D01*
X-1271Y+7781291D01*
X-252729Y+7781291D01*
G37*
G36*
X+1017271Y+7781291D02*
X+1017271Y+7966709D01*
X+1268729Y+7966709D01*
X+1268729Y+7781291D01*
X+1017271Y+7781291D01*
G37*
G36*
X+509271Y+7781291D02*
X+509271Y+7966709D01*
X+760729Y+7966709D01*
X+760729Y+7781291D01*
X+509271Y+7781291D01*
G37*
G36*
X+255271Y+7781291D02*
X+255271Y+7966709D01*
X+506729Y+7966709D01*
X+506729Y+7781291D01*
X+255271Y+7781291D01*
G37*
G36*
X+3401059Y+5554637D02*
X+3401059Y+5367363D01*
X+3268637Y+5234941D01*
X+3124953Y+5234941D01*
X+3099553Y+5209541D01*
X+3099551Y+5209541D01*
X+2972552Y+5082542D01*
X+2921000Y+5082542D01*
X+2361447Y+5082541D01*
X+2361446Y+5082542D01*
X+2234448Y+5082542D01*
X+2228099Y+5088891D01*
X+1913891Y+5088891D01*
X+1913891Y+5325109D01*
X+1957469Y+5325109D01*
X+1957469Y+5348969D01*
X+1851659Y+5454779D01*
X+1851659Y+5400432D01*
X+1877059Y+5375032D01*
X+1877059Y+5292968D01*
X+1819032Y+5234941D01*
X+1736968Y+5234941D01*
X+1678941Y+5292968D01*
X+1678941Y+5375032D01*
X+1704341Y+5400432D01*
X+1704341Y+5449291D01*
X+1525271Y+5449291D01*
X+1525271Y+5634709D01*
X+1776729Y+5634709D01*
X+1776729Y+5615659D01*
X+1899115Y+5615659D01*
X+2104787Y+5409987D01*
X+2104787Y+5325109D01*
X+2161541Y+5325109D01*
X+2161541Y+5385553D01*
X+2161542Y+5385554D01*
X+2161542Y+5512553D01*
X+2234448Y+5585459D01*
X+2979763Y+5585459D01*
X+3081363Y+5687059D01*
X+3268637Y+5687059D01*
X+3401059Y+5554637D01*
G37*
G36*
X+2948941Y+7264363D02*
X+2948941Y+7451637D01*
X+3081363Y+7584059D01*
X+3268637Y+7584059D01*
X+3401059Y+7451637D01*
X+3401059Y+7264363D01*
X+3268637Y+7131941D01*
X+3081363Y+7131941D01*
X+2948941Y+7264363D01*
G37*
G36*
X+1271271Y+7781291D02*
X+1271271Y+7966709D01*
X+1522729Y+7966709D01*
X+1522729Y+7781291D01*
X+1271271Y+7781291D01*
G37*
G36*
X+763271Y+7781291D02*
X+763271Y+7966709D01*
X+1014729Y+7966709D01*
X+1014729Y+7781291D01*
X+763271Y+7781291D01*
G37*
G36*
X+2678709Y+7494271D02*
X+2493291Y+7494271D01*
X+2493291Y+7745729D01*
X+2678709Y+7745729D01*
X+2678709Y+7494271D01*
G37*
%LPD*%
D15*
X-635000Y+6477000D02*
X-381000Y+6477000D01*
X-127000Y+6767000D02*
X-381000Y+6767000D01*
X-625000Y+6767000D01*
X-635000Y+6777000D01*
X+381000Y+7584000D02*
X+625000Y+7584000D01*
X+635000Y+7574000D01*
X+381000Y+7874000D02*
X+635000Y+7874000D01*
X-127000Y+7874000D02*
X+127000Y+7874000D01*
X+381000Y+7874000D01*
X-127000Y+7574000D02*
X+117000Y+7574000D01*
X+127000Y+7584000D01*
X+2534920Y+6985000D02*
X+2592172Y+6985000D01*
D16*
X+2794000Y+6939000D02*
X+2794000Y+6807287D01*
D17*
X+2413000Y+6096000D02*
X+3175000Y+6096000D01*
X+2286000Y+5334000D02*
X+3048000Y+5334000D01*
X+2413000Y+5207000D02*
X+2921000Y+5207000D01*
X+3048000Y+5334000D01*
X+3175000Y+5461000D01*
X+2286000Y+5461000D01*
X+2286000Y+5334000D01*
X+2286000Y+5207000D01*
X+2413000Y+5207000D01*
X+2286000Y+5969000D02*
X+3175000Y+5969000D01*
X+3175000Y+6096000D02*
X+3175000Y+5969000D01*
X+3048000Y+5842000D01*
X+2286000Y+5842000D01*
X+2286000Y+5969000D01*
X+2286000Y+6096000D01*
D15*
X+1651000Y+5842000D02*
X+1905000Y+5842000D01*
X+2032000Y+5969000D01*
X+2032000Y+6096000D01*
X+381000Y+7112000D02*
X+381000Y+6767000D01*
X+381000Y+7112000D02*
X+381000Y+7584000D01*
X+127000Y+7112000D02*
X+127000Y+6767000D01*
X+127000Y+7584000D02*
X+127000Y+7112000D01*
X-127000Y+7112000D02*
X-127000Y+6767000D01*
X-381000Y+7112000D02*
X-762000Y+7112000D01*
X-889000Y+6985000D01*
X-889000Y+6595261D01*
X-762244Y+6468505D01*
X-643495Y+6468505D01*
X-635000Y+6477000D01*
X-127000Y+7874000D02*
X-254000Y+7874000D01*
X-381000Y+7747000D01*
X-381000Y+7112000D01*
X+889000Y+7874000D02*
X+635000Y+7874000D01*
X+635000Y+7112000D02*
X+635000Y+6767000D01*
X+1143000Y+7584000D02*
X+1270000Y+7584000D01*
X+1387000Y+7584000D01*
X+1397000Y+7574000D01*
X+889000Y+7874000D02*
X+1143000Y+7874000D01*
X+1397000Y+7874000D01*
D16*
X+2667000Y+6753860D02*
X+2771140Y+6753860D01*
X+2794000Y+6753860D01*
X+3070860Y+6753860D01*
X+3175000Y+6858000D01*
X+2534920Y+6753860D02*
X+2667000Y+6753860D01*
X+2794000Y+6753860D02*
X+2794000Y+6807287D01*
X+2667000Y+7239000D02*
X+2794000Y+7239000D01*
X+3056000Y+7239000D01*
X+3175000Y+7358000D01*
D15*
X+635000Y+6477000D02*
X+635000Y+6223000D01*
D10*
X+1592000Y+6223000D02*
X+1592000Y+5901000D01*
X+1651000Y+5842000D01*
D15*
X+1651000Y+5542000D02*
X+1778000Y+5542000D01*
X+1868606Y+5542000D01*
X+2031128Y+5379478D01*
X+2031128Y+5207872D01*
X+2032000Y+5207000D01*
D10*
X+1462000Y+6223000D02*
X+1462000Y+5907000D01*
X+1460500Y+5905500D01*
X+1527000Y+6223000D02*
X+1527000Y+5972000D01*
X+1524000Y+5969000D01*
X+1462000Y+5907000D01*
X+1460500Y+5905500D02*
X+1397000Y+5842000D01*
X+1462000Y+6223000D02*
X+1462000Y+6390694D01*
X+1462790Y+6391484D01*
X+1527000Y+6223000D02*
X+1527000Y+6384288D01*
X+1527395Y+6384683D01*
X+1462000Y+6653000D02*
X+1462000Y+6923000D01*
X+1524000Y+6985000D01*
D15*
X+1905000Y+6985000D02*
X+2032000Y+6985000D01*
D16*
X+2557780Y+7239000D02*
X+2667000Y+7239000D01*
D15*
X-381000Y+5461000D02*
X-381000Y+6477000D01*
X-127000Y+6477000D02*
X-127000Y+5461000D01*
X+127000Y+6477000D02*
X+127000Y+5461000D01*
X+381000Y+6477000D02*
X+381000Y+5461000D01*
D16*
X-635000Y+5461000D02*
X-381000Y+5461000D01*
D15*
X+980000Y+5842000D02*
X+635000Y+5842000D01*
X+635000Y+6223000D02*
X+635000Y+5842000D01*
X+635000Y+5461000D01*
X+1397000Y+5842000D02*
X+1270000Y+5842000D01*
D10*
X+1592000Y+6653000D02*
X+1592000Y+6858003D01*
X+1591772Y+6858231D01*
X+1397000Y+6653000D02*
X+1397000Y+6477000D01*
D15*
X+1179000Y+7366000D02*
X+1179000Y+7548000D01*
X+1143000Y+7584000D01*
X+1179000Y+7366000D02*
X+1397000Y+7148000D01*
D10*
X+1397000Y+6653000D02*
X+1397000Y+7148000D01*
X+1527000Y+6653000D02*
X+1527000Y+6982000D01*
X+1524000Y+6985000D01*
D15*
X+1778000Y+6283309D02*
X+1778000Y+6096000D01*
D10*
X+1592000Y+6653000D02*
X+1592000Y+6469309D01*
X+1616301Y+6445008D01*
X+1778000Y+6283309D01*
D15*
X+1778000Y+5334000D02*
X+1778000Y+5542000D01*
X+1778000Y+7874000D02*
X+1778000Y+7620000D01*
X+2586000Y+7620000D02*
X+2586000Y+7267220D01*
X+2557780Y+7239000D01*
X+2534920Y+7216140D01*
X+2586000Y+7620000D02*
X+2586000Y+7828000D01*
X+2540000Y+7874000D01*
X+1778000Y+7874000D01*
X+1651000Y+7874000D01*
X+1397000Y+7874000D02*
X+1651000Y+7874000D01*
X+2032000Y+7620000D02*
X+2286000Y+7620000D01*
X+2286000Y+6985000D01*
X+2032000Y+6985000D02*
X+2286000Y+6985000D01*
X+2534920Y+6985000D01*
X+1651000Y+7412000D02*
X+1778000Y+7539000D01*
X+1778000Y+7620000D01*
X-635000Y+5461000D02*
X-635000Y+5241494D01*
X-601029Y+5207523D01*
X+1016523Y+5207523D01*
X+1270000Y+5461000D01*
X+1270000Y+5842000D01*
X+1651000Y+7112000D02*
X+1651000Y+6985000D01*
X+1651000Y+6982000D01*
D10*
X+1524000Y+6985000D02*
X+1651000Y+6985000D01*
X+1905000Y+6985000D01*
D15*
X+1527000Y+6982000D02*
X+1651000Y+6982000D01*
X+1902000Y+6982000D01*
X+1905000Y+6985000D01*
X+889000Y+7366000D02*
X+889000Y+7574000D01*
X+889000Y+7366000D02*
X+889000Y+7112000D01*
D11*
X+1778000Y+6096000D03*
X+1778000Y+5334000D03*
D14*
X+3453580Y+5077459D02*
X-957580Y+5077459D01*
X-957580Y+8069581D01*
X+3453580Y+8069581D01*
X+3453580Y+5077459D01*
X+2919729Y+7146291D02*
X+2672079Y+7146291D01*
X+2672079Y+7104381D01*
X+2397761Y+7104381D01*
X+2397761Y+7327899D01*
X+2668271Y+7327899D01*
X+2668271Y+7331709D01*
X+2919729Y+7331709D01*
X+2919729Y+7146291D01*
X+2169159Y+7693659D02*
X+2193291Y+7693659D01*
X+2193291Y+7745729D01*
X+2378709Y+7745729D01*
X+2378709Y+7494271D01*
X+2359659Y+7494271D01*
X+2359659Y+7058659D01*
X+2397761Y+7058659D01*
X+2397761Y+7096759D01*
X+2672079Y+7096759D01*
X+2672079Y+7031709D01*
X+2746618Y+7031709D01*
X+2752968Y+7038059D01*
X+2835032Y+7038059D01*
X+2841382Y+7031709D01*
X+2919729Y+7031709D01*
X+2919729Y+6852919D01*
X+2948941Y+6852919D01*
X+2948941Y+6951637D01*
X+3081363Y+7084059D01*
X+3268637Y+7084059D01*
X+3401059Y+6951637D01*
X+3401059Y+6764363D01*
X+3268637Y+6631941D01*
X+3081363Y+6631941D01*
X+3058503Y+6654801D01*
X+2672079Y+6654801D01*
X+2672079Y+6642101D01*
X+2397761Y+6642101D01*
X+2397761Y+6865619D01*
X+2668271Y+6865619D01*
X+2668271Y+6873241D01*
X+2397761Y+6873241D01*
X+2397761Y+6911341D01*
X+2042159Y+6911341D01*
X+2042159Y+6758941D01*
X+1767841Y+6758941D01*
X+1767841Y+6908341D01*
X+1618890Y+6908341D01*
X+1646609Y+6880622D01*
X+1646609Y+6491928D01*
X+1781569Y+6356968D01*
X+1808511Y+6356968D01*
X+1851659Y+6313820D01*
X+1851659Y+6162432D01*
X+1877059Y+6137032D01*
X+1877059Y+6054968D01*
X+1819032Y+5996941D01*
X+1736968Y+5996941D01*
X+1678941Y+6054968D01*
X+1678941Y+6137032D01*
X+1704341Y+6162432D01*
X+1704341Y+6279740D01*
X+1642799Y+6341282D01*
X+1642799Y+6249430D01*
X+1646609Y+6245620D01*
X+1646609Y+5934709D01*
X+1776729Y+5934709D01*
X+1776729Y+5915659D01*
X+1874491Y+5915659D01*
X+1936723Y+5977891D01*
X+1913891Y+5977891D01*
X+1913891Y+6214109D01*
X+2228097Y+6214109D01*
X+2234447Y+6220459D01*
X+2337553Y+6220459D01*
X+2343903Y+6214109D01*
X+2355097Y+6214109D01*
X+2361447Y+6220459D01*
X+2979763Y+6220459D01*
X+3081363Y+6322059D01*
X+3268637Y+6322059D01*
X+3401059Y+6189637D01*
X+3401059Y+6002363D01*
X+3268637Y+5869941D01*
X+3251953Y+5869941D01*
X+3226553Y+5844541D01*
X+3226551Y+5844541D01*
X+3099551Y+5717541D01*
X+2234448Y+5717541D01*
X+2161542Y+5790447D01*
X+2161542Y+5917446D01*
X+2161541Y+5917447D01*
X+2161541Y+5977891D01*
X+2105659Y+5977891D01*
X+2105659Y+5938491D01*
X+1935509Y+5768341D01*
X+1776729Y+5768341D01*
X+1776729Y+5749291D01*
X+1525271Y+5749291D01*
X+1525271Y+5934709D01*
X+1537391Y+5934709D01*
X+1537391Y+6098541D01*
X+1346201Y+6098541D01*
X+1346201Y+6347459D01*
X+1636622Y+6347459D01*
X+1537391Y+6446690D01*
X+1537391Y+6528541D01*
X+1451609Y+6528541D01*
X+1451609Y+6454380D01*
X+1419620Y+6422391D01*
X+1374380Y+6422391D01*
X+1342391Y+6454380D01*
X+1342391Y+7098441D01*
X+1200561Y+7240271D01*
X+1086291Y+7240271D01*
X+1086291Y+7491291D01*
X+1017271Y+7491291D01*
X+1017271Y+7676709D01*
X+1268729Y+7676709D01*
X+1268729Y+7657659D01*
X+1271271Y+7657659D01*
X+1271271Y+7666709D01*
X+1522729Y+7666709D01*
X+1522729Y+7481291D01*
X+1271709Y+7481291D01*
X+1271709Y+7377459D01*
X+1470658Y+7178510D01*
X+1470658Y+7117490D01*
X+1451609Y+7098441D01*
X+1451609Y+6989837D01*
X+1453341Y+6991569D01*
X+1453341Y+7012511D01*
X+1496489Y+7055659D01*
X+1525271Y+7055659D01*
X+1525271Y+7204709D01*
X+1767841Y+7204709D01*
X+1767841Y+7211059D01*
X+2042159Y+7211059D01*
X+2042159Y+7058659D01*
X+2212341Y+7058659D01*
X+2212341Y+7494271D01*
X+2193291Y+7494271D01*
X+2193291Y+7546341D01*
X+2169159Y+7546341D01*
X+2169159Y+7482841D01*
X+1776729Y+7482841D01*
X+1776729Y+7319291D01*
X+1525271Y+7319291D01*
X+1525271Y+7504709D01*
X+1640841Y+7504709D01*
X+1640841Y+7757159D01*
X+2169159Y+7757159D01*
X+2169159Y+7693659D01*
X+506729Y+7657659D02*
X+509271Y+7657659D01*
X+509271Y+7666709D01*
X+760729Y+7666709D01*
X+760729Y+7481291D01*
X+509271Y+7481291D01*
X+509271Y+7510341D01*
X+506729Y+7510341D01*
X+506729Y+7491291D01*
X+454659Y+7491291D01*
X+454659Y+7249159D01*
X+796291Y+7249159D01*
X+796291Y+7481291D01*
X+763271Y+7481291D01*
X+763271Y+7666709D01*
X+1014729Y+7666709D01*
X+1014729Y+7481291D01*
X+981709Y+7481291D01*
X+981709Y+7249159D01*
X+1026159Y+7249159D01*
X+1026159Y+6974841D01*
X+708659Y+6974841D01*
X+708659Y+6859709D01*
X+760729Y+6859709D01*
X+760729Y+6674291D01*
X+509271Y+6674291D01*
X+509271Y+6859709D01*
X+561341Y+6859709D01*
X+561341Y+6974841D01*
X+454659Y+6974841D01*
X+454659Y+6859709D01*
X+506729Y+6859709D01*
X+506729Y+6674291D01*
X+255271Y+6674291D01*
X+255271Y+6859709D01*
X+307341Y+6859709D01*
X+307341Y+6974841D01*
X+200659Y+6974841D01*
X+200659Y+6859709D01*
X+252729Y+6859709D01*
X+252729Y+6674291D01*
X+1271Y+6674291D01*
X+1271Y+6859709D01*
X+53341Y+6859709D01*
X+53341Y+6974841D01*
X-53341Y+6974841D01*
X-53341Y+6859709D01*
X-1271Y+6859709D01*
X-1271Y+6674291D01*
X-252729Y+6674291D01*
X-252729Y+6693341D01*
X-255271Y+6693341D01*
X-255271Y+6674291D01*
X-506729Y+6674291D01*
X-506729Y+6693341D01*
X-509271Y+6693341D01*
X-509271Y+6684291D01*
X-760729Y+6684291D01*
X-760729Y+6869709D01*
X-509271Y+6869709D01*
X-509271Y+6840659D01*
X-506729Y+6840659D01*
X-506729Y+6859709D01*
X-255271Y+6859709D01*
X-255271Y+6840659D01*
X-252729Y+6840659D01*
X-252729Y+6859709D01*
X-200659Y+6859709D01*
X-200659Y+6974841D01*
X-518159Y+6974841D01*
X-518159Y+7249159D01*
X+53341Y+7249159D01*
X+53341Y+7491291D01*
X+1271Y+7491291D01*
X+1271Y+7500341D01*
X-1271Y+7500341D01*
X-1271Y+7481291D01*
X-252729Y+7481291D01*
X-252729Y+7666709D01*
X-1271Y+7666709D01*
X-1271Y+7647659D01*
X+1271Y+7647659D01*
X+1271Y+7676709D01*
X+252729Y+7676709D01*
X+252729Y+7491291D01*
X+200659Y+7491291D01*
X+200659Y+7249159D01*
X+307341Y+7249159D01*
X+307341Y+7491291D01*
X+255271Y+7491291D01*
X+255271Y+7676709D01*
X+506729Y+7676709D01*
X+506729Y+7657659D01*
X+760729Y+6384291D02*
X+708659Y+6384291D01*
X+708659Y+5915659D01*
X+887291Y+5915659D01*
X+887291Y+5967729D01*
X+1072709Y+5967729D01*
X+1072709Y+5716271D01*
X+887291Y+5716271D01*
X+887291Y+5768341D01*
X+708659Y+5768341D01*
X+708659Y+5598159D01*
X+772159Y+5598159D01*
X+772159Y+5323841D01*
X-772159Y+5323841D01*
X-772159Y+5598159D01*
X-200659Y+5598159D01*
X-200659Y+6384291D01*
X-252729Y+6384291D01*
X-252729Y+6569709D01*
X-1271Y+6569709D01*
X-1271Y+6384291D01*
X-53341Y+6384291D01*
X-53341Y+5598159D01*
X+53341Y+5598159D01*
X+53341Y+6384291D01*
X+1271Y+6384291D01*
X+1271Y+6569709D01*
X+252729Y+6569709D01*
X+252729Y+6384291D01*
X+200659Y+6384291D01*
X+200659Y+5598159D01*
X+307341Y+5598159D01*
X+307341Y+6384291D01*
X+255271Y+6384291D01*
X+255271Y+6569709D01*
X+506729Y+6569709D01*
X+506729Y+6384291D01*
X+454659Y+6384291D01*
X+454659Y+5598159D01*
X+561341Y+5598159D01*
X+561341Y+6384291D01*
X+509271Y+6384291D01*
X+509271Y+6569709D01*
X+760729Y+6569709D01*
X+760729Y+6384291D01*
X-255271Y+6569709D02*
X-255271Y+6384291D01*
X-506729Y+6384291D01*
X-506729Y+6569709D01*
X-255271Y+6569709D01*
X-509271Y+6569709D02*
X-509271Y+6384291D01*
X-760729Y+6384291D01*
X-760729Y+6569709D01*
X-509271Y+6569709D01*
X+1362709Y+5716271D02*
X+1177291Y+5716271D01*
X+1177291Y+5967729D01*
X+1362709Y+5967729D01*
X+1362709Y+5716271D01*
X+1271Y+7781291D02*
X+1271Y+7966709D01*
X+252729Y+7966709D01*
X+252729Y+7781291D01*
X+1271Y+7781291D01*
X-252729Y+7781291D02*
X-252729Y+7966709D01*
X-1271Y+7966709D01*
X-1271Y+7781291D01*
X-252729Y+7781291D01*
X+1017271Y+7781291D02*
X+1017271Y+7966709D01*
X+1268729Y+7966709D01*
X+1268729Y+7781291D01*
X+1017271Y+7781291D01*
X+509271Y+7781291D02*
X+509271Y+7966709D01*
X+760729Y+7966709D01*
X+760729Y+7781291D01*
X+509271Y+7781291D01*
X+255271Y+7781291D02*
X+255271Y+7966709D01*
X+506729Y+7966709D01*
X+506729Y+7781291D01*
X+255271Y+7781291D01*
X+3401059Y+5554637D02*
X+3401059Y+5367363D01*
X+3268637Y+5234941D01*
X+3124953Y+5234941D01*
X+3099553Y+5209541D01*
X+3099551Y+5209541D01*
X+2972552Y+5082542D01*
X+2921000Y+5082542D01*
X+2361447Y+5082541D01*
X+2361446Y+5082542D01*
X+2234448Y+5082542D01*
X+2228099Y+5088891D01*
X+1913891Y+5088891D01*
X+1913891Y+5325109D01*
X+1957469Y+5325109D01*
X+1957469Y+5348969D01*
X+1851659Y+5454779D01*
X+1851659Y+5400432D01*
X+1877059Y+5375032D01*
X+1877059Y+5292968D01*
X+1819032Y+5234941D01*
X+1736968Y+5234941D01*
X+1678941Y+5292968D01*
X+1678941Y+5375032D01*
X+1704341Y+5400432D01*
X+1704341Y+5449291D01*
X+1525271Y+5449291D01*
X+1525271Y+5634709D01*
X+1776729Y+5634709D01*
X+1776729Y+5615659D01*
X+1899115Y+5615659D01*
X+2104787Y+5409987D01*
X+2104787Y+5325109D01*
X+2161541Y+5325109D01*
X+2161541Y+5385553D01*
X+2161542Y+5385554D01*
X+2161542Y+5512553D01*
X+2234448Y+5585459D01*
X+2979763Y+5585459D01*
X+3081363Y+5687059D01*
X+3268637Y+5687059D01*
X+3401059Y+5554637D01*
X+2948941Y+7264363D02*
X+2948941Y+7451637D01*
X+3081363Y+7584059D01*
X+3268637Y+7584059D01*
X+3401059Y+7451637D01*
X+3401059Y+7264363D01*
X+3268637Y+7131941D01*
X+3081363Y+7131941D01*
X+2948941Y+7264363D01*
X+1271271Y+7781291D02*
X+1271271Y+7966709D01*
X+1522729Y+7966709D01*
X+1522729Y+7781291D01*
X+1271271Y+7781291D01*
X+763271Y+7781291D02*
X+763271Y+7966709D01*
X+1014729Y+7966709D01*
X+1014729Y+7781291D01*
X+763271Y+7781291D01*
X+2678709Y+7494271D02*
X+2493291Y+7494271D01*
X+2493291Y+7745729D01*
X+2678709Y+7745729D01*
X+2678709Y+7494271D01*
X+2534920Y+7327899D02*
X+2534920Y+7216140D01*
X+2534920Y+7104381D02*
X+2534920Y+7216140D01*
X+2397761Y+7216140D02*
X+2534920Y+7216140D01*
X+2794000Y+7146291D02*
X+2794000Y+7239000D01*
X+2794000Y+7331709D02*
X+2794000Y+7239000D01*
X+2919729Y+7239000D02*
X+2794000Y+7239000D01*
X-381000Y+6569709D02*
X-381000Y+6477000D01*
X-381000Y+6384291D02*
X-381000Y+6477000D01*
X-506729Y+6477000D02*
X-381000Y+6477000D01*
X-255271Y+6477000D02*
X-381000Y+6477000D01*
X-635000Y+6569709D02*
X-635000Y+6477000D01*
X-635000Y+6384291D02*
X-635000Y+6477000D01*
X-760729Y+6477000D02*
X-635000Y+6477000D01*
X-509271Y+6477000D02*
X-635000Y+6477000D01*
X+1362709Y+5842000D02*
X+1270000Y+5842000D01*
X+1177291Y+5842000D02*
X+1270000Y+5842000D01*
X+1270000Y+5967729D02*
X+1270000Y+5842000D01*
X+1270000Y+5716271D02*
X+1270000Y+5842000D01*
X+127000Y+7781291D02*
X+127000Y+7874000D01*
X+127000Y+7966709D02*
X+127000Y+7874000D01*
X+252729Y+7874000D02*
X+127000Y+7874000D01*
X+1271Y+7874000D02*
X+127000Y+7874000D01*
X-127000Y+7781291D02*
X-127000Y+7874000D01*
X-127000Y+7966709D02*
X-127000Y+7874000D01*
X-1271Y+7874000D02*
X-127000Y+7874000D01*
X-252729Y+7874000D02*
X-127000Y+7874000D01*
X+1143000Y+7781291D02*
X+1143000Y+7874000D01*
X+1143000Y+7966709D02*
X+1143000Y+7874000D01*
X+1268729Y+7874000D02*
X+1143000Y+7874000D01*
X+1017271Y+7874000D02*
X+1143000Y+7874000D01*
X+635000Y+7781291D02*
X+635000Y+7874000D01*
X+635000Y+7966709D02*
X+635000Y+7874000D01*
X+760729Y+7874000D02*
X+635000Y+7874000D01*
X+509271Y+7874000D02*
X+635000Y+7874000D01*
X+381000Y+7781291D02*
X+381000Y+7874000D01*
X+381000Y+7966709D02*
X+381000Y+7874000D01*
X+506729Y+7874000D02*
X+381000Y+7874000D01*
X+255271Y+7874000D02*
X+381000Y+7874000D01*
X-381000Y+5323841D02*
X-381000Y+5461000D01*
X-381000Y+5598159D02*
X-381000Y+5461000D01*
X+2948941Y+7358000D02*
X+3175000Y+7358000D01*
X+3401059Y+7358000D02*
X+3175000Y+7358000D01*
X+3175000Y+7131941D02*
X+3175000Y+7358000D01*
X+3175000Y+7584059D02*
X+3175000Y+7358000D01*
X+1527000Y+6098541D02*
X+1527000Y+6223000D01*
X+1527000Y+6347459D02*
X+1527000Y+6223000D01*
X+1462000Y+6098541D02*
X+1462000Y+6223000D01*
X+1462000Y+6347459D02*
X+1462000Y+6223000D01*
X+1397000Y+7781291D02*
X+1397000Y+7874000D01*
X+1397000Y+7966709D02*
X+1397000Y+7874000D01*
X+1522729Y+7874000D02*
X+1397000Y+7874000D01*
X+1271271Y+7874000D02*
X+1397000Y+7874000D01*
X+889000Y+7781291D02*
X+889000Y+7874000D01*
X+889000Y+7966709D02*
X+889000Y+7874000D01*
X+1014729Y+7874000D02*
X+889000Y+7874000D01*
X+763271Y+7874000D02*
X+889000Y+7874000D01*
X+1640841Y+7620000D02*
X+1778000Y+7620000D01*
X+1778000Y+7482841D02*
X+1778000Y+7620000D01*
X+1778000Y+7757159D02*
X+1778000Y+7620000D01*
X-518159Y+7112000D02*
X-381000Y+7112000D01*
X-381000Y+6974841D02*
X-381000Y+7112000D01*
X-381000Y+7249159D02*
X-381000Y+7112000D01*
X-772159Y+5461000D02*
X-635000Y+5461000D01*
X-635000Y+5323841D02*
X-635000Y+5461000D01*
X-635000Y+5598159D02*
X-635000Y+5461000D01*
X+1651000Y+7319291D02*
X+1651000Y+7412000D01*
X+1525271Y+7412000D02*
X+1651000Y+7412000D01*
X+1776729Y+7412000D02*
X+1651000Y+7412000D01*
X+2678709Y+7620000D02*
X+2586000Y+7620000D01*
X+2493291Y+7620000D02*
X+2586000Y+7620000D01*
X+2586000Y+7745729D02*
X+2586000Y+7620000D01*
X+2586000Y+7494271D02*
X+2586000Y+7620000D01*
D18*
X+2534920Y+7216140D03*
D19*
X+1905000Y+6985000D03*
D18*
X+2534920Y+6985000D03*
X+2534920Y+6753860D03*
D70*
X+2794000Y+7239000D03*
X+2794000Y+6939000D03*
X-127000Y+6767000D03*
X-127000Y+6477000D03*
X-381000Y+6477000D03*
X-381000Y+6767000D03*
X-635000Y+6477000D03*
X-635000Y+6777000D03*
D12*
X-127000Y+5461000D03*
X+127000Y+5461000D03*
X+381000Y+5461000D03*
X+635000Y+7112000D03*
D70*
X+635000Y+6477000D03*
X+635000Y+6767000D03*
D71*
X+980000Y+5842000D03*
X+1270000Y+5842000D03*
D70*
X+127000Y+6767000D03*
X+127000Y+6477000D03*
X+127000Y+7874000D03*
X+127000Y+7584000D03*
X-127000Y+7874000D03*
X-127000Y+7574000D03*
D71*
X+889000Y+7366000D03*
X+1179000Y+7366000D03*
D70*
X+1143000Y+7874000D03*
X+1143000Y+7584000D03*
X+635000Y+7874000D03*
X+635000Y+7574000D03*
X+381000Y+6767000D03*
X+381000Y+6477000D03*
X+381000Y+7874000D03*
X+381000Y+7584000D03*
D12*
X-381000Y+5461000D03*
D20*
X+2413000Y+6096000D03*
X+2413000Y+5207000D03*
D21*
X+2032000Y+5207000D03*
X+2032000Y+6096000D03*
D13*
X+3175000Y+6858000D03*
X+3175000Y+7358000D03*
X+3175000Y+6096000D03*
D22*
X+1592000Y+6223000D03*
X+1527000Y+6223000D03*
X+1462000Y+6223000D03*
X+1397000Y+6223000D03*
X+1397000Y+6653000D03*
X+1462000Y+6653000D03*
X+1527000Y+6653000D03*
X+1592000Y+6653000D03*
D13*
X+3175000Y+5461000D03*
D70*
X+1397000Y+7874000D03*
X+1397000Y+7574000D03*
X+1651000Y+5842000D03*
X+1651000Y+5542000D03*
X+889000Y+7874000D03*
X+889000Y+7574000D03*
D12*
X+2032000Y+7620000D03*
X+1778000Y+7620000D03*
X-127000Y+7112000D03*
X+127000Y+7112000D03*
X+381000Y+7112000D03*
X-381000Y+7112000D03*
X-635000Y+5461000D03*
X+889000Y+7112000D03*
X+635000Y+5461000D03*
D70*
X+1651000Y+7412000D03*
X+1651000Y+7112000D03*
D71*
X+2586000Y+7620000D03*
X+2286000Y+7620000D03*
D14*
X-1016000Y+5019040D02*
X+3512000Y+5019040D01*
X+3512000Y+8128000D01*
X-1016000Y+8128000D01*
X-1016000Y+5019040D01*
M02*
