G04 PROTEUS RS274X GERBER FILE*
%FSLAX45Y45*%
%MOMM*%
G01*
%ADD14C,0.203200*%
%ADD34C,0.045720*%
%ADD35C,0.034290*%
%ADD36C,0.137160*%
%ADD37C,0.054860*%
%ADD38C,0.091440*%
%ADD39C,0.068580*%
%ADD40C,0.030480*%
D14*
X-1016000Y+5019040D02*
X+3512000Y+5019040D01*
X+3512000Y+8128000D01*
X-1016000Y+8128000D01*
X-1016000Y+5019040D01*
X-264160Y+5323840D02*
X+10160Y+5323840D01*
X+10160Y+5598160D01*
X-264160Y+5598160D01*
X-264160Y+5323840D01*
D34*
X-140716Y+5369560D02*
X-127000Y+5369560D01*
X-113284Y+5383276D01*
X-127000Y+5396992D01*
X-140716Y+5396992D01*
X-113284Y+5406136D02*
X-140716Y+5406136D01*
X-127000Y+5419852D01*
X-140716Y+5433568D01*
X-113284Y+5433568D01*
X-131572Y+5442712D02*
X-140716Y+5451856D01*
X-140716Y+5461000D01*
X-131572Y+5470144D01*
X-122428Y+5470144D01*
X-113284Y+5461000D01*
X-113284Y+5451856D01*
X-122428Y+5442712D01*
X-131572Y+5442712D01*
X-113284Y+5479288D02*
X-140716Y+5479288D01*
X-113284Y+5506720D01*
X-140716Y+5506720D01*
X-131572Y+5525008D02*
X-140716Y+5534152D01*
X-113284Y+5534152D01*
D14*
X-10160Y+5323840D02*
X+264160Y+5323840D01*
X+264160Y+5598160D01*
X-10160Y+5598160D01*
X-10160Y+5323840D01*
D34*
X+113284Y+5369560D02*
X+127000Y+5369560D01*
X+140716Y+5383276D01*
X+127000Y+5396992D01*
X+113284Y+5396992D01*
X+140716Y+5406136D02*
X+113284Y+5406136D01*
X+127000Y+5419852D01*
X+113284Y+5433568D01*
X+140716Y+5433568D01*
X+122428Y+5442712D02*
X+113284Y+5451856D01*
X+113284Y+5461000D01*
X+122428Y+5470144D01*
X+131572Y+5470144D01*
X+140716Y+5461000D01*
X+140716Y+5451856D01*
X+131572Y+5442712D01*
X+122428Y+5442712D01*
X+140716Y+5479288D02*
X+113284Y+5479288D01*
X+140716Y+5506720D01*
X+113284Y+5506720D01*
X+117856Y+5520436D02*
X+113284Y+5525008D01*
X+113284Y+5538724D01*
X+117856Y+5543296D01*
X+122428Y+5543296D01*
X+127000Y+5538724D01*
X+127000Y+5525008D01*
X+131572Y+5520436D01*
X+140716Y+5520436D01*
X+140716Y+5543296D01*
D14*
X+243840Y+5323840D02*
X+518160Y+5323840D01*
X+518160Y+5598160D01*
X+243840Y+5598160D01*
X+243840Y+5323840D01*
D34*
X+367284Y+5369560D02*
X+381000Y+5369560D01*
X+394716Y+5383276D01*
X+381000Y+5396992D01*
X+367284Y+5396992D01*
X+394716Y+5406136D02*
X+367284Y+5406136D01*
X+381000Y+5419852D01*
X+367284Y+5433568D01*
X+394716Y+5433568D01*
X+376428Y+5442712D02*
X+367284Y+5451856D01*
X+367284Y+5461000D01*
X+376428Y+5470144D01*
X+385572Y+5470144D01*
X+394716Y+5461000D01*
X+394716Y+5451856D01*
X+385572Y+5442712D01*
X+376428Y+5442712D01*
X+394716Y+5479288D02*
X+367284Y+5479288D01*
X+394716Y+5506720D01*
X+367284Y+5506720D01*
X+371856Y+5520436D02*
X+367284Y+5525008D01*
X+367284Y+5538724D01*
X+371856Y+5543296D01*
X+376428Y+5543296D01*
X+381000Y+5538724D01*
X+385572Y+5543296D01*
X+390144Y+5543296D01*
X+394716Y+5538724D01*
X+394716Y+5525008D01*
X+390144Y+5520436D01*
X+381000Y+5529580D02*
X+381000Y+5538724D01*
D14*
X+497840Y+6974840D02*
X+772160Y+6974840D01*
X+772160Y+7249160D01*
X+497840Y+7249160D01*
X+497840Y+6974840D01*
D35*
X+641858Y+7015988D02*
X+645287Y+7019417D01*
X+645287Y+7033133D01*
X+641858Y+7036562D01*
X+638429Y+7036562D01*
X+635000Y+7033133D01*
X+635000Y+7019417D01*
X+631571Y+7015988D01*
X+628142Y+7015988D01*
X+624713Y+7019417D01*
X+624713Y+7033133D01*
X+628142Y+7036562D01*
X+645287Y+7043420D02*
X+624713Y+7043420D01*
X+624713Y+7060565D01*
X+628142Y+7063994D01*
X+631571Y+7063994D01*
X+635000Y+7060565D01*
X+635000Y+7043420D01*
X+645287Y+7091426D02*
X+645287Y+7070852D01*
X+624713Y+7070852D01*
X+624713Y+7091426D01*
X+635000Y+7070852D02*
X+635000Y+7084568D01*
X+645287Y+7118858D02*
X+645287Y+7098284D01*
X+624713Y+7098284D01*
X+624713Y+7118858D01*
X+635000Y+7098284D02*
X+635000Y+7112000D01*
X+645287Y+7125716D02*
X+624713Y+7125716D01*
X+624713Y+7139432D01*
X+631571Y+7146290D01*
X+638429Y+7146290D01*
X+645287Y+7139432D01*
X+645287Y+7125716D01*
X+624713Y+7156577D02*
X+624713Y+7170293D01*
X+624713Y+7163435D02*
X+645287Y+7163435D01*
X+645287Y+7156577D02*
X+645287Y+7170293D01*
X+645287Y+7180580D02*
X+624713Y+7180580D01*
X+645287Y+7201154D01*
X+624713Y+7201154D01*
D14*
X-518160Y+5323840D02*
X-243840Y+5323840D01*
X-243840Y+5598160D01*
X-518160Y+5598160D01*
X-518160Y+5323840D01*
D36*
X-367284Y+5461000D02*
X-367284Y+5488432D01*
X-339852Y+5488432D01*
X-339852Y+5433568D01*
X-367284Y+5406136D01*
X-394716Y+5406136D01*
X-422148Y+5433568D01*
X-422148Y+5474716D01*
X-408432Y+5488432D01*
D14*
X+3037840Y+6720840D02*
X+3312160Y+6720840D01*
X+3312160Y+6995160D01*
X+3037840Y+6995160D01*
X+3037840Y+6720840D01*
D37*
X+3087218Y+6874459D02*
X+3087218Y+6858000D01*
X+3103677Y+6841540D01*
X+3120136Y+6858000D01*
X+3120136Y+6874459D01*
X+3136595Y+6874459D02*
X+3158540Y+6874459D01*
X+3147568Y+6874459D02*
X+3147568Y+6841540D01*
X+3136595Y+6841540D02*
X+3158540Y+6841540D01*
X+3175000Y+6841540D02*
X+3175000Y+6874459D01*
X+3207918Y+6841540D01*
X+3207918Y+6874459D01*
X+3218891Y+6858000D02*
X+3251809Y+6858000D01*
X+3235350Y+6868972D02*
X+3235350Y+6847027D01*
D14*
X+3037840Y+7220840D02*
X+3312160Y+7220840D01*
X+3312160Y+7495160D01*
X+3037840Y+7495160D01*
X+3037840Y+7220840D01*
D37*
X+3087218Y+7374459D02*
X+3087218Y+7358000D01*
X+3103677Y+7341540D01*
X+3120136Y+7358000D01*
X+3120136Y+7374459D01*
X+3136595Y+7374459D02*
X+3158540Y+7374459D01*
X+3147568Y+7374459D02*
X+3147568Y+7341540D01*
X+3136595Y+7341540D02*
X+3158540Y+7341540D01*
X+3175000Y+7341540D02*
X+3175000Y+7374459D01*
X+3207918Y+7341540D01*
X+3207918Y+7374459D01*
X+3224377Y+7358000D02*
X+3251809Y+7358000D01*
D14*
X+3037840Y+5958840D02*
X+3312160Y+5958840D01*
X+3312160Y+6233160D01*
X+3037840Y+6233160D01*
X+3037840Y+5958840D01*
D38*
X+3110992Y+6123432D02*
X+3147568Y+6123432D01*
X+3129280Y+6123432D02*
X+3129280Y+6068568D01*
X+3110992Y+6068568D02*
X+3147568Y+6068568D01*
X+3184144Y+6096000D02*
X+3229864Y+6096000D01*
D14*
X+3037840Y+5323840D02*
X+3312160Y+5323840D01*
X+3312160Y+5598160D01*
X+3037840Y+5598160D01*
X+3037840Y+5323840D01*
D38*
X+3147568Y+5396992D02*
X+3147568Y+5433568D01*
X+3147568Y+5415280D02*
X+3202432Y+5415280D01*
X+3202432Y+5396992D02*
X+3202432Y+5433568D01*
X+3175000Y+5461000D02*
X+3175000Y+5515864D01*
X+3156712Y+5488432D02*
X+3193288Y+5488432D01*
D14*
X+1894840Y+7482840D02*
X+2169160Y+7482840D01*
X+2169160Y+7757160D01*
X+1894840Y+7757160D01*
X+1894840Y+7482840D01*
D38*
X+2013712Y+7647432D02*
X+1967992Y+7647432D01*
X+1967992Y+7629144D01*
X+2004568Y+7629144D01*
X+2013712Y+7620000D01*
X+2013712Y+7601712D01*
X+2004568Y+7592568D01*
X+1977136Y+7592568D01*
X+1967992Y+7601712D01*
X+2032000Y+7647432D02*
X+2032000Y+7620000D01*
X+2059432Y+7592568D01*
X+2086864Y+7620000D01*
X+2086864Y+7647432D01*
D14*
X+1640840Y+7482840D02*
X+1915160Y+7482840D01*
X+1915160Y+7757160D01*
X+1640840Y+7757160D01*
X+1640840Y+7482840D01*
D39*
X+1736852Y+7640574D02*
X+1702562Y+7640574D01*
X+1702562Y+7626858D01*
X+1729994Y+7626858D01*
X+1736852Y+7620000D01*
X+1736852Y+7606284D01*
X+1729994Y+7599426D01*
X+1709420Y+7599426D01*
X+1702562Y+7606284D01*
X+1750568Y+7640574D02*
X+1750568Y+7620000D01*
X+1771142Y+7599426D01*
X+1791716Y+7620000D01*
X+1791716Y+7640574D01*
X+1832864Y+7613142D02*
X+1846580Y+7613142D01*
X+1846580Y+7599426D01*
X+1819148Y+7599426D01*
X+1805432Y+7613142D01*
X+1805432Y+7626858D01*
X+1819148Y+7640574D01*
X+1839722Y+7640574D01*
X+1846580Y+7633716D01*
D14*
X-264160Y+6974840D02*
X+10160Y+6974840D01*
X+10160Y+7249160D01*
X-264160Y+7249160D01*
X-264160Y+6974840D01*
D35*
X-137287Y+7015988D02*
X-127000Y+7015988D01*
X-116713Y+7026275D01*
X-127000Y+7036562D01*
X-137287Y+7036562D01*
X-116713Y+7043420D02*
X-137287Y+7043420D01*
X-127000Y+7053707D01*
X-137287Y+7063994D01*
X-116713Y+7063994D01*
X-130429Y+7077710D02*
X-137287Y+7084568D01*
X-116713Y+7084568D01*
X-113284Y+7098284D02*
X-113284Y+7118858D01*
X-130429Y+7125716D02*
X-137287Y+7132574D01*
X-137287Y+7139432D01*
X-130429Y+7146290D01*
X-123571Y+7146290D01*
X-116713Y+7139432D01*
X-116713Y+7132574D01*
X-123571Y+7125716D01*
X-130429Y+7125716D01*
X-137287Y+7153148D02*
X-120142Y+7153148D01*
X-116713Y+7156577D01*
X-116713Y+7170293D01*
X-120142Y+7173722D01*
X-137287Y+7173722D01*
X-137287Y+7180580D02*
X-137287Y+7201154D01*
X-137287Y+7190867D02*
X-116713Y+7190867D01*
D14*
X-10160Y+6974840D02*
X+264160Y+6974840D01*
X+264160Y+7249160D01*
X-10160Y+7249160D01*
X-10160Y+6974840D01*
D35*
X+116713Y+7015988D02*
X+127000Y+7015988D01*
X+137287Y+7026275D01*
X+127000Y+7036562D01*
X+116713Y+7036562D01*
X+137287Y+7043420D02*
X+116713Y+7043420D01*
X+127000Y+7053707D01*
X+116713Y+7063994D01*
X+137287Y+7063994D01*
X+120142Y+7074281D02*
X+116713Y+7077710D01*
X+116713Y+7087997D01*
X+120142Y+7091426D01*
X+123571Y+7091426D01*
X+127000Y+7087997D01*
X+127000Y+7077710D01*
X+130429Y+7074281D01*
X+137287Y+7074281D01*
X+137287Y+7091426D01*
X+140716Y+7098284D02*
X+140716Y+7118858D01*
X+123571Y+7125716D02*
X+116713Y+7132574D01*
X+116713Y+7139432D01*
X+123571Y+7146290D01*
X+130429Y+7146290D01*
X+137287Y+7139432D01*
X+137287Y+7132574D01*
X+130429Y+7125716D01*
X+123571Y+7125716D01*
X+116713Y+7153148D02*
X+133858Y+7153148D01*
X+137287Y+7156577D01*
X+137287Y+7170293D01*
X+133858Y+7173722D01*
X+116713Y+7173722D01*
X+116713Y+7180580D02*
X+116713Y+7201154D01*
X+116713Y+7190867D02*
X+137287Y+7190867D01*
D14*
X+243840Y+6974840D02*
X+518160Y+6974840D01*
X+518160Y+7249160D01*
X+243840Y+7249160D01*
X+243840Y+6974840D01*
D35*
X+370713Y+7015988D02*
X+381000Y+7015988D01*
X+391287Y+7026275D01*
X+381000Y+7036562D01*
X+370713Y+7036562D01*
X+391287Y+7043420D02*
X+370713Y+7043420D01*
X+381000Y+7053707D01*
X+370713Y+7063994D01*
X+391287Y+7063994D01*
X+374142Y+7074281D02*
X+370713Y+7077710D01*
X+370713Y+7087997D01*
X+374142Y+7091426D01*
X+377571Y+7091426D01*
X+381000Y+7087997D01*
X+384429Y+7091426D01*
X+387858Y+7091426D01*
X+391287Y+7087997D01*
X+391287Y+7077710D01*
X+387858Y+7074281D01*
X+381000Y+7081139D02*
X+381000Y+7087997D01*
X+394716Y+7098284D02*
X+394716Y+7118858D01*
X+377571Y+7125716D02*
X+370713Y+7132574D01*
X+370713Y+7139432D01*
X+377571Y+7146290D01*
X+384429Y+7146290D01*
X+391287Y+7139432D01*
X+391287Y+7132574D01*
X+384429Y+7125716D01*
X+377571Y+7125716D01*
X+370713Y+7153148D02*
X+387858Y+7153148D01*
X+391287Y+7156577D01*
X+391287Y+7170293D01*
X+387858Y+7173722D01*
X+370713Y+7173722D01*
X+370713Y+7180580D02*
X+370713Y+7201154D01*
X+370713Y+7190867D02*
X+391287Y+7190867D01*
D14*
X-518160Y+6974840D02*
X-243840Y+6974840D01*
X-243840Y+7249160D01*
X-518160Y+7249160D01*
X-518160Y+6974840D01*
D34*
X-394716Y+7020560D02*
X-381000Y+7020560D01*
X-367284Y+7034276D01*
X-381000Y+7047992D01*
X-394716Y+7047992D01*
X-367284Y+7057136D02*
X-394716Y+7057136D01*
X-381000Y+7070852D01*
X-394716Y+7084568D01*
X-367284Y+7084568D01*
X-376428Y+7121144D02*
X-376428Y+7093712D01*
X-394716Y+7112000D01*
X-367284Y+7112000D01*
X-362712Y+7130288D02*
X-362712Y+7157720D01*
X-376428Y+7185152D02*
X-376428Y+7194296D01*
X-367284Y+7194296D01*
X-367284Y+7176008D01*
X-376428Y+7166864D01*
X-385572Y+7166864D01*
X-394716Y+7176008D01*
X-394716Y+7189724D01*
X-390144Y+7194296D01*
D14*
X-772160Y+5323840D02*
X-497840Y+5323840D01*
X-497840Y+5598160D01*
X-772160Y+5598160D01*
X-772160Y+5323840D01*
D38*
X-699008Y+5488432D02*
X-662432Y+5488432D01*
X-680720Y+5488432D02*
X-680720Y+5433568D01*
X-699008Y+5433568D02*
X-662432Y+5433568D01*
X-598424Y+5451856D02*
X-580136Y+5451856D01*
X-580136Y+5433568D01*
X-616712Y+5433568D01*
X-635000Y+5451856D01*
X-635000Y+5470144D01*
X-616712Y+5488432D01*
X-589280Y+5488432D01*
X-580136Y+5479288D01*
D14*
X+751840Y+6974840D02*
X+1026160Y+6974840D01*
X+1026160Y+7249160D01*
X+751840Y+7249160D01*
X+751840Y+6974840D01*
D37*
X+872541Y+7029704D02*
X+872541Y+7051649D01*
X+872541Y+7040677D02*
X+905460Y+7040677D01*
X+905460Y+7029704D02*
X+905460Y+7051649D01*
X+905460Y+7068109D02*
X+872541Y+7068109D01*
X+889000Y+7084568D01*
X+872541Y+7101027D01*
X+905460Y+7101027D01*
X+883514Y+7112000D02*
X+872541Y+7122972D01*
X+872541Y+7133945D01*
X+883514Y+7144918D01*
X+894487Y+7144918D01*
X+905460Y+7133945D01*
X+905460Y+7122972D01*
X+894487Y+7112000D01*
X+883514Y+7112000D01*
X+905460Y+7155891D02*
X+872541Y+7155891D01*
X+905460Y+7188809D01*
X+872541Y+7188809D01*
D14*
X+497840Y+5323840D02*
X+772160Y+5323840D01*
X+772160Y+5598160D01*
X+497840Y+5598160D01*
X+497840Y+5323840D01*
D40*
X+641096Y+5363464D02*
X+644144Y+5366512D01*
X+644144Y+5378704D01*
X+641096Y+5381752D01*
X+638048Y+5381752D01*
X+635000Y+5378704D01*
X+635000Y+5366512D01*
X+631952Y+5363464D01*
X+628904Y+5363464D01*
X+625856Y+5366512D01*
X+625856Y+5378704D01*
X+628904Y+5381752D01*
X+644144Y+5387848D02*
X+625856Y+5387848D01*
X+625856Y+5403088D01*
X+628904Y+5406136D01*
X+631952Y+5406136D01*
X+635000Y+5403088D01*
X+635000Y+5387848D01*
X+644144Y+5430520D02*
X+644144Y+5412232D01*
X+625856Y+5412232D01*
X+625856Y+5430520D01*
X+635000Y+5412232D02*
X+635000Y+5424424D01*
X+644144Y+5454904D02*
X+644144Y+5436616D01*
X+625856Y+5436616D01*
X+625856Y+5454904D01*
X+635000Y+5436616D02*
X+635000Y+5448808D01*
X+644144Y+5461000D02*
X+625856Y+5461000D01*
X+625856Y+5473192D01*
X+631952Y+5479288D01*
X+638048Y+5479288D01*
X+644144Y+5473192D01*
X+644144Y+5461000D01*
X+631952Y+5485384D02*
X+625856Y+5491480D01*
X+625856Y+5497576D01*
X+631952Y+5503672D01*
X+638048Y+5503672D01*
X+644144Y+5497576D01*
X+644144Y+5491480D01*
X+638048Y+5485384D01*
X+631952Y+5485384D01*
X+625856Y+5509768D02*
X+641096Y+5509768D01*
X+644144Y+5512816D01*
X+644144Y+5525008D01*
X+641096Y+5528056D01*
X+625856Y+5528056D01*
X+625856Y+5534152D02*
X+625856Y+5552440D01*
X+625856Y+5543296D02*
X+644144Y+5543296D01*
M02*
