G04 PROTEUS RS274X GERBER FILE*
%FSLAX45Y45*%
%MOMM*%
G01*
%ADD41C,0.203200*%
%ADD50C,0.200000*%
%ADD51C,0.101600*%
%ADD11C,0.508000*%
%ADD52C,0.152400*%
%ADD53C,0.120000*%
D41*
X-1079500Y-6413500D02*
X+9715500Y-6413500D01*
X+9715500Y+2730500D01*
X-1079500Y+2730500D01*
X-1079500Y-6413500D01*
X+6413500Y+254000D02*
X+7175500Y+254000D01*
X+7175500Y+889000D01*
X+6413500Y+889000D01*
X+6413500Y+254000D01*
X+6921500Y+762000D02*
X+6921500Y+381000D01*
X+8699500Y+254000D02*
X+9461500Y+254000D01*
X+9461500Y+889000D01*
X+8699500Y+889000D01*
X+8699500Y+254000D01*
X+9207500Y+762000D02*
X+9207500Y+381000D01*
X+4064000Y+254000D02*
X+4826000Y+254000D01*
X+4826000Y+889000D01*
X+4064000Y+889000D01*
X+4064000Y+254000D01*
X+4572000Y+762000D02*
X+4572000Y+381000D01*
X+4445000Y+1714500D02*
X+4444573Y+1724909D01*
X+4441101Y+1745728D01*
X+4433845Y+1766547D01*
X+4422017Y+1787366D01*
X+4403920Y+1808024D01*
X+4383101Y+1823545D01*
X+4362282Y+1833530D01*
X+4341463Y+1839314D01*
X+4320644Y+1841472D01*
X+4318000Y+1841500D01*
X+4191000Y+1714500D02*
X+4191427Y+1724909D01*
X+4194899Y+1745728D01*
X+4202155Y+1766547D01*
X+4213983Y+1787366D01*
X+4232080Y+1808024D01*
X+4252899Y+1823545D01*
X+4273718Y+1833530D01*
X+4294537Y+1839314D01*
X+4315356Y+1841472D01*
X+4318000Y+1841500D01*
X+4191000Y+1714500D02*
X+4191427Y+1704091D01*
X+4194899Y+1683272D01*
X+4202155Y+1662453D01*
X+4213983Y+1641634D01*
X+4232080Y+1620976D01*
X+4252899Y+1605455D01*
X+4273718Y+1595470D01*
X+4294537Y+1589686D01*
X+4315356Y+1587528D01*
X+4318000Y+1587500D01*
X+4445000Y+1714500D02*
X+4444573Y+1704091D01*
X+4441101Y+1683272D01*
X+4433845Y+1662453D01*
X+4422017Y+1641634D01*
X+4403920Y+1620976D01*
X+4383101Y+1605455D01*
X+4362282Y+1595470D01*
X+4341463Y+1589686D01*
X+4320644Y+1587528D01*
X+4318000Y+1587500D01*
X+4381500Y+1714500D02*
X+4381283Y+1719747D01*
X+4379518Y+1730242D01*
X+4375826Y+1740737D01*
X+4369798Y+1751232D01*
X+4360576Y+1761612D01*
X+4350081Y+1769300D01*
X+4339586Y+1774218D01*
X+4329091Y+1777024D01*
X+4318596Y+1777997D01*
X+4318000Y+1778000D01*
X+4254500Y+1714500D02*
X+4254717Y+1719747D01*
X+4256482Y+1730242D01*
X+4260174Y+1740737D01*
X+4266202Y+1751232D01*
X+4275424Y+1761612D01*
X+4285919Y+1769300D01*
X+4296414Y+1774218D01*
X+4306909Y+1777024D01*
X+4317404Y+1777997D01*
X+4318000Y+1778000D01*
X+4254500Y+1714500D02*
X+4254717Y+1709253D01*
X+4256482Y+1698758D01*
X+4260174Y+1688263D01*
X+4266202Y+1677768D01*
X+4275424Y+1667388D01*
X+4285919Y+1659700D01*
X+4296414Y+1654782D01*
X+4306909Y+1651976D01*
X+4317404Y+1651003D01*
X+4318000Y+1651000D01*
X+4381500Y+1714500D02*
X+4381283Y+1709253D01*
X+4379518Y+1698758D01*
X+4375826Y+1688263D01*
X+4369798Y+1677768D01*
X+4360576Y+1667388D01*
X+4350081Y+1659700D01*
X+4339586Y+1654782D01*
X+4329091Y+1651976D01*
X+4318596Y+1651003D01*
X+4318000Y+1651000D01*
X+4140200Y+2085340D02*
X+4140200Y+2176780D01*
X+4219575Y+2176780D01*
X+4235450Y+2161540D01*
X+4235450Y+2146300D01*
X+4219575Y+2131060D01*
X+4140200Y+2131060D01*
X+4267200Y+2085340D02*
X+4267200Y+2176780D01*
X+4362450Y+2176780D02*
X+4362450Y+2085340D01*
X+4267200Y+2131060D02*
X+4362450Y+2131060D01*
X+4425950Y+2146300D02*
X+4457700Y+2176780D01*
X+4457700Y+2085340D01*
X+6794500Y+1714500D02*
X+6794073Y+1724909D01*
X+6790601Y+1745728D01*
X+6783345Y+1766547D01*
X+6771517Y+1787366D01*
X+6753420Y+1808024D01*
X+6732601Y+1823545D01*
X+6711782Y+1833530D01*
X+6690963Y+1839314D01*
X+6670144Y+1841472D01*
X+6667500Y+1841500D01*
X+6540500Y+1714500D02*
X+6540927Y+1724909D01*
X+6544399Y+1745728D01*
X+6551655Y+1766547D01*
X+6563483Y+1787366D01*
X+6581580Y+1808024D01*
X+6602399Y+1823545D01*
X+6623218Y+1833530D01*
X+6644037Y+1839314D01*
X+6664856Y+1841472D01*
X+6667500Y+1841500D01*
X+6540500Y+1714500D02*
X+6540927Y+1704091D01*
X+6544399Y+1683272D01*
X+6551655Y+1662453D01*
X+6563483Y+1641634D01*
X+6581580Y+1620976D01*
X+6602399Y+1605455D01*
X+6623218Y+1595470D01*
X+6644037Y+1589686D01*
X+6664856Y+1587528D01*
X+6667500Y+1587500D01*
X+6794500Y+1714500D02*
X+6794073Y+1704091D01*
X+6790601Y+1683272D01*
X+6783345Y+1662453D01*
X+6771517Y+1641634D01*
X+6753420Y+1620976D01*
X+6732601Y+1605455D01*
X+6711782Y+1595470D01*
X+6690963Y+1589686D01*
X+6670144Y+1587528D01*
X+6667500Y+1587500D01*
X+6731000Y+1714500D02*
X+6730783Y+1719747D01*
X+6729018Y+1730242D01*
X+6725326Y+1740737D01*
X+6719298Y+1751232D01*
X+6710076Y+1761612D01*
X+6699581Y+1769300D01*
X+6689086Y+1774218D01*
X+6678591Y+1777024D01*
X+6668096Y+1777997D01*
X+6667500Y+1778000D01*
X+6604000Y+1714500D02*
X+6604217Y+1719747D01*
X+6605982Y+1730242D01*
X+6609674Y+1740737D01*
X+6615702Y+1751232D01*
X+6624924Y+1761612D01*
X+6635419Y+1769300D01*
X+6645914Y+1774218D01*
X+6656409Y+1777024D01*
X+6666904Y+1777997D01*
X+6667500Y+1778000D01*
X+6604000Y+1714500D02*
X+6604217Y+1709253D01*
X+6605982Y+1698758D01*
X+6609674Y+1688263D01*
X+6615702Y+1677768D01*
X+6624924Y+1667388D01*
X+6635419Y+1659700D01*
X+6645914Y+1654782D01*
X+6656409Y+1651976D01*
X+6666904Y+1651003D01*
X+6667500Y+1651000D01*
X+6731000Y+1714500D02*
X+6730783Y+1709253D01*
X+6729018Y+1698758D01*
X+6725326Y+1688263D01*
X+6719298Y+1677768D01*
X+6710076Y+1667388D01*
X+6699581Y+1659700D01*
X+6689086Y+1654782D01*
X+6678591Y+1651976D01*
X+6668096Y+1651003D01*
X+6667500Y+1651000D01*
X+6477000Y+2098040D02*
X+6477000Y+2189480D01*
X+6556375Y+2189480D01*
X+6572250Y+2174240D01*
X+6572250Y+2159000D01*
X+6556375Y+2143760D01*
X+6477000Y+2143760D01*
X+6604000Y+2098040D02*
X+6604000Y+2189480D01*
X+6699250Y+2189480D02*
X+6699250Y+2098040D01*
X+6604000Y+2143760D02*
X+6699250Y+2143760D01*
X+6746875Y+2174240D02*
X+6762750Y+2189480D01*
X+6810375Y+2189480D01*
X+6826250Y+2174240D01*
X+6826250Y+2159000D01*
X+6810375Y+2143760D01*
X+6762750Y+2143760D01*
X+6746875Y+2128520D01*
X+6746875Y+2098040D01*
X+6826250Y+2098040D01*
X+8382000Y+1651000D02*
X+8381573Y+1661409D01*
X+8378101Y+1682228D01*
X+8370845Y+1703047D01*
X+8359017Y+1723866D01*
X+8340920Y+1744524D01*
X+8320101Y+1760045D01*
X+8299282Y+1770030D01*
X+8278463Y+1775814D01*
X+8257644Y+1777972D01*
X+8255000Y+1778000D01*
X+8128000Y+1651000D02*
X+8128427Y+1661409D01*
X+8131899Y+1682228D01*
X+8139155Y+1703047D01*
X+8150983Y+1723866D01*
X+8169080Y+1744524D01*
X+8189899Y+1760045D01*
X+8210718Y+1770030D01*
X+8231537Y+1775814D01*
X+8252356Y+1777972D01*
X+8255000Y+1778000D01*
X+8128000Y+1651000D02*
X+8128427Y+1640591D01*
X+8131899Y+1619772D01*
X+8139155Y+1598953D01*
X+8150983Y+1578134D01*
X+8169080Y+1557476D01*
X+8189899Y+1541955D01*
X+8210718Y+1531970D01*
X+8231537Y+1526186D01*
X+8252356Y+1524028D01*
X+8255000Y+1524000D01*
X+8382000Y+1651000D02*
X+8381573Y+1640591D01*
X+8378101Y+1619772D01*
X+8370845Y+1598953D01*
X+8359017Y+1578134D01*
X+8340920Y+1557476D01*
X+8320101Y+1541955D01*
X+8299282Y+1531970D01*
X+8278463Y+1526186D01*
X+8257644Y+1524028D01*
X+8255000Y+1524000D01*
X+8318500Y+1651000D02*
X+8318283Y+1656247D01*
X+8316518Y+1666742D01*
X+8312826Y+1677237D01*
X+8306798Y+1687732D01*
X+8297576Y+1698112D01*
X+8287081Y+1705800D01*
X+8276586Y+1710718D01*
X+8266091Y+1713524D01*
X+8255596Y+1714497D01*
X+8255000Y+1714500D01*
X+8191500Y+1651000D02*
X+8191717Y+1656247D01*
X+8193482Y+1666742D01*
X+8197174Y+1677237D01*
X+8203202Y+1687732D01*
X+8212424Y+1698112D01*
X+8222919Y+1705800D01*
X+8233414Y+1710718D01*
X+8243909Y+1713524D01*
X+8254404Y+1714497D01*
X+8255000Y+1714500D01*
X+8191500Y+1651000D02*
X+8191717Y+1645753D01*
X+8193482Y+1635258D01*
X+8197174Y+1624763D01*
X+8203202Y+1614268D01*
X+8212424Y+1603888D01*
X+8222919Y+1596200D01*
X+8233414Y+1591282D01*
X+8243909Y+1588476D01*
X+8254404Y+1587503D01*
X+8255000Y+1587500D01*
X+8318500Y+1651000D02*
X+8318283Y+1645753D01*
X+8316518Y+1635258D01*
X+8312826Y+1624763D01*
X+8306798Y+1614268D01*
X+8297576Y+1603888D01*
X+8287081Y+1596200D01*
X+8276586Y+1591282D01*
X+8266091Y+1588476D01*
X+8255596Y+1587503D01*
X+8255000Y+1587500D01*
X+8051800Y+2085340D02*
X+8051800Y+2176780D01*
X+8131175Y+2176780D01*
X+8147050Y+2161540D01*
X+8147050Y+2146300D01*
X+8131175Y+2131060D01*
X+8051800Y+2131060D01*
X+8178800Y+2085340D02*
X+8178800Y+2176780D01*
X+8274050Y+2176780D02*
X+8274050Y+2085340D01*
X+8178800Y+2131060D02*
X+8274050Y+2131060D01*
X+8321675Y+2161540D02*
X+8337550Y+2176780D01*
X+8385175Y+2176780D01*
X+8401050Y+2161540D01*
X+8401050Y+2146300D01*
X+8385175Y+2131060D01*
X+8401050Y+2115820D01*
X+8401050Y+2100580D01*
X+8385175Y+2085340D01*
X+8337550Y+2085340D01*
X+8321675Y+2100580D01*
X+8353425Y+2131060D02*
X+8385175Y+2131060D01*
D50*
X+2475400Y-976100D02*
X+2475400Y-1086100D01*
X+2655400Y-976100D02*
X+2655400Y-1086100D01*
X+2475400Y-1809500D02*
X+2475400Y-1909500D01*
X+2655400Y-1809500D02*
X+2655400Y-1909500D01*
D41*
X+825500Y-5626100D02*
X+2209800Y-5626100D01*
X+2209800Y-4241800D01*
X+825500Y-4241800D01*
X+825500Y-5626100D01*
X+2425700Y-4772600D02*
X+2654300Y-4772600D01*
X+2654300Y-4798000D02*
X+2425700Y-4798000D01*
X+2425700Y-5013900D02*
X+2425700Y-4709100D01*
X+2654300Y-5013900D02*
X+2654300Y-4709100D01*
D50*
X+482842Y-6168500D02*
X+592842Y-6168500D01*
X+482842Y-5988500D02*
X+592842Y-5988500D01*
X+3179500Y-4355000D02*
X+3079500Y-4355000D01*
X+3179500Y-4535000D02*
X+3079500Y-4535000D01*
D41*
X-368300Y-1828800D02*
X-368727Y-1818391D01*
X-372199Y-1797572D01*
X-379455Y-1776753D01*
X-391283Y-1755934D01*
X-409380Y-1735276D01*
X-430199Y-1719755D01*
X-451018Y-1709770D01*
X-471837Y-1703986D01*
X-492656Y-1701828D01*
X-495300Y-1701800D01*
X-622300Y-1828800D02*
X-621873Y-1818391D01*
X-618401Y-1797572D01*
X-611145Y-1776753D01*
X-599317Y-1755934D01*
X-581220Y-1735276D01*
X-560401Y-1719755D01*
X-539582Y-1709770D01*
X-518763Y-1703986D01*
X-497944Y-1701828D01*
X-495300Y-1701800D01*
X-622300Y-1828800D02*
X-621873Y-1839209D01*
X-618401Y-1860028D01*
X-611145Y-1880847D01*
X-599317Y-1901666D01*
X-581220Y-1922324D01*
X-560401Y-1937845D01*
X-539582Y-1947830D01*
X-518763Y-1953614D01*
X-497944Y-1955772D01*
X-495300Y-1955800D01*
X-368300Y-1828800D02*
X-368727Y-1839209D01*
X-372199Y-1860028D01*
X-379455Y-1880847D01*
X-391283Y-1901666D01*
X-409380Y-1922324D01*
X-430199Y-1937845D01*
X-451018Y-1947830D01*
X-471837Y-1953614D01*
X-492656Y-1955772D01*
X-495300Y-1955800D01*
X-431800Y-1828800D02*
X-432017Y-1823553D01*
X-433782Y-1813058D01*
X-437474Y-1802563D01*
X-443502Y-1792068D01*
X-452724Y-1781688D01*
X-463219Y-1774000D01*
X-473714Y-1769082D01*
X-484209Y-1766276D01*
X-494704Y-1765303D01*
X-495300Y-1765300D01*
X-558800Y-1828800D02*
X-558583Y-1823553D01*
X-556818Y-1813058D01*
X-553126Y-1802563D01*
X-547098Y-1792068D01*
X-537876Y-1781688D01*
X-527381Y-1774000D01*
X-516886Y-1769082D01*
X-506391Y-1766276D01*
X-495896Y-1765303D01*
X-495300Y-1765300D01*
X-558800Y-1828800D02*
X-558583Y-1834047D01*
X-556818Y-1844542D01*
X-553126Y-1855037D01*
X-547098Y-1865532D01*
X-537876Y-1875912D01*
X-527381Y-1883600D01*
X-516886Y-1888518D01*
X-506391Y-1891324D01*
X-495896Y-1892297D01*
X-495300Y-1892300D01*
X-431800Y-1828800D02*
X-432017Y-1834047D01*
X-433782Y-1844542D01*
X-437474Y-1855037D01*
X-443502Y-1865532D01*
X-452724Y-1875912D01*
X-463219Y-1883600D01*
X-473714Y-1888518D01*
X-484209Y-1891324D01*
X-494704Y-1892297D01*
X-495300Y-1892300D01*
X-800099Y-1506371D02*
X-754379Y-1506371D01*
X-708659Y-1458746D01*
X-754379Y-1411121D01*
X-800099Y-1411121D01*
X-800099Y-1363496D02*
X-800099Y-1299996D01*
X-800099Y-1331746D02*
X-708659Y-1331746D01*
X-708659Y-1363496D02*
X-708659Y-1299996D01*
X-708659Y-1252371D02*
X-800099Y-1252371D01*
X-708659Y-1157121D01*
X-800099Y-1157121D01*
X-754379Y-1109496D02*
X-754379Y-1030121D01*
X-453503Y-12700D02*
X-453930Y-2291D01*
X-457402Y+18528D01*
X-464658Y+39347D01*
X-476486Y+60166D01*
X-494583Y+80824D01*
X-515402Y+96345D01*
X-536221Y+106330D01*
X-557040Y+112114D01*
X-577859Y+114272D01*
X-580503Y+114300D01*
X-707503Y-12700D02*
X-707076Y-2291D01*
X-703604Y+18528D01*
X-696348Y+39347D01*
X-684520Y+60166D01*
X-666423Y+80824D01*
X-645604Y+96345D01*
X-624785Y+106330D01*
X-603966Y+112114D01*
X-583147Y+114272D01*
X-580503Y+114300D01*
X-707503Y-12700D02*
X-707076Y-23109D01*
X-703604Y-43928D01*
X-696348Y-64747D01*
X-684520Y-85566D01*
X-666423Y-106224D01*
X-645604Y-121745D01*
X-624785Y-131730D01*
X-603966Y-137514D01*
X-583147Y-139672D01*
X-580503Y-139700D01*
X-453503Y-12700D02*
X-453930Y-23109D01*
X-457402Y-43928D01*
X-464658Y-64747D01*
X-476486Y-85566D01*
X-494583Y-106224D01*
X-515402Y-121745D01*
X-536221Y-131730D01*
X-557040Y-137514D01*
X-577859Y-139672D01*
X-580503Y-139700D01*
X-517003Y-12700D02*
X-517220Y-7453D01*
X-518985Y+3042D01*
X-522677Y+13537D01*
X-528705Y+24032D01*
X-537927Y+34412D01*
X-548422Y+42100D01*
X-558917Y+47018D01*
X-569412Y+49824D01*
X-579907Y+50797D01*
X-580503Y+50800D01*
X-644003Y-12700D02*
X-643786Y-7453D01*
X-642021Y+3042D01*
X-638329Y+13537D01*
X-632301Y+24032D01*
X-623079Y+34412D01*
X-612584Y+42100D01*
X-602089Y+47018D01*
X-591594Y+49824D01*
X-581099Y+50797D01*
X-580503Y+50800D01*
X-644003Y-12700D02*
X-643786Y-17947D01*
X-642021Y-28442D01*
X-638329Y-38937D01*
X-632301Y-49432D01*
X-623079Y-59812D01*
X-612584Y-67500D01*
X-602089Y-72418D01*
X-591594Y-75224D01*
X-581099Y-76197D01*
X-580503Y-76200D01*
X-517003Y-12700D02*
X-517220Y-17947D01*
X-518985Y-28442D01*
X-522677Y-38937D01*
X-528705Y-49432D01*
X-537927Y-59812D01*
X-548422Y-67500D01*
X-558917Y-72418D01*
X-569412Y-75224D01*
X-579907Y-76197D01*
X-580503Y-76200D01*
X-862443Y+304800D02*
X-816723Y+304800D01*
X-771003Y+352425D01*
X-816723Y+400050D01*
X-862443Y+400050D01*
X-862443Y+447675D02*
X-862443Y+511175D01*
X-862443Y+479425D02*
X-771003Y+479425D01*
X-771003Y+447675D02*
X-771003Y+511175D01*
X-771003Y+558800D02*
X-862443Y+558800D01*
X-771003Y+654050D01*
X-862443Y+654050D01*
X-816723Y+685800D02*
X-816723Y+781050D01*
X-847203Y+733425D02*
X-786243Y+733425D01*
D50*
X+2716700Y-1809500D02*
X+2716700Y-1919500D01*
X+2896700Y-1809500D02*
X+2896700Y-1919500D01*
X+5942500Y-3043500D02*
X+5942500Y-3143500D01*
X+6122500Y-3043500D02*
X+6122500Y-3143500D01*
X+2716700Y-986100D02*
X+2716700Y-1086100D01*
X+2896700Y-986100D02*
X+2896700Y-1086100D01*
X+5548800Y-3041400D02*
X+5548800Y-3141400D01*
X+5728800Y-3041400D02*
X+5728800Y-3141400D01*
D41*
X+5554980Y-3860800D02*
X+5554980Y-3779838D01*
X+5565601Y-3777756D01*
X+5574167Y-3772036D01*
X+5579886Y-3763471D01*
X+5581968Y-3752850D01*
X+5554980Y-3725862D02*
X+5565601Y-3727944D01*
X+5574167Y-3733664D01*
X+5579886Y-3742229D01*
X+5581968Y-3752850D01*
X+5554980Y-3725862D02*
X+5554980Y-3644900D01*
X+6002020Y-3784600D02*
X+6002020Y-3721100D01*
X+5588000Y-3860800D02*
X+5969000Y-3860800D01*
X+5588000Y-3644900D02*
X+5969000Y-3644900D01*
X+5588000Y-3860800D02*
X+5554980Y-3860800D01*
X+5554980Y-3644900D02*
X+5588000Y-3644900D01*
X+6002020Y-3721100D02*
X+6002020Y-3644900D01*
X+5969000Y-3644900D01*
X+5969000Y-3860800D02*
X+6002020Y-3860800D01*
X+6002020Y-3784600D01*
X+5614416Y-3825240D02*
X+5614381Y-3824395D01*
X+5614094Y-3822704D01*
X+5613495Y-3821013D01*
X+5612515Y-3819322D01*
X+5611015Y-3817654D01*
X+5609324Y-3816434D01*
X+5607633Y-3815658D01*
X+5605942Y-3815221D01*
X+5604256Y-3815080D01*
X+5594096Y-3825240D02*
X+5594131Y-3824395D01*
X+5594418Y-3822704D01*
X+5595017Y-3821013D01*
X+5595997Y-3819322D01*
X+5597497Y-3817654D01*
X+5599188Y-3816434D01*
X+5600879Y-3815658D01*
X+5602570Y-3815221D01*
X+5604256Y-3815080D01*
X+5594096Y-3825240D02*
X+5594131Y-3826085D01*
X+5594418Y-3827776D01*
X+5595017Y-3829467D01*
X+5595997Y-3831158D01*
X+5597497Y-3832826D01*
X+5599188Y-3834046D01*
X+5600879Y-3834822D01*
X+5602570Y-3835259D01*
X+5604256Y-3835400D01*
X+5614416Y-3825240D02*
X+5614381Y-3826085D01*
X+5614094Y-3827776D01*
X+5613495Y-3829467D01*
X+5612515Y-3831158D01*
X+5611015Y-3832826D01*
X+5609324Y-3834046D01*
X+5607633Y-3834822D01*
X+5605942Y-3835259D01*
X+5604256Y-3835400D01*
X+6951980Y-3860800D02*
X+6951980Y-3779838D01*
X+6962601Y-3777756D01*
X+6971167Y-3772036D01*
X+6976886Y-3763471D01*
X+6978968Y-3752850D01*
X+6951980Y-3725862D02*
X+6962601Y-3727944D01*
X+6971167Y-3733664D01*
X+6976886Y-3742229D01*
X+6978968Y-3752850D01*
X+6951980Y-3725862D02*
X+6951980Y-3644900D01*
X+7399020Y-3784600D02*
X+7399020Y-3721100D01*
X+6985000Y-3860800D02*
X+7366000Y-3860800D01*
X+6985000Y-3644900D02*
X+7366000Y-3644900D01*
X+6985000Y-3860800D02*
X+6951980Y-3860800D01*
X+6951980Y-3644900D02*
X+6985000Y-3644900D01*
X+7399020Y-3721100D02*
X+7399020Y-3644900D01*
X+7366000Y-3644900D01*
X+7366000Y-3860800D02*
X+7399020Y-3860800D01*
X+7399020Y-3784600D01*
X+7011416Y-3825240D02*
X+7011381Y-3824395D01*
X+7011094Y-3822704D01*
X+7010495Y-3821013D01*
X+7009515Y-3819322D01*
X+7008015Y-3817654D01*
X+7006324Y-3816434D01*
X+7004633Y-3815658D01*
X+7002942Y-3815221D01*
X+7001256Y-3815080D01*
X+6991096Y-3825240D02*
X+6991131Y-3824395D01*
X+6991418Y-3822704D01*
X+6992017Y-3821013D01*
X+6992997Y-3819322D01*
X+6994497Y-3817654D01*
X+6996188Y-3816434D01*
X+6997879Y-3815658D01*
X+6999570Y-3815221D01*
X+7001256Y-3815080D01*
X+6991096Y-3825240D02*
X+6991131Y-3826085D01*
X+6991418Y-3827776D01*
X+6992017Y-3829467D01*
X+6992997Y-3831158D01*
X+6994497Y-3832826D01*
X+6996188Y-3834046D01*
X+6997879Y-3834822D01*
X+6999570Y-3835259D01*
X+7001256Y-3835400D01*
X+7011416Y-3825240D02*
X+7011381Y-3826085D01*
X+7011094Y-3827776D01*
X+7010495Y-3829467D01*
X+7009515Y-3831158D01*
X+7008015Y-3832826D01*
X+7006324Y-3834046D01*
X+7004633Y-3834822D01*
X+7002942Y-3835259D01*
X+7001256Y-3835400D01*
X+8348980Y-3860800D02*
X+8348980Y-3779838D01*
X+8359601Y-3777756D01*
X+8368167Y-3772036D01*
X+8373886Y-3763471D01*
X+8375968Y-3752850D01*
X+8348980Y-3725862D02*
X+8359601Y-3727944D01*
X+8368167Y-3733664D01*
X+8373886Y-3742229D01*
X+8375968Y-3752850D01*
X+8348980Y-3725862D02*
X+8348980Y-3644900D01*
X+8796020Y-3784600D02*
X+8796020Y-3721100D01*
X+8382000Y-3860800D02*
X+8763000Y-3860800D01*
X+8382000Y-3644900D02*
X+8763000Y-3644900D01*
X+8382000Y-3860800D02*
X+8348980Y-3860800D01*
X+8348980Y-3644900D02*
X+8382000Y-3644900D01*
X+8796020Y-3721100D02*
X+8796020Y-3644900D01*
X+8763000Y-3644900D01*
X+8763000Y-3860800D02*
X+8796020Y-3860800D01*
X+8796020Y-3784600D01*
X+8408416Y-3825240D02*
X+8408381Y-3824395D01*
X+8408094Y-3822704D01*
X+8407495Y-3821013D01*
X+8406515Y-3819322D01*
X+8405015Y-3817654D01*
X+8403324Y-3816434D01*
X+8401633Y-3815658D01*
X+8399942Y-3815221D01*
X+8398256Y-3815080D01*
X+8388096Y-3825240D02*
X+8388131Y-3824395D01*
X+8388418Y-3822704D01*
X+8389017Y-3821013D01*
X+8389997Y-3819322D01*
X+8391497Y-3817654D01*
X+8393188Y-3816434D01*
X+8394879Y-3815658D01*
X+8396570Y-3815221D01*
X+8398256Y-3815080D01*
X+8388096Y-3825240D02*
X+8388131Y-3826085D01*
X+8388418Y-3827776D01*
X+8389017Y-3829467D01*
X+8389997Y-3831158D01*
X+8391497Y-3832826D01*
X+8393188Y-3834046D01*
X+8394879Y-3834822D01*
X+8396570Y-3835259D01*
X+8398256Y-3835400D01*
X+8408416Y-3825240D02*
X+8408381Y-3826085D01*
X+8408094Y-3827776D01*
X+8407495Y-3829467D01*
X+8406515Y-3831158D01*
X+8405015Y-3832826D01*
X+8403324Y-3834046D01*
X+8401633Y-3834822D01*
X+8399942Y-3835259D01*
X+8398256Y-3835400D01*
D50*
X+6958500Y-3043500D02*
X+6958500Y-3143500D01*
X+7138500Y-3043500D02*
X+7138500Y-3143500D01*
D41*
X+5461000Y-3556000D02*
X+5334000Y-3429000D01*
X+5080000Y-3429000D01*
X+4953000Y-3556000D01*
X+4953000Y-3937000D01*
X+5461000Y-3937000D01*
X+5461000Y-3556000D01*
X+5334000Y-3492500D02*
X+5334000Y-3619500D01*
X+5397500Y-3556000D02*
X+5270500Y-3556000D01*
X+6858000Y-3556000D02*
X+6731000Y-3429000D01*
X+6477000Y-3429000D01*
X+6350000Y-3556000D01*
X+6350000Y-3937000D01*
X+6858000Y-3937000D01*
X+6858000Y-3556000D01*
X+6731000Y-3492500D02*
X+6731000Y-3619500D01*
X+6794500Y-3556000D02*
X+6667500Y-3556000D01*
X+8255000Y-3556000D02*
X+8128000Y-3429000D01*
X+7874000Y-3429000D01*
X+7747000Y-3556000D01*
X+7747000Y-3937000D01*
X+8255000Y-3937000D01*
X+8255000Y-3556000D01*
X+8128000Y-3492500D02*
X+8128000Y-3619500D01*
X+8191500Y-3556000D02*
X+8064500Y-3556000D01*
D51*
X+5023000Y-4213960D02*
X+4883000Y-4213960D01*
X+5023000Y-4233960D02*
X+4883000Y-4233960D01*
X+4883000Y-4343960D02*
X+5023000Y-4343960D01*
X+5023000Y-4183960D01*
X+4883000Y-4183960D01*
X+4883000Y-4343960D01*
X+6420000Y-4194910D02*
X+6280000Y-4194910D01*
X+6420000Y-4214910D02*
X+6280000Y-4214910D01*
X+6280000Y-4324910D02*
X+6420000Y-4324910D01*
X+6420000Y-4164910D01*
X+6280000Y-4164910D01*
X+6280000Y-4324910D01*
X+7848750Y-4163160D02*
X+7708750Y-4163160D01*
X+7848750Y-4183160D02*
X+7708750Y-4183160D01*
X+7708750Y-4293160D02*
X+7848750Y-4293160D01*
X+7848750Y-4133160D01*
X+7708750Y-4133160D01*
X+7708750Y-4293160D01*
D50*
X+6069500Y-3714500D02*
X+6069500Y-3824500D01*
X+6249500Y-3714500D02*
X+6249500Y-3824500D01*
X+7466500Y-3714500D02*
X+7466500Y-3824500D01*
X+7646500Y-3714500D02*
X+7646500Y-3824500D01*
X+8863500Y-3714500D02*
X+8863500Y-3824500D01*
X+9043500Y-3714500D02*
X+9043500Y-3824500D01*
X+7339500Y-3043500D02*
X+7339500Y-3143500D01*
X+7519500Y-3043500D02*
X+7519500Y-3143500D01*
X+8355500Y-3043500D02*
X+8355500Y-3143500D01*
X+8535500Y-3043500D02*
X+8535500Y-3143500D01*
X+8736500Y-3043500D02*
X+8736500Y-3143500D01*
X+8916500Y-3043500D02*
X+8916500Y-3143500D01*
X+5741500Y-4449500D02*
X+5741500Y-4349500D01*
X+5561500Y-4449500D02*
X+5561500Y-4349500D01*
X+6013000Y-4449500D02*
X+6013000Y-4349500D01*
X+5833000Y-4449500D02*
X+5833000Y-4349500D01*
X+7138500Y-4449500D02*
X+7138500Y-4349500D01*
X+6958500Y-4449500D02*
X+6958500Y-4349500D01*
X+5396400Y-1149100D02*
X+5396400Y-1249100D01*
X+5576400Y-1149100D02*
X+5576400Y-1249100D01*
X+4710600Y-1760062D02*
X+4710600Y-1860062D01*
X+4890600Y-1760062D02*
X+4890600Y-1860062D01*
X+5193200Y-1758700D02*
X+5193200Y-1858700D01*
X+5373200Y-1758700D02*
X+5373200Y-1858700D01*
X+4951900Y-970562D02*
X+4951900Y-1070562D01*
X+5131900Y-970562D02*
X+5131900Y-1070562D01*
X+4710600Y-962662D02*
X+4710600Y-1072662D01*
X+4890600Y-962662D02*
X+4890600Y-1072662D01*
X+4951900Y-1757962D02*
X+4951900Y-1867962D01*
X+5131900Y-1757962D02*
X+5131900Y-1867962D01*
X+7189300Y-1022600D02*
X+7189300Y-912600D01*
X+7009300Y-1022600D02*
X+7009300Y-912600D01*
X+7250600Y-1763500D02*
X+7250600Y-1873500D01*
X+7430600Y-1763500D02*
X+7430600Y-1873500D01*
X+7682400Y-1098300D02*
X+7682400Y-1198300D01*
X+7862400Y-1098300D02*
X+7862400Y-1198300D01*
X+7009300Y-1760800D02*
X+7009300Y-1860800D01*
X+7189300Y-1760800D02*
X+7189300Y-1860800D01*
X+7491900Y-1758700D02*
X+7491900Y-1858700D01*
X+7671900Y-1758700D02*
X+7671900Y-1858700D01*
X+7250600Y-920500D02*
X+7250600Y-1020500D01*
X+7430600Y-920500D02*
X+7430600Y-1020500D01*
D41*
X+3667760Y-3655060D02*
X+3578860Y-3655060D01*
X+3561080Y-3766820D02*
X+3489960Y-3766820D01*
X+3667760Y-3655060D02*
X+3667760Y-3746500D01*
X+3378200Y-3749040D02*
X+3378200Y-3655060D01*
X+3464560Y-3655060D01*
X+4239260Y-3655060D02*
X+4150360Y-3655060D01*
X+4132580Y-3766820D02*
X+4061460Y-3766820D01*
X+4239260Y-3655060D02*
X+4239260Y-3746500D01*
X+3949700Y-3749040D02*
X+3949700Y-3655060D01*
X+4036060Y-3655060D01*
X+4480560Y-4015740D02*
X+4480560Y-4104640D01*
X+4592320Y-4122420D02*
X+4592320Y-4193540D01*
X+4480560Y-4015740D02*
X+4572000Y-4015740D01*
X+4574540Y-4305300D02*
X+4480560Y-4305300D01*
X+4480560Y-4218940D01*
D51*
X+3740000Y-3742590D02*
X+3880000Y-3742590D01*
X+3740000Y-3722590D02*
X+3880000Y-3722590D01*
X+3740000Y-3772590D02*
X+3880000Y-3772590D01*
X+3880000Y-3612590D01*
X+3740000Y-3612590D01*
X+3740000Y-3772590D01*
X+3748940Y-4134000D02*
X+3748940Y-3994000D01*
X+3728940Y-4134000D02*
X+3728940Y-3994000D01*
X+3618940Y-4134000D02*
X+3778940Y-4134000D01*
X+3778940Y-3994000D01*
X+3618940Y-3994000D01*
X+3618940Y-4134000D01*
X+4311500Y-3742590D02*
X+4451500Y-3742590D01*
X+4311500Y-3722590D02*
X+4451500Y-3722590D01*
X+4311500Y-3772590D02*
X+4451500Y-3772590D01*
X+4451500Y-3612590D01*
X+4311500Y-3612590D01*
X+4311500Y-3772590D01*
X+3930500Y-4104540D02*
X+4070500Y-4104540D01*
X+3930500Y-4084540D02*
X+4070500Y-4084540D01*
X+3930500Y-4134540D02*
X+4070500Y-4134540D01*
X+4070500Y-3974540D01*
X+3930500Y-3974540D01*
X+3930500Y-4134540D01*
D50*
X+3615000Y-3455500D02*
X+3715000Y-3455500D01*
X+3615000Y-3275500D02*
X+3715000Y-3275500D01*
X+3615000Y-3201500D02*
X+3715000Y-3201500D01*
X+3615000Y-3021500D02*
X+3715000Y-3021500D01*
X+4286500Y-3275500D02*
X+4186500Y-3275500D01*
X+4286500Y-3455500D02*
X+4186500Y-3455500D01*
X+4545500Y-3170500D02*
X+4545500Y-3270500D01*
X+4725500Y-3170500D02*
X+4725500Y-3270500D01*
X+4725500Y-3778500D02*
X+4725500Y-3668500D01*
X+4545500Y-3778500D02*
X+4545500Y-3668500D01*
X+4286500Y-3021500D02*
X+4176500Y-3021500D01*
X+4286500Y-3201500D02*
X+4176500Y-3201500D01*
X+8789500Y-4449500D02*
X+8789500Y-4349500D01*
X+8609500Y-4449500D02*
X+8609500Y-4349500D01*
X+8335500Y-5475500D02*
X+8335500Y-5365500D01*
X+8155500Y-5475500D02*
X+8155500Y-5365500D01*
X+7573500Y-5475499D02*
X+7573500Y-5365499D01*
X+7393500Y-5475499D02*
X+7393500Y-5365499D01*
D11*
X+9093200Y-5181500D02*
X+9093069Y-5178342D01*
X+9092003Y-5172024D01*
X+9089772Y-5165706D01*
X+9086127Y-5159388D01*
X+9080552Y-5153149D01*
X+9074234Y-5148553D01*
X+9067916Y-5145620D01*
X+9061598Y-5143958D01*
X+9055280Y-5143400D01*
X+9055100Y-5143400D01*
X+9017000Y-5181500D02*
X+9017131Y-5178342D01*
X+9018197Y-5172024D01*
X+9020428Y-5165706D01*
X+9024073Y-5159388D01*
X+9029648Y-5153149D01*
X+9035966Y-5148553D01*
X+9042284Y-5145620D01*
X+9048602Y-5143958D01*
X+9054920Y-5143400D01*
X+9055100Y-5143400D01*
X+9017000Y-5181500D02*
X+9017131Y-5184658D01*
X+9018197Y-5190976D01*
X+9020428Y-5197294D01*
X+9024073Y-5203612D01*
X+9029648Y-5209851D01*
X+9035966Y-5214447D01*
X+9042284Y-5217380D01*
X+9048602Y-5219042D01*
X+9054920Y-5219600D01*
X+9055100Y-5219600D01*
X+9093200Y-5181500D02*
X+9093069Y-5184658D01*
X+9092003Y-5190976D01*
X+9089772Y-5197294D01*
X+9086127Y-5203612D01*
X+9080552Y-5209851D01*
X+9074234Y-5214447D01*
X+9067916Y-5217380D01*
X+9061598Y-5219042D01*
X+9055280Y-5219600D01*
X+9055100Y-5219600D01*
D52*
X+9126220Y-4711650D02*
X+9126220Y-5251350D01*
X+9169735Y-5251350D01*
X+9364980Y-5251350D02*
X+9364980Y-4711650D01*
X+9321465Y-4711650D01*
X+9169735Y-4711650D02*
X+9126220Y-4711650D01*
X+9321465Y-5251350D02*
X+9364980Y-5251350D01*
D41*
X+9580070Y-5330417D02*
X+9488630Y-5330417D01*
X+9488630Y-5251042D01*
X+9503870Y-5235167D01*
X+9519110Y-5235167D01*
X+9534350Y-5251042D01*
X+9534350Y-5330417D01*
X+9519110Y-5203417D02*
X+9488630Y-5171667D01*
X+9488630Y-5139917D01*
X+9519110Y-5108167D01*
X+9549590Y-5108167D01*
X+9580070Y-5139917D01*
X+9580070Y-5171667D01*
X+9549590Y-5203417D01*
X+9519110Y-5203417D01*
X+9488630Y-5076417D02*
X+9488630Y-4981167D01*
X+9488630Y-5028792D02*
X+9580070Y-5028792D01*
X+9595310Y-4949417D02*
X+9595310Y-4854167D01*
X+9488630Y-4806542D02*
X+9488630Y-4743042D01*
X+9488630Y-4774792D02*
X+9580070Y-4774792D01*
X+9580070Y-4806542D02*
X+9580070Y-4743042D01*
X+9580070Y-4695417D02*
X+9488630Y-4695417D01*
X+9580070Y-4600167D01*
X+9488630Y-4600167D01*
D50*
X+7392500Y-4449500D02*
X+7392500Y-4349500D01*
X+7212500Y-4449500D02*
X+7212500Y-4349500D01*
X+8535500Y-4449500D02*
X+8535500Y-4349500D01*
X+8355500Y-4449500D02*
X+8355500Y-4349500D01*
X+8663500Y-5730301D02*
X+8663500Y-5830301D01*
X+8843500Y-5730301D02*
X+8843500Y-5830301D01*
X+7901500Y-5365500D02*
X+7901500Y-5465500D01*
X+8081500Y-5365500D02*
X+8081500Y-5465500D01*
X+7647500Y-5365500D02*
X+7647500Y-5465500D01*
X+7827500Y-5365500D02*
X+7827500Y-5465500D01*
D11*
X+8394600Y-5715000D02*
X+8394469Y-5711842D01*
X+8393403Y-5705524D01*
X+8391172Y-5699206D01*
X+8387527Y-5692888D01*
X+8381952Y-5686649D01*
X+8375634Y-5682053D01*
X+8369316Y-5679120D01*
X+8362998Y-5677458D01*
X+8356680Y-5676900D01*
X+8356500Y-5676900D01*
X+8318400Y-5715000D02*
X+8318531Y-5711842D01*
X+8319597Y-5705524D01*
X+8321828Y-5699206D01*
X+8325473Y-5692888D01*
X+8331048Y-5686649D01*
X+8337366Y-5682053D01*
X+8343684Y-5679120D01*
X+8350002Y-5677458D01*
X+8356320Y-5676900D01*
X+8356500Y-5676900D01*
X+8318400Y-5715000D02*
X+8318531Y-5718158D01*
X+8319597Y-5724476D01*
X+8321828Y-5730794D01*
X+8325473Y-5737112D01*
X+8331048Y-5743351D01*
X+8337366Y-5747947D01*
X+8343684Y-5750880D01*
X+8350002Y-5752542D01*
X+8356320Y-5753100D01*
X+8356500Y-5753100D01*
X+8394600Y-5715000D02*
X+8394469Y-5718158D01*
X+8393403Y-5724476D01*
X+8391172Y-5730794D01*
X+8387527Y-5737112D01*
X+8381952Y-5743351D01*
X+8375634Y-5747947D01*
X+8369316Y-5750880D01*
X+8362998Y-5752542D01*
X+8356680Y-5753100D01*
X+8356500Y-5753100D01*
D52*
X+8505470Y-5804840D02*
X+8378907Y-5804840D01*
X+7207530Y-5804840D02*
X+7207530Y-6005500D01*
X+7331309Y-6005500D01*
X+8505470Y-6005500D02*
X+8505470Y-5804840D01*
X+7334093Y-5804840D02*
X+7207530Y-5804840D01*
X+7381691Y-6005500D02*
X+7531309Y-6005500D01*
X+7534093Y-5804840D02*
X+7378907Y-5804840D01*
X+7581691Y-6005500D02*
X+7731309Y-6005500D01*
X+7734093Y-5804840D02*
X+7578907Y-5804840D01*
X+7781691Y-6005500D02*
X+7931309Y-6005500D01*
X+7934093Y-5804840D02*
X+7778907Y-5804840D01*
X+7981691Y-6005500D02*
X+8131309Y-6005500D01*
X+8134093Y-5804840D02*
X+7978907Y-5804840D01*
X+8181691Y-6005500D02*
X+8331309Y-6005500D01*
X+8381691Y-6005500D02*
X+8505470Y-6005500D01*
X+8334093Y-5804840D02*
X+8178907Y-5804840D01*
D41*
X+7160134Y-6185840D02*
X+7160134Y-6094400D01*
X+7207759Y-6140120D01*
X+7255384Y-6094400D01*
X+7255384Y-6185840D01*
X+7287134Y-6124880D02*
X+7318884Y-6094400D01*
X+7350634Y-6094400D01*
X+7382384Y-6124880D01*
X+7382384Y-6155360D01*
X+7350634Y-6185840D01*
X+7318884Y-6185840D01*
X+7287134Y-6155360D01*
X+7287134Y-6124880D01*
X+7414134Y-6185840D02*
X+7414134Y-6094400D01*
X+7493509Y-6094400D01*
X+7509384Y-6109640D01*
X+7509384Y-6124880D01*
X+7493509Y-6140120D01*
X+7414134Y-6140120D01*
X+7541134Y-6170600D02*
X+7557009Y-6185840D01*
X+7620509Y-6185840D01*
X+7636384Y-6170600D01*
X+7636384Y-6155360D01*
X+7620509Y-6140120D01*
X+7557009Y-6140120D01*
X+7541134Y-6124880D01*
X+7541134Y-6109640D01*
X+7557009Y-6094400D01*
X+7620509Y-6094400D01*
X+7636384Y-6109640D01*
X+7668134Y-6201080D02*
X+7763384Y-6201080D01*
X+7811009Y-6094400D02*
X+7874509Y-6094400D01*
X+7842759Y-6094400D02*
X+7842759Y-6185840D01*
X+7811009Y-6185840D02*
X+7874509Y-6185840D01*
X+7922134Y-6185840D02*
X+7922134Y-6094400D01*
X+8017384Y-6185840D01*
X+8017384Y-6094400D01*
X+2427005Y+1383567D02*
X+2424305Y+1456704D01*
X+2402433Y+1602979D01*
X+2357135Y+1749254D01*
X+2284670Y+1895529D01*
X+2177123Y+2041804D01*
X+2033352Y+2174748D01*
X+1887077Y+2266510D01*
X+1740802Y+2327186D01*
X+1594527Y+2362573D01*
X+1448252Y+2375381D01*
X+1435104Y+2375468D01*
X+443203Y+1383567D02*
X+445903Y+1456704D01*
X+467775Y+1602979D01*
X+513073Y+1749254D01*
X+585538Y+1895529D01*
X+693085Y+2041804D01*
X+836856Y+2174748D01*
X+983131Y+2266510D01*
X+1129406Y+2327186D01*
X+1275681Y+2362573D01*
X+1421956Y+2375381D01*
X+1435104Y+2375468D01*
X+443203Y+1383567D02*
X+445903Y+1310430D01*
X+467775Y+1164155D01*
X+513073Y+1017880D01*
X+585538Y+871605D01*
X+693085Y+725330D01*
X+836856Y+592386D01*
X+983131Y+500624D01*
X+1129406Y+439948D01*
X+1275681Y+404561D01*
X+1421956Y+391753D01*
X+1435104Y+391666D01*
X+2427005Y+1383567D02*
X+2424305Y+1310430D01*
X+2402433Y+1164155D01*
X+2357135Y+1017880D01*
X+2284670Y+871605D01*
X+2177123Y+725330D01*
X+2033352Y+592386D01*
X+1887077Y+500624D01*
X+1740802Y+439948D01*
X+1594527Y+404561D01*
X+1448252Y+391753D01*
X+1435104Y+391666D01*
D53*
X+2755800Y-451200D02*
X+2753522Y-390868D01*
X+2735056Y-270203D01*
X+2696745Y-149538D01*
X+2635241Y-28873D01*
X+2543303Y+91792D01*
X+2423514Y+197833D01*
X+2302849Y+269603D01*
X+2182184Y+316101D01*
X+2061519Y+341784D01*
X+1955800Y+348800D01*
X+1155800Y-451200D02*
X+1158078Y-390868D01*
X+1176544Y-270203D01*
X+1214855Y-149538D01*
X+1276359Y-28873D01*
X+1368297Y+91792D01*
X+1488086Y+197833D01*
X+1608751Y+269603D01*
X+1729416Y+316101D01*
X+1850081Y+341784D01*
X+1955800Y+348800D01*
X+1155800Y-451200D02*
X+1158078Y-511532D01*
X+1176544Y-632197D01*
X+1214855Y-752862D01*
X+1276359Y-873527D01*
X+1368297Y-994192D01*
X+1488086Y-1100233D01*
X+1608751Y-1172003D01*
X+1729416Y-1218501D01*
X+1850081Y-1244184D01*
X+1955800Y-1251200D01*
X+2755800Y-451200D02*
X+2753522Y-511532D01*
X+2735056Y-632197D01*
X+2696745Y-752862D01*
X+2635241Y-873527D01*
X+2543303Y-994192D01*
X+2423514Y-1100233D01*
X+2302849Y-1172003D01*
X+2182184Y-1218501D01*
X+2061519Y-1244184D01*
X+1955800Y-1251200D01*
D50*
X+2553800Y+136800D02*
X+2553765Y+137631D01*
X+2553484Y+139295D01*
X+2552894Y+140959D01*
X+2551930Y+142623D01*
X+2550455Y+144264D01*
X+2548791Y+145465D01*
X+2547127Y+146230D01*
X+2545463Y+146661D01*
X+2543800Y+146800D01*
X+2533800Y+136800D02*
X+2533835Y+137631D01*
X+2534116Y+139295D01*
X+2534706Y+140959D01*
X+2535670Y+142623D01*
X+2537145Y+144264D01*
X+2538809Y+145465D01*
X+2540473Y+146230D01*
X+2542137Y+146661D01*
X+2543800Y+146800D01*
X+2533800Y+136800D02*
X+2533835Y+135969D01*
X+2534116Y+134305D01*
X+2534706Y+132641D01*
X+2535670Y+130977D01*
X+2537145Y+129336D01*
X+2538809Y+128135D01*
X+2540473Y+127370D01*
X+2542137Y+126939D01*
X+2543800Y+126800D01*
X+2553800Y+136800D02*
X+2553765Y+135969D01*
X+2553484Y+134305D01*
X+2552894Y+132641D01*
X+2551930Y+130977D01*
X+2550455Y+129336D01*
X+2548791Y+128135D01*
X+2547127Y+127370D01*
X+2545463Y+126939D01*
X+2543800Y+126800D01*
D53*
X+1142900Y-857600D02*
X+1140622Y-797268D01*
X+1122156Y-676603D01*
X+1083845Y-555938D01*
X+1022341Y-435273D01*
X+930403Y-314608D01*
X+810614Y-208567D01*
X+689949Y-136797D01*
X+569284Y-90299D01*
X+448619Y-64616D01*
X+342900Y-57600D01*
X-457100Y-857600D02*
X-454822Y-797268D01*
X-436356Y-676603D01*
X-398045Y-555938D01*
X-336541Y-435273D01*
X-244603Y-314608D01*
X-124814Y-208567D01*
X-4149Y-136797D01*
X+116516Y-90299D01*
X+237181Y-64616D01*
X+342900Y-57600D01*
X-457100Y-857600D02*
X-454822Y-917932D01*
X-436356Y-1038597D01*
X-398045Y-1159262D01*
X-336541Y-1279927D01*
X-244603Y-1400592D01*
X-124814Y-1506633D01*
X-4149Y-1578403D01*
X+116516Y-1624901D01*
X+237181Y-1650584D01*
X+342900Y-1657600D01*
X+1142900Y-857600D02*
X+1140622Y-917932D01*
X+1122156Y-1038597D01*
X+1083845Y-1159262D01*
X+1022341Y-1279927D01*
X+930403Y-1400592D01*
X+810614Y-1506633D01*
X+689949Y-1578403D01*
X+569284Y-1624901D01*
X+448619Y-1650584D01*
X+342900Y-1657600D01*
D50*
X+940900Y-269600D02*
X+940865Y-268769D01*
X+940584Y-267105D01*
X+939994Y-265441D01*
X+939030Y-263777D01*
X+937555Y-262136D01*
X+935891Y-260935D01*
X+934227Y-260170D01*
X+932563Y-259739D01*
X+930900Y-259600D01*
X+920900Y-269600D02*
X+920935Y-268769D01*
X+921216Y-267105D01*
X+921806Y-265441D01*
X+922770Y-263777D01*
X+924245Y-262136D01*
X+925909Y-260935D01*
X+927573Y-260170D01*
X+929237Y-259739D01*
X+930900Y-259600D01*
X+920900Y-269600D02*
X+920935Y-270431D01*
X+921216Y-272095D01*
X+921806Y-273759D01*
X+922770Y-275423D01*
X+924245Y-277064D01*
X+925909Y-278265D01*
X+927573Y-279030D01*
X+929237Y-279461D01*
X+930900Y-279600D01*
X+940900Y-269600D02*
X+940865Y-270431D01*
X+940584Y-272095D01*
X+939994Y-273759D01*
X+939030Y-275423D01*
X+937555Y-277064D01*
X+935891Y-278265D01*
X+934227Y-279030D01*
X+932563Y-279461D01*
X+930900Y-279600D01*
D11*
X+4162600Y-6096000D02*
X+4162469Y-6092842D01*
X+4161403Y-6086524D01*
X+4159172Y-6080206D01*
X+4155527Y-6073888D01*
X+4149952Y-6067649D01*
X+4143634Y-6063053D01*
X+4137316Y-6060120D01*
X+4130998Y-6058458D01*
X+4124680Y-6057900D01*
X+4124500Y-6057900D01*
X+4086400Y-6096000D02*
X+4086531Y-6092842D01*
X+4087597Y-6086524D01*
X+4089828Y-6080206D01*
X+4093473Y-6073888D01*
X+4099048Y-6067649D01*
X+4105366Y-6063053D01*
X+4111684Y-6060120D01*
X+4118002Y-6058458D01*
X+4124320Y-6057900D01*
X+4124500Y-6057900D01*
X+4086400Y-6096000D02*
X+4086531Y-6099158D01*
X+4087597Y-6105476D01*
X+4089828Y-6111794D01*
X+4093473Y-6118112D01*
X+4099048Y-6124351D01*
X+4105366Y-6128947D01*
X+4111684Y-6131880D01*
X+4118002Y-6133542D01*
X+4124320Y-6134100D01*
X+4124500Y-6134100D01*
X+4162600Y-6096000D02*
X+4162469Y-6099158D01*
X+4161403Y-6105476D01*
X+4159172Y-6111794D01*
X+4155527Y-6118112D01*
X+4149952Y-6124351D01*
X+4143634Y-6128947D01*
X+4137316Y-6131880D01*
X+4130998Y-6133542D01*
X+4124680Y-6134100D01*
X+4124500Y-6134100D01*
D52*
X+3975530Y-6006160D02*
X+4102093Y-6006160D01*
X+5273470Y-6006160D02*
X+5273470Y-5805500D01*
X+5149691Y-5805500D01*
X+3975530Y-5805500D02*
X+3975530Y-6006160D01*
X+5146907Y-6006160D02*
X+5273470Y-6006160D01*
X+5099309Y-5805500D02*
X+4949691Y-5805500D01*
X+4946907Y-6006160D02*
X+5102093Y-6006160D01*
X+4899309Y-5805500D02*
X+4749691Y-5805500D01*
X+4746907Y-6006160D02*
X+4902093Y-6006160D01*
X+4699309Y-5805500D02*
X+4549691Y-5805500D01*
X+4546907Y-6006160D02*
X+4702093Y-6006160D01*
X+4499309Y-5805500D02*
X+4349691Y-5805500D01*
X+4346907Y-6006160D02*
X+4502093Y-6006160D01*
X+4299309Y-5805500D02*
X+4149691Y-5805500D01*
X+4099309Y-5805500D02*
X+3975530Y-5805500D01*
X+4146907Y-6006160D02*
X+4302093Y-6006160D01*
D41*
X+4046650Y-5726760D02*
X+4030775Y-5742000D01*
X+3983150Y-5742000D01*
X+3951400Y-5711520D01*
X+3951400Y-5681040D01*
X+3983150Y-5650560D01*
X+4030775Y-5650560D01*
X+4046650Y-5665800D01*
X+4078400Y-5681040D02*
X+4110150Y-5650560D01*
X+4141900Y-5650560D01*
X+4173650Y-5681040D01*
X+4173650Y-5711520D01*
X+4141900Y-5742000D01*
X+4110150Y-5742000D01*
X+4078400Y-5711520D01*
X+4078400Y-5681040D01*
X+4205400Y-5742000D02*
X+4205400Y-5650560D01*
X+4300650Y-5742000D01*
X+4300650Y-5650560D01*
X+4364150Y-5681040D02*
X+4395900Y-5650560D01*
X+4395900Y-5742000D01*
D11*
X+5724600Y-6096000D02*
X+5724469Y-6092842D01*
X+5723403Y-6086524D01*
X+5721172Y-6080206D01*
X+5717527Y-6073888D01*
X+5711952Y-6067649D01*
X+5705634Y-6063053D01*
X+5699316Y-6060120D01*
X+5692998Y-6058458D01*
X+5686680Y-6057900D01*
X+5686500Y-6057900D01*
X+5648400Y-6096000D02*
X+5648531Y-6092842D01*
X+5649597Y-6086524D01*
X+5651828Y-6080206D01*
X+5655473Y-6073888D01*
X+5661048Y-6067649D01*
X+5667366Y-6063053D01*
X+5673684Y-6060120D01*
X+5680002Y-6058458D01*
X+5686320Y-6057900D01*
X+5686500Y-6057900D01*
X+5648400Y-6096000D02*
X+5648531Y-6099158D01*
X+5649597Y-6105476D01*
X+5651828Y-6111794D01*
X+5655473Y-6118112D01*
X+5661048Y-6124351D01*
X+5667366Y-6128947D01*
X+5673684Y-6131880D01*
X+5680002Y-6133542D01*
X+5686320Y-6134100D01*
X+5686500Y-6134100D01*
X+5724600Y-6096000D02*
X+5724469Y-6099158D01*
X+5723403Y-6105476D01*
X+5721172Y-6111794D01*
X+5717527Y-6118112D01*
X+5711952Y-6124351D01*
X+5705634Y-6128947D01*
X+5699316Y-6131880D01*
X+5692998Y-6133542D01*
X+5686680Y-6134100D01*
X+5686500Y-6134100D01*
D52*
X+5537530Y-6006160D02*
X+5664093Y-6006160D01*
X+6835470Y-6006160D02*
X+6835470Y-5805500D01*
X+6711691Y-5805500D01*
X+5537530Y-5805500D02*
X+5537530Y-6006160D01*
X+6708907Y-6006160D02*
X+6835470Y-6006160D01*
X+6661309Y-5805500D02*
X+6511691Y-5805500D01*
X+6508907Y-6006160D02*
X+6664093Y-6006160D01*
X+6461309Y-5805500D02*
X+6311691Y-5805500D01*
X+6308907Y-6006160D02*
X+6464093Y-6006160D01*
X+6261309Y-5805500D02*
X+6111691Y-5805500D01*
X+6108907Y-6006160D02*
X+6264093Y-6006160D01*
X+6061309Y-5805500D02*
X+5911691Y-5805500D01*
X+5908907Y-6006160D02*
X+6064093Y-6006160D01*
X+5861309Y-5805500D02*
X+5711691Y-5805500D01*
X+5661309Y-5805500D02*
X+5537530Y-5805500D01*
X+5708907Y-6006160D02*
X+5864093Y-6006160D01*
D41*
X+5608650Y-5714060D02*
X+5592775Y-5729300D01*
X+5545150Y-5729300D01*
X+5513400Y-5698820D01*
X+5513400Y-5668340D01*
X+5545150Y-5637860D01*
X+5592775Y-5637860D01*
X+5608650Y-5653100D01*
X+5640400Y-5668340D02*
X+5672150Y-5637860D01*
X+5703900Y-5637860D01*
X+5735650Y-5668340D01*
X+5735650Y-5698820D01*
X+5703900Y-5729300D01*
X+5672150Y-5729300D01*
X+5640400Y-5698820D01*
X+5640400Y-5668340D01*
X+5767400Y-5729300D02*
X+5767400Y-5637860D01*
X+5862650Y-5729300D01*
X+5862650Y-5637860D01*
X+5910275Y-5653100D02*
X+5926150Y-5637860D01*
X+5973775Y-5637860D01*
X+5989650Y-5653100D01*
X+5989650Y-5668340D01*
X+5973775Y-5683580D01*
X+5926150Y-5683580D01*
X+5910275Y-5698820D01*
X+5910275Y-5729300D01*
X+5989650Y-5729300D01*
D11*
X+5750100Y-5461000D02*
X+5749969Y-5457842D01*
X+5748903Y-5451524D01*
X+5746672Y-5445206D01*
X+5743027Y-5438888D01*
X+5737452Y-5432649D01*
X+5731134Y-5428053D01*
X+5724816Y-5425120D01*
X+5718498Y-5423458D01*
X+5712180Y-5422900D01*
X+5712000Y-5422900D01*
X+5673900Y-5461000D02*
X+5674031Y-5457842D01*
X+5675097Y-5451524D01*
X+5677328Y-5445206D01*
X+5680973Y-5438888D01*
X+5686548Y-5432649D01*
X+5692866Y-5428053D01*
X+5699184Y-5425120D01*
X+5705502Y-5423458D01*
X+5711820Y-5422900D01*
X+5712000Y-5422900D01*
X+5673900Y-5461000D02*
X+5674031Y-5464158D01*
X+5675097Y-5470476D01*
X+5677328Y-5476794D01*
X+5680973Y-5483112D01*
X+5686548Y-5489351D01*
X+5692866Y-5493947D01*
X+5699184Y-5496880D01*
X+5705502Y-5498542D01*
X+5711820Y-5499100D01*
X+5712000Y-5499100D01*
X+5750100Y-5461000D02*
X+5749969Y-5464158D01*
X+5748903Y-5470476D01*
X+5746672Y-5476794D01*
X+5743027Y-5483112D01*
X+5737452Y-5489351D01*
X+5731134Y-5493947D01*
X+5724816Y-5496880D01*
X+5718498Y-5498542D01*
X+5712180Y-5499100D01*
X+5712000Y-5499100D01*
D52*
X+5563030Y-5371160D02*
X+5689593Y-5371160D01*
X+6860970Y-5371160D02*
X+6860970Y-5170500D01*
X+6737191Y-5170500D01*
X+5563030Y-5170500D02*
X+5563030Y-5371160D01*
X+6734407Y-5371160D02*
X+6860970Y-5371160D01*
X+6686809Y-5170500D02*
X+6537191Y-5170500D01*
X+6534407Y-5371160D02*
X+6689593Y-5371160D01*
X+6486809Y-5170500D02*
X+6337191Y-5170500D01*
X+6334407Y-5371160D02*
X+6489593Y-5371160D01*
X+6286809Y-5170500D02*
X+6137191Y-5170500D01*
X+6134407Y-5371160D02*
X+6289593Y-5371160D01*
X+6086809Y-5170500D02*
X+5937191Y-5170500D01*
X+5934407Y-5371160D02*
X+6089593Y-5371160D01*
X+5886809Y-5170500D02*
X+5737191Y-5170500D01*
X+5686809Y-5170500D02*
X+5563030Y-5170500D01*
X+5734407Y-5371160D02*
X+5889593Y-5371160D01*
D41*
X+5538900Y-5089165D02*
X+5538900Y-4997725D01*
X+5618275Y-4997725D01*
X+5634150Y-5012965D01*
X+5634150Y-5028205D01*
X+5618275Y-5043445D01*
X+5538900Y-5043445D01*
X+5665900Y-4997725D02*
X+5665900Y-5089165D01*
X+5713525Y-5043445D01*
X+5761150Y-5089165D01*
X+5761150Y-4997725D01*
X+5792900Y-5089165D02*
X+5792900Y-4997725D01*
X+5840525Y-5043445D01*
X+5888150Y-4997725D01*
X+5888150Y-5089165D01*
D11*
X+1761085Y-6276892D02*
X+1760954Y-6273734D01*
X+1759888Y-6267416D01*
X+1757657Y-6261098D01*
X+1754012Y-6254780D01*
X+1748437Y-6248541D01*
X+1742119Y-6243945D01*
X+1735801Y-6241012D01*
X+1729483Y-6239350D01*
X+1723165Y-6238792D01*
X+1722985Y-6238792D01*
X+1684885Y-6276892D02*
X+1685016Y-6273734D01*
X+1686082Y-6267416D01*
X+1688313Y-6261098D01*
X+1691958Y-6254780D01*
X+1697533Y-6248541D01*
X+1703851Y-6243945D01*
X+1710169Y-6241012D01*
X+1716487Y-6239350D01*
X+1722805Y-6238792D01*
X+1722985Y-6238792D01*
X+1684885Y-6276892D02*
X+1685016Y-6280050D01*
X+1686082Y-6286368D01*
X+1688313Y-6292686D01*
X+1691958Y-6299004D01*
X+1697533Y-6305243D01*
X+1703851Y-6309839D01*
X+1710169Y-6312772D01*
X+1716487Y-6314434D01*
X+1722805Y-6314992D01*
X+1722985Y-6314992D01*
X+1761085Y-6276892D02*
X+1760954Y-6280050D01*
X+1759888Y-6286368D01*
X+1757657Y-6292686D01*
X+1754012Y-6299004D01*
X+1748437Y-6305243D01*
X+1742119Y-6309839D01*
X+1735801Y-6312772D01*
X+1729483Y-6314434D01*
X+1723165Y-6314992D01*
X+1722985Y-6314992D01*
D52*
X+1253135Y-6205772D02*
X+1792835Y-6205772D01*
X+1792835Y-6162257D01*
X+1792835Y-5967012D02*
X+1253135Y-5967012D01*
X+1253135Y-6010527D01*
X+1253135Y-6162257D02*
X+1253135Y-6205772D01*
X+1792835Y-6010527D02*
X+1792835Y-5967012D01*
D41*
X+1167385Y-5834932D02*
X+1199135Y-5834932D01*
X+1199135Y-5865412D01*
X+1135635Y-5865412D01*
X+1103885Y-5834932D01*
X+1103885Y-5804452D01*
X+1135635Y-5773972D01*
X+1183260Y-5773972D01*
X+1199135Y-5789212D01*
X+1230885Y-5880652D02*
X+1326135Y-5880652D01*
X+1453135Y-5773972D02*
X+1373760Y-5773972D01*
X+1373760Y-5804452D01*
X+1437260Y-5804452D01*
X+1453135Y-5819692D01*
X+1453135Y-5850172D01*
X+1437260Y-5865412D01*
X+1389635Y-5865412D01*
X+1373760Y-5850172D01*
X+1484885Y-5773972D02*
X+1484885Y-5819692D01*
X+1532510Y-5865412D01*
X+1580135Y-5819692D01*
X+1580135Y-5773972D01*
X+1611885Y-5880652D02*
X+1707135Y-5880652D01*
X+1754760Y-5789212D02*
X+1770635Y-5773972D01*
X+1818260Y-5773972D01*
X+1834135Y-5789212D01*
X+1834135Y-5804452D01*
X+1818260Y-5819692D01*
X+1834135Y-5834932D01*
X+1834135Y-5850172D01*
X+1818260Y-5865412D01*
X+1770635Y-5865412D01*
X+1754760Y-5850172D01*
X+1786510Y-5819692D02*
X+1818260Y-5819692D01*
X+1865885Y-5773972D02*
X+1865885Y-5819692D01*
X+1913510Y-5865412D01*
X+1961135Y-5819692D01*
X+1961135Y-5773972D01*
X+2008760Y-5789212D02*
X+2024635Y-5773972D01*
X+2072260Y-5773972D01*
X+2088135Y-5789212D01*
X+2088135Y-5804452D01*
X+2072260Y-5819692D01*
X+2088135Y-5834932D01*
X+2088135Y-5850172D01*
X+2072260Y-5865412D01*
X+2024635Y-5865412D01*
X+2008760Y-5850172D01*
X+2040510Y-5819692D02*
X+2072260Y-5819692D01*
D53*
X+1706500Y-3623500D02*
X+1704969Y-3584400D01*
X+1692546Y-3506199D01*
X+1666694Y-3427998D01*
X+1624934Y-3349797D01*
X+1561695Y-3271596D01*
X+1483502Y-3207243D01*
X+1405301Y-3164721D01*
X+1327100Y-3138262D01*
X+1248899Y-3125301D01*
X+1206500Y-3123500D01*
X+706500Y-3623500D02*
X+708031Y-3584400D01*
X+720454Y-3506199D01*
X+746306Y-3427998D01*
X+788066Y-3349797D01*
X+851305Y-3271596D01*
X+929498Y-3207243D01*
X+1007699Y-3164721D01*
X+1085900Y-3138262D01*
X+1164101Y-3125301D01*
X+1206500Y-3123500D01*
X+706500Y-3623500D02*
X+708031Y-3662600D01*
X+720454Y-3740801D01*
X+746306Y-3819002D01*
X+788066Y-3897203D01*
X+851305Y-3975404D01*
X+929498Y-4039757D01*
X+1007699Y-4082279D01*
X+1085900Y-4108738D01*
X+1164101Y-4121699D01*
X+1206500Y-4123500D01*
X+1706500Y-3623500D02*
X+1704969Y-3662600D01*
X+1692546Y-3740801D01*
X+1666694Y-3819002D01*
X+1624934Y-3897203D01*
X+1561695Y-3975404D01*
X+1483502Y-4039757D01*
X+1405301Y-4082279D01*
X+1327100Y-4108738D01*
X+1248899Y-4121699D01*
X+1206500Y-4123500D01*
D50*
X+840500Y-3999500D02*
X+840465Y-3998669D01*
X+840184Y-3997005D01*
X+839594Y-3995341D01*
X+838630Y-3993677D01*
X+837155Y-3992036D01*
X+835491Y-3990835D01*
X+833827Y-3990070D01*
X+832163Y-3989639D01*
X+830500Y-3989500D01*
X+820500Y-3999500D02*
X+820535Y-3998669D01*
X+820816Y-3997005D01*
X+821406Y-3995341D01*
X+822370Y-3993677D01*
X+823845Y-3992036D01*
X+825509Y-3990835D01*
X+827173Y-3990070D01*
X+828837Y-3989639D01*
X+830500Y-3989500D01*
X+820500Y-3999500D02*
X+820535Y-4000331D01*
X+820816Y-4001995D01*
X+821406Y-4003659D01*
X+822370Y-4005323D01*
X+823845Y-4006964D01*
X+825509Y-4008165D01*
X+827173Y-4008930D01*
X+828837Y-4009361D01*
X+830500Y-4009500D01*
X+840500Y-3999500D02*
X+840465Y-4000331D01*
X+840184Y-4001995D01*
X+839594Y-4003659D01*
X+838630Y-4005323D01*
X+837155Y-4006964D01*
X+835491Y-4008165D01*
X+833827Y-4008930D01*
X+832163Y-4009361D01*
X+830500Y-4009500D01*
X+3244700Y-1480119D02*
X+3244700Y-1510119D01*
X+3384700Y-1480119D02*
X+3384700Y-1510119D01*
D41*
X+3548370Y-1844369D02*
X+3456930Y-1844369D01*
X+3456930Y-1764994D01*
X+3472170Y-1749119D01*
X+3487410Y-1749119D01*
X+3502650Y-1764994D01*
X+3502650Y-1844369D01*
X+3502650Y-1764994D02*
X+3517890Y-1749119D01*
X+3548370Y-1749119D01*
X+3456930Y-1717369D02*
X+3456930Y-1622119D01*
X+3456930Y-1669744D02*
X+3548370Y-1669744D01*
X+3563610Y-1590369D02*
X+3563610Y-1495119D01*
X+3548370Y-1463369D02*
X+3456930Y-1463369D01*
X+3548370Y-1368119D01*
X+3456930Y-1368119D01*
X+3456930Y-1336369D02*
X+3456930Y-1241119D01*
X+3456930Y-1288744D02*
X+3548370Y-1288744D01*
X+3533130Y-1114119D02*
X+3548370Y-1129994D01*
X+3548370Y-1177619D01*
X+3517890Y-1209369D01*
X+3487410Y-1209369D01*
X+3456930Y-1177619D01*
X+3456930Y-1129994D01*
X+3472170Y-1114119D01*
X+9436100Y-4241800D02*
X+9436100Y-4127500D01*
X+9410700Y-4127500D01*
X+9385300Y-4146550D01*
X+9385300Y-4222750D01*
X+9410700Y-4241800D01*
X+9461500Y-4241800D01*
X+9486900Y-4222750D01*
X+9486900Y-4146550D01*
X+9486900Y-4089400D02*
X+9334500Y-4089400D01*
X+9334500Y-3994150D01*
X+9359900Y-3975100D01*
X+9385300Y-3975100D01*
X+9410700Y-3994150D01*
X+9436100Y-3975100D01*
X+9461500Y-3975100D01*
X+9486900Y-3994150D01*
X+9486900Y-4089400D01*
X+9410700Y-4089400D02*
X+9410700Y-3994150D01*
X+9385300Y-3879850D02*
X+9486900Y-3879850D01*
X+9334500Y-3879850D02*
X+9334500Y-3879850D01*
X+9334500Y-3784600D02*
X+9486900Y-3784600D01*
X+9461500Y-3784600D02*
X+9385300Y-3670300D01*
X+9436100Y-3746500D02*
X+9486900Y-3670300D01*
X+9436100Y-3632200D02*
X+9436100Y-3517900D01*
X+9410700Y-3517900D01*
X+9385300Y-3536950D01*
X+9385300Y-3613150D01*
X+9410700Y-3632200D01*
X+9461500Y-3632200D01*
X+9486900Y-3613150D01*
X+9486900Y-3536950D01*
X+9334500Y-3308350D02*
X+9334500Y-3232150D01*
X+9334500Y-3270250D02*
X+9486900Y-3270250D01*
X+9486900Y-3308350D02*
X+9486900Y-3232150D01*
X+9486900Y-3175000D02*
X+9385300Y-3175000D01*
X+9410700Y-3175000D02*
X+9385300Y-3155950D01*
X+9385300Y-3079750D01*
X+9410700Y-3060700D01*
X+9486900Y-3060700D01*
X+9385300Y-3022600D02*
X+9486900Y-2965450D01*
X+9385300Y-2908300D01*
X+9436100Y-2870200D02*
X+9436100Y-2755900D01*
X+9410700Y-2755900D01*
X+9385300Y-2774950D01*
X+9385300Y-2851150D01*
X+9410700Y-2870200D01*
X+9461500Y-2870200D01*
X+9486900Y-2851150D01*
X+9486900Y-2774950D01*
X+9486900Y-2717800D02*
X+9385300Y-2717800D01*
X+9410700Y-2717800D02*
X+9385300Y-2698750D01*
X+9385300Y-2622550D01*
X+9410700Y-2603500D01*
X+9334500Y-2546350D02*
X+9461500Y-2546350D01*
X+9486900Y-2527300D01*
X+9486900Y-2470150D01*
X+9461500Y-2451100D01*
X+9385300Y-2565400D02*
X+9385300Y-2470150D01*
X+9436100Y-2413000D02*
X+9436100Y-2298700D01*
X+9410700Y-2298700D01*
X+9385300Y-2317750D01*
X+9385300Y-2393950D01*
X+9410700Y-2413000D01*
X+9461500Y-2413000D01*
X+9486900Y-2393950D01*
X+9486900Y-2317750D01*
X+9486900Y-2260600D02*
X+9385300Y-2260600D01*
X+9410700Y-2260600D02*
X+9385300Y-2241550D01*
X+9385300Y-2165350D01*
X+9410700Y-2146300D01*
X+9385300Y-1955800D02*
X+9486900Y-1898650D01*
X+9385300Y-1841500D01*
X+9385300Y-1689100D02*
X+9410700Y-1708150D01*
X+9410700Y-1765300D01*
X+9385300Y-1784350D01*
X+9359900Y-1784350D01*
X+9334500Y-1765300D01*
X+9334500Y-1708150D01*
X+9359900Y-1689100D01*
X+9461500Y-1689100D01*
X+9486900Y-1708150D01*
X+9486900Y-1765300D01*
X+9334500Y-1384300D02*
X+9486900Y-1498600D01*
X+9486900Y-1193800D02*
X+9385300Y-1193800D01*
X+9334500Y-1155700D01*
X+9334500Y-1117600D01*
X+9385300Y-1079500D01*
X+9486900Y-1079500D01*
X+9436100Y-1193800D02*
X+9436100Y-1079500D01*
X+9334500Y-1041400D02*
X+9334500Y-927100D01*
X+9334500Y-984250D02*
X+9486900Y-984250D01*
X+2921000Y+38100D02*
X+2921000Y-279400D01*
X+3810000Y-279400D01*
X+3810000Y+38100D01*
X+3048000Y-279400D02*
X+3048000Y-406400D01*
X+3111500Y-406400D02*
X+3111500Y-279400D01*
X+3048000Y-406400D02*
X+3111500Y-406400D01*
X+3302000Y-279400D02*
X+3302000Y-342900D01*
X+3429000Y-342900D01*
X+3429000Y-279400D01*
X+3619500Y-279400D02*
X+3619500Y-406400D01*
X+3683000Y-406400D01*
X+3683000Y-279400D01*
X+3556000Y-1917700D02*
X+3556000Y-2235200D01*
X+4445000Y-2235200D01*
X+4445000Y-1917700D01*
X+3683000Y-2235200D02*
X+3683000Y-2362200D01*
X+3746500Y-2362200D02*
X+3746500Y-2235200D01*
X+3683000Y-2362200D02*
X+3746500Y-2362200D01*
X+3937000Y-2235200D02*
X+3937000Y-2298700D01*
X+4064000Y-2298700D01*
X+4064000Y-2235200D01*
X+4254500Y-2235200D02*
X+4254500Y-2362200D01*
X+4318000Y-2362200D01*
X+4318000Y-2235200D01*
X+5257800Y+38100D02*
X+5257800Y-279400D01*
X+6146800Y-279400D01*
X+6146800Y+38100D01*
X+5384800Y-279400D02*
X+5384800Y-406400D01*
X+5448300Y-406400D02*
X+5448300Y-279400D01*
X+5384800Y-406400D02*
X+5448300Y-406400D01*
X+5638800Y-279400D02*
X+5638800Y-342900D01*
X+5765800Y-342900D01*
X+5765800Y-279400D01*
X+5956300Y-279400D02*
X+5956300Y-406400D01*
X+6019800Y-406400D01*
X+6019800Y-279400D01*
X+5905500Y-1917700D02*
X+5905500Y-2235200D01*
X+6794500Y-2235200D01*
X+6794500Y-1917700D01*
X+6032500Y-2235200D02*
X+6032500Y-2362200D01*
X+6096000Y-2362200D02*
X+6096000Y-2235200D01*
X+6032500Y-2362200D02*
X+6096000Y-2362200D01*
X+6286500Y-2235200D02*
X+6286500Y-2298700D01*
X+6413500Y-2298700D01*
X+6413500Y-2235200D01*
X+6604000Y-2235200D02*
X+6604000Y-2362200D01*
X+6667500Y-2362200D01*
X+6667500Y-2235200D01*
X+7543800Y+38100D02*
X+7543800Y-279400D01*
X+8432800Y-279400D01*
X+8432800Y+38100D01*
X+7670800Y-279400D02*
X+7670800Y-406400D01*
X+7734300Y-406400D02*
X+7734300Y-279400D01*
X+7670800Y-406400D02*
X+7734300Y-406400D01*
X+7924800Y-279400D02*
X+7924800Y-342900D01*
X+8051800Y-342900D01*
X+8051800Y-279400D01*
X+8242300Y-279400D02*
X+8242300Y-406400D01*
X+8305800Y-406400D01*
X+8305800Y-279400D01*
X+8191500Y-1917700D02*
X+8191500Y-2235200D01*
X+9080500Y-2235200D01*
X+9080500Y-1917700D01*
X+8318500Y-2235200D02*
X+8318500Y-2362200D01*
X+8382000Y-2362200D02*
X+8382000Y-2235200D01*
X+8318500Y-2362200D02*
X+8382000Y-2362200D01*
X+8572500Y-2235200D02*
X+8572500Y-2298700D01*
X+8699500Y-2298700D01*
X+8699500Y-2235200D01*
X+8890000Y-2235200D02*
X+8890000Y-2362200D01*
X+8953500Y-2362200D01*
X+8953500Y-2235200D01*
D50*
X+3179500Y-4596300D02*
X+3079500Y-4596300D01*
X+3179500Y-4776300D02*
X+3079500Y-4776300D01*
X+2876300Y-5017600D02*
X+2976300Y-5017600D01*
X+2876300Y-4837600D02*
X+2976300Y-4837600D01*
D53*
X+222200Y-2689600D02*
X+220944Y-2657930D01*
X+210752Y-2594589D01*
X+189521Y-2531248D01*
X+155145Y-2467907D01*
X+102851Y-2404582D01*
X+39510Y-2353778D01*
X-23831Y-2320420D01*
X-87172Y-2300002D01*
X-150513Y-2290532D01*
X-177800Y-2289600D01*
X-577800Y-2689600D02*
X-576544Y-2657930D01*
X-566352Y-2594589D01*
X-545121Y-2531248D01*
X-510745Y-2467907D01*
X-458451Y-2404582D01*
X-395110Y-2353778D01*
X-331769Y-2320420D01*
X-268428Y-2300002D01*
X-205087Y-2290532D01*
X-177800Y-2289600D01*
X-577800Y-2689600D02*
X-576544Y-2721270D01*
X-566352Y-2784611D01*
X-545121Y-2847952D01*
X-510745Y-2911293D01*
X-458451Y-2974618D01*
X-395110Y-3025422D01*
X-331769Y-3058780D01*
X-268428Y-3079198D01*
X-205087Y-3088668D01*
X-177800Y-3089600D01*
X+222200Y-2689600D02*
X+220944Y-2721270D01*
X+210752Y-2784611D01*
X+189521Y-2847952D01*
X+155145Y-2911293D01*
X+102851Y-2974618D01*
X+39510Y-3025422D01*
X-23831Y-3058780D01*
X-87172Y-3079198D01*
X-150513Y-3088668D01*
X-177800Y-3089600D01*
D50*
X+137200Y-2384600D02*
X+137165Y-2383769D01*
X+136884Y-2382105D01*
X+136294Y-2380441D01*
X+135330Y-2378777D01*
X+133855Y-2377136D01*
X+132191Y-2375935D01*
X+130527Y-2375170D01*
X+128863Y-2374739D01*
X+127200Y-2374600D01*
X+117200Y-2384600D02*
X+117235Y-2383769D01*
X+117516Y-2382105D01*
X+118106Y-2380441D01*
X+119070Y-2378777D01*
X+120545Y-2377136D01*
X+122209Y-2375935D01*
X+123873Y-2375170D01*
X+125537Y-2374739D01*
X+127200Y-2374600D01*
X+117200Y-2384600D02*
X+117235Y-2385431D01*
X+117516Y-2387095D01*
X+118106Y-2388759D01*
X+119070Y-2390423D01*
X+120545Y-2392064D01*
X+122209Y-2393265D01*
X+123873Y-2394030D01*
X+125537Y-2394461D01*
X+127200Y-2394600D01*
X+137200Y-2384600D02*
X+137165Y-2385431D01*
X+136884Y-2387095D01*
X+136294Y-2388759D01*
X+135330Y-2390423D01*
X+133855Y-2392064D01*
X+132191Y-2393265D01*
X+130527Y-2394030D01*
X+128863Y-2394461D01*
X+127200Y-2394600D01*
D53*
X-196900Y-3438900D02*
X-198156Y-3407230D01*
X-208348Y-3343889D01*
X-229579Y-3280548D01*
X-263955Y-3217207D01*
X-316249Y-3153882D01*
X-379590Y-3103078D01*
X-442931Y-3069720D01*
X-506272Y-3049302D01*
X-569613Y-3039832D01*
X-596900Y-3038900D01*
X-996900Y-3438900D02*
X-995644Y-3407230D01*
X-985452Y-3343889D01*
X-964221Y-3280548D01*
X-929845Y-3217207D01*
X-877551Y-3153882D01*
X-814210Y-3103078D01*
X-750869Y-3069720D01*
X-687528Y-3049302D01*
X-624187Y-3039832D01*
X-596900Y-3038900D01*
X-996900Y-3438900D02*
X-995644Y-3470570D01*
X-985452Y-3533911D01*
X-964221Y-3597252D01*
X-929845Y-3660593D01*
X-877551Y-3723918D01*
X-814210Y-3774722D01*
X-750869Y-3808080D01*
X-687528Y-3828498D01*
X-624187Y-3837968D01*
X-596900Y-3838900D01*
X-196900Y-3438900D02*
X-198156Y-3470570D01*
X-208348Y-3533911D01*
X-229579Y-3597252D01*
X-263955Y-3660593D01*
X-316249Y-3723918D01*
X-379590Y-3774722D01*
X-442931Y-3808080D01*
X-506272Y-3828498D01*
X-569613Y-3837968D01*
X-596900Y-3838900D01*
D50*
X-891900Y-3743900D02*
X-891935Y-3743069D01*
X-892216Y-3741405D01*
X-892806Y-3739741D01*
X-893770Y-3738077D01*
X-895245Y-3736436D01*
X-896909Y-3735235D01*
X-898573Y-3734470D01*
X-900237Y-3734039D01*
X-901900Y-3733900D01*
X-911900Y-3743900D02*
X-911865Y-3743069D01*
X-911584Y-3741405D01*
X-910994Y-3739741D01*
X-910030Y-3738077D01*
X-908555Y-3736436D01*
X-906891Y-3735235D01*
X-905227Y-3734470D01*
X-903563Y-3734039D01*
X-901900Y-3733900D01*
X-911900Y-3743900D02*
X-911865Y-3744731D01*
X-911584Y-3746395D01*
X-910994Y-3748059D01*
X-910030Y-3749723D01*
X-908555Y-3751364D01*
X-906891Y-3752565D01*
X-905227Y-3753330D01*
X-903563Y-3753761D01*
X-901900Y-3753900D01*
X-891900Y-3743900D02*
X-891935Y-3744731D01*
X-892216Y-3746395D01*
X-892806Y-3748059D01*
X-893770Y-3749723D01*
X-895245Y-3751364D01*
X-896909Y-3752565D01*
X-898573Y-3753330D01*
X-900237Y-3753761D01*
X-901900Y-3753900D01*
D53*
X+631400Y-5257800D02*
X+630144Y-5226130D01*
X+619952Y-5162789D01*
X+598721Y-5099448D01*
X+564345Y-5036107D01*
X+512051Y-4972782D01*
X+448710Y-4921978D01*
X+385369Y-4888620D01*
X+322028Y-4868202D01*
X+258687Y-4858732D01*
X+231400Y-4857800D01*
X-168600Y-5257800D02*
X-167344Y-5226130D01*
X-157152Y-5162789D01*
X-135921Y-5099448D01*
X-101545Y-5036107D01*
X-49251Y-4972782D01*
X+14090Y-4921978D01*
X+77431Y-4888620D01*
X+140772Y-4868202D01*
X+204113Y-4858732D01*
X+231400Y-4857800D01*
X-168600Y-5257800D02*
X-167344Y-5289470D01*
X-157152Y-5352811D01*
X-135921Y-5416152D01*
X-101545Y-5479493D01*
X-49251Y-5542818D01*
X+14090Y-5593622D01*
X+77431Y-5626980D01*
X+140772Y-5647398D01*
X+204113Y-5656868D01*
X+231400Y-5657800D01*
X+631400Y-5257800D02*
X+630144Y-5289470D01*
X+619952Y-5352811D01*
X+598721Y-5416152D01*
X+564345Y-5479493D01*
X+512051Y-5542818D01*
X+448710Y-5593622D01*
X+385369Y-5626980D01*
X+322028Y-5647398D01*
X+258687Y-5656868D01*
X+231400Y-5657800D01*
D50*
X-63600Y-4952800D02*
X-63635Y-4951969D01*
X-63916Y-4950305D01*
X-64506Y-4948641D01*
X-65470Y-4946977D01*
X-66945Y-4945336D01*
X-68609Y-4944135D01*
X-70273Y-4943370D01*
X-71937Y-4942939D01*
X-73600Y-4942800D01*
X-83600Y-4952800D02*
X-83565Y-4951969D01*
X-83284Y-4950305D01*
X-82694Y-4948641D01*
X-81730Y-4946977D01*
X-80255Y-4945336D01*
X-78591Y-4944135D01*
X-76927Y-4943370D01*
X-75263Y-4942939D01*
X-73600Y-4942800D01*
X-83600Y-4952800D02*
X-83565Y-4953631D01*
X-83284Y-4955295D01*
X-82694Y-4956959D01*
X-81730Y-4958623D01*
X-80255Y-4960264D01*
X-78591Y-4961465D01*
X-76927Y-4962230D01*
X-75263Y-4962661D01*
X-73600Y-4962800D01*
X-63600Y-4952800D02*
X-63635Y-4953631D01*
X-63916Y-4955295D01*
X-64506Y-4956959D01*
X-65470Y-4958623D01*
X-66945Y-4960264D01*
X-68609Y-4961465D01*
X-70273Y-4962230D01*
X-71937Y-4962661D01*
X-73600Y-4962800D01*
D53*
X+666700Y-3419100D02*
X+665444Y-3387430D01*
X+655252Y-3324089D01*
X+634021Y-3260748D01*
X+599645Y-3197407D01*
X+547351Y-3134082D01*
X+484010Y-3083278D01*
X+420669Y-3049920D01*
X+357328Y-3029502D01*
X+293987Y-3020032D01*
X+266700Y-3019100D01*
X-133300Y-3419100D02*
X-132044Y-3387430D01*
X-121852Y-3324089D01*
X-100621Y-3260748D01*
X-66245Y-3197407D01*
X-13951Y-3134082D01*
X+49390Y-3083278D01*
X+112731Y-3049920D01*
X+176072Y-3029502D01*
X+239413Y-3020032D01*
X+266700Y-3019100D01*
X-133300Y-3419100D02*
X-132044Y-3450770D01*
X-121852Y-3514111D01*
X-100621Y-3577452D01*
X-66245Y-3640793D01*
X-13951Y-3704118D01*
X+49390Y-3754922D01*
X+112731Y-3788280D01*
X+176072Y-3808698D01*
X+239413Y-3818168D01*
X+266700Y-3819100D01*
X+666700Y-3419100D02*
X+665444Y-3450770D01*
X+655252Y-3514111D01*
X+634021Y-3577452D01*
X+599645Y-3640793D01*
X+547351Y-3704118D01*
X+484010Y-3754922D01*
X+420669Y-3788280D01*
X+357328Y-3808698D01*
X+293987Y-3818168D01*
X+266700Y-3819100D01*
D50*
X-28300Y-3724100D02*
X-28335Y-3723269D01*
X-28616Y-3721605D01*
X-29206Y-3719941D01*
X-30170Y-3718277D01*
X-31645Y-3716636D01*
X-33309Y-3715435D01*
X-34973Y-3714670D01*
X-36637Y-3714239D01*
X-38300Y-3714100D01*
X-48300Y-3724100D02*
X-48265Y-3723269D01*
X-47984Y-3721605D01*
X-47394Y-3719941D01*
X-46430Y-3718277D01*
X-44955Y-3716636D01*
X-43291Y-3715435D01*
X-41627Y-3714670D01*
X-39963Y-3714239D01*
X-38300Y-3714100D01*
X-48300Y-3724100D02*
X-48265Y-3724931D01*
X-47984Y-3726595D01*
X-47394Y-3728259D01*
X-46430Y-3729923D01*
X-44955Y-3731564D01*
X-43291Y-3732765D01*
X-41627Y-3733530D01*
X-39963Y-3733961D01*
X-38300Y-3734100D01*
X-28300Y-3724100D02*
X-28335Y-3724931D01*
X-28616Y-3726595D01*
X-29206Y-3728259D01*
X-30170Y-3729923D01*
X-31645Y-3731564D01*
X-33309Y-3732765D01*
X-34973Y-3733530D01*
X-36637Y-3733961D01*
X-38300Y-3734100D01*
X+480800Y-5906600D02*
X+590800Y-5906600D01*
X+480800Y-5726600D02*
X+590800Y-5726600D01*
D51*
X+4705500Y-2766160D02*
X+4565500Y-2766160D01*
X+4705500Y-2786160D02*
X+4565500Y-2786160D01*
X+4565500Y-2896160D02*
X+4705500Y-2896160D01*
X+4705500Y-2736160D01*
X+4565500Y-2736160D01*
X+4565500Y-2896160D01*
X+3130700Y-1077060D02*
X+2990700Y-1077060D01*
X+3130700Y-1097060D02*
X+2990700Y-1097060D01*
X+2990700Y-1207060D02*
X+3130700Y-1207060D01*
X+3130700Y-1047060D01*
X+2990700Y-1047060D01*
X+2990700Y-1207060D01*
X+5340500Y-1013560D02*
X+5200500Y-1013560D01*
X+5340500Y-1033560D02*
X+5200500Y-1033560D01*
X+5200500Y-1143560D02*
X+5340500Y-1143560D01*
X+5340500Y-983560D01*
X+5200500Y-983560D01*
X+5200500Y-1143560D01*
X+5569100Y-1781910D02*
X+5429100Y-1781910D01*
X+5569100Y-1801910D02*
X+5429100Y-1801910D01*
X+5429100Y-1911910D02*
X+5569100Y-1911910D01*
X+5569100Y-1751910D01*
X+5429100Y-1751910D01*
X+5429100Y-1911910D01*
X+7626500Y-988160D02*
X+7486500Y-988160D01*
X+7626500Y-1008160D02*
X+7486500Y-1008160D01*
X+7486500Y-1118160D02*
X+7626500Y-1118160D01*
X+7626500Y-958160D01*
X+7486500Y-958160D01*
X+7486500Y-1118160D01*
X+7855100Y-1807310D02*
X+7715100Y-1807310D01*
X+7855100Y-1827310D02*
X+7715100Y-1827310D01*
X+7715100Y-1937310D02*
X+7855100Y-1937310D01*
X+7855100Y-1777310D01*
X+7715100Y-1777310D01*
X+7715100Y-1937310D01*
D50*
X+8784864Y-4872985D02*
X+8714154Y-4802275D01*
X+8657585Y-5000264D02*
X+8586875Y-4929554D01*
X+8480064Y-4936485D02*
X+8409354Y-4865775D01*
X+8352785Y-5063764D02*
X+8282075Y-4993054D01*
X+4647100Y-5251200D02*
X+4647100Y-5351200D01*
X+4827100Y-5251200D02*
X+4827100Y-5351200D01*
X+4913800Y-5251200D02*
X+4913800Y-5351200D01*
X+5093800Y-5251200D02*
X+5093800Y-5351200D01*
X+5657600Y-4928700D02*
X+5757600Y-4928700D01*
X+5657600Y-4748700D02*
X+5757600Y-4748700D01*
X+5411300Y-4906700D02*
X+5411300Y-4806700D01*
X+5231300Y-4906700D02*
X+5231300Y-4806700D01*
D41*
X-732858Y+1666307D02*
X-732858Y+1348807D01*
X+156142Y+1348807D01*
X+156142Y+1666307D01*
X-605858Y+1348807D02*
X-605858Y+1221807D01*
X-542358Y+1221807D02*
X-542358Y+1348807D01*
X-605858Y+1221807D02*
X-542358Y+1221807D01*
X-351858Y+1348807D02*
X-351858Y+1285307D01*
X-224858Y+1285307D01*
X-224858Y+1348807D01*
X-34358Y+1348807D02*
X-34358Y+1221807D01*
X+29142Y+1221807D01*
X+29142Y+1348807D01*
X+3543300Y-5654040D02*
X+3632200Y-5654040D01*
X+3649980Y-5542280D02*
X+3721100Y-5542280D01*
X+3543300Y-5654040D02*
X+3543300Y-5562600D01*
X+3832860Y-5560060D02*
X+3832860Y-5654040D01*
X+3746500Y-5654040D01*
D50*
X-347400Y+506900D02*
X-247400Y+506900D01*
X-347400Y+686900D02*
X-247400Y+686900D01*
X+4211900Y-5258900D02*
X+4311900Y-5258900D01*
X+4211900Y-5078900D02*
X+4311900Y-5078900D01*
X-979000Y+1009900D02*
X-979000Y+909900D01*
X-799000Y+1009900D02*
X-799000Y+909900D01*
X-979000Y+1500400D02*
X-979000Y+1390400D01*
X-799000Y+1500400D02*
X-799000Y+1390400D01*
D41*
X-78740Y-4058920D02*
X+147320Y-4058920D01*
X-78740Y-4406900D02*
X+142240Y-4406900D01*
X+86360Y-4406900D02*
X+86360Y-4058920D01*
X-157480Y-4018280D02*
X-157480Y-3926840D01*
X-93980Y-3926840D01*
X-62230Y-3957320D01*
X-62230Y-3987800D01*
X-93980Y-4018280D01*
X-157480Y-4018280D01*
X+1270Y-3957320D02*
X+33020Y-3926840D01*
X+33020Y-4018280D01*
X+112395Y-3926840D02*
X+191770Y-3926840D01*
X+191770Y-3942080D01*
X+112395Y-4018280D01*
X+3256280Y-6156960D02*
X+3103880Y-6156960D01*
X+3253740Y-6009640D02*
X+3103880Y-6009640D01*
D51*
X-175360Y+323700D02*
X-175360Y+463700D01*
X-195360Y+323700D02*
X-195360Y+463700D01*
X-305360Y+323700D02*
X-145360Y+323700D01*
X-145360Y+463700D01*
X-305360Y+463700D01*
X-305360Y+323700D01*
D50*
X+4211900Y-5487500D02*
X+4311900Y-5487500D01*
X+4211900Y-5307500D02*
X+4311900Y-5307500D01*
D51*
X+2872640Y-1441600D02*
X+2872640Y-1301600D01*
X+2852640Y-1441600D02*
X+2852640Y-1301600D01*
X+2742640Y-1441600D02*
X+2902640Y-1441600D01*
X+2902640Y-1301600D01*
X+2742640Y-1301600D01*
X+2742640Y-1441600D01*
X+2778860Y-1466700D02*
X+2778860Y-1606700D01*
X+2798860Y-1466700D02*
X+2798860Y-1606700D01*
X+2748860Y-1606700D02*
X+2908860Y-1606700D01*
X+2908860Y-1466700D01*
X+2748860Y-1466700D01*
X+2748860Y-1606700D01*
X+5095140Y-1569338D02*
X+5095140Y-1429338D01*
X+5075140Y-1569338D02*
X+5075140Y-1429338D01*
X+4965140Y-1569338D02*
X+5125140Y-1569338D01*
X+5125140Y-1429338D01*
X+4965140Y-1429338D01*
X+4965140Y-1569338D01*
X+4995010Y-1264238D02*
X+4995010Y-1404238D01*
X+5015010Y-1264238D02*
X+5015010Y-1404238D01*
X+4965010Y-1404238D02*
X+5125010Y-1404238D01*
X+5125010Y-1264238D01*
X+4965010Y-1264238D01*
X+4965010Y-1404238D01*
X+7387490Y-1378100D02*
X+7387490Y-1238100D01*
X+7367490Y-1378100D02*
X+7367490Y-1238100D01*
X+7257490Y-1378100D02*
X+7417490Y-1378100D01*
X+7417490Y-1238100D01*
X+7257490Y-1238100D01*
X+7257490Y-1378100D01*
X+7287360Y-1415900D02*
X+7287360Y-1555900D01*
X+7307360Y-1415900D02*
X+7307360Y-1555900D01*
X+7257360Y-1555900D02*
X+7417360Y-1555900D01*
X+7417360Y-1415900D01*
X+7257360Y-1415900D01*
X+7257360Y-1555900D01*
M02*
