M48
METRIC,TZ
T01C0.3810
T02C2.0320
T03C3.0000
T04C1.0000
T05C1.5240
T06C4.0000
T07C1.1430
%
T01
X+40132Y+10523
X+39116Y+12283
X+41148Y+12283
X+38100Y+14043
X+40132Y+14043
X+39116Y+15802
X+38100Y+17562
X+39370Y+19050
X+85979Y+12283
X+88011Y+12283
X+85979Y+15802
X+87249Y+18669
X+63640Y+10523
X+62624Y+12283
X+64656Y+12283
X+61608Y+14043
X+63640Y+14043
X+62624Y+15802
X+61608Y+17562
X+62865Y+19050
X+77470Y-34290
X+64286Y-33635
X+83058Y+12575
X+90678Y+12575
X+85090Y+19431
X+85598Y+21374
X+88138Y+21374
X+75191Y-45199
X+78740Y-45085
X+53840Y-45356
X+42832Y-42830
X+48260Y-32678
X+75438Y-8128
X+81278Y-29939
X+81182Y-28537
X+88265Y+16383
X+91059Y+14605
X+88026Y-61775
X+80645Y-45085
X+80010Y-48260
X+62865Y-45847
X+66040Y-45847
X+61532Y-48269
X+67787Y-45716
X+39448Y-35326
X+68831Y-32301
X+68326Y-9017
X+38506Y+25603
X+41046Y+25603
X+43586Y+25603
X+46126Y+25603
X+48666Y+25603
X+51206Y+25603
X+53746Y+25603
X+56286Y+25603
X+58826Y+25603
X+61366Y+25603
X+63906Y+25603
X+66446Y+25603
X+68986Y+25603
X+71526Y+25603
X+74066Y+25603
X+76606Y+25603
X+79146Y+25603
X+81686Y+25603
X+84226Y+25603
X+86766Y+25603
X+89306Y+25603
X+95453Y+18218
X+95453Y+15678
X+95453Y+13138
X+95453Y-27502
X+95453Y-30042
X+95453Y-32582
X+95453Y-35122
X+95453Y-37662
X+95453Y-40202
X+95453Y-42742
X+95453Y-45282
X+95453Y-47822
X+95453Y-50362
X+95453Y-52902
X+95453Y-55442
X+54305Y-59903
X+93675Y-44505
X+93675Y-40106
X+92405Y-37906
X+93675Y-35706
X+92405Y-33507
X+93675Y-31307
X+47955Y+12687
X+50495Y+12687
X+53035Y+12687
X+55575Y+12687
X+58115Y+12687
X+73355Y+12687
X+75895Y+12687
X+49225Y+14887
X+51765Y+14887
X+54305Y+14887
X+56845Y+14887
X+72085Y+14887
X+74625Y+14887
X+77165Y+14887
X+47955Y+17086
X+50495Y+17086
X+53035Y+17086
X+55575Y+17086
X+58115Y+17086
X+73355Y+17086
X+75895Y+17086
X+49225Y+19286
X+51765Y+19286
X+54305Y+19286
X+56845Y+19286
X+72085Y+19286
X+74625Y+19286
X+77165Y+19286
X+47955Y+21486
X+50495Y+21486
X+53035Y+21486
X+55575Y+21486
X+58115Y+21486
X+73355Y+21486
X+75895Y+21486
X+49225Y+23686
X+51765Y+23686
X+54305Y+23686
X+56845Y+23686
X+72085Y+23686
X+74625Y+23686
X+77165Y+23686
X+26025Y-56210
X+72263Y+10160
X+72136Y+1270
X+49403Y+10160
X+48895Y+1270
X+93218Y-635
X+94996Y+10160
X+88314Y-54272
X+35763Y-26431
X+48189Y-29253
X+90170Y+18370
X+81280Y+20570
X+83820Y+20570
X+39243Y+21053
X+41529Y+21053
X+43815Y+21053
X+62739Y+21398
X+65025Y+21398
X+67311Y+21398
X+35001Y-46265
X+71577Y+17086
X+77673Y+17086
X+47193Y+24125
X+10211Y+18417
X+12243Y+18417
X+14275Y+18417
X+16307Y+18417
X+18339Y+18417
X+5131Y+20177
X+7163Y+20177
X+9195Y+20177
X+11227Y+20177
X+13259Y+20177
X+15291Y+20177
X+17323Y+20177
X+4115Y+25456
X+6147Y+25456
X+8179Y+25456
X+10211Y+25456
X+12243Y+25456
X+14275Y+25456
X+16307Y+25456
X+18339Y+25456
X+8861Y-2667
X+10893Y-2667
X+12925Y-2667
X+23085Y-2667
X+25117Y-2667
X+27149Y-2667
X+29181Y-2667
X+24101Y-907
X+26133Y-907
X+28165Y-907
X+30197Y-907
X+8861Y+853
X+10893Y+853
X+12925Y+853
X+14957Y+853
X+23085Y+853
X+25117Y+853
X+27149Y+853
X+11909Y+2613
X+13941Y+2613
X+15973Y+2613
X+18005Y+2613
X+20037Y+2613
X+26133Y+2613
X+12925Y+4372
X+14957Y+4372
X+16989Y+4372
X+19021Y+4372
X+21053Y+4372
X+41373Y+4372
X+43405Y+4372
X+45437Y+4372
X+47469Y+4372
X+63725Y+4372
X+65757Y+4372
X+67789Y+4372
X+69821Y+4372
X+88109Y+4372
X+90141Y+4372
X+11909Y+6132
X+13941Y+6132
X+15973Y+6132
X+18005Y+6132
X+87093Y+6132
X+89125Y+6132
X+10893Y+7892
X+12925Y+7892
X+14957Y+7892
X+16989Y+7892
X+9877Y+9652
X+11909Y+9652
X+13941Y+9652
X+15973Y+9652
X+18005Y+9652
X+78283Y+13175
X+71171Y+21973
X+34595Y+25493
X+36627Y+25493
X+34721Y-54973
X+4115Y+18417
X+6147Y+18417
X+8179Y+18417
X-7010Y-3959
X-4978Y-3959
X-9042Y+3080
X-1930Y+11879
X-965Y-62017
X+12243Y-56737
X+7163Y-54978
X+13259Y-54978
X+34595Y+20692
X+78283Y+22452
X-51Y-5488
X+48895Y+3531
X+40564Y+7138
X+42647Y+7138
X+44729Y+7138
X+46812Y+7138
X+48895Y+7138
X+63475Y+7138
X+65557Y+7138
X+67640Y+7138
X+69723Y+7138
X+71806Y+7138
X+90551Y+7138
X+6198Y+8942
X+8280Y+8942
X-4928Y+16547
X-2845Y+16547
X-762Y+16547
X+91923Y-54787
X+14859Y-43965
X+34646Y+22774
X+12776Y-53066
X+11735Y-44048
X+58598Y+15476
X+58598Y+19084
X-7062Y+4064
X-4979Y+4064
X-2794Y+8786
X-2794Y+10869
X-2794Y+12951
X+39135Y-8572
X+41167Y-8572
X+34055Y-6813
X+38119Y-6813
X+40151Y-6813
X+39135Y-5053
X+41167Y-5053
X+34055Y-3293
X+36087Y-3293
X+38119Y-3293
X+40151Y-3293
X+35071Y-1533
X+37103Y-1533
X+39135Y-1533
X+41167Y-1533
X+56973Y-16311
X+55957Y-14551
X+56973Y-12791
X+62053Y-7512
X+64085Y-7512
X+63069Y-5752
X+65101Y-5752
X+57989Y-3993
X+60021Y-3993
X+62053Y-3993
X+64085Y-3993
X+68149Y-3993
X+52909Y-2233
X+54941Y-2233
X+56973Y-2233
X+59005Y-2233
X+61037Y-2233
X+63069Y-2233
X+65101Y-2233
X+78816Y-15336
X+79832Y-13576
X+84912Y-8297
X+86944Y-8297
X+91008Y-8297
X+85928Y-6537
X+87960Y-6537
X+84912Y-4777
X+86944Y-4777
X+91008Y-4777
X+75768Y-3017
X+77800Y-3017
X+79832Y-3017
X+81864Y-3017
X+83896Y-3017
X+85928Y-3017
X+87960Y-3017
X+91008Y-1258
X+48958Y-49466
X+31458Y-53331
X+33020Y-52070
X+49022Y-47371
X+15379Y-3099
X+22999Y+5700
X+19189Y+7899
X+26809Y+12299
X+29349Y+12299
X+31889Y+12299
X+34429Y+12299
X+66040Y-29210
X+52494Y-8042
X+66962Y-30358
X+54737Y-16129
X+77851Y-16256
X+36887Y-58300
X+21643Y-5069
X+42052Y-39709
X+31883Y-20353
X+33564Y-20078
X+58420Y-31623
X+54314Y-29718
X+40132Y-26035
X+29105Y-6758
X+30498Y-18893
X+63186Y-26385
X+5410Y-28329
X+7950Y-28329
X+10490Y-28329
X+15570Y-28329
X+18110Y-28329
X+20650Y-28329
X+4140Y-26129
X+6680Y-26129
X+9220Y-26129
X+80340Y-26129
X+5410Y-23930
X+7950Y-23930
X+10490Y-23930
X+13030Y-23930
X+18110Y-23930
X+20650Y-23930
X+23190Y-23930
X+40970Y-23930
X+63830Y-23930
X+79070Y-23930
X+86690Y-23930
X+4140Y-21730
X+6680Y-21730
X+9220Y-21730
X+11760Y-21730
X+16840Y-21730
X+19380Y-21730
X+21920Y-21730
X+62560Y-21730
X+65100Y-21730
X+80340Y-21730
X+82880Y-21730
X+85420Y-21730
X+330Y-19530
X+2870Y-19530
X+5410Y-19530
X+7950Y-19530
X+10490Y-19530
X+13030Y-19530
X+18110Y-19530
X+20650Y-19530
X-940Y-17330
X+1600Y-17330
X+4140Y-17330
X+6680Y-17330
X+9220Y-17330
X+11760Y-17330
X+16840Y-17330
X+19380Y-17330
X-7290Y-15131
X-2210Y-15131
X+330Y-15131
X+5410Y-15131
X+7950Y-15131
X+10490Y-15131
X+13030Y-15131
X+18110Y-15131
X+20650Y-15131
X-6020Y-12931
X+19380Y-12931
X-7290Y-10731
X-4750Y-10731
X+330Y-10731
X+7950Y-10731
X+10490Y-10731
X+13030Y-10731
X+15570Y-10731
X-6020Y-8532
X-6721Y-54781
X+36881Y-58293
T02
X+43180Y+17145
X+66675Y+17145
X+82550Y+16510
T03
X-4953Y-18288
X-5805Y-127
X+21698Y+22592
X+7004Y+5080
T04
X+92456Y-51815
X+92456Y-49815
X+92456Y-47815
X+83565Y-59055
X+81565Y-59055
X+79565Y-59055
X+77565Y-59055
X+75565Y-59055
X+73565Y-59055
X+41245Y-59055
X+43245Y-59055
X+45245Y-59055
X+47245Y-59055
X+49245Y-59055
X+51245Y-59055
X+56865Y-59055
X+58865Y-59055
X+60865Y-59055
X+62865Y-59055
X+64865Y-59055
X+66865Y-59055
X+57120Y-52705
X+59120Y-52705
X+61120Y-52705
X+63120Y-52705
X+65120Y-52705
X+67120Y-52705
X+17230Y-60864
X+15230Y-60864
X+13230Y-60864
T05
X+19558Y-762
X+19558Y-8262
X+3429Y-4826
X+3429Y-12326
T06
X+92837Y+22987
X+29845Y+22987
X+92710Y-59690
X-6350Y-59690
T07
X+12065Y-38735
X+12065Y-33735
X-1778Y-25146
X-1778Y-28646
X-5969Y-36139
X-5969Y-32639
X+564Y-52578
X+4064Y-52578
X+2667Y-35941
X+2667Y-32441
M30
