G04 PROTEUS RS274X GERBER FILE*
%FSLAX45Y45*%
%MOMM*%
G01*
%ADD28C,0.203200*%
%ADD72C,0.508000*%
%ADD73C,0.152400*%
%ADD30C,0.200000*%
%ADD31C,0.250000*%
%ADD32C,0.600000*%
%ADD33C,0.050800*%
D28*
X-1079500Y-6413500D02*
X+9715500Y-6413500D01*
X+9715500Y-1016000D01*
X-1079500Y-1016000D01*
X-1079500Y-6413500D01*
D72*
X+9093200Y-5181500D02*
X+9093069Y-5178342D01*
X+9092003Y-5172024D01*
X+9089772Y-5165706D01*
X+9086127Y-5159388D01*
X+9080552Y-5153149D01*
X+9074234Y-5148553D01*
X+9067916Y-5145620D01*
X+9061598Y-5143958D01*
X+9055280Y-5143400D01*
X+9055100Y-5143400D01*
X+9017000Y-5181500D02*
X+9017131Y-5178342D01*
X+9018197Y-5172024D01*
X+9020428Y-5165706D01*
X+9024073Y-5159388D01*
X+9029648Y-5153149D01*
X+9035966Y-5148553D01*
X+9042284Y-5145620D01*
X+9048602Y-5143958D01*
X+9054920Y-5143400D01*
X+9055100Y-5143400D01*
X+9017000Y-5181500D02*
X+9017131Y-5184658D01*
X+9018197Y-5190976D01*
X+9020428Y-5197294D01*
X+9024073Y-5203612D01*
X+9029648Y-5209851D01*
X+9035966Y-5214447D01*
X+9042284Y-5217380D01*
X+9048602Y-5219042D01*
X+9054920Y-5219600D01*
X+9055100Y-5219600D01*
X+9093200Y-5181500D02*
X+9093069Y-5184658D01*
X+9092003Y-5190976D01*
X+9089772Y-5197294D01*
X+9086127Y-5203612D01*
X+9080552Y-5209851D01*
X+9074234Y-5214447D01*
X+9067916Y-5217380D01*
X+9061598Y-5219042D01*
X+9055280Y-5219600D01*
X+9055100Y-5219600D01*
D73*
X+9126220Y-4711650D02*
X+9126220Y-5251350D01*
X+9169735Y-5251350D01*
X+9364980Y-5251350D02*
X+9364980Y-4711650D01*
X+9321465Y-4711650D01*
X+9169735Y-4711650D02*
X+9126220Y-4711650D01*
X+9321465Y-5251350D02*
X+9364980Y-5251350D01*
D28*
X+8856170Y-5305017D02*
X+8764730Y-5305017D01*
X+8764730Y-5225642D01*
X+8779970Y-5209767D01*
X+8795210Y-5209767D01*
X+8810450Y-5225642D01*
X+8810450Y-5305017D01*
X+8795210Y-5178017D02*
X+8764730Y-5146267D01*
X+8764730Y-5114517D01*
X+8795210Y-5082767D01*
X+8825690Y-5082767D01*
X+8856170Y-5114517D01*
X+8856170Y-5146267D01*
X+8825690Y-5178017D01*
X+8795210Y-5178017D01*
X+8764730Y-5051017D02*
X+8764730Y-4955767D01*
X+8764730Y-5003392D02*
X+8856170Y-5003392D01*
X+8871410Y-4924017D02*
X+8871410Y-4828767D01*
X+8764730Y-4781142D02*
X+8764730Y-4717642D01*
X+8764730Y-4749392D02*
X+8856170Y-4749392D01*
X+8856170Y-4781142D02*
X+8856170Y-4717642D01*
X+8856170Y-4670017D02*
X+8764730Y-4670017D01*
X+8856170Y-4574767D01*
X+8764730Y-4574767D01*
D72*
X+8394600Y-5715000D02*
X+8394469Y-5711842D01*
X+8393403Y-5705524D01*
X+8391172Y-5699206D01*
X+8387527Y-5692888D01*
X+8381952Y-5686649D01*
X+8375634Y-5682053D01*
X+8369316Y-5679120D01*
X+8362998Y-5677458D01*
X+8356680Y-5676900D01*
X+8356500Y-5676900D01*
X+8318400Y-5715000D02*
X+8318531Y-5711842D01*
X+8319597Y-5705524D01*
X+8321828Y-5699206D01*
X+8325473Y-5692888D01*
X+8331048Y-5686649D01*
X+8337366Y-5682053D01*
X+8343684Y-5679120D01*
X+8350002Y-5677458D01*
X+8356320Y-5676900D01*
X+8356500Y-5676900D01*
X+8318400Y-5715000D02*
X+8318531Y-5718158D01*
X+8319597Y-5724476D01*
X+8321828Y-5730794D01*
X+8325473Y-5737112D01*
X+8331048Y-5743351D01*
X+8337366Y-5747947D01*
X+8343684Y-5750880D01*
X+8350002Y-5752542D01*
X+8356320Y-5753100D01*
X+8356500Y-5753100D01*
X+8394600Y-5715000D02*
X+8394469Y-5718158D01*
X+8393403Y-5724476D01*
X+8391172Y-5730794D01*
X+8387527Y-5737112D01*
X+8381952Y-5743351D01*
X+8375634Y-5747947D01*
X+8369316Y-5750880D01*
X+8362998Y-5752542D01*
X+8356680Y-5753100D01*
X+8356500Y-5753100D01*
D73*
X+8505470Y-5804840D02*
X+8378907Y-5804840D01*
X+7207530Y-5804840D02*
X+7207530Y-6005500D01*
X+7331309Y-6005500D01*
X+8505470Y-6005500D02*
X+8505470Y-5804840D01*
X+7334093Y-5804840D02*
X+7207530Y-5804840D01*
X+7381691Y-6005500D02*
X+7531309Y-6005500D01*
X+7534093Y-5804840D02*
X+7378907Y-5804840D01*
X+7581691Y-6005500D02*
X+7731309Y-6005500D01*
X+7734093Y-5804840D02*
X+7578907Y-5804840D01*
X+7781691Y-6005500D02*
X+7931309Y-6005500D01*
X+7934093Y-5804840D02*
X+7778907Y-5804840D01*
X+7981691Y-6005500D02*
X+8131309Y-6005500D01*
X+8134093Y-5804840D02*
X+7978907Y-5804840D01*
X+8181691Y-6005500D02*
X+8331309Y-6005500D01*
X+8381691Y-6005500D02*
X+8505470Y-6005500D01*
X+8334093Y-5804840D02*
X+8178907Y-5804840D01*
D28*
X+7363334Y-5538140D02*
X+7363334Y-5446700D01*
X+7410959Y-5492420D01*
X+7458584Y-5446700D01*
X+7458584Y-5538140D01*
X+7490334Y-5477180D02*
X+7522084Y-5446700D01*
X+7553834Y-5446700D01*
X+7585584Y-5477180D01*
X+7585584Y-5507660D01*
X+7553834Y-5538140D01*
X+7522084Y-5538140D01*
X+7490334Y-5507660D01*
X+7490334Y-5477180D01*
X+7617334Y-5538140D02*
X+7617334Y-5446700D01*
X+7696709Y-5446700D01*
X+7712584Y-5461940D01*
X+7712584Y-5477180D01*
X+7696709Y-5492420D01*
X+7617334Y-5492420D01*
X+7744334Y-5522900D02*
X+7760209Y-5538140D01*
X+7823709Y-5538140D01*
X+7839584Y-5522900D01*
X+7839584Y-5507660D01*
X+7823709Y-5492420D01*
X+7760209Y-5492420D01*
X+7744334Y-5477180D01*
X+7744334Y-5461940D01*
X+7760209Y-5446700D01*
X+7823709Y-5446700D01*
X+7839584Y-5461940D01*
X+7871334Y-5553380D02*
X+7966584Y-5553380D01*
X+8014209Y-5446700D02*
X+8077709Y-5446700D01*
X+8045959Y-5446700D02*
X+8045959Y-5538140D01*
X+8014209Y-5538140D02*
X+8077709Y-5538140D01*
X+8125334Y-5538140D02*
X+8125334Y-5446700D01*
X+8220584Y-5538140D01*
X+8220584Y-5446700D01*
D72*
X+4162600Y-6096000D02*
X+4162469Y-6092842D01*
X+4161403Y-6086524D01*
X+4159172Y-6080206D01*
X+4155527Y-6073888D01*
X+4149952Y-6067649D01*
X+4143634Y-6063053D01*
X+4137316Y-6060120D01*
X+4130998Y-6058458D01*
X+4124680Y-6057900D01*
X+4124500Y-6057900D01*
X+4086400Y-6096000D02*
X+4086531Y-6092842D01*
X+4087597Y-6086524D01*
X+4089828Y-6080206D01*
X+4093473Y-6073888D01*
X+4099048Y-6067649D01*
X+4105366Y-6063053D01*
X+4111684Y-6060120D01*
X+4118002Y-6058458D01*
X+4124320Y-6057900D01*
X+4124500Y-6057900D01*
X+4086400Y-6096000D02*
X+4086531Y-6099158D01*
X+4087597Y-6105476D01*
X+4089828Y-6111794D01*
X+4093473Y-6118112D01*
X+4099048Y-6124351D01*
X+4105366Y-6128947D01*
X+4111684Y-6131880D01*
X+4118002Y-6133542D01*
X+4124320Y-6134100D01*
X+4124500Y-6134100D01*
X+4162600Y-6096000D02*
X+4162469Y-6099158D01*
X+4161403Y-6105476D01*
X+4159172Y-6111794D01*
X+4155527Y-6118112D01*
X+4149952Y-6124351D01*
X+4143634Y-6128947D01*
X+4137316Y-6131880D01*
X+4130998Y-6133542D01*
X+4124680Y-6134100D01*
X+4124500Y-6134100D01*
D73*
X+3975530Y-6006160D02*
X+4102093Y-6006160D01*
X+5273470Y-6006160D02*
X+5273470Y-5805500D01*
X+5149691Y-5805500D01*
X+3975530Y-5805500D02*
X+3975530Y-6006160D01*
X+5146907Y-6006160D02*
X+5273470Y-6006160D01*
X+5099309Y-5805500D02*
X+4949691Y-5805500D01*
X+4946907Y-6006160D02*
X+5102093Y-6006160D01*
X+4899309Y-5805500D02*
X+4749691Y-5805500D01*
X+4746907Y-6006160D02*
X+4902093Y-6006160D01*
X+4699309Y-5805500D02*
X+4549691Y-5805500D01*
X+4546907Y-6006160D02*
X+4702093Y-6006160D01*
X+4499309Y-5805500D02*
X+4349691Y-5805500D01*
X+4346907Y-6006160D02*
X+4502093Y-6006160D01*
X+4299309Y-5805500D02*
X+4149691Y-5805500D01*
X+4099309Y-5805500D02*
X+3975530Y-5805500D01*
X+4146907Y-6006160D02*
X+4302093Y-6006160D01*
D28*
X+3360850Y-5949463D02*
X+3344975Y-5964703D01*
X+3297350Y-5964703D01*
X+3265600Y-5934223D01*
X+3265600Y-5903743D01*
X+3297350Y-5873263D01*
X+3344975Y-5873263D01*
X+3360850Y-5888503D01*
X+3392600Y-5903743D02*
X+3424350Y-5873263D01*
X+3456100Y-5873263D01*
X+3487850Y-5903743D01*
X+3487850Y-5934223D01*
X+3456100Y-5964703D01*
X+3424350Y-5964703D01*
X+3392600Y-5934223D01*
X+3392600Y-5903743D01*
X+3519600Y-5964703D02*
X+3519600Y-5873263D01*
X+3614850Y-5964703D01*
X+3614850Y-5873263D01*
X+3678350Y-5903743D02*
X+3710100Y-5873263D01*
X+3710100Y-5964703D01*
D72*
X+5724600Y-6096000D02*
X+5724469Y-6092842D01*
X+5723403Y-6086524D01*
X+5721172Y-6080206D01*
X+5717527Y-6073888D01*
X+5711952Y-6067649D01*
X+5705634Y-6063053D01*
X+5699316Y-6060120D01*
X+5692998Y-6058458D01*
X+5686680Y-6057900D01*
X+5686500Y-6057900D01*
X+5648400Y-6096000D02*
X+5648531Y-6092842D01*
X+5649597Y-6086524D01*
X+5651828Y-6080206D01*
X+5655473Y-6073888D01*
X+5661048Y-6067649D01*
X+5667366Y-6063053D01*
X+5673684Y-6060120D01*
X+5680002Y-6058458D01*
X+5686320Y-6057900D01*
X+5686500Y-6057900D01*
X+5648400Y-6096000D02*
X+5648531Y-6099158D01*
X+5649597Y-6105476D01*
X+5651828Y-6111794D01*
X+5655473Y-6118112D01*
X+5661048Y-6124351D01*
X+5667366Y-6128947D01*
X+5673684Y-6131880D01*
X+5680002Y-6133542D01*
X+5686320Y-6134100D01*
X+5686500Y-6134100D01*
X+5724600Y-6096000D02*
X+5724469Y-6099158D01*
X+5723403Y-6105476D01*
X+5721172Y-6111794D01*
X+5717527Y-6118112D01*
X+5711952Y-6124351D01*
X+5705634Y-6128947D01*
X+5699316Y-6131880D01*
X+5692998Y-6133542D01*
X+5686680Y-6134100D01*
X+5686500Y-6134100D01*
D73*
X+5537530Y-6006160D02*
X+5664093Y-6006160D01*
X+6835470Y-6006160D02*
X+6835470Y-5805500D01*
X+6711691Y-5805500D01*
X+5537530Y-5805500D02*
X+5537530Y-6006160D01*
X+6708907Y-6006160D02*
X+6835470Y-6006160D01*
X+6661309Y-5805500D02*
X+6511691Y-5805500D01*
X+6508907Y-6006160D02*
X+6664093Y-6006160D01*
X+6461309Y-5805500D02*
X+6311691Y-5805500D01*
X+6308907Y-6006160D02*
X+6464093Y-6006160D01*
X+6261309Y-5805500D02*
X+6111691Y-5805500D01*
X+6108907Y-6006160D02*
X+6264093Y-6006160D01*
X+6061309Y-5805500D02*
X+5911691Y-5805500D01*
X+5908907Y-6006160D02*
X+6064093Y-6006160D01*
X+5861309Y-5805500D02*
X+5711691Y-5805500D01*
X+5661309Y-5805500D02*
X+5537530Y-5805500D01*
X+5708907Y-6006160D02*
X+5864093Y-6006160D01*
D28*
X+6421450Y-6285560D02*
X+6405575Y-6300800D01*
X+6357950Y-6300800D01*
X+6326200Y-6270320D01*
X+6326200Y-6239840D01*
X+6357950Y-6209360D01*
X+6405575Y-6209360D01*
X+6421450Y-6224600D01*
X+6453200Y-6239840D02*
X+6484950Y-6209360D01*
X+6516700Y-6209360D01*
X+6548450Y-6239840D01*
X+6548450Y-6270320D01*
X+6516700Y-6300800D01*
X+6484950Y-6300800D01*
X+6453200Y-6270320D01*
X+6453200Y-6239840D01*
X+6580200Y-6300800D02*
X+6580200Y-6209360D01*
X+6675450Y-6300800D01*
X+6675450Y-6209360D01*
X+6723075Y-6224600D02*
X+6738950Y-6209360D01*
X+6786575Y-6209360D01*
X+6802450Y-6224600D01*
X+6802450Y-6239840D01*
X+6786575Y-6255080D01*
X+6738950Y-6255080D01*
X+6723075Y-6270320D01*
X+6723075Y-6300800D01*
X+6802450Y-6300800D01*
D72*
X+5750100Y-5461000D02*
X+5749969Y-5457842D01*
X+5748903Y-5451524D01*
X+5746672Y-5445206D01*
X+5743027Y-5438888D01*
X+5737452Y-5432649D01*
X+5731134Y-5428053D01*
X+5724816Y-5425120D01*
X+5718498Y-5423458D01*
X+5712180Y-5422900D01*
X+5712000Y-5422900D01*
X+5673900Y-5461000D02*
X+5674031Y-5457842D01*
X+5675097Y-5451524D01*
X+5677328Y-5445206D01*
X+5680973Y-5438888D01*
X+5686548Y-5432649D01*
X+5692866Y-5428053D01*
X+5699184Y-5425120D01*
X+5705502Y-5423458D01*
X+5711820Y-5422900D01*
X+5712000Y-5422900D01*
X+5673900Y-5461000D02*
X+5674031Y-5464158D01*
X+5675097Y-5470476D01*
X+5677328Y-5476794D01*
X+5680973Y-5483112D01*
X+5686548Y-5489351D01*
X+5692866Y-5493947D01*
X+5699184Y-5496880D01*
X+5705502Y-5498542D01*
X+5711820Y-5499100D01*
X+5712000Y-5499100D01*
X+5750100Y-5461000D02*
X+5749969Y-5464158D01*
X+5748903Y-5470476D01*
X+5746672Y-5476794D01*
X+5743027Y-5483112D01*
X+5737452Y-5489351D01*
X+5731134Y-5493947D01*
X+5724816Y-5496880D01*
X+5718498Y-5498542D01*
X+5712180Y-5499100D01*
X+5712000Y-5499100D01*
D73*
X+5563030Y-5371160D02*
X+5689593Y-5371160D01*
X+6860970Y-5371160D02*
X+6860970Y-5170500D01*
X+6737191Y-5170500D01*
X+5563030Y-5170500D02*
X+5563030Y-5371160D01*
X+6734407Y-5371160D02*
X+6860970Y-5371160D01*
X+6686809Y-5170500D02*
X+6537191Y-5170500D01*
X+6534407Y-5371160D02*
X+6689593Y-5371160D01*
X+6486809Y-5170500D02*
X+6337191Y-5170500D01*
X+6334407Y-5371160D02*
X+6489593Y-5371160D01*
X+6286809Y-5170500D02*
X+6137191Y-5170500D01*
X+6134407Y-5371160D02*
X+6289593Y-5371160D01*
X+6086809Y-5170500D02*
X+5937191Y-5170500D01*
X+5934407Y-5371160D02*
X+6089593Y-5371160D01*
X+5886809Y-5170500D02*
X+5737191Y-5170500D01*
X+5686809Y-5170500D02*
X+5563030Y-5170500D01*
X+5734407Y-5371160D02*
X+5889593Y-5371160D01*
D28*
X+4929300Y-5303973D02*
X+4929300Y-5212533D01*
X+5008675Y-5212533D01*
X+5024550Y-5227773D01*
X+5024550Y-5243013D01*
X+5008675Y-5258253D01*
X+4929300Y-5258253D01*
X+5056300Y-5212533D02*
X+5056300Y-5303973D01*
X+5103925Y-5258253D01*
X+5151550Y-5303973D01*
X+5151550Y-5212533D01*
X+5183300Y-5303973D02*
X+5183300Y-5212533D01*
X+5230925Y-5258253D01*
X+5278550Y-5212533D01*
X+5278550Y-5303973D01*
D72*
X+1761085Y-6276892D02*
X+1760954Y-6273734D01*
X+1759888Y-6267416D01*
X+1757657Y-6261098D01*
X+1754012Y-6254780D01*
X+1748437Y-6248541D01*
X+1742119Y-6243945D01*
X+1735801Y-6241012D01*
X+1729483Y-6239350D01*
X+1723165Y-6238792D01*
X+1722985Y-6238792D01*
X+1684885Y-6276892D02*
X+1685016Y-6273734D01*
X+1686082Y-6267416D01*
X+1688313Y-6261098D01*
X+1691958Y-6254780D01*
X+1697533Y-6248541D01*
X+1703851Y-6243945D01*
X+1710169Y-6241012D01*
X+1716487Y-6239350D01*
X+1722805Y-6238792D01*
X+1722985Y-6238792D01*
X+1684885Y-6276892D02*
X+1685016Y-6280050D01*
X+1686082Y-6286368D01*
X+1688313Y-6292686D01*
X+1691958Y-6299004D01*
X+1697533Y-6305243D01*
X+1703851Y-6309839D01*
X+1710169Y-6312772D01*
X+1716487Y-6314434D01*
X+1722805Y-6314992D01*
X+1722985Y-6314992D01*
X+1761085Y-6276892D02*
X+1760954Y-6280050D01*
X+1759888Y-6286368D01*
X+1757657Y-6292686D01*
X+1754012Y-6299004D01*
X+1748437Y-6305243D01*
X+1742119Y-6309839D01*
X+1735801Y-6312772D01*
X+1729483Y-6314434D01*
X+1723165Y-6314992D01*
X+1722985Y-6314992D01*
D73*
X+1253135Y-6205772D02*
X+1792835Y-6205772D01*
X+1792835Y-6162257D01*
X+1792835Y-5967012D02*
X+1253135Y-5967012D01*
X+1253135Y-6010527D01*
X+1253135Y-6162257D02*
X+1253135Y-6205772D01*
X+1792835Y-6010527D02*
X+1792835Y-5967012D01*
D28*
X-13715Y-6114332D02*
X+18035Y-6114332D01*
X+18035Y-6144812D01*
X-45465Y-6144812D01*
X-77215Y-6114332D01*
X-77215Y-6083852D01*
X-45465Y-6053372D01*
X+2160Y-6053372D01*
X+18035Y-6068612D01*
X+49785Y-6160052D02*
X+145035Y-6160052D01*
X+272035Y-6053372D02*
X+192660Y-6053372D01*
X+192660Y-6083852D01*
X+256160Y-6083852D01*
X+272035Y-6099092D01*
X+272035Y-6129572D01*
X+256160Y-6144812D01*
X+208535Y-6144812D01*
X+192660Y-6129572D01*
X+303785Y-6053372D02*
X+303785Y-6099092D01*
X+351410Y-6144812D01*
X+399035Y-6099092D01*
X+399035Y-6053372D01*
X+430785Y-6160052D02*
X+526035Y-6160052D01*
X+573660Y-6068612D02*
X+589535Y-6053372D01*
X+637160Y-6053372D01*
X+653035Y-6068612D01*
X+653035Y-6083852D01*
X+637160Y-6099092D01*
X+653035Y-6114332D01*
X+653035Y-6129572D01*
X+637160Y-6144812D01*
X+589535Y-6144812D01*
X+573660Y-6129572D01*
X+605410Y-6099092D02*
X+637160Y-6099092D01*
X+684785Y-6053372D02*
X+684785Y-6099092D01*
X+732410Y-6144812D01*
X+780035Y-6099092D01*
X+780035Y-6053372D01*
X+827660Y-6068612D02*
X+843535Y-6053372D01*
X+891160Y-6053372D01*
X+907035Y-6068612D01*
X+907035Y-6083852D01*
X+891160Y-6099092D01*
X+907035Y-6114332D01*
X+907035Y-6129572D01*
X+891160Y-6144812D01*
X+843535Y-6144812D01*
X+827660Y-6129572D01*
X+859410Y-6099092D02*
X+891160Y-6099092D01*
D72*
X+631800Y-1943100D02*
X+631669Y-1939942D01*
X+630603Y-1933624D01*
X+628372Y-1927306D01*
X+624727Y-1920988D01*
X+619152Y-1914749D01*
X+612834Y-1910153D01*
X+606516Y-1907220D01*
X+600198Y-1905558D01*
X+593880Y-1905000D01*
X+593700Y-1905000D01*
X+555600Y-1943100D02*
X+555731Y-1939942D01*
X+556797Y-1933624D01*
X+559028Y-1927306D01*
X+562673Y-1920988D01*
X+568248Y-1914749D01*
X+574566Y-1910153D01*
X+580884Y-1907220D01*
X+587202Y-1905558D01*
X+593520Y-1905000D01*
X+593700Y-1905000D01*
X+555600Y-1943100D02*
X+555731Y-1946258D01*
X+556797Y-1952576D01*
X+559028Y-1958894D01*
X+562673Y-1965212D01*
X+568248Y-1971451D01*
X+574566Y-1976047D01*
X+580884Y-1978980D01*
X+587202Y-1980642D01*
X+593520Y-1981200D01*
X+593700Y-1981200D01*
X+631800Y-1943100D02*
X+631669Y-1946258D01*
X+630603Y-1952576D01*
X+628372Y-1958894D01*
X+624727Y-1965212D01*
X+619152Y-1971451D01*
X+612834Y-1976047D01*
X+606516Y-1978980D01*
X+600198Y-1980642D01*
X+593880Y-1981200D01*
X+593700Y-1981200D01*
D73*
X+743000Y-2032940D02*
X+616108Y-2032940D01*
X-755600Y-2032940D02*
X-755600Y-2431720D01*
X-638034Y-2431720D01*
X+743000Y-2431720D02*
X+743000Y-2032940D01*
X-574566Y-2431720D02*
X-438034Y-2431720D01*
X-628708Y-2032940D02*
X-755600Y-2032940D01*
X-374566Y-2431720D02*
X-238034Y-2431720D01*
X-428708Y-2032940D02*
X-583892Y-2032940D01*
X-174566Y-2431720D02*
X-38034Y-2431720D01*
X-228708Y-2032940D02*
X-383892Y-2032940D01*
X+25434Y-2431720D02*
X+161966Y-2431720D01*
X-28708Y-2032940D02*
X-183892Y-2032940D01*
X+225434Y-2431720D02*
X+361966Y-2431720D01*
X+171292Y-2032940D02*
X+16108Y-2032940D01*
X+425434Y-2431720D02*
X+561966Y-2431720D01*
X+371292Y-2032940D02*
X+216108Y-2032940D01*
X+625434Y-2431720D02*
X+743000Y-2431720D01*
X+571292Y-2032940D02*
X+416108Y-2032940D01*
D28*
X-260300Y-1794180D02*
X-260300Y-1809420D01*
X-244425Y-1824660D01*
X-180925Y-1824660D01*
X-165050Y-1809420D01*
X-165050Y-1733220D01*
X-133300Y-1733220D02*
X-38050Y-1733220D01*
X-85675Y-1733220D02*
X-85675Y-1824660D01*
X-6300Y-1824660D02*
X-6300Y-1763700D01*
X+25450Y-1733220D01*
X+57200Y-1733220D01*
X+88950Y-1763700D01*
X+88950Y-1824660D01*
X-6300Y-1794180D02*
X+88950Y-1794180D01*
X+184200Y-1794180D02*
X+215950Y-1794180D01*
X+215950Y-1824660D01*
X+152450Y-1824660D01*
X+120700Y-1794180D01*
X+120700Y-1763700D01*
X+152450Y-1733220D01*
X+200075Y-1733220D01*
X+215950Y-1748460D01*
D30*
X+2220900Y-1141300D02*
X+2210900Y-1141300D01*
X+2220900Y-1281300D02*
X+2210900Y-1281300D01*
X+2221400Y-1908100D02*
X+2211400Y-1908100D01*
X+2221400Y-2048100D02*
X+2211400Y-2048100D01*
D31*
X+178300Y-4080900D02*
X+178257Y-4079861D01*
X+177905Y-4077782D01*
X+177168Y-4075703D01*
X+175964Y-4073624D01*
X+174123Y-4071574D01*
X+172044Y-4070071D01*
X+169965Y-4069114D01*
X+167886Y-4068575D01*
X+165807Y-4068400D01*
X+165800Y-4068400D01*
X+153300Y-4080900D02*
X+153343Y-4079861D01*
X+153695Y-4077782D01*
X+154432Y-4075703D01*
X+155636Y-4073624D01*
X+157477Y-4071574D01*
X+159556Y-4070071D01*
X+161635Y-4069114D01*
X+163714Y-4068575D01*
X+165793Y-4068400D01*
X+165800Y-4068400D01*
X+153300Y-4080900D02*
X+153343Y-4081939D01*
X+153695Y-4084018D01*
X+154432Y-4086097D01*
X+155636Y-4088176D01*
X+157477Y-4090226D01*
X+159556Y-4091729D01*
X+161635Y-4092686D01*
X+163714Y-4093225D01*
X+165793Y-4093400D01*
X+165800Y-4093400D01*
X+178300Y-4080900D02*
X+178257Y-4081939D01*
X+177905Y-4084018D01*
X+177168Y-4086097D01*
X+175964Y-4088176D01*
X+174123Y-4090226D01*
X+172044Y-4091729D01*
X+169965Y-4092686D01*
X+167886Y-4093225D01*
X+165807Y-4093400D01*
X+165800Y-4093400D01*
D30*
X-276700Y-3410900D02*
X-126700Y-3410900D01*
X-126700Y-4080900D01*
X-276700Y-4080900D01*
X+545000Y-1481400D02*
X+545000Y-1581400D01*
X+725000Y-1481400D02*
X+725000Y-1581400D01*
X+303700Y-1481400D02*
X+303700Y-1581400D01*
X+483700Y-1481400D02*
X+483700Y-1581400D01*
X-521800Y-2927100D02*
X-521800Y-3027100D01*
X-341800Y-2927100D02*
X-341800Y-3027100D01*
X-280500Y-2927100D02*
X-280500Y-3027100D01*
X-100500Y-2927100D02*
X-100500Y-3027100D01*
X-661500Y-1352300D02*
X-661500Y-1462300D01*
X-481500Y-1352300D02*
X-481500Y-1462300D01*
X-267800Y-1352300D02*
X-267800Y-1462300D01*
X-87800Y-1352300D02*
X-87800Y-1462300D01*
X-26500Y-1352300D02*
X-26500Y-1462300D01*
X+153500Y-1352300D02*
X+153500Y-1462300D01*
X+550600Y-3885100D02*
X+450600Y-3885100D01*
X+550600Y-4065100D02*
X+450600Y-4065100D01*
X+2617300Y-1403600D02*
X+2617300Y-1293600D01*
X+2437300Y-1403600D02*
X+2437300Y-1293600D01*
X+2871300Y-1403600D02*
X+2871300Y-1293600D01*
X+2691300Y-1403600D02*
X+2691300Y-1293600D01*
X+2691300Y-1781000D02*
X+2691300Y-1891000D01*
X+2871300Y-1781000D02*
X+2871300Y-1891000D01*
X+2437300Y-1781000D02*
X+2437300Y-1891000D01*
X+2617300Y-1781000D02*
X+2617300Y-1891000D01*
X+2261700Y-3430800D02*
X+2261700Y-3320800D01*
X+2081700Y-3430800D02*
X+2081700Y-3320800D01*
X+1995000Y-1408400D02*
X+1995000Y-1298400D01*
X+1815000Y-1408400D02*
X+1815000Y-1298400D01*
X+6419600Y-3112600D02*
X+6529600Y-3112600D01*
X+6419600Y-2932600D02*
X+6529600Y-2932600D01*
X+2020400Y-3430800D02*
X+2020400Y-3320800D01*
X+1840400Y-3430800D02*
X+1840400Y-3320800D01*
X+2680800Y-6059700D02*
X+2680800Y-5949700D01*
X+2500800Y-6059700D02*
X+2500800Y-5949700D01*
X+2426800Y-6064500D02*
X+2426800Y-5954500D01*
X+2246800Y-6064500D02*
X+2246800Y-5954500D01*
X+1271100Y-1403600D02*
X+1271100Y-1293600D01*
X+1091100Y-1403600D02*
X+1091100Y-1293600D01*
X+1525100Y-1403600D02*
X+1525100Y-1293600D01*
X+1345100Y-1403600D02*
X+1345100Y-1293600D01*
X+1573700Y-1781000D02*
X+1573700Y-1891000D01*
X+1753700Y-1781000D02*
X+1753700Y-1891000D01*
X+1815000Y-1781000D02*
X+1815000Y-1891000D01*
X+1995000Y-1781000D02*
X+1995000Y-1891000D01*
X+1331700Y-5639900D02*
X+1441700Y-5639900D01*
X+1331700Y-5459900D02*
X+1441700Y-5459900D01*
X+1331700Y-5398600D02*
X+1441700Y-5398600D01*
X+1331700Y-5218600D02*
X+1441700Y-5218600D01*
X+6450500Y-1288800D02*
X+6450500Y-1398800D01*
X+6630500Y-1288800D02*
X+6630500Y-1398800D01*
X+7733200Y-1288800D02*
X+7733200Y-1398800D01*
X+7913200Y-1288800D02*
X+7913200Y-1398800D01*
D28*
X+6903720Y-1513840D02*
X+7462520Y-1513840D01*
X+6903720Y-2021840D02*
X+7462520Y-2021840D01*
X+6685280Y-1894840D02*
X+6703209Y-1922904D01*
X+6724412Y-1947902D01*
X+6748592Y-1969626D01*
X+6775450Y-1987868D01*
X+6804690Y-2002418D01*
X+6836013Y-2013069D01*
X+6869122Y-2019613D01*
X+6903720Y-2021840D01*
X+6708140Y-1640840D02*
X+6724045Y-1612776D01*
X+6742986Y-1587778D01*
X+6764665Y-1566054D01*
X+6788785Y-1547812D01*
X+6815048Y-1533262D01*
X+6843157Y-1522611D01*
X+6872813Y-1516067D01*
X+6903720Y-1513840D01*
X+7680960Y-1640840D02*
X+7663031Y-1612776D01*
X+7641828Y-1587778D01*
X+7617648Y-1566054D01*
X+7590790Y-1547812D01*
X+7561550Y-1533262D01*
X+7530227Y-1522611D01*
X+7497118Y-1516067D01*
X+7462520Y-1513840D01*
X+7680960Y-1894840D02*
X+7663031Y-1922904D01*
X+7641828Y-1947902D01*
X+7617648Y-1969626D01*
X+7590790Y-1987868D01*
X+7561550Y-2002418D01*
X+7530227Y-2013069D01*
X+7497118Y-2019613D01*
X+7462520Y-2021840D01*
D30*
X+7218100Y-1243500D02*
X+7118100Y-1243500D01*
X+7218100Y-1423500D02*
X+7118100Y-1423500D01*
D28*
X+9278620Y-3888740D02*
X+9431020Y-3888740D01*
X+9281160Y-4036060D02*
X+9431020Y-4036060D01*
X+9278620Y-2694940D02*
X+9431020Y-2694940D01*
X+9281160Y-2842260D02*
X+9431020Y-2842260D01*
X+9278620Y-3647440D02*
X+9431020Y-3647440D01*
X+9281160Y-3794760D02*
X+9431020Y-3794760D01*
X+9278620Y-3406140D02*
X+9431020Y-3406140D01*
X+9281160Y-3553460D02*
X+9431020Y-3553460D01*
X+9278620Y-2923540D02*
X+9431020Y-2923540D01*
X+9281160Y-3070860D02*
X+9431020Y-3070860D01*
X+9278620Y-3164840D02*
X+9431020Y-3164840D01*
X+9281160Y-3312160D02*
X+9431020Y-3312160D01*
D30*
X+8843260Y-2907200D02*
X+8743260Y-2907200D01*
X+8843260Y-3087200D02*
X+8743260Y-3087200D01*
X+8843260Y-3148500D02*
X+8743260Y-3148500D01*
X+8843260Y-3328500D02*
X+8743260Y-3328500D01*
X+8843260Y-3948600D02*
X+8743260Y-3948600D01*
X+8843260Y-4128600D02*
X+8743260Y-4128600D01*
X+8841160Y-3694600D02*
X+8741160Y-3694600D01*
X+8841160Y-3874600D02*
X+8741160Y-3874600D01*
X+8843260Y-3389800D02*
X+8743260Y-3389800D01*
X+8843260Y-3569800D02*
X+8743260Y-3569800D01*
X+8841160Y-2678600D02*
X+8741160Y-2678600D01*
X+8841160Y-2858600D02*
X+8741160Y-2858600D01*
X+5513900Y-2245000D02*
X+3603900Y-2245000D01*
X+3603900Y-4155000D01*
X+5513900Y-4155000D01*
X+5513900Y-2245000D01*
D32*
X+5443900Y-4055000D02*
X+5443797Y-4052511D01*
X+5442955Y-4047531D01*
X+5441195Y-4042551D01*
X+5438318Y-4037571D01*
X+5433917Y-4032655D01*
X+5428937Y-4029041D01*
X+5423957Y-4026736D01*
X+5418977Y-4025433D01*
X+5413997Y-4025000D01*
X+5413900Y-4025000D01*
X+5383900Y-4055000D02*
X+5384003Y-4052511D01*
X+5384845Y-4047531D01*
X+5386605Y-4042551D01*
X+5389482Y-4037571D01*
X+5393883Y-4032655D01*
X+5398863Y-4029041D01*
X+5403843Y-4026736D01*
X+5408823Y-4025433D01*
X+5413803Y-4025000D01*
X+5413900Y-4025000D01*
X+5383900Y-4055000D02*
X+5384003Y-4057489D01*
X+5384845Y-4062469D01*
X+5386605Y-4067449D01*
X+5389482Y-4072429D01*
X+5393883Y-4077345D01*
X+5398863Y-4080959D01*
X+5403843Y-4083264D01*
X+5408823Y-4084567D01*
X+5413803Y-4085000D01*
X+5413900Y-4085000D01*
X+5443900Y-4055000D02*
X+5443797Y-4057489D01*
X+5442955Y-4062469D01*
X+5441195Y-4067449D01*
X+5438318Y-4072429D01*
X+5433917Y-4077345D01*
X+5428937Y-4080959D01*
X+5423957Y-4083264D01*
X+5418977Y-4084567D01*
X+5413997Y-4085000D01*
X+5413900Y-4085000D01*
D31*
X+5691400Y-4145000D02*
X+5691357Y-4143961D01*
X+5691005Y-4141882D01*
X+5690268Y-4139803D01*
X+5689064Y-4137724D01*
X+5687223Y-4135674D01*
X+5685144Y-4134171D01*
X+5683065Y-4133214D01*
X+5680986Y-4132675D01*
X+5678907Y-4132500D01*
X+5678900Y-4132500D01*
X+5666400Y-4145000D02*
X+5666443Y-4143961D01*
X+5666795Y-4141882D01*
X+5667532Y-4139803D01*
X+5668736Y-4137724D01*
X+5670577Y-4135674D01*
X+5672656Y-4134171D01*
X+5674735Y-4133214D01*
X+5676814Y-4132675D01*
X+5678893Y-4132500D01*
X+5678900Y-4132500D01*
X+5666400Y-4145000D02*
X+5666443Y-4146039D01*
X+5666795Y-4148118D01*
X+5667532Y-4150197D01*
X+5668736Y-4152276D01*
X+5670577Y-4154326D01*
X+5672656Y-4155829D01*
X+5674735Y-4156786D01*
X+5676814Y-4157325D01*
X+5678893Y-4157500D01*
X+5678900Y-4157500D01*
X+5691400Y-4145000D02*
X+5691357Y-4146039D01*
X+5691005Y-4148118D01*
X+5690268Y-4150197D01*
X+5689064Y-4152276D01*
X+5687223Y-4154326D01*
X+5685144Y-4155829D01*
X+5683065Y-4156786D01*
X+5680986Y-4157325D01*
X+5678907Y-4157500D01*
X+5678900Y-4157500D01*
D28*
X+4431900Y-3230480D02*
X+4431900Y-3306680D01*
X+4447775Y-3321920D01*
X+4511275Y-3321920D01*
X+4527150Y-3306680D01*
X+4527150Y-3230480D01*
X+4574775Y-3245720D02*
X+4590650Y-3230480D01*
X+4638275Y-3230480D01*
X+4654150Y-3245720D01*
X+4654150Y-3260960D01*
X+4638275Y-3276200D01*
X+4590650Y-3276200D01*
X+4574775Y-3291440D01*
X+4574775Y-3321920D01*
X+4654150Y-3321920D01*
D30*
X+1332400Y-1781000D02*
X+1332400Y-1891000D01*
X+1512400Y-1781000D02*
X+1512400Y-1891000D01*
X+1091100Y-1781000D02*
X+1091100Y-1891000D01*
X+1271100Y-1781000D02*
X+1271100Y-1891000D01*
X+6178800Y-4202600D02*
X+6078800Y-4202600D01*
X+6178800Y-4382600D02*
X+6078800Y-4382600D01*
X+2680800Y-5569200D02*
X+2680800Y-5469200D01*
X+2500800Y-5569200D02*
X+2500800Y-5469200D01*
D72*
X-685800Y-4648200D02*
X-685931Y-4645042D01*
X-686997Y-4638724D01*
X-689228Y-4632406D01*
X-692873Y-4626088D01*
X-698448Y-4619849D01*
X-704766Y-4615253D01*
X-711084Y-4612320D01*
X-717402Y-4610658D01*
X-723720Y-4610100D01*
X-723900Y-4610100D01*
X-762000Y-4648200D02*
X-761869Y-4645042D01*
X-760803Y-4638724D01*
X-758572Y-4632406D01*
X-754927Y-4626088D01*
X-749352Y-4619849D01*
X-743034Y-4615253D01*
X-736716Y-4612320D01*
X-730398Y-4610658D01*
X-724080Y-4610100D01*
X-723900Y-4610100D01*
X-762000Y-4648200D02*
X-761869Y-4651358D01*
X-760803Y-4657676D01*
X-758572Y-4663994D01*
X-754927Y-4670312D01*
X-749352Y-4676551D01*
X-743034Y-4681147D01*
X-736716Y-4684080D01*
X-730398Y-4685742D01*
X-724080Y-4686300D01*
X-723900Y-4686300D01*
X-685800Y-4648200D02*
X-685931Y-4651358D01*
X-686997Y-4657676D01*
X-689228Y-4663994D01*
X-692873Y-4670312D01*
X-698448Y-4676551D01*
X-704766Y-4681147D01*
X-711084Y-4684080D01*
X-717402Y-4685742D01*
X-723720Y-4686300D01*
X-723900Y-4686300D01*
D73*
X-873480Y-4558360D02*
X-746307Y-4558360D01*
X+25680Y-4558360D02*
X+25680Y-4357700D01*
X-98709Y-4357700D01*
X-873480Y-4357700D02*
X-873480Y-4558360D01*
X-101493Y-4558360D02*
X+25680Y-4558360D01*
X-149091Y-4357700D02*
X-298709Y-4357700D01*
X-301493Y-4558360D02*
X-146307Y-4558360D01*
X-349091Y-4357700D02*
X-498709Y-4357700D01*
X-501493Y-4558360D02*
X-346307Y-4558360D01*
X-549091Y-4357700D02*
X-698709Y-4357700D01*
X-749091Y-4357700D02*
X-873480Y-4357700D01*
X-701493Y-4558360D02*
X-546307Y-4558360D01*
D28*
X+401600Y-4472000D02*
X+401600Y-4380560D01*
X+480975Y-4380560D01*
X+496850Y-4395800D01*
X+496850Y-4411040D01*
X+480975Y-4426280D01*
X+496850Y-4441520D01*
X+496850Y-4456760D01*
X+480975Y-4472000D01*
X+401600Y-4472000D01*
X+401600Y-4426280D02*
X+480975Y-4426280D01*
X+528600Y-4380560D02*
X+623850Y-4380560D01*
X+576225Y-4380560D02*
X+576225Y-4472000D01*
D72*
X-685800Y-5105400D02*
X-685931Y-5102242D01*
X-686997Y-5095924D01*
X-689228Y-5089606D01*
X-692873Y-5083288D01*
X-698448Y-5077049D01*
X-704766Y-5072453D01*
X-711084Y-5069520D01*
X-717402Y-5067858D01*
X-723720Y-5067300D01*
X-723900Y-5067300D01*
X-762000Y-5105400D02*
X-761869Y-5102242D01*
X-760803Y-5095924D01*
X-758572Y-5089606D01*
X-754927Y-5083288D01*
X-749352Y-5077049D01*
X-743034Y-5072453D01*
X-736716Y-5069520D01*
X-730398Y-5067858D01*
X-724080Y-5067300D01*
X-723900Y-5067300D01*
X-762000Y-5105400D02*
X-761869Y-5108558D01*
X-760803Y-5114876D01*
X-758572Y-5121194D01*
X-754927Y-5127512D01*
X-749352Y-5133751D01*
X-743034Y-5138347D01*
X-736716Y-5141280D01*
X-730398Y-5142942D01*
X-724080Y-5143500D01*
X-723900Y-5143500D01*
X-685800Y-5105400D02*
X-685931Y-5108558D01*
X-686997Y-5114876D01*
X-689228Y-5121194D01*
X-692873Y-5127512D01*
X-698448Y-5133751D01*
X-704766Y-5138347D01*
X-711084Y-5141280D01*
X-717402Y-5142942D01*
X-723720Y-5143500D01*
X-723900Y-5143500D01*
D73*
X-873480Y-5015560D02*
X-746307Y-5015560D01*
X+25680Y-5015560D02*
X+25680Y-4814900D01*
X-98709Y-4814900D01*
X-873480Y-4814900D02*
X-873480Y-5015560D01*
X-101493Y-5015560D02*
X+25680Y-5015560D01*
X-149091Y-4814900D02*
X-298709Y-4814900D01*
X-301493Y-5015560D02*
X-146307Y-5015560D01*
X-349091Y-4814900D02*
X-498709Y-4814900D01*
X-501493Y-5015560D02*
X-346307Y-5015560D01*
X-549091Y-4814900D02*
X-698709Y-4814900D01*
X-749091Y-4814900D02*
X-873480Y-4814900D01*
X-701493Y-5015560D02*
X-546307Y-5015560D01*
D28*
X+401600Y-4954600D02*
X+401600Y-4863160D01*
X+496850Y-4863160D01*
X+401600Y-4908880D02*
X+465100Y-4908880D01*
X+528600Y-4954600D02*
X+528600Y-4863160D01*
X+576225Y-4908880D01*
X+623850Y-4863160D01*
X+623850Y-4954600D01*
D30*
X+6107600Y-2284200D02*
X+6107600Y-2394200D01*
X+6287600Y-2284200D02*
X+6287600Y-2394200D01*
X+6374300Y-2586300D02*
X+6374300Y-2686300D01*
X+6554300Y-2586300D02*
X+6554300Y-2686300D01*
D33*
X+8699500Y-1638300D02*
X+8699500Y-1663700D01*
X+8953500Y-1663700D02*
X+8699500Y-1663700D01*
X+8953500Y-1663700D02*
X+8953500Y-1638300D01*
X+8940800Y-2222500D02*
X+8699500Y-2222500D01*
X+8940800Y-2222500D02*
X+8940800Y-2247900D01*
X+8699500Y-2222500D02*
X+8699500Y-2247900D01*
D73*
X+8610600Y-2247900D02*
X+8699500Y-2247900D01*
X+9042400Y-1638300D02*
X+8953500Y-1638300D01*
X+8699500Y-1638300D01*
X+8610600Y-1638300D01*
X+8699500Y-2247900D02*
X+8940800Y-2247900D01*
X+9042400Y-2247900D01*
X+9131300Y-2019300D02*
X+9131300Y-2044700D01*
X+9131300Y-1866900D02*
X+9131300Y-1841500D01*
X+8521700Y-2019300D02*
X+8521700Y-2044700D01*
X+8521700Y-1866900D02*
X+8521700Y-1841500D01*
X+9001506Y-1943100D02*
X+9000924Y-1928845D01*
X+8996200Y-1900333D01*
X+8986332Y-1871821D01*
X+8970267Y-1843309D01*
X+8945693Y-1814959D01*
X+8917181Y-1793420D01*
X+8888669Y-1779509D01*
X+8860157Y-1771361D01*
X+8831645Y-1768170D01*
X+8826500Y-1768094D01*
X+8651494Y-1943100D02*
X+8652076Y-1928845D01*
X+8656800Y-1900333D01*
X+8666668Y-1871821D01*
X+8682733Y-1843309D01*
X+8707307Y-1814959D01*
X+8735819Y-1793420D01*
X+8764331Y-1779509D01*
X+8792843Y-1771361D01*
X+8821355Y-1768170D01*
X+8826500Y-1768094D01*
X+8651494Y-1943100D02*
X+8652076Y-1957355D01*
X+8656800Y-1985867D01*
X+8666668Y-2014379D01*
X+8682733Y-2042891D01*
X+8707307Y-2071241D01*
X+8735819Y-2092780D01*
X+8764331Y-2106691D01*
X+8792843Y-2114839D01*
X+8821355Y-2118030D01*
X+8826500Y-2118106D01*
X+9001506Y-1943100D02*
X+9000924Y-1957355D01*
X+8996200Y-1985867D01*
X+8986332Y-2014379D01*
X+8970267Y-2042891D01*
X+8945693Y-2071241D01*
X+8917181Y-2092780D01*
X+8888669Y-2106691D01*
X+8860157Y-2114839D01*
X+8831645Y-2118030D01*
X+8826500Y-2118106D01*
X+8466500Y-1583100D02*
X+8466414Y-1581024D01*
X+8465712Y-1576871D01*
X+8464242Y-1572718D01*
X+8461840Y-1568565D01*
X+8458167Y-1564466D01*
X+8454014Y-1561457D01*
X+8449861Y-1559540D01*
X+8445708Y-1558457D01*
X+8441555Y-1558100D01*
X+8441500Y-1558100D01*
X+8416500Y-1583100D02*
X+8416586Y-1581024D01*
X+8417288Y-1576871D01*
X+8418758Y-1572718D01*
X+8421160Y-1568565D01*
X+8424833Y-1564466D01*
X+8428986Y-1561457D01*
X+8433139Y-1559540D01*
X+8437292Y-1558457D01*
X+8441445Y-1558100D01*
X+8441500Y-1558100D01*
X+8416500Y-1583100D02*
X+8416586Y-1585176D01*
X+8417288Y-1589329D01*
X+8418758Y-1593482D01*
X+8421160Y-1597635D01*
X+8424833Y-1601734D01*
X+8428986Y-1604743D01*
X+8433139Y-1606660D01*
X+8437292Y-1607743D01*
X+8441445Y-1608100D01*
X+8441500Y-1608100D01*
X+8466500Y-1583100D02*
X+8466414Y-1585176D01*
X+8465712Y-1589329D01*
X+8464242Y-1593482D01*
X+8461840Y-1597635D01*
X+8458167Y-1601734D01*
X+8454014Y-1604743D01*
X+8449861Y-1606660D01*
X+8445708Y-1607743D01*
X+8441555Y-1608100D01*
X+8441500Y-1608100D01*
D72*
X+8585200Y-4257700D02*
X+8585069Y-4254542D01*
X+8584003Y-4248224D01*
X+8581772Y-4241906D01*
X+8578127Y-4235588D01*
X+8572552Y-4229349D01*
X+8566234Y-4224753D01*
X+8559916Y-4221820D01*
X+8553598Y-4220158D01*
X+8547280Y-4219600D01*
X+8547100Y-4219600D01*
X+8509000Y-4257700D02*
X+8509131Y-4254542D01*
X+8510197Y-4248224D01*
X+8512428Y-4241906D01*
X+8516073Y-4235588D01*
X+8521648Y-4229349D01*
X+8527966Y-4224753D01*
X+8534284Y-4221820D01*
X+8540602Y-4220158D01*
X+8546920Y-4219600D01*
X+8547100Y-4219600D01*
X+8509000Y-4257700D02*
X+8509131Y-4260858D01*
X+8510197Y-4267176D01*
X+8512428Y-4273494D01*
X+8516073Y-4279812D01*
X+8521648Y-4286051D01*
X+8527966Y-4290647D01*
X+8534284Y-4293580D01*
X+8540602Y-4295242D01*
X+8546920Y-4295800D01*
X+8547100Y-4295800D01*
X+8585200Y-4257700D02*
X+8585069Y-4260858D01*
X+8584003Y-4267176D01*
X+8581772Y-4273494D01*
X+8578127Y-4279812D01*
X+8572552Y-4286051D01*
X+8566234Y-4290647D01*
X+8559916Y-4293580D01*
X+8553598Y-4295242D01*
X+8547280Y-4295800D01*
X+8547100Y-4295800D01*
D73*
X+8475980Y-4727550D02*
X+8475980Y-4187850D01*
X+8432465Y-4187850D01*
X+8237220Y-4187850D02*
X+8237220Y-4727550D01*
X+8280735Y-4727550D01*
X+8432465Y-4727550D02*
X+8475980Y-4727550D01*
X+8280735Y-4187850D02*
X+8237220Y-4187850D01*
D28*
X+8018780Y-4775200D02*
X+8034020Y-4759325D01*
X+8034020Y-4695825D01*
X+8018780Y-4679950D01*
X+8003540Y-4679950D01*
X+7988300Y-4695825D01*
X+7988300Y-4759325D01*
X+7973060Y-4775200D01*
X+7957820Y-4775200D01*
X+7942580Y-4759325D01*
X+7942580Y-4695825D01*
X+7957820Y-4679950D01*
X+8034020Y-4648200D02*
X+7942580Y-4648200D01*
X+7942580Y-4568825D01*
X+7957820Y-4552950D01*
X+7973060Y-4552950D01*
X+7988300Y-4568825D01*
X+7988300Y-4648200D01*
X+8034020Y-4425950D02*
X+8034020Y-4521200D01*
X+7942580Y-4521200D01*
X+7942580Y-4425950D01*
X+7988300Y-4521200D02*
X+7988300Y-4457700D01*
X+8034020Y-4298950D02*
X+8034020Y-4394200D01*
X+7942580Y-4394200D01*
X+7942580Y-4298950D01*
X+7988300Y-4394200D02*
X+7988300Y-4330700D01*
X+8034020Y-4267200D02*
X+7942580Y-4267200D01*
X+7942580Y-4203700D01*
X+7973060Y-4171950D01*
X+8003540Y-4171950D01*
X+8034020Y-4203700D01*
X+8034020Y-4267200D01*
M02*
