M48
METRIC,TZ
T01C0.3810
T02C1.0000
T03C4.0000
T04C0.7620
T05C1.0160
%
T01
X+28702Y-23241
X+2970Y-47426
X-8255Y-12700
X+32512Y-23992
X+34991Y-54558
X+33919Y-54644
X+32629Y-54826
X+45397Y-17057
X+3375Y-36496
X-6063Y-30810
X+40005Y-50800
X+59506Y-24554
X+33020Y-25400
X+9398Y-17780
X+9611Y-31091
X+8183Y-31156
X+54229Y-51689
X+19050Y-24130
X+17780Y-34290
X+453Y-32761
X+48050Y-44831
X+49628Y-44805
X+32892Y-33250
X+39314Y-18583
X+45085Y-46355
X+33134Y-36008
X+23722Y-31961
X+24558Y-35466
X-8570Y-31012
X+62738Y-41529
X+62738Y-37973
X+62682Y-28550
X+15240Y-51435
X+36830Y-17526
X+44588Y-17852
X+14330Y-21657
X+68297Y-27843
X+68326Y-24765
X+58732Y-21722
X+47724Y-16922
X+46632Y-16714
X+50800Y-14986
X+44450Y-16383
X+35433Y-17653
X+27572Y-39433
X+27546Y-24557
X+53086Y-17526
X+34586Y-16931
X+31103Y-16925
X+35306Y-14478
X+40226Y-14614
X+43136Y-13886
X+41402Y-13843
X+16840Y-11955
X+32695Y-39900
X+35258Y-52006
X+74589Y-35012
X+46991Y-49212
X+60373Y-33624
X+52879Y-48472
X+48828Y-18800
T02
X+92456Y-51815
X+92456Y-49815
X+92456Y-47815
X+83565Y-59055
X+81565Y-59055
X+79565Y-59055
X+77565Y-59055
X+75565Y-59055
X+73565Y-59055
X+41245Y-59055
X+43245Y-59055
X+45245Y-59055
X+47245Y-59055
X+49245Y-59055
X+51245Y-59055
X+56865Y-59055
X+58865Y-59055
X+60865Y-59055
X+62865Y-59055
X+64865Y-59055
X+66865Y-59055
X+57120Y-52705
X+59120Y-52705
X+61120Y-52705
X+63120Y-52705
X+65120Y-52705
X+67120Y-52705
X+17230Y-60864
X+15230Y-60864
X+13230Y-60864
X-7239Y-44577
X-5239Y-44577
X-3239Y-44577
X-1239Y-44577
X-7239Y-49149
X-5239Y-49149
X-3239Y-49149
X-1239Y-49149
X+83566Y-42577
X+83566Y-44577
X+83566Y-46577
T03
X+92710Y-59690
X-6350Y-59690
T04
X+5937Y-21336
X+5937Y-23336
X+3937Y-21336
X+3937Y-23336
X+1937Y-21336
X+1937Y-23336
X-63Y-21336
X-63Y-23336
X-2063Y-21336
X-2063Y-23336
X-4063Y-21336
X-4063Y-23336
X-6063Y-21336
X-6063Y-23336
T05
X+85015Y-17181
X+91515Y-17181
X+85015Y-21681
X+91515Y-21681
M30
