G04 PROTEUS RS274X GERBER FILE*
%FSLAX45Y45*%
%MOMM*%
G01*
%ADD28C,0.203200*%
%ADD73C,0.152400*%
%ADD52C,1.016000*%
%ADD53C,0.071950*%
%ADD54C,0.158690*%
%ADD55C,0.172460*%
%ADD56C,0.053960*%
%ADD57C,0.711200*%
%ADD58C,0.311150*%
%ADD59C,0.050000*%
%ADD60C,0.558800*%
%ADD61C,0.074740*%
%ADD62C,0.891540*%
%ADD63C,0.286640*%
%ADD64C,0.721360*%
%ADD65C,0.107030*%
%ADD66C,0.110370*%
%ADD67C,1.828800*%
%ADD68C,0.355600*%
%ADD69C,0.609600*%
%ADD74C,0.103120*%
%ADD75C,0.228600*%
%ADD76C,0.547860*%
%ADD77C,0.127000*%
%ADD78C,0.812800*%
%ADD79C,0.219140*%
D28*
X-1079500Y-6413500D02*
X+9715500Y-6413500D01*
X+9715500Y-1016000D01*
X-1079500Y-1016000D01*
X-1079500Y-6413500D01*
D73*
X+9390380Y-4686250D02*
X+9100820Y-4686250D01*
X+9100820Y-5276750D01*
X+9390380Y-5276750D01*
X+9390380Y-4686250D01*
X+9100820Y-4686250D01*
X+9100820Y-5276750D01*
X+9390380Y-5276750D01*
X+9390380Y-4686250D01*
D52*
X+9245600Y-5181500D02*
X+9245600Y-5181500D01*
D53*
X+9267188Y-5098951D02*
X+9224013Y-5098951D01*
X+9224013Y-5058475D01*
X+9231209Y-5050380D01*
X+9238405Y-5050380D01*
X+9245600Y-5058475D01*
X+9245600Y-5098951D01*
X+9238405Y-5034189D02*
X+9224013Y-5017999D01*
X+9224013Y-5001808D01*
X+9238405Y-4985618D01*
X+9252796Y-4985618D01*
X+9267188Y-5001808D01*
X+9267188Y-5017999D01*
X+9252796Y-5034189D01*
X+9238405Y-5034189D01*
X+9224013Y-4969427D02*
X+9224013Y-4920856D01*
X+9224013Y-4945142D02*
X+9267188Y-4945142D01*
X+9274384Y-4904665D02*
X+9274384Y-4856094D01*
X+9224013Y-4831808D02*
X+9224013Y-4799427D01*
X+9224013Y-4815618D02*
X+9267188Y-4815618D01*
X+9267188Y-4831808D02*
X+9267188Y-4799427D01*
X+9267188Y-4775141D02*
X+9224013Y-4775141D01*
X+9267188Y-4726570D01*
X+9224013Y-4726570D01*
D73*
X+8530870Y-6030900D02*
X+8530870Y-5779440D01*
X+7182130Y-5779440D01*
X+7182130Y-6030900D01*
X+8530870Y-6030900D01*
X+8530870Y-5779440D01*
X+7182130Y-5779440D01*
X+7182130Y-6030900D01*
X+8530870Y-6030900D01*
D52*
X+8356500Y-5905500D02*
X+8356500Y-5905500D01*
D54*
X+7240218Y-5952778D02*
X+7240218Y-5857561D01*
X+7293777Y-5905170D01*
X+7347336Y-5857561D01*
X+7347336Y-5952778D01*
X+7383043Y-5889300D02*
X+7418749Y-5857561D01*
X+7454455Y-5857561D01*
X+7490161Y-5889300D01*
X+7490161Y-5921039D01*
X+7454455Y-5952778D01*
X+7418749Y-5952778D01*
X+7383043Y-5921039D01*
X+7383043Y-5889300D01*
X+7525868Y-5952778D02*
X+7525868Y-5857561D01*
X+7615133Y-5857561D01*
X+7632986Y-5873431D01*
X+7632986Y-5889300D01*
X+7615133Y-5905170D01*
X+7525868Y-5905170D01*
X+7668693Y-5936909D02*
X+7686546Y-5952778D01*
X+7757958Y-5952778D01*
X+7775811Y-5936909D01*
X+7775811Y-5921039D01*
X+7757958Y-5905170D01*
X+7686546Y-5905170D01*
X+7668693Y-5889300D01*
X+7668693Y-5873431D01*
X+7686546Y-5857561D01*
X+7757958Y-5857561D01*
X+7775811Y-5873431D01*
X+7811518Y-5968648D02*
X+7918636Y-5968648D01*
X+7972196Y-5857561D02*
X+8043608Y-5857561D01*
X+8007902Y-5857561D02*
X+8007902Y-5952778D01*
X+7972196Y-5952778D02*
X+8043608Y-5952778D01*
X+8097168Y-5952778D02*
X+8097168Y-5857561D01*
X+8204286Y-5952778D01*
X+8204286Y-5857561D01*
D73*
X+3950130Y-5780100D02*
X+3950130Y-6031560D01*
X+5298870Y-6031560D01*
X+5298870Y-5780100D01*
X+3950130Y-5780100D01*
X+3950130Y-6031560D01*
X+5298870Y-6031560D01*
X+5298870Y-5780100D01*
X+3950130Y-5780100D01*
D52*
X+4124500Y-5905500D02*
X+4124500Y-5905500D01*
D55*
X+4546871Y-5940324D02*
X+4527468Y-5957570D01*
X+4469261Y-5957570D01*
X+4430457Y-5923077D01*
X+4430457Y-5888584D01*
X+4469261Y-5854091D01*
X+4527468Y-5854091D01*
X+4546871Y-5871337D01*
X+4585676Y-5888584D02*
X+4624480Y-5854091D01*
X+4663285Y-5854091D01*
X+4702090Y-5888584D01*
X+4702090Y-5923077D01*
X+4663285Y-5957570D01*
X+4624480Y-5957570D01*
X+4585676Y-5923077D01*
X+4585676Y-5888584D01*
X+4740895Y-5957570D02*
X+4740895Y-5854091D01*
X+4857309Y-5957570D01*
X+4857309Y-5854091D01*
X+4934918Y-5888584D02*
X+4973723Y-5854091D01*
X+4973723Y-5957570D01*
D73*
X+5512130Y-5780100D02*
X+5512130Y-6031560D01*
X+6860870Y-6031560D01*
X+6860870Y-5780100D01*
X+5512130Y-5780100D01*
X+5512130Y-6031560D01*
X+6860870Y-6031560D01*
X+6860870Y-5780100D01*
X+5512130Y-5780100D01*
D52*
X+5686500Y-5905500D02*
X+5686500Y-5905500D01*
D55*
X+6108871Y-5940324D02*
X+6089468Y-5957570D01*
X+6031261Y-5957570D01*
X+5992457Y-5923077D01*
X+5992457Y-5888584D01*
X+6031261Y-5854091D01*
X+6089468Y-5854091D01*
X+6108871Y-5871337D01*
X+6147676Y-5888584D02*
X+6186480Y-5854091D01*
X+6225285Y-5854091D01*
X+6264090Y-5888584D01*
X+6264090Y-5923077D01*
X+6225285Y-5957570D01*
X+6186480Y-5957570D01*
X+6147676Y-5923077D01*
X+6147676Y-5888584D01*
X+6302895Y-5957570D02*
X+6302895Y-5854091D01*
X+6419309Y-5957570D01*
X+6419309Y-5854091D01*
X+6477516Y-5871337D02*
X+6496918Y-5854091D01*
X+6555125Y-5854091D01*
X+6574528Y-5871337D01*
X+6574528Y-5888584D01*
X+6555125Y-5905830D01*
X+6496918Y-5905830D01*
X+6477516Y-5923077D01*
X+6477516Y-5957570D01*
X+6574528Y-5957570D01*
D73*
X+5537630Y-5145100D02*
X+5537630Y-5396560D01*
X+6886370Y-5396560D01*
X+6886370Y-5145100D01*
X+5537630Y-5145100D01*
X+5537630Y-5396560D01*
X+6886370Y-5396560D01*
X+6886370Y-5145100D01*
X+5537630Y-5145100D01*
D52*
X+5712000Y-5270500D02*
X+5712000Y-5270500D01*
D55*
X+6095567Y-5322570D02*
X+6095567Y-5219091D01*
X+6192578Y-5219091D01*
X+6211981Y-5236337D01*
X+6211981Y-5253584D01*
X+6192578Y-5270830D01*
X+6095567Y-5270830D01*
X+6250786Y-5219091D02*
X+6250786Y-5322570D01*
X+6308993Y-5270830D01*
X+6367200Y-5322570D01*
X+6367200Y-5219091D01*
X+6406005Y-5322570D02*
X+6406005Y-5219091D01*
X+6464212Y-5270830D01*
X+6522419Y-5219091D01*
X+6522419Y-5322570D01*
D73*
X+1227735Y-5941612D02*
X+1227735Y-6231172D01*
X+1818235Y-6231172D01*
X+1818235Y-5941612D01*
X+1227735Y-5941612D01*
X+1227735Y-6231172D01*
X+1818235Y-6231172D01*
X+1818235Y-5941612D01*
X+1227735Y-5941612D01*
D52*
X+1722985Y-6086392D02*
X+1722985Y-6086392D01*
D56*
X+1276151Y-6091789D02*
X+1288294Y-6091789D01*
X+1288294Y-6102583D01*
X+1264008Y-6102583D01*
X+1251866Y-6091789D01*
X+1251866Y-6080996D01*
X+1264008Y-6070202D01*
X+1282222Y-6070202D01*
X+1288294Y-6075599D01*
X+1300437Y-6107980D02*
X+1336865Y-6107980D01*
X+1385436Y-6070202D02*
X+1355079Y-6070202D01*
X+1355079Y-6080996D01*
X+1379364Y-6080996D01*
X+1385436Y-6086392D01*
X+1385436Y-6097186D01*
X+1379364Y-6102583D01*
X+1361150Y-6102583D01*
X+1355079Y-6097186D01*
X+1397579Y-6070202D02*
X+1397579Y-6086392D01*
X+1415793Y-6102583D01*
X+1434007Y-6086392D01*
X+1434007Y-6070202D01*
X+1446150Y-6107980D02*
X+1482578Y-6107980D01*
X+1500792Y-6075599D02*
X+1506863Y-6070202D01*
X+1525077Y-6070202D01*
X+1531149Y-6075599D01*
X+1531149Y-6080996D01*
X+1525077Y-6086392D01*
X+1531149Y-6091789D01*
X+1531149Y-6097186D01*
X+1525077Y-6102583D01*
X+1506863Y-6102583D01*
X+1500792Y-6097186D01*
X+1512935Y-6086392D02*
X+1525077Y-6086392D01*
X+1543292Y-6070202D02*
X+1543292Y-6086392D01*
X+1561506Y-6102583D01*
X+1579720Y-6086392D01*
X+1579720Y-6070202D01*
X+1597934Y-6075599D02*
X+1604005Y-6070202D01*
X+1622219Y-6070202D01*
X+1628291Y-6075599D01*
X+1628291Y-6080996D01*
X+1622219Y-6086392D01*
X+1628291Y-6091789D01*
X+1628291Y-6097186D01*
X+1622219Y-6102583D01*
X+1604005Y-6102583D01*
X+1597934Y-6097186D01*
X+1610077Y-6086392D02*
X+1622219Y-6086392D01*
D73*
X+768400Y-2457120D02*
X+768400Y-2007540D01*
X-781000Y-2007540D01*
X-781000Y-2457120D01*
X+768400Y-2457120D01*
X+768400Y-2007540D01*
X-781000Y-2007540D01*
X-781000Y-2457120D01*
X+768400Y-2457120D01*
D57*
X+593700Y-2133600D02*
X+593700Y-2133600D01*
D58*
X-675310Y-2263445D02*
X-675310Y-2294560D01*
X-640306Y-2325675D01*
X-500289Y-2325675D01*
X-465284Y-2294560D01*
X-465284Y-2138985D01*
X-395275Y-2138985D02*
X-185249Y-2138985D01*
X-290262Y-2138985D02*
X-290262Y-2325675D01*
X-115240Y-2325675D02*
X-115240Y-2201215D01*
X-45232Y-2138985D01*
X+24777Y-2138985D01*
X+94786Y-2201215D01*
X+94786Y-2325675D01*
X-115240Y-2263445D02*
X+94786Y-2263445D01*
X+304812Y-2263445D02*
X+374821Y-2263445D01*
X+374821Y-2325675D01*
X+234803Y-2325675D01*
X+164795Y-2263445D01*
X+164795Y-2201215D01*
X+234803Y-2138985D01*
X+339816Y-2138985D01*
X+374821Y-2170100D01*
D59*
X+2390900Y-1116300D02*
X+2040900Y-1116300D01*
X+2040900Y-1306300D01*
X+2390900Y-1306300D01*
X+2390900Y-1116300D01*
X+2215900Y-1261300D02*
X+2215900Y-1161300D01*
X+2165900Y-1211300D02*
X+2265900Y-1211300D01*
D60*
X+2310900Y-1211300D02*
X+2310900Y-1211300D01*
D61*
X+2093409Y-1188877D02*
X+2093409Y-1233724D01*
X+2143862Y-1233724D01*
X+2169088Y-1196351D02*
X+2177497Y-1188877D01*
X+2202724Y-1188877D01*
X+2211133Y-1196351D01*
X+2211133Y-1203826D01*
X+2202724Y-1211300D01*
X+2211133Y-1218775D01*
X+2211133Y-1226250D01*
X+2202724Y-1233724D01*
X+2177497Y-1233724D01*
X+2169088Y-1226250D01*
X+2185906Y-1211300D02*
X+2202724Y-1211300D01*
D59*
X+2391400Y-1883100D02*
X+2041400Y-1883100D01*
X+2041400Y-2073100D01*
X+2391400Y-2073100D01*
X+2391400Y-1883100D01*
X+2216400Y-2028100D02*
X+2216400Y-1928100D01*
X+2166400Y-1978100D02*
X+2266400Y-1978100D01*
D60*
X+2311400Y-1978100D02*
X+2311400Y-1978100D01*
D61*
X+2093909Y-1955677D02*
X+2093909Y-2000524D01*
X+2144362Y-2000524D01*
X+2211633Y-1985575D02*
X+2161180Y-1985575D01*
X+2194815Y-1955677D01*
X+2194815Y-2000524D01*
D59*
X+215800Y-3380900D02*
X-954200Y-3380900D01*
X-954200Y-4110900D01*
X+215800Y-4110900D01*
X+215800Y-3380900D01*
X-369200Y-3795900D02*
X-369200Y-3695900D01*
X-419200Y-3745900D02*
X-319200Y-3745900D01*
D62*
X+50800Y-3973900D02*
X+50800Y-3973900D01*
D63*
X-733217Y-3717236D02*
X-668723Y-3659907D01*
X-604228Y-3659907D01*
X-539734Y-3717236D01*
X-539734Y-3774564D01*
X-604228Y-3831893D01*
X-668723Y-3831893D01*
X-733217Y-3774564D01*
X-733217Y-3717236D01*
X-604228Y-3774564D02*
X-539734Y-3831893D01*
X-281756Y-3774564D02*
X-475239Y-3774564D01*
X-346250Y-3659907D01*
X-346250Y-3831893D01*
D59*
X+520000Y-1301400D02*
X+520000Y-1761400D01*
X+750000Y-1761400D01*
X+750000Y-1301400D01*
X+520000Y-1301400D01*
X+685000Y-1531400D02*
X+585000Y-1531400D01*
X+635000Y-1581400D02*
X+635000Y-1481400D01*
D64*
X+635000Y-1386400D02*
X+635000Y-1386400D01*
D65*
X+667111Y-1689517D02*
X+602889Y-1689517D01*
X+602889Y-1629309D01*
X+613593Y-1617268D01*
X+624296Y-1617268D01*
X+635000Y-1629309D01*
X+635000Y-1689517D01*
X+635000Y-1629309D02*
X+645704Y-1617268D01*
X+667111Y-1617268D01*
X+613593Y-1581143D02*
X+602889Y-1569101D01*
X+602889Y-1532976D01*
X+613593Y-1520935D01*
X+624296Y-1520935D01*
X+635000Y-1532976D01*
X+645704Y-1520935D01*
X+656407Y-1520935D01*
X+667111Y-1532976D01*
X+667111Y-1569101D01*
X+656407Y-1581143D01*
X+635000Y-1557060D02*
X+635000Y-1532976D01*
D59*
X+278700Y-1301400D02*
X+278700Y-1761400D01*
X+508700Y-1761400D01*
X+508700Y-1301400D01*
X+278700Y-1301400D01*
X+443700Y-1531400D02*
X+343700Y-1531400D01*
X+393700Y-1581400D02*
X+393700Y-1481400D01*
D64*
X+393700Y-1386400D02*
X+393700Y-1386400D01*
D65*
X+425811Y-1689517D02*
X+361589Y-1689517D01*
X+361589Y-1629309D01*
X+372293Y-1617268D01*
X+382996Y-1617268D01*
X+393700Y-1629309D01*
X+393700Y-1689517D01*
X+393700Y-1629309D02*
X+404404Y-1617268D01*
X+425811Y-1617268D01*
X+404404Y-1520935D02*
X+404404Y-1593184D01*
X+361589Y-1545018D01*
X+425811Y-1545018D01*
D59*
X-546800Y-2747100D02*
X-546800Y-3207100D01*
X-316800Y-3207100D01*
X-316800Y-2747100D01*
X-546800Y-2747100D01*
X-381800Y-2977100D02*
X-481800Y-2977100D01*
X-431800Y-3027100D02*
X-431800Y-2927100D01*
D64*
X-431800Y-2832100D02*
X-431800Y-2832100D01*
D65*
X-399689Y-3183383D02*
X-463911Y-3183383D01*
X-463911Y-3123175D01*
X-453207Y-3111134D01*
X-442504Y-3111134D01*
X-431800Y-3123175D01*
X-431800Y-3183383D01*
X-431800Y-3123175D02*
X-421096Y-3111134D01*
X-399689Y-3111134D01*
X-442504Y-3062967D02*
X-463911Y-3038884D01*
X-399689Y-3038884D01*
X-421096Y-2918468D02*
X-421096Y-2990717D01*
X-463911Y-2942551D01*
X-399689Y-2942551D01*
D59*
X-305500Y-2747100D02*
X-305500Y-3207100D01*
X-75500Y-3207100D01*
X-75500Y-2747100D01*
X-305500Y-2747100D01*
X-140500Y-2977100D02*
X-240500Y-2977100D01*
X-190500Y-3027100D02*
X-190500Y-2927100D01*
D64*
X-190500Y-2832100D02*
X-190500Y-2832100D01*
D65*
X-158389Y-3183383D02*
X-222611Y-3183383D01*
X-222611Y-3123175D01*
X-211907Y-3111134D01*
X-201204Y-3111134D01*
X-190500Y-3123175D01*
X-190500Y-3183383D01*
X-190500Y-3123175D02*
X-179796Y-3111134D01*
X-158389Y-3111134D01*
X-211907Y-3075009D02*
X-222611Y-3062967D01*
X-222611Y-3026842D01*
X-211907Y-3014801D01*
X-201204Y-3014801D01*
X-190500Y-3026842D01*
X-179796Y-3014801D01*
X-169093Y-3014801D01*
X-158389Y-3026842D01*
X-158389Y-3062967D01*
X-169093Y-3075009D01*
X-190500Y-3050926D02*
X-190500Y-3026842D01*
X-211907Y-2978676D02*
X-222611Y-2966634D01*
X-222611Y-2930509D01*
X-211907Y-2918468D01*
X-201204Y-2918468D01*
X-190500Y-2930509D01*
X-179796Y-2918468D01*
X-169093Y-2918468D01*
X-158389Y-2930509D01*
X-158389Y-2966634D01*
X-169093Y-2978676D01*
X-190500Y-2954593D02*
X-190500Y-2930509D01*
D59*
X-508700Y-1172300D02*
X-508700Y-1642300D01*
X-278700Y-1642300D01*
X-278700Y-1172300D01*
X-508700Y-1172300D01*
X-343700Y-1407300D02*
X-443700Y-1407300D01*
X-393700Y-1457300D02*
X-393700Y-1357300D01*
D64*
X-393700Y-1257300D02*
X-393700Y-1257300D01*
D66*
X-371626Y-1493918D02*
X-360589Y-1506334D01*
X-360589Y-1543584D01*
X-382663Y-1568417D01*
X-404737Y-1568417D01*
X-426811Y-1543584D01*
X-426811Y-1506334D01*
X-415774Y-1493918D01*
X-404737Y-1444251D02*
X-426811Y-1419418D01*
X-360589Y-1419418D01*
D59*
X-229300Y-1172300D02*
X-229300Y-1642300D01*
X+700Y-1642300D01*
X+700Y-1172300D01*
X-229300Y-1172300D01*
X-64300Y-1407300D02*
X-164300Y-1407300D01*
X-114300Y-1457300D02*
X-114300Y-1357300D01*
D64*
X-114300Y-1257300D02*
X-114300Y-1257300D01*
D66*
X-92226Y-1493918D02*
X-81189Y-1506334D01*
X-81189Y-1543584D01*
X-103263Y-1568417D01*
X-125337Y-1568417D01*
X-147411Y-1543584D01*
X-147411Y-1506334D01*
X-136374Y-1493918D01*
X-136374Y-1456668D02*
X-147411Y-1444251D01*
X-147411Y-1407001D01*
X-136374Y-1394585D01*
X-125337Y-1394585D01*
X-114300Y-1407001D01*
X-103263Y-1394585D01*
X-92226Y-1394585D01*
X-81189Y-1407001D01*
X-81189Y-1444251D01*
X-92226Y-1456668D01*
X-114300Y-1431835D02*
X-114300Y-1407001D01*
D59*
X+37400Y-1172300D02*
X+37400Y-1642300D01*
X+267400Y-1642300D01*
X+267400Y-1172300D01*
X+37400Y-1172300D01*
X+202400Y-1407300D02*
X+102400Y-1407300D01*
X+152400Y-1457300D02*
X+152400Y-1357300D01*
D64*
X+152400Y-1257300D02*
X+152400Y-1257300D01*
D66*
X+174474Y-1493918D02*
X+185511Y-1506334D01*
X+185511Y-1543584D01*
X+163437Y-1568417D01*
X+141363Y-1568417D01*
X+119289Y-1543584D01*
X+119289Y-1506334D01*
X+130326Y-1493918D01*
X+163437Y-1394585D02*
X+163437Y-1469084D01*
X+119289Y-1419418D01*
X+185511Y-1419418D01*
D59*
X+730600Y-3860100D02*
X+270600Y-3860100D01*
X+270600Y-4090100D01*
X+730600Y-4090100D01*
X+730600Y-3860100D01*
X+500600Y-4025100D02*
X+500600Y-3925100D01*
X+450600Y-3975100D02*
X+550600Y-3975100D01*
D64*
X+645600Y-3975100D02*
X+645600Y-3975100D01*
D65*
X+294317Y-4007211D02*
X+294317Y-3942989D01*
X+354525Y-3942989D01*
X+366566Y-3953693D01*
X+366566Y-3964396D01*
X+354525Y-3975100D01*
X+294317Y-3975100D01*
X+354525Y-3975100D02*
X+366566Y-3985804D01*
X+366566Y-4007211D01*
X+402691Y-3953693D02*
X+414733Y-3942989D01*
X+450858Y-3942989D01*
X+462899Y-3953693D01*
X+462899Y-3964396D01*
X+450858Y-3975100D01*
X+414733Y-3975100D01*
X+402691Y-3985804D01*
X+402691Y-4007211D01*
X+462899Y-4007211D01*
X+511066Y-3975100D02*
X+499024Y-3964396D01*
X+499024Y-3953693D01*
X+511066Y-3942989D01*
X+547191Y-3942989D01*
X+559232Y-3953693D01*
X+559232Y-3964396D01*
X+547191Y-3975100D01*
X+511066Y-3975100D01*
X+499024Y-3985804D01*
X+499024Y-3996507D01*
X+511066Y-4007211D01*
X+547191Y-4007211D01*
X+559232Y-3996507D01*
X+559232Y-3985804D01*
X+547191Y-3975100D01*
D59*
X+2642300Y-1583600D02*
X+2642300Y-1113600D01*
X+2412300Y-1113600D01*
X+2412300Y-1583600D01*
X+2642300Y-1583600D01*
X+2477300Y-1348600D02*
X+2577300Y-1348600D01*
X+2527300Y-1298600D02*
X+2527300Y-1398600D01*
D64*
X+2527300Y-1498600D02*
X+2527300Y-1498600D01*
D66*
X+2549374Y-1311650D02*
X+2560411Y-1324066D01*
X+2560411Y-1361316D01*
X+2538337Y-1386149D01*
X+2516263Y-1386149D01*
X+2494189Y-1361316D01*
X+2494189Y-1324066D01*
X+2505226Y-1311650D01*
X+2494189Y-1212317D02*
X+2494189Y-1274400D01*
X+2516263Y-1274400D01*
X+2516263Y-1224733D01*
X+2527300Y-1212317D01*
X+2549374Y-1212317D01*
X+2560411Y-1224733D01*
X+2560411Y-1261983D01*
X+2549374Y-1274400D01*
D59*
X+2896300Y-1583600D02*
X+2896300Y-1113600D01*
X+2666300Y-1113600D01*
X+2666300Y-1583600D01*
X+2896300Y-1583600D01*
X+2731300Y-1348600D02*
X+2831300Y-1348600D01*
X+2781300Y-1298600D02*
X+2781300Y-1398600D01*
D64*
X+2781300Y-1498600D02*
X+2781300Y-1498600D01*
D66*
X+2803374Y-1311650D02*
X+2814411Y-1324066D01*
X+2814411Y-1361316D01*
X+2792337Y-1386149D01*
X+2770263Y-1386149D01*
X+2748189Y-1361316D01*
X+2748189Y-1324066D01*
X+2759226Y-1311650D01*
X+2759226Y-1212317D02*
X+2748189Y-1224733D01*
X+2748189Y-1261983D01*
X+2759226Y-1274400D01*
X+2803374Y-1274400D01*
X+2814411Y-1261983D01*
X+2814411Y-1224733D01*
X+2803374Y-1212317D01*
X+2792337Y-1212317D01*
X+2781300Y-1224733D01*
X+2781300Y-1274400D01*
D59*
X+2666300Y-1601000D02*
X+2666300Y-2071000D01*
X+2896300Y-2071000D01*
X+2896300Y-1601000D01*
X+2666300Y-1601000D01*
X+2831300Y-1836000D02*
X+2731300Y-1836000D01*
X+2781300Y-1886000D02*
X+2781300Y-1786000D01*
D64*
X+2781300Y-1686000D02*
X+2781300Y-1686000D01*
D66*
X+2803374Y-1922618D02*
X+2814411Y-1935034D01*
X+2814411Y-1972284D01*
X+2792337Y-1997117D01*
X+2770263Y-1997117D01*
X+2748189Y-1972284D01*
X+2748189Y-1935034D01*
X+2759226Y-1922618D01*
X+2781300Y-1872951D02*
X+2770263Y-1885368D01*
X+2759226Y-1885368D01*
X+2748189Y-1872951D01*
X+2748189Y-1835701D01*
X+2759226Y-1823285D01*
X+2770263Y-1823285D01*
X+2781300Y-1835701D01*
X+2781300Y-1872951D01*
X+2792337Y-1885368D01*
X+2803374Y-1885368D01*
X+2814411Y-1872951D01*
X+2814411Y-1835701D01*
X+2803374Y-1823285D01*
X+2792337Y-1823285D01*
X+2781300Y-1835701D01*
D59*
X+2412300Y-1601000D02*
X+2412300Y-2071000D01*
X+2642300Y-2071000D01*
X+2642300Y-1601000D01*
X+2412300Y-1601000D01*
X+2577300Y-1836000D02*
X+2477300Y-1836000D01*
X+2527300Y-1886000D02*
X+2527300Y-1786000D01*
D64*
X+2527300Y-1686000D02*
X+2527300Y-1686000D01*
D66*
X+2549374Y-1922618D02*
X+2560411Y-1935034D01*
X+2560411Y-1972284D01*
X+2538337Y-1997117D01*
X+2516263Y-1997117D01*
X+2494189Y-1972284D01*
X+2494189Y-1935034D01*
X+2505226Y-1922618D01*
X+2516263Y-1823285D02*
X+2527300Y-1835701D01*
X+2527300Y-1872951D01*
X+2516263Y-1885368D01*
X+2505226Y-1885368D01*
X+2494189Y-1872951D01*
X+2494189Y-1835701D01*
X+2505226Y-1823285D01*
X+2549374Y-1823285D01*
X+2560411Y-1835701D01*
X+2560411Y-1872951D01*
D59*
X+2286700Y-3610800D02*
X+2286700Y-3140800D01*
X+2056700Y-3140800D01*
X+2056700Y-3610800D01*
X+2286700Y-3610800D01*
X+2121700Y-3375800D02*
X+2221700Y-3375800D01*
X+2171700Y-3325800D02*
X+2171700Y-3425800D01*
D64*
X+2171700Y-3525800D02*
X+2171700Y-3525800D01*
D66*
X+2193774Y-3388516D02*
X+2204811Y-3400932D01*
X+2204811Y-3438182D01*
X+2182737Y-3463015D01*
X+2160663Y-3463015D01*
X+2138589Y-3438182D01*
X+2138589Y-3400932D01*
X+2149626Y-3388516D01*
X+2160663Y-3338849D02*
X+2138589Y-3314016D01*
X+2204811Y-3314016D01*
X+2193774Y-3264349D02*
X+2149626Y-3264349D01*
X+2138589Y-3251933D01*
X+2138589Y-3202266D01*
X+2149626Y-3189850D01*
X+2193774Y-3189850D01*
X+2204811Y-3202266D01*
X+2204811Y-3251933D01*
X+2193774Y-3264349D01*
X+2204811Y-3264349D02*
X+2138589Y-3189850D01*
D59*
X+2020000Y-1588400D02*
X+2020000Y-1118400D01*
X+1790000Y-1118400D01*
X+1790000Y-1588400D01*
X+2020000Y-1588400D01*
X+1855000Y-1353400D02*
X+1955000Y-1353400D01*
X+1905000Y-1303400D02*
X+1905000Y-1403400D01*
D64*
X+1905000Y-1503400D02*
X+1905000Y-1503400D01*
D66*
X+1927074Y-1366116D02*
X+1938111Y-1378532D01*
X+1938111Y-1415782D01*
X+1916037Y-1440615D01*
X+1893963Y-1440615D01*
X+1871889Y-1415782D01*
X+1871889Y-1378532D01*
X+1882926Y-1366116D01*
X+1893963Y-1316449D02*
X+1871889Y-1291616D01*
X+1938111Y-1291616D01*
X+1893963Y-1217116D02*
X+1871889Y-1192283D01*
X+1938111Y-1192283D01*
D59*
X+6239600Y-3137600D02*
X+6709600Y-3137600D01*
X+6709600Y-2907600D01*
X+6239600Y-2907600D01*
X+6239600Y-3137600D01*
X+6474600Y-2972600D02*
X+6474600Y-3072600D01*
X+6524600Y-3022600D02*
X+6424600Y-3022600D01*
D64*
X+6324600Y-3022600D02*
X+6324600Y-3022600D01*
D66*
X+6461884Y-3044674D02*
X+6449468Y-3055711D01*
X+6412218Y-3055711D01*
X+6387385Y-3033637D01*
X+6387385Y-3011563D01*
X+6412218Y-2989489D01*
X+6449468Y-2989489D01*
X+6461884Y-3000526D01*
X+6511551Y-3011563D02*
X+6536384Y-2989489D01*
X+6536384Y-3055711D01*
X+6598467Y-3000526D02*
X+6610884Y-2989489D01*
X+6648134Y-2989489D01*
X+6660550Y-3000526D01*
X+6660550Y-3011563D01*
X+6648134Y-3022600D01*
X+6610884Y-3022600D01*
X+6598467Y-3033637D01*
X+6598467Y-3055711D01*
X+6660550Y-3055711D01*
D59*
X+2045400Y-3610800D02*
X+2045400Y-3140800D01*
X+1815400Y-3140800D01*
X+1815400Y-3610800D01*
X+2045400Y-3610800D01*
X+1880400Y-3375800D02*
X+1980400Y-3375800D01*
X+1930400Y-3325800D02*
X+1930400Y-3425800D01*
D64*
X+1930400Y-3525800D02*
X+1930400Y-3525800D01*
D66*
X+1952474Y-3388516D02*
X+1963511Y-3400932D01*
X+1963511Y-3438182D01*
X+1941437Y-3463015D01*
X+1919363Y-3463015D01*
X+1897289Y-3438182D01*
X+1897289Y-3400932D01*
X+1908326Y-3388516D01*
X+1919363Y-3338849D02*
X+1897289Y-3314016D01*
X+1963511Y-3314016D01*
X+1908326Y-3251933D02*
X+1897289Y-3239516D01*
X+1897289Y-3202266D01*
X+1908326Y-3189850D01*
X+1919363Y-3189850D01*
X+1930400Y-3202266D01*
X+1941437Y-3189850D01*
X+1952474Y-3189850D01*
X+1963511Y-3202266D01*
X+1963511Y-3239516D01*
X+1952474Y-3251933D01*
X+1930400Y-3227100D02*
X+1930400Y-3202266D01*
D59*
X+2705800Y-6239700D02*
X+2705800Y-5769700D01*
X+2475800Y-5769700D01*
X+2475800Y-6239700D01*
X+2705800Y-6239700D01*
X+2540800Y-6004700D02*
X+2640800Y-6004700D01*
X+2590800Y-5954700D02*
X+2590800Y-6054700D01*
D64*
X+2590800Y-6154700D02*
X+2590800Y-6154700D01*
D66*
X+2612874Y-6017416D02*
X+2623911Y-6029832D01*
X+2623911Y-6067082D01*
X+2601837Y-6091915D01*
X+2579763Y-6091915D01*
X+2557689Y-6067082D01*
X+2557689Y-6029832D01*
X+2568726Y-6017416D01*
X+2579763Y-5967749D02*
X+2557689Y-5942916D01*
X+2623911Y-5942916D01*
X+2568726Y-5818750D02*
X+2557689Y-5831166D01*
X+2557689Y-5868416D01*
X+2568726Y-5880833D01*
X+2612874Y-5880833D01*
X+2623911Y-5868416D01*
X+2623911Y-5831166D01*
X+2612874Y-5818750D01*
X+2601837Y-5818750D01*
X+2590800Y-5831166D01*
X+2590800Y-5880833D01*
D59*
X+2451800Y-6244500D02*
X+2451800Y-5774500D01*
X+2221800Y-5774500D01*
X+2221800Y-6244500D01*
X+2451800Y-6244500D01*
X+2286800Y-6009500D02*
X+2386800Y-6009500D01*
X+2336800Y-5959500D02*
X+2336800Y-6059500D01*
D64*
X+2336800Y-6159500D02*
X+2336800Y-6159500D01*
D66*
X+2358874Y-6022216D02*
X+2369911Y-6034632D01*
X+2369911Y-6071882D01*
X+2347837Y-6096715D01*
X+2325763Y-6096715D01*
X+2303689Y-6071882D01*
X+2303689Y-6034632D01*
X+2314726Y-6022216D01*
X+2325763Y-5972549D02*
X+2303689Y-5947716D01*
X+2369911Y-5947716D01*
X+2303689Y-5885633D02*
X+2303689Y-5823550D01*
X+2314726Y-5823550D01*
X+2369911Y-5885633D01*
D59*
X+1296100Y-1583600D02*
X+1296100Y-1113600D01*
X+1066100Y-1113600D01*
X+1066100Y-1583600D01*
X+1296100Y-1583600D01*
X+1131100Y-1348600D02*
X+1231100Y-1348600D01*
X+1181100Y-1298600D02*
X+1181100Y-1398600D01*
D64*
X+1181100Y-1498600D02*
X+1181100Y-1498600D01*
D66*
X+1203174Y-1361316D02*
X+1214211Y-1373732D01*
X+1214211Y-1410982D01*
X+1192137Y-1435815D01*
X+1170063Y-1435815D01*
X+1147989Y-1410982D01*
X+1147989Y-1373732D01*
X+1159026Y-1361316D01*
X+1159026Y-1324066D02*
X+1147989Y-1311649D01*
X+1147989Y-1274399D01*
X+1159026Y-1261983D01*
X+1170063Y-1261983D01*
X+1181100Y-1274399D01*
X+1181100Y-1311649D01*
X+1192137Y-1324066D01*
X+1214211Y-1324066D01*
X+1214211Y-1261983D01*
X+1203174Y-1237149D02*
X+1159026Y-1237149D01*
X+1147989Y-1224733D01*
X+1147989Y-1175066D01*
X+1159026Y-1162650D01*
X+1203174Y-1162650D01*
X+1214211Y-1175066D01*
X+1214211Y-1224733D01*
X+1203174Y-1237149D01*
X+1214211Y-1237149D02*
X+1147989Y-1162650D01*
D59*
X+1550100Y-1583600D02*
X+1550100Y-1113600D01*
X+1320100Y-1113600D01*
X+1320100Y-1583600D01*
X+1550100Y-1583600D01*
X+1385100Y-1348600D02*
X+1485100Y-1348600D01*
X+1435100Y-1298600D02*
X+1435100Y-1398600D01*
D64*
X+1435100Y-1498600D02*
X+1435100Y-1498600D01*
D66*
X+1457174Y-1361316D02*
X+1468211Y-1373732D01*
X+1468211Y-1410982D01*
X+1446137Y-1435815D01*
X+1424063Y-1435815D01*
X+1401989Y-1410982D01*
X+1401989Y-1373732D01*
X+1413026Y-1361316D01*
X+1413026Y-1324066D02*
X+1401989Y-1311649D01*
X+1401989Y-1274399D01*
X+1413026Y-1261983D01*
X+1424063Y-1261983D01*
X+1435100Y-1274399D01*
X+1435100Y-1311649D01*
X+1446137Y-1324066D01*
X+1468211Y-1324066D01*
X+1468211Y-1261983D01*
X+1424063Y-1212316D02*
X+1401989Y-1187483D01*
X+1468211Y-1187483D01*
D59*
X+1548700Y-1601000D02*
X+1548700Y-2071000D01*
X+1778700Y-2071000D01*
X+1778700Y-1601000D01*
X+1548700Y-1601000D01*
X+1713700Y-1836000D02*
X+1613700Y-1836000D01*
X+1663700Y-1886000D02*
X+1663700Y-1786000D01*
D64*
X+1663700Y-1686000D02*
X+1663700Y-1686000D01*
D66*
X+1685774Y-1972284D02*
X+1696811Y-1984700D01*
X+1696811Y-2021950D01*
X+1674737Y-2046783D01*
X+1652663Y-2046783D01*
X+1630589Y-2021950D01*
X+1630589Y-1984700D01*
X+1641626Y-1972284D01*
X+1641626Y-1935034D02*
X+1630589Y-1922617D01*
X+1630589Y-1885367D01*
X+1641626Y-1872951D01*
X+1652663Y-1872951D01*
X+1663700Y-1885367D01*
X+1663700Y-1922617D01*
X+1674737Y-1935034D01*
X+1696811Y-1935034D01*
X+1696811Y-1872951D01*
X+1641626Y-1835701D02*
X+1630589Y-1823284D01*
X+1630589Y-1786034D01*
X+1641626Y-1773618D01*
X+1652663Y-1773618D01*
X+1663700Y-1786034D01*
X+1663700Y-1823284D01*
X+1674737Y-1835701D01*
X+1696811Y-1835701D01*
X+1696811Y-1773618D01*
D59*
X+1790000Y-1601000D02*
X+1790000Y-2071000D01*
X+2020000Y-2071000D01*
X+2020000Y-1601000D01*
X+1790000Y-1601000D01*
X+1955000Y-1836000D02*
X+1855000Y-1836000D01*
X+1905000Y-1886000D02*
X+1905000Y-1786000D01*
D64*
X+1905000Y-1686000D02*
X+1905000Y-1686000D01*
D66*
X+1927074Y-1972284D02*
X+1938111Y-1984700D01*
X+1938111Y-2021950D01*
X+1916037Y-2046783D01*
X+1893963Y-2046783D01*
X+1871889Y-2021950D01*
X+1871889Y-1984700D01*
X+1882926Y-1972284D01*
X+1882926Y-1935034D02*
X+1871889Y-1922617D01*
X+1871889Y-1885367D01*
X+1882926Y-1872951D01*
X+1893963Y-1872951D01*
X+1905000Y-1885367D01*
X+1905000Y-1922617D01*
X+1916037Y-1935034D01*
X+1938111Y-1935034D01*
X+1938111Y-1872951D01*
X+1882926Y-1835701D02*
X+1871889Y-1823284D01*
X+1871889Y-1786034D01*
X+1882926Y-1773618D01*
X+1893963Y-1773618D01*
X+1905000Y-1786034D01*
X+1916037Y-1773618D01*
X+1927074Y-1773618D01*
X+1938111Y-1786034D01*
X+1938111Y-1823284D01*
X+1927074Y-1835701D01*
X+1905000Y-1810868D02*
X+1905000Y-1786034D01*
D59*
X+1151700Y-5664900D02*
X+1621700Y-5664900D01*
X+1621700Y-5434900D01*
X+1151700Y-5434900D01*
X+1151700Y-5664900D01*
X+1386700Y-5499900D02*
X+1386700Y-5599900D01*
X+1436700Y-5549900D02*
X+1336700Y-5549900D01*
D64*
X+1236700Y-5549900D02*
X+1236700Y-5549900D01*
D66*
X+1373984Y-5571974D02*
X+1361568Y-5583011D01*
X+1324318Y-5583011D01*
X+1299485Y-5560937D01*
X+1299485Y-5538863D01*
X+1324318Y-5516789D01*
X+1361568Y-5516789D01*
X+1373984Y-5527826D01*
X+1411234Y-5527826D02*
X+1423651Y-5516789D01*
X+1460901Y-5516789D01*
X+1473317Y-5527826D01*
X+1473317Y-5538863D01*
X+1460901Y-5549900D01*
X+1423651Y-5549900D01*
X+1411234Y-5560937D01*
X+1411234Y-5583011D01*
X+1473317Y-5583011D01*
X+1572650Y-5527826D02*
X+1560234Y-5516789D01*
X+1522984Y-5516789D01*
X+1510567Y-5527826D01*
X+1510567Y-5571974D01*
X+1522984Y-5583011D01*
X+1560234Y-5583011D01*
X+1572650Y-5571974D01*
X+1572650Y-5560937D01*
X+1560234Y-5549900D01*
X+1510567Y-5549900D01*
D59*
X+1151700Y-5423600D02*
X+1621700Y-5423600D01*
X+1621700Y-5193600D01*
X+1151700Y-5193600D01*
X+1151700Y-5423600D01*
X+1386700Y-5258600D02*
X+1386700Y-5358600D01*
X+1436700Y-5308600D02*
X+1336700Y-5308600D01*
D64*
X+1236700Y-5308600D02*
X+1236700Y-5308600D01*
D66*
X+1373984Y-5330674D02*
X+1361568Y-5341711D01*
X+1324318Y-5341711D01*
X+1299485Y-5319637D01*
X+1299485Y-5297563D01*
X+1324318Y-5275489D01*
X+1361568Y-5275489D01*
X+1373984Y-5286526D01*
X+1411234Y-5286526D02*
X+1423651Y-5275489D01*
X+1460901Y-5275489D01*
X+1473317Y-5286526D01*
X+1473317Y-5297563D01*
X+1460901Y-5308600D01*
X+1423651Y-5308600D01*
X+1411234Y-5319637D01*
X+1411234Y-5341711D01*
X+1473317Y-5341711D01*
X+1510567Y-5275489D02*
X+1572650Y-5275489D01*
X+1572650Y-5286526D01*
X+1510567Y-5341711D01*
D59*
X+6425500Y-1108800D02*
X+6425500Y-1578800D01*
X+6655500Y-1578800D01*
X+6655500Y-1108800D01*
X+6425500Y-1108800D01*
X+6590500Y-1343800D02*
X+6490500Y-1343800D01*
X+6540500Y-1393800D02*
X+6540500Y-1293800D01*
D64*
X+6540500Y-1193800D02*
X+6540500Y-1193800D01*
D66*
X+6562574Y-1430418D02*
X+6573611Y-1442834D01*
X+6573611Y-1480084D01*
X+6551537Y-1504917D01*
X+6529463Y-1504917D01*
X+6507389Y-1480084D01*
X+6507389Y-1442834D01*
X+6518426Y-1430418D01*
X+6518426Y-1393168D02*
X+6507389Y-1380751D01*
X+6507389Y-1343501D01*
X+6518426Y-1331085D01*
X+6529463Y-1331085D01*
X+6540500Y-1343501D01*
X+6540500Y-1380751D01*
X+6551537Y-1393168D01*
X+6573611Y-1393168D01*
X+6573611Y-1331085D01*
D59*
X+7708200Y-1108800D02*
X+7708200Y-1578800D01*
X+7938200Y-1578800D01*
X+7938200Y-1108800D01*
X+7708200Y-1108800D01*
X+7873200Y-1343800D02*
X+7773200Y-1343800D01*
X+7823200Y-1393800D02*
X+7823200Y-1293800D01*
D64*
X+7823200Y-1193800D02*
X+7823200Y-1193800D01*
D66*
X+7845274Y-1430418D02*
X+7856311Y-1442834D01*
X+7856311Y-1480084D01*
X+7834237Y-1504917D01*
X+7812163Y-1504917D01*
X+7790089Y-1480084D01*
X+7790089Y-1442834D01*
X+7801126Y-1430418D01*
X+7790089Y-1393168D02*
X+7790089Y-1331085D01*
X+7801126Y-1331085D01*
X+7856311Y-1393168D01*
D28*
X+6413500Y-2032000D02*
X+7937500Y-2032000D01*
X+7937500Y-1503680D01*
X+6413500Y-1503680D01*
X+6413500Y-2032000D01*
D67*
X+6692900Y-1765300D02*
X+6692900Y-1765300D01*
D68*
X+7040880Y-1661160D02*
X+7280910Y-1874520D01*
X+7040880Y-1874520D02*
X+7280910Y-1661160D01*
X+7440930Y-1732280D02*
X+7520940Y-1661160D01*
X+7520940Y-1874520D01*
D59*
X+7398100Y-1218500D02*
X+6938100Y-1218500D01*
X+6938100Y-1448500D01*
X+7398100Y-1448500D01*
X+7398100Y-1218500D01*
X+7168100Y-1383500D02*
X+7168100Y-1283500D01*
X+7118100Y-1333500D02*
X+7218100Y-1333500D01*
D64*
X+7313100Y-1333500D02*
X+7313100Y-1333500D01*
D65*
X+7009983Y-1365611D02*
X+7009983Y-1301389D01*
X+7070191Y-1301389D01*
X+7082232Y-1312093D01*
X+7082232Y-1322796D01*
X+7070191Y-1333500D01*
X+7009983Y-1333500D01*
X+7070191Y-1333500D02*
X+7082232Y-1344204D01*
X+7082232Y-1365611D01*
X+7130399Y-1322796D02*
X+7154482Y-1301389D01*
X+7154482Y-1365611D01*
D28*
X+9144000Y-4046220D02*
X+9560560Y-4046220D01*
X+9560560Y-3878580D01*
X+9144000Y-3878580D01*
X+9144000Y-4046220D01*
D69*
X+9194800Y-3962400D02*
X+9194800Y-3962400D01*
D74*
X+9300109Y-3993338D02*
X+9300109Y-3931463D01*
X+9346514Y-3931463D01*
X+9369717Y-3952088D01*
X+9369717Y-3972713D01*
X+9346514Y-3993338D01*
X+9300109Y-3993338D01*
X+9416122Y-3952088D02*
X+9439325Y-3931463D01*
X+9439325Y-3993338D01*
D28*
X+9144000Y-2852420D02*
X+9560560Y-2852420D01*
X+9560560Y-2684780D01*
X+9144000Y-2684780D01*
X+9144000Y-2852420D01*
D69*
X+9194800Y-2768600D02*
X+9194800Y-2768600D01*
D74*
X+9300109Y-2799538D02*
X+9300109Y-2737663D01*
X+9346514Y-2737663D01*
X+9369717Y-2758288D01*
X+9369717Y-2778913D01*
X+9346514Y-2799538D01*
X+9300109Y-2799538D01*
X+9404521Y-2747976D02*
X+9416122Y-2737663D01*
X+9450926Y-2737663D01*
X+9462528Y-2747976D01*
X+9462528Y-2758288D01*
X+9450926Y-2768600D01*
X+9416122Y-2768600D01*
X+9404521Y-2778913D01*
X+9404521Y-2799538D01*
X+9462528Y-2799538D01*
D28*
X+9144000Y-3804920D02*
X+9560560Y-3804920D01*
X+9560560Y-3637280D01*
X+9144000Y-3637280D01*
X+9144000Y-3804920D01*
D69*
X+9194800Y-3721100D02*
X+9194800Y-3721100D01*
D74*
X+9300109Y-3752038D02*
X+9300109Y-3690163D01*
X+9346514Y-3690163D01*
X+9369717Y-3710788D01*
X+9369717Y-3731413D01*
X+9346514Y-3752038D01*
X+9300109Y-3752038D01*
X+9462528Y-3731413D02*
X+9392920Y-3731413D01*
X+9439325Y-3690163D01*
X+9439325Y-3752038D01*
D28*
X+9144000Y-3563620D02*
X+9560560Y-3563620D01*
X+9560560Y-3395980D01*
X+9144000Y-3395980D01*
X+9144000Y-3563620D01*
D69*
X+9194800Y-3479800D02*
X+9194800Y-3479800D01*
D74*
X+9300109Y-3510738D02*
X+9300109Y-3448863D01*
X+9346514Y-3448863D01*
X+9369717Y-3469488D01*
X+9369717Y-3490113D01*
X+9346514Y-3510738D01*
X+9300109Y-3510738D01*
X+9462528Y-3448863D02*
X+9404521Y-3448863D01*
X+9404521Y-3469488D01*
X+9450926Y-3469488D01*
X+9462528Y-3479800D01*
X+9462528Y-3500425D01*
X+9450926Y-3510738D01*
X+9416122Y-3510738D01*
X+9404521Y-3500425D01*
D28*
X+9144000Y-3081020D02*
X+9560560Y-3081020D01*
X+9560560Y-2913380D01*
X+9144000Y-2913380D01*
X+9144000Y-3081020D01*
D69*
X+9194800Y-2997200D02*
X+9194800Y-2997200D01*
D74*
X+9253704Y-3028138D02*
X+9253704Y-2966263D01*
X+9300109Y-2966263D01*
X+9323312Y-2986888D01*
X+9323312Y-3007513D01*
X+9300109Y-3028138D01*
X+9253704Y-3028138D01*
X+9369717Y-2986888D02*
X+9392920Y-2966263D01*
X+9392920Y-3028138D01*
X+9508934Y-2966263D02*
X+9450927Y-2966263D01*
X+9450927Y-2986888D01*
X+9497332Y-2986888D01*
X+9508934Y-2997200D01*
X+9508934Y-3017825D01*
X+9497332Y-3028138D01*
X+9462528Y-3028138D01*
X+9450927Y-3017825D01*
D28*
X+9144000Y-3322320D02*
X+9560560Y-3322320D01*
X+9560560Y-3154680D01*
X+9144000Y-3154680D01*
X+9144000Y-3322320D01*
D69*
X+9194800Y-3238500D02*
X+9194800Y-3238500D01*
D74*
X+9253704Y-3269438D02*
X+9253704Y-3207563D01*
X+9300109Y-3207563D01*
X+9323312Y-3228188D01*
X+9323312Y-3248813D01*
X+9300109Y-3269438D01*
X+9253704Y-3269438D01*
X+9369717Y-3228188D02*
X+9392920Y-3207563D01*
X+9392920Y-3269438D01*
X+9508934Y-3217876D02*
X+9497332Y-3207563D01*
X+9462528Y-3207563D01*
X+9450927Y-3217876D01*
X+9450927Y-3259125D01*
X+9462528Y-3269438D01*
X+9497332Y-3269438D01*
X+9508934Y-3259125D01*
X+9508934Y-3248813D01*
X+9497332Y-3238500D01*
X+9450927Y-3238500D01*
D59*
X+9023260Y-2882200D02*
X+8563260Y-2882200D01*
X+8563260Y-3112200D01*
X+9023260Y-3112200D01*
X+9023260Y-2882200D01*
X+8793260Y-3047200D02*
X+8793260Y-2947200D01*
X+8743260Y-2997200D02*
X+8843260Y-2997200D01*
D64*
X+8938260Y-2997200D02*
X+8938260Y-2997200D01*
D65*
X+8586977Y-3029311D02*
X+8586977Y-2965089D01*
X+8647185Y-2965089D01*
X+8659226Y-2975793D01*
X+8659226Y-2986496D01*
X+8647185Y-2997200D01*
X+8586977Y-2997200D01*
X+8647185Y-2997200D02*
X+8659226Y-3007904D01*
X+8659226Y-3029311D01*
X+8707393Y-2986496D02*
X+8731476Y-2965089D01*
X+8731476Y-3029311D01*
X+8851892Y-2986496D02*
X+8839851Y-2997200D01*
X+8803726Y-2997200D01*
X+8791684Y-2986496D01*
X+8791684Y-2975793D01*
X+8803726Y-2965089D01*
X+8839851Y-2965089D01*
X+8851892Y-2975793D01*
X+8851892Y-3018607D01*
X+8839851Y-3029311D01*
X+8803726Y-3029311D01*
D59*
X+9023260Y-3123500D02*
X+8563260Y-3123500D01*
X+8563260Y-3353500D01*
X+9023260Y-3353500D01*
X+9023260Y-3123500D01*
X+8793260Y-3288500D02*
X+8793260Y-3188500D01*
X+8743260Y-3238500D02*
X+8843260Y-3238500D01*
D64*
X+8938260Y-3238500D02*
X+8938260Y-3238500D01*
D65*
X+8586977Y-3270611D02*
X+8586977Y-3206389D01*
X+8647185Y-3206389D01*
X+8659226Y-3217093D01*
X+8659226Y-3227796D01*
X+8647185Y-3238500D01*
X+8586977Y-3238500D01*
X+8647185Y-3238500D02*
X+8659226Y-3249204D01*
X+8659226Y-3270611D01*
X+8695351Y-3217093D02*
X+8707393Y-3206389D01*
X+8743518Y-3206389D01*
X+8755559Y-3217093D01*
X+8755559Y-3227796D01*
X+8743518Y-3238500D01*
X+8707393Y-3238500D01*
X+8695351Y-3249204D01*
X+8695351Y-3270611D01*
X+8755559Y-3270611D01*
X+8779643Y-3259907D02*
X+8779643Y-3217093D01*
X+8791684Y-3206389D01*
X+8839851Y-3206389D01*
X+8851892Y-3217093D01*
X+8851892Y-3259907D01*
X+8839851Y-3270611D01*
X+8791684Y-3270611D01*
X+8779643Y-3259907D01*
X+8779643Y-3270611D02*
X+8851892Y-3206389D01*
D59*
X+9023260Y-3847400D02*
X+8563260Y-3847400D01*
X+8563260Y-4077400D01*
X+9023260Y-4077400D01*
X+9023260Y-3847400D01*
X+8793260Y-4012400D02*
X+8793260Y-3912400D01*
X+8743260Y-3962400D02*
X+8843260Y-3962400D01*
D64*
X+8938260Y-3962400D02*
X+8938260Y-3962400D01*
D65*
X+8586977Y-3994511D02*
X+8586977Y-3930289D01*
X+8647185Y-3930289D01*
X+8659226Y-3940993D01*
X+8659226Y-3951696D01*
X+8647185Y-3962400D01*
X+8586977Y-3962400D01*
X+8647185Y-3962400D02*
X+8659226Y-3973104D01*
X+8659226Y-3994511D01*
X+8695351Y-3940993D02*
X+8707393Y-3930289D01*
X+8743518Y-3930289D01*
X+8755559Y-3940993D01*
X+8755559Y-3951696D01*
X+8743518Y-3962400D01*
X+8707393Y-3962400D01*
X+8695351Y-3973104D01*
X+8695351Y-3994511D01*
X+8755559Y-3994511D01*
X+8791684Y-3940993D02*
X+8803726Y-3930289D01*
X+8839851Y-3930289D01*
X+8851892Y-3940993D01*
X+8851892Y-3951696D01*
X+8839851Y-3962400D01*
X+8803726Y-3962400D01*
X+8791684Y-3973104D01*
X+8791684Y-3994511D01*
X+8851892Y-3994511D01*
D59*
X+9021160Y-3606100D02*
X+8561160Y-3606100D01*
X+8561160Y-3836100D01*
X+9021160Y-3836100D01*
X+9021160Y-3606100D01*
X+8791160Y-3771100D02*
X+8791160Y-3671100D01*
X+8741160Y-3721100D02*
X+8841160Y-3721100D01*
D64*
X+8936160Y-3721100D02*
X+8936160Y-3721100D01*
D65*
X+8584877Y-3753211D02*
X+8584877Y-3688989D01*
X+8645085Y-3688989D01*
X+8657126Y-3699693D01*
X+8657126Y-3710396D01*
X+8645085Y-3721100D01*
X+8584877Y-3721100D01*
X+8645085Y-3721100D02*
X+8657126Y-3731804D01*
X+8657126Y-3753211D01*
X+8693251Y-3699693D02*
X+8705293Y-3688989D01*
X+8741418Y-3688989D01*
X+8753459Y-3699693D01*
X+8753459Y-3710396D01*
X+8741418Y-3721100D01*
X+8753459Y-3731804D01*
X+8753459Y-3742507D01*
X+8741418Y-3753211D01*
X+8705293Y-3753211D01*
X+8693251Y-3742507D01*
X+8717334Y-3721100D02*
X+8741418Y-3721100D01*
X+8801626Y-3710396D02*
X+8825709Y-3688989D01*
X+8825709Y-3753211D01*
D59*
X+9023260Y-3364800D02*
X+8563260Y-3364800D01*
X+8563260Y-3594800D01*
X+9023260Y-3594800D01*
X+9023260Y-3364800D01*
X+8793260Y-3529800D02*
X+8793260Y-3429800D01*
X+8743260Y-3479800D02*
X+8843260Y-3479800D01*
D64*
X+8938260Y-3479800D02*
X+8938260Y-3479800D01*
D65*
X+8586977Y-3511911D02*
X+8586977Y-3447689D01*
X+8647185Y-3447689D01*
X+8659226Y-3458393D01*
X+8659226Y-3469096D01*
X+8647185Y-3479800D01*
X+8586977Y-3479800D01*
X+8647185Y-3479800D02*
X+8659226Y-3490504D01*
X+8659226Y-3511911D01*
X+8695351Y-3458393D02*
X+8707393Y-3447689D01*
X+8743518Y-3447689D01*
X+8755559Y-3458393D01*
X+8755559Y-3469096D01*
X+8743518Y-3479800D01*
X+8755559Y-3490504D01*
X+8755559Y-3501207D01*
X+8743518Y-3511911D01*
X+8707393Y-3511911D01*
X+8695351Y-3501207D01*
X+8719434Y-3479800D02*
X+8743518Y-3479800D01*
X+8791684Y-3458393D02*
X+8803726Y-3447689D01*
X+8839851Y-3447689D01*
X+8851892Y-3458393D01*
X+8851892Y-3469096D01*
X+8839851Y-3479800D01*
X+8803726Y-3479800D01*
X+8791684Y-3490504D01*
X+8791684Y-3511911D01*
X+8851892Y-3511911D01*
D59*
X+9021160Y-2653600D02*
X+8561160Y-2653600D01*
X+8561160Y-2883600D01*
X+9021160Y-2883600D01*
X+9021160Y-2653600D01*
X+8791160Y-2818600D02*
X+8791160Y-2718600D01*
X+8741160Y-2768600D02*
X+8841160Y-2768600D01*
D64*
X+8936160Y-2768600D02*
X+8936160Y-2768600D01*
D65*
X+8584877Y-2800711D02*
X+8584877Y-2736489D01*
X+8645085Y-2736489D01*
X+8657126Y-2747193D01*
X+8657126Y-2757896D01*
X+8645085Y-2768600D01*
X+8584877Y-2768600D01*
X+8645085Y-2768600D02*
X+8657126Y-2779304D01*
X+8657126Y-2800711D01*
X+8753459Y-2779304D02*
X+8681210Y-2779304D01*
X+8729376Y-2736489D01*
X+8729376Y-2800711D01*
X+8849792Y-2779304D02*
X+8777543Y-2779304D01*
X+8825709Y-2736489D01*
X+8825709Y-2800711D01*
D59*
X+5728900Y-2030000D02*
X+3388900Y-2030000D01*
X+3388900Y-4370000D01*
X+5728900Y-4370000D01*
X+5728900Y-2030000D01*
X+4558900Y-3250000D02*
X+4558900Y-3150000D01*
X+4508900Y-3200000D02*
X+4608900Y-3200000D01*
D75*
X+5628900Y-4075000D02*
X+5628900Y-4075000D01*
D76*
X+4337577Y-3693074D02*
X+4611507Y-3693074D01*
X+4666293Y-3631440D01*
X+4666293Y-3384903D01*
X+4611507Y-3323269D01*
X+4337577Y-3323269D01*
X+4392363Y-3138366D02*
X+4337577Y-3076732D01*
X+4337577Y-2891829D01*
X+4392363Y-2830195D01*
X+4447149Y-2830195D01*
X+4501935Y-2891829D01*
X+4501935Y-3076732D01*
X+4556721Y-3138366D01*
X+4666293Y-3138366D01*
X+4666293Y-2830195D01*
D59*
X+1307400Y-1601000D02*
X+1307400Y-2071000D01*
X+1537400Y-2071000D01*
X+1537400Y-1601000D01*
X+1307400Y-1601000D01*
X+1472400Y-1836000D02*
X+1372400Y-1836000D01*
X+1422400Y-1886000D02*
X+1422400Y-1786000D01*
D64*
X+1422400Y-1686000D02*
X+1422400Y-1686000D01*
D66*
X+1444474Y-1972284D02*
X+1455511Y-1984700D01*
X+1455511Y-2021950D01*
X+1433437Y-2046783D01*
X+1411363Y-2046783D01*
X+1389289Y-2021950D01*
X+1389289Y-1984700D01*
X+1400326Y-1972284D01*
X+1400326Y-1935034D02*
X+1389289Y-1922617D01*
X+1389289Y-1885367D01*
X+1400326Y-1872951D01*
X+1411363Y-1872951D01*
X+1422400Y-1885367D01*
X+1422400Y-1922617D01*
X+1433437Y-1935034D01*
X+1455511Y-1935034D01*
X+1455511Y-1872951D01*
X+1422400Y-1823284D02*
X+1411363Y-1835701D01*
X+1400326Y-1835701D01*
X+1389289Y-1823284D01*
X+1389289Y-1786034D01*
X+1400326Y-1773618D01*
X+1411363Y-1773618D01*
X+1422400Y-1786034D01*
X+1422400Y-1823284D01*
X+1433437Y-1835701D01*
X+1444474Y-1835701D01*
X+1455511Y-1823284D01*
X+1455511Y-1786034D01*
X+1444474Y-1773618D01*
X+1433437Y-1773618D01*
X+1422400Y-1786034D01*
D59*
X+1066100Y-1601000D02*
X+1066100Y-2071000D01*
X+1296100Y-2071000D01*
X+1296100Y-1601000D01*
X+1066100Y-1601000D01*
X+1231100Y-1836000D02*
X+1131100Y-1836000D01*
X+1181100Y-1886000D02*
X+1181100Y-1786000D01*
D64*
X+1181100Y-1686000D02*
X+1181100Y-1686000D01*
D66*
X+1203174Y-1972284D02*
X+1214211Y-1984700D01*
X+1214211Y-2021950D01*
X+1192137Y-2046783D01*
X+1170063Y-2046783D01*
X+1147989Y-2021950D01*
X+1147989Y-1984700D01*
X+1159026Y-1972284D01*
X+1159026Y-1935034D02*
X+1147989Y-1922617D01*
X+1147989Y-1885367D01*
X+1159026Y-1872951D01*
X+1170063Y-1872951D01*
X+1181100Y-1885367D01*
X+1181100Y-1922617D01*
X+1192137Y-1935034D01*
X+1214211Y-1935034D01*
X+1214211Y-1872951D01*
X+1170063Y-1773618D02*
X+1181100Y-1786034D01*
X+1181100Y-1823284D01*
X+1170063Y-1835701D01*
X+1159026Y-1835701D01*
X+1147989Y-1823284D01*
X+1147989Y-1786034D01*
X+1159026Y-1773618D01*
X+1203174Y-1773618D01*
X+1214211Y-1786034D01*
X+1214211Y-1823284D01*
D59*
X+6358800Y-4177600D02*
X+5898800Y-4177600D01*
X+5898800Y-4407600D01*
X+6358800Y-4407600D01*
X+6358800Y-4177600D01*
X+6128800Y-4342600D02*
X+6128800Y-4242600D01*
X+6078800Y-4292600D02*
X+6178800Y-4292600D01*
D64*
X+6273800Y-4292600D02*
X+6273800Y-4292600D01*
D65*
X+5970683Y-4324711D02*
X+5970683Y-4260489D01*
X+6030891Y-4260489D01*
X+6042932Y-4271193D01*
X+6042932Y-4281896D01*
X+6030891Y-4292600D01*
X+5970683Y-4292600D01*
X+6030891Y-4292600D02*
X+6042932Y-4303304D01*
X+6042932Y-4324711D01*
X+6079057Y-4271193D02*
X+6091099Y-4260489D01*
X+6127224Y-4260489D01*
X+6139265Y-4271193D01*
X+6139265Y-4281896D01*
X+6127224Y-4292600D01*
X+6091099Y-4292600D01*
X+6079057Y-4303304D01*
X+6079057Y-4324711D01*
X+6139265Y-4324711D01*
D59*
X+2705800Y-5749200D02*
X+2705800Y-5289200D01*
X+2475800Y-5289200D01*
X+2475800Y-5749200D01*
X+2705800Y-5749200D01*
X+2540800Y-5519200D02*
X+2640800Y-5519200D01*
X+2590800Y-5469200D02*
X+2590800Y-5569200D01*
D64*
X+2590800Y-5664200D02*
X+2590800Y-5664200D01*
D65*
X+2622911Y-5553749D02*
X+2558689Y-5553749D01*
X+2558689Y-5493541D01*
X+2569393Y-5481500D01*
X+2580096Y-5481500D01*
X+2590800Y-5493541D01*
X+2590800Y-5553749D01*
X+2590800Y-5493541D02*
X+2601504Y-5481500D01*
X+2622911Y-5481500D01*
X+2558689Y-5385167D02*
X+2558689Y-5445375D01*
X+2580096Y-5445375D01*
X+2580096Y-5397208D01*
X+2590800Y-5385167D01*
X+2612207Y-5385167D01*
X+2622911Y-5397208D01*
X+2622911Y-5433333D01*
X+2612207Y-5445375D01*
D73*
X-898880Y-4332300D02*
X-898880Y-4583760D01*
X+51080Y-4583760D01*
X+51080Y-4332300D01*
X-898880Y-4332300D01*
X-898880Y-4583760D01*
X+51080Y-4583760D01*
X+51080Y-4332300D01*
X-898880Y-4332300D01*
D52*
X-723900Y-4457700D02*
X-723900Y-4457700D01*
D55*
X-462419Y-4509770D02*
X-462419Y-4406291D01*
X-365408Y-4406291D01*
X-346005Y-4423537D01*
X-346005Y-4440784D01*
X-365408Y-4458030D01*
X-346005Y-4475277D01*
X-346005Y-4492524D01*
X-365408Y-4509770D01*
X-462419Y-4509770D01*
X-462419Y-4458030D02*
X-365408Y-4458030D01*
X-307200Y-4406291D02*
X-190786Y-4406291D01*
X-248993Y-4406291D02*
X-248993Y-4509770D01*
D73*
X-898880Y-4789500D02*
X-898880Y-5040960D01*
X+51080Y-5040960D01*
X+51080Y-4789500D01*
X-898880Y-4789500D01*
X-898880Y-5040960D01*
X+51080Y-5040960D01*
X+51080Y-4789500D01*
X-898880Y-4789500D01*
D52*
X-723900Y-4914900D02*
X-723900Y-4914900D01*
D55*
X-462419Y-4966970D02*
X-462419Y-4863491D01*
X-346005Y-4863491D01*
X-462419Y-4915230D02*
X-384810Y-4915230D01*
X-307200Y-4966970D02*
X-307200Y-4863491D01*
X-248993Y-4915230D01*
X-190786Y-4863491D01*
X-190786Y-4966970D01*
D59*
X+6082600Y-2104200D02*
X+6082600Y-2574200D01*
X+6312600Y-2574200D01*
X+6312600Y-2104200D01*
X+6082600Y-2104200D01*
X+6247600Y-2339200D02*
X+6147600Y-2339200D01*
X+6197600Y-2389200D02*
X+6197600Y-2289200D01*
D64*
X+6197600Y-2189200D02*
X+6197600Y-2189200D01*
D66*
X+6219674Y-2475484D02*
X+6230711Y-2487900D01*
X+6230711Y-2525150D01*
X+6208637Y-2549983D01*
X+6186563Y-2549983D01*
X+6164489Y-2525150D01*
X+6164489Y-2487900D01*
X+6175526Y-2475484D01*
X+6186563Y-2425817D02*
X+6164489Y-2400984D01*
X+6230711Y-2400984D01*
X+6208637Y-2276818D02*
X+6208637Y-2351317D01*
X+6164489Y-2301651D01*
X+6230711Y-2301651D01*
D59*
X+6349300Y-2406300D02*
X+6349300Y-2866300D01*
X+6579300Y-2866300D01*
X+6579300Y-2406300D01*
X+6349300Y-2406300D01*
X+6514300Y-2636300D02*
X+6414300Y-2636300D01*
X+6464300Y-2686300D02*
X+6464300Y-2586300D01*
D64*
X+6464300Y-2491300D02*
X+6464300Y-2491300D01*
D65*
X+6496411Y-2794417D02*
X+6432189Y-2794417D01*
X+6432189Y-2734209D01*
X+6442893Y-2722168D01*
X+6453596Y-2722168D01*
X+6464300Y-2734209D01*
X+6464300Y-2794417D01*
X+6464300Y-2734209D02*
X+6475004Y-2722168D01*
X+6496411Y-2722168D01*
X+6442893Y-2625835D02*
X+6432189Y-2637876D01*
X+6432189Y-2674001D01*
X+6442893Y-2686043D01*
X+6485707Y-2686043D01*
X+6496411Y-2674001D01*
X+6496411Y-2637876D01*
X+6485707Y-2625835D01*
X+6475004Y-2625835D01*
X+6464300Y-2637876D01*
X+6464300Y-2686043D01*
D77*
X+8376500Y-1543100D02*
X+9276500Y-1543100D01*
X+9276500Y-2293112D01*
X+8376500Y-2293112D01*
X+8376500Y-1543100D01*
D78*
X+8501500Y-1718100D02*
X+8501500Y-1718100D01*
D79*
X+8846751Y-2115336D02*
X+8956324Y-2115336D01*
X+8978238Y-2090683D01*
X+8978238Y-1992068D01*
X+8956324Y-1967414D01*
X+8846751Y-1967414D01*
X+8890580Y-1868799D02*
X+8846751Y-1819491D01*
X+8978238Y-1819491D01*
M02*
