G04 PROTEUS RS274X GERBER FILE*
%FSLAX45Y45*%
%MOMM*%
G01*
%ADD28C,0.203200*%
%ADD59C,0.050000*%
%ADD64C,0.721360*%
%ADD66C,0.110370*%
D28*
X-1079500Y-6413500D02*
X+9715500Y-6413500D01*
X+9715500Y-1016000D01*
X-1079500Y-1016000D01*
X-1079500Y-6413500D01*
D59*
X-329500Y-2886800D02*
X-329500Y-3356800D01*
X-559500Y-3356800D01*
X-559500Y-2886800D01*
X-329500Y-2886800D01*
X-494500Y-3121800D02*
X-394500Y-3121800D01*
X-444500Y-3171800D02*
X-444500Y-3071800D01*
D64*
X-444500Y-2971800D02*
X-444500Y-2971800D01*
D66*
X-422426Y-3109084D02*
X-411389Y-3096668D01*
X-411389Y-3059418D01*
X-433463Y-3034585D01*
X-455537Y-3034585D01*
X-477611Y-3059418D01*
X-477611Y-3096668D01*
X-466574Y-3109084D01*
X-466574Y-3146334D02*
X-477611Y-3158751D01*
X-477611Y-3196001D01*
X-466574Y-3208417D01*
X-455537Y-3208417D01*
X-444500Y-3196001D01*
X-444500Y-3158751D01*
X-433463Y-3146334D01*
X-411389Y-3146334D01*
X-411389Y-3208417D01*
X-433463Y-3307750D02*
X-433463Y-3233251D01*
X-477611Y-3282917D01*
X-411389Y-3282917D01*
D59*
X-75500Y-2886800D02*
X-75500Y-3356800D01*
X-305500Y-3356800D01*
X-305500Y-2886800D01*
X-75500Y-2886800D01*
X-240500Y-3121800D02*
X-140500Y-3121800D01*
X-190500Y-3171800D02*
X-190500Y-3071800D01*
D64*
X-190500Y-2971800D02*
X-190500Y-2971800D01*
D66*
X-168426Y-3109084D02*
X-157389Y-3096668D01*
X-157389Y-3059418D01*
X-179463Y-3034585D01*
X-201537Y-3034585D01*
X-223611Y-3059418D01*
X-223611Y-3096668D01*
X-212574Y-3109084D01*
X-212574Y-3146334D02*
X-223611Y-3158751D01*
X-223611Y-3196001D01*
X-212574Y-3208417D01*
X-201537Y-3208417D01*
X-190500Y-3196001D01*
X-190500Y-3158751D01*
X-179463Y-3146334D01*
X-157389Y-3146334D01*
X-157389Y-3208417D01*
X-223611Y-3307750D02*
X-223611Y-3245667D01*
X-201537Y-3245667D01*
X-201537Y-3295334D01*
X-190500Y-3307750D01*
X-168426Y-3307750D01*
X-157389Y-3295334D01*
X-157389Y-3258084D01*
X-168426Y-3245667D01*
M02*
