G04 PROTEUS RS274X GERBER FILE*
%FSLAX45Y45*%
%MOMM*%
G01*
%ADD10C,0.254000*%
%ADD11C,0.762000*%
%ADD12C,0.762000*%
%AMDIL003*
4,1,8,
-1.270000,0.457200,-0.965200,0.762000,0.965200,0.762000,1.270000,0.457200,1.270000,-0.457200,
0.965200,-0.762000,-0.965200,-0.762000,-1.270000,-0.457200,-1.270000,0.457200,
0*%
%ADD13DIL003*%
%AMDIL004*
4,1,8,
-0.762000,0.965200,-0.457200,1.270000,0.457200,1.270000,0.762000,0.965200,0.762000,-0.965200,
0.457200,-1.270000,-0.457200,-1.270000,-0.762000,-0.965200,-0.762000,0.965200,
0*%
%ADD14DIL004*%
%ADD15C,6.350000*%
%ADD16R,1.778000X1.778000*%
%ADD17R,1.041400X1.397000*%
%ADD18R,2.743200X0.990600*%
%ADD19R,6.146800X5.562600*%
%ADD70R,1.803400X1.143000*%
%ADD71R,1.143000X1.803400*%
%ADD20R,5.588000X2.032000*%
%ADD21R,1.016000X1.524000*%
%ADD22R,1.524000X0.254000*%
%ADD23R,0.254000X1.524000*%
%ADD24R,0.304800X1.498600*%
%ADD25R,1.498600X0.304800*%
%ADD26C,0.228600*%
%ADD27R,2.032000X2.032000*%
%ADD28C,0.203200*%
G36*
X+9672320Y-6370320D02*
X-1036320Y-6370320D01*
X-1036320Y-1059180D01*
X+9672320Y-1059180D01*
X+9672320Y-6370320D01*
G37*
%LPC*%
G36*
X+9405619Y-4890719D02*
X+9405619Y-5290719D01*
X+9085581Y-5290719D01*
X+9085581Y-4672281D01*
X+9405619Y-4672281D01*
X+9405619Y-4890719D01*
G37*
G36*
X+8465719Y-6065519D02*
X+7247281Y-6065519D01*
X+7247281Y-5745481D01*
X+8465719Y-5745481D01*
X+8465719Y-6065519D01*
G37*
G36*
X+8920481Y-6114190D02*
X+8920481Y-5823810D01*
X+9125810Y-5618481D01*
X+9416190Y-5618481D01*
X+9621519Y-5823810D01*
X+9621519Y-6114190D01*
X+9416190Y-6319519D01*
X+9125810Y-6319519D01*
X+8920481Y-6114190D01*
G37*
G36*
X-985519Y-6114190D02*
X-985519Y-5823810D01*
X-780190Y-5618481D01*
X-489810Y-5618481D01*
X-284481Y-5823810D01*
X-284481Y-6114190D01*
X-489810Y-6319519D01*
X-780190Y-6319519D01*
X-985519Y-6114190D01*
G37*
G36*
X+3570212Y-5426368D02*
X+3570212Y-5485284D01*
X+3538219Y-5517277D01*
X+3538219Y-5810363D01*
X+3820940Y-6093084D01*
X+4671133Y-6093084D01*
X+4678782Y-6085435D01*
X+4678782Y-6065519D01*
X+4015281Y-6065519D01*
X+4015281Y-5745481D01*
X+5233719Y-5745481D01*
X+5233719Y-6065519D01*
X+5170219Y-6065519D01*
X+5170219Y-6259805D01*
X+5075918Y-6354106D01*
X+3697043Y-6354106D01*
X+3246927Y-5903990D01*
X+3246927Y-5553678D01*
X+3233418Y-5553678D01*
X+3191757Y-5512017D01*
X+3191757Y-5453101D01*
X+3233418Y-5411440D01*
X+3292334Y-5411440D01*
X+3320807Y-5439913D01*
X+3320807Y-5434927D01*
X+3362468Y-5393266D01*
X+3421384Y-5393266D01*
X+3441230Y-5413112D01*
X+3469635Y-5384707D01*
X+3528551Y-5384707D01*
X+3570212Y-5426368D01*
G37*
G36*
X+6795719Y-6065519D02*
X+5577281Y-6065519D01*
X+5577281Y-5745481D01*
X+6795719Y-5745481D01*
X+6795719Y-6065519D01*
G37*
G36*
X+2904489Y-1152881D02*
X+4272309Y-1152881D01*
X+4441565Y-1322137D01*
X+4441565Y-1360011D01*
X+4441564Y-1555992D01*
X+4430375Y-1567181D01*
X+4451463Y-1567181D01*
X+4483473Y-1535171D01*
X+4838005Y-1535171D01*
X+4930391Y-1627557D01*
X+4930391Y-1731393D01*
X+4829619Y-1832165D01*
X+4829619Y-1832626D01*
X+4853390Y-1808855D01*
X+4912306Y-1808855D01*
X+4953967Y-1850516D01*
X+4953967Y-1886437D01*
X+4979619Y-1912089D01*
X+4979619Y-2020781D01*
X+5088181Y-2020781D01*
X+5088181Y-1571437D01*
X+5086463Y-1569719D01*
X+5050542Y-1569719D01*
X+5008881Y-1528058D01*
X+5008881Y-1469142D01*
X+5050542Y-1427481D01*
X+5109458Y-1427481D01*
X+5151119Y-1469142D01*
X+5151119Y-1505063D01*
X+5179619Y-1533563D01*
X+5179619Y-2022051D01*
X+5188181Y-2022051D01*
X+5188181Y-2020781D01*
X+5288181Y-2020781D01*
X+5288181Y-1860763D01*
X+5325225Y-1823719D01*
X+5279142Y-1823719D01*
X+5237481Y-1782058D01*
X+5237481Y-1723142D01*
X+5279142Y-1681481D01*
X+5338058Y-1681481D01*
X+5363458Y-1706881D01*
X+5670437Y-1706881D01*
X+6041107Y-2077551D01*
X+6041107Y-2284170D01*
X+5954558Y-2370719D01*
X+5738119Y-2370719D01*
X+5738119Y-2529281D01*
X+5812099Y-2529281D01*
X+5879518Y-2461862D01*
X+5879518Y-2425941D01*
X+5921179Y-2384280D01*
X+5980095Y-2384280D01*
X+6021756Y-2425941D01*
X+6021756Y-2443481D01*
X+6074411Y-2443481D01*
X+6074411Y-2399031D01*
X+6320789Y-2399031D01*
X+6320789Y-2443481D01*
X+6341111Y-2443481D01*
X+6341111Y-2401131D01*
X+6587489Y-2401131D01*
X+6587489Y-2430781D01*
X+6777742Y-2430781D01*
X+6803142Y-2405381D01*
X+6862058Y-2405381D01*
X+6903719Y-2447042D01*
X+6903719Y-2505958D01*
X+6862058Y-2547619D01*
X+6803142Y-2547619D01*
X+6777742Y-2522219D01*
X+6587489Y-2522219D01*
X+6587489Y-2579281D01*
X+6999182Y-2579281D01*
X+7122174Y-2456289D01*
X+7122174Y-1872456D01*
X+7064942Y-1815224D01*
X+7005319Y-1815224D01*
X+7005319Y-1899919D01*
X+6380481Y-1899919D01*
X+6380481Y-1630681D01*
X+6486338Y-1630681D01*
X+6486338Y-1583969D01*
X+6417311Y-1583969D01*
X+6417311Y-1403631D01*
X+6494781Y-1403631D01*
X+6494781Y-1378063D01*
X+6585063Y-1287781D01*
X+6932931Y-1287781D01*
X+6932931Y-1210311D01*
X+7113269Y-1210311D01*
X+7113269Y-1456689D01*
X+6932931Y-1456689D01*
X+6932931Y-1379219D01*
X+6622937Y-1379219D01*
X+6598525Y-1403631D01*
X+6663689Y-1403631D01*
X+6663689Y-1583969D01*
X+6577776Y-1583969D01*
X+6577776Y-1630681D01*
X+7005319Y-1630681D01*
X+7005319Y-1723786D01*
X+7102816Y-1723786D01*
X+7191087Y-1812057D01*
X+7270863Y-1732281D01*
X+7345681Y-1732281D01*
X+7345681Y-1630681D01*
X+7777481Y-1630681D01*
X+7777481Y-1583969D01*
X+7700011Y-1583969D01*
X+7700011Y-1403631D01*
X+7766197Y-1403631D01*
X+7741785Y-1379219D01*
X+7403269Y-1379219D01*
X+7403269Y-1456689D01*
X+7222931Y-1456689D01*
X+7222931Y-1210311D01*
X+7403269Y-1210311D01*
X+7403269Y-1287781D01*
X+7779659Y-1287781D01*
X+7866094Y-1374216D01*
X+7866094Y-1403631D01*
X+7946389Y-1403631D01*
X+7946389Y-1583969D01*
X+7868919Y-1583969D01*
X+7868919Y-1630681D01*
X+7970519Y-1630681D01*
X+7970519Y-1899919D01*
X+7345681Y-1899919D01*
X+7345681Y-1823719D01*
X+7308737Y-1823719D01*
X+7259319Y-1873137D01*
X+7259319Y-2488622D01*
X+7625560Y-2122381D01*
X+8366881Y-2122381D01*
X+8366881Y-2033481D01*
X+8636119Y-2033481D01*
X+8636119Y-2122381D01*
X+9016881Y-2122381D01*
X+9016881Y-2033481D01*
X+9286119Y-2033481D01*
X+9286119Y-2302719D01*
X+9016881Y-2302719D01*
X+9016881Y-2213819D01*
X+8636119Y-2213819D01*
X+8636119Y-2302719D01*
X+8366881Y-2302719D01*
X+8366881Y-2213819D01*
X+7663434Y-2213819D01*
X+7047241Y-2830012D01*
X+6884532Y-2830012D01*
X+6859132Y-2855412D01*
X+6800216Y-2855412D01*
X+6758555Y-2813751D01*
X+6758555Y-2754835D01*
X+6792671Y-2720719D01*
X+6587489Y-2720719D01*
X+6587489Y-2729281D01*
X+6622399Y-2729281D01*
X+6670545Y-2777427D01*
X+6670545Y-2899411D01*
X+6714769Y-2899411D01*
X+6714769Y-3145789D01*
X+6670545Y-3145789D01*
X+6670545Y-3168537D01*
X+6589513Y-3249569D01*
X+6570575Y-3249569D01*
X+6175212Y-3249570D01*
X+6046361Y-3120719D01*
X+5738119Y-3120719D01*
X+5738119Y-3179281D01*
X+5918795Y-3179281D01*
X+6030811Y-3291297D01*
X+6066732Y-3291297D01*
X+6108393Y-3332958D01*
X+6108393Y-3391874D01*
X+6066732Y-3433535D01*
X+6007816Y-3433535D01*
X+5966155Y-3391874D01*
X+5966155Y-3355953D01*
X+5880921Y-3270719D01*
X+5738119Y-3270719D01*
X+5738119Y-3479281D01*
X+7387781Y-3479281D01*
X+7387781Y-3471744D01*
X+7429442Y-3430083D01*
X+7488358Y-3430083D01*
X+7530019Y-3471744D01*
X+7530019Y-3530660D01*
X+7488358Y-3572321D01*
X+7429442Y-3572321D01*
X+7427840Y-3570719D01*
X+5738119Y-3570719D01*
X+5738119Y-3579281D01*
X+8045563Y-3579281D01*
X+8113662Y-3511182D01*
X+8113662Y-3021706D01*
X+8331992Y-2803376D01*
X+8555991Y-2803376D01*
X+8555991Y-2645411D01*
X+8736329Y-2645411D01*
X+8736329Y-2874011D01*
X+8738429Y-2874011D01*
X+8738429Y-3602989D01*
X+8558091Y-3602989D01*
X+8558091Y-3449319D01*
X+8440359Y-3449319D01*
X+8424043Y-3465635D01*
X+8424043Y-3701119D01*
X+8313216Y-3811946D01*
X+8555991Y-3811946D01*
X+8555991Y-3661411D01*
X+8736329Y-3661411D01*
X+8736329Y-3907789D01*
X+8555991Y-3907789D01*
X+8555991Y-3903384D01*
X+8289672Y-3903384D01*
X+8276869Y-3916187D01*
X+8558091Y-3916187D01*
X+8558091Y-3915411D01*
X+8738429Y-3915411D01*
X+8738429Y-4161789D01*
X+8558091Y-4161789D01*
X+8558091Y-4007625D01*
X+8274431Y-4007625D01*
X+8211337Y-4070719D01*
X+5981963Y-4070719D01*
X+6029519Y-4118275D01*
X+6029519Y-4169411D01*
X+6073969Y-4169411D01*
X+6073969Y-4415789D01*
X+5893631Y-4415789D01*
X+5893631Y-4169411D01*
X+5938081Y-4169411D01*
X+5938081Y-4156149D01*
X+5902651Y-4120719D01*
X+5519681Y-4120719D01*
X+5519681Y-2279281D01*
X+5916684Y-2279281D01*
X+5949669Y-2246296D01*
X+5949669Y-2115425D01*
X+5918924Y-2084680D01*
X+5918924Y-2117297D01*
X+5944324Y-2142697D01*
X+5944324Y-2201613D01*
X+5902663Y-2243274D01*
X+5843747Y-2243274D01*
X+5802086Y-2201613D01*
X+5802086Y-2142697D01*
X+5827486Y-2117297D01*
X+5827486Y-2100029D01*
X+5620582Y-1893125D01*
X+5385131Y-1893125D01*
X+5379619Y-1898637D01*
X+5379619Y-2020781D01*
X+5479619Y-2020781D01*
X+5479619Y-2239219D01*
X+5188181Y-2239219D01*
X+5188181Y-2237949D01*
X+5179619Y-2237949D01*
X+5179619Y-2239219D01*
X+3638181Y-2239219D01*
X+3638181Y-1808358D01*
X+3614419Y-1784596D01*
X+3614419Y-1794758D01*
X+3572758Y-1836419D01*
X+3513842Y-1836419D01*
X+3472181Y-1794758D01*
X+3472181Y-1735842D01*
X+3513842Y-1694181D01*
X+3518379Y-1694181D01*
X+3600058Y-1612502D01*
X+3481354Y-1612502D01*
X+2840875Y-2252981D01*
X+2899658Y-2252981D01*
X+2925282Y-2278605D01*
X+3034640Y-2279281D01*
X+3598119Y-2279281D01*
X+3598119Y-3970719D01*
X+3596849Y-3970719D01*
X+3596849Y-3979281D01*
X+3598119Y-3979281D01*
X+3598119Y-4100259D01*
X+3622591Y-4100259D01*
X+3681823Y-4041027D01*
X+4369809Y-4041027D01*
X+4427967Y-4099185D01*
X+4427967Y-4160781D01*
X+5479619Y-4160781D01*
X+5479619Y-4379219D01*
X+5379619Y-4379219D01*
X+5379619Y-4674162D01*
X+5435846Y-4730389D01*
X+6052345Y-4730389D01*
X+6357719Y-5035763D01*
X+6357719Y-5110481D01*
X+6821219Y-5110481D01*
X+6821219Y-5430519D01*
X+5957719Y-5430519D01*
X+5957719Y-5491553D01*
X+5904883Y-5544389D01*
X+5563759Y-5544389D01*
X+5420686Y-5401316D01*
X+4446376Y-5401316D01*
X+4088181Y-5043121D01*
X+4088181Y-4379219D01*
X+4079619Y-4379219D01*
X+4079619Y-4734328D01*
X+3853328Y-4960619D01*
X-14681Y-4960619D01*
X-14681Y-5074919D01*
X-833119Y-5074919D01*
X-833119Y-4986019D01*
X-860080Y-4986019D01*
X-1022694Y-4823405D01*
X-1022694Y-4048818D01*
X-959559Y-3985683D01*
X-959559Y-3434751D01*
X-278841Y-3434751D01*
X-278841Y-4057049D01*
X-829773Y-4057049D01*
X-880456Y-4107732D01*
X-880456Y-4764491D01*
X-833119Y-4811828D01*
X-833119Y-4754881D01*
X-14681Y-4754881D01*
X-14681Y-4869181D01*
X+229177Y-4869181D01*
X+103317Y-4743320D01*
X-268678Y-4743320D01*
X-369619Y-4642379D01*
X-369619Y-4617719D01*
X-833119Y-4617719D01*
X-833119Y-4297681D01*
X-14681Y-4297681D01*
X-14681Y-4543352D01*
X+288276Y-4543352D01*
X+420712Y-4675788D01*
X+3751168Y-4675788D01*
X+3838181Y-4588775D01*
X+3838181Y-4379219D01*
X+3638181Y-4379219D01*
X+3638181Y-4191697D01*
X+3197275Y-4191697D01*
X+2700900Y-3695322D01*
X+392348Y-3695322D01*
X+366948Y-3720722D01*
X+308032Y-3720722D01*
X+266371Y-3679061D01*
X+266371Y-3620145D01*
X+308032Y-3578484D01*
X+366948Y-3578484D01*
X+392348Y-3603884D01*
X+1807211Y-3603884D01*
X+1807211Y-3500119D01*
X+1771537Y-3500119D01*
X+1708037Y-3563619D01*
X+220979Y-3563619D01*
X+220979Y-3600449D01*
X-119379Y-3600449D01*
X-119379Y-3435351D01*
X-445Y-3435351D01*
X-445Y-3330997D01*
X-25845Y-3305597D01*
X-25845Y-3246681D01*
X+15816Y-3205020D01*
X+74732Y-3205020D01*
X+116393Y-3246681D01*
X+116393Y-3305597D01*
X+90993Y-3330997D01*
X+90993Y-3435351D01*
X+220979Y-3435351D01*
X+220979Y-3472181D01*
X+1670163Y-3472181D01*
X+1706881Y-3435463D01*
X+1706881Y-3399542D01*
X+1748542Y-3357881D01*
X+1784463Y-3357881D01*
X+1826375Y-3315969D01*
X+1807211Y-3315969D01*
X+1807211Y-3271519D01*
X+1097935Y-3271519D01*
X+1030531Y-3338923D01*
X+486276Y-3338923D01*
X+308580Y-3161227D01*
X-67311Y-3161227D01*
X-67311Y-3212269D01*
X-119381Y-3212269D01*
X-119381Y-3280225D01*
X-228085Y-3388929D01*
X-669295Y-3388929D01*
X-852581Y-3205643D01*
X-853120Y-3205643D01*
X-928147Y-3130617D01*
X-928147Y-3130077D01*
X-929103Y-3129121D01*
X-929103Y-2002542D01*
X-887441Y-1960881D01*
X-785842Y-1859281D01*
X-655219Y-1859281D01*
X-655219Y-1647469D01*
X-694689Y-1647469D01*
X-694689Y-1467131D01*
X-655219Y-1467131D01*
X-655219Y-1431042D01*
X-613558Y-1389381D01*
X-562995Y-1347469D01*
X-694689Y-1347469D01*
X-694689Y-1167131D01*
X-448311Y-1167131D01*
X-448311Y-1313181D01*
X-300989Y-1313181D01*
X-300989Y-1167131D01*
X+186689Y-1167131D01*
X+186689Y-1313181D01*
X+270511Y-1313181D01*
X+270511Y-1296231D01*
X+758189Y-1296231D01*
X+758189Y-1309875D01*
X+1733869Y-1309875D01*
X+1781811Y-1261933D01*
X+1781811Y-1113231D01*
X+2028189Y-1113231D01*
X+2028189Y-1157681D01*
X+2035811Y-1157681D01*
X+2035811Y-1108431D01*
X+2205989Y-1108431D01*
X+2205989Y-1314169D01*
X+2035811Y-1314169D01*
X+2035811Y-1249119D01*
X+2028189Y-1249119D01*
X+2028189Y-1293569D01*
X+1879487Y-1293569D01*
X+1771743Y-1401313D01*
X+758189Y-1401313D01*
X+758189Y-1476569D01*
X+270511Y-1476569D01*
X+270511Y-1455419D01*
X-468396Y-1455419D01*
X-481652Y-1467131D01*
X-448311Y-1467131D01*
X-448311Y-1647469D01*
X-512981Y-1647469D01*
X-512981Y-1859281D01*
X-376842Y-1859281D01*
X-335181Y-1900942D01*
X-335181Y-2011681D01*
X+144781Y-2011681D01*
X+144781Y-1703237D01*
X+89013Y-1647469D01*
X-300989Y-1647469D01*
X-300989Y-1467131D01*
X+186689Y-1467131D01*
X+186689Y-1615833D01*
X+236219Y-1665363D01*
X+236219Y-2011681D01*
X+347981Y-2011681D01*
X+347981Y-1766569D01*
X+270511Y-1766569D01*
X+270511Y-1586231D01*
X+758189Y-1586231D01*
X+758189Y-1766569D01*
X+639419Y-1766569D01*
X+639419Y-2011681D01*
X+715619Y-2011681D01*
X+715619Y-2079443D01*
X+829911Y-2079443D01*
X+871219Y-2120751D01*
X+871219Y-2855288D01*
X+945212Y-2929281D01*
X+3379681Y-2929281D01*
X+3379681Y-2420719D01*
X+3322319Y-2420719D01*
X+3322319Y-2428668D01*
X+3282106Y-2468881D01*
X+3331458Y-2468881D01*
X+3373119Y-2510542D01*
X+3373119Y-2569458D01*
X+3331458Y-2611119D01*
X+3272542Y-2611119D01*
X+3247142Y-2585719D01*
X+3244737Y-2585719D01*
X+3156179Y-2674277D01*
X+2558821Y-2674277D01*
X+2470263Y-2585719D01*
X+1009763Y-2585719D01*
X+894081Y-2470037D01*
X+894081Y-1832858D01*
X+868681Y-1807458D01*
X+868681Y-1748542D01*
X+910342Y-1706881D01*
X+969258Y-1706881D01*
X+1010919Y-1748542D01*
X+1010919Y-1807458D01*
X+985519Y-1832858D01*
X+985519Y-2432163D01*
X+1047637Y-2494281D01*
X+2508137Y-2494281D01*
X+2596695Y-2582839D01*
X+3118305Y-2582839D01*
X+3206863Y-2494281D01*
X+3247142Y-2494281D01*
X+3271094Y-2470329D01*
X+3221742Y-2470329D01*
X+3180081Y-2428668D01*
X+3180081Y-2370719D01*
X+3034518Y-2370719D01*
X+2924697Y-2370180D01*
X+2899658Y-2395219D01*
X+2840742Y-2395219D01*
X+2800365Y-2354842D01*
X+2800365Y-2400825D01*
X+2825765Y-2426225D01*
X+2825765Y-2485141D01*
X+2784104Y-2526802D01*
X+2725188Y-2526802D01*
X+2683527Y-2485141D01*
X+2683527Y-2426225D01*
X+2708927Y-2400825D01*
X+2708927Y-2255617D01*
X+2888375Y-2076169D01*
X+2658111Y-2076169D01*
X+2658111Y-2023819D01*
X+2650489Y-2023819D01*
X+2650489Y-2076169D01*
X+2404111Y-2076169D01*
X+2404111Y-2023819D01*
X+2396489Y-2023819D01*
X+2396489Y-2080969D01*
X+2226311Y-2080969D01*
X+2226311Y-1875231D01*
X+2396489Y-1875231D01*
X+2396489Y-1932381D01*
X+2404111Y-1932381D01*
X+2404111Y-1895831D01*
X+2650489Y-1895831D01*
X+2650489Y-1932381D01*
X+2658111Y-1932381D01*
X+2658111Y-1895831D01*
X+2904489Y-1895831D01*
X+2904489Y-1940281D01*
X+2935363Y-1940281D01*
X+3473563Y-1402081D01*
X+3475742Y-1402081D01*
X+3501142Y-1376681D01*
X+3560058Y-1376681D01*
X+3601719Y-1418342D01*
X+3601719Y-1477258D01*
X+3560058Y-1518919D01*
X+3501142Y-1518919D01*
X+3493590Y-1511366D01*
X+3483892Y-1521064D01*
X+3757632Y-1521064D01*
X+3879619Y-1643051D01*
X+3879619Y-1809464D01*
X+3901947Y-1787136D01*
X+3960863Y-1787136D01*
X+4002524Y-1828797D01*
X+4002524Y-1864718D01*
X+4028052Y-1890246D01*
X+4028052Y-2020781D01*
X+4041178Y-2020781D01*
X+4041178Y-1544667D01*
X+4029034Y-1532523D01*
X+3993113Y-1532523D01*
X+3951452Y-1490862D01*
X+3951452Y-1431946D01*
X+3993113Y-1390285D01*
X+4052029Y-1390285D01*
X+4069081Y-1407337D01*
X+4069081Y-1354842D01*
X+4110742Y-1313181D01*
X+4169658Y-1313181D01*
X+4211319Y-1354842D01*
X+4211319Y-1390763D01*
X+4229619Y-1409063D01*
X+4229619Y-2020781D01*
X+4238181Y-2020781D01*
X+4238181Y-1399294D01*
X+4242462Y-1395013D01*
X+4242462Y-1359092D01*
X+4284123Y-1317431D01*
X+4307547Y-1317431D01*
X+4234435Y-1244319D01*
X+2904489Y-1244319D01*
X+2904489Y-1288769D01*
X+2658111Y-1288769D01*
X+2658111Y-1244319D01*
X+2650489Y-1244319D01*
X+2650489Y-1288769D01*
X+2404111Y-1288769D01*
X+2404111Y-1257019D01*
X+2395989Y-1257019D01*
X+2395989Y-1314169D01*
X+2225811Y-1314169D01*
X+2225811Y-1108431D01*
X+2395989Y-1108431D01*
X+2395989Y-1165581D01*
X+2404111Y-1165581D01*
X+2404111Y-1108431D01*
X+2650489Y-1108431D01*
X+2650489Y-1152881D01*
X+2658111Y-1152881D01*
X+2658111Y-1108431D01*
X+2904489Y-1108431D01*
X+2904489Y-1152881D01*
G37*
G36*
X+1595119Y-5114042D02*
X+1595119Y-5114043D01*
X+1607819Y-5126743D01*
X+1607819Y-5185411D01*
X+1626869Y-5185411D01*
X+1626869Y-5673089D01*
X+1594104Y-5673089D01*
X+1594104Y-5926373D01*
X+1671615Y-5926373D01*
X+1671615Y-5899032D01*
X+1756866Y-5813781D01*
X+2213611Y-5813781D01*
X+2213611Y-5769331D01*
X+2459989Y-5769331D01*
X+2459989Y-5813781D01*
X+2467611Y-5813781D01*
X+2467611Y-5764531D01*
X+2540281Y-5764531D01*
X+2540281Y-5754369D01*
X+2467611Y-5754369D01*
X+2467611Y-5574031D01*
X+2713989Y-5574031D01*
X+2713989Y-5754369D01*
X+2631719Y-5754369D01*
X+2631719Y-5764531D01*
X+2713989Y-5764531D01*
X+2713989Y-5944869D01*
X+2467611Y-5944869D01*
X+2467611Y-5905219D01*
X+2459989Y-5905219D01*
X+2459989Y-5949669D01*
X+2213611Y-5949669D01*
X+2213611Y-5905219D01*
X+1794740Y-5905219D01*
X+1773586Y-5926373D01*
X+1832204Y-5926373D01*
X+1832204Y-6246411D01*
X+1213766Y-6246411D01*
X+1213766Y-5926373D01*
X+1451866Y-5926373D01*
X+1451866Y-5673089D01*
X+1446531Y-5673089D01*
X+1446531Y-5185411D01*
X+1465334Y-5185411D01*
X+1452881Y-5172958D01*
X+1452881Y-5114042D01*
X+1494542Y-5072381D01*
X+1553458Y-5072381D01*
X+1595119Y-5114042D01*
G37*
G36*
X+2206489Y-2080969D02*
X+2036311Y-2080969D01*
X+2036311Y-2031719D01*
X+2028189Y-2031719D01*
X+2028189Y-2076169D01*
X+1950719Y-2076169D01*
X+1950719Y-2358142D01*
X+1976119Y-2383542D01*
X+1976119Y-2442458D01*
X+1934458Y-2484119D01*
X+1875542Y-2484119D01*
X+1833881Y-2442458D01*
X+1833881Y-2383542D01*
X+1859281Y-2358142D01*
X+1859281Y-2076169D01*
X+1493519Y-2076169D01*
X+1493519Y-2125569D01*
X+1504164Y-2136214D01*
X+1504164Y-2195130D01*
X+1462503Y-2236791D01*
X+1403587Y-2236791D01*
X+1351281Y-2184484D01*
X+1351281Y-2076169D01*
X+1057911Y-2076169D01*
X+1057911Y-1895831D01*
X+2028189Y-1895831D01*
X+2028189Y-1940281D01*
X+2036311Y-1940281D01*
X+2036311Y-1875231D01*
X+2206489Y-1875231D01*
X+2206489Y-2080969D01*
G37*
G36*
X+445769Y-4098289D02*
X+265431Y-4098289D01*
X+265431Y-4019619D01*
X+220979Y-4019619D01*
X+220979Y-4056449D01*
X-119379Y-4056449D01*
X-119379Y-3891351D01*
X+220979Y-3891351D01*
X+220979Y-3928181D01*
X+265431Y-3928181D01*
X+265431Y-3851911D01*
X+445769Y-3851911D01*
X+445769Y-4098289D01*
G37*
G36*
X+735769Y-3897625D02*
X+2702323Y-3897625D01*
X+2727723Y-3872225D01*
X+2786639Y-3872225D01*
X+2828300Y-3913886D01*
X+2828300Y-3972802D01*
X+2786639Y-4014463D01*
X+2727723Y-4014463D01*
X+2702323Y-3989063D01*
X+735769Y-3989063D01*
X+735769Y-4098289D01*
X+555431Y-4098289D01*
X+555431Y-3851911D01*
X+735769Y-3851911D01*
X+735769Y-3897625D01*
G37*
G36*
X+2404111Y-1588769D02*
X+2404111Y-1408431D01*
X+2650489Y-1408431D01*
X+2650489Y-1588769D01*
X+2404111Y-1588769D01*
G37*
G36*
X+2658111Y-1588769D02*
X+2658111Y-1408431D01*
X+2904489Y-1408431D01*
X+2904489Y-1588769D01*
X+2658111Y-1588769D01*
G37*
G36*
X+2658111Y-1776169D02*
X+2658111Y-1595831D01*
X+2904489Y-1595831D01*
X+2904489Y-1776169D01*
X+2658111Y-1776169D01*
G37*
G36*
X+2404111Y-1776169D02*
X+2404111Y-1595831D01*
X+2650489Y-1595831D01*
X+2650489Y-1776169D01*
X+2404111Y-1776169D01*
G37*
G36*
X+1781811Y-1593569D02*
X+1781811Y-1413231D01*
X+2028189Y-1413231D01*
X+2028189Y-1593569D01*
X+1781811Y-1593569D01*
G37*
G36*
X+2467611Y-6244869D02*
X+2467611Y-6064531D01*
X+2713989Y-6064531D01*
X+2713989Y-6244869D01*
X+2467611Y-6244869D01*
G37*
G36*
X+2213611Y-6249669D02*
X+2213611Y-6069331D01*
X+2459989Y-6069331D01*
X+2459989Y-6249669D01*
X+2213611Y-6249669D01*
G37*
G36*
X+1057911Y-1588769D02*
X+1057911Y-1408431D01*
X+1304289Y-1408431D01*
X+1304289Y-1588769D01*
X+1057911Y-1588769D01*
G37*
G36*
X+1558289Y-1124378D02*
X+1713419Y-1124378D01*
X+1755080Y-1166039D01*
X+1755080Y-1224955D01*
X+1713419Y-1266616D01*
X+1558289Y-1266616D01*
X+1558289Y-1288769D01*
X+1311911Y-1288769D01*
X+1311911Y-1269719D01*
X+1304289Y-1269719D01*
X+1304289Y-1288769D01*
X+1057911Y-1288769D01*
X+1057911Y-1108431D01*
X+1304289Y-1108431D01*
X+1304289Y-1127481D01*
X+1311911Y-1127481D01*
X+1311911Y-1108431D01*
X+1558289Y-1108431D01*
X+1558289Y-1124378D01*
G37*
G36*
X+1311911Y-1588769D02*
X+1311911Y-1408431D01*
X+1558289Y-1408431D01*
X+1558289Y-1588769D01*
X+1311911Y-1588769D01*
G37*
G36*
X+2028189Y-1776169D02*
X+1057911Y-1776169D01*
X+1057911Y-1595831D01*
X+2028189Y-1595831D01*
X+2028189Y-1776169D01*
G37*
G36*
X+1326869Y-5431789D02*
X+1326869Y-5673089D01*
X+1146531Y-5673089D01*
X+1146531Y-5185411D01*
X+1326869Y-5185411D01*
X+1326869Y-5431789D01*
G37*
G36*
X+6663689Y-1103631D02*
X+6663689Y-1283969D01*
X+6417311Y-1283969D01*
X+6417311Y-1103631D01*
X+6663689Y-1103631D01*
G37*
G36*
X+7946389Y-1103631D02*
X+7946389Y-1283969D01*
X+7700011Y-1283969D01*
X+7700011Y-1103631D01*
X+7946389Y-1103631D01*
G37*
G36*
X+9278619Y-4071619D02*
X+9110981Y-4071619D01*
X+9110981Y-4008119D01*
X+9033397Y-4008119D01*
X+9028429Y-4013087D01*
X+9028429Y-4161789D01*
X+8848091Y-4161789D01*
X+8848091Y-3915411D01*
X+9028429Y-3915411D01*
X+9028429Y-3916681D01*
X+9110981Y-3916681D01*
X+9110981Y-3853181D01*
X+9278619Y-3853181D01*
X+9278619Y-4071619D01*
G37*
G36*
X+9425941Y-3853181D02*
X+9593579Y-3853181D01*
X+9593579Y-4071619D01*
X+9425941Y-4071619D01*
X+9425941Y-3853181D01*
G37*
G36*
X+9026329Y-2722881D02*
X+9110981Y-2722881D01*
X+9110981Y-2659381D01*
X+9278619Y-2659381D01*
X+9278619Y-2877819D01*
X+9110981Y-2877819D01*
X+9110981Y-2814319D01*
X+9026329Y-2814319D01*
X+9026329Y-2874011D01*
X+9028429Y-2874011D01*
X+9028429Y-2951481D01*
X+9110981Y-2951481D01*
X+9110981Y-2887981D01*
X+9278619Y-2887981D01*
X+9278619Y-3106419D01*
X+9110981Y-3106419D01*
X+9110981Y-3042919D01*
X+9028429Y-3042919D01*
X+9028429Y-3192781D01*
X+9110981Y-3192781D01*
X+9110981Y-3129281D01*
X+9278619Y-3129281D01*
X+9278619Y-3347719D01*
X+9110981Y-3347719D01*
X+9110981Y-3284219D01*
X+9028429Y-3284219D01*
X+9028429Y-3434081D01*
X+9110981Y-3434081D01*
X+9110981Y-3370581D01*
X+9278619Y-3370581D01*
X+9278619Y-3589019D01*
X+9110981Y-3589019D01*
X+9110981Y-3525519D01*
X+9028429Y-3525519D01*
X+9028429Y-3602989D01*
X+8848091Y-3602989D01*
X+8848091Y-2891789D01*
X+8845991Y-2891789D01*
X+8845991Y-2645411D01*
X+9026329Y-2645411D01*
X+9026329Y-2722881D01*
G37*
G36*
X+9425941Y-2659381D02*
X+9593579Y-2659381D01*
X+9593579Y-2877819D01*
X+9425941Y-2877819D01*
X+9425941Y-2659381D01*
G37*
G36*
X+9278619Y-3830319D02*
X+9110981Y-3830319D01*
X+9110981Y-3766819D01*
X+9026329Y-3766819D01*
X+9026329Y-3907789D01*
X+8845991Y-3907789D01*
X+8845991Y-3661411D01*
X+9026329Y-3661411D01*
X+9026329Y-3675381D01*
X+9110981Y-3675381D01*
X+9110981Y-3611881D01*
X+9278619Y-3611881D01*
X+9278619Y-3830319D01*
G37*
G36*
X+9425941Y-3611881D02*
X+9593579Y-3611881D01*
X+9593579Y-3830319D01*
X+9425941Y-3830319D01*
X+9425941Y-3611881D01*
G37*
G36*
X+9425941Y-3370581D02*
X+9593579Y-3370581D01*
X+9593579Y-3589019D01*
X+9425941Y-3589019D01*
X+9425941Y-3370581D01*
G37*
G36*
X+9425941Y-2887981D02*
X+9593579Y-2887981D01*
X+9593579Y-3106419D01*
X+9425941Y-3106419D01*
X+9425941Y-2887981D01*
G37*
G36*
X+9425941Y-3129281D02*
X+9593579Y-3129281D01*
X+9593579Y-3347719D01*
X+9425941Y-3347719D01*
X+9425941Y-3129281D01*
G37*
G36*
X+5584451Y-2148411D02*
X+5584451Y-2111589D01*
X+5610489Y-2085551D01*
X+5647311Y-2085551D01*
X+5673349Y-2111589D01*
X+5673349Y-2148411D01*
X+5647311Y-2174449D01*
X+5610489Y-2174449D01*
X+5584451Y-2148411D01*
G37*
G36*
X+3444451Y-4288411D02*
X+3444451Y-4251589D01*
X+3470489Y-4225551D01*
X+3507311Y-4225551D01*
X+3533349Y-4251589D01*
X+3533349Y-4288411D01*
X+3507311Y-4314449D01*
X+3470489Y-4314449D01*
X+3444451Y-4288411D01*
G37*
G36*
X+6344919Y-4123442D02*
X+6344919Y-4169411D01*
X+6363969Y-4169411D01*
X+6363969Y-4415789D01*
X+6183631Y-4415789D01*
X+6183631Y-4169411D01*
X+6202681Y-4169411D01*
X+6202681Y-4123442D01*
X+6244342Y-4081781D01*
X+6303258Y-4081781D01*
X+6344919Y-4123442D01*
G37*
G36*
X+4071619Y-5050542D02*
X+4071619Y-5109458D01*
X+4029958Y-5151119D01*
X+3971042Y-5151119D01*
X+3945642Y-5125719D01*
X+2696439Y-5125719D01*
X+2636519Y-5185639D01*
X+2636519Y-5284031D01*
X+2713989Y-5284031D01*
X+2713989Y-5464369D01*
X+2467611Y-5464369D01*
X+2467611Y-5284031D01*
X+2545081Y-5284031D01*
X+2545081Y-5147765D01*
X+2658565Y-5034281D01*
X+3945642Y-5034281D01*
X+3971042Y-5008881D01*
X+4029958Y-5008881D01*
X+4071619Y-5050542D01*
G37*
G36*
X+6320789Y-2099031D02*
X+6320789Y-2279369D01*
X+6074411Y-2279369D01*
X+6074411Y-2099031D01*
X+6320789Y-2099031D01*
G37*
G36*
X+8366881Y-1583481D02*
X+8636119Y-1583481D01*
X+8636119Y-1852719D01*
X+8366881Y-1852719D01*
X+8366881Y-1583481D01*
G37*
G36*
X+9016881Y-1583481D02*
X+9286119Y-1583481D01*
X+9286119Y-1852719D01*
X+9016881Y-1852719D01*
X+9016881Y-1583481D01*
G37*
G36*
X+8516619Y-4366919D02*
X+8516619Y-4766919D01*
X+8196581Y-4766919D01*
X+8196581Y-4148481D01*
X+8516619Y-4148481D01*
X+8516619Y-4366919D01*
G37*
G36*
X-857250Y-1283151D02*
X-857250Y-1256849D01*
X-838651Y-1238250D01*
X-812349Y-1238250D01*
X-793750Y-1256849D01*
X-793750Y-1283151D01*
X-812349Y-1301750D01*
X-838651Y-1301750D01*
X-857250Y-1283151D01*
G37*
G36*
X+3426833Y-1706284D02*
X+3426833Y-1679982D01*
X+3445432Y-1661383D01*
X+3471734Y-1661383D01*
X+3490333Y-1679982D01*
X+3490333Y-1706284D01*
X+3471734Y-1724883D01*
X+3445432Y-1724883D01*
X+3426833Y-1706284D01*
G37*
G36*
X+3078542Y-1705659D02*
X+3078542Y-1679357D01*
X+3097141Y-1660758D01*
X+3123443Y-1660758D01*
X+3142042Y-1679357D01*
X+3142042Y-1705659D01*
X+3123443Y-1724258D01*
X+3097141Y-1724258D01*
X+3078542Y-1705659D01*
G37*
G36*
X+3494089Y-5213755D02*
X+3494089Y-5187453D01*
X+3512688Y-5168854D01*
X+3538990Y-5168854D01*
X+3557589Y-5187453D01*
X+3557589Y-5213755D01*
X+3538990Y-5232354D01*
X+3512688Y-5232354D01*
X+3494089Y-5213755D01*
G37*
%LPD*%
G36*
X+4751572Y-1780900D02*
X+4738181Y-1794291D01*
X+4738181Y-2020781D01*
X+4729619Y-2020781D01*
X+4729619Y-1799643D01*
X+4765915Y-1763347D01*
X+4769125Y-1763347D01*
X+4751572Y-1780900D01*
G37*
G36*
X+4438181Y-1962837D02*
X+4438181Y-2020781D01*
X+4429619Y-2020781D01*
X+4429619Y-2000763D01*
X+4378419Y-1949563D01*
X+4378419Y-1903075D01*
X+4438181Y-1962837D01*
G37*
G36*
X+3738181Y-2020781D02*
X+3729619Y-2020781D01*
X+3729619Y-1806558D01*
X+3738181Y-1797996D01*
X+3738181Y-2020781D01*
G37*
G36*
X+6341111Y-2729281D02*
X+5738119Y-2729281D01*
X+5738119Y-2720719D01*
X+6341111Y-2720719D01*
X+6341111Y-2729281D01*
G37*
G36*
X+779781Y-2893162D02*
X+865901Y-2979282D01*
X+453138Y-2979282D01*
X+260237Y-2786381D01*
X-67311Y-2786381D01*
X-67311Y-2741931D01*
X-160581Y-2741931D01*
X-160581Y-2455519D01*
X+715619Y-2455519D01*
X+715619Y-2170881D01*
X+779781Y-2170881D01*
X+779781Y-2893162D01*
G37*
G36*
X+6341111Y-2871469D02*
X+6579107Y-2871469D01*
X+6579107Y-2899411D01*
X+6534431Y-2899411D01*
X+6534431Y-3145789D01*
X+6563981Y-3145789D01*
X+6551637Y-3158133D01*
X+6213086Y-3158132D01*
X+6084235Y-3029281D01*
X+5738119Y-3029281D01*
X+5738119Y-2820719D01*
X+6201926Y-2820719D01*
X+6197092Y-2825553D01*
X+6197092Y-2884469D01*
X+6234431Y-2921808D01*
X+6234431Y-3145789D01*
X+6414769Y-3145789D01*
X+6414769Y-2899411D01*
X+6324388Y-2899411D01*
X+6339330Y-2884469D01*
X+6339330Y-2825553D01*
X+6334496Y-2820719D01*
X+6341111Y-2820719D01*
X+6341111Y-2871469D01*
G37*
G36*
X+3379681Y-3179281D02*
X+2443325Y-3179281D01*
X+2443325Y-3170719D01*
X+3379681Y-3170719D01*
X+3379681Y-3179281D01*
G37*
G36*
X-252019Y-2741931D02*
X-554989Y-2741931D01*
X-554989Y-2922269D01*
X-67311Y-2922269D01*
X-67311Y-2877819D01*
X+222363Y-2877819D01*
X+415262Y-3070718D01*
X+762557Y-3070718D01*
X+747133Y-3086142D01*
X+747133Y-3145058D01*
X+788794Y-3186719D01*
X+791343Y-3186719D01*
X+852109Y-3247485D01*
X+524150Y-3247485D01*
X+346454Y-3069789D01*
X-67311Y-3069789D01*
X-67311Y-3031931D01*
X-554780Y-3031931D01*
X-560581Y-3026130D01*
X-560581Y-2455519D01*
X-252019Y-2455519D01*
X-252019Y-2741931D01*
G37*
G36*
X+3379681Y-3420719D02*
X+3379681Y-3479281D01*
X+2489067Y-3479281D01*
X+2485286Y-3475500D01*
X+2426370Y-3475500D01*
X+2384709Y-3517161D01*
X+2384709Y-3576077D01*
X+2412516Y-3603884D01*
X+2294889Y-3603884D01*
X+2294889Y-3435631D01*
X+1849119Y-3435631D01*
X+1849119Y-3422537D01*
X+1864507Y-3407149D01*
X+2369389Y-3407149D01*
X+2405819Y-3370719D01*
X+3234364Y-3370719D01*
X+3259764Y-3396119D01*
X+3318680Y-3396119D01*
X+3344080Y-3370719D01*
X+3379681Y-3370719D01*
X+3379681Y-3420719D01*
G37*
G36*
X+8558091Y-3120389D02*
X+8558091Y-3268981D01*
X+8424478Y-3268981D01*
X+8283396Y-3410063D01*
X+8283396Y-3642248D01*
X+8096363Y-3829281D01*
X+6342396Y-3829281D01*
X+6344919Y-3826758D01*
X+6344919Y-3767842D01*
X+6303258Y-3726181D01*
X+6244342Y-3726181D01*
X+6202681Y-3767842D01*
X+6202681Y-3779281D01*
X+5738119Y-3779281D01*
X+5738119Y-3770719D01*
X+6038737Y-3770719D01*
X+6085775Y-3723681D01*
X+6094746Y-3723681D01*
X+6094746Y-3723682D01*
X+8104131Y-3723682D01*
X+8250813Y-3577000D01*
X+8250813Y-3098566D01*
X+8381865Y-2967514D01*
X+8558091Y-2967514D01*
X+8558091Y-3120389D01*
G37*
G36*
X+3242269Y-3571378D02*
X+3242269Y-3630294D01*
X+3283930Y-3671955D01*
X+3342846Y-3671955D01*
X+3379681Y-3635120D01*
X+3379681Y-3970719D01*
X+3380951Y-3970719D01*
X+3380951Y-3979281D01*
X+3379681Y-3979281D01*
X+3379681Y-4100259D01*
X+3235149Y-4100259D01*
X+2738774Y-3603884D01*
X+2499140Y-3603884D01*
X+2526947Y-3576077D01*
X+2526947Y-3570719D01*
X+3242928Y-3570719D01*
X+3242269Y-3571378D01*
G37*
%LPC*%
G36*
X+3237751Y-4003167D02*
X+3237751Y-3976865D01*
X+3256350Y-3958266D01*
X+3282652Y-3958266D01*
X+3301251Y-3976865D01*
X+3301251Y-4003167D01*
X+3282652Y-4021766D01*
X+3256350Y-4021766D01*
X+3237751Y-4003167D01*
G37*
%LPD*%
G36*
X+4838181Y-4415738D02*
X+4834424Y-4411981D01*
X+4829619Y-4411981D01*
X+4829619Y-4379219D01*
X+4838181Y-4379219D01*
X+4838181Y-4415738D01*
G37*
G36*
X+4688181Y-4391163D02*
X+4653281Y-4426063D01*
X+4653281Y-4866423D01*
X+4627979Y-4891725D01*
X+4627979Y-4950641D01*
X+4669640Y-4992302D01*
X+4728556Y-4992302D01*
X+4770217Y-4950641D01*
X+4770217Y-4891725D01*
X+4744817Y-4866325D01*
X+4744817Y-4845261D01*
X+4744719Y-4845163D01*
X+4744719Y-4523430D01*
X+4775508Y-4554219D01*
X+4834424Y-4554219D01*
X+4838181Y-4550462D01*
X+4838181Y-4925664D01*
X+4993885Y-5081368D01*
X+6032712Y-5081368D01*
X+6061825Y-5110481D01*
X+5602781Y-5110481D01*
X+5602781Y-5224781D01*
X+5467596Y-5224781D01*
X+5494019Y-5198358D01*
X+5494019Y-5139442D01*
X+5452358Y-5097781D01*
X+5393442Y-5097781D01*
X+5368042Y-5123181D01*
X+4609385Y-5123181D01*
X+4379619Y-4893415D01*
X+4379619Y-4379219D01*
X+4488181Y-4379219D01*
X+4488181Y-4564381D01*
X+4479042Y-4564381D01*
X+4437381Y-4606042D01*
X+4437381Y-4664958D01*
X+4479042Y-4706619D01*
X+4537958Y-4706619D01*
X+4579619Y-4664958D01*
X+4579619Y-4379219D01*
X+4688181Y-4379219D01*
X+4688181Y-4391163D01*
G37*
G36*
X+5288181Y-4578463D02*
X+5288181Y-4712036D01*
X+5397972Y-4821827D01*
X+6014471Y-4821827D01*
X+6266281Y-5073637D01*
X+6266281Y-5110481D01*
X+6154419Y-5110481D01*
X+6154419Y-5073763D01*
X+6070586Y-4989930D01*
X+5031759Y-4989930D01*
X+4929619Y-4887790D01*
X+4929619Y-4547881D01*
X+4933391Y-4551653D01*
X+4988181Y-4551653D01*
X+4988181Y-4755206D01*
X+5126886Y-4893911D01*
X+5233970Y-4893911D01*
X+5258423Y-4918364D01*
X+5317339Y-4918364D01*
X+5359000Y-4876703D01*
X+5359000Y-4817787D01*
X+5317339Y-4776126D01*
X+5258423Y-4776126D01*
X+5232076Y-4802473D01*
X+5164760Y-4802473D01*
X+5079619Y-4717332D01*
X+5079619Y-4379219D01*
X+5288181Y-4379219D01*
X+5288181Y-4578463D01*
G37*
D10*
X+9194800Y-2768600D02*
X+8936160Y-2768600D01*
X+9194800Y-2997200D02*
X+8938260Y-2997200D01*
X+9194800Y-3238500D02*
X+8938260Y-3238500D01*
X+6692900Y-1765300D02*
X+6972300Y-1769505D01*
X+7083879Y-1769505D01*
X+7167015Y-1852641D01*
X+7167893Y-1853519D01*
X+7167893Y-1982491D01*
X+7167893Y-2475226D01*
X+7123027Y-2520092D01*
X+7018119Y-2625000D01*
X+5628900Y-2625000D01*
X+6692900Y-1765300D02*
X+6683822Y-1759566D01*
X+6540500Y-1485900D02*
X+6532057Y-1494343D01*
X+6532057Y-1663700D01*
X+6683823Y-1759566D01*
X+6683822Y-1759566D02*
X+6683823Y-1759566D01*
X+6540500Y-1485900D02*
X+6540500Y-1493800D01*
X+6540500Y-1485900D02*
X+6540500Y-1397000D01*
X+6604000Y-1333500D01*
X+7023100Y-1333500D01*
X+7658100Y-1765300D02*
X+7641769Y-1761449D01*
X+7625218Y-1778000D01*
X+7289800Y-1778000D01*
X+7213600Y-1854200D01*
X+7213600Y-1879600D01*
X+7213600Y-2494078D01*
X+7131904Y-2575774D01*
X+7032678Y-2675000D01*
X+5628900Y-2675000D01*
X+7823200Y-1505437D02*
X+7820375Y-1502612D01*
X+7820375Y-1393153D01*
X+7760722Y-1333500D01*
X+7313100Y-1333500D01*
X+7658100Y-1765300D02*
X+7805721Y-1764922D01*
X+7823200Y-1747443D01*
X+7823200Y-1505437D01*
X+7823200Y-1493800D01*
X+50800Y-3973900D02*
X+354400Y-3973900D01*
X+355600Y-3975100D01*
X+9194800Y-3479800D02*
X+8938260Y-3479800D01*
X+2870200Y-2324100D02*
X+3034552Y-2325000D01*
X+3488900Y-2325000D01*
X+4033900Y-4270000D02*
X+4033900Y-4715391D01*
X+3895996Y-4853295D01*
X+3834391Y-4914900D01*
X-123900Y-4914900D01*
X+296957Y-4742626D02*
X+333262Y-4778931D01*
X+3811191Y-4778931D01*
X+3933900Y-4656222D01*
X+3933900Y-4270000D01*
X+1422400Y-1686000D02*
X+1418690Y-1672054D01*
X+1435100Y-1655644D01*
X+1435100Y-1498600D01*
X+1905000Y-1686000D02*
X+1905000Y-1503400D01*
X+2527300Y-1686000D02*
X+2527979Y-1674668D01*
X+2527300Y-1673989D01*
X+2527300Y-1498600D01*
X+2781300Y-1686000D02*
X+2781300Y-1498600D01*
X+2527300Y-1686000D02*
X+1905000Y-1686000D01*
X+1663700Y-1686000D02*
X+1905000Y-1686000D01*
X+1663700Y-1686000D02*
X+1422400Y-1686000D01*
X+1181100Y-1686000D01*
X+1181100Y-1498600D01*
X+4432300Y-2330385D02*
X+4429544Y-2327629D01*
X+4429544Y-2134356D01*
X+4433900Y-2130000D01*
X+4733812Y-2330385D02*
X+4432300Y-2330385D01*
X+4733812Y-2330385D02*
X+5264085Y-2330385D01*
X+5283900Y-2350200D01*
X+4733812Y-2330385D02*
X+4733900Y-2330297D01*
X+4733900Y-2130000D01*
X+4323098Y-2330385D02*
X+4334363Y-2319120D01*
X+4334363Y-2130463D01*
X+4333900Y-2130000D01*
X+5628900Y-2375000D02*
X+5628800Y-2374900D01*
X+5308600Y-2374900D01*
X+5295900Y-2362200D01*
X+5283900Y-2350200D02*
X+5295900Y-2362200D01*
X+4203700Y-3374801D02*
X+4203501Y-3375000D01*
X+3488900Y-3375000D01*
X+4164115Y-3184466D02*
X+4191874Y-3212226D01*
X+4164115Y-3184466D02*
X+4154648Y-3175000D01*
X+4164115Y-3184466D02*
X+4154649Y-3175000D01*
X+4154648Y-3175000D02*
X+4154649Y-3175000D01*
X+4154648Y-3175000D02*
X+3488900Y-3175000D01*
X+4483458Y-3775358D02*
X+4233816Y-4025000D01*
X+3488900Y-4025000D01*
X+4483458Y-3775358D02*
X+4183100Y-3475000D01*
X+4483458Y-3775358D02*
X+4579874Y-3775358D01*
X+4830869Y-3775358D02*
X+4833900Y-3778389D01*
X+4833900Y-4270000D01*
X+4579874Y-3775358D02*
X+4830869Y-3775358D01*
X+5101619Y-3775358D01*
X+4579874Y-3775358D02*
X+4583900Y-3779384D01*
X+4583900Y-4270000D01*
X+5181600Y-3775358D02*
X+5278318Y-3775358D01*
X+5101619Y-3775358D02*
X+5083900Y-3793077D01*
X+5083900Y-4270000D01*
X+4203700Y-3374801D02*
X+4203700Y-3454400D01*
X+4183100Y-3475000D01*
X+3488900Y-3475000D02*
X+4183100Y-3475000D01*
X+5101619Y-3775358D02*
X+5181600Y-3775358D01*
X+5278318Y-3775358D02*
X+5323652Y-3775358D01*
X+5283900Y-3695700D02*
X+5283900Y-3276600D01*
X+5278318Y-3775358D02*
X+5283900Y-3769776D01*
X+5283900Y-3735606D01*
X+5283900Y-3695700D02*
X+5283900Y-3735606D01*
X+5323652Y-3775358D02*
X+5405143Y-3775358D01*
X+5405501Y-3775000D01*
X+5323652Y-3775358D02*
X+5323294Y-3775000D01*
X+5405501Y-3775000D01*
X+5628900Y-3775000D01*
X+5283900Y-3022600D02*
X+5283900Y-2725012D01*
X+5283900Y-2350200D02*
X+5283900Y-2725012D01*
X+5283912Y-2725000D01*
X+5628900Y-2725000D01*
X+5283900Y-3276600D02*
X+5283900Y-3022600D01*
X+5628900Y-3025000D02*
X+5286300Y-3025000D01*
X+5283900Y-3022600D01*
X+5283900Y-3276600D02*
X+5285500Y-3275000D01*
X+5628900Y-3275000D01*
X+5283900Y-2350200D02*
X+5283900Y-2311400D01*
X+5283900Y-2130000D01*
X+2171700Y-3525800D02*
X+1955800Y-3525800D01*
X+1930400Y-3525800D02*
X+1955800Y-3525800D01*
X+4203700Y-3374801D02*
X+4203700Y-3224051D01*
X+4164115Y-3184466D01*
X+2171700Y-3525800D02*
X+2222500Y-3475000D01*
X+3488900Y-3475000D01*
X+1322985Y-6086392D02*
X+1311955Y-6086392D01*
X+1236700Y-5549900D02*
X+1293850Y-5612763D01*
X+1311955Y-5630868D01*
X+1311955Y-6086392D01*
X+1311955Y-6097422D01*
D11*
X+1311955Y-6086392D02*
X+223932Y-6086392D01*
X-286050Y-5576410D01*
X-527338Y-5335122D01*
X-527338Y-4452056D01*
D10*
X-523900Y-4457700D02*
X-527338Y-4452056D01*
X-523900Y-4457700D02*
X-523900Y-4914900D01*
X-523900Y-4457700D02*
X-523900Y-4455494D01*
X-527338Y-4452056D01*
D11*
X+1311955Y-6097422D02*
X+1311955Y-6302846D01*
X+1339489Y-6330380D01*
X+1917700Y-6330380D01*
D10*
X+1322985Y-6086392D02*
X+1311955Y-6097422D01*
X+1236700Y-5308600D02*
X+1236700Y-5459730D01*
X+1236700Y-5549900D01*
X+9509760Y-2768600D02*
X+9512077Y-2760808D01*
X+9509760Y-2763125D01*
D11*
X+9509760Y-2768600D02*
X+9509760Y-2997200D01*
D10*
X+7823200Y-1193800D02*
X+7831684Y-1197071D01*
X+7828413Y-1193800D01*
X+9509760Y-2768600D02*
X+9509760Y-2763125D01*
X-406300Y-2333600D02*
X-406300Y-2803404D01*
X-440980Y-2838084D01*
X-431800Y-2832100D01*
X+393700Y-2333600D02*
X+193700Y-2333600D01*
X+393700Y-2333600D02*
X+593700Y-2333600D01*
D11*
X+9509760Y-2997200D02*
X+9509760Y-3238500D01*
X+9509760Y-3479800D02*
X+9509760Y-3238500D01*
X+9509760Y-3721100D02*
X+9509760Y-3479800D01*
X+9509760Y-3721100D02*
X+9509760Y-3962400D01*
D10*
X+2586000Y-6159500D02*
X+2587590Y-6157910D01*
D11*
X+2336800Y-6159500D02*
X+2088580Y-6159500D01*
X+1917700Y-6330380D01*
X+2336800Y-6159500D02*
X+2349500Y-6159500D01*
D10*
X+2587590Y-6157910D02*
X+2590800Y-6154700D01*
X+1236700Y-5549900D02*
X+1238418Y-5557331D01*
X+1236700Y-5549900D02*
X+1236700Y-5555613D01*
X+1238418Y-5557331D01*
X+5628900Y-3025000D02*
X+6322200Y-3025000D01*
X+6324600Y-3022600D01*
X+3251200Y-2399210D02*
X+3275410Y-2375000D01*
X+3488900Y-2375000D01*
X+3262876Y-5482559D02*
X+3292646Y-5512329D01*
X+3292646Y-5885053D01*
X+3715980Y-6308387D01*
X+5056981Y-6308387D01*
X+5124500Y-6240868D01*
X+5124500Y-5905500D01*
X+4539700Y-1705693D02*
X+4583900Y-1749893D01*
X+4583900Y-2130000D01*
X+5628900Y-4075000D02*
X+5921588Y-4075000D01*
X+5955138Y-4108550D01*
X+5983800Y-4137212D01*
X+5983800Y-4292600D01*
X+3302000Y-4145978D02*
X+3641528Y-4145978D01*
X+3700760Y-4086746D01*
X+4350872Y-4086746D01*
X+4382248Y-4118122D01*
X+4382248Y-4268348D01*
X+4383900Y-4270000D01*
X+337490Y-3649603D02*
X+1790700Y-3649603D01*
X+3302000Y-4145978D02*
X+3216212Y-4145978D01*
X+2952707Y-3882473D01*
X+2719837Y-3649603D01*
X+1918357Y-3649603D01*
X+1790700Y-3649603D02*
X+1918357Y-3649603D01*
X-606300Y-3080988D02*
X-562148Y-3125140D01*
X-434840Y-3125140D01*
X-431800Y-3122100D01*
X-606300Y-3080988D02*
X-606300Y-2333600D01*
X+5950637Y-2455399D02*
X+5831036Y-2575000D01*
X+5628900Y-2575000D01*
X+961073Y-3109100D02*
X+995173Y-3075000D01*
X+3488900Y-3075000D01*
X+63500Y-1557300D02*
X+72250Y-1566050D01*
X+593700Y-2133600D02*
X+593700Y-1717700D01*
X+635000Y-1676400D01*
X+818252Y-3115600D02*
X+818252Y-3148972D01*
X+826595Y-3157315D01*
X+874799Y-3205519D01*
X+1009216Y-3205519D01*
X+1089735Y-3125000D01*
X+3488900Y-3125000D01*
X+393700Y-2133600D02*
X+393700Y-1676400D01*
X-190500Y-2832100D02*
X-206300Y-2816300D01*
X-206300Y-2333600D01*
X+5712000Y-5270500D02*
X+4509840Y-5270500D01*
X+4475692Y-5236352D01*
X+4233900Y-4994560D01*
X+4233900Y-4270000D01*
X+6112000Y-5270500D02*
X+6108700Y-5267200D01*
X+6108700Y-5092700D01*
X+6051649Y-5035649D01*
X+5012822Y-5035649D01*
X+4883900Y-4906727D01*
X+4883900Y-4270000D01*
X+5422900Y-5168900D02*
X+4590448Y-5168900D01*
X+4505024Y-5083476D01*
X+4345694Y-4924146D01*
X+4333900Y-4912352D01*
X+4333900Y-4270000D01*
X+2527300Y-1198600D02*
X+2514600Y-1211300D01*
X+2310900Y-1211300D01*
X+1905000Y-1986000D02*
X+1905000Y-2413000D01*
X+1905000Y-1986000D02*
X+2100359Y-1986000D01*
X+2108565Y-1977794D01*
X+2121400Y-1978100D01*
X+1905000Y-1986000D02*
X+1663700Y-1986000D01*
X+45274Y-3352800D02*
X+45274Y-3512374D01*
X+50800Y-3517900D01*
X+45274Y-3276139D02*
X+45274Y-3327400D01*
X+45274Y-3352800D01*
X+3340100Y-3325000D02*
X+3488900Y-3325000D01*
X+3289222Y-3325000D02*
X+3340100Y-3325000D01*
X+4804966Y-4483100D02*
X+4800600Y-4483100D01*
X+4783900Y-4466400D01*
X+4783900Y-4270000D01*
X+4962849Y-4480534D02*
X+4983900Y-4459483D01*
X+4983900Y-4270000D01*
X+2514600Y-1978100D02*
X+2527300Y-1990800D01*
X+2527300Y-1998700D01*
X+2527300Y-1986000D01*
X+2781300Y-1986000D02*
X+2773400Y-1978100D01*
X+2514600Y-1978100D01*
X+2311400Y-1978100D01*
X+3931405Y-1858255D02*
X+3982333Y-1909183D01*
X+3982333Y-2053800D01*
X+3983900Y-2130000D01*
X+4508500Y-4635500D02*
X+4533900Y-4610100D01*
X+4533900Y-4270000D01*
X+1905000Y-1203400D02*
X+2107668Y-1203400D01*
X+2109872Y-1205604D01*
X+2120900Y-1211300D01*
X+3313388Y-3600836D02*
X+3313388Y-3527326D01*
X+3311062Y-3525000D01*
X+2455828Y-3546619D02*
X+2477447Y-3525000D01*
X+3311062Y-3525000D01*
X+3488900Y-3525000D01*
X+2372206Y-3196056D02*
X+2372206Y-3218031D01*
X+2379175Y-3225000D01*
X+2095500Y-3225000D02*
X+2379175Y-3225000D01*
X+3488900Y-3225000D01*
D11*
X+393700Y-1386400D02*
X+622300Y-1386400D01*
X+635000Y-1386400D02*
X+622300Y-1386400D01*
D10*
X+1930400Y-3225800D02*
X+1931200Y-3225000D01*
X+2095500Y-3225000D01*
X+2096300Y-3225800D01*
X+2171700Y-3225800D01*
D11*
X-190500Y-3122100D02*
X-190500Y-3250768D01*
X-257542Y-3317810D01*
X-639838Y-3317810D01*
X-704634Y-3253014D01*
X-823124Y-3134524D01*
X-857028Y-3101159D02*
X-823663Y-3134524D01*
X-823124Y-3134524D01*
D10*
X-584100Y-1569900D02*
X-571500Y-1557300D01*
X+2591733Y-5853767D02*
X+2591733Y-5842000D01*
X+2590800Y-5854700D02*
X+2591733Y-5853767D01*
X+2574233Y-5859500D02*
X+2586000Y-5859500D01*
X+2574233Y-5859500D02*
X+2463800Y-5859500D01*
X+2349500Y-5859500D01*
X+2590800Y-5854700D02*
X+2578100Y-5867400D01*
X+2586000Y-5859500D01*
X+2590800Y-5854700D02*
X+2586000Y-5859500D01*
X+1722985Y-6086392D02*
X+1717334Y-6080741D01*
X+1717334Y-5917969D01*
X+1775803Y-5859500D01*
X+2336800Y-5859500D01*
X+2349500Y-5859500D01*
X+2590800Y-5854700D02*
X+2591733Y-5842000D01*
X+6273800Y-4152900D02*
X+6273800Y-4292600D01*
X+6273800Y-3797300D02*
X+6246100Y-3825000D01*
X+5628900Y-3825000D01*
X+6268211Y-2775000D02*
X+5628900Y-2775000D01*
X+6268211Y-2855011D02*
X+6268211Y-2775000D01*
D11*
X+1536700Y-5308600D02*
X+1536700Y-5156200D01*
X+1524000Y-5143500D01*
X+1422400Y-1986000D02*
X+1412157Y-1990860D01*
X+1407297Y-1986000D01*
X+1181100Y-1986000D01*
D10*
X+3683000Y-1752600D02*
X+3683900Y-1753500D01*
X+3683900Y-2130000D01*
D11*
X-723900Y-4914900D02*
X-830623Y-4914900D01*
X-951575Y-4793948D01*
X-951575Y-4078275D01*
X-619200Y-3745900D01*
X+1536700Y-5308600D02*
X+1536700Y-5549900D01*
X+1522985Y-6086392D02*
X+1522985Y-5563615D01*
X+1536700Y-5549900D01*
D10*
X+4458798Y-1785213D02*
X+4460365Y-1785213D01*
X+4535102Y-1859950D01*
X+4535102Y-2128798D01*
X+4533900Y-2130000D01*
D11*
X+1422400Y-1986000D02*
X+1422400Y-2155027D01*
X+1433045Y-2165672D01*
D10*
X+2768600Y-1198600D02*
X+2781300Y-1198600D01*
X+2768600Y-1198600D02*
X+2527300Y-1198600D01*
X+593700Y-2133600D02*
X+602138Y-2125162D01*
X+810974Y-2125162D01*
X+825500Y-2139688D01*
X+825500Y-2874225D01*
X+926275Y-2975000D01*
X+3488900Y-2975000D01*
X-190500Y-2832100D02*
X+241300Y-2832100D01*
X+434200Y-3025000D01*
X+3488900Y-3025000D01*
X+6177692Y-3187394D02*
X+6156049Y-3165751D01*
X+6624600Y-3022600D02*
X+6624826Y-3022826D01*
X+6624826Y-3124200D01*
X+6156049Y-3165751D02*
X+6065298Y-3075000D01*
X+5628900Y-3075000D01*
X+6210300Y-2489200D02*
X+6197600Y-2489200D01*
X+5984438Y-2489200D01*
X+5950637Y-2455399D01*
X+6464300Y-2781300D02*
X+6553865Y-2781300D01*
X+6560165Y-2775000D01*
X+6624600Y-3022600D02*
X+6628226Y-3013981D01*
X+6624826Y-3010581D01*
X+6624826Y-2796364D01*
X+6603462Y-2775000D01*
X+6560165Y-2775000D01*
X+6268211Y-2775000D01*
X+6194149Y-3203851D02*
X+6570575Y-3203851D01*
X+6624826Y-3149600D01*
X+6624826Y-3124200D02*
X+6624826Y-3149600D01*
X+6194149Y-3203851D02*
X+6177692Y-3187394D01*
X+6197600Y-2189200D02*
X+6215100Y-2171700D01*
X+6331729Y-2171700D01*
X+6540500Y-1193800D02*
X+6380198Y-1193800D01*
X+6331729Y-1242269D01*
X+6331729Y-2171700D01*
X+6331729Y-2260017D01*
X+6234530Y-2357216D01*
X+6216746Y-2375000D01*
X+5628900Y-2375000D01*
X+9151500Y-2168100D02*
X+8513301Y-2168100D01*
X+8505512Y-2160311D01*
X+8501500Y-2168100D01*
X+7644497Y-2168100D01*
X+7028304Y-2784293D01*
X+6829674Y-2784293D01*
X+6832600Y-2476500D02*
X+6464880Y-2476500D01*
X+6456183Y-2485197D01*
X+6452180Y-2489200D01*
X+6464300Y-2491300D01*
X+6210300Y-2489200D02*
X+6452180Y-2489200D01*
X+6456183Y-2485197D02*
X+6464300Y-2491300D01*
X+9151500Y-1718100D02*
X+8501500Y-1718100D01*
D11*
X+9151500Y-1718100D02*
X+9509380Y-1718100D01*
X+9509760Y-1718480D01*
X+9509760Y-2763125D02*
X+9509760Y-2692400D01*
X+9509760Y-1718480D01*
D10*
X+2590800Y-5374200D02*
X+2590800Y-5166702D01*
X+2610740Y-5146762D01*
X+2677502Y-5080000D01*
X+3238500Y-5080000D01*
X+3319118Y-5080000D01*
X+4000500Y-5080000D02*
X+3319118Y-5080000D01*
X+2586000Y-5859500D02*
X+2586000Y-5847733D01*
X+2586000Y-5669000D01*
X+2590800Y-5664200D01*
X+2591733Y-5842000D02*
X+2586000Y-5847733D01*
X+2574233Y-5859500D01*
D11*
X+2578100Y-6159500D02*
X+2586000Y-6159500D01*
X+2578100Y-6159500D02*
X+2349500Y-6159500D01*
D10*
X+7810500Y-1193800D02*
X+7823200Y-1193800D01*
X+7828413Y-1193800D01*
X+6540500Y-1193800D02*
X+7810500Y-1193800D01*
X+5353050Y-1860550D02*
X+5366194Y-1847406D01*
X+5606398Y-1847406D01*
X+5639519Y-1847406D01*
X+5835804Y-2043691D01*
X+5873205Y-2081092D01*
X+5873205Y-2172155D01*
X+5353050Y-1860550D02*
X+5333900Y-1879700D01*
X+5333900Y-2130000D01*
X+4783900Y-1917700D02*
X+4783900Y-1813228D01*
X+4783900Y-1917700D02*
X+4783900Y-2130000D01*
X+4683900Y-1930400D02*
X+4683900Y-1780706D01*
X+4772378Y-1692228D01*
X+4683900Y-1930400D02*
X+4683900Y-2130000D01*
X+4633900Y-1854200D02*
X+4633900Y-1700640D01*
X+4663171Y-1671369D01*
X+4633900Y-1854200D02*
X+4633900Y-2130000D01*
X+5080000Y-1498600D02*
X+5133900Y-1552500D01*
X+5133900Y-1651000D01*
X+5133900Y-2130000D01*
X+4381500Y-1701800D02*
X+4381500Y-1714500D01*
X+4381500Y-1727200D01*
X+4381500Y-1747995D01*
X+4381500Y-1841500D01*
X+4483900Y-1943900D01*
X+4483900Y-2130000D01*
X+4394200Y-1689100D02*
X+4445000Y-1638300D01*
X+4502410Y-1580890D01*
X+4722518Y-1580890D01*
X+4819068Y-1580890D01*
X+4884672Y-1646494D01*
X+4884672Y-1712456D01*
X+4841614Y-1755514D01*
X+4783900Y-1813228D02*
X+4841614Y-1755514D01*
X+4394200Y-1689100D02*
X+4381500Y-1701800D01*
X+3619500Y-1657716D02*
X+3543300Y-1733916D01*
X+3543300Y-1765300D01*
X+3783900Y-2130000D02*
X+3783900Y-1706861D01*
X+3734755Y-1657716D01*
X+3619500Y-1657716D01*
X+645600Y-3975100D02*
X+677356Y-3943344D01*
X+2757181Y-3943344D01*
X+2754646Y-2455683D02*
X+2754646Y-2274554D01*
X+3462417Y-1566783D01*
X+3738695Y-1566783D01*
X+3833900Y-1661988D01*
X+3833900Y-2130000D01*
X+5628900Y-2325000D02*
X+5935621Y-2325000D01*
X+5995388Y-2265233D01*
X+5995388Y-2096488D01*
X+5651500Y-1752600D01*
X+5308600Y-1752600D01*
X+3668231Y-2304530D02*
X+3458583Y-2094882D01*
X+3458583Y-1693133D01*
X+3110292Y-1692508D02*
X+2770615Y-1692508D01*
X+2764107Y-1686000D01*
X+2781300Y-1686000D01*
X+2527300Y-1686000D02*
X+2764107Y-1686000D01*
X+3685517Y-2321816D02*
X+3668231Y-2304530D01*
X+4381500Y-2330385D02*
X+4323098Y-2330385D01*
X+3694086Y-2330385D02*
X+3694085Y-2330385D01*
X+3653650Y-2289950D01*
X+4432300Y-2330385D02*
X+4381500Y-2330385D01*
X+4154648Y-3175000D02*
X+4154648Y-2790947D01*
X+3694085Y-2330385D01*
X+3694086Y-2330385D01*
X+3685517Y-2321816D01*
X+3733900Y-2130000D02*
X+3733900Y-2330285D01*
X+3733800Y-2330385D01*
X+4323098Y-2330385D02*
X+3733800Y-2330385D01*
X+3694086Y-2330385D01*
X+3530600Y-1447800D02*
X+3492500Y-1447800D01*
X+3429000Y-1511300D01*
X+3378200Y-1562100D01*
X+2954300Y-1986000D01*
X+2781300Y-1986000D01*
X+4022571Y-1461404D02*
X+4086897Y-1525730D01*
X+4086897Y-1570406D01*
X+4086897Y-2053800D01*
X+4083900Y-2130000D01*
X+4332700Y-1600200D02*
X+4332700Y-1968500D01*
X+4383900Y-2019700D01*
X+4383900Y-2130000D01*
X+4313581Y-1388550D02*
X+4283900Y-1418231D01*
X+4283900Y-1467132D01*
X+4283900Y-2130000D01*
X+4140200Y-1384300D02*
X+4183900Y-1428000D01*
X+4183900Y-1467361D01*
X+4183900Y-2130000D01*
X+3467100Y-1198600D02*
X+3563900Y-1198600D01*
X+4253372Y-1198600D01*
X+4395846Y-1341074D01*
X+4332700Y-1600200D02*
X+4395846Y-1537054D01*
X+4395846Y-1341074D01*
X+2781300Y-1198600D02*
X+3467100Y-1198600D01*
D11*
X+1683961Y-1195497D02*
X+1393901Y-1195497D01*
X+1390798Y-1198600D01*
X+1181100Y-1198600D02*
X+1390798Y-1198600D01*
X+1435100Y-1198600D01*
D10*
X+1905000Y-1203400D02*
X+1752806Y-1355594D01*
X+1521114Y-1355594D01*
X+665806Y-1355594D01*
X+635000Y-1386400D01*
X+3488900Y-4025000D02*
X+3304485Y-4025000D01*
X+3269501Y-3990016D01*
X+3525839Y-5200604D02*
X+3568700Y-5243465D01*
X+3568700Y-5267871D01*
D11*
X+3139529Y-5267871D01*
X+2900610Y-5506790D01*
X+2900610Y-5998097D01*
X+2739207Y-6159500D01*
X+2586000Y-6159500D01*
D10*
X+7378700Y-3525000D02*
X+7435102Y-3525000D01*
X+7458900Y-3501202D01*
X+5628900Y-3525000D02*
X+7378700Y-3525000D01*
X+8610600Y-4991100D02*
X+8610600Y-4911700D01*
X+8356600Y-4657700D01*
D11*
X+9509760Y-3962400D02*
X+9509760Y-4117340D01*
X+9258300Y-4368800D01*
X+9232900Y-4368800D01*
X+8610600Y-4991100D01*
X+7975600Y-5626100D01*
X+4017896Y-5626100D01*
X+3659667Y-5267871D01*
X+3568700Y-5267871D01*
X-406300Y-1930400D02*
X-406300Y-2133600D01*
X-823124Y-3134524D02*
X-857984Y-3099664D01*
X-857984Y-2078049D01*
X-857984Y-2057400D01*
X-857984Y-2032000D02*
X-756384Y-1930400D01*
X-730984Y-1930400D01*
X-723900Y-1930400D01*
X-691040Y-1930400D01*
X-857984Y-2057400D02*
X-857984Y-2032000D01*
X-584100Y-1460500D02*
X-584100Y-1569900D01*
D10*
X-571500Y-1257300D02*
X-812800Y-1257300D01*
X-825500Y-1270000D01*
D11*
X-584100Y-1569900D02*
X-584100Y-1930400D01*
X-406300Y-1930400D01*
X-691040Y-1930400D02*
X-584100Y-1930400D01*
X-584100Y-1460500D02*
X-495300Y-1384300D01*
X+391600Y-1384300D01*
X+393700Y-1386400D01*
D10*
X-114300Y-1257300D02*
X-177800Y-1257300D01*
X-571500Y-1257300D02*
X-177800Y-1257300D01*
X+63500Y-1257300D02*
X-114300Y-1257300D01*
X+63500Y-1557300D02*
X-177800Y-1557300D01*
X+193700Y-2133600D02*
X+190500Y-2133600D01*
X+190500Y-1684300D01*
X+72250Y-1566050D01*
X+3225800Y-2540000D02*
X+3302000Y-2540000D01*
X+2451100Y-2540000D02*
X+2489200Y-2540000D01*
X+2540000Y-2590800D01*
X+3225800Y-2540000D02*
X+3137242Y-2628558D01*
X+2727121Y-2628558D01*
X+2577758Y-2628558D01*
X+2540000Y-2590800D01*
X+939800Y-1778000D02*
X+939800Y-2451100D01*
X+1028700Y-2540000D01*
X+2451100Y-2540000D01*
X+1739900Y-3467100D02*
X+1778000Y-3429000D01*
X+1790700Y-3416300D01*
X+1845570Y-3361430D01*
X+1930400Y-3361430D01*
X+3289222Y-3325000D02*
X+2616200Y-3325000D01*
X+2386882Y-3325000D01*
X+2350452Y-3361430D01*
X+1930400Y-3361430D01*
X+50800Y-3517900D02*
X+1689100Y-3517900D01*
X+1739900Y-3467100D01*
X+1447800Y-3225800D02*
X+1375730Y-3225800D01*
X+1078998Y-3225800D01*
X+1011594Y-3293204D01*
X-190500Y-3122100D02*
X-100330Y-3115508D01*
X+327517Y-3115508D01*
X+461660Y-3249651D01*
X+505213Y-3293204D01*
X+1011594Y-3293204D01*
X+1447800Y-3225800D02*
X+1930400Y-3225800D01*
X-63500Y-4697601D02*
X+39408Y-4697601D01*
X+122254Y-4697601D01*
X+258111Y-4833458D01*
X-63500Y-4697601D02*
X-249741Y-4697601D01*
X-323900Y-4623442D01*
X-323900Y-4457700D01*
X+214226Y-4789574D02*
X+258110Y-4833458D01*
X+258111Y-4833458D01*
X+393700Y-4833458D01*
X+3983900Y-4270000D02*
X+3983900Y-4698858D01*
X+3849300Y-4833458D01*
X+393700Y-4833458D01*
X+258110Y-4833458D01*
X+609600Y-4721507D02*
X+498209Y-4721507D01*
X+401775Y-4721507D01*
X+269339Y-4589071D01*
X-33729Y-4589071D01*
X-114300Y-4508500D01*
X-114300Y-4467300D01*
X-123900Y-4457700D01*
X+3883900Y-4270000D02*
X+3883900Y-4607712D01*
X+3770105Y-4721507D01*
X+609600Y-4721507D01*
X+4699098Y-4921183D02*
X+4699098Y-4864198D01*
X+4699000Y-4864100D01*
X+4699000Y-4445000D01*
X+4733900Y-4410100D01*
X+4733900Y-4270000D01*
X+4380858Y-5271142D02*
X+4465313Y-5355597D01*
X+4701939Y-5355597D01*
X+5439623Y-5355597D01*
X+5479390Y-5395364D01*
X+5582696Y-5498670D01*
X+5746850Y-5498670D01*
X+5912000Y-5270500D02*
X+5912000Y-5472616D01*
X+5885946Y-5498670D01*
X+5746850Y-5498670D01*
X+4380858Y-5271142D02*
X+4133900Y-5024184D01*
X+4133900Y-4270000D01*
X+6019800Y-3725000D02*
X+5628900Y-3725000D01*
X+6037274Y-3362416D02*
X+5899858Y-3225000D01*
X+5796862Y-3225000D01*
X+5740400Y-3225000D01*
X+5628900Y-3225000D01*
X+8648095Y-2997365D02*
X+8648095Y-3009295D01*
X+8648700Y-3009900D01*
X+8648260Y-2997200D02*
X+8648095Y-2997365D01*
X+8064500Y-3625000D02*
X+8159381Y-3530119D01*
X+8159381Y-3157597D01*
X+8159381Y-3040643D01*
X+8285277Y-2914747D01*
X+8064500Y-3625000D02*
X+5628900Y-3625000D01*
X+8285277Y-2914747D02*
X+8285277Y-2914746D01*
X+8026400Y-3677963D02*
X+8085194Y-3677963D01*
X+8197011Y-3566146D01*
X+8205094Y-3558063D01*
X+8205094Y-3162300D01*
X+8205094Y-3079629D01*
X+8326026Y-2958697D01*
X+8362928Y-2921795D01*
X+8413560Y-2921795D01*
X+8470900Y-2921795D01*
X+6019800Y-3725000D02*
X+6066837Y-3677963D01*
X+6094746Y-3677963D01*
X+8026400Y-3677963D01*
X+8470900Y-2921795D02*
X+8514161Y-2921795D01*
X+8630238Y-2921795D01*
X+8648095Y-2939652D01*
X+8648095Y-2997365D01*
X+8305112Y-2894912D02*
X+8349562Y-2850462D01*
X+8350930Y-2849094D01*
X+8591563Y-2849094D01*
X+8617648Y-2823009D01*
X+8636366Y-2804291D01*
X+8636366Y-2787963D01*
X+8285277Y-2914746D02*
X+8305112Y-2894912D01*
X+8617648Y-2823009D02*
X+8633194Y-2823009D01*
X+8644298Y-2811905D01*
X+8646160Y-2810043D01*
X+8646160Y-2768600D01*
X+8285277Y-2914747D02*
X+8305112Y-2894912D01*
X+8566824Y-3314700D02*
X+8636000Y-3314700D01*
X+8648260Y-3302440D01*
X+8648260Y-3238500D01*
X+8115300Y-3875000D02*
X+5628900Y-3875000D01*
X+8077200Y-3924300D02*
X+8136206Y-3924300D01*
X+8077200Y-3924300D02*
X+5803900Y-3924300D01*
X+5803200Y-3925000D01*
X+5628900Y-3925000D01*
X+8572500Y-3403600D02*
X+8591110Y-3403600D01*
X+8136206Y-3924300D02*
X+8378324Y-3682182D01*
X+8378324Y-3446698D01*
X+8421422Y-3403600D01*
X+8572500Y-3403600D01*
X+8641650Y-3470986D02*
X+8640772Y-3471864D01*
X+8646165Y-3416300D02*
X+8646165Y-3466471D01*
X+8646165Y-3477006D01*
X+8646165Y-3477705D01*
X+8648260Y-3479800D01*
X+8641650Y-3470986D02*
X+8646165Y-3477006D01*
X+8648260Y-3479800D01*
X+8591110Y-3403600D02*
X+8642614Y-3403600D01*
X+8646165Y-3407151D01*
X+8646165Y-3416300D01*
X+8646165Y-3466471D02*
X+8641650Y-3470986D01*
X+8329115Y-3429000D02*
X+8443415Y-3314700D01*
X+8496300Y-3314700D01*
X+8115300Y-3875000D02*
X+8329115Y-3661185D01*
X+8329115Y-3438674D01*
X+8329115Y-3429000D01*
X+8496300Y-3314700D02*
X+8566824Y-3314700D01*
X+8153400Y-3975000D02*
X+5628900Y-3975000D01*
X+4660900Y-6138803D02*
X+4398903Y-6138803D01*
X+3802003Y-6138803D01*
X+3797300Y-6134100D01*
X+3759200Y-6096000D01*
X+3499093Y-5455826D02*
X+3492500Y-5462419D01*
X+3492500Y-5829300D01*
X+3759200Y-6096000D01*
X+4660900Y-6138803D02*
X+4690070Y-6138803D01*
X+4724500Y-6104373D01*
X+4724500Y-5905500D01*
X+3391926Y-5464385D02*
X+3391926Y-5868426D01*
X+3759200Y-6235700D01*
X+4889500Y-6235700D01*
X+4924500Y-6200700D01*
X+4924500Y-6121400D01*
X+4924500Y-5905500D01*
X+8191450Y-3936950D02*
X+8270735Y-3857665D01*
X+8566386Y-3857665D01*
X+8645407Y-3857665D01*
X+8648543Y-3854529D01*
X+8648543Y-3786983D01*
X+8646160Y-3784600D01*
X+8153400Y-3975000D02*
X+8191450Y-3936950D01*
X+8140700Y-4025000D02*
X+8178289Y-4025000D01*
X+5628900Y-4025000D02*
X+8140700Y-4025000D01*
X+8178289Y-4025000D02*
X+8192400Y-4025000D01*
X+8255494Y-3961906D01*
X+8643887Y-3961906D01*
X+8646299Y-3964318D01*
X+8646299Y-4036639D01*
X+8648260Y-4038600D01*
X+8936160Y-3784600D02*
X+8999660Y-3721100D01*
X+9194800Y-3721100D01*
X+8938260Y-4038600D02*
X+9014460Y-3962400D01*
X+9194800Y-3962400D01*
X+5333900Y-4597400D02*
X+5333900Y-4693099D01*
X+5416909Y-4776108D01*
X+6033408Y-4776108D01*
X+6204125Y-4946825D01*
X+6235700Y-4978400D01*
X+6312000Y-5270500D02*
X+6312000Y-5054700D01*
X+6299200Y-5041900D01*
X+6235700Y-4978400D01*
X+5333900Y-4597400D02*
X+5333900Y-4270000D01*
X+5033900Y-4699000D02*
X+5033900Y-4736269D01*
X+5145823Y-4848192D01*
X+5286934Y-4848192D01*
X+5287881Y-4847245D01*
X+5033900Y-4699000D02*
X+5033900Y-4270000D01*
X+4933900Y-2130000D02*
X+4933900Y-1931026D01*
X+4882848Y-1879974D01*
D12*
X+2870200Y-2324100D03*
X+296957Y-4742626D03*
X-825500Y-1270000D03*
X+3251200Y-2399210D03*
X+3499093Y-5455826D03*
X+3391926Y-5464385D03*
X+3262876Y-5482559D03*
X+4539700Y-1705693D03*
X+337490Y-3649603D03*
X-606300Y-3080988D03*
X+4000500Y-5080000D03*
X+5950637Y-2455399D03*
X+3302000Y-2540000D03*
X+939800Y-1778000D03*
X+961073Y-3109100D03*
X+818252Y-3115600D03*
X+5422900Y-5168900D03*
X+1905000Y-2413000D03*
X+1778000Y-3429000D03*
X+45274Y-3276139D03*
X+4804966Y-4483100D03*
X+4962849Y-4480534D03*
X+3289222Y-3325000D03*
X+3931405Y-1858255D03*
X+4508500Y-4635500D03*
X+3313388Y-3600836D03*
X+2372206Y-3196056D03*
X+2455828Y-3546619D03*
X-857028Y-3101159D03*
X+6273800Y-4152900D03*
X+6273800Y-3797300D03*
X+6268211Y-2855011D03*
X+1524000Y-5143500D03*
X+3683000Y-1752600D03*
X+4458798Y-1785213D03*
X+1433045Y-2165672D03*
X+6829674Y-2784293D03*
X+6832600Y-2476500D03*
X+5873205Y-2172155D03*
X+4772378Y-1692228D03*
X+4663171Y-1671369D03*
X+5080000Y-1498600D03*
X+4445000Y-1638300D03*
X+3543300Y-1765300D03*
X+2757181Y-3943344D03*
X+2754646Y-2455683D03*
X+5308600Y-1752600D03*
X+3458583Y-1693133D03*
X+3110292Y-1692508D03*
X+3530600Y-1447800D03*
X+4022571Y-1461404D03*
X+4313581Y-1388550D03*
X+4140200Y-1384300D03*
X+1683961Y-1195497D03*
X+3269501Y-3990016D03*
X+3525839Y-5200604D03*
X+7458900Y-3501202D03*
X+4699098Y-4921183D03*
X+6037274Y-3362416D03*
X+5287881Y-4847245D03*
X+4882848Y-1879974D03*
D10*
X+9672320Y-6370320D02*
X-1036320Y-6370320D01*
X-1036320Y-1059180D01*
X+9672320Y-1059180D01*
X+9672320Y-6370320D01*
X+9405619Y-4890719D02*
X+9405619Y-5290719D01*
X+9085581Y-5290719D01*
X+9085581Y-4672281D01*
X+9405619Y-4672281D01*
X+9405619Y-4890719D01*
X+8465719Y-6065519D02*
X+7247281Y-6065519D01*
X+7247281Y-5745481D01*
X+8465719Y-5745481D01*
X+8465719Y-6065519D01*
X+8920481Y-6114190D02*
X+8920481Y-5823810D01*
X+9125810Y-5618481D01*
X+9416190Y-5618481D01*
X+9621519Y-5823810D01*
X+9621519Y-6114190D01*
X+9416190Y-6319519D01*
X+9125810Y-6319519D01*
X+8920481Y-6114190D01*
X-985519Y-6114190D02*
X-985519Y-5823810D01*
X-780190Y-5618481D01*
X-489810Y-5618481D01*
X-284481Y-5823810D01*
X-284481Y-6114190D01*
X-489810Y-6319519D01*
X-780190Y-6319519D01*
X-985519Y-6114190D01*
X+3570212Y-5426368D02*
X+3570212Y-5485284D01*
X+3538219Y-5517277D01*
X+3538219Y-5810363D01*
X+3820940Y-6093084D01*
X+4671133Y-6093084D01*
X+4678782Y-6085435D01*
X+4678782Y-6065519D01*
X+4015281Y-6065519D01*
X+4015281Y-5745481D01*
X+5233719Y-5745481D01*
X+5233719Y-6065519D01*
X+5170219Y-6065519D01*
X+5170219Y-6259805D01*
X+5075918Y-6354106D01*
X+3697043Y-6354106D01*
X+3246927Y-5903990D01*
X+3246927Y-5553678D01*
X+3233418Y-5553678D01*
X+3191757Y-5512017D01*
X+3191757Y-5453101D01*
X+3233418Y-5411440D01*
X+3292334Y-5411440D01*
X+3320807Y-5439913D01*
X+3320807Y-5434927D01*
X+3362468Y-5393266D01*
X+3421384Y-5393266D01*
X+3441230Y-5413112D01*
X+3469635Y-5384707D01*
X+3528551Y-5384707D01*
X+3570212Y-5426368D01*
X+6795719Y-6065519D02*
X+5577281Y-6065519D01*
X+5577281Y-5745481D01*
X+6795719Y-5745481D01*
X+6795719Y-6065519D01*
X+2904489Y-1152881D02*
X+4272309Y-1152881D01*
X+4441565Y-1322137D01*
X+4441565Y-1360011D01*
X+4441564Y-1555992D01*
X+4430375Y-1567181D01*
X+4451463Y-1567181D01*
X+4483473Y-1535171D01*
X+4838005Y-1535171D01*
X+4930391Y-1627557D01*
X+4930391Y-1731393D01*
X+4829619Y-1832165D01*
X+4829619Y-1832626D01*
X+4853390Y-1808855D01*
X+4912306Y-1808855D01*
X+4953967Y-1850516D01*
X+4953967Y-1886437D01*
X+4979619Y-1912089D01*
X+4979619Y-2020781D01*
X+5088181Y-2020781D01*
X+5088181Y-1571437D01*
X+5086463Y-1569719D01*
X+5050542Y-1569719D01*
X+5008881Y-1528058D01*
X+5008881Y-1469142D01*
X+5050542Y-1427481D01*
X+5109458Y-1427481D01*
X+5151119Y-1469142D01*
X+5151119Y-1505063D01*
X+5179619Y-1533563D01*
X+5179619Y-2022051D01*
X+5188181Y-2022051D01*
X+5188181Y-2020781D01*
X+5288181Y-2020781D01*
X+5288181Y-1860763D01*
X+5325225Y-1823719D01*
X+5279142Y-1823719D01*
X+5237481Y-1782058D01*
X+5237481Y-1723142D01*
X+5279142Y-1681481D01*
X+5338058Y-1681481D01*
X+5363458Y-1706881D01*
X+5670437Y-1706881D01*
X+6041107Y-2077551D01*
X+6041107Y-2284170D01*
X+5954558Y-2370719D01*
X+5738119Y-2370719D01*
X+5738119Y-2529281D01*
X+5812099Y-2529281D01*
X+5879518Y-2461862D01*
X+5879518Y-2425941D01*
X+5921179Y-2384280D01*
X+5980095Y-2384280D01*
X+6021756Y-2425941D01*
X+6021756Y-2443481D01*
X+6074411Y-2443481D01*
X+6074411Y-2399031D01*
X+6320789Y-2399031D01*
X+6320789Y-2443481D01*
X+6341111Y-2443481D01*
X+6341111Y-2401131D01*
X+6587489Y-2401131D01*
X+6587489Y-2430781D01*
X+6777742Y-2430781D01*
X+6803142Y-2405381D01*
X+6862058Y-2405381D01*
X+6903719Y-2447042D01*
X+6903719Y-2505958D01*
X+6862058Y-2547619D01*
X+6803142Y-2547619D01*
X+6777742Y-2522219D01*
X+6587489Y-2522219D01*
X+6587489Y-2579281D01*
X+6999182Y-2579281D01*
X+7122174Y-2456289D01*
X+7122174Y-1872456D01*
X+7064942Y-1815224D01*
X+7005319Y-1815224D01*
X+7005319Y-1899919D01*
X+6380481Y-1899919D01*
X+6380481Y-1630681D01*
X+6486338Y-1630681D01*
X+6486338Y-1583969D01*
X+6417311Y-1583969D01*
X+6417311Y-1403631D01*
X+6494781Y-1403631D01*
X+6494781Y-1378063D01*
X+6585063Y-1287781D01*
X+6932931Y-1287781D01*
X+6932931Y-1210311D01*
X+7113269Y-1210311D01*
X+7113269Y-1456689D01*
X+6932931Y-1456689D01*
X+6932931Y-1379219D01*
X+6622937Y-1379219D01*
X+6598525Y-1403631D01*
X+6663689Y-1403631D01*
X+6663689Y-1583969D01*
X+6577776Y-1583969D01*
X+6577776Y-1630681D01*
X+7005319Y-1630681D01*
X+7005319Y-1723786D01*
X+7102816Y-1723786D01*
X+7191087Y-1812057D01*
X+7270863Y-1732281D01*
X+7345681Y-1732281D01*
X+7345681Y-1630681D01*
X+7777481Y-1630681D01*
X+7777481Y-1583969D01*
X+7700011Y-1583969D01*
X+7700011Y-1403631D01*
X+7766197Y-1403631D01*
X+7741785Y-1379219D01*
X+7403269Y-1379219D01*
X+7403269Y-1456689D01*
X+7222931Y-1456689D01*
X+7222931Y-1210311D01*
X+7403269Y-1210311D01*
X+7403269Y-1287781D01*
X+7779659Y-1287781D01*
X+7866094Y-1374216D01*
X+7866094Y-1403631D01*
X+7946389Y-1403631D01*
X+7946389Y-1583969D01*
X+7868919Y-1583969D01*
X+7868919Y-1630681D01*
X+7970519Y-1630681D01*
X+7970519Y-1899919D01*
X+7345681Y-1899919D01*
X+7345681Y-1823719D01*
X+7308737Y-1823719D01*
X+7259319Y-1873137D01*
X+7259319Y-2488622D01*
X+7625560Y-2122381D01*
X+8366881Y-2122381D01*
X+8366881Y-2033481D01*
X+8636119Y-2033481D01*
X+8636119Y-2122381D01*
X+9016881Y-2122381D01*
X+9016881Y-2033481D01*
X+9286119Y-2033481D01*
X+9286119Y-2302719D01*
X+9016881Y-2302719D01*
X+9016881Y-2213819D01*
X+8636119Y-2213819D01*
X+8636119Y-2302719D01*
X+8366881Y-2302719D01*
X+8366881Y-2213819D01*
X+7663434Y-2213819D01*
X+7047241Y-2830012D01*
X+6884532Y-2830012D01*
X+6859132Y-2855412D01*
X+6800216Y-2855412D01*
X+6758555Y-2813751D01*
X+6758555Y-2754835D01*
X+6792671Y-2720719D01*
X+6587489Y-2720719D01*
X+6587489Y-2729281D01*
X+6622399Y-2729281D01*
X+6670545Y-2777427D01*
X+6670545Y-2899411D01*
X+6714769Y-2899411D01*
X+6714769Y-3145789D01*
X+6670545Y-3145789D01*
X+6670545Y-3168537D01*
X+6589513Y-3249569D01*
X+6570575Y-3249569D01*
X+6175212Y-3249570D01*
X+6046361Y-3120719D01*
X+5738119Y-3120719D01*
X+5738119Y-3179281D01*
X+5918795Y-3179281D01*
X+6030811Y-3291297D01*
X+6066732Y-3291297D01*
X+6108393Y-3332958D01*
X+6108393Y-3391874D01*
X+6066732Y-3433535D01*
X+6007816Y-3433535D01*
X+5966155Y-3391874D01*
X+5966155Y-3355953D01*
X+5880921Y-3270719D01*
X+5738119Y-3270719D01*
X+5738119Y-3479281D01*
X+7387781Y-3479281D01*
X+7387781Y-3471744D01*
X+7429442Y-3430083D01*
X+7488358Y-3430083D01*
X+7530019Y-3471744D01*
X+7530019Y-3530660D01*
X+7488358Y-3572321D01*
X+7429442Y-3572321D01*
X+7427840Y-3570719D01*
X+5738119Y-3570719D01*
X+5738119Y-3579281D01*
X+8045563Y-3579281D01*
X+8113662Y-3511182D01*
X+8113662Y-3021706D01*
X+8331992Y-2803376D01*
X+8555991Y-2803376D01*
X+8555991Y-2645411D01*
X+8736329Y-2645411D01*
X+8736329Y-2874011D01*
X+8738429Y-2874011D01*
X+8738429Y-3602989D01*
X+8558091Y-3602989D01*
X+8558091Y-3449319D01*
X+8440359Y-3449319D01*
X+8424043Y-3465635D01*
X+8424043Y-3701119D01*
X+8313216Y-3811946D01*
X+8555991Y-3811946D01*
X+8555991Y-3661411D01*
X+8736329Y-3661411D01*
X+8736329Y-3907789D01*
X+8555991Y-3907789D01*
X+8555991Y-3903384D01*
X+8289672Y-3903384D01*
X+8276869Y-3916187D01*
X+8558091Y-3916187D01*
X+8558091Y-3915411D01*
X+8738429Y-3915411D01*
X+8738429Y-4161789D01*
X+8558091Y-4161789D01*
X+8558091Y-4007625D01*
X+8274431Y-4007625D01*
X+8211337Y-4070719D01*
X+5981963Y-4070719D01*
X+6029519Y-4118275D01*
X+6029519Y-4169411D01*
X+6073969Y-4169411D01*
X+6073969Y-4415789D01*
X+5893631Y-4415789D01*
X+5893631Y-4169411D01*
X+5938081Y-4169411D01*
X+5938081Y-4156149D01*
X+5902651Y-4120719D01*
X+5519681Y-4120719D01*
X+5519681Y-2279281D01*
X+5916684Y-2279281D01*
X+5949669Y-2246296D01*
X+5949669Y-2115425D01*
X+5918924Y-2084680D01*
X+5918924Y-2117297D01*
X+5944324Y-2142697D01*
X+5944324Y-2201613D01*
X+5902663Y-2243274D01*
X+5843747Y-2243274D01*
X+5802086Y-2201613D01*
X+5802086Y-2142697D01*
X+5827486Y-2117297D01*
X+5827486Y-2100029D01*
X+5620582Y-1893125D01*
X+5385131Y-1893125D01*
X+5379619Y-1898637D01*
X+5379619Y-2020781D01*
X+5479619Y-2020781D01*
X+5479619Y-2239219D01*
X+5188181Y-2239219D01*
X+5188181Y-2237949D01*
X+5179619Y-2237949D01*
X+5179619Y-2239219D01*
X+3638181Y-2239219D01*
X+3638181Y-1808358D01*
X+3614419Y-1784596D01*
X+3614419Y-1794758D01*
X+3572758Y-1836419D01*
X+3513842Y-1836419D01*
X+3472181Y-1794758D01*
X+3472181Y-1735842D01*
X+3513842Y-1694181D01*
X+3518379Y-1694181D01*
X+3600058Y-1612502D01*
X+3481354Y-1612502D01*
X+2840875Y-2252981D01*
X+2899658Y-2252981D01*
X+2925282Y-2278605D01*
X+3034640Y-2279281D01*
X+3598119Y-2279281D01*
X+3598119Y-3970719D01*
X+3596849Y-3970719D01*
X+3596849Y-3979281D01*
X+3598119Y-3979281D01*
X+3598119Y-4100259D01*
X+3622591Y-4100259D01*
X+3681823Y-4041027D01*
X+4369809Y-4041027D01*
X+4427967Y-4099185D01*
X+4427967Y-4160781D01*
X+5479619Y-4160781D01*
X+5479619Y-4379219D01*
X+5379619Y-4379219D01*
X+5379619Y-4674162D01*
X+5435846Y-4730389D01*
X+6052345Y-4730389D01*
X+6357719Y-5035763D01*
X+6357719Y-5110481D01*
X+6821219Y-5110481D01*
X+6821219Y-5430519D01*
X+5957719Y-5430519D01*
X+5957719Y-5491553D01*
X+5904883Y-5544389D01*
X+5563759Y-5544389D01*
X+5420686Y-5401316D01*
X+4446376Y-5401316D01*
X+4088181Y-5043121D01*
X+4088181Y-4379219D01*
X+4079619Y-4379219D01*
X+4079619Y-4734328D01*
X+3853328Y-4960619D01*
X-14681Y-4960619D01*
X-14681Y-5074919D01*
X-833119Y-5074919D01*
X-833119Y-4986019D01*
X-860080Y-4986019D01*
X-1022694Y-4823405D01*
X-1022694Y-4048818D01*
X-959559Y-3985683D01*
X-959559Y-3434751D01*
X-278841Y-3434751D01*
X-278841Y-4057049D01*
X-829773Y-4057049D01*
X-880456Y-4107732D01*
X-880456Y-4764491D01*
X-833119Y-4811828D01*
X-833119Y-4754881D01*
X-14681Y-4754881D01*
X-14681Y-4869181D01*
X+229177Y-4869181D01*
X+103317Y-4743320D01*
X-268678Y-4743320D01*
X-369619Y-4642379D01*
X-369619Y-4617719D01*
X-833119Y-4617719D01*
X-833119Y-4297681D01*
X-14681Y-4297681D01*
X-14681Y-4543352D01*
X+288276Y-4543352D01*
X+420712Y-4675788D01*
X+3751168Y-4675788D01*
X+3838181Y-4588775D01*
X+3838181Y-4379219D01*
X+3638181Y-4379219D01*
X+3638181Y-4191697D01*
X+3197275Y-4191697D01*
X+2700900Y-3695322D01*
X+392348Y-3695322D01*
X+366948Y-3720722D01*
X+308032Y-3720722D01*
X+266371Y-3679061D01*
X+266371Y-3620145D01*
X+308032Y-3578484D01*
X+366948Y-3578484D01*
X+392348Y-3603884D01*
X+1807211Y-3603884D01*
X+1807211Y-3500119D01*
X+1771537Y-3500119D01*
X+1708037Y-3563619D01*
X+220979Y-3563619D01*
X+220979Y-3600449D01*
X-119379Y-3600449D01*
X-119379Y-3435351D01*
X-445Y-3435351D01*
X-445Y-3330997D01*
X-25845Y-3305597D01*
X-25845Y-3246681D01*
X+15816Y-3205020D01*
X+74732Y-3205020D01*
X+116393Y-3246681D01*
X+116393Y-3305597D01*
X+90993Y-3330997D01*
X+90993Y-3435351D01*
X+220979Y-3435351D01*
X+220979Y-3472181D01*
X+1670163Y-3472181D01*
X+1706881Y-3435463D01*
X+1706881Y-3399542D01*
X+1748542Y-3357881D01*
X+1784463Y-3357881D01*
X+1826375Y-3315969D01*
X+1807211Y-3315969D01*
X+1807211Y-3271519D01*
X+1097935Y-3271519D01*
X+1030531Y-3338923D01*
X+486276Y-3338923D01*
X+308580Y-3161227D01*
X-67311Y-3161227D01*
X-67311Y-3212269D01*
X-119381Y-3212269D01*
X-119381Y-3280225D01*
X-228085Y-3388929D01*
X-669295Y-3388929D01*
X-852581Y-3205643D01*
X-853120Y-3205643D01*
X-928147Y-3130617D01*
X-928147Y-3130077D01*
X-929103Y-3129121D01*
X-929103Y-2002542D01*
X-887441Y-1960881D01*
X-785842Y-1859281D01*
X-655219Y-1859281D01*
X-655219Y-1647469D01*
X-694689Y-1647469D01*
X-694689Y-1467131D01*
X-655219Y-1467131D01*
X-655219Y-1431042D01*
X-613558Y-1389381D01*
X-562995Y-1347469D01*
X-694689Y-1347469D01*
X-694689Y-1167131D01*
X-448311Y-1167131D01*
X-448311Y-1313181D01*
X-300989Y-1313181D01*
X-300989Y-1167131D01*
X+186689Y-1167131D01*
X+186689Y-1313181D01*
X+270511Y-1313181D01*
X+270511Y-1296231D01*
X+758189Y-1296231D01*
X+758189Y-1309875D01*
X+1733869Y-1309875D01*
X+1781811Y-1261933D01*
X+1781811Y-1113231D01*
X+2028189Y-1113231D01*
X+2028189Y-1157681D01*
X+2035811Y-1157681D01*
X+2035811Y-1108431D01*
X+2205989Y-1108431D01*
X+2205989Y-1314169D01*
X+2035811Y-1314169D01*
X+2035811Y-1249119D01*
X+2028189Y-1249119D01*
X+2028189Y-1293569D01*
X+1879487Y-1293569D01*
X+1771743Y-1401313D01*
X+758189Y-1401313D01*
X+758189Y-1476569D01*
X+270511Y-1476569D01*
X+270511Y-1455419D01*
X-468396Y-1455419D01*
X-481652Y-1467131D01*
X-448311Y-1467131D01*
X-448311Y-1647469D01*
X-512981Y-1647469D01*
X-512981Y-1859281D01*
X-376842Y-1859281D01*
X-335181Y-1900942D01*
X-335181Y-2011681D01*
X+144781Y-2011681D01*
X+144781Y-1703237D01*
X+89013Y-1647469D01*
X-300989Y-1647469D01*
X-300989Y-1467131D01*
X+186689Y-1467131D01*
X+186689Y-1615833D01*
X+236219Y-1665363D01*
X+236219Y-2011681D01*
X+347981Y-2011681D01*
X+347981Y-1766569D01*
X+270511Y-1766569D01*
X+270511Y-1586231D01*
X+758189Y-1586231D01*
X+758189Y-1766569D01*
X+639419Y-1766569D01*
X+639419Y-2011681D01*
X+715619Y-2011681D01*
X+715619Y-2079443D01*
X+829911Y-2079443D01*
X+871219Y-2120751D01*
X+871219Y-2855288D01*
X+945212Y-2929281D01*
X+3379681Y-2929281D01*
X+3379681Y-2420719D01*
X+3322319Y-2420719D01*
X+3322319Y-2428668D01*
X+3282106Y-2468881D01*
X+3331458Y-2468881D01*
X+3373119Y-2510542D01*
X+3373119Y-2569458D01*
X+3331458Y-2611119D01*
X+3272542Y-2611119D01*
X+3247142Y-2585719D01*
X+3244737Y-2585719D01*
X+3156179Y-2674277D01*
X+2558821Y-2674277D01*
X+2470263Y-2585719D01*
X+1009763Y-2585719D01*
X+894081Y-2470037D01*
X+894081Y-1832858D01*
X+868681Y-1807458D01*
X+868681Y-1748542D01*
X+910342Y-1706881D01*
X+969258Y-1706881D01*
X+1010919Y-1748542D01*
X+1010919Y-1807458D01*
X+985519Y-1832858D01*
X+985519Y-2432163D01*
X+1047637Y-2494281D01*
X+2508137Y-2494281D01*
X+2596695Y-2582839D01*
X+3118305Y-2582839D01*
X+3206863Y-2494281D01*
X+3247142Y-2494281D01*
X+3271094Y-2470329D01*
X+3221742Y-2470329D01*
X+3180081Y-2428668D01*
X+3180081Y-2370719D01*
X+3034518Y-2370719D01*
X+2924697Y-2370180D01*
X+2899658Y-2395219D01*
X+2840742Y-2395219D01*
X+2800365Y-2354842D01*
X+2800365Y-2400825D01*
X+2825765Y-2426225D01*
X+2825765Y-2485141D01*
X+2784104Y-2526802D01*
X+2725188Y-2526802D01*
X+2683527Y-2485141D01*
X+2683527Y-2426225D01*
X+2708927Y-2400825D01*
X+2708927Y-2255617D01*
X+2888375Y-2076169D01*
X+2658111Y-2076169D01*
X+2658111Y-2023819D01*
X+2650489Y-2023819D01*
X+2650489Y-2076169D01*
X+2404111Y-2076169D01*
X+2404111Y-2023819D01*
X+2396489Y-2023819D01*
X+2396489Y-2080969D01*
X+2226311Y-2080969D01*
X+2226311Y-1875231D01*
X+2396489Y-1875231D01*
X+2396489Y-1932381D01*
X+2404111Y-1932381D01*
X+2404111Y-1895831D01*
X+2650489Y-1895831D01*
X+2650489Y-1932381D01*
X+2658111Y-1932381D01*
X+2658111Y-1895831D01*
X+2904489Y-1895831D01*
X+2904489Y-1940281D01*
X+2935363Y-1940281D01*
X+3473563Y-1402081D01*
X+3475742Y-1402081D01*
X+3501142Y-1376681D01*
X+3560058Y-1376681D01*
X+3601719Y-1418342D01*
X+3601719Y-1477258D01*
X+3560058Y-1518919D01*
X+3501142Y-1518919D01*
X+3493590Y-1511366D01*
X+3483892Y-1521064D01*
X+3757632Y-1521064D01*
X+3879619Y-1643051D01*
X+3879619Y-1809464D01*
X+3901947Y-1787136D01*
X+3960863Y-1787136D01*
X+4002524Y-1828797D01*
X+4002524Y-1864718D01*
X+4028052Y-1890246D01*
X+4028052Y-2020781D01*
X+4041178Y-2020781D01*
X+4041178Y-1544667D01*
X+4029034Y-1532523D01*
X+3993113Y-1532523D01*
X+3951452Y-1490862D01*
X+3951452Y-1431946D01*
X+3993113Y-1390285D01*
X+4052029Y-1390285D01*
X+4069081Y-1407337D01*
X+4069081Y-1354842D01*
X+4110742Y-1313181D01*
X+4169658Y-1313181D01*
X+4211319Y-1354842D01*
X+4211319Y-1390763D01*
X+4229619Y-1409063D01*
X+4229619Y-2020781D01*
X+4238181Y-2020781D01*
X+4238181Y-1399294D01*
X+4242462Y-1395013D01*
X+4242462Y-1359092D01*
X+4284123Y-1317431D01*
X+4307547Y-1317431D01*
X+4234435Y-1244319D01*
X+2904489Y-1244319D01*
X+2904489Y-1288769D01*
X+2658111Y-1288769D01*
X+2658111Y-1244319D01*
X+2650489Y-1244319D01*
X+2650489Y-1288769D01*
X+2404111Y-1288769D01*
X+2404111Y-1257019D01*
X+2395989Y-1257019D01*
X+2395989Y-1314169D01*
X+2225811Y-1314169D01*
X+2225811Y-1108431D01*
X+2395989Y-1108431D01*
X+2395989Y-1165581D01*
X+2404111Y-1165581D01*
X+2404111Y-1108431D01*
X+2650489Y-1108431D01*
X+2650489Y-1152881D01*
X+2658111Y-1152881D01*
X+2658111Y-1108431D01*
X+2904489Y-1108431D01*
X+2904489Y-1152881D01*
X+1595119Y-5114042D02*
X+1595119Y-5114043D01*
X+1607819Y-5126743D01*
X+1607819Y-5185411D01*
X+1626869Y-5185411D01*
X+1626869Y-5673089D01*
X+1594104Y-5673089D01*
X+1594104Y-5926373D01*
X+1671615Y-5926373D01*
X+1671615Y-5899032D01*
X+1756866Y-5813781D01*
X+2213611Y-5813781D01*
X+2213611Y-5769331D01*
X+2459989Y-5769331D01*
X+2459989Y-5813781D01*
X+2467611Y-5813781D01*
X+2467611Y-5764531D01*
X+2540281Y-5764531D01*
X+2540281Y-5754369D01*
X+2467611Y-5754369D01*
X+2467611Y-5574031D01*
X+2713989Y-5574031D01*
X+2713989Y-5754369D01*
X+2631719Y-5754369D01*
X+2631719Y-5764531D01*
X+2713989Y-5764531D01*
X+2713989Y-5944869D01*
X+2467611Y-5944869D01*
X+2467611Y-5905219D01*
X+2459989Y-5905219D01*
X+2459989Y-5949669D01*
X+2213611Y-5949669D01*
X+2213611Y-5905219D01*
X+1794740Y-5905219D01*
X+1773586Y-5926373D01*
X+1832204Y-5926373D01*
X+1832204Y-6246411D01*
X+1213766Y-6246411D01*
X+1213766Y-5926373D01*
X+1451866Y-5926373D01*
X+1451866Y-5673089D01*
X+1446531Y-5673089D01*
X+1446531Y-5185411D01*
X+1465334Y-5185411D01*
X+1452881Y-5172958D01*
X+1452881Y-5114042D01*
X+1494542Y-5072381D01*
X+1553458Y-5072381D01*
X+1595119Y-5114042D01*
X+2206489Y-2080969D02*
X+2036311Y-2080969D01*
X+2036311Y-2031719D01*
X+2028189Y-2031719D01*
X+2028189Y-2076169D01*
X+1950719Y-2076169D01*
X+1950719Y-2358142D01*
X+1976119Y-2383542D01*
X+1976119Y-2442458D01*
X+1934458Y-2484119D01*
X+1875542Y-2484119D01*
X+1833881Y-2442458D01*
X+1833881Y-2383542D01*
X+1859281Y-2358142D01*
X+1859281Y-2076169D01*
X+1493519Y-2076169D01*
X+1493519Y-2125569D01*
X+1504164Y-2136214D01*
X+1504164Y-2195130D01*
X+1462503Y-2236791D01*
X+1403587Y-2236791D01*
X+1351281Y-2184484D01*
X+1351281Y-2076169D01*
X+1057911Y-2076169D01*
X+1057911Y-1895831D01*
X+2028189Y-1895831D01*
X+2028189Y-1940281D01*
X+2036311Y-1940281D01*
X+2036311Y-1875231D01*
X+2206489Y-1875231D01*
X+2206489Y-2080969D01*
X+445769Y-4098289D02*
X+265431Y-4098289D01*
X+265431Y-4019619D01*
X+220979Y-4019619D01*
X+220979Y-4056449D01*
X-119379Y-4056449D01*
X-119379Y-3891351D01*
X+220979Y-3891351D01*
X+220979Y-3928181D01*
X+265431Y-3928181D01*
X+265431Y-3851911D01*
X+445769Y-3851911D01*
X+445769Y-4098289D01*
X+735769Y-3897625D02*
X+2702323Y-3897625D01*
X+2727723Y-3872225D01*
X+2786639Y-3872225D01*
X+2828300Y-3913886D01*
X+2828300Y-3972802D01*
X+2786639Y-4014463D01*
X+2727723Y-4014463D01*
X+2702323Y-3989063D01*
X+735769Y-3989063D01*
X+735769Y-4098289D01*
X+555431Y-4098289D01*
X+555431Y-3851911D01*
X+735769Y-3851911D01*
X+735769Y-3897625D01*
X+2404111Y-1588769D02*
X+2404111Y-1408431D01*
X+2650489Y-1408431D01*
X+2650489Y-1588769D01*
X+2404111Y-1588769D01*
X+2658111Y-1588769D02*
X+2658111Y-1408431D01*
X+2904489Y-1408431D01*
X+2904489Y-1588769D01*
X+2658111Y-1588769D01*
X+2658111Y-1776169D02*
X+2658111Y-1595831D01*
X+2904489Y-1595831D01*
X+2904489Y-1776169D01*
X+2658111Y-1776169D01*
X+2404111Y-1776169D02*
X+2404111Y-1595831D01*
X+2650489Y-1595831D01*
X+2650489Y-1776169D01*
X+2404111Y-1776169D01*
X+1781811Y-1593569D02*
X+1781811Y-1413231D01*
X+2028189Y-1413231D01*
X+2028189Y-1593569D01*
X+1781811Y-1593569D01*
X+2467611Y-6244869D02*
X+2467611Y-6064531D01*
X+2713989Y-6064531D01*
X+2713989Y-6244869D01*
X+2467611Y-6244869D01*
X+2213611Y-6249669D02*
X+2213611Y-6069331D01*
X+2459989Y-6069331D01*
X+2459989Y-6249669D01*
X+2213611Y-6249669D01*
X+1057911Y-1588769D02*
X+1057911Y-1408431D01*
X+1304289Y-1408431D01*
X+1304289Y-1588769D01*
X+1057911Y-1588769D01*
X+1558289Y-1124378D02*
X+1713419Y-1124378D01*
X+1755080Y-1166039D01*
X+1755080Y-1224955D01*
X+1713419Y-1266616D01*
X+1558289Y-1266616D01*
X+1558289Y-1288769D01*
X+1311911Y-1288769D01*
X+1311911Y-1269719D01*
X+1304289Y-1269719D01*
X+1304289Y-1288769D01*
X+1057911Y-1288769D01*
X+1057911Y-1108431D01*
X+1304289Y-1108431D01*
X+1304289Y-1127481D01*
X+1311911Y-1127481D01*
X+1311911Y-1108431D01*
X+1558289Y-1108431D01*
X+1558289Y-1124378D01*
X+1311911Y-1588769D02*
X+1311911Y-1408431D01*
X+1558289Y-1408431D01*
X+1558289Y-1588769D01*
X+1311911Y-1588769D01*
X+2028189Y-1776169D02*
X+1057911Y-1776169D01*
X+1057911Y-1595831D01*
X+2028189Y-1595831D01*
X+2028189Y-1776169D01*
X+1326869Y-5431789D02*
X+1326869Y-5673089D01*
X+1146531Y-5673089D01*
X+1146531Y-5185411D01*
X+1326869Y-5185411D01*
X+1326869Y-5431789D01*
X+6663689Y-1103631D02*
X+6663689Y-1283969D01*
X+6417311Y-1283969D01*
X+6417311Y-1103631D01*
X+6663689Y-1103631D01*
X+7946389Y-1103631D02*
X+7946389Y-1283969D01*
X+7700011Y-1283969D01*
X+7700011Y-1103631D01*
X+7946389Y-1103631D01*
X+9278619Y-4071619D02*
X+9110981Y-4071619D01*
X+9110981Y-4008119D01*
X+9033397Y-4008119D01*
X+9028429Y-4013087D01*
X+9028429Y-4161789D01*
X+8848091Y-4161789D01*
X+8848091Y-3915411D01*
X+9028429Y-3915411D01*
X+9028429Y-3916681D01*
X+9110981Y-3916681D01*
X+9110981Y-3853181D01*
X+9278619Y-3853181D01*
X+9278619Y-4071619D01*
X+9425941Y-3853181D02*
X+9593579Y-3853181D01*
X+9593579Y-4071619D01*
X+9425941Y-4071619D01*
X+9425941Y-3853181D01*
X+9026329Y-2722881D02*
X+9110981Y-2722881D01*
X+9110981Y-2659381D01*
X+9278619Y-2659381D01*
X+9278619Y-2877819D01*
X+9110981Y-2877819D01*
X+9110981Y-2814319D01*
X+9026329Y-2814319D01*
X+9026329Y-2874011D01*
X+9028429Y-2874011D01*
X+9028429Y-2951481D01*
X+9110981Y-2951481D01*
X+9110981Y-2887981D01*
X+9278619Y-2887981D01*
X+9278619Y-3106419D01*
X+9110981Y-3106419D01*
X+9110981Y-3042919D01*
X+9028429Y-3042919D01*
X+9028429Y-3192781D01*
X+9110981Y-3192781D01*
X+9110981Y-3129281D01*
X+9278619Y-3129281D01*
X+9278619Y-3347719D01*
X+9110981Y-3347719D01*
X+9110981Y-3284219D01*
X+9028429Y-3284219D01*
X+9028429Y-3434081D01*
X+9110981Y-3434081D01*
X+9110981Y-3370581D01*
X+9278619Y-3370581D01*
X+9278619Y-3589019D01*
X+9110981Y-3589019D01*
X+9110981Y-3525519D01*
X+9028429Y-3525519D01*
X+9028429Y-3602989D01*
X+8848091Y-3602989D01*
X+8848091Y-2891789D01*
X+8845991Y-2891789D01*
X+8845991Y-2645411D01*
X+9026329Y-2645411D01*
X+9026329Y-2722881D01*
X+9425941Y-2659381D02*
X+9593579Y-2659381D01*
X+9593579Y-2877819D01*
X+9425941Y-2877819D01*
X+9425941Y-2659381D01*
X+9278619Y-3830319D02*
X+9110981Y-3830319D01*
X+9110981Y-3766819D01*
X+9026329Y-3766819D01*
X+9026329Y-3907789D01*
X+8845991Y-3907789D01*
X+8845991Y-3661411D01*
X+9026329Y-3661411D01*
X+9026329Y-3675381D01*
X+9110981Y-3675381D01*
X+9110981Y-3611881D01*
X+9278619Y-3611881D01*
X+9278619Y-3830319D01*
X+9425941Y-3611881D02*
X+9593579Y-3611881D01*
X+9593579Y-3830319D01*
X+9425941Y-3830319D01*
X+9425941Y-3611881D01*
X+9425941Y-3370581D02*
X+9593579Y-3370581D01*
X+9593579Y-3589019D01*
X+9425941Y-3589019D01*
X+9425941Y-3370581D01*
X+9425941Y-2887981D02*
X+9593579Y-2887981D01*
X+9593579Y-3106419D01*
X+9425941Y-3106419D01*
X+9425941Y-2887981D01*
X+9425941Y-3129281D02*
X+9593579Y-3129281D01*
X+9593579Y-3347719D01*
X+9425941Y-3347719D01*
X+9425941Y-3129281D01*
X+5584451Y-2148411D02*
X+5584451Y-2111589D01*
X+5610489Y-2085551D01*
X+5647311Y-2085551D01*
X+5673349Y-2111589D01*
X+5673349Y-2148411D01*
X+5647311Y-2174449D01*
X+5610489Y-2174449D01*
X+5584451Y-2148411D01*
X+3444451Y-4288411D02*
X+3444451Y-4251589D01*
X+3470489Y-4225551D01*
X+3507311Y-4225551D01*
X+3533349Y-4251589D01*
X+3533349Y-4288411D01*
X+3507311Y-4314449D01*
X+3470489Y-4314449D01*
X+3444451Y-4288411D01*
X+6344919Y-4123442D02*
X+6344919Y-4169411D01*
X+6363969Y-4169411D01*
X+6363969Y-4415789D01*
X+6183631Y-4415789D01*
X+6183631Y-4169411D01*
X+6202681Y-4169411D01*
X+6202681Y-4123442D01*
X+6244342Y-4081781D01*
X+6303258Y-4081781D01*
X+6344919Y-4123442D01*
X+4071619Y-5050542D02*
X+4071619Y-5109458D01*
X+4029958Y-5151119D01*
X+3971042Y-5151119D01*
X+3945642Y-5125719D01*
X+2696439Y-5125719D01*
X+2636519Y-5185639D01*
X+2636519Y-5284031D01*
X+2713989Y-5284031D01*
X+2713989Y-5464369D01*
X+2467611Y-5464369D01*
X+2467611Y-5284031D01*
X+2545081Y-5284031D01*
X+2545081Y-5147765D01*
X+2658565Y-5034281D01*
X+3945642Y-5034281D01*
X+3971042Y-5008881D01*
X+4029958Y-5008881D01*
X+4071619Y-5050542D01*
X+6320789Y-2099031D02*
X+6320789Y-2279369D01*
X+6074411Y-2279369D01*
X+6074411Y-2099031D01*
X+6320789Y-2099031D01*
X+8366881Y-1583481D02*
X+8636119Y-1583481D01*
X+8636119Y-1852719D01*
X+8366881Y-1852719D01*
X+8366881Y-1583481D01*
X+9016881Y-1583481D02*
X+9286119Y-1583481D01*
X+9286119Y-1852719D01*
X+9016881Y-1852719D01*
X+9016881Y-1583481D01*
X+8516619Y-4366919D02*
X+8516619Y-4766919D01*
X+8196581Y-4766919D01*
X+8196581Y-4148481D01*
X+8516619Y-4148481D01*
X+8516619Y-4366919D01*
X-857250Y-1283151D02*
X-857250Y-1256849D01*
X-838651Y-1238250D01*
X-812349Y-1238250D01*
X-793750Y-1256849D01*
X-793750Y-1283151D01*
X-812349Y-1301750D01*
X-838651Y-1301750D01*
X-857250Y-1283151D01*
X+3426833Y-1706284D02*
X+3426833Y-1679982D01*
X+3445432Y-1661383D01*
X+3471734Y-1661383D01*
X+3490333Y-1679982D01*
X+3490333Y-1706284D01*
X+3471734Y-1724883D01*
X+3445432Y-1724883D01*
X+3426833Y-1706284D01*
X+3078542Y-1705659D02*
X+3078542Y-1679357D01*
X+3097141Y-1660758D01*
X+3123443Y-1660758D01*
X+3142042Y-1679357D01*
X+3142042Y-1705659D01*
X+3123443Y-1724258D01*
X+3097141Y-1724258D01*
X+3078542Y-1705659D01*
X+3494089Y-5213755D02*
X+3494089Y-5187453D01*
X+3512688Y-5168854D01*
X+3538990Y-5168854D01*
X+3557589Y-5187453D01*
X+3557589Y-5213755D01*
X+3538990Y-5232354D01*
X+3512688Y-5232354D01*
X+3494089Y-5213755D01*
X+4751572Y-1780900D02*
X+4738181Y-1794291D01*
X+4738181Y-2020781D01*
X+4729619Y-2020781D01*
X+4729619Y-1799643D01*
X+4765915Y-1763347D01*
X+4769125Y-1763347D01*
X+4751572Y-1780900D01*
X+4438181Y-1962837D02*
X+4438181Y-2020781D01*
X+4429619Y-2020781D01*
X+4429619Y-2000763D01*
X+4378419Y-1949563D01*
X+4378419Y-1903075D01*
X+4438181Y-1962837D01*
X+3738181Y-2020781D02*
X+3729619Y-2020781D01*
X+3729619Y-1806558D01*
X+3738181Y-1797996D01*
X+3738181Y-2020781D01*
X+6341111Y-2729281D02*
X+5738119Y-2729281D01*
X+5738119Y-2720719D01*
X+6341111Y-2720719D01*
X+6341111Y-2729281D01*
X+779781Y-2893162D02*
X+865901Y-2979282D01*
X+453138Y-2979282D01*
X+260237Y-2786381D01*
X-67311Y-2786381D01*
X-67311Y-2741931D01*
X-160581Y-2741931D01*
X-160581Y-2455519D01*
X+715619Y-2455519D01*
X+715619Y-2170881D01*
X+779781Y-2170881D01*
X+779781Y-2893162D01*
X+6341111Y-2871469D02*
X+6579107Y-2871469D01*
X+6579107Y-2899411D01*
X+6534431Y-2899411D01*
X+6534431Y-3145789D01*
X+6563981Y-3145789D01*
X+6551637Y-3158133D01*
X+6213086Y-3158132D01*
X+6084235Y-3029281D01*
X+5738119Y-3029281D01*
X+5738119Y-2820719D01*
X+6201926Y-2820719D01*
X+6197092Y-2825553D01*
X+6197092Y-2884469D01*
X+6234431Y-2921808D01*
X+6234431Y-3145789D01*
X+6414769Y-3145789D01*
X+6414769Y-2899411D01*
X+6324388Y-2899411D01*
X+6339330Y-2884469D01*
X+6339330Y-2825553D01*
X+6334496Y-2820719D01*
X+6341111Y-2820719D01*
X+6341111Y-2871469D01*
X+3379681Y-3179281D02*
X+2443325Y-3179281D01*
X+2443325Y-3170719D01*
X+3379681Y-3170719D01*
X+3379681Y-3179281D01*
X-252019Y-2741931D02*
X-554989Y-2741931D01*
X-554989Y-2922269D01*
X-67311Y-2922269D01*
X-67311Y-2877819D01*
X+222363Y-2877819D01*
X+415262Y-3070718D01*
X+762557Y-3070718D01*
X+747133Y-3086142D01*
X+747133Y-3145058D01*
X+788794Y-3186719D01*
X+791343Y-3186719D01*
X+852109Y-3247485D01*
X+524150Y-3247485D01*
X+346454Y-3069789D01*
X-67311Y-3069789D01*
X-67311Y-3031931D01*
X-554780Y-3031931D01*
X-560581Y-3026130D01*
X-560581Y-2455519D01*
X-252019Y-2455519D01*
X-252019Y-2741931D01*
X+3379681Y-3420719D02*
X+3379681Y-3479281D01*
X+2489067Y-3479281D01*
X+2485286Y-3475500D01*
X+2426370Y-3475500D01*
X+2384709Y-3517161D01*
X+2384709Y-3576077D01*
X+2412516Y-3603884D01*
X+2294889Y-3603884D01*
X+2294889Y-3435631D01*
X+1849119Y-3435631D01*
X+1849119Y-3422537D01*
X+1864507Y-3407149D01*
X+2369389Y-3407149D01*
X+2405819Y-3370719D01*
X+3234364Y-3370719D01*
X+3259764Y-3396119D01*
X+3318680Y-3396119D01*
X+3344080Y-3370719D01*
X+3379681Y-3370719D01*
X+3379681Y-3420719D01*
X+8558091Y-3120389D02*
X+8558091Y-3268981D01*
X+8424478Y-3268981D01*
X+8283396Y-3410063D01*
X+8283396Y-3642248D01*
X+8096363Y-3829281D01*
X+6342396Y-3829281D01*
X+6344919Y-3826758D01*
X+6344919Y-3767842D01*
X+6303258Y-3726181D01*
X+6244342Y-3726181D01*
X+6202681Y-3767842D01*
X+6202681Y-3779281D01*
X+5738119Y-3779281D01*
X+5738119Y-3770719D01*
X+6038737Y-3770719D01*
X+6085775Y-3723681D01*
X+6094746Y-3723681D01*
X+6094746Y-3723682D01*
X+8104131Y-3723682D01*
X+8250813Y-3577000D01*
X+8250813Y-3098566D01*
X+8381865Y-2967514D01*
X+8558091Y-2967514D01*
X+8558091Y-3120389D01*
X+3242269Y-3571378D02*
X+3242269Y-3630294D01*
X+3283930Y-3671955D01*
X+3342846Y-3671955D01*
X+3379681Y-3635120D01*
X+3379681Y-3970719D01*
X+3380951Y-3970719D01*
X+3380951Y-3979281D01*
X+3379681Y-3979281D01*
X+3379681Y-4100259D01*
X+3235149Y-4100259D01*
X+2738774Y-3603884D01*
X+2499140Y-3603884D01*
X+2526947Y-3576077D01*
X+2526947Y-3570719D01*
X+3242928Y-3570719D01*
X+3242269Y-3571378D01*
X+3237751Y-4003167D02*
X+3237751Y-3976865D01*
X+3256350Y-3958266D01*
X+3282652Y-3958266D01*
X+3301251Y-3976865D01*
X+3301251Y-4003167D01*
X+3282652Y-4021766D01*
X+3256350Y-4021766D01*
X+3237751Y-4003167D01*
X+4838181Y-4415738D02*
X+4834424Y-4411981D01*
X+4829619Y-4411981D01*
X+4829619Y-4379219D01*
X+4838181Y-4379219D01*
X+4838181Y-4415738D01*
X+4688181Y-4391163D02*
X+4653281Y-4426063D01*
X+4653281Y-4866423D01*
X+4627979Y-4891725D01*
X+4627979Y-4950641D01*
X+4669640Y-4992302D01*
X+4728556Y-4992302D01*
X+4770217Y-4950641D01*
X+4770217Y-4891725D01*
X+4744817Y-4866325D01*
X+4744817Y-4845261D01*
X+4744719Y-4845163D01*
X+4744719Y-4523430D01*
X+4775508Y-4554219D01*
X+4834424Y-4554219D01*
X+4838181Y-4550462D01*
X+4838181Y-4925664D01*
X+4993885Y-5081368D01*
X+6032712Y-5081368D01*
X+6061825Y-5110481D01*
X+5602781Y-5110481D01*
X+5602781Y-5224781D01*
X+5467596Y-5224781D01*
X+5494019Y-5198358D01*
X+5494019Y-5139442D01*
X+5452358Y-5097781D01*
X+5393442Y-5097781D01*
X+5368042Y-5123181D01*
X+4609385Y-5123181D01*
X+4379619Y-4893415D01*
X+4379619Y-4379219D01*
X+4488181Y-4379219D01*
X+4488181Y-4564381D01*
X+4479042Y-4564381D01*
X+4437381Y-4606042D01*
X+4437381Y-4664958D01*
X+4479042Y-4706619D01*
X+4537958Y-4706619D01*
X+4579619Y-4664958D01*
X+4579619Y-4379219D01*
X+4688181Y-4379219D01*
X+4688181Y-4391163D01*
X+5288181Y-4578463D02*
X+5288181Y-4712036D01*
X+5397972Y-4821827D01*
X+6014471Y-4821827D01*
X+6266281Y-5073637D01*
X+6266281Y-5110481D01*
X+6154419Y-5110481D01*
X+6154419Y-5073763D01*
X+6070586Y-4989930D01*
X+5031759Y-4989930D01*
X+4929619Y-4887790D01*
X+4929619Y-4547881D01*
X+4933391Y-4551653D01*
X+4988181Y-4551653D01*
X+4988181Y-4755206D01*
X+5126886Y-4893911D01*
X+5233970Y-4893911D01*
X+5258423Y-4918364D01*
X+5317339Y-4918364D01*
X+5359000Y-4876703D01*
X+5359000Y-4817787D01*
X+5317339Y-4776126D01*
X+5258423Y-4776126D01*
X+5232076Y-4802473D01*
X+5164760Y-4802473D01*
X+5079619Y-4717332D01*
X+5079619Y-4379219D01*
X+5288181Y-4379219D01*
X+5288181Y-4578463D01*
X+1213766Y-6086392D02*
X+1322985Y-6086392D01*
X+1322985Y-6246411D02*
X+1322985Y-6086392D01*
X+1322985Y-5926373D02*
X+1322985Y-6086392D01*
X+593700Y-2455519D02*
X+593700Y-2333600D01*
X+715619Y-2333600D02*
X+593700Y-2333600D01*
X+393700Y-2455519D02*
X+393700Y-2333600D01*
X+193700Y-2455519D02*
X+193700Y-2333600D01*
X-406300Y-2455519D02*
X-406300Y-2333600D01*
X-431800Y-2741931D02*
X-431800Y-2832100D01*
X-431800Y-2922269D02*
X-431800Y-2832100D01*
X-554989Y-2832100D02*
X-431800Y-2832100D01*
X-571500Y-1167131D02*
X-571500Y-1257300D01*
X-571500Y-1347469D02*
X-571500Y-1257300D01*
X-694689Y-1257300D02*
X-571500Y-1257300D01*
X-448311Y-1257300D02*
X-571500Y-1257300D01*
X-177800Y-1167131D02*
X-177800Y-1257300D01*
X-300989Y-1257300D02*
X-177800Y-1257300D01*
X+63500Y-1167131D02*
X+63500Y-1257300D01*
X+186689Y-1257300D02*
X+63500Y-1257300D01*
X+2527300Y-1588769D02*
X+2527300Y-1498600D01*
X+2527300Y-1408431D02*
X+2527300Y-1498600D01*
X+2650489Y-1498600D02*
X+2527300Y-1498600D01*
X+2404111Y-1498600D02*
X+2527300Y-1498600D01*
X+2781300Y-1588769D02*
X+2781300Y-1498600D01*
X+2781300Y-1408431D02*
X+2781300Y-1498600D01*
X+2904489Y-1498600D02*
X+2781300Y-1498600D01*
X+2658111Y-1498600D02*
X+2781300Y-1498600D01*
X+2781300Y-1776169D02*
X+2781300Y-1686000D01*
X+2781300Y-1595831D02*
X+2781300Y-1686000D01*
X+2904489Y-1686000D02*
X+2781300Y-1686000D01*
X+2658111Y-1686000D02*
X+2781300Y-1686000D01*
X+2527300Y-1776169D02*
X+2527300Y-1686000D01*
X+2527300Y-1595831D02*
X+2527300Y-1686000D01*
X+2650489Y-1686000D02*
X+2527300Y-1686000D01*
X+2404111Y-1686000D02*
X+2527300Y-1686000D01*
X+2171700Y-3435631D02*
X+2171700Y-3525800D01*
X+2294889Y-3525800D02*
X+2171700Y-3525800D01*
X+1905000Y-1593569D02*
X+1905000Y-1503400D01*
X+1905000Y-1413231D02*
X+1905000Y-1503400D01*
X+2028189Y-1503400D02*
X+1905000Y-1503400D01*
X+1781811Y-1503400D02*
X+1905000Y-1503400D01*
X+6234431Y-3022600D02*
X+6324600Y-3022600D01*
X+6414769Y-3022600D02*
X+6324600Y-3022600D01*
X+6324600Y-3145789D02*
X+6324600Y-3022600D01*
X+6324600Y-2899411D02*
X+6324600Y-3022600D01*
X+1930400Y-3435631D02*
X+1930400Y-3525800D01*
X+1807211Y-3525800D02*
X+1930400Y-3525800D01*
X+2590800Y-6244869D02*
X+2590800Y-6154700D01*
X+2590800Y-6064531D02*
X+2590800Y-6154700D01*
X+2713989Y-6154700D02*
X+2590800Y-6154700D01*
X+2467611Y-6154700D02*
X+2590800Y-6154700D01*
X+2336800Y-6249669D02*
X+2336800Y-6159500D01*
X+2336800Y-6069331D02*
X+2336800Y-6159500D01*
X+2459989Y-6159500D02*
X+2336800Y-6159500D01*
X+2213611Y-6159500D02*
X+2336800Y-6159500D01*
X+1181100Y-1588769D02*
X+1181100Y-1498600D01*
X+1181100Y-1408431D02*
X+1181100Y-1498600D01*
X+1304289Y-1498600D02*
X+1181100Y-1498600D01*
X+1057911Y-1498600D02*
X+1181100Y-1498600D01*
X+1435100Y-1588769D02*
X+1435100Y-1498600D01*
X+1435100Y-1408431D02*
X+1435100Y-1498600D01*
X+1558289Y-1498600D02*
X+1435100Y-1498600D01*
X+1311911Y-1498600D02*
X+1435100Y-1498600D01*
X+1663700Y-1776169D02*
X+1663700Y-1686000D01*
X+1663700Y-1595831D02*
X+1663700Y-1686000D01*
X+1905000Y-1776169D02*
X+1905000Y-1686000D01*
X+1905000Y-1595831D02*
X+1905000Y-1686000D01*
X+2028189Y-1686000D02*
X+1905000Y-1686000D01*
X+1146531Y-5549900D02*
X+1236700Y-5549900D01*
X+1326869Y-5549900D02*
X+1236700Y-5549900D01*
X+1236700Y-5673089D02*
X+1236700Y-5549900D01*
X+1146531Y-5308600D02*
X+1236700Y-5308600D01*
X+1326869Y-5308600D02*
X+1236700Y-5308600D01*
X+1236700Y-5185411D02*
X+1236700Y-5308600D01*
X+6540500Y-1103631D02*
X+6540500Y-1193800D01*
X+6540500Y-1283969D02*
X+6540500Y-1193800D01*
X+6417311Y-1193800D02*
X+6540500Y-1193800D01*
X+6663689Y-1193800D02*
X+6540500Y-1193800D01*
X+7823200Y-1103631D02*
X+7823200Y-1193800D01*
X+7823200Y-1283969D02*
X+7823200Y-1193800D01*
X+7700011Y-1193800D02*
X+7823200Y-1193800D01*
X+7946389Y-1193800D02*
X+7823200Y-1193800D01*
X+9425941Y-3962400D02*
X+9509760Y-3962400D01*
X+9593579Y-3962400D02*
X+9509760Y-3962400D01*
X+9509760Y-4071619D02*
X+9509760Y-3962400D01*
X+9509760Y-3853181D02*
X+9509760Y-3962400D01*
X+9425941Y-2768600D02*
X+9509760Y-2768600D01*
X+9593579Y-2768600D02*
X+9509760Y-2768600D01*
X+9509760Y-2877819D02*
X+9509760Y-2768600D01*
X+9509760Y-2659381D02*
X+9509760Y-2768600D01*
X+9425941Y-3721100D02*
X+9509760Y-3721100D01*
X+9593579Y-3721100D02*
X+9509760Y-3721100D01*
X+9509760Y-3830319D02*
X+9509760Y-3721100D01*
X+9509760Y-3611881D02*
X+9509760Y-3721100D01*
X+9425941Y-3479800D02*
X+9509760Y-3479800D01*
X+9593579Y-3479800D02*
X+9509760Y-3479800D01*
X+9509760Y-3589019D02*
X+9509760Y-3479800D01*
X+9509760Y-3370581D02*
X+9509760Y-3479800D01*
X+9425941Y-2997200D02*
X+9509760Y-2997200D01*
X+9593579Y-2997200D02*
X+9509760Y-2997200D01*
X+9509760Y-3106419D02*
X+9509760Y-2997200D01*
X+9509760Y-2887981D02*
X+9509760Y-2997200D01*
X+9425941Y-3238500D02*
X+9509760Y-3238500D01*
X+9593579Y-3238500D02*
X+9509760Y-3238500D01*
X+9509760Y-3347719D02*
X+9509760Y-3238500D01*
X+9509760Y-3129281D02*
X+9509760Y-3238500D01*
X+5519681Y-3775000D02*
X+5628900Y-3775000D01*
X+5738119Y-3775000D02*
X+5628900Y-3775000D01*
X+5519681Y-3275000D02*
X+5628900Y-3275000D01*
X+5738119Y-3275000D02*
X+5628900Y-3275000D01*
X+5519681Y-3025000D02*
X+5628900Y-3025000D01*
X+5738119Y-3025000D02*
X+5628900Y-3025000D01*
X+5519681Y-2725000D02*
X+5628900Y-2725000D01*
X+5738119Y-2725000D02*
X+5628900Y-2725000D01*
X+5519681Y-2375000D02*
X+5628900Y-2375000D01*
X+5738119Y-2375000D02*
X+5628900Y-2375000D01*
X+5283900Y-2020781D02*
X+5283900Y-2130000D01*
X+5283900Y-2239219D02*
X+5283900Y-2130000D01*
X+4733900Y-2020781D02*
X+4733900Y-2130000D01*
X+4733900Y-2239219D02*
X+4733900Y-2130000D01*
X+4433900Y-2020781D02*
X+4433900Y-2130000D01*
X+4433900Y-2239219D02*
X+4433900Y-2130000D01*
X+4333900Y-2239219D02*
X+4333900Y-2130000D01*
X+3733900Y-2020781D02*
X+3733900Y-2130000D01*
X+3733900Y-2239219D02*
X+3733900Y-2130000D01*
X+3379681Y-3175000D02*
X+3488900Y-3175000D01*
X+3598119Y-3175000D02*
X+3488900Y-3175000D01*
X+3379681Y-3375000D02*
X+3488900Y-3375000D01*
X+3598119Y-3375000D02*
X+3488900Y-3375000D01*
X+3379681Y-3475000D02*
X+3488900Y-3475000D01*
X+3598119Y-3475000D02*
X+3488900Y-3475000D01*
X+3379681Y-4025000D02*
X+3488900Y-4025000D01*
X+3598119Y-4025000D02*
X+3488900Y-4025000D01*
X+4583900Y-4160781D02*
X+4583900Y-4270000D01*
X+4583900Y-4379219D02*
X+4583900Y-4270000D01*
X+4833900Y-4160781D02*
X+4833900Y-4270000D01*
X+4833900Y-4379219D02*
X+4833900Y-4270000D01*
X+5083900Y-4160781D02*
X+5083900Y-4270000D01*
X+5083900Y-4379219D02*
X+5083900Y-4270000D01*
X+1422400Y-1776169D02*
X+1422400Y-1686000D01*
X+1422400Y-1595831D02*
X+1422400Y-1686000D01*
X+1181100Y-1776169D02*
X+1181100Y-1686000D01*
X+1181100Y-1595831D02*
X+1181100Y-1686000D01*
X+1057911Y-1686000D02*
X+1181100Y-1686000D01*
X-523900Y-4617719D02*
X-523900Y-4457700D01*
X-523900Y-4297681D02*
X-523900Y-4457700D01*
X-523900Y-5074919D02*
X-523900Y-4914900D01*
X-523900Y-4754881D02*
X-523900Y-4914900D01*
X+6197600Y-2099031D02*
X+6197600Y-2189200D01*
X+6197600Y-2279369D02*
X+6197600Y-2189200D01*
X+6074411Y-2189200D02*
X+6197600Y-2189200D01*
X+6320789Y-2189200D02*
X+6197600Y-2189200D01*
X+8366881Y-1718100D02*
X+8501500Y-1718100D01*
X+8636119Y-1718100D02*
X+8501500Y-1718100D01*
X+8501500Y-1852719D02*
X+8501500Y-1718100D01*
X+8501500Y-1583481D02*
X+8501500Y-1718100D01*
X+9016881Y-1718100D02*
X+9151500Y-1718100D01*
X+9286119Y-1718100D02*
X+9151500Y-1718100D01*
X+9151500Y-1852719D02*
X+9151500Y-1718100D01*
X+9151500Y-1583481D02*
X+9151500Y-1718100D01*
X+8356600Y-4766919D02*
X+8356600Y-4657700D01*
X+8516619Y-4657700D02*
X+8356600Y-4657700D01*
X+8196581Y-4657700D02*
X+8356600Y-4657700D01*
D13*
X+9245600Y-5181500D03*
X+9245600Y-4981500D03*
X+9245600Y-4781500D03*
D14*
X+8356500Y-5905500D03*
X+8156500Y-5905500D03*
X+7956500Y-5905500D03*
X+7756500Y-5905500D03*
X+7556500Y-5905500D03*
X+7356500Y-5905500D03*
D15*
X+9271000Y-5969000D03*
X-635000Y-5969000D03*
D14*
X+4124500Y-5905500D03*
X+4324500Y-5905500D03*
X+4524500Y-5905500D03*
X+4724500Y-5905500D03*
X+4924500Y-5905500D03*
X+5124500Y-5905500D03*
X+5686500Y-5905500D03*
X+5886500Y-5905500D03*
X+6086500Y-5905500D03*
X+6286500Y-5905500D03*
X+6486500Y-5905500D03*
X+6686500Y-5905500D03*
X+5712000Y-5270500D03*
X+5912000Y-5270500D03*
X+6112000Y-5270500D03*
X+6312000Y-5270500D03*
X+6512000Y-5270500D03*
X+6712000Y-5270500D03*
X+1722985Y-6086392D03*
X+1522985Y-6086392D03*
X+1322985Y-6086392D03*
D16*
X+593700Y-2133600D03*
X+593700Y-2333600D03*
X+393700Y-2133600D03*
X+393700Y-2333600D03*
X+193700Y-2133600D03*
X+193700Y-2333600D03*
X-6300Y-2133600D03*
X-6300Y-2333600D03*
X-206300Y-2133600D03*
X-206300Y-2333600D03*
X-406300Y-2133600D03*
X-406300Y-2333600D03*
X-606300Y-2133600D03*
X-606300Y-2333600D03*
D17*
X+2310900Y-1211300D03*
X+2120900Y-1211300D03*
X+2311400Y-1978100D03*
X+2121400Y-1978100D03*
D18*
X+50800Y-3973900D03*
X+50800Y-3517900D03*
D19*
X-619200Y-3745900D03*
D70*
X+635000Y-1386400D03*
X+635000Y-1676400D03*
X+393700Y-1386400D03*
X+393700Y-1676400D03*
X-431800Y-2832100D03*
X-431800Y-3122100D03*
X-190500Y-2832100D03*
X-190500Y-3122100D03*
X-571500Y-1257300D03*
X-571500Y-1557300D03*
X-177800Y-1257300D03*
X-177800Y-1557300D03*
X+63500Y-1257300D03*
X+63500Y-1557300D03*
D71*
X+645600Y-3975100D03*
X+355600Y-3975100D03*
D70*
X+2527300Y-1498600D03*
X+2527300Y-1198600D03*
X+2781300Y-1498600D03*
X+2781300Y-1198600D03*
X+2781300Y-1686000D03*
X+2781300Y-1986000D03*
X+2527300Y-1686000D03*
X+2527300Y-1986000D03*
X+2171700Y-3525800D03*
X+2171700Y-3225800D03*
X+1905000Y-1503400D03*
X+1905000Y-1203400D03*
D71*
X+6324600Y-3022600D03*
X+6624600Y-3022600D03*
D70*
X+1930400Y-3525800D03*
X+1930400Y-3225800D03*
X+2590800Y-6154700D03*
X+2590800Y-5854700D03*
X+2336800Y-6159500D03*
X+2336800Y-5859500D03*
X+1181100Y-1498600D03*
X+1181100Y-1198600D03*
X+1435100Y-1498600D03*
X+1435100Y-1198600D03*
X+1663700Y-1686000D03*
X+1663700Y-1986000D03*
X+1905000Y-1686000D03*
X+1905000Y-1986000D03*
D71*
X+1236700Y-5549900D03*
X+1536700Y-5549900D03*
X+1236700Y-5308600D03*
X+1536700Y-5308600D03*
D70*
X+6540500Y-1193800D03*
X+6540500Y-1493800D03*
X+7823200Y-1193800D03*
X+7823200Y-1493800D03*
D20*
X+6692900Y-1765300D03*
X+7658100Y-1765300D03*
D71*
X+7313100Y-1333500D03*
X+7023100Y-1333500D03*
D21*
X+9194800Y-3962400D03*
X+9509760Y-3962400D03*
X+9194800Y-2768600D03*
X+9509760Y-2768600D03*
X+9194800Y-3721100D03*
X+9509760Y-3721100D03*
X+9194800Y-3479800D03*
X+9509760Y-3479800D03*
X+9194800Y-2997200D03*
X+9509760Y-2997200D03*
X+9194800Y-3238500D03*
X+9509760Y-3238500D03*
D71*
X+8938260Y-2997200D03*
X+8648260Y-2997200D03*
X+8938260Y-3238500D03*
X+8648260Y-3238500D03*
X+8938260Y-4038600D03*
X+8648260Y-4038600D03*
X+8936160Y-3784600D03*
X+8646160Y-3784600D03*
X+8938260Y-3479800D03*
X+8648260Y-3479800D03*
X+8936160Y-2768600D03*
X+8646160Y-2768600D03*
D22*
X+5628900Y-4075000D03*
X+5628900Y-4025000D03*
X+5628900Y-3975000D03*
X+5628900Y-3925000D03*
X+5628900Y-3875000D03*
X+5628900Y-3825000D03*
X+5628900Y-3775000D03*
X+5628900Y-3725000D03*
X+5628900Y-3675000D03*
X+5628900Y-3625000D03*
X+5628900Y-3575000D03*
X+5628900Y-3525000D03*
X+5628900Y-3475000D03*
X+5628900Y-3425000D03*
X+5628900Y-3375000D03*
X+5628900Y-3325000D03*
X+5628900Y-3275000D03*
X+5628900Y-3225000D03*
X+5628900Y-3175000D03*
X+5628900Y-3125000D03*
X+5628900Y-3075000D03*
X+5628900Y-3025000D03*
X+5628900Y-2975000D03*
X+5628900Y-2925000D03*
X+5628900Y-2875000D03*
X+5628900Y-2825000D03*
X+5628900Y-2775000D03*
X+5628900Y-2725000D03*
X+5628900Y-2675000D03*
X+5628900Y-2625000D03*
X+5628900Y-2575000D03*
X+5628900Y-2525000D03*
X+5628900Y-2475000D03*
X+5628900Y-2425000D03*
X+5628900Y-2375000D03*
X+5628900Y-2325000D03*
D23*
X+5433900Y-2130000D03*
X+5383900Y-2130000D03*
X+5333900Y-2130000D03*
X+5283900Y-2130000D03*
X+5233900Y-2130000D03*
D24*
X+5183900Y-2130000D03*
D23*
X+5133900Y-2130000D03*
X+5083900Y-2130000D03*
X+5033900Y-2130000D03*
X+4983900Y-2130000D03*
X+4933900Y-2130000D03*
X+4883900Y-2130000D03*
X+4833900Y-2130000D03*
X+4783900Y-2130000D03*
X+4733900Y-2130000D03*
X+4683900Y-2130000D03*
X+4633900Y-2130000D03*
X+4583900Y-2130000D03*
X+4533900Y-2130000D03*
X+4483900Y-2130000D03*
X+4433900Y-2130000D03*
X+4383900Y-2130000D03*
X+4333900Y-2130000D03*
X+4283900Y-2130000D03*
X+4233900Y-2130000D03*
X+4183900Y-2130000D03*
X+4133900Y-2130000D03*
X+4083900Y-2130000D03*
X+4033900Y-2130000D03*
X+3983900Y-2130000D03*
X+3933900Y-2130000D03*
X+3883900Y-2130000D03*
X+3833900Y-2130000D03*
X+3783900Y-2130000D03*
X+3733900Y-2130000D03*
X+3683900Y-2130000D03*
D22*
X+3488900Y-2325000D03*
X+3488900Y-2375000D03*
X+3488900Y-2425000D03*
X+3488900Y-2475000D03*
X+3488900Y-2525000D03*
X+3488900Y-2575000D03*
X+3488900Y-2625000D03*
X+3488900Y-2675000D03*
X+3488900Y-2725000D03*
X+3488900Y-2775000D03*
X+3488900Y-2825000D03*
X+3488900Y-2875000D03*
X+3488900Y-2925000D03*
X+3488900Y-2975000D03*
X+3488900Y-3025000D03*
X+3488900Y-3075000D03*
X+3488900Y-3125000D03*
X+3488900Y-3175000D03*
X+3488900Y-3225000D03*
X+3488900Y-3275000D03*
X+3488900Y-3325000D03*
X+3488900Y-3375000D03*
X+3488900Y-3425000D03*
X+3488900Y-3475000D03*
X+3488900Y-3525000D03*
X+3488900Y-3575000D03*
X+3488900Y-3625000D03*
X+3488900Y-3675000D03*
X+3488900Y-3725000D03*
X+3488900Y-3775000D03*
X+3488900Y-3825000D03*
X+3488900Y-3875000D03*
X+3488900Y-3925000D03*
D25*
X+3488900Y-3975000D03*
D22*
X+3488900Y-4025000D03*
X+3488900Y-4075000D03*
D23*
X+3683900Y-4270000D03*
X+3733900Y-4270000D03*
X+3783900Y-4270000D03*
X+3833900Y-4270000D03*
X+3883900Y-4270000D03*
X+3933900Y-4270000D03*
X+3983900Y-4270000D03*
X+4033900Y-4270000D03*
X+4083900Y-4270000D03*
X+4133900Y-4270000D03*
X+4183900Y-4270000D03*
X+4233900Y-4270000D03*
X+4283900Y-4270000D03*
X+4333900Y-4270000D03*
X+4383900Y-4270000D03*
X+4433900Y-4270000D03*
X+4483900Y-4270000D03*
X+4533900Y-4270000D03*
X+4583900Y-4270000D03*
X+4633900Y-4270000D03*
X+4683900Y-4270000D03*
X+4733900Y-4270000D03*
X+4783900Y-4270000D03*
X+4833900Y-4270000D03*
X+4883900Y-4270000D03*
X+4933900Y-4270000D03*
X+4983900Y-4270000D03*
X+5033900Y-4270000D03*
X+5083900Y-4270000D03*
X+5133900Y-4270000D03*
X+5183900Y-4270000D03*
X+5233900Y-4270000D03*
X+5283900Y-4270000D03*
X+5333900Y-4270000D03*
X+5383900Y-4270000D03*
X+5433900Y-4270000D03*
D26*
X+5628900Y-2130000D03*
X+3488900Y-4270000D03*
D70*
X+1422400Y-1686000D03*
X+1422400Y-1986000D03*
X+1181100Y-1686000D03*
X+1181100Y-1986000D03*
D71*
X+6273800Y-4292600D03*
X+5983800Y-4292600D03*
D70*
X+2590800Y-5664200D03*
X+2590800Y-5374200D03*
D14*
X-723900Y-4457700D03*
X-523900Y-4457700D03*
X-323900Y-4457700D03*
X-123900Y-4457700D03*
X-723900Y-4914900D03*
X-523900Y-4914900D03*
X-323900Y-4914900D03*
X-123900Y-4914900D03*
D70*
X+6197600Y-2189200D03*
X+6197600Y-2489200D03*
X+6464300Y-2491300D03*
X+6464300Y-2781300D03*
D27*
X+8501500Y-1718100D03*
X+9151500Y-1718100D03*
X+8501500Y-2168100D03*
X+9151500Y-2168100D03*
D13*
X+8356600Y-4257700D03*
X+8356600Y-4457700D03*
X+8356600Y-4657700D03*
D28*
X-1079500Y-6413500D02*
X+9715500Y-6413500D01*
X+9715500Y-1016000D01*
X-1079500Y-1016000D01*
X-1079500Y-6413500D01*
M02*
