G04 PROTEUS RS274X GERBER FILE*
%FSLAX45Y45*%
%MOMM*%
G01*
%ADD28C,0.203200*%
%ADD77C,0.127000*%
%ADD80C,0.063500*%
D28*
X+2870200Y-2260600D02*
X+2870200Y-2387600D01*
X+2806700Y-2324100D02*
X+2933700Y-2324100D01*
X+296957Y-4679126D02*
X+296957Y-4806126D01*
X+233457Y-4742626D02*
X+360457Y-4742626D01*
X-825500Y-1206500D02*
X-825500Y-1333500D01*
X-889000Y-1270000D02*
X-762000Y-1270000D01*
X+3251200Y-2335710D02*
X+3251200Y-2462710D01*
X+3187700Y-2399210D02*
X+3314700Y-2399210D01*
X+3499093Y-5392326D02*
X+3499093Y-5519326D01*
X+3435593Y-5455826D02*
X+3562593Y-5455826D01*
X+3391926Y-5400885D02*
X+3391926Y-5527885D01*
X+3328426Y-5464385D02*
X+3455426Y-5464385D01*
X+3262876Y-5419059D02*
X+3262876Y-5546059D01*
X+3199376Y-5482559D02*
X+3326376Y-5482559D01*
X+4539700Y-1642193D02*
X+4539700Y-1769193D01*
X+4476200Y-1705693D02*
X+4603200Y-1705693D01*
X+337490Y-3586103D02*
X+337490Y-3713103D01*
X+273990Y-3649603D02*
X+400990Y-3649603D01*
X-606300Y-3017488D02*
X-606300Y-3144488D01*
X-669800Y-3080988D02*
X-542800Y-3080988D01*
X+4699000Y-5016500D02*
X+4699000Y-5143500D01*
X+4635500Y-5080000D02*
X+4762500Y-5080000D01*
X+4000500Y-5016500D02*
X+4000500Y-5143500D01*
X+3937000Y-5080000D02*
X+4064000Y-5080000D01*
X+5950637Y-2391899D02*
X+5950637Y-2518899D01*
X+5887137Y-2455399D02*
X+6014137Y-2455399D01*
X+3302000Y-2476500D02*
X+3302000Y-2603500D01*
X+3238500Y-2540000D02*
X+3365500Y-2540000D01*
X+939800Y-1714500D02*
X+939800Y-1841500D01*
X+876300Y-1778000D02*
X+1003300Y-1778000D01*
X+961073Y-3045600D02*
X+961073Y-3172600D01*
X+897573Y-3109100D02*
X+1024573Y-3109100D01*
X+818252Y-3052100D02*
X+818252Y-3179100D01*
X+754752Y-3115600D02*
X+881752Y-3115600D01*
X+5422900Y-5105400D02*
X+5422900Y-5232400D01*
X+5359400Y-5168900D02*
X+5486400Y-5168900D01*
X+5334000Y-4901108D02*
X+5334000Y-5028108D01*
X+5270500Y-4964608D02*
X+5397500Y-4964608D01*
X+1905000Y-2349500D02*
X+1905000Y-2476500D01*
X+1841500Y-2413000D02*
X+1968500Y-2413000D01*
X+1778000Y-3365500D02*
X+1778000Y-3492500D01*
X+1714500Y-3429000D02*
X+1841500Y-3429000D01*
X+6040338Y-3126439D02*
X+6040338Y-3253439D01*
X+5976838Y-3189939D02*
X+6103838Y-3189939D01*
X+45274Y-3212639D02*
X+45274Y-3339639D01*
X-18226Y-3276139D02*
X+108774Y-3276139D01*
X+4804966Y-4419600D02*
X+4804966Y-4546600D01*
X+4741466Y-4483100D02*
X+4868466Y-4483100D01*
X+4962849Y-4417034D02*
X+4962849Y-4544034D01*
X+4899349Y-4480534D02*
X+5026349Y-4480534D01*
X+3289222Y-3261500D02*
X+3289222Y-3388500D01*
X+3225722Y-3325000D02*
X+3352722Y-3325000D01*
X+3931405Y-1794755D02*
X+3931405Y-1921755D01*
X+3867905Y-1858255D02*
X+3994905Y-1858255D01*
X+4508500Y-4572000D02*
X+4508500Y-4699000D01*
X+4445000Y-4635500D02*
X+4572000Y-4635500D01*
X+3313388Y-3537336D02*
X+3313388Y-3664336D01*
X+3249888Y-3600836D02*
X+3376888Y-3600836D01*
X+2372206Y-3132556D02*
X+2372206Y-3259556D01*
X+2308706Y-3196056D02*
X+2435706Y-3196056D01*
X+2455828Y-3483119D02*
X+2455828Y-3610119D01*
X+2392328Y-3546619D02*
X+2519328Y-3546619D01*
X-857028Y-3037659D02*
X-857028Y-3164659D01*
X-920528Y-3101159D02*
X-793528Y-3101159D01*
X+6273800Y-4089400D02*
X+6273800Y-4216400D01*
X+6210300Y-4152900D02*
X+6337300Y-4152900D01*
X+6273800Y-3733800D02*
X+6273800Y-3860800D01*
X+6210300Y-3797300D02*
X+6337300Y-3797300D01*
X+6268211Y-2791511D02*
X+6268211Y-2918511D01*
X+6204711Y-2855011D02*
X+6331711Y-2855011D01*
X+1524000Y-5080000D02*
X+1524000Y-5207000D01*
X+1460500Y-5143500D02*
X+1587500Y-5143500D01*
X+3683000Y-1689100D02*
X+3683000Y-1816100D01*
X+3619500Y-1752600D02*
X+3746500Y-1752600D01*
X+4458798Y-1721713D02*
X+4458798Y-1848713D01*
X+4395298Y-1785213D02*
X+4522298Y-1785213D01*
X+1433045Y-2102172D02*
X+1433045Y-2229172D01*
X+1369545Y-2165672D02*
X+1496545Y-2165672D01*
X+6829674Y-2720793D02*
X+6829674Y-2847793D01*
X+6766174Y-2784293D02*
X+6893174Y-2784293D01*
X+6832600Y-2413000D02*
X+6832600Y-2540000D01*
X+6769100Y-2476500D02*
X+6896100Y-2476500D01*
X+4931601Y-1742670D02*
X+4931601Y-1869670D01*
X+4868101Y-1806170D02*
X+4995101Y-1806170D01*
X+5873205Y-2108655D02*
X+5873205Y-2235655D01*
X+5809705Y-2172155D02*
X+5936705Y-2172155D01*
X+4772378Y-1628728D02*
X+4772378Y-1755728D01*
X+4708878Y-1692228D02*
X+4835878Y-1692228D01*
X+4663171Y-1607869D02*
X+4663171Y-1734869D01*
X+4599671Y-1671369D02*
X+4726671Y-1671369D01*
X+5080000Y-1435100D02*
X+5080000Y-1562100D01*
X+5016500Y-1498600D02*
X+5143500Y-1498600D01*
X+4445000Y-1574800D02*
X+4445000Y-1701800D01*
X+4381500Y-1638300D02*
X+4508500Y-1638300D01*
X+3543300Y-1701800D02*
X+3543300Y-1828800D01*
X+3479800Y-1765300D02*
X+3606800Y-1765300D01*
X+2757181Y-3879844D02*
X+2757181Y-4006844D01*
X+2693681Y-3943344D02*
X+2820681Y-3943344D01*
X+2754646Y-2392183D02*
X+2754646Y-2519183D01*
X+2691146Y-2455683D02*
X+2818146Y-2455683D01*
X+5308600Y-1689100D02*
X+5308600Y-1816100D01*
X+5245100Y-1752600D02*
X+5372100Y-1752600D01*
X+3458583Y-1629633D02*
X+3458583Y-1756633D01*
X+3395083Y-1693133D02*
X+3522083Y-1693133D01*
X+3110292Y-1629008D02*
X+3110292Y-1756008D01*
X+3046792Y-1692508D02*
X+3173792Y-1692508D01*
X+3530600Y-1384300D02*
X+3530600Y-1511300D01*
X+3467100Y-1447800D02*
X+3594100Y-1447800D01*
X+4022571Y-1397904D02*
X+4022571Y-1524904D01*
X+3959071Y-1461404D02*
X+4086071Y-1461404D01*
X+4313581Y-1325050D02*
X+4313581Y-1452050D01*
X+4250081Y-1388550D02*
X+4377081Y-1388550D01*
X+4140200Y-1320800D02*
X+4140200Y-1447800D01*
X+4076700Y-1384300D02*
X+4203700Y-1384300D01*
X+1683961Y-1131997D02*
X+1683961Y-1258997D01*
X+1620461Y-1195497D02*
X+1747461Y-1195497D01*
X+3269501Y-3926516D02*
X+3269501Y-4053516D01*
X+3206001Y-3990016D02*
X+3333001Y-3990016D01*
X+3525839Y-5137104D02*
X+3525839Y-5264104D01*
X+3462339Y-5200604D02*
X+3589339Y-5200604D01*
X+9309100Y-5181500D02*
X+9308883Y-5176253D01*
X+9307118Y-5165758D01*
X+9303426Y-5155263D01*
X+9297398Y-5144768D01*
X+9288176Y-5134388D01*
X+9277681Y-5126700D01*
X+9267186Y-5121782D01*
X+9256691Y-5118976D01*
X+9246196Y-5118003D01*
X+9245600Y-5118000D01*
X+9182100Y-5181500D02*
X+9182317Y-5176253D01*
X+9184082Y-5165758D01*
X+9187774Y-5155263D01*
X+9193802Y-5144768D01*
X+9203024Y-5134388D01*
X+9213519Y-5126700D01*
X+9224014Y-5121782D01*
X+9234509Y-5118976D01*
X+9245004Y-5118003D01*
X+9245600Y-5118000D01*
X+9182100Y-5181500D02*
X+9182317Y-5186747D01*
X+9184082Y-5197242D01*
X+9187774Y-5207737D01*
X+9193802Y-5218232D01*
X+9203024Y-5228612D01*
X+9213519Y-5236300D01*
X+9224014Y-5241218D01*
X+9234509Y-5244024D01*
X+9245004Y-5244997D01*
X+9245600Y-5245000D01*
X+9309100Y-5181500D02*
X+9308883Y-5186747D01*
X+9307118Y-5197242D01*
X+9303426Y-5207737D01*
X+9297398Y-5218232D01*
X+9288176Y-5228612D01*
X+9277681Y-5236300D01*
X+9267186Y-5241218D01*
X+9256691Y-5244024D01*
X+9246196Y-5244997D01*
X+9245600Y-5245000D01*
X+9245600Y-5118000D02*
X+9245600Y-5245000D01*
X+9182100Y-5181500D02*
X+9309100Y-5181500D01*
X+9309100Y-4981500D02*
X+9308883Y-4976253D01*
X+9307118Y-4965758D01*
X+9303426Y-4955263D01*
X+9297398Y-4944768D01*
X+9288176Y-4934388D01*
X+9277681Y-4926700D01*
X+9267186Y-4921782D01*
X+9256691Y-4918976D01*
X+9246196Y-4918003D01*
X+9245600Y-4918000D01*
X+9182100Y-4981500D02*
X+9182317Y-4976253D01*
X+9184082Y-4965758D01*
X+9187774Y-4955263D01*
X+9193802Y-4944768D01*
X+9203024Y-4934388D01*
X+9213519Y-4926700D01*
X+9224014Y-4921782D01*
X+9234509Y-4918976D01*
X+9245004Y-4918003D01*
X+9245600Y-4918000D01*
X+9182100Y-4981500D02*
X+9182317Y-4986747D01*
X+9184082Y-4997242D01*
X+9187774Y-5007737D01*
X+9193802Y-5018232D01*
X+9203024Y-5028612D01*
X+9213519Y-5036300D01*
X+9224014Y-5041218D01*
X+9234509Y-5044024D01*
X+9245004Y-5044997D01*
X+9245600Y-5045000D01*
X+9309100Y-4981500D02*
X+9308883Y-4986747D01*
X+9307118Y-4997242D01*
X+9303426Y-5007737D01*
X+9297398Y-5018232D01*
X+9288176Y-5028612D01*
X+9277681Y-5036300D01*
X+9267186Y-5041218D01*
X+9256691Y-5044024D01*
X+9246196Y-5044997D01*
X+9245600Y-5045000D01*
X+9245600Y-4918000D02*
X+9245600Y-5045000D01*
X+9182100Y-4981500D02*
X+9309100Y-4981500D01*
X+9309100Y-4781500D02*
X+9308883Y-4776253D01*
X+9307118Y-4765758D01*
X+9303426Y-4755263D01*
X+9297398Y-4744768D01*
X+9288176Y-4734388D01*
X+9277681Y-4726700D01*
X+9267186Y-4721782D01*
X+9256691Y-4718976D01*
X+9246196Y-4718003D01*
X+9245600Y-4718000D01*
X+9182100Y-4781500D02*
X+9182317Y-4776253D01*
X+9184082Y-4765758D01*
X+9187774Y-4755263D01*
X+9193802Y-4744768D01*
X+9203024Y-4734388D01*
X+9213519Y-4726700D01*
X+9224014Y-4721782D01*
X+9234509Y-4718976D01*
X+9245004Y-4718003D01*
X+9245600Y-4718000D01*
X+9182100Y-4781500D02*
X+9182317Y-4786747D01*
X+9184082Y-4797242D01*
X+9187774Y-4807737D01*
X+9193802Y-4818232D01*
X+9203024Y-4828612D01*
X+9213519Y-4836300D01*
X+9224014Y-4841218D01*
X+9234509Y-4844024D01*
X+9245004Y-4844997D01*
X+9245600Y-4845000D01*
X+9309100Y-4781500D02*
X+9308883Y-4786747D01*
X+9307118Y-4797242D01*
X+9303426Y-4807737D01*
X+9297398Y-4818232D01*
X+9288176Y-4828612D01*
X+9277681Y-4836300D01*
X+9267186Y-4841218D01*
X+9256691Y-4844024D01*
X+9246196Y-4844997D01*
X+9245600Y-4845000D01*
X+9245600Y-4718000D02*
X+9245600Y-4845000D01*
X+9182100Y-4781500D02*
X+9309100Y-4781500D01*
X+8420000Y-5905500D02*
X+8419783Y-5900253D01*
X+8418018Y-5889758D01*
X+8414326Y-5879263D01*
X+8408298Y-5868768D01*
X+8399076Y-5858388D01*
X+8388581Y-5850700D01*
X+8378086Y-5845782D01*
X+8367591Y-5842976D01*
X+8357096Y-5842003D01*
X+8356500Y-5842000D01*
X+8293000Y-5905500D02*
X+8293217Y-5900253D01*
X+8294982Y-5889758D01*
X+8298674Y-5879263D01*
X+8304702Y-5868768D01*
X+8313924Y-5858388D01*
X+8324419Y-5850700D01*
X+8334914Y-5845782D01*
X+8345409Y-5842976D01*
X+8355904Y-5842003D01*
X+8356500Y-5842000D01*
X+8293000Y-5905500D02*
X+8293217Y-5910747D01*
X+8294982Y-5921242D01*
X+8298674Y-5931737D01*
X+8304702Y-5942232D01*
X+8313924Y-5952612D01*
X+8324419Y-5960300D01*
X+8334914Y-5965218D01*
X+8345409Y-5968024D01*
X+8355904Y-5968997D01*
X+8356500Y-5969000D01*
X+8420000Y-5905500D02*
X+8419783Y-5910747D01*
X+8418018Y-5921242D01*
X+8414326Y-5931737D01*
X+8408298Y-5942232D01*
X+8399076Y-5952612D01*
X+8388581Y-5960300D01*
X+8378086Y-5965218D01*
X+8367591Y-5968024D01*
X+8357096Y-5968997D01*
X+8356500Y-5969000D01*
X+8356500Y-5842000D02*
X+8356500Y-5969000D01*
X+8293000Y-5905500D02*
X+8420000Y-5905500D01*
X+8220000Y-5905500D02*
X+8219783Y-5900253D01*
X+8218018Y-5889758D01*
X+8214326Y-5879263D01*
X+8208298Y-5868768D01*
X+8199076Y-5858388D01*
X+8188581Y-5850700D01*
X+8178086Y-5845782D01*
X+8167591Y-5842976D01*
X+8157096Y-5842003D01*
X+8156500Y-5842000D01*
X+8093000Y-5905500D02*
X+8093217Y-5900253D01*
X+8094982Y-5889758D01*
X+8098674Y-5879263D01*
X+8104702Y-5868768D01*
X+8113924Y-5858388D01*
X+8124419Y-5850700D01*
X+8134914Y-5845782D01*
X+8145409Y-5842976D01*
X+8155904Y-5842003D01*
X+8156500Y-5842000D01*
X+8093000Y-5905500D02*
X+8093217Y-5910747D01*
X+8094982Y-5921242D01*
X+8098674Y-5931737D01*
X+8104702Y-5942232D01*
X+8113924Y-5952612D01*
X+8124419Y-5960300D01*
X+8134914Y-5965218D01*
X+8145409Y-5968024D01*
X+8155904Y-5968997D01*
X+8156500Y-5969000D01*
X+8220000Y-5905500D02*
X+8219783Y-5910747D01*
X+8218018Y-5921242D01*
X+8214326Y-5931737D01*
X+8208298Y-5942232D01*
X+8199076Y-5952612D01*
X+8188581Y-5960300D01*
X+8178086Y-5965218D01*
X+8167591Y-5968024D01*
X+8157096Y-5968997D01*
X+8156500Y-5969000D01*
X+8156500Y-5842000D02*
X+8156500Y-5969000D01*
X+8093000Y-5905500D02*
X+8220000Y-5905500D01*
X+8020000Y-5905500D02*
X+8019783Y-5900253D01*
X+8018018Y-5889758D01*
X+8014326Y-5879263D01*
X+8008298Y-5868768D01*
X+7999076Y-5858388D01*
X+7988581Y-5850700D01*
X+7978086Y-5845782D01*
X+7967591Y-5842976D01*
X+7957096Y-5842003D01*
X+7956500Y-5842000D01*
X+7893000Y-5905500D02*
X+7893217Y-5900253D01*
X+7894982Y-5889758D01*
X+7898674Y-5879263D01*
X+7904702Y-5868768D01*
X+7913924Y-5858388D01*
X+7924419Y-5850700D01*
X+7934914Y-5845782D01*
X+7945409Y-5842976D01*
X+7955904Y-5842003D01*
X+7956500Y-5842000D01*
X+7893000Y-5905500D02*
X+7893217Y-5910747D01*
X+7894982Y-5921242D01*
X+7898674Y-5931737D01*
X+7904702Y-5942232D01*
X+7913924Y-5952612D01*
X+7924419Y-5960300D01*
X+7934914Y-5965218D01*
X+7945409Y-5968024D01*
X+7955904Y-5968997D01*
X+7956500Y-5969000D01*
X+8020000Y-5905500D02*
X+8019783Y-5910747D01*
X+8018018Y-5921242D01*
X+8014326Y-5931737D01*
X+8008298Y-5942232D01*
X+7999076Y-5952612D01*
X+7988581Y-5960300D01*
X+7978086Y-5965218D01*
X+7967591Y-5968024D01*
X+7957096Y-5968997D01*
X+7956500Y-5969000D01*
X+7956500Y-5842000D02*
X+7956500Y-5969000D01*
X+7893000Y-5905500D02*
X+8020000Y-5905500D01*
X+7820000Y-5905500D02*
X+7819783Y-5900253D01*
X+7818018Y-5889758D01*
X+7814326Y-5879263D01*
X+7808298Y-5868768D01*
X+7799076Y-5858388D01*
X+7788581Y-5850700D01*
X+7778086Y-5845782D01*
X+7767591Y-5842976D01*
X+7757096Y-5842003D01*
X+7756500Y-5842000D01*
X+7693000Y-5905500D02*
X+7693217Y-5900253D01*
X+7694982Y-5889758D01*
X+7698674Y-5879263D01*
X+7704702Y-5868768D01*
X+7713924Y-5858388D01*
X+7724419Y-5850700D01*
X+7734914Y-5845782D01*
X+7745409Y-5842976D01*
X+7755904Y-5842003D01*
X+7756500Y-5842000D01*
X+7693000Y-5905500D02*
X+7693217Y-5910747D01*
X+7694982Y-5921242D01*
X+7698674Y-5931737D01*
X+7704702Y-5942232D01*
X+7713924Y-5952612D01*
X+7724419Y-5960300D01*
X+7734914Y-5965218D01*
X+7745409Y-5968024D01*
X+7755904Y-5968997D01*
X+7756500Y-5969000D01*
X+7820000Y-5905500D02*
X+7819783Y-5910747D01*
X+7818018Y-5921242D01*
X+7814326Y-5931737D01*
X+7808298Y-5942232D01*
X+7799076Y-5952612D01*
X+7788581Y-5960300D01*
X+7778086Y-5965218D01*
X+7767591Y-5968024D01*
X+7757096Y-5968997D01*
X+7756500Y-5969000D01*
X+7756500Y-5842000D02*
X+7756500Y-5969000D01*
X+7693000Y-5905500D02*
X+7820000Y-5905500D01*
X+7620000Y-5905500D02*
X+7619783Y-5900253D01*
X+7618018Y-5889758D01*
X+7614326Y-5879263D01*
X+7608298Y-5868768D01*
X+7599076Y-5858388D01*
X+7588581Y-5850700D01*
X+7578086Y-5845782D01*
X+7567591Y-5842976D01*
X+7557096Y-5842003D01*
X+7556500Y-5842000D01*
X+7493000Y-5905500D02*
X+7493217Y-5900253D01*
X+7494982Y-5889758D01*
X+7498674Y-5879263D01*
X+7504702Y-5868768D01*
X+7513924Y-5858388D01*
X+7524419Y-5850700D01*
X+7534914Y-5845782D01*
X+7545409Y-5842976D01*
X+7555904Y-5842003D01*
X+7556500Y-5842000D01*
X+7493000Y-5905500D02*
X+7493217Y-5910747D01*
X+7494982Y-5921242D01*
X+7498674Y-5931737D01*
X+7504702Y-5942232D01*
X+7513924Y-5952612D01*
X+7524419Y-5960300D01*
X+7534914Y-5965218D01*
X+7545409Y-5968024D01*
X+7555904Y-5968997D01*
X+7556500Y-5969000D01*
X+7620000Y-5905500D02*
X+7619783Y-5910747D01*
X+7618018Y-5921242D01*
X+7614326Y-5931737D01*
X+7608298Y-5942232D01*
X+7599076Y-5952612D01*
X+7588581Y-5960300D01*
X+7578086Y-5965218D01*
X+7567591Y-5968024D01*
X+7557096Y-5968997D01*
X+7556500Y-5969000D01*
X+7556500Y-5842000D02*
X+7556500Y-5969000D01*
X+7493000Y-5905500D02*
X+7620000Y-5905500D01*
X+7420000Y-5905500D02*
X+7419783Y-5900253D01*
X+7418018Y-5889758D01*
X+7414326Y-5879263D01*
X+7408298Y-5868768D01*
X+7399076Y-5858388D01*
X+7388581Y-5850700D01*
X+7378086Y-5845782D01*
X+7367591Y-5842976D01*
X+7357096Y-5842003D01*
X+7356500Y-5842000D01*
X+7293000Y-5905500D02*
X+7293217Y-5900253D01*
X+7294982Y-5889758D01*
X+7298674Y-5879263D01*
X+7304702Y-5868768D01*
X+7313924Y-5858388D01*
X+7324419Y-5850700D01*
X+7334914Y-5845782D01*
X+7345409Y-5842976D01*
X+7355904Y-5842003D01*
X+7356500Y-5842000D01*
X+7293000Y-5905500D02*
X+7293217Y-5910747D01*
X+7294982Y-5921242D01*
X+7298674Y-5931737D01*
X+7304702Y-5942232D01*
X+7313924Y-5952612D01*
X+7324419Y-5960300D01*
X+7334914Y-5965218D01*
X+7345409Y-5968024D01*
X+7355904Y-5968997D01*
X+7356500Y-5969000D01*
X+7420000Y-5905500D02*
X+7419783Y-5910747D01*
X+7418018Y-5921242D01*
X+7414326Y-5931737D01*
X+7408298Y-5942232D01*
X+7399076Y-5952612D01*
X+7388581Y-5960300D01*
X+7378086Y-5965218D01*
X+7367591Y-5968024D01*
X+7357096Y-5968997D01*
X+7356500Y-5969000D01*
X+7356500Y-5842000D02*
X+7356500Y-5969000D01*
X+7293000Y-5905500D02*
X+7420000Y-5905500D01*
X+9334500Y-5969000D02*
X+9334283Y-5963753D01*
X+9332518Y-5953258D01*
X+9328826Y-5942763D01*
X+9322798Y-5932268D01*
X+9313576Y-5921888D01*
X+9303081Y-5914200D01*
X+9292586Y-5909282D01*
X+9282091Y-5906476D01*
X+9271596Y-5905503D01*
X+9271000Y-5905500D01*
X+9207500Y-5969000D02*
X+9207717Y-5963753D01*
X+9209482Y-5953258D01*
X+9213174Y-5942763D01*
X+9219202Y-5932268D01*
X+9228424Y-5921888D01*
X+9238919Y-5914200D01*
X+9249414Y-5909282D01*
X+9259909Y-5906476D01*
X+9270404Y-5905503D01*
X+9271000Y-5905500D01*
X+9207500Y-5969000D02*
X+9207717Y-5974247D01*
X+9209482Y-5984742D01*
X+9213174Y-5995237D01*
X+9219202Y-6005732D01*
X+9228424Y-6016112D01*
X+9238919Y-6023800D01*
X+9249414Y-6028718D01*
X+9259909Y-6031524D01*
X+9270404Y-6032497D01*
X+9271000Y-6032500D01*
X+9334500Y-5969000D02*
X+9334283Y-5974247D01*
X+9332518Y-5984742D01*
X+9328826Y-5995237D01*
X+9322798Y-6005732D01*
X+9313576Y-6016112D01*
X+9303081Y-6023800D01*
X+9292586Y-6028718D01*
X+9282091Y-6031524D01*
X+9271596Y-6032497D01*
X+9271000Y-6032500D01*
X+9226099Y-5924099D02*
X+9315901Y-6013901D01*
X+9226099Y-6013901D02*
X+9315901Y-5924099D01*
X-571500Y-5969000D02*
X-571717Y-5963753D01*
X-573482Y-5953258D01*
X-577174Y-5942763D01*
X-583202Y-5932268D01*
X-592424Y-5921888D01*
X-602919Y-5914200D01*
X-613414Y-5909282D01*
X-623909Y-5906476D01*
X-634404Y-5905503D01*
X-635000Y-5905500D01*
X-698500Y-5969000D02*
X-698283Y-5963753D01*
X-696518Y-5953258D01*
X-692826Y-5942763D01*
X-686798Y-5932268D01*
X-677576Y-5921888D01*
X-667081Y-5914200D01*
X-656586Y-5909282D01*
X-646091Y-5906476D01*
X-635596Y-5905503D01*
X-635000Y-5905500D01*
X-698500Y-5969000D02*
X-698283Y-5974247D01*
X-696518Y-5984742D01*
X-692826Y-5995237D01*
X-686798Y-6005732D01*
X-677576Y-6016112D01*
X-667081Y-6023800D01*
X-656586Y-6028718D01*
X-646091Y-6031524D01*
X-635596Y-6032497D01*
X-635000Y-6032500D01*
X-571500Y-5969000D02*
X-571717Y-5974247D01*
X-573482Y-5984742D01*
X-577174Y-5995237D01*
X-583202Y-6005732D01*
X-592424Y-6016112D01*
X-602919Y-6023800D01*
X-613414Y-6028718D01*
X-623909Y-6031524D01*
X-634404Y-6032497D01*
X-635000Y-6032500D01*
X-679901Y-5924099D02*
X-590099Y-6013901D01*
X-679901Y-6013901D02*
X-590099Y-5924099D01*
X+4188000Y-5905500D02*
X+4187783Y-5900253D01*
X+4186018Y-5889758D01*
X+4182326Y-5879263D01*
X+4176298Y-5868768D01*
X+4167076Y-5858388D01*
X+4156581Y-5850700D01*
X+4146086Y-5845782D01*
X+4135591Y-5842976D01*
X+4125096Y-5842003D01*
X+4124500Y-5842000D01*
X+4061000Y-5905500D02*
X+4061217Y-5900253D01*
X+4062982Y-5889758D01*
X+4066674Y-5879263D01*
X+4072702Y-5868768D01*
X+4081924Y-5858388D01*
X+4092419Y-5850700D01*
X+4102914Y-5845782D01*
X+4113409Y-5842976D01*
X+4123904Y-5842003D01*
X+4124500Y-5842000D01*
X+4061000Y-5905500D02*
X+4061217Y-5910747D01*
X+4062982Y-5921242D01*
X+4066674Y-5931737D01*
X+4072702Y-5942232D01*
X+4081924Y-5952612D01*
X+4092419Y-5960300D01*
X+4102914Y-5965218D01*
X+4113409Y-5968024D01*
X+4123904Y-5968997D01*
X+4124500Y-5969000D01*
X+4188000Y-5905500D02*
X+4187783Y-5910747D01*
X+4186018Y-5921242D01*
X+4182326Y-5931737D01*
X+4176298Y-5942232D01*
X+4167076Y-5952612D01*
X+4156581Y-5960300D01*
X+4146086Y-5965218D01*
X+4135591Y-5968024D01*
X+4125096Y-5968997D01*
X+4124500Y-5969000D01*
X+4124500Y-5842000D02*
X+4124500Y-5969000D01*
X+4061000Y-5905500D02*
X+4188000Y-5905500D01*
X+4388000Y-5905500D02*
X+4387783Y-5900253D01*
X+4386018Y-5889758D01*
X+4382326Y-5879263D01*
X+4376298Y-5868768D01*
X+4367076Y-5858388D01*
X+4356581Y-5850700D01*
X+4346086Y-5845782D01*
X+4335591Y-5842976D01*
X+4325096Y-5842003D01*
X+4324500Y-5842000D01*
X+4261000Y-5905500D02*
X+4261217Y-5900253D01*
X+4262982Y-5889758D01*
X+4266674Y-5879263D01*
X+4272702Y-5868768D01*
X+4281924Y-5858388D01*
X+4292419Y-5850700D01*
X+4302914Y-5845782D01*
X+4313409Y-5842976D01*
X+4323904Y-5842003D01*
X+4324500Y-5842000D01*
X+4261000Y-5905500D02*
X+4261217Y-5910747D01*
X+4262982Y-5921242D01*
X+4266674Y-5931737D01*
X+4272702Y-5942232D01*
X+4281924Y-5952612D01*
X+4292419Y-5960300D01*
X+4302914Y-5965218D01*
X+4313409Y-5968024D01*
X+4323904Y-5968997D01*
X+4324500Y-5969000D01*
X+4388000Y-5905500D02*
X+4387783Y-5910747D01*
X+4386018Y-5921242D01*
X+4382326Y-5931737D01*
X+4376298Y-5942232D01*
X+4367076Y-5952612D01*
X+4356581Y-5960300D01*
X+4346086Y-5965218D01*
X+4335591Y-5968024D01*
X+4325096Y-5968997D01*
X+4324500Y-5969000D01*
X+4324500Y-5842000D02*
X+4324500Y-5969000D01*
X+4261000Y-5905500D02*
X+4388000Y-5905500D01*
X+4588000Y-5905500D02*
X+4587783Y-5900253D01*
X+4586018Y-5889758D01*
X+4582326Y-5879263D01*
X+4576298Y-5868768D01*
X+4567076Y-5858388D01*
X+4556581Y-5850700D01*
X+4546086Y-5845782D01*
X+4535591Y-5842976D01*
X+4525096Y-5842003D01*
X+4524500Y-5842000D01*
X+4461000Y-5905500D02*
X+4461217Y-5900253D01*
X+4462982Y-5889758D01*
X+4466674Y-5879263D01*
X+4472702Y-5868768D01*
X+4481924Y-5858388D01*
X+4492419Y-5850700D01*
X+4502914Y-5845782D01*
X+4513409Y-5842976D01*
X+4523904Y-5842003D01*
X+4524500Y-5842000D01*
X+4461000Y-5905500D02*
X+4461217Y-5910747D01*
X+4462982Y-5921242D01*
X+4466674Y-5931737D01*
X+4472702Y-5942232D01*
X+4481924Y-5952612D01*
X+4492419Y-5960300D01*
X+4502914Y-5965218D01*
X+4513409Y-5968024D01*
X+4523904Y-5968997D01*
X+4524500Y-5969000D01*
X+4588000Y-5905500D02*
X+4587783Y-5910747D01*
X+4586018Y-5921242D01*
X+4582326Y-5931737D01*
X+4576298Y-5942232D01*
X+4567076Y-5952612D01*
X+4556581Y-5960300D01*
X+4546086Y-5965218D01*
X+4535591Y-5968024D01*
X+4525096Y-5968997D01*
X+4524500Y-5969000D01*
X+4524500Y-5842000D02*
X+4524500Y-5969000D01*
X+4461000Y-5905500D02*
X+4588000Y-5905500D01*
X+4788000Y-5905500D02*
X+4787783Y-5900253D01*
X+4786018Y-5889758D01*
X+4782326Y-5879263D01*
X+4776298Y-5868768D01*
X+4767076Y-5858388D01*
X+4756581Y-5850700D01*
X+4746086Y-5845782D01*
X+4735591Y-5842976D01*
X+4725096Y-5842003D01*
X+4724500Y-5842000D01*
X+4661000Y-5905500D02*
X+4661217Y-5900253D01*
X+4662982Y-5889758D01*
X+4666674Y-5879263D01*
X+4672702Y-5868768D01*
X+4681924Y-5858388D01*
X+4692419Y-5850700D01*
X+4702914Y-5845782D01*
X+4713409Y-5842976D01*
X+4723904Y-5842003D01*
X+4724500Y-5842000D01*
X+4661000Y-5905500D02*
X+4661217Y-5910747D01*
X+4662982Y-5921242D01*
X+4666674Y-5931737D01*
X+4672702Y-5942232D01*
X+4681924Y-5952612D01*
X+4692419Y-5960300D01*
X+4702914Y-5965218D01*
X+4713409Y-5968024D01*
X+4723904Y-5968997D01*
X+4724500Y-5969000D01*
X+4788000Y-5905500D02*
X+4787783Y-5910747D01*
X+4786018Y-5921242D01*
X+4782326Y-5931737D01*
X+4776298Y-5942232D01*
X+4767076Y-5952612D01*
X+4756581Y-5960300D01*
X+4746086Y-5965218D01*
X+4735591Y-5968024D01*
X+4725096Y-5968997D01*
X+4724500Y-5969000D01*
X+4724500Y-5842000D02*
X+4724500Y-5969000D01*
X+4661000Y-5905500D02*
X+4788000Y-5905500D01*
X+4988000Y-5905500D02*
X+4987783Y-5900253D01*
X+4986018Y-5889758D01*
X+4982326Y-5879263D01*
X+4976298Y-5868768D01*
X+4967076Y-5858388D01*
X+4956581Y-5850700D01*
X+4946086Y-5845782D01*
X+4935591Y-5842976D01*
X+4925096Y-5842003D01*
X+4924500Y-5842000D01*
X+4861000Y-5905500D02*
X+4861217Y-5900253D01*
X+4862982Y-5889758D01*
X+4866674Y-5879263D01*
X+4872702Y-5868768D01*
X+4881924Y-5858388D01*
X+4892419Y-5850700D01*
X+4902914Y-5845782D01*
X+4913409Y-5842976D01*
X+4923904Y-5842003D01*
X+4924500Y-5842000D01*
X+4861000Y-5905500D02*
X+4861217Y-5910747D01*
X+4862982Y-5921242D01*
X+4866674Y-5931737D01*
X+4872702Y-5942232D01*
X+4881924Y-5952612D01*
X+4892419Y-5960300D01*
X+4902914Y-5965218D01*
X+4913409Y-5968024D01*
X+4923904Y-5968997D01*
X+4924500Y-5969000D01*
X+4988000Y-5905500D02*
X+4987783Y-5910747D01*
X+4986018Y-5921242D01*
X+4982326Y-5931737D01*
X+4976298Y-5942232D01*
X+4967076Y-5952612D01*
X+4956581Y-5960300D01*
X+4946086Y-5965218D01*
X+4935591Y-5968024D01*
X+4925096Y-5968997D01*
X+4924500Y-5969000D01*
X+4924500Y-5842000D02*
X+4924500Y-5969000D01*
X+4861000Y-5905500D02*
X+4988000Y-5905500D01*
X+5188000Y-5905500D02*
X+5187783Y-5900253D01*
X+5186018Y-5889758D01*
X+5182326Y-5879263D01*
X+5176298Y-5868768D01*
X+5167076Y-5858388D01*
X+5156581Y-5850700D01*
X+5146086Y-5845782D01*
X+5135591Y-5842976D01*
X+5125096Y-5842003D01*
X+5124500Y-5842000D01*
X+5061000Y-5905500D02*
X+5061217Y-5900253D01*
X+5062982Y-5889758D01*
X+5066674Y-5879263D01*
X+5072702Y-5868768D01*
X+5081924Y-5858388D01*
X+5092419Y-5850700D01*
X+5102914Y-5845782D01*
X+5113409Y-5842976D01*
X+5123904Y-5842003D01*
X+5124500Y-5842000D01*
X+5061000Y-5905500D02*
X+5061217Y-5910747D01*
X+5062982Y-5921242D01*
X+5066674Y-5931737D01*
X+5072702Y-5942232D01*
X+5081924Y-5952612D01*
X+5092419Y-5960300D01*
X+5102914Y-5965218D01*
X+5113409Y-5968024D01*
X+5123904Y-5968997D01*
X+5124500Y-5969000D01*
X+5188000Y-5905500D02*
X+5187783Y-5910747D01*
X+5186018Y-5921242D01*
X+5182326Y-5931737D01*
X+5176298Y-5942232D01*
X+5167076Y-5952612D01*
X+5156581Y-5960300D01*
X+5146086Y-5965218D01*
X+5135591Y-5968024D01*
X+5125096Y-5968997D01*
X+5124500Y-5969000D01*
X+5124500Y-5842000D02*
X+5124500Y-5969000D01*
X+5061000Y-5905500D02*
X+5188000Y-5905500D01*
X+5750000Y-5905500D02*
X+5749783Y-5900253D01*
X+5748018Y-5889758D01*
X+5744326Y-5879263D01*
X+5738298Y-5868768D01*
X+5729076Y-5858388D01*
X+5718581Y-5850700D01*
X+5708086Y-5845782D01*
X+5697591Y-5842976D01*
X+5687096Y-5842003D01*
X+5686500Y-5842000D01*
X+5623000Y-5905500D02*
X+5623217Y-5900253D01*
X+5624982Y-5889758D01*
X+5628674Y-5879263D01*
X+5634702Y-5868768D01*
X+5643924Y-5858388D01*
X+5654419Y-5850700D01*
X+5664914Y-5845782D01*
X+5675409Y-5842976D01*
X+5685904Y-5842003D01*
X+5686500Y-5842000D01*
X+5623000Y-5905500D02*
X+5623217Y-5910747D01*
X+5624982Y-5921242D01*
X+5628674Y-5931737D01*
X+5634702Y-5942232D01*
X+5643924Y-5952612D01*
X+5654419Y-5960300D01*
X+5664914Y-5965218D01*
X+5675409Y-5968024D01*
X+5685904Y-5968997D01*
X+5686500Y-5969000D01*
X+5750000Y-5905500D02*
X+5749783Y-5910747D01*
X+5748018Y-5921242D01*
X+5744326Y-5931737D01*
X+5738298Y-5942232D01*
X+5729076Y-5952612D01*
X+5718581Y-5960300D01*
X+5708086Y-5965218D01*
X+5697591Y-5968024D01*
X+5687096Y-5968997D01*
X+5686500Y-5969000D01*
X+5686500Y-5842000D02*
X+5686500Y-5969000D01*
X+5623000Y-5905500D02*
X+5750000Y-5905500D01*
X+5950000Y-5905500D02*
X+5949783Y-5900253D01*
X+5948018Y-5889758D01*
X+5944326Y-5879263D01*
X+5938298Y-5868768D01*
X+5929076Y-5858388D01*
X+5918581Y-5850700D01*
X+5908086Y-5845782D01*
X+5897591Y-5842976D01*
X+5887096Y-5842003D01*
X+5886500Y-5842000D01*
X+5823000Y-5905500D02*
X+5823217Y-5900253D01*
X+5824982Y-5889758D01*
X+5828674Y-5879263D01*
X+5834702Y-5868768D01*
X+5843924Y-5858388D01*
X+5854419Y-5850700D01*
X+5864914Y-5845782D01*
X+5875409Y-5842976D01*
X+5885904Y-5842003D01*
X+5886500Y-5842000D01*
X+5823000Y-5905500D02*
X+5823217Y-5910747D01*
X+5824982Y-5921242D01*
X+5828674Y-5931737D01*
X+5834702Y-5942232D01*
X+5843924Y-5952612D01*
X+5854419Y-5960300D01*
X+5864914Y-5965218D01*
X+5875409Y-5968024D01*
X+5885904Y-5968997D01*
X+5886500Y-5969000D01*
X+5950000Y-5905500D02*
X+5949783Y-5910747D01*
X+5948018Y-5921242D01*
X+5944326Y-5931737D01*
X+5938298Y-5942232D01*
X+5929076Y-5952612D01*
X+5918581Y-5960300D01*
X+5908086Y-5965218D01*
X+5897591Y-5968024D01*
X+5887096Y-5968997D01*
X+5886500Y-5969000D01*
X+5886500Y-5842000D02*
X+5886500Y-5969000D01*
X+5823000Y-5905500D02*
X+5950000Y-5905500D01*
X+6150000Y-5905500D02*
X+6149783Y-5900253D01*
X+6148018Y-5889758D01*
X+6144326Y-5879263D01*
X+6138298Y-5868768D01*
X+6129076Y-5858388D01*
X+6118581Y-5850700D01*
X+6108086Y-5845782D01*
X+6097591Y-5842976D01*
X+6087096Y-5842003D01*
X+6086500Y-5842000D01*
X+6023000Y-5905500D02*
X+6023217Y-5900253D01*
X+6024982Y-5889758D01*
X+6028674Y-5879263D01*
X+6034702Y-5868768D01*
X+6043924Y-5858388D01*
X+6054419Y-5850700D01*
X+6064914Y-5845782D01*
X+6075409Y-5842976D01*
X+6085904Y-5842003D01*
X+6086500Y-5842000D01*
X+6023000Y-5905500D02*
X+6023217Y-5910747D01*
X+6024982Y-5921242D01*
X+6028674Y-5931737D01*
X+6034702Y-5942232D01*
X+6043924Y-5952612D01*
X+6054419Y-5960300D01*
X+6064914Y-5965218D01*
X+6075409Y-5968024D01*
X+6085904Y-5968997D01*
X+6086500Y-5969000D01*
X+6150000Y-5905500D02*
X+6149783Y-5910747D01*
X+6148018Y-5921242D01*
X+6144326Y-5931737D01*
X+6138298Y-5942232D01*
X+6129076Y-5952612D01*
X+6118581Y-5960300D01*
X+6108086Y-5965218D01*
X+6097591Y-5968024D01*
X+6087096Y-5968997D01*
X+6086500Y-5969000D01*
X+6086500Y-5842000D02*
X+6086500Y-5969000D01*
X+6023000Y-5905500D02*
X+6150000Y-5905500D01*
X+6350000Y-5905500D02*
X+6349783Y-5900253D01*
X+6348018Y-5889758D01*
X+6344326Y-5879263D01*
X+6338298Y-5868768D01*
X+6329076Y-5858388D01*
X+6318581Y-5850700D01*
X+6308086Y-5845782D01*
X+6297591Y-5842976D01*
X+6287096Y-5842003D01*
X+6286500Y-5842000D01*
X+6223000Y-5905500D02*
X+6223217Y-5900253D01*
X+6224982Y-5889758D01*
X+6228674Y-5879263D01*
X+6234702Y-5868768D01*
X+6243924Y-5858388D01*
X+6254419Y-5850700D01*
X+6264914Y-5845782D01*
X+6275409Y-5842976D01*
X+6285904Y-5842003D01*
X+6286500Y-5842000D01*
X+6223000Y-5905500D02*
X+6223217Y-5910747D01*
X+6224982Y-5921242D01*
X+6228674Y-5931737D01*
X+6234702Y-5942232D01*
X+6243924Y-5952612D01*
X+6254419Y-5960300D01*
X+6264914Y-5965218D01*
X+6275409Y-5968024D01*
X+6285904Y-5968997D01*
X+6286500Y-5969000D01*
X+6350000Y-5905500D02*
X+6349783Y-5910747D01*
X+6348018Y-5921242D01*
X+6344326Y-5931737D01*
X+6338298Y-5942232D01*
X+6329076Y-5952612D01*
X+6318581Y-5960300D01*
X+6308086Y-5965218D01*
X+6297591Y-5968024D01*
X+6287096Y-5968997D01*
X+6286500Y-5969000D01*
X+6286500Y-5842000D02*
X+6286500Y-5969000D01*
X+6223000Y-5905500D02*
X+6350000Y-5905500D01*
X+6550000Y-5905500D02*
X+6549783Y-5900253D01*
X+6548018Y-5889758D01*
X+6544326Y-5879263D01*
X+6538298Y-5868768D01*
X+6529076Y-5858388D01*
X+6518581Y-5850700D01*
X+6508086Y-5845782D01*
X+6497591Y-5842976D01*
X+6487096Y-5842003D01*
X+6486500Y-5842000D01*
X+6423000Y-5905500D02*
X+6423217Y-5900253D01*
X+6424982Y-5889758D01*
X+6428674Y-5879263D01*
X+6434702Y-5868768D01*
X+6443924Y-5858388D01*
X+6454419Y-5850700D01*
X+6464914Y-5845782D01*
X+6475409Y-5842976D01*
X+6485904Y-5842003D01*
X+6486500Y-5842000D01*
X+6423000Y-5905500D02*
X+6423217Y-5910747D01*
X+6424982Y-5921242D01*
X+6428674Y-5931737D01*
X+6434702Y-5942232D01*
X+6443924Y-5952612D01*
X+6454419Y-5960300D01*
X+6464914Y-5965218D01*
X+6475409Y-5968024D01*
X+6485904Y-5968997D01*
X+6486500Y-5969000D01*
X+6550000Y-5905500D02*
X+6549783Y-5910747D01*
X+6548018Y-5921242D01*
X+6544326Y-5931737D01*
X+6538298Y-5942232D01*
X+6529076Y-5952612D01*
X+6518581Y-5960300D01*
X+6508086Y-5965218D01*
X+6497591Y-5968024D01*
X+6487096Y-5968997D01*
X+6486500Y-5969000D01*
X+6486500Y-5842000D02*
X+6486500Y-5969000D01*
X+6423000Y-5905500D02*
X+6550000Y-5905500D01*
X+6750000Y-5905500D02*
X+6749783Y-5900253D01*
X+6748018Y-5889758D01*
X+6744326Y-5879263D01*
X+6738298Y-5868768D01*
X+6729076Y-5858388D01*
X+6718581Y-5850700D01*
X+6708086Y-5845782D01*
X+6697591Y-5842976D01*
X+6687096Y-5842003D01*
X+6686500Y-5842000D01*
X+6623000Y-5905500D02*
X+6623217Y-5900253D01*
X+6624982Y-5889758D01*
X+6628674Y-5879263D01*
X+6634702Y-5868768D01*
X+6643924Y-5858388D01*
X+6654419Y-5850700D01*
X+6664914Y-5845782D01*
X+6675409Y-5842976D01*
X+6685904Y-5842003D01*
X+6686500Y-5842000D01*
X+6623000Y-5905500D02*
X+6623217Y-5910747D01*
X+6624982Y-5921242D01*
X+6628674Y-5931737D01*
X+6634702Y-5942232D01*
X+6643924Y-5952612D01*
X+6654419Y-5960300D01*
X+6664914Y-5965218D01*
X+6675409Y-5968024D01*
X+6685904Y-5968997D01*
X+6686500Y-5969000D01*
X+6750000Y-5905500D02*
X+6749783Y-5910747D01*
X+6748018Y-5921242D01*
X+6744326Y-5931737D01*
X+6738298Y-5942232D01*
X+6729076Y-5952612D01*
X+6718581Y-5960300D01*
X+6708086Y-5965218D01*
X+6697591Y-5968024D01*
X+6687096Y-5968997D01*
X+6686500Y-5969000D01*
X+6686500Y-5842000D02*
X+6686500Y-5969000D01*
X+6623000Y-5905500D02*
X+6750000Y-5905500D01*
X+5775500Y-5270500D02*
X+5775283Y-5265253D01*
X+5773518Y-5254758D01*
X+5769826Y-5244263D01*
X+5763798Y-5233768D01*
X+5754576Y-5223388D01*
X+5744081Y-5215700D01*
X+5733586Y-5210782D01*
X+5723091Y-5207976D01*
X+5712596Y-5207003D01*
X+5712000Y-5207000D01*
X+5648500Y-5270500D02*
X+5648717Y-5265253D01*
X+5650482Y-5254758D01*
X+5654174Y-5244263D01*
X+5660202Y-5233768D01*
X+5669424Y-5223388D01*
X+5679919Y-5215700D01*
X+5690414Y-5210782D01*
X+5700909Y-5207976D01*
X+5711404Y-5207003D01*
X+5712000Y-5207000D01*
X+5648500Y-5270500D02*
X+5648717Y-5275747D01*
X+5650482Y-5286242D01*
X+5654174Y-5296737D01*
X+5660202Y-5307232D01*
X+5669424Y-5317612D01*
X+5679919Y-5325300D01*
X+5690414Y-5330218D01*
X+5700909Y-5333024D01*
X+5711404Y-5333997D01*
X+5712000Y-5334000D01*
X+5775500Y-5270500D02*
X+5775283Y-5275747D01*
X+5773518Y-5286242D01*
X+5769826Y-5296737D01*
X+5763798Y-5307232D01*
X+5754576Y-5317612D01*
X+5744081Y-5325300D01*
X+5733586Y-5330218D01*
X+5723091Y-5333024D01*
X+5712596Y-5333997D01*
X+5712000Y-5334000D01*
X+5712000Y-5207000D02*
X+5712000Y-5334000D01*
X+5648500Y-5270500D02*
X+5775500Y-5270500D01*
X+5975500Y-5270500D02*
X+5975283Y-5265253D01*
X+5973518Y-5254758D01*
X+5969826Y-5244263D01*
X+5963798Y-5233768D01*
X+5954576Y-5223388D01*
X+5944081Y-5215700D01*
X+5933586Y-5210782D01*
X+5923091Y-5207976D01*
X+5912596Y-5207003D01*
X+5912000Y-5207000D01*
X+5848500Y-5270500D02*
X+5848717Y-5265253D01*
X+5850482Y-5254758D01*
X+5854174Y-5244263D01*
X+5860202Y-5233768D01*
X+5869424Y-5223388D01*
X+5879919Y-5215700D01*
X+5890414Y-5210782D01*
X+5900909Y-5207976D01*
X+5911404Y-5207003D01*
X+5912000Y-5207000D01*
X+5848500Y-5270500D02*
X+5848717Y-5275747D01*
X+5850482Y-5286242D01*
X+5854174Y-5296737D01*
X+5860202Y-5307232D01*
X+5869424Y-5317612D01*
X+5879919Y-5325300D01*
X+5890414Y-5330218D01*
X+5900909Y-5333024D01*
X+5911404Y-5333997D01*
X+5912000Y-5334000D01*
X+5975500Y-5270500D02*
X+5975283Y-5275747D01*
X+5973518Y-5286242D01*
X+5969826Y-5296737D01*
X+5963798Y-5307232D01*
X+5954576Y-5317612D01*
X+5944081Y-5325300D01*
X+5933586Y-5330218D01*
X+5923091Y-5333024D01*
X+5912596Y-5333997D01*
X+5912000Y-5334000D01*
X+5912000Y-5207000D02*
X+5912000Y-5334000D01*
X+5848500Y-5270500D02*
X+5975500Y-5270500D01*
X+6175500Y-5270500D02*
X+6175283Y-5265253D01*
X+6173518Y-5254758D01*
X+6169826Y-5244263D01*
X+6163798Y-5233768D01*
X+6154576Y-5223388D01*
X+6144081Y-5215700D01*
X+6133586Y-5210782D01*
X+6123091Y-5207976D01*
X+6112596Y-5207003D01*
X+6112000Y-5207000D01*
X+6048500Y-5270500D02*
X+6048717Y-5265253D01*
X+6050482Y-5254758D01*
X+6054174Y-5244263D01*
X+6060202Y-5233768D01*
X+6069424Y-5223388D01*
X+6079919Y-5215700D01*
X+6090414Y-5210782D01*
X+6100909Y-5207976D01*
X+6111404Y-5207003D01*
X+6112000Y-5207000D01*
X+6048500Y-5270500D02*
X+6048717Y-5275747D01*
X+6050482Y-5286242D01*
X+6054174Y-5296737D01*
X+6060202Y-5307232D01*
X+6069424Y-5317612D01*
X+6079919Y-5325300D01*
X+6090414Y-5330218D01*
X+6100909Y-5333024D01*
X+6111404Y-5333997D01*
X+6112000Y-5334000D01*
X+6175500Y-5270500D02*
X+6175283Y-5275747D01*
X+6173518Y-5286242D01*
X+6169826Y-5296737D01*
X+6163798Y-5307232D01*
X+6154576Y-5317612D01*
X+6144081Y-5325300D01*
X+6133586Y-5330218D01*
X+6123091Y-5333024D01*
X+6112596Y-5333997D01*
X+6112000Y-5334000D01*
X+6112000Y-5207000D02*
X+6112000Y-5334000D01*
X+6048500Y-5270500D02*
X+6175500Y-5270500D01*
X+6375500Y-5270500D02*
X+6375283Y-5265253D01*
X+6373518Y-5254758D01*
X+6369826Y-5244263D01*
X+6363798Y-5233768D01*
X+6354576Y-5223388D01*
X+6344081Y-5215700D01*
X+6333586Y-5210782D01*
X+6323091Y-5207976D01*
X+6312596Y-5207003D01*
X+6312000Y-5207000D01*
X+6248500Y-5270500D02*
X+6248717Y-5265253D01*
X+6250482Y-5254758D01*
X+6254174Y-5244263D01*
X+6260202Y-5233768D01*
X+6269424Y-5223388D01*
X+6279919Y-5215700D01*
X+6290414Y-5210782D01*
X+6300909Y-5207976D01*
X+6311404Y-5207003D01*
X+6312000Y-5207000D01*
X+6248500Y-5270500D02*
X+6248717Y-5275747D01*
X+6250482Y-5286242D01*
X+6254174Y-5296737D01*
X+6260202Y-5307232D01*
X+6269424Y-5317612D01*
X+6279919Y-5325300D01*
X+6290414Y-5330218D01*
X+6300909Y-5333024D01*
X+6311404Y-5333997D01*
X+6312000Y-5334000D01*
X+6375500Y-5270500D02*
X+6375283Y-5275747D01*
X+6373518Y-5286242D01*
X+6369826Y-5296737D01*
X+6363798Y-5307232D01*
X+6354576Y-5317612D01*
X+6344081Y-5325300D01*
X+6333586Y-5330218D01*
X+6323091Y-5333024D01*
X+6312596Y-5333997D01*
X+6312000Y-5334000D01*
X+6312000Y-5207000D02*
X+6312000Y-5334000D01*
X+6248500Y-5270500D02*
X+6375500Y-5270500D01*
X+6575500Y-5270500D02*
X+6575283Y-5265253D01*
X+6573518Y-5254758D01*
X+6569826Y-5244263D01*
X+6563798Y-5233768D01*
X+6554576Y-5223388D01*
X+6544081Y-5215700D01*
X+6533586Y-5210782D01*
X+6523091Y-5207976D01*
X+6512596Y-5207003D01*
X+6512000Y-5207000D01*
X+6448500Y-5270500D02*
X+6448717Y-5265253D01*
X+6450482Y-5254758D01*
X+6454174Y-5244263D01*
X+6460202Y-5233768D01*
X+6469424Y-5223388D01*
X+6479919Y-5215700D01*
X+6490414Y-5210782D01*
X+6500909Y-5207976D01*
X+6511404Y-5207003D01*
X+6512000Y-5207000D01*
X+6448500Y-5270500D02*
X+6448717Y-5275747D01*
X+6450482Y-5286242D01*
X+6454174Y-5296737D01*
X+6460202Y-5307232D01*
X+6469424Y-5317612D01*
X+6479919Y-5325300D01*
X+6490414Y-5330218D01*
X+6500909Y-5333024D01*
X+6511404Y-5333997D01*
X+6512000Y-5334000D01*
X+6575500Y-5270500D02*
X+6575283Y-5275747D01*
X+6573518Y-5286242D01*
X+6569826Y-5296737D01*
X+6563798Y-5307232D01*
X+6554576Y-5317612D01*
X+6544081Y-5325300D01*
X+6533586Y-5330218D01*
X+6523091Y-5333024D01*
X+6512596Y-5333997D01*
X+6512000Y-5334000D01*
X+6512000Y-5207000D02*
X+6512000Y-5334000D01*
X+6448500Y-5270500D02*
X+6575500Y-5270500D01*
X+6775500Y-5270500D02*
X+6775283Y-5265253D01*
X+6773518Y-5254758D01*
X+6769826Y-5244263D01*
X+6763798Y-5233768D01*
X+6754576Y-5223388D01*
X+6744081Y-5215700D01*
X+6733586Y-5210782D01*
X+6723091Y-5207976D01*
X+6712596Y-5207003D01*
X+6712000Y-5207000D01*
X+6648500Y-5270500D02*
X+6648717Y-5265253D01*
X+6650482Y-5254758D01*
X+6654174Y-5244263D01*
X+6660202Y-5233768D01*
X+6669424Y-5223388D01*
X+6679919Y-5215700D01*
X+6690414Y-5210782D01*
X+6700909Y-5207976D01*
X+6711404Y-5207003D01*
X+6712000Y-5207000D01*
X+6648500Y-5270500D02*
X+6648717Y-5275747D01*
X+6650482Y-5286242D01*
X+6654174Y-5296737D01*
X+6660202Y-5307232D01*
X+6669424Y-5317612D01*
X+6679919Y-5325300D01*
X+6690414Y-5330218D01*
X+6700909Y-5333024D01*
X+6711404Y-5333997D01*
X+6712000Y-5334000D01*
X+6775500Y-5270500D02*
X+6775283Y-5275747D01*
X+6773518Y-5286242D01*
X+6769826Y-5296737D01*
X+6763798Y-5307232D01*
X+6754576Y-5317612D01*
X+6744081Y-5325300D01*
X+6733586Y-5330218D01*
X+6723091Y-5333024D01*
X+6712596Y-5333997D01*
X+6712000Y-5334000D01*
X+6712000Y-5207000D02*
X+6712000Y-5334000D01*
X+6648500Y-5270500D02*
X+6775500Y-5270500D01*
X+1786485Y-6086392D02*
X+1786268Y-6081145D01*
X+1784503Y-6070650D01*
X+1780811Y-6060155D01*
X+1774783Y-6049660D01*
X+1765561Y-6039280D01*
X+1755066Y-6031592D01*
X+1744571Y-6026674D01*
X+1734076Y-6023868D01*
X+1723581Y-6022895D01*
X+1722985Y-6022892D01*
X+1659485Y-6086392D02*
X+1659702Y-6081145D01*
X+1661467Y-6070650D01*
X+1665159Y-6060155D01*
X+1671187Y-6049660D01*
X+1680409Y-6039280D01*
X+1690904Y-6031592D01*
X+1701399Y-6026674D01*
X+1711894Y-6023868D01*
X+1722389Y-6022895D01*
X+1722985Y-6022892D01*
X+1659485Y-6086392D02*
X+1659702Y-6091639D01*
X+1661467Y-6102134D01*
X+1665159Y-6112629D01*
X+1671187Y-6123124D01*
X+1680409Y-6133504D01*
X+1690904Y-6141192D01*
X+1701399Y-6146110D01*
X+1711894Y-6148916D01*
X+1722389Y-6149889D01*
X+1722985Y-6149892D01*
X+1786485Y-6086392D02*
X+1786268Y-6091639D01*
X+1784503Y-6102134D01*
X+1780811Y-6112629D01*
X+1774783Y-6123124D01*
X+1765561Y-6133504D01*
X+1755066Y-6141192D01*
X+1744571Y-6146110D01*
X+1734076Y-6148916D01*
X+1723581Y-6149889D01*
X+1722985Y-6149892D01*
X+1722985Y-6022892D02*
X+1722985Y-6149892D01*
X+1659485Y-6086392D02*
X+1786485Y-6086392D01*
X+1586485Y-6086392D02*
X+1586268Y-6081145D01*
X+1584503Y-6070650D01*
X+1580811Y-6060155D01*
X+1574783Y-6049660D01*
X+1565561Y-6039280D01*
X+1555066Y-6031592D01*
X+1544571Y-6026674D01*
X+1534076Y-6023868D01*
X+1523581Y-6022895D01*
X+1522985Y-6022892D01*
X+1459485Y-6086392D02*
X+1459702Y-6081145D01*
X+1461467Y-6070650D01*
X+1465159Y-6060155D01*
X+1471187Y-6049660D01*
X+1480409Y-6039280D01*
X+1490904Y-6031592D01*
X+1501399Y-6026674D01*
X+1511894Y-6023868D01*
X+1522389Y-6022895D01*
X+1522985Y-6022892D01*
X+1459485Y-6086392D02*
X+1459702Y-6091639D01*
X+1461467Y-6102134D01*
X+1465159Y-6112629D01*
X+1471187Y-6123124D01*
X+1480409Y-6133504D01*
X+1490904Y-6141192D01*
X+1501399Y-6146110D01*
X+1511894Y-6148916D01*
X+1522389Y-6149889D01*
X+1522985Y-6149892D01*
X+1586485Y-6086392D02*
X+1586268Y-6091639D01*
X+1584503Y-6102134D01*
X+1580811Y-6112629D01*
X+1574783Y-6123124D01*
X+1565561Y-6133504D01*
X+1555066Y-6141192D01*
X+1544571Y-6146110D01*
X+1534076Y-6148916D01*
X+1523581Y-6149889D01*
X+1522985Y-6149892D01*
X+1522985Y-6022892D02*
X+1522985Y-6149892D01*
X+1459485Y-6086392D02*
X+1586485Y-6086392D01*
X+1386485Y-6086392D02*
X+1386268Y-6081145D01*
X+1384503Y-6070650D01*
X+1380811Y-6060155D01*
X+1374783Y-6049660D01*
X+1365561Y-6039280D01*
X+1355066Y-6031592D01*
X+1344571Y-6026674D01*
X+1334076Y-6023868D01*
X+1323581Y-6022895D01*
X+1322985Y-6022892D01*
X+1259485Y-6086392D02*
X+1259702Y-6081145D01*
X+1261467Y-6070650D01*
X+1265159Y-6060155D01*
X+1271187Y-6049660D01*
X+1280409Y-6039280D01*
X+1290904Y-6031592D01*
X+1301399Y-6026674D01*
X+1311894Y-6023868D01*
X+1322389Y-6022895D01*
X+1322985Y-6022892D01*
X+1259485Y-6086392D02*
X+1259702Y-6091639D01*
X+1261467Y-6102134D01*
X+1265159Y-6112629D01*
X+1271187Y-6123124D01*
X+1280409Y-6133504D01*
X+1290904Y-6141192D01*
X+1301399Y-6146110D01*
X+1311894Y-6148916D01*
X+1322389Y-6149889D01*
X+1322985Y-6149892D01*
X+1386485Y-6086392D02*
X+1386268Y-6091639D01*
X+1384503Y-6102134D01*
X+1380811Y-6112629D01*
X+1374783Y-6123124D01*
X+1365561Y-6133504D01*
X+1355066Y-6141192D01*
X+1344571Y-6146110D01*
X+1334076Y-6148916D01*
X+1323581Y-6149889D01*
X+1322985Y-6149892D01*
X+1322985Y-6022892D02*
X+1322985Y-6149892D01*
X+1259485Y-6086392D02*
X+1386485Y-6086392D01*
X+548799Y-2088699D02*
X+638601Y-2178501D01*
X+548799Y-2178501D02*
X+638601Y-2088699D01*
X+548799Y-2288699D02*
X+638601Y-2378501D01*
X+548799Y-2378501D02*
X+638601Y-2288699D01*
X+348799Y-2088699D02*
X+438601Y-2178501D01*
X+348799Y-2178501D02*
X+438601Y-2088699D01*
X+348799Y-2288699D02*
X+438601Y-2378501D01*
X+348799Y-2378501D02*
X+438601Y-2288699D01*
X+148799Y-2088699D02*
X+238601Y-2178501D01*
X+148799Y-2178501D02*
X+238601Y-2088699D01*
X+148799Y-2288699D02*
X+238601Y-2378501D01*
X+148799Y-2378501D02*
X+238601Y-2288699D01*
X-51201Y-2088699D02*
X+38601Y-2178501D01*
X-51201Y-2178501D02*
X+38601Y-2088699D01*
X-51201Y-2288699D02*
X+38601Y-2378501D01*
X-51201Y-2378501D02*
X+38601Y-2288699D01*
X-251201Y-2088699D02*
X-161399Y-2178501D01*
X-251201Y-2178501D02*
X-161399Y-2088699D01*
X-251201Y-2288699D02*
X-161399Y-2378501D01*
X-251201Y-2378501D02*
X-161399Y-2288699D01*
X-451201Y-2088699D02*
X-361399Y-2178501D01*
X-451201Y-2178501D02*
X-361399Y-2088699D01*
X-451201Y-2288699D02*
X-361399Y-2378501D01*
X-451201Y-2378501D02*
X-361399Y-2288699D01*
X-651201Y-2088699D02*
X-561399Y-2178501D01*
X-651201Y-2178501D02*
X-561399Y-2088699D01*
X-651201Y-2288699D02*
X-561399Y-2378501D01*
X-651201Y-2378501D02*
X-561399Y-2288699D01*
X-660400Y-4457700D02*
X-660617Y-4452453D01*
X-662382Y-4441958D01*
X-666074Y-4431463D01*
X-672102Y-4420968D01*
X-681324Y-4410588D01*
X-691819Y-4402900D01*
X-702314Y-4397982D01*
X-712809Y-4395176D01*
X-723304Y-4394203D01*
X-723900Y-4394200D01*
X-787400Y-4457700D02*
X-787183Y-4452453D01*
X-785418Y-4441958D01*
X-781726Y-4431463D01*
X-775698Y-4420968D01*
X-766476Y-4410588D01*
X-755981Y-4402900D01*
X-745486Y-4397982D01*
X-734991Y-4395176D01*
X-724496Y-4394203D01*
X-723900Y-4394200D01*
X-787400Y-4457700D02*
X-787183Y-4462947D01*
X-785418Y-4473442D01*
X-781726Y-4483937D01*
X-775698Y-4494432D01*
X-766476Y-4504812D01*
X-755981Y-4512500D01*
X-745486Y-4517418D01*
X-734991Y-4520224D01*
X-724496Y-4521197D01*
X-723900Y-4521200D01*
X-660400Y-4457700D02*
X-660617Y-4462947D01*
X-662382Y-4473442D01*
X-666074Y-4483937D01*
X-672102Y-4494432D01*
X-681324Y-4504812D01*
X-691819Y-4512500D01*
X-702314Y-4517418D01*
X-712809Y-4520224D01*
X-723304Y-4521197D01*
X-723900Y-4521200D01*
X-723900Y-4394200D02*
X-723900Y-4521200D01*
X-787400Y-4457700D02*
X-660400Y-4457700D01*
X-460400Y-4457700D02*
X-460617Y-4452453D01*
X-462382Y-4441958D01*
X-466074Y-4431463D01*
X-472102Y-4420968D01*
X-481324Y-4410588D01*
X-491819Y-4402900D01*
X-502314Y-4397982D01*
X-512809Y-4395176D01*
X-523304Y-4394203D01*
X-523900Y-4394200D01*
X-587400Y-4457700D02*
X-587183Y-4452453D01*
X-585418Y-4441958D01*
X-581726Y-4431463D01*
X-575698Y-4420968D01*
X-566476Y-4410588D01*
X-555981Y-4402900D01*
X-545486Y-4397982D01*
X-534991Y-4395176D01*
X-524496Y-4394203D01*
X-523900Y-4394200D01*
X-587400Y-4457700D02*
X-587183Y-4462947D01*
X-585418Y-4473442D01*
X-581726Y-4483937D01*
X-575698Y-4494432D01*
X-566476Y-4504812D01*
X-555981Y-4512500D01*
X-545486Y-4517418D01*
X-534991Y-4520224D01*
X-524496Y-4521197D01*
X-523900Y-4521200D01*
X-460400Y-4457700D02*
X-460617Y-4462947D01*
X-462382Y-4473442D01*
X-466074Y-4483937D01*
X-472102Y-4494432D01*
X-481324Y-4504812D01*
X-491819Y-4512500D01*
X-502314Y-4517418D01*
X-512809Y-4520224D01*
X-523304Y-4521197D01*
X-523900Y-4521200D01*
X-523900Y-4394200D02*
X-523900Y-4521200D01*
X-587400Y-4457700D02*
X-460400Y-4457700D01*
X-260400Y-4457700D02*
X-260617Y-4452453D01*
X-262382Y-4441958D01*
X-266074Y-4431463D01*
X-272102Y-4420968D01*
X-281324Y-4410588D01*
X-291819Y-4402900D01*
X-302314Y-4397982D01*
X-312809Y-4395176D01*
X-323304Y-4394203D01*
X-323900Y-4394200D01*
X-387400Y-4457700D02*
X-387183Y-4452453D01*
X-385418Y-4441958D01*
X-381726Y-4431463D01*
X-375698Y-4420968D01*
X-366476Y-4410588D01*
X-355981Y-4402900D01*
X-345486Y-4397982D01*
X-334991Y-4395176D01*
X-324496Y-4394203D01*
X-323900Y-4394200D01*
X-387400Y-4457700D02*
X-387183Y-4462947D01*
X-385418Y-4473442D01*
X-381726Y-4483937D01*
X-375698Y-4494432D01*
X-366476Y-4504812D01*
X-355981Y-4512500D01*
X-345486Y-4517418D01*
X-334991Y-4520224D01*
X-324496Y-4521197D01*
X-323900Y-4521200D01*
X-260400Y-4457700D02*
X-260617Y-4462947D01*
X-262382Y-4473442D01*
X-266074Y-4483937D01*
X-272102Y-4494432D01*
X-281324Y-4504812D01*
X-291819Y-4512500D01*
X-302314Y-4517418D01*
X-312809Y-4520224D01*
X-323304Y-4521197D01*
X-323900Y-4521200D01*
X-323900Y-4394200D02*
X-323900Y-4521200D01*
X-387400Y-4457700D02*
X-260400Y-4457700D01*
X-60400Y-4457700D02*
X-60617Y-4452453D01*
X-62382Y-4441958D01*
X-66074Y-4431463D01*
X-72102Y-4420968D01*
X-81324Y-4410588D01*
X-91819Y-4402900D01*
X-102314Y-4397982D01*
X-112809Y-4395176D01*
X-123304Y-4394203D01*
X-123900Y-4394200D01*
X-187400Y-4457700D02*
X-187183Y-4452453D01*
X-185418Y-4441958D01*
X-181726Y-4431463D01*
X-175698Y-4420968D01*
X-166476Y-4410588D01*
X-155981Y-4402900D01*
X-145486Y-4397982D01*
X-134991Y-4395176D01*
X-124496Y-4394203D01*
X-123900Y-4394200D01*
X-187400Y-4457700D02*
X-187183Y-4462947D01*
X-185418Y-4473442D01*
X-181726Y-4483937D01*
X-175698Y-4494432D01*
X-166476Y-4504812D01*
X-155981Y-4512500D01*
X-145486Y-4517418D01*
X-134991Y-4520224D01*
X-124496Y-4521197D01*
X-123900Y-4521200D01*
X-60400Y-4457700D02*
X-60617Y-4462947D01*
X-62382Y-4473442D01*
X-66074Y-4483937D01*
X-72102Y-4494432D01*
X-81324Y-4504812D01*
X-91819Y-4512500D01*
X-102314Y-4517418D01*
X-112809Y-4520224D01*
X-123304Y-4521197D01*
X-123900Y-4521200D01*
X-123900Y-4394200D02*
X-123900Y-4521200D01*
X-187400Y-4457700D02*
X-60400Y-4457700D01*
X-660400Y-4914900D02*
X-660617Y-4909653D01*
X-662382Y-4899158D01*
X-666074Y-4888663D01*
X-672102Y-4878168D01*
X-681324Y-4867788D01*
X-691819Y-4860100D01*
X-702314Y-4855182D01*
X-712809Y-4852376D01*
X-723304Y-4851403D01*
X-723900Y-4851400D01*
X-787400Y-4914900D02*
X-787183Y-4909653D01*
X-785418Y-4899158D01*
X-781726Y-4888663D01*
X-775698Y-4878168D01*
X-766476Y-4867788D01*
X-755981Y-4860100D01*
X-745486Y-4855182D01*
X-734991Y-4852376D01*
X-724496Y-4851403D01*
X-723900Y-4851400D01*
X-787400Y-4914900D02*
X-787183Y-4920147D01*
X-785418Y-4930642D01*
X-781726Y-4941137D01*
X-775698Y-4951632D01*
X-766476Y-4962012D01*
X-755981Y-4969700D01*
X-745486Y-4974618D01*
X-734991Y-4977424D01*
X-724496Y-4978397D01*
X-723900Y-4978400D01*
X-660400Y-4914900D02*
X-660617Y-4920147D01*
X-662382Y-4930642D01*
X-666074Y-4941137D01*
X-672102Y-4951632D01*
X-681324Y-4962012D01*
X-691819Y-4969700D01*
X-702314Y-4974618D01*
X-712809Y-4977424D01*
X-723304Y-4978397D01*
X-723900Y-4978400D01*
X-723900Y-4851400D02*
X-723900Y-4978400D01*
X-787400Y-4914900D02*
X-660400Y-4914900D01*
X-460400Y-4914900D02*
X-460617Y-4909653D01*
X-462382Y-4899158D01*
X-466074Y-4888663D01*
X-472102Y-4878168D01*
X-481324Y-4867788D01*
X-491819Y-4860100D01*
X-502314Y-4855182D01*
X-512809Y-4852376D01*
X-523304Y-4851403D01*
X-523900Y-4851400D01*
X-587400Y-4914900D02*
X-587183Y-4909653D01*
X-585418Y-4899158D01*
X-581726Y-4888663D01*
X-575698Y-4878168D01*
X-566476Y-4867788D01*
X-555981Y-4860100D01*
X-545486Y-4855182D01*
X-534991Y-4852376D01*
X-524496Y-4851403D01*
X-523900Y-4851400D01*
X-587400Y-4914900D02*
X-587183Y-4920147D01*
X-585418Y-4930642D01*
X-581726Y-4941137D01*
X-575698Y-4951632D01*
X-566476Y-4962012D01*
X-555981Y-4969700D01*
X-545486Y-4974618D01*
X-534991Y-4977424D01*
X-524496Y-4978397D01*
X-523900Y-4978400D01*
X-460400Y-4914900D02*
X-460617Y-4920147D01*
X-462382Y-4930642D01*
X-466074Y-4941137D01*
X-472102Y-4951632D01*
X-481324Y-4962012D01*
X-491819Y-4969700D01*
X-502314Y-4974618D01*
X-512809Y-4977424D01*
X-523304Y-4978397D01*
X-523900Y-4978400D01*
X-523900Y-4851400D02*
X-523900Y-4978400D01*
X-587400Y-4914900D02*
X-460400Y-4914900D01*
X-260400Y-4914900D02*
X-260617Y-4909653D01*
X-262382Y-4899158D01*
X-266074Y-4888663D01*
X-272102Y-4878168D01*
X-281324Y-4867788D01*
X-291819Y-4860100D01*
X-302314Y-4855182D01*
X-312809Y-4852376D01*
X-323304Y-4851403D01*
X-323900Y-4851400D01*
X-387400Y-4914900D02*
X-387183Y-4909653D01*
X-385418Y-4899158D01*
X-381726Y-4888663D01*
X-375698Y-4878168D01*
X-366476Y-4867788D01*
X-355981Y-4860100D01*
X-345486Y-4855182D01*
X-334991Y-4852376D01*
X-324496Y-4851403D01*
X-323900Y-4851400D01*
X-387400Y-4914900D02*
X-387183Y-4920147D01*
X-385418Y-4930642D01*
X-381726Y-4941137D01*
X-375698Y-4951632D01*
X-366476Y-4962012D01*
X-355981Y-4969700D01*
X-345486Y-4974618D01*
X-334991Y-4977424D01*
X-324496Y-4978397D01*
X-323900Y-4978400D01*
X-260400Y-4914900D02*
X-260617Y-4920147D01*
X-262382Y-4930642D01*
X-266074Y-4941137D01*
X-272102Y-4951632D01*
X-281324Y-4962012D01*
X-291819Y-4969700D01*
X-302314Y-4974618D01*
X-312809Y-4977424D01*
X-323304Y-4978397D01*
X-323900Y-4978400D01*
X-323900Y-4851400D02*
X-323900Y-4978400D01*
X-387400Y-4914900D02*
X-260400Y-4914900D01*
X-60400Y-4914900D02*
X-60617Y-4909653D01*
X-62382Y-4899158D01*
X-66074Y-4888663D01*
X-72102Y-4878168D01*
X-81324Y-4867788D01*
X-91819Y-4860100D01*
X-102314Y-4855182D01*
X-112809Y-4852376D01*
X-123304Y-4851403D01*
X-123900Y-4851400D01*
X-187400Y-4914900D02*
X-187183Y-4909653D01*
X-185418Y-4899158D01*
X-181726Y-4888663D01*
X-175698Y-4878168D01*
X-166476Y-4867788D01*
X-155981Y-4860100D01*
X-145486Y-4855182D01*
X-134991Y-4852376D01*
X-124496Y-4851403D01*
X-123900Y-4851400D01*
X-187400Y-4914900D02*
X-187183Y-4920147D01*
X-185418Y-4930642D01*
X-181726Y-4941137D01*
X-175698Y-4951632D01*
X-166476Y-4962012D01*
X-155981Y-4969700D01*
X-145486Y-4974618D01*
X-134991Y-4977424D01*
X-124496Y-4978397D01*
X-123900Y-4978400D01*
X-60400Y-4914900D02*
X-60617Y-4920147D01*
X-62382Y-4930642D01*
X-66074Y-4941137D01*
X-72102Y-4951632D01*
X-81324Y-4962012D01*
X-91819Y-4969700D01*
X-102314Y-4974618D01*
X-112809Y-4977424D01*
X-123304Y-4978397D01*
X-123900Y-4978400D01*
X-123900Y-4851400D02*
X-123900Y-4978400D01*
X-187400Y-4914900D02*
X-60400Y-4914900D01*
X+8501500Y-1654600D02*
X+8501500Y-1781600D01*
X+8438000Y-1718100D02*
X+8565000Y-1718100D01*
X+8456599Y-1673199D02*
X+8546401Y-1763001D01*
X+8456599Y-1763001D02*
X+8546401Y-1673199D01*
X+9151500Y-1654600D02*
X+9151500Y-1781600D01*
X+9088000Y-1718100D02*
X+9215000Y-1718100D01*
X+9106599Y-1673199D02*
X+9196401Y-1763001D01*
X+9106599Y-1763001D02*
X+9196401Y-1673199D01*
X+8501500Y-2104600D02*
X+8501500Y-2231600D01*
X+8438000Y-2168100D02*
X+8565000Y-2168100D01*
X+8456599Y-2123199D02*
X+8546401Y-2213001D01*
X+8456599Y-2213001D02*
X+8546401Y-2123199D01*
X+9151500Y-2104600D02*
X+9151500Y-2231600D01*
X+9088000Y-2168100D02*
X+9215000Y-2168100D01*
X+9106599Y-2123199D02*
X+9196401Y-2213001D01*
X+9106599Y-2213001D02*
X+9196401Y-2123199D01*
X-1079500Y-6413500D02*
X+9715500Y-6413500D01*
X+9715500Y-1016000D01*
X-1079500Y-1016000D01*
X-1079500Y-6413500D01*
D77*
X-1092200Y-8166100D02*
X+1551940Y-8166100D01*
X+1551940Y-6680200D01*
X-1092200Y-6680200D01*
X-1092200Y-8166100D01*
D80*
X-624838Y-6680200D02*
X-624838Y-8166100D01*
X+187962Y-6680200D02*
X+187962Y-8166100D01*
X+1021082Y-6680200D02*
X+1021082Y-8166100D01*
X-1092200Y-6953250D02*
X+1551940Y-6953250D01*
X-1092200Y-7194550D02*
X+1551940Y-7194550D01*
X-1092200Y-7435850D02*
X+1551940Y-7435850D01*
X-1092200Y-7677150D02*
X+1551940Y-7677150D01*
X-1092200Y-7918450D02*
X+1551940Y-7918450D01*
D77*
X-1035050Y-6844030D02*
X-1019810Y-6859270D01*
X-958850Y-6859270D01*
X-943610Y-6844030D01*
X-943610Y-6828790D01*
X-958850Y-6813550D01*
X-1019810Y-6813550D01*
X-1035050Y-6798310D01*
X-1035050Y-6783070D01*
X-1019810Y-6767830D01*
X-958850Y-6767830D01*
X-943610Y-6783070D01*
X-821690Y-6767830D02*
X-913130Y-6859270D01*
X-913130Y-6767830D02*
X-867410Y-6813550D01*
X-791210Y-6859270D02*
X-791210Y-6767830D01*
X-745490Y-6813550D01*
X-699770Y-6767830D01*
X-699770Y-6859270D01*
X-567690Y-6844030D02*
X-552450Y-6859270D01*
X-491490Y-6859270D01*
X-476250Y-6844030D01*
X-476250Y-6828790D01*
X-491490Y-6813550D01*
X-552450Y-6813550D01*
X-567690Y-6798310D01*
X-567690Y-6783070D01*
X-552450Y-6767830D01*
X-491490Y-6767830D01*
X-476250Y-6783070D01*
X-430530Y-6767830D02*
X-369570Y-6767830D01*
X-400050Y-6767830D02*
X-400050Y-6859270D01*
X-430530Y-6859270D02*
X-369570Y-6859270D01*
X-323850Y-6767830D02*
X-232410Y-6767830D01*
X-323850Y-6859270D01*
X-232410Y-6859270D01*
X-110490Y-6859270D02*
X-201930Y-6859270D01*
X-201930Y-6767830D01*
X-110490Y-6767830D01*
X-201930Y-6813550D02*
X-140970Y-6813550D01*
X+245110Y-6859270D02*
X+245110Y-6767830D01*
X+321310Y-6767830D01*
X+336550Y-6783070D01*
X+336550Y-6798310D01*
X+321310Y-6813550D01*
X+245110Y-6813550D01*
X+367030Y-6767830D02*
X+367030Y-6859270D01*
X+458470Y-6859270D01*
X+488950Y-6859270D02*
X+488950Y-6798310D01*
X+519430Y-6767830D01*
X+549910Y-6767830D01*
X+580390Y-6798310D01*
X+580390Y-6859270D01*
X+488950Y-6828790D02*
X+580390Y-6828790D01*
X+610870Y-6767830D02*
X+702310Y-6767830D01*
X+656590Y-6767830D02*
X+656590Y-6859270D01*
X+824230Y-6859270D02*
X+732790Y-6859270D01*
X+732790Y-6767830D01*
X+824230Y-6767830D01*
X+732790Y-6813550D02*
X+793750Y-6813550D01*
X+854710Y-6859270D02*
X+854710Y-6767830D01*
X+915670Y-6767830D01*
X+946150Y-6798310D01*
X+946150Y-6828790D01*
X+915670Y-6859270D01*
X+854710Y-6859270D01*
X+1078230Y-6798310D02*
X+1108710Y-6767830D01*
X+1139190Y-6767830D01*
X+1169670Y-6798310D01*
X+1169670Y-6828790D01*
X+1139190Y-6859270D01*
X+1108710Y-6859270D01*
X+1078230Y-6828790D01*
X+1078230Y-6798310D01*
X+1139190Y-6828790D02*
X+1169670Y-6859270D01*
X+1200150Y-6767830D02*
X+1291590Y-6767830D01*
X+1245870Y-6767830D02*
X+1245870Y-6859270D01*
X+1413510Y-6767830D02*
X+1322070Y-6859270D01*
X+1322070Y-6767830D02*
X+1367790Y-6813550D01*
D28*
X-845820Y-7004050D02*
X-845820Y-7131050D01*
X-909320Y-7067550D02*
X-782320Y-7067550D01*
D77*
X-548640Y-7092950D02*
X-548640Y-7042150D01*
X-535940Y-7029450D01*
X-485140Y-7029450D01*
X-472440Y-7042150D01*
X-472440Y-7092950D01*
X-485140Y-7105650D01*
X-535940Y-7105650D01*
X-548640Y-7092950D01*
X-548640Y-7105650D02*
X-472440Y-7029450D01*
X-408940Y-7092950D02*
X-396240Y-7092950D01*
X-396240Y-7105650D01*
X-408940Y-7105650D01*
X-408940Y-7092950D01*
X-332740Y-7042150D02*
X-320040Y-7029450D01*
X-281940Y-7029450D01*
X-269240Y-7042150D01*
X-269240Y-7054850D01*
X-281940Y-7067550D01*
X-269240Y-7080250D01*
X-269240Y-7092950D01*
X-281940Y-7105650D01*
X-320040Y-7105650D01*
X-332740Y-7092950D01*
X-307340Y-7067550D02*
X-281940Y-7067550D01*
X-218440Y-7067550D02*
X-231140Y-7054850D01*
X-231140Y-7042150D01*
X-218440Y-7029450D01*
X-180340Y-7029450D01*
X-167640Y-7042150D01*
X-167640Y-7054850D01*
X-180340Y-7067550D01*
X-218440Y-7067550D01*
X-231140Y-7080250D01*
X-231140Y-7092950D01*
X-218440Y-7105650D01*
X-180340Y-7105650D01*
X-167640Y-7092950D01*
X-167640Y-7080250D01*
X-180340Y-7067550D01*
X-116840Y-7054850D02*
X-91440Y-7029450D01*
X-91440Y-7105650D01*
X-40640Y-7105650D02*
X-40640Y-7054850D01*
X-40640Y-7067550D02*
X-27940Y-7054850D01*
X-2540Y-7080250D01*
X+22860Y-7054850D01*
X+35560Y-7067550D01*
X+35560Y-7105650D01*
X+60960Y-7105650D02*
X+60960Y-7054850D01*
X+60960Y-7067550D02*
X+73660Y-7054850D01*
X+99060Y-7080250D01*
X+124460Y-7054850D01*
X+137160Y-7067550D01*
X+137160Y-7105650D01*
X+353060Y-7029450D02*
X+276860Y-7105650D01*
X+276860Y-7029450D02*
X+314960Y-7067550D01*
X+454660Y-7105650D02*
X+378460Y-7105650D01*
X+378460Y-7029450D01*
X+454660Y-7029450D01*
X+378460Y-7067550D02*
X+429260Y-7067550D01*
X+480060Y-7092950D02*
X+492760Y-7105650D01*
X+543560Y-7105650D01*
X+556260Y-7092950D01*
X+556260Y-7080250D01*
X+543560Y-7067550D01*
X+492760Y-7067550D01*
X+480060Y-7054850D01*
X+480060Y-7042150D01*
X+492760Y-7029450D01*
X+543560Y-7029450D01*
X+556260Y-7042150D01*
X+1198880Y-7042150D02*
X+1186180Y-7029450D01*
X+1148080Y-7029450D01*
X+1135380Y-7042150D01*
X+1135380Y-7092950D01*
X+1148080Y-7105650D01*
X+1186180Y-7105650D01*
X+1198880Y-7092950D01*
X+1198880Y-7080250D01*
X+1186180Y-7067550D01*
X+1135380Y-7067550D01*
X+1224280Y-7092950D02*
X+1224280Y-7042150D01*
X+1236980Y-7029450D01*
X+1287780Y-7029450D01*
X+1300480Y-7042150D01*
X+1300480Y-7092950D01*
X+1287780Y-7105650D01*
X+1236980Y-7105650D01*
X+1224280Y-7092950D01*
X+1224280Y-7105650D02*
X+1300480Y-7029450D01*
D28*
X-890721Y-7263949D02*
X-800919Y-7353751D01*
X-890721Y-7353751D02*
X-800919Y-7263949D01*
D77*
X-548640Y-7334250D02*
X-548640Y-7283450D01*
X-535940Y-7270750D01*
X-485140Y-7270750D01*
X-472440Y-7283450D01*
X-472440Y-7334250D01*
X-485140Y-7346950D01*
X-535940Y-7346950D01*
X-548640Y-7334250D01*
X-548640Y-7346950D02*
X-472440Y-7270750D01*
X-408940Y-7334250D02*
X-396240Y-7334250D01*
X-396240Y-7346950D01*
X-408940Y-7346950D01*
X-408940Y-7334250D01*
X-332740Y-7270750D02*
X-269240Y-7270750D01*
X-269240Y-7283450D01*
X-332740Y-7346950D01*
X-167640Y-7283450D02*
X-180340Y-7270750D01*
X-218440Y-7270750D01*
X-231140Y-7283450D01*
X-231140Y-7334250D01*
X-218440Y-7346950D01*
X-180340Y-7346950D01*
X-167640Y-7334250D01*
X-167640Y-7321550D01*
X-180340Y-7308850D01*
X-231140Y-7308850D01*
X-129540Y-7283450D02*
X-116840Y-7270750D01*
X-78740Y-7270750D01*
X-66040Y-7283450D01*
X-66040Y-7296150D01*
X-78740Y-7308850D01*
X-116840Y-7308850D01*
X-129540Y-7321550D01*
X-129540Y-7346950D01*
X-66040Y-7346950D01*
X-40640Y-7346950D02*
X-40640Y-7296150D01*
X-40640Y-7308850D02*
X-27940Y-7296150D01*
X-2540Y-7321550D01*
X+22860Y-7296150D01*
X+35560Y-7308850D01*
X+35560Y-7346950D01*
X+60960Y-7346950D02*
X+60960Y-7296150D01*
X+60960Y-7308850D02*
X+73660Y-7296150D01*
X+99060Y-7321550D01*
X+124460Y-7296150D01*
X+137160Y-7308850D01*
X+137160Y-7346950D01*
X+353060Y-7270750D02*
X+276860Y-7346950D01*
X+276860Y-7270750D02*
X+314960Y-7308850D01*
X+454660Y-7346950D02*
X+378460Y-7346950D01*
X+378460Y-7270750D01*
X+454660Y-7270750D01*
X+378460Y-7308850D02*
X+429260Y-7308850D01*
X+480060Y-7334250D02*
X+492760Y-7346950D01*
X+543560Y-7346950D01*
X+556260Y-7334250D01*
X+556260Y-7321550D01*
X+543560Y-7308850D01*
X+492760Y-7308850D01*
X+480060Y-7296150D01*
X+480060Y-7283450D01*
X+492760Y-7270750D01*
X+543560Y-7270750D01*
X+556260Y-7283450D01*
X+1148080Y-7296150D02*
X+1173480Y-7270750D01*
X+1173480Y-7346950D01*
X+1300480Y-7321550D02*
X+1224280Y-7321550D01*
X+1275080Y-7270750D01*
X+1275080Y-7346950D01*
D28*
X-845820Y-7486650D02*
X-845820Y-7613650D01*
X-909320Y-7550150D02*
X-782320Y-7550150D01*
X-890721Y-7505249D02*
X-800919Y-7595051D01*
X-890721Y-7595051D02*
X-800919Y-7505249D01*
D77*
X-523240Y-7537450D02*
X-497840Y-7512050D01*
X-497840Y-7588250D01*
X-408940Y-7575550D02*
X-396240Y-7575550D01*
X-396240Y-7588250D01*
X-408940Y-7588250D01*
X-408940Y-7575550D01*
X-345440Y-7575550D02*
X-345440Y-7524750D01*
X-332740Y-7512050D01*
X-281940Y-7512050D01*
X-269240Y-7524750D01*
X-269240Y-7575550D01*
X-281940Y-7588250D01*
X-332740Y-7588250D01*
X-345440Y-7575550D01*
X-345440Y-7588250D02*
X-269240Y-7512050D01*
X-218440Y-7537450D02*
X-193040Y-7512050D01*
X-193040Y-7588250D01*
X-66040Y-7524750D02*
X-78740Y-7512050D01*
X-116840Y-7512050D01*
X-129540Y-7524750D01*
X-129540Y-7575550D01*
X-116840Y-7588250D01*
X-78740Y-7588250D01*
X-66040Y-7575550D01*
X-66040Y-7562850D01*
X-78740Y-7550150D01*
X-129540Y-7550150D01*
X-40640Y-7588250D02*
X-40640Y-7537450D01*
X-40640Y-7550150D02*
X-27940Y-7537450D01*
X-2540Y-7562850D01*
X+22860Y-7537450D01*
X+35560Y-7550150D01*
X+35560Y-7588250D01*
X+60960Y-7588250D02*
X+60960Y-7537450D01*
X+60960Y-7550150D02*
X+73660Y-7537450D01*
X+99060Y-7562850D01*
X+124460Y-7537450D01*
X+137160Y-7550150D01*
X+137160Y-7588250D01*
X+353060Y-7512050D02*
X+276860Y-7588250D01*
X+276860Y-7512050D02*
X+314960Y-7550150D01*
X+454660Y-7588250D02*
X+378460Y-7588250D01*
X+378460Y-7512050D01*
X+454660Y-7512050D01*
X+378460Y-7550150D02*
X+429260Y-7550150D01*
X+480060Y-7575550D02*
X+492760Y-7588250D01*
X+543560Y-7588250D01*
X+556260Y-7575550D01*
X+556260Y-7562850D01*
X+543560Y-7550150D01*
X+492760Y-7550150D01*
X+480060Y-7537450D01*
X+480060Y-7524750D01*
X+492760Y-7512050D01*
X+543560Y-7512050D01*
X+556260Y-7524750D01*
X+1198880Y-7562850D02*
X+1122680Y-7562850D01*
X+1173480Y-7512050D01*
X+1173480Y-7588250D01*
D28*
X-782320Y-7791450D02*
X-782537Y-7786203D01*
X-784302Y-7775708D01*
X-787994Y-7765213D01*
X-794022Y-7754718D01*
X-803244Y-7744338D01*
X-813739Y-7736650D01*
X-824234Y-7731732D01*
X-834729Y-7728926D01*
X-845224Y-7727953D01*
X-845820Y-7727950D01*
X-909320Y-7791450D02*
X-909103Y-7786203D01*
X-907338Y-7775708D01*
X-903646Y-7765213D01*
X-897618Y-7754718D01*
X-888396Y-7744338D01*
X-877901Y-7736650D01*
X-867406Y-7731732D01*
X-856911Y-7728926D01*
X-846416Y-7727953D01*
X-845820Y-7727950D01*
X-909320Y-7791450D02*
X-909103Y-7796697D01*
X-907338Y-7807192D01*
X-903646Y-7817687D01*
X-897618Y-7828182D01*
X-888396Y-7838562D01*
X-877901Y-7846250D01*
X-867406Y-7851168D01*
X-856911Y-7853974D01*
X-846416Y-7854947D01*
X-845820Y-7854950D01*
X-782320Y-7791450D02*
X-782537Y-7796697D01*
X-784302Y-7807192D01*
X-787994Y-7817687D01*
X-794022Y-7828182D01*
X-803244Y-7838562D01*
X-813739Y-7846250D01*
X-824234Y-7851168D01*
X-834729Y-7853974D01*
X-845224Y-7854947D01*
X-845820Y-7854950D01*
X-845820Y-7727950D02*
X-845820Y-7854950D01*
X-909320Y-7791450D02*
X-782320Y-7791450D01*
D77*
X-523240Y-7778750D02*
X-497840Y-7753350D01*
X-497840Y-7829550D01*
X-447040Y-7829550D02*
X-447040Y-7778750D01*
X-447040Y-7791450D02*
X-434340Y-7778750D01*
X-408940Y-7804150D01*
X-383540Y-7778750D01*
X-370840Y-7791450D01*
X-370840Y-7829550D01*
X-345440Y-7829550D02*
X-345440Y-7778750D01*
X-345440Y-7791450D02*
X-332740Y-7778750D01*
X-307340Y-7804150D01*
X-281940Y-7778750D01*
X-269240Y-7791450D01*
X-269240Y-7829550D01*
X+353060Y-7753350D02*
X+276860Y-7829550D01*
X+276860Y-7753350D02*
X+314960Y-7791450D01*
X+454660Y-7829550D02*
X+378460Y-7829550D01*
X+378460Y-7753350D01*
X+454660Y-7753350D01*
X+378460Y-7791450D02*
X+429260Y-7791450D01*
X+480060Y-7816850D02*
X+492760Y-7829550D01*
X+543560Y-7829550D01*
X+556260Y-7816850D01*
X+556260Y-7804150D01*
X+543560Y-7791450D01*
X+492760Y-7791450D01*
X+480060Y-7778750D01*
X+480060Y-7766050D01*
X+492760Y-7753350D01*
X+543560Y-7753350D01*
X+556260Y-7766050D01*
X+1135380Y-7766050D02*
X+1148080Y-7753350D01*
X+1186180Y-7753350D01*
X+1198880Y-7766050D01*
X+1198880Y-7778750D01*
X+1186180Y-7791450D01*
X+1198880Y-7804150D01*
X+1198880Y-7816850D01*
X+1186180Y-7829550D01*
X+1148080Y-7829550D01*
X+1135380Y-7816850D01*
X+1160780Y-7791450D02*
X+1186180Y-7791450D01*
X+1249680Y-7791450D02*
X+1236980Y-7778750D01*
X+1236980Y-7766050D01*
X+1249680Y-7753350D01*
X+1287780Y-7753350D01*
X+1300480Y-7766050D01*
X+1300480Y-7778750D01*
X+1287780Y-7791450D01*
X+1249680Y-7791450D01*
X+1236980Y-7804150D01*
X+1236980Y-7816850D01*
X+1249680Y-7829550D01*
X+1287780Y-7829550D01*
X+1300480Y-7816850D01*
X+1300480Y-7804150D01*
X+1287780Y-7791450D01*
D28*
X-782320Y-8032750D02*
X-782537Y-8027503D01*
X-784302Y-8017008D01*
X-787994Y-8006513D01*
X-794022Y-7996018D01*
X-803244Y-7985638D01*
X-813739Y-7977950D01*
X-824234Y-7973032D01*
X-834729Y-7970226D01*
X-845224Y-7969253D01*
X-845820Y-7969250D01*
X-909320Y-8032750D02*
X-909103Y-8027503D01*
X-907338Y-8017008D01*
X-903646Y-8006513D01*
X-897618Y-7996018D01*
X-888396Y-7985638D01*
X-877901Y-7977950D01*
X-867406Y-7973032D01*
X-856911Y-7970226D01*
X-846416Y-7969253D01*
X-845820Y-7969250D01*
X-909320Y-8032750D02*
X-909103Y-8037997D01*
X-907338Y-8048492D01*
X-903646Y-8058987D01*
X-897618Y-8069482D01*
X-888396Y-8079862D01*
X-877901Y-8087550D01*
X-867406Y-8092468D01*
X-856911Y-8095274D01*
X-846416Y-8096247D01*
X-845820Y-8096250D01*
X-782320Y-8032750D02*
X-782537Y-8037997D01*
X-784302Y-8048492D01*
X-787994Y-8058987D01*
X-794022Y-8069482D01*
X-803244Y-8079862D01*
X-813739Y-8087550D01*
X-824234Y-8092468D01*
X-834729Y-8095274D01*
X-845224Y-8096247D01*
X-845820Y-8096250D01*
X-890721Y-7987849D02*
X-800919Y-8077651D01*
X-890721Y-8077651D02*
X-800919Y-7987849D01*
D77*
X-472440Y-8045450D02*
X-548640Y-8045450D01*
X-497840Y-7994650D01*
X-497840Y-8070850D01*
X-447040Y-8070850D02*
X-447040Y-8020050D01*
X-447040Y-8032750D02*
X-434340Y-8020050D01*
X-408940Y-8045450D01*
X-383540Y-8020050D01*
X-370840Y-8032750D01*
X-370840Y-8070850D01*
X-345440Y-8070850D02*
X-345440Y-8020050D01*
X-345440Y-8032750D02*
X-332740Y-8020050D01*
X-307340Y-8045450D01*
X-281940Y-8020050D01*
X-269240Y-8032750D01*
X-269240Y-8070850D01*
X+353060Y-7994650D02*
X+276860Y-8070850D01*
X+276860Y-7994650D02*
X+314960Y-8032750D01*
X+454660Y-8070850D02*
X+378460Y-8070850D01*
X+378460Y-7994650D01*
X+454660Y-7994650D01*
X+378460Y-8032750D02*
X+429260Y-8032750D01*
X+480060Y-8058150D02*
X+492760Y-8070850D01*
X+543560Y-8070850D01*
X+556260Y-8058150D01*
X+556260Y-8045450D01*
X+543560Y-8032750D01*
X+492760Y-8032750D01*
X+480060Y-8020050D01*
X+480060Y-8007350D01*
X+492760Y-7994650D01*
X+543560Y-7994650D01*
X+556260Y-8007350D01*
X+1135380Y-8007350D02*
X+1148080Y-7994650D01*
X+1186180Y-7994650D01*
X+1198880Y-8007350D01*
X+1198880Y-8020050D01*
X+1186180Y-8032750D01*
X+1148080Y-8032750D01*
X+1135380Y-8045450D01*
X+1135380Y-8070850D01*
X+1198880Y-8070850D01*
M02*
