G04 PROTEUS RS274X GERBER FILE*
%FSLAX45Y45*%
%MOMM*%
G01*
%ADD28C,0.203200*%
%ADD72C,0.508000*%
%ADD30C,0.200000*%
D28*
X-1079500Y-6413500D02*
X+9715500Y-6413500D01*
X+9715500Y-1016000D01*
X-1079500Y-1016000D01*
X-1079500Y-6413500D01*
D72*
X+9093200Y-5181500D02*
X+9093069Y-5178342D01*
X+9092003Y-5172024D01*
X+9089772Y-5165706D01*
X+9086127Y-5159388D01*
X+9080552Y-5153149D01*
X+9074234Y-5148553D01*
X+9067916Y-5145620D01*
X+9061598Y-5143958D01*
X+9055280Y-5143400D01*
X+9055100Y-5143400D01*
X+9017000Y-5181500D02*
X+9017131Y-5178342D01*
X+9018197Y-5172024D01*
X+9020428Y-5165706D01*
X+9024073Y-5159388D01*
X+9029648Y-5153149D01*
X+9035966Y-5148553D01*
X+9042284Y-5145620D01*
X+9048602Y-5143958D01*
X+9054920Y-5143400D01*
X+9055100Y-5143400D01*
X+9017000Y-5181500D02*
X+9017131Y-5184658D01*
X+9018197Y-5190976D01*
X+9020428Y-5197294D01*
X+9024073Y-5203612D01*
X+9029648Y-5209851D01*
X+9035966Y-5214447D01*
X+9042284Y-5217380D01*
X+9048602Y-5219042D01*
X+9054920Y-5219600D01*
X+9055100Y-5219600D01*
X+9093200Y-5181500D02*
X+9093069Y-5184658D01*
X+9092003Y-5190976D01*
X+9089772Y-5197294D01*
X+9086127Y-5203612D01*
X+9080552Y-5209851D01*
X+9074234Y-5214447D01*
X+9067916Y-5217380D01*
X+9061598Y-5219042D01*
X+9055280Y-5219600D01*
X+9055100Y-5219600D01*
X+8394600Y-5715000D02*
X+8394469Y-5711842D01*
X+8393403Y-5705524D01*
X+8391172Y-5699206D01*
X+8387527Y-5692888D01*
X+8381952Y-5686649D01*
X+8375634Y-5682053D01*
X+8369316Y-5679120D01*
X+8362998Y-5677458D01*
X+8356680Y-5676900D01*
X+8356500Y-5676900D01*
X+8318400Y-5715000D02*
X+8318531Y-5711842D01*
X+8319597Y-5705524D01*
X+8321828Y-5699206D01*
X+8325473Y-5692888D01*
X+8331048Y-5686649D01*
X+8337366Y-5682053D01*
X+8343684Y-5679120D01*
X+8350002Y-5677458D01*
X+8356320Y-5676900D01*
X+8356500Y-5676900D01*
X+8318400Y-5715000D02*
X+8318531Y-5718158D01*
X+8319597Y-5724476D01*
X+8321828Y-5730794D01*
X+8325473Y-5737112D01*
X+8331048Y-5743351D01*
X+8337366Y-5747947D01*
X+8343684Y-5750880D01*
X+8350002Y-5752542D01*
X+8356320Y-5753100D01*
X+8356500Y-5753100D01*
X+8394600Y-5715000D02*
X+8394469Y-5718158D01*
X+8393403Y-5724476D01*
X+8391172Y-5730794D01*
X+8387527Y-5737112D01*
X+8381952Y-5743351D01*
X+8375634Y-5747947D01*
X+8369316Y-5750880D01*
X+8362998Y-5752542D01*
X+8356680Y-5753100D01*
X+8356500Y-5753100D01*
X+4162600Y-6096000D02*
X+4162469Y-6092842D01*
X+4161403Y-6086524D01*
X+4159172Y-6080206D01*
X+4155527Y-6073888D01*
X+4149952Y-6067649D01*
X+4143634Y-6063053D01*
X+4137316Y-6060120D01*
X+4130998Y-6058458D01*
X+4124680Y-6057900D01*
X+4124500Y-6057900D01*
X+4086400Y-6096000D02*
X+4086531Y-6092842D01*
X+4087597Y-6086524D01*
X+4089828Y-6080206D01*
X+4093473Y-6073888D01*
X+4099048Y-6067649D01*
X+4105366Y-6063053D01*
X+4111684Y-6060120D01*
X+4118002Y-6058458D01*
X+4124320Y-6057900D01*
X+4124500Y-6057900D01*
X+4086400Y-6096000D02*
X+4086531Y-6099158D01*
X+4087597Y-6105476D01*
X+4089828Y-6111794D01*
X+4093473Y-6118112D01*
X+4099048Y-6124351D01*
X+4105366Y-6128947D01*
X+4111684Y-6131880D01*
X+4118002Y-6133542D01*
X+4124320Y-6134100D01*
X+4124500Y-6134100D01*
X+4162600Y-6096000D02*
X+4162469Y-6099158D01*
X+4161403Y-6105476D01*
X+4159172Y-6111794D01*
X+4155527Y-6118112D01*
X+4149952Y-6124351D01*
X+4143634Y-6128947D01*
X+4137316Y-6131880D01*
X+4130998Y-6133542D01*
X+4124680Y-6134100D01*
X+4124500Y-6134100D01*
X+5724600Y-6096000D02*
X+5724469Y-6092842D01*
X+5723403Y-6086524D01*
X+5721172Y-6080206D01*
X+5717527Y-6073888D01*
X+5711952Y-6067649D01*
X+5705634Y-6063053D01*
X+5699316Y-6060120D01*
X+5692998Y-6058458D01*
X+5686680Y-6057900D01*
X+5686500Y-6057900D01*
X+5648400Y-6096000D02*
X+5648531Y-6092842D01*
X+5649597Y-6086524D01*
X+5651828Y-6080206D01*
X+5655473Y-6073888D01*
X+5661048Y-6067649D01*
X+5667366Y-6063053D01*
X+5673684Y-6060120D01*
X+5680002Y-6058458D01*
X+5686320Y-6057900D01*
X+5686500Y-6057900D01*
X+5648400Y-6096000D02*
X+5648531Y-6099158D01*
X+5649597Y-6105476D01*
X+5651828Y-6111794D01*
X+5655473Y-6118112D01*
X+5661048Y-6124351D01*
X+5667366Y-6128947D01*
X+5673684Y-6131880D01*
X+5680002Y-6133542D01*
X+5686320Y-6134100D01*
X+5686500Y-6134100D01*
X+5724600Y-6096000D02*
X+5724469Y-6099158D01*
X+5723403Y-6105476D01*
X+5721172Y-6111794D01*
X+5717527Y-6118112D01*
X+5711952Y-6124351D01*
X+5705634Y-6128947D01*
X+5699316Y-6131880D01*
X+5692998Y-6133542D01*
X+5686680Y-6134100D01*
X+5686500Y-6134100D01*
X+5750100Y-5461000D02*
X+5749969Y-5457842D01*
X+5748903Y-5451524D01*
X+5746672Y-5445206D01*
X+5743027Y-5438888D01*
X+5737452Y-5432649D01*
X+5731134Y-5428053D01*
X+5724816Y-5425120D01*
X+5718498Y-5423458D01*
X+5712180Y-5422900D01*
X+5712000Y-5422900D01*
X+5673900Y-5461000D02*
X+5674031Y-5457842D01*
X+5675097Y-5451524D01*
X+5677328Y-5445206D01*
X+5680973Y-5438888D01*
X+5686548Y-5432649D01*
X+5692866Y-5428053D01*
X+5699184Y-5425120D01*
X+5705502Y-5423458D01*
X+5711820Y-5422900D01*
X+5712000Y-5422900D01*
X+5673900Y-5461000D02*
X+5674031Y-5464158D01*
X+5675097Y-5470476D01*
X+5677328Y-5476794D01*
X+5680973Y-5483112D01*
X+5686548Y-5489351D01*
X+5692866Y-5493947D01*
X+5699184Y-5496880D01*
X+5705502Y-5498542D01*
X+5711820Y-5499100D01*
X+5712000Y-5499100D01*
X+5750100Y-5461000D02*
X+5749969Y-5464158D01*
X+5748903Y-5470476D01*
X+5746672Y-5476794D01*
X+5743027Y-5483112D01*
X+5737452Y-5489351D01*
X+5731134Y-5493947D01*
X+5724816Y-5496880D01*
X+5718498Y-5498542D01*
X+5712180Y-5499100D01*
X+5712000Y-5499100D01*
X+1761085Y-6276892D02*
X+1760954Y-6273734D01*
X+1759888Y-6267416D01*
X+1757657Y-6261098D01*
X+1754012Y-6254780D01*
X+1748437Y-6248541D01*
X+1742119Y-6243945D01*
X+1735801Y-6241012D01*
X+1729483Y-6239350D01*
X+1723165Y-6238792D01*
X+1722985Y-6238792D01*
X+1684885Y-6276892D02*
X+1685016Y-6273734D01*
X+1686082Y-6267416D01*
X+1688313Y-6261098D01*
X+1691958Y-6254780D01*
X+1697533Y-6248541D01*
X+1703851Y-6243945D01*
X+1710169Y-6241012D01*
X+1716487Y-6239350D01*
X+1722805Y-6238792D01*
X+1722985Y-6238792D01*
X+1684885Y-6276892D02*
X+1685016Y-6280050D01*
X+1686082Y-6286368D01*
X+1688313Y-6292686D01*
X+1691958Y-6299004D01*
X+1697533Y-6305243D01*
X+1703851Y-6309839D01*
X+1710169Y-6312772D01*
X+1716487Y-6314434D01*
X+1722805Y-6314992D01*
X+1722985Y-6314992D01*
X+1761085Y-6276892D02*
X+1760954Y-6280050D01*
X+1759888Y-6286368D01*
X+1757657Y-6292686D01*
X+1754012Y-6299004D01*
X+1748437Y-6305243D01*
X+1742119Y-6309839D01*
X+1735801Y-6312772D01*
X+1729483Y-6314434D01*
X+1723165Y-6314992D01*
X+1722985Y-6314992D01*
X+631800Y-1943100D02*
X+631669Y-1939942D01*
X+630603Y-1933624D01*
X+628372Y-1927306D01*
X+624727Y-1920988D01*
X+619152Y-1914749D01*
X+612834Y-1910153D01*
X+606516Y-1907220D01*
X+600198Y-1905558D01*
X+593880Y-1905000D01*
X+593700Y-1905000D01*
X+555600Y-1943100D02*
X+555731Y-1939942D01*
X+556797Y-1933624D01*
X+559028Y-1927306D01*
X+562673Y-1920988D01*
X+568248Y-1914749D01*
X+574566Y-1910153D01*
X+580884Y-1907220D01*
X+587202Y-1905558D01*
X+593520Y-1905000D01*
X+593700Y-1905000D01*
X+555600Y-1943100D02*
X+555731Y-1946258D01*
X+556797Y-1952576D01*
X+559028Y-1958894D01*
X+562673Y-1965212D01*
X+568248Y-1971451D01*
X+574566Y-1976047D01*
X+580884Y-1978980D01*
X+587202Y-1980642D01*
X+593520Y-1981200D01*
X+593700Y-1981200D01*
X+631800Y-1943100D02*
X+631669Y-1946258D01*
X+630603Y-1952576D01*
X+628372Y-1958894D01*
X+624727Y-1965212D01*
X+619152Y-1971451D01*
X+612834Y-1976047D01*
X+606516Y-1978980D01*
X+600198Y-1980642D01*
X+593880Y-1981200D01*
X+593700Y-1981200D01*
D30*
X-354500Y-3066800D02*
X-354500Y-3176800D01*
X-534500Y-3066800D02*
X-534500Y-3176800D01*
X-100500Y-3066800D02*
X-100500Y-3176800D01*
X-280500Y-3066800D02*
X-280500Y-3176800D01*
D72*
X-685800Y-4648200D02*
X-685931Y-4645042D01*
X-686997Y-4638724D01*
X-689228Y-4632406D01*
X-692873Y-4626088D01*
X-698448Y-4619849D01*
X-704766Y-4615253D01*
X-711084Y-4612320D01*
X-717402Y-4610658D01*
X-723720Y-4610100D01*
X-723900Y-4610100D01*
X-762000Y-4648200D02*
X-761869Y-4645042D01*
X-760803Y-4638724D01*
X-758572Y-4632406D01*
X-754927Y-4626088D01*
X-749352Y-4619849D01*
X-743034Y-4615253D01*
X-736716Y-4612320D01*
X-730398Y-4610658D01*
X-724080Y-4610100D01*
X-723900Y-4610100D01*
X-762000Y-4648200D02*
X-761869Y-4651358D01*
X-760803Y-4657676D01*
X-758572Y-4663994D01*
X-754927Y-4670312D01*
X-749352Y-4676551D01*
X-743034Y-4681147D01*
X-736716Y-4684080D01*
X-730398Y-4685742D01*
X-724080Y-4686300D01*
X-723900Y-4686300D01*
X-685800Y-4648200D02*
X-685931Y-4651358D01*
X-686997Y-4657676D01*
X-689228Y-4663994D01*
X-692873Y-4670312D01*
X-698448Y-4676551D01*
X-704766Y-4681147D01*
X-711084Y-4684080D01*
X-717402Y-4685742D01*
X-723720Y-4686300D01*
X-723900Y-4686300D01*
X-685800Y-5105400D02*
X-685931Y-5102242D01*
X-686997Y-5095924D01*
X-689228Y-5089606D01*
X-692873Y-5083288D01*
X-698448Y-5077049D01*
X-704766Y-5072453D01*
X-711084Y-5069520D01*
X-717402Y-5067858D01*
X-723720Y-5067300D01*
X-723900Y-5067300D01*
X-762000Y-5105400D02*
X-761869Y-5102242D01*
X-760803Y-5095924D01*
X-758572Y-5089606D01*
X-754927Y-5083288D01*
X-749352Y-5077049D01*
X-743034Y-5072453D01*
X-736716Y-5069520D01*
X-730398Y-5067858D01*
X-724080Y-5067300D01*
X-723900Y-5067300D01*
X-762000Y-5105400D02*
X-761869Y-5108558D01*
X-760803Y-5114876D01*
X-758572Y-5121194D01*
X-754927Y-5127512D01*
X-749352Y-5133751D01*
X-743034Y-5138347D01*
X-736716Y-5141280D01*
X-730398Y-5142942D01*
X-724080Y-5143500D01*
X-723900Y-5143500D01*
X-685800Y-5105400D02*
X-685931Y-5108558D01*
X-686997Y-5114876D01*
X-689228Y-5121194D01*
X-692873Y-5127512D01*
X-698448Y-5133751D01*
X-704766Y-5138347D01*
X-711084Y-5141280D01*
X-717402Y-5142942D01*
X-723720Y-5143500D01*
X-723900Y-5143500D01*
M02*
