G04 PROTEUS RS274X GERBER FILE*
%FSLAX45Y45*%
%MOMM*%
G01*
%ADD34C,1.016000*%
%AMPPAD029*
4,1,8,
-1.397000,-0.509800,
-1.397000,0.509800,
-1.017800,0.889000,
1.017800,0.889000,
1.397000,0.509800,
1.397000,-0.509800,
1.017800,-0.889000,
-1.017800,-0.889000,
-1.397000,-0.509800,
0*%
%ADD35PPAD029*%
%AMPPAD030*
4,1,8,
-0.509800,1.397000,
0.509800,1.397000,
0.889000,1.017800,
0.889000,-1.017800,
0.509800,-1.397000,
-0.509800,-1.397000,
-0.889000,-1.017800,
-0.889000,1.017800,
-0.509800,1.397000,
0*%
%ADD36PPAD030*%
%ADD37C,6.604000*%
%AMPPAD032*
4,1,36,
1.016000,0.889000,
1.016000,-0.889000,
1.013470,-0.914970,
1.006200,-0.938980,
0.994650,-0.960580,
0.979290,-0.979290,
0.960570,-0.994650,
0.938980,-1.006200,
0.914970,-1.013470,
0.889000,-1.016000,
-0.889000,-1.016000,
-0.914970,-1.013470,
-0.938980,-1.006200,
-0.960570,-0.994650,
-0.979290,-0.979290,
-0.994650,-0.960580,
-1.006200,-0.938980,
-1.013470,-0.914970,
-1.016000,-0.889000,
-1.016000,0.889000,
-1.013470,0.914970,
-1.006200,0.938980,
-0.994650,0.960580,
-0.979290,0.979290,
-0.960570,0.994650,
-0.938980,1.006200,
-0.914970,1.013470,
-0.889000,1.016000,
0.889000,1.016000,
0.914970,1.013470,
0.938980,1.006200,
0.960570,0.994650,
0.979290,0.979290,
0.994650,0.960580,
1.006200,0.938980,
1.013470,0.914970,
1.016000,0.889000,
0*%
%ADD38PPAD032*%
%AMPPAD033*
4,1,4,
0.520700,-0.698500,
-0.520700,-0.698500,
-0.520700,0.698500,
0.520700,0.698500,
0.520700,-0.698500,
0*%
%ADD39PPAD033*%
%AMPPAD034*
4,1,4,
1.371600,0.495300,
1.371600,-0.495300,
-1.371600,-0.495300,
-1.371600,0.495300,
1.371600,0.495300,
0*%
%ADD40PPAD034*%
%AMPPAD035*
4,1,4,
3.073400,2.781300,
3.073400,-2.781300,
-3.073400,-2.781300,
-3.073400,2.781300,
3.073400,2.781300,
0*%
%ADD41PPAD035*%
%AMPPAD036*
4,1,4,
0.901700,0.571500,
0.901700,-0.571500,
-0.901700,-0.571500,
-0.901700,0.571500,
0.901700,0.571500,
0*%
%ADD42PPAD036*%
%AMPPAD037*
4,1,4,
0.571500,-0.901700,
-0.571500,-0.901700,
-0.571500,0.901700,
0.571500,0.901700,
0.571500,-0.901700,
0*%
%ADD43PPAD037*%
%AMPPAD038*
4,1,36,
-2.921000,-1.016000,
-2.921000,1.016000,
-2.918470,1.041970,
-2.911200,1.065980,
-2.899650,1.087580,
-2.884290,1.106290,
-2.865570,1.121650,
-2.843980,1.133200,
-2.819970,1.140470,
-2.794000,1.143000,
2.794000,1.143000,
2.819970,1.140470,
2.843980,1.133200,
2.865570,1.121650,
2.884290,1.106290,
2.899650,1.087580,
2.911200,1.065980,
2.918470,1.041970,
2.921000,1.016000,
2.921000,-1.016000,
2.918470,-1.041970,
2.911200,-1.065980,
2.899650,-1.087580,
2.884290,-1.106290,
2.865570,-1.121650,
2.843980,-1.133200,
2.819970,-1.140470,
2.794000,-1.143000,
-2.794000,-1.143000,
-2.819970,-1.140470,
-2.843980,-1.133200,
-2.865570,-1.121650,
-2.884290,-1.106290,
-2.899650,-1.087580,
-2.911200,-1.065980,
-2.918470,-1.041970,
-2.921000,-1.016000,
0*%
%ADD44PPAD038*%
%AMPPAD039*
4,1,36,
-0.508000,0.889000,
0.508000,0.889000,
0.533970,0.886470,
0.557980,0.879200,
0.579580,0.867650,
0.598290,0.852290,
0.613650,0.833570,
0.625200,0.811980,
0.632470,0.787970,
0.635000,0.762000,
0.635000,-0.762000,
0.632470,-0.787970,
0.625200,-0.811980,
0.613650,-0.833570,
0.598290,-0.852290,
0.579580,-0.867650,
0.557980,-0.879200,
0.533970,-0.886470,
0.508000,-0.889000,
-0.508000,-0.889000,
-0.533970,-0.886470,
-0.557980,-0.879200,
-0.579580,-0.867650,
-0.598290,-0.852290,
-0.613650,-0.833570,
-0.625200,-0.811980,
-0.632470,-0.787970,
-0.635000,-0.762000,
-0.635000,0.762000,
-0.632470,0.787970,
-0.625200,0.811980,
-0.613650,0.833570,
-0.598290,0.852290,
-0.579580,0.867650,
-0.557980,0.879200,
-0.533970,0.886470,
-0.508000,0.889000,
0*%
%ADD45PPAD039*%
%AMPPAD040*
4,1,4,
0.762000,0.127000,
0.762000,-0.127000,
-0.762000,-0.127000,
-0.762000,0.127000,
0.762000,0.127000,
0*%
%ADD46PPAD040*%
%AMPPAD041*
4,1,4,
0.127000,-0.762000,
-0.127000,-0.762000,
-0.127000,0.762000,
0.127000,0.762000,
0.127000,-0.762000,
0*%
%ADD47PPAD041*%
%AMPPAD042*
4,1,4,
0.152400,-0.749300,
-0.152400,-0.749300,
-0.152400,0.749300,
0.152400,0.749300,
0.152400,-0.749300,
0*%
%ADD48PPAD042*%
%AMPPAD043*
4,1,4,
0.749300,0.152400,
0.749300,-0.152400,
-0.749300,-0.152400,
-0.749300,0.152400,
0.749300,0.152400,
0*%
%ADD49PPAD043*%
%ADD26C,0.228600*%
%AMPPAD044*
4,1,36,
-1.016000,1.143000,
1.016000,1.143000,
1.041970,1.140470,
1.065980,1.133200,
1.087580,1.121650,
1.106290,1.106290,
1.121650,1.087570,
1.133200,1.065980,
1.140470,1.041970,
1.143000,1.016000,
1.143000,-1.016000,
1.140470,-1.041970,
1.133200,-1.065980,
1.121650,-1.087570,
1.106290,-1.106290,
1.087580,-1.121650,
1.065980,-1.133200,
1.041970,-1.140470,
1.016000,-1.143000,
-1.016000,-1.143000,
-1.041970,-1.140470,
-1.065980,-1.133200,
-1.087580,-1.121650,
-1.106290,-1.106290,
-1.121650,-1.087570,
-1.133200,-1.065980,
-1.140470,-1.041970,
-1.143000,-1.016000,
-1.143000,1.016000,
-1.140470,1.041970,
-1.133200,1.065980,
-1.121650,1.087570,
-1.106290,1.106290,
-1.087580,1.121650,
-1.065980,1.133200,
-1.041970,1.140470,
-1.016000,1.143000,
0*%
%ADD50PPAD044*%
%ADD28C,0.203200*%
D34*
X+2870200Y-2324100D03*
X+296957Y-4742626D03*
X-825500Y-1270000D03*
X+3251200Y-2399210D03*
X+3499093Y-5455826D03*
X+3391926Y-5464385D03*
X+3262876Y-5482559D03*
X+4539700Y-1705693D03*
X+337490Y-3649603D03*
X-606300Y-3080988D03*
X+4000500Y-5080000D03*
X+5950637Y-2455399D03*
X+3302000Y-2540000D03*
X+939800Y-1778000D03*
X+961073Y-3109100D03*
X+818252Y-3115600D03*
X+5422900Y-5168900D03*
X+1905000Y-2413000D03*
X+1778000Y-3429000D03*
X+45274Y-3276139D03*
X+4804966Y-4483100D03*
X+4962849Y-4480534D03*
X+3289222Y-3325000D03*
X+3931405Y-1858255D03*
X+4508500Y-4635500D03*
X+3313388Y-3600836D03*
X+2372206Y-3196056D03*
X+2455828Y-3546619D03*
X-857028Y-3101159D03*
X+6273800Y-4152900D03*
X+6273800Y-3797300D03*
X+6268211Y-2855011D03*
X+1524000Y-5143500D03*
X+3683000Y-1752600D03*
X+4458798Y-1785213D03*
X+1433045Y-2165672D03*
X+6829674Y-2784293D03*
X+6832600Y-2476500D03*
X+5873205Y-2172155D03*
X+4772378Y-1692228D03*
X+4663171Y-1671369D03*
X+5080000Y-1498600D03*
X+4445000Y-1638300D03*
X+3543300Y-1765300D03*
X+2757181Y-3943344D03*
X+2754646Y-2455683D03*
X+5308600Y-1752600D03*
X+3458583Y-1693133D03*
X+3110292Y-1692508D03*
X+3530600Y-1447800D03*
X+4022571Y-1461404D03*
X+4313581Y-1388550D03*
X+4140200Y-1384300D03*
X+1683961Y-1195497D03*
X+3269501Y-3990016D03*
X+3525839Y-5200604D03*
X+7458900Y-3501202D03*
X+4699098Y-4921183D03*
X+6037274Y-3362416D03*
X+5287881Y-4847245D03*
X+4882848Y-1879974D03*
D35*
X+9245600Y-5181500D03*
X+9245600Y-4981500D03*
X+9245600Y-4781500D03*
D36*
X+8356500Y-5905500D03*
X+8156500Y-5905500D03*
X+7956500Y-5905500D03*
X+7756500Y-5905500D03*
X+7556500Y-5905500D03*
X+7356500Y-5905500D03*
D37*
X+9271000Y-5969000D03*
X-635000Y-5969000D03*
D36*
X+4124500Y-5905500D03*
X+4324500Y-5905500D03*
X+4524500Y-5905500D03*
X+4724500Y-5905500D03*
X+4924500Y-5905500D03*
X+5124500Y-5905500D03*
X+5686500Y-5905500D03*
X+5886500Y-5905500D03*
X+6086500Y-5905500D03*
X+6286500Y-5905500D03*
X+6486500Y-5905500D03*
X+6686500Y-5905500D03*
X+5712000Y-5270500D03*
X+5912000Y-5270500D03*
X+6112000Y-5270500D03*
X+6312000Y-5270500D03*
X+6512000Y-5270500D03*
X+6712000Y-5270500D03*
X+1722985Y-6086392D03*
X+1522985Y-6086392D03*
X+1322985Y-6086392D03*
D38*
X+593700Y-2133600D03*
X+593700Y-2333600D03*
X+393700Y-2133600D03*
X+393700Y-2333600D03*
X+193700Y-2133600D03*
X+193700Y-2333600D03*
X-6300Y-2133600D03*
X-6300Y-2333600D03*
X-206300Y-2133600D03*
X-206300Y-2333600D03*
X-406300Y-2133600D03*
X-406300Y-2333600D03*
X-606300Y-2133600D03*
X-606300Y-2333600D03*
D39*
X+2310900Y-1211300D03*
X+2120900Y-1211300D03*
X+2311400Y-1978100D03*
X+2121400Y-1978100D03*
D40*
X+50800Y-3973900D03*
X+50800Y-3517900D03*
D41*
X-619200Y-3745900D03*
D42*
X+635000Y-1386400D03*
X+635000Y-1676400D03*
X+393700Y-1386400D03*
X+393700Y-1676400D03*
X-431800Y-2832100D03*
X-431800Y-3122100D03*
X-190500Y-2832100D03*
X-190500Y-3122100D03*
X-571500Y-1257300D03*
X-571500Y-1557300D03*
X-177800Y-1257300D03*
X-177800Y-1557300D03*
X+63500Y-1257300D03*
X+63500Y-1557300D03*
D43*
X+645600Y-3975100D03*
X+355600Y-3975100D03*
D42*
X+2527300Y-1498600D03*
X+2527300Y-1198600D03*
X+2781300Y-1498600D03*
X+2781300Y-1198600D03*
X+2781300Y-1686000D03*
X+2781300Y-1986000D03*
X+2527300Y-1686000D03*
X+2527300Y-1986000D03*
X+2171700Y-3525800D03*
X+2171700Y-3225800D03*
X+1905000Y-1503400D03*
X+1905000Y-1203400D03*
D43*
X+6324600Y-3022600D03*
X+6624600Y-3022600D03*
D42*
X+1930400Y-3525800D03*
X+1930400Y-3225800D03*
X+2590800Y-6154700D03*
X+2590800Y-5854700D03*
X+2336800Y-6159500D03*
X+2336800Y-5859500D03*
X+1181100Y-1498600D03*
X+1181100Y-1198600D03*
X+1435100Y-1498600D03*
X+1435100Y-1198600D03*
X+1663700Y-1686000D03*
X+1663700Y-1986000D03*
X+1905000Y-1686000D03*
X+1905000Y-1986000D03*
D43*
X+1236700Y-5549900D03*
X+1536700Y-5549900D03*
X+1236700Y-5308600D03*
X+1536700Y-5308600D03*
D42*
X+6540500Y-1193800D03*
X+6540500Y-1493800D03*
X+7823200Y-1193800D03*
X+7823200Y-1493800D03*
D44*
X+6692900Y-1765300D03*
X+7658100Y-1765300D03*
D43*
X+7313100Y-1333500D03*
X+7023100Y-1333500D03*
D45*
X+9194800Y-3962400D03*
X+9509760Y-3962400D03*
X+9194800Y-2768600D03*
X+9509760Y-2768600D03*
X+9194800Y-3721100D03*
X+9509760Y-3721100D03*
X+9194800Y-3479800D03*
X+9509760Y-3479800D03*
X+9194800Y-2997200D03*
X+9509760Y-2997200D03*
X+9194800Y-3238500D03*
X+9509760Y-3238500D03*
D43*
X+8938260Y-2997200D03*
X+8648260Y-2997200D03*
X+8938260Y-3238500D03*
X+8648260Y-3238500D03*
X+8938260Y-4038600D03*
X+8648260Y-4038600D03*
X+8936160Y-3784600D03*
X+8646160Y-3784600D03*
X+8938260Y-3479800D03*
X+8648260Y-3479800D03*
X+8936160Y-2768600D03*
X+8646160Y-2768600D03*
D46*
X+5628900Y-4075000D03*
X+5628900Y-4025000D03*
X+5628900Y-3975000D03*
X+5628900Y-3925000D03*
X+5628900Y-3875000D03*
X+5628900Y-3825000D03*
X+5628900Y-3775000D03*
X+5628900Y-3725000D03*
X+5628900Y-3675000D03*
X+5628900Y-3625000D03*
X+5628900Y-3575000D03*
X+5628900Y-3525000D03*
X+5628900Y-3475000D03*
X+5628900Y-3425000D03*
X+5628900Y-3375000D03*
X+5628900Y-3325000D03*
X+5628900Y-3275000D03*
X+5628900Y-3225000D03*
X+5628900Y-3175000D03*
X+5628900Y-3125000D03*
X+5628900Y-3075000D03*
X+5628900Y-3025000D03*
X+5628900Y-2975000D03*
X+5628900Y-2925000D03*
X+5628900Y-2875000D03*
X+5628900Y-2825000D03*
X+5628900Y-2775000D03*
X+5628900Y-2725000D03*
X+5628900Y-2675000D03*
X+5628900Y-2625000D03*
X+5628900Y-2575000D03*
X+5628900Y-2525000D03*
X+5628900Y-2475000D03*
X+5628900Y-2425000D03*
X+5628900Y-2375000D03*
X+5628900Y-2325000D03*
D47*
X+5433900Y-2130000D03*
X+5383900Y-2130000D03*
X+5333900Y-2130000D03*
X+5283900Y-2130000D03*
X+5233900Y-2130000D03*
D48*
X+5183900Y-2130000D03*
D47*
X+5133900Y-2130000D03*
X+5083900Y-2130000D03*
X+5033900Y-2130000D03*
X+4983900Y-2130000D03*
X+4933900Y-2130000D03*
X+4883900Y-2130000D03*
X+4833900Y-2130000D03*
X+4783900Y-2130000D03*
X+4733900Y-2130000D03*
X+4683900Y-2130000D03*
X+4633900Y-2130000D03*
X+4583900Y-2130000D03*
X+4533900Y-2130000D03*
X+4483900Y-2130000D03*
X+4433900Y-2130000D03*
X+4383900Y-2130000D03*
X+4333900Y-2130000D03*
X+4283900Y-2130000D03*
X+4233900Y-2130000D03*
X+4183900Y-2130000D03*
X+4133900Y-2130000D03*
X+4083900Y-2130000D03*
X+4033900Y-2130000D03*
X+3983900Y-2130000D03*
X+3933900Y-2130000D03*
X+3883900Y-2130000D03*
X+3833900Y-2130000D03*
X+3783900Y-2130000D03*
X+3733900Y-2130000D03*
X+3683900Y-2130000D03*
D46*
X+3488900Y-2325000D03*
X+3488900Y-2375000D03*
X+3488900Y-2425000D03*
X+3488900Y-2475000D03*
X+3488900Y-2525000D03*
X+3488900Y-2575000D03*
X+3488900Y-2625000D03*
X+3488900Y-2675000D03*
X+3488900Y-2725000D03*
X+3488900Y-2775000D03*
X+3488900Y-2825000D03*
X+3488900Y-2875000D03*
X+3488900Y-2925000D03*
X+3488900Y-2975000D03*
X+3488900Y-3025000D03*
X+3488900Y-3075000D03*
X+3488900Y-3125000D03*
X+3488900Y-3175000D03*
X+3488900Y-3225000D03*
X+3488900Y-3275000D03*
X+3488900Y-3325000D03*
X+3488900Y-3375000D03*
X+3488900Y-3425000D03*
X+3488900Y-3475000D03*
X+3488900Y-3525000D03*
X+3488900Y-3575000D03*
X+3488900Y-3625000D03*
X+3488900Y-3675000D03*
X+3488900Y-3725000D03*
X+3488900Y-3775000D03*
X+3488900Y-3825000D03*
X+3488900Y-3875000D03*
X+3488900Y-3925000D03*
D49*
X+3488900Y-3975000D03*
D46*
X+3488900Y-4025000D03*
X+3488900Y-4075000D03*
D47*
X+3683900Y-4270000D03*
X+3733900Y-4270000D03*
X+3783900Y-4270000D03*
X+3833900Y-4270000D03*
X+3883900Y-4270000D03*
X+3933900Y-4270000D03*
X+3983900Y-4270000D03*
X+4033900Y-4270000D03*
X+4083900Y-4270000D03*
X+4133900Y-4270000D03*
X+4183900Y-4270000D03*
X+4233900Y-4270000D03*
X+4283900Y-4270000D03*
X+4333900Y-4270000D03*
X+4383900Y-4270000D03*
X+4433900Y-4270000D03*
X+4483900Y-4270000D03*
X+4533900Y-4270000D03*
X+4583900Y-4270000D03*
X+4633900Y-4270000D03*
X+4683900Y-4270000D03*
X+4733900Y-4270000D03*
X+4783900Y-4270000D03*
X+4833900Y-4270000D03*
X+4883900Y-4270000D03*
X+4933900Y-4270000D03*
X+4983900Y-4270000D03*
X+5033900Y-4270000D03*
X+5083900Y-4270000D03*
X+5133900Y-4270000D03*
X+5183900Y-4270000D03*
X+5233900Y-4270000D03*
X+5283900Y-4270000D03*
X+5333900Y-4270000D03*
X+5383900Y-4270000D03*
X+5433900Y-4270000D03*
D26*
X+5628900Y-2130000D03*
X+3488900Y-4270000D03*
D42*
X+1422400Y-1686000D03*
X+1422400Y-1986000D03*
X+1181100Y-1686000D03*
X+1181100Y-1986000D03*
D43*
X+6273800Y-4292600D03*
X+5983800Y-4292600D03*
D42*
X+2590800Y-5664200D03*
X+2590800Y-5374200D03*
D36*
X-723900Y-4457700D03*
X-523900Y-4457700D03*
X-323900Y-4457700D03*
X-123900Y-4457700D03*
X-723900Y-4914900D03*
X-523900Y-4914900D03*
X-323900Y-4914900D03*
X-123900Y-4914900D03*
D42*
X+6197600Y-2189200D03*
X+6197600Y-2489200D03*
X+6464300Y-2491300D03*
X+6464300Y-2781300D03*
D50*
X+8501500Y-1718100D03*
X+9151500Y-1718100D03*
X+8501500Y-2168100D03*
X+9151500Y-2168100D03*
D35*
X+8356600Y-4257700D03*
X+8356600Y-4457700D03*
X+8356600Y-4657700D03*
D28*
X-1079500Y-6413500D02*
X+9715500Y-6413500D01*
X+9715500Y-1016000D01*
X-1079500Y-1016000D01*
X-1079500Y-6413500D01*
M02*
