G04 PROTEUS RS274X GERBER FILE*
%FSLAX45Y45*%
%MOMM*%
G01*
%ADD70R,4.572000X1.651000*%
%ADD71R,1.651000X1.651000*%
%ADD21R,1.143000X5.207000*%
%ADD22R,10.744200X9.550400*%
%ADD23R,3.810000X6.858000*%
%ADD24R,2.540000X1.473200*%
%ADD25R,1.143000X1.803400*%
%ADD27R,1.803400X1.143000*%
%ADD28R,0.635000X2.032000*%
%ADD29R,1.651000X3.048000*%
%ADD72R,0.889000X0.635000*%
%ADD73R,0.889000X1.016000*%
%ADD30R,1.016000X0.889000*%
%ADD31R,0.635000X0.889000*%
%ADD35R,1.447800X0.939800*%
%ADD36R,11.430000X8.890000*%
%ADD37R,2.032000X3.810000*%
%AMPPAD032*
4,1,4,
-0.233490,-1.041710,
-1.041710,-0.233490,
0.233490,1.041710,
1.041710,0.233490,
-0.233490,-1.041710,
0*%
%ADD38PPAD032*%
%ADD39R,2.032000X2.540000*%
%ADD40R,1.016000X1.524000*%
%ADD41C,0.203200*%
D70*
X+6667500Y+1016000D03*
X+6667500Y+127000D03*
D71*
X+7048500Y+127000D03*
X+7048500Y+1016000D03*
D70*
X+8953500Y+1016000D03*
X+8953500Y+127000D03*
D71*
X+9334500Y+127000D03*
X+9334500Y+1016000D03*
D70*
X+4318000Y+1016000D03*
X+4318000Y+127000D03*
D71*
X+4699000Y+127000D03*
X+4699000Y+1016000D03*
D21*
X+2453640Y-4000500D03*
X+2623820Y-4000500D03*
X+2794000Y-4000500D03*
X+2964180Y-4000500D03*
X+3134360Y-4000500D03*
D22*
X+2794000Y-3048000D03*
D23*
X+2120900Y-4927600D03*
X+927100Y-4927600D03*
D24*
X+2540000Y-5102800D03*
X+2540000Y-4622800D03*
D25*
X+387842Y-6078500D03*
X+687842Y-6078500D03*
X+3274500Y-4445000D03*
X+2984500Y-4445000D03*
D27*
X+6032500Y-2948500D03*
X+6032500Y-3238500D03*
X+5638800Y-2946400D03*
X+5638800Y-3236400D03*
D28*
X+5588000Y-4013200D03*
X+5715000Y-4013200D03*
X+5842000Y-4013200D03*
X+5969000Y-4013200D03*
X+5969000Y-3492500D03*
X+5842000Y-3492500D03*
X+5715000Y-3492500D03*
X+5588000Y-3492500D03*
X+6985000Y-4013200D03*
X+7112000Y-4013200D03*
X+7239000Y-4013200D03*
X+7366000Y-4013200D03*
X+7366000Y-3492500D03*
X+7239000Y-3492500D03*
X+7112000Y-3492500D03*
X+6985000Y-3492500D03*
X+8382000Y-4013200D03*
X+8509000Y-4013200D03*
X+8636000Y-4013200D03*
X+8763000Y-4013200D03*
X+8763000Y-3492500D03*
X+8636000Y-3492500D03*
X+8509000Y-3492500D03*
X+8382000Y-3492500D03*
D27*
X+7048500Y-2948500D03*
X+7048500Y-3238500D03*
D29*
X+5207000Y-3492500D03*
X+5207000Y-3873500D03*
X+6604000Y-3492500D03*
X+6604000Y-3873500D03*
X+8001000Y-3492500D03*
X+8001000Y-3873500D03*
D72*
X+4953000Y-4381500D03*
X+4953000Y-4146550D03*
X+6350000Y-4362450D03*
X+6350000Y-4127500D03*
X+7778750Y-4330700D03*
X+7778750Y-4095750D03*
D27*
X+6159500Y-3619500D03*
X+6159500Y-3919500D03*
X+7556500Y-3619500D03*
X+7556500Y-3919500D03*
X+8953500Y-3619500D03*
X+8953500Y-3919500D03*
X+7429500Y-2948500D03*
X+7429500Y-3238500D03*
X+8445500Y-2948500D03*
X+8445500Y-3238500D03*
X+8826500Y-2948500D03*
X+8826500Y-3238500D03*
X+5651500Y-4544500D03*
X+5651500Y-4254500D03*
X+5923000Y-4544500D03*
X+5923000Y-4254500D03*
X+7048500Y-4544500D03*
X+7048500Y-4254500D03*
X+5016500Y-698500D03*
X+5016500Y-988500D03*
X+4762500Y-218000D03*
X+4762500Y-508000D03*
X+5016500Y-1714500D03*
X+5016500Y-2004500D03*
X+4762500Y-1206500D03*
X+4762500Y-1496500D03*
X+4762500Y-698500D03*
X+4762500Y-998500D03*
X+4762500Y-1714500D03*
X+4762500Y-2014500D03*
X+7112000Y-698500D03*
X+7112000Y-998500D03*
X+7112000Y-1714500D03*
X+7112000Y-2014500D03*
X+7366000Y-698500D03*
X+7366000Y-988500D03*
X+7112000Y-190500D03*
X+7112000Y-480500D03*
X+7366000Y-1714500D03*
X+7366000Y-2004500D03*
X+7112000Y-1206500D03*
X+7112000Y-1496500D03*
D73*
X+3522980Y-3619500D03*
X+3429000Y-3810000D03*
X+3616960Y-3810000D03*
X+4094480Y-3619500D03*
X+4000500Y-3810000D03*
X+4188460Y-3810000D03*
D30*
X+4445000Y-4160520D03*
X+4635500Y-4254500D03*
X+4635500Y-4066540D03*
D72*
X+3810000Y-3575050D03*
X+3810000Y-3810000D03*
D31*
X+3549650Y-4038600D03*
X+3784600Y-4038600D03*
D72*
X+4381500Y-3575050D03*
X+4381500Y-3810000D03*
X+4000500Y-3937000D03*
X+4000500Y-4171950D03*
D25*
X+3520000Y-3365500D03*
X+3810000Y-3365500D03*
X+3520000Y-3111500D03*
X+3810000Y-3111500D03*
X+4381500Y-3365500D03*
X+4091500Y-3365500D03*
D27*
X+4635500Y-3075500D03*
X+4635500Y-3365500D03*
X+4635500Y-3873500D03*
X+4635500Y-3573500D03*
D25*
X+4381500Y-3111500D03*
X+4081500Y-3111500D03*
D27*
X+8699500Y-4544500D03*
X+8699500Y-4254500D03*
X+8245500Y-5570500D03*
X+8245500Y-5270500D03*
X+7483500Y-5570499D03*
X+7483500Y-5270500D03*
X+7302500Y-4544500D03*
X+7302500Y-4254500D03*
X+8445500Y-4544500D03*
X+8445500Y-4254500D03*
X+8753500Y-5635301D03*
X+8753500Y-5925301D03*
X+7991500Y-5270500D03*
X+7991500Y-5560500D03*
X+7737500Y-5270500D03*
X+7737500Y-5560500D03*
D35*
X+3314700Y-1395119D03*
X+3314700Y-1595119D03*
D36*
X+3365500Y+546100D03*
D37*
X+3111500Y-685800D03*
X+3619500Y-685800D03*
D36*
X+4000500Y-1409700D03*
D37*
X+3746500Y-2641600D03*
X+4254500Y-2641600D03*
D36*
X+5702300Y+546100D03*
D37*
X+5448300Y-685800D03*
X+5956300Y-685800D03*
D36*
X+6350000Y-1409700D03*
D37*
X+6096000Y-2641600D03*
X+6604000Y-2641600D03*
D36*
X+7988300Y+546100D03*
D37*
X+7734300Y-685800D03*
X+8242300Y-685800D03*
D36*
X+8636000Y-1409700D03*
D37*
X+8382000Y-2641600D03*
X+8890000Y-2641600D03*
D25*
X+3274500Y-4686300D03*
X+2984500Y-4686300D03*
X+2781300Y-4927600D03*
X+3071300Y-4927600D03*
X+385800Y-5816600D03*
X+685800Y-5816600D03*
D72*
X+4635500Y-2933700D03*
X+4635500Y-2698750D03*
D31*
X+3270250Y-1100000D03*
X+3035300Y-1100000D03*
D72*
X+5016500Y-1219200D03*
X+5016500Y-1454150D03*
X+5422900Y-1962150D03*
X+5422900Y-1727200D03*
X+7366000Y-1219200D03*
X+7366000Y-1454150D03*
X+7785100Y-1974850D03*
X+7785100Y-1739900D03*
D38*
X+8788400Y-5003800D03*
X+8583339Y-4798739D03*
X+8483600Y-5067300D03*
X+8278539Y-4862239D03*
D27*
X+4737100Y-5156200D03*
X+4737100Y-5446200D03*
X+5003800Y-5156200D03*
X+5003800Y-5446200D03*
D25*
X+5562600Y-4838700D03*
X+5852600Y-4838700D03*
D27*
X+5321300Y-5001700D03*
X+5321300Y-4711700D03*
D36*
X-288358Y+2174307D03*
D37*
X-542358Y+942407D03*
X-34358Y+942407D03*
D73*
X+3688080Y-5689600D03*
X+3782060Y-5499100D03*
X+3594100Y-5499100D03*
D25*
X-442400Y+596900D03*
X-152400Y+596900D03*
X+4116900Y-5168900D03*
X+4406900Y-5168900D03*
D27*
X-889000Y+1104900D03*
X-889000Y+814900D03*
X-889000Y+1595400D03*
X-889000Y+1295400D03*
D39*
X-187960Y-4229100D03*
X+254000Y-4229100D03*
D40*
X+3340100Y-6083300D03*
X+3025140Y-6083300D03*
D31*
X-342900Y+393700D03*
X-107950Y+393700D03*
D25*
X+4116900Y-5397500D03*
X+4406900Y-5397500D03*
D41*
X-1079500Y-6413500D02*
X+9715500Y-6413500D01*
X+9715500Y+2730500D01*
X-1079500Y+2730500D01*
X-1079500Y-6413500D01*
M02*
