G04 PROTEUS RS274X GERBER FILE*
%FSLAX45Y45*%
%MOMM*%
G01*
%ADD56C,1.270000*%
%ADD18C,1.016000*%
%ADD59C,5.334000*%
%AMPPAD075*
4,1,4,
0.571500,0.901700,
-0.571500,0.901700,
-0.571500,-0.901700,
0.571500,-0.901700,
0.571500,0.901700,
0*%
%ADD85PPAD075*%
%AMPPAD076*
4,1,4,
-0.901700,0.571500,
-0.901700,-0.571500,
0.901700,-0.571500,
0.901700,0.571500,
-0.901700,0.571500,
0*%
%ADD86PPAD076*%
%AMPPAD077*
4,1,36,
3.492500,3.619500,
-3.492500,3.619500,
-3.518470,3.616970,
-3.542480,3.609700,
-3.564080,3.598150,
-3.582790,3.582790,
-3.598150,3.564070,
-3.609700,3.542480,
-3.616970,3.518470,
-3.619500,3.492500,
-3.619500,-3.492500,
-3.616970,-3.518470,
-3.609700,-3.542480,
-3.598150,-3.564070,
-3.582790,-3.582790,
-3.564080,-3.598150,
-3.542480,-3.609700,
-3.518470,-3.616970,
-3.492500,-3.619500,
3.492500,-3.619500,
3.518470,-3.616970,
3.542480,-3.609700,
3.564080,-3.598150,
3.582790,-3.582790,
3.598150,-3.564070,
3.609700,-3.542480,
3.616970,-3.518470,
3.619500,-3.492500,
3.619500,3.492500,
3.616970,3.518470,
3.609700,3.542480,
3.598150,3.564070,
3.582790,3.582790,
3.564080,3.598150,
3.542480,3.609700,
3.518470,3.616970,
3.492500,3.619500,
0*%
%ADD87PPAD077*%
%AMPPAD078*
4,1,36,
0.762000,1.397000,
-0.762000,1.397000,
-0.787970,1.394470,
-0.811980,1.387200,
-0.833580,1.375650,
-0.852290,1.360290,
-0.867650,1.341570,
-0.879200,1.319980,
-0.886470,1.295970,
-0.889000,1.270000,
-0.889000,-1.270000,
-0.886470,-1.295970,
-0.879200,-1.319980,
-0.867650,-1.341570,
-0.852290,-1.360290,
-0.833580,-1.375650,
-0.811980,-1.387200,
-0.787970,-1.394470,
-0.762000,-1.397000,
0.762000,-1.397000,
0.787970,-1.394470,
0.811980,-1.387200,
0.833580,-1.375650,
0.852290,-1.360290,
0.867650,-1.341570,
0.879200,-1.319980,
0.886470,-1.295970,
0.889000,-1.270000,
0.889000,1.270000,
0.886470,1.295970,
0.879200,1.319980,
0.867650,1.341570,
0.852290,1.360290,
0.833580,1.375650,
0.811980,1.387200,
0.787970,1.394470,
0.762000,1.397000,
0*%
%ADD88PPAD078*%
%ADD65C,6.604000*%
%AMPPAD039*
4,1,36,
0.901700,-0.025400,
0.901700,0.025400,
0.898160,0.061750,
0.887980,0.095370,
0.871810,0.125600,
0.850300,0.151800,
0.824110,0.173310,
0.793870,0.189480,
0.760250,0.199660,
0.723900,0.203200,
-0.723900,0.203200,
-0.760250,0.199660,
-0.793870,0.189480,
-0.824110,0.173310,
-0.850300,0.151800,
-0.871810,0.125600,
-0.887980,0.095370,
-0.898160,0.061750,
-0.901700,0.025400,
-0.901700,-0.025400,
-0.898160,-0.061750,
-0.887980,-0.095370,
-0.871810,-0.125600,
-0.850300,-0.151800,
-0.824110,-0.173310,
-0.793870,-0.189480,
-0.760250,-0.199660,
-0.723900,-0.203200,
0.723900,-0.203200,
0.760250,-0.199660,
0.793870,-0.189480,
0.824110,-0.173310,
0.850300,-0.151800,
0.871810,-0.125600,
0.887980,-0.095370,
0.898160,-0.061750,
0.901700,-0.025400,
0*%
%ADD45PPAD039*%
%AMPPAD079*
4,1,36,
-0.508000,-0.889000,
0.508000,-0.889000,
0.533970,-0.886470,
0.557980,-0.879200,
0.579580,-0.867650,
0.598290,-0.852290,
0.613650,-0.833570,
0.625200,-0.811980,
0.632470,-0.787970,
0.635000,-0.762000,
0.635000,0.762000,
0.632470,0.787970,
0.625200,0.811980,
0.613650,0.833570,
0.598290,0.852290,
0.579580,0.867650,
0.557980,0.879200,
0.533970,0.886470,
0.508000,0.889000,
-0.508000,0.889000,
-0.533970,0.886470,
-0.557980,0.879200,
-0.579580,0.867650,
-0.598290,0.852290,
-0.613650,0.833570,
-0.625200,0.811980,
-0.632470,0.787970,
-0.635000,0.762000,
-0.635000,-0.762000,
-0.632470,-0.787970,
-0.625200,-0.811980,
-0.613650,-0.833570,
-0.598290,-0.852290,
-0.579580,-0.867650,
-0.557980,-0.879200,
-0.533970,-0.886470,
-0.508000,-0.889000,
0*%
%ADD89PPAD079*%
%AMPPAD067*
4,1,8,
-1.397000,-0.509800,
-1.397000,0.509800,
-1.017800,0.889000,
1.017800,0.889000,
1.397000,0.509800,
1.397000,-0.509800,
1.017800,-0.889000,
-1.017800,-0.889000,
-1.397000,-0.509800,
0*%
%ADD77PPAD067*%
%AMPPAD068*
4,1,8,
-0.509800,1.397000,
0.509800,1.397000,
0.889000,1.017800,
0.889000,-1.017800,
0.509800,-1.397000,
-0.509800,-1.397000,
-0.889000,-1.017800,
-0.889000,1.017800,
-0.509800,1.397000,
0*%
%ADD78PPAD068*%
%ADD79C,3.556000*%
%AMPPAD080*
4,1,36,
-2.413000,-1.524000,
-2.413000,1.524000,
-2.410470,1.549970,
-2.403200,1.573980,
-2.391650,1.595580,
-2.376290,1.614290,
-2.357570,1.629650,
-2.335980,1.641200,
-2.311970,1.648470,
-2.286000,1.651000,
2.286000,1.651000,
2.311970,1.648470,
2.335980,1.641200,
2.357570,1.629650,
2.376290,1.614290,
2.391650,1.595580,
2.403200,1.573980,
2.410470,1.549970,
2.413000,1.524000,
2.413000,-1.524000,
2.410470,-1.549970,
2.403200,-1.573980,
2.391650,-1.595580,
2.376290,-1.614290,
2.357570,-1.629650,
2.335980,-1.641200,
2.311970,-1.648470,
2.286000,-1.651000,
-2.286000,-1.651000,
-2.311970,-1.648470,
-2.335980,-1.641200,
-2.357570,-1.629650,
-2.376290,-1.614290,
-2.391650,-1.595580,
-2.403200,-1.573980,
-2.410470,-1.549970,
-2.413000,-1.524000,
0*%
%ADD90PPAD080*%
%AMPPAD081*
4,1,4,
0.844140,0.179610,
0.179610,0.844140,
-0.844140,-0.179610,
-0.179610,-0.844140,
0.844140,0.179610,
0*%
%ADD91PPAD081*%
%AMPPAD082*
4,1,4,
0.723900,-0.469900,
0.723900,0.469900,
-0.723900,0.469900,
-0.723900,-0.469900,
0.723900,-0.469900,
0*%
%ADD92PPAD082*%
%AMPPAD083*
4,1,4,
-0.469900,-0.723900,
0.469900,-0.723900,
0.469900,0.723900,
-0.469900,0.723900,
-0.469900,-0.723900,
0*%
%ADD93PPAD083*%
%AMPPAD084*
4,1,4,
-0.622300,-1.701800,
0.622300,-1.701800,
0.622300,1.701800,
-0.622300,1.701800,
-0.622300,-1.701800,
0*%
%ADD94PPAD084*%
%ADD41C,0.203200*%
D56*
X+4013200Y+1052310D03*
X+3911600Y+1228286D03*
X+4114800Y+1228286D03*
X+3810000Y+1404262D03*
X+4013200Y+1404262D03*
X+3911600Y+1580238D03*
X+3810000Y+1756214D03*
X+3937000Y+1905000D03*
X+8597900Y+1228286D03*
X+8801100Y+1228286D03*
X+8597900Y+1580238D03*
X+8724900Y+1866900D03*
X+6363969Y+1052310D03*
X+6262369Y+1228286D03*
X+6465569Y+1228286D03*
X+6160769Y+1404262D03*
X+6363969Y+1404262D03*
X+6262369Y+1580238D03*
X+6160769Y+1756214D03*
X+6286500Y+1905000D03*
X+7747000Y-3429000D03*
X+6428649Y-3363510D03*
X+8305800Y+1257545D03*
X+9067800Y+1257545D03*
X+8509000Y+1943100D03*
X+8559800Y+2137425D03*
X+8813800Y+2137425D03*
X+7519052Y-4519896D03*
X+7874000Y-4508500D03*
X+5384021Y-4535575D03*
X+4283159Y-4283011D03*
X+4826045Y-3267760D03*
X+2667000Y-2476500D03*
X+7543800Y-812800D03*
X+8127850Y-2993866D03*
X+8118219Y-2853714D03*
X+5249412Y-804176D03*
X+6696244Y-3035770D03*
X+5257800Y-1714500D03*
X+5905500Y-2489200D03*
X+6698805Y-3180794D03*
X+7664736Y-1676863D03*
X+8826500Y+1638300D03*
X+9105900Y+1460500D03*
X+8802625Y-6177544D03*
X+8064500Y-4508500D03*
X+8001000Y-4826000D03*
X+6286500Y-4584700D03*
X+6604000Y-4584700D03*
X+6153231Y-4826944D03*
X+6778656Y-4571579D03*
X+3944752Y-3532550D03*
X+5431385Y-2971800D03*
X+5842000Y-3162300D03*
X+6883138Y-3230089D03*
X+6832600Y-901700D03*
D18*
X+5249124Y-1453322D03*
D56*
X+3850575Y+2560320D03*
X+4104575Y+2560320D03*
X+4358575Y+2560320D03*
X+4612575Y+2560320D03*
X+4866575Y+2560320D03*
X+5120575Y+2560320D03*
X+5374575Y+2560320D03*
X+5628575Y+2560320D03*
X+5882575Y+2560320D03*
X+6136575Y+2560320D03*
X+6390575Y+2560320D03*
X+6644575Y+2560320D03*
X+6898575Y+2560320D03*
X+7152575Y+2560320D03*
X+7406575Y+2560320D03*
X+7660575Y+2560320D03*
X+7914575Y+2560320D03*
X+8168575Y+2560320D03*
X+8422575Y+2560320D03*
X+8676575Y+2560320D03*
X+8930575Y+2560320D03*
X+9545320Y+1821839D03*
X+9545320Y+1567839D03*
X+9545320Y+1313839D03*
X+9545320Y-2750161D03*
X+9545320Y-3004161D03*
X+9545320Y-3258161D03*
X+9545320Y-3512161D03*
X+9545320Y-3766161D03*
X+9545320Y-4020161D03*
X+9545320Y-4274161D03*
X+9545320Y-4528161D03*
X+9545320Y-4782161D03*
X+9545320Y-5036161D03*
X+9545320Y-5290161D03*
X+9545320Y-5544161D03*
X+5430518Y-5990308D03*
X+9367518Y-4450518D03*
X+9367518Y-4010578D03*
X+9240518Y-3790608D03*
X+9367518Y-3570638D03*
X+9240518Y-3350668D03*
X+9367518Y-3130698D03*
X+4795518Y+1268702D03*
X+5049518Y+1268702D03*
X+5303518Y+1268702D03*
X+5557518Y+1268702D03*
X+5811518Y+1268702D03*
X+7335518Y+1268702D03*
X+7589518Y+1268702D03*
X+4922518Y+1488672D03*
X+5176518Y+1488672D03*
X+5430518Y+1488672D03*
X+5684518Y+1488672D03*
X+7208518Y+1488672D03*
X+7462518Y+1488672D03*
X+7716518Y+1488672D03*
X+4795518Y+1708642D03*
X+5049518Y+1708642D03*
X+5303518Y+1708642D03*
X+5557518Y+1708642D03*
X+5811518Y+1708642D03*
X+7335518Y+1708642D03*
X+7589518Y+1708642D03*
X+4922518Y+1928612D03*
X+5176518Y+1928612D03*
X+5430518Y+1928612D03*
X+5684518Y+1928612D03*
X+7208518Y+1928612D03*
X+7462518Y+1928612D03*
X+7716518Y+1928612D03*
X+4795518Y+2148582D03*
X+5049518Y+2148582D03*
X+5303518Y+2148582D03*
X+5557518Y+2148582D03*
X+5811518Y+2148582D03*
X+7335518Y+2148582D03*
X+7589518Y+2148582D03*
X+4922518Y+2368552D03*
X+5176518Y+2368552D03*
X+5430518Y+2368552D03*
X+5684518Y+2368552D03*
X+7208518Y+2368552D03*
X+7462518Y+2368552D03*
X+7716518Y+2368552D03*
X+5249412Y-1454150D03*
X+7545632Y-1454630D03*
X+2602489Y-5621043D03*
X+7226300Y+1016000D03*
X+7213600Y+127000D03*
X+4940300Y+1016000D03*
X+4889500Y+127000D03*
X+9321800Y-63500D03*
X+9499600Y+1016000D03*
X+8831424Y-5427206D03*
X+3034848Y-1251986D03*
X+3576345Y-2643122D03*
X+4818888Y-2925288D03*
X+9016999Y+1837037D03*
X+8127999Y+2057007D03*
X+8381999Y+2057007D03*
X+3924300Y+2105292D03*
X+4152900Y+2105292D03*
X+4381500Y+2105292D03*
X+6273914Y+2139798D03*
X+6502514Y+2139798D03*
X+6731114Y+2139798D03*
X+3500118Y-4626494D03*
X+7157718Y+1708642D03*
X+7767318Y+1708642D03*
X+4719318Y+2412546D03*
X+1021080Y+1841696D03*
X+1224280Y+1841696D03*
X+1427480Y+1841696D03*
X+1630680Y+1841696D03*
X+1833880Y+1841696D03*
X+513080Y+2017672D03*
X+716280Y+2017672D03*
X+919480Y+2017672D03*
X+1122680Y+2017672D03*
X+1325880Y+2017672D03*
X+1529080Y+2017672D03*
X+1732280Y+2017672D03*
X+411480Y+2545600D03*
X+614680Y+2545600D03*
X+817880Y+2545600D03*
X+1021080Y+2545600D03*
X+1224280Y+2545600D03*
X+1427480Y+2545600D03*
X+1630680Y+2545600D03*
X+1833880Y+2545600D03*
X+886143Y-266666D03*
X+1089343Y-266666D03*
X+1292543Y-266666D03*
X+2308543Y-266666D03*
X+2511743Y-266666D03*
X+2714943Y-266666D03*
X+2918143Y-266666D03*
X+2410143Y-90690D03*
X+2613343Y-90690D03*
X+2816543Y-90690D03*
X+3019743Y-90690D03*
X+886143Y+85286D03*
X+1089343Y+85286D03*
X+1292543Y+85286D03*
X+1495743Y+85286D03*
X+2308543Y+85286D03*
X+2511743Y+85286D03*
X+2714943Y+85286D03*
X+1190943Y+261262D03*
X+1394143Y+261262D03*
X+1597343Y+261262D03*
X+1800543Y+261262D03*
X+2003743Y+261262D03*
X+2613343Y+261262D03*
X+1292543Y+437238D03*
X+1495743Y+437238D03*
X+1698943Y+437238D03*
X+1902143Y+437238D03*
X+2105343Y+437238D03*
X+4137343Y+437238D03*
X+4340543Y+437238D03*
X+4543743Y+437238D03*
X+4746943Y+437238D03*
X+6372543Y+437238D03*
X+6575743Y+437238D03*
X+6778943Y+437238D03*
X+6982143Y+437238D03*
X+8810943Y+437238D03*
X+9014143Y+437238D03*
X+1190943Y+613214D03*
X+1394143Y+613214D03*
X+1597343Y+613214D03*
X+1800543Y+613214D03*
X+8709343Y+613214D03*
X+8912543Y+613214D03*
X+1089343Y+789190D03*
X+1292543Y+789190D03*
X+1495743Y+789190D03*
X+1698943Y+789190D03*
X+987743Y+965166D03*
X+1190943Y+965166D03*
X+1394143Y+965166D03*
X+1597343Y+965166D03*
X+1800543Y+965166D03*
X+7828280Y+1317455D03*
X+7117080Y+2197335D03*
X+3459480Y+2549287D03*
X+3662680Y+2549287D03*
X+4191000Y-3949700D03*
X+3472115Y-5497269D03*
X+3671704Y-5885200D03*
X+2130561Y-1303277D03*
X+2915774Y-1409717D03*
X+411480Y+1841696D03*
X+614680Y+1841696D03*
X+817880Y+1841696D03*
X-701040Y-395875D03*
X-497840Y-395875D03*
X-904240Y+308029D03*
X-193040Y+1187909D03*
X-96520Y-6201665D03*
X+1224280Y-5673737D03*
X+716280Y-5497761D03*
X+1325880Y-5497761D03*
X+3459480Y+2069207D03*
X+7828280Y+2245183D03*
X-5081Y-548813D03*
X+4889499Y+353062D03*
X+4056379Y+713812D03*
X+4264659Y+713812D03*
X+4472939Y+713812D03*
X+4681219Y+713812D03*
X+4889499Y+713812D03*
X+6347459Y+713812D03*
X+6555739Y+713812D03*
X+6764019Y+713812D03*
X+6972299Y+713812D03*
X+7180579Y+713812D03*
X+9055099Y+713812D03*
X+619759Y+894187D03*
X+828039Y+894187D03*
X-492760Y+1654722D03*
X-284480Y+1654722D03*
X-76200Y+1654722D03*
X+9192260Y-5478721D03*
X+1485900Y-4396471D03*
X+3464560Y+2277404D03*
X+1277620Y-5306641D03*
X+1173480Y-4404766D03*
X+5859780Y+1547609D03*
X+5859780Y+1908359D03*
X-706169Y+406400D03*
X-497889Y+406400D03*
X-279400Y+878585D03*
X-279400Y+1086865D03*
X-279400Y+1295145D03*
X+3913451Y-857244D03*
X+4116651Y-857244D03*
X+3405451Y-681268D03*
X+3811851Y-681268D03*
X+4015051Y-681268D03*
X+3913451Y-505292D03*
X+4116651Y-505292D03*
X+3405451Y-329316D03*
X+3608651Y-329316D03*
X+3811851Y-329316D03*
X+4015051Y-329316D03*
X+3507051Y-153340D03*
X+3710251Y-153340D03*
X+3913451Y-153340D03*
X+4116651Y-153340D03*
X+5697295Y-1631085D03*
X+5595695Y-1455109D03*
X+5494095Y-1279133D03*
X+5697295Y-1279133D03*
X+6205295Y-751205D03*
X+6408495Y-751205D03*
X+6306895Y-575229D03*
X+6510095Y-575229D03*
X+5798895Y-399253D03*
X+6002095Y-399253D03*
X+6205295Y-399253D03*
X+6408495Y-399253D03*
X+6814895Y-399253D03*
X+5290895Y-223277D03*
X+5494095Y-223277D03*
X+5697295Y-223277D03*
X+5900495Y-223277D03*
X+6103695Y-223277D03*
X+6306895Y-223277D03*
X+6510095Y-223277D03*
X+7881619Y-1533571D03*
X+7780019Y-1357595D03*
X+7983219Y-1357595D03*
X+7881619Y-1181619D03*
X+8491219Y-829667D03*
X+8694419Y-829667D03*
X+9100819Y-829667D03*
X+8592819Y-653691D03*
X+8796019Y-653691D03*
X+8491219Y-477715D03*
X+8694419Y-477715D03*
X+9100819Y-477715D03*
X+7576819Y-301739D03*
X+7780019Y-301739D03*
X+7983219Y-301739D03*
X+8186419Y-301739D03*
X+8389619Y-301739D03*
X+8592819Y-301739D03*
X+8796019Y-301739D03*
X+9100819Y-125763D03*
D18*
X-672147Y-5478139D03*
D56*
X+4292600Y-2032000D03*
X+4895850Y-4946650D03*
X+3145817Y-5333103D03*
X+3302000Y-5207000D03*
X+4902200Y-4737100D03*
X+4140200Y-2032000D03*
X+1537861Y-309908D03*
X+2299861Y+569972D03*
X+1918861Y+789942D03*
X+2680861Y+1229882D03*
X+2934861Y+1229882D03*
X+3188861Y+1229882D03*
X+3442861Y+1229882D03*
X-672147Y-5473700D03*
X+541019Y-2904531D03*
X+795019Y-2904531D03*
X+1049019Y-2904531D03*
X+1557019Y-2904531D03*
X+1811019Y-2904531D03*
X+2065019Y-2904531D03*
X+414019Y-2684561D03*
X+668019Y-2684561D03*
X+922019Y-2684561D03*
X+541019Y-2464591D03*
X+795019Y-2464591D03*
X+1049019Y-2464591D03*
X+1811019Y-2464591D03*
X+2827019Y-2464591D03*
X+3081019Y-2464591D03*
X+7907019Y-2464591D03*
X+414019Y-2244621D03*
X+668019Y-2244621D03*
X+922019Y-2244621D03*
X+1176019Y-2244621D03*
X+1684019Y-2244621D03*
X+6510019Y-2244621D03*
X+8034019Y-2244621D03*
X+8288019Y-2244621D03*
X+8796019Y-2244621D03*
X+541019Y-2024651D03*
X+795019Y-2024651D03*
X+1049019Y-2024651D03*
X+1303019Y-2024651D03*
X+1811019Y-2024651D03*
X+8669019Y-2024651D03*
X+8923019Y-2024651D03*
X-93981Y-1804681D03*
X+160019Y-1804681D03*
X+414019Y-1804681D03*
X+668019Y-1804681D03*
X+922019Y-1804681D03*
X+1176019Y-1804681D03*
X+1684019Y-1804681D03*
X+33019Y-1584711D03*
X+287019Y-1584711D03*
X+541019Y-1584711D03*
X+795019Y-1584711D03*
X+1049019Y-1584711D03*
X+1303019Y-1584711D03*
X+1811019Y-1584711D03*
X-601981Y-1364741D03*
X+668019Y-1364741D03*
X+922019Y-1364741D03*
X+1176019Y-1364741D03*
X-728981Y-1144771D03*
X-474981Y-1144771D03*
X-601981Y-924801D03*
D59*
X+4318000Y+1714500D03*
X+6667500Y+1714500D03*
X+8255000Y+1651000D03*
D85*
X+2827300Y-990600D03*
X+2527300Y-990600D03*
X+2542100Y-749300D03*
X+2832100Y-749300D03*
D86*
X+2667000Y-1206500D03*
X+2667000Y-1496500D03*
D87*
X-553200Y-4224020D03*
D88*
X-324600Y-4914900D03*
X-781800Y-4914900D03*
D87*
X+285000Y-4224020D03*
D88*
X+513600Y-4914900D03*
X+56400Y-4914900D03*
D86*
X+1275080Y+1337438D03*
X+1275080Y+1637438D03*
X+1783080Y+1337438D03*
X+1783080Y+1637438D03*
X+1529080Y+1337438D03*
X+1529080Y+1637438D03*
X+1371600Y-719100D03*
X+1371600Y-419100D03*
X+889000Y-719100D03*
X+889000Y-419100D03*
X+1130300Y-719100D03*
X+1130300Y-419100D03*
D65*
X-495300Y-1828800D03*
X-580503Y-12700D03*
D85*
X-469100Y-5232400D03*
X-769100Y-5232400D03*
D86*
X+818400Y-4914900D03*
X+818400Y-4614900D03*
X+2413000Y-1714500D03*
X+2413000Y-2014500D03*
X+2667000Y-1714500D03*
X+2667000Y-2004500D03*
X+2413000Y-1206500D03*
X+2413000Y-1496500D03*
D45*
X+6259000Y-3273402D03*
X+6259000Y-3338402D03*
X+6259000Y-3403402D03*
X+6259000Y-3468402D03*
X+5829000Y-3468402D03*
X+5829000Y-3403402D03*
X+5829000Y-3338402D03*
X+5829000Y-3273402D03*
X+7486107Y-3273033D03*
X+7486107Y-3338033D03*
X+7486107Y-3403033D03*
X+7486107Y-3468033D03*
X+7056107Y-3468033D03*
X+7056107Y-3403033D03*
X+7056107Y-3338033D03*
X+7056107Y-3273033D03*
X+8735869Y-3274533D03*
X+8735869Y-3339533D03*
X+8735869Y-3404533D03*
X+8735869Y-3469533D03*
X+8305869Y-3469533D03*
X+8305869Y-3404533D03*
X+8305869Y-3339533D03*
X+8305869Y-3274533D03*
D85*
X+6195500Y-2957402D03*
X+5895500Y-2957402D03*
X+7422607Y-2957033D03*
X+7122607Y-2957033D03*
X+8672369Y-2958533D03*
X+8372369Y-2958533D03*
X+6432000Y-3719402D03*
X+6132000Y-3719402D03*
X+7676607Y-3719033D03*
X+7376607Y-3719033D03*
X+8908869Y-3719033D03*
X+8608869Y-3719033D03*
X+6432000Y-3973402D03*
X+6132000Y-3973402D03*
X+5824500Y-4227402D03*
X+5524500Y-4227402D03*
X+5524500Y-3719402D03*
X+5814500Y-3719402D03*
X+6422000Y-4227402D03*
X+6132000Y-4227402D03*
X+6787607Y-3719033D03*
X+7077607Y-3719033D03*
X+7676607Y-3973033D03*
X+7386607Y-3973033D03*
X+8019869Y-3719033D03*
X+8309869Y-3719033D03*
X+8908869Y-3973033D03*
X+8618869Y-3973033D03*
X+7087607Y-4227033D03*
X+6787607Y-4227033D03*
X+7676607Y-4227033D03*
X+7376607Y-4227033D03*
X+8319869Y-4227033D03*
X+8019869Y-4227033D03*
X+8908869Y-4227033D03*
X+8608869Y-4227033D03*
D86*
X+7200900Y-4716500D03*
X+7200900Y-5016500D03*
X+8178800Y-4715376D03*
X+8178800Y-5015376D03*
X+2311400Y-4978400D03*
X+2311400Y-5278400D03*
X-533400Y-2844800D03*
X-533400Y-2544800D03*
D89*
X+673100Y-6083300D03*
X+988060Y-6083300D03*
D77*
X+9245600Y-5181500D03*
X+9245600Y-4981500D03*
X+9245600Y-4781500D03*
D86*
X+8204200Y-5272600D03*
X+8204200Y-5562600D03*
D85*
X+7203000Y-5232400D03*
X+7493000Y-5232400D03*
D86*
X+7731100Y-5259900D03*
X+7731100Y-5549900D03*
D85*
X+8643416Y-4793216D03*
X+8933416Y-4793216D03*
X+467800Y-6083300D03*
X+177800Y-6083300D03*
X+1905000Y-4508500D03*
X+2195000Y-4508500D03*
X+1905000Y-4254500D03*
X+2195000Y-4254500D03*
D86*
X+2057400Y-5268400D03*
X+2057400Y-4978400D03*
X+1524000Y-4686300D03*
X+1524000Y-4976300D03*
D78*
X+8356500Y-5905500D03*
X+8156500Y-5905500D03*
X+7956500Y-5905500D03*
X+7756500Y-5905500D03*
X+7556500Y-5905500D03*
X+7356500Y-5905500D03*
D65*
X+2169810Y+2259156D03*
X+700394Y+507979D03*
D59*
X+1955800Y-76200D03*
X+1955800Y-826200D03*
X+342900Y-482600D03*
X+342900Y-1232600D03*
D65*
X+9283700Y+2298700D03*
X+2984500Y+2298700D03*
X+9271000Y-5969000D03*
X-635000Y-5969000D03*
D78*
X+4124500Y-5905500D03*
X+4324500Y-5905500D03*
X+4524500Y-5905500D03*
X+4724500Y-5905500D03*
X+4924500Y-5905500D03*
X+5124500Y-5905500D03*
X+5686500Y-5905500D03*
X+5886500Y-5905500D03*
X+6086500Y-5905500D03*
X+6286500Y-5905500D03*
X+6486500Y-5905500D03*
X+6686500Y-5905500D03*
X+5712000Y-5270500D03*
X+5912000Y-5270500D03*
X+6112000Y-5270500D03*
X+6312000Y-5270500D03*
X+6512000Y-5270500D03*
X+6712000Y-5270500D03*
X+1722985Y-6086392D03*
X+1522985Y-6086392D03*
X+1322985Y-6086392D03*
D79*
X+1206500Y-3873500D03*
X+1206500Y-3373500D03*
D90*
X+1816100Y-3187700D03*
X+1816100Y-3887700D03*
D79*
X-177800Y-2514600D03*
X-177800Y-2864600D03*
X-596900Y-3613900D03*
X-596900Y-3263900D03*
X+56400Y-5257800D03*
X+406400Y-5257800D03*
X+266700Y-3594100D03*
X+266700Y-3244100D03*
D91*
X+5660311Y-2750411D03*
X+5518890Y-2608990D03*
X+5816600Y-2603500D03*
X+5675178Y-2462078D03*
D92*
X+7162800Y-2717800D03*
X+7162800Y-2517800D03*
X+7378700Y-2714600D03*
X+7378700Y-2514600D03*
D93*
X+8867800Y-2717800D03*
X+9067800Y-2717800D03*
X+8864600Y-2946400D03*
X+9064600Y-2946400D03*
D89*
X+2552700Y-6083300D03*
X+2867660Y-6083300D03*
D85*
X+2336800Y-6083300D03*
X+2046800Y-6083300D03*
D89*
X+675640Y-5791200D03*
X+990600Y-5791200D03*
D86*
X+165100Y-5791200D03*
X+165100Y-5501200D03*
D94*
X+177800Y+1587500D03*
X+787800Y+1587500D03*
D85*
X+8940800Y-4559300D03*
X+8640800Y-4559300D03*
D86*
X+8420100Y-4726500D03*
X+8420100Y-5016500D03*
D90*
X+3225800Y+914400D03*
X+3225800Y+1614400D03*
X+2387600Y+912900D03*
X+2387600Y+1612900D03*
D41*
X-1079500Y-6413500D02*
X+9715500Y-6413500D01*
X+9715500Y+2730500D01*
X-1079500Y+2730500D01*
X-1079500Y-6413500D01*
M02*
