G04 PROTEUS RS274X GERBER FILE*
%FSLAX45Y45*%
%MOMM*%
G01*
%ADD25R,1.143000X1.803400*%
%ADD27R,1.803400X1.143000*%
%ADD42R,6.985000X6.985000*%
%ADD43R,1.524000X2.540000*%
%AMPPAD038*
4,1,36,
0.901700,-0.025400,
0.901700,0.025400,
0.898160,0.061750,
0.887980,0.095370,
0.871810,0.125600,
0.850300,0.151800,
0.824110,0.173310,
0.793870,0.189480,
0.760250,0.199660,
0.723900,0.203200,
-0.723900,0.203200,
-0.760250,0.199660,
-0.793870,0.189480,
-0.824110,0.173310,
-0.850300,0.151800,
-0.871810,0.125600,
-0.887980,0.095370,
-0.898160,0.061750,
-0.901700,0.025400,
-0.901700,-0.025400,
-0.898160,-0.061750,
-0.887980,-0.095370,
-0.871810,-0.125600,
-0.850300,-0.151800,
-0.824110,-0.173310,
-0.793870,-0.189480,
-0.760250,-0.199660,
-0.723900,-0.203200,
0.723900,-0.203200,
0.760250,-0.199660,
0.793870,-0.189480,
0.824110,-0.173310,
0.850300,-0.151800,
0.871810,-0.125600,
0.887980,-0.095370,
0.898160,-0.061750,
0.901700,-0.025400,
0*%
%ADD44PPAD038*%
%ADD45R,1.016000X1.524000*%
%ADD46R,4.572000X3.048000*%
%AMPPAD041*
4,1,4,
-0.179610,-0.844140,
-0.844140,-0.179610,
0.179610,0.844140,
0.844140,0.179610,
-0.179610,-0.844140,
0*%
%ADD47PPAD041*%
%ADD34R,1.447800X0.939800*%
%ADD48R,0.939800X1.447800*%
%ADD39R,3.048000X4.572000*%
%ADD49R,1.244600X3.403600*%
%ADD41C,0.203200*%
D25*
X+2827300Y-990600D03*
X+2527300Y-990600D03*
X+2542100Y-749300D03*
X+2832100Y-749300D03*
D27*
X+2667000Y-1206500D03*
X+2667000Y-1496500D03*
D42*
X-553200Y-4224020D03*
D43*
X-324600Y-4914900D03*
X-781800Y-4914900D03*
D42*
X+285000Y-4224020D03*
D43*
X+513600Y-4914900D03*
X+56400Y-4914900D03*
D27*
X+1275080Y+1337438D03*
X+1275080Y+1637438D03*
X+1783080Y+1337438D03*
X+1783080Y+1637438D03*
X+1529080Y+1337438D03*
X+1529080Y+1637438D03*
X+1371600Y-719100D03*
X+1371600Y-419100D03*
X+889000Y-719100D03*
X+889000Y-419100D03*
X+1130300Y-719100D03*
X+1130300Y-419100D03*
D25*
X-469100Y-5232400D03*
X-769100Y-5232400D03*
D27*
X+818400Y-4914900D03*
X+818400Y-4614900D03*
X+2413000Y-1714500D03*
X+2413000Y-2014500D03*
X+2667000Y-1714500D03*
X+2667000Y-2004500D03*
X+2413000Y-1206500D03*
X+2413000Y-1496500D03*
D44*
X+6259000Y-3273402D03*
X+6259000Y-3338402D03*
X+6259000Y-3403402D03*
X+6259000Y-3468402D03*
X+5829000Y-3468402D03*
X+5829000Y-3403402D03*
X+5829000Y-3338402D03*
X+5829000Y-3273402D03*
X+7486107Y-3273033D03*
X+7486107Y-3338033D03*
X+7486107Y-3403033D03*
X+7486107Y-3468033D03*
X+7056107Y-3468033D03*
X+7056107Y-3403033D03*
X+7056107Y-3338033D03*
X+7056107Y-3273033D03*
X+8735869Y-3274533D03*
X+8735869Y-3339533D03*
X+8735869Y-3404533D03*
X+8735869Y-3469533D03*
X+8305869Y-3469533D03*
X+8305869Y-3404533D03*
X+8305869Y-3339533D03*
X+8305869Y-3274533D03*
D25*
X+6195500Y-2957402D03*
X+5895500Y-2957402D03*
X+7422607Y-2957033D03*
X+7122607Y-2957033D03*
X+8672369Y-2958533D03*
X+8372369Y-2958533D03*
X+6432000Y-3719402D03*
X+6132000Y-3719402D03*
X+7676607Y-3719033D03*
X+7376607Y-3719033D03*
X+8908869Y-3719033D03*
X+8608869Y-3719033D03*
X+6432000Y-3973402D03*
X+6132000Y-3973402D03*
X+5824500Y-4227402D03*
X+5524500Y-4227402D03*
X+5524500Y-3719402D03*
X+5814500Y-3719402D03*
X+6422000Y-4227402D03*
X+6132000Y-4227402D03*
X+6787607Y-3719033D03*
X+7077607Y-3719033D03*
X+7676607Y-3973033D03*
X+7386607Y-3973033D03*
X+8019869Y-3719033D03*
X+8309869Y-3719033D03*
X+8908869Y-3973033D03*
X+8618869Y-3973033D03*
X+7087607Y-4227033D03*
X+6787607Y-4227033D03*
X+7676607Y-4227033D03*
X+7376607Y-4227033D03*
X+8319869Y-4227033D03*
X+8019869Y-4227033D03*
X+8908869Y-4227033D03*
X+8608869Y-4227033D03*
X+7158000Y-6159500D03*
X+6858000Y-6159500D03*
D27*
X+2311400Y-4978400D03*
X+2311400Y-5278400D03*
X-533400Y-2844800D03*
X-533400Y-2544800D03*
D45*
X+673100Y-6083300D03*
X+988060Y-6083300D03*
D27*
X+8204200Y-5272600D03*
X+8204200Y-5562600D03*
D25*
X+7203000Y-5232400D03*
X+7493000Y-5232400D03*
D27*
X+7731100Y-5259900D03*
X+7731100Y-5549900D03*
D25*
X+8643416Y-4793216D03*
X+8933416Y-4793216D03*
X+467800Y-6083300D03*
X+177800Y-6083300D03*
X+1905000Y-4508500D03*
X+2195000Y-4508500D03*
X+1905000Y-4254500D03*
X+2195000Y-4254500D03*
D27*
X+2057400Y-5268400D03*
X+2057400Y-4978400D03*
X+1524000Y-4686300D03*
X+1524000Y-4976300D03*
D46*
X+1816100Y-3187700D03*
X+1816100Y-3887700D03*
D47*
X+5660311Y-2750411D03*
X+5518890Y-2608990D03*
X+5816600Y-2603500D03*
X+5675178Y-2462078D03*
D34*
X+7162800Y-2717800D03*
X+7162800Y-2517800D03*
X+7378700Y-2714600D03*
X+7378700Y-2514600D03*
D48*
X+8867800Y-2717800D03*
X+9067800Y-2717800D03*
X+8864600Y-2946400D03*
X+9064600Y-2946400D03*
D39*
X+1284200Y-2641600D03*
X+584200Y-2641600D03*
D45*
X+2552700Y-6083300D03*
X+2867660Y-6083300D03*
D25*
X+2336800Y-6083300D03*
X+2046800Y-6083300D03*
D45*
X+675640Y-5791200D03*
X+990600Y-5791200D03*
D27*
X+165100Y-5791200D03*
X+165100Y-5501200D03*
D49*
X+431800Y+1511300D03*
X+1041800Y+1511300D03*
D41*
X-1079500Y-6413500D02*
X+9715500Y-6413500D01*
X+9715500Y+2730500D01*
X-1079500Y+2730500D01*
X-1079500Y-6413500D01*
M02*
