G04 PROTEUS RS274X GERBER FILE*
%FSLAX45Y45*%
%MOMM*%
G01*
%ADD41C,0.203200*%
%ADD134C,0.127000*%
%ADD135C,0.063500*%
D41*
X+4013200Y+1115810D02*
X+4013200Y+988810D01*
X+3949700Y+1052310D02*
X+4076700Y+1052310D01*
X+3911600Y+1291786D02*
X+3911600Y+1164786D01*
X+3848100Y+1228286D02*
X+3975100Y+1228286D01*
X+4114800Y+1291786D02*
X+4114800Y+1164786D01*
X+4051300Y+1228286D02*
X+4178300Y+1228286D01*
X+3810000Y+1467762D02*
X+3810000Y+1340762D01*
X+3746500Y+1404262D02*
X+3873500Y+1404262D01*
X+4013200Y+1467762D02*
X+4013200Y+1340762D01*
X+3949700Y+1404262D02*
X+4076700Y+1404262D01*
X+3911600Y+1643738D02*
X+3911600Y+1516738D01*
X+3848100Y+1580238D02*
X+3975100Y+1580238D01*
X+3810000Y+1819714D02*
X+3810000Y+1692714D01*
X+3746500Y+1756214D02*
X+3873500Y+1756214D01*
X+3937000Y+1968500D02*
X+3937000Y+1841500D01*
X+3873500Y+1905000D02*
X+4000500Y+1905000D01*
X+8597900Y+1291786D02*
X+8597900Y+1164786D01*
X+8534400Y+1228286D02*
X+8661400Y+1228286D01*
X+8801100Y+1291786D02*
X+8801100Y+1164786D01*
X+8737600Y+1228286D02*
X+8864600Y+1228286D01*
X+8597900Y+1643738D02*
X+8597900Y+1516738D01*
X+8534400Y+1580238D02*
X+8661400Y+1580238D01*
X+8724900Y+1930400D02*
X+8724900Y+1803400D01*
X+8661400Y+1866900D02*
X+8788400Y+1866900D01*
X+6363969Y+1115810D02*
X+6363969Y+988810D01*
X+6300469Y+1052310D02*
X+6427469Y+1052310D01*
X+6262369Y+1291786D02*
X+6262369Y+1164786D01*
X+6198869Y+1228286D02*
X+6325869Y+1228286D01*
X+6465569Y+1291786D02*
X+6465569Y+1164786D01*
X+6402069Y+1228286D02*
X+6529069Y+1228286D01*
X+6160769Y+1467762D02*
X+6160769Y+1340762D01*
X+6097269Y+1404262D02*
X+6224269Y+1404262D01*
X+6363969Y+1467762D02*
X+6363969Y+1340762D01*
X+6300469Y+1404262D02*
X+6427469Y+1404262D01*
X+6262369Y+1643738D02*
X+6262369Y+1516738D01*
X+6198869Y+1580238D02*
X+6325869Y+1580238D01*
X+6160769Y+1819714D02*
X+6160769Y+1692714D01*
X+6097269Y+1756214D02*
X+6224269Y+1756214D01*
X+6286500Y+1968500D02*
X+6286500Y+1841500D01*
X+6223000Y+1905000D02*
X+6350000Y+1905000D01*
X+7747000Y-3365500D02*
X+7747000Y-3492500D01*
X+7683500Y-3429000D02*
X+7810500Y-3429000D01*
X+6428649Y-3300010D02*
X+6428649Y-3427010D01*
X+6365149Y-3363510D02*
X+6492149Y-3363510D01*
X+8305800Y+1321045D02*
X+8305800Y+1194045D01*
X+8242300Y+1257545D02*
X+8369300Y+1257545D01*
X+9067800Y+1321045D02*
X+9067800Y+1194045D01*
X+9004300Y+1257545D02*
X+9131300Y+1257545D01*
X+8509000Y+2006600D02*
X+8509000Y+1879600D01*
X+8445500Y+1943100D02*
X+8572500Y+1943100D01*
X+8559800Y+2200925D02*
X+8559800Y+2073925D01*
X+8496300Y+2137425D02*
X+8623300Y+2137425D01*
X+8813800Y+2200925D02*
X+8813800Y+2073925D01*
X+8750300Y+2137425D02*
X+8877300Y+2137425D01*
X+7519052Y-4456396D02*
X+7519052Y-4583396D01*
X+7455552Y-4519896D02*
X+7582552Y-4519896D01*
X+7874000Y-4445000D02*
X+7874000Y-4572000D01*
X+7810500Y-4508500D02*
X+7937500Y-4508500D01*
X+3811743Y-3946408D02*
X+3811743Y-4073408D01*
X+3748243Y-4009908D02*
X+3875243Y-4009908D01*
X+3810000Y-4254500D02*
X+3810000Y-4381500D01*
X+3746500Y-4318000D02*
X+3873500Y-4318000D01*
X+5384021Y-4472075D02*
X+5384021Y-4599075D01*
X+5320521Y-4535575D02*
X+5447521Y-4535575D01*
X+4283159Y-4219511D02*
X+4283159Y-4346511D01*
X+4219659Y-4283011D02*
X+4346659Y-4283011D01*
X+4826045Y-3204260D02*
X+4826045Y-3331260D01*
X+4762545Y-3267760D02*
X+4889545Y-3267760D01*
X+2667000Y-2413000D02*
X+2667000Y-2540000D01*
X+2603500Y-2476500D02*
X+2730500Y-2476500D01*
X+7543800Y-749300D02*
X+7543800Y-876300D01*
X+7480300Y-812800D02*
X+7607300Y-812800D01*
X+8127850Y-2930366D02*
X+8127850Y-3057366D01*
X+8064350Y-2993866D02*
X+8191350Y-2993866D01*
X+8118219Y-2790214D02*
X+8118219Y-2917214D01*
X+8054719Y-2853714D02*
X+8181719Y-2853714D01*
X+5249412Y-740676D02*
X+5249412Y-867676D01*
X+5185912Y-804176D02*
X+5312912Y-804176D01*
X+6696244Y-2972270D02*
X+6696244Y-3099270D01*
X+6632744Y-3035770D02*
X+6759744Y-3035770D01*
X+5257800Y-1651000D02*
X+5257800Y-1778000D01*
X+5194300Y-1714500D02*
X+5321300Y-1714500D01*
X+5905500Y-2425700D02*
X+5905500Y-2552700D01*
X+5842000Y-2489200D02*
X+5969000Y-2489200D01*
X+6698805Y-3117294D02*
X+6698805Y-3244294D01*
X+6635305Y-3180794D02*
X+6762305Y-3180794D01*
X+7664736Y-1613363D02*
X+7664736Y-1740363D01*
X+7601236Y-1676863D02*
X+7728236Y-1676863D01*
X+8826500Y+1701800D02*
X+8826500Y+1574800D01*
X+8763000Y+1638300D02*
X+8890000Y+1638300D01*
X+9105900Y+1524000D02*
X+9105900Y+1397000D01*
X+9042400Y+1460500D02*
X+9169400Y+1460500D01*
X+8802625Y-6114044D02*
X+8802625Y-6241044D01*
X+8739125Y-6177544D02*
X+8866125Y-6177544D01*
X+8064500Y-4445000D02*
X+8064500Y-4572000D01*
X+8001000Y-4508500D02*
X+8128000Y-4508500D01*
X+8001000Y-4762500D02*
X+8001000Y-4889500D01*
X+7937500Y-4826000D02*
X+8064500Y-4826000D01*
X+6286500Y-4521200D02*
X+6286500Y-4648200D01*
X+6223000Y-4584700D02*
X+6350000Y-4584700D01*
X+6604000Y-4521200D02*
X+6604000Y-4648200D01*
X+6540500Y-4584700D02*
X+6667500Y-4584700D01*
X+6153231Y-4763444D02*
X+6153231Y-4890444D01*
X+6089731Y-4826944D02*
X+6216731Y-4826944D01*
X+6778656Y-4508079D02*
X+6778656Y-4635079D01*
X+6715156Y-4571579D02*
X+6842156Y-4571579D01*
X+3944752Y-3469050D02*
X+3944752Y-3596050D01*
X+3881252Y-3532550D02*
X+4008252Y-3532550D01*
X+5431385Y-2908300D02*
X+5431385Y-3035300D01*
X+5367885Y-2971800D02*
X+5494885Y-2971800D01*
X+5842000Y-3098800D02*
X+5842000Y-3225800D01*
X+5778500Y-3162300D02*
X+5905500Y-3162300D01*
X+6883138Y-3166589D02*
X+6883138Y-3293589D01*
X+6819638Y-3230089D02*
X+6946638Y-3230089D01*
X+6832600Y-838200D02*
X+6832600Y-965200D01*
X+6769100Y-901700D02*
X+6896100Y-901700D01*
X+5249124Y-1389822D02*
X+5249124Y-1516822D01*
X+5185624Y-1453322D02*
X+5312624Y-1453322D01*
X+3850575Y+2623820D02*
X+3850575Y+2496820D01*
X+3787075Y+2560320D02*
X+3914075Y+2560320D01*
X+4104575Y+2623820D02*
X+4104575Y+2496820D01*
X+4041075Y+2560320D02*
X+4168075Y+2560320D01*
X+4358575Y+2623820D02*
X+4358575Y+2496820D01*
X+4295075Y+2560320D02*
X+4422075Y+2560320D01*
X+4612575Y+2623820D02*
X+4612575Y+2496820D01*
X+4549075Y+2560320D02*
X+4676075Y+2560320D01*
X+4866575Y+2623820D02*
X+4866575Y+2496820D01*
X+4803075Y+2560320D02*
X+4930075Y+2560320D01*
X+5120575Y+2623820D02*
X+5120575Y+2496820D01*
X+5057075Y+2560320D02*
X+5184075Y+2560320D01*
X+5374575Y+2623820D02*
X+5374575Y+2496820D01*
X+5311075Y+2560320D02*
X+5438075Y+2560320D01*
X+5628575Y+2623820D02*
X+5628575Y+2496820D01*
X+5565075Y+2560320D02*
X+5692075Y+2560320D01*
X+5882575Y+2623820D02*
X+5882575Y+2496820D01*
X+5819075Y+2560320D02*
X+5946075Y+2560320D01*
X+6136575Y+2623820D02*
X+6136575Y+2496820D01*
X+6073075Y+2560320D02*
X+6200075Y+2560320D01*
X+6390575Y+2623820D02*
X+6390575Y+2496820D01*
X+6327075Y+2560320D02*
X+6454075Y+2560320D01*
X+6644575Y+2623820D02*
X+6644575Y+2496820D01*
X+6581075Y+2560320D02*
X+6708075Y+2560320D01*
X+6898575Y+2623820D02*
X+6898575Y+2496820D01*
X+6835075Y+2560320D02*
X+6962075Y+2560320D01*
X+7152575Y+2623820D02*
X+7152575Y+2496820D01*
X+7089075Y+2560320D02*
X+7216075Y+2560320D01*
X+7406575Y+2623820D02*
X+7406575Y+2496820D01*
X+7343075Y+2560320D02*
X+7470075Y+2560320D01*
X+7660575Y+2623820D02*
X+7660575Y+2496820D01*
X+7597075Y+2560320D02*
X+7724075Y+2560320D01*
X+7914575Y+2623820D02*
X+7914575Y+2496820D01*
X+7851075Y+2560320D02*
X+7978075Y+2560320D01*
X+8168575Y+2623820D02*
X+8168575Y+2496820D01*
X+8105075Y+2560320D02*
X+8232075Y+2560320D01*
X+8422575Y+2623820D02*
X+8422575Y+2496820D01*
X+8359075Y+2560320D02*
X+8486075Y+2560320D01*
X+8676575Y+2623820D02*
X+8676575Y+2496820D01*
X+8613075Y+2560320D02*
X+8740075Y+2560320D01*
X+8930575Y+2623820D02*
X+8930575Y+2496820D01*
X+8867075Y+2560320D02*
X+8994075Y+2560320D01*
X+9545320Y+1885339D02*
X+9545320Y+1758339D01*
X+9481820Y+1821839D02*
X+9608820Y+1821839D01*
X+9545320Y+1631339D02*
X+9545320Y+1504339D01*
X+9481820Y+1567839D02*
X+9608820Y+1567839D01*
X+9545320Y+1377339D02*
X+9545320Y+1250339D01*
X+9481820Y+1313839D02*
X+9608820Y+1313839D01*
X+9545320Y-2686661D02*
X+9545320Y-2813661D01*
X+9481820Y-2750161D02*
X+9608820Y-2750161D01*
X+9545320Y-2940661D02*
X+9545320Y-3067661D01*
X+9481820Y-3004161D02*
X+9608820Y-3004161D01*
X+9545320Y-3194661D02*
X+9545320Y-3321661D01*
X+9481820Y-3258161D02*
X+9608820Y-3258161D01*
X+9545320Y-3448661D02*
X+9545320Y-3575661D01*
X+9481820Y-3512161D02*
X+9608820Y-3512161D01*
X+9545320Y-3702661D02*
X+9545320Y-3829661D01*
X+9481820Y-3766161D02*
X+9608820Y-3766161D01*
X+9545320Y-3956661D02*
X+9545320Y-4083661D01*
X+9481820Y-4020161D02*
X+9608820Y-4020161D01*
X+9545320Y-4210661D02*
X+9545320Y-4337661D01*
X+9481820Y-4274161D02*
X+9608820Y-4274161D01*
X+9545320Y-4464661D02*
X+9545320Y-4591661D01*
X+9481820Y-4528161D02*
X+9608820Y-4528161D01*
X+9545320Y-4718661D02*
X+9545320Y-4845661D01*
X+9481820Y-4782161D02*
X+9608820Y-4782161D01*
X+9545320Y-4972661D02*
X+9545320Y-5099661D01*
X+9481820Y-5036161D02*
X+9608820Y-5036161D01*
X+9545320Y-5226661D02*
X+9545320Y-5353661D01*
X+9481820Y-5290161D02*
X+9608820Y-5290161D01*
X+9545320Y-5480661D02*
X+9545320Y-5607661D01*
X+9481820Y-5544161D02*
X+9608820Y-5544161D01*
X+5430518Y-5926808D02*
X+5430518Y-6053808D01*
X+5367018Y-5990308D02*
X+5494018Y-5990308D01*
X+9113518Y-4387018D02*
X+9113518Y-4514018D01*
X+9050018Y-4450518D02*
X+9177018Y-4450518D01*
X+9367518Y-4387018D02*
X+9367518Y-4514018D01*
X+9304018Y-4450518D02*
X+9431018Y-4450518D01*
X+9240518Y-4167048D02*
X+9240518Y-4294048D01*
X+9177018Y-4230548D02*
X+9304018Y-4230548D01*
X+9367518Y-3947078D02*
X+9367518Y-4074078D01*
X+9304018Y-4010578D02*
X+9431018Y-4010578D01*
X+9240518Y-3727108D02*
X+9240518Y-3854108D01*
X+9177018Y-3790608D02*
X+9304018Y-3790608D01*
X+9367518Y-3507138D02*
X+9367518Y-3634138D01*
X+9304018Y-3570638D02*
X+9431018Y-3570638D01*
X+9240518Y-3287168D02*
X+9240518Y-3414168D01*
X+9177018Y-3350668D02*
X+9304018Y-3350668D01*
X+9367518Y-3067198D02*
X+9367518Y-3194198D01*
X+9304018Y-3130698D02*
X+9431018Y-3130698D01*
X+4795518Y+1332202D02*
X+4795518Y+1205202D01*
X+4732018Y+1268702D02*
X+4859018Y+1268702D01*
X+5049518Y+1332202D02*
X+5049518Y+1205202D01*
X+4986018Y+1268702D02*
X+5113018Y+1268702D01*
X+5303518Y+1332202D02*
X+5303518Y+1205202D01*
X+5240018Y+1268702D02*
X+5367018Y+1268702D01*
X+5557518Y+1332202D02*
X+5557518Y+1205202D01*
X+5494018Y+1268702D02*
X+5621018Y+1268702D01*
X+5811518Y+1332202D02*
X+5811518Y+1205202D01*
X+5748018Y+1268702D02*
X+5875018Y+1268702D01*
X+7335518Y+1332202D02*
X+7335518Y+1205202D01*
X+7272018Y+1268702D02*
X+7399018Y+1268702D01*
X+7589518Y+1332202D02*
X+7589518Y+1205202D01*
X+7526018Y+1268702D02*
X+7653018Y+1268702D01*
X+4922518Y+1552172D02*
X+4922518Y+1425172D01*
X+4859018Y+1488672D02*
X+4986018Y+1488672D01*
X+5176518Y+1552172D02*
X+5176518Y+1425172D01*
X+5113018Y+1488672D02*
X+5240018Y+1488672D01*
X+5430518Y+1552172D02*
X+5430518Y+1425172D01*
X+5367018Y+1488672D02*
X+5494018Y+1488672D01*
X+5684518Y+1552172D02*
X+5684518Y+1425172D01*
X+5621018Y+1488672D02*
X+5748018Y+1488672D01*
X+7208518Y+1552172D02*
X+7208518Y+1425172D01*
X+7145018Y+1488672D02*
X+7272018Y+1488672D01*
X+7462518Y+1552172D02*
X+7462518Y+1425172D01*
X+7399018Y+1488672D02*
X+7526018Y+1488672D01*
X+7716518Y+1552172D02*
X+7716518Y+1425172D01*
X+7653018Y+1488672D02*
X+7780018Y+1488672D01*
X+4795518Y+1772142D02*
X+4795518Y+1645142D01*
X+4732018Y+1708642D02*
X+4859018Y+1708642D01*
X+5049518Y+1772142D02*
X+5049518Y+1645142D01*
X+4986018Y+1708642D02*
X+5113018Y+1708642D01*
X+5303518Y+1772142D02*
X+5303518Y+1645142D01*
X+5240018Y+1708642D02*
X+5367018Y+1708642D01*
X+5557518Y+1772142D02*
X+5557518Y+1645142D01*
X+5494018Y+1708642D02*
X+5621018Y+1708642D01*
X+5811518Y+1772142D02*
X+5811518Y+1645142D01*
X+5748018Y+1708642D02*
X+5875018Y+1708642D01*
X+7335518Y+1772142D02*
X+7335518Y+1645142D01*
X+7272018Y+1708642D02*
X+7399018Y+1708642D01*
X+7589518Y+1772142D02*
X+7589518Y+1645142D01*
X+7526018Y+1708642D02*
X+7653018Y+1708642D01*
X+4922518Y+1992112D02*
X+4922518Y+1865112D01*
X+4859018Y+1928612D02*
X+4986018Y+1928612D01*
X+5176518Y+1992112D02*
X+5176518Y+1865112D01*
X+5113018Y+1928612D02*
X+5240018Y+1928612D01*
X+5430518Y+1992112D02*
X+5430518Y+1865112D01*
X+5367018Y+1928612D02*
X+5494018Y+1928612D01*
X+5684518Y+1992112D02*
X+5684518Y+1865112D01*
X+5621018Y+1928612D02*
X+5748018Y+1928612D01*
X+7208518Y+1992112D02*
X+7208518Y+1865112D01*
X+7145018Y+1928612D02*
X+7272018Y+1928612D01*
X+7462518Y+1992112D02*
X+7462518Y+1865112D01*
X+7399018Y+1928612D02*
X+7526018Y+1928612D01*
X+7716518Y+1992112D02*
X+7716518Y+1865112D01*
X+7653018Y+1928612D02*
X+7780018Y+1928612D01*
X+4795518Y+2212082D02*
X+4795518Y+2085082D01*
X+4732018Y+2148582D02*
X+4859018Y+2148582D01*
X+5049518Y+2212082D02*
X+5049518Y+2085082D01*
X+4986018Y+2148582D02*
X+5113018Y+2148582D01*
X+5303518Y+2212082D02*
X+5303518Y+2085082D01*
X+5240018Y+2148582D02*
X+5367018Y+2148582D01*
X+5557518Y+2212082D02*
X+5557518Y+2085082D01*
X+5494018Y+2148582D02*
X+5621018Y+2148582D01*
X+5811518Y+2212082D02*
X+5811518Y+2085082D01*
X+5748018Y+2148582D02*
X+5875018Y+2148582D01*
X+7335518Y+2212082D02*
X+7335518Y+2085082D01*
X+7272018Y+2148582D02*
X+7399018Y+2148582D01*
X+7589518Y+2212082D02*
X+7589518Y+2085082D01*
X+7526018Y+2148582D02*
X+7653018Y+2148582D01*
X+4922518Y+2432052D02*
X+4922518Y+2305052D01*
X+4859018Y+2368552D02*
X+4986018Y+2368552D01*
X+5176518Y+2432052D02*
X+5176518Y+2305052D01*
X+5113018Y+2368552D02*
X+5240018Y+2368552D01*
X+5430518Y+2432052D02*
X+5430518Y+2305052D01*
X+5367018Y+2368552D02*
X+5494018Y+2368552D01*
X+5684518Y+2432052D02*
X+5684518Y+2305052D01*
X+5621018Y+2368552D02*
X+5748018Y+2368552D01*
X+7208518Y+2432052D02*
X+7208518Y+2305052D01*
X+7145018Y+2368552D02*
X+7272018Y+2368552D01*
X+7462518Y+2432052D02*
X+7462518Y+2305052D01*
X+7399018Y+2368552D02*
X+7526018Y+2368552D01*
X+7716518Y+2432052D02*
X+7716518Y+2305052D01*
X+7653018Y+2368552D02*
X+7780018Y+2368552D01*
X+5249412Y-1390650D02*
X+5249412Y-1517650D01*
X+5185912Y-1454150D02*
X+5312912Y-1454150D01*
X+7545632Y-1391130D02*
X+7545632Y-1518130D01*
X+7482132Y-1454630D02*
X+7609132Y-1454630D01*
X+2602489Y-5557543D02*
X+2602489Y-5684543D01*
X+2538989Y-5621043D02*
X+2665989Y-5621043D01*
X+7226300Y+1079500D02*
X+7226300Y+952500D01*
X+7162800Y+1016000D02*
X+7289800Y+1016000D01*
X+7213600Y+190500D02*
X+7213600Y+63500D01*
X+7150100Y+127000D02*
X+7277100Y+127000D01*
X+4940300Y+1079500D02*
X+4940300Y+952500D01*
X+4876800Y+1016000D02*
X+5003800Y+1016000D01*
X+4889500Y+190500D02*
X+4889500Y+63500D01*
X+4826000Y+127000D02*
X+4953000Y+127000D01*
X+9321800Y+0D02*
X+9321800Y-127000D01*
X+9258300Y-63500D02*
X+9385300Y-63500D01*
X+9499600Y+1079500D02*
X+9499600Y+952500D01*
X+9436100Y+1016000D02*
X+9563100Y+1016000D01*
X+8831424Y-5363706D02*
X+8831424Y-5490706D01*
X+8767924Y-5427206D02*
X+8894924Y-5427206D01*
X+3034848Y-1188486D02*
X+3034848Y-1315486D01*
X+2971348Y-1251986D02*
X+3098348Y-1251986D01*
X+3576345Y-2579622D02*
X+3576345Y-2706622D01*
X+3512845Y-2643122D02*
X+3639845Y-2643122D01*
X+4818888Y-2861788D02*
X+4818888Y-2988788D01*
X+4755388Y-2925288D02*
X+4882388Y-2925288D01*
X+9016999Y+1900537D02*
X+9016999Y+1773537D01*
X+8953499Y+1837037D02*
X+9080499Y+1837037D01*
X+8127999Y+2120507D02*
X+8127999Y+1993507D01*
X+8064499Y+2057007D02*
X+8191499Y+2057007D01*
X+8381999Y+2120507D02*
X+8381999Y+1993507D01*
X+8318499Y+2057007D02*
X+8445499Y+2057007D01*
X+3924300Y+2168792D02*
X+3924300Y+2041792D01*
X+3860800Y+2105292D02*
X+3987800Y+2105292D01*
X+4152900Y+2168792D02*
X+4152900Y+2041792D01*
X+4089400Y+2105292D02*
X+4216400Y+2105292D01*
X+4381500Y+2168792D02*
X+4381500Y+2041792D01*
X+4318000Y+2105292D02*
X+4445000Y+2105292D01*
X+6273914Y+2203298D02*
X+6273914Y+2076298D01*
X+6210414Y+2139798D02*
X+6337414Y+2139798D01*
X+6502514Y+2203298D02*
X+6502514Y+2076298D01*
X+6439014Y+2139798D02*
X+6566014Y+2139798D01*
X+6731114Y+2203298D02*
X+6731114Y+2076298D01*
X+6667614Y+2139798D02*
X+6794614Y+2139798D01*
X+3500118Y-4562994D02*
X+3500118Y-4689994D01*
X+3436618Y-4626494D02*
X+3563618Y-4626494D01*
X+7157718Y+1772142D02*
X+7157718Y+1645142D01*
X+7094218Y+1708642D02*
X+7221218Y+1708642D01*
X+7767318Y+1772142D02*
X+7767318Y+1645142D01*
X+7703818Y+1708642D02*
X+7830818Y+1708642D01*
X+4719318Y+2476046D02*
X+4719318Y+2349046D01*
X+4655818Y+2412546D02*
X+4782818Y+2412546D01*
X+1021080Y+1905196D02*
X+1021080Y+1778196D01*
X+957580Y+1841696D02*
X+1084580Y+1841696D01*
X+1224280Y+1905196D02*
X+1224280Y+1778196D01*
X+1160780Y+1841696D02*
X+1287780Y+1841696D01*
X+1427480Y+1905196D02*
X+1427480Y+1778196D01*
X+1363980Y+1841696D02*
X+1490980Y+1841696D01*
X+1630680Y+1905196D02*
X+1630680Y+1778196D01*
X+1567180Y+1841696D02*
X+1694180Y+1841696D01*
X+1833880Y+1905196D02*
X+1833880Y+1778196D01*
X+1770380Y+1841696D02*
X+1897380Y+1841696D01*
X+513080Y+2081172D02*
X+513080Y+1954172D01*
X+449580Y+2017672D02*
X+576580Y+2017672D01*
X+716280Y+2081172D02*
X+716280Y+1954172D01*
X+652780Y+2017672D02*
X+779780Y+2017672D01*
X+919480Y+2081172D02*
X+919480Y+1954172D01*
X+855980Y+2017672D02*
X+982980Y+2017672D01*
X+1122680Y+2081172D02*
X+1122680Y+1954172D01*
X+1059180Y+2017672D02*
X+1186180Y+2017672D01*
X+1325880Y+2081172D02*
X+1325880Y+1954172D01*
X+1262380Y+2017672D02*
X+1389380Y+2017672D01*
X+1529080Y+2081172D02*
X+1529080Y+1954172D01*
X+1465580Y+2017672D02*
X+1592580Y+2017672D01*
X+1732280Y+2081172D02*
X+1732280Y+1954172D01*
X+1668780Y+2017672D02*
X+1795780Y+2017672D01*
X+411480Y+2609100D02*
X+411480Y+2482100D01*
X+347980Y+2545600D02*
X+474980Y+2545600D01*
X+614680Y+2609100D02*
X+614680Y+2482100D01*
X+551180Y+2545600D02*
X+678180Y+2545600D01*
X+817880Y+2609100D02*
X+817880Y+2482100D01*
X+754380Y+2545600D02*
X+881380Y+2545600D01*
X+1021080Y+2609100D02*
X+1021080Y+2482100D01*
X+957580Y+2545600D02*
X+1084580Y+2545600D01*
X+1224280Y+2609100D02*
X+1224280Y+2482100D01*
X+1160780Y+2545600D02*
X+1287780Y+2545600D01*
X+1427480Y+2609100D02*
X+1427480Y+2482100D01*
X+1363980Y+2545600D02*
X+1490980Y+2545600D01*
X+1630680Y+2609100D02*
X+1630680Y+2482100D01*
X+1567180Y+2545600D02*
X+1694180Y+2545600D01*
X+1833880Y+2609100D02*
X+1833880Y+2482100D01*
X+1770380Y+2545600D02*
X+1897380Y+2545600D01*
X+886143Y-203166D02*
X+886143Y-330166D01*
X+822643Y-266666D02*
X+949643Y-266666D01*
X+1089343Y-203166D02*
X+1089343Y-330166D01*
X+1025843Y-266666D02*
X+1152843Y-266666D01*
X+1292543Y-203166D02*
X+1292543Y-330166D01*
X+1229043Y-266666D02*
X+1356043Y-266666D01*
X+2308543Y-203166D02*
X+2308543Y-330166D01*
X+2245043Y-266666D02*
X+2372043Y-266666D01*
X+2511743Y-203166D02*
X+2511743Y-330166D01*
X+2448243Y-266666D02*
X+2575243Y-266666D01*
X+2714943Y-203166D02*
X+2714943Y-330166D01*
X+2651443Y-266666D02*
X+2778443Y-266666D01*
X+2918143Y-203166D02*
X+2918143Y-330166D01*
X+2854643Y-266666D02*
X+2981643Y-266666D01*
X+2410143Y-27190D02*
X+2410143Y-154190D01*
X+2346643Y-90690D02*
X+2473643Y-90690D01*
X+2613343Y-27190D02*
X+2613343Y-154190D01*
X+2549843Y-90690D02*
X+2676843Y-90690D01*
X+2816543Y-27190D02*
X+2816543Y-154190D01*
X+2753043Y-90690D02*
X+2880043Y-90690D01*
X+3019743Y-27190D02*
X+3019743Y-154190D01*
X+2956243Y-90690D02*
X+3083243Y-90690D01*
X+886143Y+148786D02*
X+886143Y+21786D01*
X+822643Y+85286D02*
X+949643Y+85286D01*
X+1089343Y+148786D02*
X+1089343Y+21786D01*
X+1025843Y+85286D02*
X+1152843Y+85286D01*
X+1292543Y+148786D02*
X+1292543Y+21786D01*
X+1229043Y+85286D02*
X+1356043Y+85286D01*
X+1495743Y+148786D02*
X+1495743Y+21786D01*
X+1432243Y+85286D02*
X+1559243Y+85286D01*
X+2308543Y+148786D02*
X+2308543Y+21786D01*
X+2245043Y+85286D02*
X+2372043Y+85286D01*
X+2511743Y+148786D02*
X+2511743Y+21786D01*
X+2448243Y+85286D02*
X+2575243Y+85286D01*
X+2714943Y+148786D02*
X+2714943Y+21786D01*
X+2651443Y+85286D02*
X+2778443Y+85286D01*
X+1190943Y+324762D02*
X+1190943Y+197762D01*
X+1127443Y+261262D02*
X+1254443Y+261262D01*
X+1394143Y+324762D02*
X+1394143Y+197762D01*
X+1330643Y+261262D02*
X+1457643Y+261262D01*
X+1597343Y+324762D02*
X+1597343Y+197762D01*
X+1533843Y+261262D02*
X+1660843Y+261262D01*
X+1800543Y+324762D02*
X+1800543Y+197762D01*
X+1737043Y+261262D02*
X+1864043Y+261262D01*
X+2003743Y+324762D02*
X+2003743Y+197762D01*
X+1940243Y+261262D02*
X+2067243Y+261262D01*
X+2613343Y+324762D02*
X+2613343Y+197762D01*
X+2549843Y+261262D02*
X+2676843Y+261262D01*
X+1292543Y+500738D02*
X+1292543Y+373738D01*
X+1229043Y+437238D02*
X+1356043Y+437238D01*
X+1495743Y+500738D02*
X+1495743Y+373738D01*
X+1432243Y+437238D02*
X+1559243Y+437238D01*
X+1698943Y+500738D02*
X+1698943Y+373738D01*
X+1635443Y+437238D02*
X+1762443Y+437238D01*
X+1902143Y+500738D02*
X+1902143Y+373738D01*
X+1838643Y+437238D02*
X+1965643Y+437238D01*
X+2105343Y+500738D02*
X+2105343Y+373738D01*
X+2041843Y+437238D02*
X+2168843Y+437238D01*
X+4137343Y+500738D02*
X+4137343Y+373738D01*
X+4073843Y+437238D02*
X+4200843Y+437238D01*
X+4340543Y+500738D02*
X+4340543Y+373738D01*
X+4277043Y+437238D02*
X+4404043Y+437238D01*
X+4543743Y+500738D02*
X+4543743Y+373738D01*
X+4480243Y+437238D02*
X+4607243Y+437238D01*
X+4746943Y+500738D02*
X+4746943Y+373738D01*
X+4683443Y+437238D02*
X+4810443Y+437238D01*
X+6372543Y+500738D02*
X+6372543Y+373738D01*
X+6309043Y+437238D02*
X+6436043Y+437238D01*
X+6575743Y+500738D02*
X+6575743Y+373738D01*
X+6512243Y+437238D02*
X+6639243Y+437238D01*
X+6778943Y+500738D02*
X+6778943Y+373738D01*
X+6715443Y+437238D02*
X+6842443Y+437238D01*
X+6982143Y+500738D02*
X+6982143Y+373738D01*
X+6918643Y+437238D02*
X+7045643Y+437238D01*
X+8810943Y+500738D02*
X+8810943Y+373738D01*
X+8747443Y+437238D02*
X+8874443Y+437238D01*
X+9014143Y+500738D02*
X+9014143Y+373738D01*
X+8950643Y+437238D02*
X+9077643Y+437238D01*
X+1190943Y+676714D02*
X+1190943Y+549714D01*
X+1127443Y+613214D02*
X+1254443Y+613214D01*
X+1394143Y+676714D02*
X+1394143Y+549714D01*
X+1330643Y+613214D02*
X+1457643Y+613214D01*
X+1597343Y+676714D02*
X+1597343Y+549714D01*
X+1533843Y+613214D02*
X+1660843Y+613214D01*
X+1800543Y+676714D02*
X+1800543Y+549714D01*
X+1737043Y+613214D02*
X+1864043Y+613214D01*
X+2003743Y+676714D02*
X+2003743Y+549714D01*
X+1940243Y+613214D02*
X+2067243Y+613214D01*
X+2206943Y+676714D02*
X+2206943Y+549714D01*
X+2143443Y+613214D02*
X+2270443Y+613214D01*
X+2410143Y+676714D02*
X+2410143Y+549714D01*
X+2346643Y+613214D02*
X+2473643Y+613214D01*
X+8709343Y+676714D02*
X+8709343Y+549714D01*
X+8645843Y+613214D02*
X+8772843Y+613214D01*
X+8912543Y+676714D02*
X+8912543Y+549714D01*
X+8849043Y+613214D02*
X+8976043Y+613214D01*
X+1089343Y+852690D02*
X+1089343Y+725690D01*
X+1025843Y+789190D02*
X+1152843Y+789190D01*
X+1292543Y+852690D02*
X+1292543Y+725690D01*
X+1229043Y+789190D02*
X+1356043Y+789190D01*
X+1495743Y+852690D02*
X+1495743Y+725690D01*
X+1432243Y+789190D02*
X+1559243Y+789190D01*
X+1698943Y+852690D02*
X+1698943Y+725690D01*
X+1635443Y+789190D02*
X+1762443Y+789190D01*
X+1902143Y+852690D02*
X+1902143Y+725690D01*
X+1838643Y+789190D02*
X+1965643Y+789190D01*
X+2105343Y+852690D02*
X+2105343Y+725690D01*
X+2041843Y+789190D02*
X+2168843Y+789190D01*
X+2308543Y+852690D02*
X+2308543Y+725690D01*
X+2245043Y+789190D02*
X+2372043Y+789190D01*
X+2511743Y+852690D02*
X+2511743Y+725690D01*
X+2448243Y+789190D02*
X+2575243Y+789190D01*
X+2714943Y+852690D02*
X+2714943Y+725690D01*
X+2651443Y+789190D02*
X+2778443Y+789190D01*
X+987743Y+1028666D02*
X+987743Y+901666D01*
X+924243Y+965166D02*
X+1051243Y+965166D01*
X+1190943Y+1028666D02*
X+1190943Y+901666D01*
X+1127443Y+965166D02*
X+1254443Y+965166D01*
X+1394143Y+1028666D02*
X+1394143Y+901666D01*
X+1330643Y+965166D02*
X+1457643Y+965166D01*
X+1597343Y+1028666D02*
X+1597343Y+901666D01*
X+1533843Y+965166D02*
X+1660843Y+965166D01*
X+1800543Y+1028666D02*
X+1800543Y+901666D01*
X+1737043Y+965166D02*
X+1864043Y+965166D01*
X+2003743Y+1028666D02*
X+2003743Y+901666D01*
X+1940243Y+965166D02*
X+2067243Y+965166D01*
X+2206943Y+1028666D02*
X+2206943Y+901666D01*
X+2143443Y+965166D02*
X+2270443Y+965166D01*
X+2410143Y+1028666D02*
X+2410143Y+901666D01*
X+2346643Y+965166D02*
X+2473643Y+965166D01*
X+2613343Y+1028666D02*
X+2613343Y+901666D01*
X+2549843Y+965166D02*
X+2676843Y+965166D01*
X+1292543Y+1204642D02*
X+1292543Y+1077642D01*
X+1229043Y+1141142D02*
X+1356043Y+1141142D01*
X+1495743Y+1204642D02*
X+1495743Y+1077642D01*
X+1432243Y+1141142D02*
X+1559243Y+1141142D01*
X+1698943Y+1204642D02*
X+1698943Y+1077642D01*
X+1635443Y+1141142D02*
X+1762443Y+1141142D01*
X+1902143Y+1204642D02*
X+1902143Y+1077642D01*
X+1838643Y+1141142D02*
X+1965643Y+1141142D01*
X+2105343Y+1204642D02*
X+2105343Y+1077642D01*
X+2041843Y+1141142D02*
X+2168843Y+1141142D01*
X+2308543Y+1204642D02*
X+2308543Y+1077642D01*
X+2245043Y+1141142D02*
X+2372043Y+1141142D01*
X+2511743Y+1204642D02*
X+2511743Y+1077642D01*
X+2448243Y+1141142D02*
X+2575243Y+1141142D01*
X+2714943Y+1204642D02*
X+2714943Y+1077642D01*
X+2651443Y+1141142D02*
X+2778443Y+1141142D01*
X+2918143Y+1204642D02*
X+2918143Y+1077642D01*
X+2854643Y+1141142D02*
X+2981643Y+1141142D01*
X+3121343Y+1204642D02*
X+3121343Y+1077642D01*
X+3057843Y+1141142D02*
X+3184843Y+1141142D01*
X+3324543Y+1204642D02*
X+3324543Y+1077642D01*
X+3261043Y+1141142D02*
X+3388043Y+1141142D01*
X+3527743Y+1204642D02*
X+3527743Y+1077642D01*
X+3464243Y+1141142D02*
X+3591243Y+1141142D01*
X+2410143Y+1380618D02*
X+2410143Y+1253618D01*
X+2346643Y+1317118D02*
X+2473643Y+1317118D01*
X+2613343Y+1380618D02*
X+2613343Y+1253618D01*
X+2549843Y+1317118D02*
X+2676843Y+1317118D01*
X+2816543Y+1380618D02*
X+2816543Y+1253618D01*
X+2753043Y+1317118D02*
X+2880043Y+1317118D01*
X+3019743Y+1380618D02*
X+3019743Y+1253618D01*
X+2956243Y+1317118D02*
X+3083243Y+1317118D01*
X+3222943Y+1380618D02*
X+3222943Y+1253618D01*
X+3159443Y+1317118D02*
X+3286443Y+1317118D01*
X+3426143Y+1380618D02*
X+3426143Y+1253618D01*
X+3362643Y+1317118D02*
X+3489643Y+1317118D01*
X+10160Y+156048D02*
X+10160Y+29048D01*
X-53340Y+92548D02*
X+73660Y+92548D01*
X+111760Y+332024D02*
X+111760Y+205024D01*
X+48260Y+268524D02*
X+175260Y+268524D01*
X+7828280Y+1380955D02*
X+7828280Y+1253955D01*
X+7764780Y+1317455D02*
X+7891780Y+1317455D01*
X+2748280Y+1732907D02*
X+2748280Y+1605907D01*
X+2684780Y+1669407D02*
X+2811780Y+1669407D01*
X+2951480Y+1732907D02*
X+2951480Y+1605907D01*
X+2887980Y+1669407D02*
X+3014980Y+1669407D01*
X+3154680Y+1732907D02*
X+3154680Y+1605907D01*
X+3091180Y+1669407D02*
X+3218180Y+1669407D01*
X+3357880Y+1732907D02*
X+3357880Y+1605907D01*
X+3294380Y+1669407D02*
X+3421380Y+1669407D01*
X+3256280Y+1908883D02*
X+3256280Y+1781883D01*
X+3192780Y+1845383D02*
X+3319780Y+1845383D01*
X+3459480Y+1908883D02*
X+3459480Y+1781883D01*
X+3395980Y+1845383D02*
X+3522980Y+1845383D01*
X+7117080Y+2260835D02*
X+7117080Y+2133835D01*
X+7053580Y+2197335D02*
X+7180580Y+2197335D01*
X+3459480Y+2612787D02*
X+3459480Y+2485787D01*
X+3395980Y+2549287D02*
X+3522980Y+2549287D01*
X+3662680Y+2612787D02*
X+3662680Y+2485787D01*
X+3599180Y+2549287D02*
X+3726180Y+2549287D01*
X+4191000Y-3886200D02*
X+4191000Y-4013200D01*
X+4127500Y-3949700D02*
X+4254500Y-3949700D01*
X+3472115Y-5433769D02*
X+3472115Y-5560769D01*
X+3408615Y-5497269D02*
X+3535615Y-5497269D01*
X+3671704Y-5821700D02*
X+3671704Y-5948700D01*
X+3608204Y-5885200D02*
X+3735204Y-5885200D01*
X+2130561Y-1239777D02*
X+2130561Y-1366777D01*
X+2067061Y-1303277D02*
X+2194061Y-1303277D01*
X+2915774Y-1346217D02*
X+2915774Y-1473217D01*
X+2852274Y-1409717D02*
X+2979274Y-1409717D01*
X+4292600Y-1968500D02*
X+4292600Y-2095500D01*
X+4229100Y-2032000D02*
X+4356100Y-2032000D01*
X+4895850Y-4883150D02*
X+4895850Y-5010150D01*
X+4832350Y-4946650D02*
X+4959350Y-4946650D01*
X+3145817Y-5269603D02*
X+3145817Y-5396603D01*
X+3082317Y-5333103D02*
X+3209317Y-5333103D01*
X+4152900Y-1968500D02*
X+4152900Y-2095500D01*
X+4089400Y-2032000D02*
X+4216400Y-2032000D01*
X+4752309Y-4701509D02*
X+4752309Y-4828509D01*
X+4688809Y-4765009D02*
X+4815809Y-4765009D01*
X+3302000Y-5143500D02*
X+3302000Y-5270500D01*
X+3238500Y-5207000D02*
X+3365500Y-5207000D01*
X+716280Y+1729220D02*
X+716280Y+1602220D01*
X+652780Y+1665720D02*
X+779780Y+1665720D01*
X+2341880Y+1729220D02*
X+2341880Y+1602220D01*
X+2278380Y+1665720D02*
X+2405380Y+1665720D01*
X+411480Y+1905196D02*
X+411480Y+1778196D01*
X+347980Y+1841696D02*
X+474980Y+1841696D01*
X+614680Y+1905196D02*
X+614680Y+1778196D01*
X+551180Y+1841696D02*
X+678180Y+1841696D01*
X+817880Y+1905196D02*
X+817880Y+1778196D01*
X+754380Y+1841696D02*
X+881380Y+1841696D01*
X-701040Y-332375D02*
X-701040Y-459375D01*
X-764540Y-395875D02*
X-637540Y-395875D01*
X-497840Y-332375D02*
X-497840Y-459375D01*
X-561340Y-395875D02*
X-434340Y-395875D01*
X-904240Y+371529D02*
X-904240Y+244529D01*
X-967740Y+308029D02*
X-840740Y+308029D01*
X-193040Y+1251409D02*
X-193040Y+1124409D01*
X-256540Y+1187909D02*
X-129540Y+1187909D01*
X-96520Y-6138165D02*
X-96520Y-6265165D01*
X-160020Y-6201665D02*
X-33020Y-6201665D01*
X+1224280Y-5610237D02*
X+1224280Y-5737237D01*
X+1160780Y-5673737D02*
X+1287780Y-5673737D01*
X+3256280Y-5610237D02*
X+3256280Y-5737237D01*
X+3192780Y-5673737D02*
X+3319780Y-5673737D01*
X+716280Y-5434261D02*
X+716280Y-5561261D01*
X+652780Y-5497761D02*
X+779780Y-5497761D01*
X+1325880Y-5434261D02*
X+1325880Y-5561261D01*
X+1262380Y-5497761D02*
X+1389380Y-5497761D01*
X+3459480Y+2132707D02*
X+3459480Y+2005707D01*
X+3395980Y+2069207D02*
X+3522980Y+2069207D01*
X+7828280Y+2308683D02*
X+7828280Y+2181683D01*
X+7764780Y+2245183D02*
X+7891780Y+2245183D01*
X-5081Y-485313D02*
X-5081Y-612313D01*
X-68581Y-548813D02*
X+58419Y-548813D01*
X+4889499Y+416562D02*
X+4889499Y+289562D01*
X+4825999Y+353062D02*
X+4952999Y+353062D01*
X+4056379Y+777312D02*
X+4056379Y+650312D01*
X+3992879Y+713812D02*
X+4119879Y+713812D01*
X+4264659Y+777312D02*
X+4264659Y+650312D01*
X+4201159Y+713812D02*
X+4328159Y+713812D01*
X+4472939Y+777312D02*
X+4472939Y+650312D01*
X+4409439Y+713812D02*
X+4536439Y+713812D01*
X+4681219Y+777312D02*
X+4681219Y+650312D01*
X+4617719Y+713812D02*
X+4744719Y+713812D01*
X+4889499Y+777312D02*
X+4889499Y+650312D01*
X+4825999Y+713812D02*
X+4952999Y+713812D01*
X+6347459Y+777312D02*
X+6347459Y+650312D01*
X+6283959Y+713812D02*
X+6410959Y+713812D01*
X+6555739Y+777312D02*
X+6555739Y+650312D01*
X+6492239Y+713812D02*
X+6619239Y+713812D01*
X+6764019Y+777312D02*
X+6764019Y+650312D01*
X+6700519Y+713812D02*
X+6827519Y+713812D01*
X+6972299Y+777312D02*
X+6972299Y+650312D01*
X+6908799Y+713812D02*
X+7035799Y+713812D01*
X+7180579Y+777312D02*
X+7180579Y+650312D01*
X+7117079Y+713812D02*
X+7244079Y+713812D01*
X+9055099Y+777312D02*
X+9055099Y+650312D01*
X+8991599Y+713812D02*
X+9118599Y+713812D01*
X+619759Y+957687D02*
X+619759Y+830687D01*
X+556259Y+894187D02*
X+683259Y+894187D01*
X+828039Y+957687D02*
X+828039Y+830687D01*
X+764539Y+894187D02*
X+891539Y+894187D01*
X-492760Y+1718222D02*
X-492760Y+1591222D01*
X-556260Y+1654722D02*
X-429260Y+1654722D01*
X-284480Y+1718222D02*
X-284480Y+1591222D01*
X-347980Y+1654722D02*
X-220980Y+1654722D01*
X-76200Y+1718222D02*
X-76200Y+1591222D01*
X-139700Y+1654722D02*
X-12700Y+1654722D01*
X+2319020Y+1898597D02*
X+2319020Y+1771597D01*
X+2255520Y+1835097D02*
X+2382520Y+1835097D01*
X+3881120Y-5956346D02*
X+3881120Y-6083346D01*
X+3817620Y-6019846D02*
X+3944620Y-6019846D01*
X+3360420Y-5775971D02*
X+3360420Y-5902971D01*
X+3296920Y-5839471D02*
X+3423920Y-5839471D01*
X+9192260Y-5415221D02*
X+9192260Y-5542221D01*
X+9128760Y-5478721D02*
X+9255760Y-5478721D01*
X+1485900Y-4332971D02*
X+1485900Y-4459971D01*
X+1422400Y-4396471D02*
X+1549400Y-4396471D01*
X+3464560Y+2340904D02*
X+3464560Y+2213904D01*
X+3401060Y+2277404D02*
X+3528060Y+2277404D01*
X+1277620Y-5243141D02*
X+1277620Y-5370141D01*
X+1214120Y-5306641D02*
X+1341120Y-5306641D01*
X+1173480Y-4341266D02*
X+1173480Y-4468266D01*
X+1109980Y-4404766D02*
X+1236980Y-4404766D01*
X+5859780Y+1611109D02*
X+5859780Y+1484109D01*
X+5796280Y+1547609D02*
X+5923280Y+1547609D01*
X+5859780Y+1971859D02*
X+5859780Y+1844859D01*
X+5796280Y+1908359D02*
X+5923280Y+1908359D01*
X-357008Y-364394D02*
X-357008Y-491394D01*
X-420508Y-427894D02*
X-293508Y-427894D01*
X-706169Y+469900D02*
X-706169Y+342900D01*
X-769669Y+406400D02*
X-642669Y+406400D01*
X-497889Y+469900D02*
X-497889Y+342900D01*
X-561389Y+406400D02*
X-434389Y+406400D01*
X-297392Y+526304D02*
X-297392Y+399304D01*
X-360892Y+462804D02*
X-233892Y+462804D01*
X-279400Y+942085D02*
X-279400Y+815085D01*
X-342900Y+878585D02*
X-215900Y+878585D01*
X-279400Y+1150365D02*
X-279400Y+1023365D01*
X-342900Y+1086865D02*
X-215900Y+1086865D01*
X-279400Y+1358645D02*
X-279400Y+1231645D01*
X-342900Y+1295145D02*
X-215900Y+1295145D01*
X+3913451Y-793744D02*
X+3913451Y-920744D01*
X+3849951Y-857244D02*
X+3976951Y-857244D01*
X+4116651Y-793744D02*
X+4116651Y-920744D01*
X+4053151Y-857244D02*
X+4180151Y-857244D01*
X+3405451Y-617768D02*
X+3405451Y-744768D01*
X+3341951Y-681268D02*
X+3468951Y-681268D01*
X+3811851Y-617768D02*
X+3811851Y-744768D01*
X+3748351Y-681268D02*
X+3875351Y-681268D01*
X+4015051Y-617768D02*
X+4015051Y-744768D01*
X+3951551Y-681268D02*
X+4078551Y-681268D01*
X+3913451Y-441792D02*
X+3913451Y-568792D01*
X+3849951Y-505292D02*
X+3976951Y-505292D01*
X+4116651Y-441792D02*
X+4116651Y-568792D01*
X+4053151Y-505292D02*
X+4180151Y-505292D01*
X+3405451Y-265816D02*
X+3405451Y-392816D01*
X+3341951Y-329316D02*
X+3468951Y-329316D01*
X+3608651Y-265816D02*
X+3608651Y-392816D01*
X+3545151Y-329316D02*
X+3672151Y-329316D01*
X+3811851Y-265816D02*
X+3811851Y-392816D01*
X+3748351Y-329316D02*
X+3875351Y-329316D01*
X+4015051Y-265816D02*
X+4015051Y-392816D01*
X+3951551Y-329316D02*
X+4078551Y-329316D01*
X+3507051Y-89840D02*
X+3507051Y-216840D01*
X+3443551Y-153340D02*
X+3570551Y-153340D01*
X+3710251Y-89840D02*
X+3710251Y-216840D01*
X+3646751Y-153340D02*
X+3773751Y-153340D01*
X+3913451Y-89840D02*
X+3913451Y-216840D01*
X+3849951Y-153340D02*
X+3976951Y-153340D01*
X+4116651Y-89840D02*
X+4116651Y-216840D01*
X+4053151Y-153340D02*
X+4180151Y-153340D01*
X+5697295Y-1567585D02*
X+5697295Y-1694585D01*
X+5633795Y-1631085D02*
X+5760795Y-1631085D01*
X+5595695Y-1391609D02*
X+5595695Y-1518609D01*
X+5532195Y-1455109D02*
X+5659195Y-1455109D01*
X+5494095Y-1215633D02*
X+5494095Y-1342633D01*
X+5430595Y-1279133D02*
X+5557595Y-1279133D01*
X+5697295Y-1215633D02*
X+5697295Y-1342633D01*
X+5633795Y-1279133D02*
X+5760795Y-1279133D01*
X+6205295Y-687705D02*
X+6205295Y-814705D01*
X+6141795Y-751205D02*
X+6268795Y-751205D01*
X+6408495Y-687705D02*
X+6408495Y-814705D01*
X+6344995Y-751205D02*
X+6471995Y-751205D01*
X+6306895Y-511729D02*
X+6306895Y-638729D01*
X+6243395Y-575229D02*
X+6370395Y-575229D01*
X+6510095Y-511729D02*
X+6510095Y-638729D01*
X+6446595Y-575229D02*
X+6573595Y-575229D01*
X+5798895Y-335753D02*
X+5798895Y-462753D01*
X+5735395Y-399253D02*
X+5862395Y-399253D01*
X+6002095Y-335753D02*
X+6002095Y-462753D01*
X+5938595Y-399253D02*
X+6065595Y-399253D01*
X+6205295Y-335753D02*
X+6205295Y-462753D01*
X+6141795Y-399253D02*
X+6268795Y-399253D01*
X+6408495Y-335753D02*
X+6408495Y-462753D01*
X+6344995Y-399253D02*
X+6471995Y-399253D01*
X+6814895Y-335753D02*
X+6814895Y-462753D01*
X+6751395Y-399253D02*
X+6878395Y-399253D01*
X+5290895Y-159777D02*
X+5290895Y-286777D01*
X+5227395Y-223277D02*
X+5354395Y-223277D01*
X+5494095Y-159777D02*
X+5494095Y-286777D01*
X+5430595Y-223277D02*
X+5557595Y-223277D01*
X+5697295Y-159777D02*
X+5697295Y-286777D01*
X+5633795Y-223277D02*
X+5760795Y-223277D01*
X+5900495Y-159777D02*
X+5900495Y-286777D01*
X+5836995Y-223277D02*
X+5963995Y-223277D01*
X+6103695Y-159777D02*
X+6103695Y-286777D01*
X+6040195Y-223277D02*
X+6167195Y-223277D01*
X+6306895Y-159777D02*
X+6306895Y-286777D01*
X+6243395Y-223277D02*
X+6370395Y-223277D01*
X+6510095Y-159777D02*
X+6510095Y-286777D01*
X+6446595Y-223277D02*
X+6573595Y-223277D01*
X+7881619Y-1470071D02*
X+7881619Y-1597071D01*
X+7818119Y-1533571D02*
X+7945119Y-1533571D01*
X+7780019Y-1294095D02*
X+7780019Y-1421095D01*
X+7716519Y-1357595D02*
X+7843519Y-1357595D01*
X+7983219Y-1294095D02*
X+7983219Y-1421095D01*
X+7919719Y-1357595D02*
X+8046719Y-1357595D01*
X+7881619Y-1118119D02*
X+7881619Y-1245119D01*
X+7818119Y-1181619D02*
X+7945119Y-1181619D01*
X+8491219Y-766167D02*
X+8491219Y-893167D01*
X+8427719Y-829667D02*
X+8554719Y-829667D01*
X+8694419Y-766167D02*
X+8694419Y-893167D01*
X+8630919Y-829667D02*
X+8757919Y-829667D01*
X+9100819Y-766167D02*
X+9100819Y-893167D01*
X+9037319Y-829667D02*
X+9164319Y-829667D01*
X+8592819Y-590191D02*
X+8592819Y-717191D01*
X+8529319Y-653691D02*
X+8656319Y-653691D01*
X+8796019Y-590191D02*
X+8796019Y-717191D01*
X+8732519Y-653691D02*
X+8859519Y-653691D01*
X+8491219Y-414215D02*
X+8491219Y-541215D01*
X+8427719Y-477715D02*
X+8554719Y-477715D01*
X+8694419Y-414215D02*
X+8694419Y-541215D01*
X+8630919Y-477715D02*
X+8757919Y-477715D01*
X+9100819Y-414215D02*
X+9100819Y-541215D01*
X+9037319Y-477715D02*
X+9164319Y-477715D01*
X+7576819Y-238239D02*
X+7576819Y-365239D01*
X+7513319Y-301739D02*
X+7640319Y-301739D01*
X+7780019Y-238239D02*
X+7780019Y-365239D01*
X+7716519Y-301739D02*
X+7843519Y-301739D01*
X+7983219Y-238239D02*
X+7983219Y-365239D01*
X+7919719Y-301739D02*
X+8046719Y-301739D01*
X+8186419Y-238239D02*
X+8186419Y-365239D01*
X+8122919Y-301739D02*
X+8249919Y-301739D01*
X+8389619Y-238239D02*
X+8389619Y-365239D01*
X+8326119Y-301739D02*
X+8453119Y-301739D01*
X+8592819Y-238239D02*
X+8592819Y-365239D01*
X+8529319Y-301739D02*
X+8656319Y-301739D01*
X+8796019Y-238239D02*
X+8796019Y-365239D01*
X+8732519Y-301739D02*
X+8859519Y-301739D01*
X+9100819Y-62263D02*
X+9100819Y-189263D01*
X+9037319Y-125763D02*
X+9164319Y-125763D01*
X-672147Y-5414639D02*
X-672147Y-5541639D01*
X-735647Y-5478139D02*
X-608647Y-5478139D01*
X+4381500Y+1714500D02*
X+4381283Y+1719747D01*
X+4379518Y+1730242D01*
X+4375826Y+1740737D01*
X+4369798Y+1751232D01*
X+4360576Y+1761612D01*
X+4350081Y+1769300D01*
X+4339586Y+1774218D01*
X+4329091Y+1777024D01*
X+4318596Y+1777997D01*
X+4318000Y+1778000D01*
X+4254500Y+1714500D02*
X+4254717Y+1719747D01*
X+4256482Y+1730242D01*
X+4260174Y+1740737D01*
X+4266202Y+1751232D01*
X+4275424Y+1761612D01*
X+4285919Y+1769300D01*
X+4296414Y+1774218D01*
X+4306909Y+1777024D01*
X+4317404Y+1777997D01*
X+4318000Y+1778000D01*
X+4254500Y+1714500D02*
X+4254717Y+1709253D01*
X+4256482Y+1698758D01*
X+4260174Y+1688263D01*
X+4266202Y+1677768D01*
X+4275424Y+1667388D01*
X+4285919Y+1659700D01*
X+4296414Y+1654782D01*
X+4306909Y+1651976D01*
X+4317404Y+1651003D01*
X+4318000Y+1651000D01*
X+4381500Y+1714500D02*
X+4381283Y+1709253D01*
X+4379518Y+1698758D01*
X+4375826Y+1688263D01*
X+4369798Y+1677768D01*
X+4360576Y+1667388D01*
X+4350081Y+1659700D01*
X+4339586Y+1654782D01*
X+4329091Y+1651976D01*
X+4318596Y+1651003D01*
X+4318000Y+1651000D01*
X+4273099Y+1759401D02*
X+4362901Y+1669599D01*
X+4273099Y+1669599D02*
X+4362901Y+1759401D01*
X+6731000Y+1714500D02*
X+6730783Y+1719747D01*
X+6729018Y+1730242D01*
X+6725326Y+1740737D01*
X+6719298Y+1751232D01*
X+6710076Y+1761612D01*
X+6699581Y+1769300D01*
X+6689086Y+1774218D01*
X+6678591Y+1777024D01*
X+6668096Y+1777997D01*
X+6667500Y+1778000D01*
X+6604000Y+1714500D02*
X+6604217Y+1719747D01*
X+6605982Y+1730242D01*
X+6609674Y+1740737D01*
X+6615702Y+1751232D01*
X+6624924Y+1761612D01*
X+6635419Y+1769300D01*
X+6645914Y+1774218D01*
X+6656409Y+1777024D01*
X+6666904Y+1777997D01*
X+6667500Y+1778000D01*
X+6604000Y+1714500D02*
X+6604217Y+1709253D01*
X+6605982Y+1698758D01*
X+6609674Y+1688263D01*
X+6615702Y+1677768D01*
X+6624924Y+1667388D01*
X+6635419Y+1659700D01*
X+6645914Y+1654782D01*
X+6656409Y+1651976D01*
X+6666904Y+1651003D01*
X+6667500Y+1651000D01*
X+6731000Y+1714500D02*
X+6730783Y+1709253D01*
X+6729018Y+1698758D01*
X+6725326Y+1688263D01*
X+6719298Y+1677768D01*
X+6710076Y+1667388D01*
X+6699581Y+1659700D01*
X+6689086Y+1654782D01*
X+6678591Y+1651976D01*
X+6668096Y+1651003D01*
X+6667500Y+1651000D01*
X+6622599Y+1759401D02*
X+6712401Y+1669599D01*
X+6622599Y+1669599D02*
X+6712401Y+1759401D01*
X+8318500Y+1651000D02*
X+8318283Y+1656247D01*
X+8316518Y+1666742D01*
X+8312826Y+1677237D01*
X+8306798Y+1687732D01*
X+8297576Y+1698112D01*
X+8287081Y+1705800D01*
X+8276586Y+1710718D01*
X+8266091Y+1713524D01*
X+8255596Y+1714497D01*
X+8255000Y+1714500D01*
X+8191500Y+1651000D02*
X+8191717Y+1656247D01*
X+8193482Y+1666742D01*
X+8197174Y+1677237D01*
X+8203202Y+1687732D01*
X+8212424Y+1698112D01*
X+8222919Y+1705800D01*
X+8233414Y+1710718D01*
X+8243909Y+1713524D01*
X+8254404Y+1714497D01*
X+8255000Y+1714500D01*
X+8191500Y+1651000D02*
X+8191717Y+1645753D01*
X+8193482Y+1635258D01*
X+8197174Y+1624763D01*
X+8203202Y+1614268D01*
X+8212424Y+1603888D01*
X+8222919Y+1596200D01*
X+8233414Y+1591282D01*
X+8243909Y+1588476D01*
X+8254404Y+1587503D01*
X+8255000Y+1587500D01*
X+8318500Y+1651000D02*
X+8318283Y+1645753D01*
X+8316518Y+1635258D01*
X+8312826Y+1624763D01*
X+8306798Y+1614268D01*
X+8297576Y+1603888D01*
X+8287081Y+1596200D01*
X+8276586Y+1591282D01*
X+8266091Y+1588476D01*
X+8255596Y+1587503D01*
X+8255000Y+1587500D01*
X+8210099Y+1695901D02*
X+8299901Y+1606099D01*
X+8210099Y+1606099D02*
X+8299901Y+1695901D01*
X-431800Y-1828800D02*
X-432017Y-1823553D01*
X-433782Y-1813058D01*
X-437474Y-1802563D01*
X-443502Y-1792068D01*
X-452724Y-1781688D01*
X-463219Y-1774000D01*
X-473714Y-1769082D01*
X-484209Y-1766276D01*
X-494704Y-1765303D01*
X-495300Y-1765300D01*
X-558800Y-1828800D02*
X-558583Y-1823553D01*
X-556818Y-1813058D01*
X-553126Y-1802563D01*
X-547098Y-1792068D01*
X-537876Y-1781688D01*
X-527381Y-1774000D01*
X-516886Y-1769082D01*
X-506391Y-1766276D01*
X-495896Y-1765303D01*
X-495300Y-1765300D01*
X-558800Y-1828800D02*
X-558583Y-1834047D01*
X-556818Y-1844542D01*
X-553126Y-1855037D01*
X-547098Y-1865532D01*
X-537876Y-1875912D01*
X-527381Y-1883600D01*
X-516886Y-1888518D01*
X-506391Y-1891324D01*
X-495896Y-1892297D01*
X-495300Y-1892300D01*
X-431800Y-1828800D02*
X-432017Y-1834047D01*
X-433782Y-1844542D01*
X-437474Y-1855037D01*
X-443502Y-1865532D01*
X-452724Y-1875912D01*
X-463219Y-1883600D01*
X-473714Y-1888518D01*
X-484209Y-1891324D01*
X-494704Y-1892297D01*
X-495300Y-1892300D01*
X-495300Y-1765300D02*
X-495300Y-1892300D01*
X-558800Y-1828800D02*
X-431800Y-1828800D01*
X-432017Y-1823553D01*
X-433782Y-1813058D01*
X-437474Y-1802563D01*
X-443502Y-1792068D01*
X-452724Y-1781688D01*
X-463219Y-1774000D01*
X-473714Y-1769082D01*
X-484209Y-1766276D01*
X-494704Y-1765303D01*
X-495300Y-1765300D01*
X-558800Y-1828800D02*
X-558583Y-1823553D01*
X-556818Y-1813058D01*
X-553126Y-1802563D01*
X-547098Y-1792068D01*
X-537876Y-1781688D01*
X-527381Y-1774000D01*
X-516886Y-1769082D01*
X-506391Y-1766276D01*
X-495896Y-1765303D01*
X-495300Y-1765300D01*
X-558800Y-1828800D02*
X-558583Y-1834047D01*
X-556818Y-1844542D01*
X-553126Y-1855037D01*
X-547098Y-1865532D01*
X-537876Y-1875912D01*
X-527381Y-1883600D01*
X-516886Y-1888518D01*
X-506391Y-1891324D01*
X-495896Y-1892297D01*
X-495300Y-1892300D01*
X-431800Y-1828800D02*
X-432017Y-1834047D01*
X-433782Y-1844542D01*
X-437474Y-1855037D01*
X-443502Y-1865532D01*
X-452724Y-1875912D01*
X-463219Y-1883600D01*
X-473714Y-1888518D01*
X-484209Y-1891324D01*
X-494704Y-1892297D01*
X-495300Y-1892300D01*
X-540201Y-1783899D02*
X-450399Y-1873701D01*
X-540201Y-1873701D02*
X-450399Y-1783899D01*
X-517003Y-12700D02*
X-517220Y-7453D01*
X-518985Y+3042D01*
X-522677Y+13537D01*
X-528705Y+24032D01*
X-537927Y+34412D01*
X-548422Y+42100D01*
X-558917Y+47018D01*
X-569412Y+49824D01*
X-579907Y+50797D01*
X-580503Y+50800D01*
X-644003Y-12700D02*
X-643786Y-7453D01*
X-642021Y+3042D01*
X-638329Y+13537D01*
X-632301Y+24032D01*
X-623079Y+34412D01*
X-612584Y+42100D01*
X-602089Y+47018D01*
X-591594Y+49824D01*
X-581099Y+50797D01*
X-580503Y+50800D01*
X-644003Y-12700D02*
X-643786Y-17947D01*
X-642021Y-28442D01*
X-638329Y-38937D01*
X-632301Y-49432D01*
X-623079Y-59812D01*
X-612584Y-67500D01*
X-602089Y-72418D01*
X-591594Y-75224D01*
X-581099Y-76197D01*
X-580503Y-76200D01*
X-517003Y-12700D02*
X-517220Y-17947D01*
X-518985Y-28442D01*
X-522677Y-38937D01*
X-528705Y-49432D01*
X-537927Y-59812D01*
X-548422Y-67500D01*
X-558917Y-72418D01*
X-569412Y-75224D01*
X-579907Y-76197D01*
X-580503Y-76200D01*
X-580503Y+50800D02*
X-580503Y-76200D01*
X-644003Y-12700D02*
X-517003Y-12700D01*
X-517220Y-7453D01*
X-518985Y+3042D01*
X-522677Y+13537D01*
X-528705Y+24032D01*
X-537927Y+34412D01*
X-548422Y+42100D01*
X-558917Y+47018D01*
X-569412Y+49824D01*
X-579907Y+50797D01*
X-580503Y+50800D01*
X-644003Y-12700D02*
X-643786Y-7453D01*
X-642021Y+3042D01*
X-638329Y+13537D01*
X-632301Y+24032D01*
X-623079Y+34412D01*
X-612584Y+42100D01*
X-602089Y+47018D01*
X-591594Y+49824D01*
X-581099Y+50797D01*
X-580503Y+50800D01*
X-644003Y-12700D02*
X-643786Y-17947D01*
X-642021Y-28442D01*
X-638329Y-38937D01*
X-632301Y-49432D01*
X-623079Y-59812D01*
X-612584Y-67500D01*
X-602089Y-72418D01*
X-591594Y-75224D01*
X-581099Y-76197D01*
X-580503Y-76200D01*
X-517003Y-12700D02*
X-517220Y-17947D01*
X-518985Y-28442D01*
X-522677Y-38937D01*
X-528705Y-49432D01*
X-537927Y-59812D01*
X-548422Y-67500D01*
X-558917Y-72418D01*
X-569412Y-75224D01*
X-579907Y-76197D01*
X-580503Y-76200D01*
X-625404Y+32201D02*
X-535602Y-57601D01*
X-625404Y-57601D02*
X-535602Y+32201D01*
X+9309100Y-5181500D02*
X+9308883Y-5176253D01*
X+9307118Y-5165758D01*
X+9303426Y-5155263D01*
X+9297398Y-5144768D01*
X+9288176Y-5134388D01*
X+9277681Y-5126700D01*
X+9267186Y-5121782D01*
X+9256691Y-5118976D01*
X+9246196Y-5118003D01*
X+9245600Y-5118000D01*
X+9182100Y-5181500D02*
X+9182317Y-5176253D01*
X+9184082Y-5165758D01*
X+9187774Y-5155263D01*
X+9193802Y-5144768D01*
X+9203024Y-5134388D01*
X+9213519Y-5126700D01*
X+9224014Y-5121782D01*
X+9234509Y-5118976D01*
X+9245004Y-5118003D01*
X+9245600Y-5118000D01*
X+9182100Y-5181500D02*
X+9182317Y-5186747D01*
X+9184082Y-5197242D01*
X+9187774Y-5207737D01*
X+9193802Y-5218232D01*
X+9203024Y-5228612D01*
X+9213519Y-5236300D01*
X+9224014Y-5241218D01*
X+9234509Y-5244024D01*
X+9245004Y-5244997D01*
X+9245600Y-5245000D01*
X+9309100Y-5181500D02*
X+9308883Y-5186747D01*
X+9307118Y-5197242D01*
X+9303426Y-5207737D01*
X+9297398Y-5218232D01*
X+9288176Y-5228612D01*
X+9277681Y-5236300D01*
X+9267186Y-5241218D01*
X+9256691Y-5244024D01*
X+9246196Y-5244997D01*
X+9245600Y-5245000D01*
X+9245600Y-5118000D02*
X+9245600Y-5245000D01*
X+9182100Y-5181500D02*
X+9309100Y-5181500D01*
X+9309100Y-4981500D02*
X+9308883Y-4976253D01*
X+9307118Y-4965758D01*
X+9303426Y-4955263D01*
X+9297398Y-4944768D01*
X+9288176Y-4934388D01*
X+9277681Y-4926700D01*
X+9267186Y-4921782D01*
X+9256691Y-4918976D01*
X+9246196Y-4918003D01*
X+9245600Y-4918000D01*
X+9182100Y-4981500D02*
X+9182317Y-4976253D01*
X+9184082Y-4965758D01*
X+9187774Y-4955263D01*
X+9193802Y-4944768D01*
X+9203024Y-4934388D01*
X+9213519Y-4926700D01*
X+9224014Y-4921782D01*
X+9234509Y-4918976D01*
X+9245004Y-4918003D01*
X+9245600Y-4918000D01*
X+9182100Y-4981500D02*
X+9182317Y-4986747D01*
X+9184082Y-4997242D01*
X+9187774Y-5007737D01*
X+9193802Y-5018232D01*
X+9203024Y-5028612D01*
X+9213519Y-5036300D01*
X+9224014Y-5041218D01*
X+9234509Y-5044024D01*
X+9245004Y-5044997D01*
X+9245600Y-5045000D01*
X+9309100Y-4981500D02*
X+9308883Y-4986747D01*
X+9307118Y-4997242D01*
X+9303426Y-5007737D01*
X+9297398Y-5018232D01*
X+9288176Y-5028612D01*
X+9277681Y-5036300D01*
X+9267186Y-5041218D01*
X+9256691Y-5044024D01*
X+9246196Y-5044997D01*
X+9245600Y-5045000D01*
X+9245600Y-4918000D02*
X+9245600Y-5045000D01*
X+9182100Y-4981500D02*
X+9309100Y-4981500D01*
X+9309100Y-4781500D02*
X+9308883Y-4776253D01*
X+9307118Y-4765758D01*
X+9303426Y-4755263D01*
X+9297398Y-4744768D01*
X+9288176Y-4734388D01*
X+9277681Y-4726700D01*
X+9267186Y-4721782D01*
X+9256691Y-4718976D01*
X+9246196Y-4718003D01*
X+9245600Y-4718000D01*
X+9182100Y-4781500D02*
X+9182317Y-4776253D01*
X+9184082Y-4765758D01*
X+9187774Y-4755263D01*
X+9193802Y-4744768D01*
X+9203024Y-4734388D01*
X+9213519Y-4726700D01*
X+9224014Y-4721782D01*
X+9234509Y-4718976D01*
X+9245004Y-4718003D01*
X+9245600Y-4718000D01*
X+9182100Y-4781500D02*
X+9182317Y-4786747D01*
X+9184082Y-4797242D01*
X+9187774Y-4807737D01*
X+9193802Y-4818232D01*
X+9203024Y-4828612D01*
X+9213519Y-4836300D01*
X+9224014Y-4841218D01*
X+9234509Y-4844024D01*
X+9245004Y-4844997D01*
X+9245600Y-4845000D01*
X+9309100Y-4781500D02*
X+9308883Y-4786747D01*
X+9307118Y-4797242D01*
X+9303426Y-4807737D01*
X+9297398Y-4818232D01*
X+9288176Y-4828612D01*
X+9277681Y-4836300D01*
X+9267186Y-4841218D01*
X+9256691Y-4844024D01*
X+9246196Y-4844997D01*
X+9245600Y-4845000D01*
X+9245600Y-4718000D02*
X+9245600Y-4845000D01*
X+9182100Y-4781500D02*
X+9309100Y-4781500D01*
X+8420000Y-5905500D02*
X+8419783Y-5900253D01*
X+8418018Y-5889758D01*
X+8414326Y-5879263D01*
X+8408298Y-5868768D01*
X+8399076Y-5858388D01*
X+8388581Y-5850700D01*
X+8378086Y-5845782D01*
X+8367591Y-5842976D01*
X+8357096Y-5842003D01*
X+8356500Y-5842000D01*
X+8293000Y-5905500D02*
X+8293217Y-5900253D01*
X+8294982Y-5889758D01*
X+8298674Y-5879263D01*
X+8304702Y-5868768D01*
X+8313924Y-5858388D01*
X+8324419Y-5850700D01*
X+8334914Y-5845782D01*
X+8345409Y-5842976D01*
X+8355904Y-5842003D01*
X+8356500Y-5842000D01*
X+8293000Y-5905500D02*
X+8293217Y-5910747D01*
X+8294982Y-5921242D01*
X+8298674Y-5931737D01*
X+8304702Y-5942232D01*
X+8313924Y-5952612D01*
X+8324419Y-5960300D01*
X+8334914Y-5965218D01*
X+8345409Y-5968024D01*
X+8355904Y-5968997D01*
X+8356500Y-5969000D01*
X+8420000Y-5905500D02*
X+8419783Y-5910747D01*
X+8418018Y-5921242D01*
X+8414326Y-5931737D01*
X+8408298Y-5942232D01*
X+8399076Y-5952612D01*
X+8388581Y-5960300D01*
X+8378086Y-5965218D01*
X+8367591Y-5968024D01*
X+8357096Y-5968997D01*
X+8356500Y-5969000D01*
X+8356500Y-5842000D02*
X+8356500Y-5969000D01*
X+8293000Y-5905500D02*
X+8420000Y-5905500D01*
X+8220000Y-5905500D02*
X+8219783Y-5900253D01*
X+8218018Y-5889758D01*
X+8214326Y-5879263D01*
X+8208298Y-5868768D01*
X+8199076Y-5858388D01*
X+8188581Y-5850700D01*
X+8178086Y-5845782D01*
X+8167591Y-5842976D01*
X+8157096Y-5842003D01*
X+8156500Y-5842000D01*
X+8093000Y-5905500D02*
X+8093217Y-5900253D01*
X+8094982Y-5889758D01*
X+8098674Y-5879263D01*
X+8104702Y-5868768D01*
X+8113924Y-5858388D01*
X+8124419Y-5850700D01*
X+8134914Y-5845782D01*
X+8145409Y-5842976D01*
X+8155904Y-5842003D01*
X+8156500Y-5842000D01*
X+8093000Y-5905500D02*
X+8093217Y-5910747D01*
X+8094982Y-5921242D01*
X+8098674Y-5931737D01*
X+8104702Y-5942232D01*
X+8113924Y-5952612D01*
X+8124419Y-5960300D01*
X+8134914Y-5965218D01*
X+8145409Y-5968024D01*
X+8155904Y-5968997D01*
X+8156500Y-5969000D01*
X+8220000Y-5905500D02*
X+8219783Y-5910747D01*
X+8218018Y-5921242D01*
X+8214326Y-5931737D01*
X+8208298Y-5942232D01*
X+8199076Y-5952612D01*
X+8188581Y-5960300D01*
X+8178086Y-5965218D01*
X+8167591Y-5968024D01*
X+8157096Y-5968997D01*
X+8156500Y-5969000D01*
X+8156500Y-5842000D02*
X+8156500Y-5969000D01*
X+8093000Y-5905500D02*
X+8220000Y-5905500D01*
X+8020000Y-5905500D02*
X+8019783Y-5900253D01*
X+8018018Y-5889758D01*
X+8014326Y-5879263D01*
X+8008298Y-5868768D01*
X+7999076Y-5858388D01*
X+7988581Y-5850700D01*
X+7978086Y-5845782D01*
X+7967591Y-5842976D01*
X+7957096Y-5842003D01*
X+7956500Y-5842000D01*
X+7893000Y-5905500D02*
X+7893217Y-5900253D01*
X+7894982Y-5889758D01*
X+7898674Y-5879263D01*
X+7904702Y-5868768D01*
X+7913924Y-5858388D01*
X+7924419Y-5850700D01*
X+7934914Y-5845782D01*
X+7945409Y-5842976D01*
X+7955904Y-5842003D01*
X+7956500Y-5842000D01*
X+7893000Y-5905500D02*
X+7893217Y-5910747D01*
X+7894982Y-5921242D01*
X+7898674Y-5931737D01*
X+7904702Y-5942232D01*
X+7913924Y-5952612D01*
X+7924419Y-5960300D01*
X+7934914Y-5965218D01*
X+7945409Y-5968024D01*
X+7955904Y-5968997D01*
X+7956500Y-5969000D01*
X+8020000Y-5905500D02*
X+8019783Y-5910747D01*
X+8018018Y-5921242D01*
X+8014326Y-5931737D01*
X+8008298Y-5942232D01*
X+7999076Y-5952612D01*
X+7988581Y-5960300D01*
X+7978086Y-5965218D01*
X+7967591Y-5968024D01*
X+7957096Y-5968997D01*
X+7956500Y-5969000D01*
X+7956500Y-5842000D02*
X+7956500Y-5969000D01*
X+7893000Y-5905500D02*
X+8020000Y-5905500D01*
X+7820000Y-5905500D02*
X+7819783Y-5900253D01*
X+7818018Y-5889758D01*
X+7814326Y-5879263D01*
X+7808298Y-5868768D01*
X+7799076Y-5858388D01*
X+7788581Y-5850700D01*
X+7778086Y-5845782D01*
X+7767591Y-5842976D01*
X+7757096Y-5842003D01*
X+7756500Y-5842000D01*
X+7693000Y-5905500D02*
X+7693217Y-5900253D01*
X+7694982Y-5889758D01*
X+7698674Y-5879263D01*
X+7704702Y-5868768D01*
X+7713924Y-5858388D01*
X+7724419Y-5850700D01*
X+7734914Y-5845782D01*
X+7745409Y-5842976D01*
X+7755904Y-5842003D01*
X+7756500Y-5842000D01*
X+7693000Y-5905500D02*
X+7693217Y-5910747D01*
X+7694982Y-5921242D01*
X+7698674Y-5931737D01*
X+7704702Y-5942232D01*
X+7713924Y-5952612D01*
X+7724419Y-5960300D01*
X+7734914Y-5965218D01*
X+7745409Y-5968024D01*
X+7755904Y-5968997D01*
X+7756500Y-5969000D01*
X+7820000Y-5905500D02*
X+7819783Y-5910747D01*
X+7818018Y-5921242D01*
X+7814326Y-5931737D01*
X+7808298Y-5942232D01*
X+7799076Y-5952612D01*
X+7788581Y-5960300D01*
X+7778086Y-5965218D01*
X+7767591Y-5968024D01*
X+7757096Y-5968997D01*
X+7756500Y-5969000D01*
X+7756500Y-5842000D02*
X+7756500Y-5969000D01*
X+7693000Y-5905500D02*
X+7820000Y-5905500D01*
X+7620000Y-5905500D02*
X+7619783Y-5900253D01*
X+7618018Y-5889758D01*
X+7614326Y-5879263D01*
X+7608298Y-5868768D01*
X+7599076Y-5858388D01*
X+7588581Y-5850700D01*
X+7578086Y-5845782D01*
X+7567591Y-5842976D01*
X+7557096Y-5842003D01*
X+7556500Y-5842000D01*
X+7493000Y-5905500D02*
X+7493217Y-5900253D01*
X+7494982Y-5889758D01*
X+7498674Y-5879263D01*
X+7504702Y-5868768D01*
X+7513924Y-5858388D01*
X+7524419Y-5850700D01*
X+7534914Y-5845782D01*
X+7545409Y-5842976D01*
X+7555904Y-5842003D01*
X+7556500Y-5842000D01*
X+7493000Y-5905500D02*
X+7493217Y-5910747D01*
X+7494982Y-5921242D01*
X+7498674Y-5931737D01*
X+7504702Y-5942232D01*
X+7513924Y-5952612D01*
X+7524419Y-5960300D01*
X+7534914Y-5965218D01*
X+7545409Y-5968024D01*
X+7555904Y-5968997D01*
X+7556500Y-5969000D01*
X+7620000Y-5905500D02*
X+7619783Y-5910747D01*
X+7618018Y-5921242D01*
X+7614326Y-5931737D01*
X+7608298Y-5942232D01*
X+7599076Y-5952612D01*
X+7588581Y-5960300D01*
X+7578086Y-5965218D01*
X+7567591Y-5968024D01*
X+7557096Y-5968997D01*
X+7556500Y-5969000D01*
X+7556500Y-5842000D02*
X+7556500Y-5969000D01*
X+7493000Y-5905500D02*
X+7620000Y-5905500D01*
X+7420000Y-5905500D02*
X+7419783Y-5900253D01*
X+7418018Y-5889758D01*
X+7414326Y-5879263D01*
X+7408298Y-5868768D01*
X+7399076Y-5858388D01*
X+7388581Y-5850700D01*
X+7378086Y-5845782D01*
X+7367591Y-5842976D01*
X+7357096Y-5842003D01*
X+7356500Y-5842000D01*
X+7293000Y-5905500D02*
X+7293217Y-5900253D01*
X+7294982Y-5889758D01*
X+7298674Y-5879263D01*
X+7304702Y-5868768D01*
X+7313924Y-5858388D01*
X+7324419Y-5850700D01*
X+7334914Y-5845782D01*
X+7345409Y-5842976D01*
X+7355904Y-5842003D01*
X+7356500Y-5842000D01*
X+7293000Y-5905500D02*
X+7293217Y-5910747D01*
X+7294982Y-5921242D01*
X+7298674Y-5931737D01*
X+7304702Y-5942232D01*
X+7313924Y-5952612D01*
X+7324419Y-5960300D01*
X+7334914Y-5965218D01*
X+7345409Y-5968024D01*
X+7355904Y-5968997D01*
X+7356500Y-5969000D01*
X+7420000Y-5905500D02*
X+7419783Y-5910747D01*
X+7418018Y-5921242D01*
X+7414326Y-5931737D01*
X+7408298Y-5942232D01*
X+7399076Y-5952612D01*
X+7388581Y-5960300D01*
X+7378086Y-5965218D01*
X+7367591Y-5968024D01*
X+7357096Y-5968997D01*
X+7356500Y-5969000D01*
X+7356500Y-5842000D02*
X+7356500Y-5969000D01*
X+7293000Y-5905500D02*
X+7420000Y-5905500D01*
X+2233310Y+2259156D02*
X+2233093Y+2264403D01*
X+2231328Y+2274898D01*
X+2227636Y+2285393D01*
X+2221608Y+2295888D01*
X+2212386Y+2306268D01*
X+2201891Y+2313956D01*
X+2191396Y+2318874D01*
X+2180901Y+2321680D01*
X+2170406Y+2322653D01*
X+2169810Y+2322656D01*
X+2106310Y+2259156D02*
X+2106527Y+2264403D01*
X+2108292Y+2274898D01*
X+2111984Y+2285393D01*
X+2118012Y+2295888D01*
X+2127234Y+2306268D01*
X+2137729Y+2313956D01*
X+2148224Y+2318874D01*
X+2158719Y+2321680D01*
X+2169214Y+2322653D01*
X+2169810Y+2322656D01*
X+2106310Y+2259156D02*
X+2106527Y+2253909D01*
X+2108292Y+2243414D01*
X+2111984Y+2232919D01*
X+2118012Y+2222424D01*
X+2127234Y+2212044D01*
X+2137729Y+2204356D01*
X+2148224Y+2199438D01*
X+2158719Y+2196632D01*
X+2169214Y+2195659D01*
X+2169810Y+2195656D01*
X+2233310Y+2259156D02*
X+2233093Y+2253909D01*
X+2231328Y+2243414D01*
X+2227636Y+2232919D01*
X+2221608Y+2222424D01*
X+2212386Y+2212044D01*
X+2201891Y+2204356D01*
X+2191396Y+2199438D01*
X+2180901Y+2196632D01*
X+2170406Y+2195659D01*
X+2169810Y+2195656D01*
X+2169810Y+2322656D02*
X+2169810Y+2195656D01*
X+2106310Y+2259156D02*
X+2233310Y+2259156D01*
X+2233093Y+2264403D01*
X+2231328Y+2274898D01*
X+2227636Y+2285393D01*
X+2221608Y+2295888D01*
X+2212386Y+2306268D01*
X+2201891Y+2313956D01*
X+2191396Y+2318874D01*
X+2180901Y+2321680D01*
X+2170406Y+2322653D01*
X+2169810Y+2322656D01*
X+2106310Y+2259156D02*
X+2106527Y+2264403D01*
X+2108292Y+2274898D01*
X+2111984Y+2285393D01*
X+2118012Y+2295888D01*
X+2127234Y+2306268D01*
X+2137729Y+2313956D01*
X+2148224Y+2318874D01*
X+2158719Y+2321680D01*
X+2169214Y+2322653D01*
X+2169810Y+2322656D01*
X+2106310Y+2259156D02*
X+2106527Y+2253909D01*
X+2108292Y+2243414D01*
X+2111984Y+2232919D01*
X+2118012Y+2222424D01*
X+2127234Y+2212044D01*
X+2137729Y+2204356D01*
X+2148224Y+2199438D01*
X+2158719Y+2196632D01*
X+2169214Y+2195659D01*
X+2169810Y+2195656D01*
X+2233310Y+2259156D02*
X+2233093Y+2253909D01*
X+2231328Y+2243414D01*
X+2227636Y+2232919D01*
X+2221608Y+2222424D01*
X+2212386Y+2212044D01*
X+2201891Y+2204356D01*
X+2191396Y+2199438D01*
X+2180901Y+2196632D01*
X+2170406Y+2195659D01*
X+2169810Y+2195656D01*
X+2124909Y+2304057D02*
X+2214711Y+2214255D01*
X+2124909Y+2214255D02*
X+2214711Y+2304057D01*
X+763894Y+507979D02*
X+763677Y+513226D01*
X+761912Y+523721D01*
X+758220Y+534216D01*
X+752192Y+544711D01*
X+742970Y+555091D01*
X+732475Y+562779D01*
X+721980Y+567697D01*
X+711485Y+570503D01*
X+700990Y+571476D01*
X+700394Y+571479D01*
X+636894Y+507979D02*
X+637111Y+513226D01*
X+638876Y+523721D01*
X+642568Y+534216D01*
X+648596Y+544711D01*
X+657818Y+555091D01*
X+668313Y+562779D01*
X+678808Y+567697D01*
X+689303Y+570503D01*
X+699798Y+571476D01*
X+700394Y+571479D01*
X+636894Y+507979D02*
X+637111Y+502732D01*
X+638876Y+492237D01*
X+642568Y+481742D01*
X+648596Y+471247D01*
X+657818Y+460867D01*
X+668313Y+453179D01*
X+678808Y+448261D01*
X+689303Y+445455D01*
X+699798Y+444482D01*
X+700394Y+444479D01*
X+763894Y+507979D02*
X+763677Y+502732D01*
X+761912Y+492237D01*
X+758220Y+481742D01*
X+752192Y+471247D01*
X+742970Y+460867D01*
X+732475Y+453179D01*
X+721980Y+448261D01*
X+711485Y+445455D01*
X+700990Y+444482D01*
X+700394Y+444479D01*
X+700394Y+571479D02*
X+700394Y+444479D01*
X+636894Y+507979D02*
X+763894Y+507979D01*
X+763677Y+513226D01*
X+761912Y+523721D01*
X+758220Y+534216D01*
X+752192Y+544711D01*
X+742970Y+555091D01*
X+732475Y+562779D01*
X+721980Y+567697D01*
X+711485Y+570503D01*
X+700990Y+571476D01*
X+700394Y+571479D01*
X+636894Y+507979D02*
X+637111Y+513226D01*
X+638876Y+523721D01*
X+642568Y+534216D01*
X+648596Y+544711D01*
X+657818Y+555091D01*
X+668313Y+562779D01*
X+678808Y+567697D01*
X+689303Y+570503D01*
X+699798Y+571476D01*
X+700394Y+571479D01*
X+636894Y+507979D02*
X+637111Y+502732D01*
X+638876Y+492237D01*
X+642568Y+481742D01*
X+648596Y+471247D01*
X+657818Y+460867D01*
X+668313Y+453179D01*
X+678808Y+448261D01*
X+689303Y+445455D01*
X+699798Y+444482D01*
X+700394Y+444479D01*
X+763894Y+507979D02*
X+763677Y+502732D01*
X+761912Y+492237D01*
X+758220Y+481742D01*
X+752192Y+471247D01*
X+742970Y+460867D01*
X+732475Y+453179D01*
X+721980Y+448261D01*
X+711485Y+445455D01*
X+700990Y+444482D01*
X+700394Y+444479D01*
X+655493Y+552880D02*
X+745295Y+463078D01*
X+655493Y+463078D02*
X+745295Y+552880D01*
X+1955800Y-12700D02*
X+1955800Y-139700D01*
X+1892300Y-76200D02*
X+2019300Y-76200D01*
X+1910899Y-31299D02*
X+2000701Y-121101D01*
X+1910899Y-121101D02*
X+2000701Y-31299D01*
X+1955800Y-762700D02*
X+1955800Y-889700D01*
X+1892300Y-826200D02*
X+2019300Y-826200D01*
X+1910899Y-781299D02*
X+2000701Y-871101D01*
X+1910899Y-871101D02*
X+2000701Y-781299D01*
X+342900Y-419100D02*
X+342900Y-546100D01*
X+279400Y-482600D02*
X+406400Y-482600D01*
X+297999Y-437699D02*
X+387801Y-527501D01*
X+297999Y-527501D02*
X+387801Y-437699D01*
X+342900Y-1169100D02*
X+342900Y-1296100D01*
X+279400Y-1232600D02*
X+406400Y-1232600D01*
X+297999Y-1187699D02*
X+387801Y-1277501D01*
X+297999Y-1277501D02*
X+387801Y-1187699D01*
X+9283700Y+2362200D02*
X+9283700Y+2235200D01*
X+9220200Y+2298700D02*
X+9347200Y+2298700D01*
X+9220200Y+2235200D02*
X+9347200Y+2235200D01*
X+9347200Y+2362200D01*
X+9220200Y+2362200D01*
X+9220200Y+2235200D01*
X+2984500Y+2362200D02*
X+2984500Y+2235200D01*
X+2921000Y+2298700D02*
X+3048000Y+2298700D01*
X+2921000Y+2235200D02*
X+3048000Y+2235200D01*
X+3048000Y+2362200D01*
X+2921000Y+2362200D01*
X+2921000Y+2235200D01*
X+9271000Y-5905500D02*
X+9271000Y-6032500D01*
X+9207500Y-5969000D02*
X+9334500Y-5969000D01*
X+9207500Y-6032500D02*
X+9334500Y-6032500D01*
X+9334500Y-5905500D01*
X+9207500Y-5905500D01*
X+9207500Y-6032500D01*
X-635000Y-5905500D02*
X-635000Y-6032500D01*
X-698500Y-5969000D02*
X-571500Y-5969000D01*
X-698500Y-6032500D02*
X-571500Y-6032500D01*
X-571500Y-5905500D01*
X-698500Y-5905500D01*
X-698500Y-6032500D01*
X+4188000Y-5905500D02*
X+4187783Y-5900253D01*
X+4186018Y-5889758D01*
X+4182326Y-5879263D01*
X+4176298Y-5868768D01*
X+4167076Y-5858388D01*
X+4156581Y-5850700D01*
X+4146086Y-5845782D01*
X+4135591Y-5842976D01*
X+4125096Y-5842003D01*
X+4124500Y-5842000D01*
X+4061000Y-5905500D02*
X+4061217Y-5900253D01*
X+4062982Y-5889758D01*
X+4066674Y-5879263D01*
X+4072702Y-5868768D01*
X+4081924Y-5858388D01*
X+4092419Y-5850700D01*
X+4102914Y-5845782D01*
X+4113409Y-5842976D01*
X+4123904Y-5842003D01*
X+4124500Y-5842000D01*
X+4061000Y-5905500D02*
X+4061217Y-5910747D01*
X+4062982Y-5921242D01*
X+4066674Y-5931737D01*
X+4072702Y-5942232D01*
X+4081924Y-5952612D01*
X+4092419Y-5960300D01*
X+4102914Y-5965218D01*
X+4113409Y-5968024D01*
X+4123904Y-5968997D01*
X+4124500Y-5969000D01*
X+4188000Y-5905500D02*
X+4187783Y-5910747D01*
X+4186018Y-5921242D01*
X+4182326Y-5931737D01*
X+4176298Y-5942232D01*
X+4167076Y-5952612D01*
X+4156581Y-5960300D01*
X+4146086Y-5965218D01*
X+4135591Y-5968024D01*
X+4125096Y-5968997D01*
X+4124500Y-5969000D01*
X+4124500Y-5842000D02*
X+4124500Y-5969000D01*
X+4061000Y-5905500D02*
X+4188000Y-5905500D01*
X+4388000Y-5905500D02*
X+4387783Y-5900253D01*
X+4386018Y-5889758D01*
X+4382326Y-5879263D01*
X+4376298Y-5868768D01*
X+4367076Y-5858388D01*
X+4356581Y-5850700D01*
X+4346086Y-5845782D01*
X+4335591Y-5842976D01*
X+4325096Y-5842003D01*
X+4324500Y-5842000D01*
X+4261000Y-5905500D02*
X+4261217Y-5900253D01*
X+4262982Y-5889758D01*
X+4266674Y-5879263D01*
X+4272702Y-5868768D01*
X+4281924Y-5858388D01*
X+4292419Y-5850700D01*
X+4302914Y-5845782D01*
X+4313409Y-5842976D01*
X+4323904Y-5842003D01*
X+4324500Y-5842000D01*
X+4261000Y-5905500D02*
X+4261217Y-5910747D01*
X+4262982Y-5921242D01*
X+4266674Y-5931737D01*
X+4272702Y-5942232D01*
X+4281924Y-5952612D01*
X+4292419Y-5960300D01*
X+4302914Y-5965218D01*
X+4313409Y-5968024D01*
X+4323904Y-5968997D01*
X+4324500Y-5969000D01*
X+4388000Y-5905500D02*
X+4387783Y-5910747D01*
X+4386018Y-5921242D01*
X+4382326Y-5931737D01*
X+4376298Y-5942232D01*
X+4367076Y-5952612D01*
X+4356581Y-5960300D01*
X+4346086Y-5965218D01*
X+4335591Y-5968024D01*
X+4325096Y-5968997D01*
X+4324500Y-5969000D01*
X+4324500Y-5842000D02*
X+4324500Y-5969000D01*
X+4261000Y-5905500D02*
X+4388000Y-5905500D01*
X+4588000Y-5905500D02*
X+4587783Y-5900253D01*
X+4586018Y-5889758D01*
X+4582326Y-5879263D01*
X+4576298Y-5868768D01*
X+4567076Y-5858388D01*
X+4556581Y-5850700D01*
X+4546086Y-5845782D01*
X+4535591Y-5842976D01*
X+4525096Y-5842003D01*
X+4524500Y-5842000D01*
X+4461000Y-5905500D02*
X+4461217Y-5900253D01*
X+4462982Y-5889758D01*
X+4466674Y-5879263D01*
X+4472702Y-5868768D01*
X+4481924Y-5858388D01*
X+4492419Y-5850700D01*
X+4502914Y-5845782D01*
X+4513409Y-5842976D01*
X+4523904Y-5842003D01*
X+4524500Y-5842000D01*
X+4461000Y-5905500D02*
X+4461217Y-5910747D01*
X+4462982Y-5921242D01*
X+4466674Y-5931737D01*
X+4472702Y-5942232D01*
X+4481924Y-5952612D01*
X+4492419Y-5960300D01*
X+4502914Y-5965218D01*
X+4513409Y-5968024D01*
X+4523904Y-5968997D01*
X+4524500Y-5969000D01*
X+4588000Y-5905500D02*
X+4587783Y-5910747D01*
X+4586018Y-5921242D01*
X+4582326Y-5931737D01*
X+4576298Y-5942232D01*
X+4567076Y-5952612D01*
X+4556581Y-5960300D01*
X+4546086Y-5965218D01*
X+4535591Y-5968024D01*
X+4525096Y-5968997D01*
X+4524500Y-5969000D01*
X+4524500Y-5842000D02*
X+4524500Y-5969000D01*
X+4461000Y-5905500D02*
X+4588000Y-5905500D01*
X+4788000Y-5905500D02*
X+4787783Y-5900253D01*
X+4786018Y-5889758D01*
X+4782326Y-5879263D01*
X+4776298Y-5868768D01*
X+4767076Y-5858388D01*
X+4756581Y-5850700D01*
X+4746086Y-5845782D01*
X+4735591Y-5842976D01*
X+4725096Y-5842003D01*
X+4724500Y-5842000D01*
X+4661000Y-5905500D02*
X+4661217Y-5900253D01*
X+4662982Y-5889758D01*
X+4666674Y-5879263D01*
X+4672702Y-5868768D01*
X+4681924Y-5858388D01*
X+4692419Y-5850700D01*
X+4702914Y-5845782D01*
X+4713409Y-5842976D01*
X+4723904Y-5842003D01*
X+4724500Y-5842000D01*
X+4661000Y-5905500D02*
X+4661217Y-5910747D01*
X+4662982Y-5921242D01*
X+4666674Y-5931737D01*
X+4672702Y-5942232D01*
X+4681924Y-5952612D01*
X+4692419Y-5960300D01*
X+4702914Y-5965218D01*
X+4713409Y-5968024D01*
X+4723904Y-5968997D01*
X+4724500Y-5969000D01*
X+4788000Y-5905500D02*
X+4787783Y-5910747D01*
X+4786018Y-5921242D01*
X+4782326Y-5931737D01*
X+4776298Y-5942232D01*
X+4767076Y-5952612D01*
X+4756581Y-5960300D01*
X+4746086Y-5965218D01*
X+4735591Y-5968024D01*
X+4725096Y-5968997D01*
X+4724500Y-5969000D01*
X+4724500Y-5842000D02*
X+4724500Y-5969000D01*
X+4661000Y-5905500D02*
X+4788000Y-5905500D01*
X+4988000Y-5905500D02*
X+4987783Y-5900253D01*
X+4986018Y-5889758D01*
X+4982326Y-5879263D01*
X+4976298Y-5868768D01*
X+4967076Y-5858388D01*
X+4956581Y-5850700D01*
X+4946086Y-5845782D01*
X+4935591Y-5842976D01*
X+4925096Y-5842003D01*
X+4924500Y-5842000D01*
X+4861000Y-5905500D02*
X+4861217Y-5900253D01*
X+4862982Y-5889758D01*
X+4866674Y-5879263D01*
X+4872702Y-5868768D01*
X+4881924Y-5858388D01*
X+4892419Y-5850700D01*
X+4902914Y-5845782D01*
X+4913409Y-5842976D01*
X+4923904Y-5842003D01*
X+4924500Y-5842000D01*
X+4861000Y-5905500D02*
X+4861217Y-5910747D01*
X+4862982Y-5921242D01*
X+4866674Y-5931737D01*
X+4872702Y-5942232D01*
X+4881924Y-5952612D01*
X+4892419Y-5960300D01*
X+4902914Y-5965218D01*
X+4913409Y-5968024D01*
X+4923904Y-5968997D01*
X+4924500Y-5969000D01*
X+4988000Y-5905500D02*
X+4987783Y-5910747D01*
X+4986018Y-5921242D01*
X+4982326Y-5931737D01*
X+4976298Y-5942232D01*
X+4967076Y-5952612D01*
X+4956581Y-5960300D01*
X+4946086Y-5965218D01*
X+4935591Y-5968024D01*
X+4925096Y-5968997D01*
X+4924500Y-5969000D01*
X+4924500Y-5842000D02*
X+4924500Y-5969000D01*
X+4861000Y-5905500D02*
X+4988000Y-5905500D01*
X+5188000Y-5905500D02*
X+5187783Y-5900253D01*
X+5186018Y-5889758D01*
X+5182326Y-5879263D01*
X+5176298Y-5868768D01*
X+5167076Y-5858388D01*
X+5156581Y-5850700D01*
X+5146086Y-5845782D01*
X+5135591Y-5842976D01*
X+5125096Y-5842003D01*
X+5124500Y-5842000D01*
X+5061000Y-5905500D02*
X+5061217Y-5900253D01*
X+5062982Y-5889758D01*
X+5066674Y-5879263D01*
X+5072702Y-5868768D01*
X+5081924Y-5858388D01*
X+5092419Y-5850700D01*
X+5102914Y-5845782D01*
X+5113409Y-5842976D01*
X+5123904Y-5842003D01*
X+5124500Y-5842000D01*
X+5061000Y-5905500D02*
X+5061217Y-5910747D01*
X+5062982Y-5921242D01*
X+5066674Y-5931737D01*
X+5072702Y-5942232D01*
X+5081924Y-5952612D01*
X+5092419Y-5960300D01*
X+5102914Y-5965218D01*
X+5113409Y-5968024D01*
X+5123904Y-5968997D01*
X+5124500Y-5969000D01*
X+5188000Y-5905500D02*
X+5187783Y-5910747D01*
X+5186018Y-5921242D01*
X+5182326Y-5931737D01*
X+5176298Y-5942232D01*
X+5167076Y-5952612D01*
X+5156581Y-5960300D01*
X+5146086Y-5965218D01*
X+5135591Y-5968024D01*
X+5125096Y-5968997D01*
X+5124500Y-5969000D01*
X+5124500Y-5842000D02*
X+5124500Y-5969000D01*
X+5061000Y-5905500D02*
X+5188000Y-5905500D01*
X+5750000Y-5905500D02*
X+5749783Y-5900253D01*
X+5748018Y-5889758D01*
X+5744326Y-5879263D01*
X+5738298Y-5868768D01*
X+5729076Y-5858388D01*
X+5718581Y-5850700D01*
X+5708086Y-5845782D01*
X+5697591Y-5842976D01*
X+5687096Y-5842003D01*
X+5686500Y-5842000D01*
X+5623000Y-5905500D02*
X+5623217Y-5900253D01*
X+5624982Y-5889758D01*
X+5628674Y-5879263D01*
X+5634702Y-5868768D01*
X+5643924Y-5858388D01*
X+5654419Y-5850700D01*
X+5664914Y-5845782D01*
X+5675409Y-5842976D01*
X+5685904Y-5842003D01*
X+5686500Y-5842000D01*
X+5623000Y-5905500D02*
X+5623217Y-5910747D01*
X+5624982Y-5921242D01*
X+5628674Y-5931737D01*
X+5634702Y-5942232D01*
X+5643924Y-5952612D01*
X+5654419Y-5960300D01*
X+5664914Y-5965218D01*
X+5675409Y-5968024D01*
X+5685904Y-5968997D01*
X+5686500Y-5969000D01*
X+5750000Y-5905500D02*
X+5749783Y-5910747D01*
X+5748018Y-5921242D01*
X+5744326Y-5931737D01*
X+5738298Y-5942232D01*
X+5729076Y-5952612D01*
X+5718581Y-5960300D01*
X+5708086Y-5965218D01*
X+5697591Y-5968024D01*
X+5687096Y-5968997D01*
X+5686500Y-5969000D01*
X+5686500Y-5842000D02*
X+5686500Y-5969000D01*
X+5623000Y-5905500D02*
X+5750000Y-5905500D01*
X+5950000Y-5905500D02*
X+5949783Y-5900253D01*
X+5948018Y-5889758D01*
X+5944326Y-5879263D01*
X+5938298Y-5868768D01*
X+5929076Y-5858388D01*
X+5918581Y-5850700D01*
X+5908086Y-5845782D01*
X+5897591Y-5842976D01*
X+5887096Y-5842003D01*
X+5886500Y-5842000D01*
X+5823000Y-5905500D02*
X+5823217Y-5900253D01*
X+5824982Y-5889758D01*
X+5828674Y-5879263D01*
X+5834702Y-5868768D01*
X+5843924Y-5858388D01*
X+5854419Y-5850700D01*
X+5864914Y-5845782D01*
X+5875409Y-5842976D01*
X+5885904Y-5842003D01*
X+5886500Y-5842000D01*
X+5823000Y-5905500D02*
X+5823217Y-5910747D01*
X+5824982Y-5921242D01*
X+5828674Y-5931737D01*
X+5834702Y-5942232D01*
X+5843924Y-5952612D01*
X+5854419Y-5960300D01*
X+5864914Y-5965218D01*
X+5875409Y-5968024D01*
X+5885904Y-5968997D01*
X+5886500Y-5969000D01*
X+5950000Y-5905500D02*
X+5949783Y-5910747D01*
X+5948018Y-5921242D01*
X+5944326Y-5931737D01*
X+5938298Y-5942232D01*
X+5929076Y-5952612D01*
X+5918581Y-5960300D01*
X+5908086Y-5965218D01*
X+5897591Y-5968024D01*
X+5887096Y-5968997D01*
X+5886500Y-5969000D01*
X+5886500Y-5842000D02*
X+5886500Y-5969000D01*
X+5823000Y-5905500D02*
X+5950000Y-5905500D01*
X+6150000Y-5905500D02*
X+6149783Y-5900253D01*
X+6148018Y-5889758D01*
X+6144326Y-5879263D01*
X+6138298Y-5868768D01*
X+6129076Y-5858388D01*
X+6118581Y-5850700D01*
X+6108086Y-5845782D01*
X+6097591Y-5842976D01*
X+6087096Y-5842003D01*
X+6086500Y-5842000D01*
X+6023000Y-5905500D02*
X+6023217Y-5900253D01*
X+6024982Y-5889758D01*
X+6028674Y-5879263D01*
X+6034702Y-5868768D01*
X+6043924Y-5858388D01*
X+6054419Y-5850700D01*
X+6064914Y-5845782D01*
X+6075409Y-5842976D01*
X+6085904Y-5842003D01*
X+6086500Y-5842000D01*
X+6023000Y-5905500D02*
X+6023217Y-5910747D01*
X+6024982Y-5921242D01*
X+6028674Y-5931737D01*
X+6034702Y-5942232D01*
X+6043924Y-5952612D01*
X+6054419Y-5960300D01*
X+6064914Y-5965218D01*
X+6075409Y-5968024D01*
X+6085904Y-5968997D01*
X+6086500Y-5969000D01*
X+6150000Y-5905500D02*
X+6149783Y-5910747D01*
X+6148018Y-5921242D01*
X+6144326Y-5931737D01*
X+6138298Y-5942232D01*
X+6129076Y-5952612D01*
X+6118581Y-5960300D01*
X+6108086Y-5965218D01*
X+6097591Y-5968024D01*
X+6087096Y-5968997D01*
X+6086500Y-5969000D01*
X+6086500Y-5842000D02*
X+6086500Y-5969000D01*
X+6023000Y-5905500D02*
X+6150000Y-5905500D01*
X+6350000Y-5905500D02*
X+6349783Y-5900253D01*
X+6348018Y-5889758D01*
X+6344326Y-5879263D01*
X+6338298Y-5868768D01*
X+6329076Y-5858388D01*
X+6318581Y-5850700D01*
X+6308086Y-5845782D01*
X+6297591Y-5842976D01*
X+6287096Y-5842003D01*
X+6286500Y-5842000D01*
X+6223000Y-5905500D02*
X+6223217Y-5900253D01*
X+6224982Y-5889758D01*
X+6228674Y-5879263D01*
X+6234702Y-5868768D01*
X+6243924Y-5858388D01*
X+6254419Y-5850700D01*
X+6264914Y-5845782D01*
X+6275409Y-5842976D01*
X+6285904Y-5842003D01*
X+6286500Y-5842000D01*
X+6223000Y-5905500D02*
X+6223217Y-5910747D01*
X+6224982Y-5921242D01*
X+6228674Y-5931737D01*
X+6234702Y-5942232D01*
X+6243924Y-5952612D01*
X+6254419Y-5960300D01*
X+6264914Y-5965218D01*
X+6275409Y-5968024D01*
X+6285904Y-5968997D01*
X+6286500Y-5969000D01*
X+6350000Y-5905500D02*
X+6349783Y-5910747D01*
X+6348018Y-5921242D01*
X+6344326Y-5931737D01*
X+6338298Y-5942232D01*
X+6329076Y-5952612D01*
X+6318581Y-5960300D01*
X+6308086Y-5965218D01*
X+6297591Y-5968024D01*
X+6287096Y-5968997D01*
X+6286500Y-5969000D01*
X+6286500Y-5842000D02*
X+6286500Y-5969000D01*
X+6223000Y-5905500D02*
X+6350000Y-5905500D01*
X+6550000Y-5905500D02*
X+6549783Y-5900253D01*
X+6548018Y-5889758D01*
X+6544326Y-5879263D01*
X+6538298Y-5868768D01*
X+6529076Y-5858388D01*
X+6518581Y-5850700D01*
X+6508086Y-5845782D01*
X+6497591Y-5842976D01*
X+6487096Y-5842003D01*
X+6486500Y-5842000D01*
X+6423000Y-5905500D02*
X+6423217Y-5900253D01*
X+6424982Y-5889758D01*
X+6428674Y-5879263D01*
X+6434702Y-5868768D01*
X+6443924Y-5858388D01*
X+6454419Y-5850700D01*
X+6464914Y-5845782D01*
X+6475409Y-5842976D01*
X+6485904Y-5842003D01*
X+6486500Y-5842000D01*
X+6423000Y-5905500D02*
X+6423217Y-5910747D01*
X+6424982Y-5921242D01*
X+6428674Y-5931737D01*
X+6434702Y-5942232D01*
X+6443924Y-5952612D01*
X+6454419Y-5960300D01*
X+6464914Y-5965218D01*
X+6475409Y-5968024D01*
X+6485904Y-5968997D01*
X+6486500Y-5969000D01*
X+6550000Y-5905500D02*
X+6549783Y-5910747D01*
X+6548018Y-5921242D01*
X+6544326Y-5931737D01*
X+6538298Y-5942232D01*
X+6529076Y-5952612D01*
X+6518581Y-5960300D01*
X+6508086Y-5965218D01*
X+6497591Y-5968024D01*
X+6487096Y-5968997D01*
X+6486500Y-5969000D01*
X+6486500Y-5842000D02*
X+6486500Y-5969000D01*
X+6423000Y-5905500D02*
X+6550000Y-5905500D01*
X+6750000Y-5905500D02*
X+6749783Y-5900253D01*
X+6748018Y-5889758D01*
X+6744326Y-5879263D01*
X+6738298Y-5868768D01*
X+6729076Y-5858388D01*
X+6718581Y-5850700D01*
X+6708086Y-5845782D01*
X+6697591Y-5842976D01*
X+6687096Y-5842003D01*
X+6686500Y-5842000D01*
X+6623000Y-5905500D02*
X+6623217Y-5900253D01*
X+6624982Y-5889758D01*
X+6628674Y-5879263D01*
X+6634702Y-5868768D01*
X+6643924Y-5858388D01*
X+6654419Y-5850700D01*
X+6664914Y-5845782D01*
X+6675409Y-5842976D01*
X+6685904Y-5842003D01*
X+6686500Y-5842000D01*
X+6623000Y-5905500D02*
X+6623217Y-5910747D01*
X+6624982Y-5921242D01*
X+6628674Y-5931737D01*
X+6634702Y-5942232D01*
X+6643924Y-5952612D01*
X+6654419Y-5960300D01*
X+6664914Y-5965218D01*
X+6675409Y-5968024D01*
X+6685904Y-5968997D01*
X+6686500Y-5969000D01*
X+6750000Y-5905500D02*
X+6749783Y-5910747D01*
X+6748018Y-5921242D01*
X+6744326Y-5931737D01*
X+6738298Y-5942232D01*
X+6729076Y-5952612D01*
X+6718581Y-5960300D01*
X+6708086Y-5965218D01*
X+6697591Y-5968024D01*
X+6687096Y-5968997D01*
X+6686500Y-5969000D01*
X+6686500Y-5842000D02*
X+6686500Y-5969000D01*
X+6623000Y-5905500D02*
X+6750000Y-5905500D01*
X+5775500Y-5270500D02*
X+5775283Y-5265253D01*
X+5773518Y-5254758D01*
X+5769826Y-5244263D01*
X+5763798Y-5233768D01*
X+5754576Y-5223388D01*
X+5744081Y-5215700D01*
X+5733586Y-5210782D01*
X+5723091Y-5207976D01*
X+5712596Y-5207003D01*
X+5712000Y-5207000D01*
X+5648500Y-5270500D02*
X+5648717Y-5265253D01*
X+5650482Y-5254758D01*
X+5654174Y-5244263D01*
X+5660202Y-5233768D01*
X+5669424Y-5223388D01*
X+5679919Y-5215700D01*
X+5690414Y-5210782D01*
X+5700909Y-5207976D01*
X+5711404Y-5207003D01*
X+5712000Y-5207000D01*
X+5648500Y-5270500D02*
X+5648717Y-5275747D01*
X+5650482Y-5286242D01*
X+5654174Y-5296737D01*
X+5660202Y-5307232D01*
X+5669424Y-5317612D01*
X+5679919Y-5325300D01*
X+5690414Y-5330218D01*
X+5700909Y-5333024D01*
X+5711404Y-5333997D01*
X+5712000Y-5334000D01*
X+5775500Y-5270500D02*
X+5775283Y-5275747D01*
X+5773518Y-5286242D01*
X+5769826Y-5296737D01*
X+5763798Y-5307232D01*
X+5754576Y-5317612D01*
X+5744081Y-5325300D01*
X+5733586Y-5330218D01*
X+5723091Y-5333024D01*
X+5712596Y-5333997D01*
X+5712000Y-5334000D01*
X+5712000Y-5207000D02*
X+5712000Y-5334000D01*
X+5648500Y-5270500D02*
X+5775500Y-5270500D01*
X+5975500Y-5270500D02*
X+5975283Y-5265253D01*
X+5973518Y-5254758D01*
X+5969826Y-5244263D01*
X+5963798Y-5233768D01*
X+5954576Y-5223388D01*
X+5944081Y-5215700D01*
X+5933586Y-5210782D01*
X+5923091Y-5207976D01*
X+5912596Y-5207003D01*
X+5912000Y-5207000D01*
X+5848500Y-5270500D02*
X+5848717Y-5265253D01*
X+5850482Y-5254758D01*
X+5854174Y-5244263D01*
X+5860202Y-5233768D01*
X+5869424Y-5223388D01*
X+5879919Y-5215700D01*
X+5890414Y-5210782D01*
X+5900909Y-5207976D01*
X+5911404Y-5207003D01*
X+5912000Y-5207000D01*
X+5848500Y-5270500D02*
X+5848717Y-5275747D01*
X+5850482Y-5286242D01*
X+5854174Y-5296737D01*
X+5860202Y-5307232D01*
X+5869424Y-5317612D01*
X+5879919Y-5325300D01*
X+5890414Y-5330218D01*
X+5900909Y-5333024D01*
X+5911404Y-5333997D01*
X+5912000Y-5334000D01*
X+5975500Y-5270500D02*
X+5975283Y-5275747D01*
X+5973518Y-5286242D01*
X+5969826Y-5296737D01*
X+5963798Y-5307232D01*
X+5954576Y-5317612D01*
X+5944081Y-5325300D01*
X+5933586Y-5330218D01*
X+5923091Y-5333024D01*
X+5912596Y-5333997D01*
X+5912000Y-5334000D01*
X+5912000Y-5207000D02*
X+5912000Y-5334000D01*
X+5848500Y-5270500D02*
X+5975500Y-5270500D01*
X+6175500Y-5270500D02*
X+6175283Y-5265253D01*
X+6173518Y-5254758D01*
X+6169826Y-5244263D01*
X+6163798Y-5233768D01*
X+6154576Y-5223388D01*
X+6144081Y-5215700D01*
X+6133586Y-5210782D01*
X+6123091Y-5207976D01*
X+6112596Y-5207003D01*
X+6112000Y-5207000D01*
X+6048500Y-5270500D02*
X+6048717Y-5265253D01*
X+6050482Y-5254758D01*
X+6054174Y-5244263D01*
X+6060202Y-5233768D01*
X+6069424Y-5223388D01*
X+6079919Y-5215700D01*
X+6090414Y-5210782D01*
X+6100909Y-5207976D01*
X+6111404Y-5207003D01*
X+6112000Y-5207000D01*
X+6048500Y-5270500D02*
X+6048717Y-5275747D01*
X+6050482Y-5286242D01*
X+6054174Y-5296737D01*
X+6060202Y-5307232D01*
X+6069424Y-5317612D01*
X+6079919Y-5325300D01*
X+6090414Y-5330218D01*
X+6100909Y-5333024D01*
X+6111404Y-5333997D01*
X+6112000Y-5334000D01*
X+6175500Y-5270500D02*
X+6175283Y-5275747D01*
X+6173518Y-5286242D01*
X+6169826Y-5296737D01*
X+6163798Y-5307232D01*
X+6154576Y-5317612D01*
X+6144081Y-5325300D01*
X+6133586Y-5330218D01*
X+6123091Y-5333024D01*
X+6112596Y-5333997D01*
X+6112000Y-5334000D01*
X+6112000Y-5207000D02*
X+6112000Y-5334000D01*
X+6048500Y-5270500D02*
X+6175500Y-5270500D01*
X+6375500Y-5270500D02*
X+6375283Y-5265253D01*
X+6373518Y-5254758D01*
X+6369826Y-5244263D01*
X+6363798Y-5233768D01*
X+6354576Y-5223388D01*
X+6344081Y-5215700D01*
X+6333586Y-5210782D01*
X+6323091Y-5207976D01*
X+6312596Y-5207003D01*
X+6312000Y-5207000D01*
X+6248500Y-5270500D02*
X+6248717Y-5265253D01*
X+6250482Y-5254758D01*
X+6254174Y-5244263D01*
X+6260202Y-5233768D01*
X+6269424Y-5223388D01*
X+6279919Y-5215700D01*
X+6290414Y-5210782D01*
X+6300909Y-5207976D01*
X+6311404Y-5207003D01*
X+6312000Y-5207000D01*
X+6248500Y-5270500D02*
X+6248717Y-5275747D01*
X+6250482Y-5286242D01*
X+6254174Y-5296737D01*
X+6260202Y-5307232D01*
X+6269424Y-5317612D01*
X+6279919Y-5325300D01*
X+6290414Y-5330218D01*
X+6300909Y-5333024D01*
X+6311404Y-5333997D01*
X+6312000Y-5334000D01*
X+6375500Y-5270500D02*
X+6375283Y-5275747D01*
X+6373518Y-5286242D01*
X+6369826Y-5296737D01*
X+6363798Y-5307232D01*
X+6354576Y-5317612D01*
X+6344081Y-5325300D01*
X+6333586Y-5330218D01*
X+6323091Y-5333024D01*
X+6312596Y-5333997D01*
X+6312000Y-5334000D01*
X+6312000Y-5207000D02*
X+6312000Y-5334000D01*
X+6248500Y-5270500D02*
X+6375500Y-5270500D01*
X+6575500Y-5270500D02*
X+6575283Y-5265253D01*
X+6573518Y-5254758D01*
X+6569826Y-5244263D01*
X+6563798Y-5233768D01*
X+6554576Y-5223388D01*
X+6544081Y-5215700D01*
X+6533586Y-5210782D01*
X+6523091Y-5207976D01*
X+6512596Y-5207003D01*
X+6512000Y-5207000D01*
X+6448500Y-5270500D02*
X+6448717Y-5265253D01*
X+6450482Y-5254758D01*
X+6454174Y-5244263D01*
X+6460202Y-5233768D01*
X+6469424Y-5223388D01*
X+6479919Y-5215700D01*
X+6490414Y-5210782D01*
X+6500909Y-5207976D01*
X+6511404Y-5207003D01*
X+6512000Y-5207000D01*
X+6448500Y-5270500D02*
X+6448717Y-5275747D01*
X+6450482Y-5286242D01*
X+6454174Y-5296737D01*
X+6460202Y-5307232D01*
X+6469424Y-5317612D01*
X+6479919Y-5325300D01*
X+6490414Y-5330218D01*
X+6500909Y-5333024D01*
X+6511404Y-5333997D01*
X+6512000Y-5334000D01*
X+6575500Y-5270500D02*
X+6575283Y-5275747D01*
X+6573518Y-5286242D01*
X+6569826Y-5296737D01*
X+6563798Y-5307232D01*
X+6554576Y-5317612D01*
X+6544081Y-5325300D01*
X+6533586Y-5330218D01*
X+6523091Y-5333024D01*
X+6512596Y-5333997D01*
X+6512000Y-5334000D01*
X+6512000Y-5207000D02*
X+6512000Y-5334000D01*
X+6448500Y-5270500D02*
X+6575500Y-5270500D01*
X+6775500Y-5270500D02*
X+6775283Y-5265253D01*
X+6773518Y-5254758D01*
X+6769826Y-5244263D01*
X+6763798Y-5233768D01*
X+6754576Y-5223388D01*
X+6744081Y-5215700D01*
X+6733586Y-5210782D01*
X+6723091Y-5207976D01*
X+6712596Y-5207003D01*
X+6712000Y-5207000D01*
X+6648500Y-5270500D02*
X+6648717Y-5265253D01*
X+6650482Y-5254758D01*
X+6654174Y-5244263D01*
X+6660202Y-5233768D01*
X+6669424Y-5223388D01*
X+6679919Y-5215700D01*
X+6690414Y-5210782D01*
X+6700909Y-5207976D01*
X+6711404Y-5207003D01*
X+6712000Y-5207000D01*
X+6648500Y-5270500D02*
X+6648717Y-5275747D01*
X+6650482Y-5286242D01*
X+6654174Y-5296737D01*
X+6660202Y-5307232D01*
X+6669424Y-5317612D01*
X+6679919Y-5325300D01*
X+6690414Y-5330218D01*
X+6700909Y-5333024D01*
X+6711404Y-5333997D01*
X+6712000Y-5334000D01*
X+6775500Y-5270500D02*
X+6775283Y-5275747D01*
X+6773518Y-5286242D01*
X+6769826Y-5296737D01*
X+6763798Y-5307232D01*
X+6754576Y-5317612D01*
X+6744081Y-5325300D01*
X+6733586Y-5330218D01*
X+6723091Y-5333024D01*
X+6712596Y-5333997D01*
X+6712000Y-5334000D01*
X+6712000Y-5207000D02*
X+6712000Y-5334000D01*
X+6648500Y-5270500D02*
X+6775500Y-5270500D01*
X+1786485Y-6086392D02*
X+1786268Y-6081145D01*
X+1784503Y-6070650D01*
X+1780811Y-6060155D01*
X+1774783Y-6049660D01*
X+1765561Y-6039280D01*
X+1755066Y-6031592D01*
X+1744571Y-6026674D01*
X+1734076Y-6023868D01*
X+1723581Y-6022895D01*
X+1722985Y-6022892D01*
X+1659485Y-6086392D02*
X+1659702Y-6081145D01*
X+1661467Y-6070650D01*
X+1665159Y-6060155D01*
X+1671187Y-6049660D01*
X+1680409Y-6039280D01*
X+1690904Y-6031592D01*
X+1701399Y-6026674D01*
X+1711894Y-6023868D01*
X+1722389Y-6022895D01*
X+1722985Y-6022892D01*
X+1659485Y-6086392D02*
X+1659702Y-6091639D01*
X+1661467Y-6102134D01*
X+1665159Y-6112629D01*
X+1671187Y-6123124D01*
X+1680409Y-6133504D01*
X+1690904Y-6141192D01*
X+1701399Y-6146110D01*
X+1711894Y-6148916D01*
X+1722389Y-6149889D01*
X+1722985Y-6149892D01*
X+1786485Y-6086392D02*
X+1786268Y-6091639D01*
X+1784503Y-6102134D01*
X+1780811Y-6112629D01*
X+1774783Y-6123124D01*
X+1765561Y-6133504D01*
X+1755066Y-6141192D01*
X+1744571Y-6146110D01*
X+1734076Y-6148916D01*
X+1723581Y-6149889D01*
X+1722985Y-6149892D01*
X+1722985Y-6022892D02*
X+1722985Y-6149892D01*
X+1659485Y-6086392D02*
X+1786485Y-6086392D01*
X+1586485Y-6086392D02*
X+1586268Y-6081145D01*
X+1584503Y-6070650D01*
X+1580811Y-6060155D01*
X+1574783Y-6049660D01*
X+1565561Y-6039280D01*
X+1555066Y-6031592D01*
X+1544571Y-6026674D01*
X+1534076Y-6023868D01*
X+1523581Y-6022895D01*
X+1522985Y-6022892D01*
X+1459485Y-6086392D02*
X+1459702Y-6081145D01*
X+1461467Y-6070650D01*
X+1465159Y-6060155D01*
X+1471187Y-6049660D01*
X+1480409Y-6039280D01*
X+1490904Y-6031592D01*
X+1501399Y-6026674D01*
X+1511894Y-6023868D01*
X+1522389Y-6022895D01*
X+1522985Y-6022892D01*
X+1459485Y-6086392D02*
X+1459702Y-6091639D01*
X+1461467Y-6102134D01*
X+1465159Y-6112629D01*
X+1471187Y-6123124D01*
X+1480409Y-6133504D01*
X+1490904Y-6141192D01*
X+1501399Y-6146110D01*
X+1511894Y-6148916D01*
X+1522389Y-6149889D01*
X+1522985Y-6149892D01*
X+1586485Y-6086392D02*
X+1586268Y-6091639D01*
X+1584503Y-6102134D01*
X+1580811Y-6112629D01*
X+1574783Y-6123124D01*
X+1565561Y-6133504D01*
X+1555066Y-6141192D01*
X+1544571Y-6146110D01*
X+1534076Y-6148916D01*
X+1523581Y-6149889D01*
X+1522985Y-6149892D01*
X+1522985Y-6022892D02*
X+1522985Y-6149892D01*
X+1459485Y-6086392D02*
X+1586485Y-6086392D01*
X+1386485Y-6086392D02*
X+1386268Y-6081145D01*
X+1384503Y-6070650D01*
X+1380811Y-6060155D01*
X+1374783Y-6049660D01*
X+1365561Y-6039280D01*
X+1355066Y-6031592D01*
X+1344571Y-6026674D01*
X+1334076Y-6023868D01*
X+1323581Y-6022895D01*
X+1322985Y-6022892D01*
X+1259485Y-6086392D02*
X+1259702Y-6081145D01*
X+1261467Y-6070650D01*
X+1265159Y-6060155D01*
X+1271187Y-6049660D01*
X+1280409Y-6039280D01*
X+1290904Y-6031592D01*
X+1301399Y-6026674D01*
X+1311894Y-6023868D01*
X+1322389Y-6022895D01*
X+1322985Y-6022892D01*
X+1259485Y-6086392D02*
X+1259702Y-6091639D01*
X+1261467Y-6102134D01*
X+1265159Y-6112629D01*
X+1271187Y-6123124D01*
X+1280409Y-6133504D01*
X+1290904Y-6141192D01*
X+1301399Y-6146110D01*
X+1311894Y-6148916D01*
X+1322389Y-6149889D01*
X+1322985Y-6149892D01*
X+1386485Y-6086392D02*
X+1386268Y-6091639D01*
X+1384503Y-6102134D01*
X+1380811Y-6112629D01*
X+1374783Y-6123124D01*
X+1365561Y-6133504D01*
X+1355066Y-6141192D01*
X+1344571Y-6146110D01*
X+1334076Y-6148916D01*
X+1323581Y-6149889D01*
X+1322985Y-6149892D01*
X+1322985Y-6022892D02*
X+1322985Y-6149892D01*
X+1259485Y-6086392D02*
X+1386485Y-6086392D01*
X+1161599Y-3828599D02*
X+1251401Y-3918401D01*
X+1161599Y-3918401D02*
X+1251401Y-3828599D01*
X+1161599Y-3328599D02*
X+1251401Y-3418401D01*
X+1161599Y-3418401D02*
X+1251401Y-3328599D01*
X-222701Y-2469699D02*
X-132899Y-2559501D01*
X-222701Y-2559501D02*
X-132899Y-2469699D01*
X-222701Y-2819699D02*
X-132899Y-2909501D01*
X-222701Y-2909501D02*
X-132899Y-2819699D01*
X-641801Y-3568999D02*
X-551999Y-3658801D01*
X-641801Y-3658801D02*
X-551999Y-3568999D01*
X-641801Y-3218999D02*
X-551999Y-3308801D01*
X-641801Y-3308801D02*
X-551999Y-3218999D01*
X+11499Y-5212899D02*
X+101301Y-5302701D01*
X+11499Y-5302701D02*
X+101301Y-5212899D01*
X+361499Y-5212899D02*
X+451301Y-5302701D01*
X+361499Y-5302701D02*
X+451301Y-5212899D01*
X+221799Y-3549199D02*
X+311601Y-3639001D01*
X+221799Y-3639001D02*
X+311601Y-3549199D01*
X+221799Y-3199199D02*
X+311601Y-3289001D01*
X+221799Y-3289001D02*
X+311601Y-3199199D01*
X-1079500Y-6413500D02*
X+9715500Y-6413500D01*
X+9715500Y+2730500D01*
X-1079500Y+2730500D01*
X-1079500Y-6413500D01*
D134*
X-1092200Y-8648700D02*
X+1551940Y-8648700D01*
X+1551940Y-6680200D01*
X-1092200Y-6680200D01*
X-1092200Y-8648700D01*
D135*
X-624838Y-6680200D02*
X-624838Y-8648700D01*
X+187962Y-6680200D02*
X+187962Y-8648700D01*
X+1021082Y-6680200D02*
X+1021082Y-8648700D01*
X-1092200Y-6953250D02*
X+1551940Y-6953250D01*
X-1092200Y-7194550D02*
X+1551940Y-7194550D01*
X-1092200Y-7435850D02*
X+1551940Y-7435850D01*
X-1092200Y-7677150D02*
X+1551940Y-7677150D01*
X-1092200Y-7918450D02*
X+1551940Y-7918450D01*
X-1092200Y-8159750D02*
X+1551940Y-8159750D01*
X-1092200Y-8401050D02*
X+1551940Y-8401050D01*
D134*
X-1035050Y-6844030D02*
X-1019810Y-6859270D01*
X-958850Y-6859270D01*
X-943610Y-6844030D01*
X-943610Y-6828790D01*
X-958850Y-6813550D01*
X-1019810Y-6813550D01*
X-1035050Y-6798310D01*
X-1035050Y-6783070D01*
X-1019810Y-6767830D01*
X-958850Y-6767830D01*
X-943610Y-6783070D01*
X-821690Y-6767830D02*
X-913130Y-6859270D01*
X-913130Y-6767830D02*
X-867410Y-6813550D01*
X-791210Y-6859270D02*
X-791210Y-6767830D01*
X-745490Y-6813550D01*
X-699770Y-6767830D01*
X-699770Y-6859270D01*
X-567690Y-6844030D02*
X-552450Y-6859270D01*
X-491490Y-6859270D01*
X-476250Y-6844030D01*
X-476250Y-6828790D01*
X-491490Y-6813550D01*
X-552450Y-6813550D01*
X-567690Y-6798310D01*
X-567690Y-6783070D01*
X-552450Y-6767830D01*
X-491490Y-6767830D01*
X-476250Y-6783070D01*
X-430530Y-6767830D02*
X-369570Y-6767830D01*
X-400050Y-6767830D02*
X-400050Y-6859270D01*
X-430530Y-6859270D02*
X-369570Y-6859270D01*
X-323850Y-6767830D02*
X-232410Y-6767830D01*
X-323850Y-6859270D01*
X-232410Y-6859270D01*
X-110490Y-6859270D02*
X-201930Y-6859270D01*
X-201930Y-6767830D01*
X-110490Y-6767830D01*
X-201930Y-6813550D02*
X-140970Y-6813550D01*
X+245110Y-6859270D02*
X+245110Y-6767830D01*
X+321310Y-6767830D01*
X+336550Y-6783070D01*
X+336550Y-6798310D01*
X+321310Y-6813550D01*
X+245110Y-6813550D01*
X+367030Y-6767830D02*
X+367030Y-6859270D01*
X+458470Y-6859270D01*
X+488950Y-6859270D02*
X+488950Y-6798310D01*
X+519430Y-6767830D01*
X+549910Y-6767830D01*
X+580390Y-6798310D01*
X+580390Y-6859270D01*
X+488950Y-6828790D02*
X+580390Y-6828790D01*
X+610870Y-6767830D02*
X+702310Y-6767830D01*
X+656590Y-6767830D02*
X+656590Y-6859270D01*
X+824230Y-6859270D02*
X+732790Y-6859270D01*
X+732790Y-6767830D01*
X+824230Y-6767830D01*
X+732790Y-6813550D02*
X+793750Y-6813550D01*
X+854710Y-6859270D02*
X+854710Y-6767830D01*
X+915670Y-6767830D01*
X+946150Y-6798310D01*
X+946150Y-6828790D01*
X+915670Y-6859270D01*
X+854710Y-6859270D01*
X+1078230Y-6798310D02*
X+1108710Y-6767830D01*
X+1139190Y-6767830D01*
X+1169670Y-6798310D01*
X+1169670Y-6828790D01*
X+1139190Y-6859270D01*
X+1108710Y-6859270D01*
X+1078230Y-6828790D01*
X+1078230Y-6798310D01*
X+1139190Y-6828790D02*
X+1169670Y-6859270D01*
X+1200150Y-6767830D02*
X+1291590Y-6767830D01*
X+1245870Y-6767830D02*
X+1245870Y-6859270D01*
X+1413510Y-6767830D02*
X+1322070Y-6859270D01*
X+1322070Y-6767830D02*
X+1367790Y-6813550D01*
D41*
X-845820Y-7004050D02*
X-845820Y-7131050D01*
X-909320Y-7067550D02*
X-782320Y-7067550D01*
D134*
X-548640Y-7092950D02*
X-548640Y-7042150D01*
X-535940Y-7029450D01*
X-485140Y-7029450D01*
X-472440Y-7042150D01*
X-472440Y-7092950D01*
X-485140Y-7105650D01*
X-535940Y-7105650D01*
X-548640Y-7092950D01*
X-548640Y-7105650D02*
X-472440Y-7029450D01*
X-408940Y-7092950D02*
X-396240Y-7092950D01*
X-396240Y-7105650D01*
X-408940Y-7105650D01*
X-408940Y-7092950D01*
X-332740Y-7042150D02*
X-320040Y-7029450D01*
X-281940Y-7029450D01*
X-269240Y-7042150D01*
X-269240Y-7054850D01*
X-281940Y-7067550D01*
X-269240Y-7080250D01*
X-269240Y-7092950D01*
X-281940Y-7105650D01*
X-320040Y-7105650D01*
X-332740Y-7092950D01*
X-307340Y-7067550D02*
X-281940Y-7067550D01*
X-218440Y-7067550D02*
X-231140Y-7054850D01*
X-231140Y-7042150D01*
X-218440Y-7029450D01*
X-180340Y-7029450D01*
X-167640Y-7042150D01*
X-167640Y-7054850D01*
X-180340Y-7067550D01*
X-218440Y-7067550D01*
X-231140Y-7080250D01*
X-231140Y-7092950D01*
X-218440Y-7105650D01*
X-180340Y-7105650D01*
X-167640Y-7092950D01*
X-167640Y-7080250D01*
X-180340Y-7067550D01*
X-116840Y-7054850D02*
X-91440Y-7029450D01*
X-91440Y-7105650D01*
X-40640Y-7105650D02*
X-40640Y-7054850D01*
X-40640Y-7067550D02*
X-27940Y-7054850D01*
X-2540Y-7080250D01*
X+22860Y-7054850D01*
X+35560Y-7067550D01*
X+35560Y-7105650D01*
X+60960Y-7105650D02*
X+60960Y-7054850D01*
X+60960Y-7067550D02*
X+73660Y-7054850D01*
X+99060Y-7080250D01*
X+124460Y-7054850D01*
X+137160Y-7067550D01*
X+137160Y-7105650D01*
X+353060Y-7029450D02*
X+276860Y-7105650D01*
X+276860Y-7029450D02*
X+314960Y-7067550D01*
X+454660Y-7105650D02*
X+378460Y-7105650D01*
X+378460Y-7029450D01*
X+454660Y-7029450D01*
X+378460Y-7067550D02*
X+429260Y-7067550D01*
X+480060Y-7092950D02*
X+492760Y-7105650D01*
X+543560Y-7105650D01*
X+556260Y-7092950D01*
X+556260Y-7080250D01*
X+543560Y-7067550D01*
X+492760Y-7067550D01*
X+480060Y-7054850D01*
X+480060Y-7042150D01*
X+492760Y-7029450D01*
X+543560Y-7029450D01*
X+556260Y-7042150D01*
X+1198880Y-7080250D02*
X+1122680Y-7080250D01*
X+1173480Y-7029450D01*
X+1173480Y-7105650D01*
X+1224280Y-7092950D02*
X+1224280Y-7042150D01*
X+1236980Y-7029450D01*
X+1287780Y-7029450D01*
X+1300480Y-7042150D01*
X+1300480Y-7092950D01*
X+1287780Y-7105650D01*
X+1236980Y-7105650D01*
X+1224280Y-7092950D01*
X+1224280Y-7105650D02*
X+1300480Y-7029450D01*
X+1402080Y-7042150D02*
X+1389380Y-7029450D01*
X+1351280Y-7029450D01*
X+1338580Y-7042150D01*
X+1338580Y-7092950D01*
X+1351280Y-7105650D01*
X+1389380Y-7105650D01*
X+1402080Y-7092950D01*
X+1402080Y-7080250D01*
X+1389380Y-7067550D01*
X+1338580Y-7067550D01*
D41*
X-890721Y-7263949D02*
X-800919Y-7353751D01*
X-890721Y-7353751D02*
X-800919Y-7263949D01*
D134*
X-523240Y-7296150D02*
X-497840Y-7270750D01*
X-497840Y-7346950D01*
X-408940Y-7334250D02*
X-396240Y-7334250D01*
X-396240Y-7346950D01*
X-408940Y-7346950D01*
X-408940Y-7334250D01*
X-320040Y-7296150D02*
X-294640Y-7270750D01*
X-294640Y-7346950D01*
X-167640Y-7321550D02*
X-243840Y-7321550D01*
X-193040Y-7270750D01*
X-193040Y-7346950D01*
X-129540Y-7283450D02*
X-116840Y-7270750D01*
X-78740Y-7270750D01*
X-66040Y-7283450D01*
X-66040Y-7296150D01*
X-78740Y-7308850D01*
X-66040Y-7321550D01*
X-66040Y-7334250D01*
X-78740Y-7346950D01*
X-116840Y-7346950D01*
X-129540Y-7334250D01*
X-104140Y-7308850D02*
X-78740Y-7308850D01*
X-40640Y-7346950D02*
X-40640Y-7296150D01*
X-40640Y-7308850D02*
X-27940Y-7296150D01*
X-2540Y-7321550D01*
X+22860Y-7296150D01*
X+35560Y-7308850D01*
X+35560Y-7346950D01*
X+60960Y-7346950D02*
X+60960Y-7296150D01*
X+60960Y-7308850D02*
X+73660Y-7296150D01*
X+99060Y-7321550D01*
X+124460Y-7296150D01*
X+137160Y-7308850D01*
X+137160Y-7346950D01*
X+353060Y-7270750D02*
X+276860Y-7346950D01*
X+276860Y-7270750D02*
X+314960Y-7308850D01*
X+454660Y-7346950D02*
X+378460Y-7346950D01*
X+378460Y-7270750D01*
X+454660Y-7270750D01*
X+378460Y-7308850D02*
X+429260Y-7308850D01*
X+480060Y-7334250D02*
X+492760Y-7346950D01*
X+543560Y-7346950D01*
X+556260Y-7334250D01*
X+556260Y-7321550D01*
X+543560Y-7308850D01*
X+492760Y-7308850D01*
X+480060Y-7296150D01*
X+480060Y-7283450D01*
X+492760Y-7270750D01*
X+543560Y-7270750D01*
X+556260Y-7283450D01*
X+1148080Y-7296150D02*
X+1173480Y-7270750D01*
X+1173480Y-7346950D01*
X+1224280Y-7334250D02*
X+1224280Y-7283450D01*
X+1236980Y-7270750D01*
X+1287780Y-7270750D01*
X+1300480Y-7283450D01*
X+1300480Y-7334250D01*
X+1287780Y-7346950D01*
X+1236980Y-7346950D01*
X+1224280Y-7334250D01*
X+1224280Y-7346950D02*
X+1300480Y-7270750D01*
D41*
X-845820Y-7486650D02*
X-845820Y-7613650D01*
X-909320Y-7550150D02*
X-782320Y-7550150D01*
X-890721Y-7505249D02*
X-800919Y-7595051D01*
X-890721Y-7595051D02*
X-800919Y-7505249D01*
D134*
X-523240Y-7537450D02*
X-497840Y-7512050D01*
X-497840Y-7588250D01*
X-408940Y-7575550D02*
X-396240Y-7575550D01*
X-396240Y-7588250D01*
X-408940Y-7588250D01*
X-408940Y-7575550D01*
X-269240Y-7512050D02*
X-332740Y-7512050D01*
X-332740Y-7537450D01*
X-281940Y-7537450D01*
X-269240Y-7550150D01*
X-269240Y-7575550D01*
X-281940Y-7588250D01*
X-320040Y-7588250D01*
X-332740Y-7575550D01*
X-231140Y-7524750D02*
X-218440Y-7512050D01*
X-180340Y-7512050D01*
X-167640Y-7524750D01*
X-167640Y-7537450D01*
X-180340Y-7550150D01*
X-218440Y-7550150D01*
X-231140Y-7562850D01*
X-231140Y-7588250D01*
X-167640Y-7588250D01*
X-66040Y-7562850D02*
X-142240Y-7562850D01*
X-91440Y-7512050D01*
X-91440Y-7588250D01*
X-40640Y-7588250D02*
X-40640Y-7537450D01*
X-40640Y-7550150D02*
X-27940Y-7537450D01*
X-2540Y-7562850D01*
X+22860Y-7537450D01*
X+35560Y-7550150D01*
X+35560Y-7588250D01*
X+60960Y-7588250D02*
X+60960Y-7537450D01*
X+60960Y-7550150D02*
X+73660Y-7537450D01*
X+99060Y-7562850D01*
X+124460Y-7537450D01*
X+137160Y-7550150D01*
X+137160Y-7588250D01*
X+353060Y-7512050D02*
X+276860Y-7588250D01*
X+276860Y-7512050D02*
X+314960Y-7550150D01*
X+454660Y-7588250D02*
X+378460Y-7588250D01*
X+378460Y-7512050D01*
X+454660Y-7512050D01*
X+378460Y-7550150D02*
X+429260Y-7550150D01*
X+480060Y-7575550D02*
X+492760Y-7588250D01*
X+543560Y-7588250D01*
X+556260Y-7575550D01*
X+556260Y-7562850D01*
X+543560Y-7550150D01*
X+492760Y-7550150D01*
X+480060Y-7537450D01*
X+480060Y-7524750D01*
X+492760Y-7512050D01*
X+543560Y-7512050D01*
X+556260Y-7524750D01*
X+1198880Y-7562850D02*
X+1122680Y-7562850D01*
X+1173480Y-7512050D01*
X+1173480Y-7588250D01*
D41*
X-782320Y-7791450D02*
X-782537Y-7786203D01*
X-784302Y-7775708D01*
X-787994Y-7765213D01*
X-794022Y-7754718D01*
X-803244Y-7744338D01*
X-813739Y-7736650D01*
X-824234Y-7731732D01*
X-834729Y-7728926D01*
X-845224Y-7727953D01*
X-845820Y-7727950D01*
X-909320Y-7791450D02*
X-909103Y-7786203D01*
X-907338Y-7775708D01*
X-903646Y-7765213D01*
X-897618Y-7754718D01*
X-888396Y-7744338D01*
X-877901Y-7736650D01*
X-867406Y-7731732D01*
X-856911Y-7728926D01*
X-846416Y-7727953D01*
X-845820Y-7727950D01*
X-909320Y-7791450D02*
X-909103Y-7796697D01*
X-907338Y-7807192D01*
X-903646Y-7817687D01*
X-897618Y-7828182D01*
X-888396Y-7838562D01*
X-877901Y-7846250D01*
X-867406Y-7851168D01*
X-856911Y-7853974D01*
X-846416Y-7854947D01*
X-845820Y-7854950D01*
X-782320Y-7791450D02*
X-782537Y-7796697D01*
X-784302Y-7807192D01*
X-787994Y-7817687D01*
X-794022Y-7828182D01*
X-803244Y-7838562D01*
X-813739Y-7846250D01*
X-824234Y-7851168D01*
X-834729Y-7853974D01*
X-845224Y-7854947D01*
X-845820Y-7854950D01*
X-845820Y-7727950D02*
X-845820Y-7854950D01*
X-909320Y-7791450D02*
X-782320Y-7791450D01*
D134*
X-523240Y-7778750D02*
X-497840Y-7753350D01*
X-497840Y-7829550D01*
X-447040Y-7829550D02*
X-447040Y-7778750D01*
X-447040Y-7791450D02*
X-434340Y-7778750D01*
X-408940Y-7804150D01*
X-383540Y-7778750D01*
X-370840Y-7791450D01*
X-370840Y-7829550D01*
X-345440Y-7829550D02*
X-345440Y-7778750D01*
X-345440Y-7791450D02*
X-332740Y-7778750D01*
X-307340Y-7804150D01*
X-281940Y-7778750D01*
X-269240Y-7791450D01*
X-269240Y-7829550D01*
X+353060Y-7753350D02*
X+276860Y-7829550D01*
X+276860Y-7753350D02*
X+314960Y-7791450D01*
X+454660Y-7829550D02*
X+378460Y-7829550D01*
X+378460Y-7753350D01*
X+454660Y-7753350D01*
X+378460Y-7791450D02*
X+429260Y-7791450D01*
X+480060Y-7816850D02*
X+492760Y-7829550D01*
X+543560Y-7829550D01*
X+556260Y-7816850D01*
X+556260Y-7804150D01*
X+543560Y-7791450D01*
X+492760Y-7791450D01*
X+480060Y-7778750D01*
X+480060Y-7766050D01*
X+492760Y-7753350D01*
X+543560Y-7753350D01*
X+556260Y-7766050D01*
X+1135380Y-7766050D02*
X+1148080Y-7753350D01*
X+1186180Y-7753350D01*
X+1198880Y-7766050D01*
X+1198880Y-7778750D01*
X+1186180Y-7791450D01*
X+1198880Y-7804150D01*
X+1198880Y-7816850D01*
X+1186180Y-7829550D01*
X+1148080Y-7829550D01*
X+1135380Y-7816850D01*
X+1160780Y-7791450D02*
X+1186180Y-7791450D01*
X+1224280Y-7816850D02*
X+1224280Y-7766050D01*
X+1236980Y-7753350D01*
X+1287780Y-7753350D01*
X+1300480Y-7766050D01*
X+1300480Y-7816850D01*
X+1287780Y-7829550D01*
X+1236980Y-7829550D01*
X+1224280Y-7816850D01*
X+1224280Y-7829550D02*
X+1300480Y-7753350D01*
D41*
X-782320Y-8032750D02*
X-782537Y-8027503D01*
X-784302Y-8017008D01*
X-787994Y-8006513D01*
X-794022Y-7996018D01*
X-803244Y-7985638D01*
X-813739Y-7977950D01*
X-824234Y-7973032D01*
X-834729Y-7970226D01*
X-845224Y-7969253D01*
X-845820Y-7969250D01*
X-909320Y-8032750D02*
X-909103Y-8027503D01*
X-907338Y-8017008D01*
X-903646Y-8006513D01*
X-897618Y-7996018D01*
X-888396Y-7985638D01*
X-877901Y-7977950D01*
X-867406Y-7973032D01*
X-856911Y-7970226D01*
X-846416Y-7969253D01*
X-845820Y-7969250D01*
X-909320Y-8032750D02*
X-909103Y-8037997D01*
X-907338Y-8048492D01*
X-903646Y-8058987D01*
X-897618Y-8069482D01*
X-888396Y-8079862D01*
X-877901Y-8087550D01*
X-867406Y-8092468D01*
X-856911Y-8095274D01*
X-846416Y-8096247D01*
X-845820Y-8096250D01*
X-782320Y-8032750D02*
X-782537Y-8037997D01*
X-784302Y-8048492D01*
X-787994Y-8058987D01*
X-794022Y-8069482D01*
X-803244Y-8079862D01*
X-813739Y-8087550D01*
X-824234Y-8092468D01*
X-834729Y-8095274D01*
X-845224Y-8096247D01*
X-845820Y-8096250D01*
X-890721Y-7987849D02*
X-800919Y-8077651D01*
X-890721Y-8077651D02*
X-800919Y-7987849D01*
D134*
X-535940Y-8007350D02*
X-523240Y-7994650D01*
X-485140Y-7994650D01*
X-472440Y-8007350D01*
X-472440Y-8020050D01*
X-485140Y-8032750D01*
X-523240Y-8032750D01*
X-535940Y-8045450D01*
X-535940Y-8070850D01*
X-472440Y-8070850D01*
X-408940Y-8058150D02*
X-396240Y-8058150D01*
X-396240Y-8070850D01*
X-408940Y-8070850D01*
X-408940Y-8058150D01*
X-345440Y-8058150D02*
X-345440Y-8007350D01*
X-332740Y-7994650D01*
X-281940Y-7994650D01*
X-269240Y-8007350D01*
X-269240Y-8058150D01*
X-281940Y-8070850D01*
X-332740Y-8070850D01*
X-345440Y-8058150D01*
X-345440Y-8070850D02*
X-269240Y-7994650D01*
X-231140Y-8007350D02*
X-218440Y-7994650D01*
X-180340Y-7994650D01*
X-167640Y-8007350D01*
X-167640Y-8020050D01*
X-180340Y-8032750D01*
X-167640Y-8045450D01*
X-167640Y-8058150D01*
X-180340Y-8070850D01*
X-218440Y-8070850D01*
X-231140Y-8058150D01*
X-205740Y-8032750D02*
X-180340Y-8032750D01*
X-129540Y-8007350D02*
X-116840Y-7994650D01*
X-78740Y-7994650D01*
X-66040Y-8007350D01*
X-66040Y-8020050D01*
X-78740Y-8032750D01*
X-116840Y-8032750D01*
X-129540Y-8045450D01*
X-129540Y-8070850D01*
X-66040Y-8070850D01*
X-40640Y-8070850D02*
X-40640Y-8020050D01*
X-40640Y-8032750D02*
X-27940Y-8020050D01*
X-2540Y-8045450D01*
X+22860Y-8020050D01*
X+35560Y-8032750D01*
X+35560Y-8070850D01*
X+60960Y-8070850D02*
X+60960Y-8020050D01*
X+60960Y-8032750D02*
X+73660Y-8020050D01*
X+99060Y-8045450D01*
X+124460Y-8020050D01*
X+137160Y-8032750D01*
X+137160Y-8070850D01*
X+353060Y-7994650D02*
X+276860Y-8070850D01*
X+276860Y-7994650D02*
X+314960Y-8032750D01*
X+454660Y-8070850D02*
X+378460Y-8070850D01*
X+378460Y-7994650D01*
X+454660Y-7994650D01*
X+378460Y-8032750D02*
X+429260Y-8032750D01*
X+480060Y-8058150D02*
X+492760Y-8070850D01*
X+543560Y-8070850D01*
X+556260Y-8058150D01*
X+556260Y-8045450D01*
X+543560Y-8032750D01*
X+492760Y-8032750D01*
X+480060Y-8020050D01*
X+480060Y-8007350D01*
X+492760Y-7994650D01*
X+543560Y-7994650D01*
X+556260Y-8007350D01*
X+1135380Y-8007350D02*
X+1148080Y-7994650D01*
X+1186180Y-7994650D01*
X+1198880Y-8007350D01*
X+1198880Y-8020050D01*
X+1186180Y-8032750D01*
X+1198880Y-8045450D01*
X+1198880Y-8058150D01*
X+1186180Y-8070850D01*
X+1148080Y-8070850D01*
X+1135380Y-8058150D01*
X+1160780Y-8032750D02*
X+1186180Y-8032750D01*
D41*
X-782320Y-8274050D02*
X-782537Y-8268803D01*
X-784302Y-8258308D01*
X-787994Y-8247813D01*
X-794022Y-8237318D01*
X-803244Y-8226938D01*
X-813739Y-8219250D01*
X-824234Y-8214332D01*
X-834729Y-8211526D01*
X-845224Y-8210553D01*
X-845820Y-8210550D01*
X-909320Y-8274050D02*
X-909103Y-8268803D01*
X-907338Y-8258308D01*
X-903646Y-8247813D01*
X-897618Y-8237318D01*
X-888396Y-8226938D01*
X-877901Y-8219250D01*
X-867406Y-8214332D01*
X-856911Y-8211526D01*
X-846416Y-8210553D01*
X-845820Y-8210550D01*
X-909320Y-8274050D02*
X-909103Y-8279297D01*
X-907338Y-8289792D01*
X-903646Y-8300287D01*
X-897618Y-8310782D01*
X-888396Y-8321162D01*
X-877901Y-8328850D01*
X-867406Y-8333768D01*
X-856911Y-8336574D01*
X-846416Y-8337547D01*
X-845820Y-8337550D01*
X-782320Y-8274050D02*
X-782537Y-8279297D01*
X-784302Y-8289792D01*
X-787994Y-8300287D01*
X-794022Y-8310782D01*
X-803244Y-8321162D01*
X-813739Y-8328850D01*
X-824234Y-8333768D01*
X-834729Y-8336574D01*
X-845224Y-8337547D01*
X-845820Y-8337550D01*
X-845820Y-8210550D02*
X-845820Y-8337550D01*
X-909320Y-8274050D02*
X-782320Y-8274050D01*
X-782537Y-8268803D01*
X-784302Y-8258308D01*
X-787994Y-8247813D01*
X-794022Y-8237318D01*
X-803244Y-8226938D01*
X-813739Y-8219250D01*
X-824234Y-8214332D01*
X-834729Y-8211526D01*
X-845224Y-8210553D01*
X-845820Y-8210550D01*
X-909320Y-8274050D02*
X-909103Y-8268803D01*
X-907338Y-8258308D01*
X-903646Y-8247813D01*
X-897618Y-8237318D01*
X-888396Y-8226938D01*
X-877901Y-8219250D01*
X-867406Y-8214332D01*
X-856911Y-8211526D01*
X-846416Y-8210553D01*
X-845820Y-8210550D01*
X-909320Y-8274050D02*
X-909103Y-8279297D01*
X-907338Y-8289792D01*
X-903646Y-8300287D01*
X-897618Y-8310782D01*
X-888396Y-8321162D01*
X-877901Y-8328850D01*
X-867406Y-8333768D01*
X-856911Y-8336574D01*
X-846416Y-8337547D01*
X-845820Y-8337550D01*
X-782320Y-8274050D02*
X-782537Y-8279297D01*
X-784302Y-8289792D01*
X-787994Y-8300287D01*
X-794022Y-8310782D01*
X-803244Y-8321162D01*
X-813739Y-8328850D01*
X-824234Y-8333768D01*
X-834729Y-8336574D01*
X-845224Y-8337547D01*
X-845820Y-8337550D01*
X-890721Y-8229149D02*
X-800919Y-8318951D01*
X-890721Y-8318951D02*
X-800919Y-8229149D01*
D134*
X-535940Y-8248650D02*
X-523240Y-8235950D01*
X-485140Y-8235950D01*
X-472440Y-8248650D01*
X-472440Y-8261350D01*
X-485140Y-8274050D01*
X-472440Y-8286750D01*
X-472440Y-8299450D01*
X-485140Y-8312150D01*
X-523240Y-8312150D01*
X-535940Y-8299450D01*
X-510540Y-8274050D02*
X-485140Y-8274050D01*
X-447040Y-8312150D02*
X-447040Y-8261350D01*
X-447040Y-8274050D02*
X-434340Y-8261350D01*
X-408940Y-8286750D01*
X-383540Y-8261350D01*
X-370840Y-8274050D01*
X-370840Y-8312150D01*
X-345440Y-8312150D02*
X-345440Y-8261350D01*
X-345440Y-8274050D02*
X-332740Y-8261350D01*
X-307340Y-8286750D01*
X-281940Y-8261350D01*
X-269240Y-8274050D01*
X-269240Y-8312150D01*
X+353060Y-8235950D02*
X+276860Y-8312150D01*
X+276860Y-8235950D02*
X+314960Y-8274050D01*
X+454660Y-8312150D02*
X+378460Y-8312150D01*
X+378460Y-8235950D01*
X+454660Y-8235950D01*
X+378460Y-8274050D02*
X+429260Y-8274050D01*
X+480060Y-8299450D02*
X+492760Y-8312150D01*
X+543560Y-8312150D01*
X+556260Y-8299450D01*
X+556260Y-8286750D01*
X+543560Y-8274050D01*
X+492760Y-8274050D01*
X+480060Y-8261350D01*
X+480060Y-8248650D01*
X+492760Y-8235950D01*
X+543560Y-8235950D01*
X+556260Y-8248650D01*
X+1198880Y-8286750D02*
X+1122680Y-8286750D01*
X+1173480Y-8235950D01*
X+1173480Y-8312150D01*
D41*
X-845820Y-8451850D02*
X-845820Y-8578850D01*
X-909320Y-8515350D02*
X-782320Y-8515350D01*
X-909320Y-8578850D02*
X-782320Y-8578850D01*
X-782320Y-8451850D01*
X-909320Y-8451850D01*
X-909320Y-8578850D01*
D134*
X-472440Y-8528050D02*
X-548640Y-8528050D01*
X-497840Y-8477250D01*
X-497840Y-8553450D01*
X-447040Y-8553450D02*
X-447040Y-8502650D01*
X-447040Y-8515350D02*
X-434340Y-8502650D01*
X-408940Y-8528050D01*
X-383540Y-8502650D01*
X-370840Y-8515350D01*
X-370840Y-8553450D01*
X-345440Y-8553450D02*
X-345440Y-8502650D01*
X-345440Y-8515350D02*
X-332740Y-8502650D01*
X-307340Y-8528050D01*
X-281940Y-8502650D01*
X-269240Y-8515350D01*
X-269240Y-8553450D01*
X+353060Y-8477250D02*
X+276860Y-8553450D01*
X+276860Y-8477250D02*
X+314960Y-8515350D01*
X+454660Y-8553450D02*
X+378460Y-8553450D01*
X+378460Y-8477250D01*
X+454660Y-8477250D01*
X+378460Y-8515350D02*
X+429260Y-8515350D01*
X+480060Y-8540750D02*
X+492760Y-8553450D01*
X+543560Y-8553450D01*
X+556260Y-8540750D01*
X+556260Y-8528050D01*
X+543560Y-8515350D01*
X+492760Y-8515350D01*
X+480060Y-8502650D01*
X+480060Y-8489950D01*
X+492760Y-8477250D01*
X+543560Y-8477250D01*
X+556260Y-8489950D01*
X+1198880Y-8528050D02*
X+1122680Y-8528050D01*
X+1173480Y-8477250D01*
X+1173480Y-8553450D01*
M02*
