M48
METRIC,TZ
T01C0.3810
T02C2.0320
T03C3.0000
T04C1.0000
T05C1.5240
T06C4.0000
T07C1.1430
%
T01
X+40132Y+10523
X+39116Y+12283
X+41148Y+12283
X+38100Y+14043
X+40132Y+14043
X+39116Y+15802
X+38100Y+17562
X+39370Y+19050
X+85979Y+12283
X+88011Y+12283
X+85979Y+15802
X+87249Y+18669
X+63640Y+10523
X+62624Y+12283
X+64656Y+12283
X+61608Y+14043
X+63640Y+14043
X+62624Y+15802
X+61608Y+17562
X+62865Y+19050
X+77470Y-34290
X+64286Y-33635
X+83058Y+12575
X+90678Y+12575
X+85090Y+19431
X+85598Y+21374
X+88138Y+21374
X+75191Y-45199
X+78740Y-45085
X+38117Y-40099
X+38100Y-43180
X+53840Y-45356
X+42832Y-42830
X+48260Y-32678
X+26670Y-24765
X+75438Y-8128
X+81278Y-29939
X+81182Y-28537
X+52494Y-8042
X+66962Y-30358
X+52578Y-17145
X+59055Y-24892
X+66988Y-31808
X+76647Y-16769
X+88265Y+16383
X+91059Y+14605
X+88026Y-61775
X+80645Y-45085
X+80010Y-48260
X+62865Y-45847
X+66040Y-45847
X+61532Y-48269
X+67787Y-45716
X+39448Y-35326
X+54314Y-29718
X+58420Y-31623
X+68831Y-32301
X+68326Y-9017
X+52491Y-14533
X+38506Y+25603
X+41046Y+25603
X+43586Y+25603
X+46126Y+25603
X+48666Y+25603
X+51206Y+25603
X+53746Y+25603
X+56286Y+25603
X+58826Y+25603
X+61366Y+25603
X+63906Y+25603
X+66446Y+25603
X+68986Y+25603
X+71526Y+25603
X+74066Y+25603
X+76606Y+25603
X+79146Y+25603
X+81686Y+25603
X+84226Y+25603
X+86766Y+25603
X+89306Y+25603
X+95453Y+18218
X+95453Y+15678
X+95453Y+13138
X+95453Y-27502
X+95453Y-30042
X+95453Y-32582
X+95453Y-35122
X+95453Y-37662
X+95453Y-40202
X+95453Y-42742
X+95453Y-45282
X+95453Y-47822
X+95453Y-50362
X+95453Y-52902
X+95453Y-55442
X+54305Y-59903
X+91135Y-44505
X+93675Y-44505
X+92405Y-42305
X+93675Y-40106
X+92405Y-37906
X+93675Y-35706
X+92405Y-33507
X+93675Y-31307
X+47955Y+12687
X+50495Y+12687
X+53035Y+12687
X+55575Y+12687
X+58115Y+12687
X+73355Y+12687
X+75895Y+12687
X+49225Y+14887
X+51765Y+14887
X+54305Y+14887
X+56845Y+14887
X+72085Y+14887
X+74625Y+14887
X+77165Y+14887
X+47955Y+17086
X+50495Y+17086
X+53035Y+17086
X+55575Y+17086
X+58115Y+17086
X+73355Y+17086
X+75895Y+17086
X+49225Y+19286
X+51765Y+19286
X+54305Y+19286
X+56845Y+19286
X+72085Y+19286
X+74625Y+19286
X+77165Y+19286
X+47955Y+21486
X+50495Y+21486
X+53035Y+21486
X+55575Y+21486
X+58115Y+21486
X+73355Y+21486
X+75895Y+21486
X+49225Y+23686
X+51765Y+23686
X+54305Y+23686
X+56845Y+23686
X+72085Y+23686
X+74625Y+23686
X+77165Y+23686
X+52494Y-14542
X+75456Y-14546
X+26025Y-56210
X+72263Y+10160
X+72136Y+1270
X+49403Y+10160
X+48895Y+1270
X+93218Y-635
X+94996Y+10160
X+88314Y-54272
X+30348Y-12520
X+35763Y-26431
X+48189Y-29253
X+90170Y+18370
X+81280Y+20570
X+83820Y+20570
X+39243Y+21053
X+41529Y+21053
X+43815Y+21053
X+62739Y+21398
X+65025Y+21398
X+67311Y+21398
X+35001Y-46265
X+71577Y+17086
X+77673Y+17086
X+47193Y+24125
X+10211Y+18417
X+12243Y+18417
X+14275Y+18417
X+16307Y+18417
X+18339Y+18417
X+5131Y+20177
X+7163Y+20177
X+9195Y+20177
X+11227Y+20177
X+13259Y+20177
X+15291Y+20177
X+17323Y+20177
X+4115Y+25456
X+6147Y+25456
X+8179Y+25456
X+10211Y+25456
X+12243Y+25456
X+14275Y+25456
X+16307Y+25456
X+18339Y+25456
X+8861Y-2667
X+10893Y-2667
X+12925Y-2667
X+23085Y-2667
X+25117Y-2667
X+27149Y-2667
X+29181Y-2667
X+24101Y-907
X+26133Y-907
X+28165Y-907
X+30197Y-907
X+8861Y+853
X+10893Y+853
X+12925Y+853
X+14957Y+853
X+23085Y+853
X+25117Y+853
X+27149Y+853
X+11909Y+2613
X+13941Y+2613
X+15973Y+2613
X+18005Y+2613
X+20037Y+2613
X+26133Y+2613
X+12925Y+4372
X+14957Y+4372
X+16989Y+4372
X+19021Y+4372
X+21053Y+4372
X+41373Y+4372
X+43405Y+4372
X+45437Y+4372
X+47469Y+4372
X+63725Y+4372
X+65757Y+4372
X+67789Y+4372
X+69821Y+4372
X+88109Y+4372
X+90141Y+4372
X+11909Y+6132
X+13941Y+6132
X+15973Y+6132
X+18005Y+6132
X+20037Y+6132
X+22069Y+6132
X+24101Y+6132
X+87093Y+6132
X+89125Y+6132
X+10893Y+7892
X+12925Y+7892
X+14957Y+7892
X+16989Y+7892
X+19021Y+7892
X+21053Y+7892
X+23085Y+7892
X+25117Y+7892
X+27149Y+7892
X+9877Y+9652
X+11909Y+9652
X+13941Y+9652
X+15973Y+9652
X+18005Y+9652
X+20037Y+9652
X+22069Y+9652
X+24101Y+9652
X+26133Y+9652
X+12925Y+11411
X+14957Y+11411
X+16989Y+11411
X+19021Y+11411
X+21053Y+11411
X+23085Y+11411
X+25117Y+11411
X+27149Y+11411
X+29181Y+11411
X+31213Y+11411
X+33245Y+11411
X+35277Y+11411
X+24101Y+13171
X+26133Y+13171
X+28165Y+13171
X+30197Y+13171
X+32229Y+13171
X+34261Y+13171
X+102Y+925
X+1118Y+2685
X+78283Y+13175
X+27483Y+16694
X+29515Y+16694
X+31547Y+16694
X+33579Y+16694
X+32563Y+18454
X+34595Y+18454
X+71171Y+21973
X+34595Y+25493
X+36627Y+25493
X+41910Y-39497
X+34721Y-54973
X+36717Y-58852
X+21306Y-13033
X+29158Y-14097
X+42926Y-20320
X+48958Y-49466
X+31458Y-53331
X+41529Y-20320
X+47523Y-47650
X+33020Y-52070
X+7163Y+16657
X+23419Y+16657
X+4115Y+18417
X+6147Y+18417
X+8179Y+18417
X-7010Y-3959
X-4978Y-3959
X-9042Y+3080
X-1930Y+11879
X-965Y-62017
X+12243Y-56737
X+32563Y-56737
X+7163Y-54978
X+13259Y-54978
X+34595Y+20692
X+78283Y+22452
X-51Y-5488
X+48895Y+3531
X+40564Y+7138
X+42647Y+7138
X+44729Y+7138
X+46812Y+7138
X+48895Y+7138
X+63475Y+7138
X+65557Y+7138
X+67640Y+7138
X+69723Y+7138
X+71806Y+7138
X+90551Y+7138
X+6198Y+8942
X+8280Y+8942
X-4928Y+16547
X-2845Y+16547
X-762Y+16547
X+23190Y+18351
X+38811Y-60198
X+33604Y-58395
X+91923Y-54787
X+14859Y-43965
X+34646Y+22774
X+12776Y-53066
X+11735Y-44048
X+58598Y+15476
X+58598Y+19084
X-3570Y-4279
X-7062Y+4064
X-4979Y+4064
X-2974Y+4628
X-2794Y+8786
X-2794Y+10869
X-2794Y+12951
X+39135Y-8572
X+41167Y-8572
X+34055Y-6813
X+38119Y-6813
X+40151Y-6813
X+39135Y-5053
X+41167Y-5053
X+34055Y-3293
X+36087Y-3293
X+38119Y-3293
X+40151Y-3293
X+35071Y-1533
X+37103Y-1533
X+39135Y-1533
X+41167Y-1533
X+56973Y-16311
X+55957Y-14551
X+54941Y-12791
X+56973Y-12791
X+62053Y-7512
X+64085Y-7512
X+63069Y-5752
X+65101Y-5752
X+57989Y-3993
X+60021Y-3993
X+62053Y-3993
X+64085Y-3993
X+68149Y-3993
X+52909Y-2233
X+54941Y-2233
X+56973Y-2233
X+59005Y-2233
X+61037Y-2233
X+63069Y-2233
X+65101Y-2233
X+78816Y-15336
X+77800Y-13576
X+79832Y-13576
X+78816Y-11816
X+84912Y-8297
X+86944Y-8297
X+91008Y-8297
X+85928Y-6537
X+87960Y-6537
X+84912Y-4777
X+86944Y-4777
X+91008Y-4777
X+75768Y-3017
X+77800Y-3017
X+79832Y-3017
X+81864Y-3017
X+83896Y-3017
X+85928Y-3017
X+87960Y-3017
X+91008Y-1258
X-6721Y-54781
T02
X+43180Y+17145
X+66675Y+17145
X+82550Y+16510
T03
X-4953Y-18288
X-5805Y-127
X+21698Y+22592
X+7004Y+5080
T04
X+92456Y-51815
X+92456Y-49815
X+92456Y-47815
X+83565Y-59055
X+81565Y-59055
X+79565Y-59055
X+77565Y-59055
X+75565Y-59055
X+73565Y-59055
X+41245Y-59055
X+43245Y-59055
X+45245Y-59055
X+47245Y-59055
X+49245Y-59055
X+51245Y-59055
X+56865Y-59055
X+58865Y-59055
X+60865Y-59055
X+62865Y-59055
X+64865Y-59055
X+66865Y-59055
X+57120Y-52705
X+59120Y-52705
X+61120Y-52705
X+63120Y-52705
X+65120Y-52705
X+67120Y-52705
X+17230Y-60864
X+15230Y-60864
X+13230Y-60864
T05
X+19558Y-762
X+19558Y-8262
X+3429Y-4826
X+3429Y-12326
T06
X+92837Y+22987
X+29845Y+22987
X+92710Y-59690
X-6350Y-59690
T07
X+12065Y-38735
X+12065Y-33735
X-1778Y-25146
X-1778Y-28646
X-5969Y-36139
X-5969Y-32639
X+564Y-52578
X+4064Y-52578
X+2667Y-35941
X+2667Y-32441
M30
