G04 PROTEUS GERBER X2 FILE*
%TF.GenerationSoftware,Labcenter,Proteus,8.7-SP3-Build25561*%
%TF.CreationDate,2021-07-03T21:28:02+00:00*%
%TF.FileFunction,Paste,Bot*%
%TF.FilePolarity,Positive*%
%TF.Part,Single*%
%TF.SameCoordinates,{f2efd226-c5f6-4210-91bb-6bc09b7e039f}*%
%FSLAX45Y45*%
%MOMM*%
G01*
%TA.AperFunction,Material*%
%ADD104R,1.803400X1.143000*%
%TA.AperFunction,Material*%
%ADD96R,6.985000X6.985000*%
%ADD97R,1.524000X2.540000*%
%TA.AperFunction,Material*%
%ADD99R,1.143000X1.803400*%
%AMPPAD078*
4,1,36,
0.901700,-0.025400,
0.901700,0.025400,
0.898160,0.061750,
0.887980,0.095370,
0.871810,0.125600,
0.850300,0.151800,
0.824110,0.173310,
0.793870,0.189480,
0.760250,0.199660,
0.723900,0.203200,
-0.723900,0.203200,
-0.760250,0.199660,
-0.793870,0.189480,
-0.824110,0.173310,
-0.850300,0.151800,
-0.871810,0.125600,
-0.887980,0.095370,
-0.898160,0.061750,
-0.901700,0.025400,
-0.901700,-0.025400,
-0.898160,-0.061750,
-0.887980,-0.095370,
-0.871810,-0.125600,
-0.850300,-0.151800,
-0.824110,-0.173310,
-0.793870,-0.189480,
-0.760250,-0.199660,
-0.723900,-0.203200,
0.723900,-0.203200,
0.760250,-0.199660,
0.793870,-0.189480,
0.824110,-0.173310,
0.850300,-0.151800,
0.871810,-0.125600,
0.887980,-0.095370,
0.898160,-0.061750,
0.901700,-0.025400,
0*%
%TA.AperFunction,Material*%
%ADD88PPAD078*%
%TA.AperFunction,Material*%
%ADD111R,1.016000X1.524000*%
%ADD112R,0.939800X1.447800*%
%TA.AperFunction,Material*%
%ADD108R,1.016000X0.889000*%
%TA.AperFunction,Material*%
%ADD113R,2.108200X2.108200*%
%TA.AperFunction,Profile*%
%ADD39C,0.203200*%
%TD.AperFunction*%
D104*
X+2413000Y-716000D03*
X+2413000Y-1016000D03*
X+2413000Y-218000D03*
X+2413000Y-508000D03*
X+2667000Y-208000D03*
X+2667000Y-508000D03*
X+2667000Y-726000D03*
X+2667000Y-1016000D03*
D96*
X-546100Y-4071620D03*
D97*
X-317500Y-4762500D03*
X-774700Y-4762500D03*
D96*
X+292100Y-4071620D03*
D97*
X+520700Y-4762500D03*
X+63500Y-4762500D03*
D99*
X-462000Y-5080000D03*
X-762000Y-5080000D03*
D104*
X+825500Y-4762500D03*
X+825500Y-4462500D03*
X+2667000Y-1206500D03*
X+2667000Y-1506500D03*
X+2413000Y-1714500D03*
X+2413000Y-2014500D03*
X+2667000Y-1714500D03*
X+2667000Y-2004500D03*
X+2413000Y-1206500D03*
X+2413000Y-1496500D03*
D88*
X+6259000Y-3273402D03*
X+6259000Y-3338402D03*
X+6259000Y-3403402D03*
X+6259000Y-3468402D03*
X+5829000Y-3468402D03*
X+5829000Y-3403402D03*
X+5829000Y-3338402D03*
X+5829000Y-3273402D03*
X+7486107Y-3273033D03*
X+7486107Y-3338033D03*
X+7486107Y-3403033D03*
X+7486107Y-3468033D03*
X+7056107Y-3468033D03*
X+7056107Y-3403033D03*
X+7056107Y-3338033D03*
X+7056107Y-3273033D03*
X+8735869Y-3274533D03*
X+8735869Y-3339533D03*
X+8735869Y-3404533D03*
X+8735869Y-3469533D03*
X+8305869Y-3469533D03*
X+8305869Y-3404533D03*
X+8305869Y-3339533D03*
X+8305869Y-3274533D03*
D99*
X+6195500Y-2957402D03*
X+5895500Y-2957402D03*
X+7422607Y-2957033D03*
X+7122607Y-2957033D03*
X+8672369Y-2958533D03*
X+8372369Y-2958533D03*
X+6432000Y-3719402D03*
X+6132000Y-3719402D03*
X+7676607Y-3719033D03*
X+7376607Y-3719033D03*
X+8908869Y-3719033D03*
X+8608869Y-3719033D03*
X+6432000Y-3973402D03*
X+6132000Y-3973402D03*
X+5824500Y-4227402D03*
X+5524500Y-4227402D03*
X+5524500Y-3719402D03*
X+5814500Y-3719402D03*
X+6422000Y-4227402D03*
X+6132000Y-4227402D03*
X+5814500Y-3973402D03*
X+5524500Y-3973402D03*
X+6787607Y-3719033D03*
X+7077607Y-3719033D03*
X+7676607Y-3973033D03*
X+7386607Y-3973033D03*
X+7077607Y-3973033D03*
X+6787607Y-3973033D03*
X+8019869Y-3719033D03*
X+8309869Y-3719033D03*
X+8908869Y-3973033D03*
X+8618869Y-3973033D03*
X+8309869Y-3973033D03*
X+8019869Y-3973033D03*
X+7087607Y-4227033D03*
X+6787607Y-4227033D03*
X+7676607Y-4227033D03*
X+7376607Y-4227033D03*
X+8319869Y-4227033D03*
X+8019869Y-4227033D03*
X+8908869Y-4227033D03*
X+8608869Y-4227033D03*
X+7158000Y-6159500D03*
X+6858000Y-6159500D03*
X+1697000Y-4254500D03*
X+1397000Y-4254500D03*
D111*
X+0Y-5334000D03*
X+314960Y-5334000D03*
D99*
X+8064500Y-5524500D03*
X+8354500Y-5524500D03*
X+7193500Y-5570499D03*
X+7483500Y-5570499D03*
D104*
X+7737500Y-5560500D03*
X+7737500Y-5270500D03*
D99*
X+9184200Y-4241800D03*
X+9474200Y-4241800D03*
X-218000Y-5334000D03*
X-508000Y-5334000D03*
X+1905000Y-4508500D03*
X+2195000Y-4508500D03*
X+1905000Y-4254500D03*
X+2195000Y-4254500D03*
X+1397000Y-4508500D03*
X+1687000Y-4508500D03*
X+1560000Y-4762500D03*
X+1270000Y-4762500D03*
D112*
X+4054500Y-2159000D03*
X+4254500Y-2159000D03*
D104*
X+2692400Y-5562600D03*
X+2692400Y-5272600D03*
X+3568700Y-5767900D03*
X+3568700Y-6057900D03*
X+2933700Y-5854700D03*
X+2933700Y-5564700D03*
D108*
X+3149600Y-5859780D03*
X+3340100Y-5765800D03*
X+3340100Y-5953760D03*
D113*
X+5500Y-3022600D03*
X-444500Y-3022600D03*
X+5500Y-2514600D03*
X-444500Y-2514600D03*
X+1244600Y-3200400D03*
X+1244600Y-3650400D03*
D99*
X+9474200Y-3975100D03*
X+9184200Y-3975100D03*
D39*
X-1079500Y-6413500D02*
X+9715500Y-6413500D01*
X+9715500Y+2349500D01*
X-1079500Y+2349500D01*
X-1079500Y-6413500D01*
M02*
