G04 PROTEUS RS274X GERBER FILE*
%FSLAX45Y45*%
%MOMM*%
G01*
%ADD53C,1.270000*%
%ADD17C,1.016000*%
%ADD56C,5.334000*%
%AMPPAD071*
4,1,4,
-0.901700,0.571500,
-0.901700,-0.571500,
0.901700,-0.571500,
0.901700,0.571500,
-0.901700,0.571500,
0*%
%ADD81PPAD071*%
%AMPPAD072*
4,1,36,
3.492500,3.619500,
-3.492500,3.619500,
-3.518470,3.616970,
-3.542480,3.609700,
-3.564080,3.598150,
-3.582790,3.582790,
-3.598150,3.564070,
-3.609700,3.542480,
-3.616970,3.518470,
-3.619500,3.492500,
-3.619500,-3.492500,
-3.616970,-3.518470,
-3.609700,-3.542480,
-3.598150,-3.564070,
-3.582790,-3.582790,
-3.564080,-3.598150,
-3.542480,-3.609700,
-3.518470,-3.616970,
-3.492500,-3.619500,
3.492500,-3.619500,
3.518470,-3.616970,
3.542480,-3.609700,
3.564080,-3.598150,
3.582790,-3.582790,
3.598150,-3.564070,
3.609700,-3.542480,
3.616970,-3.518470,
3.619500,-3.492500,
3.619500,3.492500,
3.616970,3.518470,
3.609700,3.542480,
3.598150,3.564070,
3.582790,3.582790,
3.564080,3.598150,
3.542480,3.609700,
3.518470,3.616970,
3.492500,3.619500,
0*%
%ADD82PPAD072*%
%AMPPAD073*
4,1,36,
0.762000,1.397000,
-0.762000,1.397000,
-0.787970,1.394470,
-0.811980,1.387200,
-0.833580,1.375650,
-0.852290,1.360290,
-0.867650,1.341570,
-0.879200,1.319980,
-0.886470,1.295970,
-0.889000,1.270000,
-0.889000,-1.270000,
-0.886470,-1.295970,
-0.879200,-1.319980,
-0.867650,-1.341570,
-0.852290,-1.360290,
-0.833580,-1.375650,
-0.811980,-1.387200,
-0.787970,-1.394470,
-0.762000,-1.397000,
0.762000,-1.397000,
0.787970,-1.394470,
0.811980,-1.387200,
0.833580,-1.375650,
0.852290,-1.360290,
0.867650,-1.341570,
0.879200,-1.319980,
0.886470,-1.295970,
0.889000,-1.270000,
0.889000,1.270000,
0.886470,1.295970,
0.879200,1.319980,
0.867650,1.341570,
0.852290,1.360290,
0.833580,1.375650,
0.811980,1.387200,
0.787970,1.394470,
0.762000,1.397000,
0*%
%ADD83PPAD073*%
%AMPPAD074*
4,1,4,
0.571500,0.901700,
-0.571500,0.901700,
-0.571500,-0.901700,
0.571500,-0.901700,
0.571500,0.901700,
0*%
%ADD84PPAD074*%
%ADD66C,6.604000*%
%AMPPAD034*
4,1,36,
0.901700,-0.025400,
0.901700,0.025400,
0.898160,0.061750,
0.887980,0.095370,
0.871810,0.125600,
0.850300,0.151800,
0.824110,0.173310,
0.793870,0.189480,
0.760250,0.199660,
0.723900,0.203200,
-0.723900,0.203200,
-0.760250,0.199660,
-0.793870,0.189480,
-0.824110,0.173310,
-0.850300,0.151800,
-0.871810,0.125600,
-0.887980,0.095370,
-0.898160,0.061750,
-0.901700,0.025400,
-0.901700,-0.025400,
-0.898160,-0.061750,
-0.887980,-0.095370,
-0.871810,-0.125600,
-0.850300,-0.151800,
-0.824110,-0.173310,
-0.793870,-0.189480,
-0.760250,-0.199660,
-0.723900,-0.203200,
0.723900,-0.203200,
0.760250,-0.199660,
0.793870,-0.189480,
0.824110,-0.173310,
0.850300,-0.151800,
0.871810,-0.125600,
0.887980,-0.095370,
0.898160,-0.061750,
0.901700,-0.025400,
0*%
%ADD40PPAD034*%
%AMPPAD075*
4,1,36,
-0.508000,-0.889000,
0.508000,-0.889000,
0.533970,-0.886470,
0.557980,-0.879200,
0.579580,-0.867650,
0.598290,-0.852290,
0.613650,-0.833570,
0.625200,-0.811980,
0.632470,-0.787970,
0.635000,-0.762000,
0.635000,0.762000,
0.632470,0.787970,
0.625200,0.811980,
0.613650,0.833570,
0.598290,0.852290,
0.579580,0.867650,
0.557980,0.879200,
0.533970,0.886470,
0.508000,0.889000,
-0.508000,0.889000,
-0.533970,0.886470,
-0.557980,0.879200,
-0.579580,0.867650,
-0.598290,0.852290,
-0.613650,0.833570,
-0.625200,0.811980,
-0.632470,0.787970,
-0.635000,0.762000,
-0.635000,-0.762000,
-0.632470,-0.787970,
-0.625200,-0.811980,
-0.613650,-0.833570,
-0.598290,-0.852290,
-0.579580,-0.867650,
-0.557980,-0.879200,
-0.533970,-0.886470,
-0.508000,-0.889000,
0*%
%ADD85PPAD075*%
%AMPPAD066*
4,1,8,
-1.397000,-0.509800,
-1.397000,0.509800,
-1.017800,0.889000,
1.017800,0.889000,
1.397000,0.509800,
1.397000,-0.509800,
1.017800,-0.889000,
-1.017800,-0.889000,
-1.397000,-0.509800,
0*%
%ADD76PPAD066*%
%AMPPAD067*
4,1,8,
-0.509800,1.397000,
0.509800,1.397000,
0.889000,1.017800,
0.889000,-1.017800,
0.509800,-1.397000,
-0.509800,-1.397000,
-0.889000,-1.017800,
-0.889000,1.017800,
-0.509800,1.397000,
0*%
%ADD77PPAD067*%
%ADD78C,3.556000*%
%AMPPAD076*
4,1,4,
-0.469900,-0.723900,
0.469900,-0.723900,
0.469900,0.723900,
-0.469900,0.723900,
-0.469900,-0.723900,
0*%
%ADD86PPAD076*%
%AMPPAD077*
4,1,36,
-2.413000,-1.524000,
-2.413000,1.524000,
-2.410470,1.549970,
-2.403200,1.573980,
-2.391650,1.595580,
-2.376290,1.614290,
-2.357570,1.629650,
-2.335980,1.641200,
-2.311970,1.648470,
-2.286000,1.651000,
2.286000,1.651000,
2.311970,1.648470,
2.335980,1.641200,
2.357570,1.629650,
2.376290,1.614290,
2.391650,1.595580,
2.403200,1.573980,
2.410470,1.549970,
2.413000,1.524000,
2.413000,-1.524000,
2.410470,-1.549970,
2.403200,-1.573980,
2.391650,-1.595580,
2.376290,-1.614290,
2.357570,-1.629650,
2.335980,-1.641200,
2.311970,-1.648470,
2.286000,-1.651000,
-2.286000,-1.651000,
-2.311970,-1.648470,
-2.335980,-1.641200,
-2.357570,-1.629650,
-2.376290,-1.614290,
-2.391650,-1.595580,
-2.403200,-1.573980,
-2.410470,-1.549970,
-2.413000,-1.524000,
0*%
%ADD87PPAD077*%
%AMPPAD078*
4,1,4,
0.844140,0.179610,
0.179610,0.844140,
-0.844140,-0.179610,
-0.179610,-0.844140,
0.844140,0.179610,
0*%
%ADD88PPAD078*%
%AMPPAD079*
4,1,4,
0.723900,-0.469900,
0.723900,0.469900,
-0.723900,0.469900,
-0.723900,-0.469900,
0.723900,-0.469900,
0*%
%ADD89PPAD079*%
%AMPPAD080*
4,1,36,
-1.524000,2.413000,
1.524000,2.413000,
1.549970,2.410470,
1.573980,2.403200,
1.595580,2.391650,
1.614290,2.376290,
1.629650,2.357570,
1.641200,2.335980,
1.648470,2.311970,
1.651000,2.286000,
1.651000,-2.286000,
1.648470,-2.311970,
1.641200,-2.335980,
1.629650,-2.357570,
1.614290,-2.376290,
1.595580,-2.391650,
1.573980,-2.403200,
1.549970,-2.410470,
1.524000,-2.413000,
-1.524000,-2.413000,
-1.549970,-2.410470,
-1.573980,-2.403200,
-1.595580,-2.391650,
-1.614290,-2.376290,
-1.629650,-2.357570,
-1.641200,-2.335980,
-1.648470,-2.311970,
-1.651000,-2.286000,
-1.651000,2.286000,
-1.648470,2.311970,
-1.641200,2.335980,
-1.629650,2.357570,
-1.614290,2.376290,
-1.595580,2.391650,
-1.573980,2.403200,
-1.549970,2.410470,
-1.524000,2.413000,
0*%
%ADD90PPAD080*%
%ADD38C,0.203200*%
D53*
X+3213100Y-1497654D03*
X+3213100Y-1308100D03*
X+3213100Y-1145702D03*
X+4127500Y-617774D03*
X+4330700Y-617774D03*
X+3314700Y-265822D03*
X+3517900Y-265822D03*
X+3721100Y-265822D03*
X+3924300Y-265822D03*
X+4127500Y-265822D03*
X+3213100Y-89846D03*
X+3416300Y-89846D03*
X+3619500Y-89846D03*
X+3822700Y-89846D03*
X+4025900Y-89846D03*
X+4432300Y-89846D03*
X+4013200Y+1052310D03*
X+3911600Y+1228286D03*
X+4114800Y+1228286D03*
X+3810000Y+1404262D03*
X+4013200Y+1404262D03*
X+3911600Y+1580238D03*
X+3810000Y+1756214D03*
X+3937000Y+1905000D03*
X+8597900Y+1228286D03*
X+8801100Y+1228286D03*
X+8597900Y+1580238D03*
X+8724900Y+1866900D03*
X+6363969Y+1052310D03*
X+6262369Y+1228286D03*
X+6465569Y+1228286D03*
X+6160769Y+1404262D03*
X+6363969Y+1404262D03*
X+6262369Y+1580238D03*
X+6160769Y+1756214D03*
X+6286500Y+1905000D03*
X+7747000Y-3429000D03*
X+6428649Y-3363510D03*
X+3200400Y-1676400D03*
X+4127500Y-793750D03*
X+4381500Y-793750D03*
X-134100Y-5105400D03*
X+1472186Y-535190D03*
X+1345186Y-315220D03*
X+1599186Y-315220D03*
X+1472186Y-95250D03*
X+1345186Y+124720D03*
X+1714500Y-63500D03*
X+1206500Y+952500D03*
X+1587500Y+1143000D03*
X+8305800Y+1257545D03*
X+9067800Y+1257545D03*
X+8509000Y+1943100D03*
X+8559800Y+2137425D03*
X+8813800Y+2137425D03*
X+4191000Y-3937000D03*
X+7519052Y-4519896D03*
X+7874000Y-4508500D03*
X+3811743Y-4009908D03*
X+3810000Y-4318000D03*
X+4445000Y-2540000D03*
X+6756400Y-2184400D03*
X+508000Y-958605D03*
X+762000Y-958605D03*
X+381000Y-738635D03*
X+635000Y-738635D03*
X+0Y-518665D03*
X+508000Y-518665D03*
X+762000Y-518665D03*
X+381000Y-298695D03*
X+635000Y-298695D03*
X+0Y-78725D03*
X+508000Y-78725D03*
X+762000Y-78725D03*
X-381000Y+141245D03*
X-127000Y+141245D03*
X+381000Y+141245D03*
X+635000Y+141245D03*
X-508000Y+361215D03*
X-254000Y+361215D03*
X+0Y+361215D03*
X+508000Y+361215D03*
X+762000Y+361215D03*
X+381000Y+581185D03*
X+635000Y+581185D03*
X+254000Y+801155D03*
X+508000Y+801155D03*
X+762000Y+801155D03*
X+5384021Y-4535575D03*
X+4283159Y-4283011D03*
X+4826045Y-3267760D03*
X+2667000Y-2476500D03*
X+7543800Y-812800D03*
X+8127850Y-2993866D03*
X+8118219Y-2853714D03*
X+5249412Y-804176D03*
X+6696244Y-3035770D03*
X+5257800Y-1714500D03*
X+5905500Y-2489200D03*
X+6698805Y-3180794D03*
X+7664736Y-1676863D03*
X+8001000Y-2498395D03*
X+6350000Y-2278425D03*
X+7874000Y-2278425D03*
X+8128000Y-2278425D03*
X+8382000Y-2278425D03*
X+8509000Y-2058455D03*
X+8763000Y-2058455D03*
X+1218186Y-1415070D03*
X+1980186Y-95250D03*
X+3924300Y-823914D03*
X+3416300Y-647938D03*
X+3822700Y-647938D03*
X+7924800Y-1608885D03*
X+7835900Y-1454906D03*
X+7747000Y-1300927D03*
X+7924800Y-1300927D03*
X+7835900Y-1146948D03*
X+8013700Y-838990D03*
X+8547100Y-838990D03*
X+8724900Y-838990D03*
X+8902700Y-838990D03*
X+8636000Y-685011D03*
X+8813800Y-685011D03*
X+8991600Y-685011D03*
X+8013700Y-531032D03*
X+8102600Y-377053D03*
X+8280400Y-377053D03*
X+8458200Y-377053D03*
X+7835900Y-223074D03*
X+8013700Y-223074D03*
X+8191500Y-223074D03*
X+8369300Y-223074D03*
X+8547100Y-223074D03*
X+8724900Y-223074D03*
X+7747000Y-69095D03*
X+7924800Y-69095D03*
X+8102600Y-69095D03*
X+8280400Y-69095D03*
X+8458200Y-69095D03*
X+8636000Y-69095D03*
X+8813800Y-69095D03*
X+5638800Y-1608885D03*
X+5549900Y-1454906D03*
X+5461000Y-1300927D03*
X+5638800Y-1300927D03*
X+5549900Y-1146948D03*
X+5727700Y-838990D03*
X+6616700Y-838990D03*
X+6527800Y-685011D03*
X+6705600Y-685011D03*
X+5727700Y-531032D03*
X+6616700Y-531032D03*
X+5816600Y-377053D03*
X+5994400Y-377053D03*
X+5549900Y-223074D03*
X+5727700Y-223074D03*
X+5905500Y-223074D03*
X+6083300Y-223074D03*
X+6261100Y-223074D03*
X+6438900Y-223074D03*
X+5461000Y-69095D03*
X+5638800Y-69095D03*
X+5816600Y-69095D03*
X+5994400Y-69095D03*
X+6172200Y-69095D03*
X+6350000Y-69095D03*
X+7010400Y-2413000D03*
X+3556000Y-2168441D03*
X+3733800Y-2168441D03*
X+6223000Y-2168441D03*
X+8001000Y-2168441D03*
X+800100Y-782630D03*
X+0Y-320693D03*
X+800100Y+141244D03*
X+8826500Y+1638300D03*
X+9105900Y+1460500D03*
X+8802625Y-6177544D03*
X+8064500Y-4508500D03*
X+8001000Y-4826000D03*
X+6286500Y-4584700D03*
X+6604000Y-4584700D03*
X+6153231Y-4826944D03*
X+6778656Y-4571579D03*
X+1955800Y-3334134D03*
X+2159000Y-3334134D03*
X+1549400Y-2982182D03*
X+1752600Y-2982182D03*
X+1447800Y-2806206D03*
X+1651000Y-2806206D03*
X+1854200Y-2806206D03*
X+736600Y-2630230D03*
X+939800Y-2630230D03*
X+1143000Y-2630230D03*
X+1346200Y-2630230D03*
X+1549400Y-2630230D03*
X+635000Y-2454254D03*
X+838200Y-2454254D03*
X+1041400Y-2454254D03*
X+1244600Y-2454254D03*
X+1447800Y-2454254D03*
X+3073400Y-2454254D03*
X+736600Y-2278278D03*
X+939800Y-2278278D03*
X+1143000Y-2278278D03*
X+1346200Y-2278278D03*
X+1549400Y-2278278D03*
X+635000Y-2102302D03*
X+838200Y-2102302D03*
X+1041400Y-2102302D03*
X+1244600Y-2102302D03*
X+1447800Y-2102302D03*
X+7010400Y-2159000D03*
X+736600Y-1926326D03*
X+635000Y-1750350D03*
X+838200Y-1750350D03*
X+533400Y-1574374D03*
X+736600Y-1574374D03*
X+431800Y-1398398D03*
X+635000Y-1398398D03*
X+838200Y-1398398D03*
X+25400Y-694494D03*
X+330200Y-518518D03*
X+838200Y-342542D03*
X-660400Y+254000D03*
X-76200Y+537338D03*
X-76200Y+889290D03*
X-889000Y+1241242D03*
X-889000Y+1593194D03*
X-889000Y+1945146D03*
X+127000Y+1945146D03*
X+330200Y+1945146D03*
X+533400Y+1945146D03*
X+736600Y+1945146D03*
X+939800Y+1945146D03*
X+1346200Y+1945146D03*
X+1549400Y+1945146D03*
X-787400Y+2121122D03*
X-889000Y+2297098D03*
X-685800Y+2297098D03*
X-787400Y+2473074D03*
X-584200Y+2473074D03*
X+228600Y+2473074D03*
X+431800Y+2473074D03*
X+635000Y+2473074D03*
X+838200Y+2473074D03*
X+1041400Y+2473074D03*
X+1244600Y+2473074D03*
X+1447800Y+2473074D03*
X-698500Y-1257300D03*
X-927100Y-1054100D03*
X-889000Y-1602936D03*
X-787400Y-1426960D03*
X-381000Y-1426960D03*
X-889000Y-1250984D03*
X-787400Y-1075008D03*
X-889000Y-899032D03*
X-889000Y-547080D03*
X-482600Y-547080D03*
X-584200Y-371104D03*
X-381000Y-371104D03*
X+1638300Y-1591046D03*
X+1536700Y-1415070D03*
X+1435100Y-1239094D03*
X+1638300Y-1239094D03*
X+1333500Y-1063118D03*
X+1536700Y-1063118D03*
X+1435100Y-887142D03*
X+1333500Y-711166D03*
X+1536700Y-711166D03*
X+1333500Y+344690D03*
X+1435100Y+1224570D03*
X+3145817Y-5333103D03*
X+4895850Y-4946650D03*
X+3944752Y-3532550D03*
X+5431385Y-2971800D03*
X+2857500Y-762000D03*
X+2921000Y-1016000D03*
X+3576345Y-2643122D03*
X+4818888Y-2925288D03*
X+5842000Y-3162300D03*
X+3302000Y-5207000D03*
X+4752309Y-4765009D03*
X+1206500Y-1635040D03*
X+228600Y+1290561D03*
X+406400Y+1290561D03*
X+584200Y+1290561D03*
X+762000Y+1290561D03*
X+939800Y+1290561D03*
X+8801100Y-2278278D03*
X+3378200Y-2124299D03*
X-533400Y+31407D03*
X-889000Y+339365D03*
X-533400Y+1879155D03*
X+6883138Y-3230089D03*
X+6832600Y-901700D03*
D17*
X+5249124Y-1453322D03*
D53*
X+1384300Y-1635040D03*
X+1892300Y-1635040D03*
X+1765300Y-1415070D03*
X+2019300Y-1415070D03*
X+1892300Y-1195100D03*
X+1765300Y-975130D03*
X+2019300Y-975130D03*
X+1892300Y-755160D03*
X+1765300Y-535190D03*
X+2019300Y-535190D03*
X+1892300Y-315220D03*
X+2654300Y-315220D03*
X+2273300Y-95250D03*
X+1638300Y+124720D03*
X+1892300Y+124720D03*
X+1511300Y+344690D03*
X+1765300Y+344690D03*
X+2273300Y+344690D03*
X+2527300Y+344690D03*
X+1511300Y+784630D03*
X+1765300Y+784630D03*
X+2019300Y+784630D03*
X+2273300Y+784630D03*
X+2527300Y+784630D03*
X+1384300Y+1004600D03*
X+1892300Y+1004600D03*
X-106680Y-6243320D03*
X-909320Y-5484593D03*
X-909320Y-5230593D03*
X-909320Y-4722593D03*
X+2326575Y+2560320D03*
X+2580575Y+2560320D03*
X+3342575Y+2560320D03*
X+3596575Y+2560320D03*
X+3850575Y+2560320D03*
X+4104575Y+2560320D03*
X+4358575Y+2560320D03*
X+4612575Y+2560320D03*
X+4866575Y+2560320D03*
X+5120575Y+2560320D03*
X+5374575Y+2560320D03*
X+5628575Y+2560320D03*
X+5882575Y+2560320D03*
X+6136575Y+2560320D03*
X+6390575Y+2560320D03*
X+6644575Y+2560320D03*
X+6898575Y+2560320D03*
X+7152575Y+2560320D03*
X+7406575Y+2560320D03*
X+7660575Y+2560320D03*
X+7914575Y+2560320D03*
X+8168575Y+2560320D03*
X+8422575Y+2560320D03*
X+8676575Y+2560320D03*
X+8930575Y+2560320D03*
X+9545320Y+1821839D03*
X+9545320Y+1567839D03*
X+9545320Y+1313839D03*
X+9545320Y-2750161D03*
X+9545320Y-3004161D03*
X+9545320Y-3258161D03*
X+9545320Y-3512161D03*
X+9545320Y-3766161D03*
X+9545320Y-4020161D03*
X+9545320Y-4274161D03*
X+9545320Y-4528161D03*
X+9545320Y-4782161D03*
X+9545320Y-5036161D03*
X+9545320Y-5290161D03*
X+9545320Y-5544161D03*
X+5430518Y-5990308D03*
X+3271518Y-5770338D03*
X+3525518Y-5770338D03*
X+3144518Y-5550368D03*
X+3398518Y-5550368D03*
X+3652518Y-5550368D03*
X+9113518Y-4450518D03*
X+9367518Y-4450518D03*
X+858518Y-4230548D03*
X+1112518Y-4230548D03*
X+9240518Y-4230548D03*
X+985518Y-4010578D03*
X+9367518Y-4010578D03*
X+9240518Y-3790608D03*
X+9367518Y-3570638D03*
X+9240518Y-3350668D03*
X+9367518Y-3130698D03*
X+2255518Y+1268702D03*
X+2509518Y+1268702D03*
X+2763518Y+1268702D03*
X+3017518Y+1268702D03*
X+3271518Y+1268702D03*
X+4795518Y+1268702D03*
X+5049518Y+1268702D03*
X+5303518Y+1268702D03*
X+5557518Y+1268702D03*
X+5811518Y+1268702D03*
X+7335518Y+1268702D03*
X+7589518Y+1268702D03*
X+2382518Y+1488672D03*
X+2636518Y+1488672D03*
X+2890518Y+1488672D03*
X+3144518Y+1488672D03*
X+3398518Y+1488672D03*
X+4922518Y+1488672D03*
X+5176518Y+1488672D03*
X+5430518Y+1488672D03*
X+5684518Y+1488672D03*
X+7208518Y+1488672D03*
X+7462518Y+1488672D03*
X+7716518Y+1488672D03*
X+2255518Y+1708642D03*
X+2509518Y+1708642D03*
X+2763518Y+1708642D03*
X+3017518Y+1708642D03*
X+3271518Y+1708642D03*
X+4795518Y+1708642D03*
X+5049518Y+1708642D03*
X+5303518Y+1708642D03*
X+5557518Y+1708642D03*
X+5811518Y+1708642D03*
X+7335518Y+1708642D03*
X+7589518Y+1708642D03*
X+2382518Y+1928612D03*
X+2636518Y+1928612D03*
X+3398518Y+1928612D03*
X+4922518Y+1928612D03*
X+5176518Y+1928612D03*
X+5430518Y+1928612D03*
X+5684518Y+1928612D03*
X+7208518Y+1928612D03*
X+7462518Y+1928612D03*
X+7716518Y+1928612D03*
X+2255518Y+2148582D03*
X+4795518Y+2148582D03*
X+5049518Y+2148582D03*
X+5303518Y+2148582D03*
X+5557518Y+2148582D03*
X+5811518Y+2148582D03*
X+7335518Y+2148582D03*
X+7589518Y+2148582D03*
X+2382518Y+2368552D03*
X+4922518Y+2368552D03*
X+5176518Y+2368552D03*
X+5430518Y+2368552D03*
X+5684518Y+2368552D03*
X+7208518Y+2368552D03*
X+7462518Y+2368552D03*
X+7716518Y+2368552D03*
X+5249412Y-1454150D03*
X+7545632Y-1454630D03*
X+635000Y-3400126D03*
X+635000Y-2960186D03*
X+2032000Y-2740216D03*
X+1905000Y-2520246D03*
X+1778000Y-2300276D03*
X+2540000Y-2300276D03*
X+2794000Y-2300276D03*
X+1651000Y-2080306D03*
X+1905000Y-2080306D03*
X-889000Y+999274D03*
X+254000Y+2099124D03*
X+1270000Y+2099124D03*
X+0Y+2539064D03*
X+1778000Y+2539064D03*
X+4849152Y+136041D03*
X+4855876Y+1015407D03*
X+9330122Y-39719D03*
X+9512300Y+1016000D03*
X+7212726Y+148446D03*
X+7200900Y+1028700D03*
X+2602489Y-5621043D03*
D56*
X+4318000Y+1714500D03*
X+6667500Y+1714500D03*
X+8255000Y+1651000D03*
D81*
X+2413000Y-716000D03*
X+2413000Y-1016000D03*
X+2413000Y-218000D03*
X+2413000Y-508000D03*
X+2667000Y-726000D03*
X+2667000Y-1016000D03*
D82*
X-553200Y-4224020D03*
D83*
X-324600Y-4914900D03*
X-781800Y-4914900D03*
D82*
X+285000Y-4224020D03*
D83*
X+513600Y-4914900D03*
X+56400Y-4914900D03*
D84*
X+173000Y-1460500D03*
X-127000Y-1460500D03*
X+173000Y-952500D03*
X-127000Y-952500D03*
X+173000Y-1206500D03*
X-127000Y-1206500D03*
X+889000Y-1143000D03*
X+1189000Y-1143000D03*
D66*
X-602309Y+718491D03*
D56*
X-571500Y-1727200D03*
D84*
X-469100Y-5232400D03*
X-769100Y-5232400D03*
D81*
X+818400Y-4914900D03*
X+818400Y-4614900D03*
X+2413000Y-1714500D03*
X+2413000Y-2014500D03*
X+2667000Y-1714500D03*
X+2667000Y-2004500D03*
X+2413000Y-1206500D03*
X+2413000Y-1496500D03*
D40*
X+6259000Y-3273402D03*
X+6259000Y-3338402D03*
X+6259000Y-3403402D03*
X+6259000Y-3468402D03*
X+5829000Y-3468402D03*
X+5829000Y-3403402D03*
X+5829000Y-3338402D03*
X+5829000Y-3273402D03*
X+7486107Y-3273033D03*
X+7486107Y-3338033D03*
X+7486107Y-3403033D03*
X+7486107Y-3468033D03*
X+7056107Y-3468033D03*
X+7056107Y-3403033D03*
X+7056107Y-3338033D03*
X+7056107Y-3273033D03*
X+8735869Y-3274533D03*
X+8735869Y-3339533D03*
X+8735869Y-3404533D03*
X+8735869Y-3469533D03*
X+8305869Y-3469533D03*
X+8305869Y-3404533D03*
X+8305869Y-3339533D03*
X+8305869Y-3274533D03*
D84*
X+6195500Y-2957402D03*
X+5895500Y-2957402D03*
X+7422607Y-2957033D03*
X+7122607Y-2957033D03*
X+8672369Y-2958533D03*
X+8372369Y-2958533D03*
X+6432000Y-3719402D03*
X+6132000Y-3719402D03*
X+7676607Y-3719033D03*
X+7376607Y-3719033D03*
X+8908869Y-3719033D03*
X+8608869Y-3719033D03*
X+6432000Y-3973402D03*
X+6132000Y-3973402D03*
X+5824500Y-4227402D03*
X+5524500Y-4227402D03*
X+5524500Y-3719402D03*
X+5814500Y-3719402D03*
X+6422000Y-4227402D03*
X+6132000Y-4227402D03*
X+6787607Y-3719033D03*
X+7077607Y-3719033D03*
X+7676607Y-3973033D03*
X+7386607Y-3973033D03*
X+8019869Y-3719033D03*
X+8309869Y-3719033D03*
X+8908869Y-3973033D03*
X+8618869Y-3973033D03*
X+7087607Y-4227033D03*
X+6787607Y-4227033D03*
X+7676607Y-4227033D03*
X+7376607Y-4227033D03*
X+8319869Y-4227033D03*
X+8019869Y-4227033D03*
X+8908869Y-4227033D03*
X+8608869Y-4227033D03*
X+7158000Y-6159500D03*
X+6858000Y-6159500D03*
D81*
X+2311400Y-4978400D03*
X+2311400Y-5278400D03*
X-762000Y+63500D03*
X-762000Y-236500D03*
D85*
X+673100Y-6083300D03*
X+988060Y-6083300D03*
D76*
X+9245600Y-5181500D03*
X+9245600Y-4981500D03*
X+9245600Y-4781500D03*
D81*
X+8204200Y-5272600D03*
X+8204200Y-5562600D03*
D84*
X+7203000Y-5232400D03*
X+7493000Y-5232400D03*
D81*
X+7731100Y-5259900D03*
X+7731100Y-5549900D03*
D84*
X+8643416Y-4793216D03*
X+8933416Y-4793216D03*
X+467800Y-6083300D03*
X+177800Y-6083300D03*
X+1905000Y-4508500D03*
X+2195000Y-4508500D03*
X+1905000Y-4254500D03*
X+2195000Y-4254500D03*
D81*
X+2057400Y-5268400D03*
X+2057400Y-4978400D03*
X+1524000Y-4686300D03*
X+1524000Y-4976300D03*
D77*
X+8356500Y-5905500D03*
X+8156500Y-5905500D03*
X+7956500Y-5905500D03*
X+7756500Y-5905500D03*
X+7556500Y-5905500D03*
X+7356500Y-5905500D03*
D56*
X-469900Y-990600D03*
X+1146547Y+625845D03*
X-177800Y+1473200D03*
X-177800Y+2223200D03*
X+1739900Y+1460500D03*
X+1739900Y+2210500D03*
D66*
X+9283700Y+2298700D03*
X+2984500Y+2298700D03*
X+9271000Y-5969000D03*
X-635000Y-5969000D03*
D77*
X+4124500Y-5905500D03*
X+4324500Y-5905500D03*
X+4524500Y-5905500D03*
X+4724500Y-5905500D03*
X+4924500Y-5905500D03*
X+5124500Y-5905500D03*
X+5686500Y-5905500D03*
X+5886500Y-5905500D03*
X+6086500Y-5905500D03*
X+6286500Y-5905500D03*
X+6486500Y-5905500D03*
X+6686500Y-5905500D03*
X+5712000Y-5270500D03*
X+5912000Y-5270500D03*
X+6112000Y-5270500D03*
X+6312000Y-5270500D03*
X+6512000Y-5270500D03*
X+6712000Y-5270500D03*
X+1722985Y-6086392D03*
X+1522985Y-6086392D03*
X+1322985Y-6086392D03*
D78*
X+1587500Y-3886200D03*
X+1587500Y-3386200D03*
D86*
X+4054500Y-2159000D03*
X+4254500Y-2159000D03*
D87*
X+1041400Y-2997200D03*
X+1041400Y-3697200D03*
D78*
X+76200Y-1955800D03*
X+426200Y-1955800D03*
X+76200Y-2794000D03*
X+426200Y-2794000D03*
X+56400Y-5257800D03*
X+406400Y-5257800D03*
X+119900Y-3670300D03*
X+469900Y-3670300D03*
D88*
X+5660311Y-2750411D03*
X+5518890Y-2608990D03*
X+5816600Y-2603500D03*
X+5675178Y-2462078D03*
D89*
X+7162800Y-2717800D03*
X+7162800Y-2517800D03*
X+7378700Y-2714600D03*
X+7378700Y-2514600D03*
D86*
X+8867800Y-2717800D03*
X+9067800Y-2717800D03*
X+8864600Y-2946400D03*
X+9064600Y-2946400D03*
D90*
X-23900Y-2374900D03*
X-723900Y-2374900D03*
X-23900Y-3238500D03*
X-723900Y-3238500D03*
D81*
X+4762500Y-518600D03*
X+4762500Y-228600D03*
X+5041900Y-520700D03*
X+5041900Y-230700D03*
X+7112000Y-480500D03*
X+7112000Y-190500D03*
X+7353300Y-480500D03*
X+7353300Y-190500D03*
X+9220200Y-531300D03*
X+9220200Y-241300D03*
X+9474200Y-531300D03*
X+9474200Y-241300D03*
D85*
X+2552700Y-6083300D03*
X+2867660Y-6083300D03*
D84*
X+2336800Y-6083300D03*
X+2046800Y-6083300D03*
D85*
X+675640Y-5791200D03*
X+990600Y-5791200D03*
D81*
X+165100Y-5791200D03*
X+165100Y-5501200D03*
D38*
X-1079500Y-6413500D02*
X+9715500Y-6413500D01*
X+9715500Y+2730500D01*
X-1079500Y+2730500D01*
X-1079500Y-6413500D01*
M02*
