G04 PROTEUS RS274X GERBER FILE*
%FSLAX45Y45*%
%MOMM*%
G01*
%ADD20C,0.203200*%
%ADD94C,0.127000*%
%ADD95C,0.063500*%
D20*
X+3810000Y+4508500D02*
X+3810000Y+4381500D01*
X+3746500Y+4445000D02*
X+3873500Y+4445000D01*
X+4051457Y+4766273D02*
X+4051457Y+4639273D01*
X+3987957Y+4702773D02*
X+4114957Y+4702773D01*
X+1987099Y+4743901D02*
X+2076901Y+4654099D01*
X+1987099Y+4654099D02*
X+2076901Y+4743901D01*
X+1987099Y+4489901D02*
X+2076901Y+4400099D01*
X+1987099Y+4400099D02*
X+2076901Y+4489901D01*
X+3765099Y+4743901D02*
X+3854901Y+4654099D01*
X+3765099Y+4654099D02*
X+3854901Y+4743901D01*
X+4010329Y+4743901D02*
X+4100131Y+4654099D01*
X+4010329Y+4654099D02*
X+4100131Y+4743901D01*
X+4006717Y+4488403D02*
X+4096519Y+4398601D01*
X+4006717Y+4398601D02*
X+4096519Y+4488403D01*
X+3766597Y+4488403D02*
X+3856399Y+4398601D01*
X+3766597Y+4398601D02*
X+3856399Y+4488403D01*
X+5543099Y+4743901D02*
X+5632901Y+4654099D01*
X+5543099Y+4654099D02*
X+5632901Y+4743901D01*
X+5797099Y+4743901D02*
X+5886901Y+4654099D01*
X+5797099Y+4654099D02*
X+5886901Y+4743901D01*
X+5543099Y+4489901D02*
X+5632901Y+4400099D01*
X+5543099Y+4400099D02*
X+5632901Y+4489901D01*
X+6932019Y+4733288D02*
X+7021821Y+4643486D01*
X+6932019Y+4643486D02*
X+7021821Y+4733288D01*
X+5797099Y+4489901D02*
X+5886901Y+4400099D01*
X+5797099Y+4400099D02*
X+5886901Y+4489901D01*
X+9353099Y+4489901D02*
X+9442901Y+4400099D01*
X+9353099Y+4400099D02*
X+9442901Y+4489901D01*
X+7612422Y+7847735D02*
X+7612422Y+7720735D01*
X+7548922Y+7784235D02*
X+7675922Y+7784235D01*
X+7678581Y+4756161D02*
X+7678581Y+4629161D01*
X+7615081Y+4692661D02*
X+7742081Y+4692661D01*
X+7248965Y+4733191D02*
X+7338767Y+4643389D01*
X+7248965Y+4643389D02*
X+7338767Y+4733191D01*
X+7629309Y+4733191D02*
X+7719111Y+4643389D01*
X+7629309Y+4643389D02*
X+7719111Y+4733191D01*
X+6139513Y+7539665D02*
X+6229315Y+7449863D01*
X+6139513Y+7449863D02*
X+6229315Y+7539665D01*
X+4360925Y+7537459D02*
X+4450727Y+7447657D01*
X+4360925Y+7447657D02*
X+4450727Y+7537459D01*
X+4216874Y+7534519D02*
X+4306676Y+7444717D01*
X+4216874Y+7444717D02*
X+4306676Y+7534519D01*
X+2495099Y+7537901D02*
X+2584901Y+7448099D01*
X+2495099Y+7448099D02*
X+2584901Y+7537901D01*
X+7565692Y+7827307D02*
X+7655494Y+7737505D01*
X+7565692Y+7737505D02*
X+7655494Y+7827307D01*
X+7565692Y+6658307D02*
X+7655494Y+6568505D01*
X+7565692Y+6568505D02*
X+7655494Y+6658307D01*
X+7067099Y+6648901D02*
X+7156901Y+6559099D01*
X+7067099Y+6559099D02*
X+7156901Y+6648901D01*
X+6432099Y+6648901D02*
X+6521901Y+6559099D01*
X+6432099Y+6559099D02*
X+6521901Y+6648901D01*
X+6940099Y+2330901D02*
X+7029901Y+2241099D01*
X+6940099Y+2241099D02*
X+7029901Y+2330901D01*
X+6836056Y+1940564D02*
X+6925858Y+1850762D01*
X+6836056Y+1850762D02*
X+6925858Y+1940564D01*
X+6432099Y+2203901D02*
X+6521901Y+2114099D01*
X+6432099Y+2114099D02*
X+6521901Y+2203901D01*
X+6503703Y+1267418D02*
X+6593505Y+1177616D01*
X+6503703Y+1177616D02*
X+6593505Y+1267418D01*
X+7264427Y+3744569D02*
X+7354229Y+3654767D01*
X+7264427Y+3654767D02*
X+7354229Y+3744569D01*
X+7259800Y+3371150D02*
X+7349602Y+3281348D01*
X+7259800Y+3281348D02*
X+7349602Y+3371150D01*
X+6209235Y+3407687D02*
X+6299037Y+3317885D01*
X+6209235Y+3317885D02*
X+6299037Y+3407687D01*
X+7072746Y+3409163D02*
X+7162548Y+3319361D01*
X+7072746Y+3319361D02*
X+7162548Y+3409163D01*
X+7810500Y+8000999D02*
X+7810283Y+8006246D01*
X+7808518Y+8016741D01*
X+7804826Y+8027236D01*
X+7798798Y+8037731D01*
X+7789576Y+8048111D01*
X+7779081Y+8055799D01*
X+7768586Y+8060717D01*
X+7758091Y+8063523D01*
X+7747596Y+8064496D01*
X+7747000Y+8064499D01*
X+7683500Y+8000999D02*
X+7683717Y+8006246D01*
X+7685482Y+8016741D01*
X+7689174Y+8027236D01*
X+7695202Y+8037731D01*
X+7704424Y+8048111D01*
X+7714919Y+8055799D01*
X+7725414Y+8060717D01*
X+7735909Y+8063523D01*
X+7746404Y+8064496D01*
X+7747000Y+8064499D01*
X+7683500Y+8000999D02*
X+7683717Y+7995752D01*
X+7685482Y+7985257D01*
X+7689174Y+7974762D01*
X+7695202Y+7964267D01*
X+7704424Y+7953887D01*
X+7714919Y+7946199D01*
X+7725414Y+7941281D01*
X+7735909Y+7938475D01*
X+7746404Y+7937502D01*
X+7747000Y+7937499D01*
X+7810500Y+8000999D02*
X+7810283Y+7995752D01*
X+7808518Y+7985257D01*
X+7804826Y+7974762D01*
X+7798798Y+7964267D01*
X+7789576Y+7953887D01*
X+7779081Y+7946199D01*
X+7768586Y+7941281D01*
X+7758091Y+7938475D01*
X+7747596Y+7937502D01*
X+7747000Y+7937499D01*
X+7747000Y+8064499D02*
X+7747000Y+7937499D01*
X+7683500Y+8000999D02*
X+7810500Y+8000999D01*
X+7810283Y+8006246D01*
X+7808518Y+8016741D01*
X+7804826Y+8027236D01*
X+7798798Y+8037731D01*
X+7789576Y+8048111D01*
X+7779081Y+8055799D01*
X+7768586Y+8060717D01*
X+7758091Y+8063523D01*
X+7747596Y+8064496D01*
X+7747000Y+8064499D01*
X+7683500Y+8000999D02*
X+7683717Y+8006246D01*
X+7685482Y+8016741D01*
X+7689174Y+8027236D01*
X+7695202Y+8037731D01*
X+7704424Y+8048111D01*
X+7714919Y+8055799D01*
X+7725414Y+8060717D01*
X+7735909Y+8063523D01*
X+7746404Y+8064496D01*
X+7747000Y+8064499D01*
X+7683500Y+8000999D02*
X+7683717Y+7995752D01*
X+7685482Y+7985257D01*
X+7689174Y+7974762D01*
X+7695202Y+7964267D01*
X+7704424Y+7953887D01*
X+7714919Y+7946199D01*
X+7725414Y+7941281D01*
X+7735909Y+7938475D01*
X+7746404Y+7937502D01*
X+7747000Y+7937499D01*
X+7810500Y+8000999D02*
X+7810283Y+7995752D01*
X+7808518Y+7985257D01*
X+7804826Y+7974762D01*
X+7798798Y+7964267D01*
X+7789576Y+7953887D01*
X+7779081Y+7946199D01*
X+7768586Y+7941281D01*
X+7758091Y+7938475D01*
X+7747596Y+7937502D01*
X+7747000Y+7937499D01*
X+7702099Y+8045900D02*
X+7791901Y+7956098D01*
X+7702099Y+7956098D02*
X+7791901Y+8045900D01*
X+9461500Y+8001000D02*
X+9461283Y+8006247D01*
X+9459518Y+8016742D01*
X+9455826Y+8027237D01*
X+9449798Y+8037732D01*
X+9440576Y+8048112D01*
X+9430081Y+8055800D01*
X+9419586Y+8060718D01*
X+9409091Y+8063524D01*
X+9398596Y+8064497D01*
X+9398000Y+8064500D01*
X+9334500Y+8001000D02*
X+9334717Y+8006247D01*
X+9336482Y+8016742D01*
X+9340174Y+8027237D01*
X+9346202Y+8037732D01*
X+9355424Y+8048112D01*
X+9365919Y+8055800D01*
X+9376414Y+8060718D01*
X+9386909Y+8063524D01*
X+9397404Y+8064497D01*
X+9398000Y+8064500D01*
X+9334500Y+8001000D02*
X+9334717Y+7995753D01*
X+9336482Y+7985258D01*
X+9340174Y+7974763D01*
X+9346202Y+7964268D01*
X+9355424Y+7953888D01*
X+9365919Y+7946200D01*
X+9376414Y+7941282D01*
X+9386909Y+7938476D01*
X+9397404Y+7937503D01*
X+9398000Y+7937500D01*
X+9461500Y+8001000D02*
X+9461283Y+7995753D01*
X+9459518Y+7985258D01*
X+9455826Y+7974763D01*
X+9449798Y+7964268D01*
X+9440576Y+7953888D01*
X+9430081Y+7946200D01*
X+9419586Y+7941282D01*
X+9409091Y+7938476D01*
X+9398596Y+7937503D01*
X+9398000Y+7937500D01*
X+9398000Y+8064500D02*
X+9398000Y+7937500D01*
X+9334500Y+8001000D02*
X+9461500Y+8001000D01*
X+9461283Y+8006247D01*
X+9459518Y+8016742D01*
X+9455826Y+8027237D01*
X+9449798Y+8037732D01*
X+9440576Y+8048112D01*
X+9430081Y+8055800D01*
X+9419586Y+8060718D01*
X+9409091Y+8063524D01*
X+9398596Y+8064497D01*
X+9398000Y+8064500D01*
X+9334500Y+8001000D02*
X+9334717Y+8006247D01*
X+9336482Y+8016742D01*
X+9340174Y+8027237D01*
X+9346202Y+8037732D01*
X+9355424Y+8048112D01*
X+9365919Y+8055800D01*
X+9376414Y+8060718D01*
X+9386909Y+8063524D01*
X+9397404Y+8064497D01*
X+9398000Y+8064500D01*
X+9334500Y+8001000D02*
X+9334717Y+7995753D01*
X+9336482Y+7985258D01*
X+9340174Y+7974763D01*
X+9346202Y+7964268D01*
X+9355424Y+7953888D01*
X+9365919Y+7946200D01*
X+9376414Y+7941282D01*
X+9386909Y+7938476D01*
X+9397404Y+7937503D01*
X+9398000Y+7937500D01*
X+9461500Y+8001000D02*
X+9461283Y+7995753D01*
X+9459518Y+7985258D01*
X+9455826Y+7974763D01*
X+9449798Y+7964268D01*
X+9440576Y+7953888D01*
X+9430081Y+7946200D01*
X+9419586Y+7941282D01*
X+9409091Y+7938476D01*
X+9398596Y+7937503D01*
X+9398000Y+7937500D01*
X+9353099Y+8045901D02*
X+9442901Y+7956099D01*
X+9353099Y+7956099D02*
X+9442901Y+8045901D01*
X+8572501Y+8000999D02*
X+8572284Y+8006246D01*
X+8570519Y+8016741D01*
X+8566827Y+8027236D01*
X+8560799Y+8037731D01*
X+8551577Y+8048111D01*
X+8541082Y+8055799D01*
X+8530587Y+8060717D01*
X+8520092Y+8063523D01*
X+8509597Y+8064496D01*
X+8509001Y+8064499D01*
X+8445501Y+8000999D02*
X+8445718Y+8006246D01*
X+8447483Y+8016741D01*
X+8451175Y+8027236D01*
X+8457203Y+8037731D01*
X+8466425Y+8048111D01*
X+8476920Y+8055799D01*
X+8487415Y+8060717D01*
X+8497910Y+8063523D01*
X+8508405Y+8064496D01*
X+8509001Y+8064499D01*
X+8445501Y+8000999D02*
X+8445718Y+7995752D01*
X+8447483Y+7985257D01*
X+8451175Y+7974762D01*
X+8457203Y+7964267D01*
X+8466425Y+7953887D01*
X+8476920Y+7946199D01*
X+8487415Y+7941281D01*
X+8497910Y+7938475D01*
X+8508405Y+7937502D01*
X+8509001Y+7937499D01*
X+8572501Y+8000999D02*
X+8572284Y+7995752D01*
X+8570519Y+7985257D01*
X+8566827Y+7974762D01*
X+8560799Y+7964267D01*
X+8551577Y+7953887D01*
X+8541082Y+7946199D01*
X+8530587Y+7941281D01*
X+8520092Y+7938475D01*
X+8509597Y+7937502D01*
X+8509001Y+7937499D01*
X+8509001Y+8064499D02*
X+8509001Y+7937499D01*
X+8445501Y+8000999D02*
X+8572501Y+8000999D01*
X+8572284Y+8006246D01*
X+8570519Y+8016741D01*
X+8566827Y+8027236D01*
X+8560799Y+8037731D01*
X+8551577Y+8048111D01*
X+8541082Y+8055799D01*
X+8530587Y+8060717D01*
X+8520092Y+8063523D01*
X+8509597Y+8064496D01*
X+8509001Y+8064499D01*
X+8445501Y+8000999D02*
X+8445718Y+8006246D01*
X+8447483Y+8016741D01*
X+8451175Y+8027236D01*
X+8457203Y+8037731D01*
X+8466425Y+8048111D01*
X+8476920Y+8055799D01*
X+8487415Y+8060717D01*
X+8497910Y+8063523D01*
X+8508405Y+8064496D01*
X+8509001Y+8064499D01*
X+8445501Y+8000999D02*
X+8445718Y+7995752D01*
X+8447483Y+7985257D01*
X+8451175Y+7974762D01*
X+8457203Y+7964267D01*
X+8466425Y+7953887D01*
X+8476920Y+7946199D01*
X+8487415Y+7941281D01*
X+8497910Y+7938475D01*
X+8508405Y+7937502D01*
X+8509001Y+7937499D01*
X+8572501Y+8000999D02*
X+8572284Y+7995752D01*
X+8570519Y+7985257D01*
X+8566827Y+7974762D01*
X+8560799Y+7964267D01*
X+8551577Y+7953887D01*
X+8541082Y+7946199D01*
X+8530587Y+7941281D01*
X+8520092Y+7938475D01*
X+8509597Y+7937502D01*
X+8509001Y+7937499D01*
X+8464100Y+8045900D02*
X+8553902Y+7956098D01*
X+8464100Y+7956098D02*
X+8553902Y+8045900D01*
X+8572500Y+5715000D02*
X+8572283Y+5720247D01*
X+8570518Y+5730742D01*
X+8566826Y+5741237D01*
X+8560798Y+5751732D01*
X+8551576Y+5762112D01*
X+8541081Y+5769800D01*
X+8530586Y+5774718D01*
X+8520091Y+5777524D01*
X+8509596Y+5778497D01*
X+8509000Y+5778500D01*
X+8445500Y+5715000D02*
X+8445717Y+5720247D01*
X+8447482Y+5730742D01*
X+8451174Y+5741237D01*
X+8457202Y+5751732D01*
X+8466424Y+5762112D01*
X+8476919Y+5769800D01*
X+8487414Y+5774718D01*
X+8497909Y+5777524D01*
X+8508404Y+5778497D01*
X+8509000Y+5778500D01*
X+8445500Y+5715000D02*
X+8445717Y+5709753D01*
X+8447482Y+5699258D01*
X+8451174Y+5688763D01*
X+8457202Y+5678268D01*
X+8466424Y+5667888D01*
X+8476919Y+5660200D01*
X+8487414Y+5655282D01*
X+8497909Y+5652476D01*
X+8508404Y+5651503D01*
X+8509000Y+5651500D01*
X+8572500Y+5715000D02*
X+8572283Y+5709753D01*
X+8570518Y+5699258D01*
X+8566826Y+5688763D01*
X+8560798Y+5678268D01*
X+8551576Y+5667888D01*
X+8541081Y+5660200D01*
X+8530586Y+5655282D01*
X+8520091Y+5652476D01*
X+8509596Y+5651503D01*
X+8509000Y+5651500D01*
X+8509000Y+5778500D02*
X+8509000Y+5651500D01*
X+8445500Y+5715000D02*
X+8572500Y+5715000D01*
X+8572283Y+5720247D01*
X+8570518Y+5730742D01*
X+8566826Y+5741237D01*
X+8560798Y+5751732D01*
X+8551576Y+5762112D01*
X+8541081Y+5769800D01*
X+8530586Y+5774718D01*
X+8520091Y+5777524D01*
X+8509596Y+5778497D01*
X+8509000Y+5778500D01*
X+8445500Y+5715000D02*
X+8445717Y+5720247D01*
X+8447482Y+5730742D01*
X+8451174Y+5741237D01*
X+8457202Y+5751732D01*
X+8466424Y+5762112D01*
X+8476919Y+5769800D01*
X+8487414Y+5774718D01*
X+8497909Y+5777524D01*
X+8508404Y+5778497D01*
X+8509000Y+5778500D01*
X+8445500Y+5715000D02*
X+8445717Y+5709753D01*
X+8447482Y+5699258D01*
X+8451174Y+5688763D01*
X+8457202Y+5678268D01*
X+8466424Y+5667888D01*
X+8476919Y+5660200D01*
X+8487414Y+5655282D01*
X+8497909Y+5652476D01*
X+8508404Y+5651503D01*
X+8509000Y+5651500D01*
X+8572500Y+5715000D02*
X+8572283Y+5709753D01*
X+8570518Y+5699258D01*
X+8566826Y+5688763D01*
X+8560798Y+5678268D01*
X+8551576Y+5667888D01*
X+8541081Y+5660200D01*
X+8530586Y+5655282D01*
X+8520091Y+5652476D01*
X+8509596Y+5651503D01*
X+8509000Y+5651500D01*
X+8464099Y+5759901D02*
X+8553901Y+5670099D01*
X+8464099Y+5670099D02*
X+8553901Y+5759901D01*
X+8191500Y+1905000D02*
X+8191283Y+1910247D01*
X+8189518Y+1920742D01*
X+8185826Y+1931237D01*
X+8179798Y+1941732D01*
X+8170576Y+1952112D01*
X+8160081Y+1959800D01*
X+8149586Y+1964718D01*
X+8139091Y+1967524D01*
X+8128596Y+1968497D01*
X+8128000Y+1968500D01*
X+8064500Y+1905000D02*
X+8064717Y+1910247D01*
X+8066482Y+1920742D01*
X+8070174Y+1931237D01*
X+8076202Y+1941732D01*
X+8085424Y+1952112D01*
X+8095919Y+1959800D01*
X+8106414Y+1964718D01*
X+8116909Y+1967524D01*
X+8127404Y+1968497D01*
X+8128000Y+1968500D01*
X+8064500Y+1905000D02*
X+8064717Y+1899753D01*
X+8066482Y+1889258D01*
X+8070174Y+1878763D01*
X+8076202Y+1868268D01*
X+8085424Y+1857888D01*
X+8095919Y+1850200D01*
X+8106414Y+1845282D01*
X+8116909Y+1842476D01*
X+8127404Y+1841503D01*
X+8128000Y+1841500D01*
X+8191500Y+1905000D02*
X+8191283Y+1899753D01*
X+8189518Y+1889258D01*
X+8185826Y+1878763D01*
X+8179798Y+1868268D01*
X+8170576Y+1857888D01*
X+8160081Y+1850200D01*
X+8149586Y+1845282D01*
X+8139091Y+1842476D01*
X+8128596Y+1841503D01*
X+8128000Y+1841500D01*
X+8128000Y+1968500D02*
X+8128000Y+1841500D01*
X+8064500Y+1905000D02*
X+8191500Y+1905000D01*
X+8941501Y+1905000D02*
X+8941284Y+1910247D01*
X+8939519Y+1920742D01*
X+8935827Y+1931237D01*
X+8929799Y+1941732D01*
X+8920577Y+1952112D01*
X+8910082Y+1959800D01*
X+8899587Y+1964718D01*
X+8889092Y+1967524D01*
X+8878597Y+1968497D01*
X+8878001Y+1968500D01*
X+8814501Y+1905000D02*
X+8814718Y+1910247D01*
X+8816483Y+1920742D01*
X+8820175Y+1931237D01*
X+8826203Y+1941732D01*
X+8835425Y+1952112D01*
X+8845920Y+1959800D01*
X+8856415Y+1964718D01*
X+8866910Y+1967524D01*
X+8877405Y+1968497D01*
X+8878001Y+1968500D01*
X+8814501Y+1905000D02*
X+8814718Y+1899753D01*
X+8816483Y+1889258D01*
X+8820175Y+1878763D01*
X+8826203Y+1868268D01*
X+8835425Y+1857888D01*
X+8845920Y+1850200D01*
X+8856415Y+1845282D01*
X+8866910Y+1842476D01*
X+8877405Y+1841503D01*
X+8878001Y+1841500D01*
X+8941501Y+1905000D02*
X+8941284Y+1899753D01*
X+8939519Y+1889258D01*
X+8935827Y+1878763D01*
X+8929799Y+1868268D01*
X+8920577Y+1857888D01*
X+8910082Y+1850200D01*
X+8899587Y+1845282D01*
X+8889092Y+1842476D01*
X+8878597Y+1841503D01*
X+8878001Y+1841500D01*
X+8878001Y+1968500D02*
X+8878001Y+1841500D01*
X+8814501Y+1905000D02*
X+8941501Y+1905000D01*
X+8191500Y+3683000D02*
X+8191283Y+3688247D01*
X+8189518Y+3698742D01*
X+8185826Y+3709237D01*
X+8179798Y+3719732D01*
X+8170576Y+3730112D01*
X+8160081Y+3737800D01*
X+8149586Y+3742718D01*
X+8139091Y+3745524D01*
X+8128596Y+3746497D01*
X+8128000Y+3746500D01*
X+8064500Y+3683000D02*
X+8064717Y+3688247D01*
X+8066482Y+3698742D01*
X+8070174Y+3709237D01*
X+8076202Y+3719732D01*
X+8085424Y+3730112D01*
X+8095919Y+3737800D01*
X+8106414Y+3742718D01*
X+8116909Y+3745524D01*
X+8127404Y+3746497D01*
X+8128000Y+3746500D01*
X+8064500Y+3683000D02*
X+8064717Y+3677753D01*
X+8066482Y+3667258D01*
X+8070174Y+3656763D01*
X+8076202Y+3646268D01*
X+8085424Y+3635888D01*
X+8095919Y+3628200D01*
X+8106414Y+3623282D01*
X+8116909Y+3620476D01*
X+8127404Y+3619503D01*
X+8128000Y+3619500D01*
X+8191500Y+3683000D02*
X+8191283Y+3677753D01*
X+8189518Y+3667258D01*
X+8185826Y+3656763D01*
X+8179798Y+3646268D01*
X+8170576Y+3635888D01*
X+8160081Y+3628200D01*
X+8149586Y+3623282D01*
X+8139091Y+3620476D01*
X+8128596Y+3619503D01*
X+8128000Y+3619500D01*
X+8128000Y+3746500D02*
X+8128000Y+3619500D01*
X+8064500Y+3683000D02*
X+8191500Y+3683000D01*
X+8941500Y+3683000D02*
X+8941283Y+3688247D01*
X+8939518Y+3698742D01*
X+8935826Y+3709237D01*
X+8929798Y+3719732D01*
X+8920576Y+3730112D01*
X+8910081Y+3737800D01*
X+8899586Y+3742718D01*
X+8889091Y+3745524D01*
X+8878596Y+3746497D01*
X+8878000Y+3746500D01*
X+8814500Y+3683000D02*
X+8814717Y+3688247D01*
X+8816482Y+3698742D01*
X+8820174Y+3709237D01*
X+8826202Y+3719732D01*
X+8835424Y+3730112D01*
X+8845919Y+3737800D01*
X+8856414Y+3742718D01*
X+8866909Y+3745524D01*
X+8877404Y+3746497D01*
X+8878000Y+3746500D01*
X+8814500Y+3683000D02*
X+8814717Y+3677753D01*
X+8816482Y+3667258D01*
X+8820174Y+3656763D01*
X+8826202Y+3646268D01*
X+8835424Y+3635888D01*
X+8845919Y+3628200D01*
X+8856414Y+3623282D01*
X+8866909Y+3620476D01*
X+8877404Y+3619503D01*
X+8878000Y+3619500D01*
X+8941500Y+3683000D02*
X+8941283Y+3677753D01*
X+8939518Y+3667258D01*
X+8935826Y+3656763D01*
X+8929798Y+3646268D01*
X+8920576Y+3635888D01*
X+8910081Y+3628200D01*
X+8899586Y+3623282D01*
X+8889091Y+3620476D01*
X+8878596Y+3619503D01*
X+8878000Y+3619500D01*
X+8878000Y+3746500D02*
X+8878000Y+3619500D01*
X+8814500Y+3683000D02*
X+8941500Y+3683000D01*
X+1333500Y+8128000D02*
X+1333283Y+8133247D01*
X+1331518Y+8143742D01*
X+1327826Y+8154237D01*
X+1321798Y+8164732D01*
X+1312576Y+8175112D01*
X+1302081Y+8182800D01*
X+1291586Y+8187718D01*
X+1281091Y+8190524D01*
X+1270596Y+8191497D01*
X+1270000Y+8191500D01*
X+1206500Y+8128000D02*
X+1206717Y+8133247D01*
X+1208482Y+8143742D01*
X+1212174Y+8154237D01*
X+1218202Y+8164732D01*
X+1227424Y+8175112D01*
X+1237919Y+8182800D01*
X+1248414Y+8187718D01*
X+1258909Y+8190524D01*
X+1269404Y+8191497D01*
X+1270000Y+8191500D01*
X+1206500Y+8128000D02*
X+1206717Y+8122753D01*
X+1208482Y+8112258D01*
X+1212174Y+8101763D01*
X+1218202Y+8091268D01*
X+1227424Y+8080888D01*
X+1237919Y+8073200D01*
X+1248414Y+8068282D01*
X+1258909Y+8065476D01*
X+1269404Y+8064503D01*
X+1270000Y+8064500D01*
X+1333500Y+8128000D02*
X+1333283Y+8122753D01*
X+1331518Y+8112258D01*
X+1327826Y+8101763D01*
X+1321798Y+8091268D01*
X+1312576Y+8080888D01*
X+1302081Y+8073200D01*
X+1291586Y+8068282D01*
X+1281091Y+8065476D01*
X+1270596Y+8064503D01*
X+1270000Y+8064500D01*
X+1270000Y+8191500D02*
X+1270000Y+8064500D01*
X+1206500Y+8128000D02*
X+1333500Y+8128000D01*
X+1333283Y+8133247D01*
X+1331518Y+8143742D01*
X+1327826Y+8154237D01*
X+1321798Y+8164732D01*
X+1312576Y+8175112D01*
X+1302081Y+8182800D01*
X+1291586Y+8187718D01*
X+1281091Y+8190524D01*
X+1270596Y+8191497D01*
X+1270000Y+8191500D01*
X+1206500Y+8128000D02*
X+1206717Y+8133247D01*
X+1208482Y+8143742D01*
X+1212174Y+8154237D01*
X+1218202Y+8164732D01*
X+1227424Y+8175112D01*
X+1237919Y+8182800D01*
X+1248414Y+8187718D01*
X+1258909Y+8190524D01*
X+1269404Y+8191497D01*
X+1270000Y+8191500D01*
X+1206500Y+8128000D02*
X+1206717Y+8122753D01*
X+1208482Y+8112258D01*
X+1212174Y+8101763D01*
X+1218202Y+8091268D01*
X+1227424Y+8080888D01*
X+1237919Y+8073200D01*
X+1248414Y+8068282D01*
X+1258909Y+8065476D01*
X+1269404Y+8064503D01*
X+1270000Y+8064500D01*
X+1333500Y+8128000D02*
X+1333283Y+8122753D01*
X+1331518Y+8112258D01*
X+1327826Y+8101763D01*
X+1321798Y+8091268D01*
X+1312576Y+8080888D01*
X+1302081Y+8073200D01*
X+1291586Y+8068282D01*
X+1281091Y+8065476D01*
X+1270596Y+8064503D01*
X+1270000Y+8064500D01*
X+1225099Y+8172901D02*
X+1314901Y+8083099D01*
X+1225099Y+8083099D02*
X+1314901Y+8172901D01*
X+4889500Y+8128000D02*
X+4889283Y+8133247D01*
X+4887518Y+8143742D01*
X+4883826Y+8154237D01*
X+4877798Y+8164732D01*
X+4868576Y+8175112D01*
X+4858081Y+8182800D01*
X+4847586Y+8187718D01*
X+4837091Y+8190524D01*
X+4826596Y+8191497D01*
X+4826000Y+8191500D01*
X+4762500Y+8128000D02*
X+4762717Y+8133247D01*
X+4764482Y+8143742D01*
X+4768174Y+8154237D01*
X+4774202Y+8164732D01*
X+4783424Y+8175112D01*
X+4793919Y+8182800D01*
X+4804414Y+8187718D01*
X+4814909Y+8190524D01*
X+4825404Y+8191497D01*
X+4826000Y+8191500D01*
X+4762500Y+8128000D02*
X+4762717Y+8122753D01*
X+4764482Y+8112258D01*
X+4768174Y+8101763D01*
X+4774202Y+8091268D01*
X+4783424Y+8080888D01*
X+4793919Y+8073200D01*
X+4804414Y+8068282D01*
X+4814909Y+8065476D01*
X+4825404Y+8064503D01*
X+4826000Y+8064500D01*
X+4889500Y+8128000D02*
X+4889283Y+8122753D01*
X+4887518Y+8112258D01*
X+4883826Y+8101763D01*
X+4877798Y+8091268D01*
X+4868576Y+8080888D01*
X+4858081Y+8073200D01*
X+4847586Y+8068282D01*
X+4837091Y+8065476D01*
X+4826596Y+8064503D01*
X+4826000Y+8064500D01*
X+4826000Y+8191500D02*
X+4826000Y+8064500D01*
X+4762500Y+8128000D02*
X+4889500Y+8128000D01*
X+4889283Y+8133247D01*
X+4887518Y+8143742D01*
X+4883826Y+8154237D01*
X+4877798Y+8164732D01*
X+4868576Y+8175112D01*
X+4858081Y+8182800D01*
X+4847586Y+8187718D01*
X+4837091Y+8190524D01*
X+4826596Y+8191497D01*
X+4826000Y+8191500D01*
X+4762500Y+8128000D02*
X+4762717Y+8133247D01*
X+4764482Y+8143742D01*
X+4768174Y+8154237D01*
X+4774202Y+8164732D01*
X+4783424Y+8175112D01*
X+4793919Y+8182800D01*
X+4804414Y+8187718D01*
X+4814909Y+8190524D01*
X+4825404Y+8191497D01*
X+4826000Y+8191500D01*
X+4762500Y+8128000D02*
X+4762717Y+8122753D01*
X+4764482Y+8112258D01*
X+4768174Y+8101763D01*
X+4774202Y+8091268D01*
X+4783424Y+8080888D01*
X+4793919Y+8073200D01*
X+4804414Y+8068282D01*
X+4814909Y+8065476D01*
X+4825404Y+8064503D01*
X+4826000Y+8064500D01*
X+4889500Y+8128000D02*
X+4889283Y+8122753D01*
X+4887518Y+8112258D01*
X+4883826Y+8101763D01*
X+4877798Y+8091268D01*
X+4868576Y+8080888D01*
X+4858081Y+8073200D01*
X+4847586Y+8068282D01*
X+4837091Y+8065476D01*
X+4826596Y+8064503D01*
X+4826000Y+8064500D01*
X+4781099Y+8172901D02*
X+4870901Y+8083099D01*
X+4781099Y+8083099D02*
X+4870901Y+8172901D01*
X+3219500Y+635000D02*
X+3219283Y+640247D01*
X+3217518Y+650742D01*
X+3213826Y+661237D01*
X+3207798Y+671732D01*
X+3198576Y+682112D01*
X+3188081Y+689800D01*
X+3177586Y+694718D01*
X+3167091Y+697524D01*
X+3156596Y+698497D01*
X+3156000Y+698500D01*
X+3092500Y+635000D02*
X+3092717Y+640247D01*
X+3094482Y+650742D01*
X+3098174Y+661237D01*
X+3104202Y+671732D01*
X+3113424Y+682112D01*
X+3123919Y+689800D01*
X+3134414Y+694718D01*
X+3144909Y+697524D01*
X+3155404Y+698497D01*
X+3156000Y+698500D01*
X+3092500Y+635000D02*
X+3092717Y+629753D01*
X+3094482Y+619258D01*
X+3098174Y+608763D01*
X+3104202Y+598268D01*
X+3113424Y+587888D01*
X+3123919Y+580200D01*
X+3134414Y+575282D01*
X+3144909Y+572476D01*
X+3155404Y+571503D01*
X+3156000Y+571500D01*
X+3219500Y+635000D02*
X+3219283Y+629753D01*
X+3217518Y+619258D01*
X+3213826Y+608763D01*
X+3207798Y+598268D01*
X+3198576Y+587888D01*
X+3188081Y+580200D01*
X+3177586Y+575282D01*
X+3167091Y+572476D01*
X+3156596Y+571503D01*
X+3156000Y+571500D01*
X+3111099Y+679901D02*
X+3200901Y+590099D01*
X+3111099Y+590099D02*
X+3200901Y+679901D01*
X+3419500Y+635000D02*
X+3419283Y+640247D01*
X+3417518Y+650742D01*
X+3413826Y+661237D01*
X+3407798Y+671732D01*
X+3398576Y+682112D01*
X+3388081Y+689800D01*
X+3377586Y+694718D01*
X+3367091Y+697524D01*
X+3356596Y+698497D01*
X+3356000Y+698500D01*
X+3292500Y+635000D02*
X+3292717Y+640247D01*
X+3294482Y+650742D01*
X+3298174Y+661237D01*
X+3304202Y+671732D01*
X+3313424Y+682112D01*
X+3323919Y+689800D01*
X+3334414Y+694718D01*
X+3344909Y+697524D01*
X+3355404Y+698497D01*
X+3356000Y+698500D01*
X+3292500Y+635000D02*
X+3292717Y+629753D01*
X+3294482Y+619258D01*
X+3298174Y+608763D01*
X+3304202Y+598268D01*
X+3313424Y+587888D01*
X+3323919Y+580200D01*
X+3334414Y+575282D01*
X+3344909Y+572476D01*
X+3355404Y+571503D01*
X+3356000Y+571500D01*
X+3419500Y+635000D02*
X+3419283Y+629753D01*
X+3417518Y+619258D01*
X+3413826Y+608763D01*
X+3407798Y+598268D01*
X+3398576Y+587888D01*
X+3388081Y+580200D01*
X+3377586Y+575282D01*
X+3367091Y+572476D01*
X+3356596Y+571503D01*
X+3356000Y+571500D01*
X+3311099Y+679901D02*
X+3400901Y+590099D01*
X+3311099Y+590099D02*
X+3400901Y+679901D01*
X+3619500Y+635000D02*
X+3619283Y+640247D01*
X+3617518Y+650742D01*
X+3613826Y+661237D01*
X+3607798Y+671732D01*
X+3598576Y+682112D01*
X+3588081Y+689800D01*
X+3577586Y+694718D01*
X+3567091Y+697524D01*
X+3556596Y+698497D01*
X+3556000Y+698500D01*
X+3492500Y+635000D02*
X+3492717Y+640247D01*
X+3494482Y+650742D01*
X+3498174Y+661237D01*
X+3504202Y+671732D01*
X+3513424Y+682112D01*
X+3523919Y+689800D01*
X+3534414Y+694718D01*
X+3544909Y+697524D01*
X+3555404Y+698497D01*
X+3556000Y+698500D01*
X+3492500Y+635000D02*
X+3492717Y+629753D01*
X+3494482Y+619258D01*
X+3498174Y+608763D01*
X+3504202Y+598268D01*
X+3513424Y+587888D01*
X+3523919Y+580200D01*
X+3534414Y+575282D01*
X+3544909Y+572476D01*
X+3555404Y+571503D01*
X+3556000Y+571500D01*
X+3619500Y+635000D02*
X+3619283Y+629753D01*
X+3617518Y+619258D01*
X+3613826Y+608763D01*
X+3607798Y+598268D01*
X+3598576Y+587888D01*
X+3588081Y+580200D01*
X+3577586Y+575282D01*
X+3567091Y+572476D01*
X+3556596Y+571503D01*
X+3556000Y+571500D01*
X+3511099Y+679901D02*
X+3600901Y+590099D01*
X+3511099Y+590099D02*
X+3600901Y+679901D01*
X+3819500Y+635000D02*
X+3819283Y+640247D01*
X+3817518Y+650742D01*
X+3813826Y+661237D01*
X+3807798Y+671732D01*
X+3798576Y+682112D01*
X+3788081Y+689800D01*
X+3777586Y+694718D01*
X+3767091Y+697524D01*
X+3756596Y+698497D01*
X+3756000Y+698500D01*
X+3692500Y+635000D02*
X+3692717Y+640247D01*
X+3694482Y+650742D01*
X+3698174Y+661237D01*
X+3704202Y+671732D01*
X+3713424Y+682112D01*
X+3723919Y+689800D01*
X+3734414Y+694718D01*
X+3744909Y+697524D01*
X+3755404Y+698497D01*
X+3756000Y+698500D01*
X+3692500Y+635000D02*
X+3692717Y+629753D01*
X+3694482Y+619258D01*
X+3698174Y+608763D01*
X+3704202Y+598268D01*
X+3713424Y+587888D01*
X+3723919Y+580200D01*
X+3734414Y+575282D01*
X+3744909Y+572476D01*
X+3755404Y+571503D01*
X+3756000Y+571500D01*
X+3819500Y+635000D02*
X+3819283Y+629753D01*
X+3817518Y+619258D01*
X+3813826Y+608763D01*
X+3807798Y+598268D01*
X+3798576Y+587888D01*
X+3788081Y+580200D01*
X+3777586Y+575282D01*
X+3767091Y+572476D01*
X+3756596Y+571503D01*
X+3756000Y+571500D01*
X+3711099Y+679901D02*
X+3800901Y+590099D01*
X+3711099Y+590099D02*
X+3800901Y+679901D01*
X+4019500Y+635000D02*
X+4019283Y+640247D01*
X+4017518Y+650742D01*
X+4013826Y+661237D01*
X+4007798Y+671732D01*
X+3998576Y+682112D01*
X+3988081Y+689800D01*
X+3977586Y+694718D01*
X+3967091Y+697524D01*
X+3956596Y+698497D01*
X+3956000Y+698500D01*
X+3892500Y+635000D02*
X+3892717Y+640247D01*
X+3894482Y+650742D01*
X+3898174Y+661237D01*
X+3904202Y+671732D01*
X+3913424Y+682112D01*
X+3923919Y+689800D01*
X+3934414Y+694718D01*
X+3944909Y+697524D01*
X+3955404Y+698497D01*
X+3956000Y+698500D01*
X+3892500Y+635000D02*
X+3892717Y+629753D01*
X+3894482Y+619258D01*
X+3898174Y+608763D01*
X+3904202Y+598268D01*
X+3913424Y+587888D01*
X+3923919Y+580200D01*
X+3934414Y+575282D01*
X+3944909Y+572476D01*
X+3955404Y+571503D01*
X+3956000Y+571500D01*
X+4019500Y+635000D02*
X+4019283Y+629753D01*
X+4017518Y+619258D01*
X+4013826Y+608763D01*
X+4007798Y+598268D01*
X+3998576Y+587888D01*
X+3988081Y+580200D01*
X+3977586Y+575282D01*
X+3967091Y+572476D01*
X+3956596Y+571503D01*
X+3956000Y+571500D01*
X+3911099Y+679901D02*
X+4000901Y+590099D01*
X+3911099Y+590099D02*
X+4000901Y+679901D01*
X+4219500Y+635000D02*
X+4219283Y+640247D01*
X+4217518Y+650742D01*
X+4213826Y+661237D01*
X+4207798Y+671732D01*
X+4198576Y+682112D01*
X+4188081Y+689800D01*
X+4177586Y+694718D01*
X+4167091Y+697524D01*
X+4156596Y+698497D01*
X+4156000Y+698500D01*
X+4092500Y+635000D02*
X+4092717Y+640247D01*
X+4094482Y+650742D01*
X+4098174Y+661237D01*
X+4104202Y+671732D01*
X+4113424Y+682112D01*
X+4123919Y+689800D01*
X+4134414Y+694718D01*
X+4144909Y+697524D01*
X+4155404Y+698497D01*
X+4156000Y+698500D01*
X+4092500Y+635000D02*
X+4092717Y+629753D01*
X+4094482Y+619258D01*
X+4098174Y+608763D01*
X+4104202Y+598268D01*
X+4113424Y+587888D01*
X+4123919Y+580200D01*
X+4134414Y+575282D01*
X+4144909Y+572476D01*
X+4155404Y+571503D01*
X+4156000Y+571500D01*
X+4219500Y+635000D02*
X+4219283Y+629753D01*
X+4217518Y+619258D01*
X+4213826Y+608763D01*
X+4207798Y+598268D01*
X+4198576Y+587888D01*
X+4188081Y+580200D01*
X+4177586Y+575282D01*
X+4167091Y+572476D01*
X+4156596Y+571503D01*
X+4156000Y+571500D01*
X+4111099Y+679901D02*
X+4200901Y+590099D01*
X+4111099Y+590099D02*
X+4200901Y+679901D01*
X+3400500Y+9017000D02*
X+3400283Y+9022247D01*
X+3398518Y+9032742D01*
X+3394826Y+9043237D01*
X+3388798Y+9053732D01*
X+3379576Y+9064112D01*
X+3369081Y+9071800D01*
X+3358586Y+9076718D01*
X+3348091Y+9079524D01*
X+3337596Y+9080497D01*
X+3337000Y+9080500D01*
X+3273500Y+9017000D02*
X+3273717Y+9022247D01*
X+3275482Y+9032742D01*
X+3279174Y+9043237D01*
X+3285202Y+9053732D01*
X+3294424Y+9064112D01*
X+3304919Y+9071800D01*
X+3315414Y+9076718D01*
X+3325909Y+9079524D01*
X+3336404Y+9080497D01*
X+3337000Y+9080500D01*
X+3273500Y+9017000D02*
X+3273717Y+9011753D01*
X+3275482Y+9001258D01*
X+3279174Y+8990763D01*
X+3285202Y+8980268D01*
X+3294424Y+8969888D01*
X+3304919Y+8962200D01*
X+3315414Y+8957282D01*
X+3325909Y+8954476D01*
X+3336404Y+8953503D01*
X+3337000Y+8953500D01*
X+3400500Y+9017000D02*
X+3400283Y+9011753D01*
X+3398518Y+9001258D01*
X+3394826Y+8990763D01*
X+3388798Y+8980268D01*
X+3379576Y+8969888D01*
X+3369081Y+8962200D01*
X+3358586Y+8957282D01*
X+3348091Y+8954476D01*
X+3337596Y+8953503D01*
X+3337000Y+8953500D01*
X+3292099Y+9061901D02*
X+3381901Y+8972099D01*
X+3292099Y+8972099D02*
X+3381901Y+9061901D01*
X+3600500Y+9017000D02*
X+3600283Y+9022247D01*
X+3598518Y+9032742D01*
X+3594826Y+9043237D01*
X+3588798Y+9053732D01*
X+3579576Y+9064112D01*
X+3569081Y+9071800D01*
X+3558586Y+9076718D01*
X+3548091Y+9079524D01*
X+3537596Y+9080497D01*
X+3537000Y+9080500D01*
X+3473500Y+9017000D02*
X+3473717Y+9022247D01*
X+3475482Y+9032742D01*
X+3479174Y+9043237D01*
X+3485202Y+9053732D01*
X+3494424Y+9064112D01*
X+3504919Y+9071800D01*
X+3515414Y+9076718D01*
X+3525909Y+9079524D01*
X+3536404Y+9080497D01*
X+3537000Y+9080500D01*
X+3473500Y+9017000D02*
X+3473717Y+9011753D01*
X+3475482Y+9001258D01*
X+3479174Y+8990763D01*
X+3485202Y+8980268D01*
X+3494424Y+8969888D01*
X+3504919Y+8962200D01*
X+3515414Y+8957282D01*
X+3525909Y+8954476D01*
X+3536404Y+8953503D01*
X+3537000Y+8953500D01*
X+3600500Y+9017000D02*
X+3600283Y+9011753D01*
X+3598518Y+9001258D01*
X+3594826Y+8990763D01*
X+3588798Y+8980268D01*
X+3579576Y+8969888D01*
X+3569081Y+8962200D01*
X+3558586Y+8957282D01*
X+3548091Y+8954476D01*
X+3537596Y+8953503D01*
X+3537000Y+8953500D01*
X+3492099Y+9061901D02*
X+3581901Y+8972099D01*
X+3492099Y+8972099D02*
X+3581901Y+9061901D01*
X+3800500Y+9017000D02*
X+3800283Y+9022247D01*
X+3798518Y+9032742D01*
X+3794826Y+9043237D01*
X+3788798Y+9053732D01*
X+3779576Y+9064112D01*
X+3769081Y+9071800D01*
X+3758586Y+9076718D01*
X+3748091Y+9079524D01*
X+3737596Y+9080497D01*
X+3737000Y+9080500D01*
X+3673500Y+9017000D02*
X+3673717Y+9022247D01*
X+3675482Y+9032742D01*
X+3679174Y+9043237D01*
X+3685202Y+9053732D01*
X+3694424Y+9064112D01*
X+3704919Y+9071800D01*
X+3715414Y+9076718D01*
X+3725909Y+9079524D01*
X+3736404Y+9080497D01*
X+3737000Y+9080500D01*
X+3673500Y+9017000D02*
X+3673717Y+9011753D01*
X+3675482Y+9001258D01*
X+3679174Y+8990763D01*
X+3685202Y+8980268D01*
X+3694424Y+8969888D01*
X+3704919Y+8962200D01*
X+3715414Y+8957282D01*
X+3725909Y+8954476D01*
X+3736404Y+8953503D01*
X+3737000Y+8953500D01*
X+3800500Y+9017000D02*
X+3800283Y+9011753D01*
X+3798518Y+9001258D01*
X+3794826Y+8990763D01*
X+3788798Y+8980268D01*
X+3779576Y+8969888D01*
X+3769081Y+8962200D01*
X+3758586Y+8957282D01*
X+3748091Y+8954476D01*
X+3737596Y+8953503D01*
X+3737000Y+8953500D01*
X+3692099Y+9061901D02*
X+3781901Y+8972099D01*
X+3692099Y+8972099D02*
X+3781901Y+9061901D01*
X+4000500Y+9017000D02*
X+4000283Y+9022247D01*
X+3998518Y+9032742D01*
X+3994826Y+9043237D01*
X+3988798Y+9053732D01*
X+3979576Y+9064112D01*
X+3969081Y+9071800D01*
X+3958586Y+9076718D01*
X+3948091Y+9079524D01*
X+3937596Y+9080497D01*
X+3937000Y+9080500D01*
X+3873500Y+9017000D02*
X+3873717Y+9022247D01*
X+3875482Y+9032742D01*
X+3879174Y+9043237D01*
X+3885202Y+9053732D01*
X+3894424Y+9064112D01*
X+3904919Y+9071800D01*
X+3915414Y+9076718D01*
X+3925909Y+9079524D01*
X+3936404Y+9080497D01*
X+3937000Y+9080500D01*
X+3873500Y+9017000D02*
X+3873717Y+9011753D01*
X+3875482Y+9001258D01*
X+3879174Y+8990763D01*
X+3885202Y+8980268D01*
X+3894424Y+8969888D01*
X+3904919Y+8962200D01*
X+3915414Y+8957282D01*
X+3925909Y+8954476D01*
X+3936404Y+8953503D01*
X+3937000Y+8953500D01*
X+4000500Y+9017000D02*
X+4000283Y+9011753D01*
X+3998518Y+9001258D01*
X+3994826Y+8990763D01*
X+3988798Y+8980268D01*
X+3979576Y+8969888D01*
X+3969081Y+8962200D01*
X+3958586Y+8957282D01*
X+3948091Y+8954476D01*
X+3937596Y+8953503D01*
X+3937000Y+8953500D01*
X+3892099Y+9061901D02*
X+3981901Y+8972099D01*
X+3892099Y+8972099D02*
X+3981901Y+9061901D01*
X+4200500Y+9017000D02*
X+4200283Y+9022247D01*
X+4198518Y+9032742D01*
X+4194826Y+9043237D01*
X+4188798Y+9053732D01*
X+4179576Y+9064112D01*
X+4169081Y+9071800D01*
X+4158586Y+9076718D01*
X+4148091Y+9079524D01*
X+4137596Y+9080497D01*
X+4137000Y+9080500D01*
X+4073500Y+9017000D02*
X+4073717Y+9022247D01*
X+4075482Y+9032742D01*
X+4079174Y+9043237D01*
X+4085202Y+9053732D01*
X+4094424Y+9064112D01*
X+4104919Y+9071800D01*
X+4115414Y+9076718D01*
X+4125909Y+9079524D01*
X+4136404Y+9080497D01*
X+4137000Y+9080500D01*
X+4073500Y+9017000D02*
X+4073717Y+9011753D01*
X+4075482Y+9001258D01*
X+4079174Y+8990763D01*
X+4085202Y+8980268D01*
X+4094424Y+8969888D01*
X+4104919Y+8962200D01*
X+4115414Y+8957282D01*
X+4125909Y+8954476D01*
X+4136404Y+8953503D01*
X+4137000Y+8953500D01*
X+4200500Y+9017000D02*
X+4200283Y+9011753D01*
X+4198518Y+9001258D01*
X+4194826Y+8990763D01*
X+4188798Y+8980268D01*
X+4179576Y+8969888D01*
X+4169081Y+8962200D01*
X+4158586Y+8957282D01*
X+4148091Y+8954476D01*
X+4137596Y+8953503D01*
X+4137000Y+8953500D01*
X+4092099Y+9061901D02*
X+4181901Y+8972099D01*
X+4092099Y+8972099D02*
X+4181901Y+9061901D01*
X+4400500Y+9017000D02*
X+4400283Y+9022247D01*
X+4398518Y+9032742D01*
X+4394826Y+9043237D01*
X+4388798Y+9053732D01*
X+4379576Y+9064112D01*
X+4369081Y+9071800D01*
X+4358586Y+9076718D01*
X+4348091Y+9079524D01*
X+4337596Y+9080497D01*
X+4337000Y+9080500D01*
X+4273500Y+9017000D02*
X+4273717Y+9022247D01*
X+4275482Y+9032742D01*
X+4279174Y+9043237D01*
X+4285202Y+9053732D01*
X+4294424Y+9064112D01*
X+4304919Y+9071800D01*
X+4315414Y+9076718D01*
X+4325909Y+9079524D01*
X+4336404Y+9080497D01*
X+4337000Y+9080500D01*
X+4273500Y+9017000D02*
X+4273717Y+9011753D01*
X+4275482Y+9001258D01*
X+4279174Y+8990763D01*
X+4285202Y+8980268D01*
X+4294424Y+8969888D01*
X+4304919Y+8962200D01*
X+4315414Y+8957282D01*
X+4325909Y+8954476D01*
X+4336404Y+8953503D01*
X+4337000Y+8953500D01*
X+4400500Y+9017000D02*
X+4400283Y+9011753D01*
X+4398518Y+9001258D01*
X+4394826Y+8990763D01*
X+4388798Y+8980268D01*
X+4379576Y+8969888D01*
X+4369081Y+8962200D01*
X+4358586Y+8957282D01*
X+4348091Y+8954476D01*
X+4337596Y+8953503D01*
X+4337000Y+8953500D01*
X+4292099Y+9061901D02*
X+4381901Y+8972099D01*
X+4292099Y+8972099D02*
X+4381901Y+9061901D01*
X+7213500Y+889000D02*
X+7213283Y+894247D01*
X+7211518Y+904742D01*
X+7207826Y+915237D01*
X+7201798Y+925732D01*
X+7192576Y+936112D01*
X+7182081Y+943800D01*
X+7171586Y+948718D01*
X+7161091Y+951524D01*
X+7150596Y+952497D01*
X+7150000Y+952500D01*
X+7086500Y+889000D02*
X+7086717Y+894247D01*
X+7088482Y+904742D01*
X+7092174Y+915237D01*
X+7098202Y+925732D01*
X+7107424Y+936112D01*
X+7117919Y+943800D01*
X+7128414Y+948718D01*
X+7138909Y+951524D01*
X+7149404Y+952497D01*
X+7150000Y+952500D01*
X+7086500Y+889000D02*
X+7086717Y+883753D01*
X+7088482Y+873258D01*
X+7092174Y+862763D01*
X+7098202Y+852268D01*
X+7107424Y+841888D01*
X+7117919Y+834200D01*
X+7128414Y+829282D01*
X+7138909Y+826476D01*
X+7149404Y+825503D01*
X+7150000Y+825500D01*
X+7213500Y+889000D02*
X+7213283Y+883753D01*
X+7211518Y+873258D01*
X+7207826Y+862763D01*
X+7201798Y+852268D01*
X+7192576Y+841888D01*
X+7182081Y+834200D01*
X+7171586Y+829282D01*
X+7161091Y+826476D01*
X+7150596Y+825503D01*
X+7150000Y+825500D01*
X+7105099Y+933901D02*
X+7194901Y+844099D01*
X+7105099Y+844099D02*
X+7194901Y+933901D01*
X+7013500Y+889000D02*
X+7013283Y+894247D01*
X+7011518Y+904742D01*
X+7007826Y+915237D01*
X+7001798Y+925732D01*
X+6992576Y+936112D01*
X+6982081Y+943800D01*
X+6971586Y+948718D01*
X+6961091Y+951524D01*
X+6950596Y+952497D01*
X+6950000Y+952500D01*
X+6886500Y+889000D02*
X+6886717Y+894247D01*
X+6888482Y+904742D01*
X+6892174Y+915237D01*
X+6898202Y+925732D01*
X+6907424Y+936112D01*
X+6917919Y+943800D01*
X+6928414Y+948718D01*
X+6938909Y+951524D01*
X+6949404Y+952497D01*
X+6950000Y+952500D01*
X+6886500Y+889000D02*
X+6886717Y+883753D01*
X+6888482Y+873258D01*
X+6892174Y+862763D01*
X+6898202Y+852268D01*
X+6907424Y+841888D01*
X+6917919Y+834200D01*
X+6928414Y+829282D01*
X+6938909Y+826476D01*
X+6949404Y+825503D01*
X+6950000Y+825500D01*
X+7013500Y+889000D02*
X+7013283Y+883753D01*
X+7011518Y+873258D01*
X+7007826Y+862763D01*
X+7001798Y+852268D01*
X+6992576Y+841888D01*
X+6982081Y+834200D01*
X+6971586Y+829282D01*
X+6961091Y+826476D01*
X+6950596Y+825503D01*
X+6950000Y+825500D01*
X+6905099Y+933901D02*
X+6994901Y+844099D01*
X+6905099Y+844099D02*
X+6994901Y+933901D01*
X+6813500Y+889000D02*
X+6813283Y+894247D01*
X+6811518Y+904742D01*
X+6807826Y+915237D01*
X+6801798Y+925732D01*
X+6792576Y+936112D01*
X+6782081Y+943800D01*
X+6771586Y+948718D01*
X+6761091Y+951524D01*
X+6750596Y+952497D01*
X+6750000Y+952500D01*
X+6686500Y+889000D02*
X+6686717Y+894247D01*
X+6688482Y+904742D01*
X+6692174Y+915237D01*
X+6698202Y+925732D01*
X+6707424Y+936112D01*
X+6717919Y+943800D01*
X+6728414Y+948718D01*
X+6738909Y+951524D01*
X+6749404Y+952497D01*
X+6750000Y+952500D01*
X+6686500Y+889000D02*
X+6686717Y+883753D01*
X+6688482Y+873258D01*
X+6692174Y+862763D01*
X+6698202Y+852268D01*
X+6707424Y+841888D01*
X+6717919Y+834200D01*
X+6728414Y+829282D01*
X+6738909Y+826476D01*
X+6749404Y+825503D01*
X+6750000Y+825500D01*
X+6813500Y+889000D02*
X+6813283Y+883753D01*
X+6811518Y+873258D01*
X+6807826Y+862763D01*
X+6801798Y+852268D01*
X+6792576Y+841888D01*
X+6782081Y+834200D01*
X+6771586Y+829282D01*
X+6761091Y+826476D01*
X+6750596Y+825503D01*
X+6750000Y+825500D01*
X+6705099Y+933901D02*
X+6794901Y+844099D01*
X+6705099Y+844099D02*
X+6794901Y+933901D01*
X+6613500Y+889000D02*
X+6613283Y+894247D01*
X+6611518Y+904742D01*
X+6607826Y+915237D01*
X+6601798Y+925732D01*
X+6592576Y+936112D01*
X+6582081Y+943800D01*
X+6571586Y+948718D01*
X+6561091Y+951524D01*
X+6550596Y+952497D01*
X+6550000Y+952500D01*
X+6486500Y+889000D02*
X+6486717Y+894247D01*
X+6488482Y+904742D01*
X+6492174Y+915237D01*
X+6498202Y+925732D01*
X+6507424Y+936112D01*
X+6517919Y+943800D01*
X+6528414Y+948718D01*
X+6538909Y+951524D01*
X+6549404Y+952497D01*
X+6550000Y+952500D01*
X+6486500Y+889000D02*
X+6486717Y+883753D01*
X+6488482Y+873258D01*
X+6492174Y+862763D01*
X+6498202Y+852268D01*
X+6507424Y+841888D01*
X+6517919Y+834200D01*
X+6528414Y+829282D01*
X+6538909Y+826476D01*
X+6549404Y+825503D01*
X+6550000Y+825500D01*
X+6613500Y+889000D02*
X+6613283Y+883753D01*
X+6611518Y+873258D01*
X+6607826Y+862763D01*
X+6601798Y+852268D01*
X+6592576Y+841888D01*
X+6582081Y+834200D01*
X+6571586Y+829282D01*
X+6561091Y+826476D01*
X+6550596Y+825503D01*
X+6550000Y+825500D01*
X+6505099Y+933901D02*
X+6594901Y+844099D01*
X+6505099Y+844099D02*
X+6594901Y+933901D01*
X+6413500Y+889000D02*
X+6413283Y+894247D01*
X+6411518Y+904742D01*
X+6407826Y+915237D01*
X+6401798Y+925732D01*
X+6392576Y+936112D01*
X+6382081Y+943800D01*
X+6371586Y+948718D01*
X+6361091Y+951524D01*
X+6350596Y+952497D01*
X+6350000Y+952500D01*
X+6286500Y+889000D02*
X+6286717Y+894247D01*
X+6288482Y+904742D01*
X+6292174Y+915237D01*
X+6298202Y+925732D01*
X+6307424Y+936112D01*
X+6317919Y+943800D01*
X+6328414Y+948718D01*
X+6338909Y+951524D01*
X+6349404Y+952497D01*
X+6350000Y+952500D01*
X+6286500Y+889000D02*
X+6286717Y+883753D01*
X+6288482Y+873258D01*
X+6292174Y+862763D01*
X+6298202Y+852268D01*
X+6307424Y+841888D01*
X+6317919Y+834200D01*
X+6328414Y+829282D01*
X+6338909Y+826476D01*
X+6349404Y+825503D01*
X+6350000Y+825500D01*
X+6413500Y+889000D02*
X+6413283Y+883753D01*
X+6411518Y+873258D01*
X+6407826Y+862763D01*
X+6401798Y+852268D01*
X+6392576Y+841888D01*
X+6382081Y+834200D01*
X+6371586Y+829282D01*
X+6361091Y+826476D01*
X+6350596Y+825503D01*
X+6350000Y+825500D01*
X+6305099Y+933901D02*
X+6394901Y+844099D01*
X+6305099Y+844099D02*
X+6394901Y+933901D01*
X+6213500Y+889000D02*
X+6213283Y+894247D01*
X+6211518Y+904742D01*
X+6207826Y+915237D01*
X+6201798Y+925732D01*
X+6192576Y+936112D01*
X+6182081Y+943800D01*
X+6171586Y+948718D01*
X+6161091Y+951524D01*
X+6150596Y+952497D01*
X+6150000Y+952500D01*
X+6086500Y+889000D02*
X+6086717Y+894247D01*
X+6088482Y+904742D01*
X+6092174Y+915237D01*
X+6098202Y+925732D01*
X+6107424Y+936112D01*
X+6117919Y+943800D01*
X+6128414Y+948718D01*
X+6138909Y+951524D01*
X+6149404Y+952497D01*
X+6150000Y+952500D01*
X+6086500Y+889000D02*
X+6086717Y+883753D01*
X+6088482Y+873258D01*
X+6092174Y+862763D01*
X+6098202Y+852268D01*
X+6107424Y+841888D01*
X+6117919Y+834200D01*
X+6128414Y+829282D01*
X+6138909Y+826476D01*
X+6149404Y+825503D01*
X+6150000Y+825500D01*
X+6213500Y+889000D02*
X+6213283Y+883753D01*
X+6211518Y+873258D01*
X+6207826Y+862763D01*
X+6201798Y+852268D01*
X+6192576Y+841888D01*
X+6182081Y+834200D01*
X+6171586Y+829282D01*
X+6161091Y+826476D01*
X+6150596Y+825503D01*
X+6150000Y+825500D01*
X+6105099Y+933901D02*
X+6194901Y+844099D01*
X+6105099Y+844099D02*
X+6194901Y+933901D01*
X+2286000Y+5270500D02*
X+2286000Y+5143500D01*
X+2222500Y+5207000D02*
X+2349500Y+5207000D01*
X+2241099Y+5251901D02*
X+2330901Y+5162099D01*
X+2241099Y+5162099D02*
X+2330901Y+5251901D01*
X+2032000Y+5270500D02*
X+2032000Y+5143500D01*
X+1968500Y+5207000D02*
X+2095500Y+5207000D01*
X+1987099Y+5251901D02*
X+2076901Y+5162099D01*
X+1987099Y+5162099D02*
X+2076901Y+5251901D01*
X+1778000Y+5270500D02*
X+1778000Y+5143500D01*
X+1714500Y+5207000D02*
X+1841500Y+5207000D01*
X+1733099Y+5251901D02*
X+1822901Y+5162099D01*
X+1733099Y+5162099D02*
X+1822901Y+5251901D01*
X+1524000Y+4000500D02*
X+1524000Y+3873500D01*
X+1460500Y+3937000D02*
X+1587500Y+3937000D01*
X+1479099Y+3981901D02*
X+1568901Y+3892099D01*
X+1479099Y+3892099D02*
X+1568901Y+3981901D01*
X+1778000Y+4000500D02*
X+1778000Y+3873500D01*
X+1714500Y+3937000D02*
X+1841500Y+3937000D01*
X+1733099Y+3981901D02*
X+1822901Y+3892099D01*
X+1733099Y+3892099D02*
X+1822901Y+3981901D01*
X+2032000Y+4000500D02*
X+2032000Y+3873500D01*
X+1968500Y+3937000D02*
X+2095500Y+3937000D01*
X+1987099Y+3981901D02*
X+2076901Y+3892099D01*
X+1987099Y+3892099D02*
X+2076901Y+3981901D01*
X+4064000Y+5270500D02*
X+4064000Y+5143500D01*
X+4000500Y+5207000D02*
X+4127500Y+5207000D01*
X+4019099Y+5251901D02*
X+4108901Y+5162099D01*
X+4019099Y+5162099D02*
X+4108901Y+5251901D01*
X+3810000Y+5270500D02*
X+3810000Y+5143500D01*
X+3746500Y+5207000D02*
X+3873500Y+5207000D01*
X+3765099Y+5251901D02*
X+3854901Y+5162099D01*
X+3765099Y+5162099D02*
X+3854901Y+5251901D01*
X+3556000Y+5270500D02*
X+3556000Y+5143500D01*
X+3492500Y+5207000D02*
X+3619500Y+5207000D01*
X+3511099Y+5251901D02*
X+3600901Y+5162099D01*
X+3511099Y+5162099D02*
X+3600901Y+5251901D01*
X+3302000Y+4000500D02*
X+3302000Y+3873500D01*
X+3238500Y+3937000D02*
X+3365500Y+3937000D01*
X+3257099Y+3981901D02*
X+3346901Y+3892099D01*
X+3257099Y+3892099D02*
X+3346901Y+3981901D01*
X+3556000Y+4000500D02*
X+3556000Y+3873500D01*
X+3492500Y+3937000D02*
X+3619500Y+3937000D01*
X+3511099Y+3981901D02*
X+3600901Y+3892099D01*
X+3511099Y+3892099D02*
X+3600901Y+3981901D01*
X+3810000Y+4000500D02*
X+3810000Y+3873500D01*
X+3746500Y+3937000D02*
X+3873500Y+3937000D01*
X+3765099Y+3981901D02*
X+3854901Y+3892099D01*
X+3765099Y+3892099D02*
X+3854901Y+3981901D01*
X+5842000Y+5270500D02*
X+5842000Y+5143500D01*
X+5778500Y+5207000D02*
X+5905500Y+5207000D01*
X+5797099Y+5251901D02*
X+5886901Y+5162099D01*
X+5797099Y+5162099D02*
X+5886901Y+5251901D01*
X+5588000Y+5270500D02*
X+5588000Y+5143500D01*
X+5524500Y+5207000D02*
X+5651500Y+5207000D01*
X+5543099Y+5251901D02*
X+5632901Y+5162099D01*
X+5543099Y+5162099D02*
X+5632901Y+5251901D01*
X+5334000Y+5270500D02*
X+5334000Y+5143500D01*
X+5270500Y+5207000D02*
X+5397500Y+5207000D01*
X+5289099Y+5251901D02*
X+5378901Y+5162099D01*
X+5289099Y+5162099D02*
X+5378901Y+5251901D01*
X+5080000Y+4000500D02*
X+5080000Y+3873500D01*
X+5016500Y+3937000D02*
X+5143500Y+3937000D01*
X+5035099Y+3981901D02*
X+5124901Y+3892099D01*
X+5035099Y+3892099D02*
X+5124901Y+3981901D01*
X+5334000Y+4000500D02*
X+5334000Y+3873500D01*
X+5270500Y+3937000D02*
X+5397500Y+3937000D01*
X+5289099Y+3981901D02*
X+5378901Y+3892099D01*
X+5289099Y+3892099D02*
X+5378901Y+3981901D01*
X+5588000Y+4000500D02*
X+5588000Y+3873500D01*
X+5524500Y+3937000D02*
X+5651500Y+3937000D01*
X+5543099Y+3981901D02*
X+5632901Y+3892099D01*
X+5543099Y+3892099D02*
X+5632901Y+3981901D01*
X+3111500Y+8128000D02*
X+3111283Y+8133247D01*
X+3109518Y+8143742D01*
X+3105826Y+8154237D01*
X+3099798Y+8164732D01*
X+3090576Y+8175112D01*
X+3080081Y+8182800D01*
X+3069586Y+8187718D01*
X+3059091Y+8190524D01*
X+3048596Y+8191497D01*
X+3048000Y+8191500D01*
X+2984500Y+8128000D02*
X+2984717Y+8133247D01*
X+2986482Y+8143742D01*
X+2990174Y+8154237D01*
X+2996202Y+8164732D01*
X+3005424Y+8175112D01*
X+3015919Y+8182800D01*
X+3026414Y+8187718D01*
X+3036909Y+8190524D01*
X+3047404Y+8191497D01*
X+3048000Y+8191500D01*
X+2984500Y+8128000D02*
X+2984717Y+8122753D01*
X+2986482Y+8112258D01*
X+2990174Y+8101763D01*
X+2996202Y+8091268D01*
X+3005424Y+8080888D01*
X+3015919Y+8073200D01*
X+3026414Y+8068282D01*
X+3036909Y+8065476D01*
X+3047404Y+8064503D01*
X+3048000Y+8064500D01*
X+3111500Y+8128000D02*
X+3111283Y+8122753D01*
X+3109518Y+8112258D01*
X+3105826Y+8101763D01*
X+3099798Y+8091268D01*
X+3090576Y+8080888D01*
X+3080081Y+8073200D01*
X+3069586Y+8068282D01*
X+3059091Y+8065476D01*
X+3048596Y+8064503D01*
X+3048000Y+8064500D01*
X+3048000Y+8191500D02*
X+3048000Y+8064500D01*
X+2984500Y+8128000D02*
X+3111500Y+8128000D01*
X+3111283Y+8133247D01*
X+3109518Y+8143742D01*
X+3105826Y+8154237D01*
X+3099798Y+8164732D01*
X+3090576Y+8175112D01*
X+3080081Y+8182800D01*
X+3069586Y+8187718D01*
X+3059091Y+8190524D01*
X+3048596Y+8191497D01*
X+3048000Y+8191500D01*
X+2984500Y+8128000D02*
X+2984717Y+8133247D01*
X+2986482Y+8143742D01*
X+2990174Y+8154237D01*
X+2996202Y+8164732D01*
X+3005424Y+8175112D01*
X+3015919Y+8182800D01*
X+3026414Y+8187718D01*
X+3036909Y+8190524D01*
X+3047404Y+8191497D01*
X+3048000Y+8191500D01*
X+2984500Y+8128000D02*
X+2984717Y+8122753D01*
X+2986482Y+8112258D01*
X+2990174Y+8101763D01*
X+2996202Y+8091268D01*
X+3005424Y+8080888D01*
X+3015919Y+8073200D01*
X+3026414Y+8068282D01*
X+3036909Y+8065476D01*
X+3047404Y+8064503D01*
X+3048000Y+8064500D01*
X+3111500Y+8128000D02*
X+3111283Y+8122753D01*
X+3109518Y+8112258D01*
X+3105826Y+8101763D01*
X+3099798Y+8091268D01*
X+3090576Y+8080888D01*
X+3080081Y+8073200D01*
X+3069586Y+8068282D01*
X+3059091Y+8065476D01*
X+3048596Y+8064503D01*
X+3048000Y+8064500D01*
X+3003099Y+8172901D02*
X+3092901Y+8083099D01*
X+3003099Y+8083099D02*
X+3092901Y+8172901D01*
X+7239000Y+2730500D02*
X+7239000Y+2603500D01*
X+7175500Y+2667000D02*
X+7302500Y+2667000D01*
X+7194099Y+2711901D02*
X+7283901Y+2622099D01*
X+7194099Y+2622099D02*
X+7283901Y+2711901D01*
X+6985000Y+2730500D02*
X+6985000Y+2603500D01*
X+6921500Y+2667000D02*
X+7048500Y+2667000D01*
X+6940099Y+2711901D02*
X+7029901Y+2622099D01*
X+6940099Y+2622099D02*
X+7029901Y+2711901D01*
X+6731000Y+2730500D02*
X+6731000Y+2603500D01*
X+6667500Y+2667000D02*
X+6794500Y+2667000D01*
X+6686099Y+2711901D02*
X+6775901Y+2622099D01*
X+6686099Y+2622099D02*
X+6775901Y+2711901D01*
X+6286500Y+2108056D02*
X+6286283Y+2113303D01*
X+6284518Y+2123798D01*
X+6280826Y+2134293D01*
X+6274798Y+2144788D01*
X+6265576Y+2155168D01*
X+6255081Y+2162856D01*
X+6244586Y+2167774D01*
X+6234091Y+2170580D01*
X+6223596Y+2171553D01*
X+6223000Y+2171556D01*
X+6159500Y+2108056D02*
X+6159717Y+2113303D01*
X+6161482Y+2123798D01*
X+6165174Y+2134293D01*
X+6171202Y+2144788D01*
X+6180424Y+2155168D01*
X+6190919Y+2162856D01*
X+6201414Y+2167774D01*
X+6211909Y+2170580D01*
X+6222404Y+2171553D01*
X+6223000Y+2171556D01*
X+6159500Y+2108056D02*
X+6159717Y+2102809D01*
X+6161482Y+2092314D01*
X+6165174Y+2081819D01*
X+6171202Y+2071324D01*
X+6180424Y+2060944D01*
X+6190919Y+2053256D01*
X+6201414Y+2048338D01*
X+6211909Y+2045532D01*
X+6222404Y+2044559D01*
X+6223000Y+2044556D01*
X+6286500Y+2108056D02*
X+6286283Y+2102809D01*
X+6284518Y+2092314D01*
X+6280826Y+2081819D01*
X+6274798Y+2071324D01*
X+6265576Y+2060944D01*
X+6255081Y+2053256D01*
X+6244586Y+2048338D01*
X+6234091Y+2045532D01*
X+6223596Y+2044559D01*
X+6223000Y+2044556D01*
X+6178099Y+2152957D02*
X+6267901Y+2063155D01*
X+6178099Y+2063155D02*
X+6267901Y+2152957D01*
X+6286500Y+2308056D02*
X+6286283Y+2313303D01*
X+6284518Y+2323798D01*
X+6280826Y+2334293D01*
X+6274798Y+2344788D01*
X+6265576Y+2355168D01*
X+6255081Y+2362856D01*
X+6244586Y+2367774D01*
X+6234091Y+2370580D01*
X+6223596Y+2371553D01*
X+6223000Y+2371556D01*
X+6159500Y+2308056D02*
X+6159717Y+2313303D01*
X+6161482Y+2323798D01*
X+6165174Y+2334293D01*
X+6171202Y+2344788D01*
X+6180424Y+2355168D01*
X+6190919Y+2362856D01*
X+6201414Y+2367774D01*
X+6211909Y+2370580D01*
X+6222404Y+2371553D01*
X+6223000Y+2371556D01*
X+6159500Y+2308056D02*
X+6159717Y+2302809D01*
X+6161482Y+2292314D01*
X+6165174Y+2281819D01*
X+6171202Y+2271324D01*
X+6180424Y+2260944D01*
X+6190919Y+2253256D01*
X+6201414Y+2248338D01*
X+6211909Y+2245532D01*
X+6222404Y+2244559D01*
X+6223000Y+2244556D01*
X+6286500Y+2308056D02*
X+6286283Y+2302809D01*
X+6284518Y+2292314D01*
X+6280826Y+2281819D01*
X+6274798Y+2271324D01*
X+6265576Y+2260944D01*
X+6255081Y+2253256D01*
X+6244586Y+2248338D01*
X+6234091Y+2245532D01*
X+6223596Y+2244559D01*
X+6223000Y+2244556D01*
X+6178099Y+2352957D02*
X+6267901Y+2263155D01*
X+6178099Y+2263155D02*
X+6267901Y+2352957D01*
X+2730500Y+2159000D02*
X+2730283Y+2164247D01*
X+2728518Y+2174742D01*
X+2724826Y+2185237D01*
X+2718798Y+2195732D01*
X+2709576Y+2206112D01*
X+2699081Y+2213800D01*
X+2688586Y+2218718D01*
X+2678091Y+2221524D01*
X+2667596Y+2222497D01*
X+2667000Y+2222500D01*
X+2603500Y+2159000D02*
X+2603717Y+2164247D01*
X+2605482Y+2174742D01*
X+2609174Y+2185237D01*
X+2615202Y+2195732D01*
X+2624424Y+2206112D01*
X+2634919Y+2213800D01*
X+2645414Y+2218718D01*
X+2655909Y+2221524D01*
X+2666404Y+2222497D01*
X+2667000Y+2222500D01*
X+2603500Y+2159000D02*
X+2603717Y+2153753D01*
X+2605482Y+2143258D01*
X+2609174Y+2132763D01*
X+2615202Y+2122268D01*
X+2624424Y+2111888D01*
X+2634919Y+2104200D01*
X+2645414Y+2099282D01*
X+2655909Y+2096476D01*
X+2666404Y+2095503D01*
X+2667000Y+2095500D01*
X+2730500Y+2159000D02*
X+2730283Y+2153753D01*
X+2728518Y+2143258D01*
X+2724826Y+2132763D01*
X+2718798Y+2122268D01*
X+2709576Y+2111888D01*
X+2699081Y+2104200D01*
X+2688586Y+2099282D01*
X+2678091Y+2096476D01*
X+2667596Y+2095503D01*
X+2667000Y+2095500D01*
X+2622099Y+2203901D02*
X+2711901Y+2114099D01*
X+2622099Y+2114099D02*
X+2711901Y+2203901D01*
X+2730500Y+2359000D02*
X+2730283Y+2364247D01*
X+2728518Y+2374742D01*
X+2724826Y+2385237D01*
X+2718798Y+2395732D01*
X+2709576Y+2406112D01*
X+2699081Y+2413800D01*
X+2688586Y+2418718D01*
X+2678091Y+2421524D01*
X+2667596Y+2422497D01*
X+2667000Y+2422500D01*
X+2603500Y+2359000D02*
X+2603717Y+2364247D01*
X+2605482Y+2374742D01*
X+2609174Y+2385237D01*
X+2615202Y+2395732D01*
X+2624424Y+2406112D01*
X+2634919Y+2413800D01*
X+2645414Y+2418718D01*
X+2655909Y+2421524D01*
X+2666404Y+2422497D01*
X+2667000Y+2422500D01*
X+2603500Y+2359000D02*
X+2603717Y+2353753D01*
X+2605482Y+2343258D01*
X+2609174Y+2332763D01*
X+2615202Y+2322268D01*
X+2624424Y+2311888D01*
X+2634919Y+2304200D01*
X+2645414Y+2299282D01*
X+2655909Y+2296476D01*
X+2666404Y+2295503D01*
X+2667000Y+2295500D01*
X+2730500Y+2359000D02*
X+2730283Y+2353753D01*
X+2728518Y+2343258D01*
X+2724826Y+2332763D01*
X+2718798Y+2322268D01*
X+2709576Y+2311888D01*
X+2699081Y+2304200D01*
X+2688586Y+2299282D01*
X+2678091Y+2296476D01*
X+2667596Y+2295503D01*
X+2667000Y+2295500D01*
X+2622099Y+2403901D02*
X+2711901Y+2314099D01*
X+2622099Y+2314099D02*
X+2711901Y+2403901D01*
X+4508500Y+2159000D02*
X+4508283Y+2164247D01*
X+4506518Y+2174742D01*
X+4502826Y+2185237D01*
X+4496798Y+2195732D01*
X+4487576Y+2206112D01*
X+4477081Y+2213800D01*
X+4466586Y+2218718D01*
X+4456091Y+2221524D01*
X+4445596Y+2222497D01*
X+4445000Y+2222500D01*
X+4381500Y+2159000D02*
X+4381717Y+2164247D01*
X+4383482Y+2174742D01*
X+4387174Y+2185237D01*
X+4393202Y+2195732D01*
X+4402424Y+2206112D01*
X+4412919Y+2213800D01*
X+4423414Y+2218718D01*
X+4433909Y+2221524D01*
X+4444404Y+2222497D01*
X+4445000Y+2222500D01*
X+4381500Y+2159000D02*
X+4381717Y+2153753D01*
X+4383482Y+2143258D01*
X+4387174Y+2132763D01*
X+4393202Y+2122268D01*
X+4402424Y+2111888D01*
X+4412919Y+2104200D01*
X+4423414Y+2099282D01*
X+4433909Y+2096476D01*
X+4444404Y+2095503D01*
X+4445000Y+2095500D01*
X+4508500Y+2159000D02*
X+4508283Y+2153753D01*
X+4506518Y+2143258D01*
X+4502826Y+2132763D01*
X+4496798Y+2122268D01*
X+4487576Y+2111888D01*
X+4477081Y+2104200D01*
X+4466586Y+2099282D01*
X+4456091Y+2096476D01*
X+4445596Y+2095503D01*
X+4445000Y+2095500D01*
X+4400099Y+2203901D02*
X+4489901Y+2114099D01*
X+4400099Y+2114099D02*
X+4489901Y+2203901D01*
X+4508500Y+2359000D02*
X+4508283Y+2364247D01*
X+4506518Y+2374742D01*
X+4502826Y+2385237D01*
X+4496798Y+2395732D01*
X+4487576Y+2406112D01*
X+4477081Y+2413800D01*
X+4466586Y+2418718D01*
X+4456091Y+2421524D01*
X+4445596Y+2422497D01*
X+4445000Y+2422500D01*
X+4381500Y+2359000D02*
X+4381717Y+2364247D01*
X+4383482Y+2374742D01*
X+4387174Y+2385237D01*
X+4393202Y+2395732D01*
X+4402424Y+2406112D01*
X+4412919Y+2413800D01*
X+4423414Y+2418718D01*
X+4433909Y+2421524D01*
X+4444404Y+2422497D01*
X+4445000Y+2422500D01*
X+4381500Y+2359000D02*
X+4381717Y+2353753D01*
X+4383482Y+2343258D01*
X+4387174Y+2332763D01*
X+4393202Y+2322268D01*
X+4402424Y+2311888D01*
X+4412919Y+2304200D01*
X+4423414Y+2299282D01*
X+4433909Y+2296476D01*
X+4444404Y+2295503D01*
X+4445000Y+2295500D01*
X+4508500Y+2359000D02*
X+4508283Y+2353753D01*
X+4506518Y+2343258D01*
X+4502826Y+2332763D01*
X+4496798Y+2322268D01*
X+4487576Y+2311888D01*
X+4477081Y+2304200D01*
X+4466586Y+2299282D01*
X+4456091Y+2296476D01*
X+4445596Y+2295503D01*
X+4445000Y+2295500D01*
X+4400099Y+2403901D02*
X+4489901Y+2314099D01*
X+4400099Y+2314099D02*
X+4489901Y+2403901D01*
X+9398000Y+825500D02*
X+9398000Y+698500D01*
X+9334500Y+762000D02*
X+9461500Y+762000D01*
X+9334500Y+698500D02*
X+9461500Y+698500D01*
X+9461500Y+825500D01*
X+9334500Y+825500D01*
X+9334500Y+698500D01*
X+1016000Y+825500D02*
X+1016000Y+698500D01*
X+952500Y+762000D02*
X+1079500Y+762000D01*
X+952500Y+698500D02*
X+1079500Y+698500D01*
X+1079500Y+825500D01*
X+952500Y+825500D01*
X+952500Y+698500D01*
X+7239000Y+7048500D02*
X+7239000Y+6921500D01*
X+7175500Y+6985000D02*
X+7302500Y+6985000D01*
X+7194099Y+7029901D02*
X+7283901Y+6940099D01*
X+7194099Y+6940099D02*
X+7283901Y+7029901D01*
X+6985000Y+7048500D02*
X+6985000Y+6921500D01*
X+6921500Y+6985000D02*
X+7048500Y+6985000D01*
X+6940099Y+7029901D02*
X+7029901Y+6940099D01*
X+6940099Y+6940099D02*
X+7029901Y+7029901D01*
X+6731000Y+7048500D02*
X+6731000Y+6921500D01*
X+6667500Y+6985000D02*
X+6794500Y+6985000D01*
X+6686099Y+7029901D02*
X+6775901Y+6940099D01*
X+6686099Y+6940099D02*
X+6775901Y+7029901D01*
X+7239000Y+5270500D02*
X+7239000Y+5143500D01*
X+7175500Y+5207000D02*
X+7302500Y+5207000D01*
X+7194099Y+5251901D02*
X+7283901Y+5162099D01*
X+7194099Y+5162099D02*
X+7283901Y+5251901D01*
X+6985000Y+5270500D02*
X+6985000Y+5143500D01*
X+6921500Y+5207000D02*
X+7048500Y+5207000D01*
X+6940099Y+5251901D02*
X+7029901Y+5162099D01*
X+6940099Y+5162099D02*
X+7029901Y+5251901D01*
X+6731000Y+5270500D02*
X+6731000Y+5143500D01*
X+6667500Y+5207000D02*
X+6794500Y+5207000D01*
X+6686099Y+5251901D02*
X+6775901Y+5162099D01*
X+6686099Y+5162099D02*
X+6775901Y+5251901D01*
X+1016000Y+9080500D02*
X+1016000Y+8953500D01*
X+952500Y+9017000D02*
X+1079500Y+9017000D01*
X+952500Y+8953500D02*
X+1079500Y+8953500D01*
X+1079500Y+9080500D01*
X+952500Y+9080500D01*
X+952500Y+8953500D01*
X+9398000Y+9080500D02*
X+9398000Y+8953500D01*
X+9334500Y+9017000D02*
X+9461500Y+9017000D01*
X+9334500Y+8953500D02*
X+9461500Y+8953500D01*
X+9461500Y+9080500D01*
X+9334500Y+9080500D01*
X+9334500Y+8953500D01*
X+1143000Y+1968500D02*
X+1143000Y+1841500D01*
X+1079500Y+1905000D02*
X+1206500Y+1905000D01*
X+1098099Y+1949901D02*
X+1187901Y+1860099D01*
X+1098099Y+1860099D02*
X+1187901Y+1949901D01*
X+1143000Y+1718500D02*
X+1143000Y+1591500D01*
X+1079500Y+1655000D02*
X+1206500Y+1655000D01*
X+1098099Y+1699901D02*
X+1187901Y+1610099D01*
X+1098099Y+1610099D02*
X+1187901Y+1699901D01*
X+6350000Y+2857500D02*
X+6350000Y+2730500D01*
X+6286500Y+2794000D02*
X+6413500Y+2794000D01*
X+6305099Y+2838901D02*
X+6394901Y+2749099D01*
X+6305099Y+2749099D02*
X+6394901Y+2838901D01*
X+6100000Y+2857500D02*
X+6100000Y+2730500D01*
X+6036500Y+2794000D02*
X+6163500Y+2794000D01*
X+6055099Y+2838901D02*
X+6144901Y+2749099D01*
X+6055099Y+2749099D02*
X+6144901Y+2838901D01*
X+552000Y+254000D02*
X+9906000Y+254000D01*
X+9906000Y+9525000D01*
X+552000Y+9525000D01*
X+552000Y+254000D01*
D94*
X+497840Y-2359660D02*
X+3141980Y-2359660D01*
X+3141980Y-391160D01*
X+497840Y-391160D01*
X+497840Y-2359660D01*
D95*
X+965202Y-391160D02*
X+965202Y-2359660D01*
X+1778002Y-391160D02*
X+1778002Y-2359660D01*
X+2611122Y-391160D02*
X+2611122Y-2359660D01*
X+497840Y-664210D02*
X+3141980Y-664210D01*
X+497840Y-905510D02*
X+3141980Y-905510D01*
X+497840Y-1146810D02*
X+3141980Y-1146810D01*
X+497840Y-1388110D02*
X+3141980Y-1388110D01*
X+497840Y-1629410D02*
X+3141980Y-1629410D01*
X+497840Y-1870710D02*
X+3141980Y-1870710D01*
X+497840Y-2112010D02*
X+3141980Y-2112010D01*
D94*
X+554990Y-554990D02*
X+570230Y-570230D01*
X+631190Y-570230D01*
X+646430Y-554990D01*
X+646430Y-539750D01*
X+631190Y-524510D01*
X+570230Y-524510D01*
X+554990Y-509270D01*
X+554990Y-494030D01*
X+570230Y-478790D01*
X+631190Y-478790D01*
X+646430Y-494030D01*
X+768350Y-478790D02*
X+676910Y-570230D01*
X+676910Y-478790D02*
X+722630Y-524510D01*
X+798830Y-570230D02*
X+798830Y-478790D01*
X+844550Y-524510D01*
X+890270Y-478790D01*
X+890270Y-570230D01*
X+1022350Y-554990D02*
X+1037590Y-570230D01*
X+1098550Y-570230D01*
X+1113790Y-554990D01*
X+1113790Y-539750D01*
X+1098550Y-524510D01*
X+1037590Y-524510D01*
X+1022350Y-509270D01*
X+1022350Y-494030D01*
X+1037590Y-478790D01*
X+1098550Y-478790D01*
X+1113790Y-494030D01*
X+1159510Y-478790D02*
X+1220470Y-478790D01*
X+1189990Y-478790D02*
X+1189990Y-570230D01*
X+1159510Y-570230D02*
X+1220470Y-570230D01*
X+1266190Y-478790D02*
X+1357630Y-478790D01*
X+1266190Y-570230D01*
X+1357630Y-570230D01*
X+1479550Y-570230D02*
X+1388110Y-570230D01*
X+1388110Y-478790D01*
X+1479550Y-478790D01*
X+1388110Y-524510D02*
X+1449070Y-524510D01*
X+1835150Y-570230D02*
X+1835150Y-478790D01*
X+1911350Y-478790D01*
X+1926590Y-494030D01*
X+1926590Y-509270D01*
X+1911350Y-524510D01*
X+1835150Y-524510D01*
X+1957070Y-478790D02*
X+1957070Y-570230D01*
X+2048510Y-570230D01*
X+2078990Y-570230D02*
X+2078990Y-509270D01*
X+2109470Y-478790D01*
X+2139950Y-478790D01*
X+2170430Y-509270D01*
X+2170430Y-570230D01*
X+2078990Y-539750D02*
X+2170430Y-539750D01*
X+2200910Y-478790D02*
X+2292350Y-478790D01*
X+2246630Y-478790D02*
X+2246630Y-570230D01*
X+2414270Y-570230D02*
X+2322830Y-570230D01*
X+2322830Y-478790D01*
X+2414270Y-478790D01*
X+2322830Y-524510D02*
X+2383790Y-524510D01*
X+2444750Y-570230D02*
X+2444750Y-478790D01*
X+2505710Y-478790D01*
X+2536190Y-509270D01*
X+2536190Y-539750D01*
X+2505710Y-570230D01*
X+2444750Y-570230D01*
X+2668270Y-509270D02*
X+2698750Y-478790D01*
X+2729230Y-478790D01*
X+2759710Y-509270D01*
X+2759710Y-539750D01*
X+2729230Y-570230D01*
X+2698750Y-570230D01*
X+2668270Y-539750D01*
X+2668270Y-509270D01*
X+2729230Y-539750D02*
X+2759710Y-570230D01*
X+2790190Y-478790D02*
X+2881630Y-478790D01*
X+2835910Y-478790D02*
X+2835910Y-570230D01*
X+3003550Y-478790D02*
X+2912110Y-570230D01*
X+2912110Y-478790D02*
X+2957830Y-524510D01*
D20*
X+744220Y-715010D02*
X+744220Y-842010D01*
X+680720Y-778510D02*
X+807720Y-778510D01*
D94*
X+1041400Y-803910D02*
X+1041400Y-753110D01*
X+1054100Y-740410D01*
X+1104900Y-740410D01*
X+1117600Y-753110D01*
X+1117600Y-803910D01*
X+1104900Y-816610D01*
X+1054100Y-816610D01*
X+1041400Y-803910D01*
X+1041400Y-816610D02*
X+1117600Y-740410D01*
X+1181100Y-803910D02*
X+1193800Y-803910D01*
X+1193800Y-816610D01*
X+1181100Y-816610D01*
X+1181100Y-803910D01*
X+1257300Y-753110D02*
X+1270000Y-740410D01*
X+1308100Y-740410D01*
X+1320800Y-753110D01*
X+1320800Y-765810D01*
X+1308100Y-778510D01*
X+1320800Y-791210D01*
X+1320800Y-803910D01*
X+1308100Y-816610D01*
X+1270000Y-816610D01*
X+1257300Y-803910D01*
X+1282700Y-778510D02*
X+1308100Y-778510D01*
X+1371600Y-778510D02*
X+1358900Y-765810D01*
X+1358900Y-753110D01*
X+1371600Y-740410D01*
X+1409700Y-740410D01*
X+1422400Y-753110D01*
X+1422400Y-765810D01*
X+1409700Y-778510D01*
X+1371600Y-778510D01*
X+1358900Y-791210D01*
X+1358900Y-803910D01*
X+1371600Y-816610D01*
X+1409700Y-816610D01*
X+1422400Y-803910D01*
X+1422400Y-791210D01*
X+1409700Y-778510D01*
X+1473200Y-765810D02*
X+1498600Y-740410D01*
X+1498600Y-816610D01*
X+1549400Y-816610D02*
X+1549400Y-765810D01*
X+1549400Y-778510D02*
X+1562100Y-765810D01*
X+1587500Y-791210D01*
X+1612900Y-765810D01*
X+1625600Y-778510D01*
X+1625600Y-816610D01*
X+1651000Y-816610D02*
X+1651000Y-765810D01*
X+1651000Y-778510D02*
X+1663700Y-765810D01*
X+1689100Y-791210D01*
X+1714500Y-765810D01*
X+1727200Y-778510D01*
X+1727200Y-816610D01*
X+1943100Y-740410D02*
X+1866900Y-816610D01*
X+1866900Y-740410D02*
X+1905000Y-778510D01*
X+2044700Y-816610D02*
X+1968500Y-816610D01*
X+1968500Y-740410D01*
X+2044700Y-740410D01*
X+1968500Y-778510D02*
X+2019300Y-778510D01*
X+2070100Y-803910D02*
X+2082800Y-816610D01*
X+2133600Y-816610D01*
X+2146300Y-803910D01*
X+2146300Y-791210D01*
X+2133600Y-778510D01*
X+2082800Y-778510D01*
X+2070100Y-765810D01*
X+2070100Y-753110D01*
X+2082800Y-740410D01*
X+2133600Y-740410D01*
X+2146300Y-753110D01*
X+2788920Y-791210D02*
X+2712720Y-791210D01*
X+2763520Y-740410D01*
X+2763520Y-816610D01*
D20*
X+699319Y-974909D02*
X+789121Y-1064711D01*
X+699319Y-1064711D02*
X+789121Y-974909D01*
D94*
X+1041400Y-1045210D02*
X+1041400Y-994410D01*
X+1054100Y-981710D01*
X+1104900Y-981710D01*
X+1117600Y-994410D01*
X+1117600Y-1045210D01*
X+1104900Y-1057910D01*
X+1054100Y-1057910D01*
X+1041400Y-1045210D01*
X+1041400Y-1057910D02*
X+1117600Y-981710D01*
X+1181100Y-1045210D02*
X+1193800Y-1045210D01*
X+1193800Y-1057910D01*
X+1181100Y-1057910D01*
X+1181100Y-1045210D01*
X+1320800Y-981710D02*
X+1257300Y-981710D01*
X+1257300Y-1007110D01*
X+1308100Y-1007110D01*
X+1320800Y-1019810D01*
X+1320800Y-1045210D01*
X+1308100Y-1057910D01*
X+1270000Y-1057910D01*
X+1257300Y-1045210D01*
X+1346200Y-1045210D02*
X+1346200Y-994410D01*
X+1358900Y-981710D01*
X+1409700Y-981710D01*
X+1422400Y-994410D01*
X+1422400Y-1045210D01*
X+1409700Y-1057910D01*
X+1358900Y-1057910D01*
X+1346200Y-1045210D01*
X+1346200Y-1057910D02*
X+1422400Y-981710D01*
X+1473200Y-1019810D02*
X+1460500Y-1007110D01*
X+1460500Y-994410D01*
X+1473200Y-981710D01*
X+1511300Y-981710D01*
X+1524000Y-994410D01*
X+1524000Y-1007110D01*
X+1511300Y-1019810D01*
X+1473200Y-1019810D01*
X+1460500Y-1032510D01*
X+1460500Y-1045210D01*
X+1473200Y-1057910D01*
X+1511300Y-1057910D01*
X+1524000Y-1045210D01*
X+1524000Y-1032510D01*
X+1511300Y-1019810D01*
X+1549400Y-1057910D02*
X+1549400Y-1007110D01*
X+1549400Y-1019810D02*
X+1562100Y-1007110D01*
X+1587500Y-1032510D01*
X+1612900Y-1007110D01*
X+1625600Y-1019810D01*
X+1625600Y-1057910D01*
X+1651000Y-1057910D02*
X+1651000Y-1007110D01*
X+1651000Y-1019810D02*
X+1663700Y-1007110D01*
X+1689100Y-1032510D01*
X+1714500Y-1007110D01*
X+1727200Y-1019810D01*
X+1727200Y-1057910D01*
X+1943100Y-981710D02*
X+1866900Y-1057910D01*
X+1866900Y-981710D02*
X+1905000Y-1019810D01*
X+2044700Y-1057910D02*
X+1968500Y-1057910D01*
X+1968500Y-981710D01*
X+2044700Y-981710D01*
X+1968500Y-1019810D02*
X+2019300Y-1019810D01*
X+2070100Y-1045210D02*
X+2082800Y-1057910D01*
X+2133600Y-1057910D01*
X+2146300Y-1045210D01*
X+2146300Y-1032510D01*
X+2133600Y-1019810D01*
X+2082800Y-1019810D01*
X+2070100Y-1007110D01*
X+2070100Y-994410D01*
X+2082800Y-981710D01*
X+2133600Y-981710D01*
X+2146300Y-994410D01*
X+2725420Y-994410D02*
X+2738120Y-981710D01*
X+2776220Y-981710D01*
X+2788920Y-994410D01*
X+2788920Y-1007110D01*
X+2776220Y-1019810D01*
X+2788920Y-1032510D01*
X+2788920Y-1045210D01*
X+2776220Y-1057910D01*
X+2738120Y-1057910D01*
X+2725420Y-1045210D01*
X+2750820Y-1019810D02*
X+2776220Y-1019810D01*
X+2814320Y-1045210D02*
X+2814320Y-994410D01*
X+2827020Y-981710D01*
X+2877820Y-981710D01*
X+2890520Y-994410D01*
X+2890520Y-1045210D01*
X+2877820Y-1057910D01*
X+2827020Y-1057910D01*
X+2814320Y-1045210D01*
X+2814320Y-1057910D02*
X+2890520Y-981710D01*
D20*
X+744220Y-1197610D02*
X+744220Y-1324610D01*
X+680720Y-1261110D02*
X+807720Y-1261110D01*
X+699319Y-1216209D02*
X+789121Y-1306011D01*
X+699319Y-1306011D02*
X+789121Y-1216209D01*
D94*
X+1066800Y-1248410D02*
X+1092200Y-1223010D01*
X+1092200Y-1299210D01*
X+1181100Y-1286510D02*
X+1193800Y-1286510D01*
X+1193800Y-1299210D01*
X+1181100Y-1299210D01*
X+1181100Y-1286510D01*
X+1244600Y-1286510D02*
X+1244600Y-1235710D01*
X+1257300Y-1223010D01*
X+1308100Y-1223010D01*
X+1320800Y-1235710D01*
X+1320800Y-1286510D01*
X+1308100Y-1299210D01*
X+1257300Y-1299210D01*
X+1244600Y-1286510D01*
X+1244600Y-1299210D02*
X+1320800Y-1223010D01*
X+1371600Y-1248410D02*
X+1397000Y-1223010D01*
X+1397000Y-1299210D01*
X+1524000Y-1235710D02*
X+1511300Y-1223010D01*
X+1473200Y-1223010D01*
X+1460500Y-1235710D01*
X+1460500Y-1286510D01*
X+1473200Y-1299210D01*
X+1511300Y-1299210D01*
X+1524000Y-1286510D01*
X+1524000Y-1273810D01*
X+1511300Y-1261110D01*
X+1460500Y-1261110D01*
X+1549400Y-1299210D02*
X+1549400Y-1248410D01*
X+1549400Y-1261110D02*
X+1562100Y-1248410D01*
X+1587500Y-1273810D01*
X+1612900Y-1248410D01*
X+1625600Y-1261110D01*
X+1625600Y-1299210D01*
X+1651000Y-1299210D02*
X+1651000Y-1248410D01*
X+1651000Y-1261110D02*
X+1663700Y-1248410D01*
X+1689100Y-1273810D01*
X+1714500Y-1248410D01*
X+1727200Y-1261110D01*
X+1727200Y-1299210D01*
X+1943100Y-1223010D02*
X+1866900Y-1299210D01*
X+1866900Y-1223010D02*
X+1905000Y-1261110D01*
X+2044700Y-1299210D02*
X+1968500Y-1299210D01*
X+1968500Y-1223010D01*
X+2044700Y-1223010D01*
X+1968500Y-1261110D02*
X+2019300Y-1261110D01*
X+2070100Y-1286510D02*
X+2082800Y-1299210D01*
X+2133600Y-1299210D01*
X+2146300Y-1286510D01*
X+2146300Y-1273810D01*
X+2133600Y-1261110D01*
X+2082800Y-1261110D01*
X+2070100Y-1248410D01*
X+2070100Y-1235710D01*
X+2082800Y-1223010D01*
X+2133600Y-1223010D01*
X+2146300Y-1235710D01*
X+2725420Y-1235710D02*
X+2738120Y-1223010D01*
X+2776220Y-1223010D01*
X+2788920Y-1235710D01*
X+2788920Y-1248410D01*
X+2776220Y-1261110D01*
X+2788920Y-1273810D01*
X+2788920Y-1286510D01*
X+2776220Y-1299210D01*
X+2738120Y-1299210D01*
X+2725420Y-1286510D01*
X+2750820Y-1261110D02*
X+2776220Y-1261110D01*
X+2839720Y-1248410D02*
X+2865120Y-1223010D01*
X+2865120Y-1299210D01*
D20*
X+807720Y-1502410D02*
X+807503Y-1497163D01*
X+805738Y-1486668D01*
X+802046Y-1476173D01*
X+796018Y-1465678D01*
X+786796Y-1455298D01*
X+776301Y-1447610D01*
X+765806Y-1442692D01*
X+755311Y-1439886D01*
X+744816Y-1438913D01*
X+744220Y-1438910D01*
X+680720Y-1502410D02*
X+680937Y-1497163D01*
X+682702Y-1486668D01*
X+686394Y-1476173D01*
X+692422Y-1465678D01*
X+701644Y-1455298D01*
X+712139Y-1447610D01*
X+722634Y-1442692D01*
X+733129Y-1439886D01*
X+743624Y-1438913D01*
X+744220Y-1438910D01*
X+680720Y-1502410D02*
X+680937Y-1507657D01*
X+682702Y-1518152D01*
X+686394Y-1528647D01*
X+692422Y-1539142D01*
X+701644Y-1549522D01*
X+712139Y-1557210D01*
X+722634Y-1562128D01*
X+733129Y-1564934D01*
X+743624Y-1565907D01*
X+744220Y-1565910D01*
X+807720Y-1502410D02*
X+807503Y-1507657D01*
X+805738Y-1518152D01*
X+802046Y-1528647D01*
X+796018Y-1539142D01*
X+786796Y-1549522D01*
X+776301Y-1557210D01*
X+765806Y-1562128D01*
X+755311Y-1564934D01*
X+744816Y-1565907D01*
X+744220Y-1565910D01*
X+744220Y-1438910D02*
X+744220Y-1565910D01*
X+680720Y-1502410D02*
X+807720Y-1502410D01*
D94*
X+1066800Y-1489710D02*
X+1092200Y-1464310D01*
X+1092200Y-1540510D01*
X+1181100Y-1527810D02*
X+1193800Y-1527810D01*
X+1193800Y-1540510D01*
X+1181100Y-1540510D01*
X+1181100Y-1527810D01*
X+1320800Y-1464310D02*
X+1257300Y-1464310D01*
X+1257300Y-1489710D01*
X+1308100Y-1489710D01*
X+1320800Y-1502410D01*
X+1320800Y-1527810D01*
X+1308100Y-1540510D01*
X+1270000Y-1540510D01*
X+1257300Y-1527810D01*
X+1358900Y-1477010D02*
X+1371600Y-1464310D01*
X+1409700Y-1464310D01*
X+1422400Y-1477010D01*
X+1422400Y-1489710D01*
X+1409700Y-1502410D01*
X+1371600Y-1502410D01*
X+1358900Y-1515110D01*
X+1358900Y-1540510D01*
X+1422400Y-1540510D01*
X+1524000Y-1515110D02*
X+1447800Y-1515110D01*
X+1498600Y-1464310D01*
X+1498600Y-1540510D01*
X+1549400Y-1540510D02*
X+1549400Y-1489710D01*
X+1549400Y-1502410D02*
X+1562100Y-1489710D01*
X+1587500Y-1515110D01*
X+1612900Y-1489710D01*
X+1625600Y-1502410D01*
X+1625600Y-1540510D01*
X+1651000Y-1540510D02*
X+1651000Y-1489710D01*
X+1651000Y-1502410D02*
X+1663700Y-1489710D01*
X+1689100Y-1515110D01*
X+1714500Y-1489710D01*
X+1727200Y-1502410D01*
X+1727200Y-1540510D01*
X+1943100Y-1464310D02*
X+1866900Y-1540510D01*
X+1866900Y-1464310D02*
X+1905000Y-1502410D01*
X+2044700Y-1540510D02*
X+1968500Y-1540510D01*
X+1968500Y-1464310D01*
X+2044700Y-1464310D01*
X+1968500Y-1502410D02*
X+2019300Y-1502410D01*
X+2070100Y-1527810D02*
X+2082800Y-1540510D01*
X+2133600Y-1540510D01*
X+2146300Y-1527810D01*
X+2146300Y-1515110D01*
X+2133600Y-1502410D01*
X+2082800Y-1502410D01*
X+2070100Y-1489710D01*
X+2070100Y-1477010D01*
X+2082800Y-1464310D01*
X+2133600Y-1464310D01*
X+2146300Y-1477010D01*
X+2788920Y-1515110D02*
X+2712720Y-1515110D01*
X+2763520Y-1464310D01*
X+2763520Y-1540510D01*
D20*
X+807720Y-1743710D02*
X+807503Y-1738463D01*
X+805738Y-1727968D01*
X+802046Y-1717473D01*
X+796018Y-1706978D01*
X+786796Y-1696598D01*
X+776301Y-1688910D01*
X+765806Y-1683992D01*
X+755311Y-1681186D01*
X+744816Y-1680213D01*
X+744220Y-1680210D01*
X+680720Y-1743710D02*
X+680937Y-1738463D01*
X+682702Y-1727968D01*
X+686394Y-1717473D01*
X+692422Y-1706978D01*
X+701644Y-1696598D01*
X+712139Y-1688910D01*
X+722634Y-1683992D01*
X+733129Y-1681186D01*
X+743624Y-1680213D01*
X+744220Y-1680210D01*
X+680720Y-1743710D02*
X+680937Y-1748957D01*
X+682702Y-1759452D01*
X+686394Y-1769947D01*
X+692422Y-1780442D01*
X+701644Y-1790822D01*
X+712139Y-1798510D01*
X+722634Y-1803428D01*
X+733129Y-1806234D01*
X+743624Y-1807207D01*
X+744220Y-1807210D01*
X+807720Y-1743710D02*
X+807503Y-1748957D01*
X+805738Y-1759452D01*
X+802046Y-1769947D01*
X+796018Y-1780442D01*
X+786796Y-1790822D01*
X+776301Y-1798510D01*
X+765806Y-1803428D01*
X+755311Y-1806234D01*
X+744816Y-1807207D01*
X+744220Y-1807210D01*
X+699319Y-1698809D02*
X+789121Y-1788611D01*
X+699319Y-1788611D02*
X+789121Y-1698809D01*
D94*
X+1066800Y-1731010D02*
X+1092200Y-1705610D01*
X+1092200Y-1781810D01*
X+1143000Y-1781810D02*
X+1143000Y-1731010D01*
X+1143000Y-1743710D02*
X+1155700Y-1731010D01*
X+1181100Y-1756410D01*
X+1206500Y-1731010D01*
X+1219200Y-1743710D01*
X+1219200Y-1781810D01*
X+1244600Y-1781810D02*
X+1244600Y-1731010D01*
X+1244600Y-1743710D02*
X+1257300Y-1731010D01*
X+1282700Y-1756410D01*
X+1308100Y-1731010D01*
X+1320800Y-1743710D01*
X+1320800Y-1781810D01*
X+1943100Y-1705610D02*
X+1866900Y-1781810D01*
X+1866900Y-1705610D02*
X+1905000Y-1743710D01*
X+2044700Y-1781810D02*
X+1968500Y-1781810D01*
X+1968500Y-1705610D01*
X+2044700Y-1705610D01*
X+1968500Y-1743710D02*
X+2019300Y-1743710D01*
X+2070100Y-1769110D02*
X+2082800Y-1781810D01*
X+2133600Y-1781810D01*
X+2146300Y-1769110D01*
X+2146300Y-1756410D01*
X+2133600Y-1743710D01*
X+2082800Y-1743710D01*
X+2070100Y-1731010D01*
X+2070100Y-1718310D01*
X+2082800Y-1705610D01*
X+2133600Y-1705610D01*
X+2146300Y-1718310D01*
X+2725420Y-1718310D02*
X+2738120Y-1705610D01*
X+2776220Y-1705610D01*
X+2788920Y-1718310D01*
X+2788920Y-1731010D01*
X+2776220Y-1743710D01*
X+2738120Y-1743710D01*
X+2725420Y-1756410D01*
X+2725420Y-1781810D01*
X+2788920Y-1781810D01*
X+2890520Y-1756410D02*
X+2814320Y-1756410D01*
X+2865120Y-1705610D01*
X+2865120Y-1781810D01*
D20*
X+807720Y-1985010D02*
X+807503Y-1979763D01*
X+805738Y-1969268D01*
X+802046Y-1958773D01*
X+796018Y-1948278D01*
X+786796Y-1937898D01*
X+776301Y-1930210D01*
X+765806Y-1925292D01*
X+755311Y-1922486D01*
X+744816Y-1921513D01*
X+744220Y-1921510D01*
X+680720Y-1985010D02*
X+680937Y-1979763D01*
X+682702Y-1969268D01*
X+686394Y-1958773D01*
X+692422Y-1948278D01*
X+701644Y-1937898D01*
X+712139Y-1930210D01*
X+722634Y-1925292D01*
X+733129Y-1922486D01*
X+743624Y-1921513D01*
X+744220Y-1921510D01*
X+680720Y-1985010D02*
X+680937Y-1990257D01*
X+682702Y-2000752D01*
X+686394Y-2011247D01*
X+692422Y-2021742D01*
X+701644Y-2032122D01*
X+712139Y-2039810D01*
X+722634Y-2044728D01*
X+733129Y-2047534D01*
X+743624Y-2048507D01*
X+744220Y-2048510D01*
X+807720Y-1985010D02*
X+807503Y-1990257D01*
X+805738Y-2000752D01*
X+802046Y-2011247D01*
X+796018Y-2021742D01*
X+786796Y-2032122D01*
X+776301Y-2039810D01*
X+765806Y-2044728D01*
X+755311Y-2047534D01*
X+744816Y-2048507D01*
X+744220Y-2048510D01*
X+744220Y-1921510D02*
X+744220Y-2048510D01*
X+680720Y-1985010D02*
X+807720Y-1985010D01*
X+807503Y-1979763D01*
X+805738Y-1969268D01*
X+802046Y-1958773D01*
X+796018Y-1948278D01*
X+786796Y-1937898D01*
X+776301Y-1930210D01*
X+765806Y-1925292D01*
X+755311Y-1922486D01*
X+744816Y-1921513D01*
X+744220Y-1921510D01*
X+680720Y-1985010D02*
X+680937Y-1979763D01*
X+682702Y-1969268D01*
X+686394Y-1958773D01*
X+692422Y-1948278D01*
X+701644Y-1937898D01*
X+712139Y-1930210D01*
X+722634Y-1925292D01*
X+733129Y-1922486D01*
X+743624Y-1921513D01*
X+744220Y-1921510D01*
X+680720Y-1985010D02*
X+680937Y-1990257D01*
X+682702Y-2000752D01*
X+686394Y-2011247D01*
X+692422Y-2021742D01*
X+701644Y-2032122D01*
X+712139Y-2039810D01*
X+722634Y-2044728D01*
X+733129Y-2047534D01*
X+743624Y-2048507D01*
X+744220Y-2048510D01*
X+807720Y-1985010D02*
X+807503Y-1990257D01*
X+805738Y-2000752D01*
X+802046Y-2011247D01*
X+796018Y-2021742D01*
X+786796Y-2032122D01*
X+776301Y-2039810D01*
X+765806Y-2044728D01*
X+755311Y-2047534D01*
X+744816Y-2048507D01*
X+744220Y-2048510D01*
X+699319Y-1940109D02*
X+789121Y-2029911D01*
X+699319Y-2029911D02*
X+789121Y-1940109D01*
D94*
X+1054100Y-1959610D02*
X+1066800Y-1946910D01*
X+1104900Y-1946910D01*
X+1117600Y-1959610D01*
X+1117600Y-1972310D01*
X+1104900Y-1985010D01*
X+1066800Y-1985010D01*
X+1054100Y-1997710D01*
X+1054100Y-2023110D01*
X+1117600Y-2023110D01*
X+1181100Y-2010410D02*
X+1193800Y-2010410D01*
X+1193800Y-2023110D01*
X+1181100Y-2023110D01*
X+1181100Y-2010410D01*
X+1244600Y-2010410D02*
X+1244600Y-1959610D01*
X+1257300Y-1946910D01*
X+1308100Y-1946910D01*
X+1320800Y-1959610D01*
X+1320800Y-2010410D01*
X+1308100Y-2023110D01*
X+1257300Y-2023110D01*
X+1244600Y-2010410D01*
X+1244600Y-2023110D02*
X+1320800Y-1946910D01*
X+1358900Y-1959610D02*
X+1371600Y-1946910D01*
X+1409700Y-1946910D01*
X+1422400Y-1959610D01*
X+1422400Y-1972310D01*
X+1409700Y-1985010D01*
X+1422400Y-1997710D01*
X+1422400Y-2010410D01*
X+1409700Y-2023110D01*
X+1371600Y-2023110D01*
X+1358900Y-2010410D01*
X+1384300Y-1985010D02*
X+1409700Y-1985010D01*
X+1460500Y-1959610D02*
X+1473200Y-1946910D01*
X+1511300Y-1946910D01*
X+1524000Y-1959610D01*
X+1524000Y-1972310D01*
X+1511300Y-1985010D01*
X+1473200Y-1985010D01*
X+1460500Y-1997710D01*
X+1460500Y-2023110D01*
X+1524000Y-2023110D01*
X+1549400Y-2023110D02*
X+1549400Y-1972310D01*
X+1549400Y-1985010D02*
X+1562100Y-1972310D01*
X+1587500Y-1997710D01*
X+1612900Y-1972310D01*
X+1625600Y-1985010D01*
X+1625600Y-2023110D01*
X+1651000Y-2023110D02*
X+1651000Y-1972310D01*
X+1651000Y-1985010D02*
X+1663700Y-1972310D01*
X+1689100Y-1997710D01*
X+1714500Y-1972310D01*
X+1727200Y-1985010D01*
X+1727200Y-2023110D01*
X+1943100Y-1946910D02*
X+1866900Y-2023110D01*
X+1866900Y-1946910D02*
X+1905000Y-1985010D01*
X+2044700Y-2023110D02*
X+1968500Y-2023110D01*
X+1968500Y-1946910D01*
X+2044700Y-1946910D01*
X+1968500Y-1985010D02*
X+2019300Y-1985010D01*
X+2070100Y-2010410D02*
X+2082800Y-2023110D01*
X+2133600Y-2023110D01*
X+2146300Y-2010410D01*
X+2146300Y-1997710D01*
X+2133600Y-1985010D01*
X+2082800Y-1985010D01*
X+2070100Y-1972310D01*
X+2070100Y-1959610D01*
X+2082800Y-1946910D01*
X+2133600Y-1946910D01*
X+2146300Y-1959610D01*
X+2725420Y-1946910D02*
X+2788920Y-1946910D01*
X+2788920Y-1959610D01*
X+2725420Y-2023110D01*
D20*
X+744220Y-2162810D02*
X+744220Y-2289810D01*
X+680720Y-2226310D02*
X+807720Y-2226310D01*
X+680720Y-2289810D02*
X+807720Y-2289810D01*
X+807720Y-2162810D01*
X+680720Y-2162810D01*
X+680720Y-2289810D01*
D94*
X+1117600Y-2239010D02*
X+1041400Y-2239010D01*
X+1092200Y-2188210D01*
X+1092200Y-2264410D01*
X+1143000Y-2264410D02*
X+1143000Y-2213610D01*
X+1143000Y-2226310D02*
X+1155700Y-2213610D01*
X+1181100Y-2239010D01*
X+1206500Y-2213610D01*
X+1219200Y-2226310D01*
X+1219200Y-2264410D01*
X+1244600Y-2264410D02*
X+1244600Y-2213610D01*
X+1244600Y-2226310D02*
X+1257300Y-2213610D01*
X+1282700Y-2239010D01*
X+1308100Y-2213610D01*
X+1320800Y-2226310D01*
X+1320800Y-2264410D01*
X+1943100Y-2188210D02*
X+1866900Y-2264410D01*
X+1866900Y-2188210D02*
X+1905000Y-2226310D01*
X+2044700Y-2264410D02*
X+1968500Y-2264410D01*
X+1968500Y-2188210D01*
X+2044700Y-2188210D01*
X+1968500Y-2226310D02*
X+2019300Y-2226310D01*
X+2070100Y-2251710D02*
X+2082800Y-2264410D01*
X+2133600Y-2264410D01*
X+2146300Y-2251710D01*
X+2146300Y-2239010D01*
X+2133600Y-2226310D01*
X+2082800Y-2226310D01*
X+2070100Y-2213610D01*
X+2070100Y-2200910D01*
X+2082800Y-2188210D01*
X+2133600Y-2188210D01*
X+2146300Y-2200910D01*
X+2788920Y-2239010D02*
X+2712720Y-2239010D01*
X+2763520Y-2188210D01*
X+2763520Y-2264410D01*
M02*
