M48
METRIC,TZ
T01C0.3810
T02C0.5080
T03C2.0320
T04C1.5240
T05C1.0000
T06C1.0160
T07C4.0000
%
T01
X+38100Y+44450
X+40515Y+47028
X+76124Y+77842
X+76786Y+46927
T02
X+20320Y+46990
X+20320Y+44450
X+38100Y+46990
X+40552Y+46990
X+40516Y+44435
X+38115Y+44435
X+55880Y+46990
X+58420Y+46990
X+55880Y+44450
X+69769Y+46884
X+58420Y+44450
X+93980Y+44450
X+72939Y+46883
X+76742Y+46883
X+61844Y+74948
X+44058Y+74926
X+42618Y+74896
X+25400Y+74930
X+76106Y+77824
X+76106Y+66134
X+71120Y+66040
X+64770Y+66040
X+69850Y+22860
X+68810Y+18957
X+64770Y+21590
X+65486Y+12225
X+73093Y+36997
X+73047Y+33262
X+62541Y+33628
X+71176Y+33643
T03
X+77470Y+80010
X+93980Y+80010
X+85090Y+80010
X+85090Y+57150
X+12700Y+81280
X+48260Y+81280
X+30480Y+81280
T04
X+81280Y+19050
X+88780Y+19050
X+81280Y+36830
X+88780Y+36830
T05
X+31560Y+6350
X+33560Y+6350
X+35560Y+6350
X+37560Y+6350
X+39560Y+6350
X+41560Y+6350
X+33370Y+90170
X+35370Y+90170
X+37370Y+90170
X+39370Y+90170
X+41370Y+90170
X+43370Y+90170
X+71500Y+8890
X+69500Y+8890
X+67500Y+8890
X+65500Y+8890
X+63500Y+8890
X+61500Y+8890
X+62230Y+21081
X+62230Y+23081
X+26670Y+21590
X+26670Y+23590
X+44450Y+21590
X+44450Y+23590
T06
X+22860Y+52070
X+20320Y+52070
X+17780Y+52070
X+15240Y+39370
X+17780Y+39370
X+20320Y+39370
X+40640Y+52070
X+38100Y+52070
X+35560Y+52070
X+33020Y+39370
X+35560Y+39370
X+38100Y+39370
X+58420Y+52070
X+55880Y+52070
X+53340Y+52070
X+50800Y+39370
X+53340Y+39370
X+55880Y+39370
X+72390Y+26670
X+69850Y+26670
X+67310Y+26670
X+72390Y+69850
X+69850Y+69850
X+67310Y+69850
X+72390Y+52070
X+69850Y+52070
X+67310Y+52070
X+11430Y+19050
X+11430Y+16550
X+63500Y+27940
X+61000Y+27940
T07
X+93980Y+7620
X+10160Y+7620
X+10160Y+90170
X+93980Y+90170
M30
