G04 PROTEUS RS274X GERBER FILE*
%FSLAX45Y45*%
%MOMM*%
G01*
%ADD18C,0.203200*%
D18*
X-3108960Y+4765040D02*
X+3512000Y+4765040D01*
X+3512000Y+8128000D01*
X-3108960Y+8128000D01*
X-3108960Y+4765040D01*
X-2540000Y+6350000D02*
X-2540427Y+6360409D01*
X-2543899Y+6381228D01*
X-2551155Y+6402047D01*
X-2562983Y+6422866D01*
X-2581080Y+6443524D01*
X-2601899Y+6459045D01*
X-2622718Y+6469030D01*
X-2643537Y+6474814D01*
X-2664356Y+6476972D01*
X-2667000Y+6477000D01*
X-2794000Y+6350000D02*
X-2793573Y+6360409D01*
X-2790101Y+6381228D01*
X-2782845Y+6402047D01*
X-2771017Y+6422866D01*
X-2752920Y+6443524D01*
X-2732101Y+6459045D01*
X-2711282Y+6469030D01*
X-2690463Y+6474814D01*
X-2669644Y+6476972D01*
X-2667000Y+6477000D01*
X-2794000Y+6350000D02*
X-2793573Y+6339591D01*
X-2790101Y+6318772D01*
X-2782845Y+6297953D01*
X-2771017Y+6277134D01*
X-2752920Y+6256476D01*
X-2732101Y+6240955D01*
X-2711282Y+6230970D01*
X-2690463Y+6225186D01*
X-2669644Y+6223028D01*
X-2667000Y+6223000D01*
X-2540000Y+6350000D02*
X-2540427Y+6339591D01*
X-2543899Y+6318772D01*
X-2551155Y+6297953D01*
X-2562983Y+6277134D01*
X-2581080Y+6256476D01*
X-2601899Y+6240955D01*
X-2622718Y+6230970D01*
X-2643537Y+6225186D01*
X-2664356Y+6223028D01*
X-2667000Y+6223000D01*
X-2603500Y+6350000D02*
X-2603717Y+6355247D01*
X-2605482Y+6365742D01*
X-2609174Y+6376237D01*
X-2615202Y+6386732D01*
X-2624424Y+6397112D01*
X-2634919Y+6404800D01*
X-2645414Y+6409718D01*
X-2655909Y+6412524D01*
X-2666404Y+6413497D01*
X-2667000Y+6413500D01*
X-2730500Y+6350000D02*
X-2730283Y+6355247D01*
X-2728518Y+6365742D01*
X-2724826Y+6376237D01*
X-2718798Y+6386732D01*
X-2709576Y+6397112D01*
X-2699081Y+6404800D01*
X-2688586Y+6409718D01*
X-2678091Y+6412524D01*
X-2667596Y+6413497D01*
X-2667000Y+6413500D01*
X-2730500Y+6350000D02*
X-2730283Y+6344753D01*
X-2728518Y+6334258D01*
X-2724826Y+6323763D01*
X-2718798Y+6313268D01*
X-2709576Y+6302888D01*
X-2699081Y+6295200D01*
X-2688586Y+6290282D01*
X-2678091Y+6287476D01*
X-2667596Y+6286503D01*
X-2667000Y+6286500D01*
X-2603500Y+6350000D02*
X-2603717Y+6344753D01*
X-2605482Y+6334258D01*
X-2609174Y+6323763D01*
X-2615202Y+6313268D01*
X-2624424Y+6302888D01*
X-2634919Y+6295200D01*
X-2645414Y+6290282D01*
X-2655909Y+6287476D01*
X-2666404Y+6286503D01*
X-2667000Y+6286500D01*
X-2895600Y+6318250D02*
X-2926080Y+6350000D01*
X-2834640Y+6350000D01*
X-2540000Y+6604000D02*
X-2540427Y+6614409D01*
X-2543899Y+6635228D01*
X-2551155Y+6656047D01*
X-2562983Y+6676866D01*
X-2581080Y+6697524D01*
X-2601899Y+6713045D01*
X-2622718Y+6723030D01*
X-2643537Y+6728814D01*
X-2664356Y+6730972D01*
X-2667000Y+6731000D01*
X-2794000Y+6604000D02*
X-2793573Y+6614409D01*
X-2790101Y+6635228D01*
X-2782845Y+6656047D01*
X-2771017Y+6676866D01*
X-2752920Y+6697524D01*
X-2732101Y+6713045D01*
X-2711282Y+6723030D01*
X-2690463Y+6728814D01*
X-2669644Y+6730972D01*
X-2667000Y+6731000D01*
X-2794000Y+6604000D02*
X-2793573Y+6593591D01*
X-2790101Y+6572772D01*
X-2782845Y+6551953D01*
X-2771017Y+6531134D01*
X-2752920Y+6510476D01*
X-2732101Y+6494955D01*
X-2711282Y+6484970D01*
X-2690463Y+6479186D01*
X-2669644Y+6477028D01*
X-2667000Y+6477000D01*
X-2540000Y+6604000D02*
X-2540427Y+6593591D01*
X-2543899Y+6572772D01*
X-2551155Y+6551953D01*
X-2562983Y+6531134D01*
X-2581080Y+6510476D01*
X-2601899Y+6494955D01*
X-2622718Y+6484970D01*
X-2643537Y+6479186D01*
X-2664356Y+6477028D01*
X-2667000Y+6477000D01*
X-2603500Y+6604000D02*
X-2603717Y+6609247D01*
X-2605482Y+6619742D01*
X-2609174Y+6630237D01*
X-2615202Y+6640732D01*
X-2624424Y+6651112D01*
X-2634919Y+6658800D01*
X-2645414Y+6663718D01*
X-2655909Y+6666524D01*
X-2666404Y+6667497D01*
X-2667000Y+6667500D01*
X-2730500Y+6604000D02*
X-2730283Y+6609247D01*
X-2728518Y+6619742D01*
X-2724826Y+6630237D01*
X-2718798Y+6640732D01*
X-2709576Y+6651112D01*
X-2699081Y+6658800D01*
X-2688586Y+6663718D01*
X-2678091Y+6666524D01*
X-2667596Y+6667497D01*
X-2667000Y+6667500D01*
X-2730500Y+6604000D02*
X-2730283Y+6598753D01*
X-2728518Y+6588258D01*
X-2724826Y+6577763D01*
X-2718798Y+6567268D01*
X-2709576Y+6556888D01*
X-2699081Y+6549200D01*
X-2688586Y+6544282D01*
X-2678091Y+6541476D01*
X-2667596Y+6540503D01*
X-2667000Y+6540500D01*
X-2603500Y+6604000D02*
X-2603717Y+6598753D01*
X-2605482Y+6588258D01*
X-2609174Y+6577763D01*
X-2615202Y+6567268D01*
X-2624424Y+6556888D01*
X-2634919Y+6549200D01*
X-2645414Y+6544282D01*
X-2655909Y+6541476D01*
X-2666404Y+6540503D01*
X-2667000Y+6540500D01*
X-2910840Y+6556375D02*
X-2926080Y+6572250D01*
X-2926080Y+6619875D01*
X-2910840Y+6635750D01*
X-2895600Y+6635750D01*
X-2880360Y+6619875D01*
X-2880360Y+6572250D01*
X-2865120Y+6556375D01*
X-2834640Y+6556375D01*
X-2834640Y+6635750D01*
X-2540000Y+6858000D02*
X-2540427Y+6868409D01*
X-2543899Y+6889228D01*
X-2551155Y+6910047D01*
X-2562983Y+6930866D01*
X-2581080Y+6951524D01*
X-2601899Y+6967045D01*
X-2622718Y+6977030D01*
X-2643537Y+6982814D01*
X-2664356Y+6984972D01*
X-2667000Y+6985000D01*
X-2794000Y+6858000D02*
X-2793573Y+6868409D01*
X-2790101Y+6889228D01*
X-2782845Y+6910047D01*
X-2771017Y+6930866D01*
X-2752920Y+6951524D01*
X-2732101Y+6967045D01*
X-2711282Y+6977030D01*
X-2690463Y+6982814D01*
X-2669644Y+6984972D01*
X-2667000Y+6985000D01*
X-2794000Y+6858000D02*
X-2793573Y+6847591D01*
X-2790101Y+6826772D01*
X-2782845Y+6805953D01*
X-2771017Y+6785134D01*
X-2752920Y+6764476D01*
X-2732101Y+6748955D01*
X-2711282Y+6738970D01*
X-2690463Y+6733186D01*
X-2669644Y+6731028D01*
X-2667000Y+6731000D01*
X-2540000Y+6858000D02*
X-2540427Y+6847591D01*
X-2543899Y+6826772D01*
X-2551155Y+6805953D01*
X-2562983Y+6785134D01*
X-2581080Y+6764476D01*
X-2601899Y+6748955D01*
X-2622718Y+6738970D01*
X-2643537Y+6733186D01*
X-2664356Y+6731028D01*
X-2667000Y+6731000D01*
X-2603500Y+6858000D02*
X-2603717Y+6863247D01*
X-2605482Y+6873742D01*
X-2609174Y+6884237D01*
X-2615202Y+6894732D01*
X-2624424Y+6905112D01*
X-2634919Y+6912800D01*
X-2645414Y+6917718D01*
X-2655909Y+6920524D01*
X-2666404Y+6921497D01*
X-2667000Y+6921500D01*
X-2730500Y+6858000D02*
X-2730283Y+6863247D01*
X-2728518Y+6873742D01*
X-2724826Y+6884237D01*
X-2718798Y+6894732D01*
X-2709576Y+6905112D01*
X-2699081Y+6912800D01*
X-2688586Y+6917718D01*
X-2678091Y+6920524D01*
X-2667596Y+6921497D01*
X-2667000Y+6921500D01*
X-2730500Y+6858000D02*
X-2730283Y+6852753D01*
X-2728518Y+6842258D01*
X-2724826Y+6831763D01*
X-2718798Y+6821268D01*
X-2709576Y+6810888D01*
X-2699081Y+6803200D01*
X-2688586Y+6798282D01*
X-2678091Y+6795476D01*
X-2667596Y+6794503D01*
X-2667000Y+6794500D01*
X-2603500Y+6858000D02*
X-2603717Y+6852753D01*
X-2605482Y+6842258D01*
X-2609174Y+6831763D01*
X-2615202Y+6821268D01*
X-2624424Y+6810888D01*
X-2634919Y+6803200D01*
X-2645414Y+6798282D01*
X-2655909Y+6795476D01*
X-2666404Y+6794503D01*
X-2667000Y+6794500D01*
X-2910840Y+6810375D02*
X-2926080Y+6826250D01*
X-2926080Y+6873875D01*
X-2910840Y+6889750D01*
X-2895600Y+6889750D01*
X-2880360Y+6873875D01*
X-2865120Y+6889750D01*
X-2849880Y+6889750D01*
X-2834640Y+6873875D01*
X-2834640Y+6826250D01*
X-2849880Y+6810375D01*
X-2880360Y+6842125D02*
X-2880360Y+6873875D01*
X-2540000Y+7112000D02*
X-2540427Y+7122409D01*
X-2543899Y+7143228D01*
X-2551155Y+7164047D01*
X-2562983Y+7184866D01*
X-2581080Y+7205524D01*
X-2601899Y+7221045D01*
X-2622718Y+7231030D01*
X-2643537Y+7236814D01*
X-2664356Y+7238972D01*
X-2667000Y+7239000D01*
X-2794000Y+7112000D02*
X-2793573Y+7122409D01*
X-2790101Y+7143228D01*
X-2782845Y+7164047D01*
X-2771017Y+7184866D01*
X-2752920Y+7205524D01*
X-2732101Y+7221045D01*
X-2711282Y+7231030D01*
X-2690463Y+7236814D01*
X-2669644Y+7238972D01*
X-2667000Y+7239000D01*
X-2794000Y+7112000D02*
X-2793573Y+7101591D01*
X-2790101Y+7080772D01*
X-2782845Y+7059953D01*
X-2771017Y+7039134D01*
X-2752920Y+7018476D01*
X-2732101Y+7002955D01*
X-2711282Y+6992970D01*
X-2690463Y+6987186D01*
X-2669644Y+6985028D01*
X-2667000Y+6985000D01*
X-2540000Y+7112000D02*
X-2540427Y+7101591D01*
X-2543899Y+7080772D01*
X-2551155Y+7059953D01*
X-2562983Y+7039134D01*
X-2581080Y+7018476D01*
X-2601899Y+7002955D01*
X-2622718Y+6992970D01*
X-2643537Y+6987186D01*
X-2664356Y+6985028D01*
X-2667000Y+6985000D01*
X-2603500Y+7112000D02*
X-2603717Y+7117247D01*
X-2605482Y+7127742D01*
X-2609174Y+7138237D01*
X-2615202Y+7148732D01*
X-2624424Y+7159112D01*
X-2634919Y+7166800D01*
X-2645414Y+7171718D01*
X-2655909Y+7174524D01*
X-2666404Y+7175497D01*
X-2667000Y+7175500D01*
X-2730500Y+7112000D02*
X-2730283Y+7117247D01*
X-2728518Y+7127742D01*
X-2724826Y+7138237D01*
X-2718798Y+7148732D01*
X-2709576Y+7159112D01*
X-2699081Y+7166800D01*
X-2688586Y+7171718D01*
X-2678091Y+7174524D01*
X-2667596Y+7175497D01*
X-2667000Y+7175500D01*
X-2730500Y+7112000D02*
X-2730283Y+7106753D01*
X-2728518Y+7096258D01*
X-2724826Y+7085763D01*
X-2718798Y+7075268D01*
X-2709576Y+7064888D01*
X-2699081Y+7057200D01*
X-2688586Y+7052282D01*
X-2678091Y+7049476D01*
X-2667596Y+7048503D01*
X-2667000Y+7048500D01*
X-2603500Y+7112000D02*
X-2603717Y+7106753D01*
X-2605482Y+7096258D01*
X-2609174Y+7085763D01*
X-2615202Y+7075268D01*
X-2624424Y+7064888D01*
X-2634919Y+7057200D01*
X-2645414Y+7052282D01*
X-2655909Y+7049476D01*
X-2666404Y+7048503D01*
X-2667000Y+7048500D01*
X-2865120Y+7143750D02*
X-2865120Y+7048500D01*
X-2926080Y+7112000D01*
X-2834640Y+7112000D01*
X-2540000Y+7366000D02*
X-2540427Y+7376409D01*
X-2543899Y+7397228D01*
X-2551155Y+7418047D01*
X-2562983Y+7438866D01*
X-2581080Y+7459524D01*
X-2601899Y+7475045D01*
X-2622718Y+7485030D01*
X-2643537Y+7490814D01*
X-2664356Y+7492972D01*
X-2667000Y+7493000D01*
X-2794000Y+7366000D02*
X-2793573Y+7376409D01*
X-2790101Y+7397228D01*
X-2782845Y+7418047D01*
X-2771017Y+7438866D01*
X-2752920Y+7459524D01*
X-2732101Y+7475045D01*
X-2711282Y+7485030D01*
X-2690463Y+7490814D01*
X-2669644Y+7492972D01*
X-2667000Y+7493000D01*
X-2794000Y+7366000D02*
X-2793573Y+7355591D01*
X-2790101Y+7334772D01*
X-2782845Y+7313953D01*
X-2771017Y+7293134D01*
X-2752920Y+7272476D01*
X-2732101Y+7256955D01*
X-2711282Y+7246970D01*
X-2690463Y+7241186D01*
X-2669644Y+7239028D01*
X-2667000Y+7239000D01*
X-2540000Y+7366000D02*
X-2540427Y+7355591D01*
X-2543899Y+7334772D01*
X-2551155Y+7313953D01*
X-2562983Y+7293134D01*
X-2581080Y+7272476D01*
X-2601899Y+7256955D01*
X-2622718Y+7246970D01*
X-2643537Y+7241186D01*
X-2664356Y+7239028D01*
X-2667000Y+7239000D01*
X-2603500Y+7366000D02*
X-2603717Y+7371247D01*
X-2605482Y+7381742D01*
X-2609174Y+7392237D01*
X-2615202Y+7402732D01*
X-2624424Y+7413112D01*
X-2634919Y+7420800D01*
X-2645414Y+7425718D01*
X-2655909Y+7428524D01*
X-2666404Y+7429497D01*
X-2667000Y+7429500D01*
X-2730500Y+7366000D02*
X-2730283Y+7371247D01*
X-2728518Y+7381742D01*
X-2724826Y+7392237D01*
X-2718798Y+7402732D01*
X-2709576Y+7413112D01*
X-2699081Y+7420800D01*
X-2688586Y+7425718D01*
X-2678091Y+7428524D01*
X-2667596Y+7429497D01*
X-2667000Y+7429500D01*
X-2730500Y+7366000D02*
X-2730283Y+7360753D01*
X-2728518Y+7350258D01*
X-2724826Y+7339763D01*
X-2718798Y+7329268D01*
X-2709576Y+7318888D01*
X-2699081Y+7311200D01*
X-2688586Y+7306282D01*
X-2678091Y+7303476D01*
X-2667596Y+7302503D01*
X-2667000Y+7302500D01*
X-2603500Y+7366000D02*
X-2603717Y+7360753D01*
X-2605482Y+7350258D01*
X-2609174Y+7339763D01*
X-2615202Y+7329268D01*
X-2624424Y+7318888D01*
X-2634919Y+7311200D01*
X-2645414Y+7306282D01*
X-2655909Y+7303476D01*
X-2666404Y+7302503D01*
X-2667000Y+7302500D01*
X-2926080Y+7397750D02*
X-2926080Y+7318375D01*
X-2895600Y+7318375D01*
X-2895600Y+7381875D01*
X-2880360Y+7397750D01*
X-2849880Y+7397750D01*
X-2834640Y+7381875D01*
X-2834640Y+7334250D01*
X-2849880Y+7318375D01*
X+2032000Y+6604000D02*
X+2031573Y+6614409D01*
X+2028101Y+6635228D01*
X+2020845Y+6656047D01*
X+2009017Y+6676866D01*
X+1990920Y+6697524D01*
X+1970101Y+6713045D01*
X+1949282Y+6723030D01*
X+1928463Y+6728814D01*
X+1907644Y+6730972D01*
X+1905000Y+6731000D01*
X+1778000Y+6604000D02*
X+1778427Y+6614409D01*
X+1781899Y+6635228D01*
X+1789155Y+6656047D01*
X+1800983Y+6676866D01*
X+1819080Y+6697524D01*
X+1839899Y+6713045D01*
X+1860718Y+6723030D01*
X+1881537Y+6728814D01*
X+1902356Y+6730972D01*
X+1905000Y+6731000D01*
X+1778000Y+6604000D02*
X+1778427Y+6593591D01*
X+1781899Y+6572772D01*
X+1789155Y+6551953D01*
X+1800983Y+6531134D01*
X+1819080Y+6510476D01*
X+1839899Y+6494955D01*
X+1860718Y+6484970D01*
X+1881537Y+6479186D01*
X+1902356Y+6477028D01*
X+1905000Y+6477000D01*
X+2032000Y+6604000D02*
X+2031573Y+6593591D01*
X+2028101Y+6572772D01*
X+2020845Y+6551953D01*
X+2009017Y+6531134D01*
X+1990920Y+6510476D01*
X+1970101Y+6494955D01*
X+1949282Y+6484970D01*
X+1928463Y+6479186D01*
X+1907644Y+6477028D01*
X+1905000Y+6477000D01*
X+1968500Y+6604000D02*
X+1968283Y+6609247D01*
X+1966518Y+6619742D01*
X+1962826Y+6630237D01*
X+1956798Y+6640732D01*
X+1947576Y+6651112D01*
X+1937081Y+6658800D01*
X+1926586Y+6663718D01*
X+1916091Y+6666524D01*
X+1905596Y+6667497D01*
X+1905000Y+6667500D01*
X+1841500Y+6604000D02*
X+1841717Y+6609247D01*
X+1843482Y+6619742D01*
X+1847174Y+6630237D01*
X+1853202Y+6640732D01*
X+1862424Y+6651112D01*
X+1872919Y+6658800D01*
X+1883414Y+6663718D01*
X+1893909Y+6666524D01*
X+1904404Y+6667497D01*
X+1905000Y+6667500D01*
X+1841500Y+6604000D02*
X+1841717Y+6598753D01*
X+1843482Y+6588258D01*
X+1847174Y+6577763D01*
X+1853202Y+6567268D01*
X+1862424Y+6556888D01*
X+1872919Y+6549200D01*
X+1883414Y+6544282D01*
X+1893909Y+6541476D01*
X+1904404Y+6540503D01*
X+1905000Y+6540500D01*
X+1968500Y+6604000D02*
X+1968283Y+6598753D01*
X+1966518Y+6588258D01*
X+1962826Y+6577763D01*
X+1956798Y+6567268D01*
X+1947576Y+6556888D01*
X+1937081Y+6549200D01*
X+1926586Y+6544282D01*
X+1916091Y+6541476D01*
X+1905596Y+6540503D01*
X+1905000Y+6540500D01*
X+1397000Y+6517640D02*
X+1397000Y+6609080D01*
X+1476375Y+6609080D01*
X+1492250Y+6593840D01*
X+1492250Y+6578600D01*
X+1476375Y+6563360D01*
X+1492250Y+6548120D01*
X+1492250Y+6532880D01*
X+1476375Y+6517640D01*
X+1397000Y+6517640D01*
X+1397000Y+6563360D02*
X+1476375Y+6563360D01*
X+1524000Y+6563360D02*
X+1619250Y+6563360D01*
X+1571625Y+6593840D02*
X+1571625Y+6532880D01*
X+2032000Y+6858000D02*
X+2031573Y+6868409D01*
X+2028101Y+6889228D01*
X+2020845Y+6910047D01*
X+2009017Y+6930866D01*
X+1990920Y+6951524D01*
X+1970101Y+6967045D01*
X+1949282Y+6977030D01*
X+1928463Y+6982814D01*
X+1907644Y+6984972D01*
X+1905000Y+6985000D01*
X+1778000Y+6858000D02*
X+1778427Y+6868409D01*
X+1781899Y+6889228D01*
X+1789155Y+6910047D01*
X+1800983Y+6930866D01*
X+1819080Y+6951524D01*
X+1839899Y+6967045D01*
X+1860718Y+6977030D01*
X+1881537Y+6982814D01*
X+1902356Y+6984972D01*
X+1905000Y+6985000D01*
X+1778000Y+6858000D02*
X+1778427Y+6847591D01*
X+1781899Y+6826772D01*
X+1789155Y+6805953D01*
X+1800983Y+6785134D01*
X+1819080Y+6764476D01*
X+1839899Y+6748955D01*
X+1860718Y+6738970D01*
X+1881537Y+6733186D01*
X+1902356Y+6731028D01*
X+1905000Y+6731000D01*
X+2032000Y+6858000D02*
X+2031573Y+6847591D01*
X+2028101Y+6826772D01*
X+2020845Y+6805953D01*
X+2009017Y+6785134D01*
X+1990920Y+6764476D01*
X+1970101Y+6748955D01*
X+1949282Y+6738970D01*
X+1928463Y+6733186D01*
X+1907644Y+6731028D01*
X+1905000Y+6731000D01*
X+1968500Y+6858000D02*
X+1968283Y+6863247D01*
X+1966518Y+6873742D01*
X+1962826Y+6884237D01*
X+1956798Y+6894732D01*
X+1947576Y+6905112D01*
X+1937081Y+6912800D01*
X+1926586Y+6917718D01*
X+1916091Y+6920524D01*
X+1905596Y+6921497D01*
X+1905000Y+6921500D01*
X+1841500Y+6858000D02*
X+1841717Y+6863247D01*
X+1843482Y+6873742D01*
X+1847174Y+6884237D01*
X+1853202Y+6894732D01*
X+1862424Y+6905112D01*
X+1872919Y+6912800D01*
X+1883414Y+6917718D01*
X+1893909Y+6920524D01*
X+1904404Y+6921497D01*
X+1905000Y+6921500D01*
X+1841500Y+6858000D02*
X+1841717Y+6852753D01*
X+1843482Y+6842258D01*
X+1847174Y+6831763D01*
X+1853202Y+6821268D01*
X+1862424Y+6810888D01*
X+1872919Y+6803200D01*
X+1883414Y+6798282D01*
X+1893909Y+6795476D01*
X+1904404Y+6794503D01*
X+1905000Y+6794500D01*
X+1968500Y+6858000D02*
X+1968283Y+6852753D01*
X+1966518Y+6842258D01*
X+1962826Y+6831763D01*
X+1956798Y+6821268D01*
X+1947576Y+6810888D01*
X+1937081Y+6803200D01*
X+1926586Y+6798282D01*
X+1916091Y+6795476D01*
X+1905596Y+6794503D01*
X+1905000Y+6794500D01*
X+1397000Y+6771640D02*
X+1397000Y+6863080D01*
X+1476375Y+6863080D01*
X+1492250Y+6847840D01*
X+1492250Y+6832600D01*
X+1476375Y+6817360D01*
X+1492250Y+6802120D01*
X+1492250Y+6786880D01*
X+1476375Y+6771640D01*
X+1397000Y+6771640D01*
X+1397000Y+6817360D02*
X+1476375Y+6817360D01*
X+1539875Y+6817360D02*
X+1619250Y+6817360D01*
X+2032000Y+7366000D02*
X+2031573Y+7376409D01*
X+2028101Y+7397228D01*
X+2020845Y+7418047D01*
X+2009017Y+7438866D01*
X+1990920Y+7459524D01*
X+1970101Y+7475045D01*
X+1949282Y+7485030D01*
X+1928463Y+7490814D01*
X+1907644Y+7492972D01*
X+1905000Y+7493000D01*
X+1778000Y+7366000D02*
X+1778427Y+7376409D01*
X+1781899Y+7397228D01*
X+1789155Y+7418047D01*
X+1800983Y+7438866D01*
X+1819080Y+7459524D01*
X+1839899Y+7475045D01*
X+1860718Y+7485030D01*
X+1881537Y+7490814D01*
X+1902356Y+7492972D01*
X+1905000Y+7493000D01*
X+1778000Y+7366000D02*
X+1778427Y+7355591D01*
X+1781899Y+7334772D01*
X+1789155Y+7313953D01*
X+1800983Y+7293134D01*
X+1819080Y+7272476D01*
X+1839899Y+7256955D01*
X+1860718Y+7246970D01*
X+1881537Y+7241186D01*
X+1902356Y+7239028D01*
X+1905000Y+7239000D01*
X+2032000Y+7366000D02*
X+2031573Y+7355591D01*
X+2028101Y+7334772D01*
X+2020845Y+7313953D01*
X+2009017Y+7293134D01*
X+1990920Y+7272476D01*
X+1970101Y+7256955D01*
X+1949282Y+7246970D01*
X+1928463Y+7241186D01*
X+1907644Y+7239028D01*
X+1905000Y+7239000D01*
X+1968500Y+7366000D02*
X+1968283Y+7371247D01*
X+1966518Y+7381742D01*
X+1962826Y+7392237D01*
X+1956798Y+7402732D01*
X+1947576Y+7413112D01*
X+1937081Y+7420800D01*
X+1926586Y+7425718D01*
X+1916091Y+7428524D01*
X+1905596Y+7429497D01*
X+1905000Y+7429500D01*
X+1841500Y+7366000D02*
X+1841717Y+7371247D01*
X+1843482Y+7381742D01*
X+1847174Y+7392237D01*
X+1853202Y+7402732D01*
X+1862424Y+7413112D01*
X+1872919Y+7420800D01*
X+1883414Y+7425718D01*
X+1893909Y+7428524D01*
X+1904404Y+7429497D01*
X+1905000Y+7429500D01*
X+1841500Y+7366000D02*
X+1841717Y+7360753D01*
X+1843482Y+7350258D01*
X+1847174Y+7339763D01*
X+1853202Y+7329268D01*
X+1862424Y+7318888D01*
X+1872919Y+7311200D01*
X+1883414Y+7306282D01*
X+1893909Y+7303476D01*
X+1904404Y+7302503D01*
X+1905000Y+7302500D01*
X+1968500Y+7366000D02*
X+1968283Y+7360753D01*
X+1966518Y+7350258D01*
X+1962826Y+7339763D01*
X+1956798Y+7329268D01*
X+1947576Y+7318888D01*
X+1937081Y+7311200D01*
X+1926586Y+7306282D01*
X+1916091Y+7303476D01*
X+1905596Y+7302503D01*
X+1905000Y+7302500D01*
X+1397000Y+7279640D02*
X+1397000Y+7371080D01*
X+1476375Y+7371080D01*
X+1492250Y+7355840D01*
X+1492250Y+7340600D01*
X+1476375Y+7325360D01*
X+1397000Y+7325360D01*
X+1476375Y+7325360D02*
X+1492250Y+7310120D01*
X+1492250Y+7279640D01*
X+1524000Y+7371080D02*
X+1619250Y+7279640D01*
X+1524000Y+7279640D02*
X+1619250Y+7371080D01*
X+2032000Y+7112000D02*
X+2031573Y+7122409D01*
X+2028101Y+7143228D01*
X+2020845Y+7164047D01*
X+2009017Y+7184866D01*
X+1990920Y+7205524D01*
X+1970101Y+7221045D01*
X+1949282Y+7231030D01*
X+1928463Y+7236814D01*
X+1907644Y+7238972D01*
X+1905000Y+7239000D01*
X+1778000Y+7112000D02*
X+1778427Y+7122409D01*
X+1781899Y+7143228D01*
X+1789155Y+7164047D01*
X+1800983Y+7184866D01*
X+1819080Y+7205524D01*
X+1839899Y+7221045D01*
X+1860718Y+7231030D01*
X+1881537Y+7236814D01*
X+1902356Y+7238972D01*
X+1905000Y+7239000D01*
X+1778000Y+7112000D02*
X+1778427Y+7101591D01*
X+1781899Y+7080772D01*
X+1789155Y+7059953D01*
X+1800983Y+7039134D01*
X+1819080Y+7018476D01*
X+1839899Y+7002955D01*
X+1860718Y+6992970D01*
X+1881537Y+6987186D01*
X+1902356Y+6985028D01*
X+1905000Y+6985000D01*
X+2032000Y+7112000D02*
X+2031573Y+7101591D01*
X+2028101Y+7080772D01*
X+2020845Y+7059953D01*
X+2009017Y+7039134D01*
X+1990920Y+7018476D01*
X+1970101Y+7002955D01*
X+1949282Y+6992970D01*
X+1928463Y+6987186D01*
X+1907644Y+6985028D01*
X+1905000Y+6985000D01*
X+1968500Y+7112000D02*
X+1968283Y+7117247D01*
X+1966518Y+7127742D01*
X+1962826Y+7138237D01*
X+1956798Y+7148732D01*
X+1947576Y+7159112D01*
X+1937081Y+7166800D01*
X+1926586Y+7171718D01*
X+1916091Y+7174524D01*
X+1905596Y+7175497D01*
X+1905000Y+7175500D01*
X+1841500Y+7112000D02*
X+1841717Y+7117247D01*
X+1843482Y+7127742D01*
X+1847174Y+7138237D01*
X+1853202Y+7148732D01*
X+1862424Y+7159112D01*
X+1872919Y+7166800D01*
X+1883414Y+7171718D01*
X+1893909Y+7174524D01*
X+1904404Y+7175497D01*
X+1905000Y+7175500D01*
X+1841500Y+7112000D02*
X+1841717Y+7106753D01*
X+1843482Y+7096258D01*
X+1847174Y+7085763D01*
X+1853202Y+7075268D01*
X+1862424Y+7064888D01*
X+1872919Y+7057200D01*
X+1883414Y+7052282D01*
X+1893909Y+7049476D01*
X+1904404Y+7048503D01*
X+1905000Y+7048500D01*
X+1968500Y+7112000D02*
X+1968283Y+7106753D01*
X+1966518Y+7096258D01*
X+1962826Y+7085763D01*
X+1956798Y+7075268D01*
X+1947576Y+7064888D01*
X+1937081Y+7057200D01*
X+1926586Y+7052282D01*
X+1916091Y+7049476D01*
X+1905596Y+7048503D01*
X+1905000Y+7048500D01*
X+1397000Y+7117080D02*
X+1492250Y+7117080D01*
X+1444625Y+7117080D02*
X+1444625Y+7025640D01*
X+1524000Y+7117080D02*
X+1619250Y+7025640D01*
X+1524000Y+7025640D02*
X+1619250Y+7117080D01*
X-254000Y+6223000D02*
X+508000Y+6223000D01*
X+635000Y+6096000D01*
X+635000Y+5842000D01*
X+508000Y+5715000D01*
X-254000Y+5715000D01*
X-381000Y+5842000D01*
X-381000Y+6096000D01*
X-254000Y+6223000D01*
X+0Y+5847080D02*
X+95250Y+5755640D01*
X+0Y+5755640D02*
X+95250Y+5847080D01*
X+158750Y+5816600D02*
X+190500Y+5847080D01*
X+190500Y+5755640D01*
X-2093500Y+6477000D02*
X+1335500Y+6477000D01*
X+1335500Y+6985000D01*
X-2093500Y+6985000D01*
X-2093500Y+6477000D02*
X-2093500Y+6604000D01*
X-2093500Y+6985000D02*
X-2093500Y+6858000D01*
X-2093500Y+6604000D02*
X-2067532Y+6606527D01*
X-2043518Y+6613798D01*
X-2021923Y+6625348D01*
X-2003211Y+6640711D01*
X-1987848Y+6659423D01*
X-1976298Y+6681019D01*
X-1969027Y+6705033D01*
X-1966500Y+6731000D01*
X-2093500Y+6858000D02*
X-2067532Y+6855473D01*
X-2043518Y+6848202D01*
X-2021923Y+6836653D01*
X-2003211Y+6821289D01*
X-1987848Y+6802577D01*
X-1976298Y+6780982D01*
X-1969027Y+6756968D01*
X-1966500Y+6731000D01*
X-2035516Y+6517640D02*
X-2035541Y+6518237D01*
X-2035743Y+6519433D01*
X-2036167Y+6520629D01*
X-2036861Y+6521825D01*
X-2037921Y+6523004D01*
X-2039117Y+6523867D01*
X-2040313Y+6524416D01*
X-2041509Y+6524725D01*
X-2042700Y+6524824D01*
X-2049884Y+6517640D02*
X-2049859Y+6518237D01*
X-2049657Y+6519433D01*
X-2049233Y+6520629D01*
X-2048539Y+6521825D01*
X-2047479Y+6523004D01*
X-2046283Y+6523867D01*
X-2045087Y+6524416D01*
X-2043891Y+6524725D01*
X-2042700Y+6524824D01*
X-2049884Y+6517640D02*
X-2049859Y+6517043D01*
X-2049657Y+6515847D01*
X-2049233Y+6514651D01*
X-2048539Y+6513455D01*
X-2047479Y+6512276D01*
X-2046283Y+6511413D01*
X-2045087Y+6510864D01*
X-2043891Y+6510555D01*
X-2042700Y+6510456D01*
X-2035516Y+6517640D02*
X-2035541Y+6517043D01*
X-2035743Y+6515847D01*
X-2036167Y+6514651D01*
X-2036861Y+6513455D01*
X-2037921Y+6512276D01*
X-2039117Y+6511413D01*
X-2040313Y+6510864D01*
X-2041509Y+6510555D01*
X-2042700Y+6510456D01*
X-2225580Y+6604000D02*
X-2149380Y+6604000D01*
X-2134140Y+6619875D01*
X-2134140Y+6683375D01*
X-2149380Y+6699250D01*
X-2225580Y+6699250D01*
X-2210340Y+6746875D02*
X-2225580Y+6762750D01*
X-2225580Y+6810375D01*
X-2210340Y+6826250D01*
X-2195100Y+6826250D01*
X-2179860Y+6810375D01*
X-2179860Y+6762750D01*
X-2164620Y+6746875D01*
X-2134140Y+6746875D01*
X-2134140Y+6826250D01*
X-1651000Y+5207000D02*
X-1651427Y+5217409D01*
X-1654899Y+5238228D01*
X-1662155Y+5259047D01*
X-1673983Y+5279866D01*
X-1692080Y+5300524D01*
X-1712899Y+5316045D01*
X-1733718Y+5326030D01*
X-1754537Y+5331814D01*
X-1775356Y+5333972D01*
X-1778000Y+5334000D01*
X-1905000Y+5207000D02*
X-1904573Y+5217409D01*
X-1901101Y+5238228D01*
X-1893845Y+5259047D01*
X-1882017Y+5279866D01*
X-1863920Y+5300524D01*
X-1843101Y+5316045D01*
X-1822282Y+5326030D01*
X-1801463Y+5331814D01*
X-1780644Y+5333972D01*
X-1778000Y+5334000D01*
X-1905000Y+5207000D02*
X-1904573Y+5196591D01*
X-1901101Y+5175772D01*
X-1893845Y+5154953D01*
X-1882017Y+5134134D01*
X-1863920Y+5113476D01*
X-1843101Y+5097955D01*
X-1822282Y+5087970D01*
X-1801463Y+5082186D01*
X-1780644Y+5080028D01*
X-1778000Y+5080000D01*
X-1651000Y+5207000D02*
X-1651427Y+5196591D01*
X-1654899Y+5175772D01*
X-1662155Y+5154953D01*
X-1673983Y+5134134D01*
X-1692080Y+5113476D01*
X-1712899Y+5097955D01*
X-1733718Y+5087970D01*
X-1754537Y+5082186D01*
X-1775356Y+5080028D01*
X-1778000Y+5080000D01*
X-1714500Y+5207000D02*
X-1714717Y+5212247D01*
X-1716482Y+5222742D01*
X-1720174Y+5233237D01*
X-1726202Y+5243732D01*
X-1735424Y+5254112D01*
X-1745919Y+5261800D01*
X-1756414Y+5266718D01*
X-1766909Y+5269524D01*
X-1777404Y+5270497D01*
X-1778000Y+5270500D01*
X-1841500Y+5207000D02*
X-1841283Y+5212247D01*
X-1839518Y+5222742D01*
X-1835826Y+5233237D01*
X-1829798Y+5243732D01*
X-1820576Y+5254112D01*
X-1810081Y+5261800D01*
X-1799586Y+5266718D01*
X-1789091Y+5269524D01*
X-1778596Y+5270497D01*
X-1778000Y+5270500D01*
X-1841500Y+5207000D02*
X-1841283Y+5201753D01*
X-1839518Y+5191258D01*
X-1835826Y+5180763D01*
X-1829798Y+5170268D01*
X-1820576Y+5159888D01*
X-1810081Y+5152200D01*
X-1799586Y+5147282D01*
X-1789091Y+5144476D01*
X-1778596Y+5143503D01*
X-1778000Y+5143500D01*
X-1714500Y+5207000D02*
X-1714717Y+5201753D01*
X-1716482Y+5191258D01*
X-1720174Y+5180763D01*
X-1726202Y+5170268D01*
X-1735424Y+5159888D01*
X-1745919Y+5152200D01*
X-1756414Y+5147282D01*
X-1766909Y+5144476D01*
X-1777404Y+5143503D01*
X-1778000Y+5143500D01*
X-1910080Y+4254500D02*
X-1864360Y+4254500D01*
X-1818640Y+4302125D01*
X-1864360Y+4349750D01*
X-1910080Y+4349750D01*
X-1818640Y+4381500D02*
X-1910080Y+4381500D01*
X-1864360Y+4429125D01*
X-1910080Y+4476750D01*
X-1818640Y+4476750D01*
X-1879600Y+4508500D02*
X-1910080Y+4540250D01*
X-1910080Y+4572000D01*
X-1879600Y+4603750D01*
X-1849120Y+4603750D01*
X-1818640Y+4572000D01*
X-1818640Y+4540250D01*
X-1849120Y+4508500D01*
X-1879600Y+4508500D01*
X-1818640Y+4635500D02*
X-1910080Y+4635500D01*
X-1818640Y+4730750D01*
X-1910080Y+4730750D01*
X-1879600Y+4794250D02*
X-1910080Y+4826000D01*
X-1818640Y+4826000D01*
X-1397000Y+5207000D02*
X-1397427Y+5217409D01*
X-1400899Y+5238228D01*
X-1408155Y+5259047D01*
X-1419983Y+5279866D01*
X-1438080Y+5300524D01*
X-1458899Y+5316045D01*
X-1479718Y+5326030D01*
X-1500537Y+5331814D01*
X-1521356Y+5333972D01*
X-1524000Y+5334000D01*
X-1651000Y+5207000D02*
X-1650573Y+5217409D01*
X-1647101Y+5238228D01*
X-1639845Y+5259047D01*
X-1628017Y+5279866D01*
X-1609920Y+5300524D01*
X-1589101Y+5316045D01*
X-1568282Y+5326030D01*
X-1547463Y+5331814D01*
X-1526644Y+5333972D01*
X-1524000Y+5334000D01*
X-1651000Y+5207000D02*
X-1650573Y+5196591D01*
X-1647101Y+5175772D01*
X-1639845Y+5154953D01*
X-1628017Y+5134134D01*
X-1609920Y+5113476D01*
X-1589101Y+5097955D01*
X-1568282Y+5087970D01*
X-1547463Y+5082186D01*
X-1526644Y+5080028D01*
X-1524000Y+5080000D01*
X-1397000Y+5207000D02*
X-1397427Y+5196591D01*
X-1400899Y+5175772D01*
X-1408155Y+5154953D01*
X-1419983Y+5134134D01*
X-1438080Y+5113476D01*
X-1458899Y+5097955D01*
X-1479718Y+5087970D01*
X-1500537Y+5082186D01*
X-1521356Y+5080028D01*
X-1524000Y+5080000D01*
X-1460500Y+5207000D02*
X-1460717Y+5212247D01*
X-1462482Y+5222742D01*
X-1466174Y+5233237D01*
X-1472202Y+5243732D01*
X-1481424Y+5254112D01*
X-1491919Y+5261800D01*
X-1502414Y+5266718D01*
X-1512909Y+5269524D01*
X-1523404Y+5270497D01*
X-1524000Y+5270500D01*
X-1587500Y+5207000D02*
X-1587283Y+5212247D01*
X-1585518Y+5222742D01*
X-1581826Y+5233237D01*
X-1575798Y+5243732D01*
X-1566576Y+5254112D01*
X-1556081Y+5261800D01*
X-1545586Y+5266718D01*
X-1535091Y+5269524D01*
X-1524596Y+5270497D01*
X-1524000Y+5270500D01*
X-1587500Y+5207000D02*
X-1587283Y+5201753D01*
X-1585518Y+5191258D01*
X-1581826Y+5180763D01*
X-1575798Y+5170268D01*
X-1566576Y+5159888D01*
X-1556081Y+5152200D01*
X-1545586Y+5147282D01*
X-1535091Y+5144476D01*
X-1524596Y+5143503D01*
X-1524000Y+5143500D01*
X-1460500Y+5207000D02*
X-1460717Y+5201753D01*
X-1462482Y+5191258D01*
X-1466174Y+5180763D01*
X-1472202Y+5170268D01*
X-1481424Y+5159888D01*
X-1491919Y+5152200D01*
X-1502414Y+5147282D01*
X-1512909Y+5144476D01*
X-1523404Y+5143503D01*
X-1524000Y+5143500D01*
X-1656080Y+4254500D02*
X-1610360Y+4254500D01*
X-1564640Y+4302125D01*
X-1610360Y+4349750D01*
X-1656080Y+4349750D01*
X-1564640Y+4381500D02*
X-1656080Y+4381500D01*
X-1610360Y+4429125D01*
X-1656080Y+4476750D01*
X-1564640Y+4476750D01*
X-1625600Y+4508500D02*
X-1656080Y+4540250D01*
X-1656080Y+4572000D01*
X-1625600Y+4603750D01*
X-1595120Y+4603750D01*
X-1564640Y+4572000D01*
X-1564640Y+4540250D01*
X-1595120Y+4508500D01*
X-1625600Y+4508500D01*
X-1564640Y+4635500D02*
X-1656080Y+4635500D01*
X-1564640Y+4730750D01*
X-1656080Y+4730750D01*
X-1640840Y+4778375D02*
X-1656080Y+4794250D01*
X-1656080Y+4841875D01*
X-1640840Y+4857750D01*
X-1625600Y+4857750D01*
X-1610360Y+4841875D01*
X-1610360Y+4794250D01*
X-1595120Y+4778375D01*
X-1564640Y+4778375D01*
X-1564640Y+4857750D01*
X-1143000Y+5207000D02*
X-1143427Y+5217409D01*
X-1146899Y+5238228D01*
X-1154155Y+5259047D01*
X-1165983Y+5279866D01*
X-1184080Y+5300524D01*
X-1204899Y+5316045D01*
X-1225718Y+5326030D01*
X-1246537Y+5331814D01*
X-1267356Y+5333972D01*
X-1270000Y+5334000D01*
X-1397000Y+5207000D02*
X-1396573Y+5217409D01*
X-1393101Y+5238228D01*
X-1385845Y+5259047D01*
X-1374017Y+5279866D01*
X-1355920Y+5300524D01*
X-1335101Y+5316045D01*
X-1314282Y+5326030D01*
X-1293463Y+5331814D01*
X-1272644Y+5333972D01*
X-1270000Y+5334000D01*
X-1397000Y+5207000D02*
X-1396573Y+5196591D01*
X-1393101Y+5175772D01*
X-1385845Y+5154953D01*
X-1374017Y+5134134D01*
X-1355920Y+5113476D01*
X-1335101Y+5097955D01*
X-1314282Y+5087970D01*
X-1293463Y+5082186D01*
X-1272644Y+5080028D01*
X-1270000Y+5080000D01*
X-1143000Y+5207000D02*
X-1143427Y+5196591D01*
X-1146899Y+5175772D01*
X-1154155Y+5154953D01*
X-1165983Y+5134134D01*
X-1184080Y+5113476D01*
X-1204899Y+5097955D01*
X-1225718Y+5087970D01*
X-1246537Y+5082186D01*
X-1267356Y+5080028D01*
X-1270000Y+5080000D01*
X-1206500Y+5207000D02*
X-1206717Y+5212247D01*
X-1208482Y+5222742D01*
X-1212174Y+5233237D01*
X-1218202Y+5243732D01*
X-1227424Y+5254112D01*
X-1237919Y+5261800D01*
X-1248414Y+5266718D01*
X-1258909Y+5269524D01*
X-1269404Y+5270497D01*
X-1270000Y+5270500D01*
X-1333500Y+5207000D02*
X-1333283Y+5212247D01*
X-1331518Y+5222742D01*
X-1327826Y+5233237D01*
X-1321798Y+5243732D01*
X-1312576Y+5254112D01*
X-1302081Y+5261800D01*
X-1291586Y+5266718D01*
X-1281091Y+5269524D01*
X-1270596Y+5270497D01*
X-1270000Y+5270500D01*
X-1333500Y+5207000D02*
X-1333283Y+5201753D01*
X-1331518Y+5191258D01*
X-1327826Y+5180763D01*
X-1321798Y+5170268D01*
X-1312576Y+5159888D01*
X-1302081Y+5152200D01*
X-1291586Y+5147282D01*
X-1281091Y+5144476D01*
X-1270596Y+5143503D01*
X-1270000Y+5143500D01*
X-1206500Y+5207000D02*
X-1206717Y+5201753D01*
X-1208482Y+5191258D01*
X-1212174Y+5180763D01*
X-1218202Y+5170268D01*
X-1227424Y+5159888D01*
X-1237919Y+5152200D01*
X-1248414Y+5147282D01*
X-1258909Y+5144476D01*
X-1269404Y+5143503D01*
X-1270000Y+5143500D01*
X-1402080Y+4254500D02*
X-1356360Y+4254500D01*
X-1310640Y+4302125D01*
X-1356360Y+4349750D01*
X-1402080Y+4349750D01*
X-1310640Y+4381500D02*
X-1402080Y+4381500D01*
X-1356360Y+4429125D01*
X-1402080Y+4476750D01*
X-1310640Y+4476750D01*
X-1371600Y+4508500D02*
X-1402080Y+4540250D01*
X-1402080Y+4572000D01*
X-1371600Y+4603750D01*
X-1341120Y+4603750D01*
X-1310640Y+4572000D01*
X-1310640Y+4540250D01*
X-1341120Y+4508500D01*
X-1371600Y+4508500D01*
X-1310640Y+4635500D02*
X-1402080Y+4635500D01*
X-1310640Y+4730750D01*
X-1402080Y+4730750D01*
X-1386840Y+4778375D02*
X-1402080Y+4794250D01*
X-1402080Y+4841875D01*
X-1386840Y+4857750D01*
X-1371600Y+4857750D01*
X-1356360Y+4841875D01*
X-1341120Y+4857750D01*
X-1325880Y+4857750D01*
X-1310640Y+4841875D01*
X-1310640Y+4794250D01*
X-1325880Y+4778375D01*
X-1356360Y+4810125D02*
X-1356360Y+4841875D01*
X+2032000Y+7874000D02*
X+2031573Y+7884409D01*
X+2028101Y+7905228D01*
X+2020845Y+7926047D01*
X+2009017Y+7946866D01*
X+1990920Y+7967524D01*
X+1970101Y+7983045D01*
X+1949282Y+7993030D01*
X+1928463Y+7998814D01*
X+1907644Y+8000972D01*
X+1905000Y+8001000D01*
X+1778000Y+7874000D02*
X+1778427Y+7884409D01*
X+1781899Y+7905228D01*
X+1789155Y+7926047D01*
X+1800983Y+7946866D01*
X+1819080Y+7967524D01*
X+1839899Y+7983045D01*
X+1860718Y+7993030D01*
X+1881537Y+7998814D01*
X+1902356Y+8000972D01*
X+1905000Y+8001000D01*
X+1778000Y+7874000D02*
X+1778427Y+7863591D01*
X+1781899Y+7842772D01*
X+1789155Y+7821953D01*
X+1800983Y+7801134D01*
X+1819080Y+7780476D01*
X+1839899Y+7764955D01*
X+1860718Y+7754970D01*
X+1881537Y+7749186D01*
X+1902356Y+7747028D01*
X+1905000Y+7747000D01*
X+2032000Y+7874000D02*
X+2031573Y+7863591D01*
X+2028101Y+7842772D01*
X+2020845Y+7821953D01*
X+2009017Y+7801134D01*
X+1990920Y+7780476D01*
X+1970101Y+7764955D01*
X+1949282Y+7754970D01*
X+1928463Y+7749186D01*
X+1907644Y+7747028D01*
X+1905000Y+7747000D01*
X+1968500Y+7874000D02*
X+1968283Y+7879247D01*
X+1966518Y+7889742D01*
X+1962826Y+7900237D01*
X+1956798Y+7910732D01*
X+1947576Y+7921112D01*
X+1937081Y+7928800D01*
X+1926586Y+7933718D01*
X+1916091Y+7936524D01*
X+1905596Y+7937497D01*
X+1905000Y+7937500D01*
X+1841500Y+7874000D02*
X+1841717Y+7879247D01*
X+1843482Y+7889742D01*
X+1847174Y+7900237D01*
X+1853202Y+7910732D01*
X+1862424Y+7921112D01*
X+1872919Y+7928800D01*
X+1883414Y+7933718D01*
X+1893909Y+7936524D01*
X+1904404Y+7937497D01*
X+1905000Y+7937500D01*
X+1841500Y+7874000D02*
X+1841717Y+7868753D01*
X+1843482Y+7858258D01*
X+1847174Y+7847763D01*
X+1853202Y+7837268D01*
X+1862424Y+7826888D01*
X+1872919Y+7819200D01*
X+1883414Y+7814282D01*
X+1893909Y+7811476D01*
X+1904404Y+7810503D01*
X+1905000Y+7810500D01*
X+1968500Y+7874000D02*
X+1968283Y+7868753D01*
X+1966518Y+7858258D01*
X+1962826Y+7847763D01*
X+1956798Y+7837268D01*
X+1947576Y+7826888D01*
X+1937081Y+7819200D01*
X+1926586Y+7814282D01*
X+1916091Y+7811476D01*
X+1905596Y+7810503D01*
X+1905000Y+7810500D01*
X+1849120Y+6921500D02*
X+1864360Y+6937375D01*
X+1864360Y+7000875D01*
X+1849120Y+7016750D01*
X+1833880Y+7016750D01*
X+1818640Y+7000875D01*
X+1818640Y+6937375D01*
X+1803400Y+6921500D01*
X+1788160Y+6921500D01*
X+1772920Y+6937375D01*
X+1772920Y+7000875D01*
X+1788160Y+7016750D01*
X+1864360Y+7048500D02*
X+1772920Y+7048500D01*
X+1772920Y+7127875D01*
X+1788160Y+7143750D01*
X+1803400Y+7143750D01*
X+1818640Y+7127875D01*
X+1818640Y+7048500D01*
X+1864360Y+7270750D02*
X+1864360Y+7175500D01*
X+1772920Y+7175500D01*
X+1772920Y+7270750D01*
X+1818640Y+7175500D02*
X+1818640Y+7239000D01*
X+1864360Y+7397750D02*
X+1864360Y+7302500D01*
X+1772920Y+7302500D01*
X+1772920Y+7397750D01*
X+1818640Y+7302500D02*
X+1818640Y+7366000D01*
X+1864360Y+7429500D02*
X+1772920Y+7429500D01*
X+1772920Y+7493000D01*
X+1803400Y+7524750D01*
X+1833880Y+7524750D01*
X+1864360Y+7493000D01*
X+1864360Y+7429500D01*
X-1905000Y+5207000D02*
X-1905427Y+5217409D01*
X-1908899Y+5238228D01*
X-1916155Y+5259047D01*
X-1927983Y+5279866D01*
X-1946080Y+5300524D01*
X-1966899Y+5316045D01*
X-1987718Y+5326030D01*
X-2008537Y+5331814D01*
X-2029356Y+5333972D01*
X-2032000Y+5334000D01*
X-2159000Y+5207000D02*
X-2158573Y+5217409D01*
X-2155101Y+5238228D01*
X-2147845Y+5259047D01*
X-2136017Y+5279866D01*
X-2117920Y+5300524D01*
X-2097101Y+5316045D01*
X-2076282Y+5326030D01*
X-2055463Y+5331814D01*
X-2034644Y+5333972D01*
X-2032000Y+5334000D01*
X-2159000Y+5207000D02*
X-2158573Y+5196591D01*
X-2155101Y+5175772D01*
X-2147845Y+5154953D01*
X-2136017Y+5134134D01*
X-2117920Y+5113476D01*
X-2097101Y+5097955D01*
X-2076282Y+5087970D01*
X-2055463Y+5082186D01*
X-2034644Y+5080028D01*
X-2032000Y+5080000D01*
X-1905000Y+5207000D02*
X-1905427Y+5196591D01*
X-1908899Y+5175772D01*
X-1916155Y+5154953D01*
X-1927983Y+5134134D01*
X-1946080Y+5113476D01*
X-1966899Y+5097955D01*
X-1987718Y+5087970D01*
X-2008537Y+5082186D01*
X-2029356Y+5080028D01*
X-2032000Y+5080000D01*
X-1968500Y+5207000D02*
X-1968717Y+5212247D01*
X-1970482Y+5222742D01*
X-1974174Y+5233237D01*
X-1980202Y+5243732D01*
X-1989424Y+5254112D01*
X-1999919Y+5261800D01*
X-2010414Y+5266718D01*
X-2020909Y+5269524D01*
X-2031404Y+5270497D01*
X-2032000Y+5270500D01*
X-2095500Y+5207000D02*
X-2095283Y+5212247D01*
X-2093518Y+5222742D01*
X-2089826Y+5233237D01*
X-2083798Y+5243732D01*
X-2074576Y+5254112D01*
X-2064081Y+5261800D01*
X-2053586Y+5266718D01*
X-2043091Y+5269524D01*
X-2032596Y+5270497D01*
X-2032000Y+5270500D01*
X-2095500Y+5207000D02*
X-2095283Y+5201753D01*
X-2093518Y+5191258D01*
X-2089826Y+5180763D01*
X-2083798Y+5170268D01*
X-2074576Y+5159888D01*
X-2064081Y+5152200D01*
X-2053586Y+5147282D01*
X-2043091Y+5144476D01*
X-2032596Y+5143503D01*
X-2032000Y+5143500D01*
X-1968500Y+5207000D02*
X-1968717Y+5201753D01*
X-1970482Y+5191258D01*
X-1974174Y+5180763D01*
X-1980202Y+5170268D01*
X-1989424Y+5159888D01*
X-1999919Y+5152200D01*
X-2010414Y+5147282D01*
X-2020909Y+5144476D01*
X-2031404Y+5143503D01*
X-2032000Y+5143500D01*
X-2103120Y+4826000D02*
X-2103120Y+4857750D01*
X-2072640Y+4857750D01*
X-2072640Y+4794250D01*
X-2103120Y+4762500D01*
X-2133600Y+4762500D01*
X-2164080Y+4794250D01*
X-2164080Y+4841875D01*
X-2148840Y+4857750D01*
X+3302000Y+7374000D02*
X+3301573Y+7384409D01*
X+3298101Y+7405228D01*
X+3290845Y+7426047D01*
X+3279017Y+7446866D01*
X+3260920Y+7467524D01*
X+3240101Y+7483045D01*
X+3219282Y+7493030D01*
X+3198463Y+7498814D01*
X+3177644Y+7500972D01*
X+3175000Y+7501000D01*
X+3048000Y+7374000D02*
X+3048427Y+7384409D01*
X+3051899Y+7405228D01*
X+3059155Y+7426047D01*
X+3070983Y+7446866D01*
X+3089080Y+7467524D01*
X+3109899Y+7483045D01*
X+3130718Y+7493030D01*
X+3151537Y+7498814D01*
X+3172356Y+7500972D01*
X+3175000Y+7501000D01*
X+3048000Y+7374000D02*
X+3048427Y+7363591D01*
X+3051899Y+7342772D01*
X+3059155Y+7321953D01*
X+3070983Y+7301134D01*
X+3089080Y+7280476D01*
X+3109899Y+7264955D01*
X+3130718Y+7254970D01*
X+3151537Y+7249186D01*
X+3172356Y+7247028D01*
X+3175000Y+7247000D01*
X+3302000Y+7374000D02*
X+3301573Y+7363591D01*
X+3298101Y+7342772D01*
X+3290845Y+7321953D01*
X+3279017Y+7301134D01*
X+3260920Y+7280476D01*
X+3240101Y+7264955D01*
X+3219282Y+7254970D01*
X+3198463Y+7249186D01*
X+3177644Y+7247028D01*
X+3175000Y+7247000D01*
X+3238500Y+7374000D02*
X+3238283Y+7379247D01*
X+3236518Y+7389742D01*
X+3232826Y+7400237D01*
X+3226798Y+7410732D01*
X+3217576Y+7421112D01*
X+3207081Y+7428800D01*
X+3196586Y+7433718D01*
X+3186091Y+7436524D01*
X+3175596Y+7437497D01*
X+3175000Y+7437500D01*
X+3111500Y+7374000D02*
X+3111717Y+7379247D01*
X+3113482Y+7389742D01*
X+3117174Y+7400237D01*
X+3123202Y+7410732D01*
X+3132424Y+7421112D01*
X+3142919Y+7428800D01*
X+3153414Y+7433718D01*
X+3163909Y+7436524D01*
X+3174404Y+7437497D01*
X+3175000Y+7437500D01*
X+3111500Y+7374000D02*
X+3111717Y+7368753D01*
X+3113482Y+7358258D01*
X+3117174Y+7347763D01*
X+3123202Y+7337268D01*
X+3132424Y+7326888D01*
X+3142919Y+7319200D01*
X+3153414Y+7314282D01*
X+3163909Y+7311476D01*
X+3174404Y+7310503D01*
X+3175000Y+7310500D01*
X+3238500Y+7374000D02*
X+3238283Y+7368753D01*
X+3236518Y+7358258D01*
X+3232826Y+7347763D01*
X+3226798Y+7337268D01*
X+3217576Y+7326888D01*
X+3207081Y+7319200D01*
X+3196586Y+7314282D01*
X+3186091Y+7311476D01*
X+3175596Y+7310503D01*
X+3175000Y+7310500D01*
X+3429000Y+7379080D02*
X+3429000Y+7333360D01*
X+3476625Y+7287640D01*
X+3524250Y+7333360D01*
X+3524250Y+7379080D01*
X+3571875Y+7379080D02*
X+3635375Y+7379080D01*
X+3603625Y+7379080D02*
X+3603625Y+7287640D01*
X+3571875Y+7287640D02*
X+3635375Y+7287640D01*
X+3683000Y+7287640D02*
X+3683000Y+7379080D01*
X+3778250Y+7287640D01*
X+3778250Y+7379080D01*
X+3810000Y+7333360D02*
X+3905250Y+7333360D01*
X+3857625Y+7363840D02*
X+3857625Y+7302880D01*
X+3302000Y+7874000D02*
X+3301573Y+7884409D01*
X+3298101Y+7905228D01*
X+3290845Y+7926047D01*
X+3279017Y+7946866D01*
X+3260920Y+7967524D01*
X+3240101Y+7983045D01*
X+3219282Y+7993030D01*
X+3198463Y+7998814D01*
X+3177644Y+8000972D01*
X+3175000Y+8001000D01*
X+3048000Y+7874000D02*
X+3048427Y+7884409D01*
X+3051899Y+7905228D01*
X+3059155Y+7926047D01*
X+3070983Y+7946866D01*
X+3089080Y+7967524D01*
X+3109899Y+7983045D01*
X+3130718Y+7993030D01*
X+3151537Y+7998814D01*
X+3172356Y+8000972D01*
X+3175000Y+8001000D01*
X+3048000Y+7874000D02*
X+3048427Y+7863591D01*
X+3051899Y+7842772D01*
X+3059155Y+7821953D01*
X+3070983Y+7801134D01*
X+3089080Y+7780476D01*
X+3109899Y+7764955D01*
X+3130718Y+7754970D01*
X+3151537Y+7749186D01*
X+3172356Y+7747028D01*
X+3175000Y+7747000D01*
X+3302000Y+7874000D02*
X+3301573Y+7863591D01*
X+3298101Y+7842772D01*
X+3290845Y+7821953D01*
X+3279017Y+7801134D01*
X+3260920Y+7780476D01*
X+3240101Y+7764955D01*
X+3219282Y+7754970D01*
X+3198463Y+7749186D01*
X+3177644Y+7747028D01*
X+3175000Y+7747000D01*
X+3238500Y+7874000D02*
X+3238283Y+7879247D01*
X+3236518Y+7889742D01*
X+3232826Y+7900237D01*
X+3226798Y+7910732D01*
X+3217576Y+7921112D01*
X+3207081Y+7928800D01*
X+3196586Y+7933718D01*
X+3186091Y+7936524D01*
X+3175596Y+7937497D01*
X+3175000Y+7937500D01*
X+3111500Y+7874000D02*
X+3111717Y+7879247D01*
X+3113482Y+7889742D01*
X+3117174Y+7900237D01*
X+3123202Y+7910732D01*
X+3132424Y+7921112D01*
X+3142919Y+7928800D01*
X+3153414Y+7933718D01*
X+3163909Y+7936524D01*
X+3174404Y+7937497D01*
X+3175000Y+7937500D01*
X+3111500Y+7874000D02*
X+3111717Y+7868753D01*
X+3113482Y+7858258D01*
X+3117174Y+7847763D01*
X+3123202Y+7837268D01*
X+3132424Y+7826888D01*
X+3142919Y+7819200D01*
X+3153414Y+7814282D01*
X+3163909Y+7811476D01*
X+3174404Y+7810503D01*
X+3175000Y+7810500D01*
X+3238500Y+7874000D02*
X+3238283Y+7868753D01*
X+3236518Y+7858258D01*
X+3232826Y+7847763D01*
X+3226798Y+7837268D01*
X+3217576Y+7826888D01*
X+3207081Y+7819200D01*
X+3196586Y+7814282D01*
X+3186091Y+7811476D01*
X+3175596Y+7810503D01*
X+3175000Y+7810500D01*
X+3429000Y+8006080D02*
X+3429000Y+7960360D01*
X+3476625Y+7914640D01*
X+3524250Y+7960360D01*
X+3524250Y+8006080D01*
X+3571875Y+8006080D02*
X+3635375Y+8006080D01*
X+3603625Y+8006080D02*
X+3603625Y+7914640D01*
X+3571875Y+7914640D02*
X+3635375Y+7914640D01*
X+3683000Y+7914640D02*
X+3683000Y+8006080D01*
X+3778250Y+7914640D01*
X+3778250Y+8006080D01*
X+3825875Y+7960360D02*
X+3905250Y+7960360D01*
X+3302000Y+6096000D02*
X+3301573Y+6106409D01*
X+3298101Y+6127228D01*
X+3290845Y+6148047D01*
X+3279017Y+6168866D01*
X+3260920Y+6189524D01*
X+3240101Y+6205045D01*
X+3219282Y+6215030D01*
X+3198463Y+6220814D01*
X+3177644Y+6222972D01*
X+3175000Y+6223000D01*
X+3048000Y+6096000D02*
X+3048427Y+6106409D01*
X+3051899Y+6127228D01*
X+3059155Y+6148047D01*
X+3070983Y+6168866D01*
X+3089080Y+6189524D01*
X+3109899Y+6205045D01*
X+3130718Y+6215030D01*
X+3151537Y+6220814D01*
X+3172356Y+6222972D01*
X+3175000Y+6223000D01*
X+3048000Y+6096000D02*
X+3048427Y+6085591D01*
X+3051899Y+6064772D01*
X+3059155Y+6043953D01*
X+3070983Y+6023134D01*
X+3089080Y+6002476D01*
X+3109899Y+5986955D01*
X+3130718Y+5976970D01*
X+3151537Y+5971186D01*
X+3172356Y+5969028D01*
X+3175000Y+5969000D01*
X+3302000Y+6096000D02*
X+3301573Y+6085591D01*
X+3298101Y+6064772D01*
X+3290845Y+6043953D01*
X+3279017Y+6023134D01*
X+3260920Y+6002476D01*
X+3240101Y+5986955D01*
X+3219282Y+5976970D01*
X+3198463Y+5971186D01*
X+3177644Y+5969028D01*
X+3175000Y+5969000D01*
X+3238500Y+6096000D02*
X+3238283Y+6101247D01*
X+3236518Y+6111742D01*
X+3232826Y+6122237D01*
X+3226798Y+6132732D01*
X+3217576Y+6143112D01*
X+3207081Y+6150800D01*
X+3196586Y+6155718D01*
X+3186091Y+6158524D01*
X+3175596Y+6159497D01*
X+3175000Y+6159500D01*
X+3111500Y+6096000D02*
X+3111717Y+6101247D01*
X+3113482Y+6111742D01*
X+3117174Y+6122237D01*
X+3123202Y+6132732D01*
X+3132424Y+6143112D01*
X+3142919Y+6150800D01*
X+3153414Y+6155718D01*
X+3163909Y+6158524D01*
X+3174404Y+6159497D01*
X+3175000Y+6159500D01*
X+3111500Y+6096000D02*
X+3111717Y+6090753D01*
X+3113482Y+6080258D01*
X+3117174Y+6069763D01*
X+3123202Y+6059268D01*
X+3132424Y+6048888D01*
X+3142919Y+6041200D01*
X+3153414Y+6036282D01*
X+3163909Y+6033476D01*
X+3174404Y+6032503D01*
X+3175000Y+6032500D01*
X+3238500Y+6096000D02*
X+3238283Y+6090753D01*
X+3236518Y+6080258D01*
X+3232826Y+6069763D01*
X+3226798Y+6059268D01*
X+3217576Y+6048888D01*
X+3207081Y+6041200D01*
X+3196586Y+6036282D01*
X+3186091Y+6033476D01*
X+3175596Y+6032503D01*
X+3175000Y+6032500D01*
X+3063875Y+5928360D02*
X+3127375Y+5928360D01*
X+3095625Y+5928360D02*
X+3095625Y+5836920D01*
X+3063875Y+5836920D02*
X+3127375Y+5836920D01*
X+3190875Y+5882640D02*
X+3270250Y+5882640D01*
X+3302000Y+5461000D02*
X+3301573Y+5471409D01*
X+3298101Y+5492228D01*
X+3290845Y+5513047D01*
X+3279017Y+5533866D01*
X+3260920Y+5554524D01*
X+3240101Y+5570045D01*
X+3219282Y+5580030D01*
X+3198463Y+5585814D01*
X+3177644Y+5587972D01*
X+3175000Y+5588000D01*
X+3048000Y+5461000D02*
X+3048427Y+5471409D01*
X+3051899Y+5492228D01*
X+3059155Y+5513047D01*
X+3070983Y+5533866D01*
X+3089080Y+5554524D01*
X+3109899Y+5570045D01*
X+3130718Y+5580030D01*
X+3151537Y+5585814D01*
X+3172356Y+5587972D01*
X+3175000Y+5588000D01*
X+3048000Y+5461000D02*
X+3048427Y+5450591D01*
X+3051899Y+5429772D01*
X+3059155Y+5408953D01*
X+3070983Y+5388134D01*
X+3089080Y+5367476D01*
X+3109899Y+5351955D01*
X+3130718Y+5341970D01*
X+3151537Y+5336186D01*
X+3172356Y+5334028D01*
X+3175000Y+5334000D01*
X+3302000Y+5461000D02*
X+3301573Y+5450591D01*
X+3298101Y+5429772D01*
X+3290845Y+5408953D01*
X+3279017Y+5388134D01*
X+3260920Y+5367476D01*
X+3240101Y+5351955D01*
X+3219282Y+5341970D01*
X+3198463Y+5336186D01*
X+3177644Y+5334028D01*
X+3175000Y+5334000D01*
X+3238500Y+5461000D02*
X+3238283Y+5466247D01*
X+3236518Y+5476742D01*
X+3232826Y+5487237D01*
X+3226798Y+5497732D01*
X+3217576Y+5508112D01*
X+3207081Y+5515800D01*
X+3196586Y+5520718D01*
X+3186091Y+5523524D01*
X+3175596Y+5524497D01*
X+3175000Y+5524500D01*
X+3111500Y+5461000D02*
X+3111717Y+5466247D01*
X+3113482Y+5476742D01*
X+3117174Y+5487237D01*
X+3123202Y+5497732D01*
X+3132424Y+5508112D01*
X+3142919Y+5515800D01*
X+3153414Y+5520718D01*
X+3163909Y+5523524D01*
X+3174404Y+5524497D01*
X+3175000Y+5524500D01*
X+3111500Y+5461000D02*
X+3111717Y+5455753D01*
X+3113482Y+5445258D01*
X+3117174Y+5434763D01*
X+3123202Y+5424268D01*
X+3132424Y+5413888D01*
X+3142919Y+5406200D01*
X+3153414Y+5401282D01*
X+3163909Y+5398476D01*
X+3174404Y+5397503D01*
X+3175000Y+5397500D01*
X+3238500Y+5461000D02*
X+3238283Y+5455753D01*
X+3236518Y+5445258D01*
X+3232826Y+5434763D01*
X+3226798Y+5424268D01*
X+3217576Y+5413888D01*
X+3207081Y+5406200D01*
X+3196586Y+5401282D01*
X+3186091Y+5398476D01*
X+3175596Y+5397503D01*
X+3175000Y+5397500D01*
X+3342640Y+5349875D02*
X+3342640Y+5413375D01*
X+3342640Y+5381625D02*
X+3434080Y+5381625D01*
X+3434080Y+5349875D02*
X+3434080Y+5413375D01*
X+3388360Y+5461000D02*
X+3388360Y+5556250D01*
X+3357880Y+5508625D02*
X+3418840Y+5508625D01*
M02*
