G04 PROTEUS RS274X GERBER FILE*
%FSLAX45Y45*%
%MOMM*%
G01*
%ADD18C,0.203200*%
%ADD28C,0.200000*%
%ADD29C,0.250000*%
%ADD72C,0.100000*%
D18*
X-3108960Y+4765040D02*
X+3512000Y+4765040D01*
X+3512000Y+8128000D01*
X-3108960Y+8128000D01*
X-3108960Y+4765040D01*
D28*
X+957000Y+7276000D02*
X+857000Y+7276000D01*
X+957000Y+7456000D02*
X+857000Y+7456000D01*
D18*
X+1415000Y+7242480D02*
X+1415000Y+7333920D01*
X+1335625Y+7333920D01*
X+1319750Y+7318680D01*
X+1319750Y+7303440D01*
X+1335625Y+7288200D01*
X+1415000Y+7288200D01*
X+1335625Y+7288200D02*
X+1319750Y+7272960D01*
X+1319750Y+7242480D01*
X+1192750Y+7303440D02*
X+1208625Y+7288200D01*
X+1256250Y+7288200D01*
X+1272125Y+7303440D01*
X+1272125Y+7318680D01*
X+1256250Y+7333920D01*
X+1208625Y+7333920D01*
X+1192750Y+7318680D01*
X+1192750Y+7257720D01*
X+1208625Y+7242480D01*
X+1256250Y+7242480D01*
D28*
X-2376000Y+6445000D02*
X-2376000Y+6545000D01*
X-2196000Y+6445000D02*
X-2196000Y+6545000D01*
D18*
X-2064080Y+6685500D02*
X-2155520Y+6685500D01*
X-2155520Y+6606125D01*
X-2140280Y+6590250D01*
X-2125040Y+6590250D01*
X-2109800Y+6606125D01*
X-2109800Y+6685500D01*
X-2109800Y+6606125D02*
X-2094560Y+6590250D01*
X-2064080Y+6590250D01*
X-2125040Y+6526750D02*
X-2155520Y+6495000D01*
X-2064080Y+6495000D01*
X-2079320Y+6431500D02*
X-2140280Y+6431500D01*
X-2155520Y+6415625D01*
X-2155520Y+6352125D01*
X-2140280Y+6336250D01*
X-2079320Y+6336250D01*
X-2064080Y+6352125D01*
X-2064080Y+6415625D01*
X-2079320Y+6431500D01*
X-2064080Y+6431500D02*
X-2155520Y+6336250D01*
D29*
X-2168500Y+6089000D02*
X-2168543Y+6090039D01*
X-2168895Y+6092118D01*
X-2169632Y+6094197D01*
X-2170836Y+6096276D01*
X-2172677Y+6098326D01*
X-2174756Y+6099829D01*
X-2176835Y+6100786D01*
X-2178914Y+6101325D01*
X-2180993Y+6101500D01*
X-2181000Y+6101500D01*
X-2193500Y+6089000D02*
X-2193457Y+6090039D01*
X-2193105Y+6092118D01*
X-2192368Y+6094197D01*
X-2191164Y+6096276D01*
X-2189323Y+6098326D01*
X-2187244Y+6099829D01*
X-2185165Y+6100786D01*
X-2183086Y+6101325D01*
X-2181007Y+6101500D01*
X-2181000Y+6101500D01*
X-2193500Y+6089000D02*
X-2193457Y+6087961D01*
X-2193105Y+6085882D01*
X-2192368Y+6083803D01*
X-2191164Y+6081724D01*
X-2189323Y+6079674D01*
X-2187244Y+6078171D01*
X-2185165Y+6077214D01*
X-2183086Y+6076675D01*
X-2181007Y+6076500D01*
X-2181000Y+6076500D01*
X-2168500Y+6089000D02*
X-2168543Y+6087961D01*
X-2168895Y+6085882D01*
X-2169632Y+6083803D01*
X-2170836Y+6081724D01*
X-2172677Y+6079674D01*
X-2174756Y+6078171D01*
X-2176835Y+6077214D01*
X-2178914Y+6076675D01*
X-2180993Y+6076500D01*
X-2181000Y+6076500D01*
D28*
X-2246000Y+6071500D02*
X-2586000Y+6071500D01*
X-2246000Y+5866500D02*
X-2586000Y+5866500D01*
D18*
X-2378000Y+6159720D02*
X-2362125Y+6144480D01*
X-2314500Y+6144480D01*
X-2282750Y+6174960D01*
X-2282750Y+6205440D01*
X-2314500Y+6235920D01*
X-2362125Y+6235920D01*
X-2378000Y+6220680D01*
X-2505000Y+6220680D02*
X-2489125Y+6235920D01*
X-2441500Y+6235920D01*
X-2425625Y+6220680D01*
X-2425625Y+6159720D01*
X-2441500Y+6144480D01*
X-2489125Y+6144480D01*
X-2505000Y+6159720D01*
X-2505000Y+6174960D01*
X-2489125Y+6190200D01*
X-2425625Y+6190200D01*
D28*
X+344000Y+6763000D02*
X+344000Y+6653000D01*
X+164000Y+6763000D02*
X+164000Y+6653000D01*
D18*
X+235280Y+7120750D02*
X+250520Y+7136625D01*
X+250520Y+7184250D01*
X+220040Y+7216000D01*
X+189560Y+7216000D01*
X+159080Y+7184250D01*
X+159080Y+7136625D01*
X+174320Y+7120750D01*
X+204800Y+7057250D02*
X+189560Y+7073125D01*
X+174320Y+7073125D01*
X+159080Y+7057250D01*
X+159080Y+7009625D01*
X+174320Y+6993750D01*
X+189560Y+6993750D01*
X+204800Y+7009625D01*
X+204800Y+7057250D01*
X+220040Y+7073125D01*
X+235280Y+7073125D01*
X+250520Y+7057250D01*
X+250520Y+7009625D01*
X+235280Y+6993750D01*
X+220040Y+6993750D01*
X+204800Y+7009625D01*
D28*
X+90000Y+6763000D02*
X+90000Y+6653000D01*
X-90000Y+6763000D02*
X-90000Y+6653000D01*
D18*
X-18720Y+7120750D02*
X-3480Y+7136625D01*
X-3480Y+7184250D01*
X-33960Y+7216000D01*
X-64440Y+7216000D01*
X-94920Y+7184250D01*
X-94920Y+7136625D01*
X-79680Y+7120750D01*
X-94920Y+7073125D02*
X-94920Y+6993750D01*
X-79680Y+6993750D01*
X-3480Y+7073125D01*
D28*
X-2122000Y+6653000D02*
X-2122000Y+6763000D01*
X-1942000Y+6653000D02*
X-1942000Y+6763000D01*
D18*
X-1825320Y+6739750D02*
X-1810080Y+6755625D01*
X-1810080Y+6803250D01*
X-1840560Y+6835000D01*
X-1871040Y+6835000D01*
X-1901520Y+6803250D01*
X-1901520Y+6755625D01*
X-1886280Y+6739750D01*
X-1871040Y+6676250D02*
X-1901520Y+6644500D01*
X-1810080Y+6644500D01*
D28*
X+1434000Y+7298000D02*
X+1434000Y+7398000D01*
X+1614000Y+7298000D02*
X+1614000Y+7398000D01*
D18*
X+1491920Y+7094000D02*
X+1400480Y+7094000D01*
X+1400480Y+7014625D01*
X+1415720Y+6998750D01*
X+1430960Y+6998750D01*
X+1446200Y+7014625D01*
X+1446200Y+7094000D01*
X+1446200Y+7014625D02*
X+1461440Y+6998750D01*
X+1491920Y+6998750D01*
X+1415720Y+6951125D02*
X+1400480Y+6935250D01*
X+1400480Y+6887625D01*
X+1415720Y+6871750D01*
X+1430960Y+6871750D01*
X+1446200Y+6887625D01*
X+1446200Y+6935250D01*
X+1461440Y+6951125D01*
X+1491920Y+6951125D01*
X+1491920Y+6871750D01*
D28*
X-1434000Y+7525000D02*
X-1434000Y+7425000D01*
X-1614000Y+7525000D02*
X-1614000Y+7425000D01*
D18*
X-1527480Y+8173500D02*
X-1618920Y+8173500D01*
X-1618920Y+8094125D01*
X-1603680Y+8078250D01*
X-1588440Y+8078250D01*
X-1573200Y+8094125D01*
X-1573200Y+8173500D01*
X-1573200Y+8094125D02*
X-1557960Y+8078250D01*
X-1527480Y+8078250D01*
X-1588440Y+8014750D02*
X-1618920Y+7983000D01*
X-1527480Y+7983000D01*
X-1588440Y+7887750D02*
X-1618920Y+7856000D01*
X-1527480Y+7856000D01*
D28*
X-821000Y+7276000D02*
X-921000Y+7276000D01*
X-821000Y+7456000D02*
X-921000Y+7456000D01*
D18*
X-172500Y+7369480D02*
X-172500Y+7460920D01*
X-251875Y+7460920D01*
X-267750Y+7445680D01*
X-267750Y+7430440D01*
X-251875Y+7415200D01*
X-172500Y+7415200D01*
X-251875Y+7415200D02*
X-267750Y+7399960D01*
X-267750Y+7369480D01*
X-331250Y+7430440D02*
X-363000Y+7460920D01*
X-363000Y+7369480D01*
X-442375Y+7445680D02*
X-458250Y+7460920D01*
X-505875Y+7460920D01*
X-521750Y+7445680D01*
X-521750Y+7430440D01*
X-505875Y+7415200D01*
X-458250Y+7415200D01*
X-442375Y+7399960D01*
X-442375Y+7369480D01*
X-521750Y+7369480D01*
D28*
X-1688000Y+7525000D02*
X-1688000Y+7425000D01*
X-1868000Y+7525000D02*
X-1868000Y+7425000D01*
D18*
X-1908480Y+7665500D02*
X-1999920Y+7665500D01*
X-1999920Y+7586125D01*
X-1984680Y+7570250D01*
X-1969440Y+7570250D01*
X-1954200Y+7586125D01*
X-1954200Y+7665500D01*
X-1954200Y+7586125D02*
X-1938960Y+7570250D01*
X-1908480Y+7570250D01*
X-1969440Y+7506750D02*
X-1999920Y+7475000D01*
X-1908480Y+7475000D01*
X-1984680Y+7395625D02*
X-1999920Y+7379750D01*
X-1999920Y+7332125D01*
X-1984680Y+7316250D01*
X-1969440Y+7316250D01*
X-1954200Y+7332125D01*
X-1938960Y+7316250D01*
X-1923720Y+7316250D01*
X-1908480Y+7332125D01*
X-1908480Y+7379750D01*
X-1923720Y+7395625D01*
X-1954200Y+7363875D02*
X-1954200Y+7332125D01*
X-1186180Y+7546340D02*
X-1033780Y+7546340D01*
X-1183640Y+7693660D02*
X-1033780Y+7693660D01*
X-604520Y+7541260D02*
X-604520Y+7632700D01*
X-668020Y+7632700D01*
X-699770Y+7602220D01*
X-699770Y+7571740D01*
X-668020Y+7541260D01*
X-604520Y+7541260D01*
X-763270Y+7602220D02*
X-795020Y+7632700D01*
X-795020Y+7541260D01*
X-403860Y+7693660D02*
X-556260Y+7693660D01*
X-406400Y+7546340D02*
X-556260Y+7546340D01*
X-731520Y+7607300D02*
X-731520Y+7698740D01*
X-795020Y+7698740D01*
X-826770Y+7668260D01*
X-826770Y+7637780D01*
X-795020Y+7607300D01*
X-731520Y+7607300D01*
X-874395Y+7683500D02*
X-890270Y+7698740D01*
X-937895Y+7698740D01*
X-953770Y+7683500D01*
X-953770Y+7668260D01*
X-937895Y+7653020D01*
X-890270Y+7653020D01*
X-874395Y+7637780D01*
X-874395Y+7607300D01*
X-953770Y+7607300D01*
X-2115820Y+7693660D02*
X-2268220Y+7693660D01*
X-2118360Y+7546340D02*
X-2268220Y+7546340D01*
X-2697480Y+7698740D02*
X-2697480Y+7607300D01*
X-2633980Y+7607300D01*
X-2602230Y+7637780D01*
X-2602230Y+7668260D01*
X-2633980Y+7698740D01*
X-2697480Y+7698740D01*
X-2554605Y+7622540D02*
X-2538730Y+7607300D01*
X-2491105Y+7607300D01*
X-2475230Y+7622540D01*
X-2475230Y+7637780D01*
X-2491105Y+7653020D01*
X-2475230Y+7668260D01*
X-2475230Y+7683500D01*
X-2491105Y+7698740D01*
X-2538730Y+7698740D01*
X-2554605Y+7683500D01*
X-2522855Y+7653020D02*
X-2491105Y+7653020D01*
X+2214880Y+7096760D02*
X+2854960Y+7096760D01*
X+2854960Y+6748780D01*
X+2214880Y+6748780D01*
X+2214880Y+7094220D01*
X+2349500Y+6748780D02*
X+2349500Y+6728460D01*
X+2727960Y+6728460D01*
X+2727960Y+6746240D01*
X+2174240Y+6601460D02*
X+2098040Y+6601460D01*
X+2082800Y+6617335D01*
X+2082800Y+6680835D01*
X+2098040Y+6696710D01*
X+2174240Y+6696710D01*
X+2082800Y+6728460D02*
X+2143760Y+6728460D01*
X+2174240Y+6760210D01*
X+2174240Y+6791960D01*
X+2143760Y+6823710D01*
X+2082800Y+6823710D01*
X+2113280Y+6728460D02*
X+2113280Y+6823710D01*
X+2098040Y+6903085D02*
X+2098040Y+6918960D01*
X+2082800Y+6918960D01*
X+2082800Y+6903085D01*
X+2098040Y+6903085D01*
X+2174240Y+7077710D02*
X+2174240Y+6998335D01*
X+2143760Y+6998335D01*
X+2143760Y+7061835D01*
X+2128520Y+7077710D01*
X+2098040Y+7077710D01*
X+2082800Y+7061835D01*
X+2082800Y+7014210D01*
X+2098040Y+6998335D01*
X+2174240Y+7109460D02*
X+2128520Y+7109460D01*
X+2082800Y+7157085D01*
X+2128520Y+7204710D01*
X+2174240Y+7204710D01*
D28*
X+2381000Y+7583000D02*
X+2491000Y+7583000D01*
X+2381000Y+7403000D02*
X+2491000Y+7403000D01*
D18*
X+2594750Y+7286320D02*
X+2610625Y+7271080D01*
X+2658250Y+7271080D01*
X+2690000Y+7301560D01*
X+2690000Y+7332040D01*
X+2658250Y+7362520D01*
X+2610625Y+7362520D01*
X+2594750Y+7347280D01*
X+2531250Y+7332040D02*
X+2499500Y+7362520D01*
X+2499500Y+7271080D01*
X+2436000Y+7286320D02*
X+2436000Y+7347280D01*
X+2420125Y+7362520D01*
X+2356625Y+7362520D01*
X+2340750Y+7347280D01*
X+2340750Y+7286320D01*
X+2356625Y+7271080D01*
X+2420125Y+7271080D01*
X+2436000Y+7286320D01*
X+2436000Y+7271080D02*
X+2340750Y+7362520D01*
X+2213750Y+7347280D02*
X+2229625Y+7362520D01*
X+2277250Y+7362520D01*
X+2293125Y+7347280D01*
X+2293125Y+7286320D01*
X+2277250Y+7271080D01*
X+2229625Y+7271080D01*
X+2213750Y+7286320D01*
X+2213750Y+7301560D01*
X+2229625Y+7316800D01*
X+2293125Y+7316800D01*
D28*
X+1614000Y+6763000D02*
X+1614000Y+6653000D01*
X+1434000Y+6763000D02*
X+1434000Y+6653000D01*
D18*
X+1378280Y+6866750D02*
X+1393520Y+6882625D01*
X+1393520Y+6930250D01*
X+1363040Y+6962000D01*
X+1332560Y+6962000D01*
X+1302080Y+6930250D01*
X+1302080Y+6882625D01*
X+1317320Y+6866750D01*
X+1332560Y+6803250D02*
X+1302080Y+6771500D01*
X+1393520Y+6771500D01*
X+1378280Y+6708000D02*
X+1317320Y+6708000D01*
X+1302080Y+6692125D01*
X+1302080Y+6628625D01*
X+1317320Y+6612750D01*
X+1378280Y+6612750D01*
X+1393520Y+6628625D01*
X+1393520Y+6692125D01*
X+1378280Y+6708000D01*
X+1393520Y+6708000D02*
X+1302080Y+6612750D01*
X+1302080Y+6565125D02*
X+1302080Y+6485750D01*
X+1317320Y+6485750D01*
X+1393520Y+6565125D01*
D28*
X-1688000Y+5656000D02*
X-1688000Y+5556000D01*
X-1868000Y+5656000D02*
X-1868000Y+5556000D01*
D18*
X-1908480Y+5860000D02*
X-1999920Y+5860000D01*
X-1999920Y+5780625D01*
X-1984680Y+5764750D01*
X-1969440Y+5764750D01*
X-1954200Y+5780625D01*
X-1954200Y+5860000D01*
X-1954200Y+5780625D02*
X-1938960Y+5764750D01*
X-1908480Y+5764750D01*
X-1984680Y+5717125D02*
X-1999920Y+5701250D01*
X-1999920Y+5653625D01*
X-1984680Y+5637750D01*
X-1969440Y+5637750D01*
X-1954200Y+5653625D01*
X-1954200Y+5701250D01*
X-1938960Y+5717125D01*
X-1908480Y+5717125D01*
X-1908480Y+5637750D01*
X-1923720Y+5606000D02*
X-1984680Y+5606000D01*
X-1999920Y+5590125D01*
X-1999920Y+5526625D01*
X-1984680Y+5510750D01*
X-1923720Y+5510750D01*
X-1908480Y+5526625D01*
X-1908480Y+5590125D01*
X-1923720Y+5606000D01*
X-1908480Y+5606000D02*
X-1999920Y+5510750D01*
X-1969440Y+5447250D02*
X-1999920Y+5415500D01*
X-1908480Y+5415500D01*
D28*
X-2122000Y+5556000D02*
X-2122000Y+5656000D01*
X-1942000Y+5556000D02*
X-1942000Y+5656000D01*
D18*
X-1810080Y+5860000D02*
X-1901520Y+5860000D01*
X-1901520Y+5780625D01*
X-1886280Y+5764750D01*
X-1871040Y+5764750D01*
X-1855800Y+5780625D01*
X-1855800Y+5860000D01*
X-1855800Y+5780625D02*
X-1840560Y+5764750D01*
X-1810080Y+5764750D01*
X-1886280Y+5717125D02*
X-1901520Y+5701250D01*
X-1901520Y+5653625D01*
X-1886280Y+5637750D01*
X-1871040Y+5637750D01*
X-1855800Y+5653625D01*
X-1855800Y+5701250D01*
X-1840560Y+5717125D01*
X-1810080Y+5717125D01*
X-1810080Y+5637750D01*
X-1825320Y+5606000D02*
X-1886280Y+5606000D01*
X-1901520Y+5590125D01*
X-1901520Y+5526625D01*
X-1886280Y+5510750D01*
X-1825320Y+5510750D01*
X-1810080Y+5526625D01*
X-1810080Y+5590125D01*
X-1825320Y+5606000D01*
X-1810080Y+5606000D02*
X-1901520Y+5510750D01*
X-1886280Y+5463125D02*
X-1901520Y+5447250D01*
X-1901520Y+5399625D01*
X-1886280Y+5383750D01*
X-1871040Y+5383750D01*
X-1855800Y+5399625D01*
X-1855800Y+5447250D01*
X-1840560Y+5463125D01*
X-1810080Y+5463125D01*
X-1810080Y+5383750D01*
D28*
X-2376000Y+5556000D02*
X-2376000Y+5666000D01*
X-2196000Y+5556000D02*
X-2196000Y+5666000D01*
D18*
X-2079320Y+5769750D02*
X-2064080Y+5785625D01*
X-2064080Y+5833250D01*
X-2094560Y+5865000D01*
X-2125040Y+5865000D01*
X-2155520Y+5833250D01*
X-2155520Y+5785625D01*
X-2140280Y+5769750D01*
X-2140280Y+5722125D02*
X-2155520Y+5706250D01*
X-2155520Y+5658625D01*
X-2140280Y+5642750D01*
X-2125040Y+5642750D01*
X-2109800Y+5658625D01*
X-2109800Y+5706250D01*
X-2094560Y+5722125D01*
X-2064080Y+5722125D01*
X-2064080Y+5642750D01*
X-2079320Y+5611000D02*
X-2140280Y+5611000D01*
X-2155520Y+5595125D01*
X-2155520Y+5531625D01*
X-2140280Y+5515750D01*
X-2079320Y+5515750D01*
X-2064080Y+5531625D01*
X-2064080Y+5595125D01*
X-2079320Y+5611000D01*
X-2064080Y+5611000D02*
X-2155520Y+5515750D01*
X-2125040Y+5452250D02*
X-2155520Y+5420500D01*
X-2064080Y+5420500D01*
D28*
X+59000Y+7710000D02*
X+159000Y+7710000D01*
X+59000Y+7530000D02*
X+159000Y+7530000D01*
D18*
X+236000Y+7398080D02*
X+236000Y+7489520D01*
X+156625Y+7489520D01*
X+140750Y+7474280D01*
X+140750Y+7459040D01*
X+156625Y+7443800D01*
X+236000Y+7443800D01*
X+156625Y+7443800D02*
X+140750Y+7428560D01*
X+140750Y+7398080D01*
X+13750Y+7428560D02*
X+109000Y+7428560D01*
X+45500Y+7489520D01*
X+45500Y+7398080D01*
D28*
X+59000Y+7456000D02*
X+159000Y+7456000D01*
X+59000Y+7276000D02*
X+159000Y+7276000D01*
D18*
X+236000Y+7144080D02*
X+236000Y+7235520D01*
X+156625Y+7235520D01*
X+140750Y+7220280D01*
X+140750Y+7205040D01*
X+156625Y+7189800D01*
X+236000Y+7189800D01*
X+156625Y+7189800D02*
X+140750Y+7174560D01*
X+140750Y+7144080D01*
X+13750Y+7235520D02*
X+93125Y+7235520D01*
X+93125Y+7205040D01*
X+29625Y+7205040D01*
X+13750Y+7189800D01*
X+13750Y+7159320D01*
X+29625Y+7144080D01*
X+77250Y+7144080D01*
X+93125Y+7159320D01*
D28*
X-1434000Y+5656000D02*
X-1434000Y+5556000D01*
X-1614000Y+5656000D02*
X-1614000Y+5556000D01*
D18*
X-1654480Y+5796500D02*
X-1745920Y+5796500D01*
X-1745920Y+5717125D01*
X-1730680Y+5701250D01*
X-1715440Y+5701250D01*
X-1700200Y+5717125D01*
X-1700200Y+5796500D01*
X-1700200Y+5717125D02*
X-1684960Y+5701250D01*
X-1654480Y+5701250D01*
X-1730680Y+5653625D02*
X-1745920Y+5637750D01*
X-1745920Y+5590125D01*
X-1730680Y+5574250D01*
X-1715440Y+5574250D01*
X-1700200Y+5590125D01*
X-1684960Y+5574250D01*
X-1669720Y+5574250D01*
X-1654480Y+5590125D01*
X-1654480Y+5637750D01*
X-1669720Y+5653625D01*
X-1700200Y+5621875D02*
X-1700200Y+5590125D01*
X-1700200Y+5510750D02*
X-1715440Y+5526625D01*
X-1730680Y+5526625D01*
X-1745920Y+5510750D01*
X-1745920Y+5463125D01*
X-1730680Y+5447250D01*
X-1715440Y+5447250D01*
X-1700200Y+5463125D01*
X-1700200Y+5510750D01*
X-1684960Y+5526625D01*
X-1669720Y+5526625D01*
X-1654480Y+5510750D01*
X-1654480Y+5463125D01*
X-1669720Y+5447250D01*
X-1684960Y+5447250D01*
X-1700200Y+5463125D01*
D28*
X-1434000Y+6763000D02*
X-1434000Y+6663000D01*
X-1614000Y+6763000D02*
X-1614000Y+6663000D01*
D18*
X-1654480Y+6903500D02*
X-1745920Y+6903500D01*
X-1745920Y+6824125D01*
X-1730680Y+6808250D01*
X-1715440Y+6808250D01*
X-1700200Y+6824125D01*
X-1700200Y+6903500D01*
X-1700200Y+6824125D02*
X-1684960Y+6808250D01*
X-1654480Y+6808250D01*
X-1730680Y+6760625D02*
X-1745920Y+6744750D01*
X-1745920Y+6697125D01*
X-1730680Y+6681250D01*
X-1715440Y+6681250D01*
X-1700200Y+6697125D01*
X-1684960Y+6681250D01*
X-1669720Y+6681250D01*
X-1654480Y+6697125D01*
X-1654480Y+6744750D01*
X-1669720Y+6760625D01*
X-1700200Y+6728875D02*
X-1700200Y+6697125D01*
X-1715440Y+6554250D02*
X-1700200Y+6570125D01*
X-1700200Y+6617750D01*
X-1715440Y+6633625D01*
X-1730680Y+6633625D01*
X-1745920Y+6617750D01*
X-1745920Y+6570125D01*
X-1730680Y+6554250D01*
X-1669720Y+6554250D01*
X-1654480Y+6570125D01*
X-1654480Y+6617750D01*
D28*
X-1688000Y+6763000D02*
X-1688000Y+6653000D01*
X-1868000Y+6763000D02*
X-1868000Y+6653000D01*
D18*
X-1923720Y+6803250D02*
X-1908480Y+6819125D01*
X-1908480Y+6866750D01*
X-1938960Y+6898500D01*
X-1969440Y+6898500D01*
X-1999920Y+6866750D01*
X-1999920Y+6819125D01*
X-1984680Y+6803250D01*
X-1984680Y+6755625D02*
X-1999920Y+6739750D01*
X-1999920Y+6692125D01*
X-1984680Y+6676250D01*
X-1969440Y+6676250D01*
X-1954200Y+6692125D01*
X-1938960Y+6676250D01*
X-1923720Y+6676250D01*
X-1908480Y+6692125D01*
X-1908480Y+6739750D01*
X-1923720Y+6755625D01*
X-1954200Y+6723875D02*
X-1954200Y+6692125D01*
X-1969440Y+6612750D02*
X-1999920Y+6581000D01*
X-1908480Y+6581000D01*
D28*
X-926000Y+5656000D02*
X-926000Y+5556000D01*
X-1106000Y+5656000D02*
X-1106000Y+5556000D01*
D18*
X-1146480Y+5796500D02*
X-1237920Y+5796500D01*
X-1237920Y+5717125D01*
X-1222680Y+5701250D01*
X-1207440Y+5701250D01*
X-1192200Y+5717125D01*
X-1192200Y+5796500D01*
X-1192200Y+5717125D02*
X-1176960Y+5701250D01*
X-1146480Y+5701250D01*
X-1207440Y+5637750D02*
X-1237920Y+5606000D01*
X-1146480Y+5606000D01*
X-1237920Y+5526625D02*
X-1237920Y+5447250D01*
X-1222680Y+5447250D01*
X-1146480Y+5526625D01*
D28*
X-291000Y+5656000D02*
X-291000Y+5556000D01*
X-471000Y+5656000D02*
X-471000Y+5556000D01*
D18*
X-511480Y+5796500D02*
X-602920Y+5796500D01*
X-602920Y+5717125D01*
X-587680Y+5701250D01*
X-572440Y+5701250D01*
X-557200Y+5717125D01*
X-557200Y+5796500D01*
X-557200Y+5717125D02*
X-541960Y+5701250D01*
X-511480Y+5701250D01*
X-572440Y+5637750D02*
X-602920Y+5606000D01*
X-511480Y+5606000D01*
X-557200Y+5510750D02*
X-572440Y+5526625D01*
X-587680Y+5526625D01*
X-602920Y+5510750D01*
X-602920Y+5463125D01*
X-587680Y+5447250D01*
X-572440Y+5447250D01*
X-557200Y+5463125D01*
X-557200Y+5510750D01*
X-541960Y+5526625D01*
X-526720Y+5526625D01*
X-511480Y+5510750D01*
X-511480Y+5463125D01*
X-526720Y+5447250D01*
X-541960Y+5447250D01*
X-557200Y+5463125D01*
D28*
X-926000Y+6763000D02*
X-926000Y+6653000D01*
X-1106000Y+6763000D02*
X-1106000Y+6653000D01*
D18*
X-1161720Y+6739750D02*
X-1146480Y+6755625D01*
X-1146480Y+6803250D01*
X-1176960Y+6835000D01*
X-1207440Y+6835000D01*
X-1237920Y+6803250D01*
X-1237920Y+6755625D01*
X-1222680Y+6739750D01*
X-1237920Y+6612750D02*
X-1237920Y+6692125D01*
X-1207440Y+6692125D01*
X-1207440Y+6628625D01*
X-1192200Y+6612750D01*
X-1161720Y+6612750D01*
X-1146480Y+6628625D01*
X-1146480Y+6676250D01*
X-1161720Y+6692125D01*
D28*
X-1180000Y+5656000D02*
X-1180000Y+5556000D01*
X-1360000Y+5656000D02*
X-1360000Y+5556000D01*
D18*
X-1400480Y+5733000D02*
X-1491920Y+5733000D01*
X-1491920Y+5653625D01*
X-1476680Y+5637750D01*
X-1461440Y+5637750D01*
X-1446200Y+5653625D01*
X-1446200Y+5733000D01*
X-1446200Y+5653625D02*
X-1430960Y+5637750D01*
X-1400480Y+5637750D01*
X-1461440Y+5574250D02*
X-1491920Y+5542500D01*
X-1400480Y+5542500D01*
D28*
X-1180000Y+6763000D02*
X-1180000Y+6663000D01*
X-1360000Y+6763000D02*
X-1360000Y+6663000D01*
D18*
X-1400480Y+6840000D02*
X-1491920Y+6840000D01*
X-1491920Y+6760625D01*
X-1476680Y+6744750D01*
X-1461440Y+6744750D01*
X-1446200Y+6760625D01*
X-1446200Y+6840000D01*
X-1446200Y+6760625D02*
X-1430960Y+6744750D01*
X-1400480Y+6744750D01*
X-1476680Y+6697125D02*
X-1491920Y+6681250D01*
X-1491920Y+6633625D01*
X-1476680Y+6617750D01*
X-1461440Y+6617750D01*
X-1446200Y+6633625D01*
X-1430960Y+6617750D01*
X-1415720Y+6617750D01*
X-1400480Y+6633625D01*
X-1400480Y+6681250D01*
X-1415720Y+6697125D01*
X-1446200Y+6665375D02*
X-1446200Y+6633625D01*
X+1905000Y+5334000D02*
X+2667000Y+5334000D01*
X+2667000Y+5969000D01*
X+1905000Y+5969000D01*
X+1905000Y+5334000D01*
X+2159000Y+5842000D02*
X+2159000Y+5461000D01*
X+1849120Y+6032500D02*
X+1864360Y+6016625D01*
X+1864360Y+5953125D01*
X+1849120Y+5937250D01*
X+1833880Y+5937250D01*
X+1818640Y+5953125D01*
X+1818640Y+6016625D01*
X+1803400Y+6032500D01*
X+1788160Y+6032500D01*
X+1772920Y+6016625D01*
X+1772920Y+5953125D01*
X+1788160Y+5937250D01*
X+1864360Y+5905500D02*
X+1772920Y+5905500D01*
X+1772920Y+5810250D02*
X+1864360Y+5810250D01*
X+1818640Y+5905500D02*
X+1818640Y+5810250D01*
X+1772920Y+5778500D02*
X+1849120Y+5778500D01*
X+1864360Y+5762625D01*
X+1864360Y+5699125D01*
X+1849120Y+5683250D01*
X+1772920Y+5683250D01*
X+1864360Y+5651500D02*
X+1772920Y+5651500D01*
X+1864360Y+5556250D01*
X+1772920Y+5556250D01*
X+1772920Y+5524500D02*
X+1772920Y+5429250D01*
X+1772920Y+5476875D02*
X+1864360Y+5476875D01*
X+1803400Y+5365750D02*
X+1772920Y+5334000D01*
X+1864360Y+5334000D01*
D29*
X+1106000Y+5416000D02*
X+1105957Y+5417039D01*
X+1105605Y+5419118D01*
X+1104868Y+5421197D01*
X+1103664Y+5423276D01*
X+1101823Y+5425326D01*
X+1099744Y+5426829D01*
X+1097665Y+5427786D01*
X+1095586Y+5428325D01*
X+1093507Y+5428500D01*
X+1093500Y+5428500D01*
X+1081000Y+5416000D02*
X+1081043Y+5417039D01*
X+1081395Y+5419118D01*
X+1082132Y+5421197D01*
X+1083336Y+5423276D01*
X+1085177Y+5425326D01*
X+1087256Y+5426829D01*
X+1089335Y+5427786D01*
X+1091414Y+5428325D01*
X+1093493Y+5428500D01*
X+1093500Y+5428500D01*
X+1081000Y+5416000D02*
X+1081043Y+5414961D01*
X+1081395Y+5412882D01*
X+1082132Y+5410803D01*
X+1083336Y+5408724D01*
X+1085177Y+5406674D01*
X+1087256Y+5405171D01*
X+1089335Y+5404214D01*
X+1091414Y+5403675D01*
X+1093493Y+5403500D01*
X+1093500Y+5403500D01*
X+1106000Y+5416000D02*
X+1105957Y+5414961D01*
X+1105605Y+5412882D01*
X+1104868Y+5410803D01*
X+1103664Y+5408724D01*
X+1101823Y+5406674D01*
X+1099744Y+5405171D01*
X+1097665Y+5404214D01*
X+1095586Y+5403675D01*
X+1093507Y+5403500D01*
X+1093500Y+5403500D01*
D28*
X+763500Y+5566000D02*
X+763500Y+5786000D01*
X+1073500Y+5786000D01*
X+1073500Y+5566000D01*
X+763500Y+5566000D01*
D72*
X+1063500Y+5566000D02*
X+1073500Y+5576000D01*
X+1053500Y+5566000D02*
X+1073500Y+5586000D01*
X+1043500Y+5566000D02*
X+1073500Y+5596000D01*
X+1033500Y+5566000D02*
X+1073500Y+5606000D01*
X+1023500Y+5566000D02*
X+1073500Y+5616000D01*
X+1013500Y+5566000D02*
X+1073500Y+5626000D01*
X+1003500Y+5566000D02*
X+1073500Y+5636000D01*
X+993500Y+5566000D02*
X+1073500Y+5646000D01*
X+983500Y+5566000D02*
X+1073500Y+5656000D01*
D18*
X+1148980Y+5803000D02*
X+1225180Y+5803000D01*
X+1240420Y+5787125D01*
X+1240420Y+5723625D01*
X+1225180Y+5707750D01*
X+1148980Y+5707750D01*
X+1179460Y+5644250D02*
X+1148980Y+5612500D01*
X+1240420Y+5612500D01*
D28*
X-545000Y+5666000D02*
X-545000Y+5556000D01*
X-725000Y+5666000D02*
X-725000Y+5556000D01*
D18*
X-780720Y+5642750D02*
X-765480Y+5658625D01*
X-765480Y+5706250D01*
X-795960Y+5738000D01*
X-826440Y+5738000D01*
X-856920Y+5706250D01*
X-856920Y+5658625D01*
X-841680Y+5642750D01*
X-841680Y+5595125D02*
X-856920Y+5579250D01*
X-856920Y+5531625D01*
X-841680Y+5515750D01*
X-826440Y+5515750D01*
X-811200Y+5531625D01*
X-811200Y+5579250D01*
X-795960Y+5595125D01*
X-765480Y+5595125D01*
X-765480Y+5515750D01*
D28*
X+1741000Y+5747000D02*
X+1741000Y+5637000D01*
X+1561000Y+5747000D02*
X+1561000Y+5637000D01*
D18*
X+1505280Y+5723750D02*
X+1520520Y+5739625D01*
X+1520520Y+5787250D01*
X+1490040Y+5819000D01*
X+1459560Y+5819000D01*
X+1429080Y+5787250D01*
X+1429080Y+5739625D01*
X+1444320Y+5723750D01*
X+1490040Y+5596750D02*
X+1490040Y+5692000D01*
X+1429080Y+5628500D01*
X+1520520Y+5628500D01*
D28*
X-730000Y+5879000D02*
X-840000Y+5879000D01*
X-730000Y+6059000D02*
X-840000Y+6059000D01*
D18*
X-689750Y+6114720D02*
X-673875Y+6099480D01*
X-626250Y+6099480D01*
X-594500Y+6129960D01*
X-594500Y+6160440D01*
X-626250Y+6190920D01*
X-673875Y+6190920D01*
X-689750Y+6175680D01*
X-753250Y+6160440D02*
X-785000Y+6190920D01*
X-785000Y+6099480D01*
X-864375Y+6175680D02*
X-880250Y+6190920D01*
X-927875Y+6190920D01*
X-943750Y+6175680D01*
X-943750Y+6160440D01*
X-927875Y+6145200D01*
X-943750Y+6129960D01*
X-943750Y+6114720D01*
X-927875Y+6099480D01*
X-880250Y+6099480D01*
X-864375Y+6114720D01*
X-896125Y+6145200D02*
X-927875Y+6145200D01*
D28*
X+979000Y+6763000D02*
X+979000Y+6653000D01*
X+799000Y+6763000D02*
X+799000Y+6653000D01*
D18*
X+743280Y+6803250D02*
X+758520Y+6819125D01*
X+758520Y+6866750D01*
X+728040Y+6898500D01*
X+697560Y+6898500D01*
X+667080Y+6866750D01*
X+667080Y+6819125D01*
X+682320Y+6803250D01*
X+697560Y+6739750D02*
X+667080Y+6708000D01*
X+758520Y+6708000D01*
X+728040Y+6549250D02*
X+728040Y+6644500D01*
X+667080Y+6581000D01*
X+758520Y+6581000D01*
M02*
