G04 PROTEUS RS274X GERBER FILE*
%FSLAX45Y45*%
%MOMM*%
G01*
%ADD18C,0.203200*%
%ADD50C,0.050000*%
%ADD51C,0.141000*%
%ADD52C,0.116250*%
%ADD53C,0.100580*%
%ADD54C,0.138850*%
%ADD55C,0.095000*%
%ADD56C,0.093000*%
%ADD57C,0.118750*%
%ADD58C,0.150580*%
%ADD59C,0.208330*%
D18*
X-3108960Y+4765040D02*
X+3512000Y+4765040D01*
X+3512000Y+8128000D01*
X-3108960Y+8128000D01*
X-3108960Y+4765040D01*
D50*
X+1137000Y+7251000D02*
X+677000Y+7251000D01*
X+677000Y+7481000D01*
X+1137000Y+7481000D01*
X+1137000Y+7251000D01*
X+907000Y+7416000D02*
X+907000Y+7316000D01*
X+857000Y+7366000D02*
X+957000Y+7366000D01*
D51*
X+1019800Y+7323700D02*
X+1019800Y+7408300D01*
X+949300Y+7408300D01*
X+935200Y+7394200D01*
X+935200Y+7380100D01*
X+949300Y+7366000D01*
X+1019800Y+7366000D01*
X+949300Y+7366000D02*
X+935200Y+7351900D01*
X+935200Y+7323700D01*
X+822400Y+7380100D02*
X+836500Y+7366000D01*
X+878800Y+7366000D01*
X+892900Y+7380100D01*
X+892900Y+7394200D01*
X+878800Y+7408300D01*
X+836500Y+7408300D01*
X+822400Y+7394200D01*
X+822400Y+7337800D01*
X+836500Y+7323700D01*
X+878800Y+7323700D01*
D50*
X-2401000Y+6265000D02*
X-2401000Y+6725000D01*
X-2171000Y+6725000D01*
X-2171000Y+6265000D01*
X-2401000Y+6265000D01*
X-2236000Y+6495000D02*
X-2336000Y+6495000D01*
X-2286000Y+6545000D02*
X-2286000Y+6445000D01*
D52*
X-2251125Y+6634500D02*
X-2320875Y+6634500D01*
X-2320875Y+6576375D01*
X-2309250Y+6564750D01*
X-2297625Y+6564750D01*
X-2286000Y+6576375D01*
X-2286000Y+6634500D01*
X-2286000Y+6576375D02*
X-2274375Y+6564750D01*
X-2251125Y+6564750D01*
X-2297625Y+6518250D02*
X-2320875Y+6495000D01*
X-2251125Y+6495000D01*
X-2262750Y+6448500D02*
X-2309250Y+6448500D01*
X-2320875Y+6436875D01*
X-2320875Y+6390375D01*
X-2309250Y+6378750D01*
X-2262750Y+6378750D01*
X-2251125Y+6390375D01*
X-2251125Y+6436875D01*
X-2262750Y+6448500D01*
X-2251125Y+6448500D02*
X-2320875Y+6378750D01*
D50*
X-2171000Y+5854000D02*
X-2661000Y+5854000D01*
X-2661000Y+6084000D01*
X-2171000Y+6084000D01*
X-2171000Y+5854000D01*
X-2416000Y+6019000D02*
X-2416000Y+5919000D01*
X-2466000Y+5969000D02*
X-2366000Y+5969000D01*
D51*
X-2444200Y+5997200D02*
X-2458300Y+6011300D01*
X-2500600Y+6011300D01*
X-2528800Y+5983100D01*
X-2528800Y+5954900D01*
X-2500600Y+5926700D01*
X-2458300Y+5926700D01*
X-2444200Y+5940800D01*
X-2331400Y+5940800D02*
X-2345500Y+5926700D01*
X-2387800Y+5926700D01*
X-2401900Y+5940800D01*
X-2401900Y+5997200D01*
X-2387800Y+6011300D01*
X-2345500Y+6011300D01*
X-2331400Y+5997200D01*
X-2331400Y+5983100D01*
X-2345500Y+5969000D01*
X-2401900Y+5969000D01*
D50*
X+369000Y+6943000D02*
X+369000Y+6473000D01*
X+139000Y+6473000D01*
X+139000Y+6943000D01*
X+369000Y+6943000D01*
X+204000Y+6708000D02*
X+304000Y+6708000D01*
X+254000Y+6658000D02*
X+254000Y+6758000D01*
D51*
X+225800Y+6679800D02*
X+211700Y+6665700D01*
X+211700Y+6623400D01*
X+239900Y+6595200D01*
X+268100Y+6595200D01*
X+296300Y+6623400D01*
X+296300Y+6665700D01*
X+282200Y+6679800D01*
X+254000Y+6736200D02*
X+268100Y+6722100D01*
X+282200Y+6722100D01*
X+296300Y+6736200D01*
X+296300Y+6778500D01*
X+282200Y+6792600D01*
X+268100Y+6792600D01*
X+254000Y+6778500D01*
X+254000Y+6736200D01*
X+239900Y+6722100D01*
X+225800Y+6722100D01*
X+211700Y+6736200D01*
X+211700Y+6778500D01*
X+225800Y+6792600D01*
X+239900Y+6792600D01*
X+254000Y+6778500D01*
D50*
X+115000Y+6943000D02*
X+115000Y+6473000D01*
X-115000Y+6473000D01*
X-115000Y+6943000D01*
X+115000Y+6943000D01*
X-50000Y+6708000D02*
X+50000Y+6708000D01*
X+0Y+6658000D02*
X+0Y+6758000D01*
D51*
X-28200Y+6679800D02*
X-42300Y+6665700D01*
X-42300Y+6623400D01*
X-14100Y+6595200D01*
X+14100Y+6595200D01*
X+42300Y+6623400D01*
X+42300Y+6665700D01*
X+28200Y+6679800D01*
X+42300Y+6722100D02*
X+42300Y+6792600D01*
X+28200Y+6792600D01*
X-42300Y+6722100D01*
D50*
X-2147000Y+6473000D02*
X-2147000Y+6943000D01*
X-1917000Y+6943000D01*
X-1917000Y+6473000D01*
X-2147000Y+6473000D01*
X-1982000Y+6708000D02*
X-2082000Y+6708000D01*
X-2032000Y+6758000D02*
X-2032000Y+6658000D01*
D51*
X-2003800Y+6736200D02*
X-1989700Y+6750300D01*
X-1989700Y+6792600D01*
X-2017900Y+6820800D01*
X-2046100Y+6820800D01*
X-2074300Y+6792600D01*
X-2074300Y+6750300D01*
X-2060200Y+6736200D01*
X-2046100Y+6679800D02*
X-2074300Y+6651600D01*
X-1989700Y+6651600D01*
D50*
X+1409000Y+7118000D02*
X+1409000Y+7578000D01*
X+1639000Y+7578000D01*
X+1639000Y+7118000D01*
X+1409000Y+7118000D01*
X+1574000Y+7348000D02*
X+1474000Y+7348000D01*
X+1524000Y+7398000D02*
X+1524000Y+7298000D01*
D51*
X+1566300Y+7460800D02*
X+1481700Y+7460800D01*
X+1481700Y+7390300D01*
X+1495800Y+7376200D01*
X+1509900Y+7376200D01*
X+1524000Y+7390300D01*
X+1524000Y+7460800D01*
X+1524000Y+7390300D02*
X+1538100Y+7376200D01*
X+1566300Y+7376200D01*
X+1495800Y+7333900D02*
X+1481700Y+7319800D01*
X+1481700Y+7277500D01*
X+1495800Y+7263400D01*
X+1509900Y+7263400D01*
X+1524000Y+7277500D01*
X+1524000Y+7319800D01*
X+1538100Y+7333900D01*
X+1566300Y+7333900D01*
X+1566300Y+7263400D01*
D50*
X-1409000Y+7705000D02*
X-1409000Y+7245000D01*
X-1639000Y+7245000D01*
X-1639000Y+7705000D01*
X-1409000Y+7705000D01*
X-1574000Y+7475000D02*
X-1474000Y+7475000D01*
X-1524000Y+7425000D02*
X-1524000Y+7525000D01*
D52*
X-1489125Y+7614500D02*
X-1558875Y+7614500D01*
X-1558875Y+7556375D01*
X-1547250Y+7544750D01*
X-1535625Y+7544750D01*
X-1524000Y+7556375D01*
X-1524000Y+7614500D01*
X-1524000Y+7556375D02*
X-1512375Y+7544750D01*
X-1489125Y+7544750D01*
X-1535625Y+7498250D02*
X-1558875Y+7475000D01*
X-1489125Y+7475000D01*
X-1535625Y+7405250D02*
X-1558875Y+7382000D01*
X-1489125Y+7382000D01*
D50*
X-641000Y+7251000D02*
X-1101000Y+7251000D01*
X-1101000Y+7481000D01*
X-641000Y+7481000D01*
X-641000Y+7251000D01*
X-871000Y+7416000D02*
X-871000Y+7316000D01*
X-921000Y+7366000D02*
X-821000Y+7366000D01*
D52*
X-731500Y+7331125D02*
X-731500Y+7400875D01*
X-789625Y+7400875D01*
X-801250Y+7389250D01*
X-801250Y+7377625D01*
X-789625Y+7366000D01*
X-731500Y+7366000D01*
X-789625Y+7366000D02*
X-801250Y+7354375D01*
X-801250Y+7331125D01*
X-847750Y+7377625D02*
X-871000Y+7400875D01*
X-871000Y+7331125D01*
X-929125Y+7389250D02*
X-940750Y+7400875D01*
X-975625Y+7400875D01*
X-987250Y+7389250D01*
X-987250Y+7377625D01*
X-975625Y+7366000D01*
X-940750Y+7366000D01*
X-929125Y+7354375D01*
X-929125Y+7331125D01*
X-987250Y+7331125D01*
D50*
X-1663000Y+7705000D02*
X-1663000Y+7245000D01*
X-1893000Y+7245000D01*
X-1893000Y+7705000D01*
X-1663000Y+7705000D01*
X-1828000Y+7475000D02*
X-1728000Y+7475000D01*
X-1778000Y+7425000D02*
X-1778000Y+7525000D01*
D52*
X-1743125Y+7614500D02*
X-1812875Y+7614500D01*
X-1812875Y+7556375D01*
X-1801250Y+7544750D01*
X-1789625Y+7544750D01*
X-1778000Y+7556375D01*
X-1778000Y+7614500D01*
X-1778000Y+7556375D02*
X-1766375Y+7544750D01*
X-1743125Y+7544750D01*
X-1789625Y+7498250D02*
X-1812875Y+7475000D01*
X-1743125Y+7475000D01*
X-1801250Y+7416875D02*
X-1812875Y+7405250D01*
X-1812875Y+7370375D01*
X-1801250Y+7358750D01*
X-1789625Y+7358750D01*
X-1778000Y+7370375D01*
X-1766375Y+7358750D01*
X-1754750Y+7358750D01*
X-1743125Y+7370375D01*
X-1743125Y+7405250D01*
X-1754750Y+7416875D01*
X-1778000Y+7393625D02*
X-1778000Y+7370375D01*
D18*
X-1320800Y+7536180D02*
X-904240Y+7536180D01*
X-904240Y+7703820D01*
X-1320800Y+7703820D01*
X-1320800Y+7536180D01*
D53*
X-1032053Y+7589824D02*
X-1032053Y+7650175D01*
X-1072286Y+7650175D01*
X-1092403Y+7630058D01*
X-1092403Y+7609941D01*
X-1072286Y+7589824D01*
X-1032053Y+7589824D01*
X-1132636Y+7630058D02*
X-1152753Y+7650175D01*
X-1152753Y+7589824D01*
D18*
X-685800Y+7536180D02*
X-269240Y+7536180D01*
X-269240Y+7703820D01*
X-685800Y+7703820D01*
X-685800Y+7536180D01*
D53*
X-397053Y+7589824D02*
X-397053Y+7650175D01*
X-437286Y+7650175D01*
X-457403Y+7630058D01*
X-457403Y+7609941D01*
X-437286Y+7589824D01*
X-397053Y+7589824D01*
X-487578Y+7640116D02*
X-497636Y+7650175D01*
X-527811Y+7650175D01*
X-537870Y+7640116D01*
X-537870Y+7630058D01*
X-527811Y+7620000D01*
X-497636Y+7620000D01*
X-487578Y+7609941D01*
X-487578Y+7589824D01*
X-537870Y+7589824D01*
D18*
X-2397760Y+7536180D02*
X-1981200Y+7536180D01*
X-1981200Y+7703820D01*
X-2397760Y+7703820D01*
X-2397760Y+7536180D01*
D53*
X-2269947Y+7650176D02*
X-2269947Y+7589825D01*
X-2229714Y+7589825D01*
X-2209597Y+7609942D01*
X-2209597Y+7630059D01*
X-2229714Y+7650176D01*
X-2269947Y+7650176D01*
X-2179422Y+7599884D02*
X-2169364Y+7589825D01*
X-2139189Y+7589825D01*
X-2129130Y+7599884D01*
X-2129130Y+7609942D01*
X-2139189Y+7620000D01*
X-2129130Y+7630059D01*
X-2129130Y+7640117D01*
X-2139189Y+7650176D01*
X-2169364Y+7650176D01*
X-2179422Y+7640117D01*
X-2159305Y+7620000D02*
X-2139189Y+7620000D01*
D18*
X+2204720Y+6502400D02*
X+2865120Y+6502400D01*
X+2865120Y+7335520D01*
X+2204720Y+7335520D01*
X+2204720Y+6502400D01*
D54*
X+2576576Y+6641255D02*
X+2507149Y+6641255D01*
X+2493264Y+6655140D01*
X+2493264Y+6710681D01*
X+2507149Y+6724566D01*
X+2576576Y+6724566D01*
X+2493264Y+6752337D02*
X+2548805Y+6752337D01*
X+2576576Y+6780107D01*
X+2576576Y+6807878D01*
X+2548805Y+6835648D01*
X+2493264Y+6835648D01*
X+2521035Y+6752337D02*
X+2521035Y+6835648D01*
X+2507149Y+6905074D02*
X+2507149Y+6918960D01*
X+2493264Y+6918960D01*
X+2493264Y+6905074D01*
X+2507149Y+6905074D01*
X+2576576Y+7057812D02*
X+2576576Y+6988386D01*
X+2548805Y+6988386D01*
X+2548805Y+7043927D01*
X+2534920Y+7057812D01*
X+2507149Y+7057812D01*
X+2493264Y+7043927D01*
X+2493264Y+7002271D01*
X+2507149Y+6988386D01*
X+2576576Y+7085583D02*
X+2534920Y+7085583D01*
X+2493264Y+7127238D01*
X+2534920Y+7168894D01*
X+2576576Y+7168894D01*
D50*
X+2201000Y+7608000D02*
X+2671000Y+7608000D01*
X+2671000Y+7378000D01*
X+2201000Y+7378000D01*
X+2201000Y+7608000D01*
X+2436000Y+7443000D02*
X+2436000Y+7543000D01*
X+2486000Y+7493000D02*
X+2386000Y+7493000D01*
D55*
X+2531000Y+7474000D02*
X+2540500Y+7464500D01*
X+2569000Y+7464500D01*
X+2588000Y+7483500D01*
X+2588000Y+7502500D01*
X+2569000Y+7521500D01*
X+2540500Y+7521500D01*
X+2531000Y+7512000D01*
X+2493000Y+7502500D02*
X+2474000Y+7521500D01*
X+2474000Y+7464500D01*
X+2436000Y+7474000D02*
X+2436000Y+7512000D01*
X+2426500Y+7521500D01*
X+2388500Y+7521500D01*
X+2379000Y+7512000D01*
X+2379000Y+7474000D01*
X+2388500Y+7464500D01*
X+2426500Y+7464500D01*
X+2436000Y+7474000D01*
X+2436000Y+7464500D02*
X+2379000Y+7521500D01*
X+2303000Y+7512000D02*
X+2312500Y+7521500D01*
X+2341000Y+7521500D01*
X+2350500Y+7512000D01*
X+2350500Y+7474000D01*
X+2341000Y+7464500D01*
X+2312500Y+7464500D01*
X+2303000Y+7474000D01*
X+2303000Y+7483500D01*
X+2312500Y+7493000D01*
X+2350500Y+7493000D01*
D50*
X+1639000Y+6943000D02*
X+1639000Y+6473000D01*
X+1409000Y+6473000D01*
X+1409000Y+6943000D01*
X+1639000Y+6943000D01*
X+1474000Y+6708000D02*
X+1574000Y+6708000D01*
X+1524000Y+6658000D02*
X+1524000Y+6758000D01*
D55*
X+1543000Y+6803000D02*
X+1552500Y+6812500D01*
X+1552500Y+6841000D01*
X+1533500Y+6860000D01*
X+1514500Y+6860000D01*
X+1495500Y+6841000D01*
X+1495500Y+6812500D01*
X+1505000Y+6803000D01*
X+1514500Y+6765000D02*
X+1495500Y+6746000D01*
X+1552500Y+6746000D01*
X+1543000Y+6708000D02*
X+1505000Y+6708000D01*
X+1495500Y+6698500D01*
X+1495500Y+6660500D01*
X+1505000Y+6651000D01*
X+1543000Y+6651000D01*
X+1552500Y+6660500D01*
X+1552500Y+6698500D01*
X+1543000Y+6708000D01*
X+1552500Y+6708000D02*
X+1495500Y+6651000D01*
X+1495500Y+6622500D02*
X+1495500Y+6575000D01*
X+1505000Y+6575000D01*
X+1552500Y+6622500D01*
D50*
X-1663000Y+5836000D02*
X-1663000Y+5376000D01*
X-1893000Y+5376000D01*
X-1893000Y+5836000D01*
X-1663000Y+5836000D01*
X-1828000Y+5606000D02*
X-1728000Y+5606000D01*
X-1778000Y+5556000D02*
X-1778000Y+5656000D01*
D56*
X-1750100Y+5754800D02*
X-1805900Y+5754800D01*
X-1805900Y+5708300D01*
X-1796600Y+5699000D01*
X-1787300Y+5699000D01*
X-1778000Y+5708300D01*
X-1778000Y+5754800D01*
X-1778000Y+5708300D02*
X-1768700Y+5699000D01*
X-1750100Y+5699000D01*
X-1796600Y+5671100D02*
X-1805900Y+5661800D01*
X-1805900Y+5633900D01*
X-1796600Y+5624600D01*
X-1787300Y+5624600D01*
X-1778000Y+5633900D01*
X-1778000Y+5661800D01*
X-1768700Y+5671100D01*
X-1750100Y+5671100D01*
X-1750100Y+5624600D01*
X-1759400Y+5606000D02*
X-1796600Y+5606000D01*
X-1805900Y+5596700D01*
X-1805900Y+5559500D01*
X-1796600Y+5550200D01*
X-1759400Y+5550200D01*
X-1750100Y+5559500D01*
X-1750100Y+5596700D01*
X-1759400Y+5606000D01*
X-1750100Y+5606000D02*
X-1805900Y+5550200D01*
X-1787300Y+5513000D02*
X-1805900Y+5494400D01*
X-1750100Y+5494400D01*
D50*
X-2147000Y+5376000D02*
X-2147000Y+5836000D01*
X-1917000Y+5836000D01*
X-1917000Y+5376000D01*
X-2147000Y+5376000D01*
X-1982000Y+5606000D02*
X-2082000Y+5606000D01*
X-2032000Y+5656000D02*
X-2032000Y+5556000D01*
D56*
X-2004100Y+5754800D02*
X-2059900Y+5754800D01*
X-2059900Y+5708300D01*
X-2050600Y+5699000D01*
X-2041300Y+5699000D01*
X-2032000Y+5708300D01*
X-2032000Y+5754800D01*
X-2032000Y+5708300D02*
X-2022700Y+5699000D01*
X-2004100Y+5699000D01*
X-2050600Y+5671100D02*
X-2059900Y+5661800D01*
X-2059900Y+5633900D01*
X-2050600Y+5624600D01*
X-2041300Y+5624600D01*
X-2032000Y+5633900D01*
X-2032000Y+5661800D01*
X-2022700Y+5671100D01*
X-2004100Y+5671100D01*
X-2004100Y+5624600D01*
X-2013400Y+5606000D02*
X-2050600Y+5606000D01*
X-2059900Y+5596700D01*
X-2059900Y+5559500D01*
X-2050600Y+5550200D01*
X-2013400Y+5550200D01*
X-2004100Y+5559500D01*
X-2004100Y+5596700D01*
X-2013400Y+5606000D01*
X-2004100Y+5606000D02*
X-2059900Y+5550200D01*
X-2050600Y+5522300D02*
X-2059900Y+5513000D01*
X-2059900Y+5485100D01*
X-2050600Y+5475800D01*
X-2041300Y+5475800D01*
X-2032000Y+5485100D01*
X-2032000Y+5513000D01*
X-2022700Y+5522300D01*
X-2004100Y+5522300D01*
X-2004100Y+5475800D01*
D50*
X-2401000Y+5376000D02*
X-2401000Y+5846000D01*
X-2171000Y+5846000D01*
X-2171000Y+5376000D01*
X-2401000Y+5376000D01*
X-2236000Y+5611000D02*
X-2336000Y+5611000D01*
X-2286000Y+5661000D02*
X-2286000Y+5561000D01*
D55*
X-2267000Y+5706000D02*
X-2257500Y+5715500D01*
X-2257500Y+5744000D01*
X-2276500Y+5763000D01*
X-2295500Y+5763000D01*
X-2314500Y+5744000D01*
X-2314500Y+5715500D01*
X-2305000Y+5706000D01*
X-2305000Y+5677500D02*
X-2314500Y+5668000D01*
X-2314500Y+5639500D01*
X-2305000Y+5630000D01*
X-2295500Y+5630000D01*
X-2286000Y+5639500D01*
X-2286000Y+5668000D01*
X-2276500Y+5677500D01*
X-2257500Y+5677500D01*
X-2257500Y+5630000D01*
X-2267000Y+5611000D02*
X-2305000Y+5611000D01*
X-2314500Y+5601500D01*
X-2314500Y+5563500D01*
X-2305000Y+5554000D01*
X-2267000Y+5554000D01*
X-2257500Y+5563500D01*
X-2257500Y+5601500D01*
X-2267000Y+5611000D01*
X-2257500Y+5611000D02*
X-2314500Y+5554000D01*
X-2295500Y+5516000D02*
X-2314500Y+5497000D01*
X-2257500Y+5497000D01*
D50*
X-121000Y+7735000D02*
X+339000Y+7735000D01*
X+339000Y+7505000D01*
X-121000Y+7505000D01*
X-121000Y+7735000D01*
X+109000Y+7570000D02*
X+109000Y+7670000D01*
X+159000Y+7620000D02*
X+59000Y+7620000D01*
D51*
X+221800Y+7577700D02*
X+221800Y+7662300D01*
X+151300Y+7662300D01*
X+137200Y+7648200D01*
X+137200Y+7634100D01*
X+151300Y+7620000D01*
X+221800Y+7620000D01*
X+151300Y+7620000D02*
X+137200Y+7605900D01*
X+137200Y+7577700D01*
X+24400Y+7605900D02*
X+109000Y+7605900D01*
X+52600Y+7662300D01*
X+52600Y+7577700D01*
D50*
X-121000Y+7481000D02*
X+339000Y+7481000D01*
X+339000Y+7251000D01*
X-121000Y+7251000D01*
X-121000Y+7481000D01*
X+109000Y+7316000D02*
X+109000Y+7416000D01*
X+159000Y+7366000D02*
X+59000Y+7366000D01*
D51*
X+221800Y+7323700D02*
X+221800Y+7408300D01*
X+151300Y+7408300D01*
X+137200Y+7394200D01*
X+137200Y+7380100D01*
X+151300Y+7366000D01*
X+221800Y+7366000D01*
X+151300Y+7366000D02*
X+137200Y+7351900D01*
X+137200Y+7323700D01*
X+24400Y+7408300D02*
X+94900Y+7408300D01*
X+94900Y+7380100D01*
X+38500Y+7380100D01*
X+24400Y+7366000D01*
X+24400Y+7337800D01*
X+38500Y+7323700D01*
X+80800Y+7323700D01*
X+94900Y+7337800D01*
D50*
X-1409000Y+5836000D02*
X-1409000Y+5376000D01*
X-1639000Y+5376000D01*
X-1639000Y+5836000D01*
X-1409000Y+5836000D01*
X-1574000Y+5606000D02*
X-1474000Y+5606000D01*
X-1524000Y+5556000D02*
X-1524000Y+5656000D01*
D52*
X-1489125Y+5745500D02*
X-1558875Y+5745500D01*
X-1558875Y+5687375D01*
X-1547250Y+5675750D01*
X-1535625Y+5675750D01*
X-1524000Y+5687375D01*
X-1524000Y+5745500D01*
X-1524000Y+5687375D02*
X-1512375Y+5675750D01*
X-1489125Y+5675750D01*
X-1547250Y+5640875D02*
X-1558875Y+5629250D01*
X-1558875Y+5594375D01*
X-1547250Y+5582750D01*
X-1535625Y+5582750D01*
X-1524000Y+5594375D01*
X-1512375Y+5582750D01*
X-1500750Y+5582750D01*
X-1489125Y+5594375D01*
X-1489125Y+5629250D01*
X-1500750Y+5640875D01*
X-1524000Y+5617625D02*
X-1524000Y+5594375D01*
X-1524000Y+5536250D02*
X-1535625Y+5547875D01*
X-1547250Y+5547875D01*
X-1558875Y+5536250D01*
X-1558875Y+5501375D01*
X-1547250Y+5489750D01*
X-1535625Y+5489750D01*
X-1524000Y+5501375D01*
X-1524000Y+5536250D01*
X-1512375Y+5547875D01*
X-1500750Y+5547875D01*
X-1489125Y+5536250D01*
X-1489125Y+5501375D01*
X-1500750Y+5489750D01*
X-1512375Y+5489750D01*
X-1524000Y+5501375D01*
D50*
X-1409000Y+6943000D02*
X-1409000Y+6483000D01*
X-1639000Y+6483000D01*
X-1639000Y+6943000D01*
X-1409000Y+6943000D01*
X-1574000Y+6713000D02*
X-1474000Y+6713000D01*
X-1524000Y+6663000D02*
X-1524000Y+6763000D01*
D52*
X-1489125Y+6852500D02*
X-1558875Y+6852500D01*
X-1558875Y+6794375D01*
X-1547250Y+6782750D01*
X-1535625Y+6782750D01*
X-1524000Y+6794375D01*
X-1524000Y+6852500D01*
X-1524000Y+6794375D02*
X-1512375Y+6782750D01*
X-1489125Y+6782750D01*
X-1547250Y+6747875D02*
X-1558875Y+6736250D01*
X-1558875Y+6701375D01*
X-1547250Y+6689750D01*
X-1535625Y+6689750D01*
X-1524000Y+6701375D01*
X-1512375Y+6689750D01*
X-1500750Y+6689750D01*
X-1489125Y+6701375D01*
X-1489125Y+6736250D01*
X-1500750Y+6747875D01*
X-1524000Y+6724625D02*
X-1524000Y+6701375D01*
X-1535625Y+6596750D02*
X-1524000Y+6608375D01*
X-1524000Y+6643250D01*
X-1535625Y+6654875D01*
X-1547250Y+6654875D01*
X-1558875Y+6643250D01*
X-1558875Y+6608375D01*
X-1547250Y+6596750D01*
X-1500750Y+6596750D01*
X-1489125Y+6608375D01*
X-1489125Y+6643250D01*
D50*
X-1663000Y+6943000D02*
X-1663000Y+6473000D01*
X-1893000Y+6473000D01*
X-1893000Y+6943000D01*
X-1663000Y+6943000D01*
X-1828000Y+6708000D02*
X-1728000Y+6708000D01*
X-1778000Y+6658000D02*
X-1778000Y+6758000D01*
D57*
X-1754250Y+6779250D02*
X-1742375Y+6791125D01*
X-1742375Y+6826750D01*
X-1766125Y+6850500D01*
X-1789875Y+6850500D01*
X-1813625Y+6826750D01*
X-1813625Y+6791125D01*
X-1801750Y+6779250D01*
X-1801750Y+6743625D02*
X-1813625Y+6731750D01*
X-1813625Y+6696125D01*
X-1801750Y+6684250D01*
X-1789875Y+6684250D01*
X-1778000Y+6696125D01*
X-1766125Y+6684250D01*
X-1754250Y+6684250D01*
X-1742375Y+6696125D01*
X-1742375Y+6731750D01*
X-1754250Y+6743625D01*
X-1778000Y+6719875D02*
X-1778000Y+6696125D01*
X-1789875Y+6636750D02*
X-1813625Y+6613000D01*
X-1742375Y+6613000D01*
D50*
X-901000Y+5836000D02*
X-901000Y+5376000D01*
X-1131000Y+5376000D01*
X-1131000Y+5836000D01*
X-901000Y+5836000D01*
X-1066000Y+5606000D02*
X-966000Y+5606000D01*
X-1016000Y+5556000D02*
X-1016000Y+5656000D01*
D52*
X-981125Y+5745500D02*
X-1050875Y+5745500D01*
X-1050875Y+5687375D01*
X-1039250Y+5675750D01*
X-1027625Y+5675750D01*
X-1016000Y+5687375D01*
X-1016000Y+5745500D01*
X-1016000Y+5687375D02*
X-1004375Y+5675750D01*
X-981125Y+5675750D01*
X-1027625Y+5629250D02*
X-1050875Y+5606000D01*
X-981125Y+5606000D01*
X-1050875Y+5547875D02*
X-1050875Y+5489750D01*
X-1039250Y+5489750D01*
X-981125Y+5547875D01*
D50*
X-266000Y+5836000D02*
X-266000Y+5376000D01*
X-496000Y+5376000D01*
X-496000Y+5836000D01*
X-266000Y+5836000D01*
X-431000Y+5606000D02*
X-331000Y+5606000D01*
X-381000Y+5556000D02*
X-381000Y+5656000D01*
D52*
X-346125Y+5745500D02*
X-415875Y+5745500D01*
X-415875Y+5687375D01*
X-404250Y+5675750D01*
X-392625Y+5675750D01*
X-381000Y+5687375D01*
X-381000Y+5745500D01*
X-381000Y+5687375D02*
X-369375Y+5675750D01*
X-346125Y+5675750D01*
X-392625Y+5629250D02*
X-415875Y+5606000D01*
X-346125Y+5606000D01*
X-381000Y+5536250D02*
X-392625Y+5547875D01*
X-404250Y+5547875D01*
X-415875Y+5536250D01*
X-415875Y+5501375D01*
X-404250Y+5489750D01*
X-392625Y+5489750D01*
X-381000Y+5501375D01*
X-381000Y+5536250D01*
X-369375Y+5547875D01*
X-357750Y+5547875D01*
X-346125Y+5536250D01*
X-346125Y+5501375D01*
X-357750Y+5489750D01*
X-369375Y+5489750D01*
X-381000Y+5501375D01*
D50*
X-901000Y+6943000D02*
X-901000Y+6473000D01*
X-1131000Y+6473000D01*
X-1131000Y+6943000D01*
X-901000Y+6943000D01*
X-1066000Y+6708000D02*
X-966000Y+6708000D01*
X-1016000Y+6658000D02*
X-1016000Y+6758000D01*
D51*
X-987800Y+6736200D02*
X-973700Y+6750300D01*
X-973700Y+6792600D01*
X-1001900Y+6820800D01*
X-1030100Y+6820800D01*
X-1058300Y+6792600D01*
X-1058300Y+6750300D01*
X-1044200Y+6736200D01*
X-1058300Y+6623400D02*
X-1058300Y+6693900D01*
X-1030100Y+6693900D01*
X-1030100Y+6637500D01*
X-1016000Y+6623400D01*
X-987800Y+6623400D01*
X-973700Y+6637500D01*
X-973700Y+6679800D01*
X-987800Y+6693900D01*
D50*
X-1155000Y+5836000D02*
X-1155000Y+5376000D01*
X-1385000Y+5376000D01*
X-1385000Y+5836000D01*
X-1155000Y+5836000D01*
X-1320000Y+5606000D02*
X-1220000Y+5606000D01*
X-1270000Y+5556000D02*
X-1270000Y+5656000D01*
D51*
X-1227700Y+5718800D02*
X-1312300Y+5718800D01*
X-1312300Y+5648300D01*
X-1298200Y+5634200D01*
X-1284100Y+5634200D01*
X-1270000Y+5648300D01*
X-1270000Y+5718800D01*
X-1270000Y+5648300D02*
X-1255900Y+5634200D01*
X-1227700Y+5634200D01*
X-1284100Y+5577800D02*
X-1312300Y+5549600D01*
X-1227700Y+5549600D01*
D50*
X-1155000Y+6943000D02*
X-1155000Y+6483000D01*
X-1385000Y+6483000D01*
X-1385000Y+6943000D01*
X-1155000Y+6943000D01*
X-1320000Y+6713000D02*
X-1220000Y+6713000D01*
X-1270000Y+6663000D02*
X-1270000Y+6763000D01*
D51*
X-1227700Y+6825800D02*
X-1312300Y+6825800D01*
X-1312300Y+6755300D01*
X-1298200Y+6741200D01*
X-1284100Y+6741200D01*
X-1270000Y+6755300D01*
X-1270000Y+6825800D01*
X-1270000Y+6755300D02*
X-1255900Y+6741200D01*
X-1227700Y+6741200D01*
X-1298200Y+6698900D02*
X-1312300Y+6684800D01*
X-1312300Y+6642500D01*
X-1298200Y+6628400D01*
X-1284100Y+6628400D01*
X-1270000Y+6642500D01*
X-1255900Y+6628400D01*
X-1241800Y+6628400D01*
X-1227700Y+6642500D01*
X-1227700Y+6684800D01*
X-1241800Y+6698900D01*
X-1270000Y+6670700D02*
X-1270000Y+6642500D01*
D18*
X+1894840Y+5124450D02*
X+2677160Y+5124450D01*
X+2677160Y+6178550D01*
X+1894840Y+6178550D01*
X+1894840Y+5124450D01*
D58*
X+2316117Y+6012904D02*
X+2331175Y+5997846D01*
X+2331175Y+5937612D01*
X+2316117Y+5922553D01*
X+2301058Y+5922553D01*
X+2286000Y+5937612D01*
X+2286000Y+5997846D01*
X+2270941Y+6012904D01*
X+2255883Y+6012904D01*
X+2240824Y+5997846D01*
X+2240824Y+5937612D01*
X+2255883Y+5922553D01*
X+2331175Y+5892436D02*
X+2240824Y+5892436D01*
X+2240824Y+5802085D02*
X+2331175Y+5802085D01*
X+2286000Y+5892436D02*
X+2286000Y+5802085D01*
X+2240824Y+5771968D02*
X+2316117Y+5771968D01*
X+2331175Y+5756910D01*
X+2331175Y+5696676D01*
X+2316117Y+5681617D01*
X+2240824Y+5681617D01*
X+2331175Y+5651500D02*
X+2240824Y+5651500D01*
X+2331175Y+5561149D01*
X+2240824Y+5561149D01*
X+2240824Y+5531032D02*
X+2240824Y+5440681D01*
X+2240824Y+5485857D02*
X+2331175Y+5485857D01*
X+2270941Y+5380447D02*
X+2240824Y+5350330D01*
X+2331175Y+5350330D01*
D50*
X+738500Y+5366000D02*
X+738500Y+5986000D01*
X+1098500Y+5986000D01*
X+1098500Y+5366000D01*
X+738500Y+5366000D01*
X+968500Y+5676000D02*
X+868500Y+5676000D01*
X+918500Y+5726000D02*
X+918500Y+5626000D01*
D59*
X+856000Y+5842666D02*
X+960167Y+5842666D01*
X+981000Y+5821833D01*
X+981000Y+5738500D01*
X+960167Y+5717667D01*
X+856000Y+5717667D01*
X+897667Y+5634334D02*
X+856000Y+5592667D01*
X+981000Y+5592667D01*
D50*
X-520000Y+5846000D02*
X-520000Y+5376000D01*
X-750000Y+5376000D01*
X-750000Y+5846000D01*
X-520000Y+5846000D01*
X-685000Y+5611000D02*
X-585000Y+5611000D01*
X-635000Y+5561000D02*
X-635000Y+5661000D01*
D51*
X-606800Y+5639200D02*
X-592700Y+5653300D01*
X-592700Y+5695600D01*
X-620900Y+5723800D01*
X-649100Y+5723800D01*
X-677300Y+5695600D01*
X-677300Y+5653300D01*
X-663200Y+5639200D01*
X-663200Y+5596900D02*
X-677300Y+5582800D01*
X-677300Y+5540500D01*
X-663200Y+5526400D01*
X-649100Y+5526400D01*
X-635000Y+5540500D01*
X-635000Y+5582800D01*
X-620900Y+5596900D01*
X-592700Y+5596900D01*
X-592700Y+5526400D01*
D50*
X+1766000Y+5927000D02*
X+1766000Y+5457000D01*
X+1536000Y+5457000D01*
X+1536000Y+5927000D01*
X+1766000Y+5927000D01*
X+1601000Y+5692000D02*
X+1701000Y+5692000D01*
X+1651000Y+5642000D02*
X+1651000Y+5742000D01*
D51*
X+1679200Y+5720200D02*
X+1693300Y+5734300D01*
X+1693300Y+5776600D01*
X+1665100Y+5804800D01*
X+1636900Y+5804800D01*
X+1608700Y+5776600D01*
X+1608700Y+5734300D01*
X+1622800Y+5720200D01*
X+1665100Y+5607400D02*
X+1665100Y+5692000D01*
X+1608700Y+5635600D01*
X+1693300Y+5635600D01*
D50*
X-550000Y+5854000D02*
X-1020000Y+5854000D01*
X-1020000Y+6084000D01*
X-550000Y+6084000D01*
X-550000Y+5854000D01*
X-785000Y+6019000D02*
X-785000Y+5919000D01*
X-835000Y+5969000D02*
X-735000Y+5969000D01*
D57*
X-713750Y+5945250D02*
X-701875Y+5933375D01*
X-666250Y+5933375D01*
X-642500Y+5957125D01*
X-642500Y+5980875D01*
X-666250Y+6004625D01*
X-701875Y+6004625D01*
X-713750Y+5992750D01*
X-761250Y+5980875D02*
X-785000Y+6004625D01*
X-785000Y+5933375D01*
X-844375Y+5992750D02*
X-856250Y+6004625D01*
X-891875Y+6004625D01*
X-903750Y+5992750D01*
X-903750Y+5980875D01*
X-891875Y+5969000D01*
X-903750Y+5957125D01*
X-903750Y+5945250D01*
X-891875Y+5933375D01*
X-856250Y+5933375D01*
X-844375Y+5945250D01*
X-868125Y+5969000D02*
X-891875Y+5969000D01*
D50*
X+1004000Y+6943000D02*
X+1004000Y+6473000D01*
X+774000Y+6473000D01*
X+774000Y+6943000D01*
X+1004000Y+6943000D01*
X+839000Y+6708000D02*
X+939000Y+6708000D01*
X+889000Y+6658000D02*
X+889000Y+6758000D01*
D57*
X+912750Y+6779250D02*
X+924625Y+6791125D01*
X+924625Y+6826750D01*
X+900875Y+6850500D01*
X+877125Y+6850500D01*
X+853375Y+6826750D01*
X+853375Y+6791125D01*
X+865250Y+6779250D01*
X+877125Y+6731750D02*
X+853375Y+6708000D01*
X+924625Y+6708000D01*
X+900875Y+6589250D02*
X+900875Y+6660500D01*
X+853375Y+6613000D01*
X+924625Y+6613000D01*
M02*
