G04 PROTEUS RS274X GERBER FILE*
%FSLAX45Y45*%
%MOMM*%
G01*
%ADD73C,1.016000*%
%ADD30C,1.524000*%
%AMPPAD025*
4,1,36,
-1.016000,1.143000,
1.016000,1.143000,
1.041970,1.140470,
1.065980,1.133200,
1.087580,1.121650,
1.106290,1.106290,
1.121650,1.087570,
1.133200,1.065980,
1.140470,1.041970,
1.143000,1.016000,
1.143000,-1.016000,
1.140470,-1.041970,
1.133200,-1.065980,
1.121650,-1.087570,
1.106290,-1.106290,
1.087580,-1.121650,
1.065980,-1.133200,
1.041970,-1.140470,
1.016000,-1.143000,
-1.016000,-1.143000,
-1.041970,-1.140470,
-1.065980,-1.133200,
-1.087580,-1.121650,
-1.106290,-1.106290,
-1.121650,-1.087570,
-1.133200,-1.065980,
-1.140470,-1.041970,
-1.143000,-1.016000,
-1.143000,1.016000,
-1.140470,1.041970,
-1.133200,1.065980,
-1.121650,1.087570,
-1.106290,1.106290,
-1.087580,1.121650,
-1.065980,1.133200,
-1.041970,1.140470,
-1.016000,1.143000,
0*%
%ADD31PPAD025*%
%AMPPAD029*
4,1,4,
0.571500,0.901700,
-0.571500,0.901700,
-0.571500,-0.901700,
0.571500,-0.901700,
0.571500,0.901700,
0*%
%ADD35PPAD029*%
%AMPPAD030*
4,1,4,
0.901700,-0.571500,
0.901700,0.571500,
-0.901700,0.571500,
-0.901700,-0.571500,
0.901700,-0.571500,
0*%
%ADD36PPAD030*%
%AMPPAD031*
4,1,4,
0.901700,-0.622300,
0.901700,0.622300,
-0.901700,0.622300,
-0.901700,-0.622300,
0.901700,-0.622300,
0*%
%ADD37PPAD031*%
%ADD32C,2.794000*%
%AMPPAD032*
4,1,36,
-0.508000,-0.889000,
0.508000,-0.889000,
0.533970,-0.886470,
0.557980,-0.879200,
0.579580,-0.867650,
0.598290,-0.852290,
0.613650,-0.833570,
0.625200,-0.811980,
0.632470,-0.787970,
0.635000,-0.762000,
0.635000,0.762000,
0.632470,0.787970,
0.625200,0.811980,
0.613650,0.833570,
0.598290,0.852290,
0.579580,0.867650,
0.557980,0.879200,
0.533970,0.886470,
0.508000,0.889000,
-0.508000,0.889000,
-0.533970,0.886470,
-0.557980,0.879200,
-0.579580,0.867650,
-0.598290,0.852290,
-0.613650,0.833570,
-0.625200,0.811980,
-0.632470,0.787970,
-0.635000,0.762000,
-0.635000,-0.762000,
-0.632470,-0.787970,
-0.625200,-0.811980,
-0.613650,-0.833570,
-0.598290,-0.852290,
-0.579580,-0.867650,
-0.557980,-0.879200,
-0.533970,-0.886470,
-0.508000,-0.889000,
0*%
%ADD38PPAD032*%
%AMPPAD027*
4,1,36,
-0.889000,1.016000,
0.889000,1.016000,
0.914970,1.013470,
0.938980,1.006200,
0.960580,0.994650,
0.979290,0.979290,
0.994650,0.960570,
1.006200,0.938980,
1.013470,0.914970,
1.016000,0.889000,
1.016000,-0.889000,
1.013470,-0.914970,
1.006200,-0.938980,
0.994650,-0.960570,
0.979290,-0.979290,
0.960580,-0.994650,
0.938980,-1.006200,
0.914970,-1.013470,
0.889000,-1.016000,
-0.889000,-1.016000,
-0.914970,-1.013470,
-0.938980,-1.006200,
-0.960580,-0.994650,
-0.979290,-0.979290,
-0.994650,-0.960570,
-1.006200,-0.938980,
-1.013470,-0.914970,
-1.016000,-0.889000,
-1.016000,0.889000,
-1.013470,0.914970,
-1.006200,0.938980,
-0.994650,0.960570,
-0.979290,0.979290,
-0.960580,0.994650,
-0.938980,1.006200,
-0.914970,1.013470,
-0.889000,1.016000,
0*%
%ADD33PPAD027*%
%AMPPAD033*
4,1,36,
-0.762000,-1.143000,
0.762000,-1.143000,
0.787970,-1.140470,
0.811980,-1.133200,
0.833580,-1.121650,
0.852290,-1.106290,
0.867650,-1.087570,
0.879200,-1.065980,
0.886470,-1.041970,
0.889000,-1.016000,
0.889000,1.016000,
0.886470,1.041970,
0.879200,1.065980,
0.867650,1.087570,
0.852290,1.106290,
0.833580,1.121650,
0.811980,1.133200,
0.787970,1.140470,
0.762000,1.143000,
-0.762000,1.143000,
-0.787970,1.140470,
-0.811980,1.133200,
-0.833580,1.121650,
-0.852290,1.106290,
-0.867650,1.087570,
-0.879200,1.065980,
-0.886470,1.041970,
-0.889000,1.016000,
-0.889000,-1.016000,
-0.886470,-1.041970,
-0.879200,-1.065980,
-0.867650,-1.087570,
-0.852290,-1.106290,
-0.833580,-1.121650,
-0.811980,-1.133200,
-0.787970,-1.140470,
-0.762000,-1.143000,
0*%
%ADD39PPAD033*%
%AMPPAD034*
4,1,36,
2.032000,-1.016000,
2.032000,1.016000,
2.029470,1.041970,
2.022200,1.065980,
2.010650,1.087580,
1.995290,1.106290,
1.976570,1.121650,
1.954980,1.133200,
1.930970,1.140470,
1.905000,1.143000,
-1.905000,1.143000,
-1.930970,1.140470,
-1.954980,1.133200,
-1.976570,1.121650,
-1.995290,1.106290,
-2.010650,1.087580,
-2.022200,1.065980,
-2.029470,1.041970,
-2.032000,1.016000,
-2.032000,-1.016000,
-2.029470,-1.041970,
-2.022200,-1.065980,
-2.010650,-1.087580,
-1.995290,-1.106290,
-1.976570,-1.121650,
-1.954980,-1.133200,
-1.930970,-1.140470,
-1.905000,-1.143000,
1.905000,-1.143000,
1.930970,-1.140470,
1.954980,-1.133200,
1.976570,-1.121650,
1.995290,-1.106290,
2.010650,-1.087580,
2.022200,-1.065980,
2.029470,-1.041970,
2.032000,-1.016000,
0*%
%ADD40PPAD034*%
%AMPPAD035*
4,1,36,
-2.413000,0.825500,
-2.413000,-0.825500,
-2.410470,-0.851470,
-2.403200,-0.875480,
-2.391650,-0.897080,
-2.376290,-0.915790,
-2.357570,-0.931150,
-2.335980,-0.942700,
-2.311970,-0.949970,
-2.286000,-0.952500,
2.286000,-0.952500,
2.311970,-0.949970,
2.335980,-0.942700,
2.357570,-0.931150,
2.376290,-0.915790,
2.391650,-0.897080,
2.403200,-0.875480,
2.410470,-0.851470,
2.413000,-0.825500,
2.413000,0.825500,
2.410470,0.851470,
2.403200,0.875480,
2.391650,0.897080,
2.376290,0.915790,
2.357570,0.931150,
2.335980,0.942700,
2.311970,0.949970,
2.286000,0.952500,
-2.286000,0.952500,
-2.311970,0.949970,
-2.335980,0.942700,
-2.357570,0.931150,
-2.376290,0.915790,
-2.391650,0.897080,
-2.403200,0.875480,
-2.410470,0.851470,
-2.413000,0.825500,
0*%
%ADD41PPAD035*%
%AMPPAD036*
4,1,36,
-0.952500,0.825500,
-0.952500,-0.825500,
-0.949970,-0.851470,
-0.942700,-0.875480,
-0.931150,-0.897080,
-0.915790,-0.915790,
-0.897070,-0.931150,
-0.875480,-0.942700,
-0.851470,-0.949970,
-0.825500,-0.952500,
0.825500,-0.952500,
0.851470,-0.949970,
0.875480,-0.942700,
0.897070,-0.931150,
0.915790,-0.915790,
0.931150,-0.897080,
0.942700,-0.875480,
0.949970,-0.851470,
0.952500,-0.825500,
0.952500,0.825500,
0.949970,0.851470,
0.942700,0.875480,
0.931150,0.897080,
0.915790,0.915790,
0.897070,0.931150,
0.875480,0.942700,
0.851470,0.949970,
0.825500,0.952500,
-0.825500,0.952500,
-0.851470,0.949970,
-0.875480,0.942700,
-0.897070,0.931150,
-0.915790,0.915790,
-0.931150,0.897080,
-0.942700,0.875480,
-0.949970,0.851470,
-0.952500,0.825500,
0*%
%ADD42PPAD036*%
%ADD34C,4.064000*%
%AMPPAD037*
4,1,36,
-0.152400,1.016000,
0.152400,1.016000,
0.178370,1.013470,
0.202380,1.006200,
0.223980,0.994650,
0.242690,0.979290,
0.258050,0.960570,
0.269600,0.938980,
0.276870,0.914970,
0.279400,0.889000,
0.279400,-0.889000,
0.276870,-0.914970,
0.269600,-0.938980,
0.258050,-0.960570,
0.242690,-0.979290,
0.223980,-0.994650,
0.202380,-1.006200,
0.178370,-1.013470,
0.152400,-1.016000,
-0.152400,-1.016000,
-0.178370,-1.013470,
-0.202380,-1.006200,
-0.223980,-0.994650,
-0.242690,-0.979290,
-0.258050,-0.960570,
-0.269600,-0.938980,
-0.276870,-0.914970,
-0.279400,-0.889000,
-0.279400,0.889000,
-0.276870,0.914970,
-0.269600,0.938980,
-0.258050,0.960570,
-0.242690,0.979290,
-0.223980,0.994650,
-0.202380,1.006200,
-0.178370,1.013470,
-0.152400,1.016000,
0*%
%ADD43PPAD037*%
%ADD18C,0.203200*%
D73*
X+531044Y+6699222D03*
D30*
X+1469122Y+6017546D03*
X+1467380Y+5536724D03*
X+530263Y+6698441D03*
X-510640Y+6698441D03*
D31*
X-2667000Y+6350000D03*
X-2667000Y+6604000D03*
X-2667000Y+6858000D03*
X-2667000Y+7112000D03*
X-2667000Y+7366000D03*
X+1905000Y+6604000D03*
X+1905000Y+6858000D03*
X+1905000Y+7366000D03*
X+1905000Y+7112000D03*
D35*
X+1052000Y+7366000D03*
X+762000Y+7366000D03*
D36*
X-2286000Y+6350000D03*
X-2286000Y+6640000D03*
D37*
X-2286000Y+5969000D03*
X-2546000Y+5969000D03*
D36*
X+254000Y+6858000D03*
X+254000Y+6558000D03*
X+0Y+6858000D03*
X+0Y+6558000D03*
D32*
X-127000Y+5969000D03*
X+381000Y+5969000D03*
D36*
X-2032000Y+6558000D03*
X-2032000Y+6858000D03*
X+1524000Y+7203000D03*
X+1524000Y+7493000D03*
X-1524000Y+7620000D03*
X-1524000Y+7330000D03*
D35*
X-726000Y+7366000D03*
X-1016000Y+7366000D03*
D36*
X-1778000Y+7620000D03*
X-1778000Y+7330000D03*
D38*
X-1270000Y+7620000D03*
X-955040Y+7620000D03*
X-320040Y+7620000D03*
X-635000Y+7620000D03*
X-2032000Y+7620000D03*
X-2346960Y+7620000D03*
D33*
X-2032000Y+6350000D03*
X-1778000Y+6350000D03*
X-1524000Y+6350000D03*
X-1270000Y+6350000D03*
X-1016000Y+6350000D03*
D30*
X-762000Y+6350000D03*
X-508000Y+6350000D03*
D33*
X-254000Y+6350000D03*
X+0Y+6350000D03*
X+254000Y+6350000D03*
D30*
X+508000Y+6350000D03*
X+762000Y+6350000D03*
X+1016000Y+6350000D03*
X+1270000Y+6350000D03*
X+1270000Y+7112000D03*
X+1016000Y+7112000D03*
D33*
X+762000Y+7112000D03*
X+508000Y+7112000D03*
X+254000Y+7112000D03*
D30*
X+0Y+7112000D03*
D33*
X-254000Y+7112000D03*
D30*
X-508000Y+7112000D03*
X-762000Y+7112000D03*
X-1016000Y+7112000D03*
D33*
X-1270000Y+7112000D03*
X-1524000Y+7112000D03*
X-1778000Y+7112000D03*
X-2030000Y+7112000D03*
D39*
X+2308860Y+7233920D03*
D40*
X+2540000Y+6604000D03*
D39*
X+2540000Y+7233920D03*
X+2771140Y+7233920D03*
D35*
X+2286000Y+7493000D03*
X+2586000Y+7493000D03*
D36*
X+1524000Y+6858000D03*
X+1524000Y+6558000D03*
X-1778000Y+5751000D03*
X-1778000Y+5461000D03*
X-2032000Y+5461000D03*
X-2032000Y+5751000D03*
X-2286000Y+5461000D03*
X-2286000Y+5761000D03*
D31*
X-1778000Y+5207000D03*
X-1524000Y+5207000D03*
X-1270000Y+5207000D03*
X+1905000Y+7874000D03*
D35*
X-36000Y+7620000D03*
X+254000Y+7620000D03*
X-36000Y+7366000D03*
X+254000Y+7366000D03*
D36*
X-1524000Y+5751000D03*
X-1524000Y+5461000D03*
X-1524000Y+6858000D03*
X-1524000Y+6568000D03*
X-1778000Y+6858000D03*
X-1778000Y+6558000D03*
X-1016000Y+5751000D03*
X-1016000Y+5461000D03*
X-381000Y+5751000D03*
X-381000Y+5461000D03*
X-1016000Y+6858000D03*
X-1016000Y+6558000D03*
X-1270000Y+5751000D03*
X-1270000Y+5461000D03*
X-1270000Y+6858000D03*
X-1270000Y+6568000D03*
D31*
X-2032000Y+5207000D03*
D41*
X+2413000Y+6096000D03*
X+2413000Y+5207000D03*
D42*
X+2032000Y+5207000D03*
X+2032000Y+6096000D03*
D34*
X+3175000Y+7374000D03*
X+3175000Y+7874000D03*
X+3175000Y+6096000D03*
D43*
X+1016000Y+5461000D03*
X+951000Y+5461000D03*
X+886000Y+5461000D03*
X+821000Y+5461000D03*
X+821000Y+5891000D03*
X+886000Y+5891000D03*
X+951000Y+5891000D03*
X+1016000Y+5891000D03*
D34*
X+3175000Y+5461000D03*
D36*
X-635000Y+5761000D03*
X-635000Y+5461000D03*
X+1651000Y+5842000D03*
X+1651000Y+5542000D03*
D35*
X-635000Y+5969000D03*
X-935000Y+5969000D03*
D36*
X+889000Y+6858000D03*
X+889000Y+6558000D03*
D18*
X-3108960Y+4765040D02*
X+3512000Y+4765040D01*
X+3512000Y+8128000D01*
X-3108960Y+8128000D01*
X-3108960Y+4765040D01*
M02*
